<!--  ~ Copyright (C) 2018 Baidu, Inc. All Rights Reserved.  --><svg viewBox="0 0 640 480" xmlns="http://www.w3.org/2000/svg">    <g id="back-ground-cl">        <rect fill="none" width="640" height="480" />        <ellipse opacity="0.1" cx="331.93" cy="418.82" rx="168.39" ry="32.01"/>    </g>    <g id="body">        <defs>            <clipPath id="outline">                <path fill="none"  d="M288.13,99.43l-1-.77a74.32,74.32,0,0,0-15.72-9.14c-12.3-5.58-25.84-10-39.44-10.15-14-.21-27.91,4.62-38,14.41a68.1,68.1,0,0,0-11.08,14.31c-.9,1.49-8.21,13.88-7.18,15.71,4.14.07,8.57-2.84,12.46-4.14,4.7-1.57,9.48-2.91,14.31-4.06a224,224,0,0,1,29.7-4.89c11.32-1.15,22.69-1.59,34.07-1.7,3,0,6.08,0,9.15.14A105.4,105.4,0,0,1,288.13,99.43Z"/><path fill="none"  d="M182.37,371c-5.87-3.33-11.15-8.12-13-14.83a27.08,27.08,0,0,1-.44-10.23c.45-3.77,3.9-11.81-.92-13.58-2.17-.8-5.87.48-8,1.21a20.69,20.69,0,0,0-11.3,9.15c-4.67,8.19-2.72,18.51,3.73,25.12s15.67,9.85,24.28,12.05a84,84,0,0,0,20.89,2.57c-1.14-1.84-2.18-3.73-3.14-5.66C190.43,374.89,186.27,373.18,182.37,371Z"/><path fill="none"  d="M490.45,97c-6.44-5.74-14.27-10-22.14-13.4C452.63,76.72,436,73.55,419,77a69,69,0,0,0-39.34,23c1.15.68,2.3,1.39,3.43,2.12,13.8-4.08,29.65-3.59,43.32-2.66,18.69,1.27,37.1,5.38,55.43,9q4,.78,7.92,1.61c4.09.85,10.45,1.93,7.45-5.23C495.93,101.82,492.83,99.09,490.45,97Z"/><path fill="none"  d="M293.14,99.72c-20,11.79-34.54,30.83-46.83,50.12a378.12,378.12,0,0,0-52.48,133.65c-1.64,9-3,18.12-3.91,27.27-2.95,30.45-1.69,70.65,28.45,87.75,2.14,1.21,13.06,3.79,8.4,7.39-2.4,1.85-14.5,3-13.88,6.69.7,4.07,12.4,4.43,15.16,4.64a154.6,154.6,0,0,0,17.62.25c.52,0,1.44,0,2.41,0,.15-1.73.14-3.58.15-5.43s0-3.86.07-5.79c.07-3.85.18-7.69.2-11.53a150.79,150.79,0,0,0-1.33-22.89,55.39,55.39,0,0,0-2.69-11.09,30.47,30.47,0,0,0-2.47-5.15,18.35,18.35,0,0,0-3.63-4.43,22.73,22.73,0,0,1,6.83,9.28,56.42,56.42,0,0,1,3.4,11.14,135.2,135.2,0,0,1,2.22,23.12c.11,3.87.11,7.73.1,11.58,0,1.92,0,3.83,0,5.75s.08,3.86-.07,5.91a14.63,14.63,0,0,1-.56,3.13l-.13.39c0,.14-.12.3-.18.45a6.36,6.36,0,0,1-.47.85,6.81,6.81,0,0,1-1.25,1.36,22.47,22.47,0,0,1-5.48,2.84c-1.7.7-3.31,1.6-3.6,2.6a2.07,2.07,0,0,0-.11.85,5,5,0,0,0,.07.5l.14.48a4.77,4.77,0,0,0,1.25,1.77c.12.11.27.22.4.33a5.59,5.59,0,0,1,.24-3.1,6.6,6.6,0,0,1,2.78-3.36,8.26,8.26,0,0,1,2-.77,12.35,12.35,0,0,1,1.88-.39,13.21,13.21,0,0,1,3.88,0,13.14,13.14,0,0,1-3.14,2.28c-1.12.62-2.2,1.07-3.05,1.51a9.39,9.39,0,0,0-2.26,1.92,12.88,12.88,0,0,0-1.92,3l.47-.39a15.32,15.32,0,0,0,3.2,1.56,20.74,20.74,0,0,0,2.59.74,22.72,22.72,0,0,0,2.68.41c.47.05.94.06,1.4.1a3,3,0,0,1-.43-.91,3.62,3.62,0,0,1,.15-2.18,7.07,7.07,0,0,1,2.48-3,10.06,10.06,0,0,1,3.24-1.62,7.37,7.37,0,0,1,3.65-.16,28.51,28.51,0,0,1-2.61,2.28c-.84.66-1.66,1.29-2.49,1.9a23.66,23.66,0,0,0-2.22,1.75,3.44,3.44,0,0,0-.74,1,2.59,2.59,0,0,0-.2,1.56h0l.54-.56a48.24,48.24,0,0,0,8.41-.43,36.39,36.39,0,0,0,5.42-1.12,14.75,14.75,0,0,0,4.66-2.47,20.45,20.45,0,0,0,3.79-3.87,25.21,25.21,0,0,0,2.86-4.7,10.16,10.16,0,0,0,.53-1.25,11.29,11.29,0,0,0,.43-1.28c.27-.89.49-1.81.71-2.73l1.22-5.62c.82-3.77,1.62-7.55,2.59-11.29a112.84,112.84,0,0,1,3.47-11.08,48.6,48.6,0,0,1,5.15-10.36c-3.71,6.78-5.64,14.28-7.19,21.77-.78,3.71-1.42,7.46-2.06,11.21a312,312,0,0,0,33.13,5.43c21.5,2.29,43.66,2.36,64.8-2.67a86.24,86.24,0,0,0,8.66-2.59c0-.15-.05-.3-.08-.45-.62-3.71-.81-7.4-1.24-11-.2-1.8-.51-3.61-.79-5.43s-.56-3.64-.93-5.41a32.2,32.2,0,0,0-1.72-5.19c-.65-1.72-1.25-3.46-1.84-5.21.73,1.69,1.47,3.37,2.26,5a32.31,32.31,0,0,1,2.07,5.16c.49,1.8.88,3.6,1.28,5.4s.8,3.59,1.12,5.43c.62,3.67,1,7.33,1.72,10.86a31,31,0,0,0,1.51,5.11,26.42,26.42,0,0,0,2.44,4.69,20,20,0,0,0,7.48,7,12.92,12.92,0,0,0,2.34.92,25.38,25.38,0,0,0,2.57.61,43,43,0,0,0,5.3.72,51.77,51.77,0,0,0,5.71.11l.54.56a2.47,2.47,0,0,0-.2-1.55,3.16,3.16,0,0,0-.74-1,22.09,22.09,0,0,0-2.22-1.76c-.83-.61-1.65-1.24-2.49-1.9a28.31,28.31,0,0,1-2.61-2.28,7.41,7.41,0,0,1,3.66.17,10.09,10.09,0,0,1,3.23,1.61,7.19,7.19,0,0,1,2.48,3,3.54,3.54,0,0,1,.15,2.18,2.77,2.77,0,0,1-.43.92c1.19-.08,2.38-.2,3.53-.39a20.28,20.28,0,0,0,4.87-1.59,10.63,10.63,0,0,0,1.48-.83l.46.39a12.46,12.46,0,0,0-1.91-3,9.26,9.26,0,0,0-2.27-1.93c-.84-.44-1.93-.89-3.05-1.5a13.47,13.47,0,0,1-3.14-2.29,13.57,13.57,0,0,1,3.88.05,12.35,12.35,0,0,1,1.88.39,8.53,8.53,0,0,1,2,.77,6.54,6.54,0,0,1,2.78,3.37,5.4,5.4,0,0,1,.23,3.12,6,6,0,0,0,1.3-1.42,3.8,3.8,0,0,0,.58-1.85,2.25,2.25,0,0,0-.12-.84,1.91,1.91,0,0,0-.4-.72c-.79-.94-2.47-1.64-4.14-2.28a21.52,21.52,0,0,1-5.32-2.6,7.06,7.06,0,0,1-1.24-1.21,4.82,4.82,0,0,1-.87-1.72,9.16,9.16,0,0,1-.28-1.57c-.06-.51-.09-1-.1-1.48a111.71,111.71,0,0,1,.44-11.19c.29-3.68.68-7.36,1.13-11,.9-7.33,2-14.62,3.49-21.86.76-3.62,1.6-7.22,2.61-10.77.51-1.78,1.07-3.54,1.74-5.26a24.1,24.1,0,0,1,1.17-2.53,7.47,7.47,0,0,1,1.66-2.2,7.31,7.31,0,0,0-1.46,2.3,21.49,21.49,0,0,0-.94,2.58c-.56,1.74-1,3.52-1.4,5.31-.79,3.58-1.4,7.19-1.94,10.82-1.1,7.26-1.92,14.56-2.61,21.86-.32,3.65-.6,7.31-.83,11-.19,3.41-.36,6.86-.25,10.2,5.43.86,11.35.45,16.71.28A155.49,155.49,0,0,0,459,411.18c2.36-.37,3.95,0,2.58-2.31-1.6-2.7-4-4-6.93-5-2.41-.82-9.31-1-10.72-3.45-.77-1.34.08-2,1-2.94,1.35-1.35,4-2.21,5.61-3.24q3-1.89,5.8-4.06A69.49,69.49,0,0,0,475.13,368c9-16.72,10.95-36.34,9.18-55-2.25-23.74-9.26-47.36-17.27-69.73-8.65-24.17-19.39-47.54-30.82-70.5-9.44-18.94-19.2-36.84-34.45-51.82C387.9,107.3,370.88,96.3,351.92,91.45A77.41,77.41,0,0,0,293.14,99.72Z"/><path d="M496.69,99c-5.84-6.88-14-11.83-22-15.78C459,75.47,441.91,70.94,424.28,73.1A72.73,72.73,0,0,0,377,98.44L376.2,98c-16.45-9-35.35-13.87-54.13-11.45a80.41,80.41,0,0,0-31.3,11.25l-.39-.34c-5.55-4.76-12.19-8.21-18.85-11.15C257.09,79.92,241,75.06,225,76.66a55.85,55.85,0,0,0-38.15,20.45,92.54,92.54,0,0,0-11.19,18.06c-1.45,3-5.75,9.16-1.31,11.4a1.81,1.81,0,0,0,.41.14,1.86,1.86,0,0,0,.34.06c3.53.32,6.44-1.35,9.59-2.66a112.5,112.5,0,0,1,14.12-4.5,213.11,213.11,0,0,1,33.35-5.9c11-1.12,22-1.57,33.09-1.69,2.3,0,4.62,0,6.94.07q-2.6,2.47-5.06,5.09C250.72,134.76,238,156.12,227,177.41a379.14,379.14,0,0,0-27.54,69.19c-3.43,11.88-6.24,23.93-8.51,36.09-5.09,28-9.91,62.19,1.57,89.68-4.81-2.13-9.7-4.05-13.8-7.51-8.06-6.81-7.59-15.93-5.55-25.37.87-4,1.76-8.35-3.06-9.85-9.54-3-21.24,5.27-24.92,13.52-5.23,11.71.26,24.1,10.32,31,12.47,8.53,28.89,11.64,44.13,11.27a53.66,53.66,0,0,0,14.65,14.12,57.39,57.39,0,0,0,5.29,3c.46.23,2,1.13,3.25,1.71l-.31.13c-1.79.62-3.6,1.16-5.38,1.81-3.43,1.26-9.1,3.22-6.82,8,1.87,3.92,8,4.81,11.71,5.39a117.2,117.2,0,0,0,20,1c1.45,0,3.44.1,5.44.05a3.14,3.14,0,0,1-.29.54,3.81,3.81,0,0,1-.71.75,20.47,20.47,0,0,1-4.78,2.37,17.75,17.75,0,0,0-2.81,1.43,5.86,5.86,0,0,0-2.43,2.88,6.52,6.52,0,0,0,2.08,6.77,12.16,12.16,0,0,0,2.66,1.88A18.93,18.93,0,0,0,244,438.5a23.26,23.26,0,0,0,6,1.28,49.63,49.63,0,0,0,11.87-.34,38.82,38.82,0,0,0,5.85-1.34,17.41,17.41,0,0,0,5.44-3,25.18,25.18,0,0,0,7.16-9.67,18.28,18.28,0,0,0,1-2.89c.26-1,.45-1.93.65-2.88s.38-1.92.55-2.87c22.31,4.82,45.27,7.68,68.12,6.77a160.48,160.48,0,0,0,32.58-4.43q3.58-.9,7.13-2a28.54,28.54,0,0,0,3.1,7.12,21.83,21.83,0,0,0,8.26,8.09,16,16,0,0,0,2.77,1.15c.95.31,1.85.51,2.78.72a48.6,48.6,0,0,0,5.62.87,45.84,45.84,0,0,0,11.39-.31,22.92,22.92,0,0,0,5.61-1.79,14.28,14.28,0,0,0,2.63-1.57,8.75,8.75,0,0,0,2.25-2.39,6.84,6.84,0,0,0,1-3.36,5.19,5.19,0,0,0-1.23-3.53,8.19,8.19,0,0,0-2.68-2,27.2,27.2,0,0,0-2.68-1.14,18.91,18.91,0,0,1-4.6-2.15,4.15,4.15,0,0,1-.74-.7,1.77,1.77,0,0,1-.37-.72.42.42,0,0,1,0-.12l.84.08a142.67,142.67,0,0,0,20.88,0c5.57-.29,11.92-.22,17.32-1.84,3.77-1.14,2.9-4.87.85-7.65-3.27-4.44-9.46-5.47-14.47-6.65l-.43-.13c.93-.57,1.95-1.32,2.34-1.55a77.19,77.19,0,0,0,11.86-8.8c14-12.68,21.86-30.38,24.31-48.93,2.85-21.55-1.3-43.27-6.68-64.1-6.48-25.1-15.83-49.37-26.44-73-5.4-12-11.14-23.88-17.06-35.65-5.06-10.07-10.08-20.1-16.64-29.3a138.12,138.12,0,0,0-33.58-33.43,100,100,0,0,1,15-2.06,186.19,186.19,0,0,1,32.37.72c10.79,1.12,21.41,3.33,32.07,5.36,5.56,1.06,11.13,2.13,16.69,3.25,4,.8,10,3.36,14,2.11C504.59,111.33,500.13,103.09,496.69,99,266.26,109c-11.38.11-22.75.55-34.07,1.7a224,224,0,0,0-29.7,4.89c-4.83,1.15-9.61,2.49-14.31,4.06-3.89,1.3-8.32,4.21-12.46,4.14-1-1.83,6.28-14.22,7.18-15.71A68.1,68.1,0,0,1,194,93.78C204.1,84,218,79.16,232,79.37c13.6.2,27.14,4.57,39.44,10.15a74.32,74.32,0,0,1,15.72,9.14l1,.77a105.4,105.4,0,0,0-12.72,9.72C272.34,109.06,269.29,109,266.26,109,-89.5,270.85c-8.61-2.2-17.93-5.56-24.28-12.05s-8.4-16.93-3.73-25.12a20.69,20.69,0,0,1,11.3-9.15c2.13-.73,5.83-2,8-1.21,4.82,1.77,1.37,9.81.92,13.58a27.08,27.08,0,0,0,.44,10.23c1.81,6.71,7.09,11.5,13,14.83,3.9,2.21,8.06,3.92,12.14,5.8,1,1.93,2,3.82,3.14,5.66A84,84,0,0,1,176.76,379.86,225-259c15.25,15,25,32.88,34.45,51.82,11.43,23,22.17,46.33,30.82,70.5,8,22.37,15,46,17.27,69.73,1.77,18.65-.21,38.27-9.18,55a69.49,69.49,0,0,1-18.81,22.21q-2.81,2.18-5.8,4.06c-1.64,1-4.26,1.89-5.61,3.24-.89.89-1.74,1.6-1,2.94,1.41,2.49,8.31,2.63,10.72,3.45,2.95,1,5.33,2.32,6.93,5,1.37,2.31-.22,1.94-2.58,2.31a155.49,155.49,0,0,1-19.16,1.45c-5.36.17-11.28.58-16.71-.28-.11-3.34.06-6.79.25-10.2.23-3.65.51-7.31.83-11,.69-7.3,1.51-14.6,2.61-21.86.54-3.63,1.15-7.24,1.94-10.82.39-1.79.84-3.57,1.4-5.31a21.49,21.49,0,0,1,.94-2.58,7.31,7.31,0,0,1,1.46-2.3,7.47,7.47,0,0,0-1.66,2.2,24.1,24.1,0,0,0-1.17,2.53c-.67,1.72-1.23,3.48-1.74,5.26-1,3.55-1.85,7.15-2.61,10.77-1.45,7.24-2.59,14.53-3.49,21.86-.45,3.66-.84,7.34-1.13,11a111.71,111.71,0,0,0-.44,11.19c0,.48,0,1,.1,1.48a9.16,9.16,0,0,0,.28,1.57,4.82,4.82,0,0,0,.87,1.72,7.06,7.06,0,0,0,1.24,1.21,21.52,21.52,0,0,0,5.32,2.6c1.67.64,3.35,1.34,4.14,2.28a1.91,1.91,0,0,1,.4.72,2.25,2.25,0,0,1,.12.84,3.8,3.8,0,0,1-.58,1.85,6,6,0,0,1-1.3,1.42,5.4,5.4,0,0,0-.23-3.12,6.54,6.54,0,0,0-2.78-3.37,8.53,8.53,0,0,0-2-.77,12.35,12.35,0,0,0-1.88-.39,13.57,13.57,0,0,0-3.88-.05,13.47,13.47,0,0,0,3.14,2.29c1.12.61,2.21,1.06,3.05,1.5a9.26,9.26,0,0,1,2.27,1.93,12.46,12.46,0,0,1,1.91,3l-.46-.39a10.63,10.63,0,0,1-1.48.83,20.28,20.28,0,0,1-4.87,1.59c-1.15.19-2.34.31-3.53.39a2.77,2.77,0,0,0,.43-.92,3.54,3.54,0,0,0-.15-2.18,7.19,7.19,0,0,0-2.48-3,10.09,10.09,0,0,0-3.23-1.61,7.41,7.41,0,0,0-3.66-.17,28.31,28.31,0,0,0,2.61,2.28c.84.66,1.66,1.29,2.49,1.9a22.09,22.09,0,0,1,2.22,1.76,3.16,3.16,0,0,1,.74,1,2.47,2.47,0,0,1,.2,1.55l-.54-.56a51.77,51.77,0,0,1-5.71-.11,43,43,0,0,1-5.3-.72,25.38,25.38,0,0,1-2.57-.61,12.92,12.92,0,0,1-2.34-.92,20,20,0,0,1-7.48-7,26.42,26.42,0,0,1-2.44-4.69,31,31,0,0,1-1.51-5.11c-.76-3.53-1.1-7.19-1.72-10.86-.32-1.84-.74-3.63-1.12-5.43s-.79-3.6-1.28-5.4a32.31,32.31,0,0,0-2.07-5.16c-.79-1.67-1.53-3.35-2.26-5,.59,1.75,1.19,3.49,1.84,5.21a32.2,32.2,0,0,1,1.72,5.19c.37,1.77.65,3.6.93,5.41s.59,3.63.79,5.43c.43,3.62.62,7.31,1.24,11,0,.15.06.3.08.45a86.24,86.24,0,0,1-8.66,2.59c-21.14,5-43.3,5-64.8,2.67a312,312,0,0,1-33.13-5.43c.64-3.75,1.28-7.5,2.06-11.21,1.55-7.49,3.48-15,7.19-21.77a48.6,48.6,0,0,0-5.15,10.36,112.84,112.84,0,0,0-3.47,11.08c-1,3.74-1.77,7.52-2.59,11.29l-1.22,5.62c-.22.92-.44,1.84-.71,2.73a11.29,11.29,0,0,1-.43,1.28,10.16,10.16,0,0,1-.53,1.25,25.21,25.21,0,0,1-2.86,4.7,20.45,20.45,0,0,1-3.79,3.87,14.75,14.75,0,0,1-4.66,2.47,36.39,36.39,0,0,1-5.42,1.12,48.24,48.24,0,0,1-8.41.43l-.54.56h0a2.59,2.59,0,0,1,.2-1.56,3.44,3.44,0,0,1,.74-1,23.66,23.66,0,0,1,2.22-1.75c.83-.61,1.65-1.24,2.49-1.9a28.51,28.51,0,0,0,2.61-2.28,7.37,7.37,0,0,0-3.65.16,10.06,10.06,0,0,0-3.24,1.62,7.07,7.07,0,0,0-2.48,3,3.62,3.62,0,0,0-.15,2.18,3,3,0,0,0,.43.91c-.46,0-.93,0-1.4-.1a22.72,22.72,0,0,1-2.68-.41,20.74,20.74,0,0,1-2.59-.74,15.32,15.32,0,0,1-3.2-1.56l-.47.39a12.88,12.88,0,0,1,1.92-3,9.39,9.39,0,0,1,2.26-1.92c.85-.44,1.93-.89,3.05-1.51a13.14,13.14,0,0,0,3.14-2.28,13.21,13.21,0,0,0-3.88,0,12.35,12.35,0,0,0-1.88.39,8.26,8.26,0,0,0-2,.77,6.6,6.6,0,0,0-2.78,3.36,5.59,5.59,0,0,0-.24,3.1c-.13-.11-.28-.22-.4-.33a4.77,4.77,0,0,1-1.25-1.77l-.14-.48a5,5,0,0,1-.07-.5,2.07,2.07,0,0,1,.11-.85c.29-1,1.9-1.9,3.6-2.6a22.47,22.47,0,0,0,5.48-2.84,6.81,6.81,0,0,0,1.25-1.36,6.36,6.36,0,0,0,.47-.85c.06-.15.13-.31.18-.45l.13-.39a14.63,14.63,0,0,0,.56-3.13c.15-2.05.09-4,.07-5.91s0-3.83,0-5.75c0-3.85,0-7.71-.1-11.58a135.2,135.2,0,0,0-2.22-23.12,56.42,56.42,0,0,0-3.4-11.14,22.73,22.73,0,0,0-6.83-9.28,18.35,18.35,0,0,1,3.63,4.43,30.47,30.47,0,0,1,2.47,5.15,55.39,55.39,0,0,1,2.69,11.09,150.79,150.79,0,0,1,1.33,22.89c0,3.84-.13,7.68-.2,11.53,0,1.93-.06,3.87-.07,5.79s0,3.7-.15,5.43c-1,0-1.89,0-2.41,0a154.6,154.6,0,0,1-17.62-.25c-2.76-.21-14.46-.57-15.16-4.64-.62-3.65,11.48-4.84,13.88-6.69,4.66-3.6-6.26-6.18-8.4-7.39-30.14-17.1-31.4-57.3-28.45-87.75.88-9.15,2.27-18.23,3.91-27.27a378.12,378.12,0,0,1,52.48-133.65c12.29-19.29,26.8-38.33,46.83-50.12a77.41,77.41,0,0,1,58.78-8.27C370.88,96.3,387.9,107.3,401.77,120.91,88-10.86q-3.94-.83-7.92-1.61c-18.33-3.65-36.74-7.76-55.43-9-13.67-.93-29.52-1.42-43.32,2.66-1.13-.73-2.28-1.44-3.43-2.12A69,69,0,0,1,419,77c17-3.41,33.65-.24,49.33,6.6C476.18,87,484,91.22,490.45,97c2.38,2.13,5.48,4.86,6.74,7.86C500.19,112,493.83,110.9,489.74,110.05Z"/>            </clipPath>        </defs>        <g clip-path="url(#outline)">            <rect fill="#49ADB7" width="640" height="480" />        </g>    </g>    <g id="pattern">        <g clip-path="url(#outline)">            <path fill="#606060" opacity="0"  d="M192.42,300s-7.44,9.69-3.87,19.35C188.55,319.35,195.87,310.57,192.42,300Z"/><path fill="#606060" opacity="0"  d="M185.52,338.51s-10.13,12.92-5.46,26C180.06,364.47,190,352.76,185.52,338.51Z"/><path fill="#606060" opacity="0"  d="M205.79,334.88s-8.34,9.82-5.08,20.19C200.71,355.07,208.87,346.19,205.79,334.88Z"/><path fill="#606060" opacity="0"  d="M238.56,282.25s-9.82,13.15-4.84,26.08C233.72,308.33,243.39,296.38,238.56,282.25Z"/><path fill="#606060" opacity="0"  d="M196.2,255.65s-6.65,7.75-4.1,16C192.1,271.62,198.6,264.62,196.2,255.65Z"/><path fill="#606060" opacity="0"  d="M250.17,346.4s-6.9,12.06-1.38,22.4C248.79,368.8,255.68,357.77,250.17,346.4Z"/><path fill="#606060" opacity="0"  d="M233.29,367.58s-8.14,14.25-1.63,26.47C231.66,394.05,239.81,381,233.29,367.58Z"/><path fill="#606060" opacity="0"  d="M290.72,386.72s-8.15,14.26-1.63,26.47C289.09,413.19,297.23,400.16,290.72,386.72Z"/><path fill="#606060" opacity="0"  d="M276.46,304.45s-8.14,14.26-1.63,26.47C274.83,330.92,283,317.89,276.46,304.45Z"/><path fill="#606060" opacity="0"  d="M330.38,332.47s-5.57,15.45,2.95,26.36C333.33,358.83,339.11,344.59,330.38,332.47Z"/><path fill="#606060" opacity="0"  d="M307.42,342.33s-8.15,14.25-1.63,26.47C305.79,368.8,313.93,355.77,307.42,342.33Z"/><path fill="#606060" opacity="0"  d="M344.92,284.69s-4.46,15.8,4.82,26.08C349.74,310.77,354.49,296.16,344.92,284.69Z"/><path fill="#606060" opacity="0"  d="M357.75,336.32s-5.19,15.57,3.6,26.27C361.35,362.59,366.78,348.22,357.75,336.32Z"/><path fill="#606060" opacity="0"  d="M328.12,391.47s-3.5,11.95,3.46,19.83C331.58,411.3,335.3,400.25,328.12,391.47Z"/><path fill="#606060" opacity="0"  d="M387.8,336.74s-5.08,15.61,3.77,26.25C391.57,363,396.91,348.58,387.8,336.74Z"/><path fill="#606060" opacity="0"  d="M424.64,337.74s-3.83,16,5.85,25.87C430.49,363.61,434.66,348.82,424.64,337.74Z"/><path fill="#606060" opacity="0"  d="M404.32,246s-4.38,15.83,4.95,26.06C409.27,272.07,414,257.43,404.32,246Z"/><path fill="#606060" opacity="0"  d="M380.21,287.14S377,299.62,384.5,307.5C384.5,307.5,387.94,296,380.21,287.14Z"/><path fill="#606060" opacity="0"  d="M413.81,298.35s-2.63,9.65,3.07,15.87C416.88,314.22,419.7,305.29,413.81,298.35Z"/><path fill="#606060" opacity="0"  d="M437.45,315s-2.66,9.65,3,15.88C440.49,330.92,443.33,322,437.45,315Z"/><path fill="#606060" opacity="0"  d="M309.64,286s-6,10.43-1.19,19.36C308.45,305.37,314.41,295.84,309.64,286Z"/>            <g opacity="0.6" ><path fill="#FFFFFF"  d="M285.42,418.84c2.41-25.61,23.86-48.92,47.26-49.49,24.85-.61,52.31,18.62,54.82,48.11.12,1.49,1.19.46-.06,1.63-1.4,1.32-6.65,1.94-9.64,2.8-14.1,4.06-27.59,4.48-43.77,4.36-16.48-.12-33.16-4.21-48.14-7.41"/></g>        </g>    </g>    <g id="mask">        <path fill="#352f2d"  d="M174.38,126.57a1.81,1.81,0,0,0,.41.14,1.86,1.86,0,0,0,.34.06c3.53.32,6.44-1.35,9.59-2.66a110.88,110.88,0,0,1,14.12-4.5,211.75,211.75,0,0,1,33.35-5.9c11-1.12,22-1.57,33.09-1.69,2.3,0,4.62,0,6.94.07a106.63,106.63,0,0,1,18.55-14.31l-.39-.34c-5.55-4.77-12.19-8.21-18.85-11.15C257.09,79.92,241,75.06,225,76.66a55.85,55.85,0,0,0-38.15,20.45,92.54,92.54,0,0,0-11.19,18.06C174.24,118.16,169.94,124.33,174.38,126.57Z"/><g opacity="0.1" ><path d="M480.32,343.46c-1.82,3.4-3.69,6.78-5.68,10.08a107.44,107.44,0,0,1-13.23,18.12,62.92,62.92,0,0,1-11.06,9.47,60,60,0,0,1-6.25,3.66,33.15,33.15,0,0,1-5.53,2.51c-4,1.16-6.15-2.21-7.32-5.52a39.48,39.48,0,0,1-2.34-17.54,119.82,119.82,0,0,1,2.54-14.42l-1.94,4.49c-3.06,11.13-4.58,22.56-6,34a4.63,4.63,0,0,0,.26,2.2,3.15,3.15,0,0,0-.88.72c-2.06,2.52-.69,11.11-.81,14.31a.64.64,0,0,0,.09.45c.16.19.45.14.69.08a108,108,0,0,0,24.46-9.44c9.48-5.29,16.42-12.76,22.8-21.4,3.19-4.31,7.4-8.22,9.2-13.28,3.1-8.71,6.71-17.83,5.44-27C485,336.67,481.24,341.74,480.32,343.46Z"/></g><g opacity="0.1" ><path d="M300.05,94.69c-23.63,13.11-38,28.58-53.16,54.08-14.44,24.28-29.76,53.16-39.76,79.21s-15,53.6-17.25,81.33c-2,24.3-2.41,58.21,14.72,78,10,11.56,21.38,19,39.1,21.26,1.52.19,3.07.4,4.62.61-.4-2.32,0-4.6,2-5.95-.17-.64-.34-1.2-.4-1.52a5.06,5.06,0,0,1,.15-2.73c-17-5.82-32.14-19.18-39.54-35.41-4-8.82-6.12-18.92-6.18-30.42-.12-27.61,3.21-61,10.78-87.25,10.89-37.75,30.59-71.48,52.33-104.45C278.23,125.13,285.07,107.28,300.05,94.69Z"/></g><g opacity="0.1" ><path d="M389.59,402.19c-5.29,1.25-9.82,4.43-15.12,5.66a159,159,0,0,1-19.41,2.95c-22,2.28-44.35.82-66.17-2.85-1.82-5.45-1.09-11.68-.06-17.2.53-2.84,2-6.43,2.63-8.76-.18.24-.36.51-.53.76a78,78,0,0,0-5.31,14.34c-1,4.38-1.11,8.84-2.52,13.14a5.25,5.25,0,0,1-1,1.75c0,.76-.1,1.52-.18,2.27a4.45,4.45,0,0,1-.14.76c1.66.36,3.28.73,4.85,1.11,14.9,5.54,32.72,6.73,47.93,6.86,15.65.13,34.69-1.09,45-4.91,2.86-1.06,9.12-1.62,10.48-3.05,1.2-1.27-.65-1.69-.78-3.3C388.57,402.43,389.58,402.19,389.59,402.19Z"/></g><g opacity="0.1" ><path d="M194.74,378.49c-7.91-.88-15.54-2-23-4.9-5-2-10.51-4.4-14.3-8.28s-4.52-9.35-3.95-14.67a25.91,25.91,0,0,1,2.37-9,13.93,13.93,0,0,1,4.41-5.19,24.6,24.6,0,0,1,8.57-4.4c.36-.09-3.05.21-3.08.05s-.31-.36-.87-.62a4.47,4.47,0,0,0-2-.49,13.32,13.32,0,0,0-7.86,3c-7.54,6.15-11.12,17-9.46,26.45a14.91,14.91,0,0,0,1.84,5.32,17.66,17.66,0,0,0,4.26,4.41,68.65,68.65,0,0,0,40.9,14.72c3.44.07,3.79-.15,6.52-2.25C198.12,379.72,197.79,378.83,194.74,378.49Z"/></g><path fill="#9dd7d7"  d="M220.31,283.49l3.71.29C223.75,283.51,223.49,283.24,220.31,283.49Z"/><path fill="#352f2d"  d="M496.69,99c-5.84-6.88-14-11.83-22-15.78-15.75-7.77-32.82-12.3-50.45-10.15A72.79,72.79,0,0,0,377,98.44q4.89,2.75,9.52,6a98.73,98.73,0,0,1,15-2.06,186.19,186.19,0,0,1,32.37.72c10.79,1.12,21.41,3.33,32.07,5.36,5.56,1.06,11.13,2.13,16.69,3.25,4,.8,10,3.36,14,2.11C504.59,111.33,500.13,103.09,496.69,99Z"/>        <g opacity="0.1" ><path fill="#fff"  d="M379.91,101.78c6,5.3,10.42,13.69,14.49,20.51,4.46,7.47,8.88,15,13.37,22.42,13,21.7,26.15,43.75,37,66.65a328.73,328.73,0,0,1,23.4,68.9c2.75,12.34,4.91,24.8,6.6,37.33,1.39,10.34,4.07,22.69-2.47,31.88,4.27-6,9.85-10.61,11.34-14.66,5.27-14.38.18-32.18-2.49-46.67-5.44-29.5-15.48-57.88-26.94-85.53-11.27-27.21-25.53-53.07-44.82-75.49C393.14,108.28,380.13,102,379.91,101.78Z"/></g>    </g>    <g id="outline">        <path fill="none"  d="M288.13,99.43l-1-.77a74.32,74.32,0,0,0-15.72-9.14c-12.3-5.58-25.84-10-39.44-10.15-14-.21-27.91,4.62-38,14.41a68.1,68.1,0,0,0-11.08,14.31c-.9,1.49-8.21,13.88-7.18,15.71,4.14.07,8.57-2.84,12.46-4.14,4.7-1.57,9.48-2.91,14.31-4.06a224,224,0,0,1,29.7-4.89c11.32-1.15,22.69-1.59,34.07-1.7,3,0,6.08,0,9.15.14A105.4,105.4,0,0,1,288.13,99.43Z"/><path fill="none"  d="M182.37,371c-5.87-3.33-11.15-8.12-13-14.83a27.08,27.08,0,0,1-.44-10.23c.45-3.77,3.9-11.81-.92-13.58-2.17-.8-5.87.48-8,1.21a20.69,20.69,0,0,0-11.3,9.15c-4.67,8.19-2.72,18.51,3.73,25.12s15.67,9.85,24.28,12.05a84,84,0,0,0,20.89,2.57c-1.14-1.84-2.18-3.73-3.14-5.66C190.43,374.89,186.27,373.18,182.37,371Z"/><path fill="none"  d="M490.45,97c-6.44-5.74-14.27-10-22.14-13.4C452.63,76.72,436,73.55,419,77a69,69,0,0,0-39.34,23c1.15.68,2.3,1.39,3.43,2.12,13.8-4.08,29.65-3.59,43.32-2.66,18.69,1.27,37.1,5.38,55.43,9q4,.78,7.92,1.61c4.09.85,10.45,1.93,7.45-5.23C495.93,101.82,492.83,99.09,490.45,97Z"/><path fill="none"  d="M293.14,99.72c-20,11.79-34.54,30.83-46.83,50.12a378.12,378.12,0,0,0-52.48,133.65c-1.64,9-3,18.12-3.91,27.27-2.95,30.45-1.69,70.65,28.45,87.75,2.14,1.21,13.06,3.79,8.4,7.39-2.4,1.85-14.5,3-13.88,6.69.7,4.07,12.4,4.43,15.16,4.64a154.6,154.6,0,0,0,17.62.25c.52,0,1.44,0,2.41,0,.15-1.73.14-3.58.15-5.43s0-3.86.07-5.79c.07-3.85.18-7.69.2-11.53a150.79,150.79,0,0,0-1.33-22.89,55.39,55.39,0,0,0-2.69-11.09,30.47,30.47,0,0,0-2.47-5.15,18.35,18.35,0,0,0-3.63-4.43,22.73,22.73,0,0,1,6.83,9.28,56.42,56.42,0,0,1,3.4,11.14,135.2,135.2,0,0,1,2.22,23.12c.11,3.87.11,7.73.1,11.58,0,1.92,0,3.83,0,5.75s.08,3.86-.07,5.91a14.63,14.63,0,0,1-.56,3.13l-.13.39c0,.14-.12.3-.18.45a6.36,6.36,0,0,1-.47.85,6.81,6.81,0,0,1-1.25,1.36,22.47,22.47,0,0,1-5.48,2.84c-1.7.7-3.31,1.6-3.6,2.6a2.07,2.07,0,0,0-.11.85,5,5,0,0,0,.07.5l.14.48a4.77,4.77,0,0,0,1.25,1.77c.12.11.27.22.4.33a5.59,5.59,0,0,1,.24-3.1,6.6,6.6,0,0,1,2.78-3.36,8.26,8.26,0,0,1,2-.77,12.35,12.35,0,0,1,1.88-.39,13.21,13.21,0,0,1,3.88,0,13.14,13.14,0,0,1-3.14,2.28c-1.12.62-2.2,1.07-3.05,1.51a9.39,9.39,0,0,0-2.26,1.92,12.88,12.88,0,0,0-1.92,3l.47-.39a15.32,15.32,0,0,0,3.2,1.56,20.74,20.74,0,0,0,2.59.74,22.72,22.72,0,0,0,2.68.41c.47.05.94.06,1.4.1a3,3,0,0,1-.43-.91,3.62,3.62,0,0,1,.15-2.18,7.07,7.07,0,0,1,2.48-3,10.06,10.06,0,0,1,3.24-1.62,7.37,7.37,0,0,1,3.65-.16,28.51,28.51,0,0,1-2.61,2.28c-.84.66-1.66,1.29-2.49,1.9a23.66,23.66,0,0,0-2.22,1.75,3.44,3.44,0,0,0-.74,1,2.59,2.59,0,0,0-.2,1.56h0l.54-.56a48.24,48.24,0,0,0,8.41-.43,36.39,36.39,0,0,0,5.42-1.12,14.75,14.75,0,0,0,4.66-2.47,20.45,20.45,0,0,0,3.79-3.87,25.21,25.21,0,0,0,2.86-4.7,10.16,10.16,0,0,0,.53-1.25,11.29,11.29,0,0,0,.43-1.28c.27-.89.49-1.81.71-2.73l1.22-5.62c.82-3.77,1.62-7.55,2.59-11.29a112.84,112.84,0,0,1,3.47-11.08,48.6,48.6,0,0,1,5.15-10.36c-3.71,6.78-5.64,14.28-7.19,21.77-.78,3.71-1.42,7.46-2.06,11.21a312,312,0,0,0,33.13,5.43c21.5,2.29,43.66,2.36,64.8-2.67a86.24,86.24,0,0,0,8.66-2.59c0-.15-.05-.3-.08-.45-.62-3.71-.81-7.4-1.24-11-.2-1.8-.51-3.61-.79-5.43s-.56-3.64-.93-5.41a32.2,32.2,0,0,0-1.72-5.19c-.65-1.72-1.25-3.46-1.84-5.21.73,1.69,1.47,3.37,2.26,5a32.31,32.31,0,0,1,2.07,5.16c.49,1.8.88,3.6,1.28,5.4s.8,3.59,1.12,5.43c.62,3.67,1,7.33,1.72,10.86a31,31,0,0,0,1.51,5.11,26.42,26.42,0,0,0,2.44,4.69,20,20,0,0,0,7.48,7,12.92,12.92,0,0,0,2.34.92,25.38,25.38,0,0,0,2.57.61,43,43,0,0,0,5.3.72,51.77,51.77,0,0,0,5.71.11l.54.56a2.47,2.47,0,0,0-.2-1.55,3.16,3.16,0,0,0-.74-1,22.09,22.09,0,0,0-2.22-1.76c-.83-.61-1.65-1.24-2.49-1.9a28.31,28.31,0,0,1-2.61-2.28,7.41,7.41,0,0,1,3.66.17,10.09,10.09,0,0,1,3.23,1.61,7.19,7.19,0,0,1,2.48,3,3.54,3.54,0,0,1,.15,2.18,2.77,2.77,0,0,1-.43.92c1.19-.08,2.38-.2,3.53-.39a20.28,20.28,0,0,0,4.87-1.59,10.63,10.63,0,0,0,1.48-.83l.46.39a12.46,12.46,0,0,0-1.91-3,9.26,9.26,0,0,0-2.27-1.93c-.84-.44-1.93-.89-3.05-1.5a13.47,13.47,0,0,1-3.14-2.29,13.57,13.57,0,0,1,3.88.05,12.35,12.35,0,0,1,1.88.39,8.53,8.53,0,0,1,2,.77,6.54,6.54,0,0,1,2.78,3.37,5.4,5.4,0,0,1,.23,3.12,6,6,0,0,0,1.3-1.42,3.8,3.8,0,0,0,.58-1.85,2.25,2.25,0,0,0-.12-.84,1.91,1.91,0,0,0-.4-.72c-.79-.94-2.47-1.64-4.14-2.28a21.52,21.52,0,0,1-5.32-2.6,7.06,7.06,0,0,1-1.24-1.21,4.82,4.82,0,0,1-.87-1.72,9.16,9.16,0,0,1-.28-1.57c-.06-.51-.09-1-.1-1.48a111.71,111.71,0,0,1,.44-11.19c.29-3.68.68-7.36,1.13-11,.9-7.33,2-14.62,3.49-21.86.76-3.62,1.6-7.22,2.61-10.77.51-1.78,1.07-3.54,1.74-5.26a24.1,24.1,0,0,1,1.17-2.53,7.47,7.47,0,0,1,1.66-2.2,7.31,7.31,0,0,0-1.46,2.3,21.49,21.49,0,0,0-.94,2.58c-.56,1.74-1,3.52-1.4,5.31-.79,3.58-1.4,7.19-1.94,10.82-1.1,7.26-1.92,14.56-2.61,21.86-.32,3.65-.6,7.31-.83,11-.19,3.41-.36,6.86-.25,10.2,5.43.86,11.35.45,16.71.28A155.49,155.49,0,0,0,459,411.18c2.36-.37,3.95,0,2.58-2.31-1.6-2.7-4-4-6.93-5-2.41-.82-9.31-1-10.72-3.45-.77-1.34.08-2,1-2.94,1.35-1.35,4-2.21,5.61-3.24q3-1.89,5.8-4.06A69.49,69.49,0,0,0,475.13,368c9-16.72,10.95-36.34,9.18-55-2.25-23.74-9.26-47.36-17.27-69.73-8.65-24.17-19.39-47.54-30.82-70.5-9.44-18.94-19.2-36.84-34.45-51.82C387.9,107.3,370.88,96.3,351.92,91.45A77.41,77.41,0,0,0,293.14,99.72Z"/><path d="M496.69,99c-5.84-6.88-14-11.83-22-15.78C459,75.47,441.91,70.94,424.28,73.1A72.73,72.73,0,0,0,377,98.44L376.2,98c-16.45-9-35.35-13.87-54.13-11.45a80.41,80.41,0,0,0-31.3,11.25l-.39-.34c-5.55-4.76-12.19-8.21-18.85-11.15C257.09,79.92,241,75.06,225,76.66a55.85,55.85,0,0,0-38.15,20.45,92.54,92.54,0,0,0-11.19,18.06c-1.45,3-5.75,9.16-1.31,11.4a1.81,1.81,0,0,0,.41.14,1.86,1.86,0,0,0,.34.06c3.53.32,6.44-1.35,9.59-2.66a112.5,112.5,0,0,1,14.12-4.5,213.11,213.11,0,0,1,33.35-5.9c11-1.12,22-1.57,33.09-1.69,2.3,0,4.62,0,6.94.07q-2.6,2.47-5.06,5.09C250.72,134.76,238,156.12,227,177.41a379.14,379.14,0,0,0-27.54,69.19c-3.43,11.88-6.24,23.93-8.51,36.09-5.09,28-9.91,62.19,1.57,89.68-4.81-2.13-9.7-4.05-13.8-7.51-8.06-6.81-7.59-15.93-5.55-25.37.87-4,1.76-8.35-3.06-9.85-9.54-3-21.24,5.27-24.92,13.52-5.23,11.71.26,24.1,10.32,31,12.47,8.53,28.89,11.64,44.13,11.27a53.66,53.66,0,0,0,14.65,14.12,57.39,57.39,0,0,0,5.29,3c.46.23,2,1.13,3.25,1.71l-.31.13c-1.79.62-3.6,1.16-5.38,1.81-3.43,1.26-9.1,3.22-6.82,8,1.87,3.92,8,4.81,11.71,5.39a117.2,117.2,0,0,0,20,1c1.45,0,3.44.1,5.44.05a3.14,3.14,0,0,1-.29.54,3.81,3.81,0,0,1-.71.75,20.47,20.47,0,0,1-4.78,2.37,17.75,17.75,0,0,0-2.81,1.43,5.86,5.86,0,0,0-2.43,2.88,6.52,6.52,0,0,0,2.08,6.77,12.16,12.16,0,0,0,2.66,1.88A18.93,18.93,0,0,0,244,438.5a23.26,23.26,0,0,0,6,1.28,49.63,49.63,0,0,0,11.87-.34,38.82,38.82,0,0,0,5.85-1.34,17.41,17.41,0,0,0,5.44-3,25.18,25.18,0,0,0,7.16-9.67,18.28,18.28,0,0,0,1-2.89c.26-1,.45-1.93.65-2.88s.38-1.92.55-2.87c22.31,4.82,45.27,7.68,68.12,6.77a160.48,160.48,0,0,0,32.58-4.43q3.58-.9,7.13-2a28.54,28.54,0,0,0,3.1,7.12,21.83,21.83,0,0,0,8.26,8.09,16,16,0,0,0,2.77,1.15c.95.31,1.85.51,2.78.72a48.6,48.6,0,0,0,5.62.87,45.84,45.84,0,0,0,11.39-.31,22.92,22.92,0,0,0,5.61-1.79,14.28,14.28,0,0,0,2.63-1.57,8.75,8.75,0,0,0,2.25-2.39,6.84,6.84,0,0,0,1-3.36,5.19,5.19,0,0,0-1.23-3.53,8.19,8.19,0,0,0-2.68-2,27.2,27.2,0,0,0-2.68-1.14,18.91,18.91,0,0,1-4.6-2.15,4.15,4.15,0,0,1-.74-.7,1.77,1.77,0,0,1-.37-.72.42.42,0,0,1,0-.12l.84.08a142.67,142.67,0,0,0,20.88,0c5.57-.29,11.92-.22,17.32-1.84,3.77-1.14,2.9-4.87.85-7.65-3.27-4.44-9.46-5.47-14.47-6.65l-.43-.13c.93-.57,1.95-1.32,2.34-1.55a77.19,77.19,0,0,0,11.86-8.8c14-12.68,21.86-30.38,24.31-48.93,2.85-21.55-1.3-43.27-6.68-64.1-6.48-25.1-15.83-49.37-26.44-73-5.4-12-11.14-23.88-17.06-35.65-5.06-10.07-10.08-20.1-16.64-29.3a138.12,138.12,0,0,0-33.58-33.43,100,100,0,0,1,15-2.06,186.19,186.19,0,0,1,32.37.72c10.79,1.12,21.41,3.33,32.07,5.36,5.56,1.06,11.13,2.13,16.69,3.25,4,.8,10,3.36,14,2.11C504.59,111.33,500.13,103.09,496.69,99ZM266.26,109c-11.38.11-22.75.55-34.07,1.7a224,224,0,0,0-29.7,4.89c-4.83,1.15-9.61,2.49-14.31,4.06-3.89,1.3-8.32,4.21-12.46,4.14-1-1.83,6.28-14.22,7.18-15.71A68.1,68.1,0,0,1,194,93.78C204.1,84,218,79.16,232,79.37c13.6.2,27.14,4.57,39.44,10.15a74.32,74.32,0,0,1,15.72,9.14l1,.77a105.4,105.4,0,0,0-12.72,9.72C272.34,109.06,269.29,109,266.26,109Zm-89.5,270.85c-8.61-2.2-17.93-5.56-24.28-12.05s-8.4-16.93-3.73-25.12a20.69,20.69,0,0,1,11.3-9.15c2.13-.73,5.83-2,8-1.21,4.82,1.77,1.37,9.81.92,13.58a27.08,27.08,0,0,0,.44,10.23c1.81,6.71,7.09,11.5,13,14.83,3.9,2.21,8.06,3.92,12.14,5.8,1,1.93,2,3.82,3.14,5.66A84,84,0,0,1,176.76,379.86Zm225-259c15.25,15,25,32.88,34.45,51.82,11.43,23,22.17,46.33,30.82,70.5,8,22.37,15,46,17.27,69.73,1.77,18.65-.21,38.27-9.18,55a69.49,69.49,0,0,1-18.81,22.21q-2.81,2.18-5.8,4.06c-1.64,1-4.26,1.89-5.61,3.24-.89.89-1.74,1.6-1,2.94,1.41,2.49,8.31,2.63,10.72,3.45,2.95,1,5.33,2.32,6.93,5,1.37,2.31-.22,1.94-2.58,2.31a155.49,155.49,0,0,1-19.16,1.45c-5.36.17-11.28.58-16.71-.28-.11-3.34.06-6.79.25-10.2.23-3.65.51-7.31.83-11,.69-7.3,1.51-14.6,2.61-21.86.54-3.63,1.15-7.24,1.94-10.82.39-1.79.84-3.57,1.4-5.31a21.49,21.49,0,0,1,.94-2.58,7.31,7.31,0,0,1,1.46-2.3,7.47,7.47,0,0,0-1.66,2.2,24.1,24.1,0,0,0-1.17,2.53c-.67,1.72-1.23,3.48-1.74,5.26-1,3.55-1.85,7.15-2.61,10.77-1.45,7.24-2.59,14.53-3.49,21.86-.45,3.66-.84,7.34-1.13,11a111.71,111.71,0,0,0-.44,11.19c0,.48,0,1,.1,1.48a9.16,9.16,0,0,0,.28,1.57,4.82,4.82,0,0,0,.87,1.72,7.06,7.06,0,0,0,1.24,1.21,21.52,21.52,0,0,0,5.32,2.6c1.67.64,3.35,1.34,4.14,2.28a1.91,1.91,0,0,1,.4.72,2.25,2.25,0,0,1,.12.84,3.8,3.8,0,0,1-.58,1.85,6,6,0,0,1-1.3,1.42,5.4,5.4,0,0,0-.23-3.12,6.54,6.54,0,0,0-2.78-3.37,8.53,8.53,0,0,0-2-.77,12.35,12.35,0,0,0-1.88-.39,13.57,13.57,0,0,0-3.88-.05,13.47,13.47,0,0,0,3.14,2.29c1.12.61,2.21,1.06,3.05,1.5a9.26,9.26,0,0,1,2.27,1.93,12.46,12.46,0,0,1,1.91,3l-.46-.39a10.63,10.63,0,0,1-1.48.83,20.28,20.28,0,0,1-4.87,1.59c-1.15.19-2.34.31-3.53.39a2.77,2.77,0,0,0,.43-.92,3.54,3.54,0,0,0-.15-2.18,7.19,7.19,0,0,0-2.48-3,10.09,10.09,0,0,0-3.23-1.61,7.41,7.41,0,0,0-3.66-.17,28.31,28.31,0,0,0,2.61,2.28c.84.66,1.66,1.29,2.49,1.9a22.09,22.09,0,0,1,2.22,1.76,3.16,3.16,0,0,1,.74,1,2.47,2.47,0,0,1,.2,1.55l-.54-.56a51.77,51.77,0,0,1-5.71-.11,43,43,0,0,1-5.3-.72,25.38,25.38,0,0,1-2.57-.61,12.92,12.92,0,0,1-2.34-.92,20,20,0,0,1-7.48-7,26.42,26.42,0,0,1-2.44-4.69,31,31,0,0,1-1.51-5.11c-.76-3.53-1.1-7.19-1.72-10.86-.32-1.84-.74-3.63-1.12-5.43s-.79-3.6-1.28-5.4a32.31,32.31,0,0,0-2.07-5.16c-.79-1.67-1.53-3.35-2.26-5,.59,1.75,1.19,3.49,1.84,5.21a32.2,32.2,0,0,1,1.72,5.19c.37,1.77.65,3.6.93,5.41s.59,3.63.79,5.43c.43,3.62.62,7.31,1.24,11,0,.15.06.3.08.45a86.24,86.24,0,0,1-8.66,2.59c-21.14,5-43.3,5-64.8,2.67a312,312,0,0,1-33.13-5.43c.64-3.75,1.28-7.5,2.06-11.21,1.55-7.49,3.48-15,7.19-21.77a48.6,48.6,0,0,0-5.15,10.36,112.84,112.84,0,0,0-3.47,11.08c-1,3.74-1.77,7.52-2.59,11.29l-1.22,5.62c-.22.92-.44,1.84-.71,2.73a11.29,11.29,0,0,1-.43,1.28,10.16,10.16,0,0,1-.53,1.25,25.21,25.21,0,0,1-2.86,4.7,20.45,20.45,0,0,1-3.79,3.87,14.75,14.75,0,0,1-4.66,2.47,36.39,36.39,0,0,1-5.42,1.12,48.24,48.24,0,0,1-8.41.43l-.54.56h0a2.59,2.59,0,0,1,.2-1.56,3.44,3.44,0,0,1,.74-1,23.66,23.66,0,0,1,2.22-1.75c.83-.61,1.65-1.24,2.49-1.9a28.51,28.51,0,0,0,2.61-2.28,7.37,7.37,0,0,0-3.65.16,10.06,10.06,0,0,0-3.24,1.62,7.07,7.07,0,0,0-2.48,3,3.62,3.62,0,0,0-.15,2.18,3,3,0,0,0,.43.91c-.46,0-.93,0-1.4-.1a22.72,22.72,0,0,1-2.68-.41,20.74,20.74,0,0,1-2.59-.74,15.32,15.32,0,0,1-3.2-1.56l-.47.39a12.88,12.88,0,0,1,1.92-3,9.39,9.39,0,0,1,2.26-1.92c.85-.44,1.93-.89,3.05-1.51a13.14,13.14,0,0,0,3.14-2.28,13.21,13.21,0,0,0-3.88,0,12.35,12.35,0,0,0-1.88.39,8.26,8.26,0,0,0-2,.77,6.6,6.6,0,0,0-2.78,3.36,5.59,5.59,0,0,0-.24,3.1c-.13-.11-.28-.22-.4-.33a4.77,4.77,0,0,1-1.25-1.77l-.14-.48a5,5,0,0,1-.07-.5,2.07,2.07,0,0,1,.11-.85c.29-1,1.9-1.9,3.6-2.6a22.47,22.47,0,0,0,5.48-2.84,6.81,6.81,0,0,0,1.25-1.36,6.36,6.36,0,0,0,.47-.85c.06-.15.13-.31.18-.45l.13-.39a14.63,14.63,0,0,0,.56-3.13c.15-2.05.09-4,.07-5.91s0-3.83,0-5.75c0-3.85,0-7.71-.1-11.58a135.2,135.2,0,0,0-2.22-23.12,56.42,56.42,0,0,0-3.4-11.14,22.73,22.73,0,0,0-6.83-9.28,18.35,18.35,0,0,1,3.63,4.43,30.47,30.47,0,0,1,2.47,5.15,55.39,55.39,0,0,1,2.69,11.09,150.79,150.79,0,0,1,1.33,22.89c0,3.84-.13,7.68-.2,11.53,0,1.93-.06,3.87-.07,5.79s0,3.7-.15,5.43c-1,0-1.89,0-2.41,0a154.6,154.6,0,0,1-17.62-.25c-2.76-.21-14.46-.57-15.16-4.64-.62-3.65,11.48-4.84,13.88-6.69,4.66-3.6-6.26-6.18-8.4-7.39-30.14-17.1-31.4-57.3-28.45-87.75.88-9.15,2.27-18.23,3.91-27.27a378.12,378.12,0,0,1,52.48-133.65c12.29-19.29,26.8-38.33,46.83-50.12a77.41,77.41,0,0,1,58.78-8.27C370.88,96.3,387.9,107.3,401.77,120.91Zm88-10.86q-3.94-.83-7.92-1.61c-18.33-3.65-36.74-7.76-55.43-9-13.67-.93-29.52-1.42-43.32,2.66-1.13-.73-2.28-1.44-3.43-2.12A69,69,0,0,1,419,77c17-3.41,33.65-.24,49.33,6.6C476.18,87,484,91.22,490.45,97c2.38,2.13,5.48,4.86,6.74,7.86C500.19,112,493.83,110.9,489.74,110.05Z"/>    </g>    <g id="eye">        <g id="eye-color1">            <g opacity="0" ><path fill="#49ADB7"  d="M234.82,140.34c-.14.46-.2.94-.35,1.4a16,16,0,0,1-1.35,2.87c-.53.93-1,1.89-1.54,2.82-.24.42-.5.81-.77,1.21l-.43.61c-.09.11-.46.47-.46.6-.19.25-.39.5-.59.74-5.88,7-13.9,9.8-22.69,6.53-8.54-3.17-14.21-10.4-14.65-19.54a.84.84,0,0,1,0-.28.93.93,0,0,1,0-.29,23.27,23.27,0,0,1,19-21.81,18.93,18.93,0,0,1,11.42,1.34c-15.29-7.7-34.35-2.92-39.29,15.34a20.81,20.81,0,0,0-.67,6.53A29.42,29.42,0,0,0,193,158.64c8.6,7.09,21.5,6.67,31.05,1.77,7.18-3.69,10-12.6,10.92-20.45C234.91,140.08,234.86,140.21,234.82,140.34Z"/></g><g opacity="0" ><path fill="#49ADB7"  d="M358.58,134.27c-.24.62-.44,1.25-.7,1.86a24.39,24.39,0,0,1-2,3.67,31.67,31.67,0,0,1-2.54,3.43c-5.88,7-13.9,9.8-22.69,6.53-8.53-3.17-14.2-10.4-14.65-19.53a2.11,2.11,0,0,1,0-.58,23.29,23.29,0,0,1,19-21.81,18.89,18.89,0,0,1,11.43,1.35c-15.3-7.71-34.36-2.93-39.3,15.33a20.54,20.54,0,0,0-.66,6.53A29.34,29.34,0,0,0,317,151.28c8.59,7.09,21.5,6.67,31,1.77,6.9-3.55,9.72-12,10.77-19.65C358.75,133.65,358.67,134,358.58,134.27Z"/></g>        </g>        <g id="eye-shape">            <path fill="#fbfbfb"  d="M295.89,123.07c-21.73-17.81-51.73-12-72.06,4.87-11.71,10.13-20.83,23.9-22.36,39.62-1.27,13.08,2.6,26.27,9.61,37.28,12.38,19.45,36.51,33.94,59.91,27.09,20.91-6.11,35.23-26.44,41.18-46.49C318.73,163.33,314.39,138.24,295.89,123.07ZM312,167.47c3.12,13.13-4,29.28-15.05,36.62-11.44,7.58-25.45,6.3-36.15-1.92-11.83-9.09-12.9-22.85-8.48-36.32a1.57,1.57,0,0,1,.15-.32c5.3-13,19.95-19.08,33.33-17.47a40.23,40.23,0,0,1,4.79.88c7-1.95,15.58,1.56,16.61,9.37A21.23,21.23,0,0,1,312,167.47Z"/><path d="M221.71,125.82C211.07,135,202.58,147.11,199.5,161c-2.77,12.5-.75,25.57,4.53,37.14,10.21,22.39,34.35,41.15,59.93,38.25,23.13-2.63,40.23-22.12,48.49-42.66,9.19-22.89,7.78-50-9.89-68.54C280.11,101.65,245.06,106.47,221.71,125.82Zm90.46,59.62c-5.95,20.05-20.27,40.38-41.18,46.49-23.4,6.85-47.53-7.64-59.91-27.09-7-11-10.88-24.2-9.61-37.28,1.53-15.72,10.65-29.49,22.36-39.62,20.33-16.85,50.33-22.68,72.06-4.87C314.39,138.24,318.73,163.33,312.17,185.44Z"/><path d="M307.12,162.07c-1.18,7.61-8.53,14.08-16.4,11.78-7.26-2.13-10.49-10.21-8.63-17.13a1.6,1.6,0,0,1,.1-.39,1.34,1.34,0,0,1,.18-.38,12.35,12.35,0,0,1,8.2-7,40.23,40.23,0,0,0-4.79-.88c-13.38-1.61-28,4.46-33.33,17.47a1.57,1.57,0,0,0-.15.32c-4.42,13.47-3.35,27.23,8.48,36.32,10.7,8.22,24.71,9.5,36.15,1.92C308,196.75,315.1,180.6,312,167.47a21.23,21.23,0,0,0-4.8-9.16A12.9,12.9,0,0,1,307.12,162.07Z"/><path fill="#fff"  d="M290.57,148.94a12.35,12.35,0,0,0-8.2,7,1.34,1.34,0,0,0-.18.38,1.6,1.6,0,0,0-.1.39c-1.86,6.92,1.37,15,8.63,17.13,7.87,2.3,15.22-4.17,16.4-11.78a12.9,12.9,0,0,0,.06-3.76C306.15,150.5,297.61,147,290.57,148.94Z"/><path fill="#fbfbfb"  d="M437.65,124.5c-21.81-15.38-53-18.4-71.71,3.56-17.26,21.61-17.19,56.12-2.48,79a51.88,51.88,0,0,0,65.66,19.41A58,58,0,0,0,462.59,177C463.67,156.62,454.4,136.32,437.65,124.5Zm-65.73,81.87c-14.35-8.08-20.39-26.75-13.74-41.89a30.47,30.47,0,0,1,4.24-6.94,10.08,10.08,0,0,1,1.62-5.67c2.64-4.14,8-4.83,12.6-3.8a30.47,30.47,0,0,1,12.64-.95c14.23,1.89,27.34,11.65,30.73,26C426.49,200.61,394.74,217.86,371.92,206.37Z"/><path d="M445.1,126.64c-22.48-20.28-60.06-25.65-81.28-.7-16.45,20.59-17.87,51.29-7.19,74.85,10.79,23.79,36.25,38.16,62.16,32.38,23.25-5.18,41.58-24.61,45.83-47.94C468.51,163.94,461.25,141.21,445.1,126.64ZM462.59,177a58,58,0,0,1-33.47,49.54,51.88,51.88,0,0,1-65.66-19.41c-14.71-22.92-14.78-57.43,2.48-79,18.68-22,49.9-18.94,71.71-3.56C454.4,136.32,463.67,156.62,462.59,177Z"/><path d="M389.28,147.12a30.47,30.47,0,0,0-12.64.95,17.62,17.62,0,0,1,3.22,1.06c5.45,2.45,8.82,8.1,6.23,13.93-3,6.78-10.57,8.51-16.85,5.52a1.7,1.7,0,0,1-.39-.18,1.3,1.3,0,0,1-.34-.25,13.66,13.66,0,0,1-6.09-10.61,30.47,30.47,0,0,0-4.24,6.94c-6.65,15.14-.61,33.81,13.74,41.89,22.82,11.49,54.57-5.76,48.09-33.26C416.62,158.77,403.51,149,389.28,147.12Z"/><path fill="#fff"  d="M368.51,168.15a1.3,1.3,0,0,0,.34.25,1.7,1.7,0,0,0,.39.18c6.28,3,13.85,1.26,16.85-5.52,2.59-5.83-.78-11.48-6.23-13.93a17.62,17.62,0,0,0-3.22-1.06c-4.6-1-10-.34-12.6,3.8a10.08,10.08,0,0,0-1.62,5.67A13.66,13.66,0,0,0,368.51,168.15Z"/>        </g>        <g id="eye-color2">            <path fill="#CABBFF"  d="M296.93,204.09c-11.44,7.58-25.45,6.3-36.15-1.92-11.83-9.09-12.9-22.85-8.48-36.32a1.57,1.57,0,0,1,.15-.32c5.09-12.49,18.79-18.56,31.71-17.61-18.58-4.75-40.69,3.61-47,22.29a37.84,37.84,0,0,0,4.9,33.64c7.49,10.53,19.92,14.8,32.48,14.76,6.18,0,12.54-1,17.8-4.27,8.59-5.28,15.13-15.61,17.42-26.36A36.26,36.26,0,0,1,296.93,204.09Z"/><path fill="#CABBFF"  d="M413.7,150.66c-9.56-6.81-25.15-8-36.48-2.77a30.7,30.7,0,0,1,12.06-.77c14.23,1.89,27.34,11.65,30.73,26,6.48,27.5-25.27,44.75-48.09,33.26a32.32,32.32,0,0,1-14.31-17.05,17.33,17.33,0,0,0,.4,2.36,31.2,31.2,0,0,0,16.47,20.87c13.13,6.59,30.83,4.54,43.3-5.59a31.73,31.73,0,0,0,10.47-14.43C433.11,177.65,426.41,159.69,413.7,150.66Z"/>        </g>    </g>    <g id="nose-mouth">        <path d="M354.67,215.41a40.33,40.33,0,0,0,6.77-9,61.4,61.4,0,0,1-11.77,10.35,14.61,14.61,0,0,1-1.65,1c-.57.3-1.1.65-1.68.93l-1.73.8c-.57.27-1.18.44-1.77.67a28.91,28.91,0,0,1-5.86,1.47l-.35-6.22-.52,0c7-1.39,16.38-11,14.26-16.95-4-11.35-32.41-5.28-35.28,1.42-3.55,8.28,11.16,15.16,18.54,15.67l.36,6.31a37,37,0,0,1-13.51-2.21c-1-.35-2-.74-3-1.15l-.2-.08-.14-.06a62.37,62.37,0,0,1-10.65-5.88,38.59,38.59,0,0,0,10.33,8l0,.22a14.87,14.87,0,0,0,2.82,10.44c2.79,3.71,7.36,6,13.55,6.8a27.59,27.59,0,0,0,3.3.21,19.25,19.25,0,0,0,16.7-9c3-4.74,3.66-10.3,1.6-13.5Zm-18.18-18c1.07-4.29,11.19-2.37,9.52,1.43S335.43,201.61,336.49,197.36Z"/><path fill="#c4223a"  d="M323.72,231.05h0s3.54,4.22,12.43,4.29c8,.06,11.84-4.4,12.56-5.32l.13-.18C337.8,225.8,325.41,230.38,323.72,231.05Z"/><path fill="#8e1725"  d="M335.7,226.3a36,36,0,0,1-15.9-2.91,11.15,11.15,0,0,0,3.92,7.66c1.69-.67,14.08-5.25,25.12-1.21l-.13.18a17,17,0,0,0,2-2.5,13.25,13.25,0,0,0,2.26-8.31A26.59,26.59,0,0,1,335.7,226.3Z"/><path fill="#fff"  d="M346,198.79c1.67-3.8-8.45-5.72-9.52-1.43S344.34,202.58,346,198.79Z"/>    </g></svg>