<!--  ~ Copyright (C) 2018 Baidu, Inc. All Rights Reserved.  --><svg viewBox="0 0 640 480" xmlns="http://www.w3.org/2000/svg">    <g id="back-ground-cl">        <rect fill="none" width="640" height="480" />        <ellipse opacity="0.1" cx="331.93" cy="418.82" rx="168.39" ry="32.01"/>    </g>    <g id="body">        <defs>            <clipPath id="outline">                <path fill="none"  d="M227.11,178c8.25-16,17.47-32,28.5-46.37,3.71-4.86,7.62-9.54,11.77-14q1.5-1.59,3.05-3.14a50.32,50.32,0,0,0-12.51-7.92c-18.23-8.17-39-6.85-58.53-7.16-16.42-.26-33.11-1.7-47.93-9.4-7-3.63-18.07-9.93-18.48,3.41-.25,8.2,2.47,16.31,6.43,23.39,7.64,13.68,19.64,25.59,30.77,36.5,11.73,11.5,25.38,21.52,41.07,26.83a94.94,94.94,0,0,0,13.09,3.35C225.26,181.63,226.16,179.79,227.11,178Z"/><path fill="none"  d="M180.83,358.14c-13.37-3.79-31.91-13.93-31.89-30.06,0-7.83,5.89-17.95,14.25-18.91a9.79,9.79,0,0,1,4.13.38c1.27.4,2.42,1.63,3.64,1.87,6.59,1.28,4.62-5.39,2.32-8-5.05-5.78-17.35-5.63-24-3.76-14.65,4.1-29.76,21.84-29.06,37.44.76,17.19,14.14,32.19,29.18,39.12,14.25,6.56,31.49,7.42,46.66,3.56a78.42,78.42,0,0,1-7.54-20A61.75,61.75,0,0,1,180.83,358.14Z"/><path fill="none"  d="M381.53,105c.21.22.4.44.6.66a101,101,0,0,0-30.2-13.57,77.3,77.3,0,0,0-58.72,8.25c-13.74,8.09-24.88,19.59-34.49,32.25-4.34,5.72-8.36,11.67-12.17,17.65a368.93,368.93,0,0,0-18.76,33.14,34.32,34.32,0,0,0,6.84-2.65,30.33,30.33,0,0,1-10.81,4.86,31.41,31.41,0,0,1-6,.8h-.64c1.12.64,2.24,1.31,3.32,2a68.47,68.47,0,0,1,7.41,5.48l-1.81,2.25a14.77,14.77,0,0,0-6.1-2.53,29.38,29.38,0,0,0-6.91-.36c-3,.18-6,.66-9.07,1,.69.38,1.38.79,2,1.22a31.12,31.12,0,0,1,6.09,5.17,29.76,29.76,0,0,1,7.24,13.82,33.37,33.37,0,0,0-3-6,382.13,382.13,0,0,0-22.29,75.37c-1.64,9-3,18.12-3.91,27.26-2.94,30.41-1.69,70.58,28.43,87.66,2,1.14,11.8,3.5,9,6.77a3.69,3.69,0,0,1-.79.8c-2.07,1.6-11.33,2.7-13.45,5.31a1.64,1.64,0,0,0-.28,1.19c.7,4.07,12.39,4.42,15.15,4.64a156.58,156.58,0,0,0,17.6.25c.52,0,1.44,0,2.41,0,.05-.46.08-.93.1-1.4.11-3.79.05-7.79.16-11.66s.13-7.78.12-11.66a161.59,161.59,0,0,0-1.56-23.18,60.28,60.28,0,0,0-2.71-11.25,31.63,31.63,0,0,0-2.45-5.24,18,18,0,0,0-3.63-4.52c3.16,2.36,5.25,5.88,6.82,9.47a61.63,61.63,0,0,1,3.41,11.28A143.77,143.77,0,0,1,251,392.89c.14,3.91.19,7.83.18,11.73s.08,7.72,0,11.73a22.36,22.36,0,0,1-.26,3.11,13.19,13.19,0,0,1-.37,1.6,6.87,6.87,0,0,1-.77,1.71,8,8,0,0,1-2.67,2.36,24.46,24.46,0,0,1-2.8,1.34c-.91.38-1.79.74-2.59,1.14a6.11,6.11,0,0,0-1.9,1.33,2,2,0,0,0-.49,1.61,3.62,3.62,0,0,0,.77,1.91,6.54,6.54,0,0,0,1.08,1.09,5.44,5.44,0,0,1,.23-3.11,6.52,6.52,0,0,1,2.78-3.36,8.58,8.58,0,0,1,2-.78,12.49,12.49,0,0,1,1.87-.39,13.23,13.23,0,0,1,3.88,0,13.58,13.58,0,0,1-3.13,2.28c-1.12.61-2.21,1.06-3,1.5a9.22,9.22,0,0,0-2.26,1.93,12.58,12.58,0,0,0-1.91,3l.45-.38a13.48,13.48,0,0,0,2.2,1.15,20.3,20.3,0,0,0,5.23,1.43c.81.1,1.63.17,2.45.23a2.79,2.79,0,0,1-.44-.92,3.62,3.62,0,0,1,.15-2.18,7.13,7.13,0,0,1,2.48-3,10.09,10.09,0,0,1,3.23-1.61,7.41,7.41,0,0,1,3.66-.16,28.12,28.12,0,0,1-2.61,2.27c-.84.66-1.66,1.29-2.49,1.9a23.29,23.29,0,0,0-2.22,1.76,3.27,3.27,0,0,0-.74,1,2.59,2.59,0,0,0-.2,1.56l.56-.58a47.91,47.91,0,0,0,7.48-.29,41.52,41.52,0,0,0,5.56-1,14.92,14.92,0,0,0,4.83-2.26,23.08,23.08,0,0,0,7-8.46c.21-.41.39-.84.59-1.26l.47-1.26c.26-.91.52-1.81.73-2.75.46-1.87.84-3.78,1.26-5.68.82-3.81,1.63-7.64,2.6-11.44a115.51,115.51,0,0,1,3.48-11.22,49,49,0,0,1,5.21-10.5c-3.77,6.86-5.7,14.46-7.25,22-.76,3.66-1.4,7.34-2,11a313.77,313.77,0,0,0,33.11,5.43c21.48,2.29,43.62,2.35,64.74-2.67a87.64,87.64,0,0,0,8.73-2.61c-.68-3.7-.88-7.38-1.29-11-.19-1.86-.5-3.7-.78-5.57s-.58-3.73-.95-5.56a28.82,28.82,0,0,0-1.73-5.33c-.67-1.77-1.29-3.55-1.89-5.34.74,1.74,1.5,3.46,2.31,5.17a29.14,29.14,0,0,1,2.08,5.31c.49,1.85.88,3.69,1.29,5.54s.82,3.69,1.12,5.58c.61,3.76,1,7.52,1.81,11.1a28.31,28.31,0,0,0,1.7,5.18,26.6,26.6,0,0,0,2.69,4.7,21.21,21.21,0,0,0,3.63,3.93,15.3,15.3,0,0,0,4.45,2.69,27.29,27.29,0,0,0,5.22,1.27,47.78,47.78,0,0,0,5.47.54c1.33.05,2.66,0,4,0l.55.57a2.57,2.57,0,0,0-.21-1.56,3.27,3.27,0,0,0-.74-1,22.42,22.42,0,0,0-2.22-1.75c-.83-.61-1.64-1.24-2.49-1.9a29.65,29.65,0,0,1-2.6-2.27,7.25,7.25,0,0,1,3.65.16,9.84,9.84,0,0,1,3.24,1.61,7.13,7.13,0,0,1,2.47,3,3.59,3.59,0,0,1,.16,2.17,2.82,2.82,0,0,1-.45.94h.14c.9-.07,1.84-.16,2.7-.28a21.53,21.53,0,0,0,2.57-.57,16.76,16.76,0,0,0,4.48-2l.45.38a12.87,12.87,0,0,0-1.91-3,9.24,9.24,0,0,0-2.27-1.92c-.84-.44-1.92-.89-3-1.5a13.19,13.19,0,0,1-3.14-2.29,13.57,13.57,0,0,1,3.88,0,12.35,12.35,0,0,1,1.88.39,8.51,8.51,0,0,1,2,.78,6.54,6.54,0,0,1,2.79,3.36,5.46,5.46,0,0,1,.22,3.14,4.45,4.45,0,0,0,1.85-3,2.3,2.3,0,0,0-.37-1.67,4.72,4.72,0,0,0-1.66-1.32c-1.47-.79-3.28-1.34-5.11-2.13A13.84,13.84,0,0,1,423,419.2a7.81,7.81,0,0,1-1.27-1.24,5,5,0,0,1-.89-1.76,11.55,11.55,0,0,1-.28-1.58l-.17-1.43c-.12-.95-.23-1.91-.28-2.87a84.75,84.75,0,0,1-.09-11.49,107.73,107.73,0,0,1,1.21-11.36c1.13-7.53,2.87-14.91,4.72-22.23l1.44-5.48a34,34,0,0,1,1.82-5.43,55.65,55.65,0,0,1,5.85-9.74,66.22,66.22,0,0,0-5.11,10,34.4,34.4,0,0,0-1.45,5.4l-1.11,5.55c-1.51,7.38-2.93,14.78-3.85,22.21a104.76,104.76,0,0,0-.61,22.3c.06.81.17,1.61.27,2.41,5.44.88,11.38.47,16.76.3a155,155,0,0,0,19.14-1.45c1.36-.21,2.46-.18,2.89-.55.14-.3,0-.77-.45-1.57-1.6-2.7-4-4-6.92-5-2.41-.82-9.31-1-10.72-3.44a1.67,1.67,0,0,1,.17-2.1,9.6,9.6,0,0,1,.94-1c1.35-1.36,4-2.21,5.61-3.25a71.12,71.12,0,0,0,18.6-16.93,69.06,69.06,0,0,0,5.85-9.13c6.3-11.75,9.14-24.94,9.66-38.21.06-.31.11-.62.16-.93a127,127,0,0,0-.51-16c-2.25-23.72-9.25-47.32-17.26-69.67-5.67-15.85-12.26-31.36-19.34-46.63a28.58,28.58,0,0,0-3,2.9,26.48,26.48,0,0,1,5.07-5.56c1-.85,7.64-1.62,8.8-2.32-1.7.07-8.89.14-10.58.19l-6.06.69-2.51.07-.27-2.53c.57-.13,1.14-.27,1.71-.43,5.23-1.39,10.74-2,15.66-4.42a40.78,40.78,0,0,0,6.13-3.95c1-.73,2-1.47,3-2.22.51-.39,1.72-1.74,2.34-1.81-3.94.48-7.91.67-11.86,1s-7.6,1.18-11.45,1a44.56,44.56,0,0,1-6.67-1.17l4.75-1.25a18.3,18.3,0,0,0,6.12-2.93c-1.65.3-3.3.54-5,.75a77.47,77.47,0,0,1-8.19.53l1.61-.27-1-2.12c-9.43-18.92-19.18-36.8-34.42-51.76A127.77,127.77,0,0,0,381.53,105Z"/><path fill="none"  d="M484.35,11.31c-2.52,1.81-4.1,4.78-5.67,7.38C465.2,41.08,438.41,54,416.27,66.2c-11.95,6.58-34.87,17.69-37.95,33.36,16.59,9.54,30.79,23.14,41.88,38.67a152.92,152.92,0,0,1,10,16.44c20.07-3.27,36.73-15,47.92-32.65,10.89-17.16,16.55-37.35,19.53-57.3a224,224,0,0,0,2.39-30.06c.09-6.57.66-14.31-3.2-20C494.17,10.73,488.57,8.29,484.35,11.31Z"/><path d="M488.51,6.89c-5.5,0-8.74,4.37-11.41,8.61a75.32,75.32,0,0,1-14.05,17c-13.16,11.67-28.92,20.27-44.18,28.85C405.48,68.86,379.78,80.56,375.54,98c-16.26-8.75-34.83-13.39-53.29-11-19.12,2.46-35.87,12.28-49.63,25.35C259.1,100.51,240.4,97.46,223,96.74c-19.8-.83-40.24,1.19-59.41-4.94-7.65-2.45-14.7-8.33-22.62-9.68-6.21-1.06-10.08,3-10.84,9-2.08,16.48,8.63,32.11,18.82,43.87,11.55,13.33,23.9,26.6,38.59,36.5a92.13,92.13,0,0,0,29.13,13,33.23,33.23,0,0,1-4.46-.62l-7.48-1.58,6.78,3.67a83.91,83.91,0,0,1,7.26,4.45,31.49,31.49,0,0,0-5.82-.08c-5,.34-8.28,1.49-13,1.57l-8.63.16,8.25,2.39a30.36,30.36,0,0,1,6.86,2.89c2.16,1.25,2.7,2.74,4.54,4.47a32.62,32.62,0,0,1,3.33,3.62,379.35,379.35,0,0,0-14.71,41.67q-5.13,17.8-8.5,36.06c-4.13,22.74-8.08,49.51-3.29,73.47a60.7,60.7,0,0,1-11.31-3.07c-8.62-3.25-17.72-8.74-22.26-17.06-4.28-7.83-1.8-21.94,8.4-24.19,4.48-1,12.6,7.2,15.42-.06,1.53-3.95-.71-9.61-3.9-12.09-10.76-8.4-28.09-4.73-38,2.92-11.07,8.57-20.66,22.88-18.65,37.35,2.16,15.63,13.44,29.31,27,36.69,16.16,8.78,35.1,9.71,53.06,5.37.15.24.29.5.44.74a53.84,53.84,0,0,0,16.37,16.68,51.84,51.84,0,0,0,5.28,3c.44.22,1.85,1.07,3.07,1.66-1.78.62-3.6,1.16-5.38,1.81-2.17.8-5.25,1.88-6.62,3.79a3.82,3.82,0,0,0-.33,4.36c1.88,3.91,8,4.8,11.71,5.38a115.9,115.9,0,0,0,20,1c1.45,0,3.44.1,5.43.06,0,.06-.07.14-.11.19-.72,1.1-2.44,1.89-4.19,2.61-.89.36-1.82.73-2.77,1.2a8.94,8.94,0,0,0-2.83,2,5.1,5.1,0,0,0-1,1.79,5.63,5.63,0,0,0-.2,2,6.57,6.57,0,0,0,1.34,3.45,13,13,0,0,0,5.35,3.8,23.66,23.66,0,0,0,6,1.6,48.34,48.34,0,0,0,12-.09,44.64,44.64,0,0,0,5.92-1.19,17.53,17.53,0,0,0,5.66-2.76,24.71,24.71,0,0,0,7.54-9.58c.23-.46.41-.93.61-1.4l.51-1.5c.25-1,.5-1.95.69-2.92s.41-2.05.6-3.07c22.26,4.81,45.17,7.65,68,6.74a159.4,159.4,0,0,0,32.55-4.43c2.47-.62,4.93-1.31,7.36-2.08a28.73,28.73,0,0,0,3.7,7.89,20.5,20.5,0,0,0,9,7.72,29.67,29.67,0,0,0,5.73,1.52,49.13,49.13,0,0,0,11.61.67c1-.07,1.92-.15,2.93-.29a22.07,22.07,0,0,0,2.95-.63,19.57,19.57,0,0,0,5.59-2.48,10.09,10.09,0,0,0,2.42-2.26,6.69,6.69,0,0,0,1.32-3.32,5.33,5.33,0,0,0-.91-3.71,7.63,7.63,0,0,0-2.7-2.21c-1.88-1-3.71-1.5-5.34-2.21a10.82,10.82,0,0,1-2.17-1.18,4.79,4.79,0,0,1-.76-.72,2.62,2.62,0,0,1-.3-.5l.56.05a142.39,142.39,0,0,0,20.86,0c5.57-.29,11.91-.21,17.3-1.84a3.69,3.69,0,0,0,2.07-1.38c1.35-1.65.48-4.32-1.09-6.45-3.26-4.43-9.44-5.46-14.45-6.64l-.32-.09c.86-.55,1.74-1.19,2.09-1.4a77.7,77.7,0,0,0,11.85-8.79,69.09,69.09,0,0,0,9.4-10.43c8.29-11.22,13.18-24.69,15-38.64,2.85-21.54-1.3-43.23-6.68-64-6.47-25.07-15.82-49.32-26.42-72.92q-1.81-4-3.68-8.05l.13-.1c1.75-1.17,3.93-1.52,5.94-2,4.77-1.08,8.92-2.16,13.15-4.67l-4.35.89c-2.33.47-4.94.42-7.32.75a80.77,80.77,0,0,1-9.19.91c3.2-.07,7.11-2,10-3.27,6-2.76,10.94-6.85,15.6-11.56.76-.77,2.43-3.23,3.46-3.47-5,1.18-10.15,1.92-15.23,2.85-4.91.89-9.87,2.49-14.91,2.13,4.19-2,8.15-3.58,11.08-5.94,1.23-1,2.49-2.6,4.11-2.89-6.28,1.83-12.49,3.87-18.88,5.28-1.11.25-2.23.47-3.35.68-1.18-2.39-2.37-4.79-3.57-7.18-1.69-3.37-3.39-6.73-5.13-10.06A70.6,70.6,0,0,0,476,130.3c13.72-17.92,20.66-40.45,24.2-62.47a227.41,227.41,0,0,0,2.86-33.17C503.21,24.57,502.64,6.88,488.51,6.89,211.25,180.12c-15.69-5.31-29.34-15.33-41.07-26.83-11.13-10.91-23.13-22.82-30.77-36.5-4-7.08-6.68-15.19-6.43-23.39.41-13.34,11.5-7,18.48-3.41,14.82,7.7,31.51,9.14,47.93,9.4,19.49.31,40.3-1,58.53,7.16a50.32,50.32,0,0,1,12.51,7.92q-1.55,1.55-3.05,3.14c-4.15,4.44-8.06,9.12-11.77,14C244.58,146,235.36,162,227.11,178c-1,1.83-1.85,3.67-2.77,5.51A94.94,94.94,0,0,1,211.25,180.12,149.37,376.19c-15-6.93-28.42-21.93-29.18-39.12-.7-15.6,14.41-33.34,29.06-37.44,6.68-1.87,19-2,24,3.76,2.3,2.64,4.27,9.31-2.32,8-1.22-.24-2.37-1.47-3.64-1.87a9.79,9.79,0,0,0-4.13-.38c-8.36,1-14.24,11.08-14.25,18.91,0,16.13,18.52,26.27,31.89,30.06a61.75,61.75,0,0,0,7.66,1.65,78.42,78.42,0,0,0,7.54,20C180.86,383.61,163.62,382.75,149.37,376.19,436.29,173.1l1,2.12-1.61.27a77.47,77.47,0,0,0,8.19-.53c1.66-.21,3.31-.45,5-.75a18.3,18.3,0,0,1-6.12,2.93L438,178.39l4.87,1c3.59.74,15.91-1.13,19.44-1.49,1.88-.19,3.78-.15,5.67-.37-.71.08-2.06,1.71-2.6,2.17a36.35,36.35,0,0,1-10.71,6.45c-4.49,1.64-9.19,2.56-13.8,3.78-.57.16-2.14.8-2.71.93l-.23,0,4,.93,6.06.31c1.69-.05,9.38-.62,11.08-.69-1.16.7-8.26,2-9.3,2.82a26.48,26.48,0,0,0-5.07,5.56,28.58,28.58,0,0,1,3-2.9c7.08,15.27,13.67,30.78,19.34,46.63,8,22.35,15,46,17.26,69.67a127,127,0,0,1,.51,16c-.05.31-.1.62-.16.93-.52,13.27-3.36,26.46-9.66,38.21a68.3,68.3,0,0,1-18.66,22,69.85,69.85,0,0,1-5.79,4.05c-1.64,1-4.26,1.89-5.61,3.25a9.6,9.6,0,0,0-.94,1,1.67,1.67,0,0,0-.17,2.1c1.41,2.48,8.31,2.62,10.72,3.44,2.94,1,5.32,2.32,6.92,5,.48.8.59,1.27.45,1.57-.43.37-1.53.34-2.89.55a155,155,0,0,1-19.14,1.45c-5.38.17-11.32.58-16.76-.3-.1-.8-.21-1.6-.27-2.41a104.76,104.76,0,0,1,.61-22.3c.92-7.43,2.34-14.83,3.85-22.21l1.11-5.55a34.4,34.4,0,0,1,1.45-5.4,66.22,66.22,0,0,1,5.11-10,55.65,55.65,0,0,0-5.85,9.74,34,34,0,0,0-1.82,5.43l-1.44,5.48c-1.85,7.32-3.59,14.7-4.72,22.23A107.73,107.73,0,0,0,420,398.83a84.75,84.75,0,0,0,.09,11.49c.05,1,.16,1.92.28,2.87l.17,1.43a11.55,11.55,0,0,0,.28,1.58,5,5,0,0,0,.89,1.76A7.81,7.81,0,0,0,423,419.2a13.84,13.84,0,0,0,2.77,1.56c1.83.79,3.64,1.34,5.11,2.13a4.72,4.72,0,0,1,1.66,1.32,2.3,2.3,0,0,1,.37,1.67,4.45,4.45,0,0,1-1.85,3,5.46,5.46,0,0,0-.22-3.14,6.54,6.54,0,0,0-2.79-3.36,8.51,8.51,0,0,0-2-.78,12.35,12.35,0,0,0-1.88-.39,13.57,13.57,0,0,0-3.88,0,13.19,13.19,0,0,0,3.14,2.29c1.12.61,2.2,1.06,3,1.5a9.24,9.24,0,0,1,2.27,1.92,12.87,12.87,0,0,1,1.91,3l-.45-.38a16.76,16.76,0,0,1-4.48,2,21.53,21.53,0,0,1-2.57.57c-.86.12-1.8.21-2.7.28h-.14a2.82,2.82,0,0,0,.45-.94,3.59,3.59,0,0,0-.16-2.17,7.13,7.13,0,0,0-2.47-3,9.84,9.84,0,0,0-3.24-1.61,7.25,7.25,0,0,0-3.65-.16,29.65,29.65,0,0,0,2.6,2.27c.85.66,1.66,1.29,2.49,1.9a22.42,22.42,0,0,1,2.22,1.75,3.27,3.27,0,0,1,.74,1,2.57,2.57,0,0,1,.21,1.56l-.55-.57c-1.33,0-2.66.06-4,0a47.78,47.78,0,0,1-5.47-.54,27.29,27.29,0,0,1-5.22-1.27,15.3,15.3,0,0,1-4.45-2.69,21.21,21.21,0,0,1-3.63-3.93,26.6,26.6,0,0,1-2.69-4.7,28.31,28.31,0,0,1-1.7-5.18c-.85-3.58-1.2-7.34-1.81-11.1-.3-1.89-.73-3.74-1.12-5.58s-.8-3.69-1.29-5.54a29.14,29.14,0,0,0-2.08-5.31c-.81-1.71-1.57-3.43-2.31-5.17.6,1.79,1.22,3.57,1.89,5.34a28.82,28.82,0,0,1,1.73,5.33c.37,1.83.65,3.69.95,5.56s.59,3.71.78,5.57c.41,3.61.61,7.29,1.29,11a87.64,87.64,0,0,1-8.73,2.61c-21.12,5-43.26,5-64.74,2.67A313.77,313.77,0,0,1,283.25,414c.63-3.69,1.27-7.37,2-11,1.55-7.59,3.48-15.19,7.25-22a49,49,0,0,0-5.21,10.5,115.51,115.51,0,0,0-3.48,11.22c-1,3.8-1.78,7.63-2.6,11.44-.42,1.9-.8,3.81-1.26,5.68-.21.94-.47,1.84-.73,2.75l-.47,1.26c-.2.42-.38.85-.59,1.26a23.08,23.08,0,0,1-7,8.46,14.92,14.92,0,0,1-4.83,2.26,41.52,41.52,0,0,1-5.56,1,47.91,47.91,0,0,1-7.48.29l-.56.58a2.59,2.59,0,0,1,.2-1.56,3.27,3.27,0,0,1,.74-1,23.29,23.29,0,0,1,2.22-1.76c.83-.61,1.65-1.24,2.49-1.9a28.12,28.12,0,0,0,2.61-2.27,7.41,7.41,0,0,0-3.66.16,10.09,10.09,0,0,0-3.23,1.61,7.13,7.13,0,0,0-2.48,3,3.62,3.62,0,0,0-.15,2.18,2.79,2.79,0,0,0,.44.92c-.82-.06-1.64-.13-2.45-.23a20.3,20.3,0,0,1-5.23-1.43,13.48,13.48,0,0,1-2.2-1.15l-.45.38a12.58,12.58,0,0,1,1.91-3,9.22,9.22,0,0,1,2.26-1.93c.84-.44,1.93-.89,3-1.5a13.58,13.58,0,0,0,3.13-2.28,13.23,13.23,0,0,0-3.88,0,12.49,12.49,0,0,0-1.87.39,8.58,8.58,0,0,0-2,.78,6.52,6.52,0,0,0-2.78,3.36,5.44,5.44,0,0,0-.23,3.11,6.54,6.54,0,0,1-1.08-1.09,3.62,3.62,0,0,1-.77-1.91,2,2,0,0,1,.49-1.61,6.11,6.11,0,0,1,1.9-1.33c.8-.4,1.68-.76,2.59-1.14a24.46,24.46,0,0,0,2.8-1.34,8,8,0,0,0,2.67-2.36,6.87,6.87,0,0,0,.77-1.71,13.19,13.19,0,0,0,.37-1.6,22.36,22.36,0,0,0,.26-3.11c0-4-.09-7.81,0-11.73s0-7.82-.18-11.73a143.77,143.77,0,0,0-2.45-23.39,61.63,61.63,0,0,0-3.41-11.28c-1.57-3.59-3.66-7.11-6.82-9.47a18,18,0,0,1,3.63,4.52,31.63,31.63,0,0,1,2.45,5.24,60.28,60.28,0,0,1,2.71,11.25,161.59,161.59,0,0,1,1.56,23.18c0,3.88,0,7.76-.12,11.66s-.05,7.87-.16,11.66c0,.47,0,.94-.1,1.4-1,0-1.89,0-2.41,0a156.58,156.58,0,0,1-17.6-.25c-2.76-.22-14.45-.57-15.15-4.64a1.64,1.64,0,0,1,.28-1.19c2.12-2.61,11.38-3.71,13.45-5.31a3.69,3.69,0,0,0,.79-.8c2.76-3.27-7-5.63-9-6.77-30.12-17.08-31.37-57.25-28.43-87.66.89-9.14,2.27-18.22,3.91-27.26a382.13,382.13,0,0,1,22.29-75.37,33.37,33.37,0,0,1,3,6,29.76,29.76,0,0,0-7.24-13.82c-1.8-2-2.33-3.72-4.59-5.17-.66-.43-1.35-.84-2-1.22,3.09-.31,4.61-.79,7.57-1a29.38,29.38,0,0,1,6.91.36c2.23.42,5.85.23,7.6,1.53l.31-.25c-2.33-2-4.83-4.8-7.41-6.48-1.08-.7-2.2-1.37-3.32-2h.64a31.41,31.41,0,0,0,6-.8,30.33,30.33,0,0,0,10.81-4.86,34.32,34.32,0,0,1-6.84,2.65,368.93,368.93,0,0,1,18.76-33.14c3.81-6,7.83-11.93,12.17-17.65,9.61-12.66,20.75-24.16,34.49-32.25a77.3,77.3,0,0,1,58.72-8.25,101,101,0,0,1,30.2,13.57c-.2-.22-.39-.44-.6-.66a127.77,127.77,0,0,1,20.34,16.34C417.11,136.3,426.86,154.18,436.29,173.1,500.07,34.66a224,224,0,0,1-2.39,30.06c-3,20-8.64,40.14-19.53,57.3C467,139.65,450.3,151.4,430.23,154.67a152.92,152.92,0,0,0-10-16.44c-11.09-15.53-25.29-29.13-41.88-38.67,3.08-15.67,26-26.78,37.95-33.36C438.41,54,465.2,41.08,478.68,18.69c1.57-2.6,3.15-5.57,5.67-7.38,4.22-3,9.82-.58,12.52,3.38C500.73,20.35,500.16,28.09,500.07,34.66Z"/>            </clipPath>        </defs>        <g clip-path="url(#outline)">            <rect fill="#3D3D3D" width="640" height="480" />        </g>    </g>    <g id="pattern">        <g clip-path="url(#outline)">            <path fill="#513E2A"  d="M452.2,315a10.59,10.59,0,0,0,4.79-3.93,9.23,9.23,0,0,0,1.6-5.73,41.53,41.53,0,0,1-3.94,3.62,16.43,16.43,0,0,1-4,2.36,30.14,30.14,0,0,1-4.62,1.5c-1.65.41-3.39.77-5.33,1.21a11,11,0,0,0,5.55,1.92A13,13,0,0,0,452.2,315Z"/><path fill="#513E2A"  d="M197.27,349.6a19,19,0,0,0,7.35,4.14,16.14,16.14,0,0,0,8.24.34,55.25,55.25,0,0,1-7-3.24,32.19,32.19,0,0,1-5.9-4.23,48.7,48.7,0,0,1-5.1-5.33c-1.62-1.95-3.16-4-4.78-6.21A18.77,18.77,0,0,0,192.2,343,22.58,22.58,0,0,0,197.27,349.6Z"/><path fill="#513E2A"  d="M224.91,397.06a23.36,23.36,0,0,0,2.64.15,28.34,28.34,0,0,0,5.22-.35,7.8,7.8,0,0,0,1.28-.23l1.26-.32c.84-.21,1.66-.45,2.48-.69a44.9,44.9,0,0,0,4.68-2.12c-1.74,0-3.39.1-5,.19-.83,0-1.65,0-2.46,0s-1.62.11-2.43,0c-1.6-.11-3.2,0-4.76-.29-.77-.12-1.57-.11-2.33-.28l-2.3-.43a35.06,35.06,0,0,1-8.7-3.22,33.37,33.37,0,0,1-7.82-5.77,17.75,17.75,0,0,0,6.07,8.37,24.09,24.09,0,0,0,9.59,4.52Z"/><path fill="#513E2A"  d="M251,301.11c-1.48-.12-2.88,0-4.28,0s-2.76,0-4.12,0-2.7,0-4-.2-2.63-.26-3.94-.41a46.36,46.36,0,0,1-7.65-1.86,39.27,39.27,0,0,1-7.48-3.43,15.66,15.66,0,0,0,6.14,6.26,23.48,23.48,0,0,0,8.39,3l2.22.23a20.78,20.78,0,0,0,2.23,0,25.62,25.62,0,0,0,4.38-.46A33.12,33.12,0,0,0,247,303,32.27,32.27,0,0,0,251,301.11Z"/><path fill="#513E2A"  d="M198.49,370.35a8.42,8.42,0,0,0,7.1,2.09,6.64,6.64,0,0,0,3.48-1.68,21.91,21.91,0,0,0-3.27-1.46c-1-.33-1.93-.68-2.87-.92s-1.87-.53-2.89-.76-2.1-.45-3.46-.67A5.88,5.88,0,0,0,198.49,370.35Z"/><path fill="#513E2A"  d="M210.13,304.93c-1.31-.16-2.58-.47-3.85-.74a43.64,43.64,0,0,1-7.38-2.5,37.13,37.13,0,0,1-7-4.11,15.36,15.36,0,0,0,5.44,6.8,22.62,22.62,0,0,0,8,3.7l2.18.42a20,20,0,0,0,2.19.21,25.6,25.6,0,0,0,4.38-.1,33.39,33.39,0,0,0,4.26-.82,31.83,31.83,0,0,0,4-1.59c-1.46-.24-2.85-.27-4.23-.37s-2.74-.2-4.08-.37S211.42,305.21,210.13,304.93Z"/><path fill="#513E2A"  d="M471.52,331.27a14.34,14.34,0,0,0,5.83-.49,16.14,16.14,0,0,0,5.14-2.58,20.19,20.19,0,0,0,2.11-1.92,15.24,15.24,0,0,0,1.66-2.37,17.24,17.24,0,0,0-2.73.72c-.89.22-1.7.54-2.53.8-1.64.52-3.2,1.07-4.77,1.52s-3.13.86-4.76,1.18a40.54,40.54,0,0,1-5.25.73A9,9,0,0,0,471.52,331.27Z"/><path fill="#513E2A"  d="M408.74,407.11c-.92,0-1.78.07-2.65.1-1.72.07-3.37.18-5,.2s-3.25,0-4.91-.12a41.48,41.48,0,0,1-5.25-.69,9,9,0,0,0,4.47,3.72,14.23,14.23,0,0,0,5.75,1.08,16.1,16.1,0,0,0,5.64-1.12,17.86,17.86,0,0,0,2.54-1.3,15.65,15.65,0,0,0,2.24-1.84A19.24,19.24,0,0,0,408.74,407.11Z"/><path fill="#513E2A"  d="M410.59,370.63c-1.67.41-3.26.86-4.86,1.2s-3.18.66-4.83.88a40.42,40.42,0,0,1-5.28.38,9.09,9.09,0,0,0,5.13,2.75,14.41,14.41,0,0,0,5.85-.1,16.05,16.05,0,0,0,5.29-2.25,18.32,18.32,0,0,0,2.23-1.78,14.76,14.76,0,0,0,1.82-2.26,19,19,0,0,0-2.78.55C412.27,370.16,411.43,370.42,410.59,370.63Z"/><path fill="#513E2A"  d="M241,384.12a39,39,0,0,1-5.82-1.48,37.4,37.4,0,0,1-5.52-2.36,63.23,63.23,0,0,1-5.58-3.27,12.89,12.89,0,0,0,3.75,5.82,16.62,16.62,0,0,0,6.06,3.59,16.79,16.79,0,0,0,7,.85,15.81,15.81,0,0,0,3.42-.67,16.51,16.51,0,0,0,3.14-1.44c-1.16-.29-2.25-.33-3.32-.51S242,384.38,241,384.12Z"/><path fill="#513E2A"  d="M207.65,319.48c.52,0,1,.08,1.55.1a8.81,8.81,0,0,0,1.54-.05c.52,0,1-.12,1.53-.19a14.71,14.71,0,0,0,2.95-.95,27.94,27.94,0,0,0-2.83-1l-1.35-.46-.67-.19-.65-.25c-.43-.15-.86-.3-1.29-.43l-1.26-.47a10.16,10.16,0,0,1-1.23-.49c-.41-.17-.83-.31-1.23-.49-1.6-.7-3.16-1.49-4.73-2.37s-3.14-1.87-4.85-3.06a10.67,10.67,0,0,0,2.87,5.49,15.51,15.51,0,0,0,5.12,3.61,16.76,16.76,0,0,0,3,.95C206.62,319.3,207.13,319.43,207.65,319.48Z"/><path fill="#513E2A"  d="M217.52,335.45a16.34,16.34,0,0,0,3.68-.81,17.09,17.09,0,0,0,3.35-1.65c-1.27-.21-2.44-.15-3.61-.29s-2.28-.17-3.39-.4a34.56,34.56,0,0,1-6.36-1.45,39.54,39.54,0,0,1-6.07-2.52c-2-1-4-2.17-6.09-3.48a14.9,14.9,0,0,0,4.32,6.06,18.54,18.54,0,0,0,6.6,3.74A17.73,17.73,0,0,0,217.52,335.45Z"/><path fill="#513E2A"  d="M274.84,395.63a54.9,54.9,0,0,1-5.85-1,55.64,55.64,0,0,1-5.73-1.59c-1.93-.63-3.85-1.35-6-2.17a13.41,13.41,0,0,0,4.55,5,18,18,0,0,0,6.26,2.69,17.8,17.8,0,0,0,6.82.22,15.48,15.48,0,0,0,3.27-.87,15.26,15.26,0,0,0,3-1.58c-1.15-.23-2.21-.22-3.27-.36S275.85,395.8,274.84,395.63Z"/><path fill="#513E2A"  d="M230.62,365.14c-1.45-.43-2.85-.73-4.18-1.14s-2.66-.77-4-1.28a23.59,23.59,0,0,1-4.11-2,6.88,6.88,0,0,0,2.38,4.64,11.34,11.34,0,0,0,4.59,2.52,13.39,13.39,0,0,0,5.06.43,16.94,16.94,0,0,0,2.47-.53,11.74,11.74,0,0,0,2.33-1.09,14.75,14.75,0,0,0-2.35-.87C232.09,365.53,231.34,365.32,230.62,365.14Z"/><path fill="#513E2A"  d="M270.52,408.65a15.58,15.58,0,0,0,2.31-2.21,27.74,27.74,0,0,0-3.08.4c-.49.06-1,.11-1.45.19-.24,0-.47.07-.71.12l-.7.05q-.7.06-1.38.15l-1.36.06c-.23,0-.45,0-.67,0l-.67,0c-.45,0-.89,0-1.33,0a27.19,27.19,0,0,1-5.3-.8,42.62,42.62,0,0,1-5.62-1.8A10.58,10.58,0,0,0,255,409.5a13.71,13.71,0,0,0,6.32,1.9,15.32,15.32,0,0,0,1.66,0l.83-.06c.28,0,.55-.08.82-.14.54-.12,1.08-.21,1.61-.37s1-.37,1.52-.57a7.88,7.88,0,0,0,1.45-.73C269.62,409.24,270.08,409,270.52,408.65Z"/><path fill="#513E2A"  d="M450.25,375.6a10.49,10.49,0,0,0,4.83,3.94,13.47,13.47,0,0,0,6.31,1.08,12.27,12.27,0,0,0,1.6-.2,10.53,10.53,0,0,0,1.57-.37c.5-.18,1-.34,1.51-.53s.95-.48,1.41-.74a7.12,7.12,0,0,0,1.32-.86c.41-.32.82-.65,1.21-1a10.66,10.66,0,0,0,1.05-1.16,11.55,11.55,0,0,0,.91-1.26c-1.07.17-2,.48-2.93.71-.47.11-.93.21-1.38.33l-.67.19c-.22,0-.45.07-.67.12-.45.09-.88.18-1.31.3s-.88.12-1.31.19a7.86,7.86,0,0,1-1.28.16,9.38,9.38,0,0,1-1.29.12,29.4,29.4,0,0,1-5.21-.11A53.17,53.17,0,0,1,450.25,375.6Z"/><path fill="#513E2A"  d="M478,348a31.85,31.85,0,0,1-9.34,3.85,42.7,42.7,0,0,1-10.22,1.1,79.6,79.6,0,0,1-10.73-.8,27.29,27.29,0,0,0,10.46,3.92,28.76,28.76,0,0,0,11.42-.33,24.11,24.11,0,0,0,10.28-5.22,22.55,22.55,0,0,0,6.4-9.23A48.67,48.67,0,0,1,478,348Z"/><path fill="#513E2A"  d="M478.37,297.44a10.62,10.62,0,0,0,2.19-5.91,52.63,52.63,0,0,1-4.42,3.69,23.88,23.88,0,0,1-4.5,2.6,42.75,42.75,0,0,1-5,1.86c-1.77.54-3.61,1-5.63,1.62a12.32,12.32,0,0,0,6.05,1.48,15.07,15.07,0,0,0,6.23-1.32A12.65,12.65,0,0,0,478.37,297.44Z"/><path fill="#513E2A"  d="M436.35,389.41a7.43,7.43,0,0,0,4,.11,7.77,7.77,0,0,0,3.43-1.86,7.4,7.4,0,0,0,1.23-1.5,6.91,6.91,0,0,0,.72-1.87,13.39,13.39,0,0,0-1.9.29c-.59.08-1.09.26-1.61.35-1,.27-1.93.46-2.82.71l-2.77.65c-1,.23-2,.45-3.39.72A5.23,5.23,0,0,0,436.35,389.41Z"/><path fill="#513E2A"  d="M471.72,315.62a24,24,0,0,1-3.27,1.84,22.93,22.93,0,0,1-3.5,1.34c-1.28.39-2.63.72-4.25,1.13a7.47,7.47,0,0,0,4.46,2,9.38,9.38,0,0,0,5-.84,9.14,9.14,0,0,0,3.83-3.28,8.91,8.91,0,0,0,1.09-2.21,8.72,8.72,0,0,0,.35-2.44,23,23,0,0,0-2,1.3C472.81,314.84,472.31,315.3,471.72,315.62Z"/><path fill="#513E2A"  d="M450.25,367.65A25.15,25.15,0,0,1,447,369.5a24.14,24.14,0,0,1-3.51,1.33c-1.27.39-2.63.72-4.25,1.13a7.44,7.44,0,0,0,4.47,2,9.35,9.35,0,0,0,9.89-6.33,9.12,9.12,0,0,0,.36-2.44,21.74,21.74,0,0,0-2,1.3C451.34,366.87,450.85,367.34,450.25,367.65Z"/><path fill="#513E2A"  d="M459.37,334.92c-.74.23-1.39.56-2.05.8a36.45,36.45,0,0,1-3.74,1.25,19.58,19.58,0,0,1-3.76.54,27,27,0,0,1-4.46-.17,6.89,6.89,0,0,0,3.9,3.26,9.42,9.42,0,0,0,5.29.26,10.46,10.46,0,0,0,4.51-2.52,11.33,11.33,0,0,0,1.59-1.94,10.63,10.63,0,0,0,1-2.32A14.71,14.71,0,0,0,459.37,334.92Z"/><path fill="#513E2A"  d="M409.35,386.39a43.93,43.93,0,0,1-6.19.05c-2.13-.1-4.3-.3-6.67-.46a15.62,15.62,0,0,0,6.08,3.54,18,18,0,0,0,7.13.85,14.18,14.18,0,0,0,6.95-2.46,11.07,11.07,0,0,0,4.28-5.73,29.56,29.56,0,0,1-5.77,3A23.19,23.19,0,0,1,409.35,386.39Z"/><path fill="#513E2A"  d="M265,377.31c-1.72,0-3.37,0-5-.08s-3.24-.18-4.89-.4a40.12,40.12,0,0,1-5.2-1,9,9,0,0,0,4.25,4,14.4,14.4,0,0,0,5.68,1.4,16,16,0,0,0,5.69-.81,18,18,0,0,0,2.62-1.15,14.83,14.83,0,0,0,2.33-1.71,18.64,18.64,0,0,0-2.82-.19C266.71,377.29,265.84,377.33,265,377.31Z"/>            <g opacity="0.6" ><path fill="#FFFFFF"  d="M285.16,418.84c2.41-25.61,27.19-49.17,50.59-49.34,23.7-.18,49,18.47,51.49,48,.13,1.49,1.2.46-.05,1.63-1.4,1.32-6.65,1.94-9.64,2.8-14.1,4.06-27.6,4.48-43.78,4.36-16.48-.12-33.16-4.21-48.13-7.41"/></g>        </g>    </g>    <g id="mask">        <g opacity="0.2" ><path d="M228.68,181.63c3.92-8.28,9-16.2,13.69-24,2.78-4.65,5.22-10.48,8.52-14.79a104.9,104.9,0,0,0-20.67-12.44c-12.6-5.5-25.66-5.73-39-8a202.1,202.1,0,0,1-23.92-5.63c-6.21-1.86-14.25-6.82-20.65-6.87a3.38,3.38,0,0,0-3.43,3.44c.37,10.87,17.79,27.36,23.87,33.25,18.24,17.69,37.16,26.58,61.57,35.11C228.69,181.61,228.67,181.64,228.68,181.63Z"/></g><g opacity="0.2" ><path d="M485.79,27.23C478.92,31.53,474,44.94,469,51.63c-12.39,17.88-29.45,26.28-47.14,37.82-10.18,6.65-19.94,15.66-24,26.8,7.59,6.19,13.58,13.89,20.22,21,5,5.39,5.44,8.93,9.82,14.85.07,0,.66,1.25.73,1.22,1.41-.67,6.28-2.13,7.41-3.11,1.81-1.57,4.28-2.67,6.27-4.05,20.16-14,34.59-34.79,42.79-57.74a132.62,132.62,0,0,0,7.76-39c.23-5.63-1.07-18.15-5.93-21.8C486.6,27.42,486.26,26.94,485.79,27.23Z"/></g><g opacity="0.1" ><path d="M484.68,335.39c.24,1.69-3.5,6.76-4.42,8.49-1.82,3.4-3.69,6.77-5.68,10.08a107.84,107.84,0,0,1-13.23,18.12,62.86,62.86,0,0,1-11.06,9.46,61.18,61.18,0,0,1-6.25,3.67,33.15,33.15,0,0,1-5.53,2.51c-4,1.15-6.15-2.22-7.32-5.52a39.5,39.5,0,0,1-2.34-17.54,119.47,119.47,0,0,1,2.54-14.42l-1.94,4.49c-3.06,11.13-4.58,22.56-6,34a4.59,4.59,0,0,0,.26,2.19,3.36,3.36,0,0,0-.88.73c-2.06,2.52-.69,11.1-.81,14.3a.63.63,0,0,0,.09.45c.16.19.45.15.69.08a107.5,107.5,0,0,0,24.46-9.43c9.48-5.3,17.5-11.61,23.89-20.24a58.69,58.69,0,0,0,8.11-14.44C482.34,353.67,486,344.54,484.68,335.39Z"/></g><g opacity="0.1" ><path d="M250.56,408.75a61.26,61.26,0,0,1-.11-9.18c-17.19-5.74-32.52-19.2-40-35.56-4-8.82-6.12-18.92-6.18-30.43-.12-27.61,4-61.45,8.43-88.38a243.71,243.71,0,0,1,6.84-29.92c-.14-.74-.28-1.49-.4-2.24a.43.43,0,0,1,0-.07c0,.17,0,.35.07.52a6.18,6.18,0,0,0-.12-.62,5.25,5.25,0,0,1-.33-1,6,6,0,0,1-.23-.72,5.17,5.17,0,0,1-.88-1.92h0c-.47-.78-1-1.59-1.36-2.44-3.37,7.33-6.48,14.6-9.19,21.65-10,26-15,53.61-17.25,81.34-1.57,19.12-2.15,44.18,6,63.65-20.67,3.82-43.37,2.87-57.28-13.41-24.5-28.68.85-55.77.85-55.77-6.66,4.45-9.83,6.24-16.75,19.86-6.35,12.53-.29,28.48,8.17,38.62,14.62,17.53,37.1,22.58,58.91,19.94a66.44,66.44,0,0,0,9.71-2,48.91,48.91,0,0,0,5.1,7.16c10,11.56,21.38,19,39.1,21.26,2.33.29,4.7.61,7.09.95A5.69,5.69,0,0,1,250.56,408.75Z"/></g><g opacity="0.1" ><path d="M246.83,149.18c-6.49,10.92-13.15,22.77-19.44,34.87a5,5,0,0,1,1.83-.39,4.6,4.6,0,0,1,1.86-.89,4.46,4.46,0,0,1,1.14-.46,260,260,0,0,1,67.41-86.68C276,108.75,262,123.69,246.83,149.18Z"/></g><g opacity="0.1" ><path d="M389.53,402.6c-5.29,1.25-9.82,4.44-15.12,5.67a159,159,0,0,1-19.41,3c-22,2.28-44.36.82-66.17-2.85-1.82-5.45-1.09-11.68-.06-17.2.53-2.84,2-6.43,2.63-8.77l-.23.33a5,5,0,0,1-.67,1.76c-2.9,4.83-4.4,10.08-5.82,15.49-.51,2-1.25,4-1.93,6.18a19,19,0,0,1-.94,9.28c1.64.36,3.24.72,4.8,1.1,14.9,5.54,32.72,6.73,47.93,6.86,15.65.12,34.68-1.09,45-4.91,2.86-1.06,9.12-1.62,10.48-3.05,1.2-1.27-.65-1.69-.78-3.3C388.51,402.85,389.52,402.6,389.53,402.6Z"/></g>        <g opacity="0.1" ><path fill="#fff"  d="M435.54,175.28c1.61.09,3.22,0,4.82,0a249.84,249.84,0,0,0-31.49-46.94c-16.21-18.84-29.22-25.14-29.44-25.34,6.05,5.3,10.42,13.69,14.49,20.51,4.46,7.47,8.87,15,13.36,22.42,5.63,9.39,11.27,18.86,16.76,28.42C427.9,174.42,431.69,175.06,435.54,175.28Z"/></g><g opacity="0.1" ><path fill="#fff"  d="M480.63,289.32c-5.44-29.5-15.48-57.88-26.94-85.53q-1.79-4.29-3.67-8.54L447.61,197c-.9.6-2.29,2.36-3.51,3.39-.7.59-1.45,1.13-2.15,1.72-.27.23-.54.45-.79.69s-1,1.22-.43.42a7.43,7.43,0,0,1-.65.81q2.13,4.24,4.16,8.55a328.76,328.76,0,0,1,23.41,68.9c2.75,12.34,4.9,24.8,6.59,37.33,1.4,10.34,4.08,22.69-2.47,31.88,4.28-6,9.86-10.61,11.35-14.66C488.39,321.61,483.3,303.81,480.63,289.32Z"/></g>    </g>    <g id="outline">        <path fill="none"  d="M227.11,178c8.25-16,17.47-32,28.5-46.37,3.71-4.86,7.62-9.54,11.77-14q1.5-1.59,3.05-3.14a50.32,50.32,0,0,0-12.51-7.92c-18.23-8.17-39-6.85-58.53-7.16-16.42-.26-33.11-1.7-47.93-9.4-7-3.63-18.07-9.93-18.48,3.41-.25,8.2,2.47,16.31,6.43,23.39,7.64,13.68,19.64,25.59,30.77,36.5,11.73,11.5,25.38,21.52,41.07,26.83a94.94,94.94,0,0,0,13.09,3.35C225.26,181.63,226.16,179.79,227.11,178Z"/><path fill="none"  d="M180.83,358.14c-13.37-3.79-31.91-13.93-31.89-30.06,0-7.83,5.89-17.95,14.25-18.91a9.79,9.79,0,0,1,4.13.38c1.27.4,2.42,1.63,3.64,1.87,6.59,1.28,4.62-5.39,2.32-8-5.05-5.78-17.35-5.63-24-3.76-14.65,4.1-29.76,21.84-29.06,37.44.76,17.19,14.14,32.19,29.18,39.12,14.25,6.56,31.49,7.42,46.66,3.56a78.42,78.42,0,0,1-7.54-20A61.75,61.75,0,0,1,180.83,358.14Z"/><path fill="none"  d="M381.53,105c.21.22.4.44.6.66a101,101,0,0,0-30.2-13.57,77.3,77.3,0,0,0-58.72,8.25c-13.74,8.09-24.88,19.59-34.49,32.25-4.34,5.72-8.36,11.67-12.17,17.65a368.93,368.93,0,0,0-18.76,33.14,34.32,34.32,0,0,0,6.84-2.65,30.33,30.33,0,0,1-10.81,4.86,31.41,31.41,0,0,1-6,.8h-.64c1.12.64,2.24,1.31,3.32,2a68.47,68.47,0,0,1,7.41,5.48l-1.81,2.25a14.77,14.77,0,0,0-6.1-2.53,29.38,29.38,0,0,0-6.91-.36c-3,.18-6,.66-9.07,1,.69.38,1.38.79,2,1.22a31.12,31.12,0,0,1,6.09,5.17,29.76,29.76,0,0,1,7.24,13.82,33.37,33.37,0,0,0-3-6,382.13,382.13,0,0,0-22.29,75.37c-1.64,9-3,18.12-3.91,27.26-2.94,30.41-1.69,70.58,28.43,87.66,2,1.14,11.8,3.5,9,6.77a3.69,3.69,0,0,1-.79.8c-2.07,1.6-11.33,2.7-13.45,5.31a1.64,1.64,0,0,0-.28,1.19c.7,4.07,12.39,4.42,15.15,4.64a156.58,156.58,0,0,0,17.6.25c.52,0,1.44,0,2.41,0,.05-.46.08-.93.1-1.4.11-3.79.05-7.79.16-11.66s.13-7.78.12-11.66a161.59,161.59,0,0,0-1.56-23.18,60.28,60.28,0,0,0-2.71-11.25,31.63,31.63,0,0,0-2.45-5.24,18,18,0,0,0-3.63-4.52c3.16,2.36,5.25,5.88,6.82,9.47a61.63,61.63,0,0,1,3.41,11.28A143.77,143.77,0,0,1,251,392.89c.14,3.91.19,7.83.18,11.73s.08,7.72,0,11.73a22.36,22.36,0,0,1-.26,3.11,13.19,13.19,0,0,1-.37,1.6,6.87,6.87,0,0,1-.77,1.71,8,8,0,0,1-2.67,2.36,24.46,24.46,0,0,1-2.8,1.34c-.91.38-1.79.74-2.59,1.14a6.11,6.11,0,0,0-1.9,1.33,2,2,0,0,0-.49,1.61,3.62,3.62,0,0,0,.77,1.91,6.54,6.54,0,0,0,1.08,1.09,5.44,5.44,0,0,1,.23-3.11,6.52,6.52,0,0,1,2.78-3.36,8.58,8.58,0,0,1,2-.78,12.49,12.49,0,0,1,1.87-.39,13.23,13.23,0,0,1,3.88,0,13.58,13.58,0,0,1-3.13,2.28c-1.12.61-2.21,1.06-3,1.5a9.22,9.22,0,0,0-2.26,1.93,12.58,12.58,0,0,0-1.91,3l.45-.38a13.48,13.48,0,0,0,2.2,1.15,20.3,20.3,0,0,0,5.23,1.43c.81.1,1.63.17,2.45.23a2.79,2.79,0,0,1-.44-.92,3.62,3.62,0,0,1,.15-2.18,7.13,7.13,0,0,1,2.48-3,10.09,10.09,0,0,1,3.23-1.61,7.41,7.41,0,0,1,3.66-.16,28.12,28.12,0,0,1-2.61,2.27c-.84.66-1.66,1.29-2.49,1.9a23.29,23.29,0,0,0-2.22,1.76,3.27,3.27,0,0,0-.74,1,2.59,2.59,0,0,0-.2,1.56l.56-.58a47.91,47.91,0,0,0,7.48-.29,41.52,41.52,0,0,0,5.56-1,14.92,14.92,0,0,0,4.83-2.26,23.08,23.08,0,0,0,7-8.46c.21-.41.39-.84.59-1.26l.47-1.26c.26-.91.52-1.81.73-2.75.46-1.87.84-3.78,1.26-5.68.82-3.81,1.63-7.64,2.6-11.44a115.51,115.51,0,0,1,3.48-11.22,49,49,0,0,1,5.21-10.5c-3.77,6.86-5.7,14.46-7.25,22-.76,3.66-1.4,7.34-2,11a313.77,313.77,0,0,0,33.11,5.43c21.48,2.29,43.62,2.35,64.74-2.67a87.64,87.64,0,0,0,8.73-2.61c-.68-3.7-.88-7.38-1.29-11-.19-1.86-.5-3.7-.78-5.57s-.58-3.73-.95-5.56a28.82,28.82,0,0,0-1.73-5.33c-.67-1.77-1.29-3.55-1.89-5.34.74,1.74,1.5,3.46,2.31,5.17a29.14,29.14,0,0,1,2.08,5.31c.49,1.85.88,3.69,1.29,5.54s.82,3.69,1.12,5.58c.61,3.76,1,7.52,1.81,11.1a28.31,28.31,0,0,0,1.7,5.18,26.6,26.6,0,0,0,2.69,4.7,21.21,21.21,0,0,0,3.63,3.93,15.3,15.3,0,0,0,4.45,2.69,27.29,27.29,0,0,0,5.22,1.27,47.78,47.78,0,0,0,5.47.54c1.33.05,2.66,0,4,0l.55.57a2.57,2.57,0,0,0-.21-1.56,3.27,3.27,0,0,0-.74-1,22.42,22.42,0,0,0-2.22-1.75c-.83-.61-1.64-1.24-2.49-1.9a29.65,29.65,0,0,1-2.6-2.27,7.25,7.25,0,0,1,3.65.16,9.84,9.84,0,0,1,3.24,1.61,7.13,7.13,0,0,1,2.47,3,3.59,3.59,0,0,1,.16,2.17,2.82,2.82,0,0,1-.45.94h.14c.9-.07,1.84-.16,2.7-.28a21.53,21.53,0,0,0,2.57-.57,16.76,16.76,0,0,0,4.48-2l.45.38a12.87,12.87,0,0,0-1.91-3,9.24,9.24,0,0,0-2.27-1.92c-.84-.44-1.92-.89-3-1.5a13.19,13.19,0,0,1-3.14-2.29,13.57,13.57,0,0,1,3.88,0,12.35,12.35,0,0,1,1.88.39,8.51,8.51,0,0,1,2,.78,6.54,6.54,0,0,1,2.79,3.36,5.46,5.46,0,0,1,.22,3.14,4.45,4.45,0,0,0,1.85-3,2.3,2.3,0,0,0-.37-1.67,4.72,4.72,0,0,0-1.66-1.32c-1.47-.79-3.28-1.34-5.11-2.13A13.84,13.84,0,0,1,423,419.2a7.81,7.81,0,0,1-1.27-1.24,5,5,0,0,1-.89-1.76,11.55,11.55,0,0,1-.28-1.58l-.17-1.43c-.12-.95-.23-1.91-.28-2.87a84.75,84.75,0,0,1-.09-11.49,107.73,107.73,0,0,1,1.21-11.36c1.13-7.53,2.87-14.91,4.72-22.23l1.44-5.48a34,34,0,0,1,1.82-5.43,55.65,55.65,0,0,1,5.85-9.74,66.22,66.22,0,0,0-5.11,10,34.4,34.4,0,0,0-1.45,5.4l-1.11,5.55c-1.51,7.38-2.93,14.78-3.85,22.21a104.76,104.76,0,0,0-.61,22.3c.06.81.17,1.61.27,2.41,5.44.88,11.38.47,16.76.3a155,155,0,0,0,19.14-1.45c1.36-.21,2.46-.18,2.89-.55.14-.3,0-.77-.45-1.57-1.6-2.7-4-4-6.92-5-2.41-.82-9.31-1-10.72-3.44a1.67,1.67,0,0,1,.17-2.1,9.6,9.6,0,0,1,.94-1c1.35-1.36,4-2.21,5.61-3.25a71.12,71.12,0,0,0,18.6-16.93,69.06,69.06,0,0,0,5.85-9.13c6.3-11.75,9.14-24.94,9.66-38.21.06-.31.11-.62.16-.93a127,127,0,0,0-.51-16c-2.25-23.72-9.25-47.32-17.26-69.67-5.67-15.85-12.26-31.36-19.34-46.63a28.58,28.58,0,0,0-3,2.9,26.48,26.48,0,0,1,5.07-5.56c1-.85,7.64-1.62,8.8-2.32-1.7.07-8.89.14-10.58.19l-6.06.69-2.51.07-.27-2.53c.57-.13,1.14-.27,1.71-.43,5.23-1.39,10.74-2,15.66-4.42a40.78,40.78,0,0,0,6.13-3.95c1-.73,2-1.47,3-2.22.51-.39,1.72-1.74,2.34-1.81-3.94.48-7.91.67-11.86,1s-7.6,1.18-11.45,1a44.56,44.56,0,0,1-6.67-1.17l4.75-1.25a18.3,18.3,0,0,0,6.12-2.93c-1.65.3-3.3.54-5,.75a77.47,77.47,0,0,1-8.19.53l1.61-.27-1-2.12c-9.43-18.92-19.18-36.8-34.42-51.76A127.77,127.77,0,0,0,381.53,105Z"/><path fill="none"  d="M484.35,11.31c-2.52,1.81-4.1,4.78-5.67,7.38C465.2,41.08,438.41,54,416.27,66.2c-11.95,6.58-34.87,17.69-37.95,33.36,16.59,9.54,30.79,23.14,41.88,38.67a152.92,152.92,0,0,1,10,16.44c20.07-3.27,36.73-15,47.92-32.65,10.89-17.16,16.55-37.35,19.53-57.3a224,224,0,0,0,2.39-30.06c.09-6.57.66-14.31-3.2-20C494.17,10.73,488.57,8.29,484.35,11.31Z"/><path d="M488.51,6.89c-5.5,0-8.74,4.37-11.41,8.61a75.32,75.32,0,0,1-14.05,17c-13.16,11.67-28.92,20.27-44.18,28.85C405.48,68.86,379.78,80.56,375.54,98c-16.26-8.75-34.83-13.39-53.29-11-19.12,2.46-35.87,12.28-49.63,25.35C259.1,100.51,240.4,97.46,223,96.74c-19.8-.83-40.24,1.19-59.41-4.94-7.65-2.45-14.7-8.33-22.62-9.68-6.21-1.06-10.08,3-10.84,9-2.08,16.48,8.63,32.11,18.82,43.87,11.55,13.33,23.9,26.6,38.59,36.5a92.13,92.13,0,0,0,29.13,13,33.23,33.23,0,0,1-4.46-.62l-7.48-1.58,6.78,3.67a83.91,83.91,0,0,1,7.26,4.45,31.49,31.49,0,0,0-5.82-.08c-5,.34-8.28,1.49-13,1.57l-8.63.16,8.25,2.39a30.36,30.36,0,0,1,6.86,2.89c2.16,1.25,2.7,2.74,4.54,4.47a32.62,32.62,0,0,1,3.33,3.62,379.35,379.35,0,0,0-14.71,41.67q-5.13,17.8-8.5,36.06c-4.13,22.74-8.08,49.51-3.29,73.47a60.7,60.7,0,0,1-11.31-3.07c-8.62-3.25-17.72-8.74-22.26-17.06-4.28-7.83-1.8-21.94,8.4-24.19,4.48-1,12.6,7.2,15.42-.06,1.53-3.95-.71-9.61-3.9-12.09-10.76-8.4-28.09-4.73-38,2.92-11.07,8.57-20.66,22.88-18.65,37.35,2.16,15.63,13.44,29.31,27,36.69,16.16,8.78,35.1,9.71,53.06,5.37.15.24.29.5.44.74a53.84,53.84,0,0,0,16.37,16.68,51.84,51.84,0,0,0,5.28,3c.44.22,1.85,1.07,3.07,1.66-1.78.62-3.6,1.16-5.38,1.81-2.17.8-5.25,1.88-6.62,3.79a3.82,3.82,0,0,0-.33,4.36c1.88,3.91,8,4.8,11.71,5.38a115.9,115.9,0,0,0,20,1c1.45,0,3.44.1,5.43.06,0,.06-.07.14-.11.19-.72,1.1-2.44,1.89-4.19,2.61-.89.36-1.82.73-2.77,1.2a8.94,8.94,0,0,0-2.83,2,5.1,5.1,0,0,0-1,1.79,5.63,5.63,0,0,0-.2,2,6.57,6.57,0,0,0,1.34,3.45,13,13,0,0,0,5.35,3.8,23.66,23.66,0,0,0,6,1.6,48.34,48.34,0,0,0,12-.09,44.64,44.64,0,0,0,5.92-1.19,17.53,17.53,0,0,0,5.66-2.76,24.71,24.71,0,0,0,7.54-9.58c.23-.46.41-.93.61-1.4l.51-1.5c.25-1,.5-1.95.69-2.92s.41-2.05.6-3.07c22.26,4.81,45.17,7.65,68,6.74a159.4,159.4,0,0,0,32.55-4.43c2.47-.62,4.93-1.31,7.36-2.08a28.73,28.73,0,0,0,3.7,7.89,20.5,20.5,0,0,0,9,7.72,29.67,29.67,0,0,0,5.73,1.52,49.13,49.13,0,0,0,11.61.67c1-.07,1.92-.15,2.93-.29a22.07,22.07,0,0,0,2.95-.63,19.57,19.57,0,0,0,5.59-2.48,10.09,10.09,0,0,0,2.42-2.26,6.69,6.69,0,0,0,1.32-3.32,5.33,5.33,0,0,0-.91-3.71,7.63,7.63,0,0,0-2.7-2.21c-1.88-1-3.71-1.5-5.34-2.21a10.82,10.82,0,0,1-2.17-1.18,4.79,4.79,0,0,1-.76-.72,2.62,2.62,0,0,1-.3-.5l.56.05a142.39,142.39,0,0,0,20.86,0c5.57-.29,11.91-.21,17.3-1.84a3.69,3.69,0,0,0,2.07-1.38c1.35-1.65.48-4.32-1.09-6.45-3.26-4.43-9.44-5.46-14.45-6.64l-.32-.09c.86-.55,1.74-1.19,2.09-1.4a77.7,77.7,0,0,0,11.85-8.79,69.09,69.09,0,0,0,9.4-10.43c8.29-11.22,13.18-24.69,15-38.64,2.85-21.54-1.3-43.23-6.68-64-6.47-25.07-15.82-49.32-26.42-72.92q-1.81-4-3.68-8.05l.13-.1c1.75-1.17,3.93-1.52,5.94-2,4.77-1.08,8.92-2.16,13.15-4.67l-4.35.89c-2.33.47-4.94.42-7.32.75a80.77,80.77,0,0,1-9.19.91c3.2-.07,7.11-2,10-3.27,6-2.76,10.94-6.85,15.6-11.56.76-.77,2.43-3.23,3.46-3.47-5,1.18-10.15,1.92-15.23,2.85-4.91.89-9.87,2.49-14.91,2.13,4.19-2,8.15-3.58,11.08-5.94,1.23-1,2.49-2.6,4.11-2.89-6.28,1.83-12.49,3.87-18.88,5.28-1.11.25-2.23.47-3.35.68-1.18-2.39-2.37-4.79-3.57-7.18-1.69-3.37-3.39-6.73-5.13-10.06A70.6,70.6,0,0,0,476,130.3c13.72-17.92,20.66-40.45,24.2-62.47a227.41,227.41,0,0,0,2.86-33.17C503.21,24.57,502.64,6.88,488.51,6.89ZM211.25,180.12c-15.69-5.31-29.34-15.33-41.07-26.83-11.13-10.91-23.13-22.82-30.77-36.5-4-7.08-6.68-15.19-6.43-23.39.41-13.34,11.5-7,18.48-3.41,14.82,7.7,31.51,9.14,47.93,9.4,19.49.31,40.3-1,58.53,7.16a50.32,50.32,0,0,1,12.51,7.92q-1.55,1.55-3.05,3.14c-4.15,4.44-8.06,9.12-11.77,14C244.58,146,235.36,162,227.11,178c-1,1.83-1.85,3.67-2.77,5.51A94.94,94.94,0,0,1,211.25,180.12ZM149.37,376.19c-15-6.93-28.42-21.93-29.18-39.12-.7-15.6,14.41-33.34,29.06-37.44,6.68-1.87,19-2,24,3.76,2.3,2.64,4.27,9.31-2.32,8-1.22-.24-2.37-1.47-3.64-1.87a9.79,9.79,0,0,0-4.13-.38c-8.36,1-14.24,11.08-14.25,18.91,0,16.13,18.52,26.27,31.89,30.06a61.75,61.75,0,0,0,7.66,1.65,78.42,78.42,0,0,0,7.54,20C180.86,383.61,163.62,382.75,149.37,376.19ZM436.29,173.1l1,2.12-1.61.27a77.47,77.47,0,0,0,8.19-.53c1.66-.21,3.31-.45,5-.75a18.3,18.3,0,0,1-6.12,2.93L438,178.39l4.87,1c3.59.74,15.91-1.13,19.44-1.49,1.88-.19,3.78-.15,5.67-.37-.71.08-2.06,1.71-2.6,2.17a36.35,36.35,0,0,1-10.71,6.45c-4.49,1.64-9.19,2.56-13.8,3.78-.57.16-2.14.8-2.71.93l-.23,0,4,.93,6.06.31c1.69-.05,9.38-.62,11.08-.69-1.16.7-8.26,2-9.3,2.82a26.48,26.48,0,0,0-5.07,5.56,28.58,28.58,0,0,1,3-2.9c7.08,15.27,13.67,30.78,19.34,46.63,8,22.35,15,46,17.26,69.67a127,127,0,0,1,.51,16c-.05.31-.1.62-.16.93-.52,13.27-3.36,26.46-9.66,38.21a68.3,68.3,0,0,1-18.66,22,69.85,69.85,0,0,1-5.79,4.05c-1.64,1-4.26,1.89-5.61,3.25a9.6,9.6,0,0,0-.94,1,1.67,1.67,0,0,0-.17,2.1c1.41,2.48,8.31,2.62,10.72,3.44,2.94,1,5.32,2.32,6.92,5,.48.8.59,1.27.45,1.57-.43.37-1.53.34-2.89.55a155,155,0,0,1-19.14,1.45c-5.38.17-11.32.58-16.76-.3-.1-.8-.21-1.6-.27-2.41a104.76,104.76,0,0,1,.61-22.3c.92-7.43,2.34-14.83,3.85-22.21l1.11-5.55a34.4,34.4,0,0,1,1.45-5.4,66.22,66.22,0,0,1,5.11-10,55.65,55.65,0,0,0-5.85,9.74,34,34,0,0,0-1.82,5.43l-1.44,5.48c-1.85,7.32-3.59,14.7-4.72,22.23A107.73,107.73,0,0,0,420,398.83a84.75,84.75,0,0,0,.09,11.49c.05,1,.16,1.92.28,2.87l.17,1.43a11.55,11.55,0,0,0,.28,1.58,5,5,0,0,0,.89,1.76A7.81,7.81,0,0,0,423,419.2a13.84,13.84,0,0,0,2.77,1.56c1.83.79,3.64,1.34,5.11,2.13a4.72,4.72,0,0,1,1.66,1.32,2.3,2.3,0,0,1,.37,1.67,4.45,4.45,0,0,1-1.85,3,5.46,5.46,0,0,0-.22-3.14,6.54,6.54,0,0,0-2.79-3.36,8.51,8.51,0,0,0-2-.78,12.35,12.35,0,0,0-1.88-.39,13.57,13.57,0,0,0-3.88,0,13.19,13.19,0,0,0,3.14,2.29c1.12.61,2.2,1.06,3,1.5a9.24,9.24,0,0,1,2.27,1.92,12.87,12.87,0,0,1,1.91,3l-.45-.38a16.76,16.76,0,0,1-4.48,2,21.53,21.53,0,0,1-2.57.57c-.86.12-1.8.21-2.7.28h-.14a2.82,2.82,0,0,0,.45-.94,3.59,3.59,0,0,0-.16-2.17,7.13,7.13,0,0,0-2.47-3,9.84,9.84,0,0,0-3.24-1.61,7.25,7.25,0,0,0-3.65-.16,29.65,29.65,0,0,0,2.6,2.27c.85.66,1.66,1.29,2.49,1.9a22.42,22.42,0,0,1,2.22,1.75,3.27,3.27,0,0,1,.74,1,2.57,2.57,0,0,1,.21,1.56l-.55-.57c-1.33,0-2.66.06-4,0a47.78,47.78,0,0,1-5.47-.54,27.29,27.29,0,0,1-5.22-1.27,15.3,15.3,0,0,1-4.45-2.69,21.21,21.21,0,0,1-3.63-3.93,26.6,26.6,0,0,1-2.69-4.7,28.31,28.31,0,0,1-1.7-5.18c-.85-3.58-1.2-7.34-1.81-11.1-.3-1.89-.73-3.74-1.12-5.58s-.8-3.69-1.29-5.54a29.14,29.14,0,0,0-2.08-5.31c-.81-1.71-1.57-3.43-2.31-5.17.6,1.79,1.22,3.57,1.89,5.34a28.82,28.82,0,0,1,1.73,5.33c.37,1.83.65,3.69.95,5.56s.59,3.71.78,5.57c.41,3.61.61,7.29,1.29,11a87.64,87.64,0,0,1-8.73,2.61c-21.12,5-43.26,5-64.74,2.67A313.77,313.77,0,0,1,283.25,414c.63-3.69,1.27-7.37,2-11,1.55-7.59,3.48-15.19,7.25-22a49,49,0,0,0-5.21,10.5,115.51,115.51,0,0,0-3.48,11.22c-1,3.8-1.78,7.63-2.6,11.44-.42,1.9-.8,3.81-1.26,5.68-.21.94-.47,1.84-.73,2.75l-.47,1.26c-.2.42-.38.85-.59,1.26a23.08,23.08,0,0,1-7,8.46,14.92,14.92,0,0,1-4.83,2.26,41.52,41.52,0,0,1-5.56,1,47.91,47.91,0,0,1-7.48.29l-.56.58a2.59,2.59,0,0,1,.2-1.56,3.27,3.27,0,0,1,.74-1,23.29,23.29,0,0,1,2.22-1.76c.83-.61,1.65-1.24,2.49-1.9a28.12,28.12,0,0,0,2.61-2.27,7.41,7.41,0,0,0-3.66.16,10.09,10.09,0,0,0-3.23,1.61,7.13,7.13,0,0,0-2.48,3,3.62,3.62,0,0,0-.15,2.18,2.79,2.79,0,0,0,.44.92c-.82-.06-1.64-.13-2.45-.23a20.3,20.3,0,0,1-5.23-1.43,13.48,13.48,0,0,1-2.2-1.15l-.45.38a12.58,12.58,0,0,1,1.91-3,9.22,9.22,0,0,1,2.26-1.93c.84-.44,1.93-.89,3-1.5a13.58,13.58,0,0,0,3.13-2.28,13.23,13.23,0,0,0-3.88,0,12.49,12.49,0,0,0-1.87.39,8.58,8.58,0,0,0-2,.78,6.52,6.52,0,0,0-2.78,3.36,5.44,5.44,0,0,0-.23,3.11,6.54,6.54,0,0,1-1.08-1.09,3.62,3.62,0,0,1-.77-1.91,2,2,0,0,1,.49-1.61,6.11,6.11,0,0,1,1.9-1.33c.8-.4,1.68-.76,2.59-1.14a24.46,24.46,0,0,0,2.8-1.34,8,8,0,0,0,2.67-2.36,6.87,6.87,0,0,0,.77-1.71,13.19,13.19,0,0,0,.37-1.6,22.36,22.36,0,0,0,.26-3.11c0-4-.09-7.81,0-11.73s0-7.82-.18-11.73a143.77,143.77,0,0,0-2.45-23.39,61.63,61.63,0,0,0-3.41-11.28c-1.57-3.59-3.66-7.11-6.82-9.47a18,18,0,0,1,3.63,4.52,31.63,31.63,0,0,1,2.45,5.24,60.28,60.28,0,0,1,2.71,11.25,161.59,161.59,0,0,1,1.56,23.18c0,3.88,0,7.76-.12,11.66s-.05,7.87-.16,11.66c0,.47,0,.94-.1,1.4-1,0-1.89,0-2.41,0a156.58,156.58,0,0,1-17.6-.25c-2.76-.22-14.45-.57-15.15-4.64a1.64,1.64,0,0,1,.28-1.19c2.12-2.61,11.38-3.71,13.45-5.31a3.69,3.69,0,0,0,.79-.8c2.76-3.27-7-5.63-9-6.77-30.12-17.08-31.37-57.25-28.43-87.66.89-9.14,2.27-18.22,3.91-27.26a382.13,382.13,0,0,1,22.29-75.37,33.37,33.37,0,0,1,3,6,29.76,29.76,0,0,0-7.24-13.82c-1.8-2-2.33-3.72-4.59-5.17-.66-.43-1.35-.84-2-1.22,3.09-.31,4.61-.79,7.57-1a29.38,29.38,0,0,1,6.91.36c2.23.42,5.85.23,7.6,1.53l.31-.25c-2.33-2-4.83-4.8-7.41-6.48-1.08-.7-2.2-1.37-3.32-2h.64a31.41,31.41,0,0,0,6-.8,30.33,30.33,0,0,0,10.81-4.86,34.32,34.32,0,0,1-6.84,2.65,368.93,368.93,0,0,1,18.76-33.14c3.81-6,7.83-11.93,12.17-17.65,9.61-12.66,20.75-24.16,34.49-32.25a77.3,77.3,0,0,1,58.72-8.25,101,101,0,0,1,30.2,13.57c-.2-.22-.39-.44-.6-.66a127.77,127.77,0,0,1,20.34,16.34C417.11,136.3,426.86,154.18,436.29,173.1ZM500.07,34.66a224,224,0,0,1-2.39,30.06c-3,20-8.64,40.14-19.53,57.3C467,139.65,450.3,151.4,430.23,154.67a152.92,152.92,0,0,0-10-16.44c-11.09-15.53-25.29-29.13-41.88-38.67,3.08-15.67,26-26.78,37.95-33.36C438.41,54,465.2,41.08,478.68,18.69c1.57-2.6,3.15-5.57,5.67-7.38,4.22-3,9.82-.58,12.52,3.38C500.73,20.35,500.16,28.09,500.07,34.66Z"/>    </g>    <g id="eye">        <g id="eye-color1">            <g opacity="0" ><path fill="#3D3D3D"  d="M251.88,194.72c-.14.46-.2.94-.35,1.41a16.61,16.61,0,0,1-1.35,2.86c-.53.94-1,1.9-1.55,2.83-.23.41-.49.81-.76,1.2-.14.21-.29.41-.44.61s-.45.47-.45.6c-.19.25-.39.5-.59.74-5.88,7.05-13.91,9.8-22.69,6.54-8.54-3.17-14.21-10.41-14.65-19.54a1.27,1.27,0,0,1,0-.28,1.29,1.29,0,0,1,0-.29,23.29,23.29,0,0,1,19-21.82,19,19,0,0,1,11.42,1.35c-15.3-7.7-34.36-2.93-39.3,15.33a21.13,21.13,0,0,0-.66,6.53A29.44,29.44,0,0,0,210,213c8.59,7.08,21.5,6.67,31,1.77,7.19-3.7,10-12.6,10.93-20.46C252,194.47,251.92,194.59,251.88,194.72Z"/></g><g opacity="0" ><path fill="#3D3D3D"  d="M375.64,188.66c-.24.62-.44,1.25-.7,1.86a25.86,25.86,0,0,1-2,3.67,32.56,32.56,0,0,1-2.54,3.42c-5.88,7-13.9,9.8-22.69,6.54-8.54-3.17-14.21-10.41-14.65-19.54a1.27,1.27,0,0,1,0-.28.9.9,0,0,1,0-.29,23.29,23.29,0,0,1,19-21.82,19,19,0,0,1,11.42,1.35c-15.29-7.7-34.35-2.93-39.29,15.33a20.54,20.54,0,0,0-.66,6.53,29.36,29.36,0,0,0,10.48,20.24c8.59,7.08,21.5,6.67,31,1.77,6.9-3.55,9.72-12,10.77-19.66C375.81,188,375.73,188.41,375.64,188.66Z"/></g>        </g>        <g id="eye-shape">            <path fill="#fbfbfb"  d="M295.23,123.9c-21.73-17.81-51.73-12-72.06,4.87-11.71,10.13-20.83,23.9-22.35,39.61-1.28,13.09,2.59,26.27,9.6,37.28,12.38,19.45,36.52,33.94,59.91,27.1,20.91-6.12,35.23-26.45,41.18-46.49C318.07,164.16,313.73,139.06,295.23,123.9Zm16.09,44.39c3.12,13.14-4,29.29-15.05,36.62-11.44,7.59-25.45,6.31-36.15-1.92-11.83-9.09-12.9-22.85-8.48-36.31a1.66,1.66,0,0,1,.15-.33c5.3-13,20-19.08,33.33-17.46a40.23,40.23,0,0,1,4.79.88c7-2,15.58,1.56,16.61,9.36A21.23,21.23,0,0,1,311.32,168.29Z"/><path d="M221.05,126.64c-10.64,9.21-19.13,21.3-22.21,35.19-2.76,12.5-.75,25.57,4.53,37.13,10.21,22.39,34.35,41.16,59.93,38.25,23.13-2.63,40.23-22.11,48.49-42.65,9.19-22.89,7.78-50-9.89-68.55C279.45,102.48,244.4,107.3,221.05,126.64Zm90.46,59.63c-5.95,20-20.27,40.37-41.18,46.49-23.39,6.84-47.53-7.65-59.91-27.1-7-11-10.88-24.19-9.6-37.28,1.52-15.71,10.64-29.48,22.35-39.61,20.33-16.85,50.33-22.68,72.06-4.87C313.73,139.06,318.07,164.16,311.51,186.27Z"/><path d="M306.46,162.89c-1.18,7.61-8.53,14.09-16.4,11.78-7.26-2.13-10.49-10.21-8.63-17.12a1.6,1.6,0,0,1,.1-.39,1.55,1.55,0,0,1,.18-.39,12.36,12.36,0,0,1,8.2-7,40.23,40.23,0,0,0-4.79-.88c-13.38-1.62-28,4.45-33.33,17.46a1.66,1.66,0,0,0-.15.33c-4.42,13.46-3.35,27.22,8.48,36.31,10.7,8.23,24.71,9.51,36.15,1.92,11.05-7.33,18.17-23.48,15.05-36.62a21.23,21.23,0,0,0-4.8-9.16A12.89,12.89,0,0,1,306.46,162.89Z"/><path fill="#fff"  d="M289.91,149.77a12.36,12.36,0,0,0-8.2,7,1.55,1.55,0,0,0-.18.39,1.6,1.6,0,0,0-.1.39c-1.86,6.91,1.37,15,8.63,17.12,7.87,2.31,15.22-4.17,16.4-11.78a12.89,12.89,0,0,0,.06-3.76C305.49,151.33,297,147.81,289.91,149.77Z"/><path fill="#fbfbfb"  d="M437,125.33c-21.81-15.39-53-18.4-71.71,3.55-17.26,21.61-17.19,56.12-2.48,79a51.87,51.87,0,0,0,65.66,19.41,58,58,0,0,0,33.47-49.53C463,157.45,453.74,137.14,437,125.33ZM371.26,207.2c-14.35-8.09-20.39-26.75-13.74-41.9a30.4,30.4,0,0,1,4.24-6.93,10.14,10.14,0,0,1,1.62-5.68c2.63-4.13,8-4.82,12.6-3.79a30.44,30.44,0,0,1,12.63-1c14.24,1.89,27.35,11.64,30.73,26C425.83,201.43,394.08,218.68,371.26,207.2Z"/><path d="M444.44,127.47c-22.48-20.29-60.06-25.66-81.28-.71-16.45,20.6-17.87,51.3-7.19,74.86,10.79,23.79,36.25,38.16,62.16,32.38,23.25-5.19,41.58-24.61,45.83-47.95C467.84,164.77,460.58,142,444.44,127.47Zm17.49,50.33a58,58,0,0,1-33.47,49.53,51.87,51.87,0,0,1-65.66-19.41c-14.71-22.92-14.78-57.43,2.48-79,18.67-21.95,49.9-18.94,71.71-3.55C453.74,137.14,463,157.45,461.93,177.8Z"/><path d="M388.61,148a30.44,30.44,0,0,0-12.63,1A17.87,17.87,0,0,1,379.2,150c5.45,2.44,8.81,8.09,6.23,13.93-3,6.77-10.57,8.5-16.85,5.51a1.36,1.36,0,0,1-.39-.18,1.28,1.28,0,0,1-.34-.24,13.69,13.69,0,0,1-6.09-10.61,30.4,30.4,0,0,0-4.24,6.93c-6.65,15.15-.61,33.81,13.74,41.9,22.82,11.48,54.57-5.77,48.08-33.26C416,159.59,402.85,149.84,388.61,148Z"/><path fill="#fff"  d="M367.85,169a1.28,1.28,0,0,0,.34.24,1.36,1.36,0,0,0,.39.18c6.28,3,13.85,1.26,16.85-5.51,2.58-5.84-.78-11.49-6.23-13.93A17.87,17.87,0,0,0,376,148.9c-4.6-1-10-.34-12.6,3.79a10.14,10.14,0,0,0-1.62,5.68A13.69,13.69,0,0,0,367.85,169Z"/><path fill="#fcf9f7"  d="M312.47,111.88c-3.15-2.12-8.21-4.63-12.08-3.19-2.63,1-3.4,3.79-2.51,6.24a12.78,12.78,0,0,0,.68,1.53,18.3,18.3,0,0,0,6.7,7.31c3.21,1.86,8.4,2.89,11.18-.27,2.17-2.47,1.49-6-.39-8.45A14.85,14.85,0,0,0,312.47,111.88Z"/><path fill="#fcf9f7"  d="M354.8,126.17c4.59-.46,8.71-4.37,10.83-8.24a10.54,10.54,0,0,0,1.3-3.71,3.28,3.28,0,0,0-.12-1.59c-.45-1.17-1.81-1.7-3.05-1.91a13.76,13.76,0,0,0-7.42.87c-3.38,1.35-7,3.44-8.19,7.14a6.23,6.23,0,0,0-.15.62C347.21,123.36,351,126.56,354.8,126.17Z"/>        </g>        <g id="eye-color2">            <path fill="#EFCA89"  d="M296.27,204.91c-11.44,7.59-25.45,6.31-36.15-1.92-11.83-9.09-12.9-22.84-8.48-36.31a1.35,1.35,0,0,1,.15-.32c5.09-12.49,18.79-18.57,31.71-17.61-18.58-4.76-40.69,3.61-47,22.29a37.85,37.85,0,0,0,4.9,33.63c7.49,10.53,19.92,14.81,32.48,14.76,6.18,0,12.54-1,17.8-4.26,8.59-5.28,15.13-15.61,17.42-26.36A36.29,36.29,0,0,1,296.27,204.91Z"/><path fill="#EFCA89"  d="M413,151.48c-9.56-6.8-25.15-8-36.48-2.76a30.47,30.47,0,0,1,12.05-.77c14.24,1.89,27.35,11.64,30.73,26,6.49,27.5-25.26,44.74-48.08,33.26a32.32,32.32,0,0,1-14.31-17,15.56,15.56,0,0,0,.4,2.35,31.17,31.17,0,0,0,16.47,20.87c13.12,6.59,30.83,4.54,43.3-5.59a31.75,31.75,0,0,0,10.47-14.43C432.45,178.47,425.74,160.52,413,151.48Z"/>        </g>    </g>    <g id="nose-mouth">        <path d="M345.48,229c-2.11,3.05-8,1.44-9.17-2.09,0-.11.07-.22.09-.33a1.34,1.34,0,0,0,0-.2c4.65-1.74,6.61-8.89,7-13.29.52-6.63.46-17.56-7.54-19.89-9.4-2.72-14.37,9-14.1,16.59.23,6.65,3.79,15.56,11.15,16.87l.37.05v0c-1.43,4.19-7.21,6.29-10.28,2.88-1.29-1.44-2.41-1.31-1.12.12,3.75,4.17,10,4.13,13,.43,2.76,3.34,8.17,3.32,11.26-1.16C347.16,227.46,346.56,227.45,345.48,229Z"/><path fill="#2d2821"  d="M324.62,208.1c.12,4.83,1.89,11.79,6.53,14.49,6.3,3.67,8.8-4.66,9.22-9.46.38-4.38.61-10-1.67-13.87-2.48-4.27-7.49-3.87-10.58-.73C325.59,201.09,324.81,204.63,324.62,208.1Z"/><ellipse fill="#fff"  cx="337.11" cy="202.86" rx="2.2" ry="4.78" transform="translate(-44.45 106.9) rotate(-16.92)"/>    </g></svg>