<!--  ~ Copyright (C) 2018 Baidu, Inc. All Rights Reserved.  --><svg viewBox="0 0 640 480" xmlns="http://www.w3.org/2000/svg">    <g id="back-ground-cl">        <rect fill="none" width="640" height="480" />        <ellipse opacity="0.1" cx="331.93" cy="418.82" rx="168.39" ry="32.01"/>    </g>    <g id="body">        <defs>            <clipPath id="outline">                <path fill="none"  d="M141.25,347.12c-1.63-1.74-3.22-3.51-4.74-5.37a31.86,31.86,0,0,1-4.09-6.12,9,9,0,0,1-.68-1.89,4.64,4.64,0,0,1,0-2.32,3.53,3.53,0,0,1,1.5-2.08,5.91,5.91,0,0,1,2-.82,15.6,15.6,0,0,1,3.81-.27,36,36,0,0,1,3.63.32,137.43,137.43,0,0,1,14,2.82l3.45.85,3.42.74,1.7.37.24,0c-.45-.53-.91-1.06-1.36-1.6a144.07,144.07,0,0,1-8.89-11.92A120.33,120.33,0,0,1,147.7,307,91,91,0,0,1,142.3,294a41.58,41.58,0,0,0-7.36,2.91,47.73,47.73,0,0,0-7.31,4.64,54.65,54.65,0,0,0-6.42,5.84,50.44,50.44,0,0,0-4.9,6.07c1,.71,1.92,1.43,2.85,2.17,1.17.93,2.32,1.88,3.44,2.87q3.38,2.93,6.48,6.17l2.09,2.17-2.95-.56a23.2,23.2,0,0,1-4.58-1.5c-1.44-.61-2.85-1.27-4.23-2-2.57-1.29-5.08-2.66-7.57-4.1a40.47,40.47,0,0,0-5.3,5.85,38.23,38.23,0,0,0-4.31,7.36A31,31,0,0,0,99.86,340a28.69,28.69,0,0,0,0,8.12,58,58,0,0,0,17.14,7.5,100,100,0,0,0,19,3,155.94,155.94,0,0,0,17.83.18A143,143,0,0,1,141.25,347.12Z"/><path fill="none"  d="M170.22,336l-3.55-.42-.89-.11-.88-.17-1.76-.33-3.51-.7-3.44-.81a138,138,0,0,0-13.78-2.61c-1.15-.14-2.29-.23-3.42-.26a13.45,13.45,0,0,0-3.22.22,3.65,3.65,0,0,0-1.24.48,1.18,1.18,0,0,0-.53.72,4.4,4.4,0,0,0,.58,2.6,29.91,29.91,0,0,0,3.8,5.6c1.47,1.79,3,3.52,4.65,5.22a134.93,134.93,0,0,0,45.77,31.82q4.41,1.92,8.95,3.54c-8-13.26-10.72-29.17-11.28-44.47A97,97,0,0,1,170.22,336Z"/><path fill="none"  d="M348.73,87c0-10.08-6.49-29-9.91-38.88-.47-1.35-.89-2.56-1.24-3.61a.64.64,0,0,0-.64-.46.62.62,0,0,0-.64.45l-.29.82c-3,8.56-10.13,28.74-10.41,40.2A81.16,81.16,0,0,1,348.73,87Z"/><path fill="none"  d="M490.79,222a42.37,42.37,0,0,0-5.73-3.15,68.75,68.75,0,0,0-12.5-4.26l-2.08-.49,1.88-1a6.54,6.54,0,0,0,3.12-3.22,3.76,3.76,0,0,0,.12-2.13,4.74,4.74,0,0,0-.41-1.06l-.26-.52-.34-.47a6,6,0,0,0-4-2.15,15.72,15.72,0,0,0-5,.19,44.84,44.84,0,0,0-9.74,3.15,91.28,91.28,0,0,0-9.2,4.67,79.37,79.37,0,0,1,6.95-4.12c-5.37-12.18-11.11-24.21-17.05-36.12C427,152.15,417,134.09,401.46,119c-13.82-13.37-30.72-24.13-49.5-28.87A77.51,77.51,0,0,0,294.16,98c-20,11.45-34.63,30.19-46.93,49.28a370.8,370.8,0,0,0-30.39,57.89c.95.41,1.9.84,2.84,1.29a79.71,79.71,0,0,1,9,5.16,91.44,91.44,0,0,0-9.21-4.67,44.58,44.58,0,0,0-9.73-3.15,15.72,15.72,0,0,0-5-.19,6,6,0,0,0-4,2.15l-.34.47-.26.52a5.32,5.32,0,0,0-.42,1.06,3.85,3.85,0,0,0,.13,2.13,6.54,6.54,0,0,0,3.12,3.22l1.88,1-2.08.49a69.11,69.11,0,0,0-12.51,4.26,42.86,42.86,0,0,0-5.72,3.15,19.79,19.79,0,0,0-4.73,4.22,9.6,9.6,0,0,0-2.2,5.49,9.34,9.34,0,0,0,.4,2.95,8.41,8.41,0,0,0,.49,1.44,8.93,8.93,0,0,0,5.18,5,12.87,12.87,0,0,0,3,.71,13.5,13.5,0,0,0,3,0l3.36-.35L190.68,244a52.57,52.57,0,0,0-8.27,10.9,27.77,27.77,0,0,0-2.61,6.21,18.22,18.22,0,0,0-.58,3.24,13.75,13.75,0,0,0,.15,3.21,12.15,12.15,0,0,0,2.81,5.7c1.39,1.66,3.14,3,5.08,3s4-1,5.76-2.29a42.21,42.21,0,0,0,5.09-4.59c3.23-3.34,6.25-6.94,9.33-10.49s6.2-7.08,9.52-10.44a90.72,90.72,0,0,1,10.67-9.29,53.66,53.66,0,0,1,12.29-6.9,58.36,58.36,0,0,0-11.87,7.45,96.44,96.44,0,0,0-10.18,9.62c-3.2,3.41-6.21,7-9.19,10.62s-5.9,7.3-9.12,10.8a44.06,44.06,0,0,1-4.28,4.13q-.79,3.79-1.52,7.62c-1.64,9-3,18.08-3.91,27.2-2.95,30.32-1.79,70.35,27.9,87.77a54.83,54.83,0,0,0,7,3.46c.75.3,2.36.54,2.87,1.3.84,1.26,0,2-1.08,2.7-2.47,1.51-14.62,3.19-13.7,6.89,1,4.22,11.93,4.52,15,4.78a152.3,152.3,0,0,0,17.49.29c1,0,2.06,0,3.12-.05.08-1.46.07-3,.08-4.48,0-1.92,0-3.87.06-5.79.06-3.86.16-7.7.17-11.53a149.87,149.87,0,0,0-1.41-22.92A56.43,56.43,0,0,0,244.61,361a30.88,30.88,0,0,0-2.5-5.14,18.41,18.41,0,0,0-3.66-4.4h0a18.64,18.64,0,0,1,4,4.21,30.09,30.09,0,0,1,2.8,5.1,56.9,56.9,0,0,1,3.33,11.14A136.93,136.93,0,0,1,250.68,395c.09,3.86.09,7.72.07,11.57,0,1.92,0,3.83,0,5.76s.06,3.86-.09,5.88a14,14,0,0,1-.55,3.08l-.13.38a3.83,3.83,0,0,1-.17.43,4.54,4.54,0,0,1-.45.81,6.24,6.24,0,0,1-1.2,1.3,11.64,11.64,0,0,1-2.73,1.64c-.91.43-1.82.79-2.68,1.16-1.7.71-3.39,1.6-3.76,2.76a2.44,2.44,0,0,0-.12,1,3.76,3.76,0,0,0,.07.55l.15.51a5,5,0,0,0,1.32,1.88,8.54,8.54,0,0,0,.79.65,5.52,5.52,0,0,1,.23-3.51,6.63,6.63,0,0,1,2.74-3.23,8.76,8.76,0,0,1,1.92-.77,14.88,14.88,0,0,1,1.85-.43,15.52,15.52,0,0,1,3.82-.25,16,16,0,0,1-3.21,2.08c-.54.29-1.16.53-1.65.78a15.73,15.73,0,0,0-1.47.69,8.5,8.5,0,0,0-2.32,2.06,11.15,11.15,0,0,0-1.72,3.08h0l.24-.2c.29.18.57.37.87.53a17,17,0,0,0,2.46,1.1,21.89,21.89,0,0,0,2.63.75,21.56,21.56,0,0,0,2.71.41c.59.06,1.18.09,1.76.12a2.53,2.53,0,0,1-.63-1.2,3.43,3.43,0,0,1,.21-2.07,7.25,7.25,0,0,1,2.45-2.89,10.86,10.86,0,0,1,3.17-1.64,7.93,7.93,0,0,1,3.56-.36c-.93.8-1.83,1.44-2.71,2.08l-2.56,1.88a15.8,15.8,0,0,0-2.24,1.87,3.35,3.35,0,0,0-.69,1.14,2.58,2.58,0,0,0-.07,1.55h0l.3-.31a47.63,47.63,0,0,0,8.69-.41A36.94,36.94,0,0,0,267,436a14.83,14.83,0,0,0,4.73-2.53,20.38,20.38,0,0,0,3.84-3.92,25.65,25.65,0,0,0,2.87-4.75,11.41,11.41,0,0,0,.53-1.27,12.37,12.37,0,0,0,.43-1.3c.27-.89.49-1.82.7-2.74.43-1.86.81-3.75,1.22-5.63.79-3.77,1.58-7.55,2.53-11.3a112.5,112.5,0,0,1,3.41-11.08,49.09,49.09,0,0,1,5.09-10.39L291,383.67c-.4.87-.78,1.75-1.17,2.63-.72,1.78-1.39,3.57-2,5.41a113,113,0,0,0-2.85,11.14c-.73,3.43-1.35,6.87-1.95,10.33a314.76,314.76,0,0,0,33,5.43c21.95,2.37,44.62,2.41,66.16-2.89q3.81-.95,7.55-2.11c-.61-3.64-.82-7.26-1.26-10.83-.22-1.8-.53-3.62-.82-5.44s-.58-3.63-1-5.41a31.91,31.91,0,0,0-1.75-5.18c-.66-1.72-1.27-3.46-1.87-5.2h0c.72,1.7,1.45,3.39,2.22,5.06a30.78,30.78,0,0,1,2,5.16c.49,1.8.86,3.6,1.25,5.4s.78,3.6,1.09,5.44c.61,3.66.93,7.33,1.68,10.87a30.8,30.8,0,0,0,1.5,5.15,27.22,27.22,0,0,0,2.44,4.74,20.4,20.4,0,0,0,7.56,7.1c.39.18.77.38,1.17.52l.6.24.61.18c.82.25,1.72.44,2.59.62a45.54,45.54,0,0,0,5.33.74,54.21,54.21,0,0,0,6,.1l.3.31a2.61,2.61,0,0,0-.07-1.56,3.45,3.45,0,0,0-.69-1.14,15.8,15.8,0,0,0-2.24-1.87l-2.56-1.88c-.88-.64-1.78-1.27-2.71-2.07a8.07,8.07,0,0,1,3.56.35,10.89,10.89,0,0,1,3.17,1.65,7.15,7.15,0,0,1,2.45,2.88,3.44,3.44,0,0,1,.21,2.07,2.53,2.53,0,0,1-.64,1.21,36.06,36.06,0,0,0,3.93-.42,20.46,20.46,0,0,0,4.93-1.6,13,13,0,0,0,1.59-.89l.23.2a11.21,11.21,0,0,0-1.72-3.09,8.5,8.5,0,0,0-2.32-2.06,15.73,15.73,0,0,0-1.47-.69c-.49-.25-1.11-.49-1.65-.78a16,16,0,0,1-3.21-2.08,16,16,0,0,1,3.82.26,12,12,0,0,1,1.85.43,8.24,8.24,0,0,1,1.92.76,6.67,6.67,0,0,1,2.74,3.23,5.51,5.51,0,0,1,.22,3.53,6.62,6.62,0,0,0,1.73-1.78,4,4,0,0,0,.62-2,2.58,2.58,0,0,0-.13-.94,2.16,2.16,0,0,0-.46-.8c-.87-1-2.58-1.72-4.25-2.37a20.92,20.92,0,0,1-5.25-2.55,7.28,7.28,0,0,1-1.2-1.16,8.61,8.61,0,0,1-.49-.77,4,4,0,0,1-.33-.86,7.6,7.6,0,0,1-.27-1.53c-.06-.51-.09-1-.11-1.46a111.25,111.25,0,0,1,.43-11.16c.28-3.69.66-7.36,1.1-11,.87-7.33,2-14.63,3.41-21.87.74-3.62,1.55-7.22,2.55-10.78.49-1.77,1-3.54,1.71-5.27a22.85,22.85,0,0,1,1.14-2.52,9,9,0,0,1,.73-1.19,3.94,3.94,0,0,1,.52-.64l.39-.39a5.8,5.8,0,0,0-.84,1.08,8.29,8.29,0,0,0-.63,1.22,22.64,22.64,0,0,0-1,2.57c-.56,1.74-1,3.51-1.43,5.3-.81,3.58-1.44,7.2-2,10.83-1.13,7.25-2,14.55-2.69,21.86-.34,3.65-.63,7.31-.86,11-.18,3.07-.33,6.17-.28,9.2,5.93.9,12.2.59,18.14.39a139.29,139.29,0,0,0,19-1.57c2.83-.49,3.2-.31,1.75-3-1.37-2.56-4.41-3.86-7-4.74-2.38-.8-4.85-1.21-7.28-1.83-1-.24-2.67-.48-3.21-1.5-.69-1.32.33-2,1.29-2.74,4.15-3,8.74-5.13,12.74-8.42a70.11,70.11,0,0,0,17.73-22c8.66-16.76,10.47-36.26,8.63-54.82a234.39,234.39,0,0,0-7.58-39.12c-.49-.5-1-1-1.44-1.52-3.22-3.5-6.14-7.18-9.13-10.8s-6-7.21-9.18-10.62a96.44,96.44,0,0,0-10.18-9.62,58.36,58.36,0,0,0-11.87-7.45,53.66,53.66,0,0,1,12.29,6.9,90.72,90.72,0,0,1,10.67,9.29c3.32,3.36,6.44,6.89,9.52,10.44s6.1,7.15,9.32,10.49a43.78,43.78,0,0,0,5.09,4.59c1.79,1.31,3.81,2.37,5.76,2.29s3.7-1.35,5.09-3a12.24,12.24,0,0,0,2.81-5.7,13.75,13.75,0,0,0,.15-3.21,18.22,18.22,0,0,0-.58-3.24,27.77,27.77,0,0,0-2.61-6.21,52.57,52.57,0,0,0-8.27-10.9l-2.36-2.41,3.36.35a13.5,13.5,0,0,0,3,0,12.87,12.87,0,0,0,3-.71,8.93,8.93,0,0,0,5.18-5,8.41,8.41,0,0,0,.49-1.44,9.34,9.34,0,0,0,.4-2.95,9.6,9.6,0,0,0-2.2-5.49A19.79,19.79,0,0,0,490.79,222Z"/><polygon fill="#725e47"  points="238.45 351.44 238.45 351.44 238.45 351.44 238.45 351.44"/><polygon fill="#725e47"  points="238.45 351.44 238.45 351.44 238.45 351.44 238.45 351.44"/><path d="M497.23,224.9a22,22,0,0,0-5.29-4.6,40.52,40.52,0,0,0-6.08-3.19,69.58,69.58,0,0,0-11.22-3.63,8.3,8.3,0,0,0,.69-.64,6.68,6.68,0,0,0,1.54-2.45,5.24,5.24,0,0,0,.09-3,6.53,6.53,0,0,0-.55-1.33c-.11-.21-.22-.42-.34-.63l-.43-.57a7.56,7.56,0,0,0-1-1l-.6-.39a2.5,2.5,0,0,0-.62-.34l-.65-.29-.67-.2a10.21,10.21,0,0,0-1.36-.26,16.83,16.83,0,0,0-5.31.42,45.43,45.43,0,0,0-9.62,3.54c-.94-2.11-1.88-4.23-2.83-6.33-5.38-11.89-11.09-23.62-17-35.27-5-9.84-9.93-19.56-16.41-28.51-11.52-15.93-26.34-29.79-43.66-39.21a99.24,99.24,0,0,0-25.59-9.74c.15-10.38-6.24-28.95-10-39.75-.46-1.35-.88-2.56-1.23-3.6A2.28,2.28,0,0,0,337,42.38h0a2.27,2.27,0,0,0-2.17,1.53l-.29.83c-3.34,9.44-10.3,29.17-10.49,40.92-.61.06-1.23.12-1.84.2-21.44,2.82-39.91,14.9-54.47,30.44-16.54,17.64-29.32,39.12-40.36,60.51q-6.93,13.44-12.77,27.42a35,35,0,0,0-4.64-1.41,16.87,16.87,0,0,0-5.32-.42,10.37,10.37,0,0,0-1.35.26l-.67.2-.65.29a2.5,2.5,0,0,0-.62.34l-.6.39a7.56,7.56,0,0,0-1,1l-.43.57c-.12.21-.23.42-.34.63a6.53,6.53,0,0,0-.55,1.33,5.15,5.15,0,0,0,.09,3,6.68,6.68,0,0,0,1.54,2.45c.22.23.45.44.68.64a69.79,69.79,0,0,0-11.21,3.63,40.52,40.52,0,0,0-6.08,3.19,21.79,21.79,0,0,0-5.29,4.6,11,11,0,0,0-2.33,10.41,10.62,10.62,0,0,0,.57,1.73,9.58,9.58,0,0,0,.84,1.66,11.27,11.27,0,0,0,5.65,4.68,15.06,15.06,0,0,0,3.53.87l.7.07q-1.45,1.62-2.79,3.35a48,48,0,0,0-4,6,30.45,30.45,0,0,0-2.79,6.76,20.64,20.64,0,0,0-.64,3.69,15.65,15.65,0,0,0,.2,3.8,14.19,14.19,0,0,0,3.37,6.77,12.53,12.53,0,0,0,2.9,2.55,7.5,7.5,0,0,0,3.88,1.19,9,9,0,0,0,3.88-.86,13.85,13.85,0,0,0,1.27-.66c-.33,1.63-.64,3.26-.95,4.89-3.17,17.45-5.49,35.24-5,53a94.62,94.62,0,0,1-16-.69l-3.47-.49-.28,0c-.63-.78-1.27-1.56-1.89-2.35-3-3.89-6-7.87-8.62-12a120,120,0,0,1-7.26-12.83,89.37,89.37,0,0,1-5.35-13.68l-.22-.73-.75.19a41.65,41.65,0,0,0-8.41,3.17,49.49,49.49,0,0,0-7.61,4.76,56.57,56.57,0,0,0-6.66,6,50.11,50.11,0,0,0-5.64,7l-.47.71.73.52c1.16.83,2.33,1.73,3.47,2.65s2.26,1.86,3.36,2.83,2.41,2.19,3.57,3.32l-.56-.22c-1.39-.58-2.77-1.22-4.13-1.89-2.73-1.35-5.43-2.8-8.07-4.32l-.57-.33-.48.41a41.77,41.77,0,0,0-10.5,14.35,32.6,32.6,0,0,0-2.44,8.61,30.3,30.3,0,0,0,.09,9l0,.35.3.2a58.6,58.6,0,0,0,18,7.64,101.73,101.73,0,0,0,19.3,2.78,146.09,146.09,0,0,0,18.6-.28c2.7,2.18,5.48,4.26,8.37,6.18,2,1.36,4,2.59,6,3.85s4.1,2.41,6.22,3.49,4.24,2.17,6.38,3.2,4.33,1.95,6.54,2.82c3.63,1.47,7.33,2.8,11.06,4a52.68,52.68,0,0,0,20.45,18.24c.92.46,1.85.89,2.79,1.3a8.08,8.08,0,0,0,1.25.53l.49.2c-.49.16-1,.36-1.45.52-1.7.59-3.42,1.12-5.11,1.73-3.31,1.18-9.12,3.11-6.74,7.74,2.05,4,8.63,4.74,12.48,5.27a123.86,123.86,0,0,0,19.35.87c1.42,0,3.5.11,5.55,0a11.11,11.11,0,0,1-.29,1.17,3.58,3.58,0,0,1-.45,1,4.41,4.41,0,0,1-.76.81,21.09,21.09,0,0,1-4.85,2.41,17.24,17.24,0,0,0-2.77,1.41,5.53,5.53,0,0,0-2.32,2.74,6.26,6.26,0,0,0,2,6.48,12.12,12.12,0,0,0,2.61,1.84,18.91,18.91,0,0,0,2.81,1.24,23.18,23.18,0,0,0,2.93.82,24.52,24.52,0,0,0,3,.44,49.13,49.13,0,0,0,11.81-.33,38.87,38.87,0,0,0,5.81-1.31,17.28,17.28,0,0,0,5.37-3,25.06,25.06,0,0,0,7.12-9.57,14.75,14.75,0,0,0,.55-1.41,14,14,0,0,0,.44-1.45c.26-1,.46-1.91.66-2.87.29-1.43.55-2.86.81-4.29l.3.07c22.74,4.89,46.18,7.77,69.47,6.66a158.82,158.82,0,0,0,31.66-4.54c2.08-.53,4.14-1.13,6.19-1.78a28.59,28.59,0,0,0,3.45,8.39,21.75,21.75,0,0,0,8.19,8c.44.21.87.45,1.34.62l.68.28.71.22c.94.3,1.84.5,2.76.72a48.37,48.37,0,0,0,5.59.85,45.35,45.35,0,0,0,11.33-.32,22.76,22.76,0,0,0,5.54-1.76,14.59,14.59,0,0,0,2.58-1.55,8.47,8.47,0,0,0,2.18-2.31,6.66,6.66,0,0,0,1-3.22,4.9,4.9,0,0,0-1.17-3.36,8,8,0,0,0-2.59-1.91,28.06,28.06,0,0,0-2.65-1.13,18.89,18.89,0,0,1-4.67-2.19,4.72,4.72,0,0,1-.79-.75,2.17,2.17,0,0,1-.42-.81,7,7,0,0,1-.21-1.18c0-.17,0-.35,0-.53l1.21.13a142.74,142.74,0,0,0,21.19.05c5.56-.29,11.6-.36,17-1.79,4.09-1.08,2.58-5.48.27-8-3.66-4-9.54-4.72-14.51-6a4.42,4.42,0,0,1-.48-.15c.34-.21.64-.43.79-.51q2.13-1.2,4.2-2.52a75.15,75.15,0,0,0,11.24-8.8c13.4-12.74,20.75-30.16,23-48.32,2.66-21.2-1.42-42.6-6.74-63.09l.74.59a16.65,16.65,0,0,0,3.21,2,9,9,0,0,0,3.88.86,7.5,7.5,0,0,0,3.88-1.19,12.53,12.53,0,0,0,2.9-2.55,14.19,14.19,0,0,0,3.37-6.77,16.72,16.72,0,0,0,.2-3.8,20.64,20.64,0,0,0-.64-3.69,30,30,0,0,0-2.8-6.76,46.83,46.83,0,0,0-4-6q-1.33-1.72-2.79-3.35l.7-.07a15.19,15.19,0,0,0,3.53-.87,11.27,11.27,0,0,0,5.65-4.68A9.53,9.53,0,0,0,499,237a9.77,9.77,0,0,0,.58-1.73,11,11,0,0,0-2.33-10.41,336,45.28l.29-.82a.62.62,0,0,1,.64-.45.64.64,0,0,1,.64.46c.35,1.05.77,2.26,1.24,3.61,3.42,9.91,9.93,28.8,9.91,38.88a81.16,81.16,0,0,0-23.13-1.48C325.88,74,333,53.84,336,45.28,136,358.7a100,100,0,0,1-19-3,58,58,0,0,1-17.14-7.5,28.69,28.69,0,0,1,0-8.12,31,31,0,0,1,2.37-8.15,38.23,38.23,0,0,1,4.31-7.36,40.47,40.47,0,0,1,5.3-5.85c2.49,1.44,5,2.81,7.57,4.1,1.38.69,2.79,1.35,4.23,2a23.2,23.2,0,0,0,4.58,1.5l2.95.56-2.09-2.17q-3.11-3.24-6.48-6.17c-1.12-1-2.27-1.94-3.44-2.87-.93-.74-1.88-1.46-2.85-2.17a50.44,50.44,0,0,1,4.9-6.07,54.65,54.65,0,0,1,6.42-5.84,47.73,47.73,0,0,1,7.31-4.64A41.58,41.58,0,0,1,142.3,294,91,91,0,0,0,147.7,307a120.33,120.33,0,0,0,7.54,12.85,144.07,144.07,0,0,0,8.89,11.92c.45.54.91,1.07,1.36,1.6l-.24,0-1.7-.37-3.42-.74-3.45-.85a137.43,137.43,0,0,0-14-2.82,36,36,0,0,0-3.63-.32,15.6,15.6,0,0,0-3.81.27,5.91,5.91,0,0,0-2,.82,3.53,3.53,0,0,0-1.5,2.08,4.64,4.64,0,0,0,0,2.32,9,9,0,0,0,.68,1.89,31.86,31.86,0,0,0,4.09,6.12c1.52,1.86,3.11,3.63,4.74,5.37a143,143,0,0,0,12.6,11.76A155.94,155.94,0,0,1,136,358.7,52.78,18.56A134.93,134.93,0,0,1,143,345.44c-1.61-1.7-3.18-3.43-4.65-5.22a29.91,29.91,0,0,1-3.8-5.6A4.4,4.4,0,0,1,134,332a1.18,1.18,0,0,1,.53-.72,3.65,3.65,0,0,1,1.24-.48,13.45,13.45,0,0,1,3.22-.22c1.13,0,2.27.12,3.42.26a138,138,0,0,1,13.78,2.61l3.44.81,3.51.7,1.76.33.88.17.89.11,3.55.42a97,97,0,0,0,16.25.32c.56,15.3,3.29,31.21,11.28,44.47Q193.22,379.18,188.8,377.26,497.32,234.7a8.41,8.41,0,0,1-.49,1.44,8.93,8.93,0,0,1-5.18,5,12.87,12.87,0,0,1-3,.71,13.5,13.5,0,0,1-3,0l-3.36-.35,2.36,2.41a52.57,52.57,0,0,1,8.27,10.9,27.77,27.77,0,0,1,2.61,6.21,18.22,18.22,0,0,1,.58,3.24,13.75,13.75,0,0,1-.15,3.21,12.24,12.24,0,0,1-2.81,5.7c-1.39,1.66-3.14,3-5.09,3s-4-1-5.76-2.29a43.78,43.78,0,0,1-5.09-4.59c-3.22-3.34-6.24-6.94-9.32-10.49s-6.2-7.08-9.52-10.44a90.72,90.72,0,0,0-10.67-9.29,53.66,53.66,0,0,0-12.29-6.9,58.36,58.36,0,0,1,11.87,7.45,96.44,96.44,0,0,1,10.18,9.62c3.2,3.41,6.21,7,9.18,10.62s5.91,7.3,9.13,10.8c.47.51.95,1,1.44,1.52a234.39,234.39,0,0,1,7.58,39.12c1.84,18.56,0,38.06-8.63,54.82a70.11,70.11,0,0,1-17.73,22c-4,3.29-8.59,5.43-12.74,8.42-1,.7-2,1.42-1.29,2.74.54,1,2.24,1.26,3.21,1.5,2.43.62,4.9,1,7.28,1.83,2.61.88,5.65,2.18,7,4.74,1.45,2.72,1.08,2.54-1.75,3a139.29,139.29,0,0,1-19,1.57c-5.94.2-12.21.51-18.14-.39-.05-3,.1-6.13.28-9.2.23-3.65.52-7.31.86-11,.71-7.31,1.56-14.61,2.69-21.86.56-3.63,1.19-7.25,2-10.83.4-1.79.87-3.56,1.43-5.3a22.64,22.64,0,0,1,1-2.57,8.29,8.29,0,0,1,.63-1.22,5.8,5.8,0,0,1,.84-1.08l-.39.39a3.94,3.94,0,0,0-.52.64,9,9,0,0,0-.73,1.19,22.85,22.85,0,0,0-1.14,2.52c-.67,1.73-1.22,3.5-1.71,5.27-1,3.56-1.81,7.16-2.55,10.78-1.43,7.24-2.54,14.54-3.41,21.87-.44,3.66-.82,7.33-1.1,11a111.25,111.25,0,0,0-.43,11.16c0,.47.05.95.11,1.46a7.6,7.6,0,0,0,.27,1.53,4,4,0,0,0,.33.86,8.61,8.61,0,0,0,.49.77,7.28,7.28,0,0,0,1.2,1.16,20.92,20.92,0,0,0,5.25,2.55c1.67.65,3.38,1.34,4.25,2.37a2.16,2.16,0,0,1,.46.8,2.58,2.58,0,0,1,.13.94,4,4,0,0,1-.62,2,6.62,6.62,0,0,1-1.73,1.78,5.51,5.51,0,0,0-.22-3.53,6.67,6.67,0,0,0-2.74-3.23,8.24,8.24,0,0,0-1.92-.76,12,12,0,0,0-1.85-.43,16,16,0,0,0-3.82-.26,16,16,0,0,0,3.21,2.08c.54.29,1.16.53,1.65.78a15.73,15.73,0,0,1,1.47.69,8.5,8.5,0,0,1,2.32,2.06,11.21,11.21,0,0,1,1.72,3.09l-.23-.2a13,13,0,0,1-1.59.89,20.46,20.46,0,0,1-4.93,1.6,36.06,36.06,0,0,1-3.93.42,2.53,2.53,0,0,0,.64-1.21,3.44,3.44,0,0,0-.21-2.07,7.15,7.15,0,0,0-2.45-2.88,10.89,10.89,0,0,0-3.17-1.65,8.07,8.07,0,0,0-3.56-.35c.93.8,1.83,1.43,2.71,2.07l2.56,1.88a15.8,15.8,0,0,1,2.24,1.87,3.45,3.45,0,0,1,.69,1.14,2.61,2.61,0,0,1,.07,1.56l-.3-.31a54.21,54.21,0,0,1-6-.1,45.54,45.54,0,0,1-5.33-.74c-.87-.18-1.77-.37-2.59-.62l-.61-.18-.6-.24c-.4-.14-.78-.34-1.17-.52a20.4,20.4,0,0,1-7.56-7.1,27.22,27.22,0,0,1-2.44-4.74,30.8,30.8,0,0,1-1.5-5.15c-.75-3.54-1.07-7.21-1.68-10.87-.31-1.84-.71-3.64-1.09-5.44s-.76-3.6-1.25-5.4a30.78,30.78,0,0,0-2-5.16c-.77-1.67-1.5-3.36-2.22-5.06h0c.6,1.74,1.21,3.48,1.87,5.2a31.91,31.91,0,0,1,1.75,5.18c.39,1.78.67,3.6,1,5.41s.6,3.64.82,5.44c.44,3.57.65,7.19,1.26,10.83q-3.74,1.17-7.55,2.11c-21.54,5.3-44.21,5.26-66.16,2.89a314.76,314.76,0,0,1-33-5.43c.6-3.46,1.22-6.9,1.95-10.33a113,113,0,0,1,2.85-11.14c.57-1.84,1.24-3.63,2-5.41.39-.88.77-1.76,1.17-2.63l1.35-2.56a49.09,49.09,0,0,0-5.09,10.39,112.5,112.5,0,0,0-3.41,11.08c-.95,3.75-1.74,7.53-2.53,11.3-.41,1.88-.79,3.77-1.22,5.63-.21.92-.43,1.85-.7,2.74a12.37,12.37,0,0,1-.43,1.3,11.41,11.41,0,0,1-.53,1.27,25.65,25.65,0,0,1-2.87,4.75,20.38,20.38,0,0,1-3.84,3.92A14.83,14.83,0,0,1,267,436a36.94,36.94,0,0,1-5.46,1.14,47.63,47.63,0,0,1-8.69.41l-.3.31h0a2.58,2.58,0,0,1,.07-1.55,3.35,3.35,0,0,1,.69-1.14,15.8,15.8,0,0,1,2.24-1.87l2.56-1.88c.88-.64,1.78-1.28,2.71-2.08a7.93,7.93,0,0,0-3.56.36,10.86,10.86,0,0,0-3.17,1.64,7.25,7.25,0,0,0-2.45,2.89,3.43,3.43,0,0,0-.21,2.07,2.53,2.53,0,0,0,.63,1.2c-.58,0-1.17-.06-1.76-.12a21.56,21.56,0,0,1-2.71-.41,21.89,21.89,0,0,1-2.63-.75,17,17,0,0,1-2.46-1.1c-.3-.16-.58-.35-.87-.53l-.24.2h0a11.15,11.15,0,0,1,1.72-3.08,8.5,8.5,0,0,1,2.32-2.06,15.73,15.73,0,0,1,1.47-.69c.49-.25,1.11-.49,1.65-.78a16,16,0,0,0,3.21-2.08,15.52,15.52,0,0,0-3.82.25,14.88,14.88,0,0,0-1.85.43,8.76,8.76,0,0,0-1.92.77,6.63,6.63,0,0,0-2.74,3.23,5.52,5.52,0,0,0-.23,3.51,8.54,8.54,0,0,1-.79-.65,5,5,0,0,1-1.32-1.88l-.15-.51a3.76,3.76,0,0,1-.07-.55,2.44,2.44,0,0,1,.12-1c.37-1.16,2.06-2,3.76-2.76.86-.37,1.77-.73,2.68-1.16a11.64,11.64,0,0,0,2.73-1.64,6.24,6.24,0,0,0,1.2-1.3,4.54,4.54,0,0,0,.45-.81,3.83,3.83,0,0,0,.17-.43l.13-.38a14,14,0,0,0,.55-3.08c.15-2,.1-3.95.09-5.88s0-3.84,0-5.76c0-3.85,0-7.71-.07-11.57a136.93,136.93,0,0,0-2.14-23.11,56.9,56.9,0,0,0-3.33-11.14,30.09,30.09,0,0,0-2.8-5.1,18.64,18.64,0,0,0-4-4.21h0a18.41,18.41,0,0,1,3.66,4.4,30.88,30.88,0,0,1,2.5,5.14,56.43,56.43,0,0,1,2.76,11.11A149.87,149.87,0,0,1,248.78,395c0,3.83-.11,7.67-.17,11.53,0,1.92-.05,3.87-.06,5.79,0,1.51,0,3-.08,4.48-1.06,0-2.14,0-3.12.05a152.3,152.3,0,0,1-17.49-.29c-3.09-.26-14-.56-15-4.78-.92-3.7,11.23-5.38,13.7-6.89,1.07-.66,1.92-1.44,1.08-2.7-.51-.76-2.12-1-2.87-1.3a54.83,54.83,0,0,1-7-3.46C188.06,380,186.9,340,189.85,309.68c.89-9.12,2.27-18.19,3.91-27.2q.72-3.83,1.52-7.62a44.06,44.06,0,0,0,4.28-4.13c3.22-3.5,6.14-7.18,9.12-10.8s6-7.21,9.19-10.62a96.44,96.44,0,0,1,10.18-9.62,58.36,58.36,0,0,1,11.87-7.45,53.66,53.66,0,0,0-12.29,6.9A90.72,90.72,0,0,0,217,248.43c-3.32,3.36-6.44,6.89-9.52,10.44s-6.1,7.15-9.33,10.49A42.21,42.21,0,0,1,193,274c-1.78,1.31-3.81,2.37-5.76,2.29s-3.69-1.35-5.08-3a12.15,12.15,0,0,1-2.81-5.7,13.75,13.75,0,0,1-.15-3.21,18.22,18.22,0,0,1,.58-3.24,27.77,27.77,0,0,1,2.61-6.21,52.57,52.57,0,0,1,8.27-10.9l2.36-2.41-3.36.35a13.5,13.5,0,0,1-3,0,12.87,12.87,0,0,1-3-.71,8.93,8.93,0,0,1-5.18-5,8.41,8.41,0,0,1-.49-1.44,9.34,9.34,0,0,1-.4-2.95,9.6,9.6,0,0,1,2.2-5.49,19.79,19.79,0,0,1,4.73-4.22,42.86,42.86,0,0,1,5.72-3.15,69.11,69.11,0,0,1,12.51-4.26l2.08-.49-1.88-1a6.54,6.54,0,0,1-3.12-3.22,3.85,3.85,0,0,1-.13-2.13,5.32,5.32,0,0,1,.42-1.06l.26-.52.34-.47a6,6,0,0,1,4-2.15,15.72,15.72,0,0,1,5,.19,44.58,44.58,0,0,1,9.73,3.15,91.44,91.44,0,0,1,9.21,4.67,79.71,79.71,0,0,0-9-5.16c-.94-.45-1.89-.88-2.84-1.29a370.8,370.8,0,0,1,30.39-57.89c12.3-19.09,26.9-37.83,46.93-49.28A77.51,77.51,0,0,1,352,90.15c18.78,4.74,35.68,15.5,49.5,28.87,15.58,15.07,25.53,33.13,35.1,52.33,5.94,11.91,11.68,23.94,17.05,36.12a79.37,79.37,0,0,0-6.95,4.12,91.28,91.28,0,0,1,9.2-4.67,44.84,44.84,0,0,1,9.74-3.15,15.72,15.72,0,0,1,5-.19,6,6,0,0,1,4,2.15l.34.47.26.52a4.74,4.74,0,0,1,.41,1.06,3.76,3.76,0,0,1-.12,2.13,6.54,6.54,0,0,1-3.12,3.22l-1.88,1,2.08.49a68.75,68.75,0,0,1,12.5,4.26,42.37,42.37,0,0,1,5.73,3.15,19.79,19.79,0,0,1,4.73,4.22,9.6,9.6,0,0,1,2.2,5.49A9.34,9.34,0,0,1,497.32,234.7Z"/>            </clipPath>        </defs>        <g clip-path="url(#outline)">            <rect fill="#FCFBFA" width="640" height="480" />        </g>    </g>    <g id="pattern">        <g clip-path="url(#outline)">            <path fill="#DDDDDD"  d="M224.65,337.33s7.32-8.78,3.88-19.34C228.53,318,221.09,327.67,224.65,337.33Z"/><path fill="#DDDDDD"  d="M220.2,391.54s10-11.71,5.47-26C225.67,365.59,215.53,378.5,220.2,391.54Z"/><path fill="#DDDDDD"  d="M236.81,373.05s8.17-8.87,5.08-20.18C241.89,352.87,233.55,362.69,236.81,373.05Z"/><path fill="#DDDDDD"  d="M195.61,348.52s9.68-11.94,4.85-26.07C200.46,322.45,190.64,335.6,195.61,348.52Z"/><path fill="#DDDDDD"  d="M208.57,315.49s6.13-7.34,3.25-16.17C211.82,299.32,205.6,307.41,208.57,315.49Z"/><path fill="#DDDDDD"  d="M284.89,386.79s6.89-11,1.38-22.41C286.27,364.38,279.38,376.45,284.89,386.79Z"/><path fill="#DDDDDD"  d="M267.77,412s8.14-13,1.63-26.48C269.4,385.56,261.25,399.82,267.77,412Z"/><path fill="#DDDDDD"  d="M241.89,401.9s8.15-13,1.63-26.48C243.52,375.42,235.38,389.68,241.89,401.9Z"/><path fill="#DDDDDD"  d="M202.9,372.13s8.15-13,1.63-26.47C204.53,345.66,196.39,359.91,202.9,372.13Z"/><path fill="#DDDDDD"  d="M440.11,340.47s5.78-14.24-2.94-26.36C437.17,314.11,431.59,329.55,440.11,340.47Z"/><path fill="#DDDDDD"  d="M445.89,397.39s8.15-13,1.63-26.48C447.52,370.91,439.38,385.17,445.89,397.39Z"/><path fill="#DDDDDD"  d="M434.77,386.82s4.94-14.62-5-26.08C429.78,360.74,425.15,376.54,434.77,386.82Z"/><path fill="#DDDDDD"  d="M410.38,410.94s5.43-14.38-3.6-26.28C406.78,384.66,401.59,400.24,410.38,410.94Z"/><path fill="#DDDDDD"  d="M193.93,316.93s6.93-9.38,2.79-19.94C196.72,297,189.72,307.3,193.93,316.93Z"/><path fill="#DDDDDD"  d="M420.63,393.09s5.33-14.41-3.77-26.25C416.86,366.84,411.77,382.45,420.63,393.09Z"/><path fill="#DDDDDD"  d="M466.6,381.6s4.16-14.8-5.86-25.87C460.74,355.73,456.92,371.69,466.6,381.6Z"/><path fill="#DDDDDD"  d="M471.16,318s4.68-14.64-5-26.06C466.21,291.93,461.83,307.76,471.16,318Z"/><path fill="#DDDDDD"  d="M449.38,366.38s3.45-11.56-4.29-20.36C445.09,346,441.91,358.5,449.38,366.38Z"/><path fill="#DDDDDD"  d="M453,332.2s2.82-8.93-3.08-15.87C449.91,316.33,447.28,326,453,332.2Z"/><path fill="#DDDDDD"  d="M473.56,333s-2.66,9.64,3,15.87C476.59,348.9,479.43,340,473.56,333Z"/><path fill="#DDDDDD"  d="M465.72,342.54s6-9.53,1.19-19.36C466.91,323.18,461,333.61,465.72,342.54Z"/>            <g opacity="0" ><path fill="#FFFFEE"  d="M283.78,410.52c2.4-23.39,18.16-47,42.33-51.29,34.47-6.1,63.49,17.63,66,52.43.07,1,.26-.61-1.27.13a31.2,31.2,0,0,1-7.08,2.1,188.59,188.59,0,0,1-48.13,4c-17-1-34.65-2.65-50.3-6.84"/></g>        </g>    </g>    <g id="mask">        <path d="M72,439c.15,0,.14-1,0-1s-.14,1,0,1Z"/><g opacity="0.1" ><path d="M486.73,334.73c.24,1.7-3.5,6.77-4.43,8.5-1.82,3.4-3.68,6.77-5.67,10.08a107.91,107.91,0,0,1-13.23,18.11,63.28,63.28,0,0,1-11.06,9.47,61.09,61.09,0,0,1-6.25,3.66,32,32,0,0,1-5.53,2.51c-3.47,1-5.72-1.83-7-4.65-4.77-10.47-4.28-21.77-1.73-32.76l-2.28,5c-3.06,11.12-4.07,22.09-5.51,33.54-.1.78-.69,1.39-.44,2.07-.35.21,0,1.48-.24,1.77-2.06,2.52-.95,10.74-1.07,13.94a.63.63,0,0,0,.1.45c.15.19,2.2-.5,2.44-.56a107.07,107.07,0,0,0,24.46-9.44A75.87,75.87,0,0,0,473.09,375c3.19-4.31,4.75-8.09,6.55-13.14C482.74,353.16,488,343.89,486.73,334.73Z"/></g><g opacity="0.1" ><path d="M249.93,400.22a5.25,5.25,0,0,1,.33-1.8c-17.26-5.7-30.25-18.64-37.74-35.07-4-8.82-6.13-18.92-6.18-30.42-.12-25.79,2.8-56.62,9.35-81.94-2.91,3.79-5.95,7.42-9.2,11s-6.64,7.69-11,10.33c-2.23,12.41-5.21,24.62-6.61,37.1-3.37,30.08-1.52,58.55,15.6,78.36,10,11.56,23.45,18.34,41.17,20.59,2.35.3,2.35.08,4.78.42C250.31,405.91,249.91,403.08,249.93,400.22Z"/></g><g opacity="0.1" ><path d="M245.18,148.87a631.52,631.52,0,0,0-29.66,56.38,44.72,44.72,0,0,1,12.88,6.16,6.72,6.72,0,0,1,.93.83c10.87-24.77,19.6-48.65,34.72-71.58,10.78-16.34,22.25-34,37.23-46.59C275.75,106.59,260.33,123.38,245.18,148.87Z"/></g><g opacity="0.1" ><path d="M390.11,411.46c-.7-9.29-.85-8.76-.85-8.76-2.14,1.45-7.5,3.68-12.8,4.91a157,157,0,0,1-19.42,3,226.23,226.23,0,0,1-41.23.28c-7.18-.58-14.36-1.21-21.45-2.44-1.84-.32-3.88-.87-5.15-2.3a10.92,10.92,0,0,1-2.33-5.54,18.82,18.82,0,0,1,.54-8.44c-2.74,7.49-4.3,15.42-5.74,22.84,1.35.3,5.69.6,7,.91,10.44,2.65,32.83,5.21,48,5.33,15.66.13,34.58.44,44.87-3.37,2.86-1.06,8-1.65,9.33-3.08C392.09,413.49,390.24,413.07,390.11,411.46Z"/></g>        <path d="M72,439c.15,0,.14-1,0-1s-.14,1,0,1Z"/><g opacity="0.1" ><path fill="#fff"  d="M410.36,127.82c-16.21-18.83-29.19-25-29.41-25.17,6.47,5.66,12.75,11.63,17.93,18.53,5.72,7.6,10.13,16.29,15,24.43,12.74,21.27,21.42,43.85,32.11,66.25a6,6,0,0,1,.63-.27,3.57,3.57,0,0,1,1-.61c.48-.17.49-.37,1-.55a18.44,18.44,0,0,1,1.86-1.16,11.92,11.92,0,0,1,4.14-2.06,16.83,16.83,0,0,0-.74-1.74C441,181.13,429.65,150.24,410.36,127.82Z"/></g><g opacity="0.1" ><path fill="#fff"  d="M481.79,290c-1.22-6.63-2.69-13.2-4.34-19.72a4.54,4.54,0,0,1-3.72-3.26,5.42,5.42,0,0,1-2.05-1.85c-1.95-3-3.33-6.21-5.94-7.87a5.28,5.28,0,0,1-2.25-3c-.65-.38-1.28-.76-1.88-1.19-.27-.19-.53-.39-.78-.59q4.65,14.6,8,29.58c2.75,12.34,4.9,24.81,6.59,37.33,1.4,10.34,4.07,22.69-2.47,31.88,4.28-6,9.86-10.61,11.34-14.65C489.55,322.28,484.47,304.48,481.79,290Z"/></g>    </g>    <g id="outline">        <path fill="none"  d="M141.25,347.12c-1.63-1.74-3.22-3.51-4.74-5.37a31.86,31.86,0,0,1-4.09-6.12,9,9,0,0,1-.68-1.89,4.64,4.64,0,0,1,0-2.32,3.53,3.53,0,0,1,1.5-2.08,5.91,5.91,0,0,1,2-.82,15.6,15.6,0,0,1,3.81-.27,36,36,0,0,1,3.63.32,137.43,137.43,0,0,1,14,2.82l3.45.85,3.42.74,1.7.37.24,0c-.45-.53-.91-1.06-1.36-1.6a144.07,144.07,0,0,1-8.89-11.92A120.33,120.33,0,0,1,147.7,307,91,91,0,0,1,142.3,294a41.58,41.58,0,0,0-7.36,2.91,47.73,47.73,0,0,0-7.31,4.64,54.65,54.65,0,0,0-6.42,5.84,50.44,50.44,0,0,0-4.9,6.07c1,.71,1.92,1.43,2.85,2.17,1.17.93,2.32,1.88,3.44,2.87q3.38,2.93,6.48,6.17l2.09,2.17-2.95-.56a23.2,23.2,0,0,1-4.58-1.5c-1.44-.61-2.85-1.27-4.23-2-2.57-1.29-5.08-2.66-7.57-4.1a40.47,40.47,0,0,0-5.3,5.85,38.23,38.23,0,0,0-4.31,7.36A31,31,0,0,0,99.86,340a28.69,28.69,0,0,0,0,8.12,58,58,0,0,0,17.14,7.5,100,100,0,0,0,19,3,155.94,155.94,0,0,0,17.83.18A143,143,0,0,1,141.25,347.12Z"/><path fill="none"  d="M170.22,336l-3.55-.42-.89-.11-.88-.17-1.76-.33-3.51-.7-3.44-.81a138,138,0,0,0-13.78-2.61c-1.15-.14-2.29-.23-3.42-.26a13.45,13.45,0,0,0-3.22.22,3.65,3.65,0,0,0-1.24.48,1.18,1.18,0,0,0-.53.72,4.4,4.4,0,0,0,.58,2.6,29.91,29.91,0,0,0,3.8,5.6c1.47,1.79,3,3.52,4.65,5.22a134.93,134.93,0,0,0,45.77,31.82q4.41,1.92,8.95,3.54c-8-13.26-10.72-29.17-11.28-44.47A97,97,0,0,1,170.22,336Z"/><path fill="none"  d="M348.73,87c0-10.08-6.49-29-9.91-38.88-.47-1.35-.89-2.56-1.24-3.61a.64.64,0,0,0-.64-.46.62.62,0,0,0-.64.45l-.29.82c-3,8.56-10.13,28.74-10.41,40.2A81.16,81.16,0,0,1,348.73,87Z"/><path fill="none"  d="M490.79,222a42.37,42.37,0,0,0-5.73-3.15,68.75,68.75,0,0,0-12.5-4.26l-2.08-.49,1.88-1a6.54,6.54,0,0,0,3.12-3.22,3.76,3.76,0,0,0,.12-2.13,4.74,4.74,0,0,0-.41-1.06l-.26-.52-.34-.47a6,6,0,0,0-4-2.15,15.72,15.72,0,0,0-5,.19,44.84,44.84,0,0,0-9.74,3.15,91.28,91.28,0,0,0-9.2,4.67,79.37,79.37,0,0,1,6.95-4.12c-5.37-12.18-11.11-24.21-17.05-36.12C427,152.15,417,134.09,401.46,119c-13.82-13.37-30.72-24.13-49.5-28.87A77.51,77.51,0,0,0,294.16,98c-20,11.45-34.63,30.19-46.93,49.28a370.8,370.8,0,0,0-30.39,57.89c.95.41,1.9.84,2.84,1.29a79.71,79.71,0,0,1,9,5.16,91.44,91.44,0,0,0-9.21-4.67,44.58,44.58,0,0,0-9.73-3.15,15.72,15.72,0,0,0-5-.19,6,6,0,0,0-4,2.15l-.34.47-.26.52a5.32,5.32,0,0,0-.42,1.06,3.85,3.85,0,0,0,.13,2.13,6.54,6.54,0,0,0,3.12,3.22l1.88,1-2.08.49a69.11,69.11,0,0,0-12.51,4.26,42.86,42.86,0,0,0-5.72,3.15,19.79,19.79,0,0,0-4.73,4.22,9.6,9.6,0,0,0-2.2,5.49,9.34,9.34,0,0,0,.4,2.95,8.41,8.41,0,0,0,.49,1.44,8.93,8.93,0,0,0,5.18,5,12.87,12.87,0,0,0,3,.71,13.5,13.5,0,0,0,3,0l3.36-.35L190.68,244a52.57,52.57,0,0,0-8.27,10.9,27.77,27.77,0,0,0-2.61,6.21,18.22,18.22,0,0,0-.58,3.24,13.75,13.75,0,0,0,.15,3.21,12.15,12.15,0,0,0,2.81,5.7c1.39,1.66,3.14,3,5.08,3s4-1,5.76-2.29a42.21,42.21,0,0,0,5.09-4.59c3.23-3.34,6.25-6.94,9.33-10.49s6.2-7.08,9.52-10.44a90.72,90.72,0,0,1,10.67-9.29,53.66,53.66,0,0,1,12.29-6.9,58.36,58.36,0,0,0-11.87,7.45,96.44,96.44,0,0,0-10.18,9.62c-3.2,3.41-6.21,7-9.19,10.62s-5.9,7.3-9.12,10.8a44.06,44.06,0,0,1-4.28,4.13q-.79,3.79-1.52,7.62c-1.64,9-3,18.08-3.91,27.2-2.95,30.32-1.79,70.35,27.9,87.77a54.83,54.83,0,0,0,7,3.46c.75.3,2.36.54,2.87,1.3.84,1.26,0,2-1.08,2.7-2.47,1.51-14.62,3.19-13.7,6.89,1,4.22,11.93,4.52,15,4.78a152.3,152.3,0,0,0,17.49.29c1,0,2.06,0,3.12-.05.08-1.46.07-3,.08-4.48,0-1.92,0-3.87.06-5.79.06-3.86.16-7.7.17-11.53a149.87,149.87,0,0,0-1.41-22.92A56.43,56.43,0,0,0,244.61,361a30.88,30.88,0,0,0-2.5-5.14,18.41,18.41,0,0,0-3.66-4.4h0a18.64,18.64,0,0,1,4,4.21,30.09,30.09,0,0,1,2.8,5.1,56.9,56.9,0,0,1,3.33,11.14A136.93,136.93,0,0,1,250.68,395c.09,3.86.09,7.72.07,11.57,0,1.92,0,3.83,0,5.76s.06,3.86-.09,5.88a14,14,0,0,1-.55,3.08l-.13.38a3.83,3.83,0,0,1-.17.43,4.54,4.54,0,0,1-.45.81,6.24,6.24,0,0,1-1.2,1.3,11.64,11.64,0,0,1-2.73,1.64c-.91.43-1.82.79-2.68,1.16-1.7.71-3.39,1.6-3.76,2.76a2.44,2.44,0,0,0-.12,1,3.76,3.76,0,0,0,.07.55l.15.51a5,5,0,0,0,1.32,1.88,8.54,8.54,0,0,0,.79.65,5.52,5.52,0,0,1,.23-3.51,6.63,6.63,0,0,1,2.74-3.23,8.76,8.76,0,0,1,1.92-.77,14.88,14.88,0,0,1,1.85-.43,15.52,15.52,0,0,1,3.82-.25,16,16,0,0,1-3.21,2.08c-.54.29-1.16.53-1.65.78a15.73,15.73,0,0,0-1.47.69,8.5,8.5,0,0,0-2.32,2.06,11.15,11.15,0,0,0-1.72,3.08h0l.24-.2c.29.18.57.37.87.53a17,17,0,0,0,2.46,1.1,21.89,21.89,0,0,0,2.63.75,21.56,21.56,0,0,0,2.71.41c.59.06,1.18.09,1.76.12a2.53,2.53,0,0,1-.63-1.2,3.43,3.43,0,0,1,.21-2.07,7.25,7.25,0,0,1,2.45-2.89,10.86,10.86,0,0,1,3.17-1.64,7.93,7.93,0,0,1,3.56-.36c-.93.8-1.83,1.44-2.71,2.08l-2.56,1.88a15.8,15.8,0,0,0-2.24,1.87,3.35,3.35,0,0,0-.69,1.14,2.58,2.58,0,0,0-.07,1.55h0l.3-.31a47.63,47.63,0,0,0,8.69-.41A36.94,36.94,0,0,0,267,436a14.83,14.83,0,0,0,4.73-2.53,20.38,20.38,0,0,0,3.84-3.92,25.65,25.65,0,0,0,2.87-4.75,11.41,11.41,0,0,0,.53-1.27,12.37,12.37,0,0,0,.43-1.3c.27-.89.49-1.82.7-2.74.43-1.86.81-3.75,1.22-5.63.79-3.77,1.58-7.55,2.53-11.3a112.5,112.5,0,0,1,3.41-11.08,49.09,49.09,0,0,1,5.09-10.39L291,383.67c-.4.87-.78,1.75-1.17,2.63-.72,1.78-1.39,3.57-2,5.41a113,113,0,0,0-2.85,11.14c-.73,3.43-1.35,6.87-1.95,10.33a314.76,314.76,0,0,0,33,5.43c21.95,2.37,44.62,2.41,66.16-2.89q3.81-.95,7.55-2.11c-.61-3.64-.82-7.26-1.26-10.83-.22-1.8-.53-3.62-.82-5.44s-.58-3.63-1-5.41a31.91,31.91,0,0,0-1.75-5.18c-.66-1.72-1.27-3.46-1.87-5.2h0c.72,1.7,1.45,3.39,2.22,5.06a30.78,30.78,0,0,1,2,5.16c.49,1.8.86,3.6,1.25,5.4s.78,3.6,1.09,5.44c.61,3.66.93,7.33,1.68,10.87a30.8,30.8,0,0,0,1.5,5.15,27.22,27.22,0,0,0,2.44,4.74,20.4,20.4,0,0,0,7.56,7.1c.39.18.77.38,1.17.52l.6.24.61.18c.82.25,1.72.44,2.59.62a45.54,45.54,0,0,0,5.33.74,54.21,54.21,0,0,0,6,.1l.3.31a2.61,2.61,0,0,0-.07-1.56,3.45,3.45,0,0,0-.69-1.14,15.8,15.8,0,0,0-2.24-1.87l-2.56-1.88c-.88-.64-1.78-1.27-2.71-2.07a8.07,8.07,0,0,1,3.56.35,10.89,10.89,0,0,1,3.17,1.65,7.15,7.15,0,0,1,2.45,2.88,3.44,3.44,0,0,1,.21,2.07,2.53,2.53,0,0,1-.64,1.21,36.06,36.06,0,0,0,3.93-.42,20.46,20.46,0,0,0,4.93-1.6,13,13,0,0,0,1.59-.89l.23.2a11.21,11.21,0,0,0-1.72-3.09,8.5,8.5,0,0,0-2.32-2.06,15.73,15.73,0,0,0-1.47-.69c-.49-.25-1.11-.49-1.65-.78a16,16,0,0,1-3.21-2.08,16,16,0,0,1,3.82.26,12,12,0,0,1,1.85.43,8.24,8.24,0,0,1,1.92.76,6.67,6.67,0,0,1,2.74,3.23,5.51,5.51,0,0,1,.22,3.53,6.62,6.62,0,0,0,1.73-1.78,4,4,0,0,0,.62-2,2.58,2.58,0,0,0-.13-.94,2.16,2.16,0,0,0-.46-.8c-.87-1-2.58-1.72-4.25-2.37a20.92,20.92,0,0,1-5.25-2.55,7.28,7.28,0,0,1-1.2-1.16,8.61,8.61,0,0,1-.49-.77,4,4,0,0,1-.33-.86,7.6,7.6,0,0,1-.27-1.53c-.06-.51-.09-1-.11-1.46a111.25,111.25,0,0,1,.43-11.16c.28-3.69.66-7.36,1.1-11,.87-7.33,2-14.63,3.41-21.87.74-3.62,1.55-7.22,2.55-10.78.49-1.77,1-3.54,1.71-5.27a22.85,22.85,0,0,1,1.14-2.52,9,9,0,0,1,.73-1.19,3.94,3.94,0,0,1,.52-.64l.39-.39a5.8,5.8,0,0,0-.84,1.08,8.29,8.29,0,0,0-.63,1.22,22.64,22.64,0,0,0-1,2.57c-.56,1.74-1,3.51-1.43,5.3-.81,3.58-1.44,7.2-2,10.83-1.13,7.25-2,14.55-2.69,21.86-.34,3.65-.63,7.31-.86,11-.18,3.07-.33,6.17-.28,9.2,5.93.9,12.2.59,18.14.39a139.29,139.29,0,0,0,19-1.57c2.83-.49,3.2-.31,1.75-3-1.37-2.56-4.41-3.86-7-4.74-2.38-.8-4.85-1.21-7.28-1.83-1-.24-2.67-.48-3.21-1.5-.69-1.32.33-2,1.29-2.74,4.15-3,8.74-5.13,12.74-8.42a70.11,70.11,0,0,0,17.73-22c8.66-16.76,10.47-36.26,8.63-54.82a234.39,234.39,0,0,0-7.58-39.12c-.49-.5-1-1-1.44-1.52-3.22-3.5-6.14-7.18-9.13-10.8s-6-7.21-9.18-10.62a96.44,96.44,0,0,0-10.18-9.62,58.36,58.36,0,0,0-11.87-7.45,53.66,53.66,0,0,1,12.29,6.9,90.72,90.72,0,0,1,10.67,9.29c3.32,3.36,6.44,6.89,9.52,10.44s6.1,7.15,9.32,10.49a43.78,43.78,0,0,0,5.09,4.59c1.79,1.31,3.81,2.37,5.76,2.29s3.7-1.35,5.09-3a12.24,12.24,0,0,0,2.81-5.7,13.75,13.75,0,0,0,.15-3.21,18.22,18.22,0,0,0-.58-3.24,27.77,27.77,0,0,0-2.61-6.21,52.57,52.57,0,0,0-8.27-10.9l-2.36-2.41,3.36.35a13.5,13.5,0,0,0,3,0,12.87,12.87,0,0,0,3-.71,8.93,8.93,0,0,0,5.18-5,8.41,8.41,0,0,0,.49-1.44,9.34,9.34,0,0,0,.4-2.95,9.6,9.6,0,0,0-2.2-5.49A19.79,19.79,0,0,0,490.79,222Z"/><polygon fill="#725e47"  points="238.45 351.44 238.45 351.44 238.45 351.44 238.45 351.44"/><polygon fill="#725e47"  points="238.45 351.44 238.45 351.44 238.45 351.44 238.45 351.44"/><path d="M497.23,224.9a22,22,0,0,0-5.29-4.6,40.52,40.52,0,0,0-6.08-3.19,69.58,69.58,0,0,0-11.22-3.63,8.3,8.3,0,0,0,.69-.64,6.68,6.68,0,0,0,1.54-2.45,5.24,5.24,0,0,0,.09-3,6.53,6.53,0,0,0-.55-1.33c-.11-.21-.22-.42-.34-.63l-.43-.57a7.56,7.56,0,0,0-1-1l-.6-.39a2.5,2.5,0,0,0-.62-.34l-.65-.29-.67-.2a10.21,10.21,0,0,0-1.36-.26,16.83,16.83,0,0,0-5.31.42,45.43,45.43,0,0,0-9.62,3.54c-.94-2.11-1.88-4.23-2.83-6.33-5.38-11.89-11.09-23.62-17-35.27-5-9.84-9.93-19.56-16.41-28.51-11.52-15.93-26.34-29.79-43.66-39.21a99.24,99.24,0,0,0-25.59-9.74c.15-10.38-6.24-28.95-10-39.75-.46-1.35-.88-2.56-1.23-3.6A2.28,2.28,0,0,0,337,42.38h0a2.27,2.27,0,0,0-2.17,1.53l-.29.83c-3.34,9.44-10.3,29.17-10.49,40.92-.61.06-1.23.12-1.84.2-21.44,2.82-39.91,14.9-54.47,30.44-16.54,17.64-29.32,39.12-40.36,60.51q-6.93,13.44-12.77,27.42a35,35,0,0,0-4.64-1.41,16.87,16.87,0,0,0-5.32-.42,10.37,10.37,0,0,0-1.35.26l-.67.2-.65.29a2.5,2.5,0,0,0-.62.34l-.6.39a7.56,7.56,0,0,0-1,1l-.43.57c-.12.21-.23.42-.34.63a6.53,6.53,0,0,0-.55,1.33,5.15,5.15,0,0,0,.09,3,6.68,6.68,0,0,0,1.54,2.45c.22.23.45.44.68.64a69.79,69.79,0,0,0-11.21,3.63,40.52,40.52,0,0,0-6.08,3.19,21.79,21.79,0,0,0-5.29,4.6,11,11,0,0,0-2.33,10.41,10.62,10.62,0,0,0,.57,1.73,9.58,9.58,0,0,0,.84,1.66,11.27,11.27,0,0,0,5.65,4.68,15.06,15.06,0,0,0,3.53.87l.7.07q-1.45,1.62-2.79,3.35a48,48,0,0,0-4,6,30.45,30.45,0,0,0-2.79,6.76,20.64,20.64,0,0,0-.64,3.69,15.65,15.65,0,0,0,.2,3.8,14.19,14.19,0,0,0,3.37,6.77,12.53,12.53,0,0,0,2.9,2.55,7.5,7.5,0,0,0,3.88,1.19,9,9,0,0,0,3.88-.86,13.85,13.85,0,0,0,1.27-.66c-.33,1.63-.64,3.26-.95,4.89-3.17,17.45-5.49,35.24-5,53a94.62,94.62,0,0,1-16-.69l-3.47-.49-.28,0c-.63-.78-1.27-1.56-1.89-2.35-3-3.89-6-7.87-8.62-12a120,120,0,0,1-7.26-12.83,89.37,89.37,0,0,1-5.35-13.68l-.22-.73-.75.19a41.65,41.65,0,0,0-8.41,3.17,49.49,49.49,0,0,0-7.61,4.76,56.57,56.57,0,0,0-6.66,6,50.11,50.11,0,0,0-5.64,7l-.47.71.73.52c1.16.83,2.33,1.73,3.47,2.65s2.26,1.86,3.36,2.83,2.41,2.19,3.57,3.32l-.56-.22c-1.39-.58-2.77-1.22-4.13-1.89-2.73-1.35-5.43-2.8-8.07-4.32l-.57-.33-.48.41a41.77,41.77,0,0,0-10.5,14.35,32.6,32.6,0,0,0-2.44,8.61,30.3,30.3,0,0,0,.09,9l0,.35.3.2a58.6,58.6,0,0,0,18,7.64,101.73,101.73,0,0,0,19.3,2.78,146.09,146.09,0,0,0,18.6-.28c2.7,2.18,5.48,4.26,8.37,6.18,2,1.36,4,2.59,6,3.85s4.1,2.41,6.22,3.49,4.24,2.17,6.38,3.2,4.33,1.95,6.54,2.82c3.63,1.47,7.33,2.8,11.06,4a52.68,52.68,0,0,0,20.45,18.24c.92.46,1.85.89,2.79,1.3a8.08,8.08,0,0,0,1.25.53l.49.2c-.49.16-1,.36-1.45.52-1.7.59-3.42,1.12-5.11,1.73-3.31,1.18-9.12,3.11-6.74,7.74,2.05,4,8.63,4.74,12.48,5.27a123.86,123.86,0,0,0,19.35.87c1.42,0,3.5.11,5.55,0a11.11,11.11,0,0,1-.29,1.17,3.58,3.58,0,0,1-.45,1,4.41,4.41,0,0,1-.76.81,21.09,21.09,0,0,1-4.85,2.41,17.24,17.24,0,0,0-2.77,1.41,5.53,5.53,0,0,0-2.32,2.74,6.26,6.26,0,0,0,2,6.48,12.12,12.12,0,0,0,2.61,1.84,18.91,18.91,0,0,0,2.81,1.24,23.18,23.18,0,0,0,2.93.82,24.52,24.52,0,0,0,3,.44,49.13,49.13,0,0,0,11.81-.33,38.87,38.87,0,0,0,5.81-1.31,17.28,17.28,0,0,0,5.37-3,25.06,25.06,0,0,0,7.12-9.57,14.75,14.75,0,0,0,.55-1.41,14,14,0,0,0,.44-1.45c.26-1,.46-1.91.66-2.87.29-1.43.55-2.86.81-4.29l.3.07c22.74,4.89,46.18,7.77,69.47,6.66a158.82,158.82,0,0,0,31.66-4.54c2.08-.53,4.14-1.13,6.19-1.78a28.59,28.59,0,0,0,3.45,8.39,21.75,21.75,0,0,0,8.19,8c.44.21.87.45,1.34.62l.68.28.71.22c.94.3,1.84.5,2.76.72a48.37,48.37,0,0,0,5.59.85,45.35,45.35,0,0,0,11.33-.32,22.76,22.76,0,0,0,5.54-1.76,14.59,14.59,0,0,0,2.58-1.55,8.47,8.47,0,0,0,2.18-2.31,6.66,6.66,0,0,0,1-3.22,4.9,4.9,0,0,0-1.17-3.36,8,8,0,0,0-2.59-1.91,28.06,28.06,0,0,0-2.65-1.13,18.89,18.89,0,0,1-4.67-2.19,4.72,4.72,0,0,1-.79-.75,2.17,2.17,0,0,1-.42-.81,7,7,0,0,1-.21-1.18c0-.17,0-.35,0-.53l1.21.13a142.74,142.74,0,0,0,21.19.05c5.56-.29,11.6-.36,17-1.79,4.09-1.08,2.58-5.48.27-8-3.66-4-9.54-4.72-14.51-6a4.42,4.42,0,0,1-.48-.15c.34-.21.64-.43.79-.51q2.13-1.2,4.2-2.52a75.15,75.15,0,0,0,11.24-8.8c13.4-12.74,20.75-30.16,23-48.32,2.66-21.2-1.42-42.6-6.74-63.09l.74.59a16.65,16.65,0,0,0,3.21,2,9,9,0,0,0,3.88.86,7.5,7.5,0,0,0,3.88-1.19,12.53,12.53,0,0,0,2.9-2.55,14.19,14.19,0,0,0,3.37-6.77,16.72,16.72,0,0,0,.2-3.8,20.64,20.64,0,0,0-.64-3.69,30,30,0,0,0-2.8-6.76,46.83,46.83,0,0,0-4-6q-1.33-1.72-2.79-3.35l.7-.07a15.19,15.19,0,0,0,3.53-.87,11.27,11.27,0,0,0,5.65-4.68A9.53,9.53,0,0,0,499,237a9.77,9.77,0,0,0,.58-1.73,11,11,0,0,0-2.33-10.41ZM336,45.28l.29-.82a.62.62,0,0,1,.64-.45.64.64,0,0,1,.64.46c.35,1.05.77,2.26,1.24,3.61,3.42,9.91,9.93,28.8,9.91,38.88a81.16,81.16,0,0,0-23.13-1.48C325.88,74,333,53.84,336,45.28ZM136,358.7a100,100,0,0,1-19-3,58,58,0,0,1-17.14-7.5,28.69,28.69,0,0,1,0-8.12,31,31,0,0,1,2.37-8.15,38.23,38.23,0,0,1,4.31-7.36,40.47,40.47,0,0,1,5.3-5.85c2.49,1.44,5,2.81,7.57,4.1,1.38.69,2.79,1.35,4.23,2a23.2,23.2,0,0,0,4.58,1.5l2.95.56-2.09-2.17q-3.11-3.24-6.48-6.17c-1.12-1-2.27-1.94-3.44-2.87-.93-.74-1.88-1.46-2.85-2.17a50.44,50.44,0,0,1,4.9-6.07,54.65,54.65,0,0,1,6.42-5.84,47.73,47.73,0,0,1,7.31-4.64A41.58,41.58,0,0,1,142.3,294,91,91,0,0,0,147.7,307a120.33,120.33,0,0,0,7.54,12.85,144.07,144.07,0,0,0,8.89,11.92c.45.54.91,1.07,1.36,1.6l-.24,0-1.7-.37-3.42-.74-3.45-.85a137.43,137.43,0,0,0-14-2.82,36,36,0,0,0-3.63-.32,15.6,15.6,0,0,0-3.81.27,5.91,5.91,0,0,0-2,.82,3.53,3.53,0,0,0-1.5,2.08,4.64,4.64,0,0,0,0,2.32,9,9,0,0,0,.68,1.89,31.86,31.86,0,0,0,4.09,6.12c1.52,1.86,3.11,3.63,4.74,5.37a143,143,0,0,0,12.6,11.76A155.94,155.94,0,0,1,136,358.7Zm52.78,18.56A134.93,134.93,0,0,1,143,345.44c-1.61-1.7-3.18-3.43-4.65-5.22a29.91,29.91,0,0,1-3.8-5.6A4.4,4.4,0,0,1,134,332a1.18,1.18,0,0,1,.53-.72,3.65,3.65,0,0,1,1.24-.48,13.45,13.45,0,0,1,3.22-.22c1.13,0,2.27.12,3.42.26a138,138,0,0,1,13.78,2.61l3.44.81,3.51.7,1.76.33.88.17.89.11,3.55.42a97,97,0,0,0,16.25.32c.56,15.3,3.29,31.21,11.28,44.47Q193.22,379.18,188.8,377.26ZM497.32,234.7a8.41,8.41,0,0,1-.49,1.44,8.93,8.93,0,0,1-5.18,5,12.87,12.87,0,0,1-3,.71,13.5,13.5,0,0,1-3,0l-3.36-.35,2.36,2.41a52.57,52.57,0,0,1,8.27,10.9,27.77,27.77,0,0,1,2.61,6.21,18.22,18.22,0,0,1,.58,3.24,13.75,13.75,0,0,1-.15,3.21,12.24,12.24,0,0,1-2.81,5.7c-1.39,1.66-3.14,3-5.09,3s-4-1-5.76-2.29a43.78,43.78,0,0,1-5.09-4.59c-3.22-3.34-6.24-6.94-9.32-10.49s-6.2-7.08-9.52-10.44a90.72,90.72,0,0,0-10.67-9.29,53.66,53.66,0,0,0-12.29-6.9,58.36,58.36,0,0,1,11.87,7.45,96.44,96.44,0,0,1,10.18,9.62c3.2,3.41,6.21,7,9.18,10.62s5.91,7.3,9.13,10.8c.47.51.95,1,1.44,1.52a234.39,234.39,0,0,1,7.58,39.12c1.84,18.56,0,38.06-8.63,54.82a70.11,70.11,0,0,1-17.73,22c-4,3.29-8.59,5.43-12.74,8.42-1,.7-2,1.42-1.29,2.74.54,1,2.24,1.26,3.21,1.5,2.43.62,4.9,1,7.28,1.83,2.61.88,5.65,2.18,7,4.74,1.45,2.72,1.08,2.54-1.75,3a139.29,139.29,0,0,1-19,1.57c-5.94.2-12.21.51-18.14-.39-.05-3,.1-6.13.28-9.2.23-3.65.52-7.31.86-11,.71-7.31,1.56-14.61,2.69-21.86.56-3.63,1.19-7.25,2-10.83.4-1.79.87-3.56,1.43-5.3a22.64,22.64,0,0,1,1-2.57,8.29,8.29,0,0,1,.63-1.22,5.8,5.8,0,0,1,.84-1.08l-.39.39a3.94,3.94,0,0,0-.52.64,9,9,0,0,0-.73,1.19,22.85,22.85,0,0,0-1.14,2.52c-.67,1.73-1.22,3.5-1.71,5.27-1,3.56-1.81,7.16-2.55,10.78-1.43,7.24-2.54,14.54-3.41,21.87-.44,3.66-.82,7.33-1.1,11a111.25,111.25,0,0,0-.43,11.16c0,.47.05.95.11,1.46a7.6,7.6,0,0,0,.27,1.53,4,4,0,0,0,.33.86,8.61,8.61,0,0,0,.49.77,7.28,7.28,0,0,0,1.2,1.16,20.92,20.92,0,0,0,5.25,2.55c1.67.65,3.38,1.34,4.25,2.37a2.16,2.16,0,0,1,.46.8,2.58,2.58,0,0,1,.13.94,4,4,0,0,1-.62,2,6.62,6.62,0,0,1-1.73,1.78,5.51,5.51,0,0,0-.22-3.53,6.67,6.67,0,0,0-2.74-3.23,8.24,8.24,0,0,0-1.92-.76,12,12,0,0,0-1.85-.43,16,16,0,0,0-3.82-.26,16,16,0,0,0,3.21,2.08c.54.29,1.16.53,1.65.78a15.73,15.73,0,0,1,1.47.69,8.5,8.5,0,0,1,2.32,2.06,11.21,11.21,0,0,1,1.72,3.09l-.23-.2a13,13,0,0,1-1.59.89,20.46,20.46,0,0,1-4.93,1.6,36.06,36.06,0,0,1-3.93.42,2.53,2.53,0,0,0,.64-1.21,3.44,3.44,0,0,0-.21-2.07,7.15,7.15,0,0,0-2.45-2.88,10.89,10.89,0,0,0-3.17-1.65,8.07,8.07,0,0,0-3.56-.35c.93.8,1.83,1.43,2.71,2.07l2.56,1.88a15.8,15.8,0,0,1,2.24,1.87,3.45,3.45,0,0,1,.69,1.14,2.61,2.61,0,0,1,.07,1.56l-.3-.31a54.21,54.21,0,0,1-6-.1,45.54,45.54,0,0,1-5.33-.74c-.87-.18-1.77-.37-2.59-.62l-.61-.18-.6-.24c-.4-.14-.78-.34-1.17-.52a20.4,20.4,0,0,1-7.56-7.1,27.22,27.22,0,0,1-2.44-4.74,30.8,30.8,0,0,1-1.5-5.15c-.75-3.54-1.07-7.21-1.68-10.87-.31-1.84-.71-3.64-1.09-5.44s-.76-3.6-1.25-5.4a30.78,30.78,0,0,0-2-5.16c-.77-1.67-1.5-3.36-2.22-5.06h0c.6,1.74,1.21,3.48,1.87,5.2a31.91,31.91,0,0,1,1.75,5.18c.39,1.78.67,3.6,1,5.41s.6,3.64.82,5.44c.44,3.57.65,7.19,1.26,10.83q-3.74,1.17-7.55,2.11c-21.54,5.3-44.21,5.26-66.16,2.89a314.76,314.76,0,0,1-33-5.43c.6-3.46,1.22-6.9,1.95-10.33a113,113,0,0,1,2.85-11.14c.57-1.84,1.24-3.63,2-5.41.39-.88.77-1.76,1.17-2.63l1.35-2.56a49.09,49.09,0,0,0-5.09,10.39,112.5,112.5,0,0,0-3.41,11.08c-.95,3.75-1.74,7.53-2.53,11.3-.41,1.88-.79,3.77-1.22,5.63-.21.92-.43,1.85-.7,2.74a12.37,12.37,0,0,1-.43,1.3,11.41,11.41,0,0,1-.53,1.27,25.65,25.65,0,0,1-2.87,4.75,20.38,20.38,0,0,1-3.84,3.92A14.83,14.83,0,0,1,267,436a36.94,36.94,0,0,1-5.46,1.14,47.63,47.63,0,0,1-8.69.41l-.3.31h0a2.58,2.58,0,0,1,.07-1.55,3.35,3.35,0,0,1,.69-1.14,15.8,15.8,0,0,1,2.24-1.87l2.56-1.88c.88-.64,1.78-1.28,2.71-2.08a7.93,7.93,0,0,0-3.56.36,10.86,10.86,0,0,0-3.17,1.64,7.25,7.25,0,0,0-2.45,2.89,3.43,3.43,0,0,0-.21,2.07,2.53,2.53,0,0,0,.63,1.2c-.58,0-1.17-.06-1.76-.12a21.56,21.56,0,0,1-2.71-.41,21.89,21.89,0,0,1-2.63-.75,17,17,0,0,1-2.46-1.1c-.3-.16-.58-.35-.87-.53l-.24.2h0a11.15,11.15,0,0,1,1.72-3.08,8.5,8.5,0,0,1,2.32-2.06,15.73,15.73,0,0,1,1.47-.69c.49-.25,1.11-.49,1.65-.78a16,16,0,0,0,3.21-2.08,15.52,15.52,0,0,0-3.82.25,14.88,14.88,0,0,0-1.85.43,8.76,8.76,0,0,0-1.92.77,6.63,6.63,0,0,0-2.74,3.23,5.52,5.52,0,0,0-.23,3.51,8.54,8.54,0,0,1-.79-.65,5,5,0,0,1-1.32-1.88l-.15-.51a3.76,3.76,0,0,1-.07-.55,2.44,2.44,0,0,1,.12-1c.37-1.16,2.06-2,3.76-2.76.86-.37,1.77-.73,2.68-1.16a11.64,11.64,0,0,0,2.73-1.64,6.24,6.24,0,0,0,1.2-1.3,4.54,4.54,0,0,0,.45-.81,3.83,3.83,0,0,0,.17-.43l.13-.38a14,14,0,0,0,.55-3.08c.15-2,.1-3.95.09-5.88s0-3.84,0-5.76c0-3.85,0-7.71-.07-11.57a136.93,136.93,0,0,0-2.14-23.11,56.9,56.9,0,0,0-3.33-11.14,30.09,30.09,0,0,0-2.8-5.1,18.64,18.64,0,0,0-4-4.21h0a18.41,18.41,0,0,1,3.66,4.4,30.88,30.88,0,0,1,2.5,5.14,56.43,56.43,0,0,1,2.76,11.11A149.87,149.87,0,0,1,248.78,395c0,3.83-.11,7.67-.17,11.53,0,1.92-.05,3.87-.06,5.79,0,1.51,0,3-.08,4.48-1.06,0-2.14,0-3.12.05a152.3,152.3,0,0,1-17.49-.29c-3.09-.26-14-.56-15-4.78-.92-3.7,11.23-5.38,13.7-6.89,1.07-.66,1.92-1.44,1.08-2.7-.51-.76-2.12-1-2.87-1.3a54.83,54.83,0,0,1-7-3.46C188.06,380,186.9,340,189.85,309.68c.89-9.12,2.27-18.19,3.91-27.2q.72-3.83,1.52-7.62a44.06,44.06,0,0,0,4.28-4.13c3.22-3.5,6.14-7.18,9.12-10.8s6-7.21,9.19-10.62a96.44,96.44,0,0,1,10.18-9.62,58.36,58.36,0,0,1,11.87-7.45,53.66,53.66,0,0,0-12.29,6.9A90.72,90.72,0,0,0,217,248.43c-3.32,3.36-6.44,6.89-9.52,10.44s-6.1,7.15-9.33,10.49A42.21,42.21,0,0,1,193,274c-1.78,1.31-3.81,2.37-5.76,2.29s-3.69-1.35-5.08-3a12.15,12.15,0,0,1-2.81-5.7,13.75,13.75,0,0,1-.15-3.21,18.22,18.22,0,0,1,.58-3.24,27.77,27.77,0,0,1,2.61-6.21,52.57,52.57,0,0,1,8.27-10.9l2.36-2.41-3.36.35a13.5,13.5,0,0,1-3,0,12.87,12.87,0,0,1-3-.71,8.93,8.93,0,0,1-5.18-5,8.41,8.41,0,0,1-.49-1.44,9.34,9.34,0,0,1-.4-2.95,9.6,9.6,0,0,1,2.2-5.49,19.79,19.79,0,0,1,4.73-4.22,42.86,42.86,0,0,1,5.72-3.15,69.11,69.11,0,0,1,12.51-4.26l2.08-.49-1.88-1a6.54,6.54,0,0,1-3.12-3.22,3.85,3.85,0,0,1-.13-2.13,5.32,5.32,0,0,1,.42-1.06l.26-.52.34-.47a6,6,0,0,1,4-2.15,15.72,15.72,0,0,1,5,.19,44.58,44.58,0,0,1,9.73,3.15,91.44,91.44,0,0,1,9.21,4.67,79.71,79.71,0,0,0-9-5.16c-.94-.45-1.89-.88-2.84-1.29a370.8,370.8,0,0,1,30.39-57.89c12.3-19.09,26.9-37.83,46.93-49.28A77.51,77.51,0,0,1,352,90.15c18.78,4.74,35.68,15.5,49.5,28.87,15.58,15.07,25.53,33.13,35.1,52.33,5.94,11.91,11.68,23.94,17.05,36.12a79.37,79.37,0,0,0-6.95,4.12,91.28,91.28,0,0,1,9.2-4.67,44.84,44.84,0,0,1,9.74-3.15,15.72,15.72,0,0,1,5-.19,6,6,0,0,1,4,2.15l.34.47.26.52a4.74,4.74,0,0,1,.41,1.06,3.76,3.76,0,0,1-.12,2.13,6.54,6.54,0,0,1-3.12,3.22l-1.88,1,2.08.49a68.75,68.75,0,0,1,12.5,4.26,42.37,42.37,0,0,1,5.73,3.15,19.79,19.79,0,0,1,4.73,4.22,9.6,9.6,0,0,1,2.2,5.49A9.34,9.34,0,0,1,497.32,234.7Z"/>    </g>    <g id="eye">        <g id="eye-color1">            <g opacity="0" ><path fill="#FCFBFA"  d="M249.45,149.37c-.14.46-.21.94-.36,1.4a15.33,15.33,0,0,1-1.35,2.87c-.52.93-1,1.89-1.54,2.82-.24.42-.5.81-.77,1.21l-.43.61c-.09.11-.46.47-.46.6-.19.25-.39.5-.59.74-5.88,7-13.9,9.8-22.69,6.53-8.54-3.17-14.21-10.4-14.65-19.54a.84.84,0,0,1,0-.28.93.93,0,0,1,0-.29,23.27,23.27,0,0,1,19-21.81,18.86,18.86,0,0,1,11.42,1.35c-15.29-7.71-34.35-2.93-39.29,15.33a20.84,20.84,0,0,0-.67,6.53,29.39,29.39,0,0,0,10.49,20.23c8.59,7.09,21.5,6.67,31,1.77,7.19-3.69,10-12.6,10.92-20.45C249.53,149.11,249.48,149.24,249.45,149.37Z"/></g><g opacity="0" ><path fill="#FCFBFA"  d="M373.2,143.3c-.24.62-.44,1.25-.7,1.87a24.77,24.77,0,0,1-2,3.66,29.23,29.23,0,0,1-2.54,3.43c-5.88,7-13.9,9.8-22.69,6.53-8.53-3.17-14.2-10.4-14.65-19.53a2.11,2.11,0,0,1,0-.58,23.29,23.29,0,0,1,19-21.81,18.87,18.87,0,0,1,11.42,1.35c-15.3-7.71-34.36-2.93-39.3,15.33a20.54,20.54,0,0,0-.66,6.53,29.38,29.38,0,0,0,10.48,20.23c8.59,7.09,21.5,6.67,31,1.77,6.91-3.54,9.72-12,10.77-19.65C373.37,142.68,373.29,143.06,373.2,143.3Z"/></g>        </g>        <g id="eye-shape">            <path fill="#fff"  d="M312.54,138.57c-1.24-.42-6.63-.89-14.56-1.27-.59,5.6-10.78,19.12-25.61,18.19-13-.81-19.14-14.78-20.67-18.9-18.22.28-28,1.27-30,2.33-.18,2.3,1.34,9.19,6.7,15.73s16.29,14.63,36.77,14.63c28.46,0,41.06-16.94,44.25-22.13C312.36,142.4,312.73,139.32,312.54,138.57Z"/><path d="M270.72,104.07a7.5,7.5,0,0,0-6.2,6.16c-1.15,5.07,1.08,11.4,3.68,13.26,2.28,1.63,17.06,7.22,29.36,10.74-25-1.29-69.58-1.26-76.93,1.91a2.83,2.83,0,0,0-1.8,1.86c-.63,3.13,1.25,11.2,7.28,18.55,5.88,7.18,17.44,15.73,39.09,15.73,33.65,0,47.64-22.4,49.89-30.25.81-2.8.5-4.37-.11-5.25,6.57-1.67,10-7.3,11-12.31.28-1.42-.29-2.87-1.69-4.31C316.18,111.88,278.06,102.78,270.72,104.07Zm-5.52,65.21c-20.48,0-31.3-8-36.77-14.63s-6.88-13.43-6.7-15.73c2-1.06,11.75-2,30-2.33,1.53,4.12,7.65,18.09,20.67,18.9,14.83.93,25-12.59,25.61-18.19,7.93.38,13.32.85,14.56,1.27.19.75-.18,3.83-3.09,8.58C306.26,152.34,293.66,169.28,265.2,169.28Z"/><path fill="#fff"  d="M438.64,134.75c1.32-3.1,1-4.44.81-4.67-1.69-1.24-12.7-1.24-26.14-.55-1.12,5.15-5.42,18.11-20.4,19.09-15.73,1-24.28-10.67-26.62-14.45-4.43.77-7.5,1.55-8.4,2.29-.28.72.11,3.95,2.83,8.36,3.25,5.29,13.17,17.53,35,17C419.7,161.15,435,143.29,438.64,134.75Z"/><path d="M441.67,128.06c-1.51-1.66-9.77-3.15-40.53-.84-7.15.53-43,3.42-45.73,7.53-1.5,2.25.15,7,2,10.38,2.59,4.68,12.77,19.67,36.83,19.67l1.55,0c23.21-.61,40.64-17.24,45.59-28.86C443,132.29,443,129.57,441.67,128.06Zm-80.95,16.76c-2.72-4.41-3.11-7.64-2.83-8.36.9-.74,4-1.52,8.4-2.29,2.34,3.78,10.89,15.47,26.62,14.45,15-1,19.28-13.94,20.4-19.09,13.44-.69,24.45-.69,26.14.55.21.23.51,1.57-.81,4.67-3.65,8.54-18.94,26.4-42.92,27C373.89,162.35,364,150.11,360.72,144.82Z"/><path d="M402.67,119.42c1.41-2.83-2-13.13-5.5-18.48-2.06-3.15-4.16-4.69-6.24-4.6-3.12.16-14.83,4.28-25.05,8.83-21.31,9.47-21.61,13.71-21.71,15.1h0c-.18,2.51-.08,7.14,2.64,10a7.7,7.7,0,0,0,5.79,2.26h.45c3.95-.16,16.37-2.75,26.6-5.24C401.4,121.94,402.29,120.18,402.67,119.42Z"/>        </g>        <g id="eye-color2">            <path fill="#EFCA89"  d="M258.5,152.44a40.76,40.76,0,0,0,11.9,2.81c-11.67-2-17.25-14.75-18.7-18.66-4.29.07-8.09.17-11.46.31A37.06,37.06,0,0,0,258.5,152.44Z"/><path fill="#EFCA89"  d="M307,137.86c-2.4-.2-5.44-.39-9-.56-.52,4.95-8.55,16.08-20.65,18C290.06,154.22,301,147.48,307,137.86Z"/><path fill="#EFCA89"  d="M377,147.23a40.63,40.63,0,0,0,7.47,1.74,42,42,0,0,0,5.66.38c15.36,0,28.59-8.3,34.59-20.24-3.45.07-7.31.21-11.4.42-1.12,5.15-5.42,18.11-20.4,19.09-15.73,1-24.28-10.67-26.62-14.45a53.22,53.22,0,0,0-6.5,1.44A38.07,38.07,0,0,0,377,147.23Z"/>        </g>    </g>    <g id="nose-mouth">        <path fill="none"  d="M409,275.37h0Z"/><path fill="none"  d="M394.78,308.82l0,.08s0,0,0-.07Z"/><path fill="#e8d3b3"  d="M361.93,304.22a40.62,40.62,0,0,1,3.69,9.25,32.5,32.5,0,0,1,1.09,10,28.16,28.16,0,0,1-1.22,7c.94-.4,1.88-.84,2.78-1.31a33.14,33.14,0,0,0,5.12-3.27,32.58,32.58,0,0,0,8-9.07,36.91,36.91,0,0,0,4.43-11.47,60.07,60.07,0,0,0,1.23-12.54,44.83,44.83,0,0,1,.64,8.36,21.71,21.71,0,0,1,4.89,4.1,12.15,12.15,0,0,1,1.77,2.62l.08-.11a25.11,25.11,0,0,0,2.45-5.9,40.39,40.39,0,0,0,1.32-6.67c-.26-.49-.54-1-.85-1.46a15.93,15.93,0,0,1,2.55,2.93,25.91,25.91,0,0,1,1.88,3.43,35.8,35.8,0,0,1,1.36,3.67c0,.12.07.25.11.38l.71-1.45c.57-1.54,1.32-3,1.84-4.55a49.08,49.08,0,0,0,2.38-9.42,37.41,37.41,0,0,0,.06-9.69,29,29,0,0,0-2.85-9.46,19.44,19.44,0,0,1,3.58,5.76h0a21.12,21.12,0,0,1,3.61.54,34.7,34.7,0,0,1,4.56,1.49,45.09,45.09,0,0,1,4.33,2.05c.53.28,1,.59,1.55.89a48.63,48.63,0,0,0-1-5.12,32.4,32.4,0,0,0-2.83-7.41,28.07,28.07,0,0,0-2.14-3.33,24.78,24.78,0,0,0-2.68-2.94,21.28,21.28,0,0,0-6.89-4.32,16.48,16.48,0,0,1,8,3c.41.28.8.6,1.19.91.73-.13,1.46-.27,2.19-.35a29.66,29.66,0,0,1,3-.23,32,32,0,0,1,6,.33,31.13,31.13,0,0,1,5.9,1.43,27.11,27.11,0,0,1,2.8,1.1,49.94,49.94,0,0,0-8.27-13.81,45.43,45.43,0,0,0-6.88-6.56c-1.23-1-2.56-1.88-3.88-2.77s-2.73-1.64-4.16-2.35a68.43,68.43,0,0,0-18.19-6.23,94.94,94.94,0,0,0-14-1.74c-.27,1.15-.58,2.32-1,3.5-6.48,19.83-28.21,40.19-43.87,41.1-.52,0-1,.05-1.58.05-15.46,0-37.36-12.51-48.72-28.07a44.82,44.82,0,0,1-5.42-9.56,117.07,117.07,0,0,0-12.57,4.44,72.2,72.2,0,0,0-17.07,9.82,37.91,37.91,0,0,0-6.84,6.85,30.84,30.84,0,0,0-4.65,8.32,29.93,29.93,0,0,0-1.58,9.35l.05,2.4.28,2.39c.05.39.09.8.15,1.19l0,.23c.21-.28.42-.54.64-.81a21.72,21.72,0,0,1,3.33-3.24,16.6,16.6,0,0,1,4.09-2.35,14.57,14.57,0,0,1,4.65-1l1.45-.1-.17,1.45a37.19,37.19,0,0,0-.17,5.5,39,39,0,0,0,.61,5.51,25.27,25.27,0,0,0,1.6,5.25,18.45,18.45,0,0,0,2.08,3.43,17.92,17.92,0,0,1,.25-1.79,16.23,16.23,0,0,1,.95-3.21,11.64,11.64,0,0,1,1.72-2.85,8.87,8.87,0,0,1,2.61-2,2.83,2.83,0,0,0-.28.2,6.31,6.31,0,0,1,.63-.34,36.56,36.56,0,0,1,2.68-11.74,33.12,33.12,0,0,0-1.37,5.87,40.24,40.24,0,0,0-.49,6A39.29,39.29,0,0,0,265,297.51a36.32,36.32,0,0,0,2.11,5.54,39,39,0,0,0,2.9,5.16,47.12,47.12,0,0,0,5.71,7c.05-.86.13-1.72.25-2.58a34.78,34.78,0,0,1,1.1-5.31,26.28,26.28,0,0,1,2.05-5.1,19.57,19.57,0,0,1,3.31-4.53l2.47-2.52-.06,3.61a49,49,0,0,0,1.27,11.65,39.22,39.22,0,0,0,4.19,10.88,27.7,27.7,0,0,0,7.58,8.6,28.51,28.51,0,0,0,8.75,4.28c0-1.59,0-3.16.09-4.74.11-2.21.3-4.41.61-6.61a43.94,43.94,0,0,1,1.4-6.55,19,19,0,0,1,3.05-6.21l.76-.94.82.83a34.91,34.91,0,0,1,5.28,6.85,22.78,22.78,0,0,1,1.84,4,13.07,13.07,0,0,1,.71,3.59,7.92,7.92,0,0,0,1.57-.42,9.2,9.2,0,0,0,2.13-1.21,11.72,11.72,0,0,0,3.17-3.86,20.71,20.71,0,0,0,1.78-4.83,31.93,31.93,0,0,0,.77-4.26c-.2-.21-.39-.44-.6-.65a44,44,0,0,0-5.45-4.79,28.47,28.47,0,0,1,6.37,3.76,29.39,29.39,0,0,1,5.32,5.31,23.53,23.53,0,0,1,3.69,6.7l.61,1.84c.15.64.26,1.28.38,1.91.06.32.13.64.17,1l0,.46a47.6,47.6,0,0,0,10.8-8.76l1.32-1.55c.42-.53.79-1.09,1.19-1.64a13.37,13.37,0,0,0,1.12-1.69,16.56,16.56,0,0,0,1-1.78l.89-1.85c.29-.62.46-1.29.71-1.93l.36-1c.1-.33.16-.67.24-1l.05-.21a25.18,25.18,0,0,0,.43-2.53,53.33,53.33,0,0,0-2.91-5.28A41.71,41.71,0,0,1,361.93,304.22Z"/><path d="M439.85,265.47a51.39,51.39,0,0,0-3.7-9.35,50,50,0,0,0-2.51-4.38c-.45-.72-1-1.38-1.47-2.07l-.75-1-.82-1a44,44,0,0,0-7.28-7,49.11,49.11,0,0,0-8.58-5.33,62.39,62.39,0,0,0-9.38-3.61,71,71,0,0,0-9.78-2,72.93,72.93,0,0,0-14.16-.5c2.2-10.25-.35-18.92-7.37-24.72-14.57-12-41.79-12-62.29-6.63C295.08,202.2,283.21,209.76,280,218c-2.18,5.64-2,11.82.43,18.22a95.82,95.82,0,0,0-12.92,3.55,67.55,67.55,0,0,0-18.06,9.34,36.16,36.16,0,0,0-12.67,16.21A30.68,30.68,0,0,0,235,275.7l.07,2.62.33,2.59c.06.43.1.86.18,1.29l.29,1.27.57,2.53.88,3.81,1.82-3.57a21.91,21.91,0,0,1,2.19-3.36,19.35,19.35,0,0,1,2.82-2.9,13.82,13.82,0,0,1,3.38-2.05,10.7,10.7,0,0,1,2.46-.73,41.58,41.58,0,0,0,.13,4.33,34.67,34.67,0,0,0,.92,5.8,27.07,27.07,0,0,0,2,5.53,18,18,0,0,0,3.62,4.7l1.12,1-.11-1.5a18.53,18.53,0,0,1,.08-3.15,15.76,15.76,0,0,1,.64-3.11,11.83,11.83,0,0,1,1.37-2.87,8.74,8.74,0,0,1,2.05-2,2.83,2.83,0,0,1,.28-.2,8.87,8.87,0,0,0-2.61,2,11.64,11.64,0,0,0-1.72,2.85,16.23,16.23,0,0,0-.95,3.21,17.92,17.92,0,0,0-.25,1.79,18.45,18.45,0,0,1-2.08-3.43,25.27,25.27,0,0,1-1.6-5.25,39,39,0,0,1-.61-5.51,37.19,37.19,0,0,1,.17-5.5l.17-1.45-1.45.1a14.57,14.57,0,0,0-4.65,1,16.6,16.6,0,0,0-4.09,2.35,21.72,21.72,0,0,0-3.33,3.24c-.22.27-.43.53-.64.81l0-.23c-.06-.39-.1-.8-.15-1.19l-.28-2.39-.05-2.4a29.93,29.93,0,0,1,1.58-9.35,30.84,30.84,0,0,1,4.65-8.32,37.91,37.91,0,0,1,6.84-6.85,72.2,72.2,0,0,1,17.07-9.82,117.07,117.07,0,0,1,12.57-4.44,44.82,44.82,0,0,0,5.42,9.56c11.36,15.56,33.26,28.07,48.72,28.07.54,0,1.06,0,1.58-.05,15.66-.91,37.39-21.27,43.87-41.1.39-1.18.7-2.35,1-3.5a94.94,94.94,0,0,1,14,1.74,68.43,68.43,0,0,1,18.19,6.23c1.43.71,2.79,1.54,4.16,2.35s2.65,1.77,3.88,2.77a45.43,45.43,0,0,1,6.88,6.56,49.94,49.94,0,0,1,8.27,13.81,27.11,27.11,0,0,0-2.8-1.1,31.13,31.13,0,0,0-5.9-1.43,32,32,0,0,0-6-.33,29.66,29.66,0,0,0-3,.23c-.73.08-1.46.22-2.19.35-.39-.31-.78-.63-1.19-.91a16.48,16.48,0,0,0-8-3,21.28,21.28,0,0,1,6.89,4.32,24.78,24.78,0,0,1,2.68,2.94,28.07,28.07,0,0,1,2.14,3.33,32.4,32.4,0,0,1,2.83,7.41,48.63,48.63,0,0,1,1,5.12c-.51-.3-1-.61-1.55-.89a45.09,45.09,0,0,0-4.33-2.05,34.7,34.7,0,0,0-4.56-1.49,21.12,21.12,0,0,0-3.61-.54h0a19.44,19.44,0,0,0-3.58-5.76,29,29,0,0,1,2.85,9.46,37.41,37.41,0,0,1-.06,9.69,49.08,49.08,0,0,1-2.38,9.42c-.52,1.55-1.27,3-1.84,4.55l-.71,1.45c0-.13-.07-.26-.11-.38a35.8,35.8,0,0,0-1.36-3.67,25.91,25.91,0,0,0-1.88-3.43,15.93,15.93,0,0,0-2.55-2.93c.31.48.59,1,.85,1.46a40.39,40.39,0,0,1-1.32,6.67,25.11,25.11,0,0,1-2.45,5.9l-.08.11a12.15,12.15,0,0,0-1.77-2.62,21.71,21.71,0,0,0-4.89-4.1,44.83,44.83,0,0,0-.64-8.36,60.07,60.07,0,0,1-1.23,12.54,36.91,36.91,0,0,1-4.43,11.47,32.58,32.58,0,0,1-8,9.07,33.14,33.14,0,0,1-5.12,3.27c-.9.47-1.84.91-2.78,1.31a28.16,28.16,0,0,0,1.22-7,32.5,32.5,0,0,0-1.09-10,40.62,40.62,0,0,0-3.69-9.25,41.71,41.71,0,0,0-5.61-8.09,53.33,53.33,0,0,1,2.91,5.28c.54,1.11,1.06,2.23,1.53,3.37a47.55,47.55,0,0,1,2.77,9.16,32.62,32.62,0,0,1,.58,4.7,31.78,31.78,0,0,1-.06,4.68,28.83,28.83,0,0,1-2.32,9L360.55,335l2.86-.75a30.71,30.71,0,0,0,6.25-2.47,36.09,36.09,0,0,0,5.53-3.63,32.83,32.83,0,0,0,8.43-10.11,35.34,35.34,0,0,0,3.81-12.45c.15-1.28.24-2.56.28-3.84,1.07,1.64,2.15,3.21,3.06,4.81a12.47,12.47,0,0,1,1.27,2.81l.15.49a2.51,2.51,0,0,0,.46.83,2,2,0,0,0,1.33.69,2.26,2.26,0,0,0,1.2-.25,3.82,3.82,0,0,0,1.11-.87,9.36,9.36,0,0,0,.66-.85,16,16,0,0,0,2.33-7.12,14.43,14.43,0,0,0-.93-6.9c.28.56.54,1.12.79,1.68a35,35,0,0,1,1.19,3.54c.33,1.2.59,2.41.81,3.63a33.45,33.45,0,0,1,.5,3.64l.3,3.86,2-3.38q1.31-2.2,2.58-4.46c.37-.78.73-1.57,1.08-2.36a24,24,0,0,0,1-2.39,35.78,35.78,0,0,0,1.52-5c.17-.85.42-1.69.54-2.55s.23-1.73.32-2.6a30.71,30.71,0,0,0-.84-10.38,26.83,26.83,0,0,0-1-2.91c1.06.37,2.1.77,3.11,1.22,1.4.67,2.76,1.37,4.09,2.14s2.63,1.57,3.89,2.44,2.56,1.73,3.71,2.64l2.35,1.86-.1-3.06a37,37,0,0,0-1.22-8.53,32.33,32.33,0,0,0-1.39-4.13,26.09,26.09,0,0,0-2-3.88,21.65,21.65,0,0,0-4.68-5.28,42,42,0,0,1,5,.1,36.08,36.08,0,0,1,5.77.9,34.94,34.94,0,0,1,5.49,1.81,27.07,27.07,0,0,1,5,2.71l2.72,2Zm-45,43.43,0-.08h0C394.86,308.92,394.84,308.94,394.82,308.9ZM288.53,244.72c-4.65-6.38-9.43-16-5.72-25.6,2.81-7.28,14.19-14.32,29.71-18.38a101.33,101.33,0,0,1,25.6-3.44c15.39,0,27.43,4,34,9.48,8.91,7.36,7.79,18,5.29,25.7-6.16,18.85-26.56,38.18-41.19,39S299.76,260.1,288.53,244.72Z"/><path fill="#724331"  d="M377.43,232.48c2.5-7.66,3.62-18.34-5.29-25.7-6.59-5.43-18.63-9.48-34-9.48a101.33,101.33,0,0,0-25.6,3.44c-15.52,4.06-26.9,11.1-29.71,18.38-3.71,9.6,1.07,19.22,5.72,25.6,11.23,15.38,33.1,27.67,47.71,26.8S371.27,251.33,377.43,232.48Z"/><path d="M358.51,305.16l-.36,1c-.25.64-.42,1.31-.71,1.93l-.89,1.85a16.56,16.56,0,0,1-1,1.78,13.37,13.37,0,0,1-1.12,1.69c-.4.55-.77,1.11-1.19,1.64l-1.32,1.55a47.6,47.6,0,0,1-10.8,8.76l0-.46c0-.32-.11-.64-.17-1-.12-.63-.23-1.27-.38-1.91l-.61-1.84a23.53,23.53,0,0,0-3.69-6.7,29.39,29.39,0,0,0-5.32-5.31,28.47,28.47,0,0,0-6.37-3.76,44,44,0,0,1,5.45,4.79c.21.21.4.44.6.65a31.93,31.93,0,0,1-.77,4.26,20.71,20.71,0,0,1-1.78,4.83,11.72,11.72,0,0,1-3.17,3.86,9.2,9.2,0,0,1-2.13,1.21,7.92,7.92,0,0,1-1.57.42,13.07,13.07,0,0,0-.71-3.59,22.78,22.78,0,0,0-1.84-4,34.91,34.91,0,0,0-5.28-6.85l-.82-.83-.76.94a19,19,0,0,0-3.05,6.21,43.94,43.94,0,0,0-1.4,6.55c-.31,2.2-.5,4.4-.61,6.61-.07,1.58-.1,3.15-.09,4.74a28.51,28.51,0,0,1-8.75-4.28,27.7,27.7,0,0,1-7.58-8.6,39.22,39.22,0,0,1-4.19-10.88,49,49,0,0,1-1.27-11.65l.06-3.61-2.47,2.52a19.57,19.57,0,0,0-3.31,4.53,26.28,26.28,0,0,0-2.05,5.1,34.78,34.78,0,0,0-1.1,5.31c-.12.86-.2,1.72-.25,2.58a47.12,47.12,0,0,1-5.71-7,39,39,0,0,1-2.9-5.16,36.32,36.32,0,0,1-2.11-5.54,39.29,39.29,0,0,1-1.66-11.78,40.24,40.24,0,0,1,.49-6,33.12,33.12,0,0,1,1.37-5.87,36.56,36.56,0,0,0-2.68,11.74.28.28,0,0,0,0,.09,40.29,40.29,0,0,0,1,12.22,38.11,38.11,0,0,0,1.95,5.87,41.51,41.51,0,0,0,2.81,5.52,50,50,0,0,0,7.77,9.63l2,2V318a34,34,0,0,1,.4-5,33.34,33.34,0,0,1,1.11-4.89A22.64,22.64,0,0,1,282,302.7c0,.75.11,1.5.18,2.26a54,54,0,0,0,1,6.17,41.14,41.14,0,0,0,4.47,11.72,30,30,0,0,0,20,14.56l1.79.4L309.4,336c-.1-2.09-.1-4.26,0-6.4s.22-4.27.47-6.38A44.41,44.41,0,0,1,311,317a19.25,19.25,0,0,1,1.8-4.49c.64.66,1.27,1.35,1.86,2.05a29.81,29.81,0,0,1,2.42,3.28,15,15,0,0,1,2.68,7.39l0,.79.7-.06a9,9,0,0,0,5.12-2.27,13,13,0,0,0,3.17-4.39,24.45,24.45,0,0,0,1.92-9.36,36.43,36.43,0,0,1,3.73,4.83,25.56,25.56,0,0,1,2.92,6.28l.45,1.66.28,1.69c.05.28.11.56.14.84l0,.85.08,1.71.12,2.33,2-1a30,30,0,0,0,3.8-2.22,41.77,41.77,0,0,0,3.49-2.57,38.7,38.7,0,0,0,6.07-6.2,28.91,28.91,0,0,0,4.18-7.6,22.83,22.83,0,0,0,1.29-8.43l-.46,1.84-.05.21C358.67,304.49,358.61,304.83,358.51,305.16Z"/><path fill="#44241b"  d="M334.67,209.16c-2.9-9.63-30.7,1.33-28,8.71C310,227.07,337.57,218.79,334.67,209.16Z"/><path fill="#44241b"  d="M348.91,232.14a5.66,5.66,0,1,0-5.57-5.74A5.65,5.65,0,0,0,348.91,232.14Z"/><path fill="#44241b"  d="M311.74,231.56c-4.68-.07-8.54,3.94-8.62,9s3.66,9.15,8.34,9.22,8.55-3.94,8.63-9S316.43,231.64,311.74,231.56Z"/><path fill="#44241b"  d="M340.2,246.15a2.86,2.86,0,1,0,2.38,2.86A2.64,2.64,0,0,0,340.2,246.15Z"/>    </g></svg>