<!--  ~ Copyright (C) 2018 Baidu, Inc. All Rights Reserved.  --><svg viewBox="0 0 640 480" xmlns="http://www.w3.org/2000/svg">    <g id="back-ground-cl">        <rect fill="none" width="640" height="480" />        <ellipse opacity="0.1" cx="331.93" cy="418.82" rx="168.39" ry="32.01"/>    </g>    <g id="body">        <defs>            <clipPath id="outline">                <path d="M452.79,396.45a74.64,74.64,0,0,0,11.24-8.8c13.41-12.74,20.76-30.16,23-48.33,2.74-21.85-1.67-43.92-7.23-65-.26-1-.53-2-.8-2.95C484.77,254.69,475,232,466,218.91c-2.06-3-4.26-5.89-6.55-8.72,5.27-2,9.82-5.7,11.79-12.19,7.21-23.69-25.32-71.16-56-92-12-8.11-30-17.2-48.08-14.51-1.38.21-2.68.47-3.89.77-13.05-5-27.1-7.16-41.07-5.33a76.35,76.35,0,0,0-18.43,4.89c-.61-.12-1.23-.23-1.87-.33-18.07-2.69-36.12,6.4-48.09,14.51-30.69,20.8-63.22,68.27-56,92,2.29,7.56,8.08,11.31,14.44,13.06-.09.21-.19.43-.27.64-.58.58-1.17,1.14-1.74,1.72a71.11,71.11,0,0,0-18.36,34c-1.89,8.09-2.48,18.7,1.32,26.7q-.93,4.44-1.77,8.91c-3.19,17.56-5.52,35.46-5,53.34a124.13,124.13,0,0,0,2.93,24.35,21.68,21.68,0,0,1-12.22-1.83,23.68,23.68,0,0,1-10.27-10.33,36.35,36.35,0,0,1-4-14.28A30.84,30.84,0,0,1,165,319.67l1.67-3.79-2.92,2.93a30.86,30.86,0,0,0-5.92,8.75,43.78,43.78,0,0,0-3.3,10,36.18,36.18,0,0,0,1.62,20.78,28.54,28.54,0,0,0,5.8,8.83,32.61,32.61,0,0,0,8.47,6.25,34.12,34.12,0,0,0,20.45,3.69,38.08,38.08,0,0,0,3.86-.73,63.27,63.27,0,0,0,3.75,6.85,52.62,52.62,0,0,0,21.1,19.2c.91.46,1.84.89,2.78,1.31a11.42,11.42,0,0,0,1.25.53l.49.2c-.49.15-1,.36-1.45.52-1.7.58-3.42,1.11-5.11,1.72-3.3,1.19-9.11,3.11-6.74,7.74,2.06,4,8.64,4.75,12.49,5.28a123.81,123.81,0,0,0,19.35.87c1.4,0,3.42.1,5.44,0a3.91,3.91,0,0,1-.43.94,4.48,4.48,0,0,1-.77.81,20.81,20.81,0,0,1-4.84,2.41,16.84,16.84,0,0,0-2.77,1.41,5.55,5.55,0,0,0-2.33,2.74,6.28,6.28,0,0,0,2,6.48,11.73,11.73,0,0,0,2.6,1.84,19.49,19.49,0,0,0,2.82,1.24,21.22,21.22,0,0,0,2.93.82,26.7,26.7,0,0,0,3,.45,49.12,49.12,0,0,0,11.81-.34,39.28,39.28,0,0,0,5.82-1.31,17.34,17.34,0,0,0,5.36-3,25.06,25.06,0,0,0,7.12-9.57,12.5,12.5,0,0,0,.55-1.41,12,12,0,0,0,.44-1.45c.27-1,.47-1.91.67-2.87s.4-2,.59-3.07l.32.07c22.75,4.9,46.19,7.78,69.48,6.66A158.18,158.18,0,0,0,384.12,419c2.24-.58,4.46-1.23,6.67-1.93a28.42,28.42,0,0,0,3.17,7.31,21.75,21.75,0,0,0,8.19,8c.44.21.88.45,1.34.62l.69.28.7.23c.94.3,1.84.5,2.77.71a50.13,50.13,0,0,0,5.58.86,46.31,46.31,0,0,0,11.33-.32A23.23,23.23,0,0,0,430.1,433a14.18,14.18,0,0,0,2.58-1.54,8.69,8.69,0,0,0,2.19-2.32,6.54,6.54,0,0,0,1-3.22,4.84,4.84,0,0,0-1.16-3.36,8,8,0,0,0-2.59-1.91,28.21,28.21,0,0,0-2.66-1.13,19.06,19.06,0,0,1-4.67-2.19,4.64,4.64,0,0,1-.78-.75,2,2,0,0,1-.42-.81,4.13,4.13,0,0,1-.1-.44l.86.08a141.4,141.4,0,0,0,21.19.06c5.56-.3,11.61-.37,17-1.79,4.09-1.08,2.59-5.49.27-8-3.66-4-9.54-4.72-14.51-6l-.47-.14c.33-.21.63-.44.78-.52Q450.74,397.77,452.79,396.45,7.4,15.15a139.56,139.56,0,0,1-19.05,1.56c-5.87.2-12.06.51-17.92-.35-.13-3.43,0-7,.26-10.46.23-3.66.52-7.31.86-11,.7-7.31,1.55-14.61,2.69-21.86.55-3.63,1.18-7.25,2-10.83.4-1.79.86-3.57,1.43-5.31a24.1,24.1,0,0,1,1-2.57,9.33,9.33,0,0,1,.64-1.21,5.14,5.14,0,0,1,.84-1.08q-.19.18-.39.39a3.28,3.28,0,0,0-.53.64,7.92,7.92,0,0,0-.72,1.18,24,24,0,0,0-1.15,2.53c-.66,1.72-1.21,3.49-1.71,5.27-1,3.56-1.81,7.16-2.55,10.78-1.42,7.24-2.53,14.54-3.4,21.87-.45,3.66-.83,7.33-1.11,11a108.58,108.58,0,0,0-.42,11.16c0,.48,0,1,.1,1.47a9.51,9.51,0,0,0,.27,1.53,4.59,4.59,0,0,0,.33.86,5.89,5.89,0,0,0,.5.76,6.57,6.57,0,0,0,1.19,1.17,21.14,21.14,0,0,0,5.26,2.55c1.67.65,3.38,1.34,4.25,2.37a2.16,2.16,0,0,1,.46.8,2.38,2.38,0,0,1,.12.94,4,4,0,0,1-.61,2,6.77,6.77,0,0,1-1.73,1.78,5.45,5.45,0,0,0-.23-3.53,6.6,6.6,0,0,0-2.73-3.23,9,9,0,0,0-1.92-.77,13.34,13.34,0,0,0-1.86-.42,15.43,15.43,0,0,0-3.81-.26,16,16,0,0,0,3.21,2.08c.54.29,1.16.53,1.64.78a16,16,0,0,1,1.48.69,8.65,8.65,0,0,1,2.32,2.06,11.21,11.21,0,0,1,1.72,3.09l-.23-.2a13,13,0,0,1-1.59.89,20.13,20.13,0,0,1-4.94,1.61,38.82,38.82,0,0,1-3.92.41,2.62,2.62,0,0,0,.64-1.21,3.6,3.6,0,0,0-.21-2.07,7.25,7.25,0,0,0-2.46-2.88A10.77,10.77,0,0,0,415,425a8.21,8.21,0,0,0-3.56-.36c.94.81,1.84,1.44,2.71,2.08l2.56,1.88a15.93,15.93,0,0,1,2.25,1.87,3.27,3.27,0,0,1,.68,1.14,2.54,2.54,0,0,1,.07,1.56h0l-.3-.31a51.85,51.85,0,0,1-6-.1,45.54,45.54,0,0,1-5.33-.74c-.86-.18-1.77-.37-2.59-.62l-.61-.18-.6-.23c-.4-.15-.78-.35-1.17-.53a20.35,20.35,0,0,1-7.56-7.11,26.78,26.78,0,0,1-2.44-4.73,30.8,30.8,0,0,1-1.5-5.15c-.75-3.54-1.07-7.22-1.68-10.88-.31-1.83-.72-3.63-1.09-5.43s-.76-3.61-1.25-5.4a31.41,31.41,0,0,0-2-5.17c-.77-1.67-1.5-3.36-2.22-5.06h0c.6,1.74,1.22,3.48,1.88,5.2a31.91,31.91,0,0,1,1.75,5.18c.39,1.78.67,3.6,1,5.42s.6,3.63.81,5.44c.46,3.62.66,7.31,1.29,11,.05.31.12.62.17.92q-3.93,1.26-7.94,2.24c-21.55,5.31-44.22,5.26-66.17,2.9a315.35,315.35,0,0,1-33-5.44,1.7,1.7,0,0,1,0-.22c.66-3.79,1.32-7.58,2.13-11.33a112.43,112.43,0,0,1,2.85-11.15c.56-1.83,1.24-3.63,2-5.41.39-.87.76-1.76,1.17-2.63l1.34-2.56a49.29,49.29,0,0,0-5.08,10.39,113.52,113.52,0,0,0-3.41,11.09c-.95,3.75-1.74,7.53-2.54,11.3-.4,1.88-.78,3.77-1.21,5.63-.22.92-.44,1.85-.7,2.74-.12.46-.28.88-.43,1.3a11.51,11.51,0,0,1-.54,1.27,25.12,25.12,0,0,1-2.87,4.75,20.33,20.33,0,0,1-3.83,3.92,15,15,0,0,1-4.73,2.53,37.08,37.08,0,0,1-5.47,1.14,48.54,48.54,0,0,1-8.69.42l-.3.31a2.61,2.61,0,0,1,.07-1.56,3.35,3.35,0,0,1,.69-1.14,15.38,15.38,0,0,1,2.25-1.87l2.56-1.88c.87-.64,1.77-1.28,2.7-2.08a8.07,8.07,0,0,0-3.56.36,10.86,10.86,0,0,0-3.17,1.64,7.25,7.25,0,0,0-2.45,2.89,3.44,3.44,0,0,0-.21,2.07,2.44,2.44,0,0,0,.63,1.2c-.58,0-1.17-.06-1.76-.11a21.28,21.28,0,0,1-2.71-.42,20.19,20.19,0,0,1-2.63-.75,15.57,15.57,0,0,1-2.46-1.09q-.45-.25-.87-.54l-.24.21a11.07,11.07,0,0,1,1.72-3.09,8.47,8.47,0,0,1,2.31-2.06c.4-.26,1-.44,1.48-.69s1.11-.49,1.65-.78a16,16,0,0,0,3.21-2.08,15.52,15.52,0,0,0-3.82.25,14.88,14.88,0,0,0-1.85.43,8.76,8.76,0,0,0-1.92.77,6.62,6.62,0,0,0-2.74,3.23,5.52,5.52,0,0,0-.23,3.51,8.54,8.54,0,0,1-.79-.65,5,5,0,0,1-1.32-1.88l-.15-.51a3.6,3.6,0,0,1-.07-.55,2.44,2.44,0,0,1,.12-.95c.37-1.16,2-2.05,3.75-2.76.87-.37,1.77-.73,2.69-1.16a11.85,11.85,0,0,0,2.73-1.64,6.24,6.24,0,0,0,1.2-1.3,4.92,4.92,0,0,0,.45-.81,3.83,3.83,0,0,0,.17-.43l.13-.38a14,14,0,0,0,.55-3.08c.15-2,.1-3.95.08-5.88s0-3.84,0-5.76c0-3.85,0-7.72-.07-11.58a136.93,136.93,0,0,0-2.14-23.11,56.9,56.9,0,0,0-3.33-11.14,29.71,29.71,0,0,0-2.8-5.1,18.48,18.48,0,0,0-4-4.21,18.46,18.46,0,0,1,3.67,4.41,30.51,30.51,0,0,1,2.5,5.14,56.43,56.43,0,0,1,2.76,11.11A149.87,149.87,0,0,1,249,395c0,3.84-.11,7.68-.17,11.53,0,1.93-.05,3.87-.06,5.8s0,3.85-.16,5.66v0c-1.1.05-2.22,0-3.24.06a152.3,152.3,0,0,1-17.49-.3c-3.1-.25-14-.56-15-4.78-.92-3.7,11.24-5.38,13.71-6.89,1.07-.65,1.92-1.43,1.08-2.69-.51-.77-2.13-1-2.87-1.31a53.66,53.66,0,0,1-7-3.46c-29.69-17.42-30.85-57.46-27.9-87.79.89-9.12,2.27-18.19,3.91-27.2.4-2.13.84-4.25,1.27-6.38.24.34.47.68.73,1,8.93,11,22.83,13,36.08,10.45,15.68-3.06,28.91-12.2,35.48-27.08.17-.38-.09-2.1-.26-1.73-5.34,11.83-15.6,20-27.91,23.72-11.64,3.51-25.2,5-35.89-1.79-4.29-2.73-8.23-6.37-10.12-11.17-3.28-8.31-2.17-17.46.46-25.77A72,72,0,0,1,211.73,215c8.9-9,19.15-16.63,26.84-26.74.27-.34-.07-1.79-.14-1.72-6.78,7.6-14.65,14.05-22.1,21a371.61,371.61,0,0,1,30.89-59.11c12.3-19.09,26.91-37.83,46.94-49.29A77.49,77.49,0,0,1,352,91.27c18.78,4.74,35.69,15.5,49.51,28.88,15.58,15.07,25.54,33.13,35.11,52.34q6.32,12.64,12.27,25.49c-4.46-4.91-9-9.74-13.36-14.69,0,0-.33,1.37-.06,1.73,7.17,9.45,15.54,17.92,23.06,27.09,7.94,9.7,14.4,20.1,18.42,32,4.38,13,4.57,28.19-7.4,37-10.07,7.37-22.18,6.93-33.9,4.18-13.94-3.26-25.83-11.49-31.82-24.77-.16-.35-.35,1.34-.18,1.74a46.06,46.06,0,0,0,28.79,25.41c12.81,3.87,26.82,4.45,37.83-4a25.79,25.79,0,0,0,7.37-8.87,234,234,0,0,1,7.21,37.79c1.84,18.56,0,38.06-8.63,54.83a70.25,70.25,0,0,1-17.73,22c-4,3.29-8.6,5.43-12.75,8.42-1,.7-2,1.43-1.29,2.75.54,1,2.24,1.25,3.21,1.49,2.43.62,4.9,1,7.28,1.84,2.62.88,5.65,2.17,7,4.74C463.39,411.29,463,411.1,460.19,411.6,180.61,375.44a32.84,32.84,0,0,1-9.51-3.34,31.2,31.2,0,0,1-8.08-6,27.16,27.16,0,0,1-5.45-8.38,34.52,34.52,0,0,1-1.45-19.87,42.71,42.71,0,0,1,3.13-9.63,34.81,34.81,0,0,1,2.94-5.1,35.37,35.37,0,0,0-.87,11.22,37.54,37.54,0,0,0,4.27,14.84,24.63,24.63,0,0,0,11,10.85,23,23,0,0,0,13.07,1.77,78.22,78.22,0,0,0,4.51,13.32c-1.13.25-2.28.46-3.44.6A33.74,33.74,0,0,1,180.61,375.44,33-223.37c11.17-17.51,26.69-34,41.51-44,17-11.52,30.56-14.56,40.15-14.56a40.82,40.82,0,0,1,4.13.2c-12,5.59-22.63,14-31.76,23.72-16.54,17.64-29.32,39.12-40.36,60.51q-7.8,15.1-14.19,30.86c-6.86-1.78-11.23-5.62-13-11.51C197,187,201.9,170.49,213.64,152.07,200.19-44c14.82,10,30.33,26.49,41.51,44,11.74,18.42,16.68,34.9,13.54,45.22-1.61,5.31-5.32,9-11.06,10.93q-1.74-2.1-3.52-4.14L453,201.17c-5.38-11.89-11.09-23.63-17-35.28-5-9.83-9.94-19.56-16.41-28.51-11.53-15.93-26.35-29.79-43.68-39.22q-4.2-2.28-8.6-4.18l.32,0C384.89,91.43,402.28,100.24,413.83,108.07Z"/><path d="M338.67,328.5c-23.56,2.27-47.86-6.38-63.87-23.94,0,0-.17.61,0,.77,16,17.76,40.23,26.78,63.93,24.71,24.15-2.11,46.52-15.4,61.49-34.21.22-.28-.08-1.36-.11-1.32C384.71,313,362.86,326.17,338.67,328.5Z"/><path d="M383.49,318.68C360.41,342.39,318,348.86,292,326.47c-.05,0-.23.82,0,1,25.9,22.51,69,17.29,91.63-7.56C383.8,319.67,383.54,318.62,383.49,318.68Z"/><path d="M364.32,339.39c-14.65,11.7-38.81,13.35-54.78,3.49-.1-.07-.27,1,0,1.14,16.06,9.91,40.28,8.73,54.92-3.37C364.66,340.45,364.41,339.31,364.32,339.39Z"/>            </clipPath>        </defs>        <g clip-path="url(#outline)">            <rect fill="#C5EDC5" width="640" height="480" />        </g>    </g>    <g id="pattern">        <g clip-path="url(#outline)">            <g opacity="0.6" ><path fill="#515178"  d="M225.5,310.37c-3-1.41-6.42-1.34-9.66-.8-10.47,1.76-22.5,9.07-27.73,18.3-3.21,5.67-1.18,7.54-.89,14,.21,4.72.8,5.52,1.06,11.07.16,3.27-.9,5.65,1.78,7.54,4.85-3,8.16-8.94,10.59-14.09A41.13,41.13,0,0,1,220.05,327c4.25-2,9.54-4.12,10.24-8.77C230.77,315,228.47,311.77,225.5,310.37Z"/></g><g opacity="0.6" ><path fill="#515178"  d="M218.7,286.36c-2.53-.86-5.31-.45-7.89.26a176.71,176.71,0,0,0-20.06,7.09A64.3,64.3,0,0,0,188.57,317a198.32,198.32,0,0,0,30.28-19c1.92-1.48,4-3.25,4.22-5.66C223.37,289.7,221.23,287.23,218.7,286.36Z"/></g><g opacity="0.6" ><path fill="#515178"  d="M508.47,313.36c4.47-1,6.36-4.61,3.39-8.15-4.36-5.19-13.38-7.28-19.68-9-6.61-1.86-13.34-3-20.07-4.27l-1.47-.29c-5.56-1.09-11.44-2.31-17.11-.83-3.15.82-6.7,3.65-5.38,6.62a6,6,0,0,0,2.82,2.54C468.36,309.49,488.29,317.81,508.47,313.36Z"/></g><g opacity="0.6" ><path fill="#515178"  d="M509.87,332.52q-10.59-4.89-21.55-8.91c-1.55-.57-3.14-1.19-4.74-1.8-5.31-2-10.85-4.06-16.36-4.44-3.68-.26-9.41-1.2-12.36,1.62-5.89,5.62,8.21,14.63,11.89,17.64,6.78,5.55,14.53,12.09,22.69,15.34,8.77,3.5,18.24,5,27.62,5.49,5,.28,13.84,1,15.54-5.49C535.24,341.88,516.36,335.52,509.87,332.52Z"/></g><g opacity="0.6" ><path fill="#515178"  d="M162.06,354.12c-.25-2.17-1.26-4.28-2.69-4.69a3.48,3.48,0,0,0-2.88.88c-8.65,6.07-10.39,18.35-10,29.61.35,9.38-.45,29.6,8.28,35.71,5.77,4,7.12-3.89,7-8.33-.19-9.4-1.43-18.74-1.7-28.1C159.88,370.84,163,362.57,162.06,354.12Z"/></g><g opacity="0.6" ><path fill="#515178"  d="M132.43,335.13a10.4,10.4,0,0,0-5,2.52,26.44,26.44,0,0,0-7.28,10.61c-1.43,3.43-2.49,7.06-3.65,10.48-3,8.89-5.66,17.89-8.31,26.89-2.44,8.29-4.83,16.66-6.51,25.15-.56,2.78-3.14,11.13-.49,13.55,9.77,8.92,19.2-27.4,20.53-32.77,3.55-14.31,6-29.43,12.42-42.61C136.26,344.6,142.08,333.78,132.43,335.13Z"/></g>            <g opacity="0.6" ><path fill="#FF8431"  d="M285,418.84c2.41-25.61,27.2-49.28,50.64-49.63s49.12,18.76,51.63,48.25c.13,1.49,1.2.46-.05,1.63-1.41,1.32-6.67,1.94-9.66,2.8-14.13,4.06-27.65,4.48-43.86,4.36-16.51-.12-33.22-4.21-48.23-7.41"/></g>        </g>    </g>    <g id="mask">        <path fill="#2d2926"  d="M213.56,210.2a355,355,0,0,1,14.69-32.5c11-21.26,23.72-42.6,40.14-60.17,10.31-11,21.63-19.6,35.51-25.11-11-2.19-26.86-1.57-49.24,13.6-30.73,20.82-63.28,68.38-56,92.15C200.9,205.71,207.25,208.4,213.56,210.2Z"/><g opacity="0.1" ><path d="M485.51,334.54c.23,1.7-3.52,6.77-4.44,8.49-1.83,3.4-3.71,6.78-5.7,10.08a108.63,108.63,0,0,1-13.27,18.12A63,63,0,0,1,451,380.69a59.81,59.81,0,0,1-6.28,3.67,33.35,33.35,0,0,1-5.55,2.51c-4,1.16-6.17-2.21-7.35-5.52a39.48,39.48,0,0,1-2.34-17.54A119.55,119.55,0,0,1,432,349.39l-1.94,4.49c-3.08,11.13-4.6,22.56-6.05,34a4.58,4.58,0,0,0,.26,2.19,3.53,3.53,0,0,0-.88.73c-2.06,2.52-.69,11.1-.81,14.31a.64.64,0,0,0,.09.45c.16.19.46.14.69.07,8.49-2.29,16.42-3.94,24.1-8.21,9.5-5.3,18.46-12.14,24.87-20.77a61.25,61.25,0,0,0,7.68-15.13C483.16,352.82,486.78,343.7,485.51,334.54Z"/></g><g opacity="0.1" ><path d="M246.88,148.34a612.54,612.54,0,0,0-33.1,62.91c8.38-5.8,13.8-13.69,21.7-20.06a7.16,7.16,0,0,1,2.93-3.51c8.64-16.15,18.87-31.16,29.1-46.64,10.81-16.34,17.68-34.19,32.7-46.78C276.51,107.37,262.08,122.84,246.88,148.34Z"/></g><g opacity="0.1" ><path d="M250.25,399.07c0-.15,0-.29,0-.43-17.15-5.78-32.41-19.19-39.86-35.48-4-8.82-6.15-18.92-6.21-30.42a373.79,373.79,0,0,1,2.94-47.53c-5.46-2.15-10.27-5.44-12.89-10.91a.27.27,0,0,1-.08-.07c-2.08,11.46-3.53,23-4.49,34.65-2,24.3-2.64,58.64,14.54,78.45,10,11.56,21.68,18.57,39.46,20.83,2.16.27,4.37.57,6.6.88C249.76,405.73,250.31,402.49,250.25,399.07Z"/></g><g opacity="0.1" ><path d="M390.18,411.22c-.7-9.29-.91-9.28-.9-9.28-5.31,1.25-9.09,4.25-14.4,5.48a160.1,160.1,0,0,1-19.48,2.95c-22.09,2.28-44.5.82-66.38-2.85a29.78,29.78,0,0,1-1.73-13.09,100.57,100.57,0,0,0-4,15.41,33,33,0,0,1-.63,4.66c0,.15-.08.3-.12.44,1.1.25,3.19.5,4.25.75,14.95,5.54,32.83,6.73,48.08,6.86,15.71.13,34.8-1.09,45.13-4.91,2.87-1.06,9.14-1.62,10.5-3.05C391.71,413.32,390.3,412.83,390.18,411.22Z"/></g><g opacity="0.1" ><path fill="#fff"  d="M480.63,289.33q-1.54-8.4-3.58-16.68a19.76,19.76,0,0,1-8.87,11.21c2.5,11.55,4.49,23.21,6.07,34.92,1.4,10.34,4.07,22.69-2.47,31.88,4.28-6,9.86-10.61,11.34-14.66C488.39,321.62,483.31,303.82,480.63,289.33Z"/></g><path fill="#2d2926"  d="M376.41,99.41C393.86,109,408.2,123,419.73,139.13c6.56,9.19,10.9,18.71,15.95,28.77,5.92,11.76,11.19,22.71,16.58,34.72,1.24,2.76,4.58,4.42,5.79,7.19,6.09-1.85,10-4.78,12.24-12.11,7.23-23.77-25.09-70.54-55.82-91.36-23.6-16-40.32-15.9-51.21-13.22A107.1,107.1,0,0,1,376.41,99.41Z"/>        <g opacity="0.1" ><path fill="#fff"  d="M453.7,203.8c-11.28-27.21-25.53-53.08-44.83-75.49-16.21-18.84-29.22-25.15-29.44-25.34,6.06,5.3,10.42,13.69,14.49,20.5,13.25,22.2,26.95,45.74,44.62,65,4.78,5.2,10.2,9.29,14.09,15.33.63,1,1.23,2,1.81,3C453.38,204.15,454.78,206.41,453.7,203.8Z"/></g><g opacity="0.1" ><path fill="#fff"  d="M481.6,289.23c-1-5.6-3.2-11.06-4.55-16.58a19.71,19.71,0,0,1-8.87,11.2c2.5,11.56,4.49,23.21,6.07,34.93,1.4,10.33,4.07,22.69-2.47,31.88,4.28-6,9.86-10.61,11.34-14.66C488.39,321.61,484.27,303.72,481.6,289.23Z"/></g>    </g>    <g id="outline">        <path d="M452.79,396.45a74.64,74.64,0,0,0,11.24-8.8c13.41-12.74,20.76-30.16,23-48.33,2.74-21.85-1.67-43.92-7.23-65-.26-1-.53-2-.8-2.95C484.77,254.69,475,232,466,218.91c-2.06-3-4.26-5.89-6.55-8.72,5.27-2,9.82-5.7,11.79-12.19,7.21-23.69-25.32-71.16-56-92-12-8.11-30-17.2-48.08-14.51-1.38.21-2.68.47-3.89.77-13.05-5-27.1-7.16-41.07-5.33a76.35,76.35,0,0,0-18.43,4.89c-.61-.12-1.23-.23-1.87-.33-18.07-2.69-36.12,6.4-48.09,14.51-30.69,20.8-63.22,68.27-56,92,2.29,7.56,8.08,11.31,14.44,13.06-.09.21-.19.43-.27.64-.58.58-1.17,1.14-1.74,1.72a71.11,71.11,0,0,0-18.36,34c-1.89,8.09-2.48,18.7,1.32,26.7q-.93,4.44-1.77,8.91c-3.19,17.56-5.52,35.46-5,53.34a124.13,124.13,0,0,0,2.93,24.35,21.68,21.68,0,0,1-12.22-1.83,23.68,23.68,0,0,1-10.27-10.33,36.35,36.35,0,0,1-4-14.28A30.84,30.84,0,0,1,165,319.67l1.67-3.79-2.92,2.93a30.86,30.86,0,0,0-5.92,8.75,43.78,43.78,0,0,0-3.3,10,36.18,36.18,0,0,0,1.62,20.78,28.54,28.54,0,0,0,5.8,8.83,32.61,32.61,0,0,0,8.47,6.25,34.12,34.12,0,0,0,20.45,3.69,38.08,38.08,0,0,0,3.86-.73,63.27,63.27,0,0,0,3.75,6.85,52.62,52.62,0,0,0,21.1,19.2c.91.46,1.84.89,2.78,1.31a11.42,11.42,0,0,0,1.25.53l.49.2c-.49.15-1,.36-1.45.52-1.7.58-3.42,1.11-5.11,1.72-3.3,1.19-9.11,3.11-6.74,7.74,2.06,4,8.64,4.75,12.49,5.28a123.81,123.81,0,0,0,19.35.87c1.4,0,3.42.1,5.44,0a3.91,3.91,0,0,1-.43.94,4.48,4.48,0,0,1-.77.81,20.81,20.81,0,0,1-4.84,2.41,16.84,16.84,0,0,0-2.77,1.41,5.55,5.55,0,0,0-2.33,2.74,6.28,6.28,0,0,0,2,6.48,11.73,11.73,0,0,0,2.6,1.84,19.49,19.49,0,0,0,2.82,1.24,21.22,21.22,0,0,0,2.93.82,26.7,26.7,0,0,0,3,.45,49.12,49.12,0,0,0,11.81-.34,39.28,39.28,0,0,0,5.82-1.31,17.34,17.34,0,0,0,5.36-3,25.06,25.06,0,0,0,7.12-9.57,12.5,12.5,0,0,0,.55-1.41,12,12,0,0,0,.44-1.45c.27-1,.47-1.91.67-2.87s.4-2,.59-3.07l.32.07c22.75,4.9,46.19,7.78,69.48,6.66A158.18,158.18,0,0,0,384.12,419c2.24-.58,4.46-1.23,6.67-1.93a28.42,28.42,0,0,0,3.17,7.31,21.75,21.75,0,0,0,8.19,8c.44.21.88.45,1.34.62l.69.28.7.23c.94.3,1.84.5,2.77.71a50.13,50.13,0,0,0,5.58.86,46.31,46.31,0,0,0,11.33-.32A23.23,23.23,0,0,0,430.1,433a14.18,14.18,0,0,0,2.58-1.54,8.69,8.69,0,0,0,2.19-2.32,6.54,6.54,0,0,0,1-3.22,4.84,4.84,0,0,0-1.16-3.36,8,8,0,0,0-2.59-1.91,28.21,28.21,0,0,0-2.66-1.13,19.06,19.06,0,0,1-4.67-2.19,4.64,4.64,0,0,1-.78-.75,2,2,0,0,1-.42-.81,4.13,4.13,0,0,1-.1-.44l.86.08a141.4,141.4,0,0,0,21.19.06c5.56-.3,11.61-.37,17-1.79,4.09-1.08,2.59-5.49.27-8-3.66-4-9.54-4.72-14.51-6l-.47-.14c.33-.21.63-.44.78-.52Q450.74,397.77,452.79,396.45Zm7.4,15.15a139.56,139.56,0,0,1-19.05,1.56c-5.87.2-12.06.51-17.92-.35-.13-3.43,0-7,.26-10.46.23-3.66.52-7.31.86-11,.7-7.31,1.55-14.61,2.69-21.86.55-3.63,1.18-7.25,2-10.83.4-1.79.86-3.57,1.43-5.31a24.1,24.1,0,0,1,1-2.57,9.33,9.33,0,0,1,.64-1.21,5.14,5.14,0,0,1,.84-1.08q-.19.18-.39.39a3.28,3.28,0,0,0-.53.64,7.92,7.92,0,0,0-.72,1.18,24,24,0,0,0-1.15,2.53c-.66,1.72-1.21,3.49-1.71,5.27-1,3.56-1.81,7.16-2.55,10.78-1.42,7.24-2.53,14.54-3.4,21.87-.45,3.66-.83,7.33-1.11,11a108.58,108.58,0,0,0-.42,11.16c0,.48,0,1,.1,1.47a9.51,9.51,0,0,0,.27,1.53,4.59,4.59,0,0,0,.33.86,5.89,5.89,0,0,0,.5.76,6.57,6.57,0,0,0,1.19,1.17,21.14,21.14,0,0,0,5.26,2.55c1.67.65,3.38,1.34,4.25,2.37a2.16,2.16,0,0,1,.46.8,2.38,2.38,0,0,1,.12.94,4,4,0,0,1-.61,2,6.77,6.77,0,0,1-1.73,1.78,5.45,5.45,0,0,0-.23-3.53,6.6,6.6,0,0,0-2.73-3.23,9,9,0,0,0-1.92-.77,13.34,13.34,0,0,0-1.86-.42,15.43,15.43,0,0,0-3.81-.26,16,16,0,0,0,3.21,2.08c.54.29,1.16.53,1.64.78a16,16,0,0,1,1.48.69,8.65,8.65,0,0,1,2.32,2.06,11.21,11.21,0,0,1,1.72,3.09l-.23-.2a13,13,0,0,1-1.59.89,20.13,20.13,0,0,1-4.94,1.61,38.82,38.82,0,0,1-3.92.41,2.62,2.62,0,0,0,.64-1.21,3.6,3.6,0,0,0-.21-2.07,7.25,7.25,0,0,0-2.46-2.88A10.77,10.77,0,0,0,415,425a8.21,8.21,0,0,0-3.56-.36c.94.81,1.84,1.44,2.71,2.08l2.56,1.88a15.93,15.93,0,0,1,2.25,1.87,3.27,3.27,0,0,1,.68,1.14,2.54,2.54,0,0,1,.07,1.56h0l-.3-.31a51.85,51.85,0,0,1-6-.1,45.54,45.54,0,0,1-5.33-.74c-.86-.18-1.77-.37-2.59-.62l-.61-.18-.6-.23c-.4-.15-.78-.35-1.17-.53a20.35,20.35,0,0,1-7.56-7.11,26.78,26.78,0,0,1-2.44-4.73,30.8,30.8,0,0,1-1.5-5.15c-.75-3.54-1.07-7.22-1.68-10.88-.31-1.83-.72-3.63-1.09-5.43s-.76-3.61-1.25-5.4a31.41,31.41,0,0,0-2-5.17c-.77-1.67-1.5-3.36-2.22-5.06h0c.6,1.74,1.22,3.48,1.88,5.2a31.91,31.91,0,0,1,1.75,5.18c.39,1.78.67,3.6,1,5.42s.6,3.63.81,5.44c.46,3.62.66,7.31,1.29,11,.05.31.12.62.17.92q-3.93,1.26-7.94,2.24c-21.55,5.31-44.22,5.26-66.17,2.9a315.35,315.35,0,0,1-33-5.44,1.7,1.7,0,0,1,0-.22c.66-3.79,1.32-7.58,2.13-11.33a112.43,112.43,0,0,1,2.85-11.15c.56-1.83,1.24-3.63,2-5.41.39-.87.76-1.76,1.17-2.63l1.34-2.56a49.29,49.29,0,0,0-5.08,10.39,113.52,113.52,0,0,0-3.41,11.09c-.95,3.75-1.74,7.53-2.54,11.3-.4,1.88-.78,3.77-1.21,5.63-.22.92-.44,1.85-.7,2.74-.12.46-.28.88-.43,1.3a11.51,11.51,0,0,1-.54,1.27,25.12,25.12,0,0,1-2.87,4.75,20.33,20.33,0,0,1-3.83,3.92,15,15,0,0,1-4.73,2.53,37.08,37.08,0,0,1-5.47,1.14,48.54,48.54,0,0,1-8.69.42l-.3.31a2.61,2.61,0,0,1,.07-1.56,3.35,3.35,0,0,1,.69-1.14,15.38,15.38,0,0,1,2.25-1.87l2.56-1.88c.87-.64,1.77-1.28,2.7-2.08a8.07,8.07,0,0,0-3.56.36,10.86,10.86,0,0,0-3.17,1.64,7.25,7.25,0,0,0-2.45,2.89,3.44,3.44,0,0,0-.21,2.07,2.44,2.44,0,0,0,.63,1.2c-.58,0-1.17-.06-1.76-.11a21.28,21.28,0,0,1-2.71-.42,20.19,20.19,0,0,1-2.63-.75,15.57,15.57,0,0,1-2.46-1.09q-.45-.25-.87-.54l-.24.21a11.07,11.07,0,0,1,1.72-3.09,8.47,8.47,0,0,1,2.31-2.06c.4-.26,1-.44,1.48-.69s1.11-.49,1.65-.78a16,16,0,0,0,3.21-2.08,15.52,15.52,0,0,0-3.82.25,14.88,14.88,0,0,0-1.85.43,8.76,8.76,0,0,0-1.92.77,6.62,6.62,0,0,0-2.74,3.23,5.52,5.52,0,0,0-.23,3.51,8.54,8.54,0,0,1-.79-.65,5,5,0,0,1-1.32-1.88l-.15-.51a3.6,3.6,0,0,1-.07-.55,2.44,2.44,0,0,1,.12-.95c.37-1.16,2-2.05,3.75-2.76.87-.37,1.77-.73,2.69-1.16a11.85,11.85,0,0,0,2.73-1.64,6.24,6.24,0,0,0,1.2-1.3,4.92,4.92,0,0,0,.45-.81,3.83,3.83,0,0,0,.17-.43l.13-.38a14,14,0,0,0,.55-3.08c.15-2,.1-3.95.08-5.88s0-3.84,0-5.76c0-3.85,0-7.72-.07-11.58a136.93,136.93,0,0,0-2.14-23.11,56.9,56.9,0,0,0-3.33-11.14,29.71,29.71,0,0,0-2.8-5.1,18.48,18.48,0,0,0-4-4.21,18.46,18.46,0,0,1,3.67,4.41,30.51,30.51,0,0,1,2.5,5.14,56.43,56.43,0,0,1,2.76,11.11A149.87,149.87,0,0,1,249,395c0,3.84-.11,7.68-.17,11.53,0,1.93-.05,3.87-.06,5.8s0,3.85-.16,5.66v0c-1.1.05-2.22,0-3.24.06a152.3,152.3,0,0,1-17.49-.3c-3.1-.25-14-.56-15-4.78-.92-3.7,11.24-5.38,13.71-6.89,1.07-.65,1.92-1.43,1.08-2.69-.51-.77-2.13-1-2.87-1.31a53.66,53.66,0,0,1-7-3.46c-29.69-17.42-30.85-57.46-27.9-87.79.89-9.12,2.27-18.19,3.91-27.2.4-2.13.84-4.25,1.27-6.38.24.34.47.68.73,1,8.93,11,22.83,13,36.08,10.45,15.68-3.06,28.91-12.2,35.48-27.08.17-.38-.09-2.1-.26-1.73-5.34,11.83-15.6,20-27.91,23.72-11.64,3.51-25.2,5-35.89-1.79-4.29-2.73-8.23-6.37-10.12-11.17-3.28-8.31-2.17-17.46.46-25.77A72,72,0,0,1,211.73,215c8.9-9,19.15-16.63,26.84-26.74.27-.34-.07-1.79-.14-1.72-6.78,7.6-14.65,14.05-22.1,21a371.61,371.61,0,0,1,30.89-59.11c12.3-19.09,26.91-37.83,46.94-49.29A77.49,77.49,0,0,1,352,91.27c18.78,4.74,35.69,15.5,49.51,28.88,15.58,15.07,25.54,33.13,35.11,52.34q6.32,12.64,12.27,25.49c-4.46-4.91-9-9.74-13.36-14.69,0,0-.33,1.37-.06,1.73,7.17,9.45,15.54,17.92,23.06,27.09,7.94,9.7,14.4,20.1,18.42,32,4.38,13,4.57,28.19-7.4,37-10.07,7.37-22.18,6.93-33.9,4.18-13.94-3.26-25.83-11.49-31.82-24.77-.16-.35-.35,1.34-.18,1.74a46.06,46.06,0,0,0,28.79,25.41c12.81,3.87,26.82,4.45,37.83-4a25.79,25.79,0,0,0,7.37-8.87,234,234,0,0,1,7.21,37.79c1.84,18.56,0,38.06-8.63,54.83a70.25,70.25,0,0,1-17.73,22c-4,3.29-8.6,5.43-12.75,8.42-1,.7-2,1.43-1.29,2.75.54,1,2.24,1.25,3.21,1.49,2.43.62,4.9,1,7.28,1.84,2.62.88,5.65,2.17,7,4.74C463.39,411.29,463,411.1,460.19,411.6ZM180.61,375.44a32.84,32.84,0,0,1-9.51-3.34,31.2,31.2,0,0,1-8.08-6,27.16,27.16,0,0,1-5.45-8.38,34.52,34.52,0,0,1-1.45-19.87,42.71,42.71,0,0,1,3.13-9.63,34.81,34.81,0,0,1,2.94-5.1,35.37,35.37,0,0,0-.87,11.22,37.54,37.54,0,0,0,4.27,14.84,24.63,24.63,0,0,0,11,10.85,23,23,0,0,0,13.07,1.77,78.22,78.22,0,0,0,4.51,13.32c-1.13.25-2.28.46-3.44.6A33.74,33.74,0,0,1,180.61,375.44Zm33-223.37c11.17-17.51,26.69-34,41.51-44,17-11.52,30.56-14.56,40.15-14.56a40.82,40.82,0,0,1,4.13.2c-12,5.59-22.63,14-31.76,23.72-16.54,17.64-29.32,39.12-40.36,60.51q-7.8,15.1-14.19,30.86c-6.86-1.78-11.23-5.62-13-11.51C197,187,201.9,170.49,213.64,152.07Zm200.19-44c14.82,10,30.33,26.49,41.51,44,11.74,18.42,16.68,34.9,13.54,45.22-1.61,5.31-5.32,9-11.06,10.93q-1.74-2.1-3.52-4.14L453,201.17c-5.38-11.89-11.09-23.63-17-35.28-5-9.83-9.94-19.56-16.41-28.51-11.53-15.93-26.35-29.79-43.68-39.22q-4.2-2.28-8.6-4.18l.32,0C384.89,91.43,402.28,100.24,413.83,108.07Z"/><path d="M338.67,328.5c-23.56,2.27-47.86-6.38-63.87-23.94,0,0-.17.61,0,.77,16,17.76,40.23,26.78,63.93,24.71,24.15-2.11,46.52-15.4,61.49-34.21.22-.28-.08-1.36-.11-1.32C384.71,313,362.86,326.17,338.67,328.5Z"/><path d="M383.49,318.68C360.41,342.39,318,348.86,292,326.47c-.05,0-.23.82,0,1,25.9,22.51,69,17.29,91.63-7.56C383.8,319.67,383.54,318.62,383.49,318.68Z"/><path d="M364.32,339.39c-14.65,11.7-38.81,13.35-54.78,3.49-.1-.07-.27,1,0,1.14,16.06,9.91,40.28,8.73,54.92-3.37C364.66,340.45,364.41,339.31,364.32,339.39Z"/>    </g>    <g id="eye">        <g id="eye-color1">            <g opacity="0" ><path fill="#C5EDC5"  d="M297.39,169.09c-.14.46-.21.94-.36,1.41a15.55,15.55,0,0,1-1.35,2.86c-.52.94-1,1.9-1.54,2.83-.24.41-.5.8-.77,1.2-.14.21-.28.41-.43.61s-.45.47-.45.6c-.2.25-.39.5-.6.74-5.88,7-13.9,9.8-22.69,6.54-8.54-3.18-14.2-10.41-14.65-19.54a1.27,1.27,0,0,1,0-.28,1.42,1.42,0,0,1,0-.3,23.29,23.29,0,0,1,19-21.81A19,19,0,0,1,285,145.3c-15.3-7.7-34.36-2.93-39.3,15.33a20.54,20.54,0,0,0-.66,6.53,29.4,29.4,0,0,0,10.48,20.24c8.59,7.08,21.5,6.67,31,1.77,7.19-3.7,10-12.61,10.92-20.46C297.47,168.84,297.43,169,297.39,169.09Z"/></g><g opacity="0" ><path fill="#C5EDC5"  d="M421.14,163c-.24.62-.44,1.25-.69,1.86a25.27,25.27,0,0,1-2,3.66A30.31,30.31,0,0,1,416,172c-5.88,7.05-13.91,9.8-22.7,6.54-8.53-3.18-14.2-10.41-14.65-19.54a2.46,2.46,0,0,1,0-.28,1.39,1.39,0,0,1,0-.3,23.28,23.28,0,0,1,19-21.81,19,19,0,0,1,11.42,1.35c-15.3-7.7-34.36-2.93-39.3,15.33a20.83,20.83,0,0,0-.66,6.53A29.44,29.44,0,0,0,379.59,180c8.59,7.08,21.5,6.67,31,1.77,6.91-3.55,9.73-12,10.78-19.66C421.31,162.4,421.24,162.78,421.14,163Z"/></g>        </g>        <g id="eye-shape">            <path fill="#fcfcfc"  d="M289.33,118.08c-7.82-4.63-16.25-5.49-25.07-3.61a56.83,56.83,0,0,0-13.79,4.85c-2.74,1.38-5.12,3.33-7.81,4.73-15.12,11.6-19.3,31.46-10.94,48.47,7.69,15.62,26.58,28.71,44.44,23.12,15.37-4.81,25.15-21.23,28.47-36.16C308.16,143.65,304,126.72,289.33,118.08ZM262.26,189c-9.47,1.85-17-6.57-18.21-15.24a1.62,1.62,0,0,1-.05-.4,1.39,1.39,0,0,1,0-.46,16.55,16.55,0,0,1,17.43-15.77,5.68,5.68,0,0,1,1.57-.87,1.14,1.14,0,0,1,1.27-.13,1.34,1.34,0,0,1,.49.32l4.7,3.45c.7.52,1.52.95,1.59,1.92,0,.11,0,.23,0,.35a15.9,15.9,0,0,1,3,10C273.89,179.25,269.86,187.48,262.26,189Z"/><path d="M296.83,119.83a35.84,35.84,0,0,0-27.08-9.2,55.33,55.33,0,0,0-15.7,3.82c-4.55,1.8-8.27,4.54-12.51,6.79a1.54,1.54,0,0,0-.39.22,1.45,1.45,0,0,0-.46.36c-13.64,10.74-19.54,27.85-14.53,44.69,5.33,17.94,22.38,33.32,41.63,33.36,18.48,0,31.65-16.1,37.53-32.11S310.39,131.88,296.83,119.83Zm7.8,39.65c-3.32,14.93-13.1,31.35-28.47,36.16-17.86,5.59-36.75-7.5-44.44-23.12-8.36-17-4.18-36.87,10.94-48.47,2.69-1.4,5.07-3.35,7.81-4.73a56.83,56.83,0,0,1,13.79-4.85c8.82-1.88,17.25-1,25.07,3.61C304,126.72,308.16,143.65,304.63,159.48Z"/><path fill="#fcfcfc"  d="M441.91,138.38c-3.23-17.34-18-24.17-34-26.81-18.86-3.14-36.89,8.23-45.55,24.74-9.27,19.81,1.24,45.06,20.38,54.74a38.17,38.17,0,0,0,44.44-6.79C438.81,172.7,444.93,154.58,441.91,138.38Zm-29.1,9.34c-9.24-.07-17.75-7-18.6-16.33a2,2,0,0,1-.06-.56,1.67,1.67,0,0,1,.08-.61,16.8,16.8,0,0,1,4-8.81,1.85,1.85,0,0,1,.25-.32l.65-.67c.24-.25.47-.5.72-.74l3.63-3.75a1.62,1.62,0,0,1,2.08-.17,17.38,17.38,0,0,1,9.3-1.72c9.06,1.06,14.51,10.2,13.34,18.68C427.09,140.6,421.2,147.78,412.81,147.72Z"/><path d="M437.61,121.53c-5.76-6.42-14.07-9.84-22.29-11.83-10.75-2.6-21.1-2.91-31.36,1.75a52.5,52.5,0,0,0-24.42,23.2c-8.76,18.74-1.73,42,14.38,54.65,13.82,10.8,33.62,12.77,48.56,3,15.16-9.89,23.85-29.06,23.44-46.89C445.72,136.84,443.47,128.05,437.61,121.53Zm-54.84,69.52c-19.14-9.68-29.65-34.93-20.38-54.74,8.66-16.51,26.69-27.88,45.55-24.74,15.93,2.64,30.74,9.47,34,26.81,3,16.2-3.1,34.32-14.7,45.88A38.17,38.17,0,0,1,382.77,191.05Z"/><path d="M269.26,166.54c-2.57,3-7.13,1.29-9-1.6a5.8,5.8,0,0,1,1.2-7.85A16.55,16.55,0,0,0,244,172.86a1.39,1.39,0,0,0,0,.46,1.62,1.62,0,0,0,.05.4c1.16,8.67,8.74,17.09,18.21,15.24,7.6-1.48,11.63-9.71,11.81-16.85a15.9,15.9,0,0,0-3-10A8,8,0,0,1,269.26,166.54Z"/><path fill="#fff"  d="M260.25,164.94c1.88,2.89,6.44,4.64,9,1.6a8,8,0,0,0,1.81-4.41c0-.12,0-.24,0-.35-.07-1-.89-1.4-1.59-1.92l-4.7-3.45a1.34,1.34,0,0,0-.49-.32,1.14,1.14,0,0,0-1.27.13,5.68,5.68,0,0,0-1.57.87A5.8,5.8,0,0,0,260.25,164.94Z"/><path d="M399.1,120.42l.72-.74C399.57,119.92,399.34,120.17,399.1,120.42Z"/><path d="M414.83,114a17.38,17.38,0,0,0-9.3,1.72l.25.17c2.9,2.29,3.92,7,1.11,9.86s-8,.49-8.86-3.1a1.6,1.6,0,0,1,0-.53,1.52,1.52,0,0,1,.21-.75,16.8,16.8,0,0,0-4,8.81,1.67,1.67,0,0,0-.08.61,2,2,0,0,0,.06.56c.85,9.31,9.36,16.26,18.6,16.33,8.39.06,14.28-7.12,15.36-15C429.34,124.24,423.89,115.1,414.83,114Z"/><path fill="#fff"  d="M398,122.69c.86,3.59,6,5.95,8.86,3.1s1.79-7.57-1.11-9.86l-.25-.17a1.62,1.62,0,0,0-2.08.17l-3.63,3.75-.72.74-.65.67a1.85,1.85,0,0,0-.25.32,1.52,1.52,0,0,0-.21.75A1.6,1.6,0,0,0,398,122.69Z"/>        </g>        <g id="eye-color2">            <path fill="#85C2FF"  d="M276.58,177a21.4,21.4,0,0,0-4.23-12.82,16.52,16.52,0,0,1,1.72,7.92c-.18,7.14-4.21,15.37-11.81,16.85-9.47,1.85-17.06-6.57-18.21-15.24a1.62,1.62,0,0,1-.05-.4,1.39,1.39,0,0,1,0-.46,16.55,16.55,0,0,1,17.42-15.77l.34-.22a19,19,0,0,0-5.14-.73c-11,0-19.93,9.35-19.93,20.87a22.56,22.56,0,0,0,.34,3.8c6.57,8.15,16.11,14.45,26.28,15.85A20.84,20.84,0,0,0,276.58,177Z"/><path fill="#85C2FF"  d="M414.89,114.05c9,1.1,14.44,10.21,13.28,18.67-1.08,7.88-7,15.06-15.36,15-8.9-.07-17.11-6.52-18.45-15.33a19.13,19.13,0,0,0-.16,2.41,20.94,20.94,0,1,0,26-20.1,21.21,21.21,0,0,0-5.13-.66Z"/>        </g>    </g>    <g id="nose-mouth">        <path opacity="0.1"  d="M367.82,297.69a93,93,0,0,1-30.44,6.94,85.46,85.46,0,0,1-31-4.14,84.26,84.26,0,0,1-14.33-6.2,76.27,76.27,0,0,1-9.36-6.1c2.4,2.63,4.45,5.77,6.92,8.16,3.8,3.67,8.49,6.2,13.19,8.53,10.57,5.23,22.35,8.58,34.23,7.63a75.58,75.58,0,0,0,31.11-9.9A110.77,110.77,0,0,0,382.3,293c4.34-3.43,7.86-8,12.62-10.87l-1.35.8A112.58,112.58,0,0,1,367.82,297.69Z"/><path opacity="0.1"  d="M307.1,298.26A94.36,94.36,0,0,0,322,301.18c1.34.14,2.68.27,4,.36-1.25-.09-2.5-.21-3.74-.35a93.9,93.9,0,0,1-14.94-2.91A97.2,97.2,0,0,1,293,293a83.1,83.1,0,0,1-13.37-7.61,14.92,14.92,0,0,1,1.25,1A85.69,85.69,0,0,0,292.75,293,98,98,0,0,0,307.1,298.26Z"/><path d="M306.42,300.49a85.46,85.46,0,0,0,31,4.14,93,93,0,0,0,30.44-6.94,112.58,112.58,0,0,0,25.75-14.76l1.08-.81A156,156,0,0,1,367,295.51c-2.38.91-4.84,1.58-7.27,2.35-1.21.39-2.46.64-3.69,1s-2.46.64-3.71.85l-3.74.73-3.77.55c-1.25.21-2.52.31-3.78.41s-2.52.26-3.79.27a80.09,80.09,0,0,1-11.17-.09c-1.34-.09-2.68-.22-4-.36a94.36,94.36,0,0,1-14.94-2.92A98,98,0,0,1,292.75,293a85.69,85.69,0,0,1-11.84-6.58c-.51-.34-1-.67-1.52-1,1.06,1,2.18,1.93,3.34,2.82a76.27,76.27,0,0,0,9.36,6.1A84.26,84.26,0,0,0,306.42,300.49Z"/><path fill="#fff"  d="M271.27,232.47a21.39,21.39,0,0,0-2.41-1.6,7.29,7.29,0,0,0-1.16-.53,1.75,1.75,0,0,0-.73-.13,2.31,2.31,0,0,0-.62.43,7.59,7.59,0,0,0-.89,1,22.67,22.67,0,0,0-1.65,2.41c-1.09,1.69-2,3.5-3,5.31-1.77,3.35-3.5,6.77-5.35,10.17q10.89-2.72,21.89-5,3-.63,6.08-1.21c-2.52-2.33-5-4.67-7.48-6.93C274.39,235,272.87,233.66,271.27,232.47Z"/><path fill="#fff"  d="M400.86,230.35c-1.06-3-2.09-6-3.4-8.89a25.86,25.86,0,0,0-2.15-4A6,6,0,0,0,394,216a1.13,1.13,0,0,0-.47-.23.88.88,0,0,0-.44.07,6.48,6.48,0,0,0-1.69.94,20.73,20.73,0,0,0-1.74,1.44c-1.14,1-2.21,2.19-3.3,3.34-2.16,2.32-4.18,4.8-6.22,7.27-3.81,4.69-2,2.21-5.77,7,1.16.05-3.21-.13-2.06-.06a175.6,175.6,0,0,1,23.77,2.83c2,.41,3.92.75,5.85,1.28l2.43.62C402.69,235.05,402.8,236.15,400.86,230.35Z"/><path fill="#fff"  d="M295.92,235.22a4.23,4.23,0,0,0-1-.56c-.12,0-.21-.06-.21,0s0,0-.06,0a4.54,4.54,0,0,0-.77.66c-.29.31-.59.67-.89,1-.58.76-1.15,1.58-1.73,2.41-.82,1.17-1.64,2.37-2.55,3.55q6-1.08,12.09-2l.12,0c-1-1.05-2-2.1-2.93-3.09A20.67,20.67,0,0,0,295.92,235.22Z"/><path fill="#fff"  d="M346.48,213c1.74-4.48-10.08-8.82-13.86-2.83C329.75,214.7,344.27,218.67,346.48,213Z"/><path d="M413.44,243.23c-1.88-.66-3.8-1.21-5.69-1.83l-1.38-.4-1.3-.36c-.19-1.74-.29-2.88-.39-3.75-.24-2.31-.37-2.7-1.55-7.22a79,79,0,0,0-3-9.35,28.32,28.32,0,0,0-2.35-4.53,9,9,0,0,0-1.92-2.16,4.27,4.27,0,0,0-1.7-.8,3.71,3.71,0,0,0-1.93.18,9.36,9.36,0,0,0-2.51,1.41,23.09,23.09,0,0,0-2,1.67,44.61,44.61,0,0,0-3.42,3.61c-2.12,2.51-4.1,5.08-6,7.75-2.21,3.15-2.67,3.49-3.42,4.63-.44.69-1,1.65-2.07,3.68l-2.69-.1c-6.71-.2-15.83-.3-21.75-.11-4.91.19-9.82.49-14.72.86l-.59-7.11c7.85-1,19.6-7.09,23.53-13.63,1.58-2.62,1.83-5.22.75-7.52-3.4-7.23-18.09-9-30.83-7s-21,7.11-21.89,13.7h0c-.22,1.64.47,3.34,2.05,5.06,4.47,4.87,15.59,9.33,23.39,9.55l.6,7.21q-3.07.26-6.15.56-11.37,1.22-22.68,2.92a22.07,22.07,0,0,0-2.06-4.34,13.76,13.76,0,0,0-2.08-2.65,6.12,6.12,0,0,0-1.63-1.15,3.45,3.45,0,0,0-1.3-.31,2.59,2.59,0,0,0-.78.08,5.05,5.05,0,0,0-.66.25,5.37,5.37,0,0,0-1.62,1.3,10.24,10.24,0,0,0-1.06,1.39,17.56,17.56,0,0,0-1.52,2.91,21.93,21.93,0,0,0-1.42,4.91l-3.73.7a69,69,0,0,0-6.45-8.44,45.66,45.66,0,0,0-4.53-4.48,19.62,19.62,0,0,0-2.69-2,9.72,9.72,0,0,0-1.65-.79,4.32,4.32,0,0,0-2.32-.24,4.23,4.23,0,0,0-2,1.15,12.05,12.05,0,0,0-1.19,1.34,26.76,26.76,0,0,0-1.81,2.77,53.52,53.52,0,0,0-2.69,5.76,69.37,69.37,0,0,0-3.48,11.25q-12.14,3-24.07,6.75c7.75-1.8,15.5-3.53,23.29-5.05s15.58-3.06,23.39-4.44c15.62-2.73,31.31-5,47.07-6.64a373.64,373.64,0,0,1,47.4-2.08l5.93.22,5.91.41c2,.09,3.94.37,5.91.56l2.95.32,2.93.43a122.9,122.9,0,0,1,23.11,5.4Zm-136.11,1.3q-11,2.25-21.89,5c1.85-3.4,3.58-6.82,5.35-10.17,1-1.81,1.93-3.62,3-5.31a22.67,22.67,0,0,1,1.65-2.41,7.59,7.59,0,0,1,.89-1,2.31,2.31,0,0,1,.62-.43,1.75,1.75,0,0,1,.73.13,7.29,7.29,0,0,1,1.16.53,21.39,21.39,0,0,1,2.41,1.6c1.6,1.19,3.12,2.56,4.66,3.92,2.5,2.26,5,4.6,7.48,6.93Q280.37,243.91,277.33,244.53Zm23.51-4.26q-6.06,1-12.09,2c.91-1.18,1.73-2.38,2.55-3.55.58-.83,1.15-1.65,1.73-2.41.3-.37.6-.73.89-1a4.54,4.54,0,0,1,.77-.66c.09,0,.06,0,.06,0s.09,0,.21,0a4.23,4.23,0,0,1,1,.56,20.67,20.67,0,0,1,2.11,1.94c1,1,1.94,2,2.93,3.09Zm31.78-30.1c3.78-6,15.6-1.65,13.86,2.83C344.27,218.67,329.75,214.7,332.62,210.17Zm63.49,28.42a175.6,175.6,0,0,0-23.77-2.83c-1.15-.07,3.22.11,2.06.06,3.79-4.77,2-2.29,5.77-7,2-2.47,4.06-5,6.22-7.27,1.09-1.15,2.16-2.31,3.3-3.34a20.73,20.73,0,0,1,1.74-1.44,6.48,6.48,0,0,1,1.69-.94.88.88,0,0,1,.44-.07,1.13,1.13,0,0,1,.47.23,6,6,0,0,1,1.28,1.44,25.86,25.86,0,0,1,2.15,4c1.31,2.85,2.34,5.87,3.4,8.89,1.94,5.8,1.83,4.7,3.53,10.14l-2.43-.62C400,239.34,398.07,239,396.11,238.59Z"/>    </g></svg>