<!--  ~ Copyright (C) 2018 Baidu, Inc. All Rights Reserved.  --><svg viewBox="0 0 640 480" xmlns="http://www.w3.org/2000/svg">    <g id="back-ground-cl">        <rect fill="none" width="640" height="480" />        <ellipse opacity="0.1" cx="331.93" cy="418.82" rx="168.39" ry="32.01"/>    </g>    <g id="body">        <defs>            <clipPath id="outline">                <path fill="none"  d="M141.25,347.12c-1.63-1.74-3.22-3.51-4.74-5.37a31.86,31.86,0,0,1-4.09-6.12,9,9,0,0,1-.68-1.89,4.64,4.64,0,0,1,0-2.32,3.53,3.53,0,0,1,1.5-2.08,5.91,5.91,0,0,1,2-.82,15.6,15.6,0,0,1,3.81-.27,36,36,0,0,1,3.63.32,137.43,137.43,0,0,1,14,2.82l3.45.85,3.42.74,1.7.37.24,0c-.45-.53-.91-1.06-1.36-1.6a144.07,144.07,0,0,1-8.89-11.92A120.33,120.33,0,0,1,147.7,307,91,91,0,0,1,142.3,294a41.58,41.58,0,0,0-7.36,2.91,47.73,47.73,0,0,0-7.31,4.64,54.65,54.65,0,0,0-6.42,5.84,50.44,50.44,0,0,0-4.9,6.07c1,.71,1.92,1.43,2.85,2.17,1.17.93,2.32,1.88,3.44,2.87q3.38,2.93,6.48,6.17l2.09,2.17-2.95-.56a23.2,23.2,0,0,1-4.58-1.5c-1.44-.61-2.85-1.27-4.23-2-2.57-1.29-5.08-2.66-7.57-4.1a40.47,40.47,0,0,0-5.3,5.85,38.23,38.23,0,0,0-4.31,7.36A31,31,0,0,0,99.86,340a28.69,28.69,0,0,0,0,8.12,58,58,0,0,0,17.14,7.5,100,100,0,0,0,19,3,155.94,155.94,0,0,0,17.83.18A143,143,0,0,1,141.25,347.12Z"/><path fill="none"  d="M170.22,336l-3.55-.42-.89-.11-.88-.17-1.76-.33-3.51-.7-3.44-.81a138,138,0,0,0-13.78-2.61c-1.15-.14-2.29-.23-3.42-.26a13.45,13.45,0,0,0-3.22.22,3.65,3.65,0,0,0-1.24.48,1.18,1.18,0,0,0-.53.72,4.4,4.4,0,0,0,.58,2.6,29.91,29.91,0,0,0,3.8,5.6c1.47,1.79,3,3.52,4.65,5.22a134.93,134.93,0,0,0,45.77,31.82q4.41,1.92,8.95,3.54c-8-13.26-10.72-29.17-11.28-44.47A97,97,0,0,1,170.22,336Z"/><path fill="none"  d="M348.73,87c0-10.08-6.49-29-9.91-38.88-.47-1.35-.89-2.56-1.24-3.61a.64.64,0,0,0-.64-.46.62.62,0,0,0-.64.45l-.29.82c-3,8.56-10.13,28.74-10.41,40.2A81.16,81.16,0,0,1,348.73,87Z"/><path fill="none"  d="M490.79,222a42.37,42.37,0,0,0-5.73-3.15,68.75,68.75,0,0,0-12.5-4.26l-2.08-.49,1.88-1a6.54,6.54,0,0,0,3.12-3.22,3.76,3.76,0,0,0,.12-2.13,4.74,4.74,0,0,0-.41-1.06l-.26-.52-.34-.47a6,6,0,0,0-4-2.15,15.72,15.72,0,0,0-5,.19,44.84,44.84,0,0,0-9.74,3.15,91.28,91.28,0,0,0-9.2,4.67,79.37,79.37,0,0,1,6.95-4.12c-5.37-12.18-11.11-24.21-17.05-36.12C427,152.15,417,134.09,401.46,119c-13.82-13.37-30.72-24.13-49.5-28.87A77.51,77.51,0,0,0,294.16,98c-20,11.45-34.63,30.19-46.93,49.28a370.8,370.8,0,0,0-30.39,57.89c.95.41,1.9.84,2.84,1.29a79.71,79.71,0,0,1,9,5.16,91.44,91.44,0,0,0-9.21-4.67,44.58,44.58,0,0,0-9.73-3.15,15.72,15.72,0,0,0-5-.19,6,6,0,0,0-4,2.15l-.34.47-.26.52a5.32,5.32,0,0,0-.42,1.06,3.85,3.85,0,0,0,.13,2.13,6.54,6.54,0,0,0,3.12,3.22l1.88,1-2.08.49a69.11,69.11,0,0,0-12.51,4.26,42.86,42.86,0,0,0-5.72,3.15,19.79,19.79,0,0,0-4.73,4.22,9.6,9.6,0,0,0-2.2,5.49,9.34,9.34,0,0,0,.4,2.95,8.41,8.41,0,0,0,.49,1.44,8.93,8.93,0,0,0,5.18,5,12.87,12.87,0,0,0,3,.71,13.5,13.5,0,0,0,3,0l3.36-.35L190.68,244a52.57,52.57,0,0,0-8.27,10.9,27.77,27.77,0,0,0-2.61,6.21,18.22,18.22,0,0,0-.58,3.24,13.75,13.75,0,0,0,.15,3.21,12.15,12.15,0,0,0,2.81,5.7c1.39,1.66,3.14,3,5.08,3s4-1,5.76-2.29a42.21,42.21,0,0,0,5.09-4.59c3.23-3.34,6.25-6.94,9.33-10.49s6.2-7.08,9.52-10.44a90.72,90.72,0,0,1,10.67-9.29,53.66,53.66,0,0,1,12.29-6.9,58.36,58.36,0,0,0-11.87,7.45,96.44,96.44,0,0,0-10.18,9.62c-3.2,3.41-6.21,7-9.19,10.62s-5.9,7.3-9.12,10.8a44.06,44.06,0,0,1-4.28,4.13q-.79,3.79-1.52,7.62c-1.64,9-3,18.08-3.91,27.2-2.95,30.32-1.79,70.35,27.9,87.77a54.83,54.83,0,0,0,7,3.46c.75.3,2.36.54,2.87,1.3.84,1.26,0,2-1.08,2.7-2.47,1.51-14.62,3.19-13.7,6.89,1,4.22,11.93,4.52,15,4.78a152.3,152.3,0,0,0,17.49.29c1,0,2.06,0,3.12-.05.08-1.46.07-3,.08-4.48,0-1.92,0-3.87.06-5.79.06-3.86.16-7.7.17-11.53a149.87,149.87,0,0,0-1.41-22.92A56.43,56.43,0,0,0,244.61,361a30.88,30.88,0,0,0-2.5-5.14,18.41,18.41,0,0,0-3.66-4.4h0a18.64,18.64,0,0,1,4,4.21,30.09,30.09,0,0,1,2.8,5.1,56.9,56.9,0,0,1,3.33,11.14A136.93,136.93,0,0,1,250.68,395c.09,3.86.09,7.72.07,11.57,0,1.92,0,3.83,0,5.76s.06,3.86-.09,5.88a14,14,0,0,1-.55,3.08l-.13.38a3.83,3.83,0,0,1-.17.43,4.54,4.54,0,0,1-.45.81,6.24,6.24,0,0,1-1.2,1.3,11.64,11.64,0,0,1-2.73,1.64c-.91.43-1.82.79-2.68,1.16-1.7.71-3.39,1.6-3.76,2.76a2.44,2.44,0,0,0-.12,1,3.76,3.76,0,0,0,.07.55l.15.51a5,5,0,0,0,1.32,1.88,8.54,8.54,0,0,0,.79.65,5.52,5.52,0,0,1,.23-3.51,6.63,6.63,0,0,1,2.74-3.23,8.76,8.76,0,0,1,1.92-.77,14.88,14.88,0,0,1,1.85-.43,15.52,15.52,0,0,1,3.82-.25,16,16,0,0,1-3.21,2.08c-.54.29-1.16.53-1.65.78a15.73,15.73,0,0,0-1.47.69,8.5,8.5,0,0,0-2.32,2.06,11.15,11.15,0,0,0-1.72,3.08h0l.24-.2c.29.18.57.37.87.53a17,17,0,0,0,2.46,1.1,21.89,21.89,0,0,0,2.63.75,21.56,21.56,0,0,0,2.71.41c.59.06,1.18.09,1.76.12a2.53,2.53,0,0,1-.63-1.2,3.43,3.43,0,0,1,.21-2.07,7.25,7.25,0,0,1,2.45-2.89,10.86,10.86,0,0,1,3.17-1.64,7.93,7.93,0,0,1,3.56-.36c-.93.8-1.83,1.44-2.71,2.08l-2.56,1.88a15.8,15.8,0,0,0-2.24,1.87,3.35,3.35,0,0,0-.69,1.14,2.58,2.58,0,0,0-.07,1.55h0l.3-.31a47.63,47.63,0,0,0,8.69-.41A36.94,36.94,0,0,0,267,436a14.83,14.83,0,0,0,4.73-2.53,20.38,20.38,0,0,0,3.84-3.92,25.65,25.65,0,0,0,2.87-4.75,11.41,11.41,0,0,0,.53-1.27,12.37,12.37,0,0,0,.43-1.3c.27-.89.49-1.82.7-2.74.43-1.86.81-3.75,1.22-5.63.79-3.77,1.58-7.55,2.53-11.3a112.5,112.5,0,0,1,3.41-11.08,49.09,49.09,0,0,1,5.09-10.39L291,383.67c-.4.87-.78,1.75-1.17,2.63-.72,1.78-1.39,3.57-2,5.41a113,113,0,0,0-2.85,11.14c-.73,3.43-1.35,6.87-1.95,10.33a314.76,314.76,0,0,0,33,5.43c21.95,2.37,44.62,2.41,66.16-2.89q3.81-.95,7.55-2.11c-.61-3.64-.82-7.26-1.26-10.83-.22-1.8-.53-3.62-.82-5.44s-.58-3.63-1-5.41a31.91,31.91,0,0,0-1.75-5.18c-.66-1.72-1.27-3.46-1.87-5.2h0c.72,1.7,1.45,3.39,2.22,5.06a30.78,30.78,0,0,1,2,5.16c.49,1.8.86,3.6,1.25,5.4s.78,3.6,1.09,5.44c.61,3.66.93,7.33,1.68,10.87a30.8,30.8,0,0,0,1.5,5.15,27.22,27.22,0,0,0,2.44,4.74,20.4,20.4,0,0,0,7.56,7.1c.39.18.77.38,1.17.52l.6.24.61.18c.82.25,1.72.44,2.59.62a45.54,45.54,0,0,0,5.33.74,54.21,54.21,0,0,0,6,.1l.3.31a2.61,2.61,0,0,0-.07-1.56,3.45,3.45,0,0,0-.69-1.14,15.8,15.8,0,0,0-2.24-1.87l-2.56-1.88c-.88-.64-1.78-1.27-2.71-2.07a8.07,8.07,0,0,1,3.56.35,10.89,10.89,0,0,1,3.17,1.65,7.15,7.15,0,0,1,2.45,2.88,3.44,3.44,0,0,1,.21,2.07,2.53,2.53,0,0,1-.64,1.21,36.06,36.06,0,0,0,3.93-.42,20.46,20.46,0,0,0,4.93-1.6,13,13,0,0,0,1.59-.89l.23.2a11.21,11.21,0,0,0-1.72-3.09,8.5,8.5,0,0,0-2.32-2.06,15.73,15.73,0,0,0-1.47-.69c-.49-.25-1.11-.49-1.65-.78a16,16,0,0,1-3.21-2.08,16,16,0,0,1,3.82.26,12,12,0,0,1,1.85.43,8.24,8.24,0,0,1,1.92.76,6.67,6.67,0,0,1,2.74,3.23,5.51,5.51,0,0,1,.22,3.53,6.62,6.62,0,0,0,1.73-1.78,4,4,0,0,0,.62-2,2.58,2.58,0,0,0-.13-.94,2.16,2.16,0,0,0-.46-.8c-.87-1-2.58-1.72-4.25-2.37a20.92,20.92,0,0,1-5.25-2.55,7.28,7.28,0,0,1-1.2-1.16,8.61,8.61,0,0,1-.49-.77,4,4,0,0,1-.33-.86,7.6,7.6,0,0,1-.27-1.53c-.06-.51-.09-1-.11-1.46a111.25,111.25,0,0,1,.43-11.16c.28-3.69.66-7.36,1.1-11,.87-7.33,2-14.63,3.41-21.87.74-3.62,1.55-7.22,2.55-10.78.49-1.77,1-3.54,1.71-5.27a22.85,22.85,0,0,1,1.14-2.52,9,9,0,0,1,.73-1.19,3.94,3.94,0,0,1,.52-.64l.39-.39a5.8,5.8,0,0,0-.84,1.08,8.29,8.29,0,0,0-.63,1.22,22.64,22.64,0,0,0-1,2.57c-.56,1.74-1,3.51-1.43,5.3-.81,3.58-1.44,7.2-2,10.83-1.13,7.25-2,14.55-2.69,21.86-.34,3.65-.63,7.31-.86,11-.18,3.07-.33,6.17-.28,9.2,5.93.9,12.2.59,18.14.39a139.29,139.29,0,0,0,19-1.57c2.83-.49,3.2-.31,1.75-3-1.37-2.56-4.41-3.86-7-4.74-2.38-.8-4.85-1.21-7.28-1.83-1-.24-2.67-.48-3.21-1.5-.69-1.32.33-2,1.29-2.74,4.15-3,8.74-5.13,12.74-8.42a70.11,70.11,0,0,0,17.73-22c8.66-16.76,10.47-36.26,8.63-54.82a234.39,234.39,0,0,0-7.58-39.12c-.49-.5-1-1-1.44-1.52-3.22-3.5-6.14-7.18-9.13-10.8s-6-7.21-9.18-10.62a96.44,96.44,0,0,0-10.18-9.62,58.36,58.36,0,0,0-11.87-7.45,53.66,53.66,0,0,1,12.29,6.9,90.72,90.72,0,0,1,10.67,9.29c3.32,3.36,6.44,6.89,9.52,10.44s6.1,7.15,9.32,10.49a43.78,43.78,0,0,0,5.09,4.59c1.79,1.31,3.81,2.37,5.76,2.29s3.7-1.35,5.09-3a12.24,12.24,0,0,0,2.81-5.7,13.75,13.75,0,0,0,.15-3.21,18.22,18.22,0,0,0-.58-3.24,27.77,27.77,0,0,0-2.61-6.21,52.57,52.57,0,0,0-8.27-10.9l-2.36-2.41,3.36.35a13.5,13.5,0,0,0,3,0,12.87,12.87,0,0,0,3-.71,8.93,8.93,0,0,0,5.18-5,8.41,8.41,0,0,0,.49-1.44,9.34,9.34,0,0,0,.4-2.95,9.6,9.6,0,0,0-2.2-5.49A19.79,19.79,0,0,0,490.79,222Z"/><polygon fill="#725e47"  points="238.45 351.44 238.45 351.44 238.45 351.44 238.45 351.44"/><polygon fill="#725e47"  points="238.45 351.44 238.45 351.44 238.45 351.44 238.45 351.44"/><path d="M497.23,224.9a22,22,0,0,0-5.29-4.6,40.52,40.52,0,0,0-6.08-3.19,69.58,69.58,0,0,0-11.22-3.63,8.3,8.3,0,0,0,.69-.64,6.68,6.68,0,0,0,1.54-2.45,5.24,5.24,0,0,0,.09-3,6.53,6.53,0,0,0-.55-1.33c-.11-.21-.22-.42-.34-.63l-.43-.57a7.56,7.56,0,0,0-1-1l-.6-.39a2.5,2.5,0,0,0-.62-.34l-.65-.29-.67-.2a10.21,10.21,0,0,0-1.36-.26,16.83,16.83,0,0,0-5.31.42,45.43,45.43,0,0,0-9.62,3.54c-.94-2.11-1.88-4.23-2.83-6.33-5.38-11.89-11.09-23.62-17-35.27-5-9.84-9.93-19.56-16.41-28.51-11.52-15.93-26.34-29.79-43.66-39.21a99.24,99.24,0,0,0-25.59-9.74c.15-10.38-6.24-28.95-10-39.75-.46-1.35-.88-2.56-1.23-3.6A2.28,2.28,0,0,0,337,42.38h0a2.27,2.27,0,0,0-2.17,1.53l-.29.83c-3.34,9.44-10.3,29.17-10.49,40.92-.61.06-1.23.12-1.84.2-21.44,2.82-39.91,14.9-54.47,30.44-16.54,17.64-29.32,39.12-40.36,60.51q-6.93,13.44-12.77,27.42a35,35,0,0,0-4.64-1.41,16.87,16.87,0,0,0-5.32-.42,10.37,10.37,0,0,0-1.35.26l-.67.2-.65.29a2.5,2.5,0,0,0-.62.34l-.6.39a7.56,7.56,0,0,0-1,1l-.43.57c-.12.21-.23.42-.34.63a6.53,6.53,0,0,0-.55,1.33,5.15,5.15,0,0,0,.09,3,6.68,6.68,0,0,0,1.54,2.45c.22.23.45.44.68.64a69.79,69.79,0,0,0-11.21,3.63,40.52,40.52,0,0,0-6.08,3.19,21.79,21.79,0,0,0-5.29,4.6,11,11,0,0,0-2.33,10.41,10.62,10.62,0,0,0,.57,1.73,9.58,9.58,0,0,0,.84,1.66,11.27,11.27,0,0,0,5.65,4.68,15.06,15.06,0,0,0,3.53.87l.7.07q-1.45,1.62-2.79,3.35a48,48,0,0,0-4,6,30.45,30.45,0,0,0-2.79,6.76,20.64,20.64,0,0,0-.64,3.69,15.65,15.65,0,0,0,.2,3.8,14.19,14.19,0,0,0,3.37,6.77,12.53,12.53,0,0,0,2.9,2.55,7.5,7.5,0,0,0,3.88,1.19,9,9,0,0,0,3.88-.86,13.85,13.85,0,0,0,1.27-.66c-.33,1.63-.64,3.26-.95,4.89-3.17,17.45-5.49,35.24-5,53a94.62,94.62,0,0,1-16-.69l-3.47-.49-.28,0c-.63-.78-1.27-1.56-1.89-2.35-3-3.89-6-7.87-8.62-12a120,120,0,0,1-7.26-12.83,89.37,89.37,0,0,1-5.35-13.68l-.22-.73-.75.19a41.65,41.65,0,0,0-8.41,3.17,49.49,49.49,0,0,0-7.61,4.76,56.57,56.57,0,0,0-6.66,6,50.11,50.11,0,0,0-5.64,7l-.47.71.73.52c1.16.83,2.33,1.73,3.47,2.65s2.26,1.86,3.36,2.83,2.41,2.19,3.57,3.32l-.56-.22c-1.39-.58-2.77-1.22-4.13-1.89-2.73-1.35-5.43-2.8-8.07-4.32l-.57-.33-.48.41a41.77,41.77,0,0,0-10.5,14.35,32.6,32.6,0,0,0-2.44,8.61,30.3,30.3,0,0,0,.09,9l0,.35.3.2a58.6,58.6,0,0,0,18,7.64,101.73,101.73,0,0,0,19.3,2.78,146.09,146.09,0,0,0,18.6-.28c2.7,2.18,5.48,4.26,8.37,6.18,2,1.36,4,2.59,6,3.85s4.1,2.41,6.22,3.49,4.24,2.17,6.38,3.2,4.33,1.95,6.54,2.82c3.63,1.47,7.33,2.8,11.06,4a52.68,52.68,0,0,0,20.45,18.24c.92.46,1.85.89,2.79,1.3a8.08,8.08,0,0,0,1.25.53l.49.2c-.49.16-1,.36-1.45.52-1.7.59-3.42,1.12-5.11,1.73-3.31,1.18-9.12,3.11-6.74,7.74,2.05,4,8.63,4.74,12.48,5.27a123.86,123.86,0,0,0,19.35.87c1.42,0,3.5.11,5.55,0a11.11,11.11,0,0,1-.29,1.17,3.58,3.58,0,0,1-.45,1,4.41,4.41,0,0,1-.76.81,21.09,21.09,0,0,1-4.85,2.41,17.24,17.24,0,0,0-2.77,1.41,5.53,5.53,0,0,0-2.32,2.74,6.26,6.26,0,0,0,2,6.48,12.12,12.12,0,0,0,2.61,1.84,18.91,18.91,0,0,0,2.81,1.24,23.18,23.18,0,0,0,2.93.82,24.52,24.52,0,0,0,3,.44,49.13,49.13,0,0,0,11.81-.33,38.87,38.87,0,0,0,5.81-1.31,17.28,17.28,0,0,0,5.37-3,25.06,25.06,0,0,0,7.12-9.57,14.75,14.75,0,0,0,.55-1.41,14,14,0,0,0,.44-1.45c.26-1,.46-1.91.66-2.87.29-1.43.55-2.86.81-4.29l.3.07c22.74,4.89,46.18,7.77,69.47,6.66a158.82,158.82,0,0,0,31.66-4.54c2.08-.53,4.14-1.13,6.19-1.78a28.59,28.59,0,0,0,3.45,8.39,21.75,21.75,0,0,0,8.19,8c.44.21.87.45,1.34.62l.68.28.71.22c.94.3,1.84.5,2.76.72a48.37,48.37,0,0,0,5.59.85,45.35,45.35,0,0,0,11.33-.32,22.76,22.76,0,0,0,5.54-1.76,14.59,14.59,0,0,0,2.58-1.55,8.47,8.47,0,0,0,2.18-2.31,6.66,6.66,0,0,0,1-3.22,4.9,4.9,0,0,0-1.17-3.36,8,8,0,0,0-2.59-1.91,28.06,28.06,0,0,0-2.65-1.13,18.89,18.89,0,0,1-4.67-2.19,4.72,4.72,0,0,1-.79-.75,2.17,2.17,0,0,1-.42-.81,7,7,0,0,1-.21-1.18c0-.17,0-.35,0-.53l1.21.13a142.74,142.74,0,0,0,21.19.05c5.56-.29,11.6-.36,17-1.79,4.09-1.08,2.58-5.48.27-8-3.66-4-9.54-4.72-14.51-6a4.42,4.42,0,0,1-.48-.15c.34-.21.64-.43.79-.51q2.13-1.2,4.2-2.52a75.15,75.15,0,0,0,11.24-8.8c13.4-12.74,20.75-30.16,23-48.32,2.66-21.2-1.42-42.6-6.74-63.09l.74.59a16.65,16.65,0,0,0,3.21,2,9,9,0,0,0,3.88.86,7.5,7.5,0,0,0,3.88-1.19,12.53,12.53,0,0,0,2.9-2.55,14.19,14.19,0,0,0,3.37-6.77,16.72,16.72,0,0,0,.2-3.8,20.64,20.64,0,0,0-.64-3.69,30,30,0,0,0-2.8-6.76,46.83,46.83,0,0,0-4-6q-1.33-1.72-2.79-3.35l.7-.07a15.19,15.19,0,0,0,3.53-.87,11.27,11.27,0,0,0,5.65-4.68A9.53,9.53,0,0,0,499,237a9.77,9.77,0,0,0,.58-1.73,11,11,0,0,0-2.33-10.41,336,45.28l.29-.82a.62.62,0,0,1,.64-.45.64.64,0,0,1,.64.46c.35,1.05.77,2.26,1.24,3.61,3.42,9.91,9.93,28.8,9.91,38.88a81.16,81.16,0,0,0-23.13-1.48C325.88,74,333,53.84,336,45.28,136,358.7a100,100,0,0,1-19-3,58,58,0,0,1-17.14-7.5,28.69,28.69,0,0,1,0-8.12,31,31,0,0,1,2.37-8.15,38.23,38.23,0,0,1,4.31-7.36,40.47,40.47,0,0,1,5.3-5.85c2.49,1.44,5,2.81,7.57,4.1,1.38.69,2.79,1.35,4.23,2a23.2,23.2,0,0,0,4.58,1.5l2.95.56-2.09-2.17q-3.11-3.24-6.48-6.17c-1.12-1-2.27-1.94-3.44-2.87-.93-.74-1.88-1.46-2.85-2.17a50.44,50.44,0,0,1,4.9-6.07,54.65,54.65,0,0,1,6.42-5.84,47.73,47.73,0,0,1,7.31-4.64A41.58,41.58,0,0,1,142.3,294,91,91,0,0,0,147.7,307a120.33,120.33,0,0,0,7.54,12.85,144.07,144.07,0,0,0,8.89,11.92c.45.54.91,1.07,1.36,1.6l-.24,0-1.7-.37-3.42-.74-3.45-.85a137.43,137.43,0,0,0-14-2.82,36,36,0,0,0-3.63-.32,15.6,15.6,0,0,0-3.81.27,5.91,5.91,0,0,0-2,.82,3.53,3.53,0,0,0-1.5,2.08,4.64,4.64,0,0,0,0,2.32,9,9,0,0,0,.68,1.89,31.86,31.86,0,0,0,4.09,6.12c1.52,1.86,3.11,3.63,4.74,5.37a143,143,0,0,0,12.6,11.76A155.94,155.94,0,0,1,136,358.7,52.78,18.56A134.93,134.93,0,0,1,143,345.44c-1.61-1.7-3.18-3.43-4.65-5.22a29.91,29.91,0,0,1-3.8-5.6A4.4,4.4,0,0,1,134,332a1.18,1.18,0,0,1,.53-.72,3.65,3.65,0,0,1,1.24-.48,13.45,13.45,0,0,1,3.22-.22c1.13,0,2.27.12,3.42.26a138,138,0,0,1,13.78,2.61l3.44.81,3.51.7,1.76.33.88.17.89.11,3.55.42a97,97,0,0,0,16.25.32c.56,15.3,3.29,31.21,11.28,44.47Q193.22,379.18,188.8,377.26,497.32,234.7a8.41,8.41,0,0,1-.49,1.44,8.93,8.93,0,0,1-5.18,5,12.87,12.87,0,0,1-3,.71,13.5,13.5,0,0,1-3,0l-3.36-.35,2.36,2.41a52.57,52.57,0,0,1,8.27,10.9,27.77,27.77,0,0,1,2.61,6.21,18.22,18.22,0,0,1,.58,3.24,13.75,13.75,0,0,1-.15,3.21,12.24,12.24,0,0,1-2.81,5.7c-1.39,1.66-3.14,3-5.09,3s-4-1-5.76-2.29a43.78,43.78,0,0,1-5.09-4.59c-3.22-3.34-6.24-6.94-9.32-10.49s-6.2-7.08-9.52-10.44a90.72,90.72,0,0,0-10.67-9.29,53.66,53.66,0,0,0-12.29-6.9,58.36,58.36,0,0,1,11.87,7.45,96.44,96.44,0,0,1,10.18,9.62c3.2,3.41,6.21,7,9.18,10.62s5.91,7.3,9.13,10.8c.47.51.95,1,1.44,1.52a234.39,234.39,0,0,1,7.58,39.12c1.84,18.56,0,38.06-8.63,54.82a70.11,70.11,0,0,1-17.73,22c-4,3.29-8.59,5.43-12.74,8.42-1,.7-2,1.42-1.29,2.74.54,1,2.24,1.26,3.21,1.5,2.43.62,4.9,1,7.28,1.83,2.61.88,5.65,2.18,7,4.74,1.45,2.72,1.08,2.54-1.75,3a139.29,139.29,0,0,1-19,1.57c-5.94.2-12.21.51-18.14-.39-.05-3,.1-6.13.28-9.2.23-3.65.52-7.31.86-11,.71-7.31,1.56-14.61,2.69-21.86.56-3.63,1.19-7.25,2-10.83.4-1.79.87-3.56,1.43-5.3a22.64,22.64,0,0,1,1-2.57,8.29,8.29,0,0,1,.63-1.22,5.8,5.8,0,0,1,.84-1.08l-.39.39a3.94,3.94,0,0,0-.52.64,9,9,0,0,0-.73,1.19,22.85,22.85,0,0,0-1.14,2.52c-.67,1.73-1.22,3.5-1.71,5.27-1,3.56-1.81,7.16-2.55,10.78-1.43,7.24-2.54,14.54-3.41,21.87-.44,3.66-.82,7.33-1.1,11a111.25,111.25,0,0,0-.43,11.16c0,.47.05.95.11,1.46a7.6,7.6,0,0,0,.27,1.53,4,4,0,0,0,.33.86,8.61,8.61,0,0,0,.49.77,7.28,7.28,0,0,0,1.2,1.16,20.92,20.92,0,0,0,5.25,2.55c1.67.65,3.38,1.34,4.25,2.37a2.16,2.16,0,0,1,.46.8,2.58,2.58,0,0,1,.13.94,4,4,0,0,1-.62,2,6.62,6.62,0,0,1-1.73,1.78,5.51,5.51,0,0,0-.22-3.53,6.67,6.67,0,0,0-2.74-3.23,8.24,8.24,0,0,0-1.92-.76,12,12,0,0,0-1.85-.43,16,16,0,0,0-3.82-.26,16,16,0,0,0,3.21,2.08c.54.29,1.16.53,1.65.78a15.73,15.73,0,0,1,1.47.69,8.5,8.5,0,0,1,2.32,2.06,11.21,11.21,0,0,1,1.72,3.09l-.23-.2a13,13,0,0,1-1.59.89,20.46,20.46,0,0,1-4.93,1.6,36.06,36.06,0,0,1-3.93.42,2.53,2.53,0,0,0,.64-1.21,3.44,3.44,0,0,0-.21-2.07,7.15,7.15,0,0,0-2.45-2.88,10.89,10.89,0,0,0-3.17-1.65,8.07,8.07,0,0,0-3.56-.35c.93.8,1.83,1.43,2.71,2.07l2.56,1.88a15.8,15.8,0,0,1,2.24,1.87,3.45,3.45,0,0,1,.69,1.14,2.61,2.61,0,0,1,.07,1.56l-.3-.31a54.21,54.21,0,0,1-6-.1,45.54,45.54,0,0,1-5.33-.74c-.87-.18-1.77-.37-2.59-.62l-.61-.18-.6-.24c-.4-.14-.78-.34-1.17-.52a20.4,20.4,0,0,1-7.56-7.1,27.22,27.22,0,0,1-2.44-4.74,30.8,30.8,0,0,1-1.5-5.15c-.75-3.54-1.07-7.21-1.68-10.87-.31-1.84-.71-3.64-1.09-5.44s-.76-3.6-1.25-5.4a30.78,30.78,0,0,0-2-5.16c-.77-1.67-1.5-3.36-2.22-5.06h0c.6,1.74,1.21,3.48,1.87,5.2a31.91,31.91,0,0,1,1.75,5.18c.39,1.78.67,3.6,1,5.41s.6,3.64.82,5.44c.44,3.57.65,7.19,1.26,10.83q-3.74,1.17-7.55,2.11c-21.54,5.3-44.21,5.26-66.16,2.89a314.76,314.76,0,0,1-33-5.43c.6-3.46,1.22-6.9,1.95-10.33a113,113,0,0,1,2.85-11.14c.57-1.84,1.24-3.63,2-5.41.39-.88.77-1.76,1.17-2.63l1.35-2.56a49.09,49.09,0,0,0-5.09,10.39,112.5,112.5,0,0,0-3.41,11.08c-.95,3.75-1.74,7.53-2.53,11.3-.41,1.88-.79,3.77-1.22,5.63-.21.92-.43,1.85-.7,2.74a12.37,12.37,0,0,1-.43,1.3,11.41,11.41,0,0,1-.53,1.27,25.65,25.65,0,0,1-2.87,4.75,20.38,20.38,0,0,1-3.84,3.92A14.83,14.83,0,0,1,267,436a36.94,36.94,0,0,1-5.46,1.14,47.63,47.63,0,0,1-8.69.41l-.3.31h0a2.58,2.58,0,0,1,.07-1.55,3.35,3.35,0,0,1,.69-1.14,15.8,15.8,0,0,1,2.24-1.87l2.56-1.88c.88-.64,1.78-1.28,2.71-2.08a7.93,7.93,0,0,0-3.56.36,10.86,10.86,0,0,0-3.17,1.64,7.25,7.25,0,0,0-2.45,2.89,3.43,3.43,0,0,0-.21,2.07,2.53,2.53,0,0,0,.63,1.2c-.58,0-1.17-.06-1.76-.12a21.56,21.56,0,0,1-2.71-.41,21.89,21.89,0,0,1-2.63-.75,17,17,0,0,1-2.46-1.1c-.3-.16-.58-.35-.87-.53l-.24.2h0a11.15,11.15,0,0,1,1.72-3.08,8.5,8.5,0,0,1,2.32-2.06,15.73,15.73,0,0,1,1.47-.69c.49-.25,1.11-.49,1.65-.78a16,16,0,0,0,3.21-2.08,15.52,15.52,0,0,0-3.82.25,14.88,14.88,0,0,0-1.85.43,8.76,8.76,0,0,0-1.92.77,6.63,6.63,0,0,0-2.74,3.23,5.52,5.52,0,0,0-.23,3.51,8.54,8.54,0,0,1-.79-.65,5,5,0,0,1-1.32-1.88l-.15-.51a3.76,3.76,0,0,1-.07-.55,2.44,2.44,0,0,1,.12-1c.37-1.16,2.06-2,3.76-2.76.86-.37,1.77-.73,2.68-1.16a11.64,11.64,0,0,0,2.73-1.64,6.24,6.24,0,0,0,1.2-1.3,4.54,4.54,0,0,0,.45-.81,3.83,3.83,0,0,0,.17-.43l.13-.38a14,14,0,0,0,.55-3.08c.15-2,.1-3.95.09-5.88s0-3.84,0-5.76c0-3.85,0-7.71-.07-11.57a136.93,136.93,0,0,0-2.14-23.11,56.9,56.9,0,0,0-3.33-11.14,30.09,30.09,0,0,0-2.8-5.1,18.64,18.64,0,0,0-4-4.21h0a18.41,18.41,0,0,1,3.66,4.4,30.88,30.88,0,0,1,2.5,5.14,56.43,56.43,0,0,1,2.76,11.11A149.87,149.87,0,0,1,248.78,395c0,3.83-.11,7.67-.17,11.53,0,1.92-.05,3.87-.06,5.79,0,1.51,0,3-.08,4.48-1.06,0-2.14,0-3.12.05a152.3,152.3,0,0,1-17.49-.29c-3.09-.26-14-.56-15-4.78-.92-3.7,11.23-5.38,13.7-6.89,1.07-.66,1.92-1.44,1.08-2.7-.51-.76-2.12-1-2.87-1.3a54.83,54.83,0,0,1-7-3.46C188.06,380,186.9,340,189.85,309.68c.89-9.12,2.27-18.19,3.91-27.2q.72-3.83,1.52-7.62a44.06,44.06,0,0,0,4.28-4.13c3.22-3.5,6.14-7.18,9.12-10.8s6-7.21,9.19-10.62a96.44,96.44,0,0,1,10.18-9.62,58.36,58.36,0,0,1,11.87-7.45,53.66,53.66,0,0,0-12.29,6.9A90.72,90.72,0,0,0,217,248.43c-3.32,3.36-6.44,6.89-9.52,10.44s-6.1,7.15-9.33,10.49A42.21,42.21,0,0,1,193,274c-1.78,1.31-3.81,2.37-5.76,2.29s-3.69-1.35-5.08-3a12.15,12.15,0,0,1-2.81-5.7,13.75,13.75,0,0,1-.15-3.21,18.22,18.22,0,0,1,.58-3.24,27.77,27.77,0,0,1,2.61-6.21,52.57,52.57,0,0,1,8.27-10.9l2.36-2.41-3.36.35a13.5,13.5,0,0,1-3,0,12.87,12.87,0,0,1-3-.71,8.93,8.93,0,0,1-5.18-5,8.41,8.41,0,0,1-.49-1.44,9.34,9.34,0,0,1-.4-2.95,9.6,9.6,0,0,1,2.2-5.49,19.79,19.79,0,0,1,4.73-4.22,42.86,42.86,0,0,1,5.72-3.15,69.11,69.11,0,0,1,12.51-4.26l2.08-.49-1.88-1a6.54,6.54,0,0,1-3.12-3.22,3.85,3.85,0,0,1-.13-2.13,5.32,5.32,0,0,1,.42-1.06l.26-.52.34-.47a6,6,0,0,1,4-2.15,15.72,15.72,0,0,1,5,.19,44.58,44.58,0,0,1,9.73,3.15,91.44,91.44,0,0,1,9.21,4.67,79.71,79.71,0,0,0-9-5.16c-.94-.45-1.89-.88-2.84-1.29a370.8,370.8,0,0,1,30.39-57.89c12.3-19.09,26.9-37.83,46.93-49.28A77.51,77.51,0,0,1,352,90.15c18.78,4.74,35.68,15.5,49.5,28.87,15.58,15.07,25.53,33.13,35.1,52.33,5.94,11.91,11.68,23.94,17.05,36.12a79.37,79.37,0,0,0-6.95,4.12,91.28,91.28,0,0,1,9.2-4.67,44.84,44.84,0,0,1,9.74-3.15,15.72,15.72,0,0,1,5-.19,6,6,0,0,1,4,2.15l.34.47.26.52a4.74,4.74,0,0,1,.41,1.06,3.76,3.76,0,0,1-.12,2.13,6.54,6.54,0,0,1-3.12,3.22l-1.88,1,2.08.49a68.75,68.75,0,0,1,12.5,4.26,42.37,42.37,0,0,1,5.73,3.15,19.79,19.79,0,0,1,4.73,4.22,9.6,9.6,0,0,1,2.2,5.49A9.34,9.34,0,0,1,497.32,234.7Z"/>            </clipPath>        </defs>        <g clip-path="url(#outline)">            <rect fill="#FCFBFA" width="640" height="480" />        </g>    </g>    <g id="pattern">        <g clip-path="url(#outline)">            <path fill="#435055"  d="M348.18,92.92c11.09-4.18,21.41,1,30.77,6.67a129.47,129.47,0,0,1,36.11,33.23c9.51,12.82,16.21,27.29,23.55,41.38.36.71.73,1.42,1.11,2.12.75,1.44-6.79,7.19-7.8,7.93a21.15,21.15,0,0,1-9.2,3.71c-8,1.35-16.19-.17-23.73-2.74a91.74,91.74,0,0,1-37.57-24.84c-11.13-12.1-20.73-26.88-23.71-43.14a32.05,32.05,0,0,1-.23-12.11A16.23,16.23,0,0,1,348.18,92.92Z"/><path fill="#435055"  d="M316.14,93c-3.78-1.06-7.37-1.64-11.24-.53-15,4.3-27.49,15.46-37.84,26.67a236.48,236.48,0,0,0-29.46,40.21c-3.5,5.91-6.82,11.92-10,18-.76,1.44,4.79,6.21,5.8,6.95a21.15,21.15,0,0,0,9.2,3.71c8,1.35,16.19-.17,23.73-2.74a91.74,91.74,0,0,0,37.57-24.84c11.13-12.1,20.73-26.88,23.7-43.14a31.65,31.65,0,0,0,.23-12.11A15.66,15.66,0,0,0,316.14,93Z"/>            <g opacity="0.6" ><path fill="#95C6C1"  d="M285,417.33c1-10.66,5.3-32.75,16.87-35.84,8.11-2.17,17.24-.57,25.51-.5s16.52-.1,24.76-.51c7.07-.36,16.84-1.51,21.65,1.37,10.43,6.23,13.81,25.56,14.56,36.62.07,1,.29-.59-1.2.13a30.14,30.14,0,0,1-6.76,2.1,172,172,0,0,1-45.93,4c-16.27-1-33.07-2.65-48-6.84"/></g>        </g>    </g>    <g id="mask">        <path d="M72,439c.15,0,.14-1,0-1s-.14,1,0,1Z"/><g opacity="0.1" ><path d="M486.73,334.73c.24,1.7-3.5,6.77-4.43,8.5-1.82,3.4-3.68,6.77-5.67,10.08a107.91,107.91,0,0,1-13.23,18.11,63.28,63.28,0,0,1-11.06,9.47,61.09,61.09,0,0,1-6.25,3.66,32,32,0,0,1-5.53,2.51c-3.47,1-5.72-1.83-7-4.65-4.77-10.47-4.28-21.77-1.73-32.76l-2.28,5c-3.06,11.12-4.07,22.09-5.51,33.54-.1.78-.69,1.39-.44,2.07-.35.21,0,1.48-.24,1.77-2.06,2.52-.95,10.74-1.07,13.94a.63.63,0,0,0,.1.45c.15.19,2.2-.5,2.44-.56a107.07,107.07,0,0,0,24.46-9.44A75.87,75.87,0,0,0,473.09,375c3.19-4.31,4.75-8.09,6.55-13.14C482.74,353.16,488,343.89,486.73,334.73Z"/></g><g opacity="0.1" ><path d="M249.93,400.22a5.25,5.25,0,0,1,.33-1.8c-17.26-5.7-30.25-18.64-37.74-35.07-4-8.82-6.13-18.92-6.18-30.42-.12-25.79,2.8-56.62,9.35-81.94-2.91,3.79-5.95,7.42-9.2,11s-6.64,7.69-11,10.33c-2.23,12.41-5.21,24.62-6.61,37.1-3.37,30.08-1.52,58.55,15.6,78.36,10,11.56,23.45,18.34,41.17,20.59,2.35.3,2.35.08,4.78.42C250.31,405.91,249.91,403.08,249.93,400.22Z"/></g><g opacity="0.1" ><path d="M245.18,148.87a631.52,631.52,0,0,0-29.66,56.38,44.72,44.72,0,0,1,12.88,6.16,6.72,6.72,0,0,1,.93.83c10.87-24.77,19.6-48.65,34.72-71.58,10.78-16.34,22.25-34,37.23-46.59C275.75,106.59,260.33,123.38,245.18,148.87Z"/></g><g opacity="0.1" ><path d="M390.11,411.46c-.7-9.29-.85-8.76-.85-8.76-2.14,1.45-7.5,3.68-12.8,4.91a157,157,0,0,1-19.42,3,226.23,226.23,0,0,1-41.23.28c-7.18-.58-14.36-1.21-21.45-2.44-1.84-.32-3.88-.87-5.15-2.3a10.92,10.92,0,0,1-2.33-5.54,18.82,18.82,0,0,1,.54-8.44c-2.74,7.49-4.3,15.42-5.74,22.84,1.35.3,5.69.6,7,.91,10.44,2.65,32.83,5.21,48,5.33,15.66.13,34.58.44,44.87-3.37,2.86-1.06,8-1.65,9.33-3.08C392.09,413.49,390.24,413.07,390.11,411.46Z"/></g>        <path d="M72,439c.15,0,.14-1,0-1s-.14,1,0,1Z"/><g opacity="0.1" ><path fill="#fff"  d="M410.36,127.82c-16.21-18.83-29.19-25-29.41-25.17,6.47,5.66,12.75,11.63,17.93,18.53,5.72,7.6,10.13,16.29,15,24.43,12.74,21.27,21.42,43.85,32.11,66.25a6,6,0,0,1,.63-.27,3.57,3.57,0,0,1,1-.61c.48-.17.49-.37,1-.55a18.44,18.44,0,0,1,1.86-1.16,11.92,11.92,0,0,1,4.14-2.06,16.83,16.83,0,0,0-.74-1.74C441,181.13,429.65,150.24,410.36,127.82Z"/></g><g opacity="0.1" ><path fill="#fff"  d="M481.79,290c-1.22-6.63-2.69-13.2-4.34-19.72a4.54,4.54,0,0,1-3.72-3.26,5.42,5.42,0,0,1-2.05-1.85c-1.95-3-3.33-6.21-5.94-7.87a5.28,5.28,0,0,1-2.25-3c-.65-.38-1.28-.76-1.88-1.19-.27-.19-.53-.39-.78-.59q4.65,14.6,8,29.58c2.75,12.34,4.9,24.81,6.59,37.33,1.4,10.34,4.07,22.69-2.47,31.88,4.28-6,9.86-10.61,11.34-14.65C489.55,322.28,484.47,304.48,481.79,290Z"/></g>    </g>    <g id="outline">        <path fill="none"  d="M141.25,347.12c-1.63-1.74-3.22-3.51-4.74-5.37a31.86,31.86,0,0,1-4.09-6.12,9,9,0,0,1-.68-1.89,4.64,4.64,0,0,1,0-2.32,3.53,3.53,0,0,1,1.5-2.08,5.91,5.91,0,0,1,2-.82,15.6,15.6,0,0,1,3.81-.27,36,36,0,0,1,3.63.32,137.43,137.43,0,0,1,14,2.82l3.45.85,3.42.74,1.7.37.24,0c-.45-.53-.91-1.06-1.36-1.6a144.07,144.07,0,0,1-8.89-11.92A120.33,120.33,0,0,1,147.7,307,91,91,0,0,1,142.3,294a41.58,41.58,0,0,0-7.36,2.91,47.73,47.73,0,0,0-7.31,4.64,54.65,54.65,0,0,0-6.42,5.84,50.44,50.44,0,0,0-4.9,6.07c1,.71,1.92,1.43,2.85,2.17,1.17.93,2.32,1.88,3.44,2.87q3.38,2.93,6.48,6.17l2.09,2.17-2.95-.56a23.2,23.2,0,0,1-4.58-1.5c-1.44-.61-2.85-1.27-4.23-2-2.57-1.29-5.08-2.66-7.57-4.1a40.47,40.47,0,0,0-5.3,5.85,38.23,38.23,0,0,0-4.31,7.36A31,31,0,0,0,99.86,340a28.69,28.69,0,0,0,0,8.12,58,58,0,0,0,17.14,7.5,100,100,0,0,0,19,3,155.94,155.94,0,0,0,17.83.18A143,143,0,0,1,141.25,347.12Z"/><path fill="none"  d="M170.22,336l-3.55-.42-.89-.11-.88-.17-1.76-.33-3.51-.7-3.44-.81a138,138,0,0,0-13.78-2.61c-1.15-.14-2.29-.23-3.42-.26a13.45,13.45,0,0,0-3.22.22,3.65,3.65,0,0,0-1.24.48,1.18,1.18,0,0,0-.53.72,4.4,4.4,0,0,0,.58,2.6,29.91,29.91,0,0,0,3.8,5.6c1.47,1.79,3,3.52,4.65,5.22a134.93,134.93,0,0,0,45.77,31.82q4.41,1.92,8.95,3.54c-8-13.26-10.72-29.17-11.28-44.47A97,97,0,0,1,170.22,336Z"/><path fill="none"  d="M348.73,87c0-10.08-6.49-29-9.91-38.88-.47-1.35-.89-2.56-1.24-3.61a.64.64,0,0,0-.64-.46.62.62,0,0,0-.64.45l-.29.82c-3,8.56-10.13,28.74-10.41,40.2A81.16,81.16,0,0,1,348.73,87Z"/><path fill="none"  d="M490.79,222a42.37,42.37,0,0,0-5.73-3.15,68.75,68.75,0,0,0-12.5-4.26l-2.08-.49,1.88-1a6.54,6.54,0,0,0,3.12-3.22,3.76,3.76,0,0,0,.12-2.13,4.74,4.74,0,0,0-.41-1.06l-.26-.52-.34-.47a6,6,0,0,0-4-2.15,15.72,15.72,0,0,0-5,.19,44.84,44.84,0,0,0-9.74,3.15,91.28,91.28,0,0,0-9.2,4.67,79.37,79.37,0,0,1,6.95-4.12c-5.37-12.18-11.11-24.21-17.05-36.12C427,152.15,417,134.09,401.46,119c-13.82-13.37-30.72-24.13-49.5-28.87A77.51,77.51,0,0,0,294.16,98c-20,11.45-34.63,30.19-46.93,49.28a370.8,370.8,0,0,0-30.39,57.89c.95.41,1.9.84,2.84,1.29a79.71,79.71,0,0,1,9,5.16,91.44,91.44,0,0,0-9.21-4.67,44.58,44.58,0,0,0-9.73-3.15,15.72,15.72,0,0,0-5-.19,6,6,0,0,0-4,2.15l-.34.47-.26.52a5.32,5.32,0,0,0-.42,1.06,3.85,3.85,0,0,0,.13,2.13,6.54,6.54,0,0,0,3.12,3.22l1.88,1-2.08.49a69.11,69.11,0,0,0-12.51,4.26,42.86,42.86,0,0,0-5.72,3.15,19.79,19.79,0,0,0-4.73,4.22,9.6,9.6,0,0,0-2.2,5.49,9.34,9.34,0,0,0,.4,2.95,8.41,8.41,0,0,0,.49,1.44,8.93,8.93,0,0,0,5.18,5,12.87,12.87,0,0,0,3,.71,13.5,13.5,0,0,0,3,0l3.36-.35L190.68,244a52.57,52.57,0,0,0-8.27,10.9,27.77,27.77,0,0,0-2.61,6.21,18.22,18.22,0,0,0-.58,3.24,13.75,13.75,0,0,0,.15,3.21,12.15,12.15,0,0,0,2.81,5.7c1.39,1.66,3.14,3,5.08,3s4-1,5.76-2.29a42.21,42.21,0,0,0,5.09-4.59c3.23-3.34,6.25-6.94,9.33-10.49s6.2-7.08,9.52-10.44a90.72,90.72,0,0,1,10.67-9.29,53.66,53.66,0,0,1,12.29-6.9,58.36,58.36,0,0,0-11.87,7.45,96.44,96.44,0,0,0-10.18,9.62c-3.2,3.41-6.21,7-9.19,10.62s-5.9,7.3-9.12,10.8a44.06,44.06,0,0,1-4.28,4.13q-.79,3.79-1.52,7.62c-1.64,9-3,18.08-3.91,27.2-2.95,30.32-1.79,70.35,27.9,87.77a54.83,54.83,0,0,0,7,3.46c.75.3,2.36.54,2.87,1.3.84,1.26,0,2-1.08,2.7-2.47,1.51-14.62,3.19-13.7,6.89,1,4.22,11.93,4.52,15,4.78a152.3,152.3,0,0,0,17.49.29c1,0,2.06,0,3.12-.05.08-1.46.07-3,.08-4.48,0-1.92,0-3.87.06-5.79.06-3.86.16-7.7.17-11.53a149.87,149.87,0,0,0-1.41-22.92A56.43,56.43,0,0,0,244.61,361a30.88,30.88,0,0,0-2.5-5.14,18.41,18.41,0,0,0-3.66-4.4h0a18.64,18.64,0,0,1,4,4.21,30.09,30.09,0,0,1,2.8,5.1,56.9,56.9,0,0,1,3.33,11.14A136.93,136.93,0,0,1,250.68,395c.09,3.86.09,7.72.07,11.57,0,1.92,0,3.83,0,5.76s.06,3.86-.09,5.88a14,14,0,0,1-.55,3.08l-.13.38a3.83,3.83,0,0,1-.17.43,4.54,4.54,0,0,1-.45.81,6.24,6.24,0,0,1-1.2,1.3,11.64,11.64,0,0,1-2.73,1.64c-.91.43-1.82.79-2.68,1.16-1.7.71-3.39,1.6-3.76,2.76a2.44,2.44,0,0,0-.12,1,3.76,3.76,0,0,0,.07.55l.15.51a5,5,0,0,0,1.32,1.88,8.54,8.54,0,0,0,.79.65,5.52,5.52,0,0,1,.23-3.51,6.63,6.63,0,0,1,2.74-3.23,8.76,8.76,0,0,1,1.92-.77,14.88,14.88,0,0,1,1.85-.43,15.52,15.52,0,0,1,3.82-.25,16,16,0,0,1-3.21,2.08c-.54.29-1.16.53-1.65.78a15.73,15.73,0,0,0-1.47.69,8.5,8.5,0,0,0-2.32,2.06,11.15,11.15,0,0,0-1.72,3.08h0l.24-.2c.29.18.57.37.87.53a17,17,0,0,0,2.46,1.1,21.89,21.89,0,0,0,2.63.75,21.56,21.56,0,0,0,2.71.41c.59.06,1.18.09,1.76.12a2.53,2.53,0,0,1-.63-1.2,3.43,3.43,0,0,1,.21-2.07,7.25,7.25,0,0,1,2.45-2.89,10.86,10.86,0,0,1,3.17-1.64,7.93,7.93,0,0,1,3.56-.36c-.93.8-1.83,1.44-2.71,2.08l-2.56,1.88a15.8,15.8,0,0,0-2.24,1.87,3.35,3.35,0,0,0-.69,1.14,2.58,2.58,0,0,0-.07,1.55h0l.3-.31a47.63,47.63,0,0,0,8.69-.41A36.94,36.94,0,0,0,267,436a14.83,14.83,0,0,0,4.73-2.53,20.38,20.38,0,0,0,3.84-3.92,25.65,25.65,0,0,0,2.87-4.75,11.41,11.41,0,0,0,.53-1.27,12.37,12.37,0,0,0,.43-1.3c.27-.89.49-1.82.7-2.74.43-1.86.81-3.75,1.22-5.63.79-3.77,1.58-7.55,2.53-11.3a112.5,112.5,0,0,1,3.41-11.08,49.09,49.09,0,0,1,5.09-10.39L291,383.67c-.4.87-.78,1.75-1.17,2.63-.72,1.78-1.39,3.57-2,5.41a113,113,0,0,0-2.85,11.14c-.73,3.43-1.35,6.87-1.95,10.33a314.76,314.76,0,0,0,33,5.43c21.95,2.37,44.62,2.41,66.16-2.89q3.81-.95,7.55-2.11c-.61-3.64-.82-7.26-1.26-10.83-.22-1.8-.53-3.62-.82-5.44s-.58-3.63-1-5.41a31.91,31.91,0,0,0-1.75-5.18c-.66-1.72-1.27-3.46-1.87-5.2h0c.72,1.7,1.45,3.39,2.22,5.06a30.78,30.78,0,0,1,2,5.16c.49,1.8.86,3.6,1.25,5.4s.78,3.6,1.09,5.44c.61,3.66.93,7.33,1.68,10.87a30.8,30.8,0,0,0,1.5,5.15,27.22,27.22,0,0,0,2.44,4.74,20.4,20.4,0,0,0,7.56,7.1c.39.18.77.38,1.17.52l.6.24.61.18c.82.25,1.72.44,2.59.62a45.54,45.54,0,0,0,5.33.74,54.21,54.21,0,0,0,6,.1l.3.31a2.61,2.61,0,0,0-.07-1.56,3.45,3.45,0,0,0-.69-1.14,15.8,15.8,0,0,0-2.24-1.87l-2.56-1.88c-.88-.64-1.78-1.27-2.71-2.07a8.07,8.07,0,0,1,3.56.35,10.89,10.89,0,0,1,3.17,1.65,7.15,7.15,0,0,1,2.45,2.88,3.44,3.44,0,0,1,.21,2.07,2.53,2.53,0,0,1-.64,1.21,36.06,36.06,0,0,0,3.93-.42,20.46,20.46,0,0,0,4.93-1.6,13,13,0,0,0,1.59-.89l.23.2a11.21,11.21,0,0,0-1.72-3.09,8.5,8.5,0,0,0-2.32-2.06,15.73,15.73,0,0,0-1.47-.69c-.49-.25-1.11-.49-1.65-.78a16,16,0,0,1-3.21-2.08,16,16,0,0,1,3.82.26,12,12,0,0,1,1.85.43,8.24,8.24,0,0,1,1.92.76,6.67,6.67,0,0,1,2.74,3.23,5.51,5.51,0,0,1,.22,3.53,6.62,6.62,0,0,0,1.73-1.78,4,4,0,0,0,.62-2,2.58,2.58,0,0,0-.13-.94,2.16,2.16,0,0,0-.46-.8c-.87-1-2.58-1.72-4.25-2.37a20.92,20.92,0,0,1-5.25-2.55,7.28,7.28,0,0,1-1.2-1.16,8.61,8.61,0,0,1-.49-.77,4,4,0,0,1-.33-.86,7.6,7.6,0,0,1-.27-1.53c-.06-.51-.09-1-.11-1.46a111.25,111.25,0,0,1,.43-11.16c.28-3.69.66-7.36,1.1-11,.87-7.33,2-14.63,3.41-21.87.74-3.62,1.55-7.22,2.55-10.78.49-1.77,1-3.54,1.71-5.27a22.85,22.85,0,0,1,1.14-2.52,9,9,0,0,1,.73-1.19,3.94,3.94,0,0,1,.52-.64l.39-.39a5.8,5.8,0,0,0-.84,1.08,8.29,8.29,0,0,0-.63,1.22,22.64,22.64,0,0,0-1,2.57c-.56,1.74-1,3.51-1.43,5.3-.81,3.58-1.44,7.2-2,10.83-1.13,7.25-2,14.55-2.69,21.86-.34,3.65-.63,7.31-.86,11-.18,3.07-.33,6.17-.28,9.2,5.93.9,12.2.59,18.14.39a139.29,139.29,0,0,0,19-1.57c2.83-.49,3.2-.31,1.75-3-1.37-2.56-4.41-3.86-7-4.74-2.38-.8-4.85-1.21-7.28-1.83-1-.24-2.67-.48-3.21-1.5-.69-1.32.33-2,1.29-2.74,4.15-3,8.74-5.13,12.74-8.42a70.11,70.11,0,0,0,17.73-22c8.66-16.76,10.47-36.26,8.63-54.82a234.39,234.39,0,0,0-7.58-39.12c-.49-.5-1-1-1.44-1.52-3.22-3.5-6.14-7.18-9.13-10.8s-6-7.21-9.18-10.62a96.44,96.44,0,0,0-10.18-9.62,58.36,58.36,0,0,0-11.87-7.45,53.66,53.66,0,0,1,12.29,6.9,90.72,90.72,0,0,1,10.67,9.29c3.32,3.36,6.44,6.89,9.52,10.44s6.1,7.15,9.32,10.49a43.78,43.78,0,0,0,5.09,4.59c1.79,1.31,3.81,2.37,5.76,2.29s3.7-1.35,5.09-3a12.24,12.24,0,0,0,2.81-5.7,13.75,13.75,0,0,0,.15-3.21,18.22,18.22,0,0,0-.58-3.24,27.77,27.77,0,0,0-2.61-6.21,52.57,52.57,0,0,0-8.27-10.9l-2.36-2.41,3.36.35a13.5,13.5,0,0,0,3,0,12.87,12.87,0,0,0,3-.71,8.93,8.93,0,0,0,5.18-5,8.41,8.41,0,0,0,.49-1.44,9.34,9.34,0,0,0,.4-2.95,9.6,9.6,0,0,0-2.2-5.49A19.79,19.79,0,0,0,490.79,222Z"/><polygon fill="#725e47"  points="238.45 351.44 238.45 351.44 238.45 351.44 238.45 351.44"/><polygon fill="#725e47"  points="238.45 351.44 238.45 351.44 238.45 351.44 238.45 351.44"/><path d="M497.23,224.9a22,22,0,0,0-5.29-4.6,40.52,40.52,0,0,0-6.08-3.19,69.58,69.58,0,0,0-11.22-3.63,8.3,8.3,0,0,0,.69-.64,6.68,6.68,0,0,0,1.54-2.45,5.24,5.24,0,0,0,.09-3,6.53,6.53,0,0,0-.55-1.33c-.11-.21-.22-.42-.34-.63l-.43-.57a7.56,7.56,0,0,0-1-1l-.6-.39a2.5,2.5,0,0,0-.62-.34l-.65-.29-.67-.2a10.21,10.21,0,0,0-1.36-.26,16.83,16.83,0,0,0-5.31.42,45.43,45.43,0,0,0-9.62,3.54c-.94-2.11-1.88-4.23-2.83-6.33-5.38-11.89-11.09-23.62-17-35.27-5-9.84-9.93-19.56-16.41-28.51-11.52-15.93-26.34-29.79-43.66-39.21a99.24,99.24,0,0,0-25.59-9.74c.15-10.38-6.24-28.95-10-39.75-.46-1.35-.88-2.56-1.23-3.6A2.28,2.28,0,0,0,337,42.38h0a2.27,2.27,0,0,0-2.17,1.53l-.29.83c-3.34,9.44-10.3,29.17-10.49,40.92-.61.06-1.23.12-1.84.2-21.44,2.82-39.91,14.9-54.47,30.44-16.54,17.64-29.32,39.12-40.36,60.51q-6.93,13.44-12.77,27.42a35,35,0,0,0-4.64-1.41,16.87,16.87,0,0,0-5.32-.42,10.37,10.37,0,0,0-1.35.26l-.67.2-.65.29a2.5,2.5,0,0,0-.62.34l-.6.39a7.56,7.56,0,0,0-1,1l-.43.57c-.12.21-.23.42-.34.63a6.53,6.53,0,0,0-.55,1.33,5.15,5.15,0,0,0,.09,3,6.68,6.68,0,0,0,1.54,2.45c.22.23.45.44.68.64a69.79,69.79,0,0,0-11.21,3.63,40.52,40.52,0,0,0-6.08,3.19,21.79,21.79,0,0,0-5.29,4.6,11,11,0,0,0-2.33,10.41,10.62,10.62,0,0,0,.57,1.73,9.58,9.58,0,0,0,.84,1.66,11.27,11.27,0,0,0,5.65,4.68,15.06,15.06,0,0,0,3.53.87l.7.07q-1.45,1.62-2.79,3.35a48,48,0,0,0-4,6,30.45,30.45,0,0,0-2.79,6.76,20.64,20.64,0,0,0-.64,3.69,15.65,15.65,0,0,0,.2,3.8,14.19,14.19,0,0,0,3.37,6.77,12.53,12.53,0,0,0,2.9,2.55,7.5,7.5,0,0,0,3.88,1.19,9,9,0,0,0,3.88-.86,13.85,13.85,0,0,0,1.27-.66c-.33,1.63-.64,3.26-.95,4.89-3.17,17.45-5.49,35.24-5,53a94.62,94.62,0,0,1-16-.69l-3.47-.49-.28,0c-.63-.78-1.27-1.56-1.89-2.35-3-3.89-6-7.87-8.62-12a120,120,0,0,1-7.26-12.83,89.37,89.37,0,0,1-5.35-13.68l-.22-.73-.75.19a41.65,41.65,0,0,0-8.41,3.17,49.49,49.49,0,0,0-7.61,4.76,56.57,56.57,0,0,0-6.66,6,50.11,50.11,0,0,0-5.64,7l-.47.71.73.52c1.16.83,2.33,1.73,3.47,2.65s2.26,1.86,3.36,2.83,2.41,2.19,3.57,3.32l-.56-.22c-1.39-.58-2.77-1.22-4.13-1.89-2.73-1.35-5.43-2.8-8.07-4.32l-.57-.33-.48.41a41.77,41.77,0,0,0-10.5,14.35,32.6,32.6,0,0,0-2.44,8.61,30.3,30.3,0,0,0,.09,9l0,.35.3.2a58.6,58.6,0,0,0,18,7.64,101.73,101.73,0,0,0,19.3,2.78,146.09,146.09,0,0,0,18.6-.28c2.7,2.18,5.48,4.26,8.37,6.18,2,1.36,4,2.59,6,3.85s4.1,2.41,6.22,3.49,4.24,2.17,6.38,3.2,4.33,1.95,6.54,2.82c3.63,1.47,7.33,2.8,11.06,4a52.68,52.68,0,0,0,20.45,18.24c.92.46,1.85.89,2.79,1.3a8.08,8.08,0,0,0,1.25.53l.49.2c-.49.16-1,.36-1.45.52-1.7.59-3.42,1.12-5.11,1.73-3.31,1.18-9.12,3.11-6.74,7.74,2.05,4,8.63,4.74,12.48,5.27a123.86,123.86,0,0,0,19.35.87c1.42,0,3.5.11,5.55,0a11.11,11.11,0,0,1-.29,1.17,3.58,3.58,0,0,1-.45,1,4.41,4.41,0,0,1-.76.81,21.09,21.09,0,0,1-4.85,2.41,17.24,17.24,0,0,0-2.77,1.41,5.53,5.53,0,0,0-2.32,2.74,6.26,6.26,0,0,0,2,6.48,12.12,12.12,0,0,0,2.61,1.84,18.91,18.91,0,0,0,2.81,1.24,23.18,23.18,0,0,0,2.93.82,24.52,24.52,0,0,0,3,.44,49.13,49.13,0,0,0,11.81-.33,38.87,38.87,0,0,0,5.81-1.31,17.28,17.28,0,0,0,5.37-3,25.06,25.06,0,0,0,7.12-9.57,14.75,14.75,0,0,0,.55-1.41,14,14,0,0,0,.44-1.45c.26-1,.46-1.91.66-2.87.29-1.43.55-2.86.81-4.29l.3.07c22.74,4.89,46.18,7.77,69.47,6.66a158.82,158.82,0,0,0,31.66-4.54c2.08-.53,4.14-1.13,6.19-1.78a28.59,28.59,0,0,0,3.45,8.39,21.75,21.75,0,0,0,8.19,8c.44.21.87.45,1.34.62l.68.28.71.22c.94.3,1.84.5,2.76.72a48.37,48.37,0,0,0,5.59.85,45.35,45.35,0,0,0,11.33-.32,22.76,22.76,0,0,0,5.54-1.76,14.59,14.59,0,0,0,2.58-1.55,8.47,8.47,0,0,0,2.18-2.31,6.66,6.66,0,0,0,1-3.22,4.9,4.9,0,0,0-1.17-3.36,8,8,0,0,0-2.59-1.91,28.06,28.06,0,0,0-2.65-1.13,18.89,18.89,0,0,1-4.67-2.19,4.72,4.72,0,0,1-.79-.75,2.17,2.17,0,0,1-.42-.81,7,7,0,0,1-.21-1.18c0-.17,0-.35,0-.53l1.21.13a142.74,142.74,0,0,0,21.19.05c5.56-.29,11.6-.36,17-1.79,4.09-1.08,2.58-5.48.27-8-3.66-4-9.54-4.72-14.51-6a4.42,4.42,0,0,1-.48-.15c.34-.21.64-.43.79-.51q2.13-1.2,4.2-2.52a75.15,75.15,0,0,0,11.24-8.8c13.4-12.74,20.75-30.16,23-48.32,2.66-21.2-1.42-42.6-6.74-63.09l.74.59a16.65,16.65,0,0,0,3.21,2,9,9,0,0,0,3.88.86,7.5,7.5,0,0,0,3.88-1.19,12.53,12.53,0,0,0,2.9-2.55,14.19,14.19,0,0,0,3.37-6.77,16.72,16.72,0,0,0,.2-3.8,20.64,20.64,0,0,0-.64-3.69,30,30,0,0,0-2.8-6.76,46.83,46.83,0,0,0-4-6q-1.33-1.72-2.79-3.35l.7-.07a15.19,15.19,0,0,0,3.53-.87,11.27,11.27,0,0,0,5.65-4.68A9.53,9.53,0,0,0,499,237a9.77,9.77,0,0,0,.58-1.73,11,11,0,0,0-2.33-10.41ZM336,45.28l.29-.82a.62.62,0,0,1,.64-.45.64.64,0,0,1,.64.46c.35,1.05.77,2.26,1.24,3.61,3.42,9.91,9.93,28.8,9.91,38.88a81.16,81.16,0,0,0-23.13-1.48C325.88,74,333,53.84,336,45.28ZM136,358.7a100,100,0,0,1-19-3,58,58,0,0,1-17.14-7.5,28.69,28.69,0,0,1,0-8.12,31,31,0,0,1,2.37-8.15,38.23,38.23,0,0,1,4.31-7.36,40.47,40.47,0,0,1,5.3-5.85c2.49,1.44,5,2.81,7.57,4.1,1.38.69,2.79,1.35,4.23,2a23.2,23.2,0,0,0,4.58,1.5l2.95.56-2.09-2.17q-3.11-3.24-6.48-6.17c-1.12-1-2.27-1.94-3.44-2.87-.93-.74-1.88-1.46-2.85-2.17a50.44,50.44,0,0,1,4.9-6.07,54.65,54.65,0,0,1,6.42-5.84,47.73,47.73,0,0,1,7.31-4.64A41.58,41.58,0,0,1,142.3,294,91,91,0,0,0,147.7,307a120.33,120.33,0,0,0,7.54,12.85,144.07,144.07,0,0,0,8.89,11.92c.45.54.91,1.07,1.36,1.6l-.24,0-1.7-.37-3.42-.74-3.45-.85a137.43,137.43,0,0,0-14-2.82,36,36,0,0,0-3.63-.32,15.6,15.6,0,0,0-3.81.27,5.91,5.91,0,0,0-2,.82,3.53,3.53,0,0,0-1.5,2.08,4.64,4.64,0,0,0,0,2.32,9,9,0,0,0,.68,1.89,31.86,31.86,0,0,0,4.09,6.12c1.52,1.86,3.11,3.63,4.74,5.37a143,143,0,0,0,12.6,11.76A155.94,155.94,0,0,1,136,358.7Zm52.78,18.56A134.93,134.93,0,0,1,143,345.44c-1.61-1.7-3.18-3.43-4.65-5.22a29.91,29.91,0,0,1-3.8-5.6A4.4,4.4,0,0,1,134,332a1.18,1.18,0,0,1,.53-.72,3.65,3.65,0,0,1,1.24-.48,13.45,13.45,0,0,1,3.22-.22c1.13,0,2.27.12,3.42.26a138,138,0,0,1,13.78,2.61l3.44.81,3.51.7,1.76.33.88.17.89.11,3.55.42a97,97,0,0,0,16.25.32c.56,15.3,3.29,31.21,11.28,44.47Q193.22,379.18,188.8,377.26ZM497.32,234.7a8.41,8.41,0,0,1-.49,1.44,8.93,8.93,0,0,1-5.18,5,12.87,12.87,0,0,1-3,.71,13.5,13.5,0,0,1-3,0l-3.36-.35,2.36,2.41a52.57,52.57,0,0,1,8.27,10.9,27.77,27.77,0,0,1,2.61,6.21,18.22,18.22,0,0,1,.58,3.24,13.75,13.75,0,0,1-.15,3.21,12.24,12.24,0,0,1-2.81,5.7c-1.39,1.66-3.14,3-5.09,3s-4-1-5.76-2.29a43.78,43.78,0,0,1-5.09-4.59c-3.22-3.34-6.24-6.94-9.32-10.49s-6.2-7.08-9.52-10.44a90.72,90.72,0,0,0-10.67-9.29,53.66,53.66,0,0,0-12.29-6.9,58.36,58.36,0,0,1,11.87,7.45,96.44,96.44,0,0,1,10.18,9.62c3.2,3.41,6.21,7,9.18,10.62s5.91,7.3,9.13,10.8c.47.51.95,1,1.44,1.52a234.39,234.39,0,0,1,7.58,39.12c1.84,18.56,0,38.06-8.63,54.82a70.11,70.11,0,0,1-17.73,22c-4,3.29-8.59,5.43-12.74,8.42-1,.7-2,1.42-1.29,2.74.54,1,2.24,1.26,3.21,1.5,2.43.62,4.9,1,7.28,1.83,2.61.88,5.65,2.18,7,4.74,1.45,2.72,1.08,2.54-1.75,3a139.29,139.29,0,0,1-19,1.57c-5.94.2-12.21.51-18.14-.39-.05-3,.1-6.13.28-9.2.23-3.65.52-7.31.86-11,.71-7.31,1.56-14.61,2.69-21.86.56-3.63,1.19-7.25,2-10.83.4-1.79.87-3.56,1.43-5.3a22.64,22.64,0,0,1,1-2.57,8.29,8.29,0,0,1,.63-1.22,5.8,5.8,0,0,1,.84-1.08l-.39.39a3.94,3.94,0,0,0-.52.64,9,9,0,0,0-.73,1.19,22.85,22.85,0,0,0-1.14,2.52c-.67,1.73-1.22,3.5-1.71,5.27-1,3.56-1.81,7.16-2.55,10.78-1.43,7.24-2.54,14.54-3.41,21.87-.44,3.66-.82,7.33-1.1,11a111.25,111.25,0,0,0-.43,11.16c0,.47.05.95.11,1.46a7.6,7.6,0,0,0,.27,1.53,4,4,0,0,0,.33.86,8.61,8.61,0,0,0,.49.77,7.28,7.28,0,0,0,1.2,1.16,20.92,20.92,0,0,0,5.25,2.55c1.67.65,3.38,1.34,4.25,2.37a2.16,2.16,0,0,1,.46.8,2.58,2.58,0,0,1,.13.94,4,4,0,0,1-.62,2,6.62,6.62,0,0,1-1.73,1.78,5.51,5.51,0,0,0-.22-3.53,6.67,6.67,0,0,0-2.74-3.23,8.24,8.24,0,0,0-1.92-.76,12,12,0,0,0-1.85-.43,16,16,0,0,0-3.82-.26,16,16,0,0,0,3.21,2.08c.54.29,1.16.53,1.65.78a15.73,15.73,0,0,1,1.47.69,8.5,8.5,0,0,1,2.32,2.06,11.21,11.21,0,0,1,1.72,3.09l-.23-.2a13,13,0,0,1-1.59.89,20.46,20.46,0,0,1-4.93,1.6,36.06,36.06,0,0,1-3.93.42,2.53,2.53,0,0,0,.64-1.21,3.44,3.44,0,0,0-.21-2.07,7.15,7.15,0,0,0-2.45-2.88,10.89,10.89,0,0,0-3.17-1.65,8.07,8.07,0,0,0-3.56-.35c.93.8,1.83,1.43,2.71,2.07l2.56,1.88a15.8,15.8,0,0,1,2.24,1.87,3.45,3.45,0,0,1,.69,1.14,2.61,2.61,0,0,1,.07,1.56l-.3-.31a54.21,54.21,0,0,1-6-.1,45.54,45.54,0,0,1-5.33-.74c-.87-.18-1.77-.37-2.59-.62l-.61-.18-.6-.24c-.4-.14-.78-.34-1.17-.52a20.4,20.4,0,0,1-7.56-7.1,27.22,27.22,0,0,1-2.44-4.74,30.8,30.8,0,0,1-1.5-5.15c-.75-3.54-1.07-7.21-1.68-10.87-.31-1.84-.71-3.64-1.09-5.44s-.76-3.6-1.25-5.4a30.78,30.78,0,0,0-2-5.16c-.77-1.67-1.5-3.36-2.22-5.06h0c.6,1.74,1.21,3.48,1.87,5.2a31.91,31.91,0,0,1,1.75,5.18c.39,1.78.67,3.6,1,5.41s.6,3.64.82,5.44c.44,3.57.65,7.19,1.26,10.83q-3.74,1.17-7.55,2.11c-21.54,5.3-44.21,5.26-66.16,2.89a314.76,314.76,0,0,1-33-5.43c.6-3.46,1.22-6.9,1.95-10.33a113,113,0,0,1,2.85-11.14c.57-1.84,1.24-3.63,2-5.41.39-.88.77-1.76,1.17-2.63l1.35-2.56a49.09,49.09,0,0,0-5.09,10.39,112.5,112.5,0,0,0-3.41,11.08c-.95,3.75-1.74,7.53-2.53,11.3-.41,1.88-.79,3.77-1.22,5.63-.21.92-.43,1.85-.7,2.74a12.37,12.37,0,0,1-.43,1.3,11.41,11.41,0,0,1-.53,1.27,25.65,25.65,0,0,1-2.87,4.75,20.38,20.38,0,0,1-3.84,3.92A14.83,14.83,0,0,1,267,436a36.94,36.94,0,0,1-5.46,1.14,47.63,47.63,0,0,1-8.69.41l-.3.31h0a2.58,2.58,0,0,1,.07-1.55,3.35,3.35,0,0,1,.69-1.14,15.8,15.8,0,0,1,2.24-1.87l2.56-1.88c.88-.64,1.78-1.28,2.71-2.08a7.93,7.93,0,0,0-3.56.36,10.86,10.86,0,0,0-3.17,1.64,7.25,7.25,0,0,0-2.45,2.89,3.43,3.43,0,0,0-.21,2.07,2.53,2.53,0,0,0,.63,1.2c-.58,0-1.17-.06-1.76-.12a21.56,21.56,0,0,1-2.71-.41,21.89,21.89,0,0,1-2.63-.75,17,17,0,0,1-2.46-1.1c-.3-.16-.58-.35-.87-.53l-.24.2h0a11.15,11.15,0,0,1,1.72-3.08,8.5,8.5,0,0,1,2.32-2.06,15.73,15.73,0,0,1,1.47-.69c.49-.25,1.11-.49,1.65-.78a16,16,0,0,0,3.21-2.08,15.52,15.52,0,0,0-3.82.25,14.88,14.88,0,0,0-1.85.43,8.76,8.76,0,0,0-1.92.77,6.63,6.63,0,0,0-2.74,3.23,5.52,5.52,0,0,0-.23,3.51,8.54,8.54,0,0,1-.79-.65,5,5,0,0,1-1.32-1.88l-.15-.51a3.76,3.76,0,0,1-.07-.55,2.44,2.44,0,0,1,.12-1c.37-1.16,2.06-2,3.76-2.76.86-.37,1.77-.73,2.68-1.16a11.64,11.64,0,0,0,2.73-1.64,6.24,6.24,0,0,0,1.2-1.3,4.54,4.54,0,0,0,.45-.81,3.83,3.83,0,0,0,.17-.43l.13-.38a14,14,0,0,0,.55-3.08c.15-2,.1-3.95.09-5.88s0-3.84,0-5.76c0-3.85,0-7.71-.07-11.57a136.93,136.93,0,0,0-2.14-23.11,56.9,56.9,0,0,0-3.33-11.14,30.09,30.09,0,0,0-2.8-5.1,18.64,18.64,0,0,0-4-4.21h0a18.41,18.41,0,0,1,3.66,4.4,30.88,30.88,0,0,1,2.5,5.14,56.43,56.43,0,0,1,2.76,11.11A149.87,149.87,0,0,1,248.78,395c0,3.83-.11,7.67-.17,11.53,0,1.92-.05,3.87-.06,5.79,0,1.51,0,3-.08,4.48-1.06,0-2.14,0-3.12.05a152.3,152.3,0,0,1-17.49-.29c-3.09-.26-14-.56-15-4.78-.92-3.7,11.23-5.38,13.7-6.89,1.07-.66,1.92-1.44,1.08-2.7-.51-.76-2.12-1-2.87-1.3a54.83,54.83,0,0,1-7-3.46C188.06,380,186.9,340,189.85,309.68c.89-9.12,2.27-18.19,3.91-27.2q.72-3.83,1.52-7.62a44.06,44.06,0,0,0,4.28-4.13c3.22-3.5,6.14-7.18,9.12-10.8s6-7.21,9.19-10.62a96.44,96.44,0,0,1,10.18-9.62,58.36,58.36,0,0,1,11.87-7.45,53.66,53.66,0,0,0-12.29,6.9A90.72,90.72,0,0,0,217,248.43c-3.32,3.36-6.44,6.89-9.52,10.44s-6.1,7.15-9.33,10.49A42.21,42.21,0,0,1,193,274c-1.78,1.31-3.81,2.37-5.76,2.29s-3.69-1.35-5.08-3a12.15,12.15,0,0,1-2.81-5.7,13.75,13.75,0,0,1-.15-3.21,18.22,18.22,0,0,1,.58-3.24,27.77,27.77,0,0,1,2.61-6.21,52.57,52.57,0,0,1,8.27-10.9l2.36-2.41-3.36.35a13.5,13.5,0,0,1-3,0,12.87,12.87,0,0,1-3-.71,8.93,8.93,0,0,1-5.18-5,8.41,8.41,0,0,1-.49-1.44,9.34,9.34,0,0,1-.4-2.95,9.6,9.6,0,0,1,2.2-5.49,19.79,19.79,0,0,1,4.73-4.22,42.86,42.86,0,0,1,5.72-3.15,69.11,69.11,0,0,1,12.51-4.26l2.08-.49-1.88-1a6.54,6.54,0,0,1-3.12-3.22,3.85,3.85,0,0,1-.13-2.13,5.32,5.32,0,0,1,.42-1.06l.26-.52.34-.47a6,6,0,0,1,4-2.15,15.72,15.72,0,0,1,5,.19,44.58,44.58,0,0,1,9.73,3.15,91.44,91.44,0,0,1,9.21,4.67,79.71,79.71,0,0,0-9-5.16c-.94-.45-1.89-.88-2.84-1.29a370.8,370.8,0,0,1,30.39-57.89c12.3-19.09,26.9-37.83,46.93-49.28A77.51,77.51,0,0,1,352,90.15c18.78,4.74,35.68,15.5,49.5,28.87,15.58,15.07,25.53,33.13,35.1,52.33,5.94,11.91,11.68,23.94,17.05,36.12a79.37,79.37,0,0,0-6.95,4.12,91.28,91.28,0,0,1,9.2-4.67,44.84,44.84,0,0,1,9.74-3.15,15.72,15.72,0,0,1,5-.19,6,6,0,0,1,4,2.15l.34.47.26.52a4.74,4.74,0,0,1,.41,1.06,3.76,3.76,0,0,1-.12,2.13,6.54,6.54,0,0,1-3.12,3.22l-1.88,1,2.08.49a68.75,68.75,0,0,1,12.5,4.26,42.37,42.37,0,0,1,5.73,3.15,19.79,19.79,0,0,1,4.73,4.22,9.6,9.6,0,0,1,2.2,5.49A9.34,9.34,0,0,1,497.32,234.7Z"/>    </g>    <g id="eye">        <g id="eye-color1">            <g opacity="0" ><path fill="#FCFBFA"  d="M268.4,156.18c-.14.47-.21.95-.36,1.41a15.63,15.63,0,0,1-1.35,2.87c-.52.93-1,1.89-1.54,2.82-.24.42-.5.81-.77,1.2l-.43.62c-.09.11-.46.46-.46.6-.19.25-.39.49-.59.74-5.88,7-13.9,9.8-22.69,6.53-8.54-3.17-14.21-10.41-14.65-19.54a.86.86,0,0,1,0-.28.9.9,0,0,1,0-.29,23.29,23.29,0,0,1,19-21.82A19,19,0,0,1,256,132.39c-15.29-7.7-34.35-2.93-39.29,15.33a20.58,20.58,0,0,0-.66,6.54,29.34,29.34,0,0,0,10.48,20.23c8.59,7.08,21.5,6.67,31,1.77,7.19-3.69,10-12.6,10.92-20.46C268.48,155.93,268.43,156.06,268.4,156.18Z"/></g><g opacity="0" ><path fill="#FCFBFA"  d="M392.15,150.12c-.24.62-.44,1.25-.7,1.86a24.88,24.88,0,0,1-2,3.67,31,31,0,0,1-2.54,3.43c-5.88,7-13.9,9.8-22.69,6.53-8.53-3.17-14.2-10.41-14.65-19.54a2.46,2.46,0,0,1,0-.28,2.64,2.64,0,0,1,0-.29,23.3,23.3,0,0,1,19.05-21.82A19,19,0,0,1,380.08,125c-15.3-7.7-34.36-2.93-39.3,15.34a20.48,20.48,0,0,0-.66,6.53,29.38,29.38,0,0,0,10.48,20.23c8.59,7.09,21.5,6.67,31,1.77,6.91-3.55,9.73-12,10.77-19.66C392.32,149.49,392.24,149.87,392.15,150.12Z"/></g>        </g>        <g id="eye-shape">            <path fill="#fcfcfc"  d="M292.42,122.51c-7.41-5.22-16.44-9.14-25.66-8a23.3,23.3,0,0,0-6.34,1.77,26.45,26.45,0,0,1,4-1.27,6.69,6.69,0,0,1,4.67,6.47c.15.09-.61,2.49-.47,2.59,2.78,1.83-.58,4.15,1.16,7.37,7.06,13.09-1.89,10.66-11.93,16.55-4.15,2.43-2.64,4-6.92,3.84-6.23-.28-12.06-1.08-16.51-6.78-.1-.13-.35,12.73-.44,12.59a49.9,49.9,0,0,0,4.25,20.57c7.49,16.64,26.85,30.68,45.61,24.46,15-5,24.67-21.28,27.85-36C315.5,149.37,306.53,132.45,292.42,122.51Z"/><path fill="#fcfcfc"  d="M249.4,123.35l0,0,2.4-1.81Z"/><path fill="#fcfcfc"  d="M235.06,147.47a50.84,50.84,0,0,0-1,9.3,67.12,67.12,0,0,1,1-8.8C235,147.8,235,147.63,235.06,147.47Z"/><path d="M300.35,125.13c-7.44-7-17.31-12.81-27.67-13.7-10-.85-17.44,3.74-25,9.51-.06,0-.1.09-.15.13l-.16.1c-32.2,24.88-13.28,88.72,29.73,85.92,17.9-1.17,30.39-17.56,35.77-33.3C318.91,156.09,313.88,137.92,300.35,125.13Zm-51-1.78,2.38-1.79-2.4,1.81Zm62.32,43.41c-3.18,14.67-12.88,31-27.85,36-18.76,6.22-38.12-7.82-45.61-24.46A49.9,49.9,0,0,1,234,157.68l0,0c0-.29,0-.58.05-.87a50.84,50.84,0,0,1,1-9.3c0,.16-.05.33-.08.5a20.26,20.26,0,0,0,14.25,7.52,2.16,2.16,0,0,0,.38.06,2,2,0,0,0,.35,0c11.31,0,23.27-8.88,24.43-20.59a14.59,14.59,0,0,0-4.71-12.27c-.76,3.85-4.65,6.55-8.44,6.82a2.18,2.18,0,0,1-1-.05c-4.41-.69-6.84-4-6.86-8.52,0-.21,0-.41,0-.61l.41-.31a29.21,29.21,0,0,1,6.58-3.69,23.3,23.3,0,0,1,6.34-1.77c9.22-1.18,18.25,2.74,25.66,8C306.53,132.45,315.5,149.37,311.72,166.76Z"/><path fill="#fcfcfc"  d="M440.62,149.87a8.74,8.74,0,0,1-1.47,2.84,8.47,8.47,0,0,1-5.34,3.18c-5.69,4.05-11.35.91-17.52-.7-14.17-1.44-5.72-13.74-5.71-25.41,0-5,.75-4.39,3.17-8.26,1.71-2.71,1.49-5.91,4.2-7.75-18.93-7-36.72-7.24-48.79,10a1.67,1.67,0,0,1-.9.66c-13.1,16.08-14.58,41-3.82,58.69,9,14.83,27.39,23.31,44.4,18.49s27.91-21.89,31.09-38.48a49.69,49.69,0,0,0,.77-13.35A.3.3,0,0,1,440.62,149.87Z"/><path fill="#fcfcfc"  d="M418.41,115.65a46,46,0,0,0-14.53-5,48.59,48.59,0,0,1,11.87,3.7C416.64,114.74,417.53,115.18,418.41,115.65Z"/><path d="M424.91,115.79c-10.4-7.28-23.9-10.75-36.44-8.14a36.45,36.45,0,0,0-12.64,5.18A48.65,48.65,0,0,0,361,129.36a55.22,55.22,0,0,0-6.54,20.28,56.83,56.83,0,0,0,4.27,29.64c7.68,17.44,26.18,29.17,45.4,26.67,19.43-2.53,32.94-19.43,37.94-37.42C447.6,148.59,442.26,127.94,424.91,115.79Zm15,47.35c-3.18,16.59-14.09,33.67-31.09,38.48s-35.38-3.66-44.4-18.49c-7.11-11.7-8.83-26.35-5.56-39.55A51.18,51.18,0,0,1,363.67,131a41.88,41.88,0,0,1,5.53-7.44,51.32,51.32,0,0,1,6.49-6.61,32,32,0,0,1,8.57-4.7,38.5,38.5,0,0,1,19.45-1.62l.17,0a46,46,0,0,1,14.53,5c-.88-.47-1.77-.91-2.66-1.32a22.79,22.79,0,0,0-11.88,9.14,3.2,3.2,0,0,0-.19.36A28.12,28.12,0,0,0,407,155.54a16.47,16.47,0,0,0,8.26,5.28c6.17,1.61,12.84-.88,18.53-4.93a6.53,6.53,0,0,1-4-.64c-4.61-2.37-5-8.24-3.22-12.54a.91.91,0,0,1,.08-.13,1.34,1.34,0,0,1,.09-.26c2.49-5.14,8.33-6.61,12.12-1.79a10,10,0,0,1,.77,1.15,10.07,10.07,0,0,1,.6,3c.18,1.09.36,2.2.45,3.31A56.89,56.89,0,0,1,439.93,163.14Z"/><path fill="#fff"  d="M269.79,121.4c0-3.16-2.48-5.25-5.34-6.35a26.45,26.45,0,0,0-4,1.27,29.21,29.21,0,0,0-6.58,3.69l-.41.31c0,.2,0,.4,0,.61,0,4.48,2.45,7.83,6.86,8.52a2.18,2.18,0,0,0,1,.05c3.79-.27,7.68-3,8.44-6.82a7.35,7.35,0,0,0,.11-.82C269.8,121.7,269.79,121.55,269.79,121.4Z"/><path fill="#fff"  d="M439.15,152.71a8.74,8.74,0,0,0,1.47-2.84c.06-.19.11-.38.16-.58a49.48,49.48,0,0,0-1.15-7.61,10,10,0,0,0-.77-1.15c-3.79-4.82-9.63-3.35-12.12,1.79a1.34,1.34,0,0,0-.09.26.91.91,0,0,0-.08.13c-1.74,4.3-1.39,10.17,3.22,12.54a6.53,6.53,0,0,0,4,.64A8.47,8.47,0,0,0,439.15,152.71Z"/>        </g>        <g id="eye-color2">            <path fill="#9FA8FF"  d="M250.93,167.09a23.35,23.35,0,0,0,12.85-3.35c10-5.89,20.71-21.7,13.65-34.79a20.59,20.59,0,0,0-7.2-7.28l-.44-.27c0,.15,0,.3,0,.46a7.35,7.35,0,0,1-.11.82A14.59,14.59,0,0,1,274.39,135c-1.17,11.71-13.12,20.58-24.43,20.59a1.36,1.36,0,0,1-.35,0,1.52,1.52,0,0,1-.38,0A20.26,20.26,0,0,1,235,148a67.12,67.12,0,0,0-1,8.8c0,.29,0,.57-.05.86l0,.05c.09.14.19.28.29.41A22.28,22.28,0,0,0,250.93,167.09Z"/><path fill="#9FA8FF"  d="M397,117.48A25.36,25.36,0,0,0,393.29,131c0,11.67,7.82,28.37,22,29.8a16.54,16.54,0,0,1-8.26-5.28,28.12,28.12,0,0,1-3.34-31.71,3.2,3.2,0,0,1,.19-.36,22.79,22.79,0,0,1,11.88-9.14,48.59,48.59,0,0,0-11.87-3.7l-.17,0h0A23.46,23.46,0,0,0,397,117.48Z"/><path fill="#9FA8FF"  d="M235.06,147.47a50.84,50.84,0,0,0-1,9.3,67.12,67.12,0,0,1,1-8.8C235,147.8,235,147.63,235.06,147.47Z"/>        </g>    </g>    <g id="nose-mouth">        <path fill="none"  d="M337.39,242.54l0,.47.2.05C337.5,242.88,337.44,242.71,337.39,242.54Z"/><path fill="#f25757"  d="M341.07,247.07a2,2,0,0,0,.11.37,13.84,13.84,0,0,0,1.93,3.79,12.13,12.13,0,0,0-3.62-2.2,3.38,3.38,0,0,0-2.93,0c-.83.48-1.09,1.35-1.79,1.95a3.67,3.67,0,0,1-.86.34c1.5,1.27,3.08,2.49,4.5,3.91.25.26.5.54.74.83a5.87,5.87,0,0,0,.7.71,5.94,5.94,0,0,0,1.73,1,5.68,5.68,0,0,0,3.92,0,4.89,4.89,0,0,0,2.88-2.54,5.41,5.41,0,0,0,.19-3.9,11.93,11.93,0,0,0-1.59-2.87A10.31,10.31,0,0,1,341.07,247.07Z"/><path fill="#d33d3d"  d="M336.56,249a3.38,3.38,0,0,1,2.93,0,12.13,12.13,0,0,1,3.62,2.2,13.84,13.84,0,0,1-1.93-3.79,2,2,0,0,1-.11-.37,12.29,12.29,0,0,1-1.13-.75,7.44,7.44,0,0,1-2.29-3,2.5,2.5,0,0,1-.09-.25l-.2-.05a.66.66,0,0,0,0,.14,9.73,9.73,0,0,1-1.33,3.78,8.68,8.68,0,0,1-2.91,2.87,7.16,7.16,0,0,1-.66.36,4.61,4.61,0,0,0,1.23,1c.08,0,.12.17.22.16h0a3.67,3.67,0,0,0,.86-.34C335.47,250.35,335.73,249.48,336.56,249Z"/><path d="M350.23,246a22.34,22.34,0,0,1-3.27.9,8.46,8.46,0,0,1-3.27-.18,9.18,9.18,0,0,1-3.09-1.27,7.16,7.16,0,0,1-2.36-2.38,6.94,6.94,0,0,1-.62-1.42,9.57,9.57,0,0,0,3.66-2.19,53.56,53.56,0,0,0,5-5.91c5.86-7.2,15.45-19.85,7.51-29.1C350,200,343.5,199,338,199.12a66.31,66.31,0,0,0-22.51,4.33l-.09.05a1.19,1.19,0,0,0-.22.08c-4.78,2.41-9.32,7-8.23,12.82,1.2,6.41,8,11.94,12.62,16,3.25,2.83,7.4,6.88,11.81,8.66a11.89,11.89,0,0,0,3.14.84,7.48,7.48,0,0,0,2.28-.07,12.14,12.14,0,0,1-.29,1.19,10.23,10.23,0,0,1-1.6,3.2,9.31,9.31,0,0,1-5.94,3.36,17.83,17.83,0,0,1-7.19-.3,13.28,13.28,0,0,1-6.5-3.37,8.23,8.23,0,0,0,2.61,2.87,14.46,14.46,0,0,0,3.51,1.77,15.89,15.89,0,0,0,7.87.71,12.32,12.32,0,0,0,2.82-.89c.85.88,1.76,1.68,2.66,2.49,1.05,1,2.13,1.9,3.11,2.9a10,10,0,0,1,.68.78,6.13,6.13,0,0,0,.79.82,6.64,6.64,0,0,0,1.95,1.15,6.51,6.51,0,0,0,4.48.11,5.7,5.7,0,0,0,3.34-3,6.16,6.16,0,0,0,.16-4.47,11.25,11.25,0,0,0-1.52-2.74l.37-.07c.3-.06.6-.12.9-.21a11.81,11.81,0,0,0,1.81-.56,8.41,8.41,0,0,0,3.24-2.18,9.14,9.14,0,0,0,1.81-3.35,17.18,17.18,0,0,0,.72-3.59c-1.1,2.16-2,4.42-3.61,5.9A8.68,8.68,0,0,1,350.23,246Zm-14-37.34-2-1c-1.1-.52-.61-2,.3-2.34a14.44,14.44,0,0,1,9.38-.41c1.75.51,3.75,1.42,3.3,3.62a5.47,5.47,0,0,1-4.5,3.73C340.07,212.44,338.28,209.68,336.19,208.61Zm12.38,42.73a5.41,5.41,0,0,1-.19,3.9,4.89,4.89,0,0,1-2.88,2.54,5.68,5.68,0,0,1-3.92,0,5.94,5.94,0,0,1-1.73-1,5.87,5.87,0,0,1-.7-.71c-.24-.29-.49-.57-.74-.83-1.42-1.42-3-2.64-4.5-3.91h0c-.1,0-.14-.12-.22-.16a4.61,4.61,0,0,1-1.23-1,7.16,7.16,0,0,0,.66-.36,8.68,8.68,0,0,0,2.91-2.87,9.73,9.73,0,0,0,1.33-3.78.66.66,0,0,1,0-.14l0-.47c.05.17.11.34.17.52a2.5,2.5,0,0,0,.09.25,7.44,7.44,0,0,0,2.29,3,12.29,12.29,0,0,0,1.13.75,10.31,10.31,0,0,0,5.91,1.4A11.93,11.93,0,0,1,348.57,251.34Z"/><rect fill="#563a33"  x="325.06" y="239.67" width="2.54" height="2.54" rx="0.99" ry="0.99" transform="translate(-4.25 476.01) rotate(-71.86)"/><rect fill="#563a33"  x="317.34" y="237.75" width="2.54" height="2.54" rx="0.99" ry="0.99" transform="matrix(0.31, -0.95, 0.95, 0.31, -7.85, 467.2)"/><path fill="#563a33"  d="M318.35,244.18l-.17.53a1,1,0,0,0,0,.3,1,1,0,0,0,.67,1l.53.18a1,1,0,0,0,1.25-.64l.18-.53a1,1,0,0,0-.64-1.25l-.53-.17A1,1,0,0,0,318.35,244.18Z"/><rect fill="#563a33"  x="344.07" y="240.93" width="2.54" height="2.54" rx="0.99" ry="0.99" transform="translate(7.61 494.9) rotate(-71.85)"/><rect fill="#563a33"  x="349.73" y="233.12" width="2.54" height="2.54" rx="0.99" ry="0.99" transform="translate(18.76 494.69) rotate(-71.81)"/><path fill="#563a33"  d="M352.14,240.14l.53.18a1,1,0,0,0,1.26-.63l.17-.53a.92.92,0,0,0,0-.59,1,1,0,0,0-.62-.67l-.53-.17a1,1,0,0,0-1.25.63l-.13.37-.05.16A1,1,0,0,0,352.14,240.14Z"/><path fill="#fff"  d="M342.63,212.22a5.47,5.47,0,0,0,4.5-3.73c.45-2.2-1.55-3.11-3.3-3.62a14.44,14.44,0,0,0-9.38.41c-.91.36-1.4,1.82-.3,2.34l2,1C338.28,209.68,340.07,212.44,342.63,212.22Z"/>    </g></svg>