<!--  ~ Copyright (C) 2018 Baidu, Inc. All Rights Reserved.  --><svg viewBox="0 0 640 480" xmlns="http://www.w3.org/2000/svg">    <g id="back-ground-cl">        <rect fill="none" width="640" height="480" />        <ellipse opacity="0.1" cx="331.93" cy="418.82" rx="168.39" ry="32.01"/>    </g>    <g id="body">        <defs>            <clipPath id="outline">                <path fill="none"  d="M278.16,106.75q-6.77-22.12-13.52-44.26-4.15-13.56-8.3-27.13c-2.11-6.9-8.48-10.44-15-6.21-5.42,3.53-10.56,7.58-15.81,11.35-9.7,7-23.06,17.06-18.87,30.91,2.36,7.77,10.46,10.35,17.73,8.19s12.08-8.49,15.34-15.06c2.11-4.26,3.4-11.59,8.33-13.74,2.93-1.27,5.23.55,6.36,3.22,4.63,11,8.12,22.58,12.15,33.78l7.95,22.11C275.73,108.83,276.93,107.77,278.16,106.75Z"/><path fill="none"  d="M421.65,60.19a1.24,1.24,0,0,1,2.12,0c3.37,5.46,3.22,11.64,3.45,17.85.24,6.48,2,16.51,10.37,16.71,8.83.21,12.49-9.36,12.06-16.73A28.72,28.72,0,0,0,441,59.61c-4.69-4.65-11.53-8.35-18.3-8.18-5.23.13-6.35,3.75-8.3,7.77q-2.7,5.55-5.26,11.17-8.73,19.16-15.82,39l1.77,1.45Z"/><path fill="none"  d="M466.81,241c-8.75-24-19.52-47.32-30.95-70.2-9.38-18.76-19.27-36.34-34.49-51.07a126.38,126.38,0,0,0-22.77-17.59l-.76-.32a14.18,14.18,0,0,1,.61-7.09,15,15,0,0,1,4.11-6.63l-9.42,3.3-1,.37.69-.78,14-13.09a23.71,23.71,0,0,0-9.49,2.09A27.22,27.22,0,0,0,368.84,86L367,87.93l1-2.46a127.21,127.21,0,0,1,8.76-17.61L368.67,72l-1.45.74.48-1.56a32.61,32.61,0,0,1,7.23-12.73,20,20,0,0,0-6.59,1.1,22.15,22.15,0,0,0-7.22,4.18l-1.74,1.49.38-2.27,1.89-11.4-6.81,8.88-5.42,7.06,3.8-8.06A85.18,85.18,0,0,0,358,46.68c.41-1.47.78-3,1.08-4.43-.43.89-.88,1.76-1.36,2.61a99.06,99.06,0,0,1-6.47,9.94l-2.54,3.52.61-4.3,1.94-13.4c-.46.49-.91,1-1.34,1.5a24.7,24.7,0,0,0-3,4.45,30,30,0,0,0-2.06,5,47.27,47.27,0,0,0-1.35,5.3l-1.64,7.75-.56-7.87a28.91,28.91,0,0,1,.27-5.91c.25-1.92.62-3.81,1-5.68.85-3.74,1.92-7.41,3.13-11s2.55-7.19,4-10.7c.84-1.95,1.72-3.89,2.68-5.8a35.34,35.34,0,0,0-3.1,3A42.17,42.17,0,0,0,344,28.33a59.86,59.86,0,0,0-6.27,17.82l-1.91,10L335.35,46a49.48,49.48,0,0,0-2.77-14.16l-2.34,14L328.71,55l-.83-9.25a35.74,35.74,0,0,0-2.47-10.29,33.22,33.22,0,0,0-2.36-4.74l4.17,19.86.62,2.94-2.39-1.82a62.81,62.81,0,0,0-10.7-7,21.62,21.62,0,0,0-5.86-1.91,14.36,14.36,0,0,0-4-.07l13,13-.34.13c-2.93-2.14-7.42-3-11-3.38a19.67,19.67,0,0,0-8,.84,19.3,19.3,0,0,1,5.95,3.9A23.19,23.19,0,0,1,310,65.46l1.59,4-3.1-3a13.24,13.24,0,0,0-3.21-2c-1.2-.58-2.44-1.1-3.7-1.56a36.17,36.17,0,0,0-3.85-1.17l-.94-.2c.53.39,1.07.77,1.59,1.17q2,1.52,3.84,3.19a34.15,34.15,0,0,1,3.5,3.61,10.7,10.7,0,0,1,2.48,4.65l.21,1.13L307.27,75a54,54,0,0,1-5.67-1.71c-1.85-.64-3.68-1.32-5.5-2s-3.65-1.34-5.48-2l-1.85-.62,1.05.81c1.35,1.08,2.67,2.2,3.94,3.37s2.51,2.39,3.67,3.68a18.29,18.29,0,0,1,3.05,4.34l.74,1.58-1.53-.89a9.51,9.51,0,0,0-3.94-.9,30.48,30.48,0,0,0-4.27.09,31.8,31.8,0,0,0-4.23.66A11.1,11.1,0,0,0,284,82.56c1.23.71,2.59,1.17,3.86,1.81s2.78,1.47,4.12,2.28a27.23,27.23,0,0,1,4.61,3.19,15.66,15.66,0,0,1,3.64,5.56l.09.33-.33,0c-1.62.16-3.25-.7-4.78-1.1-2.66-.69-5.38-1.22-8.09-1.67a12,12,0,0,0-2.73-.31,35.48,35.48,0,0,1,6.05,3.62c1.05.8,2.05,1.56,3,2.42a4,4,0,0,0-.68.54c-19.9,11.79-34.37,30.71-46.64,49.91A378.41,378.41,0,0,0,193.34,283.4c-1.64,9-3,18.1-3.92,27.24-3,30.7-1.69,71.26,28.8,88.4a60.34,60.34,0,0,0,7.14,3.36c.56.22,1.79.47,2.09,1.17.51,1.23-.33,1.87-1.28,2.44-2.47,1.52-14.64,3.2-13.73,6.91,1.05,4.22,11.95,4.53,15.05,4.78a151.16,151.16,0,0,0,18.06.28c.73,0,1.67,0,2.61,0,.18-1.79.18-3.65.21-5.55l0-1.47a14.09,14.09,0,0,0,0-1.44l-.05-2.84c-.08-3.88,0-7.74,0-11.6a168.06,168.06,0,0,0-1.34-23,56,56,0,0,0-2.63-11.17,30.71,30.71,0,0,0-2.46-5.18,18.1,18.1,0,0,0-3.66-4.43,18.11,18.11,0,0,1,4,4.23,30.25,30.25,0,0,1,2.76,5.14,56.75,56.75,0,0,1,3.21,11.21,152.87,152.87,0,0,1,2.06,23.17l.29,11.57.09,3a14,14,0,0,1,0,1.45l0,1.43c0,1.91,0,3.87-.14,5.88a14.39,14.39,0,0,1-.56,3.09,5.8,5.8,0,0,1-2.06,2.88,24.24,24.24,0,0,1-5.42,2.74c-1.7.72-3.35,1.63-3.64,2.81a3.17,3.17,0,0,0-.07,1,4.63,4.63,0,0,0,.27,1,5,5,0,0,0,1.39,1.86c.21.19.44.35.67.52a5.49,5.49,0,0,1,.23-3.5,6.65,6.65,0,0,1,2.74-3.24,8.31,8.31,0,0,1,1.93-.76,12,12,0,0,1,1.85-.43,15,15,0,0,1,3.82-.26,16,16,0,0,1-3.21,2.08c-.54.29-1.17.53-1.65.78s-1.08.43-1.48.69a8.54,8.54,0,0,0-2.32,2.07,11.07,11.07,0,0,0-1.72,3.09l.24-.2a15.89,15.89,0,0,0,3.52,1.69,22.15,22.15,0,0,0,2.65.74,23.31,23.31,0,0,0,2.73.38c.51,0,1,.07,1.55.1a2.64,2.64,0,0,1-.64-1.2,3.62,3.62,0,0,1,.21-2.08,7.35,7.35,0,0,1,2.46-2.89,10.63,10.63,0,0,1,3.17-1.64,8,8,0,0,1,3.57-.36c-.94.8-1.84,1.44-2.71,2.08l-2.57,1.88a15.84,15.84,0,0,0-2.25,1.88,3.13,3.13,0,0,0-.68,1.13,2.54,2.54,0,0,0-.07,1.56l.3-.31a48.48,48.48,0,0,0,8.93-.45c.93-.13,1.86-.29,2.78-.49a21.88,21.88,0,0,0,2.68-.7,15.61,15.61,0,0,0,4.73-2.55,21.29,21.29,0,0,0,6.43-8.84,24.19,24.19,0,0,0,1.47-5.36c.12-.9.22-1.86.31-2.84s.19-1.92.31-2.89a88.55,88.55,0,0,1,2-11.5c1.86-7.61,5.63-14.56,9.95-20.93a107.28,107.28,0,0,0-5.31,10.27c-.78,1.75-1.43,3.56-2,5.38a55.77,55.77,0,0,0-1.43,5.55,90.38,90.38,0,0,0-1.54,11.39l0,.51a319.3,319.3,0,0,0,34.88,5.73c21.78,2.27,44.26,2.25,65.63-3.06,2.56-.64,5.11-1.35,7.63-2.16,0-.29-.11-.59-.16-.89-.64-3.69-.84-7.39-1.29-11-.22-1.81-.53-3.63-.82-5.45s-.58-3.64-1-5.42a31.69,31.69,0,0,0-1.75-5.19c-.66-1.73-1.28-3.46-1.88-5.21.71,1.7,1.44,3.39,2.22,5.06a31.87,31.87,0,0,1,2,5.18c.49,1.8.86,3.61,1.25,5.41s.78,3.6,1.09,5.44c.61,3.67.94,7.34,1.68,10.89a32.93,32.93,0,0,0,1.5,5.16,28,28,0,0,0,2.45,4.74,20.4,20.4,0,0,0,7.57,7.12,12.42,12.42,0,0,0,1.18.52l.59.24.62.18c.81.25,1.72.44,2.59.62a45.42,45.42,0,0,0,5.34.74,52,52,0,0,0,6,.1l.29.31a2.54,2.54,0,0,0-.06-1.56,3.35,3.35,0,0,0-.69-1.14,15.28,15.28,0,0,0-2.25-1.87L414,426.7c-.88-.64-1.78-1.28-2.72-2.08a8.25,8.25,0,0,1,3.57.36,10.89,10.89,0,0,1,3.17,1.65,7.13,7.13,0,0,1,2.46,2.89,3.43,3.43,0,0,1,.21,2.07,2.49,2.49,0,0,1-.64,1.21,38.72,38.72,0,0,0,3.93-.41,20.2,20.2,0,0,0,4.95-1.61,13,13,0,0,0,1.59-.89l.23.19A11.38,11.38,0,0,0,429,427a8.36,8.36,0,0,0-2.32-2.06c-.39-.26-1-.44-1.47-.69s-1.11-.5-1.65-.78a15.41,15.41,0,0,1-3.22-2.09,16,16,0,0,1,3.82.26,15,15,0,0,1,1.86.43,8.76,8.76,0,0,1,1.92.77,6.57,6.57,0,0,1,2.74,3.23,5.47,5.47,0,0,1,.23,3.54,6.65,6.65,0,0,0,1.73-1.79,4,4,0,0,0,.62-2,2.58,2.58,0,0,0-.13-.94,2.28,2.28,0,0,0-.46-.81c-.87-1-2.58-1.72-4.25-2.36a21.43,21.43,0,0,1-5.27-2.56A6.92,6.92,0,0,1,422,418a5.89,5.89,0,0,1-.5-.76,4.06,4.06,0,0,1-.33-.87,8.37,8.37,0,0,1-.27-1.53c-.06-.5-.09-1-.1-1.46a108.76,108.76,0,0,1,.42-11.18c.28-3.69.66-7.37,1.1-11,.88-7.34,2-14.65,3.42-21.9.74-3.62,1.55-7.23,2.55-10.79a55,55,0,0,1,1.71-5.28,24,24,0,0,1,1.15-2.53,8,8,0,0,1,.72-1.19,6,6,0,0,1,.92-1,5.2,5.2,0,0,0-.84,1.09,8.72,8.72,0,0,0-.64,1.21,24.1,24.1,0,0,0-1,2.57c-.57,1.75-1,3.53-1.44,5.32-.81,3.58-1.44,7.21-2,10.84-1.14,7.27-2,14.58-2.69,21.89-.34,3.66-.63,7.33-.87,11-.2,3.47-.38,7-.26,10.4,5.77.81,11.82.57,17.6.38a150.35,150.35,0,0,0,19.08-1.51c.7-.12,2.17-.13,2.76-.58l.2-.06c-.26-.26-.37-1.44-.43-1.63-1-2.88-4.09-4.39-6.77-5.36a73.15,73.15,0,0,0-7.7-2c-1-.25-2.88-.48-3.44-1.56-.7-1.32.32-2,1.29-2.74,4.15-3,8.75-5.14,12.76-8.44a70.07,70.07,0,0,0,17.75-22c8.68-16.79,10.49-36.32,8.65-54.91C482.41,288,475.14,263.84,466.81,241Z"/><path fill="none"  d="M196.62,380.68c-2.93-1.42-5.87-2.78-8.87-4.16-11.35-5.22-19.16-13.51-17.68-26.65.35-3.15,1.11-6.22,1.73-9.33.9-4.56-2.1-5.33-5.86-4.89A22.17,22.17,0,0,0,150.77,344a20.79,20.79,0,0,0-3,18.9c2.34,7.18,8.32,12.06,14.84,15.4,11.5,5.89,24.77,8.31,37.72,8-.78-1.06-1.54-2.13-2.25-3.24C197.57,382.3,197.09,381.49,196.62,380.68Z"/><path d="M479.83,274.08c-6.65-25.19-16.15-49.55-26.89-73.26-5.39-11.91-11.11-23.66-17-35.33-5-9.85-9.95-19.59-16.44-28.55A142,142,0,0,0,397,112.41l25.65-48.94c4.21,10-1.41,25.13,9.14,32,4.31,2.79,9.83,2,13.82-1,4.54-3.38,6.4-9.09,6.48-14.56.18-11.39-6.91-22.33-16.89-27.58-4.51-2.38-10.68-4.32-15.79-3a7.3,7.3,0,0,0-4.85,4c-2.07,3.75-3.79,7.74-5.6,11.61q-9.81,21-17.68,42.85A121,121,0,0,0,379,99.46a27.67,27.67,0,0,1,1.4-5c1.29-3.31,4.55-6.82,7.17-9.21l.73-.66-2.24.75L378.61,88,389,77.15l.52-.57-.78,0c-3.64-.16-8.35,1.15-11.7,2.59A28.23,28.23,0,0,0,370,83.59a130.71,130.71,0,0,1,9-17l1.23-1.94-2.06,1L369.56,70a30.34,30.34,0,0,1,7.62-11.7l1.22-1.14L376.73,57a21.33,21.33,0,0,0-8.9,1,23.46,23.46,0,0,0-6.07,3.08L364,48.28l.62-3.53-2.21,2.83-4.56,5.84c.77-2,1.48-4.09,2.09-6.18a46.75,46.75,0,0,0,1-6.39,29.51,29.51,0,0,0-.17-7.61l-.07.06c-.14,1.8-1.33,3.9-2,5.66a40.54,40.54,0,0,1-2.82,4.88c-1.16,2.07-2.44,4.07-3.79,6L354,37.42l.56-3.85-2.49,3c-1.11,1.32-2.52,2.64-3.76,4.13A28.16,28.16,0,0,0,345,45.54c-.08.17-.16.34-.25.5,0-.13.06-.25.08-.38.84-3.65,1.9-7.25,3.09-10.81s2.54-7.08,4-10.52a79.57,79.57,0,0,1,5-10l2.4-3.92-4,2.31a32.39,32.39,0,0,0-7.72,6.35A44.24,44.24,0,0,0,342,27.18,59.21,59.21,0,0,0,337,39.05a49.39,49.39,0,0,0-3.81-12.2l-1.66-3.57-.64,3.88L329,38.76a38.29,38.29,0,0,0-1.4-4.2,33.87,33.87,0,0,0-5.91-9.65l-2.92-3.29.92,4.3,4.73,22.19a55.08,55.08,0,0,0-8.71-5.38,23.61,23.61,0,0,0-6.48-2.08,15.85,15.85,0,0,0-6.91.4l-1.84.55,1.41,1.29,9.18,8.43a22.92,22.92,0,0,0-4.27-.86,21.45,21.45,0,0,0-11.66,2.12l-2.61,1.3,2.85.58a16.39,16.39,0,0,1,7.81,4.21,20.4,20.4,0,0,1,3.57,4.48l-.7-.34a41,41,0,0,0-3.9-1.61,38.58,38.58,0,0,0-4-1.19,20.37,20.37,0,0,0-2.12-.37,7,7,0,0,0-2.36.06l-2,.45,1.73,1.09a61.55,61.55,0,0,1,7.74,5.81,32.94,32.94,0,0,1,3.37,3.42,11.89,11.89,0,0,1,1.79,2.71c-1.4-.37-2.81-.83-4.21-1.3-1.83-.62-3.66-1.27-5.49-1.93s-3.66-1.31-5.51-1.94a55.51,55.51,0,0,0-5.68-1.66l-3.8-.83,3.32,2A45.65,45.65,0,0,1,289,70.51c1.33,1,2.64,2.14,3.9,3.28s2.49,2.31,3.63,3.55A23.78,23.78,0,0,1,298.72,80l-.68-.15a18.92,18.92,0,0,0-2.24-.24,30.86,30.86,0,0,0-4.41.16,31.87,31.87,0,0,0-4.35.74c-1.43.37-2.32.69-4.45,1.22l-2.52.9,3.14,1a23,23,0,0,1,4,1.73c1.45.79,2.9,1.57,4.31,2.42a26.8,26.8,0,0,1,4,2.85,9.4,9.4,0,0,1,2.42,3.14c-2.32-.81-4.93-.88-7.36-1.23a53.72,53.72,0,0,0-8.11-.45l-.54.06.49.24A46.41,46.41,0,0,1,289.87,97l.94.72a101.46,101.46,0,0,0-10.59,7.4L267.71,64.17q-3.91-12.8-7.82-25.58c-1.57-5.12-2.68-10.34-8-12.77-7.71-3.51-14.08,2.88-19.88,7-7.41,5.32-15.7,10.32-21.69,17.24-6.92,8-10.59,22.53-.54,29.85s23.15,0,29.16-9A53.46,53.46,0,0,0,243.58,62c.8-1.89,4.35-12.85,8.49-7.4.71.94,1,2.76,1.38,3.85l7.23,20.11q6,16.58,11.92,33.14-3.18,3-6.16,6.25c-16.17,17.59-28.77,38.77-39.66,59.93A380.5,380.5,0,0,0,199.38,247q-5.07,17.64-8.4,35.73c-3.23,17.74-5.58,35.83-5,53.9.46,13.65,2.6,27.82,8.62,40.21-4.48-2-9.1-3.77-13.16-6.63-8.12-5.72-10.17-13.81-8.51-23.25.68-3.85,3.83-10.5-.78-13.05-3.39-1.89-8.56-.64-12,.52a23.42,23.42,0,0,0-13.37,11.2c-6,11.58-.81,24.5,9.31,31.61,12.87,9.05,30.28,12.14,46.07,11.48a52.94,52.94,0,0,0,11.86,10.63,51.63,51.63,0,0,0,5.61,3.19c.92.45,1.86.88,2.81,1.28a4.57,4.57,0,0,0,.77.33l.32.13c-.7.31-1.41.64-1.61.71-1.72.58-3.45,1.11-5.16,1.74-3.31,1.21-8.83,3.24-6.29,7.78,2.22,4,8.87,4.65,12.79,5.17a124.8,124.8,0,0,0,19.33.81c1.31,0,3.18.1,5.08,0,0,.05,0,.11,0,.16a2.91,2.91,0,0,1-.47,1,4.1,4.1,0,0,1-.81.8,23.89,23.89,0,0,1-4.91,2.4,16.12,16.12,0,0,0-2.78,1.45,6.82,6.82,0,0,0-1.31,1.18,4.91,4.91,0,0,0-.92,1.7,6.42,6.42,0,0,0,2.28,6.39,15.83,15.83,0,0,0,5.47,3,22.79,22.79,0,0,0,2.94.8,26.63,26.63,0,0,0,3,.41A48.88,48.88,0,0,0,262,439.4c1-.15,1.95-.34,2.91-.55a27.6,27.6,0,0,0,2.91-.81,17.77,17.77,0,0,0,5.36-3,22.71,22.71,0,0,0,6.87-9.81,26,26,0,0,0,1.44-5.82c.11-1,.18-1.93.24-2.86l1.47.34c22.8,4.87,46.3,7.72,69.64,6.53a157.88,157.88,0,0,0,31.41-4.58c2.14-.55,4.26-1.17,6.36-1.84a28.73,28.73,0,0,0,3.19,7.35,21.75,21.75,0,0,0,8.2,8c.44.21.88.45,1.34.62l.69.28.7.23c1,.3,1.84.5,2.77.71a50.48,50.48,0,0,0,5.6.86,45.91,45.91,0,0,0,11.34-.32A23.31,23.31,0,0,0,430,433a14.24,14.24,0,0,0,2.58-1.55,8.4,8.4,0,0,0,2.19-2.32,6.45,6.45,0,0,0,1-3.22,4.9,4.9,0,0,0-1.17-3.36A8.07,8.07,0,0,0,432,420.6a28.21,28.21,0,0,0-2.66-1.13,19.14,19.14,0,0,1-4.68-2.19,5.08,5.08,0,0,1-.78-.75,2.27,2.27,0,0,1-.43-.81c0-.15-.07-.33-.11-.51l1.14.11a144.17,144.17,0,0,0,21,0c5.55-.29,11.51-.39,16.93-1.76,4.07-1,2.93-5.13.61-7.82-3.56-4.12-9.52-4.95-14.5-6.16a6.72,6.72,0,0,1-.76-.25,2,2,0,0,1,.3-.17,31.11,31.11,0,0,0,4.23-2.5,75.31,75.31,0,0,0,11.36-8.75c13.52-12.65,21-30.05,23.41-48.23C489.87,317.65,485.45,295.36,479.83,274.08,409.17,70.37q2.56-5.61,5.26-11.17c1.95-4,3.07-7.64,8.3-7.77,6.77-.17,13.61,3.53,18.3,8.18A28.72,28.72,0,0,1,449.65,78c.43,7.37-3.23,16.94-12.06,16.73-8.33-.2-10.13-10.23-10.37-16.71-.23-6.21-.08-12.39-3.45-17.85a1.24,1.24,0,0,0-2.12,0l-26.53,50.62-1.77-1.45Q400.46,89.56,409.17,70.37,266.6,87.8c-4-11.2-7.52-22.81-12.15-33.78-1.13-2.67-3.43-4.49-6.36-3.22-4.93,2.15-6.22,9.48-8.33,13.74-3.26,6.57-8,12.89-15.34,15.06s-15.37-.42-17.73-8.19c-4.19-13.85,9.17-23.94,18.87-30.91,5.25-3.77,10.39-7.82,15.81-11.35,6.49-4.23,12.86-.69,15,6.21q4.16,13.57,8.3,27.13,6.75,22.12,13.52,44.26c-1.23,1-2.43,2.08-3.61,3.16,-104,290.49c-6.52-3.34-12.5-8.22-14.84-15.4a20.79,20.79,0,0,1,3-18.9,22.17,22.17,0,0,1,15.17-8.34c3.76-.44,6.76.33,5.86,4.89-.62,3.11-1.38,6.18-1.73,9.33-1.48,13.14,6.33,21.43,17.68,26.65,3,1.38,5.94,2.74,8.87,4.16.47.81.95,1.62,1.45,2.42.71,1.11,1.47,2.18,2.25,3.24C187.37,386.6,174.1,384.18,162.6,378.29,313.57-11.05a70.07,70.07,0,0,1-17.75,22c-4,3.3-8.61,5.45-12.76,8.44-1,.7-2,1.42-1.29,2.74.56,1.08,2.41,1.31,3.44,1.56a73.15,73.15,0,0,1,7.7,2c2.68,1,5.74,2.48,6.77,5.36.06.19.17,1.37.43,1.63l-.2.06c-.59.45-2.06.46-2.76.58a150.35,150.35,0,0,1-19.08,1.51c-5.78.19-11.83.43-17.6-.38-.12-3.41.06-6.93.26-10.4.24-3.66.53-7.33.87-11,.7-7.31,1.55-14.62,2.69-21.89.56-3.63,1.19-7.26,2-10.84.41-1.79.87-3.57,1.44-5.32a24.1,24.1,0,0,1,1-2.57,8.72,8.72,0,0,1,.64-1.21,5.2,5.2,0,0,1,.84-1.09,6,6,0,0,0-.92,1,8,8,0,0,0-.72,1.19,24,24,0,0,0-1.15,2.53,55,55,0,0,0-1.71,5.28c-1,3.56-1.81,7.17-2.55,10.79-1.43,7.25-2.54,14.56-3.42,21.9-.44,3.67-.82,7.35-1.1,11a108.76,108.76,0,0,0-.42,11.18c0,.47,0,1,.1,1.46a8.37,8.37,0,0,0,.27,1.53,4.06,4.06,0,0,0,.33.87,5.89,5.89,0,0,0,.5.76,6.92,6.92,0,0,0,1.19,1.17,21.43,21.43,0,0,0,5.27,2.56c1.67.64,3.38,1.33,4.25,2.36a2.28,2.28,0,0,1,.46.81,2.58,2.58,0,0,1,.13.94,4,4,0,0,1-.62,2,6.65,6.65,0,0,1-1.73,1.79,5.47,5.47,0,0,0-.23-3.54,6.57,6.57,0,0,0-2.74-3.23,8.76,8.76,0,0,0-1.92-.77,15,15,0,0,0-1.86-.43,16,16,0,0,0-3.82-.26,15.41,15.41,0,0,0,3.22,2.09c.54.28,1.16.53,1.65.78s1.08.43,1.47.69A8.36,8.36,0,0,1,429,427a11.38,11.38,0,0,1,1.73,3.09l-.23-.19a13,13,0,0,1-1.59.89,20.2,20.2,0,0,1-4.95,1.61,38.72,38.72,0,0,1-3.93.41,2.49,2.49,0,0,0,.64-1.21,3.43,3.43,0,0,0-.21-2.07,7.13,7.13,0,0,0-2.46-2.89,10.89,10.89,0,0,0-3.17-1.65,8.25,8.25,0,0,0-3.57-.36c.94.8,1.84,1.44,2.72,2.08l2.56,1.89a15.28,15.28,0,0,1,2.25,1.87,3.35,3.35,0,0,1,.69,1.14,2.54,2.54,0,0,1,.06,1.56l-.29-.31a52,52,0,0,1-6-.1,45.42,45.42,0,0,1-5.34-.74c-.87-.18-1.78-.37-2.59-.62l-.62-.18-.59-.24a12.42,12.42,0,0,1-1.18-.52,20.4,20.4,0,0,1-7.57-7.12,28,28,0,0,1-2.45-4.74,32.93,32.93,0,0,1-1.5-5.16c-.74-3.55-1.07-7.22-1.68-10.89-.31-1.84-.71-3.64-1.09-5.44s-.76-3.61-1.25-5.41a31.87,31.87,0,0,0-2-5.18c-.78-1.67-1.51-3.36-2.22-5.06.6,1.75,1.22,3.48,1.88,5.21a31.69,31.69,0,0,1,1.75,5.19c.39,1.78.67,3.6,1,5.42s.6,3.64.82,5.45c.45,3.62.65,7.32,1.29,11,.05.3.11.6.16.89-2.52.81-5.07,1.52-7.63,2.16-21.37,5.31-43.85,5.33-65.63,3.06a319.3,319.3,0,0,1-34.88-5.73l0-.51a90.38,90.38,0,0,1,1.54-11.39,55.77,55.77,0,0,1,1.43-5.55c.61-1.82,1.26-3.63,2-5.38A107.28,107.28,0,0,1,292.25,381c-4.32,6.37-8.09,13.32-9.95,20.93a88.55,88.55,0,0,0-2,11.5c-.12,1-.23,1.93-.31,2.89s-.19,1.94-.31,2.84a24.19,24.19,0,0,1-1.47,5.36,21.29,21.29,0,0,1-6.43,8.84,15.61,15.61,0,0,1-4.73,2.55,21.88,21.88,0,0,1-2.68.7c-.92.2-1.85.36-2.78.49a48.48,48.48,0,0,1-8.93.45l-.3.31a2.54,2.54,0,0,1,.07-1.56,3.13,3.13,0,0,1,.68-1.13,15.84,15.84,0,0,1,2.25-1.88l2.57-1.88c.87-.64,1.77-1.28,2.71-2.08a8,8,0,0,0-3.57.36,10.63,10.63,0,0,0-3.17,1.64,7.35,7.35,0,0,0-2.46,2.89,3.62,3.62,0,0,0-.21,2.08,2.64,2.64,0,0,0,.64,1.2c-.52,0-1-.05-1.55-.1a23.31,23.31,0,0,1-2.73-.38,22.15,22.15,0,0,1-2.65-.74,15.89,15.89,0,0,1-3.52-1.69l-.24.2a11.07,11.07,0,0,1,1.72-3.09,8.54,8.54,0,0,1,2.32-2.07c.4-.26,1-.44,1.48-.69s1.11-.49,1.65-.78a16,16,0,0,0,3.21-2.08,15,15,0,0,0-3.82.26,12,12,0,0,0-1.85.43,8.31,8.31,0,0,0-1.93.76,6.65,6.65,0,0,0-2.74,3.24,5.49,5.49,0,0,0-.23,3.5c-.23-.17-.46-.33-.67-.52A5,5,0,0,1,239,431.9a4.63,4.63,0,0,1-.27-1,3.17,3.17,0,0,1,.07-1c.29-1.18,1.94-2.09,3.64-2.81a24.24,24.24,0,0,0,5.42-2.74,5.8,5.8,0,0,0,2.06-2.88,14.39,14.39,0,0,0,.56-3.09c.18-2,.14-4,.14-5.88l0-1.43a14,14,0,0,0,0-1.45l-.09-3-.29-11.57a152.87,152.87,0,0,0-2.06-23.17A56.75,56.75,0,0,0,245,360.67a30.25,30.25,0,0,0-2.76-5.14,18.11,18.11,0,0,0-4-4.23,18.1,18.1,0,0,1,3.66,4.43,30.71,30.71,0,0,1,2.46,5.18A56,56,0,0,1,247,372.08a168.06,168.06,0,0,1,1.34,23c0,3.86,0,7.72,0,11.6l.05,2.84a14.09,14.09,0,0,1,0,1.44l0,1.47c0,1.9,0,3.76-.21,5.55-.94,0-1.88,0-2.61,0a151.16,151.16,0,0,1-18.06-.28c-3.1-.25-14-.56-15.05-4.78-.91-3.71,11.26-5.39,13.73-6.91,1-.57,1.79-1.21,1.28-2.44-.3-.7-1.53-.95-2.09-1.17a60.34,60.34,0,0,1-7.14-3.36c-30.49-17.14-31.79-57.7-28.8-88.4.89-9.14,2.28-18.21,3.92-27.24a378.41,378.41,0,0,1,52.77-134.23c12.27-19.2,26.74-38.12,46.64-49.91a4,4,0,0,1,.68-.54c-.94-.86-1.94-1.62-3-2.42a35.48,35.48,0,0,0-6.05-3.62,12,12,0,0,1,2.73.31c2.71.45,5.43,1,8.09,1.67,1.53.4,3.16,1.26,4.78,1.1l.33,0-.09-.33a15.66,15.66,0,0,0-3.64-5.56A27.23,27.23,0,0,0,292,86.65c-1.34-.81-2.72-1.57-4.12-2.28s-2.63-1.1-3.86-1.81a11.1,11.1,0,0,1,3.25-1.13,31.8,31.8,0,0,1,4.23-.66,30.48,30.48,0,0,1,4.27-.09,9.51,9.51,0,0,1,3.94.9l1.53.89-.74-1.58a18.29,18.29,0,0,0-3.05-4.34c-1.16-1.29-2.39-2.51-3.67-3.68s-2.59-2.29-3.94-3.37l-1.05-.81,1.85.62c1.83.64,3.65,1.31,5.48,2s3.65,1.35,5.5,2A54,54,0,0,0,307.27,75l1.12.26-.21-1.13a10.7,10.7,0,0,0-2.48-4.65,34.15,34.15,0,0,0-3.5-3.61q-1.86-1.68-3.84-3.19c-.52-.4-1.06-.78-1.59-1.17l.94.2a36.17,36.17,0,0,1,3.85,1.17c1.26.46,2.5,1,3.7,1.56a13.24,13.24,0,0,1,3.21,2l3.1,3-1.59-4a23.19,23.19,0,0,0-5.48-8.19,19.3,19.3,0,0,0-5.95-3.9,19.67,19.67,0,0,1,8-.84c3.61.36,8.1,1.24,11,3.38l.34-.13-13-13a14.36,14.36,0,0,1,4,.07,21.62,21.62,0,0,1,5.86,1.91,62.81,62.81,0,0,1,10.7,7l2.39,1.82-.62-2.94L323.05,30.7a33.22,33.22,0,0,1,2.36,4.74,35.74,35.74,0,0,1,2.47,10.29l.83,9.25,1.53-9.17,2.34-14A49.48,49.48,0,0,1,335.35,46l.48,10.21,1.91-10A59.86,59.86,0,0,1,344,28.33a42.17,42.17,0,0,1,5.41-7.68,35.34,35.34,0,0,1,3.1-3c-1,1.91-1.84,3.85-2.68,5.8q-2.25,5.27-4,10.7c-1.21,3.62-2.28,7.29-3.13,11-.42,1.87-.79,3.76-1,5.68a28.91,28.91,0,0,0-.27,5.91l.56,7.87,1.64-7.75a47.27,47.27,0,0,1,1.35-5.3,30,30,0,0,1,2.06-5,24.7,24.7,0,0,1,3-4.45c.43-.52.88-1,1.34-1.5L349.34,54l-.61,4.3,2.54-3.52a99.06,99.06,0,0,0,6.47-9.94c.48-.85.93-1.72,1.36-2.61-.3,1.48-.67,3-1.08,4.43a85.18,85.18,0,0,1-4.8,12.72l-3.8,8.06,5.42-7.06,6.81-8.88-1.89,11.4-.38,2.27,1.74-1.49a22.15,22.15,0,0,1,7.22-4.18,20,20,0,0,1,6.59-1.1,32.61,32.61,0,0,0-7.23,12.73l-.48,1.56,1.45-.74,8.09-4.11A127.21,127.21,0,0,0,368,85.47l-1,2.46L368.84,86a27.22,27.22,0,0,1,8.57-6.08,23.71,23.71,0,0,1,9.49-2.09l-14,13.09-.69.78,1-.37,9.42-3.3a15,15,0,0,0-4.11,6.63,14.18,14.18,0,0,0-.61,7.09l.76.32a126.38,126.38,0,0,1,22.77,17.59c15.22,14.73,25.11,32.31,34.49,51.07,11.43,22.88,22.2,46.15,30.95,70.2,8.33,22.89,15.6,47.06,18,71.38C486.66,330.92,484.85,350.45,476.17,367.24Z"/>            </clipPath>        </defs>        <g clip-path="url(#outline)">            <rect fill="#B4D2F4" width="640" height="480" />        </g>    </g>    <g id="pattern">        <g clip-path="url(#outline)">            <path fill="#515178"  d="M1,442.46c1.37,2.94,19.68,6,22.77,7s6.15-.27,9-1.43a323.08,323.08,0,0,1,142.75-22.27c2.15.15,4.45.29,6.3-.81s2.7-2.9,3.59-4.69q4.77-9.58,9.53-19.16c1.63-3.27,6-5.8,5.77-9.45a20.34,20.34,0,0,0-2-8.57c-11.34-23.45-10.71-37.68-12.14-56.56-.88-11.62,1.34-25.07,3.9-35.71,2.42-10-30.86-23.15-37-26-20.63-9.66-42.69-16.83-65.49-19.13-13.29-1.35-26.29-3.87-38.81-8.64-12.31-4.7-34-10.42-45.71-1.08-2.73,2.19-2.28,8.74-1.85,32.39"/><path fill="#515178"  d="M445.06,398.18c-7.45,2.67-17.16,4.17-25,4.7a7.81,7.81,0,0,1,.26,7.57c-.24.4-.42,1.59-.05,1.87.14.11.71.66.53.66,7,.22,13.87,1,20.85.84,3.7-.11,7.4-.37,11.08-.79q4-.45,8-1c1.13-.16,2.49-.54,2.25-1.94a8.34,8.34,0,0,0-1.3-2.86c-1.17-1.9-3.93-3.7-6.26-4.58-2.75-1-5.65-1.37-8.47-2.06a3.07,3.07,0,0,1-1.29-.53c-.42-.34-.77-.11-.73-.59A5.76,5.76,0,0,1,445.06,398.18Z"/><path fill="#515178"  d="M227.73,404.08a83.56,83.56,0,0,0,22.85,4.36c-.27,2.33-.23,5.47-.4,7.5,0,.46-.08,1.59-.45,1.87-.14.11-.68.14-.51.14s-18.76.61-29.52-1.14a25.64,25.64,0,0,1-4.68-1.46,3.71,3.71,0,0,1-2.54-3.42c0-1.29,1.71-3,2.85-3.37,1.87-.56,3.73-1.12,5.6-1.7l2.83-.9a5.3,5.3,0,0,0,2.24-1A16.69,16.69,0,0,1,227.73,404.08Z"/><path fill="#515178"  d="M250.5,401.61c-.08,5.55-.41,12.5-.49,13.65-.11,1.58.42,3.07,0,4.59-.79,2.77-4.89,4.49-7.48,5.75-1.89.92-4.12,2.32-3.93,4.41.07.77.73,1.35,1,2.09,1.61,5.25,8.87,5.47,13.89,5.47,6.22,0,11.92.36,17.37-2.64,2.25-1.25,2.58-2.68,5.79-5.61,4.87-4.45,5.47-19.87,6.78-26.37.23-1.19-2.6,7.7-2.65,6.51l-.54-13.9c-1.61,2.3-2.81,5.22-4.42,7.52-.66-3.2-3.17-6.89-3.83-10.09-1.06,4.47-2.36,9.21-3.34,13.84-2.14-2.88-3.09-6.19-4-9.2-.61,4.05-3.14,8.18-3.75,12.23l-2.55-8.67-1.62,6.75c-1.47-2.74-3.5-6.86-5-9.6C251.2,400.14,251.06,401.16,250.5,401.61Z"/><path fill="#515178"  d="M421.47,397.35c-.24,3.31.26,11.85.34,13a43.37,43.37,0,0,0,1.31,6.37c.8,2.77,3.26,2.85,5.85,4.12,1.89.92,6.76,2.58,6.58,4.67-.6,6.6-11.8,7.44-17,7.44-6.22,0-11.12-.08-16.57-3.09a24.69,24.69,0,0,1-6.91-6.33c-3.13-4.58-4-11.27-4.78-17.76-.59-4.6.81-10.34,1-15,1.61,2.29,2.81,5.22,4.42,7.52a48.53,48.53,0,0,0,3.83-10.1c1.06,4.48,2.36,9.21,3.34,13.84,2.15-2.88,3.1-6.18,4-9.2.62,4.05,3.14,8.19,3.76,12.24l2.54-8.68,1.62,6.75c1.48-2.74,3.51-6.85,5-9.59C420.5,395.32,420.79,395.77,421.47,397.35Z"/>            <g opacity="0.6" ><path fill="#FFECDC"  d="M286.16,418.84c1.15-12.45,7.46-23.49,13.94-33.84a121,121,0,0,1,10.79-14.8c3.27-3.78,6.53-8.66,11.38-10.24,5.45-1.77,11.19-1.83,16.84-1.6,4.46.18,9.85,0,13.47,3.11,7.95,6.94,14.63,17,20.34,25.87s11.91,19.27,12.8,30.12c.13,1.48.5,1.44-.05,1.63-1.78.61-6.49,1.94-9.4,2.8-13.75,4.06-26.91,4.48-42.7,4.36-16.07-.12-32.34-4.21-46.95-7.41"/></g>        </g>    </g>    <g id="mask">        <path fill="#2d2926"  d="M275.62,111.89c1.22-1.08,2.38-2.21,3.64-3.22.16-.12,1.69-1.18,1.67-1.24q-6.62-21.63-13.22-43.26-3.91-12.8-7.82-25.58c-1.57-5.12-2.68-10.34-8-12.77-7.71-3.51-14.08,2.88-19.88,7-7.41,5.32-15.7,10.32-21.69,17.24-6.92,8-10.59,22.53-.54,29.85s23.15,0,29.16-9A53.46,53.46,0,0,0,243.58,62c.8-1.89,4.35-12.85,8.48-7.4.72.94,1,2.76,1.39,3.85l7.23,20.11,12.72,35.32a7.31,7.31,0,0,1,.61-.58c.39-.33.77-.7,1.15-1Z"/><path fill="#2d2926"  d="M435.24,52.32c-4.51-2.38-10.68-4.32-15.79-3a7.35,7.35,0,0,0-4.85,4c-2.07,3.75-3.79,7.74-5.6,11.61q-10.06,21.55-18.08,44l.36.29.76.57c.8.6,1.59,1.2,2.38,1.82s1.45,1.16,2.13,1.79l26.14-49.89c4.21,10-1.41,25.13,9.14,32,4.31,2.79,9.83,2,13.82-1,4.54-3.38,6.4-9.09,6.48-14.56C452.31,68.51,445.22,57.57,435.24,52.32Z"/><g opacity="0.1" ><path d="M485.26,334.8c.24,1.7-3.51,6.78-4.43,8.51-1.83,3.4-3.7,6.78-5.69,10.09a107.38,107.38,0,0,1-13.25,18.15A63.53,63.53,0,0,1,450.81,381a62.24,62.24,0,0,1-6.27,3.67,32.89,32.89,0,0,1-5.54,2.51c-4,1.16-6.15-2.22-7.33-5.53a39.61,39.61,0,0,1-2.34-17.57,118.4,118.4,0,0,1,2.55-14.45l-1.95,4.5c-3.07,11.15-4.59,22.6-6,34.07a4.62,4.62,0,0,0,.26,2.2,3.36,3.36,0,0,0-.88.73c-2.06,2.52-.7,11.12-.82,14.33a.69.69,0,0,0,.1.45c.15.19.45.14.69.08a107.87,107.87,0,0,0,24.5-9.45,75.86,75.86,0,0,0,24.16-21c3.2-4.32,6.1-8.64,7.9-13.7C482.91,353.11,486.53,344,485.26,334.8Z"/></g><g opacity="0.1" ><path d="M264.33,140.74c9.24-14,18-28.51,29.77-40.38A19.22,19.22,0,0,0,292.5,99C271.88,111.49,261,124.69,247,148.26c-14.46,24.32-29.82,53.26-39.83,79.35s-15,53.7-17.28,81.49c-2,24.34-2.41,58.3,14.75,78.15,10,11.58,21.42,19,39.16,21.3,2.05.26,4.13.54,6.22.83a31.3,31.3,0,0,0,.35-4.67,28.19,28.19,0,0,1-.21-3.68c0-.44-.09-.88-.15-1.3a5.3,5.3,0,0,1-.07-.88c-16.94-5.88-32-19.2-39.36-35.38-4-8.84-6.14-19-6.19-30.48-.13-27.66,3.21-61.13,10.79-87.4C226.08,207.77,242.55,173.77,264.33,140.74Z"/></g><g opacity="0.1" ><path d="M389.62,411.69c-.7-9.31.31-9.55.31-9.56-5.29,1.26-9.83,4.45-15.14,5.68a161.31,161.31,0,0,1-19.45,3c-22.06,2.28-44.43.82-66.28-2.86-1.83-5.46-1.09-11.7-.06-17.23.53-2.85,2-6.44,2.63-8.78-4.91,6.7-7.4,17.12-9.33,24.28a2.1,2.1,0,0,0-.06.51l-.88-.18v7a5,5,0,0,1-.16,1.26c1.93.42,3.82.85,5.64,1.28,14.92,5.56,32.77,6.75,48,6.87,15.68.13,34.75-1.09,45-4.91,2.87-1.06,9.13-1.63,10.49-3.06C391.6,413.72,389.74,413.3,389.62,411.69Z"/></g><g opacity="0.1" ><path d="M166.88,335.11c0,.15,3.44-.15,3.08-.06a24.73,24.73,0,0,0-8.58,4.41,13.81,13.81,0,0,0-4.42,5.2,25.81,25.81,0,0,0-2.37,9c-.58,5.34,0,10.72,3.95,14.7s9.34,6.33,14.33,8.3c7.47,2.95,15.11,4,23,4.91,3.06.34,6.73,1.18,7.67,4.11-2.74,2.09-6.43,2.37-9.88,2.3a68.75,68.75,0,0,1-41-14.75,17.88,17.88,0,0,1-4.27-4.41,15,15,0,0,1-1.84-5.34C145,354,148.54,343.13,156.09,337a13.46,13.46,0,0,1,7.88-3,4.55,4.55,0,0,1,2,.5C166.56,334.75,166.84,334.86,166.88,335.11Z"/></g><g opacity="0.1" ><path d="M283.49,82.94c0-.41,2-.52,2.29-.53,3.88-.13,14.31,5.12,20,10.92l-6.95.86a.92.92,0,0,1-.59,0,1.39,1.39,0,0,1-.44-.65c-1.13-2.65-1.09-2-3.06-3.76a35.64,35.64,0,0,0-5.62-4.14c-1.49-.78-3.95-1.56-5.43-2.34Z"/></g><g opacity="0.1" ><path d="M212.84,51a22.62,22.62,0,0,0-3.13,12.41,15.07,15.07,0,0,0,2.73,8.48,9.05,9.05,0,0,0,7.81,3.74,14.11,14.11,0,0,0,5.63-2.23A31.8,31.8,0,0,0,233,68.28a16.72,16.72,0,0,0,1.22-1.43,39.62,39.62,0,0,0,2.44-3.93,51.63,51.63,0,0,1,6.63-8.87c1.39-1.49,3.06-3,5.09-3.13,2.88-.2,5.14,2.31,6.91,4.59-2.54-1.51-3.39-3.72-7.46-3-1.4.24-3.24,3.21-3.87,4.4a40.75,40.75,0,0,0-2.07,5.24c-2,5.6-6.16,10.7-10.73,14.45a21.81,21.81,0,0,1-9.21,4.62c-2.79.57-5.57.94-8.27-.2a13.64,13.64,0,0,1-7.53-8.59A20.57,20.57,0,0,1,205,64.53c.24-3,1.67-5.12,3.15-7.61A39.54,39.54,0,0,1,212.84,51Z"/></g><g opacity="0.1" ><path d="M450.53,81.47a16.77,16.77,0,0,1-1.86,7.74c-1,1.93-2.21,3.75-4.23,4.78a10.5,10.5,0,0,1-8.82.17,16,16,0,0,1-5.2-3.28c-1.63-1.62-2.19-3.54-2.92-5.65a30.4,30.4,0,0,1-1.17-5.7,17.5,17.5,0,0,0,5.77,8c5.27,4.08,14.15,3.84,16.84-3.09Z"/></g><g opacity="0.1" ><path d="M213,51.37a22.48,22.48,0,0,0-3.12,12.39,15,15,0,0,0,2.72,8.47A9,9,0,0,0,220.4,76,14.34,14.34,0,0,0,226,73.74a31.23,31.23,0,0,0,7.05-5.13,15,15,0,0,0,1.22-1.42,39.47,39.47,0,0,0,2.44-3.92,51.63,51.63,0,0,1,6.62-8.86c1.39-1.49,3-3,5.09-3.13,2.87-.19,5.12,2.31,6.89,4.59-2.54-1.51-3.38-3.71-7.44-3-1.4.24-3.24,3.21-3.87,4.4A39,39,0,0,0,242,62.48c-2,5.6-6.15,10.69-10.72,14.43a21.59,21.59,0,0,1-9.2,4.61c-2.78.58-5.55,1-8.25-.2a13.57,13.57,0,0,1-7.52-8.56,20.57,20.57,0,0,1-1.09-7.89c.24-3,1.68-5.11,3.15-7.59A39.41,39.41,0,0,1,213,51.37Z"/></g><g opacity="0.1" ><path d="M450.32,81.79a16.69,16.69,0,0,1-1.86,7.72c-1,1.93-2.2,3.75-4.22,4.78a10.53,10.53,0,0,1-8.8.17,15.87,15.87,0,0,1-5.2-3.28c-1.63-1.61-2.18-3.53-2.92-5.64a31.17,31.17,0,0,1-1.16-5.69,17.52,17.52,0,0,0,5.76,8c5.26,4.07,14.13,3.83,16.82-3.09Z"/></g>        <g opacity="0.1" ><path fill="#fff"  d="M352.81,16c-1.11,3.33-2.86,6.55-4.18,9.81-3,7.25-6.36,14.7-8.39,22.26-1.2,4.44-1.82,16.33-.52,20.66.35,1.17,2.2-5.31,2.19-4.1,0,0,.06-8,.91-9.76s.93-5,1.1-7.07c.75-8.72,3.79-16.89,7-24.78Z"/></g><g opacity="0.1" ><path fill="#fff"  d="M374.51,58.61c-.35.69-2,1.44-2.61,1.91-4.85,3.64-6.94,8.34-8,14.19-.2,1.08,3.66-2.59,3.35-2Z"/></g><g opacity="0.1" ><path fill="#fff"  d="M375.86,69.33c-5.12,3.82-9.87,15-11.67,21.88.79-.85,2.51-2.91,3.3-3.77Z"/></g><g opacity="0.1" ><path fill="#fff"  d="M385.44,79.75c-5.43,1-10.46,4.87-13.54,10.38,2.13-.83,3.29-.49,5.42-1.32Z"/></g><path opacity="0.1" fill="#fff"  d="M479.21,347.51l1.08-1.27a92,92,0,0,0,7.42-10.56,145.17,145.17,0,0,0-.81-27.44c-5.29-45.38-31.36-100.16-52-142.52s-47.24-57-47.24-57c6,6.79,32.31,49.69,42.63,70.06S472.92,275.42,480,319.67A76.24,76.24,0,0,1,479.21,347.51Z"/>    </g>    <g id="outline">        <path fill="none"  d="M278.16,106.75q-6.77-22.12-13.52-44.26-4.15-13.56-8.3-27.13c-2.11-6.9-8.48-10.44-15-6.21-5.42,3.53-10.56,7.58-15.81,11.35-9.7,7-23.06,17.06-18.87,30.91,2.36,7.77,10.46,10.35,17.73,8.19s12.08-8.49,15.34-15.06c2.11-4.26,3.4-11.59,8.33-13.74,2.93-1.27,5.23.55,6.36,3.22,4.63,11,8.12,22.58,12.15,33.78l7.95,22.11C275.73,108.83,276.93,107.77,278.16,106.75Z"/><path fill="none"  d="M421.65,60.19a1.24,1.24,0,0,1,2.12,0c3.37,5.46,3.22,11.64,3.45,17.85.24,6.48,2,16.51,10.37,16.71,8.83.21,12.49-9.36,12.06-16.73A28.72,28.72,0,0,0,441,59.61c-4.69-4.65-11.53-8.35-18.3-8.18-5.23.13-6.35,3.75-8.3,7.77q-2.7,5.55-5.26,11.17-8.73,19.16-15.82,39l1.77,1.45Z"/><path fill="none"  d="M466.81,241c-8.75-24-19.52-47.32-30.95-70.2-9.38-18.76-19.27-36.34-34.49-51.07a126.38,126.38,0,0,0-22.77-17.59l-.76-.32a14.18,14.18,0,0,1,.61-7.09,15,15,0,0,1,4.11-6.63l-9.42,3.3-1,.37.69-.78,14-13.09a23.71,23.71,0,0,0-9.49,2.09A27.22,27.22,0,0,0,368.84,86L367,87.93l1-2.46a127.21,127.21,0,0,1,8.76-17.61L368.67,72l-1.45.74.48-1.56a32.61,32.61,0,0,1,7.23-12.73,20,20,0,0,0-6.59,1.1,22.15,22.15,0,0,0-7.22,4.18l-1.74,1.49.38-2.27,1.89-11.4-6.81,8.88-5.42,7.06,3.8-8.06A85.18,85.18,0,0,0,358,46.68c.41-1.47.78-3,1.08-4.43-.43.89-.88,1.76-1.36,2.61a99.06,99.06,0,0,1-6.47,9.94l-2.54,3.52.61-4.3,1.94-13.4c-.46.49-.91,1-1.34,1.5a24.7,24.7,0,0,0-3,4.45,30,30,0,0,0-2.06,5,47.27,47.27,0,0,0-1.35,5.3l-1.64,7.75-.56-7.87a28.91,28.91,0,0,1,.27-5.91c.25-1.92.62-3.81,1-5.68.85-3.74,1.92-7.41,3.13-11s2.55-7.19,4-10.7c.84-1.95,1.72-3.89,2.68-5.8a35.34,35.34,0,0,0-3.1,3A42.17,42.17,0,0,0,344,28.33a59.86,59.86,0,0,0-6.27,17.82l-1.91,10L335.35,46a49.48,49.48,0,0,0-2.77-14.16l-2.34,14L328.71,55l-.83-9.25a35.74,35.74,0,0,0-2.47-10.29,33.22,33.22,0,0,0-2.36-4.74l4.17,19.86.62,2.94-2.39-1.82a62.81,62.81,0,0,0-10.7-7,21.62,21.62,0,0,0-5.86-1.91,14.36,14.36,0,0,0-4-.07l13,13-.34.13c-2.93-2.14-7.42-3-11-3.38a19.67,19.67,0,0,0-8,.84,19.3,19.3,0,0,1,5.95,3.9A23.19,23.19,0,0,1,310,65.46l1.59,4-3.1-3a13.24,13.24,0,0,0-3.21-2c-1.2-.58-2.44-1.1-3.7-1.56a36.17,36.17,0,0,0-3.85-1.17l-.94-.2c.53.39,1.07.77,1.59,1.17q2,1.52,3.84,3.19a34.15,34.15,0,0,1,3.5,3.61,10.7,10.7,0,0,1,2.48,4.65l.21,1.13L307.27,75a54,54,0,0,1-5.67-1.71c-1.85-.64-3.68-1.32-5.5-2s-3.65-1.34-5.48-2l-1.85-.62,1.05.81c1.35,1.08,2.67,2.2,3.94,3.37s2.51,2.39,3.67,3.68a18.29,18.29,0,0,1,3.05,4.34l.74,1.58-1.53-.89a9.51,9.51,0,0,0-3.94-.9,30.48,30.48,0,0,0-4.27.09,31.8,31.8,0,0,0-4.23.66A11.1,11.1,0,0,0,284,82.56c1.23.71,2.59,1.17,3.86,1.81s2.78,1.47,4.12,2.28a27.23,27.23,0,0,1,4.61,3.19,15.66,15.66,0,0,1,3.64,5.56l.09.33-.33,0c-1.62.16-3.25-.7-4.78-1.1-2.66-.69-5.38-1.22-8.09-1.67a12,12,0,0,0-2.73-.31,35.48,35.48,0,0,1,6.05,3.62c1.05.8,2.05,1.56,3,2.42a4,4,0,0,0-.68.54c-19.9,11.79-34.37,30.71-46.64,49.91A378.41,378.41,0,0,0,193.34,283.4c-1.64,9-3,18.1-3.92,27.24-3,30.7-1.69,71.26,28.8,88.4a60.34,60.34,0,0,0,7.14,3.36c.56.22,1.79.47,2.09,1.17.51,1.23-.33,1.87-1.28,2.44-2.47,1.52-14.64,3.2-13.73,6.91,1.05,4.22,11.95,4.53,15.05,4.78a151.16,151.16,0,0,0,18.06.28c.73,0,1.67,0,2.61,0,.18-1.79.18-3.65.21-5.55l0-1.47a14.09,14.09,0,0,0,0-1.44l-.05-2.84c-.08-3.88,0-7.74,0-11.6a168.06,168.06,0,0,0-1.34-23,56,56,0,0,0-2.63-11.17,30.71,30.71,0,0,0-2.46-5.18,18.1,18.1,0,0,0-3.66-4.43,18.11,18.11,0,0,1,4,4.23,30.25,30.25,0,0,1,2.76,5.14,56.75,56.75,0,0,1,3.21,11.21,152.87,152.87,0,0,1,2.06,23.17l.29,11.57.09,3a14,14,0,0,1,0,1.45l0,1.43c0,1.91,0,3.87-.14,5.88a14.39,14.39,0,0,1-.56,3.09,5.8,5.8,0,0,1-2.06,2.88,24.24,24.24,0,0,1-5.42,2.74c-1.7.72-3.35,1.63-3.64,2.81a3.17,3.17,0,0,0-.07,1,4.63,4.63,0,0,0,.27,1,5,5,0,0,0,1.39,1.86c.21.19.44.35.67.52a5.49,5.49,0,0,1,.23-3.5,6.65,6.65,0,0,1,2.74-3.24,8.31,8.31,0,0,1,1.93-.76,12,12,0,0,1,1.85-.43,15,15,0,0,1,3.82-.26,16,16,0,0,1-3.21,2.08c-.54.29-1.17.53-1.65.78s-1.08.43-1.48.69a8.54,8.54,0,0,0-2.32,2.07,11.07,11.07,0,0,0-1.72,3.09l.24-.2a15.89,15.89,0,0,0,3.52,1.69,22.15,22.15,0,0,0,2.65.74,23.31,23.31,0,0,0,2.73.38c.51,0,1,.07,1.55.1a2.64,2.64,0,0,1-.64-1.2,3.62,3.62,0,0,1,.21-2.08,7.35,7.35,0,0,1,2.46-2.89,10.63,10.63,0,0,1,3.17-1.64,8,8,0,0,1,3.57-.36c-.94.8-1.84,1.44-2.71,2.08l-2.57,1.88a15.84,15.84,0,0,0-2.25,1.88,3.13,3.13,0,0,0-.68,1.13,2.54,2.54,0,0,0-.07,1.56l.3-.31a48.48,48.48,0,0,0,8.93-.45c.93-.13,1.86-.29,2.78-.49a21.88,21.88,0,0,0,2.68-.7,15.61,15.61,0,0,0,4.73-2.55,21.29,21.29,0,0,0,6.43-8.84,24.19,24.19,0,0,0,1.47-5.36c.12-.9.22-1.86.31-2.84s.19-1.92.31-2.89a88.55,88.55,0,0,1,2-11.5c1.86-7.61,5.63-14.56,9.95-20.93a107.28,107.28,0,0,0-5.31,10.27c-.78,1.75-1.43,3.56-2,5.38a55.77,55.77,0,0,0-1.43,5.55,90.38,90.38,0,0,0-1.54,11.39l0,.51a319.3,319.3,0,0,0,34.88,5.73c21.78,2.27,44.26,2.25,65.63-3.06,2.56-.64,5.11-1.35,7.63-2.16,0-.29-.11-.59-.16-.89-.64-3.69-.84-7.39-1.29-11-.22-1.81-.53-3.63-.82-5.45s-.58-3.64-1-5.42a31.69,31.69,0,0,0-1.75-5.19c-.66-1.73-1.28-3.46-1.88-5.21.71,1.7,1.44,3.39,2.22,5.06a31.87,31.87,0,0,1,2,5.18c.49,1.8.86,3.61,1.25,5.41s.78,3.6,1.09,5.44c.61,3.67.94,7.34,1.68,10.89a32.93,32.93,0,0,0,1.5,5.16,28,28,0,0,0,2.45,4.74,20.4,20.4,0,0,0,7.57,7.12,12.42,12.42,0,0,0,1.18.52l.59.24.62.18c.81.25,1.72.44,2.59.62a45.42,45.42,0,0,0,5.34.74,52,52,0,0,0,6,.1l.29.31a2.54,2.54,0,0,0-.06-1.56,3.35,3.35,0,0,0-.69-1.14,15.28,15.28,0,0,0-2.25-1.87L414,426.7c-.88-.64-1.78-1.28-2.72-2.08a8.25,8.25,0,0,1,3.57.36,10.89,10.89,0,0,1,3.17,1.65,7.13,7.13,0,0,1,2.46,2.89,3.43,3.43,0,0,1,.21,2.07,2.49,2.49,0,0,1-.64,1.21,38.72,38.72,0,0,0,3.93-.41,20.2,20.2,0,0,0,4.95-1.61,13,13,0,0,0,1.59-.89l.23.19A11.38,11.38,0,0,0,429,427a8.36,8.36,0,0,0-2.32-2.06c-.39-.26-1-.44-1.47-.69s-1.11-.5-1.65-.78a15.41,15.41,0,0,1-3.22-2.09,16,16,0,0,1,3.82.26,15,15,0,0,1,1.86.43,8.76,8.76,0,0,1,1.92.77,6.57,6.57,0,0,1,2.74,3.23,5.47,5.47,0,0,1,.23,3.54,6.65,6.65,0,0,0,1.73-1.79,4,4,0,0,0,.62-2,2.58,2.58,0,0,0-.13-.94,2.28,2.28,0,0,0-.46-.81c-.87-1-2.58-1.72-4.25-2.36a21.43,21.43,0,0,1-5.27-2.56A6.92,6.92,0,0,1,422,418a5.89,5.89,0,0,1-.5-.76,4.06,4.06,0,0,1-.33-.87,8.37,8.37,0,0,1-.27-1.53c-.06-.5-.09-1-.1-1.46a108.76,108.76,0,0,1,.42-11.18c.28-3.69.66-7.37,1.1-11,.88-7.34,2-14.65,3.42-21.9.74-3.62,1.55-7.23,2.55-10.79a55,55,0,0,1,1.71-5.28,24,24,0,0,1,1.15-2.53,8,8,0,0,1,.72-1.19,6,6,0,0,1,.92-1,5.2,5.2,0,0,0-.84,1.09,8.72,8.72,0,0,0-.64,1.21,24.1,24.1,0,0,0-1,2.57c-.57,1.75-1,3.53-1.44,5.32-.81,3.58-1.44,7.21-2,10.84-1.14,7.27-2,14.58-2.69,21.89-.34,3.66-.63,7.33-.87,11-.2,3.47-.38,7-.26,10.4,5.77.81,11.82.57,17.6.38a150.35,150.35,0,0,0,19.08-1.51c.7-.12,2.17-.13,2.76-.58l.2-.06c-.26-.26-.37-1.44-.43-1.63-1-2.88-4.09-4.39-6.77-5.36a73.15,73.15,0,0,0-7.7-2c-1-.25-2.88-.48-3.44-1.56-.7-1.32.32-2,1.29-2.74,4.15-3,8.75-5.14,12.76-8.44a70.07,70.07,0,0,0,17.75-22c8.68-16.79,10.49-36.32,8.65-54.91C482.41,288,475.14,263.84,466.81,241Z"/><path fill="none"  d="M196.62,380.68c-2.93-1.42-5.87-2.78-8.87-4.16-11.35-5.22-19.16-13.51-17.68-26.65.35-3.15,1.11-6.22,1.73-9.33.9-4.56-2.1-5.33-5.86-4.89A22.17,22.17,0,0,0,150.77,344a20.79,20.79,0,0,0-3,18.9c2.34,7.18,8.32,12.06,14.84,15.4,11.5,5.89,24.77,8.31,37.72,8-.78-1.06-1.54-2.13-2.25-3.24C197.57,382.3,197.09,381.49,196.62,380.68Z"/><path d="M479.83,274.08c-6.65-25.19-16.15-49.55-26.89-73.26-5.39-11.91-11.11-23.66-17-35.33-5-9.85-9.95-19.59-16.44-28.55A142,142,0,0,0,397,112.41l25.65-48.94c4.21,10-1.41,25.13,9.14,32,4.31,2.79,9.83,2,13.82-1,4.54-3.38,6.4-9.09,6.48-14.56.18-11.39-6.91-22.33-16.89-27.58-4.51-2.38-10.68-4.32-15.79-3a7.3,7.3,0,0,0-4.85,4c-2.07,3.75-3.79,7.74-5.6,11.61q-9.81,21-17.68,42.85A121,121,0,0,0,379,99.46a27.67,27.67,0,0,1,1.4-5c1.29-3.31,4.55-6.82,7.17-9.21l.73-.66-2.24.75L378.61,88,389,77.15l.52-.57-.78,0c-3.64-.16-8.35,1.15-11.7,2.59A28.23,28.23,0,0,0,370,83.59a130.71,130.71,0,0,1,9-17l1.23-1.94-2.06,1L369.56,70a30.34,30.34,0,0,1,7.62-11.7l1.22-1.14L376.73,57a21.33,21.33,0,0,0-8.9,1,23.46,23.46,0,0,0-6.07,3.08L364,48.28l.62-3.53-2.21,2.83-4.56,5.84c.77-2,1.48-4.09,2.09-6.18a46.75,46.75,0,0,0,1-6.39,29.51,29.51,0,0,0-.17-7.61l-.07.06c-.14,1.8-1.33,3.9-2,5.66a40.54,40.54,0,0,1-2.82,4.88c-1.16,2.07-2.44,4.07-3.79,6L354,37.42l.56-3.85-2.49,3c-1.11,1.32-2.52,2.64-3.76,4.13A28.16,28.16,0,0,0,345,45.54c-.08.17-.16.34-.25.5,0-.13.06-.25.08-.38.84-3.65,1.9-7.25,3.09-10.81s2.54-7.08,4-10.52a79.57,79.57,0,0,1,5-10l2.4-3.92-4,2.31a32.39,32.39,0,0,0-7.72,6.35A44.24,44.24,0,0,0,342,27.18,59.21,59.21,0,0,0,337,39.05a49.39,49.39,0,0,0-3.81-12.2l-1.66-3.57-.64,3.88L329,38.76a38.29,38.29,0,0,0-1.4-4.2,33.87,33.87,0,0,0-5.91-9.65l-2.92-3.29.92,4.3,4.73,22.19a55.08,55.08,0,0,0-8.71-5.38,23.61,23.61,0,0,0-6.48-2.08,15.85,15.85,0,0,0-6.91.4l-1.84.55,1.41,1.29,9.18,8.43a22.92,22.92,0,0,0-4.27-.86,21.45,21.45,0,0,0-11.66,2.12l-2.61,1.3,2.85.58a16.39,16.39,0,0,1,7.81,4.21,20.4,20.4,0,0,1,3.57,4.48l-.7-.34a41,41,0,0,0-3.9-1.61,38.58,38.58,0,0,0-4-1.19,20.37,20.37,0,0,0-2.12-.37,7,7,0,0,0-2.36.06l-2,.45,1.73,1.09a61.55,61.55,0,0,1,7.74,5.81,32.94,32.94,0,0,1,3.37,3.42,11.89,11.89,0,0,1,1.79,2.71c-1.4-.37-2.81-.83-4.21-1.3-1.83-.62-3.66-1.27-5.49-1.93s-3.66-1.31-5.51-1.94a55.51,55.51,0,0,0-5.68-1.66l-3.8-.83,3.32,2A45.65,45.65,0,0,1,289,70.51c1.33,1,2.64,2.14,3.9,3.28s2.49,2.31,3.63,3.55A23.78,23.78,0,0,1,298.72,80l-.68-.15a18.92,18.92,0,0,0-2.24-.24,30.86,30.86,0,0,0-4.41.16,31.87,31.87,0,0,0-4.35.74c-1.43.37-2.32.69-4.45,1.22l-2.52.9,3.14,1a23,23,0,0,1,4,1.73c1.45.79,2.9,1.57,4.31,2.42a26.8,26.8,0,0,1,4,2.85,9.4,9.4,0,0,1,2.42,3.14c-2.32-.81-4.93-.88-7.36-1.23a53.72,53.72,0,0,0-8.11-.45l-.54.06.49.24A46.41,46.41,0,0,1,289.87,97l.94.72a101.46,101.46,0,0,0-10.59,7.4L267.71,64.17q-3.91-12.8-7.82-25.58c-1.57-5.12-2.68-10.34-8-12.77-7.71-3.51-14.08,2.88-19.88,7-7.41,5.32-15.7,10.32-21.69,17.24-6.92,8-10.59,22.53-.54,29.85s23.15,0,29.16-9A53.46,53.46,0,0,0,243.58,62c.8-1.89,4.35-12.85,8.49-7.4.71.94,1,2.76,1.38,3.85l7.23,20.11q6,16.58,11.92,33.14-3.18,3-6.16,6.25c-16.17,17.59-28.77,38.77-39.66,59.93A380.5,380.5,0,0,0,199.38,247q-5.07,17.64-8.4,35.73c-3.23,17.74-5.58,35.83-5,53.9.46,13.65,2.6,27.82,8.62,40.21-4.48-2-9.1-3.77-13.16-6.63-8.12-5.72-10.17-13.81-8.51-23.25.68-3.85,3.83-10.5-.78-13.05-3.39-1.89-8.56-.64-12,.52a23.42,23.42,0,0,0-13.37,11.2c-6,11.58-.81,24.5,9.31,31.61,12.87,9.05,30.28,12.14,46.07,11.48a52.94,52.94,0,0,0,11.86,10.63,51.63,51.63,0,0,0,5.61,3.19c.92.45,1.86.88,2.81,1.28a4.57,4.57,0,0,0,.77.33l.32.13c-.7.31-1.41.64-1.61.71-1.72.58-3.45,1.11-5.16,1.74-3.31,1.21-8.83,3.24-6.29,7.78,2.22,4,8.87,4.65,12.79,5.17a124.8,124.8,0,0,0,19.33.81c1.31,0,3.18.1,5.08,0,0,.05,0,.11,0,.16a2.91,2.91,0,0,1-.47,1,4.1,4.1,0,0,1-.81.8,23.89,23.89,0,0,1-4.91,2.4,16.12,16.12,0,0,0-2.78,1.45,6.82,6.82,0,0,0-1.31,1.18,4.91,4.91,0,0,0-.92,1.7,6.42,6.42,0,0,0,2.28,6.39,15.83,15.83,0,0,0,5.47,3,22.79,22.79,0,0,0,2.94.8,26.63,26.63,0,0,0,3,.41A48.88,48.88,0,0,0,262,439.4c1-.15,1.95-.34,2.91-.55a27.6,27.6,0,0,0,2.91-.81,17.77,17.77,0,0,0,5.36-3,22.71,22.71,0,0,0,6.87-9.81,26,26,0,0,0,1.44-5.82c.11-1,.18-1.93.24-2.86l1.47.34c22.8,4.87,46.3,7.72,69.64,6.53a157.88,157.88,0,0,0,31.41-4.58c2.14-.55,4.26-1.17,6.36-1.84a28.73,28.73,0,0,0,3.19,7.35,21.75,21.75,0,0,0,8.2,8c.44.21.88.45,1.34.62l.69.28.7.23c1,.3,1.84.5,2.77.71a50.48,50.48,0,0,0,5.6.86,45.91,45.91,0,0,0,11.34-.32A23.31,23.31,0,0,0,430,433a14.24,14.24,0,0,0,2.58-1.55,8.4,8.4,0,0,0,2.19-2.32,6.45,6.45,0,0,0,1-3.22,4.9,4.9,0,0,0-1.17-3.36A8.07,8.07,0,0,0,432,420.6a28.21,28.21,0,0,0-2.66-1.13,19.14,19.14,0,0,1-4.68-2.19,5.08,5.08,0,0,1-.78-.75,2.27,2.27,0,0,1-.43-.81c0-.15-.07-.33-.11-.51l1.14.11a144.17,144.17,0,0,0,21,0c5.55-.29,11.51-.39,16.93-1.76,4.07-1,2.93-5.13.61-7.82-3.56-4.12-9.52-4.95-14.5-6.16a6.72,6.72,0,0,1-.76-.25,2,2,0,0,1,.3-.17,31.11,31.11,0,0,0,4.23-2.5,75.31,75.31,0,0,0,11.36-8.75c13.52-12.65,21-30.05,23.41-48.23C489.87,317.65,485.45,295.36,479.83,274.08ZM409.17,70.37q2.56-5.61,5.26-11.17c1.95-4,3.07-7.64,8.3-7.77,6.77-.17,13.61,3.53,18.3,8.18A28.72,28.72,0,0,1,449.65,78c.43,7.37-3.23,16.94-12.06,16.73-8.33-.2-10.13-10.23-10.37-16.71-.23-6.21-.08-12.39-3.45-17.85a1.24,1.24,0,0,0-2.12,0l-26.53,50.62-1.77-1.45Q400.46,89.56,409.17,70.37ZM266.6,87.8c-4-11.2-7.52-22.81-12.15-33.78-1.13-2.67-3.43-4.49-6.36-3.22-4.93,2.15-6.22,9.48-8.33,13.74-3.26,6.57-8,12.89-15.34,15.06s-15.37-.42-17.73-8.19c-4.19-13.85,9.17-23.94,18.87-30.91,5.25-3.77,10.39-7.82,15.81-11.35,6.49-4.23,12.86-.69,15,6.21q4.16,13.57,8.3,27.13,6.75,22.12,13.52,44.26c-1.23,1-2.43,2.08-3.61,3.16Zm-104,290.49c-6.52-3.34-12.5-8.22-14.84-15.4a20.79,20.79,0,0,1,3-18.9,22.17,22.17,0,0,1,15.17-8.34c3.76-.44,6.76.33,5.86,4.89-.62,3.11-1.38,6.18-1.73,9.33-1.48,13.14,6.33,21.43,17.68,26.65,3,1.38,5.94,2.74,8.87,4.16.47.81.95,1.62,1.45,2.42.71,1.11,1.47,2.18,2.25,3.24C187.37,386.6,174.1,384.18,162.6,378.29Zm313.57-11.05a70.07,70.07,0,0,1-17.75,22c-4,3.3-8.61,5.45-12.76,8.44-1,.7-2,1.42-1.29,2.74.56,1.08,2.41,1.31,3.44,1.56a73.15,73.15,0,0,1,7.7,2c2.68,1,5.74,2.48,6.77,5.36.06.19.17,1.37.43,1.63l-.2.06c-.59.45-2.06.46-2.76.58a150.35,150.35,0,0,1-19.08,1.51c-5.78.19-11.83.43-17.6-.38-.12-3.41.06-6.93.26-10.4.24-3.66.53-7.33.87-11,.7-7.31,1.55-14.62,2.69-21.89.56-3.63,1.19-7.26,2-10.84.41-1.79.87-3.57,1.44-5.32a24.1,24.1,0,0,1,1-2.57,8.72,8.72,0,0,1,.64-1.21,5.2,5.2,0,0,1,.84-1.09,6,6,0,0,0-.92,1,8,8,0,0,0-.72,1.19,24,24,0,0,0-1.15,2.53,55,55,0,0,0-1.71,5.28c-1,3.56-1.81,7.17-2.55,10.79-1.43,7.25-2.54,14.56-3.42,21.9-.44,3.67-.82,7.35-1.1,11a108.76,108.76,0,0,0-.42,11.18c0,.47,0,1,.1,1.46a8.37,8.37,0,0,0,.27,1.53,4.06,4.06,0,0,0,.33.87,5.89,5.89,0,0,0,.5.76,6.92,6.92,0,0,0,1.19,1.17,21.43,21.43,0,0,0,5.27,2.56c1.67.64,3.38,1.33,4.25,2.36a2.28,2.28,0,0,1,.46.81,2.58,2.58,0,0,1,.13.94,4,4,0,0,1-.62,2,6.65,6.65,0,0,1-1.73,1.79,5.47,5.47,0,0,0-.23-3.54,6.57,6.57,0,0,0-2.74-3.23,8.76,8.76,0,0,0-1.92-.77,15,15,0,0,0-1.86-.43,16,16,0,0,0-3.82-.26,15.41,15.41,0,0,0,3.22,2.09c.54.28,1.16.53,1.65.78s1.08.43,1.47.69A8.36,8.36,0,0,1,429,427a11.38,11.38,0,0,1,1.73,3.09l-.23-.19a13,13,0,0,1-1.59.89,20.2,20.2,0,0,1-4.95,1.61,38.72,38.72,0,0,1-3.93.41,2.49,2.49,0,0,0,.64-1.21,3.43,3.43,0,0,0-.21-2.07,7.13,7.13,0,0,0-2.46-2.89,10.89,10.89,0,0,0-3.17-1.65,8.25,8.25,0,0,0-3.57-.36c.94.8,1.84,1.44,2.72,2.08l2.56,1.89a15.28,15.28,0,0,1,2.25,1.87,3.35,3.35,0,0,1,.69,1.14,2.54,2.54,0,0,1,.06,1.56l-.29-.31a52,52,0,0,1-6-.1,45.42,45.42,0,0,1-5.34-.74c-.87-.18-1.78-.37-2.59-.62l-.62-.18-.59-.24a12.42,12.42,0,0,1-1.18-.52,20.4,20.4,0,0,1-7.57-7.12,28,28,0,0,1-2.45-4.74,32.93,32.93,0,0,1-1.5-5.16c-.74-3.55-1.07-7.22-1.68-10.89-.31-1.84-.71-3.64-1.09-5.44s-.76-3.61-1.25-5.41a31.87,31.87,0,0,0-2-5.18c-.78-1.67-1.51-3.36-2.22-5.06.6,1.75,1.22,3.48,1.88,5.21a31.69,31.69,0,0,1,1.75,5.19c.39,1.78.67,3.6,1,5.42s.6,3.64.82,5.45c.45,3.62.65,7.32,1.29,11,.05.3.11.6.16.89-2.52.81-5.07,1.52-7.63,2.16-21.37,5.31-43.85,5.33-65.63,3.06a319.3,319.3,0,0,1-34.88-5.73l0-.51a90.38,90.38,0,0,1,1.54-11.39,55.77,55.77,0,0,1,1.43-5.55c.61-1.82,1.26-3.63,2-5.38A107.28,107.28,0,0,1,292.25,381c-4.32,6.37-8.09,13.32-9.95,20.93a88.55,88.55,0,0,0-2,11.5c-.12,1-.23,1.93-.31,2.89s-.19,1.94-.31,2.84a24.19,24.19,0,0,1-1.47,5.36,21.29,21.29,0,0,1-6.43,8.84,15.61,15.61,0,0,1-4.73,2.55,21.88,21.88,0,0,1-2.68.7c-.92.2-1.85.36-2.78.49a48.48,48.48,0,0,1-8.93.45l-.3.31a2.54,2.54,0,0,1,.07-1.56,3.13,3.13,0,0,1,.68-1.13,15.84,15.84,0,0,1,2.25-1.88l2.57-1.88c.87-.64,1.77-1.28,2.71-2.08a8,8,0,0,0-3.57.36,10.63,10.63,0,0,0-3.17,1.64,7.35,7.35,0,0,0-2.46,2.89,3.62,3.62,0,0,0-.21,2.08,2.64,2.64,0,0,0,.64,1.2c-.52,0-1-.05-1.55-.1a23.31,23.31,0,0,1-2.73-.38,22.15,22.15,0,0,1-2.65-.74,15.89,15.89,0,0,1-3.52-1.69l-.24.2a11.07,11.07,0,0,1,1.72-3.09,8.54,8.54,0,0,1,2.32-2.07c.4-.26,1-.44,1.48-.69s1.11-.49,1.65-.78a16,16,0,0,0,3.21-2.08,15,15,0,0,0-3.82.26,12,12,0,0,0-1.85.43,8.31,8.31,0,0,0-1.93.76,6.65,6.65,0,0,0-2.74,3.24,5.49,5.49,0,0,0-.23,3.5c-.23-.17-.46-.33-.67-.52A5,5,0,0,1,239,431.9a4.63,4.63,0,0,1-.27-1,3.17,3.17,0,0,1,.07-1c.29-1.18,1.94-2.09,3.64-2.81a24.24,24.24,0,0,0,5.42-2.74,5.8,5.8,0,0,0,2.06-2.88,14.39,14.39,0,0,0,.56-3.09c.18-2,.14-4,.14-5.88l0-1.43a14,14,0,0,0,0-1.45l-.09-3-.29-11.57a152.87,152.87,0,0,0-2.06-23.17A56.75,56.75,0,0,0,245,360.67a30.25,30.25,0,0,0-2.76-5.14,18.11,18.11,0,0,0-4-4.23,18.1,18.1,0,0,1,3.66,4.43,30.71,30.71,0,0,1,2.46,5.18A56,56,0,0,1,247,372.08a168.06,168.06,0,0,1,1.34,23c0,3.86,0,7.72,0,11.6l.05,2.84a14.09,14.09,0,0,1,0,1.44l0,1.47c0,1.9,0,3.76-.21,5.55-.94,0-1.88,0-2.61,0a151.16,151.16,0,0,1-18.06-.28c-3.1-.25-14-.56-15.05-4.78-.91-3.71,11.26-5.39,13.73-6.91,1-.57,1.79-1.21,1.28-2.44-.3-.7-1.53-.95-2.09-1.17a60.34,60.34,0,0,1-7.14-3.36c-30.49-17.14-31.79-57.7-28.8-88.4.89-9.14,2.28-18.21,3.92-27.24a378.41,378.41,0,0,1,52.77-134.23c12.27-19.2,26.74-38.12,46.64-49.91a4,4,0,0,1,.68-.54c-.94-.86-1.94-1.62-3-2.42a35.48,35.48,0,0,0-6.05-3.62,12,12,0,0,1,2.73.31c2.71.45,5.43,1,8.09,1.67,1.53.4,3.16,1.26,4.78,1.1l.33,0-.09-.33a15.66,15.66,0,0,0-3.64-5.56A27.23,27.23,0,0,0,292,86.65c-1.34-.81-2.72-1.57-4.12-2.28s-2.63-1.1-3.86-1.81a11.1,11.1,0,0,1,3.25-1.13,31.8,31.8,0,0,1,4.23-.66,30.48,30.48,0,0,1,4.27-.09,9.51,9.51,0,0,1,3.94.9l1.53.89-.74-1.58a18.29,18.29,0,0,0-3.05-4.34c-1.16-1.29-2.39-2.51-3.67-3.68s-2.59-2.29-3.94-3.37l-1.05-.81,1.85.62c1.83.64,3.65,1.31,5.48,2s3.65,1.35,5.5,2A54,54,0,0,0,307.27,75l1.12.26-.21-1.13a10.7,10.7,0,0,0-2.48-4.65,34.15,34.15,0,0,0-3.5-3.61q-1.86-1.68-3.84-3.19c-.52-.4-1.06-.78-1.59-1.17l.94.2a36.17,36.17,0,0,1,3.85,1.17c1.26.46,2.5,1,3.7,1.56a13.24,13.24,0,0,1,3.21,2l3.1,3-1.59-4a23.19,23.19,0,0,0-5.48-8.19,19.3,19.3,0,0,0-5.95-3.9,19.67,19.67,0,0,1,8-.84c3.61.36,8.1,1.24,11,3.38l.34-.13-13-13a14.36,14.36,0,0,1,4,.07,21.62,21.62,0,0,1,5.86,1.91,62.81,62.81,0,0,1,10.7,7l2.39,1.82-.62-2.94L323.05,30.7a33.22,33.22,0,0,1,2.36,4.74,35.74,35.74,0,0,1,2.47,10.29l.83,9.25,1.53-9.17,2.34-14A49.48,49.48,0,0,1,335.35,46l.48,10.21,1.91-10A59.86,59.86,0,0,1,344,28.33a42.17,42.17,0,0,1,5.41-7.68,35.34,35.34,0,0,1,3.1-3c-1,1.91-1.84,3.85-2.68,5.8q-2.25,5.27-4,10.7c-1.21,3.62-2.28,7.29-3.13,11-.42,1.87-.79,3.76-1,5.68a28.91,28.91,0,0,0-.27,5.91l.56,7.87,1.64-7.75a47.27,47.27,0,0,1,1.35-5.3,30,30,0,0,1,2.06-5,24.7,24.7,0,0,1,3-4.45c.43-.52.88-1,1.34-1.5L349.34,54l-.61,4.3,2.54-3.52a99.06,99.06,0,0,0,6.47-9.94c.48-.85.93-1.72,1.36-2.61-.3,1.48-.67,3-1.08,4.43a85.18,85.18,0,0,1-4.8,12.72l-3.8,8.06,5.42-7.06,6.81-8.88-1.89,11.4-.38,2.27,1.74-1.49a22.15,22.15,0,0,1,7.22-4.18,20,20,0,0,1,6.59-1.1,32.61,32.61,0,0,0-7.23,12.73l-.48,1.56,1.45-.74,8.09-4.11A127.21,127.21,0,0,0,368,85.47l-1,2.46L368.84,86a27.22,27.22,0,0,1,8.57-6.08,23.71,23.71,0,0,1,9.49-2.09l-14,13.09-.69.78,1-.37,9.42-3.3a15,15,0,0,0-4.11,6.63,14.18,14.18,0,0,0-.61,7.09l.76.32a126.38,126.38,0,0,1,22.77,17.59c15.22,14.73,25.11,32.31,34.49,51.07,11.43,22.88,22.2,46.15,30.95,70.2,8.33,22.89,15.6,47.06,18,71.38C486.66,330.92,484.85,350.45,476.17,367.24Z"/>    </g>    <g id="eye">        <g id="eye-color1">            <g opacity="0" ><path fill="#B4D2F4"  d="M251.88,194.72c-.14.46-.2.94-.35,1.41a16.61,16.61,0,0,1-1.35,2.86c-.53.94-1,1.9-1.55,2.83-.23.41-.49.81-.76,1.2-.14.21-.29.41-.44.61s-.45.47-.45.6c-.19.25-.39.5-.59.74-5.88,7.05-13.91,9.8-22.69,6.54-8.54-3.17-14.21-10.41-14.65-19.54a1.27,1.27,0,0,1,0-.28,1.29,1.29,0,0,1,0-.29,23.29,23.29,0,0,1,19-21.82,19,19,0,0,1,11.42,1.35c-15.3-7.7-34.36-2.93-39.3,15.33a21.13,21.13,0,0,0-.66,6.53A29.44,29.44,0,0,0,210,213c8.59,7.08,21.5,6.67,31,1.77,7.19-3.7,10-12.6,10.93-20.46C252,194.47,251.92,194.59,251.88,194.72Z"/></g><g opacity="0" ><path fill="#B4D2F4"  d="M375.64,188.66c-.24.62-.44,1.25-.7,1.86a25.86,25.86,0,0,1-2,3.67,32.56,32.56,0,0,1-2.54,3.42c-5.88,7-13.9,9.8-22.69,6.54-8.54-3.17-14.21-10.41-14.65-19.54a1.27,1.27,0,0,1,0-.28.9.9,0,0,1,0-.29,23.29,23.29,0,0,1,19-21.82,19,19,0,0,1,11.42,1.35c-15.29-7.7-34.35-2.93-39.29,15.33a20.54,20.54,0,0,0-.66,6.53,29.36,29.36,0,0,0,10.48,20.24c8.59,7.08,21.5,6.67,31,1.77,6.9-3.55,9.72-12,10.77-19.66C375.81,188,375.73,188.41,375.64,188.66Z"/></g>        </g>        <g id="eye-shape">            <path fill="#fbfbfb"  d="M295.23,123.9c-21.73-17.81-51.73-12-72.06,4.87-11.71,10.13-20.83,23.9-22.35,39.61-1.28,13.09,2.59,26.27,9.6,37.28,12.38,19.45,36.52,33.94,59.91,27.1,20.91-6.12,35.23-26.45,41.18-46.49C318.07,164.16,313.73,139.06,295.23,123.9Zm16.09,44.39c3.12,13.14-4,29.29-15.05,36.62-11.44,7.59-25.45,6.31-36.15-1.92-11.83-9.09-12.9-22.85-8.48-36.31a1.66,1.66,0,0,1,.15-.33c5.3-13,20-19.08,33.33-17.46a40.23,40.23,0,0,1,4.79.88c7-2,15.58,1.56,16.61,9.36A21.23,21.23,0,0,1,311.32,168.29Z"/><path d="M221.05,126.64c-10.64,9.21-19.13,21.3-22.21,35.19-2.76,12.5-.75,25.57,4.53,37.13,10.21,22.39,34.35,41.16,59.93,38.25,23.13-2.63,40.23-22.11,48.49-42.65,9.19-22.89,7.78-50-9.89-68.55C279.45,102.48,244.4,107.3,221.05,126.64Zm90.46,59.63c-5.95,20-20.27,40.37-41.18,46.49-23.39,6.84-47.53-7.65-59.91-27.1-7-11-10.88-24.19-9.6-37.28,1.52-15.71,10.64-29.48,22.35-39.61,20.33-16.85,50.33-22.68,72.06-4.87C313.73,139.06,318.07,164.16,311.51,186.27Z"/><path d="M306.46,162.89c-1.18,7.61-8.53,14.09-16.4,11.78-7.26-2.13-10.49-10.21-8.63-17.12a1.6,1.6,0,0,1,.1-.39,1.55,1.55,0,0,1,.18-.39,12.36,12.36,0,0,1,8.2-7,40.23,40.23,0,0,0-4.79-.88c-13.38-1.62-28,4.45-33.33,17.46a1.66,1.66,0,0,0-.15.33c-4.42,13.46-3.35,27.22,8.48,36.31,10.7,8.23,24.71,9.51,36.15,1.92,11.05-7.33,18.17-23.48,15.05-36.62a21.23,21.23,0,0,0-4.8-9.16A12.89,12.89,0,0,1,306.46,162.89Z"/><path fill="#fff"  d="M289.91,149.77a12.36,12.36,0,0,0-8.2,7,1.55,1.55,0,0,0-.18.39,1.6,1.6,0,0,0-.1.39c-1.86,6.91,1.37,15,8.63,17.12,7.87,2.31,15.22-4.17,16.4-11.78a12.89,12.89,0,0,0,.06-3.76C305.49,151.33,297,147.81,289.91,149.77Z"/><path fill="#fbfbfb"  d="M437,125.33c-21.81-15.39-53-18.4-71.71,3.55-17.26,21.61-17.19,56.12-2.48,79a51.87,51.87,0,0,0,65.66,19.41,58,58,0,0,0,33.47-49.53C463,157.45,453.74,137.14,437,125.33ZM371.26,207.2c-14.35-8.09-20.39-26.75-13.74-41.9a30.4,30.4,0,0,1,4.24-6.93,10.14,10.14,0,0,1,1.62-5.68c2.63-4.13,8-4.82,12.6-3.79a30.44,30.44,0,0,1,12.63-1c14.24,1.89,27.35,11.64,30.73,26C425.83,201.43,394.08,218.68,371.26,207.2Z"/><path d="M444.44,127.47c-22.48-20.29-60.06-25.66-81.28-.71-16.45,20.6-17.87,51.3-7.19,74.86,10.79,23.79,36.25,38.16,62.16,32.38,23.25-5.19,41.58-24.61,45.83-47.95C467.84,164.77,460.58,142,444.44,127.47Zm17.49,50.33a58,58,0,0,1-33.47,49.53,51.87,51.87,0,0,1-65.66-19.41c-14.71-22.92-14.78-57.43,2.48-79,18.67-21.95,49.9-18.94,71.71-3.55C453.74,137.14,463,157.45,461.93,177.8Z"/><path d="M388.61,148a30.44,30.44,0,0,0-12.63,1A17.87,17.87,0,0,1,379.2,150c5.45,2.44,8.81,8.09,6.23,13.93-3,6.77-10.57,8.5-16.85,5.51a1.36,1.36,0,0,1-.39-.18,1.28,1.28,0,0,1-.34-.24,13.69,13.69,0,0,1-6.09-10.61,30.4,30.4,0,0,0-4.24,6.93c-6.65,15.15-.61,33.81,13.74,41.9,22.82,11.48,54.57-5.77,48.08-33.26C416,159.59,402.85,149.84,388.61,148Z"/><path fill="#fff"  d="M367.85,169a1.28,1.28,0,0,0,.34.24,1.36,1.36,0,0,0,.39.18c6.28,3,13.85,1.26,16.85-5.51,2.58-5.84-.78-11.49-6.23-13.93A17.87,17.87,0,0,0,376,148.9c-4.6-1-10-.34-12.6,3.79a10.14,10.14,0,0,0-1.62,5.68A13.69,13.69,0,0,0,367.85,169Z"/><path fill="#fcf9f7"  d="M312.47,111.88c-3.15-2.12-8.21-4.63-12.08-3.19-2.63,1-3.4,3.79-2.51,6.24a12.78,12.78,0,0,0,.68,1.53,18.3,18.3,0,0,0,6.7,7.31c3.21,1.86,8.4,2.89,11.18-.27,2.17-2.47,1.49-6-.39-8.45A14.85,14.85,0,0,0,312.47,111.88Z"/><path fill="#fcf9f7"  d="M354.8,126.17c4.59-.46,8.71-4.37,10.83-8.24a10.54,10.54,0,0,0,1.3-3.71,3.28,3.28,0,0,0-.12-1.59c-.45-1.17-1.81-1.7-3.05-1.91a13.76,13.76,0,0,0-7.42.87c-3.38,1.35-7,3.44-8.19,7.14a6.23,6.23,0,0,0-.15.62C347.21,123.36,351,126.56,354.8,126.17Z"/>        </g>        <g id="eye-color2">            <path fill="#FF8A8A"  d="M296.27,204.91c-11.44,7.59-25.45,6.31-36.15-1.92-11.83-9.09-12.9-22.84-8.48-36.31a1.35,1.35,0,0,1,.15-.32c5.09-12.49,18.79-18.57,31.71-17.61-18.58-4.76-40.69,3.61-47,22.29a37.85,37.85,0,0,0,4.9,33.63c7.49,10.53,19.92,14.81,32.48,14.76,6.18,0,12.54-1,17.8-4.26,8.59-5.28,15.13-15.61,17.42-26.36A36.29,36.29,0,0,1,296.27,204.91Z"/><path fill="#FF8A8A"  d="M413,151.48c-9.56-6.8-25.15-8-36.48-2.76a30.47,30.47,0,0,1,12.05-.77c14.24,1.89,27.35,11.64,30.73,26,6.49,27.5-25.26,44.74-48.08,33.26a32.32,32.32,0,0,1-14.31-17,15.56,15.56,0,0,0,.4,2.35,31.17,31.17,0,0,0,16.47,20.87c13.12,6.59,30.83,4.54,43.3-5.59a31.75,31.75,0,0,0,10.47-14.43C432.45,178.47,425.74,160.52,413,151.48Z"/>        </g>    </g>    <g id="nose-mouth">        <path fill="#2d2821"  d="M362.77,216.52c0-5.82-.49-10.62-5.89-13.7-4.66-2.66-10.48-3.18-15.73-3.24-9-.11-19.62,1-27.94,5.17a4.89,4.89,0,0,0-2.32.8c-8.75,4.56-6.11,11.74-4.73,17.55,1.82,7.65,3,18.55,11.42,21.84,8.82,3.46,19.11-.21,28-1.33,3-.38,6-.69,8.9-1.31s4.08-2.44,5.65-5.2C363.73,230.85,362.74,223.5,362.77,216.52Z"/><path d="M364.48,217.33c0-3.28.22-6.85-1.1-9.93-2-4.69-6.69-7.24-11.39-8.54-7.3-2-15.27-1.67-22.7-.66a81.47,81.47,0,0,0-10.06,1.91,57.26,57.26,0,0,0-9.48,3.73c-4.88,2.29-7.45,7.3-7.49,12.56s1.52,10.15,3.1,15c.26.8.53,1.6.79,2.41,2.1,6.55,6.34,12.34,13.41,13.55a45.13,45.13,0,0,0,18.34-.73c5.74-1.4,11.81-1.12,17.53-2.63,5.4-1.43,8.48-9.28,9-14.37C364.83,225.61,364.45,221.35,364.48,217.33Zm-11,24c-2.84.6-5.75.89-8.63,1.25-8.65,1.08-18.63,4.59-27.19,1.28-8.13-3.15-9.32-13.58-11.08-20.91-1.22-5.08-2-12.61,3.4-15.59a55.63,55.63,0,0,1,5.4-2.85,42.25,42.25,0,0,1,5.39-1.84,63.43,63.43,0,0,1,11.45-1.94c2.77-.23,5.54-.31,8.31-.28,5.09.06,10.73.56,15.26,3.11,5.23,2.94,5.73,7.53,5.71,13.11,0,6.67.93,13.7-2.53,19.69C357.43,239,356.44,240.71,353.47,241.32Z"/><path d="M322,228c-.45-.28-.91-.54-1.37-.78a6.36,6.36,0,0,0-3.45-.77c-1.69.17-4.14,1.83-2.79,3.77A28.6,28.6,0,0,0,330,241.46a1.51,1.51,0,0,0,1.69-2.2A28.1,28.1,0,0,0,322,228Z"/><path d="M351.65,224.66a37.25,37.25,0,0,0-5.23,11.25,3.73,3.73,0,0,0,.26,3,2.32,2.32,0,0,0,3.32.37A13.24,13.24,0,0,0,354.39,225,1.52,1.52,0,0,0,351.65,224.66Z"/><path fill="none"  d="M355.82,253.09c-.06.07,0,0,0,0s0,0,0,0l0-.05Z"/><path fill="#fffaf0"  d="M302.92,246.24l-.23-.25c.05.14.1.27.16.41.33.93.66,1.79,1,2.76a29.56,29.56,0,0,1,.75,2.87,52.82,52.82,0,0,1,.77,5.79l.44,5.77h0l8.26-4a88.09,88.09,0,0,0-7.21-9.1Q304.91,248.36,302.92,246.24Z"/><path d="M303.79,245.46c-1.29-1.45-2.46-3-3.69-4.5l-.65.58h0l-.64.59a10.72,10.72,0,0,1,1.2,2.3c.34.86.69,1.74,1,2.64.62,1.82,1.26,3.57,1.69,5.39s.85,3.7,1.3,5.58a34.15,34.15,0,0,0,1.78,5.55h0l-.44-5.77a52.82,52.82,0,0,0-.77-5.79,29.56,29.56,0,0,0-.75-2.87c-.31-1-.64-1.83-1-2.76-.06-.14-.11-.27-.16-.41l.23.25q2,2.12,3.91,4.29a88.09,88.09,0,0,1,7.21,9.1,70,70,0,0,0-6.55-9.65C306.3,248.44,305.05,247,303.79,245.46Z"/><path fill="#fffaf0"  d="M361.42,256.3c-.07-.08-.14-.06-.25-.25a1.13,1.13,0,0,1,0-.36l0-.27-.05-.52c-.09-.7-.13-1.44-.17-2.16a37.69,37.69,0,0,1-.07-4.39,36.76,36.76,0,0,1,.69-4.36v0a30.05,30.05,0,0,0-2.3,4.06c-.64,1.35-1.14,2.77-1.79,4.16-.16.34-.33.69-.5,1l-.12.25,0,.13,0,.09a.64.64,0,0,1-.07.12l0,0a.56.56,0,0,1-.16.1.05.05,0,0,1,0,0c-.19.34-.41.66-.63,1h0l6.21,1.86-.4-.37Z"/><path d="M362.53,239.34a43.58,43.58,0,0,0-2.76,3.78,28.69,28.69,0,0,0-2.17,4.19,35.68,35.68,0,0,0-1.55,4.38c-.1.37-.19.74-.27,1.13l-.06.3,0,.21a.47.47,0,0,0,0,.13.49.49,0,0,0,.11.33.74.74,0,0,0,.16.12c-.05.35-.1.7-.14,1.06h0c.22-.33.44-.65.63-1a.05.05,0,0,0,0,0,.56.56,0,0,0,.16-.1l0,0a.64.64,0,0,0,.07-.12l0-.09,0-.13.12-.25c.17-.33.34-.68.5-1,.65-1.39,1.15-2.81,1.79-4.16a30.05,30.05,0,0,1,2.3-4.06v0a36.76,36.76,0,0,0-.69,4.36,37.69,37.69,0,0,0,.07,4.39c0,.72.08,1.46.17,2.16l.05.52,0,.27a1.13,1.13,0,0,0,0,.36c.11.19.18.17.25.25l.2.16.4.37c-.07-.17-.14-.33-.23-.5l-.14-.25c0-.06-.14-.19-.1-.16s0-.1.07-.18l.07-.27a5.35,5.35,0,0,0,.11-.55c.12-.74.16-1.44.23-2.16.14-1.43.24-2.86.46-4.23s.59-2.71.91-4.13.64-2.83.87-4.27l.59-3.72Zm-6.75,13.8s0,0,0,0l0,0,0,.05S355.79,253.14,355.78,253.14Z"/><path d="M281.86,261.55a1.5,1.5,0,0,0,0-3,1.5,1.5,0,0,0,0,3Z"/><path d="M289,268a1.5,1.5,0,0,0,0-3,1.5,1.5,0,0,0,0,3Z"/><path d="M298.72,258.31a1.5,1.5,0,0,0,0-3,1.5,1.5,0,0,0,0,3Z"/><path d="M277.32,251.17a1.5,1.5,0,0,0,0-3,1.5,1.5,0,0,0,0,3Z"/><path d="M289,244.69a1.5,1.5,0,0,0,0-3,1.5,1.5,0,0,0,0,3Z"/><path d="M288.53,256.53a1.5,1.5,0,0,0,0-3,1.5,1.5,0,0,0,0,3Z"/><path d="M366.47,253.18a1.5,1.5,0,0,0,0-3,1.5,1.5,0,0,0,0,3Z"/><path d="M375.24,238.21a1.5,1.5,0,0,0,0-3,1.5,1.5,0,0,0,0,3Z"/><path d="M375.24,247.93a1.5,1.5,0,0,0,0-3,1.5,1.5,0,0,0,0,3Z"/><path d="M376.54,257.66a1.5,1.5,0,0,0,0-3,1.5,1.5,0,0,0,0,3Z"/><path d="M386.91,255.07a1.5,1.5,0,0,0,0-3,1.5,1.5,0,0,0,0,3Z"/><path d="M387.56,244a1.5,1.5,0,0,0,0-3,1.5,1.5,0,0,0,0,3Z"/><path d="M383.67,249.23a1.5,1.5,0,0,0,0-3,1.5,1.5,0,0,0,0,3Z"/><path d="M370.7,260.9a1.5,1.5,0,0,0,0-3,1.5,1.5,0,0,0,0,3Z"/><path d="M298.67,266.39a9.31,9.31,0,0,0,4.5-1.28c1.38-.75,2.77-1.58,4.15-2.38,2.78-1.6,5.5-3.24,8.05-5.05s4.89-3.94,7.53-5.92a22.08,22.08,0,0,1,9.22-4.3,24.22,24.22,0,0,1,10.12.58,54.42,54.42,0,0,1,9.2,3.44c5.83,2.74,11.55,5.6,17.19,8.72-6.12-2-12.14-4.24-18.1-6.56a65.31,65.31,0,0,0-8.95-2.84,30.34,30.34,0,0,0-4.5-.66,19.21,19.21,0,0,0-4.43.27,19.59,19.59,0,0,0-8.1,3.65c-2.58,1.73-5.05,3.86-7.89,5.56A68.07,68.07,0,0,1,308,264c-1.49.62-2.93,1.29-4.48,1.84A9,9,0,0,1,298.67,266.39Z"/>    </g></svg>