<!--  ~ Copyright (C) 2018 Baidu, Inc. All Rights Reserved.  --><svg viewBox="0 0 640 480" xmlns="http://www.w3.org/2000/svg">    <g id="back-ground-cl">        <rect fill="none" width="640" height="480" />        <ellipse opacity="0.1" cx="331.93" cy="418.82" rx="168.39" ry="32.01"/>    </g>    <g id="body">        <defs>            <clipPath id="outline">                <path fill="none"  d="M257.87,128.21l.35-.12c2.92-3.66,6-7.21,9.15-10.61a118.21,118.21,0,0,1,14.79-13.43c-.08-.39-.17-.75-.25-1-1.46-5.37-6.24-8.59-11.15-10.57-7.17-2.9-15-3.63-22.21-6.5a28.11,28.11,0,0,1-7.83-4.49c-.95-.81-1.74-1.73-2.62-2.6a13.89,13.89,0,0,0-2.26-2.07,7.21,7.21,0,0,0-5.45,6c-2.73,8.82,1.08,20.06,4.85,28.19,3.54,7.63,9,12.45,16.83,15.43C253.53,126.91,256.36,128.5,257.87,128.21Z"/><path fill="none"  d="M413,128.8c14.57-10,20.21-32.54,21.46-49.56.2-2.76.82-8.24-1.57-10.18-3.22-2.61-6.26,3.45-7.76,5.36A28.9,28.9,0,0,1,409.27,84.8c-6.5,1.53-12.78,1.84-18.48,5.66-3.77,2.52-7.87,6-10.39,10.2A132,132,0,0,1,413,128.8Z"/><path fill="none"  d="M467.07,243.41c-8.65-24.15-19.37-47.49-30.8-70.44-9.43-18.92-19.18-36.8-34.42-51.76C388,107.6,371,96.62,352.05,91.77A77.35,77.35,0,0,0,293.33,100c-20,11.78-34.51,30.8-46.8,50.08a377.56,377.56,0,0,0-52.42,133.52c-1.64,9-3,18.11-3.91,27.25-2.95,30.42-1.69,70.59,28.42,87.67,2.13,1.21,13,3.79,8.39,7.39-2.4,1.85-14.49,3-13.86,6.68.69,4.07,12.39,4.42,15.14,4.64a154.25,154.25,0,0,0,17.6.24c.53,0,1.45,0,2.41,0,.15-1.74.14-3.58.16-5.43s0-3.86.07-5.79c.06-3.85.17-7.68.19-11.51a150.53,150.53,0,0,0-1.33-22.87,56.23,56.23,0,0,0-2.68-11.09,30.74,30.74,0,0,0-2.47-5.14,18.3,18.3,0,0,0-3.62-4.42,22.73,22.73,0,0,1,6.82,9.26,57.07,57.07,0,0,1,3.39,11.14,134.87,134.87,0,0,1,2.22,23.1c.11,3.86.11,7.72.1,11.56,0,1.92,0,3.83,0,5.75s.08,3.86-.07,5.9a13.94,13.94,0,0,1-.56,3.13l-.13.39c0,.14-.12.3-.18.45a4.64,4.64,0,0,1-.47.85,6.81,6.81,0,0,1-1.25,1.36,22.42,22.42,0,0,1-5.47,2.84c-1.7.7-3.31,1.6-3.6,2.59a1.94,1.94,0,0,0-.1.85,4.53,4.53,0,0,0,.06.5l.14.48a4.69,4.69,0,0,0,1.25,1.77c.12.11.27.22.4.33a5.55,5.55,0,0,1,.24-3.09,6.48,6.48,0,0,1,2.78-3.36,8.4,8.4,0,0,1,2-.78,12.23,12.23,0,0,1,1.87-.39,13.23,13.23,0,0,1,3.88,0,13.58,13.58,0,0,1-3.13,2.28c-1.12.61-2.21,1.06-3.05,1.5a9.26,9.26,0,0,0-2.27,1.93,12.91,12.91,0,0,0-1.91,3h0l.47-.39a14.81,14.81,0,0,0,3.2,1.55,19.2,19.2,0,0,0,2.59.75,22.1,22.1,0,0,0,2.68.41c.46,0,.92.06,1.39.09a2.77,2.77,0,0,1-.43-.9,3.62,3.62,0,0,1,.15-2.18,7.13,7.13,0,0,1,2.48-3,9.79,9.79,0,0,1,3.23-1.61,7.41,7.41,0,0,1,3.66-.16,29.47,29.47,0,0,1-2.61,2.27c-.84.66-1.66,1.29-2.49,1.9a22.09,22.09,0,0,0-2.22,1.76,3.27,3.27,0,0,0-.74,1,2.59,2.59,0,0,0-.2,1.56l.54-.57a48.17,48.17,0,0,0,8.4-.42,36,36,0,0,0,5.41-1.12,14.64,14.64,0,0,0,4.66-2.47,20.39,20.39,0,0,0,3.79-3.86,26.1,26.1,0,0,0,2.86-4.7c.19-.42.39-.84.53-1.25a11.29,11.29,0,0,0,.42-1.28c.27-.88.49-1.81.71-2.73l1.23-5.61c.81-3.76,1.61-7.54,2.58-11.28a115.35,115.35,0,0,1,3.46-11.07,49.24,49.24,0,0,1,5.15-10.35c-3.7,6.77-5.63,14.26-7.18,21.75-.78,3.71-1.42,7.45-2.06,11.2a314,314,0,0,0,33.1,5.43c21.48,2.28,43.63,2.35,64.74-2.68a86.22,86.22,0,0,0,8.66-2.58c0-.15-.06-.3-.08-.45-.62-3.71-.81-7.39-1.25-11-.2-1.8-.5-3.61-.78-5.43s-.56-3.63-.93-5.4a31.77,31.77,0,0,0-1.72-5.18c-.65-1.73-1.25-3.47-1.84-5.21.73,1.69,1.47,3.37,2.26,5a32.69,32.69,0,0,1,2.07,5.16c.49,1.8.88,3.6,1.28,5.39s.8,3.59,1.12,5.43c.62,3.66,1,7.33,1.72,10.85a32,32,0,0,0,1.5,5.11,27.37,27.37,0,0,0,2.44,4.68,20.21,20.21,0,0,0,7.48,7,13.33,13.33,0,0,0,2.34.91c.8.25,1.7.44,2.56.62a45,45,0,0,0,5.3.71,51.54,51.54,0,0,0,5.7.11l.54.57a2.5,2.5,0,0,0-.2-1.56,3.44,3.44,0,0,0-.74-1,23.66,23.66,0,0,0-2.22-1.75c-.83-.61-1.65-1.24-2.49-1.9a28.26,28.26,0,0,1-2.6-2.28,7.37,7.37,0,0,1,3.65.16,10.06,10.06,0,0,1,3.24,1.62,7.13,7.13,0,0,1,2.47,3,3.51,3.51,0,0,1,.15,2.17,3,3,0,0,1-.43.92c1.19-.08,2.38-.2,3.53-.39a20.19,20.19,0,0,0,4.86-1.58,13.17,13.17,0,0,0,1.48-.83l.46.38a12.87,12.87,0,0,0-1.91-3,9.43,9.43,0,0,0-2.27-1.92c-.84-.44-1.93-.89-3-1.5a13.47,13.47,0,0,1-3.14-2.29,13.57,13.57,0,0,1,3.88,0,12.23,12.23,0,0,1,1.87.39,8.36,8.36,0,0,1,2,.77,6.54,6.54,0,0,1,2.78,3.37,5.39,5.39,0,0,1,.23,3.12,6.14,6.14,0,0,0,1.3-1.42,3.72,3.72,0,0,0,.57-1.85,2,2,0,0,0-.11-.84,1.94,1.94,0,0,0-.41-.72c-.78-.94-2.46-1.64-4.13-2.28a21.07,21.07,0,0,1-5.31-2.59,7.85,7.85,0,0,1-1.24-1.21,5,5,0,0,1-.88-1.72,10.15,10.15,0,0,1-.27-1.57c-.06-.51-.09-1-.1-1.48a111.51,111.51,0,0,1,.44-11.18c.28-3.68.68-7.35,1.13-11,.89-7.32,2-14.61,3.48-21.84.76-3.61,1.6-7.21,2.61-10.76.51-1.78,1.07-3.54,1.74-5.26a23,23,0,0,1,1.17-2.52,7.34,7.34,0,0,1,1.66-2.2,7.31,7.31,0,0,0-1.46,2.3,21.35,21.35,0,0,0-.94,2.57c-.56,1.74-1,3.52-1.4,5.31-.79,3.57-1.4,7.19-1.94,10.81-1.1,7.25-1.92,14.54-2.6,21.84q-.5,5.47-.83,10.95c-.19,3.41-.36,6.86-.25,10.19,5.42.86,11.33.44,16.69.28a155.32,155.32,0,0,0,19.15-1.45c2.36-.37,3.94,0,2.57-2.3-1.6-2.7-4-4-6.92-5-2.41-.82-9.31-1-10.72-3.45-.76-1.34.09-2.05,1-2.94,1.36-1.35,4-2.2,5.61-3.24q3-1.89,5.8-4.05A69.49,69.49,0,0,0,475.15,368c9-16.71,10.94-36.3,9.17-54.94C482.07,289.36,475.07,265.76,467.07,243.41Z"/><path fill="none"  d="M160.08,333.14c-3.58-5.91-3.3-13.06-.58-19.25a13.75,13.75,0,0,1,6-6.85c2.59-1.37,4.5-.84,7.21-.85,2.4,0,5.77-.62,4.77-3.68a7.15,7.15,0,0,0-1.09-1.75,7.74,7.74,0,0,0-4.48-3.35c-4-1.17-8.87-.45-12.86.55-16.25,4.07-24.7,20.78-26.8,36.27C129.57,354,149.88,369.48,167,373.64a61.07,61.07,0,0,0,26.46.37,90.51,90.51,0,0,1-6.9-26.51C176,346.13,165.44,342,160.08,333.14Z"/><path d="M480.28,275.91c-6.48-25.07-15.82-49.32-26.42-72.92-5.4-12-11.13-23.86-17.05-35.62-5.05-10.06-10.06-20.08-16.62-29.27q-2.58-3.61-5.39-7.07C426.91,122.46,433.32,105.88,436,91c1-5.53,2.22-11.83,1.51-17.44-.4-3.24-1.72-7.74-5.52-8-6.32-.37-8.65,7-12.66,10.48C412.63,81.8,405.9,82,397.78,84a34.07,34.07,0,0,0-20,15.15c-.5-.28-1-.58-1.49-.85-16.44-9-35.32-13.85-54.08-11.43C308.51,88.62,296,94.19,285,102c-.14-.48-.29-.93-.45-1.34-2.43-6.41-8.71-9.92-14.9-12C261.88,86,253.18,85.39,246,81.26c-4-2.33-9-11-14.34-6.88-5.86,4.54-6,14.46-4.72,21,1.47,7.52,4,15.73,8.28,22.17A29.85,29.85,0,0,0,250.1,129a34.52,34.52,0,0,0,5.82,2.06c-11.12,14.47-20.4,30.56-28.69,46.61a379.41,379.41,0,0,0-27.52,69.12q-5.13,17.82-8.5,36.07c-3.45,19-6.77,40.76-5,61.39-13.53-2.26-28.79-9.5-25.4-24.86.72-3.21,2-6.56,4.64-8.65,4.41-3.5,8.54.65,12.92-1.45s2.51-7.49.27-10.52c-7.91-10.73-27.31-3-35,4.3-9.48,8.95-16.45,25.8-14.33,38.88,2.63,16.28,18,28.64,32.89,33.48a62.47,62.47,0,0,0,32.55,1.4c1,2.08,2.16,4.12,3.4,6.1a53,53,0,0,0,21.65,19.67c.46.23,2,1.13,3.24,1.71l-.3.12c-1.79.63-3.6,1.17-5.38,1.82-3.43,1.25-9.09,3.22-6.82,8,1.88,3.92,8,4.81,11.71,5.39a117.94,117.94,0,0,0,20,1c1.45,0,3.44.1,5.43,0a3.14,3.14,0,0,1-.29.54,3.81,3.81,0,0,1-.71.75,20.38,20.38,0,0,1-4.77,2.37,16.94,16.94,0,0,0-2.81,1.43,5.83,5.83,0,0,0-2.43,2.87,6.55,6.55,0,0,0,2.08,6.77,12.16,12.16,0,0,0,2.66,1.88,18.83,18.83,0,0,0,2.85,1.25,23.66,23.66,0,0,0,3,.83,27.57,27.57,0,0,0,3,.45,49,49,0,0,0,11.86-.35,37.6,37.6,0,0,0,5.85-1.33,17.47,17.47,0,0,0,5.43-3,25.15,25.15,0,0,0,7.16-9.66,18.24,18.24,0,0,0,1-2.89c.26-1,.46-1.92.66-2.88s.37-1.91.54-2.86c22.3,4.82,45.24,7.67,68.06,6.76a160.1,160.1,0,0,0,32.55-4.43c2.39-.6,4.77-1.27,7.12-2a28.47,28.47,0,0,0,3.1,7.11,21.81,21.81,0,0,0,8.26,8.08,15.17,15.17,0,0,0,2.76,1.15c1,.31,1.85.51,2.78.72a48.77,48.77,0,0,0,5.61.87,45.84,45.84,0,0,0,11.39-.31A22.85,22.85,0,0,0,430,433a14.79,14.79,0,0,0,2.63-1.56,9.05,9.05,0,0,0,2.25-2.39,6.76,6.76,0,0,0,1-3.36,5.14,5.14,0,0,0-1.23-3.53,8.16,8.16,0,0,0-2.67-2,27.2,27.2,0,0,0-2.68-1.14,19.28,19.28,0,0,1-4.6-2.14,4.89,4.89,0,0,1-.73-.7,1.86,1.86,0,0,1-.38-.72l0-.12.84.08a142.39,142.39,0,0,0,20.86,0c5.56-.29,11.91-.22,17.3-1.84,3.77-1.13,2.9-4.87.85-7.65-3.27-4.43-9.45-5.46-14.46-6.64a4,4,0,0,1-.42-.13c.93-.57,1.95-1.32,2.33-1.55a77,77,0,0,0,11.85-8.78c14-12.68,21.84-30.36,24.29-48.89C489.8,318.42,485.65,296.73,480.28,275.91,390.79,90.46c5.7-3.82,12-4.13,18.48-5.66a28.9,28.9,0,0,0,15.82-10.38c1.5-1.91,4.54-8,7.76-5.36,2.39,1.94,1.77,7.42,1.57,10.18-1.25,17-6.89,39.6-21.46,49.56a132,132,0,0,0-32.56-28.14C382.92,96.49,387,93,390.79,90.46,-138.72,35.9c-7.85-3-13.29-7.8-16.83-15.43-3.77-8.13-7.58-19.37-4.85-28.19a7.21,7.21,0,0,1,5.45-6,13.89,13.89,0,0,1,2.26,2.07c.88.87,1.67,1.79,2.62,2.6a28.11,28.11,0,0,0,7.83,4.49c7.18,2.87,15,3.6,22.21,6.5,4.91,2,9.69,5.2,11.15,10.57.08.3.17.66.25,1a118.21,118.21,0,0,0-14.79,13.43c-3.19,3.4-6.23,7-9.15,10.61l-.35.12C256.36,128.5,253.53,126.91,252.07,126.36,167,373.64c-17.11-4.16-37.42-19.67-34.74-39.41,2.1-15.49,10.55-32.2,26.8-36.27,4-1,8.83-1.72,12.86-.55a7.74,7.74,0,0,1,4.48,3.35,7.15,7.15,0,0,1,1.09,1.75c1,3.06-2.37,3.67-4.77,3.68-2.71,0-4.62-.52-7.21.85a13.75,13.75,0,0,0-6,6.85c-2.72,6.19-3,13.34.58,19.25,5.36,8.84,15.89,13,26.47,14.36a90.51,90.51,0,0,0,6.9,26.51A61.07,61.07,0,0,1,167,373.64,475.15,368a69.49,69.49,0,0,1-18.79,22.19q-2.81,2.16-5.8,4.05c-1.64,1-4.25,1.89-5.61,3.24-.88.89-1.73,1.6-1,2.94,1.41,2.49,8.31,2.63,10.72,3.45,2.94,1,5.32,2.32,6.92,5,1.37,2.3-.21,1.93-2.57,2.3a155.32,155.32,0,0,1-19.15,1.45c-5.36.16-11.27.58-16.69-.28-.11-3.33.06-6.78.25-10.19q.33-5.47.83-10.95c.68-7.3,1.5-14.59,2.6-21.84.54-3.62,1.15-7.24,1.94-10.81.39-1.79.84-3.57,1.4-5.31a21.35,21.35,0,0,1,.94-2.57,7.31,7.31,0,0,1,1.46-2.3,7.34,7.34,0,0,0-1.66,2.2,23,23,0,0,0-1.17,2.52c-.67,1.72-1.23,3.48-1.74,5.26-1,3.55-1.85,7.15-2.61,10.76C424,376.38,422.86,383.67,422,391c-.45,3.66-.85,7.33-1.13,11a111.51,111.51,0,0,0-.44,11.18c0,.48,0,1,.1,1.48a10.15,10.15,0,0,0,.27,1.57,5,5,0,0,0,.88,1.72,7.85,7.85,0,0,0,1.24,1.21,21.07,21.07,0,0,0,5.31,2.59c1.67.64,3.35,1.34,4.13,2.28a1.94,1.94,0,0,1,.41.72,2,2,0,0,1,.11.84,3.72,3.72,0,0,1-.57,1.85,6.14,6.14,0,0,1-1.3,1.42,5.39,5.39,0,0,0-.23-3.12,6.54,6.54,0,0,0-2.78-3.37,8.36,8.36,0,0,0-2-.77,12.23,12.23,0,0,0-1.87-.39,13.57,13.57,0,0,0-3.88,0,13.47,13.47,0,0,0,3.14,2.29c1.11.61,2.2,1.06,3,1.5a9.43,9.43,0,0,1,2.27,1.92,12.87,12.87,0,0,1,1.91,3l-.46-.38a13.17,13.17,0,0,1-1.48.83,20.19,20.19,0,0,1-4.86,1.58c-1.15.19-2.34.31-3.53.39a3,3,0,0,0,.43-.92,3.51,3.51,0,0,0-.15-2.17,7.13,7.13,0,0,0-2.47-3,10.06,10.06,0,0,0-3.24-1.62,7.37,7.37,0,0,0-3.65-.16,28.26,28.26,0,0,0,2.6,2.28c.84.66,1.66,1.29,2.49,1.9a23.66,23.66,0,0,1,2.22,1.75,3.44,3.44,0,0,1,.74,1,2.5,2.5,0,0,1,.2,1.56l-.54-.57a51.54,51.54,0,0,1-5.7-.11,45,45,0,0,1-5.3-.71c-.86-.18-1.76-.37-2.56-.62A13.33,13.33,0,0,1,403,430a20.21,20.21,0,0,1-7.48-7,27.37,27.37,0,0,1-2.44-4.68,32,32,0,0,1-1.5-5.11c-.76-3.52-1.1-7.19-1.72-10.85-.32-1.84-.74-3.63-1.12-5.43s-.79-3.59-1.28-5.39a32.69,32.69,0,0,0-2.07-5.16c-.79-1.66-1.53-3.34-2.26-5,.59,1.74,1.19,3.48,1.84,5.21a31.77,31.77,0,0,1,1.72,5.18c.37,1.77.64,3.59.93,5.4s.58,3.63.78,5.43c.44,3.62.63,7.3,1.25,11,0,.15,0,.3.08.45a86.22,86.22,0,0,1-8.66,2.58c-21.11,5-43.26,5-64.74,2.68a314,314,0,0,1-33.1-5.43c.64-3.75,1.28-7.49,2.06-11.2,1.55-7.49,3.48-15,7.18-21.75a49.24,49.24,0,0,0-5.15,10.35,115.35,115.35,0,0,0-3.46,11.07c-1,3.74-1.77,7.52-2.58,11.28l-1.23,5.61c-.22.92-.44,1.85-.71,2.73a11.29,11.29,0,0,1-.42,1.28c-.14.41-.34.83-.53,1.25a26.1,26.1,0,0,1-2.86,4.7,20.39,20.39,0,0,1-3.79,3.86,14.64,14.64,0,0,1-4.66,2.47,36,36,0,0,1-5.41,1.12,48.17,48.17,0,0,1-8.4.42l-.54.57a2.59,2.59,0,0,1,.2-1.56,3.27,3.27,0,0,1,.74-1,22.09,22.09,0,0,1,2.22-1.76c.83-.61,1.65-1.24,2.49-1.9a29.47,29.47,0,0,0,2.61-2.27,7.41,7.41,0,0,0-3.66.16,9.79,9.79,0,0,0-3.23,1.61,7.13,7.13,0,0,0-2.48,3,3.62,3.62,0,0,0-.15,2.18,2.77,2.77,0,0,0,.43.9c-.47,0-.93,0-1.39-.09a22.1,22.1,0,0,1-2.68-.41,19.2,19.2,0,0,1-2.59-.75,14.81,14.81,0,0,1-3.2-1.55l-.47.39h0a12.91,12.91,0,0,1,1.91-3,9.26,9.26,0,0,1,2.27-1.93c.84-.44,1.93-.89,3.05-1.5a13.58,13.58,0,0,0,3.13-2.28,13.23,13.23,0,0,0-3.88,0,12.23,12.23,0,0,0-1.87.39,8.4,8.4,0,0,0-2,.78,6.48,6.48,0,0,0-2.78,3.36,5.55,5.55,0,0,0-.24,3.09c-.13-.11-.28-.22-.4-.33a4.69,4.69,0,0,1-1.25-1.77l-.14-.48a4.53,4.53,0,0,1-.06-.5,1.94,1.94,0,0,1,.1-.85c.29-1,1.9-1.89,3.6-2.59a22.42,22.42,0,0,0,5.47-2.84,6.81,6.81,0,0,0,1.25-1.36,4.64,4.64,0,0,0,.47-.85c.06-.15.13-.31.18-.45l.13-.39a13.94,13.94,0,0,0,.56-3.13c.15-2,.09-4,.07-5.9s0-3.83,0-5.75c0-3.84,0-7.7-.1-11.56a134.87,134.87,0,0,0-2.22-23.1,57.07,57.07,0,0,0-3.39-11.14,22.73,22.73,0,0,0-6.82-9.26,18.3,18.3,0,0,1,3.62,4.42,30.74,30.74,0,0,1,2.47,5.14,56.23,56.23,0,0,1,2.68,11.09,150.53,150.53,0,0,1,1.33,22.87c0,3.83-.13,7.66-.19,11.51-.05,1.93-.06,3.87-.07,5.79s0,3.69-.16,5.43c-1,0-1.88,0-2.41,0a154.25,154.25,0,0,1-17.6-.24c-2.75-.22-14.45-.57-15.14-4.64-.63-3.64,11.46-4.83,13.86-6.68,4.66-3.6-6.26-6.18-8.39-7.39-30.11-17.08-31.37-57.25-28.42-87.67.88-9.14,2.27-18.22,3.91-27.25a377.56,377.56,0,0,1,52.42-133.52c12.29-19.28,26.79-38.3,46.8-50.08a77.35,77.35,0,0,1,58.72-8.26C371,96.62,388,107.6,401.85,121.21c15.24,15,25,32.84,34.42,51.76,11.43,22.95,22.15,46.29,30.8,70.44,8,22.35,15,46,17.25,69.67C486.09,331.72,484.11,351.31,475.15,368Z"/>            </clipPath>        </defs>        <g clip-path="url(#outline)">            <rect fill="#FCD4D4" width="640" height="480" />        </g>    </g>    <g id="pattern">        <g clip-path="url(#outline)">            <path fill="#515178"  d="M197.9,381.5q1.88-.74,3.75-1.44l9.82-3.7c2.89-1.1,6.21-2.78,9.36-3.46a4.91,4.91,0,0,1,2.79.09,1.44,1.44,0,0,1,.89,1.57c-.23,2-3,4.2-4.86,6-2.27,2.17-4.68,4.29-7.28,6.34-2,1.58-4.14,3.12-6.4,4.58Z"/><path fill="#515178"  d="M500.48,389.5c0-2.9-5.33-5.33-10.12-7.29-5-2.06-10.22-4-15.44-5.84l-9.85-3.5c-2.9-1-6.25-2.62-9.39-3.28a5.33,5.33,0,0,0-2.79,0A1.2,1.2,0,0,0,452,371c.26,1.83,3,3.83,4.95,5.49,2.3,2,4.74,3.94,7.38,5.83a82.24,82.24,0,0,0,17.91,9.87c6,2.38,15,3.49,17.36.26A7.9,7.9,0,0,0,500.48,389.5Z"/><path fill="#515178"  d="M198.15,401.75c-.18-3.87,5.06-6.79,9.79-9.12,5-2.44,10.09-4.68,15.25-6.87,3.24-1.38,6.5-2.73,9.75-4.09,2.87-1.21,6.16-3.11,9.3-3.81a4.21,4.21,0,0,1,2.81.2A1.93,1.93,0,0,1,246,380c-.16,2.42-2.84,4.93-4.67,7a102.06,102.06,0,0,1-7.11,7.35,69.51,69.51,0,0,1-17.51,12.1c-5.93,2.81-15,3.75-17.54-.7A14,14,0,0,1,198.15,401.75Z"/><path fill="#515178"  d="M479.62,398.92c.16-3.76-5.09-6.62-9.83-8.91-5-2.4-10.11-4.6-15.27-6.75l-9.76-4c-2.88-1.19-6.17-3.05-9.31-3.75a4.33,4.33,0,0,0-2.81.19,1.82,1.82,0,0,0-.94,1.86c.17,2.35,2.87,4.8,4.71,6.85a96.35,96.35,0,0,0,7.13,7.17A70.35,70.35,0,0,0,461.1,403.4c5.94,2.76,15,3.72,17.52-.59A13.46,13.46,0,0,0,479.62,398.92Z"/>            <g opacity="0.6" ><path fill="#DCFEFF"  d="M285.77,418.84c2.26-24.13,21.66-59.15,48.78-60.3,26.6-1.12,50.68,35,52.69,58.92.13,1.48.51,1.44-.05,1.63-1.81.61-6.61,1.94-9.58,2.8-14,4.06-27.43,4.48-43.52,4.36-16.38-.12-33-4.21-47.85-7.41"/></g>        </g>    </g>    <g id="mask">        <g opacity="0.2" ><path d="M428.87,75.85c-5.08,5.13-8.25,12.05-13.52,17-5.08,4.73-11.69,7.21-17.65,10.67a34.49,34.49,0,0,0-8.12,6.36,52.37,52.37,0,0,0,4.34,3.32,5.37,5.37,0,0,1,.45.35l1,.54a22.89,22.89,0,0,1,5.15,4.15,23.92,23.92,0,0,1,2.74,3.78,84.93,84.93,0,0,1,6.21,6.09,51.57,51.57,0,0,0,17.82-25.23C429.83,94.91,434.35,83.42,428.87,75.85Z"/></g><g opacity="0.2" ><path d="M262.45,125.8c2.7-3,5-6.39,7.7-9.43,1.83-2,4.1-3.57,5.89-5.54-2-4.16-4.39-8.56-6.59-10.59-3.65-3.37-16.41-7.59-21-9.72a60,60,0,0,1-7.92-4.46c-2-1.32-4-4-6.43-4.66a1.93,1.93,0,0,0-2,1.08c-2.08,4.44,1.15,12.7,2.25,15.64,3.47,9.27,9.39,14.74,17.5,20.74a.26.26,0,0,1-.05.09,4.58,4.58,0,0,1,.82.94,4.07,4.07,0,0,1,1,.86c.7.28,5.28,3.87,8.2,6A5.9,5.9,0,0,1,262.45,125.8Z"/></g><g opacity="0.1" ><path d="M484.43,334.75c.23,1.7-3.51,6.76-4.43,8.49-1.82,3.4-3.69,6.78-5.68,10.08a107.84,107.84,0,0,1-13.23,18.12A62.44,62.44,0,0,1,450,380.9a60.12,60.12,0,0,1-6.25,3.67,33.15,33.15,0,0,1-5.53,2.51c-4,1.15-6.15-2.21-7.32-5.52A39.5,39.5,0,0,1,428.59,364a119.47,119.47,0,0,1,2.54-14.42l-1.94,4.49c-3.06,11.13-4.58,22.56-6,34a4.58,4.58,0,0,0,.26,2.19,3.36,3.36,0,0,0-.88.73c-2.06,2.52-.69,11.1-.81,14.3a.63.63,0,0,0,.09.45c.16.19.45.15.69.08A107.32,107.32,0,0,0,447,396.42c9.48-5.3,17.16-11.14,23.54-19.77,3.19-4.31,6.66-9.86,8.46-14.91C482.08,353,485.69,343.9,484.43,334.75Z"/></g><g opacity="0.1" ><path d="M267.14,141.25c10.77-16.34,17.61-34.19,32.59-46.79-23.63,13.12-38,28.59-53.16,54.08-14.44,24.28-29.76,53.17-39.76,79.22s-15,53.6-17.25,81.33c-1.43,17.32-2,39.51,3.93,58-12.1,2.84-24.41,2.34-35.38-4.43-32.09-19.82-16.24-53.36-16.24-53.36-5,6.27-7.45,8.94-9.87,24-2.23,13.87,8.42,27.21,19.58,34.28,13.85,8.78,29.58,10.18,44.75,6.87a52,52,0,0,0,7.95,12.63c10,11.56,21.38,19,39.1,21.26,2.29.29,4.62.6,7,.93-.18-3.14-.62-6.26-.51-9.43a5.58,5.58,0,0,1,.13-1c-17.1-5.77-32.33-19.18-39.76-35.48-4-8.82-6.12-18.92-6.18-30.43-.12-27.61,3.21-61,10.78-87.24C225.7,208,245.4,174.22,267.14,141.25Z"/></g><g opacity="0.1" ><path d="M389.27,402c-5.29,1.24-9.82,4.43-15.12,5.66a159,159,0,0,1-19.41,2.95c-22,2.28-44.35.82-66.16-2.85-1.83-5.45-1.1-11.68-.07-17.2a37.94,37.94,0,0,1,1.27-4.59A39.81,39.81,0,0,0,288,390c-.76,2.25-1.08,4.63-2.41,6.66l-.1.14c-.31,5-1.31,10.55-3.93,14.6a17.9,17.9,0,0,0,.17,2.75,5.94,5.94,0,0,1,.05.72c1.54.34,3.06.69,4.53,1,14.9,5.54,32.72,6.73,47.93,6.86,15.65.12,34.69-1.09,45-4.91,2.87-1.06,9.12-1.62,10.48-3.05,1.2-1.27-.65-1.69-.77-3.3C388.25,402.21,389.26,402,389.27,402Z"/></g>        <g opacity="0.1" ><path fill="#fff"  d="M379.83,103.26c6.05,5.3,10.42,13.69,14.49,20.51,4.46,7.47,8.87,15,13.36,22.41,13,21.71,26.15,43.75,37,66.66a328.92,328.92,0,0,1,23.4,68.9c2.75,12.34,4.9,24.8,6.6,37.33,1.39,10.34,4.07,22.69-2.48,31.88,4.28-6,9.86-10.61,11.35-14.66,5.27-14.38.18-32.18-2.49-46.67-5.44-29.5-15.48-57.89-26.94-85.53-11.28-27.21-25.53-53.07-44.82-75.49C393.06,109.76,380.05,103.45,379.83,103.26Z"/></g>    </g>    <g id="outline">        <path fill="none"  d="M257.87,128.21l.35-.12c2.92-3.66,6-7.21,9.15-10.61a118.21,118.21,0,0,1,14.79-13.43c-.08-.39-.17-.75-.25-1-1.46-5.37-6.24-8.59-11.15-10.57-7.17-2.9-15-3.63-22.21-6.5a28.11,28.11,0,0,1-7.83-4.49c-.95-.81-1.74-1.73-2.62-2.6a13.89,13.89,0,0,0-2.26-2.07,7.21,7.21,0,0,0-5.45,6c-2.73,8.82,1.08,20.06,4.85,28.19,3.54,7.63,9,12.45,16.83,15.43C253.53,126.91,256.36,128.5,257.87,128.21Z"/><path fill="none"  d="M413,128.8c14.57-10,20.21-32.54,21.46-49.56.2-2.76.82-8.24-1.57-10.18-3.22-2.61-6.26,3.45-7.76,5.36A28.9,28.9,0,0,1,409.27,84.8c-6.5,1.53-12.78,1.84-18.48,5.66-3.77,2.52-7.87,6-10.39,10.2A132,132,0,0,1,413,128.8Z"/><path fill="none"  d="M467.07,243.41c-8.65-24.15-19.37-47.49-30.8-70.44-9.43-18.92-19.18-36.8-34.42-51.76C388,107.6,371,96.62,352.05,91.77A77.35,77.35,0,0,0,293.33,100c-20,11.78-34.51,30.8-46.8,50.08a377.56,377.56,0,0,0-52.42,133.52c-1.64,9-3,18.11-3.91,27.25-2.95,30.42-1.69,70.59,28.42,87.67,2.13,1.21,13,3.79,8.39,7.39-2.4,1.85-14.49,3-13.86,6.68.69,4.07,12.39,4.42,15.14,4.64a154.25,154.25,0,0,0,17.6.24c.53,0,1.45,0,2.41,0,.15-1.74.14-3.58.16-5.43s0-3.86.07-5.79c.06-3.85.17-7.68.19-11.51a150.53,150.53,0,0,0-1.33-22.87,56.23,56.23,0,0,0-2.68-11.09,30.74,30.74,0,0,0-2.47-5.14,18.3,18.3,0,0,0-3.62-4.42,22.73,22.73,0,0,1,6.82,9.26,57.07,57.07,0,0,1,3.39,11.14,134.87,134.87,0,0,1,2.22,23.1c.11,3.86.11,7.72.1,11.56,0,1.92,0,3.83,0,5.75s.08,3.86-.07,5.9a13.94,13.94,0,0,1-.56,3.13l-.13.39c0,.14-.12.3-.18.45a4.64,4.64,0,0,1-.47.85,6.81,6.81,0,0,1-1.25,1.36,22.42,22.42,0,0,1-5.47,2.84c-1.7.7-3.31,1.6-3.6,2.59a1.94,1.94,0,0,0-.1.85,4.53,4.53,0,0,0,.06.5l.14.48a4.69,4.69,0,0,0,1.25,1.77c.12.11.27.22.4.33a5.55,5.55,0,0,1,.24-3.09,6.48,6.48,0,0,1,2.78-3.36,8.4,8.4,0,0,1,2-.78,12.23,12.23,0,0,1,1.87-.39,13.23,13.23,0,0,1,3.88,0,13.58,13.58,0,0,1-3.13,2.28c-1.12.61-2.21,1.06-3.05,1.5a9.26,9.26,0,0,0-2.27,1.93,12.91,12.91,0,0,0-1.91,3h0l.47-.39a14.81,14.81,0,0,0,3.2,1.55,19.2,19.2,0,0,0,2.59.75,22.1,22.1,0,0,0,2.68.41c.46,0,.92.06,1.39.09a2.77,2.77,0,0,1-.43-.9,3.62,3.62,0,0,1,.15-2.18,7.13,7.13,0,0,1,2.48-3,9.79,9.79,0,0,1,3.23-1.61,7.41,7.41,0,0,1,3.66-.16,29.47,29.47,0,0,1-2.61,2.27c-.84.66-1.66,1.29-2.49,1.9a22.09,22.09,0,0,0-2.22,1.76,3.27,3.27,0,0,0-.74,1,2.59,2.59,0,0,0-.2,1.56l.54-.57a48.17,48.17,0,0,0,8.4-.42,36,36,0,0,0,5.41-1.12,14.64,14.64,0,0,0,4.66-2.47,20.39,20.39,0,0,0,3.79-3.86,26.1,26.1,0,0,0,2.86-4.7c.19-.42.39-.84.53-1.25a11.29,11.29,0,0,0,.42-1.28c.27-.88.49-1.81.71-2.73l1.23-5.61c.81-3.76,1.61-7.54,2.58-11.28a115.35,115.35,0,0,1,3.46-11.07,49.24,49.24,0,0,1,5.15-10.35c-3.7,6.77-5.63,14.26-7.18,21.75-.78,3.71-1.42,7.45-2.06,11.2a314,314,0,0,0,33.1,5.43c21.48,2.28,43.63,2.35,64.74-2.68a86.22,86.22,0,0,0,8.66-2.58c0-.15-.06-.3-.08-.45-.62-3.71-.81-7.39-1.25-11-.2-1.8-.5-3.61-.78-5.43s-.56-3.63-.93-5.4a31.77,31.77,0,0,0-1.72-5.18c-.65-1.73-1.25-3.47-1.84-5.21.73,1.69,1.47,3.37,2.26,5a32.69,32.69,0,0,1,2.07,5.16c.49,1.8.88,3.6,1.28,5.39s.8,3.59,1.12,5.43c.62,3.66,1,7.33,1.72,10.85a32,32,0,0,0,1.5,5.11,27.37,27.37,0,0,0,2.44,4.68,20.21,20.21,0,0,0,7.48,7,13.33,13.33,0,0,0,2.34.91c.8.25,1.7.44,2.56.62a45,45,0,0,0,5.3.71,51.54,51.54,0,0,0,5.7.11l.54.57a2.5,2.5,0,0,0-.2-1.56,3.44,3.44,0,0,0-.74-1,23.66,23.66,0,0,0-2.22-1.75c-.83-.61-1.65-1.24-2.49-1.9a28.26,28.26,0,0,1-2.6-2.28,7.37,7.37,0,0,1,3.65.16,10.06,10.06,0,0,1,3.24,1.62,7.13,7.13,0,0,1,2.47,3,3.51,3.51,0,0,1,.15,2.17,3,3,0,0,1-.43.92c1.19-.08,2.38-.2,3.53-.39a20.19,20.19,0,0,0,4.86-1.58,13.17,13.17,0,0,0,1.48-.83l.46.38a12.87,12.87,0,0,0-1.91-3,9.43,9.43,0,0,0-2.27-1.92c-.84-.44-1.93-.89-3-1.5a13.47,13.47,0,0,1-3.14-2.29,13.57,13.57,0,0,1,3.88,0,12.23,12.23,0,0,1,1.87.39,8.36,8.36,0,0,1,2,.77,6.54,6.54,0,0,1,2.78,3.37,5.39,5.39,0,0,1,.23,3.12,6.14,6.14,0,0,0,1.3-1.42,3.72,3.72,0,0,0,.57-1.85,2,2,0,0,0-.11-.84,1.94,1.94,0,0,0-.41-.72c-.78-.94-2.46-1.64-4.13-2.28a21.07,21.07,0,0,1-5.31-2.59,7.85,7.85,0,0,1-1.24-1.21,5,5,0,0,1-.88-1.72,10.15,10.15,0,0,1-.27-1.57c-.06-.51-.09-1-.1-1.48a111.51,111.51,0,0,1,.44-11.18c.28-3.68.68-7.35,1.13-11,.89-7.32,2-14.61,3.48-21.84.76-3.61,1.6-7.21,2.61-10.76.51-1.78,1.07-3.54,1.74-5.26a23,23,0,0,1,1.17-2.52,7.34,7.34,0,0,1,1.66-2.2,7.31,7.31,0,0,0-1.46,2.3,21.35,21.35,0,0,0-.94,2.57c-.56,1.74-1,3.52-1.4,5.31-.79,3.57-1.4,7.19-1.94,10.81-1.1,7.25-1.92,14.54-2.6,21.84q-.5,5.47-.83,10.95c-.19,3.41-.36,6.86-.25,10.19,5.42.86,11.33.44,16.69.28a155.32,155.32,0,0,0,19.15-1.45c2.36-.37,3.94,0,2.57-2.3-1.6-2.7-4-4-6.92-5-2.41-.82-9.31-1-10.72-3.45-.76-1.34.09-2.05,1-2.94,1.36-1.35,4-2.2,5.61-3.24q3-1.89,5.8-4.05A69.49,69.49,0,0,0,475.15,368c9-16.71,10.94-36.3,9.17-54.94C482.07,289.36,475.07,265.76,467.07,243.41Z"/><path fill="none"  d="M160.08,333.14c-3.58-5.91-3.3-13.06-.58-19.25a13.75,13.75,0,0,1,6-6.85c2.59-1.37,4.5-.84,7.21-.85,2.4,0,5.77-.62,4.77-3.68a7.15,7.15,0,0,0-1.09-1.75,7.74,7.74,0,0,0-4.48-3.35c-4-1.17-8.87-.45-12.86.55-16.25,4.07-24.7,20.78-26.8,36.27C129.57,354,149.88,369.48,167,373.64a61.07,61.07,0,0,0,26.46.37,90.51,90.51,0,0,1-6.9-26.51C176,346.13,165.44,342,160.08,333.14Z"/><path d="M480.28,275.91c-6.48-25.07-15.82-49.32-26.42-72.92-5.4-12-11.13-23.86-17.05-35.62-5.05-10.06-10.06-20.08-16.62-29.27q-2.58-3.61-5.39-7.07C426.91,122.46,433.32,105.88,436,91c1-5.53,2.22-11.83,1.51-17.44-.4-3.24-1.72-7.74-5.52-8-6.32-.37-8.65,7-12.66,10.48C412.63,81.8,405.9,82,397.78,84a34.07,34.07,0,0,0-20,15.15c-.5-.28-1-.58-1.49-.85-16.44-9-35.32-13.85-54.08-11.43C308.51,88.62,296,94.19,285,102c-.14-.48-.29-.93-.45-1.34-2.43-6.41-8.71-9.92-14.9-12C261.88,86,253.18,85.39,246,81.26c-4-2.33-9-11-14.34-6.88-5.86,4.54-6,14.46-4.72,21,1.47,7.52,4,15.73,8.28,22.17A29.85,29.85,0,0,0,250.1,129a34.52,34.52,0,0,0,5.82,2.06c-11.12,14.47-20.4,30.56-28.69,46.61a379.41,379.41,0,0,0-27.52,69.12q-5.13,17.82-8.5,36.07c-3.45,19-6.77,40.76-5,61.39-13.53-2.26-28.79-9.5-25.4-24.86.72-3.21,2-6.56,4.64-8.65,4.41-3.5,8.54.65,12.92-1.45s2.51-7.49.27-10.52c-7.91-10.73-27.31-3-35,4.3-9.48,8.95-16.45,25.8-14.33,38.88,2.63,16.28,18,28.64,32.89,33.48a62.47,62.47,0,0,0,32.55,1.4c1,2.08,2.16,4.12,3.4,6.1a53,53,0,0,0,21.65,19.67c.46.23,2,1.13,3.24,1.71l-.3.12c-1.79.63-3.6,1.17-5.38,1.82-3.43,1.25-9.09,3.22-6.82,8,1.88,3.92,8,4.81,11.71,5.39a117.94,117.94,0,0,0,20,1c1.45,0,3.44.1,5.43,0a3.14,3.14,0,0,1-.29.54,3.81,3.81,0,0,1-.71.75,20.38,20.38,0,0,1-4.77,2.37,16.94,16.94,0,0,0-2.81,1.43,5.83,5.83,0,0,0-2.43,2.87,6.55,6.55,0,0,0,2.08,6.77,12.16,12.16,0,0,0,2.66,1.88,18.83,18.83,0,0,0,2.85,1.25,23.66,23.66,0,0,0,3,.83,27.57,27.57,0,0,0,3,.45,49,49,0,0,0,11.86-.35,37.6,37.6,0,0,0,5.85-1.33,17.47,17.47,0,0,0,5.43-3,25.15,25.15,0,0,0,7.16-9.66,18.24,18.24,0,0,0,1-2.89c.26-1,.46-1.92.66-2.88s.37-1.91.54-2.86c22.3,4.82,45.24,7.67,68.06,6.76a160.1,160.1,0,0,0,32.55-4.43c2.39-.6,4.77-1.27,7.12-2a28.47,28.47,0,0,0,3.1,7.11,21.81,21.81,0,0,0,8.26,8.08,15.17,15.17,0,0,0,2.76,1.15c1,.31,1.85.51,2.78.72a48.77,48.77,0,0,0,5.61.87,45.84,45.84,0,0,0,11.39-.31A22.85,22.85,0,0,0,430,433a14.79,14.79,0,0,0,2.63-1.56,9.05,9.05,0,0,0,2.25-2.39,6.76,6.76,0,0,0,1-3.36,5.14,5.14,0,0,0-1.23-3.53,8.16,8.16,0,0,0-2.67-2,27.2,27.2,0,0,0-2.68-1.14,19.28,19.28,0,0,1-4.6-2.14,4.89,4.89,0,0,1-.73-.7,1.86,1.86,0,0,1-.38-.72l0-.12.84.08a142.39,142.39,0,0,0,20.86,0c5.56-.29,11.91-.22,17.3-1.84,3.77-1.13,2.9-4.87.85-7.65-3.27-4.43-9.45-5.46-14.46-6.64a4,4,0,0,1-.42-.13c.93-.57,1.95-1.32,2.33-1.55a77,77,0,0,0,11.85-8.78c14-12.68,21.84-30.36,24.29-48.89C489.8,318.42,485.65,296.73,480.28,275.91ZM390.79,90.46c5.7-3.82,12-4.13,18.48-5.66a28.9,28.9,0,0,0,15.82-10.38c1.5-1.91,4.54-8,7.76-5.36,2.39,1.94,1.77,7.42,1.57,10.18-1.25,17-6.89,39.6-21.46,49.56a132,132,0,0,0-32.56-28.14C382.92,96.49,387,93,390.79,90.46Zm-138.72,35.9c-7.85-3-13.29-7.8-16.83-15.43-3.77-8.13-7.58-19.37-4.85-28.19a7.21,7.21,0,0,1,5.45-6,13.89,13.89,0,0,1,2.26,2.07c.88.87,1.67,1.79,2.62,2.6a28.11,28.11,0,0,0,7.83,4.49c7.18,2.87,15,3.6,22.21,6.5,4.91,2,9.69,5.2,11.15,10.57.08.3.17.66.25,1a118.21,118.21,0,0,0-14.79,13.43c-3.19,3.4-6.23,7-9.15,10.61l-.35.12C256.36,128.5,253.53,126.91,252.07,126.36ZM167,373.64c-17.11-4.16-37.42-19.67-34.74-39.41,2.1-15.49,10.55-32.2,26.8-36.27,4-1,8.83-1.72,12.86-.55a7.74,7.74,0,0,1,4.48,3.35,7.15,7.15,0,0,1,1.09,1.75c1,3.06-2.37,3.67-4.77,3.68-2.71,0-4.62-.52-7.21.85a13.75,13.75,0,0,0-6,6.85c-2.72,6.19-3,13.34.58,19.25,5.36,8.84,15.89,13,26.47,14.36a90.51,90.51,0,0,0,6.9,26.51A61.07,61.07,0,0,1,167,373.64ZM475.15,368a69.49,69.49,0,0,1-18.79,22.19q-2.81,2.16-5.8,4.05c-1.64,1-4.25,1.89-5.61,3.24-.88.89-1.73,1.6-1,2.94,1.41,2.49,8.31,2.63,10.72,3.45,2.94,1,5.32,2.32,6.92,5,1.37,2.3-.21,1.93-2.57,2.3a155.32,155.32,0,0,1-19.15,1.45c-5.36.16-11.27.58-16.69-.28-.11-3.33.06-6.78.25-10.19q.33-5.47.83-10.95c.68-7.3,1.5-14.59,2.6-21.84.54-3.62,1.15-7.24,1.94-10.81.39-1.79.84-3.57,1.4-5.31a21.35,21.35,0,0,1,.94-2.57,7.31,7.31,0,0,1,1.46-2.3,7.34,7.34,0,0,0-1.66,2.2,23,23,0,0,0-1.17,2.52c-.67,1.72-1.23,3.48-1.74,5.26-1,3.55-1.85,7.15-2.61,10.76C424,376.38,422.86,383.67,422,391c-.45,3.66-.85,7.33-1.13,11a111.51,111.51,0,0,0-.44,11.18c0,.48,0,1,.1,1.48a10.15,10.15,0,0,0,.27,1.57,5,5,0,0,0,.88,1.72,7.85,7.85,0,0,0,1.24,1.21,21.07,21.07,0,0,0,5.31,2.59c1.67.64,3.35,1.34,4.13,2.28a1.94,1.94,0,0,1,.41.72,2,2,0,0,1,.11.84,3.72,3.72,0,0,1-.57,1.85,6.14,6.14,0,0,1-1.3,1.42,5.39,5.39,0,0,0-.23-3.12,6.54,6.54,0,0,0-2.78-3.37,8.36,8.36,0,0,0-2-.77,12.23,12.23,0,0,0-1.87-.39,13.57,13.57,0,0,0-3.88,0,13.47,13.47,0,0,0,3.14,2.29c1.11.61,2.2,1.06,3,1.5a9.43,9.43,0,0,1,2.27,1.92,12.87,12.87,0,0,1,1.91,3l-.46-.38a13.17,13.17,0,0,1-1.48.83,20.19,20.19,0,0,1-4.86,1.58c-1.15.19-2.34.31-3.53.39a3,3,0,0,0,.43-.92,3.51,3.51,0,0,0-.15-2.17,7.13,7.13,0,0,0-2.47-3,10.06,10.06,0,0,0-3.24-1.62,7.37,7.37,0,0,0-3.65-.16,28.26,28.26,0,0,0,2.6,2.28c.84.66,1.66,1.29,2.49,1.9a23.66,23.66,0,0,1,2.22,1.75,3.44,3.44,0,0,1,.74,1,2.5,2.5,0,0,1,.2,1.56l-.54-.57a51.54,51.54,0,0,1-5.7-.11,45,45,0,0,1-5.3-.71c-.86-.18-1.76-.37-2.56-.62A13.33,13.33,0,0,1,403,430a20.21,20.21,0,0,1-7.48-7,27.37,27.37,0,0,1-2.44-4.68,32,32,0,0,1-1.5-5.11c-.76-3.52-1.1-7.19-1.72-10.85-.32-1.84-.74-3.63-1.12-5.43s-.79-3.59-1.28-5.39a32.69,32.69,0,0,0-2.07-5.16c-.79-1.66-1.53-3.34-2.26-5,.59,1.74,1.19,3.48,1.84,5.21a31.77,31.77,0,0,1,1.72,5.18c.37,1.77.64,3.59.93,5.4s.58,3.63.78,5.43c.44,3.62.63,7.3,1.25,11,0,.15,0,.3.08.45a86.22,86.22,0,0,1-8.66,2.58c-21.11,5-43.26,5-64.74,2.68a314,314,0,0,1-33.1-5.43c.64-3.75,1.28-7.49,2.06-11.2,1.55-7.49,3.48-15,7.18-21.75a49.24,49.24,0,0,0-5.15,10.35,115.35,115.35,0,0,0-3.46,11.07c-1,3.74-1.77,7.52-2.58,11.28l-1.23,5.61c-.22.92-.44,1.85-.71,2.73a11.29,11.29,0,0,1-.42,1.28c-.14.41-.34.83-.53,1.25a26.1,26.1,0,0,1-2.86,4.7,20.39,20.39,0,0,1-3.79,3.86,14.64,14.64,0,0,1-4.66,2.47,36,36,0,0,1-5.41,1.12,48.17,48.17,0,0,1-8.4.42l-.54.57a2.59,2.59,0,0,1,.2-1.56,3.27,3.27,0,0,1,.74-1,22.09,22.09,0,0,1,2.22-1.76c.83-.61,1.65-1.24,2.49-1.9a29.47,29.47,0,0,0,2.61-2.27,7.41,7.41,0,0,0-3.66.16,9.79,9.79,0,0,0-3.23,1.61,7.13,7.13,0,0,0-2.48,3,3.62,3.62,0,0,0-.15,2.18,2.77,2.77,0,0,0,.43.9c-.47,0-.93,0-1.39-.09a22.1,22.1,0,0,1-2.68-.41,19.2,19.2,0,0,1-2.59-.75,14.81,14.81,0,0,1-3.2-1.55l-.47.39h0a12.91,12.91,0,0,1,1.91-3,9.26,9.26,0,0,1,2.27-1.93c.84-.44,1.93-.89,3.05-1.5a13.58,13.58,0,0,0,3.13-2.28,13.23,13.23,0,0,0-3.88,0,12.23,12.23,0,0,0-1.87.39,8.4,8.4,0,0,0-2,.78,6.48,6.48,0,0,0-2.78,3.36,5.55,5.55,0,0,0-.24,3.09c-.13-.11-.28-.22-.4-.33a4.69,4.69,0,0,1-1.25-1.77l-.14-.48a4.53,4.53,0,0,1-.06-.5,1.94,1.94,0,0,1,.1-.85c.29-1,1.9-1.89,3.6-2.59a22.42,22.42,0,0,0,5.47-2.84,6.81,6.81,0,0,0,1.25-1.36,4.64,4.64,0,0,0,.47-.85c.06-.15.13-.31.18-.45l.13-.39a13.94,13.94,0,0,0,.56-3.13c.15-2,.09-4,.07-5.9s0-3.83,0-5.75c0-3.84,0-7.7-.1-11.56a134.87,134.87,0,0,0-2.22-23.1,57.07,57.07,0,0,0-3.39-11.14,22.73,22.73,0,0,0-6.82-9.26,18.3,18.3,0,0,1,3.62,4.42,30.74,30.74,0,0,1,2.47,5.14,56.23,56.23,0,0,1,2.68,11.09,150.53,150.53,0,0,1,1.33,22.87c0,3.83-.13,7.66-.19,11.51-.05,1.93-.06,3.87-.07,5.79s0,3.69-.16,5.43c-1,0-1.88,0-2.41,0a154.25,154.25,0,0,1-17.6-.24c-2.75-.22-14.45-.57-15.14-4.64-.63-3.64,11.46-4.83,13.86-6.68,4.66-3.6-6.26-6.18-8.39-7.39-30.11-17.08-31.37-57.25-28.42-87.67.88-9.14,2.27-18.22,3.91-27.25a377.56,377.56,0,0,1,52.42-133.52c12.29-19.28,26.79-38.3,46.8-50.08a77.35,77.35,0,0,1,58.72-8.26C371,96.62,388,107.6,401.85,121.21c15.24,15,25,32.84,34.42,51.76,11.43,22.95,22.15,46.29,30.8,70.44,8,22.35,15,46,17.25,69.67C486.09,331.72,484.11,351.31,475.15,368Z"/>    </g>    <g id="eye">        <g id="eye-color1">            <g opacity="0" ><path fill="#FCD4D4"  d="M251.88,194.72c-.14.46-.2.94-.35,1.41a16.61,16.61,0,0,1-1.35,2.86c-.53.94-1,1.9-1.55,2.83-.23.41-.49.81-.76,1.2-.14.21-.29.41-.44.61s-.45.47-.45.6c-.19.25-.39.5-.59.74-5.88,7.05-13.91,9.8-22.69,6.54-8.54-3.17-14.21-10.41-14.65-19.54a1.27,1.27,0,0,1,0-.28,1.29,1.29,0,0,1,0-.29,23.29,23.29,0,0,1,19-21.82,19,19,0,0,1,11.42,1.35c-15.3-7.7-34.36-2.93-39.3,15.33a21.13,21.13,0,0,0-.66,6.53A29.44,29.44,0,0,0,210,213c8.59,7.08,21.5,6.67,31,1.77,7.19-3.7,10-12.6,10.93-20.46C252,194.47,251.92,194.59,251.88,194.72Z"/></g><g opacity="0" ><path fill="#FCD4D4"  d="M375.64,188.66c-.24.62-.44,1.25-.7,1.86a25.86,25.86,0,0,1-2,3.67,32.56,32.56,0,0,1-2.54,3.42c-5.88,7-13.9,9.8-22.69,6.54-8.54-3.17-14.21-10.41-14.65-19.54a1.27,1.27,0,0,1,0-.28.9.9,0,0,1,0-.29,23.29,23.29,0,0,1,19-21.82,19,19,0,0,1,11.42,1.35c-15.29-7.7-34.35-2.93-39.29,15.33a20.54,20.54,0,0,0-.66,6.53,29.36,29.36,0,0,0,10.48,20.24c8.59,7.08,21.5,6.67,31,1.77,6.9-3.55,9.72-12,10.77-19.66C375.81,188,375.73,188.41,375.64,188.66Z"/></g>        </g>        <g id="eye-shape">            <path fill="#fbfbfb"  d="M295.23,123.9c-21.73-17.81-51.73-12-72.06,4.87-11.71,10.13-20.83,23.9-22.35,39.61-1.28,13.09,2.59,26.27,9.6,37.28,12.38,19.45,36.52,33.94,59.91,27.1,20.91-6.12,35.23-26.45,41.18-46.49C318.07,164.16,313.73,139.06,295.23,123.9Zm16.09,44.39c3.12,13.14-4,29.29-15.05,36.62-11.44,7.59-25.45,6.31-36.15-1.92-11.83-9.09-12.9-22.85-8.48-36.31a1.66,1.66,0,0,1,.15-.33c5.3-13,20-19.08,33.33-17.46a40.23,40.23,0,0,1,4.79.88c7-2,15.58,1.56,16.61,9.36A21.23,21.23,0,0,1,311.32,168.29Z"/><path d="M221.05,126.64c-10.64,9.21-19.13,21.3-22.21,35.19-2.76,12.5-.75,25.57,4.53,37.13,10.21,22.39,34.35,41.16,59.93,38.25,23.13-2.63,40.23-22.11,48.49-42.65,9.19-22.89,7.78-50-9.89-68.55C279.45,102.48,244.4,107.3,221.05,126.64Zm90.46,59.63c-5.95,20-20.27,40.37-41.18,46.49-23.39,6.84-47.53-7.65-59.91-27.1-7-11-10.88-24.19-9.6-37.28,1.52-15.71,10.64-29.48,22.35-39.61,20.33-16.85,50.33-22.68,72.06-4.87C313.73,139.06,318.07,164.16,311.51,186.27Z"/><path d="M306.46,162.89c-1.18,7.61-8.53,14.09-16.4,11.78-7.26-2.13-10.49-10.21-8.63-17.12a1.6,1.6,0,0,1,.1-.39,1.55,1.55,0,0,1,.18-.39,12.36,12.36,0,0,1,8.2-7,40.23,40.23,0,0,0-4.79-.88c-13.38-1.62-28,4.45-33.33,17.46a1.66,1.66,0,0,0-.15.33c-4.42,13.46-3.35,27.22,8.48,36.31,10.7,8.23,24.71,9.51,36.15,1.92,11.05-7.33,18.17-23.48,15.05-36.62a21.23,21.23,0,0,0-4.8-9.16A12.89,12.89,0,0,1,306.46,162.89Z"/><path fill="#fff"  d="M289.91,149.77a12.36,12.36,0,0,0-8.2,7,1.55,1.55,0,0,0-.18.39,1.6,1.6,0,0,0-.1.39c-1.86,6.91,1.37,15,8.63,17.12,7.87,2.31,15.22-4.17,16.4-11.78a12.89,12.89,0,0,0,.06-3.76C305.49,151.33,297,147.81,289.91,149.77Z"/><path fill="#fbfbfb"  d="M437,125.33c-21.81-15.39-53-18.4-71.71,3.55-17.26,21.61-17.19,56.12-2.48,79a51.87,51.87,0,0,0,65.66,19.41,58,58,0,0,0,33.47-49.53C463,157.45,453.74,137.14,437,125.33ZM371.26,207.2c-14.35-8.09-20.39-26.75-13.74-41.9a30.4,30.4,0,0,1,4.24-6.93,10.14,10.14,0,0,1,1.62-5.68c2.63-4.13,8-4.82,12.6-3.79a30.44,30.44,0,0,1,12.63-1c14.24,1.89,27.35,11.64,30.73,26C425.83,201.43,394.08,218.68,371.26,207.2Z"/><path d="M444.44,127.47c-22.48-20.29-60.06-25.66-81.28-.71-16.45,20.6-17.87,51.3-7.19,74.86,10.79,23.79,36.25,38.16,62.16,32.38,23.25-5.19,41.58-24.61,45.83-47.95C467.84,164.77,460.58,142,444.44,127.47Zm17.49,50.33a58,58,0,0,1-33.47,49.53,51.87,51.87,0,0,1-65.66-19.41c-14.71-22.92-14.78-57.43,2.48-79,18.67-21.95,49.9-18.94,71.71-3.55C453.74,137.14,463,157.45,461.93,177.8Z"/><path d="M388.61,148a30.44,30.44,0,0,0-12.63,1A17.87,17.87,0,0,1,379.2,150c5.45,2.44,8.81,8.09,6.23,13.93-3,6.77-10.57,8.5-16.85,5.51a1.36,1.36,0,0,1-.39-.18,1.28,1.28,0,0,1-.34-.24,13.69,13.69,0,0,1-6.09-10.61,30.4,30.4,0,0,0-4.24,6.93c-6.65,15.15-.61,33.81,13.74,41.9,22.82,11.48,54.57-5.77,48.08-33.26C416,159.59,402.85,149.84,388.61,148Z"/><path fill="#fff"  d="M367.85,169a1.28,1.28,0,0,0,.34.24,1.36,1.36,0,0,0,.39.18c6.28,3,13.85,1.26,16.85-5.51,2.58-5.84-.78-11.49-6.23-13.93A17.87,17.87,0,0,0,376,148.9c-4.6-1-10-.34-12.6,3.79a10.14,10.14,0,0,0-1.62,5.68A13.69,13.69,0,0,0,367.85,169Z"/><path fill="#fcf9f7"  d="M312.47,111.88c-3.15-2.12-8.21-4.63-12.08-3.19-2.63,1-3.4,3.79-2.51,6.24a12.78,12.78,0,0,0,.68,1.53,18.3,18.3,0,0,0,6.7,7.31c3.21,1.86,8.4,2.89,11.18-.27,2.17-2.47,1.49-6-.39-8.45A14.85,14.85,0,0,0,312.47,111.88Z"/><path fill="#fcf9f7"  d="M354.8,126.17c4.59-.46,8.71-4.37,10.83-8.24a10.54,10.54,0,0,0,1.3-3.71,3.28,3.28,0,0,0-.12-1.59c-.45-1.17-1.81-1.7-3.05-1.91a13.76,13.76,0,0,0-7.42.87c-3.38,1.35-7,3.44-8.19,7.14a6.23,6.23,0,0,0-.15.62C347.21,123.36,351,126.56,354.8,126.17Z"/>        </g>        <g id="eye-color2">            <path fill="#ED58D0"  d="M296.27,204.91c-11.44,7.59-25.45,6.31-36.15-1.92-11.83-9.09-12.9-22.84-8.48-36.31a1.35,1.35,0,0,1,.15-.32c5.09-12.49,18.79-18.57,31.71-17.61-18.58-4.76-40.69,3.61-47,22.29a37.85,37.85,0,0,0,4.9,33.63c7.49,10.53,19.92,14.81,32.48,14.76,6.18,0,12.54-1,17.8-4.26,8.59-5.28,15.13-15.61,17.42-26.36A36.29,36.29,0,0,1,296.27,204.91Z"/><path fill="#ED58D0"  d="M413,151.48c-9.56-6.8-25.15-8-36.48-2.76a30.47,30.47,0,0,1,12.05-.77c14.24,1.89,27.35,11.64,30.73,26,6.49,27.5-25.26,44.74-48.08,33.26a32.32,32.32,0,0,1-14.31-17,15.56,15.56,0,0,0,.4,2.35,31.17,31.17,0,0,0,16.47,20.87c13.12,6.59,30.83,4.54,43.3-5.59a31.75,31.75,0,0,0,10.47-14.43C432.45,178.47,425.74,160.52,413,151.48Z"/>        </g>    </g>    <g id="nose-mouth">        <path fill="none"  d="M409,275.37h0Z"/><path fill="none"  d="M394.78,308.82l0,.08s0,0,0-.07Z"/><path fill="#e8d3b3"  d="M361.93,304.22a40.62,40.62,0,0,1,3.69,9.25,32.5,32.5,0,0,1,1.09,10,28.16,28.16,0,0,1-1.22,7c.94-.4,1.88-.84,2.78-1.31a33.14,33.14,0,0,0,5.12-3.27,32.58,32.58,0,0,0,8-9.07,36.91,36.91,0,0,0,4.43-11.47,60.07,60.07,0,0,0,1.23-12.54,44.83,44.83,0,0,1,.64,8.36,21.71,21.71,0,0,1,4.89,4.1,12.15,12.15,0,0,1,1.77,2.62l.08-.11a25.11,25.11,0,0,0,2.45-5.9,40.39,40.39,0,0,0,1.32-6.67c-.26-.49-.54-1-.85-1.46a15.93,15.93,0,0,1,2.55,2.93,25.91,25.91,0,0,1,1.88,3.43,35.8,35.8,0,0,1,1.36,3.67c0,.12.07.25.11.38l.71-1.45c.57-1.54,1.32-3,1.84-4.55a49.08,49.08,0,0,0,2.38-9.42,37.41,37.41,0,0,0,.06-9.69,29,29,0,0,0-2.85-9.46,19.44,19.44,0,0,1,3.58,5.76h0a21.12,21.12,0,0,1,3.61.54,34.7,34.7,0,0,1,4.56,1.49,45.09,45.09,0,0,1,4.33,2.05c.53.28,1,.59,1.55.89a48.63,48.63,0,0,0-1-5.12,32.4,32.4,0,0,0-2.83-7.41,28.07,28.07,0,0,0-2.14-3.33,24.78,24.78,0,0,0-2.68-2.94,21.28,21.28,0,0,0-6.89-4.32,16.48,16.48,0,0,1,8,3c.41.28.8.6,1.19.91.73-.13,1.46-.27,2.19-.35a29.66,29.66,0,0,1,3-.23,32,32,0,0,1,6,.33,31.13,31.13,0,0,1,5.9,1.43,27.11,27.11,0,0,1,2.8,1.1,49.94,49.94,0,0,0-8.27-13.81,45.43,45.43,0,0,0-6.88-6.56c-1.23-1-2.56-1.88-3.88-2.77s-2.73-1.64-4.16-2.35a68.43,68.43,0,0,0-18.19-6.23,94.94,94.94,0,0,0-14-1.74c-.27,1.15-.58,2.32-1,3.5-6.48,19.83-28.21,40.19-43.87,41.1-.52,0-1,.05-1.58.05-15.46,0-37.36-12.51-48.72-28.07a44.82,44.82,0,0,1-5.42-9.56,117.07,117.07,0,0,0-12.57,4.44,72.2,72.2,0,0,0-17.07,9.82,37.91,37.91,0,0,0-6.84,6.85,30.84,30.84,0,0,0-4.65,8.32,29.93,29.93,0,0,0-1.58,9.35l.05,2.4.28,2.39c.05.39.09.8.15,1.19l0,.23c.21-.28.42-.54.64-.81a21.72,21.72,0,0,1,3.33-3.24,16.6,16.6,0,0,1,4.09-2.35,14.57,14.57,0,0,1,4.65-1l1.45-.1-.17,1.45a37.19,37.19,0,0,0-.17,5.5,39,39,0,0,0,.61,5.51,25.27,25.27,0,0,0,1.6,5.25,18.45,18.45,0,0,0,2.08,3.43,17.92,17.92,0,0,1,.25-1.79,16.23,16.23,0,0,1,.95-3.21,11.64,11.64,0,0,1,1.72-2.85,8.87,8.87,0,0,1,2.61-2,2.83,2.83,0,0,0-.28.2,6.31,6.31,0,0,1,.63-.34,36.56,36.56,0,0,1,2.68-11.74,33.12,33.12,0,0,0-1.37,5.87,40.24,40.24,0,0,0-.49,6A39.29,39.29,0,0,0,265,297.51a36.32,36.32,0,0,0,2.11,5.54,39,39,0,0,0,2.9,5.16,47.12,47.12,0,0,0,5.71,7c.05-.86.13-1.72.25-2.58a34.78,34.78,0,0,1,1.1-5.31,26.28,26.28,0,0,1,2.05-5.1,19.57,19.57,0,0,1,3.31-4.53l2.47-2.52-.06,3.61a49,49,0,0,0,1.27,11.65,39.22,39.22,0,0,0,4.19,10.88,27.7,27.7,0,0,0,7.58,8.6,28.51,28.51,0,0,0,8.75,4.28c0-1.59,0-3.16.09-4.74.11-2.21.3-4.41.61-6.61a43.94,43.94,0,0,1,1.4-6.55,19,19,0,0,1,3.05-6.21l.76-.94.82.83a34.91,34.91,0,0,1,5.28,6.85,22.78,22.78,0,0,1,1.84,4,13.07,13.07,0,0,1,.71,3.59,7.92,7.92,0,0,0,1.57-.42,9.2,9.2,0,0,0,2.13-1.21,11.72,11.72,0,0,0,3.17-3.86,20.71,20.71,0,0,0,1.78-4.83,31.93,31.93,0,0,0,.77-4.26c-.2-.21-.39-.44-.6-.65a44,44,0,0,0-5.45-4.79,28.47,28.47,0,0,1,6.37,3.76,29.39,29.39,0,0,1,5.32,5.31,23.53,23.53,0,0,1,3.69,6.7l.61,1.84c.15.64.26,1.28.38,1.91.06.32.13.64.17,1l0,.46a47.6,47.6,0,0,0,10.8-8.76l1.32-1.55c.42-.53.79-1.09,1.19-1.64a13.37,13.37,0,0,0,1.12-1.69,16.56,16.56,0,0,0,1-1.78l.89-1.85c.29-.62.46-1.29.71-1.93l.36-1c.1-.33.16-.67.24-1l.05-.21a25.18,25.18,0,0,0,.43-2.53,53.33,53.33,0,0,0-2.91-5.28A41.71,41.71,0,0,1,361.93,304.22Z"/><path d="M439.85,265.47a51.39,51.39,0,0,0-3.7-9.35,50,50,0,0,0-2.51-4.38c-.45-.72-1-1.38-1.47-2.07l-.75-1-.82-1a44,44,0,0,0-7.28-7,49.11,49.11,0,0,0-8.58-5.33,62.39,62.39,0,0,0-9.38-3.61,71,71,0,0,0-9.78-2,72.93,72.93,0,0,0-14.16-.5c2.2-10.25-.35-18.92-7.37-24.72-14.57-12-41.79-12-62.29-6.63C295.08,202.2,283.21,209.76,280,218c-2.18,5.64-2,11.82.43,18.22a95.82,95.82,0,0,0-12.92,3.55,67.55,67.55,0,0,0-18.06,9.34,36.16,36.16,0,0,0-12.67,16.21A30.68,30.68,0,0,0,235,275.7l.07,2.62.33,2.59c.06.43.1.86.18,1.29l.29,1.27.57,2.53.88,3.81,1.82-3.57a21.91,21.91,0,0,1,2.19-3.36,19.35,19.35,0,0,1,2.82-2.9,13.82,13.82,0,0,1,3.38-2.05,10.7,10.7,0,0,1,2.46-.73,41.58,41.58,0,0,0,.13,4.33,34.67,34.67,0,0,0,.92,5.8,27.07,27.07,0,0,0,2,5.53,18,18,0,0,0,3.62,4.7l1.12,1-.11-1.5a18.53,18.53,0,0,1,.08-3.15,15.76,15.76,0,0,1,.64-3.11,11.83,11.83,0,0,1,1.37-2.87,8.74,8.74,0,0,1,2.05-2,2.83,2.83,0,0,1,.28-.2,8.87,8.87,0,0,0-2.61,2,11.64,11.64,0,0,0-1.72,2.85,16.23,16.23,0,0,0-.95,3.21,17.92,17.92,0,0,0-.25,1.79,18.45,18.45,0,0,1-2.08-3.43,25.27,25.27,0,0,1-1.6-5.25,39,39,0,0,1-.61-5.51,37.19,37.19,0,0,1,.17-5.5l.17-1.45-1.45.1a14.57,14.57,0,0,0-4.65,1,16.6,16.6,0,0,0-4.09,2.35,21.72,21.72,0,0,0-3.33,3.24c-.22.27-.43.53-.64.81l0-.23c-.06-.39-.1-.8-.15-1.19l-.28-2.39-.05-2.4a29.93,29.93,0,0,1,1.58-9.35,30.84,30.84,0,0,1,4.65-8.32,37.91,37.91,0,0,1,6.84-6.85,72.2,72.2,0,0,1,17.07-9.82,117.07,117.07,0,0,1,12.57-4.44,44.82,44.82,0,0,0,5.42,9.56c11.36,15.56,33.26,28.07,48.72,28.07.54,0,1.06,0,1.58-.05,15.66-.91,37.39-21.27,43.87-41.1.39-1.18.7-2.35,1-3.5a94.94,94.94,0,0,1,14,1.74,68.43,68.43,0,0,1,18.19,6.23c1.43.71,2.79,1.54,4.16,2.35s2.65,1.77,3.88,2.77a45.43,45.43,0,0,1,6.88,6.56,49.94,49.94,0,0,1,8.27,13.81,27.11,27.11,0,0,0-2.8-1.1,31.13,31.13,0,0,0-5.9-1.43,32,32,0,0,0-6-.33,29.66,29.66,0,0,0-3,.23c-.73.08-1.46.22-2.19.35-.39-.31-.78-.63-1.19-.91a16.48,16.48,0,0,0-8-3,21.28,21.28,0,0,1,6.89,4.32,24.78,24.78,0,0,1,2.68,2.94,28.07,28.07,0,0,1,2.14,3.33,32.4,32.4,0,0,1,2.83,7.41,48.63,48.63,0,0,1,1,5.12c-.51-.3-1-.61-1.55-.89a45.09,45.09,0,0,0-4.33-2.05,34.7,34.7,0,0,0-4.56-1.49,21.12,21.12,0,0,0-3.61-.54h0a19.44,19.44,0,0,0-3.58-5.76,29,29,0,0,1,2.85,9.46,37.41,37.41,0,0,1-.06,9.69,49.08,49.08,0,0,1-2.38,9.42c-.52,1.55-1.27,3-1.84,4.55l-.71,1.45c0-.13-.07-.26-.11-.38a35.8,35.8,0,0,0-1.36-3.67,25.91,25.91,0,0,0-1.88-3.43,15.93,15.93,0,0,0-2.55-2.93c.31.48.59,1,.85,1.46a40.39,40.39,0,0,1-1.32,6.67,25.11,25.11,0,0,1-2.45,5.9l-.08.11a12.15,12.15,0,0,0-1.77-2.62,21.71,21.71,0,0,0-4.89-4.1,44.83,44.83,0,0,0-.64-8.36,60.07,60.07,0,0,1-1.23,12.54,36.91,36.91,0,0,1-4.43,11.47,32.58,32.58,0,0,1-8,9.07,33.14,33.14,0,0,1-5.12,3.27c-.9.47-1.84.91-2.78,1.31a28.16,28.16,0,0,0,1.22-7,32.5,32.5,0,0,0-1.09-10,40.62,40.62,0,0,0-3.69-9.25,41.71,41.71,0,0,0-5.61-8.09,53.33,53.33,0,0,1,2.91,5.28c.54,1.11,1.06,2.23,1.53,3.37a47.55,47.55,0,0,1,2.77,9.16,32.62,32.62,0,0,1,.58,4.7,31.78,31.78,0,0,1-.06,4.68,28.83,28.83,0,0,1-2.32,9L360.55,335l2.86-.75a30.71,30.71,0,0,0,6.25-2.47,36.09,36.09,0,0,0,5.53-3.63,32.83,32.83,0,0,0,8.43-10.11,35.34,35.34,0,0,0,3.81-12.45c.15-1.28.24-2.56.28-3.84,1.07,1.64,2.15,3.21,3.06,4.81a12.47,12.47,0,0,1,1.27,2.81l.15.49a2.51,2.51,0,0,0,.46.83,2,2,0,0,0,1.33.69,2.26,2.26,0,0,0,1.2-.25,3.82,3.82,0,0,0,1.11-.87,9.36,9.36,0,0,0,.66-.85,16,16,0,0,0,2.33-7.12,14.43,14.43,0,0,0-.93-6.9c.28.56.54,1.12.79,1.68a35,35,0,0,1,1.19,3.54c.33,1.2.59,2.41.81,3.63a33.45,33.45,0,0,1,.5,3.64l.3,3.86,2-3.38q1.31-2.2,2.58-4.46c.37-.78.73-1.57,1.08-2.36a24,24,0,0,0,1-2.39,35.78,35.78,0,0,0,1.52-5c.17-.85.42-1.69.54-2.55s.23-1.73.32-2.6a30.71,30.71,0,0,0-.84-10.38,26.83,26.83,0,0,0-1-2.91c1.06.37,2.1.77,3.11,1.22,1.4.67,2.76,1.37,4.09,2.14s2.63,1.57,3.89,2.44,2.56,1.73,3.71,2.64l2.35,1.86-.1-3.06a37,37,0,0,0-1.22-8.53,32.33,32.33,0,0,0-1.39-4.13,26.09,26.09,0,0,0-2-3.88,21.65,21.65,0,0,0-4.68-5.28,42,42,0,0,1,5,.1,36.08,36.08,0,0,1,5.77.9,34.94,34.94,0,0,1,5.49,1.81,27.07,27.07,0,0,1,5,2.71l2.72,2Zm-45,43.43,0-.08h0C394.86,308.92,394.84,308.94,394.82,308.9ZM288.53,244.72c-4.65-6.38-9.43-16-5.72-25.6,2.81-7.28,14.19-14.32,29.71-18.38a101.33,101.33,0,0,1,25.6-3.44c15.39,0,27.43,4,34,9.48,8.91,7.36,7.79,18,5.29,25.7-6.16,18.85-26.56,38.18-41.19,39S299.76,260.1,288.53,244.72Z"/><path fill="#724331"  d="M377.43,232.48c2.5-7.66,3.62-18.34-5.29-25.7-6.59-5.43-18.63-9.48-34-9.48a101.33,101.33,0,0,0-25.6,3.44c-15.52,4.06-26.9,11.1-29.71,18.38-3.71,9.6,1.07,19.22,5.72,25.6,11.23,15.38,33.1,27.67,47.71,26.8S371.27,251.33,377.43,232.48Z"/><path d="M358.51,305.16l-.36,1c-.25.64-.42,1.31-.71,1.93l-.89,1.85a16.56,16.56,0,0,1-1,1.78,13.37,13.37,0,0,1-1.12,1.69c-.4.55-.77,1.11-1.19,1.64l-1.32,1.55a47.6,47.6,0,0,1-10.8,8.76l0-.46c0-.32-.11-.64-.17-1-.12-.63-.23-1.27-.38-1.91l-.61-1.84a23.53,23.53,0,0,0-3.69-6.7,29.39,29.39,0,0,0-5.32-5.31,28.47,28.47,0,0,0-6.37-3.76,44,44,0,0,1,5.45,4.79c.21.21.4.44.6.65a31.93,31.93,0,0,1-.77,4.26,20.71,20.71,0,0,1-1.78,4.83,11.72,11.72,0,0,1-3.17,3.86,9.2,9.2,0,0,1-2.13,1.21,7.92,7.92,0,0,1-1.57.42,13.07,13.07,0,0,0-.71-3.59,22.78,22.78,0,0,0-1.84-4,34.91,34.91,0,0,0-5.28-6.85l-.82-.83-.76.94a19,19,0,0,0-3.05,6.21,43.94,43.94,0,0,0-1.4,6.55c-.31,2.2-.5,4.4-.61,6.61-.07,1.58-.1,3.15-.09,4.74a28.51,28.51,0,0,1-8.75-4.28,27.7,27.7,0,0,1-7.58-8.6,39.22,39.22,0,0,1-4.19-10.88,49,49,0,0,1-1.27-11.65l.06-3.61-2.47,2.52a19.57,19.57,0,0,0-3.31,4.53,26.28,26.28,0,0,0-2.05,5.1,34.78,34.78,0,0,0-1.1,5.31c-.12.86-.2,1.72-.25,2.58a47.12,47.12,0,0,1-5.71-7,39,39,0,0,1-2.9-5.16,36.32,36.32,0,0,1-2.11-5.54,39.29,39.29,0,0,1-1.66-11.78,40.24,40.24,0,0,1,.49-6,33.12,33.12,0,0,1,1.37-5.87,36.56,36.56,0,0,0-2.68,11.74.28.28,0,0,0,0,.09,40.29,40.29,0,0,0,1,12.22,38.11,38.11,0,0,0,1.95,5.87,41.51,41.51,0,0,0,2.81,5.52,50,50,0,0,0,7.77,9.63l2,2V318a34,34,0,0,1,.4-5,33.34,33.34,0,0,1,1.11-4.89A22.64,22.64,0,0,1,282,302.7c0,.75.11,1.5.18,2.26a54,54,0,0,0,1,6.17,41.14,41.14,0,0,0,4.47,11.72,30,30,0,0,0,20,14.56l1.79.4L309.4,336c-.1-2.09-.1-4.26,0-6.4s.22-4.27.47-6.38A44.41,44.41,0,0,1,311,317a19.25,19.25,0,0,1,1.8-4.49c.64.66,1.27,1.35,1.86,2.05a29.81,29.81,0,0,1,2.42,3.28,15,15,0,0,1,2.68,7.39l0,.79.7-.06a9,9,0,0,0,5.12-2.27,13,13,0,0,0,3.17-4.39,24.45,24.45,0,0,0,1.92-9.36,36.43,36.43,0,0,1,3.73,4.83,25.56,25.56,0,0,1,2.92,6.28l.45,1.66.28,1.69c.05.28.11.56.14.84l0,.85.08,1.71.12,2.33,2-1a30,30,0,0,0,3.8-2.22,41.77,41.77,0,0,0,3.49-2.57,38.7,38.7,0,0,0,6.07-6.2,28.91,28.91,0,0,0,4.18-7.6,22.83,22.83,0,0,0,1.29-8.43l-.46,1.84-.05.21C358.67,304.49,358.61,304.83,358.51,305.16Z"/><path fill="#44241b"  d="M334.67,209.16c-2.9-9.63-30.7,1.33-28,8.71C310,227.07,337.57,218.79,334.67,209.16Z"/><path fill="#44241b"  d="M348.91,232.14a5.66,5.66,0,1,0-5.57-5.74A5.65,5.65,0,0,0,348.91,232.14Z"/><path fill="#44241b"  d="M311.74,231.56c-4.68-.07-8.54,3.94-8.62,9s3.66,9.15,8.34,9.22,8.55-3.94,8.63-9S316.43,231.64,311.74,231.56Z"/><path fill="#44241b"  d="M340.2,246.15a2.86,2.86,0,1,0,2.38,2.86A2.64,2.64,0,0,0,340.2,246.15Z"/>    </g></svg>