<!--  ~ Copyright (C) 2018 Baidu, Inc. All Rights Reserved.  --><svg viewBox="0 0 640 480" xmlns="http://www.w3.org/2000/svg">    <g id="back-ground-cl">        <rect fill="none" width="640" height="480" />        <ellipse opacity="0.1" cx="331.93" cy="418.82" rx="168.39" ry="32.01"/>    </g>    <g id="body">        <defs>            <clipPath id="outline">                <path fill="none"  d="M216.12,85.89a15.26,15.26,0,0,0,.54,2l1.19,0a15.65,15.65,0,0,1-1.48-1.66C216.28,86.14,216.21,86,216.12,85.89Z"/><path fill="none"  d="M222.89,87.76c1.06-.09,2.13-.21,3.18-.38a32.33,32.33,0,0,0,3.67-.78l-.61-.1a33.77,33.77,0,0,1-6.35-1.78,21.59,21.59,0,0,1-3.47-1.8l-.7-.28-.83-.39a10.69,10.69,0,0,0,1.16,2.09A13.64,13.64,0,0,0,222.89,87.76Z"/><path fill="none"  d="M222.56,111.78c.7-1,1.41-1.89,2.15-2.8.34-.42.68-.82,1-1.23-1.09-.65-2.16-1.34-3.2-2.09l-1,.08a35.21,35.21,0,0,1-3.56,0,16.59,16.59,0,0,0,3.23,4.64C221.61,110.88,222.08,111.34,222.56,111.78Z"/><path fill="none"  d="M222,102.85a40.17,40.17,0,0,0,6.69,4.89,55.47,55.47,0,0,0,15.52,6.2,65.1,65.1,0,0,0,16.69,1.74,84.46,84.46,0,0,0,16.61-2.17,120.31,120.31,0,0,0,16-4.72,68.22,68.22,0,0,0,14.75-7.55A47.28,47.28,0,0,0,320.1,89.8a35.3,35.3,0,0,0,6.44-15.23h0a.15.15,0,0,1,.17-.13.16.16,0,0,1,.13.15,27.44,27.44,0,0,1-1.62,8.4,33.33,33.33,0,0,1-1.49,3.68c18.28-2,36.6,2.8,52.61,11.59a119.83,119.83,0,0,1,11.59,7.28,48.86,48.86,0,0,0,10.15-8,28.51,28.51,0,0,0,6.76-11,19.73,19.73,0,0,0,.94-6.32,12.18,12.18,0,0,0-1.54-6,4.51,4.51,0,0,0-2-1.89,2.32,2.32,0,0,0-.59-.15c-.24,0-.48,0-.73,0a7,7,0,0,0-1.44.15,8.58,8.58,0,0,0-4.75,3.3A1,1,0,0,1,393,74.5a16.28,16.28,0,0,0,1.64-4.21,16.51,16.51,0,0,0,.39-4.49,18.38,18.38,0,0,0-.83-4.46c-.13-.41-.28-.82-.44-1.23a13.32,13.32,0,0,1-1,1.74,18.37,18.37,0,0,1-1.62,2.08,22.29,22.29,0,0,1-1.89,1.87,1.32,1.32,0,0,1-2.17-1.19v-.06a27.73,27.73,0,0,0,.22-7.81,13.29,13.29,0,0,0-2.74-6.8,8.1,8.1,0,0,0-2.69-2.11,5.65,5.65,0,0,0-1.53-.45,3,3,0,0,0-1.29.09c-.13.05-.14.08-.15.09a.51.51,0,0,0-.06.22,3.79,3.79,0,0,0,.23,1.37,14.53,14.53,0,0,0,1.66,3.26,1.56,1.56,0,0,1-2.42,2h0a44.41,44.41,0,0,0-4.26-3.73c-1.52-1.18-3.1-2.27-4.72-3.32a71.47,71.47,0,0,0-10.17-5.46,77.49,77.49,0,0,0-22.29-6,86.93,86.93,0,0,0-23.17.69,84.79,84.79,0,0,0-22.22,6.68,93.82,93.82,0,0,0-16,9.45l-.86-.3a.15.15,0,0,1-.06.09c-4.79,3-9.34,6.23-13.83,9.62S251.88,69,247.37,72.36a85.31,85.31,0,0,1-7.06,4.85,16.76,16.76,0,0,1-2,1,15.13,15.13,0,0,1-2.21.67,26.26,26.26,0,0,1-4.4.66,30.51,30.51,0,0,1-8.79-.74,36.52,36.52,0,0,1-4.22-1.26l-.6-.23a8,8,0,0,0,1.13,1.43,15,15,0,0,0,4.79,3,31.28,31.28,0,0,0,5.74,1.74,41.34,41.34,0,0,0,6,.81h.07a1.44,1.44,0,0,1,.59,2.71,28.58,28.58,0,0,1-9.94,3,45.63,45.63,0,0,1-5.09.34c-1,0-2,0-3-.08a11.19,11.19,0,0,0,1,1.24,23.81,23.81,0,0,0,2.93,2.52,42.28,42.28,0,0,0,6.8,4,62.56,62.56,0,0,0,15.15,5,76,76,0,0,0,15.93,1.42,101.89,101.89,0,0,0,15.89-1.62c5.25-1,10.44-2.16,15.53-3.61,1.28-.37,2.52-.8,3.79-1.17s2.5-.87,3.74-1.33,2.47-1,3.65-1.52l1.81-.81,1.77-.88a47.88,47.88,0,0,0,12.71-9.17,32.65,32.65,0,0,0,4.75-6.27,22.21,22.21,0,0,0,2.74-7.39v0a.14.14,0,0,1,.17-.12.15.15,0,0,1,.13.15,20.66,20.66,0,0,1-2.07,7.88,30.17,30.17,0,0,1-2,3.61,36.19,36.19,0,0,1-2.47,3.29,45.11,45.11,0,0,1-12.84,10.19c-9.64,5.27-20.39,8-31.11,9.28a101.19,101.19,0,0,1-16.22.7,104.79,104.79,0,0,1-16.1-1.69,78.83,78.83,0,0,1-15.57-4.54c-1.06-.45-2.11-.94-3.14-1.46-1.31.16-2.61.27-3.92.3-1.12,0-2.23,0-3.34-.08a11.42,11.42,0,0,0,1.11,1.72A22.73,22.73,0,0,0,222,102.85,372.42,63a15.64,15.64,0,0,1,1.7,7.26,17,17,0,0,1-.14,1.88c0,.31-.06.62-.11.93l-.23.91a18.29,18.29,0,0,1-.51,1.79c-.24.57-.48,1.14-.74,1.7a8.94,8.94,0,0,1-.89,1.6l-1,1.51A25.66,25.66,0,0,1,368,83.23c.33-1.18.8-2.24,1.18-3.32l.52-1.63c.08-.27.17-.53.27-.8s.12-.54.19-.81c.13-.54.26-1.07.41-1.6s.17-1.08.26-1.61l.14-.79c0-.27,0-.54.05-.81,0-.53.11-1.06.08-1.6a21.7,21.7,0,0,0-.88-6.36,29.85,29.85,0,0,0-2.63-6.29A13.44,13.44,0,0,1,372.42,63,-9.88,1.13a13.22,13.22,0,0,1,.79,2.55,15.84,15.84,0,0,1,.23,2.66,14.72,14.72,0,0,1-.94,5.19,11.39,11.39,0,0,1-2.82,4.38c.19-1.75.39-3.35.53-4.93s.23-3.12.23-4.64c0-.77,0-1.52-.06-2.29s-.09-1.53-.23-2.3c-.14-1.57-.55-3.09-.82-4.85A10.45,10.45,0,0,1,362.54,64.16,-42.89-14.6A25.35,25.35,0,0,0,312.1,52a20.31,20.31,0,0,1,7.18-3.86,30.33,30.33,0,0,1,8.16-1.45,25.33,25.33,0,0,1,16,4.75,23.27,23.27,0,0,1,8.93,14.07,31.36,31.36,0,0,1-.9,16.25,42,42,0,0,0-1.36-15.66c-.21-.61-.37-1.23-.62-1.82l-.73-1.77c-.26-.58-.6-1.11-.89-1.68-.15-.27-.29-.56-.46-.82l-.55-.77a18.47,18.47,0,0,0-1.11-1.52l-1.24-1.41A13.85,13.85,0,0,0,343.09,55a13.7,13.7,0,0,0-1.46-1.18,22.47,22.47,0,0,0-6.69-3.44A26.74,26.74,0,0,0,327.42,49,35.1,35.1,0,0,0,319.65,49.56Z"/><path fill="none"  d="M467.1,243.37c-8.65-24.15-19.37-47.49-30.8-70.44-2.92-5.86-5.91-11.69-9.11-17.41-.54-1-1.09-1.91-1.64-2.87-1.58-2.73-3.21-5.42-4.94-8.06-1.85-2.8-3.31-5.82-5.1-8.65-.08-.12-.22-.46-.35-.53,11.34,6.05,32.06,15.69,38.9,12.53a3.13,3.13,0,0,0,1.89-2.45c1.5-7.78-4.74-23.31-13.9-34.62-7.45-9.21-15.6-14.36-22.94-14.5h-.21c-11.52,0-24.29,17.74-24.43,17.93l-2.52-2c-11.76-9.45-25.23-16.87-39.87-20.61A78.28,78.28,0,0,0,321.93,90c-.15.25-.28.5-.44.74a45.39,45.39,0,0,1-11.86,12.46,64.14,64.14,0,0,1-15.19,8.1A88.77,88.77,0,0,1,244,114.84a67.87,67.87,0,0,1-15.55-5.6c-.45.53-.91,1.07-1.36,1.63-9.16,11.31-15.39,26.84-13.9,34.62a3.13,3.13,0,0,0,1.89,2.45c7.83,3.6,32.16-8.7,41.5-14.05a69.57,69.57,0,0,1-4.85,9c-1.68,2.41-3.53,4.74-5.11,7.23a377.39,377.39,0,0,0-52.43,133.52c-1.64,9-3,18.11-3.91,27.25-2.95,30.42-1.69,70.59,28.43,87.67,2.13,1.21,13,3.79,8.38,7.39-2.4,1.85-14.48,3-13.86,6.68.7,4.07,12.39,4.42,15.15,4.64a154.22,154.22,0,0,0,17.6.24c.5,0,1.38,0,2.32,0,0-.78,0-1.58,0-2.37,0-1.15-.07-2.29,0-3.44s.23-2.33.3-3.51.1-2.56.13-3.84c.06-2.74.12-5.48.14-8.23a158.51,158.51,0,0,0-1.23-23.57,56.88,56.88,0,0,0-2.72-11.44,23.74,23.74,0,0,0-6.26-9.85,23,23,0,0,1,6.91,9.6,57.37,57.37,0,0,1,3.33,11.48,105.25,105.25,0,0,1,1.55,11.85q.47,6,.56,11.92c0,1.25,0,2.49.05,3.73s0,2.76,0,4.14,0,1.6,0,3c0-.25,0,.57,0,.32,0,1.62-.21,3.24-.16,4.86l.1,3a19.5,19.5,0,0,1-.56,6.37,5.83,5.83,0,0,1-1,1.73,7.9,7.9,0,0,1-1.34,1.26,14.62,14.62,0,0,1-2.86,1.59,24.75,24.75,0,0,0-5,2.44,2.23,2.23,0,0,0-.94,1.53,3.1,3.1,0,0,0,.06,1,3.21,3.21,0,0,0,.38,1,5.71,5.71,0,0,0,1.44,1.61,5.41,5.41,0,0,1,.22-3.15,6.52,6.52,0,0,1,2.78-3.36,8.58,8.58,0,0,1,2-.78,12.49,12.49,0,0,1,1.87-.39,13.3,13.3,0,0,1,3.89,0,13.63,13.63,0,0,1-3.14,2.28c-1.12.61-2.21,1.06-3.05,1.5a9.22,9.22,0,0,0-2.26,1.93,12.58,12.58,0,0,0-1.91,3l.44-.37a13.16,13.16,0,0,0,1.61.88A20.5,20.5,0,0,0,249,436.6c1,.14,2,.24,3,.31a2.91,2.91,0,0,1-.42-.89,3.55,3.55,0,0,1,.16-2.18,7,7,0,0,1,2.47-3,10.09,10.09,0,0,1,3.23-1.61,7.41,7.41,0,0,1,3.66-.16,28.12,28.12,0,0,1-2.61,2.27c-.84.66-1.66,1.29-2.49,1.9a23.29,23.29,0,0,0-2.22,1.76,3.1,3.1,0,0,0-.73,1,2.51,2.51,0,0,0-.21,1.56l.59-.61a48.51,48.51,0,0,0,7-.25,43.15,43.15,0,0,0,5.65-1,14.5,14.5,0,0,0,4.9-2.22A22.32,22.32,0,0,0,278,425a24.89,24.89,0,0,0,1.19-2.5,18.81,18.81,0,0,0,.69-5.18c.11-1.75.2-3.52.4-5.25a76.92,76.92,0,0,1,1.76-9.77A50.17,50.17,0,0,1,286.3,391a84.17,84.17,0,0,1,6.22-10.16,115,115,0,0,0-5.31,10.59,57.66,57.66,0,0,0-3.42,11.2c-.47,2.52-.8,5.06-1,7.62-.1,1.12-.18,2.25-.25,3.38a312.8,312.8,0,0,0,33.86,5.59c21.48,2.29,43.63,2.35,64.74-2.68a86.22,86.22,0,0,0,8.66-2.58c0-.15-.06-.3-.08-.45-.62-3.71-.81-7.39-1.24-11-.2-1.8-.51-3.61-.79-5.43s-.56-3.63-.93-5.4a30.84,30.84,0,0,0-1.72-5.18q-1-2.59-1.83-5.21,1.08,2.54,2.25,5a31.76,31.76,0,0,1,2.07,5.16c.5,1.8.88,3.6,1.28,5.39s.8,3.59,1.12,5.43c.62,3.66,1,7.33,1.72,10.85a31,31,0,0,0,1.51,5.11,26.64,26.64,0,0,0,2.43,4.68,20.21,20.21,0,0,0,7.48,7,13.33,13.33,0,0,0,2.34.91c.8.25,1.71.44,2.57.62a44.53,44.53,0,0,0,5.29.71,51.54,51.54,0,0,0,5.7.11l.55.57a2.57,2.57,0,0,0-.21-1.56,3.42,3.42,0,0,0-.73-1,23.91,23.91,0,0,0-2.23-1.75c-.82-.61-1.64-1.24-2.48-1.9a27.06,27.06,0,0,1-2.61-2.28,7.49,7.49,0,0,1,3.65.16,10.06,10.06,0,0,1,3.24,1.62,7.05,7.05,0,0,1,2.47,3,3.59,3.59,0,0,1,.16,2.17,2.79,2.79,0,0,1-.44.92c1.2-.08,2.38-.2,3.53-.39a20.41,20.41,0,0,0,4.87-1.58,15.2,15.2,0,0,0,1.48-.83l.45.38a12.87,12.87,0,0,0-1.91-3,9.24,9.24,0,0,0-2.27-1.92c-.84-.44-1.92-.89-3-1.5a13.19,13.19,0,0,1-3.14-2.29,13.57,13.57,0,0,1,3.88.05,12.35,12.35,0,0,1,1.88.39,8.08,8.08,0,0,1,2,.78,6.54,6.54,0,0,1,2.79,3.36,5.56,5.56,0,0,1,.23,3.12,5.88,5.88,0,0,0,1.29-1.42,3.83,3.83,0,0,0,.58-1.85,2.25,2.25,0,0,0-.12-.84,1.91,1.91,0,0,0-.4-.72c-.79-.94-2.47-1.64-4.13-2.28a21.12,21.12,0,0,1-5.32-2.59,7.85,7.85,0,0,1-1.24-1.21,4.82,4.82,0,0,1-.87-1.72,9.16,9.16,0,0,1-.28-1.57c-.06-.51-.08-1-.1-1.48a111.51,111.51,0,0,1,.44-11.18c.29-3.68.68-7.35,1.13-11,.89-7.32,2-14.61,3.49-21.84.76-3.61,1.59-7.21,2.61-10.76a54.87,54.87,0,0,1,1.74-5.26,23,23,0,0,1,1.16-2.52,7.34,7.34,0,0,1,1.66-2.2,7.31,7.31,0,0,0-1.46,2.3,23.21,23.21,0,0,0-.94,2.57c-.55,1.74-1,3.52-1.4,5.31-.79,3.57-1.4,7.19-1.93,10.81-1.1,7.25-1.92,14.54-2.61,21.84q-.48,5.48-.83,10.95c-.19,3.41-.36,6.86-.24,10.19,5.42.86,11.33.44,16.68.28a155.32,155.32,0,0,0,19.15-1.45c2.36-.37,3.95,0,2.58-2.3-1.61-2.7-4-4-6.92-5-2.42-.82-9.31-1-10.72-3.45-.77-1.34.08-2,1-2.94,1.35-1.35,4-2.2,5.6-3.24q3-1.89,5.8-4.05A69.64,69.64,0,0,0,475.19,368c8.95-16.71,10.93-36.3,9.16-54.94C482.11,289.32,475.1,265.72,467.1,243.37Z"/><path fill="none"  d="M145.9,307.05c-14.61-18.27-22.84-35.2-28.29-46.41-2.72-5.61-6.1-12.56-7.49-12.56h0c-.73,1-.76,6.95,4.23,23,3.6,11.62,8.57,24.37,12.09,31a1.5,1.5,0,0,1-2.55,1.58c-3.88-5.38-10.33-13-13.66-14.58.77,5.54,13.45,29.08,27.18,39.38a1.5,1.5,0,0,1-1.77,2.42c-3.38-2.41-11.15-6.62-13.54-4.23-.31.86,2.08,5.18,11.54,12.95,7.82,6.42,16.84,12.21,23,14.74a1.5,1.5,0,0,1-.87,2.86c-5.44-1.08-10.83-.89-11.25.39.12.59,1.47,2.51,5.06,5.11,3.28,2.38,19.48,13,43.76,10.8-4.67-10.69-6.81-22.41-7.38-34.42C175.17,333,157.54,321.6,145.9,307.05Z"/><path d="M334.94,50.41a22.47,22.47,0,0,1,6.69,3.44A13.7,13.7,0,0,1,343.09,55a13.85,13.85,0,0,1,1.38,1.27l1.24,1.41a18.47,18.47,0,0,1,1.11,1.52l.55.77c.17.26.31.55.46.82.29.57.63,1.1.89,1.68l.73,1.77c.25.59.41,1.21.62,1.82a42,42,0,0,1,1.36,15.66,31.36,31.36,0,0,0,.9-16.25,23.27,23.27,0,0,0-8.93-14.07,25.33,25.33,0,0,0-16-4.75,30.33,30.33,0,0,0-8.16,1.45A20.31,20.31,0,0,0,312.1,52a25.35,25.35,0,0,1,7.55-2.43,35.1,35.1,0,0,1,7.77-.54A26.74,26.74,0,0,1,334.94,50.41Z"/><path d="M360.5,67.08c0,.77.09,1.52.06,2.29,0,1.52-.08,3.06-.23,4.64s-.34,3.18-.53,4.93a11.39,11.39,0,0,0,2.82-4.38,14.72,14.72,0,0,0,.94-5.19,15.84,15.84,0,0,0-.23-2.66,13.22,13.22,0,0,0-.79-2.55,10.45,10.45,0,0,0-3.09-4.23c.27,1.76.68,3.28.82,4.85C360.41,65.55,360.41,66.33,360.5,67.08Z"/><path d="M371.12,70.26c0,.54-.06,1.07-.08,1.6,0,.27,0,.54-.05.81l-.14.79c-.09.53-.15,1.08-.26,1.61s-.28,1.06-.41,1.6c-.07.27-.1.55-.19.81s-.19.53-.27.8l-.52,1.63c-.38,1.08-.85,2.14-1.18,3.32a25.66,25.66,0,0,0,2.48-2.62l1-1.51a8.94,8.94,0,0,0,.89-1.6c.26-.56.5-1.13.74-1.7a18.29,18.29,0,0,0,.51-1.79l.23-.91c.05-.31.07-.62.11-.93a17,17,0,0,0,.14-1.88,15.64,15.64,0,0,0-1.7-7.26,13.44,13.44,0,0,0-4.81-5.42,29.85,29.85,0,0,1,2.63,6.29A21.7,21.7,0,0,1,371.12,70.26Z"/><path d="M480.31,275.87c-6.48-25.07-15.82-49.32-26.42-72.92-5.39-12-11.13-23.86-17-35.62a264.23,264.23,0,0,0-13.36-24.4c1.45.68,3,1.37,4.5,2,9.91,4.35,17.51,6.54,22.69,6.54a11.17,11.17,0,0,0,4.63-.85,6.15,6.15,0,0,0,3.59-4.61c1.67-8.68-4.71-25-14.52-37.08-8-9.91-17-15.45-25.21-15.61h-.26c-9.77,0-20.19,10.83-25.06,16.63-1.84-1.47-3.72-2.9-5.63-4.26a47.5,47.5,0,0,0,10.46-7.6,29.61,29.61,0,0,0,7.4-11.21,20.53,20.53,0,0,0,1.2-6.74,13.82,13.82,0,0,0-1.6-6.81A6.15,6.15,0,0,0,403,70.73a4.09,4.09,0,0,0-1-.29c-.31,0-.61-.07-.93-.09a8.29,8.29,0,0,0-1.86.14,8.83,8.83,0,0,0-2.52.91c.06-.19.13-.39.18-.59a17.62,17.62,0,0,0,.56-5.11,21.08,21.08,0,0,0-.84-5.06,20.21,20.21,0,0,0-2.07-4.75,1.2,1.2,0,0,0-1-.59,1.22,1.22,0,0,0-1.24,1.21v.06a7.26,7.26,0,0,1-1.51,3.83c-.13.2-.29.4-.44.59a25.29,25.29,0,0,0-.09-4.6,16.17,16.17,0,0,0-3.24-8.33,10.53,10.53,0,0,0-3.72-3,8.27,8.27,0,0,0-2.4-.73,6.51,6.51,0,0,0-1.33,0,4.58,4.58,0,0,0-1.45.3,3.33,3.33,0,0,0-1.5,1.09,3.53,3.53,0,0,0-.65,1.69,5.52,5.52,0,0,0,0,.57c-1.52-1.19-3.09-2.32-4.71-3.36a74,74,0,0,0-10.64-5.71,77.45,77.45,0,0,0-23.25-6,88.86,88.86,0,0,0-23.94.95A83.29,83.29,0,0,0,290.48,41a91.2,91.2,0,0,0-10.42,5.9c-3.31,2.17-6.46,4.78-9.7,7.13S263.45,58.7,260,61c-4.67,3.15-9.26,6.44-13.89,9.6-2.32,1.56-4.63,3.16-7,4.47a14.54,14.54,0,0,1-1.75.83,12.66,12.66,0,0,1-1.84.46,25.16,25.16,0,0,1-4,.46,29.26,29.26,0,0,1-7.95-.92,34.26,34.26,0,0,1-3.84-1.22A27.31,27.31,0,0,1,216.18,73a1.66,1.66,0,0,0-.91-.21,1.61,1.61,0,0,0-1.49,1.73,9.76,9.76,0,0,0,.81,3.16,1.56,1.56,0,0,0-.8,1.52,14,14,0,0,0,.77,3.7c.11.31.24.62.38.92a.42.42,0,0,0-.06.25,17.9,17.9,0,0,0,.75,4,1.11,1.11,0,0,0-.38,1.19,6.19,6.19,0,0,0,1.14,2.15,15.23,15.23,0,0,0,1.49,1.6A21.66,21.66,0,0,0,220,94.75c.39.35.8.69,1.21,1a33.88,33.88,0,0,1-4.73,0h-.09a1.11,1.11,0,0,0-1.17,1.38,10.18,10.18,0,0,0,2.32,4.11,22.32,22.32,0,0,0,2.49,2.47,29.54,29.54,0,0,1-3.55-.23,1,1,0,0,0-.35,0,1.13,1.13,0,0,0-.89,1.3,12.42,12.42,0,0,0,1.62,4,21.41,21.41,0,0,0,2.48,3.32c.56.62,1.15,1.2,1.75,1.77-7.71,11.32-12.37,24.67-10.91,32.23a6.16,6.16,0,0,0,3.58,4.61,11,11,0,0,0,4.63.85c5.18,0,12.78-2.19,22.7-6.54,2.51-1.1,4.94-2.25,7.17-3.34a351.63,351.63,0,0,0-21,36,379.37,379.37,0,0,0-27.51,69.12q-5.15,17.82-8.5,36.07c-3,16.36-5.85,34.82-5.45,52.82-10.61-6.19-26.76-16.95-37.55-30.45-14.41-18-22.55-34.76-27.94-45.84-4.91-10.12-7.37-15.19-11.12-14.13a3,3,0,0,0-1.91,1.82c-2.47,5.79,5.19,29.93,11.64,45.82-3.12-3.41-6.57-6.53-9.07-6.94a2.11,2.11,0,0,0-2.42,1.29c-1.79,4.17,8.51,23.55,20.26,36.41-2.91-.84-5.83-.91-7.74,1a3.18,3.18,0,0,0-.79,3c1.16,5.82,16.67,18.71,29.11,25.91-3.23.12-6.22,1-6.74,3.58-.27,1.37.6,3,2.66,5.07,4.77,4.73,20.25,14.68,42.52,14.68a75.13,75.13,0,0,0,7.94-.42,72.87,72.87,0,0,0,3.55,6.41,53,53,0,0,0,21.65,19.67c.46.23,2,1.13,3.25,1.71-.13.05-.23.1-.31.12-1.79.63-3.6,1.17-5.38,1.82-3.43,1.25-9.09,3.22-6.81,8,1.87,3.92,8,4.81,11.7,5.39a118.06,118.06,0,0,0,20,1c1.45,0,3.45.1,5.46.05-.43,1.17-1.94,2-3.62,2.77a25.27,25.27,0,0,0-5.64,2.81,6,6,0,0,0-1.32,1.45,5.1,5.1,0,0,0-.7,2,6.35,6.35,0,0,0,.1,2,6.56,6.56,0,0,0,.68,1.79,11.21,11.21,0,0,0,5.18,4.33,22.83,22.83,0,0,0,6.06,1.85,48.77,48.77,0,0,0,12.25.07,44.71,44.71,0,0,0,6-1.12,17.23,17.23,0,0,0,5.82-2.68,24.88,24.88,0,0,0,7.82-9.69A20.45,20.45,0,0,0,282,422a25.34,25.34,0,0,0,.32-4.77l0-.51c22.41,4.87,45.49,7.76,68.45,6.85a160.1,160.1,0,0,0,32.55-4.43c2.4-.6,4.77-1.26,7.12-2a28.84,28.84,0,0,0,3.1,7.11,21.91,21.91,0,0,0,8.26,8.09,15.66,15.66,0,0,0,2.77,1.14c.95.31,1.84.51,2.78.72A48.1,48.1,0,0,0,413,435a45.77,45.77,0,0,0,11.38-.31,23.06,23.06,0,0,0,5.61-1.79,13.82,13.82,0,0,0,2.62-1.56,8.9,8.9,0,0,0,2.25-2.39,6.87,6.87,0,0,0,1-3.36,5.19,5.19,0,0,0-1.23-3.53,8.33,8.33,0,0,0-2.68-2,24.86,24.86,0,0,0-2.68-1.13,19.6,19.6,0,0,1-4.59-2.15,4.54,4.54,0,0,1-.74-.7,1.83,1.83,0,0,1-.37-.72l0-.12.83.08a142.39,142.39,0,0,0,20.86,0c5.57-.29,11.91-.22,17.3-1.84,3.77-1.13,2.9-4.86.85-7.65-3.27-4.43-9.45-5.46-14.45-6.64l-.43-.13c.93-.57,1.95-1.32,2.33-1.55a77.06,77.06,0,0,0,11.86-8.78c14-12.68,21.83-30.36,24.29-48.89C489.83,318.38,485.69,296.69,480.31,275.87,-263.65-188a15.26,15.26,0,0,1-.54-2c.09.12.16.25.25.36a15.65,15.65,0,0,0,1.48,1.66,1.12-5.62.83.39.7.28a21.59,21.59,0,0,0,3.47,1.8,33.77,33.77,0,0,0,6.35,1.78l.61.1a32.33,32.33,0,0,1-3.67.78c-1,.17-2.12.29-3.18.38a13.64,13.64,0,0,1-3.95-3.42A10.69,10.69,0,0,1,217.78,82.25,1.41,17.62a11.42,11.42,0,0,1-1.11-1.72c1.11.08,2.22.1,3.34.08,1.31,0,2.61-.14,3.92-.3,1,.52,2.08,1,3.14,1.46a78.83,78.83,0,0,0,15.57,4.54,104.79,104.79,0,0,0,16.1,1.69,101.19,101.19,0,0,0,16.22-.7c10.72-1.28,21.47-4,31.11-9.28a45.11,45.11,0,0,0,12.84-10.19,36.19,36.19,0,0,0,2.47-3.29,30.17,30.17,0,0,0,2-3.61,20.66,20.66,0,0,0,2.07-7.88.15.15,0,0,0-.13-.15.14.14,0,0,0-.17.14,22.21,22.21,0,0,1-2.74,7.39,32.65,32.65,0,0,1-4.75,6.27,47.88,47.88,0,0,1-12.71,9.17l-1.77.88-1.81.81c-1.18.57-2.43,1-3.65,1.52s-2.48.9-3.74,1.33-2.51.8-3.79,1.17c-5.09,1.45-10.28,2.63-15.53,3.61a101.89,101.89,0,0,1-15.89,1.62A76,76,0,0,1,244.23,103a62.56,62.56,0,0,1-15.15-5,42.28,42.28,0,0,1-6.8-4,23.81,23.81,0,0,1-2.93-2.52,11.19,11.19,0,0,1-1-1.24c1,.06,2,.08,3,.08a45.63,45.63,0,0,0,5.09-.34,28.58,28.58,0,0,0,9.94-3,1.44,1.44,0,0,0-.59-2.71h-.07a41.34,41.34,0,0,1-6-.81A31.28,31.28,0,0,1,224,81.78a15,15,0,0,1-4.79-3,8,8,0,0,1-1.13-1.43l.6.23a36.52,36.52,0,0,0,4.22,1.26,30.51,30.51,0,0,0,8.79.74,26.26,26.26,0,0,0,4.4-.66,15.13,15.13,0,0,0,2.21-.67,16.76,16.76,0,0,0,2-1,85.31,85.31,0,0,0,7.06-4.85c4.2-3.16,8.35-6.38,12.55-9.54a148,148,0,0,1,12.77-8.41l2.67-1.62c1.68-1,3.23-2.22,4.88-3.29a88.47,88.47,0,0,1,11.28-6.23,84.79,84.79,0,0,1,22.22-6.68,86.93,86.93,0,0,1,23.17-.69,77.49,77.49,0,0,1,22.29,6,71.47,71.47,0,0,1,10.17,5.46c1.62,1,3.2,2.14,4.72,3.32a44.45,44.45,0,0,1,4.27,3.74,1.56,1.56,0,0,0,2.42-2,14.53,14.53,0,0,1-1.66-3.26,3.79,3.79,0,0,1-.23-1.37.51.51,0,0,1,.06-.22s0,0,.15-.09a3,3,0,0,1,1.29-.09,5.65,5.65,0,0,1,1.53.45,8.1,8.1,0,0,1,2.69,2.11,13.29,13.29,0,0,1,2.74,6.8,27.73,27.73,0,0,1-.22,7.81v.06a1.32,1.32,0,0,0,2.17,1.19,22.29,22.29,0,0,0,1.89-1.87,18.37,18.37,0,0,0,1.62-2.08,13.32,13.32,0,0,0,1-1.74c.16.41.31.82.44,1.23a18.38,18.38,0,0,1,.83,4.46,16.51,16.51,0,0,1-.39,4.49A16.28,16.28,0,0,1,393,74.5a1,1,0,0,0,1.73,1.1,8.58,8.58,0,0,1,4.75-3.3,7,7,0,0,1,1.44-.15c.25,0,.49,0,.73,0a2.32,2.32,0,0,1,.59.15,4.51,4.51,0,0,1,2,1.89,12.18,12.18,0,0,1,1.54,6,19.73,19.73,0,0,1-.94,6.32,28.51,28.51,0,0,1-6.76,11,48.86,48.86,0,0,1-10.15,8,119.83,119.83,0,0,0-11.59-7.28c-16-8.79-34.33-13.58-52.61-11.59A33.33,33.33,0,0,0,325.22,83a27.44,27.44,0,0,0,1.62-8.4.16.16,0,0,0-.13-.15.15.15,0,0,0-.17.14A35.3,35.3,0,0,1,320.1,89.8a47.28,47.28,0,0,1-11.87,11.44,68.22,68.22,0,0,1-14.75,7.55,120.31,120.31,0,0,1-16,4.72,84.46,84.46,0,0,1-16.61,2.17,65.1,65.1,0,0,1-16.69-1.74,55.47,55.47,0,0,1-15.52-6.2,40.17,40.17,0,0,1-6.69-4.89A22.73,22.73,0,0,1,219.19,99.87,-1.25,5.89a35.21,35.21,0,0,0,3.56,0l1-.08c1,.75,2.11,1.44,3.2,2.09-.35.41-.69.81-1,1.23-.74.91-1.45,1.85-2.15,2.8-.48-.44-.95-.9-1.39-1.38A16.59,16.59,0,0,1,217.94,105.76,-68.39,257c-3.59-2.6-4.94-4.52-5.06-5.11.42-1.28,5.81-1.47,11.25-.39a1.5,1.5,0,0,0,.87-2.86c-6.16-2.53-15.18-8.32-23-14.74-9.46-7.77-11.85-12.09-11.54-12.95,2.39-2.39,10.16,1.82,13.54,4.23a1.5,1.5,0,0,0,1.77-2.42c-13.73-10.3-26.41-33.84-27.18-39.38,3.33,1.63,9.78,9.2,13.66,14.58a1.5,1.5,0,0,0,2.55-1.58c-3.52-6.65-8.49-19.4-12.09-31-5-16.1-5-22.07-4.23-23h0c1.39,0,4.77,6.95,7.49,12.56,5.45,11.21,13.68,28.14,28.29,46.41,11.64,14.55,29.27,26,40,32.1.57,12,2.71,23.73,7.38,34.42C169,375.75,152.83,365.15,149.55,362.77,475.19,368a69.64,69.64,0,0,1-18.8,22.19q-2.81,2.16-5.8,4.05c-1.64,1-4.25,1.89-5.6,3.24-.89.89-1.74,1.6-1,2.94,1.41,2.49,8.3,2.63,10.72,3.45,2.94,1,5.31,2.32,6.92,5,1.37,2.3-.22,1.93-2.58,2.3a155.32,155.32,0,0,1-19.15,1.45c-5.35.16-11.26.58-16.68-.28-.12-3.33.05-6.78.24-10.19q.35-5.47.83-10.95c.69-7.3,1.51-14.59,2.61-21.84.53-3.62,1.14-7.24,1.93-10.81.39-1.79.85-3.57,1.4-5.31a23.21,23.21,0,0,1,.94-2.57,7.31,7.31,0,0,1,1.46-2.3,7.34,7.34,0,0,0-1.66,2.2,23,23,0,0,0-1.16,2.52,54.87,54.87,0,0,0-1.74,5.26c-1,3.55-1.85,7.15-2.61,10.76-1.46,7.23-2.6,14.52-3.49,21.84-.45,3.66-.84,7.33-1.13,11a111.51,111.51,0,0,0-.44,11.18c0,.48,0,1,.1,1.48a9.16,9.16,0,0,0,.28,1.57,4.82,4.82,0,0,0,.87,1.72,7.85,7.85,0,0,0,1.24,1.21,21.12,21.12,0,0,0,5.32,2.59c1.66.64,3.34,1.34,4.13,2.28a1.91,1.91,0,0,1,.4.72,2.25,2.25,0,0,1,.12.84,3.83,3.83,0,0,1-.58,1.85,5.88,5.88,0,0,1-1.29,1.42,5.56,5.56,0,0,0-.23-3.12,6.54,6.54,0,0,0-2.79-3.36,8.08,8.08,0,0,0-2-.78,12.35,12.35,0,0,0-1.88-.39,13.57,13.57,0,0,0-3.88-.05,13.19,13.19,0,0,0,3.14,2.29c1.12.61,2.2,1.06,3,1.5a9.24,9.24,0,0,1,2.27,1.92,12.87,12.87,0,0,1,1.91,3l-.45-.38a15.2,15.2,0,0,1-1.48.83,20.41,20.41,0,0,1-4.87,1.58c-1.15.19-2.33.31-3.53.39a2.79,2.79,0,0,0,.44-.92,3.59,3.59,0,0,0-.16-2.17,7.05,7.05,0,0,0-2.47-3,10.06,10.06,0,0,0-3.24-1.62,7.49,7.49,0,0,0-3.65-.16,27.06,27.06,0,0,0,2.61,2.28c.84.66,1.66,1.29,2.48,1.9a23.91,23.91,0,0,1,2.23,1.75,3.42,3.42,0,0,1,.73,1,2.57,2.57,0,0,1,.21,1.56l-.55-.57a51.54,51.54,0,0,1-5.7-.11,44.53,44.53,0,0,1-5.29-.71c-.86-.18-1.77-.37-2.57-.62A13.33,13.33,0,0,1,403,430a20.21,20.21,0,0,1-7.48-7,26.64,26.64,0,0,1-2.43-4.68,31,31,0,0,1-1.51-5.11c-.76-3.52-1.1-7.19-1.72-10.85-.32-1.84-.74-3.63-1.12-5.43s-.78-3.59-1.28-5.39a31.76,31.76,0,0,0-2.07-5.16q-1.17-2.49-2.25-5,.87,2.61,1.83,5.21a30.84,30.84,0,0,1,1.72,5.18c.37,1.77.65,3.59.93,5.4s.59,3.63.79,5.43c.43,3.62.62,7.3,1.24,11,0,.15.06.3.08.45a86.22,86.22,0,0,1-8.66,2.58c-21.11,5-43.26,5-64.74,2.68a312.8,312.8,0,0,1-33.86-5.59c.07-1.13.15-2.26.25-3.38.23-2.56.56-5.1,1-7.62a57.66,57.66,0,0,1,3.42-11.2,115,115,0,0,1,5.31-10.59A84.17,84.17,0,0,0,286.3,391,50.17,50.17,0,0,0,282,402.27a76.92,76.92,0,0,0-1.76,9.77c-.2,1.73-.29,3.5-.4,5.25a18.81,18.81,0,0,1-.69,5.18A24.89,24.89,0,0,1,278,425a22.32,22.32,0,0,1-7.06,8.51,14.5,14.5,0,0,1-4.9,2.22,43.15,43.15,0,0,1-5.65,1,48.51,48.51,0,0,1-7,.25l-.59.61A2.51,2.51,0,0,1,253,436a3.1,3.1,0,0,1,.73-1,23.29,23.29,0,0,1,2.22-1.76c.83-.61,1.65-1.24,2.49-1.9a28.12,28.12,0,0,0,2.61-2.27,7.41,7.41,0,0,0-3.66.16,10.09,10.09,0,0,0-3.23,1.61,7,7,0,0,0-2.47,3,3.55,3.55,0,0,0-.16,2.18,2.91,2.91,0,0,0,.42.89c-1-.07-2-.17-3-.31a20.5,20.5,0,0,1-5.28-1.58,13.16,13.16,0,0,1-1.61-.88l-.44.37a12.58,12.58,0,0,1,1.91-3,9.22,9.22,0,0,1,2.26-1.93c.84-.44,1.93-.89,3.05-1.5a13.63,13.63,0,0,0,3.14-2.28,13.3,13.3,0,0,0-3.89,0,12.49,12.49,0,0,0-1.87.39,8.58,8.58,0,0,0-2,.78,6.52,6.52,0,0,0-2.78,3.36,5.41,5.41,0,0,0-.22,3.15,5.71,5.71,0,0,1-1.44-1.61,3.21,3.21,0,0,1-.38-1,3.1,3.1,0,0,1-.06-1,2.23,2.23,0,0,1,.94-1.53,24.75,24.75,0,0,1,5-2.44,14.62,14.62,0,0,0,2.86-1.59,7.9,7.9,0,0,0,1.34-1.26,5.83,5.83,0,0,0,1-1.73,19.5,19.5,0,0,0,.56-6.37l-.1-3c0-1.62.16-3.24.16-4.86,0,.25,0-.57,0-.32,0-1.36,0-1.61,0-3s0-2.76,0-4.14,0-2.48-.05-3.73q-.09-6-.56-11.92a105.25,105.25,0,0,0-1.55-11.85,57.37,57.37,0,0,0-3.33-11.48,23,23,0,0,0-6.91-9.6,23.74,23.74,0,0,1,6.26,9.85,56.88,56.88,0,0,1,2.72,11.44,158.51,158.51,0,0,1,1.23,23.57c0,2.75-.08,5.49-.14,8.23,0,1.28-.05,2.56-.13,3.84s-.21,2.34-.3,3.51,0,2.29,0,3.44c0,.79,0,1.59,0,2.37-.94,0-1.82,0-2.32,0a154.22,154.22,0,0,1-17.6-.24c-2.76-.22-14.45-.57-15.15-4.64-.62-3.64,11.46-4.83,13.86-6.68,4.66-3.6-6.25-6.18-8.38-7.39-30.12-17.08-31.38-57.25-28.43-87.67.88-9.14,2.27-18.22,3.91-27.25a377.39,377.39,0,0,1,52.43-133.52c1.58-2.49,3.43-4.82,5.11-7.23a69.57,69.57,0,0,0,4.85-9c-9.34,5.35-33.67,17.65-41.5,14.05a3.13,3.13,0,0,1-1.89-2.45c-1.49-7.78,4.74-23.31,13.9-34.62.45-.56.91-1.1,1.36-1.63a67.87,67.87,0,0,0,15.55,5.6,84.28,84.28,0,0,0,16.9,2.09,92.43,92.43,0,0,0,33.59-5.63,64.14,64.14,0,0,0,15.19-8.1,45.39,45.39,0,0,0,11.86-12.46c.16-.24.29-.49.44-.74a78.28,78.28,0,0,1,30.15,1.73c14.64,3.74,28.11,11.16,39.87,20.61l2.52,2c.14-.19,12.91-17.93,24.43-17.93h.21c7.34.14,15.49,5.29,22.94,14.5,9.16,11.31,15.4,26.84,13.9,34.62a3.13,3.13,0,0,1-1.89,2.45c-6.84,3.16-27.56-6.48-38.9-12.53.13.07.27.41.35.53,1.79,2.83,3.25,5.85,5.1,8.65,1.73,2.64,3.36,5.33,4.94,8.06.55,1,1.1,1.91,1.64,2.87,3.2,5.72,6.19,11.55,9.11,17.41,11.43,22.95,22.15,46.29,30.8,70.44,8,22.35,15,45.95,17.25,69.67C486.12,331.68,484.14,351.27,475.19,368Z"/>            </clipPath>        </defs>        <g clip-path="url(#outline)">            <rect fill="#FFDD99" width="640" height="480" />        </g>    </g>    <g id="pattern">        <g clip-path="url(#outline)">            <path fill="#824545"  d="M1,442.46c1.37,2.94,19.68,6,22.77,7s6.15-.27,9-1.43a323.08,323.08,0,0,1,142.75-22.27c2.15.15,4.45.29,6.3-.81s2.7-2.9,3.59-4.69q4.77-9.58,9.53-19.16c1.63-3.27,6-5.8,5.77-9.45a20.34,20.34,0,0,0-2-8.57c-11.34-23.45-10.71-37.68-12.14-56.56-.88-11.62,1.34-25.07,3.9-35.71,2.42-10-30.86-23.15-37-26-20.63-9.66-42.69-16.83-65.49-19.13-13.29-1.35-26.29-3.87-38.81-8.64-12.31-4.7-34-10.42-45.71-1.08-2.73,2.19-2.28,8.74-1.85,32.39"/><path fill="#824545"  d="M445.06,398.18c-7.45,2.67-17.16,4.17-25,4.7a7.81,7.81,0,0,1,.26,7.57c-.24.4-.42,1.59-.05,1.87.14.11.71.66.53.66,7,.22,13.87,1,20.85.84,3.7-.11,7.4-.37,11.08-.79q4-.45,8-1c1.13-.16,2.49-.54,2.25-1.94a8.34,8.34,0,0,0-1.3-2.86c-1.17-1.9-3.93-3.7-6.26-4.58-2.75-1-5.65-1.37-8.47-2.06a3.07,3.07,0,0,1-1.29-.53c-.42-.34-.77-.11-.73-.59A5.76,5.76,0,0,1,445.06,398.18Z"/><path fill="#824545"  d="M227.73,404.08a83.56,83.56,0,0,0,22.85,4.36c-.27,2.33-.23,5.47-.4,7.5,0,.46-.08,1.59-.45,1.87-.14.11-.68.14-.51.14s-18.76.61-29.52-1.14a25.64,25.64,0,0,1-4.68-1.46,3.71,3.71,0,0,1-2.54-3.42c0-1.29,1.71-3,2.85-3.37,1.87-.56,3.73-1.12,5.6-1.7l2.83-.9a5.3,5.3,0,0,0,2.24-1A16.69,16.69,0,0,1,227.73,404.08Z"/><path fill="#824545"  d="M250.5,401.61c-.08,5.55-.41,12.5-.49,13.65-.11,1.58.42,3.07,0,4.59-.79,2.77-4.89,4.49-7.48,5.75-1.89.92-4.12,2.32-3.93,4.41.07.77.73,1.35,1,2.09,1.61,5.25,8.87,5.47,13.89,5.47,6.22,0,11.92.36,17.37-2.64,2.25-1.25,2.58-2.68,5.79-5.61,4.87-4.45,5.47-19.87,6.78-26.37.23-1.19-2.6,7.7-2.65,6.51l-.54-13.9c-1.61,2.3-2.81,5.22-4.42,7.52-.66-3.2-3.17-6.89-3.83-10.09-1.06,4.47-2.36,9.21-3.34,13.84-2.14-2.88-3.09-6.19-4-9.2-.61,4.05-3.14,8.18-3.75,12.23l-2.55-8.67-1.62,6.75c-1.47-2.74-3.5-6.86-5-9.6C251.2,400.14,251.06,401.16,250.5,401.61Z"/><path fill="#824545"  d="M421.47,397.35c-.24,3.31.26,11.85.34,13a43.37,43.37,0,0,0,1.31,6.37c.8,2.77,3.26,2.85,5.85,4.12,1.89.92,6.76,2.58,6.58,4.67-.6,6.6-11.8,7.44-17,7.44-6.22,0-11.12-.08-16.57-3.09a24.69,24.69,0,0,1-6.91-6.33c-3.13-4.58-4-11.27-4.78-17.76-.59-4.6.81-10.34,1-15,1.61,2.29,2.81,5.22,4.42,7.52a48.53,48.53,0,0,0,3.83-10.1c1.06,4.48,2.36,9.21,3.34,13.84,2.15-2.88,3.1-6.18,4-9.2.62,4.05,3.14,8.19,3.76,12.24l2.54-8.68,1.62,6.75c1.48-2.74,3.51-6.85,5-9.59C420.5,395.32,420.79,395.77,421.47,397.35Z"/>            <g opacity="0" ><path fill="#FFFFEE"  d="M283.78,410.52c2.4-23.39,18.16-47,42.33-51.29,34.47-6.1,63.49,17.63,66,52.43.07,1,.26-.61-1.27.13a31.2,31.2,0,0,1-7.08,2.1,188.59,188.59,0,0,1-48.13,4c-17-1-34.65-2.65-50.3-6.84"/></g>        </g>    </g>    <g id="mask">        <path fill="none"  d="M262.68,125.25c-.76.07-1.52.14-2.29.19l-.1.11-.4,0a19.53,19.53,0,0,1-.43,3.69Z"/><path opacity="0.1"  d="M339.31,405.32c-39.1-.61-54-9.37-54-9.37l-3.87,19.14c6.31,3.26,30.14,4.89,57.22,6.93S391,415.5,391,415.5l-2.86-18.74S378.41,405.93,339.31,405.32Z"/><path opacity="0.1"  d="M426.2,117.27c-4.18-1.39-7.73.64-10.07,4.09a25.3,25.3,0,0,0-2.76,5.74c-.23.65-.58,1.44-1,2.38,2.5,2.94,4.44,5.34,6.4,8.13,1.44.82,2.73,1.61,4.2,2.37q2.83,1.47,5.74,2.8c1.5.69,4.19,2.52,5.84,2.52,5.46,2.22,13.54,5.83,19.57,3.89a4.55,4.55,0,0,0,3.28-3.41C459.59,135.46,437.6,121.07,426.2,117.27Z"/><g opacity="0.1" ><path d="M484.62,335.15c.23,1.7-3.51,6.77-4.43,8.5-1.82,3.4-3.69,6.77-5.68,10.08a108.4,108.4,0,0,1-13.23,18.12,63.28,63.28,0,0,1-11.06,9.47A60.18,60.18,0,0,1,444,385a32.36,32.36,0,0,1-5.53,2.51c-4,1.16-6.15-2.21-7.32-5.52a39.64,39.64,0,0,1-2.34-17.54A117.62,117.62,0,0,1,431.32,350l-1.95,4.49c-3.06,11.13-4.58,22.56-6,34a4.63,4.63,0,0,0,.26,2.2,3,3,0,0,0-.88.73c-2.06,2.52-.69,11.1-.81,14.3a.63.63,0,0,0,.09.45c.16.19.45.14.69.08a107.14,107.14,0,0,0,24.47-9.44A67.59,67.59,0,0,0,470,377.06c3.19-4.31,7.4-9.86,9.2-14.91C482.27,353.44,485.88,344.31,484.62,335.15Z"/></g><path opacity="0.1"  d="M157.66,346.43A90.42,90.42,0,0,1,134,312c-4.34-10.86-24.44-58.65-24.44-65.3,0,0-4.34,4.48,4.08,28.1s11.4,28.1,11.4,28.1S114,287,109.6,287.37s10.32,30,26.88,42.36c0,0-13.3-9.09-15.47-4.07s21.72,24.57,35,30.14c0,0-12.21-2.85-13,1.63s21.18,20.23,52.13,17.24l-3.53-10.59S175.58,363,157.66,346.43Z"/><path opacity="0.1"  d="M269.41,115.57c-1.27.07-2.55.12-3.83.12-2.66,0-5,.86-7.65.54-9.24-1.1-16.66,1.48-24.94,5.14-11,6.82-21.48,17.09-21.32,24.41.24,11.34,30.52-2.64,41.47-8.07-6.95,10.46-22.72,36-34.48,62.1-1.18.41-12.91,34.19-12.91,34.19s-7.29,26.2-7.43,26.8c-14.66,64.62-10,89.33-4.07,110.78s32.52,32.47,32.52,32.47S213,407.69,212,411.42c-2.78,10.8,38.14,7.65,38.14,7.65l-.26-18.71s-34.21,7.88-47.51-47.79S223,236.63,246.93,175.27A191.39,191.39,0,0,1,267,136.87q3.63-5.34,7.64-10.4a71,71,0,0,0,5.07-6.77c.35-.56,3.44-6.21,1.69-5.85a86.51,86.51,0,0,1-9.24,1.4Z"/><path fill="#ffc80b"  d="M403,70.73a4.09,4.09,0,0,0-1-.29c-.31,0-.62-.07-.93-.09a7.74,7.74,0,0,0-1.86.14,8.83,8.83,0,0,0-2.52.91c.06-.19.13-.39.18-.59a17.65,17.65,0,0,0,.56-5.12,21.08,21.08,0,0,0-.84-5,20.21,20.21,0,0,0-2.07-4.75,1.2,1.2,0,0,0-1-.59,1.22,1.22,0,0,0-1.24,1.21v.06a7.26,7.26,0,0,1-1.51,3.83c-.13.2-.29.39-.44.59a25.29,25.29,0,0,0-.09-4.6,16.11,16.11,0,0,0-3.24-8.33,10.53,10.53,0,0,0-3.72-3,8.27,8.27,0,0,0-2.4-.73,6.51,6.51,0,0,0-1.33,0,4.84,4.84,0,0,0-1.45.29,3.43,3.43,0,0,0-1.5,1.1,3.53,3.53,0,0,0-.65,1.69,5.52,5.52,0,0,0,0,.57q-2.28-1.8-4.71-3.37a75.52,75.52,0,0,0-10.64-5.7,77.46,77.46,0,0,0-23.25-6l-1.48-.11s0-.08,0-.12a89.59,89.59,0,0,0-22.43,1.07,83.88,83.88,0,0,0-22.81,7.22,91.07,91.07,0,0,0-10.41,5.9A102.84,102.84,0,0,0,270.58,54l-1,.85c-3.25,1.9-6.42,3.95-9.55,6-4.67,3.16-9.26,6.44-13.89,9.6-2.32,1.56-4.64,3.17-7,4.47a16.14,16.14,0,0,1-1.75.83,12.94,12.94,0,0,1-1.84.47,24.13,24.13,0,0,1-4,.45,28.58,28.58,0,0,1-8-.92,32.11,32.11,0,0,1-3.83-1.21,28.16,28.16,0,0,1-3.58-1.67,1.45,1.45,0,0,0-.9-.21,1.57,1.57,0,0,0-1.32.89,1.54,1.54,0,0,0-.23.92v0a9.63,9.63,0,0,0,.79,3.11,1.5,1.5,0,0,0-.57.65,1.55,1.55,0,0,0-.22.93,14.45,14.45,0,0,0,.78,3.7c.11.31.24.62.38.92a.42.42,0,0,0-.06.25,17.65,17.65,0,0,0,.74,4,1.11,1.11,0,0,0-.31.46,1.12,1.12,0,0,0-.06.77,6.19,6.19,0,0,0,1.14,2.15,15.23,15.23,0,0,0,1.49,1.6A21.66,21.66,0,0,0,220,94.75c.35.31.71.61,1.08.89a32.66,32.66,0,0,1-4.54,0h-.1a1.1,1.1,0,0,0-.36,0,1.08,1.08,0,0,0-.71.59,1.06,1.06,0,0,0-.15.87,10.25,10.25,0,0,0,2.32,4.11,22.76,22.76,0,0,0,2.36,2.35,25.76,25.76,0,0,1-3.34-.23h0a1.38,1.38,0,0,0-.35,0,1.14,1.14,0,0,0-.76.57,1.11,1.11,0,0,0-.19.84,12.42,12.42,0,0,0,1.62,4c.71,1.21,3.18,2.73,4.08,3.76,1.83,2,5.44-6.27,7.68-4.76s11,5,13.64,6.15c2.34,1,5.19,1.2,7.64,1.85s1-.27,3.66,0a62.67,62.67,0,0,0,8,.43c1.28,0,2.56,0,3.83-.13l5.38-.33s-4.91.24-4.88.2c.77,0,1.53-.12,2.29-.19a82.06,82.06,0,0,0,9.24-1.4c2.05-.42,4.08-.92,6.1-1.45,8.19-2.17,11.44-2.12,18.76-6.43,2.26-1.36,5.31-3,7.41-4.63s3.95-1.8,5.79-3.69a45.85,45.85,0,0,0,5-6.14A27.62,27.62,0,0,0,324,85l-1.5,5,.17,0a5.62,5.62,0,0,1,.09-.57,19.59,19.59,0,0,1,.78-2.73c18.34-2.05,36.73,2.74,52.8,11.57a119.06,119.06,0,0,1,11.88,7.48,47.14,47.14,0,0,0,10.46-7.59,29.69,29.69,0,0,0,7.4-11.21,20.53,20.53,0,0,0,1.2-6.74,13.82,13.82,0,0,0-1.6-6.81A6.15,6.15,0,0,0,403,70.73Z"/>        <path fill="#fff" opacity="0.1"  d="M478.13,335.73c2.67-5.45,5.06-11,7.22-16.66-.16-4-.48-8.12-1-12.42C482,286.63,467.49,243,467.49,243l-6.67-17.49-15.54-36S439.78,175,436.55,168c-16.29-35-34.27-48.68-34.27-48.68l-17.15-12.24c6,6.78,32.31,49.68,42.63,70s42.63,96.66,49.69,140.92A75,75,0,0,1,478.13,335.73Z"/>    </g>    <g id="outline">        <path fill="none"  d="M216.12,85.89a15.26,15.26,0,0,0,.54,2l1.19,0a15.65,15.65,0,0,1-1.48-1.66C216.28,86.14,216.21,86,216.12,85.89Z"/><path fill="none"  d="M222.89,87.76c1.06-.09,2.13-.21,3.18-.38a32.33,32.33,0,0,0,3.67-.78l-.61-.1a33.77,33.77,0,0,1-6.35-1.78,21.59,21.59,0,0,1-3.47-1.8l-.7-.28-.83-.39a10.69,10.69,0,0,0,1.16,2.09A13.64,13.64,0,0,0,222.89,87.76Z"/><path fill="none"  d="M222.56,111.78c.7-1,1.41-1.89,2.15-2.8.34-.42.68-.82,1-1.23-1.09-.65-2.16-1.34-3.2-2.09l-1,.08a35.21,35.21,0,0,1-3.56,0,16.59,16.59,0,0,0,3.23,4.64C221.61,110.88,222.08,111.34,222.56,111.78Z"/><path fill="none"  d="M222,102.85a40.17,40.17,0,0,0,6.69,4.89,55.47,55.47,0,0,0,15.52,6.2,65.1,65.1,0,0,0,16.69,1.74,84.46,84.46,0,0,0,16.61-2.17,120.31,120.31,0,0,0,16-4.72,68.22,68.22,0,0,0,14.75-7.55A47.28,47.28,0,0,0,320.1,89.8a35.3,35.3,0,0,0,6.44-15.23h0a.15.15,0,0,1,.17-.13.16.16,0,0,1,.13.15,27.44,27.44,0,0,1-1.62,8.4,33.33,33.33,0,0,1-1.49,3.68c18.28-2,36.6,2.8,52.61,11.59a119.83,119.83,0,0,1,11.59,7.28,48.86,48.86,0,0,0,10.15-8,28.51,28.51,0,0,0,6.76-11,19.73,19.73,0,0,0,.94-6.32,12.18,12.18,0,0,0-1.54-6,4.51,4.51,0,0,0-2-1.89,2.32,2.32,0,0,0-.59-.15c-.24,0-.48,0-.73,0a7,7,0,0,0-1.44.15,8.58,8.58,0,0,0-4.75,3.3A1,1,0,0,1,393,74.5a16.28,16.28,0,0,0,1.64-4.21,16.51,16.51,0,0,0,.39-4.49,18.38,18.38,0,0,0-.83-4.46c-.13-.41-.28-.82-.44-1.23a13.32,13.32,0,0,1-1,1.74,18.37,18.37,0,0,1-1.62,2.08,22.29,22.29,0,0,1-1.89,1.87,1.32,1.32,0,0,1-2.17-1.19v-.06a27.73,27.73,0,0,0,.22-7.81,13.29,13.29,0,0,0-2.74-6.8,8.1,8.1,0,0,0-2.69-2.11,5.65,5.65,0,0,0-1.53-.45,3,3,0,0,0-1.29.09c-.13.05-.14.08-.15.09a.51.51,0,0,0-.06.22,3.79,3.79,0,0,0,.23,1.37,14.53,14.53,0,0,0,1.66,3.26,1.56,1.56,0,0,1-2.42,2h0a44.41,44.41,0,0,0-4.26-3.73c-1.52-1.18-3.1-2.27-4.72-3.32a71.47,71.47,0,0,0-10.17-5.46,77.49,77.49,0,0,0-22.29-6,86.93,86.93,0,0,0-23.17.69,84.79,84.79,0,0,0-22.22,6.68,93.82,93.82,0,0,0-16,9.45l-.86-.3a.15.15,0,0,1-.06.09c-4.79,3-9.34,6.23-13.83,9.62S251.88,69,247.37,72.36a85.31,85.31,0,0,1-7.06,4.85,16.76,16.76,0,0,1-2,1,15.13,15.13,0,0,1-2.21.67,26.26,26.26,0,0,1-4.4.66,30.51,30.51,0,0,1-8.79-.74,36.52,36.52,0,0,1-4.22-1.26l-.6-.23a8,8,0,0,0,1.13,1.43,15,15,0,0,0,4.79,3,31.28,31.28,0,0,0,5.74,1.74,41.34,41.34,0,0,0,6,.81h.07a1.44,1.44,0,0,1,.59,2.71,28.58,28.58,0,0,1-9.94,3,45.63,45.63,0,0,1-5.09.34c-1,0-2,0-3-.08a11.19,11.19,0,0,0,1,1.24,23.81,23.81,0,0,0,2.93,2.52,42.28,42.28,0,0,0,6.8,4,62.56,62.56,0,0,0,15.15,5,76,76,0,0,0,15.93,1.42,101.89,101.89,0,0,0,15.89-1.62c5.25-1,10.44-2.16,15.53-3.61,1.28-.37,2.52-.8,3.79-1.17s2.5-.87,3.74-1.33,2.47-1,3.65-1.52l1.81-.81,1.77-.88a47.88,47.88,0,0,0,12.71-9.17,32.65,32.65,0,0,0,4.75-6.27,22.21,22.21,0,0,0,2.74-7.39v0a.14.14,0,0,1,.17-.12.15.15,0,0,1,.13.15,20.66,20.66,0,0,1-2.07,7.88,30.17,30.17,0,0,1-2,3.61,36.19,36.19,0,0,1-2.47,3.29,45.11,45.11,0,0,1-12.84,10.19c-9.64,5.27-20.39,8-31.11,9.28a101.19,101.19,0,0,1-16.22.7,104.79,104.79,0,0,1-16.1-1.69,78.83,78.83,0,0,1-15.57-4.54c-1.06-.45-2.11-.94-3.14-1.46-1.31.16-2.61.27-3.92.3-1.12,0-2.23,0-3.34-.08a11.42,11.42,0,0,0,1.11,1.72A22.73,22.73,0,0,0,222,102.85ZM372.42,63a15.64,15.64,0,0,1,1.7,7.26,17,17,0,0,1-.14,1.88c0,.31-.06.62-.11.93l-.23.91a18.29,18.29,0,0,1-.51,1.79c-.24.57-.48,1.14-.74,1.7a8.94,8.94,0,0,1-.89,1.6l-1,1.51A25.66,25.66,0,0,1,368,83.23c.33-1.18.8-2.24,1.18-3.32l.52-1.63c.08-.27.17-.53.27-.8s.12-.54.19-.81c.13-.54.26-1.07.41-1.6s.17-1.08.26-1.61l.14-.79c0-.27,0-.54.05-.81,0-.53.11-1.06.08-1.6a21.7,21.7,0,0,0-.88-6.36,29.85,29.85,0,0,0-2.63-6.29A13.44,13.44,0,0,1,372.42,63Zm-9.88,1.13a13.22,13.22,0,0,1,.79,2.55,15.84,15.84,0,0,1,.23,2.66,14.72,14.72,0,0,1-.94,5.19,11.39,11.39,0,0,1-2.82,4.38c.19-1.75.39-3.35.53-4.93s.23-3.12.23-4.64c0-.77,0-1.52-.06-2.29s-.09-1.53-.23-2.3c-.14-1.57-.55-3.09-.82-4.85A10.45,10.45,0,0,1,362.54,64.16Zm-42.89-14.6A25.35,25.35,0,0,0,312.1,52a20.31,20.31,0,0,1,7.18-3.86,30.33,30.33,0,0,1,8.16-1.45,25.33,25.33,0,0,1,16,4.75,23.27,23.27,0,0,1,8.93,14.07,31.36,31.36,0,0,1-.9,16.25,42,42,0,0,0-1.36-15.66c-.21-.61-.37-1.23-.62-1.82l-.73-1.77c-.26-.58-.6-1.11-.89-1.68-.15-.27-.29-.56-.46-.82l-.55-.77a18.47,18.47,0,0,0-1.11-1.52l-1.24-1.41A13.85,13.85,0,0,0,343.09,55a13.7,13.7,0,0,0-1.46-1.18,22.47,22.47,0,0,0-6.69-3.44A26.74,26.74,0,0,0,327.42,49,35.1,35.1,0,0,0,319.65,49.56Z"/><path fill="none"  d="M467.1,243.37c-8.65-24.15-19.37-47.49-30.8-70.44-2.92-5.86-5.91-11.69-9.11-17.41-.54-1-1.09-1.91-1.64-2.87-1.58-2.73-3.21-5.42-4.94-8.06-1.85-2.8-3.31-5.82-5.1-8.65-.08-.12-.22-.46-.35-.53,11.34,6.05,32.06,15.69,38.9,12.53a3.13,3.13,0,0,0,1.89-2.45c1.5-7.78-4.74-23.31-13.9-34.62-7.45-9.21-15.6-14.36-22.94-14.5h-.21c-11.52,0-24.29,17.74-24.43,17.93l-2.52-2c-11.76-9.45-25.23-16.87-39.87-20.61A78.28,78.28,0,0,0,321.93,90c-.15.25-.28.5-.44.74a45.39,45.39,0,0,1-11.86,12.46,64.14,64.14,0,0,1-15.19,8.1A88.77,88.77,0,0,1,244,114.84a67.87,67.87,0,0,1-15.55-5.6c-.45.53-.91,1.07-1.36,1.63-9.16,11.31-15.39,26.84-13.9,34.62a3.13,3.13,0,0,0,1.89,2.45c7.83,3.6,32.16-8.7,41.5-14.05a69.57,69.57,0,0,1-4.85,9c-1.68,2.41-3.53,4.74-5.11,7.23a377.39,377.39,0,0,0-52.43,133.52c-1.64,9-3,18.11-3.91,27.25-2.95,30.42-1.69,70.59,28.43,87.67,2.13,1.21,13,3.79,8.38,7.39-2.4,1.85-14.48,3-13.86,6.68.7,4.07,12.39,4.42,15.15,4.64a154.22,154.22,0,0,0,17.6.24c.5,0,1.38,0,2.32,0,0-.78,0-1.58,0-2.37,0-1.15-.07-2.29,0-3.44s.23-2.33.3-3.51.1-2.56.13-3.84c.06-2.74.12-5.48.14-8.23a158.51,158.51,0,0,0-1.23-23.57,56.88,56.88,0,0,0-2.72-11.44,23.74,23.74,0,0,0-6.26-9.85,23,23,0,0,1,6.91,9.6,57.37,57.37,0,0,1,3.33,11.48,105.25,105.25,0,0,1,1.55,11.85q.47,6,.56,11.92c0,1.25,0,2.49.05,3.73s0,2.76,0,4.14,0,1.6,0,3c0-.25,0,.57,0,.32,0,1.62-.21,3.24-.16,4.86l.1,3a19.5,19.5,0,0,1-.56,6.37,5.83,5.83,0,0,1-1,1.73,7.9,7.9,0,0,1-1.34,1.26,14.62,14.62,0,0,1-2.86,1.59,24.75,24.75,0,0,0-5,2.44,2.23,2.23,0,0,0-.94,1.53,3.1,3.1,0,0,0,.06,1,3.21,3.21,0,0,0,.38,1,5.71,5.71,0,0,0,1.44,1.61,5.41,5.41,0,0,1,.22-3.15,6.52,6.52,0,0,1,2.78-3.36,8.58,8.58,0,0,1,2-.78,12.49,12.49,0,0,1,1.87-.39,13.3,13.3,0,0,1,3.89,0,13.63,13.63,0,0,1-3.14,2.28c-1.12.61-2.21,1.06-3.05,1.5a9.22,9.22,0,0,0-2.26,1.93,12.58,12.58,0,0,0-1.91,3l.44-.37a13.16,13.16,0,0,0,1.61.88A20.5,20.5,0,0,0,249,436.6c1,.14,2,.24,3,.31a2.91,2.91,0,0,1-.42-.89,3.55,3.55,0,0,1,.16-2.18,7,7,0,0,1,2.47-3,10.09,10.09,0,0,1,3.23-1.61,7.41,7.41,0,0,1,3.66-.16,28.12,28.12,0,0,1-2.61,2.27c-.84.66-1.66,1.29-2.49,1.9a23.29,23.29,0,0,0-2.22,1.76,3.1,3.1,0,0,0-.73,1,2.51,2.51,0,0,0-.21,1.56l.59-.61a48.51,48.51,0,0,0,7-.25,43.15,43.15,0,0,0,5.65-1,14.5,14.5,0,0,0,4.9-2.22A22.32,22.32,0,0,0,278,425a24.89,24.89,0,0,0,1.19-2.5,18.81,18.81,0,0,0,.69-5.18c.11-1.75.2-3.52.4-5.25a76.92,76.92,0,0,1,1.76-9.77A50.17,50.17,0,0,1,286.3,391a84.17,84.17,0,0,1,6.22-10.16,115,115,0,0,0-5.31,10.59,57.66,57.66,0,0,0-3.42,11.2c-.47,2.52-.8,5.06-1,7.62-.1,1.12-.18,2.25-.25,3.38a312.8,312.8,0,0,0,33.86,5.59c21.48,2.29,43.63,2.35,64.74-2.68a86.22,86.22,0,0,0,8.66-2.58c0-.15-.06-.3-.08-.45-.62-3.71-.81-7.39-1.24-11-.2-1.8-.51-3.61-.79-5.43s-.56-3.63-.93-5.4a30.84,30.84,0,0,0-1.72-5.18q-1-2.59-1.83-5.21,1.08,2.54,2.25,5a31.76,31.76,0,0,1,2.07,5.16c.5,1.8.88,3.6,1.28,5.39s.8,3.59,1.12,5.43c.62,3.66,1,7.33,1.72,10.85a31,31,0,0,0,1.51,5.11,26.64,26.64,0,0,0,2.43,4.68,20.21,20.21,0,0,0,7.48,7,13.33,13.33,0,0,0,2.34.91c.8.25,1.71.44,2.57.62a44.53,44.53,0,0,0,5.29.71,51.54,51.54,0,0,0,5.7.11l.55.57a2.57,2.57,0,0,0-.21-1.56,3.42,3.42,0,0,0-.73-1,23.91,23.91,0,0,0-2.23-1.75c-.82-.61-1.64-1.24-2.48-1.9a27.06,27.06,0,0,1-2.61-2.28,7.49,7.49,0,0,1,3.65.16,10.06,10.06,0,0,1,3.24,1.62,7.05,7.05,0,0,1,2.47,3,3.59,3.59,0,0,1,.16,2.17,2.79,2.79,0,0,1-.44.92c1.2-.08,2.38-.2,3.53-.39a20.41,20.41,0,0,0,4.87-1.58,15.2,15.2,0,0,0,1.48-.83l.45.38a12.87,12.87,0,0,0-1.91-3,9.24,9.24,0,0,0-2.27-1.92c-.84-.44-1.92-.89-3-1.5a13.19,13.19,0,0,1-3.14-2.29,13.57,13.57,0,0,1,3.88.05,12.35,12.35,0,0,1,1.88.39,8.08,8.08,0,0,1,2,.78,6.54,6.54,0,0,1,2.79,3.36,5.56,5.56,0,0,1,.23,3.12,5.88,5.88,0,0,0,1.29-1.42,3.83,3.83,0,0,0,.58-1.85,2.25,2.25,0,0,0-.12-.84,1.91,1.91,0,0,0-.4-.72c-.79-.94-2.47-1.64-4.13-2.28a21.12,21.12,0,0,1-5.32-2.59,7.85,7.85,0,0,1-1.24-1.21,4.82,4.82,0,0,1-.87-1.72,9.16,9.16,0,0,1-.28-1.57c-.06-.51-.08-1-.1-1.48a111.51,111.51,0,0,1,.44-11.18c.29-3.68.68-7.35,1.13-11,.89-7.32,2-14.61,3.49-21.84.76-3.61,1.59-7.21,2.61-10.76a54.87,54.87,0,0,1,1.74-5.26,23,23,0,0,1,1.16-2.52,7.34,7.34,0,0,1,1.66-2.2,7.31,7.31,0,0,0-1.46,2.3,23.21,23.21,0,0,0-.94,2.57c-.55,1.74-1,3.52-1.4,5.31-.79,3.57-1.4,7.19-1.93,10.81-1.1,7.25-1.92,14.54-2.61,21.84q-.48,5.48-.83,10.95c-.19,3.41-.36,6.86-.24,10.19,5.42.86,11.33.44,16.68.28a155.32,155.32,0,0,0,19.15-1.45c2.36-.37,3.95,0,2.58-2.3-1.61-2.7-4-4-6.92-5-2.42-.82-9.31-1-10.72-3.45-.77-1.34.08-2,1-2.94,1.35-1.35,4-2.2,5.6-3.24q3-1.89,5.8-4.05A69.64,69.64,0,0,0,475.19,368c8.95-16.71,10.93-36.3,9.16-54.94C482.11,289.32,475.1,265.72,467.1,243.37Z"/><path fill="none"  d="M145.9,307.05c-14.61-18.27-22.84-35.2-28.29-46.41-2.72-5.61-6.1-12.56-7.49-12.56h0c-.73,1-.76,6.95,4.23,23,3.6,11.62,8.57,24.37,12.09,31a1.5,1.5,0,0,1-2.55,1.58c-3.88-5.38-10.33-13-13.66-14.58.77,5.54,13.45,29.08,27.18,39.38a1.5,1.5,0,0,1-1.77,2.42c-3.38-2.41-11.15-6.62-13.54-4.23-.31.86,2.08,5.18,11.54,12.95,7.82,6.42,16.84,12.21,23,14.74a1.5,1.5,0,0,1-.87,2.86c-5.44-1.08-10.83-.89-11.25.39.12.59,1.47,2.51,5.06,5.11,3.28,2.38,19.48,13,43.76,10.8-4.67-10.69-6.81-22.41-7.38-34.42C175.17,333,157.54,321.6,145.9,307.05Z"/><path d="M334.94,50.41a22.47,22.47,0,0,1,6.69,3.44A13.7,13.7,0,0,1,343.09,55a13.85,13.85,0,0,1,1.38,1.27l1.24,1.41a18.47,18.47,0,0,1,1.11,1.52l.55.77c.17.26.31.55.46.82.29.57.63,1.1.89,1.68l.73,1.77c.25.59.41,1.21.62,1.82a42,42,0,0,1,1.36,15.66,31.36,31.36,0,0,0,.9-16.25,23.27,23.27,0,0,0-8.93-14.07,25.33,25.33,0,0,0-16-4.75,30.33,30.33,0,0,0-8.16,1.45A20.31,20.31,0,0,0,312.1,52a25.35,25.35,0,0,1,7.55-2.43,35.1,35.1,0,0,1,7.77-.54A26.74,26.74,0,0,1,334.94,50.41Z"/><path d="M360.5,67.08c0,.77.09,1.52.06,2.29,0,1.52-.08,3.06-.23,4.64s-.34,3.18-.53,4.93a11.39,11.39,0,0,0,2.82-4.38,14.72,14.72,0,0,0,.94-5.19,15.84,15.84,0,0,0-.23-2.66,13.22,13.22,0,0,0-.79-2.55,10.45,10.45,0,0,0-3.09-4.23c.27,1.76.68,3.28.82,4.85C360.41,65.55,360.41,66.33,360.5,67.08Z"/><path d="M371.12,70.26c0,.54-.06,1.07-.08,1.6,0,.27,0,.54-.05.81l-.14.79c-.09.53-.15,1.08-.26,1.61s-.28,1.06-.41,1.6c-.07.27-.1.55-.19.81s-.19.53-.27.8l-.52,1.63c-.38,1.08-.85,2.14-1.18,3.32a25.66,25.66,0,0,0,2.48-2.62l1-1.51a8.94,8.94,0,0,0,.89-1.6c.26-.56.5-1.13.74-1.7a18.29,18.29,0,0,0,.51-1.79l.23-.91c.05-.31.07-.62.11-.93a17,17,0,0,0,.14-1.88,15.64,15.64,0,0,0-1.7-7.26,13.44,13.44,0,0,0-4.81-5.42,29.85,29.85,0,0,1,2.63,6.29A21.7,21.7,0,0,1,371.12,70.26Z"/><path d="M480.31,275.87c-6.48-25.07-15.82-49.32-26.42-72.92-5.39-12-11.13-23.86-17-35.62a264.23,264.23,0,0,0-13.36-24.4c1.45.68,3,1.37,4.5,2,9.91,4.35,17.51,6.54,22.69,6.54a11.17,11.17,0,0,0,4.63-.85,6.15,6.15,0,0,0,3.59-4.61c1.67-8.68-4.71-25-14.52-37.08-8-9.91-17-15.45-25.21-15.61h-.26c-9.77,0-20.19,10.83-25.06,16.63-1.84-1.47-3.72-2.9-5.63-4.26a47.5,47.5,0,0,0,10.46-7.6,29.61,29.61,0,0,0,7.4-11.21,20.53,20.53,0,0,0,1.2-6.74,13.82,13.82,0,0,0-1.6-6.81A6.15,6.15,0,0,0,403,70.73a4.09,4.09,0,0,0-1-.29c-.31,0-.61-.07-.93-.09a8.29,8.29,0,0,0-1.86.14,8.83,8.83,0,0,0-2.52.91c.06-.19.13-.39.18-.59a17.62,17.62,0,0,0,.56-5.11,21.08,21.08,0,0,0-.84-5.06,20.21,20.21,0,0,0-2.07-4.75,1.2,1.2,0,0,0-1-.59,1.22,1.22,0,0,0-1.24,1.21v.06a7.26,7.26,0,0,1-1.51,3.83c-.13.2-.29.4-.44.59a25.29,25.29,0,0,0-.09-4.6,16.17,16.17,0,0,0-3.24-8.33,10.53,10.53,0,0,0-3.72-3,8.27,8.27,0,0,0-2.4-.73,6.51,6.51,0,0,0-1.33,0,4.58,4.58,0,0,0-1.45.3,3.33,3.33,0,0,0-1.5,1.09,3.53,3.53,0,0,0-.65,1.69,5.52,5.52,0,0,0,0,.57c-1.52-1.19-3.09-2.32-4.71-3.36a74,74,0,0,0-10.64-5.71,77.45,77.45,0,0,0-23.25-6,88.86,88.86,0,0,0-23.94.95A83.29,83.29,0,0,0,290.48,41a91.2,91.2,0,0,0-10.42,5.9c-3.31,2.17-6.46,4.78-9.7,7.13S263.45,58.7,260,61c-4.67,3.15-9.26,6.44-13.89,9.6-2.32,1.56-4.63,3.16-7,4.47a14.54,14.54,0,0,1-1.75.83,12.66,12.66,0,0,1-1.84.46,25.16,25.16,0,0,1-4,.46,29.26,29.26,0,0,1-7.95-.92,34.26,34.26,0,0,1-3.84-1.22A27.31,27.31,0,0,1,216.18,73a1.66,1.66,0,0,0-.91-.21,1.61,1.61,0,0,0-1.49,1.73,9.76,9.76,0,0,0,.81,3.16,1.56,1.56,0,0,0-.8,1.52,14,14,0,0,0,.77,3.7c.11.31.24.62.38.92a.42.42,0,0,0-.06.25,17.9,17.9,0,0,0,.75,4,1.11,1.11,0,0,0-.38,1.19,6.19,6.19,0,0,0,1.14,2.15,15.23,15.23,0,0,0,1.49,1.6A21.66,21.66,0,0,0,220,94.75c.39.35.8.69,1.21,1a33.88,33.88,0,0,1-4.73,0h-.09a1.11,1.11,0,0,0-1.17,1.38,10.18,10.18,0,0,0,2.32,4.11,22.32,22.32,0,0,0,2.49,2.47,29.54,29.54,0,0,1-3.55-.23,1,1,0,0,0-.35,0,1.13,1.13,0,0,0-.89,1.3,12.42,12.42,0,0,0,1.62,4,21.41,21.41,0,0,0,2.48,3.32c.56.62,1.15,1.2,1.75,1.77-7.71,11.32-12.37,24.67-10.91,32.23a6.16,6.16,0,0,0,3.58,4.61,11,11,0,0,0,4.63.85c5.18,0,12.78-2.19,22.7-6.54,2.51-1.1,4.94-2.25,7.17-3.34a351.63,351.63,0,0,0-21,36,379.37,379.37,0,0,0-27.51,69.12q-5.15,17.82-8.5,36.07c-3,16.36-5.85,34.82-5.45,52.82-10.61-6.19-26.76-16.95-37.55-30.45-14.41-18-22.55-34.76-27.94-45.84-4.91-10.12-7.37-15.19-11.12-14.13a3,3,0,0,0-1.91,1.82c-2.47,5.79,5.19,29.93,11.64,45.82-3.12-3.41-6.57-6.53-9.07-6.94a2.11,2.11,0,0,0-2.42,1.29c-1.79,4.17,8.51,23.55,20.26,36.41-2.91-.84-5.83-.91-7.74,1a3.18,3.18,0,0,0-.79,3c1.16,5.82,16.67,18.71,29.11,25.91-3.23.12-6.22,1-6.74,3.58-.27,1.37.6,3,2.66,5.07,4.77,4.73,20.25,14.68,42.52,14.68a75.13,75.13,0,0,0,7.94-.42,72.87,72.87,0,0,0,3.55,6.41,53,53,0,0,0,21.65,19.67c.46.23,2,1.13,3.25,1.71-.13.05-.23.1-.31.12-1.79.63-3.6,1.17-5.38,1.82-3.43,1.25-9.09,3.22-6.81,8,1.87,3.92,8,4.81,11.7,5.39a118.06,118.06,0,0,0,20,1c1.45,0,3.45.1,5.46.05-.43,1.17-1.94,2-3.62,2.77a25.27,25.27,0,0,0-5.64,2.81,6,6,0,0,0-1.32,1.45,5.1,5.1,0,0,0-.7,2,6.35,6.35,0,0,0,.1,2,6.56,6.56,0,0,0,.68,1.79,11.21,11.21,0,0,0,5.18,4.33,22.83,22.83,0,0,0,6.06,1.85,48.77,48.77,0,0,0,12.25.07,44.71,44.71,0,0,0,6-1.12,17.23,17.23,0,0,0,5.82-2.68,24.88,24.88,0,0,0,7.82-9.69A20.45,20.45,0,0,0,282,422a25.34,25.34,0,0,0,.32-4.77l0-.51c22.41,4.87,45.49,7.76,68.45,6.85a160.1,160.1,0,0,0,32.55-4.43c2.4-.6,4.77-1.26,7.12-2a28.84,28.84,0,0,0,3.1,7.11,21.91,21.91,0,0,0,8.26,8.09,15.66,15.66,0,0,0,2.77,1.14c.95.31,1.84.51,2.78.72A48.1,48.1,0,0,0,413,435a45.77,45.77,0,0,0,11.38-.31,23.06,23.06,0,0,0,5.61-1.79,13.82,13.82,0,0,0,2.62-1.56,8.9,8.9,0,0,0,2.25-2.39,6.87,6.87,0,0,0,1-3.36,5.19,5.19,0,0,0-1.23-3.53,8.33,8.33,0,0,0-2.68-2,24.86,24.86,0,0,0-2.68-1.13,19.6,19.6,0,0,1-4.59-2.15,4.54,4.54,0,0,1-.74-.7,1.83,1.83,0,0,1-.37-.72l0-.12.83.08a142.39,142.39,0,0,0,20.86,0c5.57-.29,11.91-.22,17.3-1.84,3.77-1.13,2.9-4.86.85-7.65-3.27-4.43-9.45-5.46-14.45-6.64l-.43-.13c.93-.57,1.95-1.32,2.33-1.55a77.06,77.06,0,0,0,11.86-8.78c14-12.68,21.83-30.36,24.29-48.89C489.83,318.38,485.69,296.69,480.31,275.87Zm-263.65-188a15.26,15.26,0,0,1-.54-2c.09.12.16.25.25.36a15.65,15.65,0,0,0,1.48,1.66Zm1.12-5.62.83.39.7.28a21.59,21.59,0,0,0,3.47,1.8,33.77,33.77,0,0,0,6.35,1.78l.61.1a32.33,32.33,0,0,1-3.67.78c-1,.17-2.12.29-3.18.38a13.64,13.64,0,0,1-3.95-3.42A10.69,10.69,0,0,1,217.78,82.25Zm1.41,17.62a11.42,11.42,0,0,1-1.11-1.72c1.11.08,2.22.1,3.34.08,1.31,0,2.61-.14,3.92-.3,1,.52,2.08,1,3.14,1.46a78.83,78.83,0,0,0,15.57,4.54,104.79,104.79,0,0,0,16.1,1.69,101.19,101.19,0,0,0,16.22-.7c10.72-1.28,21.47-4,31.11-9.28a45.11,45.11,0,0,0,12.84-10.19,36.19,36.19,0,0,0,2.47-3.29,30.17,30.17,0,0,0,2-3.61,20.66,20.66,0,0,0,2.07-7.88.15.15,0,0,0-.13-.15.14.14,0,0,0-.17.14,22.21,22.21,0,0,1-2.74,7.39,32.65,32.65,0,0,1-4.75,6.27,47.88,47.88,0,0,1-12.71,9.17l-1.77.88-1.81.81c-1.18.57-2.43,1-3.65,1.52s-2.48.9-3.74,1.33-2.51.8-3.79,1.17c-5.09,1.45-10.28,2.63-15.53,3.61a101.89,101.89,0,0,1-15.89,1.62A76,76,0,0,1,244.23,103a62.56,62.56,0,0,1-15.15-5,42.28,42.28,0,0,1-6.8-4,23.81,23.81,0,0,1-2.93-2.52,11.19,11.19,0,0,1-1-1.24c1,.06,2,.08,3,.08a45.63,45.63,0,0,0,5.09-.34,28.58,28.58,0,0,0,9.94-3,1.44,1.44,0,0,0-.59-2.71h-.07a41.34,41.34,0,0,1-6-.81A31.28,31.28,0,0,1,224,81.78a15,15,0,0,1-4.79-3,8,8,0,0,1-1.13-1.43l.6.23a36.52,36.52,0,0,0,4.22,1.26,30.51,30.51,0,0,0,8.79.74,26.26,26.26,0,0,0,4.4-.66,15.13,15.13,0,0,0,2.21-.67,16.76,16.76,0,0,0,2-1,85.31,85.31,0,0,0,7.06-4.85c4.2-3.16,8.35-6.38,12.55-9.54a148,148,0,0,1,12.77-8.41l2.67-1.62c1.68-1,3.23-2.22,4.88-3.29a88.47,88.47,0,0,1,11.28-6.23,84.79,84.79,0,0,1,22.22-6.68,86.93,86.93,0,0,1,23.17-.69,77.49,77.49,0,0,1,22.29,6,71.47,71.47,0,0,1,10.17,5.46c1.62,1,3.2,2.14,4.72,3.32a44.45,44.45,0,0,1,4.27,3.74,1.56,1.56,0,0,0,2.42-2,14.53,14.53,0,0,1-1.66-3.26,3.79,3.79,0,0,1-.23-1.37.51.51,0,0,1,.06-.22s0,0,.15-.09a3,3,0,0,1,1.29-.09,5.65,5.65,0,0,1,1.53.45,8.1,8.1,0,0,1,2.69,2.11,13.29,13.29,0,0,1,2.74,6.8,27.73,27.73,0,0,1-.22,7.81v.06a1.32,1.32,0,0,0,2.17,1.19,22.29,22.29,0,0,0,1.89-1.87,18.37,18.37,0,0,0,1.62-2.08,13.32,13.32,0,0,0,1-1.74c.16.41.31.82.44,1.23a18.38,18.38,0,0,1,.83,4.46,16.51,16.51,0,0,1-.39,4.49A16.28,16.28,0,0,1,393,74.5a1,1,0,0,0,1.73,1.1,8.58,8.58,0,0,1,4.75-3.3,7,7,0,0,1,1.44-.15c.25,0,.49,0,.73,0a2.32,2.32,0,0,1,.59.15,4.51,4.51,0,0,1,2,1.89,12.18,12.18,0,0,1,1.54,6,19.73,19.73,0,0,1-.94,6.32,28.51,28.51,0,0,1-6.76,11,48.86,48.86,0,0,1-10.15,8,119.83,119.83,0,0,0-11.59-7.28c-16-8.79-34.33-13.58-52.61-11.59A33.33,33.33,0,0,0,325.22,83a27.44,27.44,0,0,0,1.62-8.4.16.16,0,0,0-.13-.15.15.15,0,0,0-.17.14A35.3,35.3,0,0,1,320.1,89.8a47.28,47.28,0,0,1-11.87,11.44,68.22,68.22,0,0,1-14.75,7.55,120.31,120.31,0,0,1-16,4.72,84.46,84.46,0,0,1-16.61,2.17,65.1,65.1,0,0,1-16.69-1.74,55.47,55.47,0,0,1-15.52-6.2,40.17,40.17,0,0,1-6.69-4.89A22.73,22.73,0,0,1,219.19,99.87Zm-1.25,5.89a35.21,35.21,0,0,0,3.56,0l1-.08c1,.75,2.11,1.44,3.2,2.09-.35.41-.69.81-1,1.23-.74.91-1.45,1.85-2.15,2.8-.48-.44-.95-.9-1.39-1.38A16.59,16.59,0,0,1,217.94,105.76Zm-68.39,257c-3.59-2.6-4.94-4.52-5.06-5.11.42-1.28,5.81-1.47,11.25-.39a1.5,1.5,0,0,0,.87-2.86c-6.16-2.53-15.18-8.32-23-14.74-9.46-7.77-11.85-12.09-11.54-12.95,2.39-2.39,10.16,1.82,13.54,4.23a1.5,1.5,0,0,0,1.77-2.42c-13.73-10.3-26.41-33.84-27.18-39.38,3.33,1.63,9.78,9.2,13.66,14.58a1.5,1.5,0,0,0,2.55-1.58c-3.52-6.65-8.49-19.4-12.09-31-5-16.1-5-22.07-4.23-23h0c1.39,0,4.77,6.95,7.49,12.56,5.45,11.21,13.68,28.14,28.29,46.41,11.64,14.55,29.27,26,40,32.1.57,12,2.71,23.73,7.38,34.42C169,375.75,152.83,365.15,149.55,362.77ZM475.19,368a69.64,69.64,0,0,1-18.8,22.19q-2.81,2.16-5.8,4.05c-1.64,1-4.25,1.89-5.6,3.24-.89.89-1.74,1.6-1,2.94,1.41,2.49,8.3,2.63,10.72,3.45,2.94,1,5.31,2.32,6.92,5,1.37,2.3-.22,1.93-2.58,2.3a155.32,155.32,0,0,1-19.15,1.45c-5.35.16-11.26.58-16.68-.28-.12-3.33.05-6.78.24-10.19q.35-5.47.83-10.95c.69-7.3,1.51-14.59,2.61-21.84.53-3.62,1.14-7.24,1.93-10.81.39-1.79.85-3.57,1.4-5.31a23.21,23.21,0,0,1,.94-2.57,7.31,7.31,0,0,1,1.46-2.3,7.34,7.34,0,0,0-1.66,2.2,23,23,0,0,0-1.16,2.52,54.87,54.87,0,0,0-1.74,5.26c-1,3.55-1.85,7.15-2.61,10.76-1.46,7.23-2.6,14.52-3.49,21.84-.45,3.66-.84,7.33-1.13,11a111.51,111.51,0,0,0-.44,11.18c0,.48,0,1,.1,1.48a9.16,9.16,0,0,0,.28,1.57,4.82,4.82,0,0,0,.87,1.72,7.85,7.85,0,0,0,1.24,1.21,21.12,21.12,0,0,0,5.32,2.59c1.66.64,3.34,1.34,4.13,2.28a1.91,1.91,0,0,1,.4.72,2.25,2.25,0,0,1,.12.84,3.83,3.83,0,0,1-.58,1.85,5.88,5.88,0,0,1-1.29,1.42,5.56,5.56,0,0,0-.23-3.12,6.54,6.54,0,0,0-2.79-3.36,8.08,8.08,0,0,0-2-.78,12.35,12.35,0,0,0-1.88-.39,13.57,13.57,0,0,0-3.88-.05,13.19,13.19,0,0,0,3.14,2.29c1.12.61,2.2,1.06,3,1.5a9.24,9.24,0,0,1,2.27,1.92,12.87,12.87,0,0,1,1.91,3l-.45-.38a15.2,15.2,0,0,1-1.48.83,20.41,20.41,0,0,1-4.87,1.58c-1.15.19-2.33.31-3.53.39a2.79,2.79,0,0,0,.44-.92,3.59,3.59,0,0,0-.16-2.17,7.05,7.05,0,0,0-2.47-3,10.06,10.06,0,0,0-3.24-1.62,7.49,7.49,0,0,0-3.65-.16,27.06,27.06,0,0,0,2.61,2.28c.84.66,1.66,1.29,2.48,1.9a23.91,23.91,0,0,1,2.23,1.75,3.42,3.42,0,0,1,.73,1,2.57,2.57,0,0,1,.21,1.56l-.55-.57a51.54,51.54,0,0,1-5.7-.11,44.53,44.53,0,0,1-5.29-.71c-.86-.18-1.77-.37-2.57-.62A13.33,13.33,0,0,1,403,430a20.21,20.21,0,0,1-7.48-7,26.64,26.64,0,0,1-2.43-4.68,31,31,0,0,1-1.51-5.11c-.76-3.52-1.1-7.19-1.72-10.85-.32-1.84-.74-3.63-1.12-5.43s-.78-3.59-1.28-5.39a31.76,31.76,0,0,0-2.07-5.16q-1.17-2.49-2.25-5,.87,2.61,1.83,5.21a30.84,30.84,0,0,1,1.72,5.18c.37,1.77.65,3.59.93,5.4s.59,3.63.79,5.43c.43,3.62.62,7.3,1.24,11,0,.15.06.3.08.45a86.22,86.22,0,0,1-8.66,2.58c-21.11,5-43.26,5-64.74,2.68a312.8,312.8,0,0,1-33.86-5.59c.07-1.13.15-2.26.25-3.38.23-2.56.56-5.1,1-7.62a57.66,57.66,0,0,1,3.42-11.2,115,115,0,0,1,5.31-10.59A84.17,84.17,0,0,0,286.3,391,50.17,50.17,0,0,0,282,402.27a76.92,76.92,0,0,0-1.76,9.77c-.2,1.73-.29,3.5-.4,5.25a18.81,18.81,0,0,1-.69,5.18A24.89,24.89,0,0,1,278,425a22.32,22.32,0,0,1-7.06,8.51,14.5,14.5,0,0,1-4.9,2.22,43.15,43.15,0,0,1-5.65,1,48.51,48.51,0,0,1-7,.25l-.59.61A2.51,2.51,0,0,1,253,436a3.1,3.1,0,0,1,.73-1,23.29,23.29,0,0,1,2.22-1.76c.83-.61,1.65-1.24,2.49-1.9a28.12,28.12,0,0,0,2.61-2.27,7.41,7.41,0,0,0-3.66.16,10.09,10.09,0,0,0-3.23,1.61,7,7,0,0,0-2.47,3,3.55,3.55,0,0,0-.16,2.18,2.91,2.91,0,0,0,.42.89c-1-.07-2-.17-3-.31a20.5,20.5,0,0,1-5.28-1.58,13.16,13.16,0,0,1-1.61-.88l-.44.37a12.58,12.58,0,0,1,1.91-3,9.22,9.22,0,0,1,2.26-1.93c.84-.44,1.93-.89,3.05-1.5a13.63,13.63,0,0,0,3.14-2.28,13.3,13.3,0,0,0-3.89,0,12.49,12.49,0,0,0-1.87.39,8.58,8.58,0,0,0-2,.78,6.52,6.52,0,0,0-2.78,3.36,5.41,5.41,0,0,0-.22,3.15,5.71,5.71,0,0,1-1.44-1.61,3.21,3.21,0,0,1-.38-1,3.1,3.1,0,0,1-.06-1,2.23,2.23,0,0,1,.94-1.53,24.75,24.75,0,0,1,5-2.44,14.62,14.62,0,0,0,2.86-1.59,7.9,7.9,0,0,0,1.34-1.26,5.83,5.83,0,0,0,1-1.73,19.5,19.5,0,0,0,.56-6.37l-.1-3c0-1.62.16-3.24.16-4.86,0,.25,0-.57,0-.32,0-1.36,0-1.61,0-3s0-2.76,0-4.14,0-2.48-.05-3.73q-.09-6-.56-11.92a105.25,105.25,0,0,0-1.55-11.85,57.37,57.37,0,0,0-3.33-11.48,23,23,0,0,0-6.91-9.6,23.74,23.74,0,0,1,6.26,9.85,56.88,56.88,0,0,1,2.72,11.44,158.51,158.51,0,0,1,1.23,23.57c0,2.75-.08,5.49-.14,8.23,0,1.28-.05,2.56-.13,3.84s-.21,2.34-.3,3.51,0,2.29,0,3.44c0,.79,0,1.59,0,2.37-.94,0-1.82,0-2.32,0a154.22,154.22,0,0,1-17.6-.24c-2.76-.22-14.45-.57-15.15-4.64-.62-3.64,11.46-4.83,13.86-6.68,4.66-3.6-6.25-6.18-8.38-7.39-30.12-17.08-31.38-57.25-28.43-87.67.88-9.14,2.27-18.22,3.91-27.25a377.39,377.39,0,0,1,52.43-133.52c1.58-2.49,3.43-4.82,5.11-7.23a69.57,69.57,0,0,0,4.85-9c-9.34,5.35-33.67,17.65-41.5,14.05a3.13,3.13,0,0,1-1.89-2.45c-1.49-7.78,4.74-23.31,13.9-34.62.45-.56.91-1.1,1.36-1.63a67.87,67.87,0,0,0,15.55,5.6,84.28,84.28,0,0,0,16.9,2.09,92.43,92.43,0,0,0,33.59-5.63,64.14,64.14,0,0,0,15.19-8.1,45.39,45.39,0,0,0,11.86-12.46c.16-.24.29-.49.44-.74a78.28,78.28,0,0,1,30.15,1.73c14.64,3.74,28.11,11.16,39.87,20.61l2.52,2c.14-.19,12.91-17.93,24.43-17.93h.21c7.34.14,15.49,5.29,22.94,14.5,9.16,11.31,15.4,26.84,13.9,34.62a3.13,3.13,0,0,1-1.89,2.45c-6.84,3.16-27.56-6.48-38.9-12.53.13.07.27.41.35.53,1.79,2.83,3.25,5.85,5.1,8.65,1.73,2.64,3.36,5.33,4.94,8.06.55,1,1.1,1.91,1.64,2.87,3.2,5.72,6.19,11.55,9.11,17.41,11.43,22.95,22.15,46.29,30.8,70.44,8,22.35,15,45.95,17.25,69.67C486.12,331.68,484.14,351.27,475.19,368Z"/>    </g>    <g id="eye">        <g id="eye-color1">            <g opacity="0" ><path fill="#FFDD99"  d="M297.39,169.09c-.14.46-.21.94-.36,1.41a15.55,15.55,0,0,1-1.35,2.86c-.52.94-1,1.9-1.54,2.83-.24.41-.5.8-.77,1.2-.14.21-.28.41-.43.61s-.45.47-.45.6c-.2.25-.39.5-.6.74-5.88,7-13.9,9.8-22.69,6.54-8.54-3.18-14.2-10.41-14.65-19.54a1.27,1.27,0,0,1,0-.28,1.42,1.42,0,0,1,0-.3,23.29,23.29,0,0,1,19-21.81A19,19,0,0,1,285,145.3c-15.3-7.7-34.36-2.93-39.3,15.33a20.54,20.54,0,0,0-.66,6.53,29.4,29.4,0,0,0,10.48,20.24c8.59,7.08,21.5,6.67,31,1.77,7.19-3.7,10-12.61,10.92-20.46C297.47,168.84,297.43,169,297.39,169.09Z"/></g><g opacity="0" ><path fill="#FFDD99"  d="M421.14,163c-.24.62-.44,1.25-.69,1.86a25.27,25.27,0,0,1-2,3.66A30.31,30.31,0,0,1,416,172c-5.88,7.05-13.91,9.8-22.7,6.54-8.53-3.18-14.2-10.41-14.65-19.54a2.46,2.46,0,0,1,0-.28,1.39,1.39,0,0,1,0-.3,23.28,23.28,0,0,1,19-21.81,19,19,0,0,1,11.42,1.35c-15.3-7.7-34.36-2.93-39.3,15.33a20.83,20.83,0,0,0-.66,6.53A29.44,29.44,0,0,0,379.59,180c8.59,7.08,21.5,6.67,31,1.77,6.91-3.55,9.73-12,10.78-19.66C421.31,162.4,421.24,162.78,421.14,163Z"/></g>        </g>        <g id="eye-shape">            <path fill="#fcfcfc"  d="M289.33,118.08c-7.82-4.63-16.25-5.49-25.07-3.61a56.83,56.83,0,0,0-13.79,4.85c-2.74,1.38-5.12,3.33-7.81,4.73-15.12,11.6-19.3,31.46-10.94,48.47,7.69,15.62,26.58,28.71,44.44,23.12,15.37-4.81,25.15-21.23,28.47-36.16C308.16,143.65,304,126.72,289.33,118.08ZM262.26,189c-9.47,1.85-17-6.57-18.21-15.24a1.62,1.62,0,0,1-.05-.4,1.39,1.39,0,0,1,0-.46,16.55,16.55,0,0,1,17.43-15.77,5.68,5.68,0,0,1,1.57-.87,1.14,1.14,0,0,1,1.27-.13,1.34,1.34,0,0,1,.49.32l4.7,3.45c.7.52,1.52.95,1.59,1.92,0,.11,0,.23,0,.35a15.9,15.9,0,0,1,3,10C273.89,179.25,269.86,187.48,262.26,189Z"/><path d="M296.83,119.83a35.84,35.84,0,0,0-27.08-9.2,55.33,55.33,0,0,0-15.7,3.82c-4.55,1.8-8.27,4.54-12.51,6.79a1.54,1.54,0,0,0-.39.22,1.45,1.45,0,0,0-.46.36c-13.64,10.74-19.54,27.85-14.53,44.69,5.33,17.94,22.38,33.32,41.63,33.36,18.48,0,31.65-16.1,37.53-32.11S310.39,131.88,296.83,119.83Zm7.8,39.65c-3.32,14.93-13.1,31.35-28.47,36.16-17.86,5.59-36.75-7.5-44.44-23.12-8.36-17-4.18-36.87,10.94-48.47,2.69-1.4,5.07-3.35,7.81-4.73a56.83,56.83,0,0,1,13.79-4.85c8.82-1.88,17.25-1,25.07,3.61C304,126.72,308.16,143.65,304.63,159.48Z"/><path fill="#fcfcfc"  d="M441.91,138.38c-3.23-17.34-18-24.17-34-26.81-18.86-3.14-36.89,8.23-45.55,24.74-9.27,19.81,1.24,45.06,20.38,54.74a38.17,38.17,0,0,0,44.44-6.79C438.81,172.7,444.93,154.58,441.91,138.38Zm-29.1,9.34c-9.24-.07-17.75-7-18.6-16.33a2,2,0,0,1-.06-.56,1.67,1.67,0,0,1,.08-.61,16.8,16.8,0,0,1,4-8.81,1.85,1.85,0,0,1,.25-.32l.65-.67c.24-.25.47-.5.72-.74l3.63-3.75a1.62,1.62,0,0,1,2.08-.17,17.38,17.38,0,0,1,9.3-1.72c9.06,1.06,14.51,10.2,13.34,18.68C427.09,140.6,421.2,147.78,412.81,147.72Z"/><path d="M437.61,121.53c-5.76-6.42-14.07-9.84-22.29-11.83-10.75-2.6-21.1-2.91-31.36,1.75a52.5,52.5,0,0,0-24.42,23.2c-8.76,18.74-1.73,42,14.38,54.65,13.82,10.8,33.62,12.77,48.56,3,15.16-9.89,23.85-29.06,23.44-46.89C445.72,136.84,443.47,128.05,437.61,121.53Zm-54.84,69.52c-19.14-9.68-29.65-34.93-20.38-54.74,8.66-16.51,26.69-27.88,45.55-24.74,15.93,2.64,30.74,9.47,34,26.81,3,16.2-3.1,34.32-14.7,45.88A38.17,38.17,0,0,1,382.77,191.05Z"/><path d="M269.26,166.54c-2.57,3-7.13,1.29-9-1.6a5.8,5.8,0,0,1,1.2-7.85A16.55,16.55,0,0,0,244,172.86a1.39,1.39,0,0,0,0,.46,1.62,1.62,0,0,0,.05.4c1.16,8.67,8.74,17.09,18.21,15.24,7.6-1.48,11.63-9.71,11.81-16.85a15.9,15.9,0,0,0-3-10A8,8,0,0,1,269.26,166.54Z"/><path fill="#fff"  d="M260.25,164.94c1.88,2.89,6.44,4.64,9,1.6a8,8,0,0,0,1.81-4.41c0-.12,0-.24,0-.35-.07-1-.89-1.4-1.59-1.92l-4.7-3.45a1.34,1.34,0,0,0-.49-.32,1.14,1.14,0,0,0-1.27.13,5.68,5.68,0,0,0-1.57.87A5.8,5.8,0,0,0,260.25,164.94Z"/><path d="M399.1,120.42l.72-.74C399.57,119.92,399.34,120.17,399.1,120.42Z"/><path d="M414.83,114a17.38,17.38,0,0,0-9.3,1.72l.25.17c2.9,2.29,3.92,7,1.11,9.86s-8,.49-8.86-3.1a1.6,1.6,0,0,1,0-.53,1.52,1.52,0,0,1,.21-.75,16.8,16.8,0,0,0-4,8.81,1.67,1.67,0,0,0-.08.61,2,2,0,0,0,.06.56c.85,9.31,9.36,16.26,18.6,16.33,8.39.06,14.28-7.12,15.36-15C429.34,124.24,423.89,115.1,414.83,114Z"/><path fill="#fff"  d="M398,122.69c.86,3.59,6,5.95,8.86,3.1s1.79-7.57-1.11-9.86l-.25-.17a1.62,1.62,0,0,0-2.08.17l-3.63,3.75-.72.74-.65.67a1.85,1.85,0,0,0-.25.32,1.52,1.52,0,0,0-.21.75A1.6,1.6,0,0,0,398,122.69Z"/>        </g>        <g id="eye-color2">            <path fill="#EFCA89"  d="M276.58,177a21.4,21.4,0,0,0-4.23-12.82,16.52,16.52,0,0,1,1.72,7.92c-.18,7.14-4.21,15.37-11.81,16.85-9.47,1.85-17.06-6.57-18.21-15.24a1.62,1.62,0,0,1-.05-.4,1.39,1.39,0,0,1,0-.46,16.55,16.55,0,0,1,17.42-15.77l.34-.22a19,19,0,0,0-5.14-.73c-11,0-19.93,9.35-19.93,20.87a22.56,22.56,0,0,0,.34,3.8c6.57,8.15,16.11,14.45,26.28,15.85A20.84,20.84,0,0,0,276.58,177Z"/><path fill="#EFCA89"  d="M414.89,114.05c9,1.1,14.44,10.21,13.28,18.67-1.08,7.88-7,15.06-15.36,15-8.9-.07-17.11-6.52-18.45-15.33a19.13,19.13,0,0,0-.16,2.41,20.94,20.94,0,1,0,26-20.1,21.21,21.21,0,0,0-5.13-.66Z"/>        </g>    </g>    <g id="nose-mouth">        <path d="M350.45,187.37c-9.76-12.84-25.58-11-35.51.59a.9.9,0,0,0-.14.2l-.1.1c-2.7,3.59-5.6,7.08-7.68,11.08-2.83,5.46-5.75,13.38-3.75,19.51,4,12.27,20,14.4,30.74,12l.7-.14a2.26,2.26,0,0,0,0,.26v-.26l.15,0c1.36,11.85,2.28,25.13,2.7,36.94.4,11.12,1.82,28.34-9.46,34.93-1.36.79-.89,1,.52.3a19,19,0,0,0,9.87-11.24c4.4,3,9.87,6.71,12.59,11.09.82,1.33.7.13-.13-1.21a41.5,41.5,0,0,0-11.75-12.33c1.17-4.87,1.08-10.2,1-15.15-.29-14.11-1.29-29.74-2.93-43.81,3.67-.69,7.35-1.19,11.1-1.72,2.2-.31,5.1-.4,7.11-1.46,2.39-1.27,3.88-4.44,5.09-6.75C366.82,208.37,357.54,196.69,350.45,187.37Z"/><path fill="#2d2821"  d="M356.12,201.53c-2.73-4.53-5.58-9.51-9-13.56-8.86-10.47-21.9-7.39-30,2.09a99.56,99.56,0,0,0-6.35,8.83c-3.13,5.22-6.84,14-4.22,19.93,4.81,10.84,19.11,11,28.82,8.52,3.7-.93,7.6-1.12,11.37-1.63,2.06-.28,4.7-.28,6.62-1.14,2.51-1.11,4.31-4.81,5.35-7.31C361.18,211.22,359.25,206.71,356.12,201.53Z"/><path d="M320.31,211.64a5.89,5.89,0,0,0-3.46-1.35c-1,0-3.23.17-3.92,1a2.14,2.14,0,0,0-.19,2.51,28.62,28.62,0,0,0,15.63,11.25,1.52,1.52,0,0,0,1.69-2.21A28.59,28.59,0,0,0,320.31,211.64Z"/><path d="M350,208.25a37,37,0,0,0-5.23,11.25,2.88,2.88,0,0,0,.29,2.66,2.19,2.19,0,0,0,.59.42c.8.43,1.88,1,2.7.31a13.23,13.23,0,0,0,4.39-14.28A1.52,1.52,0,0,0,350,208.25Z"/>    </g></svg>