<!--  ~ Copyright (C) 2018 Baidu, Inc. All Rights Reserved.  --><svg viewBox="0 0 640 480" xmlns="http://www.w3.org/2000/svg">    <g id="back-ground-cl">        <rect fill="none" width="640" height="480" />        <ellipse opacity="0.1" cx="331.93" cy="418.82" rx="168.39" ry="32.01"/>    </g>    <g id="body">        <defs>            <clipPath id="outline">                <path d="M452.79,396.45a74.64,74.64,0,0,0,11.24-8.8c13.41-12.74,20.76-30.16,23-48.33,2.74-21.85-1.67-43.92-7.23-65-.26-1-.53-2-.8-2.95C484.77,254.69,475,232,466,218.91c-2.06-3-4.26-5.89-6.55-8.72,5.27-2,9.82-5.7,11.79-12.19,7.21-23.69-25.32-71.16-56-92-12-8.11-30-17.2-48.08-14.51-1.38.21-2.68.47-3.89.77-13.05-5-27.1-7.16-41.07-5.33a76.35,76.35,0,0,0-18.43,4.89c-.61-.12-1.23-.23-1.87-.33-18.07-2.69-36.12,6.4-48.09,14.51-30.69,20.8-63.22,68.27-56,92,2.29,7.56,8.08,11.31,14.44,13.06-.09.21-.19.43-.27.64-.58.58-1.17,1.14-1.74,1.72a71.11,71.11,0,0,0-18.36,34c-1.89,8.09-2.48,18.7,1.32,26.7q-.93,4.44-1.77,8.91c-3.19,17.56-5.52,35.46-5,53.34a124.13,124.13,0,0,0,2.93,24.35,21.68,21.68,0,0,1-12.22-1.83,23.68,23.68,0,0,1-10.27-10.33,36.35,36.35,0,0,1-4-14.28A30.84,30.84,0,0,1,165,319.67l1.67-3.79-2.92,2.93a30.86,30.86,0,0,0-5.92,8.75,43.78,43.78,0,0,0-3.3,10,36.18,36.18,0,0,0,1.62,20.78,28.54,28.54,0,0,0,5.8,8.83,32.61,32.61,0,0,0,8.47,6.25,34.12,34.12,0,0,0,20.45,3.69,38.08,38.08,0,0,0,3.86-.73,63.27,63.27,0,0,0,3.75,6.85,52.62,52.62,0,0,0,21.1,19.2c.91.46,1.84.89,2.78,1.31a11.42,11.42,0,0,0,1.25.53l.49.2c-.49.15-1,.36-1.45.52-1.7.58-3.42,1.11-5.11,1.72-3.3,1.19-9.11,3.11-6.74,7.74,2.06,4,8.64,4.75,12.49,5.28a123.81,123.81,0,0,0,19.35.87c1.4,0,3.42.1,5.44,0a3.91,3.91,0,0,1-.43.94,4.48,4.48,0,0,1-.77.81,20.81,20.81,0,0,1-4.84,2.41,16.84,16.84,0,0,0-2.77,1.41,5.55,5.55,0,0,0-2.33,2.74,6.28,6.28,0,0,0,2,6.48,11.73,11.73,0,0,0,2.6,1.84,19.49,19.49,0,0,0,2.82,1.24,21.22,21.22,0,0,0,2.93.82,26.7,26.7,0,0,0,3,.45,49.12,49.12,0,0,0,11.81-.34,39.28,39.28,0,0,0,5.82-1.31,17.34,17.34,0,0,0,5.36-3,25.06,25.06,0,0,0,7.12-9.57,12.5,12.5,0,0,0,.55-1.41,12,12,0,0,0,.44-1.45c.27-1,.47-1.91.67-2.87s.4-2,.59-3.07l.32.07c22.75,4.9,46.19,7.78,69.48,6.66A158.18,158.18,0,0,0,384.12,419c2.24-.58,4.46-1.23,6.67-1.93a28.42,28.42,0,0,0,3.17,7.31,21.75,21.75,0,0,0,8.19,8c.44.21.88.45,1.34.62l.69.28.7.23c.94.3,1.84.5,2.77.71a50.13,50.13,0,0,0,5.58.86,46.31,46.31,0,0,0,11.33-.32A23.23,23.23,0,0,0,430.1,433a14.18,14.18,0,0,0,2.58-1.54,8.69,8.69,0,0,0,2.19-2.32,6.54,6.54,0,0,0,1-3.22,4.84,4.84,0,0,0-1.16-3.36,8,8,0,0,0-2.59-1.91,28.21,28.21,0,0,0-2.66-1.13,19.06,19.06,0,0,1-4.67-2.19,4.64,4.64,0,0,1-.78-.75,2,2,0,0,1-.42-.81,4.13,4.13,0,0,1-.1-.44l.86.08a141.4,141.4,0,0,0,21.19.06c5.56-.3,11.61-.37,17-1.79,4.09-1.08,2.59-5.49.27-8-3.66-4-9.54-4.72-14.51-6l-.47-.14c.33-.21.63-.44.78-.52Q450.74,397.77,452.79,396.45,7.4,15.15a139.56,139.56,0,0,1-19.05,1.56c-5.87.2-12.06.51-17.92-.35-.13-3.43,0-7,.26-10.46.23-3.66.52-7.31.86-11,.7-7.31,1.55-14.61,2.69-21.86.55-3.63,1.18-7.25,2-10.83.4-1.79.86-3.57,1.43-5.31a24.1,24.1,0,0,1,1-2.57,9.33,9.33,0,0,1,.64-1.21,5.14,5.14,0,0,1,.84-1.08q-.19.18-.39.39a3.28,3.28,0,0,0-.53.64,7.92,7.92,0,0,0-.72,1.18,24,24,0,0,0-1.15,2.53c-.66,1.72-1.21,3.49-1.71,5.27-1,3.56-1.81,7.16-2.55,10.78-1.42,7.24-2.53,14.54-3.4,21.87-.45,3.66-.83,7.33-1.11,11a108.58,108.58,0,0,0-.42,11.16c0,.48,0,1,.1,1.47a9.51,9.51,0,0,0,.27,1.53,4.59,4.59,0,0,0,.33.86,5.89,5.89,0,0,0,.5.76,6.57,6.57,0,0,0,1.19,1.17,21.14,21.14,0,0,0,5.26,2.55c1.67.65,3.38,1.34,4.25,2.37a2.16,2.16,0,0,1,.46.8,2.38,2.38,0,0,1,.12.94,4,4,0,0,1-.61,2,6.77,6.77,0,0,1-1.73,1.78,5.45,5.45,0,0,0-.23-3.53,6.6,6.6,0,0,0-2.73-3.23,9,9,0,0,0-1.92-.77,13.34,13.34,0,0,0-1.86-.42,15.43,15.43,0,0,0-3.81-.26,16,16,0,0,0,3.21,2.08c.54.29,1.16.53,1.64.78a16,16,0,0,1,1.48.69,8.65,8.65,0,0,1,2.32,2.06,11.21,11.21,0,0,1,1.72,3.09l-.23-.2a13,13,0,0,1-1.59.89,20.13,20.13,0,0,1-4.94,1.61,38.82,38.82,0,0,1-3.92.41,2.62,2.62,0,0,0,.64-1.21,3.6,3.6,0,0,0-.21-2.07,7.25,7.25,0,0,0-2.46-2.88A10.77,10.77,0,0,0,415,425a8.21,8.21,0,0,0-3.56-.36c.94.81,1.84,1.44,2.71,2.08l2.56,1.88a15.93,15.93,0,0,1,2.25,1.87,3.27,3.27,0,0,1,.68,1.14,2.54,2.54,0,0,1,.07,1.56h0l-.3-.31a51.85,51.85,0,0,1-6-.1,45.54,45.54,0,0,1-5.33-.74c-.86-.18-1.77-.37-2.59-.62l-.61-.18-.6-.23c-.4-.15-.78-.35-1.17-.53a20.35,20.35,0,0,1-7.56-7.11,26.78,26.78,0,0,1-2.44-4.73,30.8,30.8,0,0,1-1.5-5.15c-.75-3.54-1.07-7.22-1.68-10.88-.31-1.83-.72-3.63-1.09-5.43s-.76-3.61-1.25-5.4a31.41,31.41,0,0,0-2-5.17c-.77-1.67-1.5-3.36-2.22-5.06h0c.6,1.74,1.22,3.48,1.88,5.2a31.91,31.91,0,0,1,1.75,5.18c.39,1.78.67,3.6,1,5.42s.6,3.63.81,5.44c.46,3.62.66,7.31,1.29,11,.05.31.12.62.17.92q-3.93,1.26-7.94,2.24c-21.55,5.31-44.22,5.26-66.17,2.9a315.35,315.35,0,0,1-33-5.44,1.7,1.7,0,0,1,0-.22c.66-3.79,1.32-7.58,2.13-11.33a112.43,112.43,0,0,1,2.85-11.15c.56-1.83,1.24-3.63,2-5.41.39-.87.76-1.76,1.17-2.63l1.34-2.56a49.29,49.29,0,0,0-5.08,10.39,113.52,113.52,0,0,0-3.41,11.09c-.95,3.75-1.74,7.53-2.54,11.3-.4,1.88-.78,3.77-1.21,5.63-.22.92-.44,1.85-.7,2.74-.12.46-.28.88-.43,1.3a11.51,11.51,0,0,1-.54,1.27,25.12,25.12,0,0,1-2.87,4.75,20.33,20.33,0,0,1-3.83,3.92,15,15,0,0,1-4.73,2.53,37.08,37.08,0,0,1-5.47,1.14,48.54,48.54,0,0,1-8.69.42l-.3.31a2.61,2.61,0,0,1,.07-1.56,3.35,3.35,0,0,1,.69-1.14,15.38,15.38,0,0,1,2.25-1.87l2.56-1.88c.87-.64,1.77-1.28,2.7-2.08a8.07,8.07,0,0,0-3.56.36,10.86,10.86,0,0,0-3.17,1.64,7.25,7.25,0,0,0-2.45,2.89,3.44,3.44,0,0,0-.21,2.07,2.44,2.44,0,0,0,.63,1.2c-.58,0-1.17-.06-1.76-.11a21.28,21.28,0,0,1-2.71-.42,20.19,20.19,0,0,1-2.63-.75,15.57,15.57,0,0,1-2.46-1.09q-.45-.25-.87-.54l-.24.21a11.07,11.07,0,0,1,1.72-3.09,8.47,8.47,0,0,1,2.31-2.06c.4-.26,1-.44,1.48-.69s1.11-.49,1.65-.78a16,16,0,0,0,3.21-2.08,15.52,15.52,0,0,0-3.82.25,14.88,14.88,0,0,0-1.85.43,8.76,8.76,0,0,0-1.92.77,6.62,6.62,0,0,0-2.74,3.23,5.52,5.52,0,0,0-.23,3.51,8.54,8.54,0,0,1-.79-.65,5,5,0,0,1-1.32-1.88l-.15-.51a3.6,3.6,0,0,1-.07-.55,2.44,2.44,0,0,1,.12-.95c.37-1.16,2-2.05,3.75-2.76.87-.37,1.77-.73,2.69-1.16a11.85,11.85,0,0,0,2.73-1.64,6.24,6.24,0,0,0,1.2-1.3,4.92,4.92,0,0,0,.45-.81,3.83,3.83,0,0,0,.17-.43l.13-.38a14,14,0,0,0,.55-3.08c.15-2,.1-3.95.08-5.88s0-3.84,0-5.76c0-3.85,0-7.72-.07-11.58a136.93,136.93,0,0,0-2.14-23.11,56.9,56.9,0,0,0-3.33-11.14,29.71,29.71,0,0,0-2.8-5.1,18.48,18.48,0,0,0-4-4.21,18.46,18.46,0,0,1,3.67,4.41,30.51,30.51,0,0,1,2.5,5.14,56.43,56.43,0,0,1,2.76,11.11A149.87,149.87,0,0,1,249,395c0,3.84-.11,7.68-.17,11.53,0,1.93-.05,3.87-.06,5.8s0,3.85-.16,5.66v0c-1.1.05-2.22,0-3.24.06a152.3,152.3,0,0,1-17.49-.3c-3.1-.25-14-.56-15-4.78-.92-3.7,11.24-5.38,13.71-6.89,1.07-.65,1.92-1.43,1.08-2.69-.51-.77-2.13-1-2.87-1.31a53.66,53.66,0,0,1-7-3.46c-29.69-17.42-30.85-57.46-27.9-87.79.89-9.12,2.27-18.19,3.91-27.2.4-2.13.84-4.25,1.27-6.38.24.34.47.68.73,1,8.93,11,22.83,13,36.08,10.45,15.68-3.06,28.91-12.2,35.48-27.08.17-.38-.09-2.1-.26-1.73-5.34,11.83-15.6,20-27.91,23.72-11.64,3.51-25.2,5-35.89-1.79-4.29-2.73-8.23-6.37-10.12-11.17-3.28-8.31-2.17-17.46.46-25.77A72,72,0,0,1,211.73,215c8.9-9,19.15-16.63,26.84-26.74.27-.34-.07-1.79-.14-1.72-6.78,7.6-14.65,14.05-22.1,21a371.61,371.61,0,0,1,30.89-59.11c12.3-19.09,26.91-37.83,46.94-49.29A77.49,77.49,0,0,1,352,91.27c18.78,4.74,35.69,15.5,49.51,28.88,15.58,15.07,25.54,33.13,35.11,52.34q6.32,12.64,12.27,25.49c-4.46-4.91-9-9.74-13.36-14.69,0,0-.33,1.37-.06,1.73,7.17,9.45,15.54,17.92,23.06,27.09,7.94,9.7,14.4,20.1,18.42,32,4.38,13,4.57,28.19-7.4,37-10.07,7.37-22.18,6.93-33.9,4.18-13.94-3.26-25.83-11.49-31.82-24.77-.16-.35-.35,1.34-.18,1.74a46.06,46.06,0,0,0,28.79,25.41c12.81,3.87,26.82,4.45,37.83-4a25.79,25.79,0,0,0,7.37-8.87,234,234,0,0,1,7.21,37.79c1.84,18.56,0,38.06-8.63,54.83a70.25,70.25,0,0,1-17.73,22c-4,3.29-8.6,5.43-12.75,8.42-1,.7-2,1.43-1.29,2.75.54,1,2.24,1.25,3.21,1.49,2.43.62,4.9,1,7.28,1.84,2.62.88,5.65,2.17,7,4.74C463.39,411.29,463,411.1,460.19,411.6,180.61,375.44a32.84,32.84,0,0,1-9.51-3.34,31.2,31.2,0,0,1-8.08-6,27.16,27.16,0,0,1-5.45-8.38,34.52,34.52,0,0,1-1.45-19.87,42.71,42.71,0,0,1,3.13-9.63,34.81,34.81,0,0,1,2.94-5.1,35.37,35.37,0,0,0-.87,11.22,37.54,37.54,0,0,0,4.27,14.84,24.63,24.63,0,0,0,11,10.85,23,23,0,0,0,13.07,1.77,78.22,78.22,0,0,0,4.51,13.32c-1.13.25-2.28.46-3.44.6A33.74,33.74,0,0,1,180.61,375.44,33-223.37c11.17-17.51,26.69-34,41.51-44,17-11.52,30.56-14.56,40.15-14.56a40.82,40.82,0,0,1,4.13.2c-12,5.59-22.63,14-31.76,23.72-16.54,17.64-29.32,39.12-40.36,60.51q-7.8,15.1-14.19,30.86c-6.86-1.78-11.23-5.62-13-11.51C197,187,201.9,170.49,213.64,152.07,200.19-44c14.82,10,30.33,26.49,41.51,44,11.74,18.42,16.68,34.9,13.54,45.22-1.61,5.31-5.32,9-11.06,10.93q-1.74-2.1-3.52-4.14L453,201.17c-5.38-11.89-11.09-23.63-17-35.28-5-9.83-9.94-19.56-16.41-28.51-11.53-15.93-26.35-29.79-43.68-39.22q-4.2-2.28-8.6-4.18l.32,0C384.89,91.43,402.28,100.24,413.83,108.07Z"/><path d="M338.67,328.5c-23.56,2.27-47.86-6.38-63.87-23.94,0,0-.17.61,0,.77,16,17.76,40.23,26.78,63.93,24.71,24.15-2.11,46.52-15.4,61.49-34.21.22-.28-.08-1.36-.11-1.32C384.71,313,362.86,326.17,338.67,328.5Z"/><path d="M383.49,318.68C360.41,342.39,318,348.86,292,326.47c-.05,0-.23.82,0,1,25.9,22.51,69,17.29,91.63-7.56C383.8,319.67,383.54,318.62,383.49,318.68Z"/><path d="M364.32,339.39c-14.65,11.7-38.81,13.35-54.78,3.49-.1-.07-.27,1,0,1.14,16.06,9.91,40.28,8.73,54.92-3.37C364.66,340.45,364.41,339.31,364.32,339.39Z"/>            </clipPath>        </defs>        <g clip-path="url(#outline)">            <rect fill="#B4D2F4" width="640" height="480" />        </g>    </g>    <g id="pattern">        <g clip-path="url(#outline)">            <path fill="#FFFFD2" opacity="0"  d="M192.42,300s-7.44,9.69-3.87,19.35C188.55,319.35,195.87,310.57,192.42,300Z"/><path fill="#FFFFD2" opacity="0"  d="M185.52,338.51s-10.13,12.92-5.46,26C180.06,364.47,190,352.76,185.52,338.51Z"/><path fill="#FFFFD2" opacity="0"  d="M205.79,334.88s-8.34,9.82-5.08,20.19C200.71,355.07,208.87,346.19,205.79,334.88Z"/><path fill="#FFFFD2" opacity="0"  d="M238.56,282.25s-9.82,13.15-4.84,26.08C233.72,308.33,243.39,296.38,238.56,282.25Z"/><path fill="#FFFFD2" opacity="0"  d="M196.2,255.65s-6.65,7.75-4.1,16C192.1,271.62,198.6,264.62,196.2,255.65Z"/><path fill="#FFFFD2" opacity="0"  d="M250.17,346.4s-6.9,12.06-1.38,22.4C248.79,368.8,255.68,357.77,250.17,346.4Z"/><path fill="#FFFFD2" opacity="0"  d="M233.29,367.58s-8.14,14.25-1.63,26.47C231.66,394.05,239.81,381,233.29,367.58Z"/><path fill="#FFFFD2" opacity="0"  d="M290.72,386.72s-8.15,14.26-1.63,26.47C289.09,413.19,297.23,400.16,290.72,386.72Z"/><path fill="#FFFFD2" opacity="0"  d="M276.46,304.45s-8.14,14.26-1.63,26.47C274.83,330.92,283,317.89,276.46,304.45Z"/><path fill="#FFFFD2" opacity="0"  d="M330.38,332.47s-5.57,15.45,2.95,26.36C333.33,358.83,339.11,344.59,330.38,332.47Z"/><path fill="#FFFFD2" opacity="0"  d="M307.42,342.33s-8.15,14.25-1.63,26.47C305.79,368.8,313.93,355.77,307.42,342.33Z"/><path fill="#FFFFD2" opacity="0"  d="M344.92,284.69s-4.46,15.8,4.82,26.08C349.74,310.77,354.49,296.16,344.92,284.69Z"/><path fill="#FFFFD2" opacity="0"  d="M357.75,336.32s-5.19,15.57,3.6,26.27C361.35,362.59,366.78,348.22,357.75,336.32Z"/><path fill="#FFFFD2" opacity="0"  d="M328.12,391.47s-3.5,11.95,3.46,19.83C331.58,411.3,335.3,400.25,328.12,391.47Z"/><path fill="#FFFFD2" opacity="0"  d="M387.8,336.74s-5.08,15.61,3.77,26.25C391.57,363,396.91,348.58,387.8,336.74Z"/><path fill="#FFFFD2" opacity="0"  d="M424.64,337.74s-3.83,16,5.85,25.87C430.49,363.61,434.66,348.82,424.64,337.74Z"/><path fill="#FFFFD2" opacity="0"  d="M404.32,246s-4.38,15.83,4.95,26.06C409.27,272.07,414,257.43,404.32,246Z"/><path fill="#FFFFD2" opacity="0"  d="M380.21,287.14S377,299.62,384.5,307.5C384.5,307.5,387.94,296,380.21,287.14Z"/><path fill="#FFFFD2" opacity="0"  d="M413.81,298.35s-2.63,9.65,3.07,15.87C416.88,314.22,419.7,305.29,413.81,298.35Z"/><path fill="#FFFFD2" opacity="0"  d="M437.45,315s-2.66,9.65,3,15.88C440.49,330.92,443.33,322,437.45,315Z"/><path fill="#FFFFD2" opacity="0"  d="M309.64,286s-6,10.43-1.19,19.36C308.45,305.37,314.41,295.84,309.64,286Z"/>            <g opacity="0.6" ><path fill="#DDDDDD"  d="M286.24,418.84c2.35-25.61,9-59.28,49.93-60,40.34-.72,47.32,29.13,49.77,58.62.12,1.49,1.16.46-.05,1.63-1.38,1.32-6.5,1.94-9.42,2.8-13.77,4.06-27,4.48-42.76,4.36-16.09-.12-32.38-4.21-47-7.41"/></g>        </g>    </g>    <g id="mask">        <path fill="#2d2926"  d="M213.56,210.2a355,355,0,0,1,14.69-32.5c11-21.26,23.72-42.6,40.14-60.17,10.31-11,21.63-19.6,35.51-25.11-11-2.19-26.86-1.57-49.24,13.6-30.73,20.82-63.28,68.38-56,92.15C200.9,205.71,207.25,208.4,213.56,210.2Z"/><g opacity="0.1" ><path d="M485.51,334.54c.23,1.7-3.52,6.77-4.44,8.49-1.83,3.4-3.71,6.78-5.7,10.08a108.63,108.63,0,0,1-13.27,18.12A63,63,0,0,1,451,380.69a59.81,59.81,0,0,1-6.28,3.67,33.35,33.35,0,0,1-5.55,2.51c-4,1.16-6.17-2.21-7.35-5.52a39.48,39.48,0,0,1-2.34-17.54A119.55,119.55,0,0,1,432,349.39l-1.94,4.49c-3.08,11.13-4.6,22.56-6.05,34a4.58,4.58,0,0,0,.26,2.19,3.53,3.53,0,0,0-.88.73c-2.06,2.52-.69,11.1-.81,14.31a.64.64,0,0,0,.09.45c.16.19.46.14.69.07,8.49-2.29,16.42-3.94,24.1-8.21,9.5-5.3,18.46-12.14,24.87-20.77a61.25,61.25,0,0,0,7.68-15.13C483.16,352.82,486.78,343.7,485.51,334.54Z"/></g><g opacity="0.1" ><path d="M246.88,148.34a612.54,612.54,0,0,0-33.1,62.91c8.38-5.8,13.8-13.69,21.7-20.06a7.16,7.16,0,0,1,2.93-3.51c8.64-16.15,18.87-31.16,29.1-46.64,10.81-16.34,17.68-34.19,32.7-46.78C276.51,107.37,262.08,122.84,246.88,148.34Z"/></g><g opacity="0.1" ><path d="M250.25,399.07c0-.15,0-.29,0-.43-17.15-5.78-32.41-19.19-39.86-35.48-4-8.82-6.15-18.92-6.21-30.42a373.79,373.79,0,0,1,2.94-47.53c-5.46-2.15-10.27-5.44-12.89-10.91a.27.27,0,0,1-.08-.07c-2.08,11.46-3.53,23-4.49,34.65-2,24.3-2.64,58.64,14.54,78.45,10,11.56,21.68,18.57,39.46,20.83,2.16.27,4.37.57,6.6.88C249.76,405.73,250.31,402.49,250.25,399.07Z"/></g><g opacity="0.1" ><path d="M390.18,411.22c-.7-9.29-.91-9.28-.9-9.28-5.31,1.25-9.09,4.25-14.4,5.48a160.1,160.1,0,0,1-19.48,2.95c-22.09,2.28-44.5.82-66.38-2.85a29.78,29.78,0,0,1-1.73-13.09,100.57,100.57,0,0,0-4,15.41,33,33,0,0,1-.63,4.66c0,.15-.08.3-.12.44,1.1.25,3.19.5,4.25.75,14.95,5.54,32.83,6.73,48.08,6.86,15.71.13,34.8-1.09,45.13-4.91,2.87-1.06,9.14-1.62,10.5-3.05C391.71,413.32,390.3,412.83,390.18,411.22Z"/></g><g opacity="0.1" ><path fill="#fff"  d="M480.63,289.33q-1.54-8.4-3.58-16.68a19.76,19.76,0,0,1-8.87,11.21c2.5,11.55,4.49,23.21,6.07,34.92,1.4,10.34,4.07,22.69-2.47,31.88,4.28-6,9.86-10.61,11.34-14.66C488.39,321.62,483.31,303.82,480.63,289.33Z"/></g><path fill="#2d2926"  d="M376.41,99.41C393.86,109,408.2,123,419.73,139.13c6.56,9.19,10.9,18.71,15.95,28.77,5.92,11.76,11.19,22.71,16.58,34.72,1.24,2.76,4.58,4.42,5.79,7.19,6.09-1.85,10-4.78,12.24-12.11,7.23-23.77-25.09-70.54-55.82-91.36-23.6-16-40.32-15.9-51.21-13.22A107.1,107.1,0,0,1,376.41,99.41Z"/>        <g opacity="0.1" ><path fill="#fff"  d="M453.7,203.8c-11.28-27.21-25.53-53.08-44.83-75.49-16.21-18.84-29.22-25.15-29.44-25.34,6.06,5.3,10.42,13.69,14.49,20.5,13.25,22.2,26.95,45.74,44.62,65,4.78,5.2,10.2,9.29,14.09,15.33.63,1,1.23,2,1.81,3C453.38,204.15,454.78,206.41,453.7,203.8Z"/></g><g opacity="0.1" ><path fill="#fff"  d="M481.6,289.23c-1-5.6-3.2-11.06-4.55-16.58a19.71,19.71,0,0,1-8.87,11.2c2.5,11.56,4.49,23.21,6.07,34.93,1.4,10.33,4.07,22.69-2.47,31.88,4.28-6,9.86-10.61,11.34-14.66C488.39,321.61,484.27,303.72,481.6,289.23Z"/></g>    </g>    <g id="outline">        <path d="M452.79,396.45a74.64,74.64,0,0,0,11.24-8.8c13.41-12.74,20.76-30.16,23-48.33,2.74-21.85-1.67-43.92-7.23-65-.26-1-.53-2-.8-2.95C484.77,254.69,475,232,466,218.91c-2.06-3-4.26-5.89-6.55-8.72,5.27-2,9.82-5.7,11.79-12.19,7.21-23.69-25.32-71.16-56-92-12-8.11-30-17.2-48.08-14.51-1.38.21-2.68.47-3.89.77-13.05-5-27.1-7.16-41.07-5.33a76.35,76.35,0,0,0-18.43,4.89c-.61-.12-1.23-.23-1.87-.33-18.07-2.69-36.12,6.4-48.09,14.51-30.69,20.8-63.22,68.27-56,92,2.29,7.56,8.08,11.31,14.44,13.06-.09.21-.19.43-.27.64-.58.58-1.17,1.14-1.74,1.72a71.11,71.11,0,0,0-18.36,34c-1.89,8.09-2.48,18.7,1.32,26.7q-.93,4.44-1.77,8.91c-3.19,17.56-5.52,35.46-5,53.34a124.13,124.13,0,0,0,2.93,24.35,21.68,21.68,0,0,1-12.22-1.83,23.68,23.68,0,0,1-10.27-10.33,36.35,36.35,0,0,1-4-14.28A30.84,30.84,0,0,1,165,319.67l1.67-3.79-2.92,2.93a30.86,30.86,0,0,0-5.92,8.75,43.78,43.78,0,0,0-3.3,10,36.18,36.18,0,0,0,1.62,20.78,28.54,28.54,0,0,0,5.8,8.83,32.61,32.61,0,0,0,8.47,6.25,34.12,34.12,0,0,0,20.45,3.69,38.08,38.08,0,0,0,3.86-.73,63.27,63.27,0,0,0,3.75,6.85,52.62,52.62,0,0,0,21.1,19.2c.91.46,1.84.89,2.78,1.31a11.42,11.42,0,0,0,1.25.53l.49.2c-.49.15-1,.36-1.45.52-1.7.58-3.42,1.11-5.11,1.72-3.3,1.19-9.11,3.11-6.74,7.74,2.06,4,8.64,4.75,12.49,5.28a123.81,123.81,0,0,0,19.35.87c1.4,0,3.42.1,5.44,0a3.91,3.91,0,0,1-.43.94,4.48,4.48,0,0,1-.77.81,20.81,20.81,0,0,1-4.84,2.41,16.84,16.84,0,0,0-2.77,1.41,5.55,5.55,0,0,0-2.33,2.74,6.28,6.28,0,0,0,2,6.48,11.73,11.73,0,0,0,2.6,1.84,19.49,19.49,0,0,0,2.82,1.24,21.22,21.22,0,0,0,2.93.82,26.7,26.7,0,0,0,3,.45,49.12,49.12,0,0,0,11.81-.34,39.28,39.28,0,0,0,5.82-1.31,17.34,17.34,0,0,0,5.36-3,25.06,25.06,0,0,0,7.12-9.57,12.5,12.5,0,0,0,.55-1.41,12,12,0,0,0,.44-1.45c.27-1,.47-1.91.67-2.87s.4-2,.59-3.07l.32.07c22.75,4.9,46.19,7.78,69.48,6.66A158.18,158.18,0,0,0,384.12,419c2.24-.58,4.46-1.23,6.67-1.93a28.42,28.42,0,0,0,3.17,7.31,21.75,21.75,0,0,0,8.19,8c.44.21.88.45,1.34.62l.69.28.7.23c.94.3,1.84.5,2.77.71a50.13,50.13,0,0,0,5.58.86,46.31,46.31,0,0,0,11.33-.32A23.23,23.23,0,0,0,430.1,433a14.18,14.18,0,0,0,2.58-1.54,8.69,8.69,0,0,0,2.19-2.32,6.54,6.54,0,0,0,1-3.22,4.84,4.84,0,0,0-1.16-3.36,8,8,0,0,0-2.59-1.91,28.21,28.21,0,0,0-2.66-1.13,19.06,19.06,0,0,1-4.67-2.19,4.64,4.64,0,0,1-.78-.75,2,2,0,0,1-.42-.81,4.13,4.13,0,0,1-.1-.44l.86.08a141.4,141.4,0,0,0,21.19.06c5.56-.3,11.61-.37,17-1.79,4.09-1.08,2.59-5.49.27-8-3.66-4-9.54-4.72-14.51-6l-.47-.14c.33-.21.63-.44.78-.52Q450.74,397.77,452.79,396.45Zm7.4,15.15a139.56,139.56,0,0,1-19.05,1.56c-5.87.2-12.06.51-17.92-.35-.13-3.43,0-7,.26-10.46.23-3.66.52-7.31.86-11,.7-7.31,1.55-14.61,2.69-21.86.55-3.63,1.18-7.25,2-10.83.4-1.79.86-3.57,1.43-5.31a24.1,24.1,0,0,1,1-2.57,9.33,9.33,0,0,1,.64-1.21,5.14,5.14,0,0,1,.84-1.08q-.19.18-.39.39a3.28,3.28,0,0,0-.53.64,7.92,7.92,0,0,0-.72,1.18,24,24,0,0,0-1.15,2.53c-.66,1.72-1.21,3.49-1.71,5.27-1,3.56-1.81,7.16-2.55,10.78-1.42,7.24-2.53,14.54-3.4,21.87-.45,3.66-.83,7.33-1.11,11a108.58,108.58,0,0,0-.42,11.16c0,.48,0,1,.1,1.47a9.51,9.51,0,0,0,.27,1.53,4.59,4.59,0,0,0,.33.86,5.89,5.89,0,0,0,.5.76,6.57,6.57,0,0,0,1.19,1.17,21.14,21.14,0,0,0,5.26,2.55c1.67.65,3.38,1.34,4.25,2.37a2.16,2.16,0,0,1,.46.8,2.38,2.38,0,0,1,.12.94,4,4,0,0,1-.61,2,6.77,6.77,0,0,1-1.73,1.78,5.45,5.45,0,0,0-.23-3.53,6.6,6.6,0,0,0-2.73-3.23,9,9,0,0,0-1.92-.77,13.34,13.34,0,0,0-1.86-.42,15.43,15.43,0,0,0-3.81-.26,16,16,0,0,0,3.21,2.08c.54.29,1.16.53,1.64.78a16,16,0,0,1,1.48.69,8.65,8.65,0,0,1,2.32,2.06,11.21,11.21,0,0,1,1.72,3.09l-.23-.2a13,13,0,0,1-1.59.89,20.13,20.13,0,0,1-4.94,1.61,38.82,38.82,0,0,1-3.92.41,2.62,2.62,0,0,0,.64-1.21,3.6,3.6,0,0,0-.21-2.07,7.25,7.25,0,0,0-2.46-2.88A10.77,10.77,0,0,0,415,425a8.21,8.21,0,0,0-3.56-.36c.94.81,1.84,1.44,2.71,2.08l2.56,1.88a15.93,15.93,0,0,1,2.25,1.87,3.27,3.27,0,0,1,.68,1.14,2.54,2.54,0,0,1,.07,1.56h0l-.3-.31a51.85,51.85,0,0,1-6-.1,45.54,45.54,0,0,1-5.33-.74c-.86-.18-1.77-.37-2.59-.62l-.61-.18-.6-.23c-.4-.15-.78-.35-1.17-.53a20.35,20.35,0,0,1-7.56-7.11,26.78,26.78,0,0,1-2.44-4.73,30.8,30.8,0,0,1-1.5-5.15c-.75-3.54-1.07-7.22-1.68-10.88-.31-1.83-.72-3.63-1.09-5.43s-.76-3.61-1.25-5.4a31.41,31.41,0,0,0-2-5.17c-.77-1.67-1.5-3.36-2.22-5.06h0c.6,1.74,1.22,3.48,1.88,5.2a31.91,31.91,0,0,1,1.75,5.18c.39,1.78.67,3.6,1,5.42s.6,3.63.81,5.44c.46,3.62.66,7.31,1.29,11,.05.31.12.62.17.92q-3.93,1.26-7.94,2.24c-21.55,5.31-44.22,5.26-66.17,2.9a315.35,315.35,0,0,1-33-5.44,1.7,1.7,0,0,1,0-.22c.66-3.79,1.32-7.58,2.13-11.33a112.43,112.43,0,0,1,2.85-11.15c.56-1.83,1.24-3.63,2-5.41.39-.87.76-1.76,1.17-2.63l1.34-2.56a49.29,49.29,0,0,0-5.08,10.39,113.52,113.52,0,0,0-3.41,11.09c-.95,3.75-1.74,7.53-2.54,11.3-.4,1.88-.78,3.77-1.21,5.63-.22.92-.44,1.85-.7,2.74-.12.46-.28.88-.43,1.3a11.51,11.51,0,0,1-.54,1.27,25.12,25.12,0,0,1-2.87,4.75,20.33,20.33,0,0,1-3.83,3.92,15,15,0,0,1-4.73,2.53,37.08,37.08,0,0,1-5.47,1.14,48.54,48.54,0,0,1-8.69.42l-.3.31a2.61,2.61,0,0,1,.07-1.56,3.35,3.35,0,0,1,.69-1.14,15.38,15.38,0,0,1,2.25-1.87l2.56-1.88c.87-.64,1.77-1.28,2.7-2.08a8.07,8.07,0,0,0-3.56.36,10.86,10.86,0,0,0-3.17,1.64,7.25,7.25,0,0,0-2.45,2.89,3.44,3.44,0,0,0-.21,2.07,2.44,2.44,0,0,0,.63,1.2c-.58,0-1.17-.06-1.76-.11a21.28,21.28,0,0,1-2.71-.42,20.19,20.19,0,0,1-2.63-.75,15.57,15.57,0,0,1-2.46-1.09q-.45-.25-.87-.54l-.24.21a11.07,11.07,0,0,1,1.72-3.09,8.47,8.47,0,0,1,2.31-2.06c.4-.26,1-.44,1.48-.69s1.11-.49,1.65-.78a16,16,0,0,0,3.21-2.08,15.52,15.52,0,0,0-3.82.25,14.88,14.88,0,0,0-1.85.43,8.76,8.76,0,0,0-1.92.77,6.62,6.62,0,0,0-2.74,3.23,5.52,5.52,0,0,0-.23,3.51,8.54,8.54,0,0,1-.79-.65,5,5,0,0,1-1.32-1.88l-.15-.51a3.6,3.6,0,0,1-.07-.55,2.44,2.44,0,0,1,.12-.95c.37-1.16,2-2.05,3.75-2.76.87-.37,1.77-.73,2.69-1.16a11.85,11.85,0,0,0,2.73-1.64,6.24,6.24,0,0,0,1.2-1.3,4.92,4.92,0,0,0,.45-.81,3.83,3.83,0,0,0,.17-.43l.13-.38a14,14,0,0,0,.55-3.08c.15-2,.1-3.95.08-5.88s0-3.84,0-5.76c0-3.85,0-7.72-.07-11.58a136.93,136.93,0,0,0-2.14-23.11,56.9,56.9,0,0,0-3.33-11.14,29.71,29.71,0,0,0-2.8-5.1,18.48,18.48,0,0,0-4-4.21,18.46,18.46,0,0,1,3.67,4.41,30.51,30.51,0,0,1,2.5,5.14,56.43,56.43,0,0,1,2.76,11.11A149.87,149.87,0,0,1,249,395c0,3.84-.11,7.68-.17,11.53,0,1.93-.05,3.87-.06,5.8s0,3.85-.16,5.66v0c-1.1.05-2.22,0-3.24.06a152.3,152.3,0,0,1-17.49-.3c-3.1-.25-14-.56-15-4.78-.92-3.7,11.24-5.38,13.71-6.89,1.07-.65,1.92-1.43,1.08-2.69-.51-.77-2.13-1-2.87-1.31a53.66,53.66,0,0,1-7-3.46c-29.69-17.42-30.85-57.46-27.9-87.79.89-9.12,2.27-18.19,3.91-27.2.4-2.13.84-4.25,1.27-6.38.24.34.47.68.73,1,8.93,11,22.83,13,36.08,10.45,15.68-3.06,28.91-12.2,35.48-27.08.17-.38-.09-2.1-.26-1.73-5.34,11.83-15.6,20-27.91,23.72-11.64,3.51-25.2,5-35.89-1.79-4.29-2.73-8.23-6.37-10.12-11.17-3.28-8.31-2.17-17.46.46-25.77A72,72,0,0,1,211.73,215c8.9-9,19.15-16.63,26.84-26.74.27-.34-.07-1.79-.14-1.72-6.78,7.6-14.65,14.05-22.1,21a371.61,371.61,0,0,1,30.89-59.11c12.3-19.09,26.91-37.83,46.94-49.29A77.49,77.49,0,0,1,352,91.27c18.78,4.74,35.69,15.5,49.51,28.88,15.58,15.07,25.54,33.13,35.11,52.34q6.32,12.64,12.27,25.49c-4.46-4.91-9-9.74-13.36-14.69,0,0-.33,1.37-.06,1.73,7.17,9.45,15.54,17.92,23.06,27.09,7.94,9.7,14.4,20.1,18.42,32,4.38,13,4.57,28.19-7.4,37-10.07,7.37-22.18,6.93-33.9,4.18-13.94-3.26-25.83-11.49-31.82-24.77-.16-.35-.35,1.34-.18,1.74a46.06,46.06,0,0,0,28.79,25.41c12.81,3.87,26.82,4.45,37.83-4a25.79,25.79,0,0,0,7.37-8.87,234,234,0,0,1,7.21,37.79c1.84,18.56,0,38.06-8.63,54.83a70.25,70.25,0,0,1-17.73,22c-4,3.29-8.6,5.43-12.75,8.42-1,.7-2,1.43-1.29,2.75.54,1,2.24,1.25,3.21,1.49,2.43.62,4.9,1,7.28,1.84,2.62.88,5.65,2.17,7,4.74C463.39,411.29,463,411.1,460.19,411.6ZM180.61,375.44a32.84,32.84,0,0,1-9.51-3.34,31.2,31.2,0,0,1-8.08-6,27.16,27.16,0,0,1-5.45-8.38,34.52,34.52,0,0,1-1.45-19.87,42.71,42.71,0,0,1,3.13-9.63,34.81,34.81,0,0,1,2.94-5.1,35.37,35.37,0,0,0-.87,11.22,37.54,37.54,0,0,0,4.27,14.84,24.63,24.63,0,0,0,11,10.85,23,23,0,0,0,13.07,1.77,78.22,78.22,0,0,0,4.51,13.32c-1.13.25-2.28.46-3.44.6A33.74,33.74,0,0,1,180.61,375.44Zm33-223.37c11.17-17.51,26.69-34,41.51-44,17-11.52,30.56-14.56,40.15-14.56a40.82,40.82,0,0,1,4.13.2c-12,5.59-22.63,14-31.76,23.72-16.54,17.64-29.32,39.12-40.36,60.51q-7.8,15.1-14.19,30.86c-6.86-1.78-11.23-5.62-13-11.51C197,187,201.9,170.49,213.64,152.07Zm200.19-44c14.82,10,30.33,26.49,41.51,44,11.74,18.42,16.68,34.9,13.54,45.22-1.61,5.31-5.32,9-11.06,10.93q-1.74-2.1-3.52-4.14L453,201.17c-5.38-11.89-11.09-23.63-17-35.28-5-9.83-9.94-19.56-16.41-28.51-11.53-15.93-26.35-29.79-43.68-39.22q-4.2-2.28-8.6-4.18l.32,0C384.89,91.43,402.28,100.24,413.83,108.07Z"/><path d="M338.67,328.5c-23.56,2.27-47.86-6.38-63.87-23.94,0,0-.17.61,0,.77,16,17.76,40.23,26.78,63.93,24.71,24.15-2.11,46.52-15.4,61.49-34.21.22-.28-.08-1.36-.11-1.32C384.71,313,362.86,326.17,338.67,328.5Z"/><path d="M383.49,318.68C360.41,342.39,318,348.86,292,326.47c-.05,0-.23.82,0,1,25.9,22.51,69,17.29,91.63-7.56C383.8,319.67,383.54,318.62,383.49,318.68Z"/><path d="M364.32,339.39c-14.65,11.7-38.81,13.35-54.78,3.49-.1-.07-.27,1,0,1.14,16.06,9.91,40.28,8.73,54.92-3.37C364.66,340.45,364.41,339.31,364.32,339.39Z"/>    </g>    <g id="eye">        <g id="eye-color1">            <g opacity="0" ><path fill="#B4D2F4"  d="M280,171.81c-.14.46-.2.94-.35,1.4a16,16,0,0,1-1.35,2.87c-.52.94-1,1.89-1.54,2.82-.24.42-.5.81-.77,1.21l-.43.61c-.09.12-.46.47-.46.6-.19.25-.39.5-.59.74-5.88,7-13.9,9.8-22.69,6.53-8.54-3.17-14.21-10.4-14.65-19.53a2.11,2.11,0,0,1,0-.58,23.28,23.28,0,0,1,19-21.81A18.86,18.86,0,0,1,267.64,148c-15.29-7.71-34.35-2.93-39.29,15.33a20.84,20.84,0,0,0-.67,6.53,29.42,29.42,0,0,0,10.48,20.23c8.6,7.09,21.5,6.67,31,1.77,7.18-3.69,10-12.6,10.92-20.45C280.1,171.55,280.05,171.68,280,171.81Z"/></g><g opacity="0" ><path fill="#B4D2F4"  d="M403.77,165.74c-.24.62-.44,1.25-.7,1.87a24.28,24.28,0,0,1-2,3.66,31.67,31.67,0,0,1-2.54,3.43c-5.88,7-13.9,9.8-22.69,6.53-8.53-3.17-14.2-10.4-14.65-19.53a1.37,1.37,0,0,1,0-.29,2.64,2.64,0,0,1,0-.29,23.29,23.29,0,0,1,19-21.81,18.89,18.89,0,0,1,11.43,1.35c-15.3-7.71-34.36-2.93-39.3,15.33a20.54,20.54,0,0,0-.66,6.53,29.38,29.38,0,0,0,10.48,20.23c8.59,7.09,21.5,6.67,31,1.77,6.9-3.54,9.72-12,10.77-19.65C403.94,165.12,403.86,165.5,403.77,165.74Z"/></g>        </g>        <g id="eye-shape">            <path d="M399,132.29c-.4-4.85-25.25-7.51-47.46-7.58a58.06,58.06,0,0,0,9,1.38c-4,0-15.83.26-27.37.54,2.63,4,11.8,16.45,24.71,17.21C373.23,144.74,399.43,137.73,399,132.29Z"/><path d="M310.61,126.44c-21.88,2-45.75,6.6-45.75,11.4,0,5.46,27.06,12.06,42,8.1,13.85-3.67,21.16-15.39,23.23-19.24-12.24.31-23.33.61-23.33.61C308.1,127.07,309.38,126.77,310.61,126.44Z"/><path opacity="0.1"  d="M351.52,124.71a49.45,49.45,0,0,1-8.41-2.74,16.56,16.56,0,0,1-5,1.14,5.05,5.05,0,0,1-3.76-1.67c-2-2.09-2.71-5.89-3-9.11a15.74,15.74,0,0,1-.8-1.59.49.49,0,0,1,0,.11c.08,2,.13,8.44-2.51,11.25a4.31,4.31,0,0,1-3.2,1.41,15,15,0,0,1-4.75-1.21,35.11,35.11,0,0,1-9.51,4.14c7.22-.65,14.22-1,20.08-1,0,0-.21.46-.63,1.24l3.06-.07c-.5-.77-.77-1.23-.77-1.23C337.94,124.91,344.6,124.68,351.52,124.71Z"/><path d="M351.52,124.71c-6.92,0-13.58.2-19.17.69,0,0,.27.46.77,1.23,11.54-.28,23.35-.54,27.37-.54A58.06,58.06,0,0,1,351.52,124.71Z"/><path opacity="0.1"  d="M351.52,124.71c-6.92,0-13.58.2-19.17.69,0,0,.27.46.77,1.23,11.54-.28,23.35-.54,27.37-.54A58.06,58.06,0,0,1,351.52,124.71Z"/><path d="M310.61,126.44c-1.23.33-2.51.63-3.88.87,0,0,11.09-.3,23.33-.61.42-.78.63-1.24.63-1.24C324.83,125.43,317.83,125.79,310.61,126.44Z"/><path opacity="0.1"  d="M310.61,126.44c-1.23.33-2.51.63-3.88.87,0,0,11.09-.3,23.33-.61.42-.78.63-1.24.63-1.24C324.83,125.43,317.83,125.79,310.61,126.44Z"/><path fill="#3f221b"  d="M338.44,112.33a8.46,8.46,0,0,1-5-2.53c0,3.54.44,8,2,9.9a2.15,2.15,0,0,0,1.64.87c6.68.23,26-11.6,26.14-16a3.06,3.06,0,0,0-1.62-3,6.72,6.72,0,0,0-6.64.55C354.82,102.16,341.33,112.43,338.44,112.33Z"/><path d="M338.15,123.11a16.56,16.56,0,0,0,5-1.14c8.5-3,22.14-11.37,22.14-16.91a5.65,5.65,0,0,0-3.33-5.35,9.57,9.57,0,0,0-9.41,1.06c-3.46,2.76-12.16,8.69-14.05,9.32A21,21,0,0,1,334,106l-2.4-2.76-.23,3.65a39.44,39.44,0,0,0,.07,5.49c.26,3.22,1,7,3,9.11A5.05,5.05,0,0,0,338.15,123.11Zm22.47-20.7a2.7,2.7,0,0,1,1.63,2.65c0,3.94-17.79,15-24.1,15a2.05,2.05,0,0,1-1.57-.72c-1.58-1.68-2.12-5.58-2.26-8.73,1.48,1.38,3,2.46,4.14,2.46,2.73,0,15.8-9.91,15.92-10A6.67,6.67,0,0,1,360.62,102.41Z"/><path fill="#3f221b"  d="M326.13,121.22a1.3,1.3,0,0,0,1-.68c.93-1.43,1.14-4.55,1-7.5-1.12,1.36-2.08,2.09-2.89,2.16-2.41.24-14.31-8.44-14.42-8.53a4.5,4.5,0,0,0-3.09-.77,3.76,3.76,0,0,0-1.81.62,2.3,2.3,0,0,0-.94,2.34C305.36,112.47,321.15,121.71,326.13,121.22Z"/><path d="M328.07,122.1c2.64-2.81,2.59-9.3,2.51-11.25,0-.23,0-.41,0-.5l-.24-3.65-2.4,2.76a18,18,0,0,1-3.31,3.12c-1.69-.68-8.26-5.17-10.86-7.25a7.91,7.91,0,0,0-7.76-.87,4.83,4.83,0,0,0-2.8,4.51c0,4.29,10.11,10.69,16.93,13.33a15,15,0,0,0,4.75,1.21A4.31,4.31,0,0,0,328.07,122.1Zm-20.78-14.93a4.13,4.13,0,0,1,1.76-.36,4.71,4.71,0,0,1,2.83.87c.1.08,10.46,8,12.75,8a5.07,5.07,0,0,0,2.9-1.51c-.16,2.37-.65,4.85-1.65,5.92a1.3,1.3,0,0,1-1,.46c-4.71,0-18.68-8.63-18.68-11.54A1.81,1.81,0,0,1,307.29,107.17Z"/><path fill="#512c20"  d="M409.36,135.05c0,5.09-5.29,7.73-9.36,7.73a6.87,6.87,0,0,0-4.31,1.57,2.86,2.86,0,1,0,.95,2.12,3.18,3.18,0,0,0-.07-.62c2.84-2.89,5.38-1.49,8.86-3.4A7.72,7.72,0,0,0,409.36,135.05Z"/>        </g>        <g id="eye-color2">            <g opacity="0" ><path fill="#EFCA89"  d="M246,163.84c-.14.47-.2.95-.35,1.41a16.7,16.7,0,0,1-1.35,2.87c-.53.93-1,1.89-1.55,2.82a13.5,13.5,0,0,1-.76,1.2c-.14.21-.29.41-.44.62s-.45.46-.45.6c-.19.25-.39.49-.59.74-5.88,7-13.91,9.8-22.69,6.53-8.54-3.17-14.21-10.41-14.65-19.54a1.27,1.27,0,0,1,0-.28,1.36,1.36,0,0,1,0-.29,23.29,23.29,0,0,1,19-21.82,19,19,0,0,1,11.42,1.35c-15.3-7.7-34.35-2.93-39.3,15.34a21.07,21.07,0,0,0-.66,6.53,29.42,29.42,0,0,0,10.48,20.23c8.59,7.09,21.5,6.67,31,1.77,7.19-3.69,10-12.6,10.93-20.46C246.13,163.59,246.08,163.72,246,163.84Z"/></g><g opacity="0" ><path fill="#EFCA89"  d="M369.8,157.78c-.24.62-.44,1.25-.7,1.86a25.86,25.86,0,0,1-2,3.67,33.76,33.76,0,0,1-2.54,3.43c-5.88,7-13.9,9.8-22.69,6.53-8.54-3.17-14.21-10.4-14.65-19.54a1.23,1.23,0,0,1,0-.28.93.93,0,0,1,0-.29,23.29,23.29,0,0,1,19-21.82,19,19,0,0,1,11.42,1.35c-15.29-7.7-34.35-2.93-39.29,15.34a20.48,20.48,0,0,0-.66,6.53,29.34,29.34,0,0,0,10.48,20.23c8.59,7.09,21.5,6.67,31,1.77,6.9-3.55,9.72-12,10.77-19.66C370,157.15,369.89,157.53,369.8,157.78Z"/></g>        </g>    </g>    <g id="nose-mouth">        <path fill="#2d2821"  d="M355.4,202.68c-2.76-4.52-5.63-9.61-9.16-13.57-8.87-9.94-21.59-6.52-29.46,2.63a97.86,97.86,0,0,0-6.34,8.82c-3.09,5.19-6.86,14-4.2,19.86,4.82,10.66,18.92,11,28.6,8.55a89.85,89.85,0,0,1,10.63-1.56c2.27-.3,5-.36,7.12-1.16,2.51-.93,4-3.91,5.19-6.3C361,213.37,358.89,208.39,355.4,202.68Zm-27.37,24a28.45,28.45,0,0,1-15.58-11.22c-.92-1.31.69-2.55,1.9-2.06a2,2,0,0,1,.93-1.25c1.57-1,3.41.28,4.72,1.15a28.64,28.64,0,0,1,9.73,11.18A1.52,1.52,0,0,1,328,226.64Zm20-2.15c-1.3,1-3.07-.42-2.54-1.6a1.4,1.4,0,0,1-1-1.79,36.82,36.82,0,0,1,5.22-11.22,1.52,1.52,0,0,1,2.74.36A13.23,13.23,0,0,1,348,224.49Z"/><path d="M360.51,205.56a111.21,111.21,0,0,0-10.57-16.65c-9.74-12.7-25.47-10.73-35.3.73-.06.07-.1.14-.15.21l-.09.1c-2.69,3.57-5.59,7.06-7.66,11.05-2.83,5.45-5.74,13.35-3.74,19.46,4,12.18,19.55,14.2,30.24,12.06,4.9-1,9.75-1.75,14.73-2.45,6.66-.93,8.76-1.74,12.09-8C362.91,216.72,363.28,210.94,360.51,205.56Zm-7.92,20.69c-2.16.8-4.85.86-7.12,1.16A89.85,89.85,0,0,0,334.84,229c-9.68,2.47-23.78,2.11-28.6-8.55-2.66-5.87,1.11-14.67,4.2-19.86a97.86,97.86,0,0,1,6.34-8.82c7.87-9.15,20.59-12.57,29.46-2.63,3.53,4,6.4,9,9.16,13.57,3.49,5.71,5.59,10.69,2.38,17.27C356.61,222.34,355.1,225.32,352.59,226.25Z"/><path d="M320,213.26c-1.31-.87-3.15-2.14-4.72-1.15a2,2,0,0,0-.93,1.25c-1.21-.49-2.82.75-1.9,2.06A28.45,28.45,0,0,0,328,226.64a1.52,1.52,0,0,0,1.7-2.2A28.64,28.64,0,0,0,320,213.26Z"/><path d="M349.62,209.88a36.82,36.82,0,0,0-5.22,11.22,1.4,1.4,0,0,0,1,1.79c-.53,1.18,1.24,2.62,2.54,1.6a13.23,13.23,0,0,0,4.38-14.25A1.52,1.52,0,0,0,349.62,209.88Z"/><path d="M282.83,243.59v-1.32a1.5,1.5,0,0,0-3,0v1.32a1.5,1.5,0,0,0,3,0Z"/><path d="M277.38,250.35a1.5,1.5,0,0,0,0-3,1.5,1.5,0,0,0,0,3Z"/><path d="M284.61,256.92a1.5,1.5,0,0,0,0-3,1.5,1.5,0,0,0,0,3Z"/><path d="M294.47,247.06a1.5,1.5,0,0,0,0-3,1.5,1.5,0,0,0,0,3Z"/><path d="M272.78,239.83a1.5,1.5,0,0,0,0-3,1.5,1.5,0,0,0,0,3Z"/><path d="M284.61,233.26a1.5,1.5,0,0,0,0-3,1.5,1.5,0,0,0,0,3Z"/><path d="M290.53,242.46a1.5,1.5,0,0,0,0-3,1.5,1.5,0,0,0,0,3Z"/><path d="M363.14,241.86a1.5,1.5,0,0,0,0-3,1.5,1.5,0,0,0,0,3Z"/><path d="M363.49,231.94a1.5,1.5,0,0,0,0-3,1.5,1.5,0,0,0,0,3Z"/><path d="M372,226.69a1.5,1.5,0,0,0,0-3,1.5,1.5,0,0,0,0,3Z"/><path d="M372,236.54a1.5,1.5,0,0,0,0-3,1.5,1.5,0,0,0,0,3Z"/><path d="M373.34,246.4a1.5,1.5,0,0,0,0-3,1.5,1.5,0,0,0,0,3Z"/><path d="M383.86,243.77a1.5,1.5,0,0,0,0-3,1.5,1.5,0,0,0,0,3Z"/><path d="M384.52,232.6a1.5,1.5,0,0,0,0-3,1.5,1.5,0,0,0,0,3Z"/><path d="M380.57,237.86a1.5,1.5,0,0,0,0-3,1.5,1.5,0,0,0,0,3Z"/><path d="M367.43,249.69a1.5,1.5,0,0,0,0-3,1.5,1.5,0,0,0,0,3Z"/><path fill="none"  d="M352.34,241.81l0,0,0,0,0,.06S352.33,241.83,352.34,241.81Z"/><path fill="#fff9ef"  d="M309.51,247.72a95,95,0,0,0-6.81-8.53q-1.95-2.19-4-4.34c-.09-.11-.19-.2-.28-.3l.18.47c.34.94.67,1.82,1,2.79s.55,1.94.76,2.91a54,54,0,0,1,.78,5.87l.46,5.85h0l.41-.2,1.16-.67C305.35,250.33,307.47,249.07,309.51,247.72Z"/><path fill="#fff9ef"  d="M358.23,245.21,358,245c-.07-.07-.14-.06-.25-.25a1.16,1.16,0,0,1,0-.37l0-.26,0-.54c-.08-.71-.13-1.45-.17-2.18a38.75,38.75,0,0,1-.06-4.45,35.79,35.79,0,0,1,.7-4.42v-.07a29.33,29.33,0,0,0-2.36,4.16c-.65,1.37-1.16,2.81-1.81,4.21-.16.35-.33.7-.5,1l-.12.25-.05.14,0,.09a.64.64,0,0,1-.07.12l0,0s0,0-.13.1q2.66,1.29,5.29,2.64Z"/><path d="M358.55,245.41l-.15-.33a2.07,2.07,0,0,0-.15-.25c0-.07-.13-.2-.1-.17s0-.1.07-.18l.07-.27c0-.19.08-.38.11-.56.12-.75.16-1.46.23-2.19.15-1.45.24-2.91.47-4.29s.59-2.74.92-4.19.64-2.87.87-4.32l.6-3.73-2.34,2.93a47.1,47.1,0,0,0-2.79,3.84,27.9,27.9,0,0,0-2.19,4.24,35,35,0,0,0-1.58,4.43c-.11.38-.2.76-.28,1.15l-.06.3,0,.22a.32.32,0,0,0,0,.13s0,0,0,.07c-1.43-.7-2.87-1.38-4.31-2.06a55,55,0,0,0-9.32-3.49,24.53,24.53,0,0,0-10.26-.58,22.17,22.17,0,0,0-9.33,4.35c-2.68,2-5.07,4.15-7.63,6l-1.79,1.22a74.24,74.24,0,0,0-6.21-9c-1.21-1.55-2.47-3.07-3.75-4.57s-2.5-3-3.75-4.57l-.65.59h0l-.64.59a10.76,10.76,0,0,1,1.22,2.33c.35.87.7,1.76,1,2.67.63,1.85,1.27,3.62,1.71,5.47s.86,3.75,1.31,5.66a35.12,35.12,0,0,0,1.8,5.63h0l-.46-5.85a54,54,0,0,0-.78-5.87c-.21-1-.46-1.95-.76-2.91s-.65-1.85-1-2.79l-.18-.47c.09.1.19.19.28.3q2,2.15,4,4.34a95,95,0,0,1,6.81,8.53c-2,1.35-4.16,2.61-6.31,3.85l-1.16.67c-1,.6-2,1.19-3.05,1.74a9.71,9.71,0,0,1-4.57,1.3,9.12,9.12,0,0,0,4.89-.54c1.57-.56,3-1.24,4.55-1.86a70.6,70.6,0,0,0,8.79-4.48c2.87-1.73,5.37-3.88,8-5.64a19.9,19.9,0,0,1,8.22-3.7,19.17,19.17,0,0,1,4.49-.28,30,30,0,0,1,4.57.68,64.37,64.37,0,0,1,9.07,2.88c6,2.35,12.14,4.65,18.34,6.66C363.09,247.76,360.82,246.57,358.55,245.41Zm-5.4-2.87,0,0a.64.64,0,0,0,.07-.12l0-.09.05-.14.12-.25c.17-.34.34-.69.5-1,.65-1.4,1.16-2.84,1.81-4.21a29.33,29.33,0,0,1,2.36-4.16v.07a35.79,35.79,0,0,0-.7,4.42,38.75,38.75,0,0,0,.06,4.45c0,.73.09,1.47.17,2.18l0,.54,0,.26a1.16,1.16,0,0,0,0,.37c.11.19.18.18.25.25l.21.17.08.07q-2.64-1.35-5.29-2.64C353.12,242.58,353.18,242.52,353.15,242.54Zm-.8-.75,0,0,0,0s0,0,0,0Z"/>    </g></svg>