<!--  ~ Copyright (C) 2018 Baidu, Inc. All Rights Reserved.  --><svg viewBox="0 0 640 480" xmlns="http://www.w3.org/2000/svg">    <g id="back-ground-cl">        <rect fill="none" width="640" height="480" />        <ellipse opacity="0.1" cx="331.93" cy="418.82" rx="168.39" ry="32.01"/>    </g>    <g id="body">        <defs>            <clipPath id="outline">                <path fill="none"  d="M288.13,99.43l-1-.77a74.32,74.32,0,0,0-15.72-9.14c-12.3-5.58-25.84-10-39.44-10.15-14-.21-27.91,4.62-38,14.41a68.1,68.1,0,0,0-11.08,14.31c-.9,1.49-8.21,13.88-7.18,15.71,4.14.07,8.57-2.84,12.46-4.14,4.7-1.57,9.48-2.91,14.31-4.06a224,224,0,0,1,29.7-4.89c11.32-1.15,22.69-1.59,34.07-1.7,3,0,6.08,0,9.15.14A105.4,105.4,0,0,1,288.13,99.43Z"/><path fill="none"  d="M182.37,371c-5.87-3.33-11.15-8.12-13-14.83a27.08,27.08,0,0,1-.44-10.23c.45-3.77,3.9-11.81-.92-13.58-2.17-.8-5.87.48-8,1.21a20.69,20.69,0,0,0-11.3,9.15c-4.67,8.19-2.72,18.51,3.73,25.12s15.67,9.85,24.28,12.05a84,84,0,0,0,20.89,2.57c-1.14-1.84-2.18-3.73-3.14-5.66C190.43,374.89,186.27,373.18,182.37,371Z"/><path fill="none"  d="M490.45,97c-6.44-5.74-14.27-10-22.14-13.4C452.63,76.72,436,73.55,419,77a69,69,0,0,0-39.34,23c1.15.68,2.3,1.39,3.43,2.12,13.8-4.08,29.65-3.59,43.32-2.66,18.69,1.27,37.1,5.38,55.43,9q4,.78,7.92,1.61c4.09.85,10.45,1.93,7.45-5.23C495.93,101.82,492.83,99.09,490.45,97Z"/><path fill="none"  d="M293.14,99.72c-20,11.79-34.54,30.83-46.83,50.12a378.12,378.12,0,0,0-52.48,133.65c-1.64,9-3,18.12-3.91,27.27-2.95,30.45-1.69,70.65,28.45,87.75,2.14,1.21,13.06,3.79,8.4,7.39-2.4,1.85-14.5,3-13.88,6.69.7,4.07,12.4,4.43,15.16,4.64a154.6,154.6,0,0,0,17.62.25c.52,0,1.44,0,2.41,0,.15-1.73.14-3.58.15-5.43s0-3.86.07-5.79c.07-3.85.18-7.69.2-11.53a150.79,150.79,0,0,0-1.33-22.89,55.39,55.39,0,0,0-2.69-11.09,30.47,30.47,0,0,0-2.47-5.15,18.35,18.35,0,0,0-3.63-4.43,22.73,22.73,0,0,1,6.83,9.28,56.42,56.42,0,0,1,3.4,11.14,135.2,135.2,0,0,1,2.22,23.12c.11,3.87.11,7.73.1,11.58,0,1.92,0,3.83,0,5.75s.08,3.86-.07,5.91a14.63,14.63,0,0,1-.56,3.13l-.13.39c0,.14-.12.3-.18.45a6.36,6.36,0,0,1-.47.85,6.81,6.81,0,0,1-1.25,1.36,22.47,22.47,0,0,1-5.48,2.84c-1.7.7-3.31,1.6-3.6,2.6a2.07,2.07,0,0,0-.11.85,5,5,0,0,0,.07.5l.14.48a4.77,4.77,0,0,0,1.25,1.77c.12.11.27.22.4.33a5.59,5.59,0,0,1,.24-3.1,6.6,6.6,0,0,1,2.78-3.36,8.26,8.26,0,0,1,2-.77,12.35,12.35,0,0,1,1.88-.39,13.21,13.21,0,0,1,3.88,0,13.14,13.14,0,0,1-3.14,2.28c-1.12.62-2.2,1.07-3.05,1.51a9.39,9.39,0,0,0-2.26,1.92,12.88,12.88,0,0,0-1.92,3l.47-.39a15.32,15.32,0,0,0,3.2,1.56,20.74,20.74,0,0,0,2.59.74,22.72,22.72,0,0,0,2.68.41c.47.05.94.06,1.4.1a3,3,0,0,1-.43-.91,3.62,3.62,0,0,1,.15-2.18,7.07,7.07,0,0,1,2.48-3,10.06,10.06,0,0,1,3.24-1.62,7.37,7.37,0,0,1,3.65-.16,28.51,28.51,0,0,1-2.61,2.28c-.84.66-1.66,1.29-2.49,1.9a23.66,23.66,0,0,0-2.22,1.75,3.44,3.44,0,0,0-.74,1,2.59,2.59,0,0,0-.2,1.56h0l.54-.56a48.24,48.24,0,0,0,8.41-.43,36.39,36.39,0,0,0,5.42-1.12,14.75,14.75,0,0,0,4.66-2.47,20.45,20.45,0,0,0,3.79-3.87,25.21,25.21,0,0,0,2.86-4.7,10.16,10.16,0,0,0,.53-1.25,11.29,11.29,0,0,0,.43-1.28c.27-.89.49-1.81.71-2.73l1.22-5.62c.82-3.77,1.62-7.55,2.59-11.29a112.84,112.84,0,0,1,3.47-11.08,48.6,48.6,0,0,1,5.15-10.36c-3.71,6.78-5.64,14.28-7.19,21.77-.78,3.71-1.42,7.46-2.06,11.21a312,312,0,0,0,33.13,5.43c21.5,2.29,43.66,2.36,64.8-2.67a86.24,86.24,0,0,0,8.66-2.59c0-.15-.05-.3-.08-.45-.62-3.71-.81-7.4-1.24-11-.2-1.8-.51-3.61-.79-5.43s-.56-3.64-.93-5.41a32.2,32.2,0,0,0-1.72-5.19c-.65-1.72-1.25-3.46-1.84-5.21.73,1.69,1.47,3.37,2.26,5a32.31,32.31,0,0,1,2.07,5.16c.49,1.8.88,3.6,1.28,5.4s.8,3.59,1.12,5.43c.62,3.67,1,7.33,1.72,10.86a31,31,0,0,0,1.51,5.11,26.42,26.42,0,0,0,2.44,4.69,20,20,0,0,0,7.48,7,12.92,12.92,0,0,0,2.34.92,25.38,25.38,0,0,0,2.57.61,43,43,0,0,0,5.3.72,51.77,51.77,0,0,0,5.71.11l.54.56a2.47,2.47,0,0,0-.2-1.55,3.16,3.16,0,0,0-.74-1,22.09,22.09,0,0,0-2.22-1.76c-.83-.61-1.65-1.24-2.49-1.9a28.31,28.31,0,0,1-2.61-2.28,7.41,7.41,0,0,1,3.66.17,10.09,10.09,0,0,1,3.23,1.61,7.19,7.19,0,0,1,2.48,3,3.54,3.54,0,0,1,.15,2.18,2.77,2.77,0,0,1-.43.92c1.19-.08,2.38-.2,3.53-.39a20.28,20.28,0,0,0,4.87-1.59,10.63,10.63,0,0,0,1.48-.83l.46.39a12.46,12.46,0,0,0-1.91-3,9.26,9.26,0,0,0-2.27-1.93c-.84-.44-1.93-.89-3.05-1.5a13.47,13.47,0,0,1-3.14-2.29,13.57,13.57,0,0,1,3.88.05,12.35,12.35,0,0,1,1.88.39,8.53,8.53,0,0,1,2,.77,6.54,6.54,0,0,1,2.78,3.37,5.4,5.4,0,0,1,.23,3.12,6,6,0,0,0,1.3-1.42,3.8,3.8,0,0,0,.58-1.85,2.25,2.25,0,0,0-.12-.84,1.91,1.91,0,0,0-.4-.72c-.79-.94-2.47-1.64-4.14-2.28a21.52,21.52,0,0,1-5.32-2.6,7.06,7.06,0,0,1-1.24-1.21,4.82,4.82,0,0,1-.87-1.72,9.16,9.16,0,0,1-.28-1.57c-.06-.51-.09-1-.1-1.48a111.71,111.71,0,0,1,.44-11.19c.29-3.68.68-7.36,1.13-11,.9-7.33,2-14.62,3.49-21.86.76-3.62,1.6-7.22,2.61-10.77.51-1.78,1.07-3.54,1.74-5.26a24.1,24.1,0,0,1,1.17-2.53,7.47,7.47,0,0,1,1.66-2.2,7.31,7.31,0,0,0-1.46,2.3,21.49,21.49,0,0,0-.94,2.58c-.56,1.74-1,3.52-1.4,5.31-.79,3.58-1.4,7.19-1.94,10.82-1.1,7.26-1.92,14.56-2.61,21.86-.32,3.65-.6,7.31-.83,11-.19,3.41-.36,6.86-.25,10.2,5.43.86,11.35.45,16.71.28A155.49,155.49,0,0,0,459,411.18c2.36-.37,3.95,0,2.58-2.31-1.6-2.7-4-4-6.93-5-2.41-.82-9.31-1-10.72-3.45-.77-1.34.08-2,1-2.94,1.35-1.35,4-2.21,5.61-3.24q3-1.89,5.8-4.06A69.49,69.49,0,0,0,475.13,368c9-16.72,10.95-36.34,9.18-55-2.25-23.74-9.26-47.36-17.27-69.73-8.65-24.17-19.39-47.54-30.82-70.5-9.44-18.94-19.2-36.84-34.45-51.82C387.9,107.3,370.88,96.3,351.92,91.45A77.41,77.41,0,0,0,293.14,99.72Z"/><path d="M496.69,99c-5.84-6.88-14-11.83-22-15.78C459,75.47,441.91,70.94,424.28,73.1A72.73,72.73,0,0,0,377,98.44L376.2,98c-16.45-9-35.35-13.87-54.13-11.45a80.41,80.41,0,0,0-31.3,11.25l-.39-.34c-5.55-4.76-12.19-8.21-18.85-11.15C257.09,79.92,241,75.06,225,76.66a55.85,55.85,0,0,0-38.15,20.45,92.54,92.54,0,0,0-11.19,18.06c-1.45,3-5.75,9.16-1.31,11.4a1.81,1.81,0,0,0,.41.14,1.86,1.86,0,0,0,.34.06c3.53.32,6.44-1.35,9.59-2.66a112.5,112.5,0,0,1,14.12-4.5,213.11,213.11,0,0,1,33.35-5.9c11-1.12,22-1.57,33.09-1.69,2.3,0,4.62,0,6.94.07q-2.6,2.47-5.06,5.09C250.72,134.76,238,156.12,227,177.41a379.14,379.14,0,0,0-27.54,69.19c-3.43,11.88-6.24,23.93-8.51,36.09-5.09,28-9.91,62.19,1.57,89.68-4.81-2.13-9.7-4.05-13.8-7.51-8.06-6.81-7.59-15.93-5.55-25.37.87-4,1.76-8.35-3.06-9.85-9.54-3-21.24,5.27-24.92,13.52-5.23,11.71.26,24.1,10.32,31,12.47,8.53,28.89,11.64,44.13,11.27a53.66,53.66,0,0,0,14.65,14.12,57.39,57.39,0,0,0,5.29,3c.46.23,2,1.13,3.25,1.71l-.31.13c-1.79.62-3.6,1.16-5.38,1.81-3.43,1.26-9.1,3.22-6.82,8,1.87,3.92,8,4.81,11.71,5.39a117.2,117.2,0,0,0,20,1c1.45,0,3.44.1,5.44.05a3.14,3.14,0,0,1-.29.54,3.81,3.81,0,0,1-.71.75,20.47,20.47,0,0,1-4.78,2.37,17.75,17.75,0,0,0-2.81,1.43,5.86,5.86,0,0,0-2.43,2.88,6.52,6.52,0,0,0,2.08,6.77,12.16,12.16,0,0,0,2.66,1.88A18.93,18.93,0,0,0,244,438.5a23.26,23.26,0,0,0,6,1.28,49.63,49.63,0,0,0,11.87-.34,38.82,38.82,0,0,0,5.85-1.34,17.41,17.41,0,0,0,5.44-3,25.18,25.18,0,0,0,7.16-9.67,18.28,18.28,0,0,0,1-2.89c.26-1,.45-1.93.65-2.88s.38-1.92.55-2.87c22.31,4.82,45.27,7.68,68.12,6.77a160.48,160.48,0,0,0,32.58-4.43q3.58-.9,7.13-2a28.54,28.54,0,0,0,3.1,7.12,21.83,21.83,0,0,0,8.26,8.09,16,16,0,0,0,2.77,1.15c.95.31,1.85.51,2.78.72a48.6,48.6,0,0,0,5.62.87,45.84,45.84,0,0,0,11.39-.31,22.92,22.92,0,0,0,5.61-1.79,14.28,14.28,0,0,0,2.63-1.57,8.75,8.75,0,0,0,2.25-2.39,6.84,6.84,0,0,0,1-3.36,5.19,5.19,0,0,0-1.23-3.53,8.19,8.19,0,0,0-2.68-2,27.2,27.2,0,0,0-2.68-1.14,18.91,18.91,0,0,1-4.6-2.15,4.15,4.15,0,0,1-.74-.7,1.77,1.77,0,0,1-.37-.72.42.42,0,0,1,0-.12l.84.08a142.67,142.67,0,0,0,20.88,0c5.57-.29,11.92-.22,17.32-1.84,3.77-1.14,2.9-4.87.85-7.65-3.27-4.44-9.46-5.47-14.47-6.65l-.43-.13c.93-.57,1.95-1.32,2.34-1.55a77.19,77.19,0,0,0,11.86-8.8c14-12.68,21.86-30.38,24.31-48.93,2.85-21.55-1.3-43.27-6.68-64.1-6.48-25.1-15.83-49.37-26.44-73-5.4-12-11.14-23.88-17.06-35.65-5.06-10.07-10.08-20.1-16.64-29.3a138.12,138.12,0,0,0-33.58-33.43,100,100,0,0,1,15-2.06,186.19,186.19,0,0,1,32.37.72c10.79,1.12,21.41,3.33,32.07,5.36,5.56,1.06,11.13,2.13,16.69,3.25,4,.8,10,3.36,14,2.11C504.59,111.33,500.13,103.09,496.69,99,266.26,109c-11.38.11-22.75.55-34.07,1.7a224,224,0,0,0-29.7,4.89c-4.83,1.15-9.61,2.49-14.31,4.06-3.89,1.3-8.32,4.21-12.46,4.14-1-1.83,6.28-14.22,7.18-15.71A68.1,68.1,0,0,1,194,93.78C204.1,84,218,79.16,232,79.37c13.6.2,27.14,4.57,39.44,10.15a74.32,74.32,0,0,1,15.72,9.14l1,.77a105.4,105.4,0,0,0-12.72,9.72C272.34,109.06,269.29,109,266.26,109,-89.5,270.85c-8.61-2.2-17.93-5.56-24.28-12.05s-8.4-16.93-3.73-25.12a20.69,20.69,0,0,1,11.3-9.15c2.13-.73,5.83-2,8-1.21,4.82,1.77,1.37,9.81.92,13.58a27.08,27.08,0,0,0,.44,10.23c1.81,6.71,7.09,11.5,13,14.83,3.9,2.21,8.06,3.92,12.14,5.8,1,1.93,2,3.82,3.14,5.66A84,84,0,0,1,176.76,379.86,225-259c15.25,15,25,32.88,34.45,51.82,11.43,23,22.17,46.33,30.82,70.5,8,22.37,15,46,17.27,69.73,1.77,18.65-.21,38.27-9.18,55a69.49,69.49,0,0,1-18.81,22.21q-2.81,2.18-5.8,4.06c-1.64,1-4.26,1.89-5.61,3.24-.89.89-1.74,1.6-1,2.94,1.41,2.49,8.31,2.63,10.72,3.45,2.95,1,5.33,2.32,6.93,5,1.37,2.31-.22,1.94-2.58,2.31a155.49,155.49,0,0,1-19.16,1.45c-5.36.17-11.28.58-16.71-.28-.11-3.34.06-6.79.25-10.2.23-3.65.51-7.31.83-11,.69-7.3,1.51-14.6,2.61-21.86.54-3.63,1.15-7.24,1.94-10.82.39-1.79.84-3.57,1.4-5.31a21.49,21.49,0,0,1,.94-2.58,7.31,7.31,0,0,1,1.46-2.3,7.47,7.47,0,0,0-1.66,2.2,24.1,24.1,0,0,0-1.17,2.53c-.67,1.72-1.23,3.48-1.74,5.26-1,3.55-1.85,7.15-2.61,10.77-1.45,7.24-2.59,14.53-3.49,21.86-.45,3.66-.84,7.34-1.13,11a111.71,111.71,0,0,0-.44,11.19c0,.48,0,1,.1,1.48a9.16,9.16,0,0,0,.28,1.57,4.82,4.82,0,0,0,.87,1.72,7.06,7.06,0,0,0,1.24,1.21,21.52,21.52,0,0,0,5.32,2.6c1.67.64,3.35,1.34,4.14,2.28a1.91,1.91,0,0,1,.4.72,2.25,2.25,0,0,1,.12.84,3.8,3.8,0,0,1-.58,1.85,6,6,0,0,1-1.3,1.42,5.4,5.4,0,0,0-.23-3.12,6.54,6.54,0,0,0-2.78-3.37,8.53,8.53,0,0,0-2-.77,12.35,12.35,0,0,0-1.88-.39,13.57,13.57,0,0,0-3.88-.05,13.47,13.47,0,0,0,3.14,2.29c1.12.61,2.21,1.06,3.05,1.5a9.26,9.26,0,0,1,2.27,1.93,12.46,12.46,0,0,1,1.91,3l-.46-.39a10.63,10.63,0,0,1-1.48.83,20.28,20.28,0,0,1-4.87,1.59c-1.15.19-2.34.31-3.53.39a2.77,2.77,0,0,0,.43-.92,3.54,3.54,0,0,0-.15-2.18,7.19,7.19,0,0,0-2.48-3,10.09,10.09,0,0,0-3.23-1.61,7.41,7.41,0,0,0-3.66-.17,28.31,28.31,0,0,0,2.61,2.28c.84.66,1.66,1.29,2.49,1.9a22.09,22.09,0,0,1,2.22,1.76,3.16,3.16,0,0,1,.74,1,2.47,2.47,0,0,1,.2,1.55l-.54-.56a51.77,51.77,0,0,1-5.71-.11,43,43,0,0,1-5.3-.72,25.38,25.38,0,0,1-2.57-.61,12.92,12.92,0,0,1-2.34-.92,20,20,0,0,1-7.48-7,26.42,26.42,0,0,1-2.44-4.69,31,31,0,0,1-1.51-5.11c-.76-3.53-1.1-7.19-1.72-10.86-.32-1.84-.74-3.63-1.12-5.43s-.79-3.6-1.28-5.4a32.31,32.31,0,0,0-2.07-5.16c-.79-1.67-1.53-3.35-2.26-5,.59,1.75,1.19,3.49,1.84,5.21a32.2,32.2,0,0,1,1.72,5.19c.37,1.77.65,3.6.93,5.41s.59,3.63.79,5.43c.43,3.62.62,7.31,1.24,11,0,.15.06.3.08.45a86.24,86.24,0,0,1-8.66,2.59c-21.14,5-43.3,5-64.8,2.67a312,312,0,0,1-33.13-5.43c.64-3.75,1.28-7.5,2.06-11.21,1.55-7.49,3.48-15,7.19-21.77a48.6,48.6,0,0,0-5.15,10.36,112.84,112.84,0,0,0-3.47,11.08c-1,3.74-1.77,7.52-2.59,11.29l-1.22,5.62c-.22.92-.44,1.84-.71,2.73a11.29,11.29,0,0,1-.43,1.28,10.16,10.16,0,0,1-.53,1.25,25.21,25.21,0,0,1-2.86,4.7,20.45,20.45,0,0,1-3.79,3.87,14.75,14.75,0,0,1-4.66,2.47,36.39,36.39,0,0,1-5.42,1.12,48.24,48.24,0,0,1-8.41.43l-.54.56h0a2.59,2.59,0,0,1,.2-1.56,3.44,3.44,0,0,1,.74-1,23.66,23.66,0,0,1,2.22-1.75c.83-.61,1.65-1.24,2.49-1.9a28.51,28.51,0,0,0,2.61-2.28,7.37,7.37,0,0,0-3.65.16,10.06,10.06,0,0,0-3.24,1.62,7.07,7.07,0,0,0-2.48,3,3.62,3.62,0,0,0-.15,2.18,3,3,0,0,0,.43.91c-.46,0-.93,0-1.4-.1a22.72,22.72,0,0,1-2.68-.41,20.74,20.74,0,0,1-2.59-.74,15.32,15.32,0,0,1-3.2-1.56l-.47.39a12.88,12.88,0,0,1,1.92-3,9.39,9.39,0,0,1,2.26-1.92c.85-.44,1.93-.89,3.05-1.51a13.14,13.14,0,0,0,3.14-2.28,13.21,13.21,0,0,0-3.88,0,12.35,12.35,0,0,0-1.88.39,8.26,8.26,0,0,0-2,.77,6.6,6.6,0,0,0-2.78,3.36,5.59,5.59,0,0,0-.24,3.1c-.13-.11-.28-.22-.4-.33a4.77,4.77,0,0,1-1.25-1.77l-.14-.48a5,5,0,0,1-.07-.5,2.07,2.07,0,0,1,.11-.85c.29-1,1.9-1.9,3.6-2.6a22.47,22.47,0,0,0,5.48-2.84,6.81,6.81,0,0,0,1.25-1.36,6.36,6.36,0,0,0,.47-.85c.06-.15.13-.31.18-.45l.13-.39a14.63,14.63,0,0,0,.56-3.13c.15-2.05.09-4,.07-5.91s0-3.83,0-5.75c0-3.85,0-7.71-.1-11.58a135.2,135.2,0,0,0-2.22-23.12,56.42,56.42,0,0,0-3.4-11.14,22.73,22.73,0,0,0-6.83-9.28,18.35,18.35,0,0,1,3.63,4.43,30.47,30.47,0,0,1,2.47,5.15,55.39,55.39,0,0,1,2.69,11.09,150.79,150.79,0,0,1,1.33,22.89c0,3.84-.13,7.68-.2,11.53,0,1.93-.06,3.87-.07,5.79s0,3.7-.15,5.43c-1,0-1.89,0-2.41,0a154.6,154.6,0,0,1-17.62-.25c-2.76-.21-14.46-.57-15.16-4.64-.62-3.65,11.48-4.84,13.88-6.69,4.66-3.6-6.26-6.18-8.4-7.39-30.14-17.1-31.4-57.3-28.45-87.75.88-9.15,2.27-18.23,3.91-27.27a378.12,378.12,0,0,1,52.48-133.65c12.29-19.29,26.8-38.33,46.83-50.12a77.41,77.41,0,0,1,58.78-8.27C370.88,96.3,387.9,107.3,401.77,120.91,88-10.86q-3.94-.83-7.92-1.61c-18.33-3.65-36.74-7.76-55.43-9-13.67-.93-29.52-1.42-43.32,2.66-1.13-.73-2.28-1.44-3.43-2.12A69,69,0,0,1,419,77c17-3.41,33.65-.24,49.33,6.6C476.18,87,484,91.22,490.45,97c2.38,2.13,5.48,4.86,6.74,7.86C500.19,112,493.83,110.9,489.74,110.05Z"/>            </clipPath>        </defs>        <g clip-path="url(#outline)">            <rect fill="#898989" width="640" height="480" />        </g>    </g>    <g id="pattern">        <g clip-path="url(#outline)">            <path fill="#3F2D2A"  d="M213.89,348.69c-.53,1.67-.95,3.36-1.63,5s-1.29,3.68-.61,5.6A10.12,10.12,0,0,0,214.5,363a35,35,0,0,0,3.59,2.9,3.46,3.46,0,0,0,2.28.82,2.62,2.62,0,0,0,1.24-.6,20.67,20.67,0,0,0,6-7.67,10,10,0,0,0,1.29-6.31c-.63-3.15-3.6-4.52-6.87-5.52a14.84,14.84,0,0,0-3.71-.76c-2-.09-4.42.84-4.37,2.76"/><path fill="#3F2D2A"  d="M190,328.09a38.75,38.75,0,0,1,9.5,3.45,7.68,7.68,0,0,1,2.95,2.29,8.54,8.54,0,0,1,1.08,4.33c.31,4.75.59,9.73-1.42,14S196,359.75,191.55,358c-1.59-.63-2.08-1.69-2.12-3.35-.2-8.28-1.39-16.55-1.58-24.83A2.07,2.07,0,0,1,190,328.09Z"/><path fill="#3F2D2A"  d="M189.82,298.42a19.21,19.21,0,0,0,1.88,1.21,5.34,5.34,0,0,0,2.38.53,3.92,3.92,0,0,0,3.33-3.36,7.64,7.64,0,0,0-1.11-4.9,1.64,1.64,0,0,0-1-.92,2.38,2.38,0,0,0-1.43.47,5.17,5.17,0,0,1-2.38.37Z"/><path fill="#3F2D2A"  d="M193.84,319.82a4,4,0,0,0,2.39,2.33,7,7,0,0,0,4.11.17,16,16,0,0,0,7.69-4c1.6-1.5,5.43-3.41,5.19-6a6.18,6.18,0,0,0-.59-1.87,20.12,20.12,0,0,0-2.11-4c-3.39-4.54-12.4-2.81-15,1.88C194.1,310.87,192.76,317,193.84,319.82Z"/><path fill="#3F2D2A"  d="M210.51,327.79c2.29,2.29,4.56,5.58,7.78,1.92,2.19-2.57,1.14-6.9-1.59-8.89a4.76,4.76,0,0,0-2.36-1c-1.89-.16-7.28,3.59-6.24,5.88a2.48,2.48,0,0,0,1,.88A10.33,10.33,0,0,1,210.51,327.79Z"/><path fill="#3F2D2A"  d="M239.31,340.06c1.52.27,2.92-.47,3-3a4,4,0,0,0-2.7-3.83,3.48,3.48,0,0,0-4.07,1.5C234.41,336.93,237,339.65,239.31,340.06Z"/><path fill="#3F2D2A"  d="M487.06,304.49a7.82,7.82,0,0,0-3.56-1.5l-1.31.3c-3.43,1.39-7.61,3.15-10.49,5.52s-2.64,4.2-1.39,7.77c1.85,5.28,10.41,8.66,14.81,11.53a2.53,2.53,0,0,0,1.3.51,2.26,2.26,0,0,0,1-.3l1.78-.89Z"/><path fill="#3F2D2A"  d="M476.15,354.32a4.53,4.53,0,0,0-.46-.56,7.18,7.18,0,0,1,4-12.06c1.63-.26,5.15-.16,5.93,1.65a2.31,2.31,0,0,1,.15,1.08,32.8,32.8,0,0,1-1.46,6.75c-.65,2.4-1.41,4.78-2.27,7.11a3.4,3.4,0,0,1-.85,1.46c-1,.84-2.63.25-3.33-.84C476.76,357.24,477.22,355.83,476.15,354.32Z"/><path fill="#3F2D2A"  d="M466.27,361.93c-7.26-2.1-15.92-2.66-20.13,4.41A19.91,19.91,0,0,0,444,377.1a7.54,7.54,0,0,0,2.07,4.85c1.95,1.86,4.93,2.09,7.26,3.44,1.64,1,3.1,2.75,5,3.07,2.35.39,4.31-1.34,5.88-2.84,3-2.81,5.95-5.66,8.05-9.16,1.47-2.46,2.87-5.61,2.83-8.53a3.94,3.94,0,0,0-1.06-2.81,6.15,6.15,0,0,0-1.91-1.1A57.68,57.68,0,0,0,466.27,361.93Z"/><path fill="#3F2D2A"  d="M198.8,368l.07,0a9.1,9.1,0,0,1,5.28-.22c4.22.93,7.26,3.47,10.53,5.69,4,2.71,7.95,5.44,11.92,8.15,1.38.95,2.88,2.13,2.69,3.86a6.1,6.1,0,0,1-.88,2.17c-2.06,3.51-3.83,6.7-7,9.51-1.15,1-2.6,2-4,1.91a4,4,0,0,1-2.25-1.26C207.83,391,201,387.48,197,374.56,196.19,372.11,195.79,369.23,198.8,368Z"/><path fill="#3F2D2A"  d="M445.88,322.47a2.26,2.26,0,0,0,.11,3,4,4,0,0,0,4,.3,2.41,2.41,0,0,0,.85-1c.4-.92-.36-3.08-1.12-3.74C448.5,320,446.61,321.47,445.88,322.47Z"/><path fill="#3F2D2A"  d="M440.23,349.41a6.56,6.56,0,0,1-.8,1.81,8.44,8.44,0,0,0-1.54,2.84c-.25,1.16-.29,2.86.65,3.76s3.57.5,4.56-.39a3.85,3.85,0,0,0,1-2.44c.3-2.16,2.1-4.58.07-6.41a6.17,6.17,0,0,0-2.48-1.24c-.33-.1-.73-.17-1,.08a1,1,0,0,0-.19.46C440.46,348.42,440.36,348.93,440.23,349.41Z"/><path fill="#3F2D2A"  d="M452,344.2c0,.3.08.56.09.72.07.95.08,1.89.1,2.84,0,1.37-.35,2.41,1.11,3.13,2.21,1.09,5,3.12,7.5,3.26a3.65,3.65,0,0,0,2.72-6.3,7.12,7.12,0,0,0-1.76-1.12l-8.62-4.42a1.06,1.06,0,0,0-.45-.16C451.76,342.09,451.85,343.31,452,344.2Z"/><path fill="#3F2D2A"  d="M463,326.14a19.2,19.2,0,0,0-2.81,4.5c-.64,1.36-1.2,3-.46,4.3,1.1,1.93,6.34,3.33,8.42,3.5a1.65,1.65,0,0,0,1.75-1,3.23,3.23,0,0,0,0-1.2,13.52,13.52,0,0,1,.58-4.06c.47-2.23-.76-5.89-2.68-7.18S464.35,324.66,463,326.14Z"/><path fill="#3F2D2A"  d="M158.11,362.28a4.55,4.55,0,0,0,.23,6c1.51,1.59,6.21,1.84,8,.61a4.91,4.91,0,0,0,1.7-2.05c.82-1.86-.72-6.23-2.26-7.55C163.4,357.25,159.59,360.27,158.11,362.28Z"/><path fill="#3F2D2A"  d="M128.85,357.35a8.64,8.64,0,0,1-.92,2.34c-2.1,3.92-5.09,6.81-3.87,11.62,1.07,4.25,4.72,5.79,8.37,3.2a11.33,11.33,0,0,0,3.82-5.54c.76-2.15,1.15-4.41,1.74-6.61a7.51,7.51,0,0,0-2.38-7.91c-1.12-.85-3.14-1.69-4.58-1.3C129,353.72,129.32,355.48,128.85,357.35Z"/><path fill="#3F2D2A"  d="M170.83,400.19c.61-.28,1.14-.54,1.47-.67,3.13-1.19,6.32-2.14,9.49-3.2a2.61,2.61,0,0,0,2.24-2.65L186,381.59a16.1,16.1,0,0,0,.16-6.48,8.08,8.08,0,0,0-15.08-1.65,15.81,15.81,0,0,0-1.23,4.45L166.08,399a2.71,2.71,0,0,0,0,1.06C166.5,402,169,401,170.83,400.19Z"/><path fill="#3F2D2A"  d="M146.88,354.16a5.64,5.64,0,0,0,4.63,3.24,13.82,13.82,0,0,0,7.15-1.36c3.7-1.64,9.71-5.82,11.5-9.65s-3.77-10.75-7.27-11.75c-4.15-1.18-11.88,1.56-14,5.5a21.29,21.29,0,0,0-1.52,5.6,28.75,28.75,0,0,0-1.06,5.7A6.3,6.3,0,0,0,146.88,354.16Z"/><path fill="#3F2D2A"  d="M119.2,320.49a39.86,39.86,0,0,0-3.75,11.8,7.76,7.76,0,0,0,1.13,5.37c1.91,2.53,5.94,1.63,8.22.07,2-1.37,3-3.79,3.58-6.14.71-2.83,2.64-6.75,1.84-9.69-.72-2.64-4.07-4.29-6.49-4.95C122.05,316.49,120.5,318.12,119.2,320.49Z"/><path fill="#3F2D2A"  d="M138.46,269.92a7.49,7.49,0,0,0-1.7,1c-3.89,3-7.69,6.27-10.15,10.51-6.76,11.7,4.5,42.15,21.12,37.76a9.27,9.27,0,0,0,3.67-2.42C163.74,305.37,150.79,264.92,138.46,269.92Z"/><path fill="#3F2D2A"  d="M473.22,290.25a1.89,1.89,0,0,0,.14,3c1,.78,4,.91,5.12.3a2.71,2.71,0,0,0,1.08-1c.52-.93-.46-3.09-1.44-3.74C476.59,287.76,474.16,289.25,473.22,290.25Z"/><path fill="#3F2D2A"  d="M406.06,400.73a19.4,19.4,0,0,0-2.81,4.5c-.64,1.36-1.2,3-.46,4.3,1.1,1.93,6.34,3.33,8.42,3.5a1.65,1.65,0,0,0,1.75-1,3.23,3.23,0,0,0,0-1.2,13.52,13.52,0,0,1,.58-4.06c.47-2.23-.76-5.88-2.68-7.18S407.4,399.25,406.06,400.73Z"/><path fill="#3F2D2A"  d="M415,384.81a11,11,0,0,0,.43,3,2.75,2.75,0,0,0,1.39,2.05c1.19.44,4-.87,5-1.57a1,1,0,0,0,.39-1.09,1.71,1.71,0,0,0-.45-.52,7.66,7.66,0,0,1-1.24-2,4.67,4.67,0,0,0-3.83-2.16C415.4,382.67,415,383.67,415,384.81Z"/><path fill="#3F2D2A"  d="M256.87,415.08a19.47,19.47,0,0,0-2.82,4.5c-.64,1.36-1.19,3-.45,4.3,1.1,1.93,6.33,3.34,8.42,3.5a1.65,1.65,0,0,0,1.75-1,3.18,3.18,0,0,0,0-1.19,13.54,13.54,0,0,1,.58-4.07c.47-2.23-.76-5.88-2.69-7.18C259.86,412.72,258.21,413.6,256.87,415.08Z"/><path fill="#3F2D2A"  d="M254.25,408.44a2.25,2.25,0,0,0,.11,3,4,4,0,0,0,4,.3,2.32,2.32,0,0,0,.84-1c.41-.92-.35-3.08-1.12-3.74C256.87,405.94,255,407.44,254.25,408.44Z"/><path fill="#3F2D2A"  d="M197.11,15.3c-5.36.41-10.48,1.87-14.63,5.22-3.85,3.12-6.35,7.09-8.8,11-4.75,7.6-13,15-6.45,23.5,5.67,7.38,11.05,15.27,18,21.54,5.77,5.2,12.85,9.26,20.57,10.12,12.71,1.42,33.8-8.21,38-21.32,3.36-10.49-7.1-30-13.82-37.87C221.59,17.62,209.74,14.33,197.11,15.3Z"/><path fill="#3F2D2A"  d="M406.49,53.79c3.07,9.76,11.58,15.24,21.63,13,6.44-1.44,16.43-9.47,7.31-15.23-2.17-1.37-4.81-1.74-7.37-2q-7.83-.93-15.71-1.49c-1.75-.12-3.71-.16-5,1S405.92,52,406.49,53.79Z"/><path fill="#3F2D2A"  d="M114.29,103c1.09.38,2.06.69,2.63.94,3.33,1.43,6.58,3,9.83,4.63,4.75,2.34,7.65,5.4,12.65,1.69,7.6-5.65,19.39-11.54,24.28-19.92A14,14,0,0,0,146.93,70a27.91,27.91,0,0,0-6.93,4L109.82,95.74A4.65,4.65,0,0,0,108.48,97C106.69,100,111,101.83,114.29,103Z"/><path fill="#3F2D2A"  d="M539.47,5.73C522.1.69,497.93,2.61,494.42,21c-3.41,17.82,6.36,43.7,23.27,51.39,7.34,3.34,15.59,4.29,23.65,4,5-.2,10.48-1.08,14-4.73C573.5,52.55,564.71,13,539.47,5.73Z"/>            <g opacity="0.6" ><path fill="#DCFEFF"  d="M285.77,418.84c2.26-24.13,21.66-59.15,48.78-60.3,26.6-1.12,50.68,35,52.69,58.92.13,1.48.51,1.44-.05,1.63-1.81.61-6.61,1.94-9.58,2.8-14,4.06-27.43,4.48-43.52,4.36-16.38-.12-33-4.21-47.85-7.41"/></g>        </g>    </g>    <g id="mask">        <path fill="#352f2d"  d="M174.38,126.57a1.81,1.81,0,0,0,.41.14,1.86,1.86,0,0,0,.34.06c3.53.32,6.44-1.35,9.59-2.66a110.88,110.88,0,0,1,14.12-4.5,211.75,211.75,0,0,1,33.35-5.9c11-1.12,22-1.57,33.09-1.69,2.3,0,4.62,0,6.94.07a106.63,106.63,0,0,1,18.55-14.31l-.39-.34c-5.55-4.77-12.19-8.21-18.85-11.15C257.09,79.92,241,75.06,225,76.66a55.85,55.85,0,0,0-38.15,20.45,92.54,92.54,0,0,0-11.19,18.06C174.24,118.16,169.94,124.33,174.38,126.57Z"/><g opacity="0.1" ><path d="M480.32,343.46c-1.82,3.4-3.69,6.78-5.68,10.08a107.44,107.44,0,0,1-13.23,18.12,62.92,62.92,0,0,1-11.06,9.47,60,60,0,0,1-6.25,3.66,33.15,33.15,0,0,1-5.53,2.51c-4,1.16-6.15-2.21-7.32-5.52a39.48,39.48,0,0,1-2.34-17.54,119.82,119.82,0,0,1,2.54-14.42l-1.94,4.49c-3.06,11.13-4.58,22.56-6,34a4.63,4.63,0,0,0,.26,2.2,3.15,3.15,0,0,0-.88.72c-2.06,2.52-.69,11.11-.81,14.31a.64.64,0,0,0,.09.45c.16.19.45.14.69.08a108,108,0,0,0,24.46-9.44c9.48-5.29,16.42-12.76,22.8-21.4,3.19-4.31,7.4-8.22,9.2-13.28,3.1-8.71,6.71-17.83,5.44-27C485,336.67,481.24,341.74,480.32,343.46Z"/></g><g opacity="0.1" ><path d="M300.05,94.69c-23.63,13.11-38,28.58-53.16,54.08-14.44,24.28-29.76,53.16-39.76,79.21s-15,53.6-17.25,81.33c-2,24.3-2.41,58.21,14.72,78,10,11.56,21.38,19,39.1,21.26,1.52.19,3.07.4,4.62.61-.4-2.32,0-4.6,2-5.95-.17-.64-.34-1.2-.4-1.52a5.06,5.06,0,0,1,.15-2.73c-17-5.82-32.14-19.18-39.54-35.41-4-8.82-6.12-18.92-6.18-30.42-.12-27.61,3.21-61,10.78-87.25,10.89-37.75,30.59-71.48,52.33-104.45C278.23,125.13,285.07,107.28,300.05,94.69Z"/></g><g opacity="0.1" ><path d="M389.59,402.19c-5.29,1.25-9.82,4.43-15.12,5.66a159,159,0,0,1-19.41,2.95c-22,2.28-44.35.82-66.17-2.85-1.82-5.45-1.09-11.68-.06-17.2.53-2.84,2-6.43,2.63-8.76-.18.24-.36.51-.53.76a78,78,0,0,0-5.31,14.34c-1,4.38-1.11,8.84-2.52,13.14a5.25,5.25,0,0,1-1,1.75c0,.76-.1,1.52-.18,2.27a4.45,4.45,0,0,1-.14.76c1.66.36,3.28.73,4.85,1.11,14.9,5.54,32.72,6.73,47.93,6.86,15.65.13,34.69-1.09,45-4.91,2.86-1.06,9.12-1.62,10.48-3.05,1.2-1.27-.65-1.69-.78-3.3C388.57,402.43,389.58,402.19,389.59,402.19Z"/></g><g opacity="0.1" ><path d="M194.74,378.49c-7.91-.88-15.54-2-23-4.9-5-2-10.51-4.4-14.3-8.28s-4.52-9.35-3.95-14.67a25.91,25.91,0,0,1,2.37-9,13.93,13.93,0,0,1,4.41-5.19,24.6,24.6,0,0,1,8.57-4.4c.36-.09-3.05.21-3.08.05s-.31-.36-.87-.62a4.47,4.47,0,0,0-2-.49,13.32,13.32,0,0,0-7.86,3c-7.54,6.15-11.12,17-9.46,26.45a14.91,14.91,0,0,0,1.84,5.32,17.66,17.66,0,0,0,4.26,4.41,68.65,68.65,0,0,0,40.9,14.72c3.44.07,3.79-.15,6.52-2.25C198.12,379.72,197.79,378.83,194.74,378.49Z"/></g><path fill="#9dd7d7"  d="M220.31,283.49l3.71.29C223.75,283.51,223.49,283.24,220.31,283.49Z"/><path fill="#352f2d"  d="M496.69,99c-5.84-6.88-14-11.83-22-15.78-15.75-7.77-32.82-12.3-50.45-10.15A72.79,72.79,0,0,0,377,98.44q4.89,2.75,9.52,6a98.73,98.73,0,0,1,15-2.06,186.19,186.19,0,0,1,32.37.72c10.79,1.12,21.41,3.33,32.07,5.36,5.56,1.06,11.13,2.13,16.69,3.25,4,.8,10,3.36,14,2.11C504.59,111.33,500.13,103.09,496.69,99Z"/>        <g opacity="0.1" ><path fill="#fff"  d="M379.91,101.78c6,5.3,10.42,13.69,14.49,20.51,4.46,7.47,8.88,15,13.37,22.42,13,21.7,26.15,43.75,37,66.65a328.73,328.73,0,0,1,23.4,68.9c2.75,12.34,4.91,24.8,6.6,37.33,1.39,10.34,4.07,22.69-2.47,31.88,4.27-6,9.85-10.61,11.34-14.66,5.27-14.38.18-32.18-2.49-46.67-5.44-29.5-15.48-57.88-26.94-85.53-11.27-27.21-25.53-53.07-44.82-75.49C393.14,108.28,380.13,102,379.91,101.78Z"/></g>    </g>    <g id="outline">        <path fill="none"  d="M288.13,99.43l-1-.77a74.32,74.32,0,0,0-15.72-9.14c-12.3-5.58-25.84-10-39.44-10.15-14-.21-27.91,4.62-38,14.41a68.1,68.1,0,0,0-11.08,14.31c-.9,1.49-8.21,13.88-7.18,15.71,4.14.07,8.57-2.84,12.46-4.14,4.7-1.57,9.48-2.91,14.31-4.06a224,224,0,0,1,29.7-4.89c11.32-1.15,22.69-1.59,34.07-1.7,3,0,6.08,0,9.15.14A105.4,105.4,0,0,1,288.13,99.43Z"/><path fill="none"  d="M182.37,371c-5.87-3.33-11.15-8.12-13-14.83a27.08,27.08,0,0,1-.44-10.23c.45-3.77,3.9-11.81-.92-13.58-2.17-.8-5.87.48-8,1.21a20.69,20.69,0,0,0-11.3,9.15c-4.67,8.19-2.72,18.51,3.73,25.12s15.67,9.85,24.28,12.05a84,84,0,0,0,20.89,2.57c-1.14-1.84-2.18-3.73-3.14-5.66C190.43,374.89,186.27,373.18,182.37,371Z"/><path fill="none"  d="M490.45,97c-6.44-5.74-14.27-10-22.14-13.4C452.63,76.72,436,73.55,419,77a69,69,0,0,0-39.34,23c1.15.68,2.3,1.39,3.43,2.12,13.8-4.08,29.65-3.59,43.32-2.66,18.69,1.27,37.1,5.38,55.43,9q4,.78,7.92,1.61c4.09.85,10.45,1.93,7.45-5.23C495.93,101.82,492.83,99.09,490.45,97Z"/><path fill="none"  d="M293.14,99.72c-20,11.79-34.54,30.83-46.83,50.12a378.12,378.12,0,0,0-52.48,133.65c-1.64,9-3,18.12-3.91,27.27-2.95,30.45-1.69,70.65,28.45,87.75,2.14,1.21,13.06,3.79,8.4,7.39-2.4,1.85-14.5,3-13.88,6.69.7,4.07,12.4,4.43,15.16,4.64a154.6,154.6,0,0,0,17.62.25c.52,0,1.44,0,2.41,0,.15-1.73.14-3.58.15-5.43s0-3.86.07-5.79c.07-3.85.18-7.69.2-11.53a150.79,150.79,0,0,0-1.33-22.89,55.39,55.39,0,0,0-2.69-11.09,30.47,30.47,0,0,0-2.47-5.15,18.35,18.35,0,0,0-3.63-4.43,22.73,22.73,0,0,1,6.83,9.28,56.42,56.42,0,0,1,3.4,11.14,135.2,135.2,0,0,1,2.22,23.12c.11,3.87.11,7.73.1,11.58,0,1.92,0,3.83,0,5.75s.08,3.86-.07,5.91a14.63,14.63,0,0,1-.56,3.13l-.13.39c0,.14-.12.3-.18.45a6.36,6.36,0,0,1-.47.85,6.81,6.81,0,0,1-1.25,1.36,22.47,22.47,0,0,1-5.48,2.84c-1.7.7-3.31,1.6-3.6,2.6a2.07,2.07,0,0,0-.11.85,5,5,0,0,0,.07.5l.14.48a4.77,4.77,0,0,0,1.25,1.77c.12.11.27.22.4.33a5.59,5.59,0,0,1,.24-3.1,6.6,6.6,0,0,1,2.78-3.36,8.26,8.26,0,0,1,2-.77,12.35,12.35,0,0,1,1.88-.39,13.21,13.21,0,0,1,3.88,0,13.14,13.14,0,0,1-3.14,2.28c-1.12.62-2.2,1.07-3.05,1.51a9.39,9.39,0,0,0-2.26,1.92,12.88,12.88,0,0,0-1.92,3l.47-.39a15.32,15.32,0,0,0,3.2,1.56,20.74,20.74,0,0,0,2.59.74,22.72,22.72,0,0,0,2.68.41c.47.05.94.06,1.4.1a3,3,0,0,1-.43-.91,3.62,3.62,0,0,1,.15-2.18,7.07,7.07,0,0,1,2.48-3,10.06,10.06,0,0,1,3.24-1.62,7.37,7.37,0,0,1,3.65-.16,28.51,28.51,0,0,1-2.61,2.28c-.84.66-1.66,1.29-2.49,1.9a23.66,23.66,0,0,0-2.22,1.75,3.44,3.44,0,0,0-.74,1,2.59,2.59,0,0,0-.2,1.56h0l.54-.56a48.24,48.24,0,0,0,8.41-.43,36.39,36.39,0,0,0,5.42-1.12,14.75,14.75,0,0,0,4.66-2.47,20.45,20.45,0,0,0,3.79-3.87,25.21,25.21,0,0,0,2.86-4.7,10.16,10.16,0,0,0,.53-1.25,11.29,11.29,0,0,0,.43-1.28c.27-.89.49-1.81.71-2.73l1.22-5.62c.82-3.77,1.62-7.55,2.59-11.29a112.84,112.84,0,0,1,3.47-11.08,48.6,48.6,0,0,1,5.15-10.36c-3.71,6.78-5.64,14.28-7.19,21.77-.78,3.71-1.42,7.46-2.06,11.21a312,312,0,0,0,33.13,5.43c21.5,2.29,43.66,2.36,64.8-2.67a86.24,86.24,0,0,0,8.66-2.59c0-.15-.05-.3-.08-.45-.62-3.71-.81-7.4-1.24-11-.2-1.8-.51-3.61-.79-5.43s-.56-3.64-.93-5.41a32.2,32.2,0,0,0-1.72-5.19c-.65-1.72-1.25-3.46-1.84-5.21.73,1.69,1.47,3.37,2.26,5a32.31,32.31,0,0,1,2.07,5.16c.49,1.8.88,3.6,1.28,5.4s.8,3.59,1.12,5.43c.62,3.67,1,7.33,1.72,10.86a31,31,0,0,0,1.51,5.11,26.42,26.42,0,0,0,2.44,4.69,20,20,0,0,0,7.48,7,12.92,12.92,0,0,0,2.34.92,25.38,25.38,0,0,0,2.57.61,43,43,0,0,0,5.3.72,51.77,51.77,0,0,0,5.71.11l.54.56a2.47,2.47,0,0,0-.2-1.55,3.16,3.16,0,0,0-.74-1,22.09,22.09,0,0,0-2.22-1.76c-.83-.61-1.65-1.24-2.49-1.9a28.31,28.31,0,0,1-2.61-2.28,7.41,7.41,0,0,1,3.66.17,10.09,10.09,0,0,1,3.23,1.61,7.19,7.19,0,0,1,2.48,3,3.54,3.54,0,0,1,.15,2.18,2.77,2.77,0,0,1-.43.92c1.19-.08,2.38-.2,3.53-.39a20.28,20.28,0,0,0,4.87-1.59,10.63,10.63,0,0,0,1.48-.83l.46.39a12.46,12.46,0,0,0-1.91-3,9.26,9.26,0,0,0-2.27-1.93c-.84-.44-1.93-.89-3.05-1.5a13.47,13.47,0,0,1-3.14-2.29,13.57,13.57,0,0,1,3.88.05,12.35,12.35,0,0,1,1.88.39,8.53,8.53,0,0,1,2,.77,6.54,6.54,0,0,1,2.78,3.37,5.4,5.4,0,0,1,.23,3.12,6,6,0,0,0,1.3-1.42,3.8,3.8,0,0,0,.58-1.85,2.25,2.25,0,0,0-.12-.84,1.91,1.91,0,0,0-.4-.72c-.79-.94-2.47-1.64-4.14-2.28a21.52,21.52,0,0,1-5.32-2.6,7.06,7.06,0,0,1-1.24-1.21,4.82,4.82,0,0,1-.87-1.72,9.16,9.16,0,0,1-.28-1.57c-.06-.51-.09-1-.1-1.48a111.71,111.71,0,0,1,.44-11.19c.29-3.68.68-7.36,1.13-11,.9-7.33,2-14.62,3.49-21.86.76-3.62,1.6-7.22,2.61-10.77.51-1.78,1.07-3.54,1.74-5.26a24.1,24.1,0,0,1,1.17-2.53,7.47,7.47,0,0,1,1.66-2.2,7.31,7.31,0,0,0-1.46,2.3,21.49,21.49,0,0,0-.94,2.58c-.56,1.74-1,3.52-1.4,5.31-.79,3.58-1.4,7.19-1.94,10.82-1.1,7.26-1.92,14.56-2.61,21.86-.32,3.65-.6,7.31-.83,11-.19,3.41-.36,6.86-.25,10.2,5.43.86,11.35.45,16.71.28A155.49,155.49,0,0,0,459,411.18c2.36-.37,3.95,0,2.58-2.31-1.6-2.7-4-4-6.93-5-2.41-.82-9.31-1-10.72-3.45-.77-1.34.08-2,1-2.94,1.35-1.35,4-2.21,5.61-3.24q3-1.89,5.8-4.06A69.49,69.49,0,0,0,475.13,368c9-16.72,10.95-36.34,9.18-55-2.25-23.74-9.26-47.36-17.27-69.73-8.65-24.17-19.39-47.54-30.82-70.5-9.44-18.94-19.2-36.84-34.45-51.82C387.9,107.3,370.88,96.3,351.92,91.45A77.41,77.41,0,0,0,293.14,99.72Z"/><path d="M496.69,99c-5.84-6.88-14-11.83-22-15.78C459,75.47,441.91,70.94,424.28,73.1A72.73,72.73,0,0,0,377,98.44L376.2,98c-16.45-9-35.35-13.87-54.13-11.45a80.41,80.41,0,0,0-31.3,11.25l-.39-.34c-5.55-4.76-12.19-8.21-18.85-11.15C257.09,79.92,241,75.06,225,76.66a55.85,55.85,0,0,0-38.15,20.45,92.54,92.54,0,0,0-11.19,18.06c-1.45,3-5.75,9.16-1.31,11.4a1.81,1.81,0,0,0,.41.14,1.86,1.86,0,0,0,.34.06c3.53.32,6.44-1.35,9.59-2.66a112.5,112.5,0,0,1,14.12-4.5,213.11,213.11,0,0,1,33.35-5.9c11-1.12,22-1.57,33.09-1.69,2.3,0,4.62,0,6.94.07q-2.6,2.47-5.06,5.09C250.72,134.76,238,156.12,227,177.41a379.14,379.14,0,0,0-27.54,69.19c-3.43,11.88-6.24,23.93-8.51,36.09-5.09,28-9.91,62.19,1.57,89.68-4.81-2.13-9.7-4.05-13.8-7.51-8.06-6.81-7.59-15.93-5.55-25.37.87-4,1.76-8.35-3.06-9.85-9.54-3-21.24,5.27-24.92,13.52-5.23,11.71.26,24.1,10.32,31,12.47,8.53,28.89,11.64,44.13,11.27a53.66,53.66,0,0,0,14.65,14.12,57.39,57.39,0,0,0,5.29,3c.46.23,2,1.13,3.25,1.71l-.31.13c-1.79.62-3.6,1.16-5.38,1.81-3.43,1.26-9.1,3.22-6.82,8,1.87,3.92,8,4.81,11.71,5.39a117.2,117.2,0,0,0,20,1c1.45,0,3.44.1,5.44.05a3.14,3.14,0,0,1-.29.54,3.81,3.81,0,0,1-.71.75,20.47,20.47,0,0,1-4.78,2.37,17.75,17.75,0,0,0-2.81,1.43,5.86,5.86,0,0,0-2.43,2.88,6.52,6.52,0,0,0,2.08,6.77,12.16,12.16,0,0,0,2.66,1.88A18.93,18.93,0,0,0,244,438.5a23.26,23.26,0,0,0,6,1.28,49.63,49.63,0,0,0,11.87-.34,38.82,38.82,0,0,0,5.85-1.34,17.41,17.41,0,0,0,5.44-3,25.18,25.18,0,0,0,7.16-9.67,18.28,18.28,0,0,0,1-2.89c.26-1,.45-1.93.65-2.88s.38-1.92.55-2.87c22.31,4.82,45.27,7.68,68.12,6.77a160.48,160.48,0,0,0,32.58-4.43q3.58-.9,7.13-2a28.54,28.54,0,0,0,3.1,7.12,21.83,21.83,0,0,0,8.26,8.09,16,16,0,0,0,2.77,1.15c.95.31,1.85.51,2.78.72a48.6,48.6,0,0,0,5.62.87,45.84,45.84,0,0,0,11.39-.31,22.92,22.92,0,0,0,5.61-1.79,14.28,14.28,0,0,0,2.63-1.57,8.75,8.75,0,0,0,2.25-2.39,6.84,6.84,0,0,0,1-3.36,5.19,5.19,0,0,0-1.23-3.53,8.19,8.19,0,0,0-2.68-2,27.2,27.2,0,0,0-2.68-1.14,18.91,18.91,0,0,1-4.6-2.15,4.15,4.15,0,0,1-.74-.7,1.77,1.77,0,0,1-.37-.72.42.42,0,0,1,0-.12l.84.08a142.67,142.67,0,0,0,20.88,0c5.57-.29,11.92-.22,17.32-1.84,3.77-1.14,2.9-4.87.85-7.65-3.27-4.44-9.46-5.47-14.47-6.65l-.43-.13c.93-.57,1.95-1.32,2.34-1.55a77.19,77.19,0,0,0,11.86-8.8c14-12.68,21.86-30.38,24.31-48.93,2.85-21.55-1.3-43.27-6.68-64.1-6.48-25.1-15.83-49.37-26.44-73-5.4-12-11.14-23.88-17.06-35.65-5.06-10.07-10.08-20.1-16.64-29.3a138.12,138.12,0,0,0-33.58-33.43,100,100,0,0,1,15-2.06,186.19,186.19,0,0,1,32.37.72c10.79,1.12,21.41,3.33,32.07,5.36,5.56,1.06,11.13,2.13,16.69,3.25,4,.8,10,3.36,14,2.11C504.59,111.33,500.13,103.09,496.69,99ZM266.26,109c-11.38.11-22.75.55-34.07,1.7a224,224,0,0,0-29.7,4.89c-4.83,1.15-9.61,2.49-14.31,4.06-3.89,1.3-8.32,4.21-12.46,4.14-1-1.83,6.28-14.22,7.18-15.71A68.1,68.1,0,0,1,194,93.78C204.1,84,218,79.16,232,79.37c13.6.2,27.14,4.57,39.44,10.15a74.32,74.32,0,0,1,15.72,9.14l1,.77a105.4,105.4,0,0,0-12.72,9.72C272.34,109.06,269.29,109,266.26,109Zm-89.5,270.85c-8.61-2.2-17.93-5.56-24.28-12.05s-8.4-16.93-3.73-25.12a20.69,20.69,0,0,1,11.3-9.15c2.13-.73,5.83-2,8-1.21,4.82,1.77,1.37,9.81.92,13.58a27.08,27.08,0,0,0,.44,10.23c1.81,6.71,7.09,11.5,13,14.83,3.9,2.21,8.06,3.92,12.14,5.8,1,1.93,2,3.82,3.14,5.66A84,84,0,0,1,176.76,379.86Zm225-259c15.25,15,25,32.88,34.45,51.82,11.43,23,22.17,46.33,30.82,70.5,8,22.37,15,46,17.27,69.73,1.77,18.65-.21,38.27-9.18,55a69.49,69.49,0,0,1-18.81,22.21q-2.81,2.18-5.8,4.06c-1.64,1-4.26,1.89-5.61,3.24-.89.89-1.74,1.6-1,2.94,1.41,2.49,8.31,2.63,10.72,3.45,2.95,1,5.33,2.32,6.93,5,1.37,2.31-.22,1.94-2.58,2.31a155.49,155.49,0,0,1-19.16,1.45c-5.36.17-11.28.58-16.71-.28-.11-3.34.06-6.79.25-10.2.23-3.65.51-7.31.83-11,.69-7.3,1.51-14.6,2.61-21.86.54-3.63,1.15-7.24,1.94-10.82.39-1.79.84-3.57,1.4-5.31a21.49,21.49,0,0,1,.94-2.58,7.31,7.31,0,0,1,1.46-2.3,7.47,7.47,0,0,0-1.66,2.2,24.1,24.1,0,0,0-1.17,2.53c-.67,1.72-1.23,3.48-1.74,5.26-1,3.55-1.85,7.15-2.61,10.77-1.45,7.24-2.59,14.53-3.49,21.86-.45,3.66-.84,7.34-1.13,11a111.71,111.71,0,0,0-.44,11.19c0,.48,0,1,.1,1.48a9.16,9.16,0,0,0,.28,1.57,4.82,4.82,0,0,0,.87,1.72,7.06,7.06,0,0,0,1.24,1.21,21.52,21.52,0,0,0,5.32,2.6c1.67.64,3.35,1.34,4.14,2.28a1.91,1.91,0,0,1,.4.72,2.25,2.25,0,0,1,.12.84,3.8,3.8,0,0,1-.58,1.85,6,6,0,0,1-1.3,1.42,5.4,5.4,0,0,0-.23-3.12,6.54,6.54,0,0,0-2.78-3.37,8.53,8.53,0,0,0-2-.77,12.35,12.35,0,0,0-1.88-.39,13.57,13.57,0,0,0-3.88-.05,13.47,13.47,0,0,0,3.14,2.29c1.12.61,2.21,1.06,3.05,1.5a9.26,9.26,0,0,1,2.27,1.93,12.46,12.46,0,0,1,1.91,3l-.46-.39a10.63,10.63,0,0,1-1.48.83,20.28,20.28,0,0,1-4.87,1.59c-1.15.19-2.34.31-3.53.39a2.77,2.77,0,0,0,.43-.92,3.54,3.54,0,0,0-.15-2.18,7.19,7.19,0,0,0-2.48-3,10.09,10.09,0,0,0-3.23-1.61,7.41,7.41,0,0,0-3.66-.17,28.31,28.31,0,0,0,2.61,2.28c.84.66,1.66,1.29,2.49,1.9a22.09,22.09,0,0,1,2.22,1.76,3.16,3.16,0,0,1,.74,1,2.47,2.47,0,0,1,.2,1.55l-.54-.56a51.77,51.77,0,0,1-5.71-.11,43,43,0,0,1-5.3-.72,25.38,25.38,0,0,1-2.57-.61,12.92,12.92,0,0,1-2.34-.92,20,20,0,0,1-7.48-7,26.42,26.42,0,0,1-2.44-4.69,31,31,0,0,1-1.51-5.11c-.76-3.53-1.1-7.19-1.72-10.86-.32-1.84-.74-3.63-1.12-5.43s-.79-3.6-1.28-5.4a32.31,32.31,0,0,0-2.07-5.16c-.79-1.67-1.53-3.35-2.26-5,.59,1.75,1.19,3.49,1.84,5.21a32.2,32.2,0,0,1,1.72,5.19c.37,1.77.65,3.6.93,5.41s.59,3.63.79,5.43c.43,3.62.62,7.31,1.24,11,0,.15.06.3.08.45a86.24,86.24,0,0,1-8.66,2.59c-21.14,5-43.3,5-64.8,2.67a312,312,0,0,1-33.13-5.43c.64-3.75,1.28-7.5,2.06-11.21,1.55-7.49,3.48-15,7.19-21.77a48.6,48.6,0,0,0-5.15,10.36,112.84,112.84,0,0,0-3.47,11.08c-1,3.74-1.77,7.52-2.59,11.29l-1.22,5.62c-.22.92-.44,1.84-.71,2.73a11.29,11.29,0,0,1-.43,1.28,10.16,10.16,0,0,1-.53,1.25,25.21,25.21,0,0,1-2.86,4.7,20.45,20.45,0,0,1-3.79,3.87,14.75,14.75,0,0,1-4.66,2.47,36.39,36.39,0,0,1-5.42,1.12,48.24,48.24,0,0,1-8.41.43l-.54.56h0a2.59,2.59,0,0,1,.2-1.56,3.44,3.44,0,0,1,.74-1,23.66,23.66,0,0,1,2.22-1.75c.83-.61,1.65-1.24,2.49-1.9a28.51,28.51,0,0,0,2.61-2.28,7.37,7.37,0,0,0-3.65.16,10.06,10.06,0,0,0-3.24,1.62,7.07,7.07,0,0,0-2.48,3,3.62,3.62,0,0,0-.15,2.18,3,3,0,0,0,.43.91c-.46,0-.93,0-1.4-.1a22.72,22.72,0,0,1-2.68-.41,20.74,20.74,0,0,1-2.59-.74,15.32,15.32,0,0,1-3.2-1.56l-.47.39a12.88,12.88,0,0,1,1.92-3,9.39,9.39,0,0,1,2.26-1.92c.85-.44,1.93-.89,3.05-1.51a13.14,13.14,0,0,0,3.14-2.28,13.21,13.21,0,0,0-3.88,0,12.35,12.35,0,0,0-1.88.39,8.26,8.26,0,0,0-2,.77,6.6,6.6,0,0,0-2.78,3.36,5.59,5.59,0,0,0-.24,3.1c-.13-.11-.28-.22-.4-.33a4.77,4.77,0,0,1-1.25-1.77l-.14-.48a5,5,0,0,1-.07-.5,2.07,2.07,0,0,1,.11-.85c.29-1,1.9-1.9,3.6-2.6a22.47,22.47,0,0,0,5.48-2.84,6.81,6.81,0,0,0,1.25-1.36,6.36,6.36,0,0,0,.47-.85c.06-.15.13-.31.18-.45l.13-.39a14.63,14.63,0,0,0,.56-3.13c.15-2.05.09-4,.07-5.91s0-3.83,0-5.75c0-3.85,0-7.71-.1-11.58a135.2,135.2,0,0,0-2.22-23.12,56.42,56.42,0,0,0-3.4-11.14,22.73,22.73,0,0,0-6.83-9.28,18.35,18.35,0,0,1,3.63,4.43,30.47,30.47,0,0,1,2.47,5.15,55.39,55.39,0,0,1,2.69,11.09,150.79,150.79,0,0,1,1.33,22.89c0,3.84-.13,7.68-.2,11.53,0,1.93-.06,3.87-.07,5.79s0,3.7-.15,5.43c-1,0-1.89,0-2.41,0a154.6,154.6,0,0,1-17.62-.25c-2.76-.21-14.46-.57-15.16-4.64-.62-3.65,11.48-4.84,13.88-6.69,4.66-3.6-6.26-6.18-8.4-7.39-30.14-17.1-31.4-57.3-28.45-87.75.88-9.15,2.27-18.23,3.91-27.27a378.12,378.12,0,0,1,52.48-133.65c12.29-19.29,26.8-38.33,46.83-50.12a77.41,77.41,0,0,1,58.78-8.27C370.88,96.3,387.9,107.3,401.77,120.91Zm88-10.86q-3.94-.83-7.92-1.61c-18.33-3.65-36.74-7.76-55.43-9-13.67-.93-29.52-1.42-43.32,2.66-1.13-.73-2.28-1.44-3.43-2.12A69,69,0,0,1,419,77c17-3.41,33.65-.24,49.33,6.6C476.18,87,484,91.22,490.45,97c2.38,2.13,5.48,4.86,6.74,7.86C500.19,112,493.83,110.9,489.74,110.05Z"/>    </g>    <g id="eye">        <g id="eye-color1">            <g opacity="0" ><path fill="#898989"  d="M268.4,156.18c-.14.47-.21.95-.36,1.41a15.63,15.63,0,0,1-1.35,2.87c-.52.93-1,1.89-1.54,2.82-.24.42-.5.81-.77,1.2l-.43.62c-.09.11-.46.46-.46.6-.19.25-.39.49-.59.74-5.88,7-13.9,9.8-22.69,6.53-8.54-3.17-14.21-10.41-14.65-19.54a.86.86,0,0,1,0-.28.9.9,0,0,1,0-.29,23.29,23.29,0,0,1,19-21.82A19,19,0,0,1,256,132.39c-15.29-7.7-34.35-2.93-39.29,15.33a20.58,20.58,0,0,0-.66,6.54,29.34,29.34,0,0,0,10.48,20.23c8.59,7.08,21.5,6.67,31,1.77,7.19-3.69,10-12.6,10.92-20.46C268.48,155.93,268.43,156.06,268.4,156.18Z"/></g><g opacity="0" ><path fill="#898989"  d="M392.15,150.12c-.24.62-.44,1.25-.7,1.86a24.88,24.88,0,0,1-2,3.67,31,31,0,0,1-2.54,3.43c-5.88,7-13.9,9.8-22.69,6.53-8.53-3.17-14.2-10.41-14.65-19.54a2.46,2.46,0,0,1,0-.28,2.64,2.64,0,0,1,0-.29,23.3,23.3,0,0,1,19.05-21.82A19,19,0,0,1,380.08,125c-15.3-7.7-34.36-2.93-39.3,15.34a20.48,20.48,0,0,0-.66,6.53,29.38,29.38,0,0,0,10.48,20.23c8.59,7.09,21.5,6.67,31,1.77,6.91-3.55,9.73-12,10.77-19.66C392.32,149.49,392.24,149.87,392.15,150.12Z"/></g>        </g>        <g id="eye-shape">            <path fill="#fcfcfc"  d="M292.42,122.51c-7.41-5.22-16.44-9.14-25.66-8a23.3,23.3,0,0,0-6.34,1.77,26.45,26.45,0,0,1,4-1.27,6.69,6.69,0,0,1,4.67,6.47c.15.09-.61,2.49-.47,2.59,2.78,1.83-.58,4.15,1.16,7.37,7.06,13.09-1.89,10.66-11.93,16.55-4.15,2.43-2.64,4-6.92,3.84-6.23-.28-12.06-1.08-16.51-6.78-.1-.13-.35,12.73-.44,12.59a49.9,49.9,0,0,0,4.25,20.57c7.49,16.64,26.85,30.68,45.61,24.46,15-5,24.67-21.28,27.85-36C315.5,149.37,306.53,132.45,292.42,122.51Z"/><path fill="#fcfcfc"  d="M249.4,123.35l0,0,2.4-1.81Z"/><path fill="#fcfcfc"  d="M235.06,147.47a50.84,50.84,0,0,0-1,9.3,67.12,67.12,0,0,1,1-8.8C235,147.8,235,147.63,235.06,147.47Z"/><path d="M300.35,125.13c-7.44-7-17.31-12.81-27.67-13.7-10-.85-17.44,3.74-25,9.51-.06,0-.1.09-.15.13l-.16.1c-32.2,24.88-13.28,88.72,29.73,85.92,17.9-1.17,30.39-17.56,35.77-33.3C318.91,156.09,313.88,137.92,300.35,125.13Zm-51-1.78,2.38-1.79-2.4,1.81Zm62.32,43.41c-3.18,14.67-12.88,31-27.85,36-18.76,6.22-38.12-7.82-45.61-24.46A49.9,49.9,0,0,1,234,157.68l0,0c0-.29,0-.58.05-.87a50.84,50.84,0,0,1,1-9.3c0,.16-.05.33-.08.5a20.26,20.26,0,0,0,14.25,7.52,2.16,2.16,0,0,0,.38.06,2,2,0,0,0,.35,0c11.31,0,23.27-8.88,24.43-20.59a14.59,14.59,0,0,0-4.71-12.27c-.76,3.85-4.65,6.55-8.44,6.82a2.18,2.18,0,0,1-1-.05c-4.41-.69-6.84-4-6.86-8.52,0-.21,0-.41,0-.61l.41-.31a29.21,29.21,0,0,1,6.58-3.69,23.3,23.3,0,0,1,6.34-1.77c9.22-1.18,18.25,2.74,25.66,8C306.53,132.45,315.5,149.37,311.72,166.76Z"/><path fill="#fcfcfc"  d="M440.62,149.87a8.74,8.74,0,0,1-1.47,2.84,8.47,8.47,0,0,1-5.34,3.18c-5.69,4.05-11.35.91-17.52-.7-14.17-1.44-5.72-13.74-5.71-25.41,0-5,.75-4.39,3.17-8.26,1.71-2.71,1.49-5.91,4.2-7.75-18.93-7-36.72-7.24-48.79,10a1.67,1.67,0,0,1-.9.66c-13.1,16.08-14.58,41-3.82,58.69,9,14.83,27.39,23.31,44.4,18.49s27.91-21.89,31.09-38.48a49.69,49.69,0,0,0,.77-13.35A.3.3,0,0,1,440.62,149.87Z"/><path fill="#fcfcfc"  d="M418.41,115.65a46,46,0,0,0-14.53-5,48.59,48.59,0,0,1,11.87,3.7C416.64,114.74,417.53,115.18,418.41,115.65Z"/><path d="M424.91,115.79c-10.4-7.28-23.9-10.75-36.44-8.14a36.45,36.45,0,0,0-12.64,5.18A48.65,48.65,0,0,0,361,129.36a55.22,55.22,0,0,0-6.54,20.28,56.83,56.83,0,0,0,4.27,29.64c7.68,17.44,26.18,29.17,45.4,26.67,19.43-2.53,32.94-19.43,37.94-37.42C447.6,148.59,442.26,127.94,424.91,115.79Zm15,47.35c-3.18,16.59-14.09,33.67-31.09,38.48s-35.38-3.66-44.4-18.49c-7.11-11.7-8.83-26.35-5.56-39.55A51.18,51.18,0,0,1,363.67,131a41.88,41.88,0,0,1,5.53-7.44,51.32,51.32,0,0,1,6.49-6.61,32,32,0,0,1,8.57-4.7,38.5,38.5,0,0,1,19.45-1.62l.17,0a46,46,0,0,1,14.53,5c-.88-.47-1.77-.91-2.66-1.32a22.79,22.79,0,0,0-11.88,9.14,3.2,3.2,0,0,0-.19.36A28.12,28.12,0,0,0,407,155.54a16.47,16.47,0,0,0,8.26,5.28c6.17,1.61,12.84-.88,18.53-4.93a6.53,6.53,0,0,1-4-.64c-4.61-2.37-5-8.24-3.22-12.54a.91.91,0,0,1,.08-.13,1.34,1.34,0,0,1,.09-.26c2.49-5.14,8.33-6.61,12.12-1.79a10,10,0,0,1,.77,1.15,10.07,10.07,0,0,1,.6,3c.18,1.09.36,2.2.45,3.31A56.89,56.89,0,0,1,439.93,163.14Z"/><path fill="#fff"  d="M269.79,121.4c0-3.16-2.48-5.25-5.34-6.35a26.45,26.45,0,0,0-4,1.27,29.21,29.21,0,0,0-6.58,3.69l-.41.31c0,.2,0,.4,0,.61,0,4.48,2.45,7.83,6.86,8.52a2.18,2.18,0,0,0,1,.05c3.79-.27,7.68-3,8.44-6.82a7.35,7.35,0,0,0,.11-.82C269.8,121.7,269.79,121.55,269.79,121.4Z"/><path fill="#fff"  d="M439.15,152.71a8.74,8.74,0,0,0,1.47-2.84c.06-.19.11-.38.16-.58a49.48,49.48,0,0,0-1.15-7.61,10,10,0,0,0-.77-1.15c-3.79-4.82-9.63-3.35-12.12,1.79a1.34,1.34,0,0,0-.09.26.91.91,0,0,0-.08.13c-1.74,4.3-1.39,10.17,3.22,12.54a6.53,6.53,0,0,0,4,.64A8.47,8.47,0,0,0,439.15,152.71Z"/>        </g>        <g id="eye-color2">            <path fill="#F7849F"  d="M250.93,167.09a23.35,23.35,0,0,0,12.85-3.35c10-5.89,20.71-21.7,13.65-34.79a20.59,20.59,0,0,0-7.2-7.28l-.44-.27c0,.15,0,.3,0,.46a7.35,7.35,0,0,1-.11.82A14.59,14.59,0,0,1,274.39,135c-1.17,11.71-13.12,20.58-24.43,20.59a1.36,1.36,0,0,1-.35,0,1.52,1.52,0,0,1-.38,0A20.26,20.26,0,0,1,235,148a67.12,67.12,0,0,0-1,8.8c0,.29,0,.57-.05.86l0,.05c.09.14.19.28.29.41A22.28,22.28,0,0,0,250.93,167.09Z"/><path fill="#F7849F"  d="M397,117.48A25.36,25.36,0,0,0,393.29,131c0,11.67,7.82,28.37,22,29.8a16.54,16.54,0,0,1-8.26-5.28,28.12,28.12,0,0,1-3.34-31.71,3.2,3.2,0,0,1,.19-.36,22.79,22.79,0,0,1,11.88-9.14,48.59,48.59,0,0,0-11.87-3.7l-.17,0h0A23.46,23.46,0,0,0,397,117.48Z"/><path fill="#F7849F"  d="M235.06,147.47a50.84,50.84,0,0,0-1,9.3,67.12,67.12,0,0,1,1-8.8C235,147.8,235,147.63,235.06,147.47Z"/>        </g>    </g>    <g id="nose-mouth">        <path fill="#f25757"  d="M342.46,246.45c-.41.22-2.32-.19-2.89,0a1,1,0,0,0-.52,1,14.81,14.81,0,0,0,.4,4.35,12.51,12.51,0,0,0-2.61-3.47,3.5,3.5,0,0,0-2.79-1.15c-1.22.19-2.07,1.53-3.4,1.18a3.47,3.47,0,0,1-.36-.08,57.36,57.36,0,0,1,3.34,6,8,8,0,0,0,.83,1.91,6,6,0,0,0,1.35,1.49,5.81,5.81,0,0,0,3.73,1.3,5,5,0,0,0,3.57-1.48,5.6,5.6,0,0,0,1.51-3.64,14.85,14.85,0,0,0-.67-4.13,16,16,0,0,0-1.28-3.22Z"/><path fill="#d33d3d"  d="M334.05,247.25a3.5,3.5,0,0,1,2.79,1.15,12.51,12.51,0,0,1,2.61,3.47,14.81,14.81,0,0,1-.4-4.35,1,1,0,0,1,.52-1c.57-.23,2.48.18,2.89,0a14.9,14.9,0,0,1-4.63-3.24,8.23,8.23,0,0,1-.88-1.16,7.5,7.5,0,0,1-2,.18c-.12.23-.25.46-.39.68a13.31,13.31,0,0,1-4.54,4.35l-.26.13.49.91a.13.13,0,0,0,.07,0,3.47,3.47,0,0,0,.36.08C332,248.78,332.83,247.44,334.05,247.25Z"/><path d="M370.82,232.48a21.37,21.37,0,0,1-1.41,5.86,12.93,12.93,0,0,1-3.34,4.75c-2.9,2.59-6.88,3.57-10.8,3.78a39.61,39.61,0,0,1-6-.17,21,21,0,0,1-5.72-1.3,16.45,16.45,0,0,1-5.12-2.84,10.05,10.05,0,0,1-.73-.73c4.22-1.48,6.82-6.56,9.69-9.86,6.16-7.12,14.84-20.64,5.73-29.06-4.65-4.31-12.15-5-18.17-4.69a62.28,62.28,0,0,0-20.68,4.42c-5.23,2.66-9.45,6.53-8.45,13s7.23,11.46,11.66,15.53,10.35,10.1,16.49,11c-.06.09-.12.19-.19.28a13.25,13.25,0,0,1-4.5,3.64,22.8,22.8,0,0,1-5.53,1.92,33.16,33.16,0,0,1-5.88.72,42.27,42.27,0,0,1-6-.2,40.29,40.29,0,0,1-5.87-1,27,27,0,0,1-5.58-2,13.06,13.06,0,0,1-4.65-3.71,11.7,11.7,0,0,0,4.22,4.45,23.43,23.43,0,0,0,5.63,2.61A36.15,36.15,0,0,0,318,250.45a26.39,26.39,0,0,0,11.36-2.84c.48,1.11,1.08,2.15,1.65,3.19a36.69,36.69,0,0,1,1.93,3.8c.13.32.21.63.35,1a6.17,6.17,0,0,0,.51,1,7.1,7.1,0,0,0,1.52,1.71,6.68,6.68,0,0,0,4.25,1.54,5.77,5.77,0,0,0,4.16-1.8,6.4,6.4,0,0,0,1.68-4.18,13.74,13.74,0,0,0-.8-4.35,17.17,17.17,0,0,0-1.11-2.66,22.41,22.41,0,0,0,2.54.88,15.94,15.94,0,0,0,3.11.59,35.08,35.08,0,0,0,6.24.22,22.1,22.1,0,0,0,6.2-1.19,14.37,14.37,0,0,0,5.42-3.36,13,13,0,0,0,3.19-5.44A17.27,17.27,0,0,0,370.82,232.48Zm-26.2,21.42a5.6,5.6,0,0,1-1.51,3.64,5,5,0,0,1-3.57,1.48,5.81,5.81,0,0,1-3.73-1.3,6,6,0,0,1-1.35-1.49,8,8,0,0,1-.83-1.91,57.36,57.36,0,0,0-3.34-6,.13.13,0,0,1-.07,0l-.49-.91.26-.13a13.31,13.31,0,0,0,4.54-4.35c.14-.22.27-.45.39-.68a7.5,7.5,0,0,0,2-.18,8.23,8.23,0,0,0,.88,1.16,14.9,14.9,0,0,0,4.63,3.24l.21.1a16,16,0,0,1,1.28,3.22A14.85,14.85,0,0,1,344.62,253.9Zm-8.85-46.15a7.79,7.79,0,0,0-1.63-.54,1.32,1.32,0,0,1,0-2.53,15,15,0,0,1,8.91-.64c2,.49,4.91,1.55,4.09,4.15a5.68,5.68,0,0,1-5.3,3.6C339.45,211.52,337.81,208.83,335.77,207.75Z"/><rect fill="#563a33"  x="312.85" y="240.07" width="2.61" height="2.61" rx="1.02" ry="1.02" transform="translate(-35.24 428.13) rotate(-65.66)"/><rect fill="#563a33"  x="305.19" y="237.27" width="2.61" height="2.61" rx="1.02" ry="1.02" transform="translate(-37.12 419.64) rotate(-65.68)"/><rect fill="#563a33"  x="305.43" y="243.3" width="2.61" height="2.61" rx="1.02" ry="1.02" transform="translate(-42.42 423.51) rotate(-65.7)"/><rect fill="#563a33"  x="354.66" y="241.94" width="2.61" height="2.61" rx="1.02" ry="1.02" transform="translate(-12.2 467.59) rotate(-65.7)"/><rect fill="#563a33"  x="359.88" y="234.44" width="2.61" height="2.61" rx="1.02" ry="1.02" transform="translate(-2.37 467.82) rotate(-65.68)"/><rect fill="#563a33"  x="361.21" y="239.37" width="2.61" height="2.61" rx="1.02" ry="1.02" transform="translate(-6.17 471.78) rotate(-65.66)"/><path fill="#fff"  d="M347.14,208.19c.82-2.6-2.13-3.66-4.09-4.15a15,15,0,0,0-8.91.64,1.32,1.32,0,0,0,0,2.53,7.79,7.79,0,0,1,1.63.54c2,1.08,3.68,3.77,6.07,4A5.68,5.68,0,0,0,347.14,208.19Z"/><path d="M308.87,269.07a132,132,0,0,0,13.9,4.15c1.17.27,2.35.42,3.53.65s2.36.35,3.56.4l1.78.15,1.79.06c1.19.07,2.39,0,3.58,0s2.38-.11,3.57-.2,2.38-.24,3.56-.45a60.72,60.72,0,0,0,7-1.45,69,69,0,0,0,13.44-5.31,46,46,0,0,1-13,6.8,51.64,51.64,0,0,1-14.54,2.61,49.69,49.69,0,0,1-14.67-1.74A67.64,67.64,0,0,1,308.87,269.07Z"/><g opacity="0.1" ><path d="M338.59,282.74c10.32-.58,20.87-7.3,26-15.68-.22.65-19.13,9.52-26.87,8.94-17.2-1.29-29.27-7-28.86-6.93C308.87,269.07,321.89,283.67,338.59,282.74Z"/></g>    </g></svg>