<!--  ~ Copyright (C) 2018 Baidu, Inc. All Rights Reserved.  --><svg viewBox="0 0 640 480" xmlns="http://www.w3.org/2000/svg">    <g id="back-ground-cl">        <rect fill="none" width="640" height="480" />        <ellipse opacity="0.1" cx="331.93" cy="418.82" rx="168.39" ry="32.01"/>    </g>    <g id="body">        <defs>            <clipPath id="outline">                <path fill="none"  d="M179.78,319.61a40.81,40.81,0,0,0,6.2,5.27c.19-4.32.53-8.64,1-12.92-.44-.4-.87-.81-1.29-1.25a28.66,28.66,0,0,1-3.76-4.79,26,26,0,0,1-1.4-2.6,26.84,26.84,0,0,0-1.38,3.33,23.25,23.25,0,0,0-.88,11.28C178.74,318.5,179.25,319.06,179.78,319.61Z"/><path fill="none"  d="M412.16,127.89c.41-.41.75-.78,1-1,4.44-5.3,5.5-12.57,9.83-18,3.85-4.79,9.93-6.75,14.06-11.21a21.06,21.06,0,0,0,5.43-11.57,16.34,16.34,0,0,0,0-5.36c-.15-.79-.39-2.63-1.06-3.2-.93-.79-4.39-.92-5.24-.52-2.46,1.16-4.5,3.64-7.07,4.9a43.93,43.93,0,0,1-8.28,3c-11.84,3.11-33,4-35.43,19A133.6,133.6,0,0,1,412.16,127.89Z"/><path fill="none"  d="M250.1,131.88a8.54,8.54,0,0,0,1.56,5.17,191.35,191.35,0,0,1,15.79-19.44,122.73,122.73,0,0,1,9.6-9.21c-5-14.07-20.35-23.27-34-14-4.42,3-8.16,6.9-12.72,9.69a24.52,24.52,0,0,1-6.2,2.79c-2.45.68-3.12,0-4.39,2.56-1.44,2.9-.07,4.47,2.33,6.45,5.67,4.68,12.24,3,18.88,3.44,3.41.23,6.79,1.28,8.43,4.51C250.69,126.41,250.07,129.09,250.1,131.88Z"/><path fill="none"  d="M467.15,243.54c-8.65-24.15-19.37-47.49-30.8-70.43-9.42-18.93-19.18-36.8-34.41-51.77A120.94,120.94,0,0,0,369,98h0a.41.41,0,0,0-.11-.07A30.59,30.59,0,0,0,368,89.8a29,29,0,0,0-2.44-6.32,28.85,28.85,0,0,1-1.29,8.44l-.31,1-1-.46a14.3,14.3,0,0,1-8.12-12.94c0-1.32.1-2.57.13-3.76a17.16,17.16,0,0,0-.23-3.45,18.29,18.29,0,0,0-2.59-6.39,27.87,27.87,0,0,0-10.47-9.34A67.35,67.35,0,0,0,330.76,52c.26,1,.5,2,.69,3.1a17.14,17.14,0,0,1,.05,6.31,12.61,12.61,0,0,1-2.87,5.79,27.93,27.93,0,0,1-4.61,4c-.79.57-1.56,1.14-2.29,1.71s-1.38,1.17-2.14,1.85c-1.42,1.32-3.1,2.53-3.89,3.78s-.71,3-.5,4.87a17.71,17.71,0,0,1,.21,3.1,5.13,5.13,0,0,1-.38,1.77,3.65,3.65,0,0,1-1.23,1.58l-.54.38L312.7,90a35,35,0,0,0-7.58-2.94,37,37,0,0,0-7-1c.52,1.13.93,2.28,1.34,3.42L301,93.9c.23.67.5,1.33.76,2l-.54.28a80,80,0,0,0-7.76,4c-20,11.78-34.51,30.8-46.79,50.08a377.44,377.44,0,0,0-52.43,133.53c-1.64,9-3,18.11-3.91,27.25-.18,1.83-.34,3.71-.48,5.61-.22,2.91-.39,5.89-.49,8.91a152.79,152.79,0,0,0,.9,23.47,98.74,98.74,0,0,0,3.07,15.36c4.1,14.13,11.8,26.59,25.43,34.31,2.13,1.21,13,3.8,8.38,7.39-2.4,1.85-14.48,3-13.86,6.68.7,4.07,12.39,4.42,15.14,4.64a154.42,154.42,0,0,0,17.61.25c.52,0,1.44,0,2.41,0,0-.46.07-.93.09-1.4.11-3.79.06-7.79.17-11.66s.13-7.78.11-11.66a160.15,160.15,0,0,0-1.55-23.18,61.08,61.08,0,0,0-2.71-11.25,32.45,32.45,0,0,0-2.45-5.24,18,18,0,0,0-3.63-4.52c3.16,2.36,5.25,5.88,6.81,9.47a60.89,60.89,0,0,1,3.42,11.28,143.87,143.87,0,0,1,2.44,23.39c.15,3.91.19,7.83.18,11.73s.09,7.72,0,11.74a20.91,20.91,0,0,1-.26,3.1,11.55,11.55,0,0,1-.37,1.6,6.21,6.21,0,0,1-.77,1.71,7.85,7.85,0,0,1-2.66,2.36,26.17,26.17,0,0,1-2.8,1.34c-.91.38-1.8.74-2.59,1.14a5.88,5.88,0,0,0-1.9,1.33,2,2,0,0,0-.5,1.61,3.66,3.66,0,0,0,.78,1.92,7.32,7.32,0,0,0,1.07,1.09,5.48,5.48,0,0,1,.24-3.12,6.52,6.52,0,0,1,2.78-3.36,8,8,0,0,1,2-.77,10.23,10.23,0,0,1,1.87-.39,13.21,13.21,0,0,1,3.88-.05,13.14,13.14,0,0,1-3.14,2.28c-1.11.61-2.2,1.07-3,1.5a9.26,9.26,0,0,0-2.27,1.93,12.58,12.58,0,0,0-1.91,3l.46-.38a13.38,13.38,0,0,0,2.19,1.15,20.84,20.84,0,0,0,5.23,1.44c.82.1,1.64.16,2.46.22a2.79,2.79,0,0,1-.44-.92,3.54,3.54,0,0,1,.15-2.18,7.19,7.19,0,0,1,2.48-3,10,10,0,0,1,3.23-1.61,7.37,7.37,0,0,1,3.65-.16,28.07,28.07,0,0,1-2.6,2.27c-.84.67-1.66,1.29-2.49,1.91a20.77,20.77,0,0,0-2.22,1.75,3.27,3.27,0,0,0-.74,1,2.59,2.59,0,0,0-.2,1.56l.56-.58a49.21,49.21,0,0,0,7.48-.28,43.19,43.19,0,0,0,5.56-1,14.79,14.79,0,0,0,4.83-2.25,23.12,23.12,0,0,0,7-8.46c.22-.42.4-.85.6-1.27l.47-1.26c.25-.91.52-1.81.73-2.75.46-1.87.84-3.78,1.26-5.68.81-3.81,1.63-7.64,2.6-11.44a116.37,116.37,0,0,1,3.48-11.22,49.61,49.61,0,0,1,5.2-10.5c-3.76,6.86-5.69,14.47-7.25,22-.76,3.66-1.39,7.34-2,11a311.44,311.44,0,0,0,33.1,5.43c21.48,2.29,43.63,2.35,64.74-2.67,2.92-.7,5.72-1.56,8.45-2.51-.74-3.71-.95-7.41-1.41-11-.11-.92-.24-1.84-.39-2.75l-.42-2.8c-.27-1.87-.52-3.74-.87-5.56a20.05,20.05,0,0,0-.62-2.68c-.28-.88-.61-1.77-.92-2.67l-.92-2.69-.81-2.73h0l2.49,5.1c.41.85.85,1.69,1.25,2.57a19.6,19.6,0,0,1,1,2.74c.53,1.86.94,3.7,1.38,5.55l.6,2.77c.18.95.35,1.9.49,2.84.56,3.78.9,7.53,1.7,11.11a26.29,26.29,0,0,0,4.28,9.83,18.43,18.43,0,0,0,8,6.59,28.45,28.45,0,0,0,5.2,1.29,47.43,47.43,0,0,0,5.46.57c1.29.06,2.58.05,3.87,0l.59.61a2.59,2.59,0,0,0-.2-1.56,3.27,3.27,0,0,0-.74-1,22.09,22.09,0,0,0-2.22-1.76c-.83-.61-1.65-1.24-2.49-1.9a28.07,28.07,0,0,1-2.6-2.27,7.37,7.37,0,0,1,3.65.16,9.79,9.79,0,0,1,3.23,1.61,7.13,7.13,0,0,1,2.48,3,3.62,3.62,0,0,1,.15,2.18,2.69,2.69,0,0,1-.42.89h.19a24.58,24.58,0,0,0,5.27-.85,16.59,16.59,0,0,0,4.4-1.92l.46.38a12.58,12.58,0,0,0-1.91-3,9.26,9.26,0,0,0-2.27-1.93c-.84-.44-1.93-.89-3-1.5a13.42,13.42,0,0,1-3.14-2.28,13.23,13.23,0,0,1,3.88,0,12.23,12.23,0,0,1,1.87.39,8.4,8.4,0,0,1,2,.78,6.48,6.48,0,0,1,2.78,3.36,5.44,5.44,0,0,1,.22,3.16,4.45,4.45,0,0,0,1.9-3.09,2.34,2.34,0,0,0-.42-1.67,5.2,5.2,0,0,0-1.72-1.32c-1.49-.78-3.31-1.33-5.14-2.13a12.39,12.39,0,0,1-2.75-1.61,6.55,6.55,0,0,1-1.25-1.27l-.26-.39a3,3,0,0,1-.24-.47,5.37,5.37,0,0,1-.29-.92l-.82-5.75a79.22,79.22,0,0,1-.91-11.47,67,67,0,0,1,2.93-17c1.53-5.46,2.92-10.91,4.36-16.39,1-3.67,2-7.32,3.22-10.91a53.6,53.6,0,0,1,2.13-5.29,15.48,15.48,0,0,1,2.63-4,7.52,7.52,0,0,1,.64-.62,13,13,0,0,0-2.86,4.8,52.4,52.4,0,0,0-1.78,5.35c-1,3.62-1.82,7.3-2.56,11-1.48,7.43-3.22,14.81-4.56,22.27a66.6,66.6,0,0,0-.68,21.91l.39,2.54c5.49.92,11.5.5,16.94.34a157.31,157.31,0,0,0,19.15-1.46c2.36-.37,3.95,0,2.58-2.3-1.61-2.7-4-4-6.93-5-2.41-.83-9.3-1-10.71-3.45-.77-1.35.08-2.06,1-2.94,1.35-1.35,4-2.21,5.6-3.25q3-1.87,5.8-4a69.68,69.68,0,0,0,18.8-22.2c8.95-16.71,10.93-36.3,9.16-54.93C482.16,289.49,475.15,265.89,467.15,243.54Z"/><path fill="none"  d="M185.94,325.87l0-.76a27.41,27.41,0,0,1-7.32-4.24,34.69,34.69,0,0,1-6.47-6.73,36.51,36.51,0,0,1-4.53-8.21,38.45,38.45,0,0,1-1.8-5.73,27.93,27.93,0,0,0-2.23,4.23,35.15,35.15,0,0,0-2.31,7.79,42.8,42.8,0,0,0-.62,5.07,17.5,17.5,0,0,0,5.9,2.45,20.39,20.39,0,0,1-9.3-4.37,34.78,34.78,0,0,1-7-7.71,54,54,0,0,1-4.87-9.21,72.69,72.69,0,0,1-2.74-8,23.48,23.48,0,0,0-1.83,5.05,26.15,26.15,0,0,0-.62,7.22,32.12,32.12,0,0,0,3.95,13.82l2.14,3.85-3.88-2.09a49.14,49.14,0,0,1-12.36-9.49,39.84,39.84,0,0,1-4.82-6.21c-.41-.65-.79-1.33-1.17-2-.07,1.69-.09,3.4-.06,5.09a72.69,72.69,0,0,0,.91,10.43,47.32,47.32,0,0,0,7.3,19.26l1.46,2.13-2.56,0a32.15,32.15,0,0,1-12.65-2.71,46.31,46.31,0,0,1-5.72-2.87c-.58-.35-1.15-.71-1.72-1.07.9,1.76,1.88,3.49,2.92,5.17a74.35,74.35,0,0,0,6,8.33,55.16,55.16,0,0,0,15.52,13.19,41.59,41.59,0,0,0,9.38,3.81c2.75-1.38,5.42-2.92,8-4.56a95.74,95.74,0,0,0,8.91-6.38,69.38,69.38,0,0,1-8.27,7.31,77.38,77.38,0,0,1-9.27,6.07q-2.43,1.37-5,2.51t-5.2,2.08c-1.31.46-2.65.85-4,1.2,3.37.65,6.75,1.23,10.14,1.64a80.63,80.63,0,0,0,17,.43,53.52,53.52,0,0,0,8.34-1.46A44.49,44.49,0,0,0,182,362c.54-1.44,1.05-2.89,1.49-4.37.13-.43.24-.87.36-1.3.55-1.93,1.06-3.87,1.47-5.84a57.16,57.16,0,0,1-.85,7.37,51.34,51.34,0,0,1-1.84,7.25,30.72,30.72,0,0,1-3.18,6.9c-.35.56-.74,1.11-1.15,1.64a83.57,83.57,0,0,0,9.67-3.46c1.1-.53,2.24-1,3.33-1.53a92.52,92.52,0,0,1-4.4-18.64A140.06,140.06,0,0,1,185.94,325.87,-5.19.29h.06l.09.21Z"/><path d="M180.75,326.16l.15.21-.09-.21Z"/><path d="M480.36,276.05c-6.48-25.08-15.82-49.33-26.42-72.92-5.39-12-11.13-23.86-17-35.62-5.06-10.07-10.07-20.09-16.63-29.28q-3-4.12-6.2-8.07a22.91,22.91,0,0,0,2.31-2.63c2.36-3.24,3.7-7,5.37-10.62a25.55,25.55,0,0,1,9.77-11.36c6.21-4.06,11.3-8.51,13.33-16,1.36-5,1.74-13.25-3.51-16.29a5.22,5.22,0,0,0-5.61.18c-1.78,1.07-3.18,2.82-4.91,4a30.41,30.41,0,0,1-7.15,3.44c-13.23,4.56-37.27,4.64-41,21.21q-3.08-1.94-6.25-3.69c-2.34-1.29-4.74-2.48-7.18-3.58a27.57,27.57,0,0,0-.48-5.2,30.21,30.21,0,0,0-3.38-9.22L364,78.09l.09,2.73a28.38,28.38,0,0,1-1.23,9.4,12.24,12.24,0,0,1-5.61-10.66c0-1.17.18-2.4.25-3.69a19.88,19.88,0,0,0-.19-4,21.1,21.1,0,0,0-2.81-7.4,27,27,0,0,0-5-6A36.37,36.37,0,0,0,343.12,54a76,76,0,0,0-14.07-5.68l-2.65-.83.77,2.66c1.06,3.68,2.15,7.36,1.49,10.71a10,10,0,0,1-2.19,4.52,25.16,25.16,0,0,1-4.09,3.66c-.77.59-1.55,1.18-2.32,1.82s-1.56,1.37-2.22,2l-2.15,2a10.92,10.92,0,0,0-2.11,2.48,6.92,6.92,0,0,0-.89,3.35,19.27,19.27,0,0,0,.25,3.1,16.06,16.06,0,0,1,.29,2.69,2.85,2.85,0,0,1-.32,1.34,35.4,35.4,0,0,0-7.4-2.42,33.9,33.9,0,0,0-8.52-.72l-1.14,0,.6.94a30,30,0,0,1,2,4.14L300,93.47a96.27,96.27,0,0,0-20.52,12.89c-3.76-9.62-11.93-17.65-22.55-18.89-12-1.4-18.91,8.34-28.13,14a25.62,25.62,0,0,1-8.15,3c-2,.45-3.58,1-4.52,3-1.84,3.85,1,8.29,3.91,10.68,3.83,3.17,9,4.33,13.83,4.3,2.69,0,5.41-.43,8.08,0,6.35,1,4.78,6.35,5.16,11a10.06,10.06,0,0,0,2.67,6.24,342.92,342.92,0,0,0-22.47,38.07,378.46,378.46,0,0,0-27.51,69.13q-5.15,17.8-8.5,36.06c-1.46,8-2.9,16.55-3.93,25.28a26.8,26.8,0,0,1-5.29-8.81L181,296.53l-1.58,2.62a26,26,0,0,0-2.9,6.74,22.68,22.68,0,0,0-.78,7.28c0,.64.11,1.28.2,1.9-.58-.78-1.13-1.57-1.64-2.39a36.89,36.89,0,0,1-2.15-3.82,38.8,38.8,0,0,1-1.78-4,51.15,51.15,0,0,1-2.4-8.44l-.59-3.27-2,2.63a30.91,30.91,0,0,0-4.2,7.71,35.07,35.07,0,0,0-1.94,8.46c-.14,1.42-.2,2.84-.2,4.25-.51-.38-1-.78-1.51-1.2A34,34,0,0,1,151,307.2a53,53,0,0,1-4.44-9.2,81.11,81.11,0,0,1-2.88-9.81l-.42-1.76-1,1.53a24.75,24.75,0,0,0-3.18,7.09,27.92,27.92,0,0,0-.94,7.72,33.88,33.88,0,0,0,1,7.7c.29,1.15.64,2.28,1,3.4a45.51,45.51,0,0,1-8.05-7,40.41,40.41,0,0,1-4.44-5.83,39.89,39.89,0,0,1-3.24-6.55l-2.05-5.3-.77,5.59a74.57,74.57,0,0,0-.61,10.93,70.85,70.85,0,0,0,1,10.87,56.73,56.73,0,0,0,2.8,10.6,42.34,42.34,0,0,0,3.67,7.5,31.91,31.91,0,0,1-9-2.25,53.84,53.84,0,0,1-5.48-2.61,46.66,46.66,0,0,1-5.11-3.25L105.39,324l1.77,3.94a70.25,70.25,0,0,0,5.1,9.26,77.33,77.33,0,0,0,6.3,8.43,56,56,0,0,0,16.27,13.25,42.29,42.29,0,0,0,8.56,3.29,68.32,68.32,0,0,1-10,3.94,51.08,51.08,0,0,1-10.48,2.09l-8.22.73,8,2a136.59,136.59,0,0,0,17.22,3.29,72.36,72.36,0,0,0,17.65.11,46.26,46.26,0,0,0,8.68-1.91,41.14,41.14,0,0,0,15.07-8.58l-.24.62a34.72,34.72,0,0,1-3.44,6.26,13.94,13.94,0,0,1-5,4.46l-8.82,4.33,9.69-1.87a78.05,78.05,0,0,0,15.66-4.74c1.08-.47,2.14-1,3.19-1.5A72.69,72.69,0,0,0,198.25,383a53.84,53.84,0,0,0,16.37,16.68,51.84,51.84,0,0,0,5.28,3c.46.23,2,1.13,3.25,1.71l-.31.13c-1.79.62-3.6,1.16-5.38,1.81-3.43,1.25-9.09,3.22-6.82,8,1.88,3.91,8,4.8,11.71,5.38a116,116,0,0,0,20,1c1.43,0,3.4.1,5.38.06a2.69,2.69,0,0,1-.2.38c-.72,1.09-2.44,1.88-4.19,2.6-.89.37-1.82.73-2.77,1.2a8.86,8.86,0,0,0-2.84,2,5,5,0,0,0-1,1.78,5.64,5.64,0,0,0-.21,2,6.67,6.67,0,0,0,1.35,3.45,12.82,12.82,0,0,0,5.35,3.8,24,24,0,0,0,6,1.61,48.83,48.83,0,0,0,12-.1,45.78,45.78,0,0,0,5.91-1.18,17.81,17.81,0,0,0,5.67-2.77,24.71,24.71,0,0,0,7.54-9.58c.22-.46.41-.93.61-1.39l.5-1.5c.25-1,.51-2,.69-2.92s.44-2.19.64-3.28c22.29,4.82,45.24,7.67,68.06,6.77a160.11,160.11,0,0,0,32.55-4.44c2.33-.58,4.65-1.23,6.94-1.95a24.78,24.78,0,0,0,1,2.89,30.31,30.31,0,0,0,2.83,5.22,20.79,20.79,0,0,0,9.18,7.7,31,31,0,0,0,5.77,1.48,51.6,51.6,0,0,0,5.81.64,49.31,49.31,0,0,0,5.83-.05c1-.07,1.92-.15,2.94-.29a22.64,22.64,0,0,0,3-.66,19.37,19.37,0,0,0,5.57-2.54,9.85,9.85,0,0,0,2.39-2.31,6.56,6.56,0,0,0,1.25-3.34,5.91,5.91,0,0,0-.15-1.9,5.42,5.42,0,0,0-.85-1.78,8,8,0,0,0-2.72-2.14c-1.87-.95-3.7-1.48-5.32-2.19a10.49,10.49,0,0,1-2.16-1.2,3.42,3.42,0,0,1-.74-.73l-.15-.19c0-.05-.06-.09-.09-.15a2,2,0,0,1-.14-.33l.85.08a142.39,142.39,0,0,0,20.86,0c5.57-.29,11.91-.21,17.3-1.84,3.77-1.13,2.9-4.86.85-7.64-3.27-4.44-9.45-5.46-14.45-6.64l-.43-.13c.93-.57,1.95-1.32,2.33-1.55A77.78,77.78,0,0,0,462.75,389c14-12.67,21.83-30.36,24.28-48.89C489.88,318.55,485.74,296.86,480.36,276.05,420.78,84.89a43.93,43.93,0,0,0,8.28-3c2.57-1.26,4.61-3.74,7.07-4.9.85-.4,4.31-.27,5.24.52.67.57.91,2.41,1.06,3.2a16.34,16.34,0,0,1,0,5.36A21.06,21.06,0,0,1,437,97.67c-4.13,4.46-10.21,6.42-14.06,11.21-4.33,5.39-5.39,12.66-9.83,18-.23.27-.57.64-1,1a133.6,133.6,0,0,0-26.81-24C387.82,88.94,408.94,88,420.78,84.89,249.37,123.8c-1.64-3.23-5-4.28-8.43-4.51-6.64-.45-13.21,1.24-18.88-3.44-2.4-2-3.77-3.55-2.33-6.45,1.27-2.55,1.94-1.88,4.39-2.56a24.52,24.52,0,0,0,6.2-2.79c4.56-2.79,8.3-6.7,12.72-9.69,13.66-9.23,29,0,34,14a122.73,122.73,0,0,0-9.6,9.21,191.35,191.35,0,0,0-15.79,19.44,8.54,8.54,0,0,1-1.56-5.17C250.07,129.09,250.69,126.41,249.37,123.8,177.93,313.15a23.91,23.91,0,0,1,1.19-6.5,26.84,26.84,0,0,1,1.38-3.33,26,26,0,0,0,1.4,2.6,28.66,28.66,0,0,0,3.76,4.79c.42.44.85.85,1.29,1.25-.44,4.28-.78,8.6-1,12.92a40.81,40.81,0,0,1-6.2-5.27c-.53-.55-1-1.11-1.54-1.68A24.11,24.11,0,0,1,177.93,313.15,10.07,57a83.57,83.57,0,0,1-9.67,3.46c.41-.53.8-1.08,1.15-1.64a30.72,30.72,0,0,0,3.18-6.9,51.34,51.34,0,0,0,1.84-7.25,57.16,57.16,0,0,0,.85-7.37c-.41,2-.92,3.91-1.47,5.84-.12.43-.23.87-.36,1.3-.44,1.48-1,2.93-1.49,4.37a44.49,44.49,0,0,1-16.44,8.27,53.52,53.52,0,0,1-8.34,1.46,80.63,80.63,0,0,1-17-.43c-3.39-.41-6.77-1-10.14-1.64,1.35-.35,2.69-.74,4-1.2q2.65-.93,5.2-2.08t5-2.51a77.38,77.38,0,0,0,9.27-6.07,69.38,69.38,0,0,0,8.27-7.31,95.74,95.74,0,0,1-8.91,6.38c-2.61,1.64-5.28,3.18-8,4.56a41.59,41.59,0,0,1-9.38-3.81A55.16,55.16,0,0,1,120,344.39a74.35,74.35,0,0,1-6-8.33c-1-1.68-2-3.41-2.92-5.17.57.36,1.14.72,1.72,1.07a46.31,46.31,0,0,0,5.72,2.87,32.15,32.15,0,0,0,12.65,2.71l2.56,0-1.46-2.13a47.32,47.32,0,0,1-7.3-19.26,72.69,72.69,0,0,1-.91-10.43c0-1.69,0-3.4.06-5.09.38.67.76,1.35,1.17,2a39.84,39.84,0,0,0,4.82,6.21,49.14,49.14,0,0,0,12.36,9.49l3.88,2.09-2.14-3.85a32.12,32.12,0,0,1-3.95-13.82,26.15,26.15,0,0,1,.62-7.22,23.48,23.48,0,0,1,1.83-5.05,72.69,72.69,0,0,0,2.74,8,54,54,0,0,0,4.87,9.21,34.78,34.78,0,0,0,7,7.71,20.39,20.39,0,0,0,9.3,4.37,17.5,17.5,0,0,1-5.9-2.45,42.8,42.8,0,0,1,.62-5.07,35.15,35.15,0,0,1,2.31-7.79,27.93,27.93,0,0,1,2.23-4.23,38.45,38.45,0,0,0,1.8,5.73,36.51,36.51,0,0,0,4.53,8.21,34.69,34.69,0,0,0,6.47,6.73,27.41,27.41,0,0,0,7.32,4.24l0,.76a140.06,140.06,0,0,0,1,24.11,92.52,92.52,0,0,0,4.4,18.64C190.24,369.16,189.1,369.62,188,370.15,287.24-2a69.68,69.68,0,0,1-18.8,22.2q-2.81,2.16-5.8,4c-1.64,1-4.25,1.9-5.6,3.25-.89.88-1.74,1.59-1,2.94,1.41,2.48,8.3,2.62,10.71,3.45,3,1,5.32,2.31,6.93,5,1.37,2.3-.22,1.93-2.58,2.3A157.31,157.31,0,0,1,440,412.8c-5.44.16-11.45.58-16.94-.34l-.39-2.54a66.6,66.6,0,0,1,.68-21.91c1.34-7.46,3.08-14.84,4.56-22.27.74-3.7,1.54-7.38,2.56-11a52.4,52.4,0,0,1,1.78-5.35,13,13,0,0,1,2.86-4.8,7.52,7.52,0,0,0-.64.62,15.48,15.48,0,0,0-2.63,4,53.6,53.6,0,0,0-2.13,5.29c-1.24,3.59-2.26,7.24-3.22,10.91-1.44,5.48-2.83,10.93-4.36,16.39a67,67,0,0,0-2.93,17,79.22,79.22,0,0,0,.91,11.47l.82,5.75a5.37,5.37,0,0,0,.29.92,3,3,0,0,0,.24.47l.26.39a6.55,6.55,0,0,0,1.25,1.27,12.39,12.39,0,0,0,2.75,1.61c1.83.8,3.65,1.35,5.14,2.13a5.2,5.2,0,0,1,1.72,1.32,2.34,2.34,0,0,1,.42,1.67,4.45,4.45,0,0,1-1.9,3.09,5.44,5.44,0,0,0-.22-3.16,6.48,6.48,0,0,0-2.78-3.36,8.4,8.4,0,0,0-2-.78,12.23,12.23,0,0,0-1.87-.39,13.23,13.23,0,0,0-3.88,0,13.42,13.42,0,0,0,3.14,2.28c1.11.61,2.2,1.06,3,1.5a9.26,9.26,0,0,1,2.27,1.93,12.58,12.58,0,0,1,1.91,3l-.46-.38a16.59,16.59,0,0,1-4.4,1.92,24.58,24.58,0,0,1-5.27.85h-.19a2.69,2.69,0,0,0,.42-.89,3.62,3.62,0,0,0-.15-2.18,7.13,7.13,0,0,0-2.48-3,9.79,9.79,0,0,0-3.23-1.61,7.37,7.37,0,0,0-3.65-.16,28.07,28.07,0,0,0,2.6,2.27c.84.66,1.66,1.29,2.49,1.9a22.09,22.09,0,0,1,2.22,1.76,3.27,3.27,0,0,1,.74,1,2.59,2.59,0,0,1,.2,1.56l-.59-.61c-1.29.05-2.58.06-3.87,0a47.43,47.43,0,0,1-5.46-.57,28.45,28.45,0,0,1-5.2-1.29,18.43,18.43,0,0,1-8-6.59,26.29,26.29,0,0,1-4.28-9.83c-.8-3.58-1.14-7.33-1.7-11.11-.14-.94-.31-1.89-.49-2.84l-.6-2.77c-.44-1.85-.85-3.69-1.38-5.55a19.6,19.6,0,0,0-1-2.74c-.4-.88-.84-1.72-1.25-2.57l-2.49-5.1h0l.81,2.73.92,2.69c.31.9.64,1.79.92,2.67a20.05,20.05,0,0,1,.62,2.68c.35,1.82.6,3.69.87,5.56l.42,2.8c.15.91.28,1.83.39,2.75.46,3.6.67,7.3,1.41,11-2.73.95-5.53,1.81-8.45,2.51-21.11,5-43.26,5-64.74,2.67a311.44,311.44,0,0,1-33.1-5.43c.63-3.69,1.26-7.37,2-11,1.56-7.58,3.49-15.19,7.25-22a49.61,49.61,0,0,0-5.2,10.5,116.37,116.37,0,0,0-3.48,11.22c-1,3.8-1.79,7.63-2.6,11.44-.42,1.9-.8,3.81-1.26,5.68-.21.94-.48,1.84-.73,2.75l-.47,1.26c-.2.42-.38.85-.6,1.27a23.12,23.12,0,0,1-7,8.46,14.79,14.79,0,0,1-4.83,2.25,43.19,43.19,0,0,1-5.56,1,49.21,49.21,0,0,1-7.48.28l-.56.58a2.59,2.59,0,0,1,.2-1.56,3.27,3.27,0,0,1,.74-1,20.77,20.77,0,0,1,2.22-1.75c.83-.62,1.65-1.24,2.49-1.91a28.07,28.07,0,0,0,2.6-2.27,7.37,7.37,0,0,0-3.65.16,10,10,0,0,0-3.23,1.61,7.19,7.19,0,0,0-2.48,3,3.54,3.54,0,0,0-.15,2.18,2.79,2.79,0,0,0,.44.92c-.82-.06-1.64-.12-2.46-.22a20.84,20.84,0,0,1-5.23-1.44,13.38,13.38,0,0,1-2.19-1.15l-.46.38a12.58,12.58,0,0,1,1.91-3,9.26,9.26,0,0,1,2.27-1.93c.84-.43,1.93-.89,3-1.5a13.14,13.14,0,0,0,3.14-2.28,13.21,13.21,0,0,0-3.88.05,10.23,10.23,0,0,0-1.87.39,8,8,0,0,0-2,.77,6.52,6.52,0,0,0-2.78,3.36,5.48,5.48,0,0,0-.24,3.12,7.32,7.32,0,0,1-1.07-1.09,3.66,3.66,0,0,1-.78-1.92,2,2,0,0,1,.5-1.61,5.88,5.88,0,0,1,1.9-1.33c.79-.4,1.68-.76,2.59-1.14a26.17,26.17,0,0,0,2.8-1.34,7.85,7.85,0,0,0,2.66-2.36,6.21,6.21,0,0,0,.77-1.71,11.55,11.55,0,0,0,.37-1.6,20.91,20.91,0,0,0,.26-3.1c.05-4-.08-7.81,0-11.74s0-7.82-.18-11.73a143.87,143.87,0,0,0-2.44-23.39,60.89,60.89,0,0,0-3.42-11.28c-1.56-3.59-3.65-7.11-6.81-9.47a18,18,0,0,1,3.63,4.52,32.45,32.45,0,0,1,2.45,5.24,61.08,61.08,0,0,1,2.71,11.25,160.15,160.15,0,0,1,1.55,23.18c0,3.88,0,7.76-.11,11.66s-.06,7.87-.17,11.66c0,.47,0,.94-.09,1.4-1,0-1.89,0-2.41,0a154.42,154.42,0,0,1-17.61-.25c-2.75-.22-14.44-.57-15.14-4.64-.62-3.64,11.46-4.83,13.86-6.68,4.66-3.59-6.25-6.18-8.38-7.39-13.63-7.72-21.33-20.18-25.43-34.31A98.74,98.74,0,0,1,190.21,349a152.79,152.79,0,0,1-.9-23.47c.1-3,.27-6,.49-8.91.14-1.9.3-3.78.48-5.61.88-9.14,2.27-18.22,3.91-27.25a377.44,377.44,0,0,1,52.43-133.53c12.28-19.28,26.78-38.3,46.79-50.08a80,80,0,0,1,7.76-4l.54-.28c-.26-.67-.53-1.33-.76-2l-1.53-4.48c-.41-1.14-.82-2.29-1.34-3.42a37,37,0,0,1,7,1A35,35,0,0,1,312.7,90l.56.29.54-.38A3.65,3.65,0,0,0,315,88.32a5.13,5.13,0,0,0,.38-1.77,17.71,17.71,0,0,0-.21-3.1c-.21-1.85-.31-3.69.5-4.87s2.47-2.46,3.89-3.78c.76-.68,1.4-1.26,2.14-1.85s1.5-1.14,2.29-1.71a27.93,27.93,0,0,0,4.61-4,12.61,12.61,0,0,0,2.87-5.79,17.14,17.14,0,0,0-.05-6.31c-.19-1.06-.43-2.09-.69-3.1a67.35,67.35,0,0,1,10.94,4.55,27.87,27.87,0,0,1,10.47,9.34,18.29,18.29,0,0,1,2.59,6.39,17.16,17.16,0,0,1,.23,3.45c0,1.19-.14,2.44-.13,3.76A14.3,14.3,0,0,0,363,92.47l1,.46.31-1a28.85,28.85,0,0,0,1.29-8.44A29,29,0,0,1,368,89.8a30.59,30.59,0,0,1,.89,8.16A.41.41,0,0,1,369,98h0a120.94,120.94,0,0,1,32.92,23.32c15.23,15,25,32.84,34.41,51.77,11.43,22.94,22.15,46.28,30.8,70.43,8,22.35,15,46,17.25,69.68C486.17,331.85,484.19,351.44,475.24,368.15Z"/>            </clipPath>        </defs>        <g clip-path="url(#outline)">            <rect fill="#AED4D2" width="640" height="480" />        </g>    </g>    <g id="pattern">        <g clip-path="url(#outline)">            <g opacity="0.6" ><path fill="#E8D3B3"  d="M502.33,335.08a151.07,151.07,0,0,1-15.05,4.07c-13.31,2.79-28.61,6-42.28,4.92,25.63,2.13,53.69.69,82-4.21,10.57-1.83,45.11-15.55,45.11-15.55L565.4,309s-29.87,13.55-37.48,16.54C519.41,328.87,511,332.28,502.33,335.08Z"/><path fill="#E8D3B3"  d="M518.46,316.56c13.41-6.75,28.61-18.11,29.61-27.31l-5.9-7.56c-2.44,1.84-4.87,3.67-7.35,5.48-37.7,27.5-86,49.2-132.19,57.3,24-3,48.75-8.22,73.42-14.05C490.32,327.05,505.05,323.32,518.46,316.56Z"/><path fill="#E8D3B3"  d="M474.38,296.75c-10.24,10.35-26.95,18.09-42.91,25.34,28.69-4,58.29-15.41,79.89-30.87,13-9.3,30.41-21.92,21.25-28.87l-7-6.47c-6.75,7.51-15.47,17.11-26.73,22.46-10,4.73-19.62,9.28-30.21,12.88-19,6.46-35.32,16.19-55.24,19.48C435.25,312.11,452.78,304.77,474.38,296.75Z"/><path fill="#E8D3B3"  d="M142.42,284.22c34.3,4.54,68.6,18.58,102.9,23.11-30.86-14.11-63.15-25.08-102.57-34.78l-.31,1.87c-1.31,1.76-2.09,3.73-3.41,5.49-.71,1-2.52,2.44-1.22,3.42S139.61,283.85,142.42,284.22Z"/><path fill="#E8D3B3"  d="M188.84,311.91c8.17-.31,14.56-.48,22.95-.58,11.31-.13,41.44,2.69,50.88,3.22a699.71,699.71,0,0,0-73.41-9.46Z"/><path fill="#E8D3B3"  d="M188.55,324.1a209.78,209.78,0,0,0,47-4.5l3.24-1.81a187.59,187.59,0,0,1-50-.51Z"/><path fill="#E8D3B3"  d="M635.49,320.67c-4.73-3.26-13.08-3.72-21-4.05,8.36-2.43,14.49-8.37,15.79-13.59s-1.34-9.76-5-13.57l-4.51,2c-20.93,18.19-42.72,31.67-69.09,40.1a835.27,835.27,0,0,1-117.82,28.09c3.53-.57,7.3.11,10.83.32,6.93.43,14.12-.46,21.08-1,20.21-1.52,40.38-3.66,60.28-7.55A402.09,402.09,0,0,0,567.93,341c12.71-4,24.77-9.17,38.42-7.39,8,1,16.15,4.35,24.72.77C639,331,640.23,323.92,635.49,320.67Z"/><path fill="#E8D3B3"  d="M187.87,341l.84,12.5c18.26,3.26,35.21,4.72,51.71,1.6l-8.1-1C217.17,349.79,203,345.41,187.87,341Z"/><path fill="#E8D3B3"  d="M250.45,402.64c6.6-.2,14.43-.48,21-.68a117.86,117.86,0,0,1-21-4.22Z"/><path fill="#E8D3B3"  d="M250.46,415.08a8.88,8.88,0,0,0,2.54.2,45.63,45.63,0,0,0,12.71-2.34,52,52,0,0,1-15.08-2.76Z"/><path fill="#E8D3B3"  d="M422.77,399.58A88.1,88.1,0,0,1,409,400.64a10.5,10.5,0,0,0,.93.58c3.61,2.29,7,5.25,11.46,5.19,2,0,1.1-2.62,1.34-4.61Z"/><path fill="#E8D3B3"  d="M422,413.09a33.53,33.53,0,0,1-11-.73A63.4,63.4,0,0,0,418,416a8.36,8.36,0,0,0,4.13.62c.95-.3.38-1.62-.09-2.37Z"/><path fill="#E8D3B3"  d="M192.68,369.56a75.9,75.9,0,0,0,18-1.6L190.46,362Z"/></g>            <g opacity="0.6" ><path fill="#FFFFFF"  d="M285.65,417.34c.88-28.07,28.25-44.44,48.84-46.07,24.2-1.91,50.7,17.49,53.14,45.19.13,1.39-.11,1.25-1.55,2-5.06,2.52-10.68,3.22-16.14,4-11.84,1.77-24.23,2.06-36.17,2-16.08-.11-32.32-1.27-47.7-6.73"/></g>        </g>    </g>    <g id="mask">        <g opacity="0.1" ><path d="M484.87,334.92c.23,1.69-3.51,6.76-4.43,8.49-1.82,3.4-3.69,6.78-5.68,10.08a107.84,107.84,0,0,1-13.23,18.12,63.16,63.16,0,0,1-11,9.46,60.26,60.26,0,0,1-6.26,3.67,33.15,33.15,0,0,1-5.53,2.51c-4,1.15-6.15-2.22-7.32-5.52A39.64,39.64,0,0,1,429,364.19a117.62,117.62,0,0,1,2.55-14.42l-1.95,4.49c-1.34,3.1-1.84,6.94-2.61,10.23q-1.27,5.37-2.29,10.81T423,386c-.5,3.72-2.44,6.68-2.06,10.56.28,3,1.35,6,1.24,9a.63.63,0,0,0,.09.45c.16.19.46.15.69.08a107.58,107.58,0,0,0,24.47-9.43c9.47-5.3,17.38-11.48,23.77-20.11a59.55,59.55,0,0,0,8.22-14.57C482.52,353.2,486.14,344.07,484.87,334.92Z"/></g><g opacity="0.1" ><path d="M250.8,401a5.18,5.18,0,0,1,.29-1.73c-17.38-5.65-32.91-19.19-40.43-35.7-4-8.82-6.13-18.92-6.19-30.43-.12-27.61,3.21-61,10.78-87.24,10.89-37.75,30.59-71.48,52.33-104.45,10.77-16.34,17.62-34.19,32.59-46.79-23.63,13.12-38,28.59-53.16,54.08-14.43,24.28-29.76,53.17-39.76,79.22s-15,53.6-17.25,81.33c-2,24.3-2.4,58.2,14.72,78,10,11.56,21.38,19,39.1,21.26q3.44.43,7,.93Z"/></g><g opacity="0.1" ><path d="M389.4,411.67c-.71-9.29.31-9.53.31-9.54-5.29,1.25-9.82,4.44-15.12,5.67a158.69,158.69,0,0,1-19.41,2.95c-22,2.28-44.35.82-66.16-2.85-1.83-5.45-1.1-11.68-.07-17.2.53-2.84,2.35-6.23,3-8.57-4.69,6.41-6,16-7.94,23.12a.28.28,0,0,1,0,.09,66.59,66.59,0,0,1-2.5,9.52q2.72.6,5.3,1.21c14.89,5.54,32.71,6.73,47.92,6.86,15.66.12,34.69-1.09,45-4.91,2.86-1.06,9.11-1.62,10.47-3C391.37,413.7,389.52,413.28,389.4,411.67Z"/></g>        <path fill="none"  d="M12.49,139.53a2.46,2.46,0,0,1-.26-2.56A5.84,5.84,0,0,1,14,134.9a17.76,17.76,0,0,1,6.26-3.22"/><path fill="none"  d="M2,136.7a6.53,6.53,0,0,1,3.68-6,12,12,0,0,1,1.55-.58l4.51-1.47"/><g opacity="0.1" ><path fill="#fff"  d="M380.26,102.62c6.05,5.3,10.42,13.68,14.49,20.5,4.46,7.47,8.87,15,13.36,22.42,13,21.71,26.15,43.75,37,66.65a328.76,328.76,0,0,1,23.41,68.9c2.75,12.34,4.9,24.81,6.59,37.33,1.4,10.34,4.07,22.69-2.47,31.88,4.28-6,9.86-10.6,11.34-14.65,5.28-14.39.19-32.19-2.48-46.68-5.44-29.5-15.48-57.88-26.94-85.52C443.24,176.24,429,150.37,409.7,128,393.48,109.12,380.48,102.81,380.26,102.62Z"/></g>    </g>    <g id="outline">        <path fill="none"  d="M179.78,319.61a40.81,40.81,0,0,0,6.2,5.27c.19-4.32.53-8.64,1-12.92-.44-.4-.87-.81-1.29-1.25a28.66,28.66,0,0,1-3.76-4.79,26,26,0,0,1-1.4-2.6,26.84,26.84,0,0,0-1.38,3.33,23.25,23.25,0,0,0-.88,11.28C178.74,318.5,179.25,319.06,179.78,319.61Z"/><path fill="none"  d="M412.16,127.89c.41-.41.75-.78,1-1,4.44-5.3,5.5-12.57,9.83-18,3.85-4.79,9.93-6.75,14.06-11.21a21.06,21.06,0,0,0,5.43-11.57,16.34,16.34,0,0,0,0-5.36c-.15-.79-.39-2.63-1.06-3.2-.93-.79-4.39-.92-5.24-.52-2.46,1.16-4.5,3.64-7.07,4.9a43.93,43.93,0,0,1-8.28,3c-11.84,3.11-33,4-35.43,19A133.6,133.6,0,0,1,412.16,127.89Z"/><path fill="none"  d="M250.1,131.88a8.54,8.54,0,0,0,1.56,5.17,191.35,191.35,0,0,1,15.79-19.44,122.73,122.73,0,0,1,9.6-9.21c-5-14.07-20.35-23.27-34-14-4.42,3-8.16,6.9-12.72,9.69a24.52,24.52,0,0,1-6.2,2.79c-2.45.68-3.12,0-4.39,2.56-1.44,2.9-.07,4.47,2.33,6.45,5.67,4.68,12.24,3,18.88,3.44,3.41.23,6.79,1.28,8.43,4.51C250.69,126.41,250.07,129.09,250.1,131.88Z"/><path fill="none"  d="M467.15,243.54c-8.65-24.15-19.37-47.49-30.8-70.43-9.42-18.93-19.18-36.8-34.41-51.77A120.94,120.94,0,0,0,369,98h0a.41.41,0,0,0-.11-.07A30.59,30.59,0,0,0,368,89.8a29,29,0,0,0-2.44-6.32,28.85,28.85,0,0,1-1.29,8.44l-.31,1-1-.46a14.3,14.3,0,0,1-8.12-12.94c0-1.32.1-2.57.13-3.76a17.16,17.16,0,0,0-.23-3.45,18.29,18.29,0,0,0-2.59-6.39,27.87,27.87,0,0,0-10.47-9.34A67.35,67.35,0,0,0,330.76,52c.26,1,.5,2,.69,3.1a17.14,17.14,0,0,1,.05,6.31,12.61,12.61,0,0,1-2.87,5.79,27.93,27.93,0,0,1-4.61,4c-.79.57-1.56,1.14-2.29,1.71s-1.38,1.17-2.14,1.85c-1.42,1.32-3.1,2.53-3.89,3.78s-.71,3-.5,4.87a17.71,17.71,0,0,1,.21,3.1,5.13,5.13,0,0,1-.38,1.77,3.65,3.65,0,0,1-1.23,1.58l-.54.38L312.7,90a35,35,0,0,0-7.58-2.94,37,37,0,0,0-7-1c.52,1.13.93,2.28,1.34,3.42L301,93.9c.23.67.5,1.33.76,2l-.54.28a80,80,0,0,0-7.76,4c-20,11.78-34.51,30.8-46.79,50.08a377.44,377.44,0,0,0-52.43,133.53c-1.64,9-3,18.11-3.91,27.25-.18,1.83-.34,3.71-.48,5.61-.22,2.91-.39,5.89-.49,8.91a152.79,152.79,0,0,0,.9,23.47,98.74,98.74,0,0,0,3.07,15.36c4.1,14.13,11.8,26.59,25.43,34.31,2.13,1.21,13,3.8,8.38,7.39-2.4,1.85-14.48,3-13.86,6.68.7,4.07,12.39,4.42,15.14,4.64a154.42,154.42,0,0,0,17.61.25c.52,0,1.44,0,2.41,0,0-.46.07-.93.09-1.4.11-3.79.06-7.79.17-11.66s.13-7.78.11-11.66a160.15,160.15,0,0,0-1.55-23.18,61.08,61.08,0,0,0-2.71-11.25,32.45,32.45,0,0,0-2.45-5.24,18,18,0,0,0-3.63-4.52c3.16,2.36,5.25,5.88,6.81,9.47a60.89,60.89,0,0,1,3.42,11.28,143.87,143.87,0,0,1,2.44,23.39c.15,3.91.19,7.83.18,11.73s.09,7.72,0,11.74a20.91,20.91,0,0,1-.26,3.1,11.55,11.55,0,0,1-.37,1.6,6.21,6.21,0,0,1-.77,1.71,7.85,7.85,0,0,1-2.66,2.36,26.17,26.17,0,0,1-2.8,1.34c-.91.38-1.8.74-2.59,1.14a5.88,5.88,0,0,0-1.9,1.33,2,2,0,0,0-.5,1.61,3.66,3.66,0,0,0,.78,1.92,7.32,7.32,0,0,0,1.07,1.09,5.48,5.48,0,0,1,.24-3.12,6.52,6.52,0,0,1,2.78-3.36,8,8,0,0,1,2-.77,10.23,10.23,0,0,1,1.87-.39,13.21,13.21,0,0,1,3.88-.05,13.14,13.14,0,0,1-3.14,2.28c-1.11.61-2.2,1.07-3,1.5a9.26,9.26,0,0,0-2.27,1.93,12.58,12.58,0,0,0-1.91,3l.46-.38a13.38,13.38,0,0,0,2.19,1.15,20.84,20.84,0,0,0,5.23,1.44c.82.1,1.64.16,2.46.22a2.79,2.79,0,0,1-.44-.92,3.54,3.54,0,0,1,.15-2.18,7.19,7.19,0,0,1,2.48-3,10,10,0,0,1,3.23-1.61,7.37,7.37,0,0,1,3.65-.16,28.07,28.07,0,0,1-2.6,2.27c-.84.67-1.66,1.29-2.49,1.91a20.77,20.77,0,0,0-2.22,1.75,3.27,3.27,0,0,0-.74,1,2.59,2.59,0,0,0-.2,1.56l.56-.58a49.21,49.21,0,0,0,7.48-.28,43.19,43.19,0,0,0,5.56-1,14.79,14.79,0,0,0,4.83-2.25,23.12,23.12,0,0,0,7-8.46c.22-.42.4-.85.6-1.27l.47-1.26c.25-.91.52-1.81.73-2.75.46-1.87.84-3.78,1.26-5.68.81-3.81,1.63-7.64,2.6-11.44a116.37,116.37,0,0,1,3.48-11.22,49.61,49.61,0,0,1,5.2-10.5c-3.76,6.86-5.69,14.47-7.25,22-.76,3.66-1.39,7.34-2,11a311.44,311.44,0,0,0,33.1,5.43c21.48,2.29,43.63,2.35,64.74-2.67,2.92-.7,5.72-1.56,8.45-2.51-.74-3.71-.95-7.41-1.41-11-.11-.92-.24-1.84-.39-2.75l-.42-2.8c-.27-1.87-.52-3.74-.87-5.56a20.05,20.05,0,0,0-.62-2.68c-.28-.88-.61-1.77-.92-2.67l-.92-2.69-.81-2.73h0l2.49,5.1c.41.85.85,1.69,1.25,2.57a19.6,19.6,0,0,1,1,2.74c.53,1.86.94,3.7,1.38,5.55l.6,2.77c.18.95.35,1.9.49,2.84.56,3.78.9,7.53,1.7,11.11a26.29,26.29,0,0,0,4.28,9.83,18.43,18.43,0,0,0,8,6.59,28.45,28.45,0,0,0,5.2,1.29,47.43,47.43,0,0,0,5.46.57c1.29.06,2.58.05,3.87,0l.59.61a2.59,2.59,0,0,0-.2-1.56,3.27,3.27,0,0,0-.74-1,22.09,22.09,0,0,0-2.22-1.76c-.83-.61-1.65-1.24-2.49-1.9a28.07,28.07,0,0,1-2.6-2.27,7.37,7.37,0,0,1,3.65.16,9.79,9.79,0,0,1,3.23,1.61,7.13,7.13,0,0,1,2.48,3,3.62,3.62,0,0,1,.15,2.18,2.69,2.69,0,0,1-.42.89h.19a24.58,24.58,0,0,0,5.27-.85,16.59,16.59,0,0,0,4.4-1.92l.46.38a12.58,12.58,0,0,0-1.91-3,9.26,9.26,0,0,0-2.27-1.93c-.84-.44-1.93-.89-3-1.5a13.42,13.42,0,0,1-3.14-2.28,13.23,13.23,0,0,1,3.88,0,12.23,12.23,0,0,1,1.87.39,8.4,8.4,0,0,1,2,.78,6.48,6.48,0,0,1,2.78,3.36,5.44,5.44,0,0,1,.22,3.16,4.45,4.45,0,0,0,1.9-3.09,2.34,2.34,0,0,0-.42-1.67,5.2,5.2,0,0,0-1.72-1.32c-1.49-.78-3.31-1.33-5.14-2.13a12.39,12.39,0,0,1-2.75-1.61,6.55,6.55,0,0,1-1.25-1.27l-.26-.39a3,3,0,0,1-.24-.47,5.37,5.37,0,0,1-.29-.92l-.82-5.75a79.22,79.22,0,0,1-.91-11.47,67,67,0,0,1,2.93-17c1.53-5.46,2.92-10.91,4.36-16.39,1-3.67,2-7.32,3.22-10.91a53.6,53.6,0,0,1,2.13-5.29,15.48,15.48,0,0,1,2.63-4,7.52,7.52,0,0,1,.64-.62,13,13,0,0,0-2.86,4.8,52.4,52.4,0,0,0-1.78,5.35c-1,3.62-1.82,7.3-2.56,11-1.48,7.43-3.22,14.81-4.56,22.27a66.6,66.6,0,0,0-.68,21.91l.39,2.54c5.49.92,11.5.5,16.94.34a157.31,157.31,0,0,0,19.15-1.46c2.36-.37,3.95,0,2.58-2.3-1.61-2.7-4-4-6.93-5-2.41-.83-9.3-1-10.71-3.45-.77-1.35.08-2.06,1-2.94,1.35-1.35,4-2.21,5.6-3.25q3-1.87,5.8-4a69.68,69.68,0,0,0,18.8-22.2c8.95-16.71,10.93-36.3,9.16-54.93C482.16,289.49,475.15,265.89,467.15,243.54Z"/><path fill="none"  d="M185.94,325.87l0-.76a27.41,27.41,0,0,1-7.32-4.24,34.69,34.69,0,0,1-6.47-6.73,36.51,36.51,0,0,1-4.53-8.21,38.45,38.45,0,0,1-1.8-5.73,27.93,27.93,0,0,0-2.23,4.23,35.15,35.15,0,0,0-2.31,7.79,42.8,42.8,0,0,0-.62,5.07,17.5,17.5,0,0,0,5.9,2.45,20.39,20.39,0,0,1-9.3-4.37,34.78,34.78,0,0,1-7-7.71,54,54,0,0,1-4.87-9.21,72.69,72.69,0,0,1-2.74-8,23.48,23.48,0,0,0-1.83,5.05,26.15,26.15,0,0,0-.62,7.22,32.12,32.12,0,0,0,3.95,13.82l2.14,3.85-3.88-2.09a49.14,49.14,0,0,1-12.36-9.49,39.84,39.84,0,0,1-4.82-6.21c-.41-.65-.79-1.33-1.17-2-.07,1.69-.09,3.4-.06,5.09a72.69,72.69,0,0,0,.91,10.43,47.32,47.32,0,0,0,7.3,19.26l1.46,2.13-2.56,0a32.15,32.15,0,0,1-12.65-2.71,46.31,46.31,0,0,1-5.72-2.87c-.58-.35-1.15-.71-1.72-1.07.9,1.76,1.88,3.49,2.92,5.17a74.35,74.35,0,0,0,6,8.33,55.16,55.16,0,0,0,15.52,13.19,41.59,41.59,0,0,0,9.38,3.81c2.75-1.38,5.42-2.92,8-4.56a95.74,95.74,0,0,0,8.91-6.38,69.38,69.38,0,0,1-8.27,7.31,77.38,77.38,0,0,1-9.27,6.07q-2.43,1.37-5,2.51t-5.2,2.08c-1.31.46-2.65.85-4,1.2,3.37.65,6.75,1.23,10.14,1.64a80.63,80.63,0,0,0,17,.43,53.52,53.52,0,0,0,8.34-1.46A44.49,44.49,0,0,0,182,362c.54-1.44,1.05-2.89,1.49-4.37.13-.43.24-.87.36-1.3.55-1.93,1.06-3.87,1.47-5.84a57.16,57.16,0,0,1-.85,7.37,51.34,51.34,0,0,1-1.84,7.25,30.72,30.72,0,0,1-3.18,6.9c-.35.56-.74,1.11-1.15,1.64a83.57,83.57,0,0,0,9.67-3.46c1.1-.53,2.24-1,3.33-1.53a92.52,92.52,0,0,1-4.4-18.64A140.06,140.06,0,0,1,185.94,325.87Zm-5.19.29h.06l.09.21Z"/><path d="M180.75,326.16l.15.21-.09-.21Z"/><path d="M480.36,276.05c-6.48-25.08-15.82-49.33-26.42-72.92-5.39-12-11.13-23.86-17-35.62-5.06-10.07-10.07-20.09-16.63-29.28q-3-4.12-6.2-8.07a22.91,22.91,0,0,0,2.31-2.63c2.36-3.24,3.7-7,5.37-10.62a25.55,25.55,0,0,1,9.77-11.36c6.21-4.06,11.3-8.51,13.33-16,1.36-5,1.74-13.25-3.51-16.29a5.22,5.22,0,0,0-5.61.18c-1.78,1.07-3.18,2.82-4.91,4a30.41,30.41,0,0,1-7.15,3.44c-13.23,4.56-37.27,4.64-41,21.21q-3.08-1.94-6.25-3.69c-2.34-1.29-4.74-2.48-7.18-3.58a27.57,27.57,0,0,0-.48-5.2,30.21,30.21,0,0,0-3.38-9.22L364,78.09l.09,2.73a28.38,28.38,0,0,1-1.23,9.4,12.24,12.24,0,0,1-5.61-10.66c0-1.17.18-2.4.25-3.69a19.88,19.88,0,0,0-.19-4,21.1,21.1,0,0,0-2.81-7.4,27,27,0,0,0-5-6A36.37,36.37,0,0,0,343.12,54a76,76,0,0,0-14.07-5.68l-2.65-.83.77,2.66c1.06,3.68,2.15,7.36,1.49,10.71a10,10,0,0,1-2.19,4.52,25.16,25.16,0,0,1-4.09,3.66c-.77.59-1.55,1.18-2.32,1.82s-1.56,1.37-2.22,2l-2.15,2a10.92,10.92,0,0,0-2.11,2.48,6.92,6.92,0,0,0-.89,3.35,19.27,19.27,0,0,0,.25,3.1,16.06,16.06,0,0,1,.29,2.69,2.85,2.85,0,0,1-.32,1.34,35.4,35.4,0,0,0-7.4-2.42,33.9,33.9,0,0,0-8.52-.72l-1.14,0,.6.94a30,30,0,0,1,2,4.14L300,93.47a96.27,96.27,0,0,0-20.52,12.89c-3.76-9.62-11.93-17.65-22.55-18.89-12-1.4-18.91,8.34-28.13,14a25.62,25.62,0,0,1-8.15,3c-2,.45-3.58,1-4.52,3-1.84,3.85,1,8.29,3.91,10.68,3.83,3.17,9,4.33,13.83,4.3,2.69,0,5.41-.43,8.08,0,6.35,1,4.78,6.35,5.16,11a10.06,10.06,0,0,0,2.67,6.24,342.92,342.92,0,0,0-22.47,38.07,378.46,378.46,0,0,0-27.51,69.13q-5.15,17.8-8.5,36.06c-1.46,8-2.9,16.55-3.93,25.28a26.8,26.8,0,0,1-5.29-8.81L181,296.53l-1.58,2.62a26,26,0,0,0-2.9,6.74,22.68,22.68,0,0,0-.78,7.28c0,.64.11,1.28.2,1.9-.58-.78-1.13-1.57-1.64-2.39a36.89,36.89,0,0,1-2.15-3.82,38.8,38.8,0,0,1-1.78-4,51.15,51.15,0,0,1-2.4-8.44l-.59-3.27-2,2.63a30.91,30.91,0,0,0-4.2,7.71,35.07,35.07,0,0,0-1.94,8.46c-.14,1.42-.2,2.84-.2,4.25-.51-.38-1-.78-1.51-1.2A34,34,0,0,1,151,307.2a53,53,0,0,1-4.44-9.2,81.11,81.11,0,0,1-2.88-9.81l-.42-1.76-1,1.53a24.75,24.75,0,0,0-3.18,7.09,27.92,27.92,0,0,0-.94,7.72,33.88,33.88,0,0,0,1,7.7c.29,1.15.64,2.28,1,3.4a45.51,45.51,0,0,1-8.05-7,40.41,40.41,0,0,1-4.44-5.83,39.89,39.89,0,0,1-3.24-6.55l-2.05-5.3-.77,5.59a74.57,74.57,0,0,0-.61,10.93,70.85,70.85,0,0,0,1,10.87,56.73,56.73,0,0,0,2.8,10.6,42.34,42.34,0,0,0,3.67,7.5,31.91,31.91,0,0,1-9-2.25,53.84,53.84,0,0,1-5.48-2.61,46.66,46.66,0,0,1-5.11-3.25L105.39,324l1.77,3.94a70.25,70.25,0,0,0,5.1,9.26,77.33,77.33,0,0,0,6.3,8.43,56,56,0,0,0,16.27,13.25,42.29,42.29,0,0,0,8.56,3.29,68.32,68.32,0,0,1-10,3.94,51.08,51.08,0,0,1-10.48,2.09l-8.22.73,8,2a136.59,136.59,0,0,0,17.22,3.29,72.36,72.36,0,0,0,17.65.11,46.26,46.26,0,0,0,8.68-1.91,41.14,41.14,0,0,0,15.07-8.58l-.24.62a34.72,34.72,0,0,1-3.44,6.26,13.94,13.94,0,0,1-5,4.46l-8.82,4.33,9.69-1.87a78.05,78.05,0,0,0,15.66-4.74c1.08-.47,2.14-1,3.19-1.5A72.69,72.69,0,0,0,198.25,383a53.84,53.84,0,0,0,16.37,16.68,51.84,51.84,0,0,0,5.28,3c.46.23,2,1.13,3.25,1.71l-.31.13c-1.79.62-3.6,1.16-5.38,1.81-3.43,1.25-9.09,3.22-6.82,8,1.88,3.91,8,4.8,11.71,5.38a116,116,0,0,0,20,1c1.43,0,3.4.1,5.38.06a2.69,2.69,0,0,1-.2.38c-.72,1.09-2.44,1.88-4.19,2.6-.89.37-1.82.73-2.77,1.2a8.86,8.86,0,0,0-2.84,2,5,5,0,0,0-1,1.78,5.64,5.64,0,0,0-.21,2,6.67,6.67,0,0,0,1.35,3.45,12.82,12.82,0,0,0,5.35,3.8,24,24,0,0,0,6,1.61,48.83,48.83,0,0,0,12-.1,45.78,45.78,0,0,0,5.91-1.18,17.81,17.81,0,0,0,5.67-2.77,24.71,24.71,0,0,0,7.54-9.58c.22-.46.41-.93.61-1.39l.5-1.5c.25-1,.51-2,.69-2.92s.44-2.19.64-3.28c22.29,4.82,45.24,7.67,68.06,6.77a160.11,160.11,0,0,0,32.55-4.44c2.33-.58,4.65-1.23,6.94-1.95a24.78,24.78,0,0,0,1,2.89,30.31,30.31,0,0,0,2.83,5.22,20.79,20.79,0,0,0,9.18,7.7,31,31,0,0,0,5.77,1.48,51.6,51.6,0,0,0,5.81.64,49.31,49.31,0,0,0,5.83-.05c1-.07,1.92-.15,2.94-.29a22.64,22.64,0,0,0,3-.66,19.37,19.37,0,0,0,5.57-2.54,9.85,9.85,0,0,0,2.39-2.31,6.56,6.56,0,0,0,1.25-3.34,5.91,5.91,0,0,0-.15-1.9,5.42,5.42,0,0,0-.85-1.78,8,8,0,0,0-2.72-2.14c-1.87-.95-3.7-1.48-5.32-2.19a10.49,10.49,0,0,1-2.16-1.2,3.42,3.42,0,0,1-.74-.73l-.15-.19c0-.05-.06-.09-.09-.15a2,2,0,0,1-.14-.33l.85.08a142.39,142.39,0,0,0,20.86,0c5.57-.29,11.91-.21,17.3-1.84,3.77-1.13,2.9-4.86.85-7.64-3.27-4.44-9.45-5.46-14.45-6.64l-.43-.13c.93-.57,1.95-1.32,2.33-1.55A77.78,77.78,0,0,0,462.75,389c14-12.67,21.83-30.36,24.28-48.89C489.88,318.55,485.74,296.86,480.36,276.05ZM420.78,84.89a43.93,43.93,0,0,0,8.28-3c2.57-1.26,4.61-3.74,7.07-4.9.85-.4,4.31-.27,5.24.52.67.57.91,2.41,1.06,3.2a16.34,16.34,0,0,1,0,5.36A21.06,21.06,0,0,1,437,97.67c-4.13,4.46-10.21,6.42-14.06,11.21-4.33,5.39-5.39,12.66-9.83,18-.23.27-.57.64-1,1a133.6,133.6,0,0,0-26.81-24C387.82,88.94,408.94,88,420.78,84.89ZM249.37,123.8c-1.64-3.23-5-4.28-8.43-4.51-6.64-.45-13.21,1.24-18.88-3.44-2.4-2-3.77-3.55-2.33-6.45,1.27-2.55,1.94-1.88,4.39-2.56a24.52,24.52,0,0,0,6.2-2.79c4.56-2.79,8.3-6.7,12.72-9.69,13.66-9.23,29,0,34,14a122.73,122.73,0,0,0-9.6,9.21,191.35,191.35,0,0,0-15.79,19.44,8.54,8.54,0,0,1-1.56-5.17C250.07,129.09,250.69,126.41,249.37,123.8ZM177.93,313.15a23.91,23.91,0,0,1,1.19-6.5,26.84,26.84,0,0,1,1.38-3.33,26,26,0,0,0,1.4,2.6,28.66,28.66,0,0,0,3.76,4.79c.42.44.85.85,1.29,1.25-.44,4.28-.78,8.6-1,12.92a40.81,40.81,0,0,1-6.2-5.27c-.53-.55-1-1.11-1.54-1.68A24.11,24.11,0,0,1,177.93,313.15Zm10.07,57a83.57,83.57,0,0,1-9.67,3.46c.41-.53.8-1.08,1.15-1.64a30.72,30.72,0,0,0,3.18-6.9,51.34,51.34,0,0,0,1.84-7.25,57.16,57.16,0,0,0,.85-7.37c-.41,2-.92,3.91-1.47,5.84-.12.43-.23.87-.36,1.3-.44,1.48-1,2.93-1.49,4.37a44.49,44.49,0,0,1-16.44,8.27,53.52,53.52,0,0,1-8.34,1.46,80.63,80.63,0,0,1-17-.43c-3.39-.41-6.77-1-10.14-1.64,1.35-.35,2.69-.74,4-1.2q2.65-.93,5.2-2.08t5-2.51a77.38,77.38,0,0,0,9.27-6.07,69.38,69.38,0,0,0,8.27-7.31,95.74,95.74,0,0,1-8.91,6.38c-2.61,1.64-5.28,3.18-8,4.56a41.59,41.59,0,0,1-9.38-3.81A55.16,55.16,0,0,1,120,344.39a74.35,74.35,0,0,1-6-8.33c-1-1.68-2-3.41-2.92-5.17.57.36,1.14.72,1.72,1.07a46.31,46.31,0,0,0,5.72,2.87,32.15,32.15,0,0,0,12.65,2.71l2.56,0-1.46-2.13a47.32,47.32,0,0,1-7.3-19.26,72.69,72.69,0,0,1-.91-10.43c0-1.69,0-3.4.06-5.09.38.67.76,1.35,1.17,2a39.84,39.84,0,0,0,4.82,6.21,49.14,49.14,0,0,0,12.36,9.49l3.88,2.09-2.14-3.85a32.12,32.12,0,0,1-3.95-13.82,26.15,26.15,0,0,1,.62-7.22,23.48,23.48,0,0,1,1.83-5.05,72.69,72.69,0,0,0,2.74,8,54,54,0,0,0,4.87,9.21,34.78,34.78,0,0,0,7,7.71,20.39,20.39,0,0,0,9.3,4.37,17.5,17.5,0,0,1-5.9-2.45,42.8,42.8,0,0,1,.62-5.07,35.15,35.15,0,0,1,2.31-7.79,27.93,27.93,0,0,1,2.23-4.23,38.45,38.45,0,0,0,1.8,5.73,36.51,36.51,0,0,0,4.53,8.21,34.69,34.69,0,0,0,6.47,6.73,27.41,27.41,0,0,0,7.32,4.24l0,.76a140.06,140.06,0,0,0,1,24.11,92.52,92.52,0,0,0,4.4,18.64C190.24,369.16,189.1,369.62,188,370.15Zm287.24-2a69.68,69.68,0,0,1-18.8,22.2q-2.81,2.16-5.8,4c-1.64,1-4.25,1.9-5.6,3.25-.89.88-1.74,1.59-1,2.94,1.41,2.48,8.3,2.62,10.71,3.45,3,1,5.32,2.31,6.93,5,1.37,2.3-.22,1.93-2.58,2.3A157.31,157.31,0,0,1,440,412.8c-5.44.16-11.45.58-16.94-.34l-.39-2.54a66.6,66.6,0,0,1,.68-21.91c1.34-7.46,3.08-14.84,4.56-22.27.74-3.7,1.54-7.38,2.56-11a52.4,52.4,0,0,1,1.78-5.35,13,13,0,0,1,2.86-4.8,7.52,7.52,0,0,0-.64.62,15.48,15.48,0,0,0-2.63,4,53.6,53.6,0,0,0-2.13,5.29c-1.24,3.59-2.26,7.24-3.22,10.91-1.44,5.48-2.83,10.93-4.36,16.39a67,67,0,0,0-2.93,17,79.22,79.22,0,0,0,.91,11.47l.82,5.75a5.37,5.37,0,0,0,.29.92,3,3,0,0,0,.24.47l.26.39a6.55,6.55,0,0,0,1.25,1.27,12.39,12.39,0,0,0,2.75,1.61c1.83.8,3.65,1.35,5.14,2.13a5.2,5.2,0,0,1,1.72,1.32,2.34,2.34,0,0,1,.42,1.67,4.45,4.45,0,0,1-1.9,3.09,5.44,5.44,0,0,0-.22-3.16,6.48,6.48,0,0,0-2.78-3.36,8.4,8.4,0,0,0-2-.78,12.23,12.23,0,0,0-1.87-.39,13.23,13.23,0,0,0-3.88,0,13.42,13.42,0,0,0,3.14,2.28c1.11.61,2.2,1.06,3,1.5a9.26,9.26,0,0,1,2.27,1.93,12.58,12.58,0,0,1,1.91,3l-.46-.38a16.59,16.59,0,0,1-4.4,1.92,24.58,24.58,0,0,1-5.27.85h-.19a2.69,2.69,0,0,0,.42-.89,3.62,3.62,0,0,0-.15-2.18,7.13,7.13,0,0,0-2.48-3,9.79,9.79,0,0,0-3.23-1.61,7.37,7.37,0,0,0-3.65-.16,28.07,28.07,0,0,0,2.6,2.27c.84.66,1.66,1.29,2.49,1.9a22.09,22.09,0,0,1,2.22,1.76,3.27,3.27,0,0,1,.74,1,2.59,2.59,0,0,1,.2,1.56l-.59-.61c-1.29.05-2.58.06-3.87,0a47.43,47.43,0,0,1-5.46-.57,28.45,28.45,0,0,1-5.2-1.29,18.43,18.43,0,0,1-8-6.59,26.29,26.29,0,0,1-4.28-9.83c-.8-3.58-1.14-7.33-1.7-11.11-.14-.94-.31-1.89-.49-2.84l-.6-2.77c-.44-1.85-.85-3.69-1.38-5.55a19.6,19.6,0,0,0-1-2.74c-.4-.88-.84-1.72-1.25-2.57l-2.49-5.1h0l.81,2.73.92,2.69c.31.9.64,1.79.92,2.67a20.05,20.05,0,0,1,.62,2.68c.35,1.82.6,3.69.87,5.56l.42,2.8c.15.91.28,1.83.39,2.75.46,3.6.67,7.3,1.41,11-2.73.95-5.53,1.81-8.45,2.51-21.11,5-43.26,5-64.74,2.67a311.44,311.44,0,0,1-33.1-5.43c.63-3.69,1.26-7.37,2-11,1.56-7.58,3.49-15.19,7.25-22a49.61,49.61,0,0,0-5.2,10.5,116.37,116.37,0,0,0-3.48,11.22c-1,3.8-1.79,7.63-2.6,11.44-.42,1.9-.8,3.81-1.26,5.68-.21.94-.48,1.84-.73,2.75l-.47,1.26c-.2.42-.38.85-.6,1.27a23.12,23.12,0,0,1-7,8.46,14.79,14.79,0,0,1-4.83,2.25,43.19,43.19,0,0,1-5.56,1,49.21,49.21,0,0,1-7.48.28l-.56.58a2.59,2.59,0,0,1,.2-1.56,3.27,3.27,0,0,1,.74-1,20.77,20.77,0,0,1,2.22-1.75c.83-.62,1.65-1.24,2.49-1.91a28.07,28.07,0,0,0,2.6-2.27,7.37,7.37,0,0,0-3.65.16,10,10,0,0,0-3.23,1.61,7.19,7.19,0,0,0-2.48,3,3.54,3.54,0,0,0-.15,2.18,2.79,2.79,0,0,0,.44.92c-.82-.06-1.64-.12-2.46-.22a20.84,20.84,0,0,1-5.23-1.44,13.38,13.38,0,0,1-2.19-1.15l-.46.38a12.58,12.58,0,0,1,1.91-3,9.26,9.26,0,0,1,2.27-1.93c.84-.43,1.93-.89,3-1.5a13.14,13.14,0,0,0,3.14-2.28,13.21,13.21,0,0,0-3.88.05,10.23,10.23,0,0,0-1.87.39,8,8,0,0,0-2,.77,6.52,6.52,0,0,0-2.78,3.36,5.48,5.48,0,0,0-.24,3.12,7.32,7.32,0,0,1-1.07-1.09,3.66,3.66,0,0,1-.78-1.92,2,2,0,0,1,.5-1.61,5.88,5.88,0,0,1,1.9-1.33c.79-.4,1.68-.76,2.59-1.14a26.17,26.17,0,0,0,2.8-1.34,7.85,7.85,0,0,0,2.66-2.36,6.21,6.21,0,0,0,.77-1.71,11.55,11.55,0,0,0,.37-1.6,20.91,20.91,0,0,0,.26-3.1c.05-4-.08-7.81,0-11.74s0-7.82-.18-11.73a143.87,143.87,0,0,0-2.44-23.39,60.89,60.89,0,0,0-3.42-11.28c-1.56-3.59-3.65-7.11-6.81-9.47a18,18,0,0,1,3.63,4.52,32.45,32.45,0,0,1,2.45,5.24,61.08,61.08,0,0,1,2.71,11.25,160.15,160.15,0,0,1,1.55,23.18c0,3.88,0,7.76-.11,11.66s-.06,7.87-.17,11.66c0,.47,0,.94-.09,1.4-1,0-1.89,0-2.41,0a154.42,154.42,0,0,1-17.61-.25c-2.75-.22-14.44-.57-15.14-4.64-.62-3.64,11.46-4.83,13.86-6.68,4.66-3.59-6.25-6.18-8.38-7.39-13.63-7.72-21.33-20.18-25.43-34.31A98.74,98.74,0,0,1,190.21,349a152.79,152.79,0,0,1-.9-23.47c.1-3,.27-6,.49-8.91.14-1.9.3-3.78.48-5.61.88-9.14,2.27-18.22,3.91-27.25a377.44,377.44,0,0,1,52.43-133.53c12.28-19.28,26.78-38.3,46.79-50.08a80,80,0,0,1,7.76-4l.54-.28c-.26-.67-.53-1.33-.76-2l-1.53-4.48c-.41-1.14-.82-2.29-1.34-3.42a37,37,0,0,1,7,1A35,35,0,0,1,312.7,90l.56.29.54-.38A3.65,3.65,0,0,0,315,88.32a5.13,5.13,0,0,0,.38-1.77,17.71,17.71,0,0,0-.21-3.1c-.21-1.85-.31-3.69.5-4.87s2.47-2.46,3.89-3.78c.76-.68,1.4-1.26,2.14-1.85s1.5-1.14,2.29-1.71a27.93,27.93,0,0,0,4.61-4,12.61,12.61,0,0,0,2.87-5.79,17.14,17.14,0,0,0-.05-6.31c-.19-1.06-.43-2.09-.69-3.1a67.35,67.35,0,0,1,10.94,4.55,27.87,27.87,0,0,1,10.47,9.34,18.29,18.29,0,0,1,2.59,6.39,17.16,17.16,0,0,1,.23,3.45c0,1.19-.14,2.44-.13,3.76A14.3,14.3,0,0,0,363,92.47l1,.46.31-1a28.85,28.85,0,0,0,1.29-8.44A29,29,0,0,1,368,89.8a30.59,30.59,0,0,1,.89,8.16A.41.41,0,0,1,369,98h0a120.94,120.94,0,0,1,32.92,23.32c15.23,15,25,32.84,34.41,51.77,11.43,22.94,22.15,46.28,30.8,70.43,8,22.35,15,46,17.25,69.68C486.17,331.85,484.19,351.44,475.24,368.15Z"/>    </g>    <g id="eye">        <g id="eye-color1">            <g opacity="0" ><path fill="#AED4D2"  d="M259.76,173.16c-.14.46-.21.94-.36,1.41a15.55,15.55,0,0,1-1.35,2.86c-.52.94-1,1.9-1.54,2.83-.24.41-.5.8-.77,1.2-.14.21-.28.41-.43.61s-.45.47-.45.6l-.6.74c-5.88,7-13.9,9.8-22.69,6.54-8.54-3.18-14.2-10.41-14.65-19.54a1.27,1.27,0,0,1,0-.28,1.42,1.42,0,0,1,0-.3A23.29,23.29,0,0,1,236,148a19,19,0,0,1,11.42,1.35c-15.29-7.7-34.35-2.93-39.29,15.33a20.54,20.54,0,0,0-.66,6.53,29.36,29.36,0,0,0,10.48,20.24c8.59,7.08,21.5,6.67,31,1.77,7.19-3.7,10-12.61,10.92-20.46C259.84,172.91,259.8,173,259.76,173.16Z"/></g><g opacity="0" ><path fill="#AED4D2"  d="M383.51,167.1c-.24.62-.44,1.25-.69,1.86a25.27,25.27,0,0,1-2,3.66,30.31,30.31,0,0,1-2.53,3.43c-5.88,7-13.91,9.8-22.7,6.54-8.53-3.18-14.2-10.41-14.65-19.54a2.46,2.46,0,0,1,0-.28,1.39,1.39,0,0,1,0-.3,23.28,23.28,0,0,1,19-21.81A19,19,0,0,1,371.44,142c-15.3-7.7-34.36-2.93-39.3,15.33a20.83,20.83,0,0,0-.66,6.53A29.44,29.44,0,0,0,342,184.11c8.59,7.08,21.5,6.67,31,1.77,6.91-3.55,9.73-12,10.78-19.66C383.68,166.47,383.61,166.85,383.51,167.1Z"/></g>        </g>        <g id="eye-shape">            <path fill="#fff"  d="M372.8,156.6a2.39,2.39,0,0,1,.28-.49,9.85,9.85,0,0,0-2.52,1,5.43,5.43,0,0,0-1.77,1.58c.95.15,2.38.36,4.14.57a2,2,0,0,1-.21-.47,1.11,1.11,0,0,0,.88-1.08A1.13,1.13,0,0,0,372.8,156.6Z"/><path fill="#fff"  d="M378.47,157.79a3,3,0,0,1-.71,1.91,82.19,82.19,0,0,0,18.52-.48c-8.73-2.81-14.71-3.66-18.79-3.61A3,3,0,0,1,378.47,157.79Z"/><path d="M369.32,155.3a6,6,0,0,0-3.13,4l-.14,1,1,.2a105.66,105.66,0,0,0,18.27,1.64,64.64,64.64,0,0,0,15.36-1.65l3.48-.87-3.38-1.2C381.65,151.68,373.11,153,369.32,155.3Zm3.4,3.45a2,2,0,0,0,.21.47c-1.76-.21-3.19-.42-4.14-.57a5.43,5.43,0,0,1,1.77-1.58,9.85,9.85,0,0,1,2.52-1,2.39,2.39,0,0,0-.28.49,1.13,1.13,0,0,1,.8,1.07A1.11,1.11,0,0,1,372.72,158.75Zm5,.95a3,3,0,0,0,.71-1.91,3,3,0,0,0-1-2.18c4.08-.05,10.06.8,18.79,3.61A82.19,82.19,0,0,1,377.76,159.7Z"/><path fill="#fff"  d="M293.6,157.07a14,14,0,0,0-6.73-1.46,3,3,0,0,1,1.86,2.75,3,3,0,0,1-.23,1.16c3-.29,5.47-.65,6.87-.87A5.33,5.33,0,0,0,293.6,157.07Z"/><path fill="#fff"  d="M283.82,156.14a3,3,0,0,1,.74-.48,68.5,68.5,0,0,0-16.67,3.56,77.28,77.28,0,0,0,15.36.67,2.88,2.88,0,0,1-.44-1.53,2.4,2.4,0,0,1,0-.28,1.11,1.11,0,0,0,1.85-.86A1.11,1.11,0,0,0,283.82,156.14Z"/><path d="M294.84,155.3c-3.79-2.3-12.33-3.62-31.46,3.16l-3.38,1.2,3.48.87a64.64,64.64,0,0,0,15.36,1.65,105.66,105.66,0,0,0,18.27-1.64l1-.2-.15-1A6,6,0,0,0,294.84,155.3Zm-11.28,3.06a1.13,1.13,0,0,1-.72-.28,2.4,2.4,0,0,0,0,.28,2.88,2.88,0,0,0,.44,1.53,77.28,77.28,0,0,1-15.36-.67,68.5,68.5,0,0,1,16.67-3.56,3,3,0,0,0-.74.48,1.11,1.11,0,0,1,.87,1.08A1.13,1.13,0,0,1,283.56,158.36Zm4.94,1.16a3,3,0,0,0,.23-1.16,3,3,0,0,0-1.86-2.75,14,14,0,0,1,6.73,1.46,5.33,5.33,0,0,1,1.77,1.58C294,158.87,291.53,159.23,288.5,159.52Z"/><path d="M327.79,129.66a7.94,7.94,0,0,0-3.56-3.28,15.87,15.87,0,0,1,2.16,4,16.84,16.84,0,0,1,.86,4.22,36.51,36.51,0,0,1,0,4.44c-.05.75-.12,1.51-.16,2.28a22.51,22.51,0,0,0-.14,2.36,22.52,22.52,0,0,0,1.1-2.13c.26-.74.55-1.5.74-2.27a15.07,15.07,0,0,0,.44-4.84A10.93,10.93,0,0,0,327.79,129.66Z"/><path d="M333.76,131.09a15.39,15.39,0,0,0-.49-1.73,4.58,4.58,0,0,0-.88-1.62,12.66,12.66,0,0,1-.09,1.75c0,.58-.08,1.16-.1,1.74-.05,1.15,0,2.3,0,3.44s.14,2.29.29,3.44a22.17,22.17,0,0,0,.71,3.48,14,14,0,0,0,.86-3.48,21.41,21.41,0,0,0-.3-7Z"/><path d="M340.53,127a10.31,10.31,0,0,1,1.09-2.37,6.33,6.33,0,0,0-2,1.93c-.28.38-.47.8-.71,1.2s-.38.85-.54,1.29a15,15,0,0,0-.8,5.47,20.81,20.81,0,0,0,.24,2.74c.17.89.36,1.78.61,2.65s.57,1.72.92,2.55.78,1.62,1.25,2.4c-.05-.92-.18-1.79-.31-2.67s-.19-1.74-.33-2.59c-.18-1.73-.37-3.43-.38-5.12a23.38,23.38,0,0,1,.31-5A16.08,16.08,0,0,1,340.53,127Z"/><path d="M401.51,134.68a15.07,15.07,0,0,0-5.62-1.05c-2.82,0-13.36,1-22.58,2-19.2,2.16-19.47,3.13-19.56,3.45h0c-.16.57-.07,1.63,2.38,2.27a21,21,0,0,0,5.22.52h.4c3.57,0,14.76-.63,24-1.2,19.6-1.21,20.4-1.61,20.74-1.78C407.73,138.26,404.65,135.9,401.51,134.68Z"/><path d="M310,139.55c-.09-.32-.36-1.29-19.56-3.45-9.22-1-19.76-2-22.58-2a15,15,0,0,0-5.61,1c-3.15,1.22-6.23,3.58-5,4.22.34.18,1.14.58,20.74,1.79,9.21.57,20.41,1.16,24,1.2h.4a21.09,21.09,0,0,0,5.23-.52c2.44-.64,2.53-1.7,2.37-2.27Z"/>        </g>        <g id="eye-color2">            <g opacity="0" ><path fill="#FFF471"  d="M262.14,154.29c-.14.46-.21.94-.36,1.4a15.33,15.33,0,0,1-1.35,2.87c-.52.94-1,1.89-1.54,2.82-.24.42-.5.81-.77,1.21-.14.2-.28.41-.43.61s-.45.47-.45.6l-.6.74c-5.88,7-13.9,9.8-22.69,6.53-8.54-3.17-14.21-10.4-14.65-19.53a1.37,1.37,0,0,1,0-.29.93.93,0,0,1,0-.29,23.28,23.28,0,0,1,19-21.81,18.85,18.85,0,0,1,11.42,1.35c-15.29-7.71-34.35-2.93-39.29,15.33a20.54,20.54,0,0,0-.66,6.53,29.34,29.34,0,0,0,10.48,20.23c8.59,7.09,21.5,6.68,31,1.77,7.19-3.69,10-12.6,10.92-20.45C262.22,154,262.18,154.16,262.14,154.29Z"/></g><g opacity="0" ><path fill="#FFF471"  d="M385.89,148.23c-.24.61-.44,1.24-.69,1.86a25.27,25.27,0,0,1-2,3.66,29.23,29.23,0,0,1-2.54,3.43c-5.88,7-13.9,9.8-22.69,6.54-8.53-3.18-14.2-10.41-14.65-19.54a2.48,2.48,0,0,1,0-.29,2.64,2.64,0,0,1,0-.29,23.29,23.29,0,0,1,19-21.81,18.87,18.87,0,0,1,11.42,1.35c-15.3-7.71-34.36-2.93-39.3,15.33a20.83,20.83,0,0,0-.66,6.53,29.38,29.38,0,0,0,10.48,20.23c8.59,7.09,21.5,6.68,31,1.77,6.91-3.54,9.73-12,10.77-19.65C386.06,147.6,386,148,385.89,148.23Z"/></g>        </g>    </g>    <g id="nose-mouth">        <path fill="#2d2821"  d="M349.68,228.05c3-3.48,6.9-10.44,5.84-15.41-.94-4.37-8.86-3.19-12.12-3.27-5.53-.14-11-.11-16.57-.14-4.93,0-10.93-1.21-15.76-.23-6,3.54,7.41,20.47,9.69,22.26C329.5,238.16,342.48,236.45,349.68,228.05Z"/><path d="M361.94,250.65c-6.83-4-16.05-5.21-24.72-3.26a17.58,17.58,0,0,0-1.14-10.26,23,23,0,0,0,12.31-4.94,25.3,25.3,0,0,0,8.73-13.72c.84-3.51,1.83-8.51-2-10.42-1.79-.89-4-.77-6-.85q-6.94-.28-13.89-.32c-4.63,0-9.26,0-13.89-.09-3.29-.06-6.82-.69-10.06,0a1.4,1.4,0,0,0-.66.31c-7.41,4,2.2,18.65,5.48,22.32a23.78,23.78,0,0,0,17.37,7.81c-.24-.23-1-1.09,0,1.4a16.56,16.56,0,0,1,.87,7.91,35,35,0,0,0-10.13-1.66c-4.91-.29-10.64-.34-15.3,1.48-5.83,2.29-11.37,7.53-15.69,11.93a73.94,73.94,0,0,0-12.8,17.61c-3.2,6.15-6,13.07-6.78,20s2.51,11.76,8.15,15.6c5.17,3.52,11,6.92,17.25,3.92s8.94-9.46,10.34-15.79c2.29-10.39,4.38-20.16,8.55-30,1.85-4.39,3.39-9.88,6.84-13.34,3.05-3.07,8-3.79,11.93-5.44a1.42,1.42,0,0,0,.55-.24l.2-.12c8.08-1.92,16.7-3.36,23,.3C362.1,251.72,363.61,251.63,361.94,250.65ZM286.54,311c-4.45-2.6-9-5.6-9.88-11.05-1.28-8.36,4.09-18.89,8.21-25.88A71.33,71.33,0,0,1,300.4,255.7c5.67-4.76,10.42-7.54,17.8-7.88,4.43-.21,10.09-.36,14.59,1.29a37.1,37.1,0,0,0-7.64,3.07c-2.93,1.79-4.69,4.59-6.22,7.59a130.53,130.53,0,0,0-9.09,23.33c-2.33,8.28-2.06,19.76-8.06,26.49C297.28,314.63,292,314.15,286.54,311Zm25.68-101.33c4.62-.9,10.37.18,15.09.21,5.29,0,10.58,0,15.87.13,3.12.08,10.7-1,11.6,3,1,4.6-2.73,11.06-5.58,14.28-6.91,7.8-19.34,9.38-27.71,3C319.32,228.62,306.43,212.92,312.22,209.64Z"/><path fill="#e24444"  d="M318.93,259.77c1.53-3,3.29-5.8,6.22-7.59a37.1,37.1,0,0,1,7.64-3.07c-4.5-1.65-10.16-1.5-14.59-1.29-7.38.34-12.13,3.12-17.8,7.88A71.33,71.33,0,0,0,284.87,274c-4.12,7-9.49,17.52-8.21,25.88.84,5.45,5.43,8.45,9.88,11.05,5.43,3.18,10.74,3.66,15.24-1.38,6-6.73,5.73-18.21,8.06-26.49A130.53,130.53,0,0,1,318.93,259.77Zm-18.34,17.54c-1.85,3.68-3.52,7.46-5.24,11.31a53.2,53.2,0,0,1,3.1-12.25A64.57,64.57,0,0,1,304,265c1.14-1.8,2.32-3.54,3.62-5.25a33.3,33.3,0,0,1,4.4-4.73,19.62,19.62,0,0,1,5.49-3.51,12.07,12.07,0,0,1,6.33-.86c-4.2.64-7.5,3.12-10.2,6.05a44.17,44.17,0,0,0-3.74,4.73c-1.15,1.67-2.3,3.39-3.35,5.14C304.45,270.05,302.43,273.63,300.59,277.31Z"/><path d="M313.68,256.69c2.7-2.93,6-5.41,10.2-6.05a12.07,12.07,0,0,0-6.33.86,19.62,19.62,0,0,0-5.49,3.51,33.3,33.3,0,0,0-4.4,4.73c-1.3,1.71-2.48,3.45-3.62,5.25a64.57,64.57,0,0,0-5.59,11.38,53.2,53.2,0,0,0-3.1,12.25c1.72-3.85,3.39-7.63,5.24-11.31s3.86-7.26,6-10.75c1.05-1.75,2.2-3.47,3.35-5.14A44.17,44.17,0,0,1,313.68,256.69Z"/>    </g></svg>