<!--  ~ Copyright (C) 2018 Baidu, Inc. All Rights Reserved.  --><svg viewBox="0 0 640 480" xmlns="http://www.w3.org/2000/svg">    <g id="back-ground-cl">        <rect fill="none" width="640" height="480" />        <ellipse opacity="0.1" cx="331.93" cy="418.82" rx="168.39" ry="32.01"/>    </g>    <g id="body">        <defs>            <clipPath id="outline">                <path fill="none"  d="M288.13,99.43l-1-.77a74.32,74.32,0,0,0-15.72-9.14c-12.3-5.58-25.84-10-39.44-10.15-14-.21-27.91,4.62-38,14.41a68.1,68.1,0,0,0-11.08,14.31c-.9,1.49-8.21,13.88-7.18,15.71,4.14.07,8.57-2.84,12.46-4.14,4.7-1.57,9.48-2.91,14.31-4.06a224,224,0,0,1,29.7-4.89c11.32-1.15,22.69-1.59,34.07-1.7,3,0,6.08,0,9.15.14A105.4,105.4,0,0,1,288.13,99.43Z"/><path fill="none"  d="M182.37,371c-5.87-3.33-11.15-8.12-13-14.83a27.08,27.08,0,0,1-.44-10.23c.45-3.77,3.9-11.81-.92-13.58-2.17-.8-5.87.48-8,1.21a20.69,20.69,0,0,0-11.3,9.15c-4.67,8.19-2.72,18.51,3.73,25.12s15.67,9.85,24.28,12.05a84,84,0,0,0,20.89,2.57c-1.14-1.84-2.18-3.73-3.14-5.66C190.43,374.89,186.27,373.18,182.37,371Z"/><path fill="none"  d="M490.45,97c-6.44-5.74-14.27-10-22.14-13.4C452.63,76.72,436,73.55,419,77a69,69,0,0,0-39.34,23c1.15.68,2.3,1.39,3.43,2.12,13.8-4.08,29.65-3.59,43.32-2.66,18.69,1.27,37.1,5.38,55.43,9q4,.78,7.92,1.61c4.09.85,10.45,1.93,7.45-5.23C495.93,101.82,492.83,99.09,490.45,97Z"/><path fill="none"  d="M293.14,99.72c-20,11.79-34.54,30.83-46.83,50.12a378.12,378.12,0,0,0-52.48,133.65c-1.64,9-3,18.12-3.91,27.27-2.95,30.45-1.69,70.65,28.45,87.75,2.14,1.21,13.06,3.79,8.4,7.39-2.4,1.85-14.5,3-13.88,6.69.7,4.07,12.4,4.43,15.16,4.64a154.6,154.6,0,0,0,17.62.25c.52,0,1.44,0,2.41,0,.15-1.73.14-3.58.15-5.43s0-3.86.07-5.79c.07-3.85.18-7.69.2-11.53a150.79,150.79,0,0,0-1.33-22.89,55.39,55.39,0,0,0-2.69-11.09,30.47,30.47,0,0,0-2.47-5.15,18.35,18.35,0,0,0-3.63-4.43,22.73,22.73,0,0,1,6.83,9.28,56.42,56.42,0,0,1,3.4,11.14,135.2,135.2,0,0,1,2.22,23.12c.11,3.87.11,7.73.1,11.58,0,1.92,0,3.83,0,5.75s.08,3.86-.07,5.91a14.63,14.63,0,0,1-.56,3.13l-.13.39c0,.14-.12.3-.18.45a6.36,6.36,0,0,1-.47.85,6.81,6.81,0,0,1-1.25,1.36,22.47,22.47,0,0,1-5.48,2.84c-1.7.7-3.31,1.6-3.6,2.6a2.07,2.07,0,0,0-.11.85,5,5,0,0,0,.07.5l.14.48a4.77,4.77,0,0,0,1.25,1.77c.12.11.27.22.4.33a5.59,5.59,0,0,1,.24-3.1,6.6,6.6,0,0,1,2.78-3.36,8.26,8.26,0,0,1,2-.77,12.35,12.35,0,0,1,1.88-.39,13.21,13.21,0,0,1,3.88,0,13.14,13.14,0,0,1-3.14,2.28c-1.12.62-2.2,1.07-3.05,1.51a9.39,9.39,0,0,0-2.26,1.92,12.88,12.88,0,0,0-1.92,3l.47-.39a15.32,15.32,0,0,0,3.2,1.56,20.74,20.74,0,0,0,2.59.74,22.72,22.72,0,0,0,2.68.41c.47.05.94.06,1.4.1a3,3,0,0,1-.43-.91,3.62,3.62,0,0,1,.15-2.18,7.07,7.07,0,0,1,2.48-3,10.06,10.06,0,0,1,3.24-1.62,7.37,7.37,0,0,1,3.65-.16,28.51,28.51,0,0,1-2.61,2.28c-.84.66-1.66,1.29-2.49,1.9a23.66,23.66,0,0,0-2.22,1.75,3.44,3.44,0,0,0-.74,1,2.59,2.59,0,0,0-.2,1.56h0l.54-.56a48.24,48.24,0,0,0,8.41-.43,36.39,36.39,0,0,0,5.42-1.12,14.75,14.75,0,0,0,4.66-2.47,20.45,20.45,0,0,0,3.79-3.87,25.21,25.21,0,0,0,2.86-4.7,10.16,10.16,0,0,0,.53-1.25,11.29,11.29,0,0,0,.43-1.28c.27-.89.49-1.81.71-2.73l1.22-5.62c.82-3.77,1.62-7.55,2.59-11.29a112.84,112.84,0,0,1,3.47-11.08,48.6,48.6,0,0,1,5.15-10.36c-3.71,6.78-5.64,14.28-7.19,21.77-.78,3.71-1.42,7.46-2.06,11.21a312,312,0,0,0,33.13,5.43c21.5,2.29,43.66,2.36,64.8-2.67a86.24,86.24,0,0,0,8.66-2.59c0-.15-.05-.3-.08-.45-.62-3.71-.81-7.4-1.24-11-.2-1.8-.51-3.61-.79-5.43s-.56-3.64-.93-5.41a32.2,32.2,0,0,0-1.72-5.19c-.65-1.72-1.25-3.46-1.84-5.21.73,1.69,1.47,3.37,2.26,5a32.31,32.31,0,0,1,2.07,5.16c.49,1.8.88,3.6,1.28,5.4s.8,3.59,1.12,5.43c.62,3.67,1,7.33,1.72,10.86a31,31,0,0,0,1.51,5.11,26.42,26.42,0,0,0,2.44,4.69,20,20,0,0,0,7.48,7,12.92,12.92,0,0,0,2.34.92,25.38,25.38,0,0,0,2.57.61,43,43,0,0,0,5.3.72,51.77,51.77,0,0,0,5.71.11l.54.56a2.47,2.47,0,0,0-.2-1.55,3.16,3.16,0,0,0-.74-1,22.09,22.09,0,0,0-2.22-1.76c-.83-.61-1.65-1.24-2.49-1.9a28.31,28.31,0,0,1-2.61-2.28,7.41,7.41,0,0,1,3.66.17,10.09,10.09,0,0,1,3.23,1.61,7.19,7.19,0,0,1,2.48,3,3.54,3.54,0,0,1,.15,2.18,2.77,2.77,0,0,1-.43.92c1.19-.08,2.38-.2,3.53-.39a20.28,20.28,0,0,0,4.87-1.59,10.63,10.63,0,0,0,1.48-.83l.46.39a12.46,12.46,0,0,0-1.91-3,9.26,9.26,0,0,0-2.27-1.93c-.84-.44-1.93-.89-3.05-1.5a13.47,13.47,0,0,1-3.14-2.29,13.57,13.57,0,0,1,3.88.05,12.35,12.35,0,0,1,1.88.39,8.53,8.53,0,0,1,2,.77,6.54,6.54,0,0,1,2.78,3.37,5.4,5.4,0,0,1,.23,3.12,6,6,0,0,0,1.3-1.42,3.8,3.8,0,0,0,.58-1.85,2.25,2.25,0,0,0-.12-.84,1.91,1.91,0,0,0-.4-.72c-.79-.94-2.47-1.64-4.14-2.28a21.52,21.52,0,0,1-5.32-2.6,7.06,7.06,0,0,1-1.24-1.21,4.82,4.82,0,0,1-.87-1.72,9.16,9.16,0,0,1-.28-1.57c-.06-.51-.09-1-.1-1.48a111.71,111.71,0,0,1,.44-11.19c.29-3.68.68-7.36,1.13-11,.9-7.33,2-14.62,3.49-21.86.76-3.62,1.6-7.22,2.61-10.77.51-1.78,1.07-3.54,1.74-5.26a24.1,24.1,0,0,1,1.17-2.53,7.47,7.47,0,0,1,1.66-2.2,7.31,7.31,0,0,0-1.46,2.3,21.49,21.49,0,0,0-.94,2.58c-.56,1.74-1,3.52-1.4,5.31-.79,3.58-1.4,7.19-1.94,10.82-1.1,7.26-1.92,14.56-2.61,21.86-.32,3.65-.6,7.31-.83,11-.19,3.41-.36,6.86-.25,10.2,5.43.86,11.35.45,16.71.28A155.49,155.49,0,0,0,459,411.18c2.36-.37,3.95,0,2.58-2.31-1.6-2.7-4-4-6.93-5-2.41-.82-9.31-1-10.72-3.45-.77-1.34.08-2,1-2.94,1.35-1.35,4-2.21,5.61-3.24q3-1.89,5.8-4.06A69.49,69.49,0,0,0,475.13,368c9-16.72,10.95-36.34,9.18-55-2.25-23.74-9.26-47.36-17.27-69.73-8.65-24.17-19.39-47.54-30.82-70.5-9.44-18.94-19.2-36.84-34.45-51.82C387.9,107.3,370.88,96.3,351.92,91.45A77.41,77.41,0,0,0,293.14,99.72Z"/><path d="M496.69,99c-5.84-6.88-14-11.83-22-15.78C459,75.47,441.91,70.94,424.28,73.1A72.73,72.73,0,0,0,377,98.44L376.2,98c-16.45-9-35.35-13.87-54.13-11.45a80.41,80.41,0,0,0-31.3,11.25l-.39-.34c-5.55-4.76-12.19-8.21-18.85-11.15C257.09,79.92,241,75.06,225,76.66a55.85,55.85,0,0,0-38.15,20.45,92.54,92.54,0,0,0-11.19,18.06c-1.45,3-5.75,9.16-1.31,11.4a1.81,1.81,0,0,0,.41.14,1.86,1.86,0,0,0,.34.06c3.53.32,6.44-1.35,9.59-2.66a112.5,112.5,0,0,1,14.12-4.5,213.11,213.11,0,0,1,33.35-5.9c11-1.12,22-1.57,33.09-1.69,2.3,0,4.62,0,6.94.07q-2.6,2.47-5.06,5.09C250.72,134.76,238,156.12,227,177.41a379.14,379.14,0,0,0-27.54,69.19c-3.43,11.88-6.24,23.93-8.51,36.09-5.09,28-9.91,62.19,1.57,89.68-4.81-2.13-9.7-4.05-13.8-7.51-8.06-6.81-7.59-15.93-5.55-25.37.87-4,1.76-8.35-3.06-9.85-9.54-3-21.24,5.27-24.92,13.52-5.23,11.71.26,24.1,10.32,31,12.47,8.53,28.89,11.64,44.13,11.27a53.66,53.66,0,0,0,14.65,14.12,57.39,57.39,0,0,0,5.29,3c.46.23,2,1.13,3.25,1.71l-.31.13c-1.79.62-3.6,1.16-5.38,1.81-3.43,1.26-9.1,3.22-6.82,8,1.87,3.92,8,4.81,11.71,5.39a117.2,117.2,0,0,0,20,1c1.45,0,3.44.1,5.44.05a3.14,3.14,0,0,1-.29.54,3.81,3.81,0,0,1-.71.75,20.47,20.47,0,0,1-4.78,2.37,17.75,17.75,0,0,0-2.81,1.43,5.86,5.86,0,0,0-2.43,2.88,6.52,6.52,0,0,0,2.08,6.77,12.16,12.16,0,0,0,2.66,1.88A18.93,18.93,0,0,0,244,438.5a23.26,23.26,0,0,0,6,1.28,49.63,49.63,0,0,0,11.87-.34,38.82,38.82,0,0,0,5.85-1.34,17.41,17.41,0,0,0,5.44-3,25.18,25.18,0,0,0,7.16-9.67,18.28,18.28,0,0,0,1-2.89c.26-1,.45-1.93.65-2.88s.38-1.92.55-2.87c22.31,4.82,45.27,7.68,68.12,6.77a160.48,160.48,0,0,0,32.58-4.43q3.58-.9,7.13-2a28.54,28.54,0,0,0,3.1,7.12,21.83,21.83,0,0,0,8.26,8.09,16,16,0,0,0,2.77,1.15c.95.31,1.85.51,2.78.72a48.6,48.6,0,0,0,5.62.87,45.84,45.84,0,0,0,11.39-.31,22.92,22.92,0,0,0,5.61-1.79,14.28,14.28,0,0,0,2.63-1.57,8.75,8.75,0,0,0,2.25-2.39,6.84,6.84,0,0,0,1-3.36,5.19,5.19,0,0,0-1.23-3.53,8.19,8.19,0,0,0-2.68-2,27.2,27.2,0,0,0-2.68-1.14,18.91,18.91,0,0,1-4.6-2.15,4.15,4.15,0,0,1-.74-.7,1.77,1.77,0,0,1-.37-.72.42.42,0,0,1,0-.12l.84.08a142.67,142.67,0,0,0,20.88,0c5.57-.29,11.92-.22,17.32-1.84,3.77-1.14,2.9-4.87.85-7.65-3.27-4.44-9.46-5.47-14.47-6.65l-.43-.13c.93-.57,1.95-1.32,2.34-1.55a77.19,77.19,0,0,0,11.86-8.8c14-12.68,21.86-30.38,24.31-48.93,2.85-21.55-1.3-43.27-6.68-64.1-6.48-25.1-15.83-49.37-26.44-73-5.4-12-11.14-23.88-17.06-35.65-5.06-10.07-10.08-20.1-16.64-29.3a138.12,138.12,0,0,0-33.58-33.43,100,100,0,0,1,15-2.06,186.19,186.19,0,0,1,32.37.72c10.79,1.12,21.41,3.33,32.07,5.36,5.56,1.06,11.13,2.13,16.69,3.25,4,.8,10,3.36,14,2.11C504.59,111.33,500.13,103.09,496.69,99,266.26,109c-11.38.11-22.75.55-34.07,1.7a224,224,0,0,0-29.7,4.89c-4.83,1.15-9.61,2.49-14.31,4.06-3.89,1.3-8.32,4.21-12.46,4.14-1-1.83,6.28-14.22,7.18-15.71A68.1,68.1,0,0,1,194,93.78C204.1,84,218,79.16,232,79.37c13.6.2,27.14,4.57,39.44,10.15a74.32,74.32,0,0,1,15.72,9.14l1,.77a105.4,105.4,0,0,0-12.72,9.72C272.34,109.06,269.29,109,266.26,109,-89.5,270.85c-8.61-2.2-17.93-5.56-24.28-12.05s-8.4-16.93-3.73-25.12a20.69,20.69,0,0,1,11.3-9.15c2.13-.73,5.83-2,8-1.21,4.82,1.77,1.37,9.81.92,13.58a27.08,27.08,0,0,0,.44,10.23c1.81,6.71,7.09,11.5,13,14.83,3.9,2.21,8.06,3.92,12.14,5.8,1,1.93,2,3.82,3.14,5.66A84,84,0,0,1,176.76,379.86,225-259c15.25,15,25,32.88,34.45,51.82,11.43,23,22.17,46.33,30.82,70.5,8,22.37,15,46,17.27,69.73,1.77,18.65-.21,38.27-9.18,55a69.49,69.49,0,0,1-18.81,22.21q-2.81,2.18-5.8,4.06c-1.64,1-4.26,1.89-5.61,3.24-.89.89-1.74,1.6-1,2.94,1.41,2.49,8.31,2.63,10.72,3.45,2.95,1,5.33,2.32,6.93,5,1.37,2.31-.22,1.94-2.58,2.31a155.49,155.49,0,0,1-19.16,1.45c-5.36.17-11.28.58-16.71-.28-.11-3.34.06-6.79.25-10.2.23-3.65.51-7.31.83-11,.69-7.3,1.51-14.6,2.61-21.86.54-3.63,1.15-7.24,1.94-10.82.39-1.79.84-3.57,1.4-5.31a21.49,21.49,0,0,1,.94-2.58,7.31,7.31,0,0,1,1.46-2.3,7.47,7.47,0,0,0-1.66,2.2,24.1,24.1,0,0,0-1.17,2.53c-.67,1.72-1.23,3.48-1.74,5.26-1,3.55-1.85,7.15-2.61,10.77-1.45,7.24-2.59,14.53-3.49,21.86-.45,3.66-.84,7.34-1.13,11a111.71,111.71,0,0,0-.44,11.19c0,.48,0,1,.1,1.48a9.16,9.16,0,0,0,.28,1.57,4.82,4.82,0,0,0,.87,1.72,7.06,7.06,0,0,0,1.24,1.21,21.52,21.52,0,0,0,5.32,2.6c1.67.64,3.35,1.34,4.14,2.28a1.91,1.91,0,0,1,.4.72,2.25,2.25,0,0,1,.12.84,3.8,3.8,0,0,1-.58,1.85,6,6,0,0,1-1.3,1.42,5.4,5.4,0,0,0-.23-3.12,6.54,6.54,0,0,0-2.78-3.37,8.53,8.53,0,0,0-2-.77,12.35,12.35,0,0,0-1.88-.39,13.57,13.57,0,0,0-3.88-.05,13.47,13.47,0,0,0,3.14,2.29c1.12.61,2.21,1.06,3.05,1.5a9.26,9.26,0,0,1,2.27,1.93,12.46,12.46,0,0,1,1.91,3l-.46-.39a10.63,10.63,0,0,1-1.48.83,20.28,20.28,0,0,1-4.87,1.59c-1.15.19-2.34.31-3.53.39a2.77,2.77,0,0,0,.43-.92,3.54,3.54,0,0,0-.15-2.18,7.19,7.19,0,0,0-2.48-3,10.09,10.09,0,0,0-3.23-1.61,7.41,7.41,0,0,0-3.66-.17,28.31,28.31,0,0,0,2.61,2.28c.84.66,1.66,1.29,2.49,1.9a22.09,22.09,0,0,1,2.22,1.76,3.16,3.16,0,0,1,.74,1,2.47,2.47,0,0,1,.2,1.55l-.54-.56a51.77,51.77,0,0,1-5.71-.11,43,43,0,0,1-5.3-.72,25.38,25.38,0,0,1-2.57-.61,12.92,12.92,0,0,1-2.34-.92,20,20,0,0,1-7.48-7,26.42,26.42,0,0,1-2.44-4.69,31,31,0,0,1-1.51-5.11c-.76-3.53-1.1-7.19-1.72-10.86-.32-1.84-.74-3.63-1.12-5.43s-.79-3.6-1.28-5.4a32.31,32.31,0,0,0-2.07-5.16c-.79-1.67-1.53-3.35-2.26-5,.59,1.75,1.19,3.49,1.84,5.21a32.2,32.2,0,0,1,1.72,5.19c.37,1.77.65,3.6.93,5.41s.59,3.63.79,5.43c.43,3.62.62,7.31,1.24,11,0,.15.06.3.08.45a86.24,86.24,0,0,1-8.66,2.59c-21.14,5-43.3,5-64.8,2.67a312,312,0,0,1-33.13-5.43c.64-3.75,1.28-7.5,2.06-11.21,1.55-7.49,3.48-15,7.19-21.77a48.6,48.6,0,0,0-5.15,10.36,112.84,112.84,0,0,0-3.47,11.08c-1,3.74-1.77,7.52-2.59,11.29l-1.22,5.62c-.22.92-.44,1.84-.71,2.73a11.29,11.29,0,0,1-.43,1.28,10.16,10.16,0,0,1-.53,1.25,25.21,25.21,0,0,1-2.86,4.7,20.45,20.45,0,0,1-3.79,3.87,14.75,14.75,0,0,1-4.66,2.47,36.39,36.39,0,0,1-5.42,1.12,48.24,48.24,0,0,1-8.41.43l-.54.56h0a2.59,2.59,0,0,1,.2-1.56,3.44,3.44,0,0,1,.74-1,23.66,23.66,0,0,1,2.22-1.75c.83-.61,1.65-1.24,2.49-1.9a28.51,28.51,0,0,0,2.61-2.28,7.37,7.37,0,0,0-3.65.16,10.06,10.06,0,0,0-3.24,1.62,7.07,7.07,0,0,0-2.48,3,3.62,3.62,0,0,0-.15,2.18,3,3,0,0,0,.43.91c-.46,0-.93,0-1.4-.1a22.72,22.72,0,0,1-2.68-.41,20.74,20.74,0,0,1-2.59-.74,15.32,15.32,0,0,1-3.2-1.56l-.47.39a12.88,12.88,0,0,1,1.92-3,9.39,9.39,0,0,1,2.26-1.92c.85-.44,1.93-.89,3.05-1.51a13.14,13.14,0,0,0,3.14-2.28,13.21,13.21,0,0,0-3.88,0,12.35,12.35,0,0,0-1.88.39,8.26,8.26,0,0,0-2,.77,6.6,6.6,0,0,0-2.78,3.36,5.59,5.59,0,0,0-.24,3.1c-.13-.11-.28-.22-.4-.33a4.77,4.77,0,0,1-1.25-1.77l-.14-.48a5,5,0,0,1-.07-.5,2.07,2.07,0,0,1,.11-.85c.29-1,1.9-1.9,3.6-2.6a22.47,22.47,0,0,0,5.48-2.84,6.81,6.81,0,0,0,1.25-1.36,6.36,6.36,0,0,0,.47-.85c.06-.15.13-.31.18-.45l.13-.39a14.63,14.63,0,0,0,.56-3.13c.15-2.05.09-4,.07-5.91s0-3.83,0-5.75c0-3.85,0-7.71-.1-11.58a135.2,135.2,0,0,0-2.22-23.12,56.42,56.42,0,0,0-3.4-11.14,22.73,22.73,0,0,0-6.83-9.28,18.35,18.35,0,0,1,3.63,4.43,30.47,30.47,0,0,1,2.47,5.15,55.39,55.39,0,0,1,2.69,11.09,150.79,150.79,0,0,1,1.33,22.89c0,3.84-.13,7.68-.2,11.53,0,1.93-.06,3.87-.07,5.79s0,3.7-.15,5.43c-1,0-1.89,0-2.41,0a154.6,154.6,0,0,1-17.62-.25c-2.76-.21-14.46-.57-15.16-4.64-.62-3.65,11.48-4.84,13.88-6.69,4.66-3.6-6.26-6.18-8.4-7.39-30.14-17.1-31.4-57.3-28.45-87.75.88-9.15,2.27-18.23,3.91-27.27a378.12,378.12,0,0,1,52.48-133.65c12.29-19.29,26.8-38.33,46.83-50.12a77.41,77.41,0,0,1,58.78-8.27C370.88,96.3,387.9,107.3,401.77,120.91,88-10.86q-3.94-.83-7.92-1.61c-18.33-3.65-36.74-7.76-55.43-9-13.67-.93-29.52-1.42-43.32,2.66-1.13-.73-2.28-1.44-3.43-2.12A69,69,0,0,1,419,77c17-3.41,33.65-.24,49.33,6.6C476.18,87,484,91.22,490.45,97c2.38,2.13,5.48,4.86,6.74,7.86C500.19,112,493.83,110.9,489.74,110.05Z"/>            </clipPath>        </defs>        <g clip-path="url(#outline)">            <rect fill="#C5EDC5" width="640" height="480" />        </g>    </g>    <g id="pattern">        <g clip-path="url(#outline)">            <path fill="#FFFFD2"  d="M224.65,337.33s7.32-8.78,3.88-19.34C228.53,318,221.09,327.67,224.65,337.33Z"/><path fill="#FFFFD2"  d="M220.2,391.54s10-11.71,5.47-26C225.67,365.59,215.53,378.5,220.2,391.54Z"/><path fill="#FFFFD2"  d="M236.81,373.05s8.17-8.87,5.08-20.18C241.89,352.87,233.55,362.69,236.81,373.05Z"/><path fill="#FFFFD2"  d="M195.61,348.52s9.68-11.94,4.85-26.07C200.46,322.45,190.64,335.6,195.61,348.52Z"/><path fill="#FFFFD2"  d="M208.57,315.49s6.13-7.34,3.25-16.17C211.82,299.32,205.6,307.41,208.57,315.49Z"/><path fill="#FFFFD2"  d="M284.89,386.79s6.89-11,1.38-22.41C286.27,364.38,279.38,376.45,284.89,386.79Z"/><path fill="#FFFFD2"  d="M267.77,412s8.14-13,1.63-26.48C269.4,385.56,261.25,399.82,267.77,412Z"/><path fill="#FFFFD2"  d="M241.89,401.9s8.15-13,1.63-26.48C243.52,375.42,235.38,389.68,241.89,401.9Z"/><path fill="#FFFFD2"  d="M202.9,372.13s8.15-13,1.63-26.47C204.53,345.66,196.39,359.91,202.9,372.13Z"/><path fill="#FFFFD2"  d="M440.11,340.47s5.78-14.24-2.94-26.36C437.17,314.11,431.59,329.55,440.11,340.47Z"/><path fill="#FFFFD2"  d="M445.89,397.39s8.15-13,1.63-26.48C447.52,370.91,439.38,385.17,445.89,397.39Z"/><path fill="#FFFFD2"  d="M434.77,386.82s4.94-14.62-5-26.08C429.78,360.74,425.15,376.54,434.77,386.82Z"/><path fill="#FFFFD2"  d="M410.38,410.94s5.43-14.38-3.6-26.28C406.78,384.66,401.59,400.24,410.38,410.94Z"/><path fill="#FFFFD2"  d="M193.93,316.93s6.93-9.38,2.79-19.94C196.72,297,189.72,307.3,193.93,316.93Z"/><path fill="#FFFFD2"  d="M420.63,393.09s5.33-14.41-3.77-26.25C416.86,366.84,411.77,382.45,420.63,393.09Z"/><path fill="#FFFFD2"  d="M466.6,381.6s4.16-14.8-5.86-25.87C460.74,355.73,456.92,371.69,466.6,381.6Z"/><path fill="#FFFFD2"  d="M471.16,318s4.68-14.64-5-26.06C466.21,291.93,461.83,307.76,471.16,318Z"/><path fill="#FFFFD2"  d="M449.38,366.38s3.45-11.56-4.29-20.36C445.09,346,441.91,358.5,449.38,366.38Z"/><path fill="#FFFFD2"  d="M453,332.2s2.82-8.93-3.08-15.87C449.91,316.33,447.28,326,453,332.2Z"/><path fill="#FFFFD2"  d="M473.56,333s-2.66,9.64,3,15.87C476.59,348.9,479.43,340,473.56,333Z"/><path fill="#FFFFD2"  d="M465.72,342.54s6-9.53,1.19-19.36C466.91,323.18,461,333.61,465.72,342.54Z"/>            <g opacity="0.6" ><path fill="#C6DBC6"  d="M287.16,418.67c1.87-23.1,18-47.8,35.46-47.47,6.9.13,9,7.55,15.12,7.54s10.44-5.62,14.93-7.33c9.31-3.54,20.26,5.37,26.22,16.84,4.62,8.9,6.72,20.51,7.47,30.79.12,1.64-.53,1.82-2,2.51-2.33,1.08-3.57.86-6.43,1.67-14.89,4.2-29,4.06-44.39,3.93a153.5,153.5,0,0,1-45.95-7.74"/></g>        </g>    </g>    <g id="mask">        <path fill="#352f2d"  d="M174.38,126.57a1.81,1.81,0,0,0,.41.14,1.86,1.86,0,0,0,.34.06c3.53.32,6.44-1.35,9.59-2.66a110.88,110.88,0,0,1,14.12-4.5,211.75,211.75,0,0,1,33.35-5.9c11-1.12,22-1.57,33.09-1.69,2.3,0,4.62,0,6.94.07a106.63,106.63,0,0,1,18.55-14.31l-.39-.34c-5.55-4.77-12.19-8.21-18.85-11.15C257.09,79.92,241,75.06,225,76.66a55.85,55.85,0,0,0-38.15,20.45,92.54,92.54,0,0,0-11.19,18.06C174.24,118.16,169.94,124.33,174.38,126.57Z"/><g opacity="0.1" ><path d="M480.32,343.46c-1.82,3.4-3.69,6.78-5.68,10.08a107.44,107.44,0,0,1-13.23,18.12,62.92,62.92,0,0,1-11.06,9.47,60,60,0,0,1-6.25,3.66,33.15,33.15,0,0,1-5.53,2.51c-4,1.16-6.15-2.21-7.32-5.52a39.48,39.48,0,0,1-2.34-17.54,119.82,119.82,0,0,1,2.54-14.42l-1.94,4.49c-3.06,11.13-4.58,22.56-6,34a4.63,4.63,0,0,0,.26,2.2,3.15,3.15,0,0,0-.88.72c-2.06,2.52-.69,11.11-.81,14.31a.64.64,0,0,0,.09.45c.16.19.45.14.69.08a108,108,0,0,0,24.46-9.44c9.48-5.29,16.42-12.76,22.8-21.4,3.19-4.31,7.4-8.22,9.2-13.28,3.1-8.71,6.71-17.83,5.44-27C485,336.67,481.24,341.74,480.32,343.46Z"/></g><g opacity="0.1" ><path d="M300.05,94.69c-23.63,13.11-38,28.58-53.16,54.08-14.44,24.28-29.76,53.16-39.76,79.21s-15,53.6-17.25,81.33c-2,24.3-2.41,58.21,14.72,78,10,11.56,21.38,19,39.1,21.26,1.52.19,3.07.4,4.62.61-.4-2.32,0-4.6,2-5.95-.17-.64-.34-1.2-.4-1.52a5.06,5.06,0,0,1,.15-2.73c-17-5.82-32.14-19.18-39.54-35.41-4-8.82-6.12-18.92-6.18-30.42-.12-27.61,3.21-61,10.78-87.25,10.89-37.75,30.59-71.48,52.33-104.45C278.23,125.13,285.07,107.28,300.05,94.69Z"/></g><g opacity="0.1" ><path d="M389.59,402.19c-5.29,1.25-9.82,4.43-15.12,5.66a159,159,0,0,1-19.41,2.95c-22,2.28-44.35.82-66.17-2.85-1.82-5.45-1.09-11.68-.06-17.2.53-2.84,2-6.43,2.63-8.76-.18.24-.36.51-.53.76a78,78,0,0,0-5.31,14.34c-1,4.38-1.11,8.84-2.52,13.14a5.25,5.25,0,0,1-1,1.75c0,.76-.1,1.52-.18,2.27a4.45,4.45,0,0,1-.14.76c1.66.36,3.28.73,4.85,1.11,14.9,5.54,32.72,6.73,47.93,6.86,15.65.13,34.69-1.09,45-4.91,2.86-1.06,9.12-1.62,10.48-3.05,1.2-1.27-.65-1.69-.78-3.3C388.57,402.43,389.58,402.19,389.59,402.19Z"/></g><g opacity="0.1" ><path d="M194.74,378.49c-7.91-.88-15.54-2-23-4.9-5-2-10.51-4.4-14.3-8.28s-4.52-9.35-3.95-14.67a25.91,25.91,0,0,1,2.37-9,13.93,13.93,0,0,1,4.41-5.19,24.6,24.6,0,0,1,8.57-4.4c.36-.09-3.05.21-3.08.05s-.31-.36-.87-.62a4.47,4.47,0,0,0-2-.49,13.32,13.32,0,0,0-7.86,3c-7.54,6.15-11.12,17-9.46,26.45a14.91,14.91,0,0,0,1.84,5.32,17.66,17.66,0,0,0,4.26,4.41,68.65,68.65,0,0,0,40.9,14.72c3.44.07,3.79-.15,6.52-2.25C198.12,379.72,197.79,378.83,194.74,378.49Z"/></g><path fill="#9dd7d7"  d="M220.31,283.49l3.71.29C223.75,283.51,223.49,283.24,220.31,283.49Z"/><path fill="#352f2d"  d="M496.69,99c-5.84-6.88-14-11.83-22-15.78-15.75-7.77-32.82-12.3-50.45-10.15A72.79,72.79,0,0,0,377,98.44q4.89,2.75,9.52,6a98.73,98.73,0,0,1,15-2.06,186.19,186.19,0,0,1,32.37.72c10.79,1.12,21.41,3.33,32.07,5.36,5.56,1.06,11.13,2.13,16.69,3.25,4,.8,10,3.36,14,2.11C504.59,111.33,500.13,103.09,496.69,99Z"/>        <g opacity="0.1" ><path fill="#fff"  d="M379.91,101.78c6,5.3,10.42,13.69,14.49,20.51,4.46,7.47,8.88,15,13.37,22.42,13,21.7,26.15,43.75,37,66.65a328.73,328.73,0,0,1,23.4,68.9c2.75,12.34,4.91,24.8,6.6,37.33,1.39,10.34,4.07,22.69-2.47,31.88,4.27-6,9.85-10.61,11.34-14.66,5.27-14.38.18-32.18-2.49-46.67-5.44-29.5-15.48-57.88-26.94-85.53-11.27-27.21-25.53-53.07-44.82-75.49C393.14,108.28,380.13,102,379.91,101.78Z"/></g>    </g>    <g id="outline">        <path fill="none"  d="M288.13,99.43l-1-.77a74.32,74.32,0,0,0-15.72-9.14c-12.3-5.58-25.84-10-39.44-10.15-14-.21-27.91,4.62-38,14.41a68.1,68.1,0,0,0-11.08,14.31c-.9,1.49-8.21,13.88-7.18,15.71,4.14.07,8.57-2.84,12.46-4.14,4.7-1.57,9.48-2.91,14.31-4.06a224,224,0,0,1,29.7-4.89c11.32-1.15,22.69-1.59,34.07-1.7,3,0,6.08,0,9.15.14A105.4,105.4,0,0,1,288.13,99.43Z"/><path fill="none"  d="M182.37,371c-5.87-3.33-11.15-8.12-13-14.83a27.08,27.08,0,0,1-.44-10.23c.45-3.77,3.9-11.81-.92-13.58-2.17-.8-5.87.48-8,1.21a20.69,20.69,0,0,0-11.3,9.15c-4.67,8.19-2.72,18.51,3.73,25.12s15.67,9.85,24.28,12.05a84,84,0,0,0,20.89,2.57c-1.14-1.84-2.18-3.73-3.14-5.66C190.43,374.89,186.27,373.18,182.37,371Z"/><path fill="none"  d="M490.45,97c-6.44-5.74-14.27-10-22.14-13.4C452.63,76.72,436,73.55,419,77a69,69,0,0,0-39.34,23c1.15.68,2.3,1.39,3.43,2.12,13.8-4.08,29.65-3.59,43.32-2.66,18.69,1.27,37.1,5.38,55.43,9q4,.78,7.92,1.61c4.09.85,10.45,1.93,7.45-5.23C495.93,101.82,492.83,99.09,490.45,97Z"/><path fill="none"  d="M293.14,99.72c-20,11.79-34.54,30.83-46.83,50.12a378.12,378.12,0,0,0-52.48,133.65c-1.64,9-3,18.12-3.91,27.27-2.95,30.45-1.69,70.65,28.45,87.75,2.14,1.21,13.06,3.79,8.4,7.39-2.4,1.85-14.5,3-13.88,6.69.7,4.07,12.4,4.43,15.16,4.64a154.6,154.6,0,0,0,17.62.25c.52,0,1.44,0,2.41,0,.15-1.73.14-3.58.15-5.43s0-3.86.07-5.79c.07-3.85.18-7.69.2-11.53a150.79,150.79,0,0,0-1.33-22.89,55.39,55.39,0,0,0-2.69-11.09,30.47,30.47,0,0,0-2.47-5.15,18.35,18.35,0,0,0-3.63-4.43,22.73,22.73,0,0,1,6.83,9.28,56.42,56.42,0,0,1,3.4,11.14,135.2,135.2,0,0,1,2.22,23.12c.11,3.87.11,7.73.1,11.58,0,1.92,0,3.83,0,5.75s.08,3.86-.07,5.91a14.63,14.63,0,0,1-.56,3.13l-.13.39c0,.14-.12.3-.18.45a6.36,6.36,0,0,1-.47.85,6.81,6.81,0,0,1-1.25,1.36,22.47,22.47,0,0,1-5.48,2.84c-1.7.7-3.31,1.6-3.6,2.6a2.07,2.07,0,0,0-.11.85,5,5,0,0,0,.07.5l.14.48a4.77,4.77,0,0,0,1.25,1.77c.12.11.27.22.4.33a5.59,5.59,0,0,1,.24-3.1,6.6,6.6,0,0,1,2.78-3.36,8.26,8.26,0,0,1,2-.77,12.35,12.35,0,0,1,1.88-.39,13.21,13.21,0,0,1,3.88,0,13.14,13.14,0,0,1-3.14,2.28c-1.12.62-2.2,1.07-3.05,1.51a9.39,9.39,0,0,0-2.26,1.92,12.88,12.88,0,0,0-1.92,3l.47-.39a15.32,15.32,0,0,0,3.2,1.56,20.74,20.74,0,0,0,2.59.74,22.72,22.72,0,0,0,2.68.41c.47.05.94.06,1.4.1a3,3,0,0,1-.43-.91,3.62,3.62,0,0,1,.15-2.18,7.07,7.07,0,0,1,2.48-3,10.06,10.06,0,0,1,3.24-1.62,7.37,7.37,0,0,1,3.65-.16,28.51,28.51,0,0,1-2.61,2.28c-.84.66-1.66,1.29-2.49,1.9a23.66,23.66,0,0,0-2.22,1.75,3.44,3.44,0,0,0-.74,1,2.59,2.59,0,0,0-.2,1.56h0l.54-.56a48.24,48.24,0,0,0,8.41-.43,36.39,36.39,0,0,0,5.42-1.12,14.75,14.75,0,0,0,4.66-2.47,20.45,20.45,0,0,0,3.79-3.87,25.21,25.21,0,0,0,2.86-4.7,10.16,10.16,0,0,0,.53-1.25,11.29,11.29,0,0,0,.43-1.28c.27-.89.49-1.81.71-2.73l1.22-5.62c.82-3.77,1.62-7.55,2.59-11.29a112.84,112.84,0,0,1,3.47-11.08,48.6,48.6,0,0,1,5.15-10.36c-3.71,6.78-5.64,14.28-7.19,21.77-.78,3.71-1.42,7.46-2.06,11.21a312,312,0,0,0,33.13,5.43c21.5,2.29,43.66,2.36,64.8-2.67a86.24,86.24,0,0,0,8.66-2.59c0-.15-.05-.3-.08-.45-.62-3.71-.81-7.4-1.24-11-.2-1.8-.51-3.61-.79-5.43s-.56-3.64-.93-5.41a32.2,32.2,0,0,0-1.72-5.19c-.65-1.72-1.25-3.46-1.84-5.21.73,1.69,1.47,3.37,2.26,5a32.31,32.31,0,0,1,2.07,5.16c.49,1.8.88,3.6,1.28,5.4s.8,3.59,1.12,5.43c.62,3.67,1,7.33,1.72,10.86a31,31,0,0,0,1.51,5.11,26.42,26.42,0,0,0,2.44,4.69,20,20,0,0,0,7.48,7,12.92,12.92,0,0,0,2.34.92,25.38,25.38,0,0,0,2.57.61,43,43,0,0,0,5.3.72,51.77,51.77,0,0,0,5.71.11l.54.56a2.47,2.47,0,0,0-.2-1.55,3.16,3.16,0,0,0-.74-1,22.09,22.09,0,0,0-2.22-1.76c-.83-.61-1.65-1.24-2.49-1.9a28.31,28.31,0,0,1-2.61-2.28,7.41,7.41,0,0,1,3.66.17,10.09,10.09,0,0,1,3.23,1.61,7.19,7.19,0,0,1,2.48,3,3.54,3.54,0,0,1,.15,2.18,2.77,2.77,0,0,1-.43.92c1.19-.08,2.38-.2,3.53-.39a20.28,20.28,0,0,0,4.87-1.59,10.63,10.63,0,0,0,1.48-.83l.46.39a12.46,12.46,0,0,0-1.91-3,9.26,9.26,0,0,0-2.27-1.93c-.84-.44-1.93-.89-3.05-1.5a13.47,13.47,0,0,1-3.14-2.29,13.57,13.57,0,0,1,3.88.05,12.35,12.35,0,0,1,1.88.39,8.53,8.53,0,0,1,2,.77,6.54,6.54,0,0,1,2.78,3.37,5.4,5.4,0,0,1,.23,3.12,6,6,0,0,0,1.3-1.42,3.8,3.8,0,0,0,.58-1.85,2.25,2.25,0,0,0-.12-.84,1.91,1.91,0,0,0-.4-.72c-.79-.94-2.47-1.64-4.14-2.28a21.52,21.52,0,0,1-5.32-2.6,7.06,7.06,0,0,1-1.24-1.21,4.82,4.82,0,0,1-.87-1.72,9.16,9.16,0,0,1-.28-1.57c-.06-.51-.09-1-.1-1.48a111.71,111.71,0,0,1,.44-11.19c.29-3.68.68-7.36,1.13-11,.9-7.33,2-14.62,3.49-21.86.76-3.62,1.6-7.22,2.61-10.77.51-1.78,1.07-3.54,1.74-5.26a24.1,24.1,0,0,1,1.17-2.53,7.47,7.47,0,0,1,1.66-2.2,7.31,7.31,0,0,0-1.46,2.3,21.49,21.49,0,0,0-.94,2.58c-.56,1.74-1,3.52-1.4,5.31-.79,3.58-1.4,7.19-1.94,10.82-1.1,7.26-1.92,14.56-2.61,21.86-.32,3.65-.6,7.31-.83,11-.19,3.41-.36,6.86-.25,10.2,5.43.86,11.35.45,16.71.28A155.49,155.49,0,0,0,459,411.18c2.36-.37,3.95,0,2.58-2.31-1.6-2.7-4-4-6.93-5-2.41-.82-9.31-1-10.72-3.45-.77-1.34.08-2,1-2.94,1.35-1.35,4-2.21,5.61-3.24q3-1.89,5.8-4.06A69.49,69.49,0,0,0,475.13,368c9-16.72,10.95-36.34,9.18-55-2.25-23.74-9.26-47.36-17.27-69.73-8.65-24.17-19.39-47.54-30.82-70.5-9.44-18.94-19.2-36.84-34.45-51.82C387.9,107.3,370.88,96.3,351.92,91.45A77.41,77.41,0,0,0,293.14,99.72Z"/><path d="M496.69,99c-5.84-6.88-14-11.83-22-15.78C459,75.47,441.91,70.94,424.28,73.1A72.73,72.73,0,0,0,377,98.44L376.2,98c-16.45-9-35.35-13.87-54.13-11.45a80.41,80.41,0,0,0-31.3,11.25l-.39-.34c-5.55-4.76-12.19-8.21-18.85-11.15C257.09,79.92,241,75.06,225,76.66a55.85,55.85,0,0,0-38.15,20.45,92.54,92.54,0,0,0-11.19,18.06c-1.45,3-5.75,9.16-1.31,11.4a1.81,1.81,0,0,0,.41.14,1.86,1.86,0,0,0,.34.06c3.53.32,6.44-1.35,9.59-2.66a112.5,112.5,0,0,1,14.12-4.5,213.11,213.11,0,0,1,33.35-5.9c11-1.12,22-1.57,33.09-1.69,2.3,0,4.62,0,6.94.07q-2.6,2.47-5.06,5.09C250.72,134.76,238,156.12,227,177.41a379.14,379.14,0,0,0-27.54,69.19c-3.43,11.88-6.24,23.93-8.51,36.09-5.09,28-9.91,62.19,1.57,89.68-4.81-2.13-9.7-4.05-13.8-7.51-8.06-6.81-7.59-15.93-5.55-25.37.87-4,1.76-8.35-3.06-9.85-9.54-3-21.24,5.27-24.92,13.52-5.23,11.71.26,24.1,10.32,31,12.47,8.53,28.89,11.64,44.13,11.27a53.66,53.66,0,0,0,14.65,14.12,57.39,57.39,0,0,0,5.29,3c.46.23,2,1.13,3.25,1.71l-.31.13c-1.79.62-3.6,1.16-5.38,1.81-3.43,1.26-9.1,3.22-6.82,8,1.87,3.92,8,4.81,11.71,5.39a117.2,117.2,0,0,0,20,1c1.45,0,3.44.1,5.44.05a3.14,3.14,0,0,1-.29.54,3.81,3.81,0,0,1-.71.75,20.47,20.47,0,0,1-4.78,2.37,17.75,17.75,0,0,0-2.81,1.43,5.86,5.86,0,0,0-2.43,2.88,6.52,6.52,0,0,0,2.08,6.77,12.16,12.16,0,0,0,2.66,1.88A18.93,18.93,0,0,0,244,438.5a23.26,23.26,0,0,0,6,1.28,49.63,49.63,0,0,0,11.87-.34,38.82,38.82,0,0,0,5.85-1.34,17.41,17.41,0,0,0,5.44-3,25.18,25.18,0,0,0,7.16-9.67,18.28,18.28,0,0,0,1-2.89c.26-1,.45-1.93.65-2.88s.38-1.92.55-2.87c22.31,4.82,45.27,7.68,68.12,6.77a160.48,160.48,0,0,0,32.58-4.43q3.58-.9,7.13-2a28.54,28.54,0,0,0,3.1,7.12,21.83,21.83,0,0,0,8.26,8.09,16,16,0,0,0,2.77,1.15c.95.31,1.85.51,2.78.72a48.6,48.6,0,0,0,5.62.87,45.84,45.84,0,0,0,11.39-.31,22.92,22.92,0,0,0,5.61-1.79,14.28,14.28,0,0,0,2.63-1.57,8.75,8.75,0,0,0,2.25-2.39,6.84,6.84,0,0,0,1-3.36,5.19,5.19,0,0,0-1.23-3.53,8.19,8.19,0,0,0-2.68-2,27.2,27.2,0,0,0-2.68-1.14,18.91,18.91,0,0,1-4.6-2.15,4.15,4.15,0,0,1-.74-.7,1.77,1.77,0,0,1-.37-.72.42.42,0,0,1,0-.12l.84.08a142.67,142.67,0,0,0,20.88,0c5.57-.29,11.92-.22,17.32-1.84,3.77-1.14,2.9-4.87.85-7.65-3.27-4.44-9.46-5.47-14.47-6.65l-.43-.13c.93-.57,1.95-1.32,2.34-1.55a77.19,77.19,0,0,0,11.86-8.8c14-12.68,21.86-30.38,24.31-48.93,2.85-21.55-1.3-43.27-6.68-64.1-6.48-25.1-15.83-49.37-26.44-73-5.4-12-11.14-23.88-17.06-35.65-5.06-10.07-10.08-20.1-16.64-29.3a138.12,138.12,0,0,0-33.58-33.43,100,100,0,0,1,15-2.06,186.19,186.19,0,0,1,32.37.72c10.79,1.12,21.41,3.33,32.07,5.36,5.56,1.06,11.13,2.13,16.69,3.25,4,.8,10,3.36,14,2.11C504.59,111.33,500.13,103.09,496.69,99ZM266.26,109c-11.38.11-22.75.55-34.07,1.7a224,224,0,0,0-29.7,4.89c-4.83,1.15-9.61,2.49-14.31,4.06-3.89,1.3-8.32,4.21-12.46,4.14-1-1.83,6.28-14.22,7.18-15.71A68.1,68.1,0,0,1,194,93.78C204.1,84,218,79.16,232,79.37c13.6.2,27.14,4.57,39.44,10.15a74.32,74.32,0,0,1,15.72,9.14l1,.77a105.4,105.4,0,0,0-12.72,9.72C272.34,109.06,269.29,109,266.26,109Zm-89.5,270.85c-8.61-2.2-17.93-5.56-24.28-12.05s-8.4-16.93-3.73-25.12a20.69,20.69,0,0,1,11.3-9.15c2.13-.73,5.83-2,8-1.21,4.82,1.77,1.37,9.81.92,13.58a27.08,27.08,0,0,0,.44,10.23c1.81,6.71,7.09,11.5,13,14.83,3.9,2.21,8.06,3.92,12.14,5.8,1,1.93,2,3.82,3.14,5.66A84,84,0,0,1,176.76,379.86Zm225-259c15.25,15,25,32.88,34.45,51.82,11.43,23,22.17,46.33,30.82,70.5,8,22.37,15,46,17.27,69.73,1.77,18.65-.21,38.27-9.18,55a69.49,69.49,0,0,1-18.81,22.21q-2.81,2.18-5.8,4.06c-1.64,1-4.26,1.89-5.61,3.24-.89.89-1.74,1.6-1,2.94,1.41,2.49,8.31,2.63,10.72,3.45,2.95,1,5.33,2.32,6.93,5,1.37,2.31-.22,1.94-2.58,2.31a155.49,155.49,0,0,1-19.16,1.45c-5.36.17-11.28.58-16.71-.28-.11-3.34.06-6.79.25-10.2.23-3.65.51-7.31.83-11,.69-7.3,1.51-14.6,2.61-21.86.54-3.63,1.15-7.24,1.94-10.82.39-1.79.84-3.57,1.4-5.31a21.49,21.49,0,0,1,.94-2.58,7.31,7.31,0,0,1,1.46-2.3,7.47,7.47,0,0,0-1.66,2.2,24.1,24.1,0,0,0-1.17,2.53c-.67,1.72-1.23,3.48-1.74,5.26-1,3.55-1.85,7.15-2.61,10.77-1.45,7.24-2.59,14.53-3.49,21.86-.45,3.66-.84,7.34-1.13,11a111.71,111.71,0,0,0-.44,11.19c0,.48,0,1,.1,1.48a9.16,9.16,0,0,0,.28,1.57,4.82,4.82,0,0,0,.87,1.72,7.06,7.06,0,0,0,1.24,1.21,21.52,21.52,0,0,0,5.32,2.6c1.67.64,3.35,1.34,4.14,2.28a1.91,1.91,0,0,1,.4.72,2.25,2.25,0,0,1,.12.84,3.8,3.8,0,0,1-.58,1.85,6,6,0,0,1-1.3,1.42,5.4,5.4,0,0,0-.23-3.12,6.54,6.54,0,0,0-2.78-3.37,8.53,8.53,0,0,0-2-.77,12.35,12.35,0,0,0-1.88-.39,13.57,13.57,0,0,0-3.88-.05,13.47,13.47,0,0,0,3.14,2.29c1.12.61,2.21,1.06,3.05,1.5a9.26,9.26,0,0,1,2.27,1.93,12.46,12.46,0,0,1,1.91,3l-.46-.39a10.63,10.63,0,0,1-1.48.83,20.28,20.28,0,0,1-4.87,1.59c-1.15.19-2.34.31-3.53.39a2.77,2.77,0,0,0,.43-.92,3.54,3.54,0,0,0-.15-2.18,7.19,7.19,0,0,0-2.48-3,10.09,10.09,0,0,0-3.23-1.61,7.41,7.41,0,0,0-3.66-.17,28.31,28.31,0,0,0,2.61,2.28c.84.66,1.66,1.29,2.49,1.9a22.09,22.09,0,0,1,2.22,1.76,3.16,3.16,0,0,1,.74,1,2.47,2.47,0,0,1,.2,1.55l-.54-.56a51.77,51.77,0,0,1-5.71-.11,43,43,0,0,1-5.3-.72,25.38,25.38,0,0,1-2.57-.61,12.92,12.92,0,0,1-2.34-.92,20,20,0,0,1-7.48-7,26.42,26.42,0,0,1-2.44-4.69,31,31,0,0,1-1.51-5.11c-.76-3.53-1.1-7.19-1.72-10.86-.32-1.84-.74-3.63-1.12-5.43s-.79-3.6-1.28-5.4a32.31,32.31,0,0,0-2.07-5.16c-.79-1.67-1.53-3.35-2.26-5,.59,1.75,1.19,3.49,1.84,5.21a32.2,32.2,0,0,1,1.72,5.19c.37,1.77.65,3.6.93,5.41s.59,3.63.79,5.43c.43,3.62.62,7.31,1.24,11,0,.15.06.3.08.45a86.24,86.24,0,0,1-8.66,2.59c-21.14,5-43.3,5-64.8,2.67a312,312,0,0,1-33.13-5.43c.64-3.75,1.28-7.5,2.06-11.21,1.55-7.49,3.48-15,7.19-21.77a48.6,48.6,0,0,0-5.15,10.36,112.84,112.84,0,0,0-3.47,11.08c-1,3.74-1.77,7.52-2.59,11.29l-1.22,5.62c-.22.92-.44,1.84-.71,2.73a11.29,11.29,0,0,1-.43,1.28,10.16,10.16,0,0,1-.53,1.25,25.21,25.21,0,0,1-2.86,4.7,20.45,20.45,0,0,1-3.79,3.87,14.75,14.75,0,0,1-4.66,2.47,36.39,36.39,0,0,1-5.42,1.12,48.24,48.24,0,0,1-8.41.43l-.54.56h0a2.59,2.59,0,0,1,.2-1.56,3.44,3.44,0,0,1,.74-1,23.66,23.66,0,0,1,2.22-1.75c.83-.61,1.65-1.24,2.49-1.9a28.51,28.51,0,0,0,2.61-2.28,7.37,7.37,0,0,0-3.65.16,10.06,10.06,0,0,0-3.24,1.62,7.07,7.07,0,0,0-2.48,3,3.62,3.62,0,0,0-.15,2.18,3,3,0,0,0,.43.91c-.46,0-.93,0-1.4-.1a22.72,22.72,0,0,1-2.68-.41,20.74,20.74,0,0,1-2.59-.74,15.32,15.32,0,0,1-3.2-1.56l-.47.39a12.88,12.88,0,0,1,1.92-3,9.39,9.39,0,0,1,2.26-1.92c.85-.44,1.93-.89,3.05-1.51a13.14,13.14,0,0,0,3.14-2.28,13.21,13.21,0,0,0-3.88,0,12.35,12.35,0,0,0-1.88.39,8.26,8.26,0,0,0-2,.77,6.6,6.6,0,0,0-2.78,3.36,5.59,5.59,0,0,0-.24,3.1c-.13-.11-.28-.22-.4-.33a4.77,4.77,0,0,1-1.25-1.77l-.14-.48a5,5,0,0,1-.07-.5,2.07,2.07,0,0,1,.11-.85c.29-1,1.9-1.9,3.6-2.6a22.47,22.47,0,0,0,5.48-2.84,6.81,6.81,0,0,0,1.25-1.36,6.36,6.36,0,0,0,.47-.85c.06-.15.13-.31.18-.45l.13-.39a14.63,14.63,0,0,0,.56-3.13c.15-2.05.09-4,.07-5.91s0-3.83,0-5.75c0-3.85,0-7.71-.1-11.58a135.2,135.2,0,0,0-2.22-23.12,56.42,56.42,0,0,0-3.4-11.14,22.73,22.73,0,0,0-6.83-9.28,18.35,18.35,0,0,1,3.63,4.43,30.47,30.47,0,0,1,2.47,5.15,55.39,55.39,0,0,1,2.69,11.09,150.79,150.79,0,0,1,1.33,22.89c0,3.84-.13,7.68-.2,11.53,0,1.93-.06,3.87-.07,5.79s0,3.7-.15,5.43c-1,0-1.89,0-2.41,0a154.6,154.6,0,0,1-17.62-.25c-2.76-.21-14.46-.57-15.16-4.64-.62-3.65,11.48-4.84,13.88-6.69,4.66-3.6-6.26-6.18-8.4-7.39-30.14-17.1-31.4-57.3-28.45-87.75.88-9.15,2.27-18.23,3.91-27.27a378.12,378.12,0,0,1,52.48-133.65c12.29-19.29,26.8-38.33,46.83-50.12a77.41,77.41,0,0,1,58.78-8.27C370.88,96.3,387.9,107.3,401.77,120.91Zm88-10.86q-3.94-.83-7.92-1.61c-18.33-3.65-36.74-7.76-55.43-9-13.67-.93-29.52-1.42-43.32,2.66-1.13-.73-2.28-1.44-3.43-2.12A69,69,0,0,1,419,77c17-3.41,33.65-.24,49.33,6.6C476.18,87,484,91.22,490.45,97c2.38,2.13,5.48,4.86,6.74,7.86C500.19,112,493.83,110.9,489.74,110.05Z"/>    </g>    <g id="eye">        <g id="eye-color1">            <g opacity="0" ><path fill="#C5EDC5"  d="M297.39,169.09c-.14.46-.21.94-.36,1.41a15.55,15.55,0,0,1-1.35,2.86c-.52.94-1,1.9-1.54,2.83-.24.41-.5.8-.77,1.2-.14.21-.28.41-.43.61s-.45.47-.45.6c-.2.25-.39.5-.6.74-5.88,7-13.9,9.8-22.69,6.54-8.54-3.18-14.2-10.41-14.65-19.54a1.27,1.27,0,0,1,0-.28,1.42,1.42,0,0,1,0-.3,23.29,23.29,0,0,1,19-21.81A19,19,0,0,1,285,145.3c-15.3-7.7-34.36-2.93-39.3,15.33a20.54,20.54,0,0,0-.66,6.53,29.4,29.4,0,0,0,10.48,20.24c8.59,7.08,21.5,6.67,31,1.77,7.19-3.7,10-12.61,10.92-20.46C297.47,168.84,297.43,169,297.39,169.09Z"/></g><g opacity="0" ><path fill="#C5EDC5"  d="M421.14,163c-.24.62-.44,1.25-.69,1.86a25.27,25.27,0,0,1-2,3.66A30.31,30.31,0,0,1,416,172c-5.88,7.05-13.91,9.8-22.7,6.54-8.53-3.18-14.2-10.41-14.65-19.54a2.46,2.46,0,0,1,0-.28,1.39,1.39,0,0,1,0-.3,23.28,23.28,0,0,1,19-21.81,19,19,0,0,1,11.42,1.35c-15.3-7.7-34.36-2.93-39.3,15.33a20.83,20.83,0,0,0-.66,6.53A29.44,29.44,0,0,0,379.59,180c8.59,7.08,21.5,6.67,31,1.77,6.91-3.55,9.73-12,10.78-19.66C421.31,162.4,421.24,162.78,421.14,163Z"/></g>        </g>        <g id="eye-shape">            <path fill="#fcfcfc"  d="M289.33,118.08c-7.82-4.63-16.25-5.49-25.07-3.61a56.83,56.83,0,0,0-13.79,4.85c-2.74,1.38-5.12,3.33-7.81,4.73-15.12,11.6-19.3,31.46-10.94,48.47,7.69,15.62,26.58,28.71,44.44,23.12,15.37-4.81,25.15-21.23,28.47-36.16C308.16,143.65,304,126.72,289.33,118.08ZM262.26,189c-9.47,1.85-17-6.57-18.21-15.24a1.62,1.62,0,0,1-.05-.4,1.39,1.39,0,0,1,0-.46,16.55,16.55,0,0,1,17.43-15.77,5.68,5.68,0,0,1,1.57-.87,1.14,1.14,0,0,1,1.27-.13,1.34,1.34,0,0,1,.49.32l4.7,3.45c.7.52,1.52.95,1.59,1.92,0,.11,0,.23,0,.35a15.9,15.9,0,0,1,3,10C273.89,179.25,269.86,187.48,262.26,189Z"/><path d="M296.83,119.83a35.84,35.84,0,0,0-27.08-9.2,55.33,55.33,0,0,0-15.7,3.82c-4.55,1.8-8.27,4.54-12.51,6.79a1.54,1.54,0,0,0-.39.22,1.45,1.45,0,0,0-.46.36c-13.64,10.74-19.54,27.85-14.53,44.69,5.33,17.94,22.38,33.32,41.63,33.36,18.48,0,31.65-16.1,37.53-32.11S310.39,131.88,296.83,119.83Zm7.8,39.65c-3.32,14.93-13.1,31.35-28.47,36.16-17.86,5.59-36.75-7.5-44.44-23.12-8.36-17-4.18-36.87,10.94-48.47,2.69-1.4,5.07-3.35,7.81-4.73a56.83,56.83,0,0,1,13.79-4.85c8.82-1.88,17.25-1,25.07,3.61C304,126.72,308.16,143.65,304.63,159.48Z"/><path fill="#fcfcfc"  d="M441.91,138.38c-3.23-17.34-18-24.17-34-26.81-18.86-3.14-36.89,8.23-45.55,24.74-9.27,19.81,1.24,45.06,20.38,54.74a38.17,38.17,0,0,0,44.44-6.79C438.81,172.7,444.93,154.58,441.91,138.38Zm-29.1,9.34c-9.24-.07-17.75-7-18.6-16.33a2,2,0,0,1-.06-.56,1.67,1.67,0,0,1,.08-.61,16.8,16.8,0,0,1,4-8.81,1.85,1.85,0,0,1,.25-.32l.65-.67c.24-.25.47-.5.72-.74l3.63-3.75a1.62,1.62,0,0,1,2.08-.17,17.38,17.38,0,0,1,9.3-1.72c9.06,1.06,14.51,10.2,13.34,18.68C427.09,140.6,421.2,147.78,412.81,147.72Z"/><path d="M437.61,121.53c-5.76-6.42-14.07-9.84-22.29-11.83-10.75-2.6-21.1-2.91-31.36,1.75a52.5,52.5,0,0,0-24.42,23.2c-8.76,18.74-1.73,42,14.38,54.65,13.82,10.8,33.62,12.77,48.56,3,15.16-9.89,23.85-29.06,23.44-46.89C445.72,136.84,443.47,128.05,437.61,121.53Zm-54.84,69.52c-19.14-9.68-29.65-34.93-20.38-54.74,8.66-16.51,26.69-27.88,45.55-24.74,15.93,2.64,30.74,9.47,34,26.81,3,16.2-3.1,34.32-14.7,45.88A38.17,38.17,0,0,1,382.77,191.05Z"/><path d="M269.26,166.54c-2.57,3-7.13,1.29-9-1.6a5.8,5.8,0,0,1,1.2-7.85A16.55,16.55,0,0,0,244,172.86a1.39,1.39,0,0,0,0,.46,1.62,1.62,0,0,0,.05.4c1.16,8.67,8.74,17.09,18.21,15.24,7.6-1.48,11.63-9.71,11.81-16.85a15.9,15.9,0,0,0-3-10A8,8,0,0,1,269.26,166.54Z"/><path fill="#fff"  d="M260.25,164.94c1.88,2.89,6.44,4.64,9,1.6a8,8,0,0,0,1.81-4.41c0-.12,0-.24,0-.35-.07-1-.89-1.4-1.59-1.92l-4.7-3.45a1.34,1.34,0,0,0-.49-.32,1.14,1.14,0,0,0-1.27.13,5.68,5.68,0,0,0-1.57.87A5.8,5.8,0,0,0,260.25,164.94Z"/><path d="M399.1,120.42l.72-.74C399.57,119.92,399.34,120.17,399.1,120.42Z"/><path d="M414.83,114a17.38,17.38,0,0,0-9.3,1.72l.25.17c2.9,2.29,3.92,7,1.11,9.86s-8,.49-8.86-3.1a1.6,1.6,0,0,1,0-.53,1.52,1.52,0,0,1,.21-.75,16.8,16.8,0,0,0-4,8.81,1.67,1.67,0,0,0-.08.61,2,2,0,0,0,.06.56c.85,9.31,9.36,16.26,18.6,16.33,8.39.06,14.28-7.12,15.36-15C429.34,124.24,423.89,115.1,414.83,114Z"/><path fill="#fff"  d="M398,122.69c.86,3.59,6,5.95,8.86,3.1s1.79-7.57-1.11-9.86l-.25-.17a1.62,1.62,0,0,0-2.08.17l-3.63,3.75-.72.74-.65.67a1.85,1.85,0,0,0-.25.32,1.52,1.52,0,0,0-.21.75A1.6,1.6,0,0,0,398,122.69Z"/>        </g>        <g id="eye-color2">            <path fill="#ED58D0"  d="M276.58,177a21.4,21.4,0,0,0-4.23-12.82,16.52,16.52,0,0,1,1.72,7.92c-.18,7.14-4.21,15.37-11.81,16.85-9.47,1.85-17.06-6.57-18.21-15.24a1.62,1.62,0,0,1-.05-.4,1.39,1.39,0,0,1,0-.46,16.55,16.55,0,0,1,17.42-15.77l.34-.22a19,19,0,0,0-5.14-.73c-11,0-19.93,9.35-19.93,20.87a22.56,22.56,0,0,0,.34,3.8c6.57,8.15,16.11,14.45,26.28,15.85A20.84,20.84,0,0,0,276.58,177Z"/><path fill="#ED58D0"  d="M414.89,114.05c9,1.1,14.44,10.21,13.28,18.67-1.08,7.88-7,15.06-15.36,15-8.9-.07-17.11-6.52-18.45-15.33a19.13,19.13,0,0,0-.16,2.41,20.94,20.94,0,1,0,26-20.1,21.21,21.21,0,0,0-5.13-.66Z"/>        </g>    </g>    <g id="nose-mouth">        <path fill="none"  d="M409,275.37h0Z"/><path fill="none"  d="M394.78,308.82l0,.08s0,0,0-.07Z"/><path fill="#e8d3b3"  d="M361.93,304.22a40.62,40.62,0,0,1,3.69,9.25,32.5,32.5,0,0,1,1.09,10,28.16,28.16,0,0,1-1.22,7c.94-.4,1.88-.84,2.78-1.31a33.14,33.14,0,0,0,5.12-3.27,32.58,32.58,0,0,0,8-9.07,36.91,36.91,0,0,0,4.43-11.47,60.07,60.07,0,0,0,1.23-12.54,44.83,44.83,0,0,1,.64,8.36,21.71,21.71,0,0,1,4.89,4.1,12.15,12.15,0,0,1,1.77,2.62l.08-.11a25.11,25.11,0,0,0,2.45-5.9,40.39,40.39,0,0,0,1.32-6.67c-.26-.49-.54-1-.85-1.46a15.93,15.93,0,0,1,2.55,2.93,25.91,25.91,0,0,1,1.88,3.43,35.8,35.8,0,0,1,1.36,3.67c0,.12.07.25.11.38l.71-1.45c.57-1.54,1.32-3,1.84-4.55a49.08,49.08,0,0,0,2.38-9.42,37.41,37.41,0,0,0,.06-9.69,29,29,0,0,0-2.85-9.46,19.44,19.44,0,0,1,3.58,5.76h0a21.12,21.12,0,0,1,3.61.54,34.7,34.7,0,0,1,4.56,1.49,45.09,45.09,0,0,1,4.33,2.05c.53.28,1,.59,1.55.89a48.63,48.63,0,0,0-1-5.12,32.4,32.4,0,0,0-2.83-7.41,28.07,28.07,0,0,0-2.14-3.33,24.78,24.78,0,0,0-2.68-2.94,21.28,21.28,0,0,0-6.89-4.32,16.48,16.48,0,0,1,8,3c.41.28.8.6,1.19.91.73-.13,1.46-.27,2.19-.35a29.66,29.66,0,0,1,3-.23,32,32,0,0,1,6,.33,31.13,31.13,0,0,1,5.9,1.43,27.11,27.11,0,0,1,2.8,1.1,49.94,49.94,0,0,0-8.27-13.81,45.43,45.43,0,0,0-6.88-6.56c-1.23-1-2.56-1.88-3.88-2.77s-2.73-1.64-4.16-2.35a68.43,68.43,0,0,0-18.19-6.23,94.94,94.94,0,0,0-14-1.74c-.27,1.15-.58,2.32-1,3.5-6.48,19.83-28.21,40.19-43.87,41.1-.52,0-1,.05-1.58.05-15.46,0-37.36-12.51-48.72-28.07a44.82,44.82,0,0,1-5.42-9.56,117.07,117.07,0,0,0-12.57,4.44,72.2,72.2,0,0,0-17.07,9.82,37.91,37.91,0,0,0-6.84,6.85,30.84,30.84,0,0,0-4.65,8.32,29.93,29.93,0,0,0-1.58,9.35l.05,2.4.28,2.39c.05.39.09.8.15,1.19l0,.23c.21-.28.42-.54.64-.81a21.72,21.72,0,0,1,3.33-3.24,16.6,16.6,0,0,1,4.09-2.35,14.57,14.57,0,0,1,4.65-1l1.45-.1-.17,1.45a37.19,37.19,0,0,0-.17,5.5,39,39,0,0,0,.61,5.51,25.27,25.27,0,0,0,1.6,5.25,18.45,18.45,0,0,0,2.08,3.43,17.92,17.92,0,0,1,.25-1.79,16.23,16.23,0,0,1,.95-3.21,11.64,11.64,0,0,1,1.72-2.85,8.87,8.87,0,0,1,2.61-2,2.83,2.83,0,0,0-.28.2,6.31,6.31,0,0,1,.63-.34,36.56,36.56,0,0,1,2.68-11.74,33.12,33.12,0,0,0-1.37,5.87,40.24,40.24,0,0,0-.49,6A39.29,39.29,0,0,0,265,297.51a36.32,36.32,0,0,0,2.11,5.54,39,39,0,0,0,2.9,5.16,47.12,47.12,0,0,0,5.71,7c.05-.86.13-1.72.25-2.58a34.78,34.78,0,0,1,1.1-5.31,26.28,26.28,0,0,1,2.05-5.1,19.57,19.57,0,0,1,3.31-4.53l2.47-2.52-.06,3.61a49,49,0,0,0,1.27,11.65,39.22,39.22,0,0,0,4.19,10.88,27.7,27.7,0,0,0,7.58,8.6,28.51,28.51,0,0,0,8.75,4.28c0-1.59,0-3.16.09-4.74.11-2.21.3-4.41.61-6.61a43.94,43.94,0,0,1,1.4-6.55,19,19,0,0,1,3.05-6.21l.76-.94.82.83a34.91,34.91,0,0,1,5.28,6.85,22.78,22.78,0,0,1,1.84,4,13.07,13.07,0,0,1,.71,3.59,7.92,7.92,0,0,0,1.57-.42,9.2,9.2,0,0,0,2.13-1.21,11.72,11.72,0,0,0,3.17-3.86,20.71,20.71,0,0,0,1.78-4.83,31.93,31.93,0,0,0,.77-4.26c-.2-.21-.39-.44-.6-.65a44,44,0,0,0-5.45-4.79,28.47,28.47,0,0,1,6.37,3.76,29.39,29.39,0,0,1,5.32,5.31,23.53,23.53,0,0,1,3.69,6.7l.61,1.84c.15.64.26,1.28.38,1.91.06.32.13.64.17,1l0,.46a47.6,47.6,0,0,0,10.8-8.76l1.32-1.55c.42-.53.79-1.09,1.19-1.64a13.37,13.37,0,0,0,1.12-1.69,16.56,16.56,0,0,0,1-1.78l.89-1.85c.29-.62.46-1.29.71-1.93l.36-1c.1-.33.16-.67.24-1l.05-.21a25.18,25.18,0,0,0,.43-2.53,53.33,53.33,0,0,0-2.91-5.28A41.71,41.71,0,0,1,361.93,304.22Z"/><path d="M439.85,265.47a51.39,51.39,0,0,0-3.7-9.35,50,50,0,0,0-2.51-4.38c-.45-.72-1-1.38-1.47-2.07l-.75-1-.82-1a44,44,0,0,0-7.28-7,49.11,49.11,0,0,0-8.58-5.33,62.39,62.39,0,0,0-9.38-3.61,71,71,0,0,0-9.78-2,72.93,72.93,0,0,0-14.16-.5c2.2-10.25-.35-18.92-7.37-24.72-14.57-12-41.79-12-62.29-6.63C295.08,202.2,283.21,209.76,280,218c-2.18,5.64-2,11.82.43,18.22a95.82,95.82,0,0,0-12.92,3.55,67.55,67.55,0,0,0-18.06,9.34,36.16,36.16,0,0,0-12.67,16.21A30.68,30.68,0,0,0,235,275.7l.07,2.62.33,2.59c.06.43.1.86.18,1.29l.29,1.27.57,2.53.88,3.81,1.82-3.57a21.91,21.91,0,0,1,2.19-3.36,19.35,19.35,0,0,1,2.82-2.9,13.82,13.82,0,0,1,3.38-2.05,10.7,10.7,0,0,1,2.46-.73,41.58,41.58,0,0,0,.13,4.33,34.67,34.67,0,0,0,.92,5.8,27.07,27.07,0,0,0,2,5.53,18,18,0,0,0,3.62,4.7l1.12,1-.11-1.5a18.53,18.53,0,0,1,.08-3.15,15.76,15.76,0,0,1,.64-3.11,11.83,11.83,0,0,1,1.37-2.87,8.74,8.74,0,0,1,2.05-2,2.83,2.83,0,0,1,.28-.2,8.87,8.87,0,0,0-2.61,2,11.64,11.64,0,0,0-1.72,2.85,16.23,16.23,0,0,0-.95,3.21,17.92,17.92,0,0,0-.25,1.79,18.45,18.45,0,0,1-2.08-3.43,25.27,25.27,0,0,1-1.6-5.25,39,39,0,0,1-.61-5.51,37.19,37.19,0,0,1,.17-5.5l.17-1.45-1.45.1a14.57,14.57,0,0,0-4.65,1,16.6,16.6,0,0,0-4.09,2.35,21.72,21.72,0,0,0-3.33,3.24c-.22.27-.43.53-.64.81l0-.23c-.06-.39-.1-.8-.15-1.19l-.28-2.39-.05-2.4a29.93,29.93,0,0,1,1.58-9.35,30.84,30.84,0,0,1,4.65-8.32,37.91,37.91,0,0,1,6.84-6.85,72.2,72.2,0,0,1,17.07-9.82,117.07,117.07,0,0,1,12.57-4.44,44.82,44.82,0,0,0,5.42,9.56c11.36,15.56,33.26,28.07,48.72,28.07.54,0,1.06,0,1.58-.05,15.66-.91,37.39-21.27,43.87-41.1.39-1.18.7-2.35,1-3.5a94.94,94.94,0,0,1,14,1.74,68.43,68.43,0,0,1,18.19,6.23c1.43.71,2.79,1.54,4.16,2.35s2.65,1.77,3.88,2.77a45.43,45.43,0,0,1,6.88,6.56,49.94,49.94,0,0,1,8.27,13.81,27.11,27.11,0,0,0-2.8-1.1,31.13,31.13,0,0,0-5.9-1.43,32,32,0,0,0-6-.33,29.66,29.66,0,0,0-3,.23c-.73.08-1.46.22-2.19.35-.39-.31-.78-.63-1.19-.91a16.48,16.48,0,0,0-8-3,21.28,21.28,0,0,1,6.89,4.32,24.78,24.78,0,0,1,2.68,2.94,28.07,28.07,0,0,1,2.14,3.33,32.4,32.4,0,0,1,2.83,7.41,48.63,48.63,0,0,1,1,5.12c-.51-.3-1-.61-1.55-.89a45.09,45.09,0,0,0-4.33-2.05,34.7,34.7,0,0,0-4.56-1.49,21.12,21.12,0,0,0-3.61-.54h0a19.44,19.44,0,0,0-3.58-5.76,29,29,0,0,1,2.85,9.46,37.41,37.41,0,0,1-.06,9.69,49.08,49.08,0,0,1-2.38,9.42c-.52,1.55-1.27,3-1.84,4.55l-.71,1.45c0-.13-.07-.26-.11-.38a35.8,35.8,0,0,0-1.36-3.67,25.91,25.91,0,0,0-1.88-3.43,15.93,15.93,0,0,0-2.55-2.93c.31.48.59,1,.85,1.46a40.39,40.39,0,0,1-1.32,6.67,25.11,25.11,0,0,1-2.45,5.9l-.08.11a12.15,12.15,0,0,0-1.77-2.62,21.71,21.71,0,0,0-4.89-4.1,44.83,44.83,0,0,0-.64-8.36,60.07,60.07,0,0,1-1.23,12.54,36.91,36.91,0,0,1-4.43,11.47,32.58,32.58,0,0,1-8,9.07,33.14,33.14,0,0,1-5.12,3.27c-.9.47-1.84.91-2.78,1.31a28.16,28.16,0,0,0,1.22-7,32.5,32.5,0,0,0-1.09-10,40.62,40.62,0,0,0-3.69-9.25,41.71,41.71,0,0,0-5.61-8.09,53.33,53.33,0,0,1,2.91,5.28c.54,1.11,1.06,2.23,1.53,3.37a47.55,47.55,0,0,1,2.77,9.16,32.62,32.62,0,0,1,.58,4.7,31.78,31.78,0,0,1-.06,4.68,28.83,28.83,0,0,1-2.32,9L360.55,335l2.86-.75a30.71,30.71,0,0,0,6.25-2.47,36.09,36.09,0,0,0,5.53-3.63,32.83,32.83,0,0,0,8.43-10.11,35.34,35.34,0,0,0,3.81-12.45c.15-1.28.24-2.56.28-3.84,1.07,1.64,2.15,3.21,3.06,4.81a12.47,12.47,0,0,1,1.27,2.81l.15.49a2.51,2.51,0,0,0,.46.83,2,2,0,0,0,1.33.69,2.26,2.26,0,0,0,1.2-.25,3.82,3.82,0,0,0,1.11-.87,9.36,9.36,0,0,0,.66-.85,16,16,0,0,0,2.33-7.12,14.43,14.43,0,0,0-.93-6.9c.28.56.54,1.12.79,1.68a35,35,0,0,1,1.19,3.54c.33,1.2.59,2.41.81,3.63a33.45,33.45,0,0,1,.5,3.64l.3,3.86,2-3.38q1.31-2.2,2.58-4.46c.37-.78.73-1.57,1.08-2.36a24,24,0,0,0,1-2.39,35.78,35.78,0,0,0,1.52-5c.17-.85.42-1.69.54-2.55s.23-1.73.32-2.6a30.71,30.71,0,0,0-.84-10.38,26.83,26.83,0,0,0-1-2.91c1.06.37,2.1.77,3.11,1.22,1.4.67,2.76,1.37,4.09,2.14s2.63,1.57,3.89,2.44,2.56,1.73,3.71,2.64l2.35,1.86-.1-3.06a37,37,0,0,0-1.22-8.53,32.33,32.33,0,0,0-1.39-4.13,26.09,26.09,0,0,0-2-3.88,21.65,21.65,0,0,0-4.68-5.28,42,42,0,0,1,5,.1,36.08,36.08,0,0,1,5.77.9,34.94,34.94,0,0,1,5.49,1.81,27.07,27.07,0,0,1,5,2.71l2.72,2Zm-45,43.43,0-.08h0C394.86,308.92,394.84,308.94,394.82,308.9ZM288.53,244.72c-4.65-6.38-9.43-16-5.72-25.6,2.81-7.28,14.19-14.32,29.71-18.38a101.33,101.33,0,0,1,25.6-3.44c15.39,0,27.43,4,34,9.48,8.91,7.36,7.79,18,5.29,25.7-6.16,18.85-26.56,38.18-41.19,39S299.76,260.1,288.53,244.72Z"/><path fill="#724331"  d="M377.43,232.48c2.5-7.66,3.62-18.34-5.29-25.7-6.59-5.43-18.63-9.48-34-9.48a101.33,101.33,0,0,0-25.6,3.44c-15.52,4.06-26.9,11.1-29.71,18.38-3.71,9.6,1.07,19.22,5.72,25.6,11.23,15.38,33.1,27.67,47.71,26.8S371.27,251.33,377.43,232.48Z"/><path d="M358.51,305.16l-.36,1c-.25.64-.42,1.31-.71,1.93l-.89,1.85a16.56,16.56,0,0,1-1,1.78,13.37,13.37,0,0,1-1.12,1.69c-.4.55-.77,1.11-1.19,1.64l-1.32,1.55a47.6,47.6,0,0,1-10.8,8.76l0-.46c0-.32-.11-.64-.17-1-.12-.63-.23-1.27-.38-1.91l-.61-1.84a23.53,23.53,0,0,0-3.69-6.7,29.39,29.39,0,0,0-5.32-5.31,28.47,28.47,0,0,0-6.37-3.76,44,44,0,0,1,5.45,4.79c.21.21.4.44.6.65a31.93,31.93,0,0,1-.77,4.26,20.71,20.71,0,0,1-1.78,4.83,11.72,11.72,0,0,1-3.17,3.86,9.2,9.2,0,0,1-2.13,1.21,7.92,7.92,0,0,1-1.57.42,13.07,13.07,0,0,0-.71-3.59,22.78,22.78,0,0,0-1.84-4,34.91,34.91,0,0,0-5.28-6.85l-.82-.83-.76.94a19,19,0,0,0-3.05,6.21,43.94,43.94,0,0,0-1.4,6.55c-.31,2.2-.5,4.4-.61,6.61-.07,1.58-.1,3.15-.09,4.74a28.51,28.51,0,0,1-8.75-4.28,27.7,27.7,0,0,1-7.58-8.6,39.22,39.22,0,0,1-4.19-10.88,49,49,0,0,1-1.27-11.65l.06-3.61-2.47,2.52a19.57,19.57,0,0,0-3.31,4.53,26.28,26.28,0,0,0-2.05,5.1,34.78,34.78,0,0,0-1.1,5.31c-.12.86-.2,1.72-.25,2.58a47.12,47.12,0,0,1-5.71-7,39,39,0,0,1-2.9-5.16,36.32,36.32,0,0,1-2.11-5.54,39.29,39.29,0,0,1-1.66-11.78,40.24,40.24,0,0,1,.49-6,33.12,33.12,0,0,1,1.37-5.87,36.56,36.56,0,0,0-2.68,11.74.28.28,0,0,0,0,.09,40.29,40.29,0,0,0,1,12.22,38.11,38.11,0,0,0,1.95,5.87,41.51,41.51,0,0,0,2.81,5.52,50,50,0,0,0,7.77,9.63l2,2V318a34,34,0,0,1,.4-5,33.34,33.34,0,0,1,1.11-4.89A22.64,22.64,0,0,1,282,302.7c0,.75.11,1.5.18,2.26a54,54,0,0,0,1,6.17,41.14,41.14,0,0,0,4.47,11.72,30,30,0,0,0,20,14.56l1.79.4L309.4,336c-.1-2.09-.1-4.26,0-6.4s.22-4.27.47-6.38A44.41,44.41,0,0,1,311,317a19.25,19.25,0,0,1,1.8-4.49c.64.66,1.27,1.35,1.86,2.05a29.81,29.81,0,0,1,2.42,3.28,15,15,0,0,1,2.68,7.39l0,.79.7-.06a9,9,0,0,0,5.12-2.27,13,13,0,0,0,3.17-4.39,24.45,24.45,0,0,0,1.92-9.36,36.43,36.43,0,0,1,3.73,4.83,25.56,25.56,0,0,1,2.92,6.28l.45,1.66.28,1.69c.05.28.11.56.14.84l0,.85.08,1.71.12,2.33,2-1a30,30,0,0,0,3.8-2.22,41.77,41.77,0,0,0,3.49-2.57,38.7,38.7,0,0,0,6.07-6.2,28.91,28.91,0,0,0,4.18-7.6,22.83,22.83,0,0,0,1.29-8.43l-.46,1.84-.05.21C358.67,304.49,358.61,304.83,358.51,305.16Z"/><path fill="#44241b"  d="M334.67,209.16c-2.9-9.63-30.7,1.33-28,8.71C310,227.07,337.57,218.79,334.67,209.16Z"/><path fill="#44241b"  d="M348.91,232.14a5.66,5.66,0,1,0-5.57-5.74A5.65,5.65,0,0,0,348.91,232.14Z"/><path fill="#44241b"  d="M311.74,231.56c-4.68-.07-8.54,3.94-8.62,9s3.66,9.15,8.34,9.22,8.55-3.94,8.63-9S316.43,231.64,311.74,231.56Z"/><path fill="#44241b"  d="M340.2,246.15a2.86,2.86,0,1,0,2.38,2.86A2.64,2.64,0,0,0,340.2,246.15Z"/>    </g></svg>