<!--  ~ Copyright (C) 2018 Baidu, Inc. All Rights Reserved.  --><svg viewBox="0 0 640 480" xmlns="http://www.w3.org/2000/svg">    <g id="back-ground-cl">        <rect fill="none" width="640" height="480" />        <ellipse opacity="0.1" cx="331.93" cy="418.82" rx="168.39" ry="32.01"/>    </g>    <g id="body">        <defs>            <clipPath id="outline">                <path fill="none"  d="M216.12,85.89a15.26,15.26,0,0,0,.54,2l1.19,0a15.65,15.65,0,0,1-1.48-1.66C216.28,86.14,216.21,86,216.12,85.89Z"/><path fill="none"  d="M222.89,87.76c1.06-.09,2.13-.21,3.18-.38a32.33,32.33,0,0,0,3.67-.78l-.61-.1a33.77,33.77,0,0,1-6.35-1.78,21.59,21.59,0,0,1-3.47-1.8l-.7-.28-.83-.39a10.69,10.69,0,0,0,1.16,2.09A13.64,13.64,0,0,0,222.89,87.76Z"/><path fill="none"  d="M222.56,111.78c.7-1,1.41-1.89,2.15-2.8.34-.42.68-.82,1-1.23-1.09-.65-2.16-1.34-3.2-2.09l-1,.08a35.21,35.21,0,0,1-3.56,0,16.59,16.59,0,0,0,3.23,4.64C221.61,110.88,222.08,111.34,222.56,111.78Z"/><path fill="none"  d="M222,102.85a40.17,40.17,0,0,0,6.69,4.89,55.47,55.47,0,0,0,15.52,6.2,65.1,65.1,0,0,0,16.69,1.74,84.46,84.46,0,0,0,16.61-2.17,120.31,120.31,0,0,0,16-4.72,68.22,68.22,0,0,0,14.75-7.55A47.28,47.28,0,0,0,320.1,89.8a35.3,35.3,0,0,0,6.44-15.23h0a.15.15,0,0,1,.17-.13.16.16,0,0,1,.13.15,27.44,27.44,0,0,1-1.62,8.4,33.33,33.33,0,0,1-1.49,3.68c18.28-2,36.6,2.8,52.61,11.59a119.83,119.83,0,0,1,11.59,7.28,48.86,48.86,0,0,0,10.15-8,28.51,28.51,0,0,0,6.76-11,19.73,19.73,0,0,0,.94-6.32,12.18,12.18,0,0,0-1.54-6,4.51,4.51,0,0,0-2-1.89,2.32,2.32,0,0,0-.59-.15c-.24,0-.48,0-.73,0a7,7,0,0,0-1.44.15,8.58,8.58,0,0,0-4.75,3.3A1,1,0,0,1,393,74.5a16.28,16.28,0,0,0,1.64-4.21,16.51,16.51,0,0,0,.39-4.49,18.38,18.38,0,0,0-.83-4.46c-.13-.41-.28-.82-.44-1.23a13.32,13.32,0,0,1-1,1.74,18.37,18.37,0,0,1-1.62,2.08,22.29,22.29,0,0,1-1.89,1.87,1.32,1.32,0,0,1-2.17-1.19v-.06a27.73,27.73,0,0,0,.22-7.81,13.29,13.29,0,0,0-2.74-6.8,8.1,8.1,0,0,0-2.69-2.11,5.65,5.65,0,0,0-1.53-.45,3,3,0,0,0-1.29.09c-.13.05-.14.08-.15.09a.51.51,0,0,0-.06.22,3.79,3.79,0,0,0,.23,1.37,14.53,14.53,0,0,0,1.66,3.26,1.56,1.56,0,0,1-2.42,2h0a44.41,44.41,0,0,0-4.26-3.73c-1.52-1.18-3.1-2.27-4.72-3.32a71.47,71.47,0,0,0-10.17-5.46,77.49,77.49,0,0,0-22.29-6,86.93,86.93,0,0,0-23.17.69,84.79,84.79,0,0,0-22.22,6.68,93.82,93.82,0,0,0-16,9.45l-.86-.3a.15.15,0,0,1-.06.09c-4.79,3-9.34,6.23-13.83,9.62S251.88,69,247.37,72.36a85.31,85.31,0,0,1-7.06,4.85,16.76,16.76,0,0,1-2,1,15.13,15.13,0,0,1-2.21.67,26.26,26.26,0,0,1-4.4.66,30.51,30.51,0,0,1-8.79-.74,36.52,36.52,0,0,1-4.22-1.26l-.6-.23a8,8,0,0,0,1.13,1.43,15,15,0,0,0,4.79,3,31.28,31.28,0,0,0,5.74,1.74,41.34,41.34,0,0,0,6,.81h.07a1.44,1.44,0,0,1,.59,2.71,28.58,28.58,0,0,1-9.94,3,45.63,45.63,0,0,1-5.09.34c-1,0-2,0-3-.08a11.19,11.19,0,0,0,1,1.24,23.81,23.81,0,0,0,2.93,2.52,42.28,42.28,0,0,0,6.8,4,62.56,62.56,0,0,0,15.15,5,76,76,0,0,0,15.93,1.42,101.89,101.89,0,0,0,15.89-1.62c5.25-1,10.44-2.16,15.53-3.61,1.28-.37,2.52-.8,3.79-1.17s2.5-.87,3.74-1.33,2.47-1,3.65-1.52l1.81-.81,1.77-.88a47.88,47.88,0,0,0,12.71-9.17,32.65,32.65,0,0,0,4.75-6.27,22.21,22.21,0,0,0,2.74-7.39v0a.14.14,0,0,1,.17-.12.15.15,0,0,1,.13.15,20.66,20.66,0,0,1-2.07,7.88,30.17,30.17,0,0,1-2,3.61,36.19,36.19,0,0,1-2.47,3.29,45.11,45.11,0,0,1-12.84,10.19c-9.64,5.27-20.39,8-31.11,9.28a101.19,101.19,0,0,1-16.22.7,104.79,104.79,0,0,1-16.1-1.69,78.83,78.83,0,0,1-15.57-4.54c-1.06-.45-2.11-.94-3.14-1.46-1.31.16-2.61.27-3.92.3-1.12,0-2.23,0-3.34-.08a11.42,11.42,0,0,0,1.11,1.72A22.73,22.73,0,0,0,222,102.85,372.42,63a15.64,15.64,0,0,1,1.7,7.26,17,17,0,0,1-.14,1.88c0,.31-.06.62-.11.93l-.23.91a18.29,18.29,0,0,1-.51,1.79c-.24.57-.48,1.14-.74,1.7a8.94,8.94,0,0,1-.89,1.6l-1,1.51A25.66,25.66,0,0,1,368,83.23c.33-1.18.8-2.24,1.18-3.32l.52-1.63c.08-.27.17-.53.27-.8s.12-.54.19-.81c.13-.54.26-1.07.41-1.6s.17-1.08.26-1.61l.14-.79c0-.27,0-.54.05-.81,0-.53.11-1.06.08-1.6a21.7,21.7,0,0,0-.88-6.36,29.85,29.85,0,0,0-2.63-6.29A13.44,13.44,0,0,1,372.42,63,-9.88,1.13a13.22,13.22,0,0,1,.79,2.55,15.84,15.84,0,0,1,.23,2.66,14.72,14.72,0,0,1-.94,5.19,11.39,11.39,0,0,1-2.82,4.38c.19-1.75.39-3.35.53-4.93s.23-3.12.23-4.64c0-.77,0-1.52-.06-2.29s-.09-1.53-.23-2.3c-.14-1.57-.55-3.09-.82-4.85A10.45,10.45,0,0,1,362.54,64.16,-42.89-14.6A25.35,25.35,0,0,0,312.1,52a20.31,20.31,0,0,1,7.18-3.86,30.33,30.33,0,0,1,8.16-1.45,25.33,25.33,0,0,1,16,4.75,23.27,23.27,0,0,1,8.93,14.07,31.36,31.36,0,0,1-.9,16.25,42,42,0,0,0-1.36-15.66c-.21-.61-.37-1.23-.62-1.82l-.73-1.77c-.26-.58-.6-1.11-.89-1.68-.15-.27-.29-.56-.46-.82l-.55-.77a18.47,18.47,0,0,0-1.11-1.52l-1.24-1.41A13.85,13.85,0,0,0,343.09,55a13.7,13.7,0,0,0-1.46-1.18,22.47,22.47,0,0,0-6.69-3.44A26.74,26.74,0,0,0,327.42,49,35.1,35.1,0,0,0,319.65,49.56Z"/><path fill="none"  d="M467.1,243.37c-8.65-24.15-19.37-47.49-30.8-70.44-2.92-5.86-5.91-11.69-9.11-17.41-.54-1-1.09-1.91-1.64-2.87-1.58-2.73-3.21-5.42-4.94-8.06-1.85-2.8-3.31-5.82-5.1-8.65-.08-.12-.22-.46-.35-.53,11.34,6.05,32.06,15.69,38.9,12.53a3.13,3.13,0,0,0,1.89-2.45c1.5-7.78-4.74-23.31-13.9-34.62-7.45-9.21-15.6-14.36-22.94-14.5h-.21c-11.52,0-24.29,17.74-24.43,17.93l-2.52-2c-11.76-9.45-25.23-16.87-39.87-20.61A78.28,78.28,0,0,0,321.93,90c-.15.25-.28.5-.44.74a45.39,45.39,0,0,1-11.86,12.46,64.14,64.14,0,0,1-15.19,8.1A88.77,88.77,0,0,1,244,114.84a67.87,67.87,0,0,1-15.55-5.6c-.45.53-.91,1.07-1.36,1.63-9.16,11.31-15.39,26.84-13.9,34.62a3.13,3.13,0,0,0,1.89,2.45c7.83,3.6,32.16-8.7,41.5-14.05a69.57,69.57,0,0,1-4.85,9c-1.68,2.41-3.53,4.74-5.11,7.23a377.39,377.39,0,0,0-52.43,133.52c-1.64,9-3,18.11-3.91,27.25-2.95,30.42-1.69,70.59,28.43,87.67,2.13,1.21,13,3.79,8.38,7.39-2.4,1.85-14.48,3-13.86,6.68.7,4.07,12.39,4.42,15.15,4.64a154.22,154.22,0,0,0,17.6.24c.5,0,1.38,0,2.32,0,0-.78,0-1.58,0-2.37,0-1.15-.07-2.29,0-3.44s.23-2.33.3-3.51.1-2.56.13-3.84c.06-2.74.12-5.48.14-8.23a158.51,158.51,0,0,0-1.23-23.57,56.88,56.88,0,0,0-2.72-11.44,23.74,23.74,0,0,0-6.26-9.85,23,23,0,0,1,6.91,9.6,57.37,57.37,0,0,1,3.33,11.48,105.25,105.25,0,0,1,1.55,11.85q.47,6,.56,11.92c0,1.25,0,2.49.05,3.73s0,2.76,0,4.14,0,1.6,0,3c0-.25,0,.57,0,.32,0,1.62-.21,3.24-.16,4.86l.1,3a19.5,19.5,0,0,1-.56,6.37,5.83,5.83,0,0,1-1,1.73,7.9,7.9,0,0,1-1.34,1.26,14.62,14.62,0,0,1-2.86,1.59,24.75,24.75,0,0,0-5,2.44,2.23,2.23,0,0,0-.94,1.53,3.1,3.1,0,0,0,.06,1,3.21,3.21,0,0,0,.38,1,5.71,5.71,0,0,0,1.44,1.61,5.41,5.41,0,0,1,.22-3.15,6.52,6.52,0,0,1,2.78-3.36,8.58,8.58,0,0,1,2-.78,12.49,12.49,0,0,1,1.87-.39,13.3,13.3,0,0,1,3.89,0,13.63,13.63,0,0,1-3.14,2.28c-1.12.61-2.21,1.06-3.05,1.5a9.22,9.22,0,0,0-2.26,1.93,12.58,12.58,0,0,0-1.91,3l.44-.37a13.16,13.16,0,0,0,1.61.88A20.5,20.5,0,0,0,249,436.6c1,.14,2,.24,3,.31a2.91,2.91,0,0,1-.42-.89,3.55,3.55,0,0,1,.16-2.18,7,7,0,0,1,2.47-3,10.09,10.09,0,0,1,3.23-1.61,7.41,7.41,0,0,1,3.66-.16,28.12,28.12,0,0,1-2.61,2.27c-.84.66-1.66,1.29-2.49,1.9a23.29,23.29,0,0,0-2.22,1.76,3.1,3.1,0,0,0-.73,1,2.51,2.51,0,0,0-.21,1.56l.59-.61a48.51,48.51,0,0,0,7-.25,43.15,43.15,0,0,0,5.65-1,14.5,14.5,0,0,0,4.9-2.22A22.32,22.32,0,0,0,278,425a24.89,24.89,0,0,0,1.19-2.5,18.81,18.81,0,0,0,.69-5.18c.11-1.75.2-3.52.4-5.25a76.92,76.92,0,0,1,1.76-9.77A50.17,50.17,0,0,1,286.3,391a84.17,84.17,0,0,1,6.22-10.16,115,115,0,0,0-5.31,10.59,57.66,57.66,0,0,0-3.42,11.2c-.47,2.52-.8,5.06-1,7.62-.1,1.12-.18,2.25-.25,3.38a312.8,312.8,0,0,0,33.86,5.59c21.48,2.29,43.63,2.35,64.74-2.68a86.22,86.22,0,0,0,8.66-2.58c0-.15-.06-.3-.08-.45-.62-3.71-.81-7.39-1.24-11-.2-1.8-.51-3.61-.79-5.43s-.56-3.63-.93-5.4a30.84,30.84,0,0,0-1.72-5.18q-1-2.59-1.83-5.21,1.08,2.54,2.25,5a31.76,31.76,0,0,1,2.07,5.16c.5,1.8.88,3.6,1.28,5.39s.8,3.59,1.12,5.43c.62,3.66,1,7.33,1.72,10.85a31,31,0,0,0,1.51,5.11,26.64,26.64,0,0,0,2.43,4.68,20.21,20.21,0,0,0,7.48,7,13.33,13.33,0,0,0,2.34.91c.8.25,1.71.44,2.57.62a44.53,44.53,0,0,0,5.29.71,51.54,51.54,0,0,0,5.7.11l.55.57a2.57,2.57,0,0,0-.21-1.56,3.42,3.42,0,0,0-.73-1,23.91,23.91,0,0,0-2.23-1.75c-.82-.61-1.64-1.24-2.48-1.9a27.06,27.06,0,0,1-2.61-2.28,7.49,7.49,0,0,1,3.65.16,10.06,10.06,0,0,1,3.24,1.62,7.05,7.05,0,0,1,2.47,3,3.59,3.59,0,0,1,.16,2.17,2.79,2.79,0,0,1-.44.92c1.2-.08,2.38-.2,3.53-.39a20.41,20.41,0,0,0,4.87-1.58,15.2,15.2,0,0,0,1.48-.83l.45.38a12.87,12.87,0,0,0-1.91-3,9.24,9.24,0,0,0-2.27-1.92c-.84-.44-1.92-.89-3-1.5a13.19,13.19,0,0,1-3.14-2.29,13.57,13.57,0,0,1,3.88.05,12.35,12.35,0,0,1,1.88.39,8.08,8.08,0,0,1,2,.78,6.54,6.54,0,0,1,2.79,3.36,5.56,5.56,0,0,1,.23,3.12,5.88,5.88,0,0,0,1.29-1.42,3.83,3.83,0,0,0,.58-1.85,2.25,2.25,0,0,0-.12-.84,1.91,1.91,0,0,0-.4-.72c-.79-.94-2.47-1.64-4.13-2.28a21.12,21.12,0,0,1-5.32-2.59,7.85,7.85,0,0,1-1.24-1.21,4.82,4.82,0,0,1-.87-1.72,9.16,9.16,0,0,1-.28-1.57c-.06-.51-.08-1-.1-1.48a111.51,111.51,0,0,1,.44-11.18c.29-3.68.68-7.35,1.13-11,.89-7.32,2-14.61,3.49-21.84.76-3.61,1.59-7.21,2.61-10.76a54.87,54.87,0,0,1,1.74-5.26,23,23,0,0,1,1.16-2.52,7.34,7.34,0,0,1,1.66-2.2,7.31,7.31,0,0,0-1.46,2.3,23.21,23.21,0,0,0-.94,2.57c-.55,1.74-1,3.52-1.4,5.31-.79,3.57-1.4,7.19-1.93,10.81-1.1,7.25-1.92,14.54-2.61,21.84q-.48,5.48-.83,10.95c-.19,3.41-.36,6.86-.24,10.19,5.42.86,11.33.44,16.68.28a155.32,155.32,0,0,0,19.15-1.45c2.36-.37,3.95,0,2.58-2.3-1.61-2.7-4-4-6.92-5-2.42-.82-9.31-1-10.72-3.45-.77-1.34.08-2,1-2.94,1.35-1.35,4-2.2,5.6-3.24q3-1.89,5.8-4.05A69.64,69.64,0,0,0,475.19,368c8.95-16.71,10.93-36.3,9.16-54.94C482.11,289.32,475.1,265.72,467.1,243.37Z"/><path fill="none"  d="M145.9,307.05c-14.61-18.27-22.84-35.2-28.29-46.41-2.72-5.61-6.1-12.56-7.49-12.56h0c-.73,1-.76,6.95,4.23,23,3.6,11.62,8.57,24.37,12.09,31a1.5,1.5,0,0,1-2.55,1.58c-3.88-5.38-10.33-13-13.66-14.58.77,5.54,13.45,29.08,27.18,39.38a1.5,1.5,0,0,1-1.77,2.42c-3.38-2.41-11.15-6.62-13.54-4.23-.31.86,2.08,5.18,11.54,12.95,7.82,6.42,16.84,12.21,23,14.74a1.5,1.5,0,0,1-.87,2.86c-5.44-1.08-10.83-.89-11.25.39.12.59,1.47,2.51,5.06,5.11,3.28,2.38,19.48,13,43.76,10.8-4.67-10.69-6.81-22.41-7.38-34.42C175.17,333,157.54,321.6,145.9,307.05Z"/><path d="M334.94,50.41a22.47,22.47,0,0,1,6.69,3.44A13.7,13.7,0,0,1,343.09,55a13.85,13.85,0,0,1,1.38,1.27l1.24,1.41a18.47,18.47,0,0,1,1.11,1.52l.55.77c.17.26.31.55.46.82.29.57.63,1.1.89,1.68l.73,1.77c.25.59.41,1.21.62,1.82a42,42,0,0,1,1.36,15.66,31.36,31.36,0,0,0,.9-16.25,23.27,23.27,0,0,0-8.93-14.07,25.33,25.33,0,0,0-16-4.75,30.33,30.33,0,0,0-8.16,1.45A20.31,20.31,0,0,0,312.1,52a25.35,25.35,0,0,1,7.55-2.43,35.1,35.1,0,0,1,7.77-.54A26.74,26.74,0,0,1,334.94,50.41Z"/><path d="M360.5,67.08c0,.77.09,1.52.06,2.29,0,1.52-.08,3.06-.23,4.64s-.34,3.18-.53,4.93a11.39,11.39,0,0,0,2.82-4.38,14.72,14.72,0,0,0,.94-5.19,15.84,15.84,0,0,0-.23-2.66,13.22,13.22,0,0,0-.79-2.55,10.45,10.45,0,0,0-3.09-4.23c.27,1.76.68,3.28.82,4.85C360.41,65.55,360.41,66.33,360.5,67.08Z"/><path d="M371.12,70.26c0,.54-.06,1.07-.08,1.6,0,.27,0,.54-.05.81l-.14.79c-.09.53-.15,1.08-.26,1.61s-.28,1.06-.41,1.6c-.07.27-.1.55-.19.81s-.19.53-.27.8l-.52,1.63c-.38,1.08-.85,2.14-1.18,3.32a25.66,25.66,0,0,0,2.48-2.62l1-1.51a8.94,8.94,0,0,0,.89-1.6c.26-.56.5-1.13.74-1.7a18.29,18.29,0,0,0,.51-1.79l.23-.91c.05-.31.07-.62.11-.93a17,17,0,0,0,.14-1.88,15.64,15.64,0,0,0-1.7-7.26,13.44,13.44,0,0,0-4.81-5.42,29.85,29.85,0,0,1,2.63,6.29A21.7,21.7,0,0,1,371.12,70.26Z"/><path d="M480.31,275.87c-6.48-25.07-15.82-49.32-26.42-72.92-5.39-12-11.13-23.86-17-35.62a264.23,264.23,0,0,0-13.36-24.4c1.45.68,3,1.37,4.5,2,9.91,4.35,17.51,6.54,22.69,6.54a11.17,11.17,0,0,0,4.63-.85,6.15,6.15,0,0,0,3.59-4.61c1.67-8.68-4.71-25-14.52-37.08-8-9.91-17-15.45-25.21-15.61h-.26c-9.77,0-20.19,10.83-25.06,16.63-1.84-1.47-3.72-2.9-5.63-4.26a47.5,47.5,0,0,0,10.46-7.6,29.61,29.61,0,0,0,7.4-11.21,20.53,20.53,0,0,0,1.2-6.74,13.82,13.82,0,0,0-1.6-6.81A6.15,6.15,0,0,0,403,70.73a4.09,4.09,0,0,0-1-.29c-.31,0-.61-.07-.93-.09a8.29,8.29,0,0,0-1.86.14,8.83,8.83,0,0,0-2.52.91c.06-.19.13-.39.18-.59a17.62,17.62,0,0,0,.56-5.11,21.08,21.08,0,0,0-.84-5.06,20.21,20.21,0,0,0-2.07-4.75,1.2,1.2,0,0,0-1-.59,1.22,1.22,0,0,0-1.24,1.21v.06a7.26,7.26,0,0,1-1.51,3.83c-.13.2-.29.4-.44.59a25.29,25.29,0,0,0-.09-4.6,16.17,16.17,0,0,0-3.24-8.33,10.53,10.53,0,0,0-3.72-3,8.27,8.27,0,0,0-2.4-.73,6.51,6.51,0,0,0-1.33,0,4.58,4.58,0,0,0-1.45.3,3.33,3.33,0,0,0-1.5,1.09,3.53,3.53,0,0,0-.65,1.69,5.52,5.52,0,0,0,0,.57c-1.52-1.19-3.09-2.32-4.71-3.36a74,74,0,0,0-10.64-5.71,77.45,77.45,0,0,0-23.25-6,88.86,88.86,0,0,0-23.94.95A83.29,83.29,0,0,0,290.48,41a91.2,91.2,0,0,0-10.42,5.9c-3.31,2.17-6.46,4.78-9.7,7.13S263.45,58.7,260,61c-4.67,3.15-9.26,6.44-13.89,9.6-2.32,1.56-4.63,3.16-7,4.47a14.54,14.54,0,0,1-1.75.83,12.66,12.66,0,0,1-1.84.46,25.16,25.16,0,0,1-4,.46,29.26,29.26,0,0,1-7.95-.92,34.26,34.26,0,0,1-3.84-1.22A27.31,27.31,0,0,1,216.18,73a1.66,1.66,0,0,0-.91-.21,1.61,1.61,0,0,0-1.49,1.73,9.76,9.76,0,0,0,.81,3.16,1.56,1.56,0,0,0-.8,1.52,14,14,0,0,0,.77,3.7c.11.31.24.62.38.92a.42.42,0,0,0-.06.25,17.9,17.9,0,0,0,.75,4,1.11,1.11,0,0,0-.38,1.19,6.19,6.19,0,0,0,1.14,2.15,15.23,15.23,0,0,0,1.49,1.6A21.66,21.66,0,0,0,220,94.75c.39.35.8.69,1.21,1a33.88,33.88,0,0,1-4.73,0h-.09a1.11,1.11,0,0,0-1.17,1.38,10.18,10.18,0,0,0,2.32,4.11,22.32,22.32,0,0,0,2.49,2.47,29.54,29.54,0,0,1-3.55-.23,1,1,0,0,0-.35,0,1.13,1.13,0,0,0-.89,1.3,12.42,12.42,0,0,0,1.62,4,21.41,21.41,0,0,0,2.48,3.32c.56.62,1.15,1.2,1.75,1.77-7.71,11.32-12.37,24.67-10.91,32.23a6.16,6.16,0,0,0,3.58,4.61,11,11,0,0,0,4.63.85c5.18,0,12.78-2.19,22.7-6.54,2.51-1.1,4.94-2.25,7.17-3.34a351.63,351.63,0,0,0-21,36,379.37,379.37,0,0,0-27.51,69.12q-5.15,17.82-8.5,36.07c-3,16.36-5.85,34.82-5.45,52.82-10.61-6.19-26.76-16.95-37.55-30.45-14.41-18-22.55-34.76-27.94-45.84-4.91-10.12-7.37-15.19-11.12-14.13a3,3,0,0,0-1.91,1.82c-2.47,5.79,5.19,29.93,11.64,45.82-3.12-3.41-6.57-6.53-9.07-6.94a2.11,2.11,0,0,0-2.42,1.29c-1.79,4.17,8.51,23.55,20.26,36.41-2.91-.84-5.83-.91-7.74,1a3.18,3.18,0,0,0-.79,3c1.16,5.82,16.67,18.71,29.11,25.91-3.23.12-6.22,1-6.74,3.58-.27,1.37.6,3,2.66,5.07,4.77,4.73,20.25,14.68,42.52,14.68a75.13,75.13,0,0,0,7.94-.42,72.87,72.87,0,0,0,3.55,6.41,53,53,0,0,0,21.65,19.67c.46.23,2,1.13,3.25,1.71-.13.05-.23.1-.31.12-1.79.63-3.6,1.17-5.38,1.82-3.43,1.25-9.09,3.22-6.81,8,1.87,3.92,8,4.81,11.7,5.39a118.06,118.06,0,0,0,20,1c1.45,0,3.45.1,5.46.05-.43,1.17-1.94,2-3.62,2.77a25.27,25.27,0,0,0-5.64,2.81,6,6,0,0,0-1.32,1.45,5.1,5.1,0,0,0-.7,2,6.35,6.35,0,0,0,.1,2,6.56,6.56,0,0,0,.68,1.79,11.21,11.21,0,0,0,5.18,4.33,22.83,22.83,0,0,0,6.06,1.85,48.77,48.77,0,0,0,12.25.07,44.71,44.71,0,0,0,6-1.12,17.23,17.23,0,0,0,5.82-2.68,24.88,24.88,0,0,0,7.82-9.69A20.45,20.45,0,0,0,282,422a25.34,25.34,0,0,0,.32-4.77l0-.51c22.41,4.87,45.49,7.76,68.45,6.85a160.1,160.1,0,0,0,32.55-4.43c2.4-.6,4.77-1.26,7.12-2a28.84,28.84,0,0,0,3.1,7.11,21.91,21.91,0,0,0,8.26,8.09,15.66,15.66,0,0,0,2.77,1.14c.95.31,1.84.51,2.78.72A48.1,48.1,0,0,0,413,435a45.77,45.77,0,0,0,11.38-.31,23.06,23.06,0,0,0,5.61-1.79,13.82,13.82,0,0,0,2.62-1.56,8.9,8.9,0,0,0,2.25-2.39,6.87,6.87,0,0,0,1-3.36,5.19,5.19,0,0,0-1.23-3.53,8.33,8.33,0,0,0-2.68-2,24.86,24.86,0,0,0-2.68-1.13,19.6,19.6,0,0,1-4.59-2.15,4.54,4.54,0,0,1-.74-.7,1.83,1.83,0,0,1-.37-.72l0-.12.83.08a142.39,142.39,0,0,0,20.86,0c5.57-.29,11.91-.22,17.3-1.84,3.77-1.13,2.9-4.86.85-7.65-3.27-4.43-9.45-5.46-14.45-6.64l-.43-.13c.93-.57,1.95-1.32,2.33-1.55a77.06,77.06,0,0,0,11.86-8.78c14-12.68,21.83-30.36,24.29-48.89C489.83,318.38,485.69,296.69,480.31,275.87,-263.65-188a15.26,15.26,0,0,1-.54-2c.09.12.16.25.25.36a15.65,15.65,0,0,0,1.48,1.66,1.12-5.62.83.39.7.28a21.59,21.59,0,0,0,3.47,1.8,33.77,33.77,0,0,0,6.35,1.78l.61.1a32.33,32.33,0,0,1-3.67.78c-1,.17-2.12.29-3.18.38a13.64,13.64,0,0,1-3.95-3.42A10.69,10.69,0,0,1,217.78,82.25,1.41,17.62a11.42,11.42,0,0,1-1.11-1.72c1.11.08,2.22.1,3.34.08,1.31,0,2.61-.14,3.92-.3,1,.52,2.08,1,3.14,1.46a78.83,78.83,0,0,0,15.57,4.54,104.79,104.79,0,0,0,16.1,1.69,101.19,101.19,0,0,0,16.22-.7c10.72-1.28,21.47-4,31.11-9.28a45.11,45.11,0,0,0,12.84-10.19,36.19,36.19,0,0,0,2.47-3.29,30.17,30.17,0,0,0,2-3.61,20.66,20.66,0,0,0,2.07-7.88.15.15,0,0,0-.13-.15.14.14,0,0,0-.17.14,22.21,22.21,0,0,1-2.74,7.39,32.65,32.65,0,0,1-4.75,6.27,47.88,47.88,0,0,1-12.71,9.17l-1.77.88-1.81.81c-1.18.57-2.43,1-3.65,1.52s-2.48.9-3.74,1.33-2.51.8-3.79,1.17c-5.09,1.45-10.28,2.63-15.53,3.61a101.89,101.89,0,0,1-15.89,1.62A76,76,0,0,1,244.23,103a62.56,62.56,0,0,1-15.15-5,42.28,42.28,0,0,1-6.8-4,23.81,23.81,0,0,1-2.93-2.52,11.19,11.19,0,0,1-1-1.24c1,.06,2,.08,3,.08a45.63,45.63,0,0,0,5.09-.34,28.58,28.58,0,0,0,9.94-3,1.44,1.44,0,0,0-.59-2.71h-.07a41.34,41.34,0,0,1-6-.81A31.28,31.28,0,0,1,224,81.78a15,15,0,0,1-4.79-3,8,8,0,0,1-1.13-1.43l.6.23a36.52,36.52,0,0,0,4.22,1.26,30.51,30.51,0,0,0,8.79.74,26.26,26.26,0,0,0,4.4-.66,15.13,15.13,0,0,0,2.21-.67,16.76,16.76,0,0,0,2-1,85.31,85.31,0,0,0,7.06-4.85c4.2-3.16,8.35-6.38,12.55-9.54a148,148,0,0,1,12.77-8.41l2.67-1.62c1.68-1,3.23-2.22,4.88-3.29a88.47,88.47,0,0,1,11.28-6.23,84.79,84.79,0,0,1,22.22-6.68,86.93,86.93,0,0,1,23.17-.69,77.49,77.49,0,0,1,22.29,6,71.47,71.47,0,0,1,10.17,5.46c1.62,1,3.2,2.14,4.72,3.32a44.45,44.45,0,0,1,4.27,3.74,1.56,1.56,0,0,0,2.42-2,14.53,14.53,0,0,1-1.66-3.26,3.79,3.79,0,0,1-.23-1.37.51.51,0,0,1,.06-.22s0,0,.15-.09a3,3,0,0,1,1.29-.09,5.65,5.65,0,0,1,1.53.45,8.1,8.1,0,0,1,2.69,2.11,13.29,13.29,0,0,1,2.74,6.8,27.73,27.73,0,0,1-.22,7.81v.06a1.32,1.32,0,0,0,2.17,1.19,22.29,22.29,0,0,0,1.89-1.87,18.37,18.37,0,0,0,1.62-2.08,13.32,13.32,0,0,0,1-1.74c.16.41.31.82.44,1.23a18.38,18.38,0,0,1,.83,4.46,16.51,16.51,0,0,1-.39,4.49A16.28,16.28,0,0,1,393,74.5a1,1,0,0,0,1.73,1.1,8.58,8.58,0,0,1,4.75-3.3,7,7,0,0,1,1.44-.15c.25,0,.49,0,.73,0a2.32,2.32,0,0,1,.59.15,4.51,4.51,0,0,1,2,1.89,12.18,12.18,0,0,1,1.54,6,19.73,19.73,0,0,1-.94,6.32,28.51,28.51,0,0,1-6.76,11,48.86,48.86,0,0,1-10.15,8,119.83,119.83,0,0,0-11.59-7.28c-16-8.79-34.33-13.58-52.61-11.59A33.33,33.33,0,0,0,325.22,83a27.44,27.44,0,0,0,1.62-8.4.16.16,0,0,0-.13-.15.15.15,0,0,0-.17.14A35.3,35.3,0,0,1,320.1,89.8a47.28,47.28,0,0,1-11.87,11.44,68.22,68.22,0,0,1-14.75,7.55,120.31,120.31,0,0,1-16,4.72,84.46,84.46,0,0,1-16.61,2.17,65.1,65.1,0,0,1-16.69-1.74,55.47,55.47,0,0,1-15.52-6.2,40.17,40.17,0,0,1-6.69-4.89A22.73,22.73,0,0,1,219.19,99.87,-1.25,5.89a35.21,35.21,0,0,0,3.56,0l1-.08c1,.75,2.11,1.44,3.2,2.09-.35.41-.69.81-1,1.23-.74.91-1.45,1.85-2.15,2.8-.48-.44-.95-.9-1.39-1.38A16.59,16.59,0,0,1,217.94,105.76,-68.39,257c-3.59-2.6-4.94-4.52-5.06-5.11.42-1.28,5.81-1.47,11.25-.39a1.5,1.5,0,0,0,.87-2.86c-6.16-2.53-15.18-8.32-23-14.74-9.46-7.77-11.85-12.09-11.54-12.95,2.39-2.39,10.16,1.82,13.54,4.23a1.5,1.5,0,0,0,1.77-2.42c-13.73-10.3-26.41-33.84-27.18-39.38,3.33,1.63,9.78,9.2,13.66,14.58a1.5,1.5,0,0,0,2.55-1.58c-3.52-6.65-8.49-19.4-12.09-31-5-16.1-5-22.07-4.23-23h0c1.39,0,4.77,6.95,7.49,12.56,5.45,11.21,13.68,28.14,28.29,46.41,11.64,14.55,29.27,26,40,32.1.57,12,2.71,23.73,7.38,34.42C169,375.75,152.83,365.15,149.55,362.77,475.19,368a69.64,69.64,0,0,1-18.8,22.19q-2.81,2.16-5.8,4.05c-1.64,1-4.25,1.89-5.6,3.24-.89.89-1.74,1.6-1,2.94,1.41,2.49,8.3,2.63,10.72,3.45,2.94,1,5.31,2.32,6.92,5,1.37,2.3-.22,1.93-2.58,2.3a155.32,155.32,0,0,1-19.15,1.45c-5.35.16-11.26.58-16.68-.28-.12-3.33.05-6.78.24-10.19q.35-5.47.83-10.95c.69-7.3,1.51-14.59,2.61-21.84.53-3.62,1.14-7.24,1.93-10.81.39-1.79.85-3.57,1.4-5.31a23.21,23.21,0,0,1,.94-2.57,7.31,7.31,0,0,1,1.46-2.3,7.34,7.34,0,0,0-1.66,2.2,23,23,0,0,0-1.16,2.52,54.87,54.87,0,0,0-1.74,5.26c-1,3.55-1.85,7.15-2.61,10.76-1.46,7.23-2.6,14.52-3.49,21.84-.45,3.66-.84,7.33-1.13,11a111.51,111.51,0,0,0-.44,11.18c0,.48,0,1,.1,1.48a9.16,9.16,0,0,0,.28,1.57,4.82,4.82,0,0,0,.87,1.72,7.85,7.85,0,0,0,1.24,1.21,21.12,21.12,0,0,0,5.32,2.59c1.66.64,3.34,1.34,4.13,2.28a1.91,1.91,0,0,1,.4.72,2.25,2.25,0,0,1,.12.84,3.83,3.83,0,0,1-.58,1.85,5.88,5.88,0,0,1-1.29,1.42,5.56,5.56,0,0,0-.23-3.12,6.54,6.54,0,0,0-2.79-3.36,8.08,8.08,0,0,0-2-.78,12.35,12.35,0,0,0-1.88-.39,13.57,13.57,0,0,0-3.88-.05,13.19,13.19,0,0,0,3.14,2.29c1.12.61,2.2,1.06,3,1.5a9.24,9.24,0,0,1,2.27,1.92,12.87,12.87,0,0,1,1.91,3l-.45-.38a15.2,15.2,0,0,1-1.48.83,20.41,20.41,0,0,1-4.87,1.58c-1.15.19-2.33.31-3.53.39a2.79,2.79,0,0,0,.44-.92,3.59,3.59,0,0,0-.16-2.17,7.05,7.05,0,0,0-2.47-3,10.06,10.06,0,0,0-3.24-1.62,7.49,7.49,0,0,0-3.65-.16,27.06,27.06,0,0,0,2.61,2.28c.84.66,1.66,1.29,2.48,1.9a23.91,23.91,0,0,1,2.23,1.75,3.42,3.42,0,0,1,.73,1,2.57,2.57,0,0,1,.21,1.56l-.55-.57a51.54,51.54,0,0,1-5.7-.11,44.53,44.53,0,0,1-5.29-.71c-.86-.18-1.77-.37-2.57-.62A13.33,13.33,0,0,1,403,430a20.21,20.21,0,0,1-7.48-7,26.64,26.64,0,0,1-2.43-4.68,31,31,0,0,1-1.51-5.11c-.76-3.52-1.1-7.19-1.72-10.85-.32-1.84-.74-3.63-1.12-5.43s-.78-3.59-1.28-5.39a31.76,31.76,0,0,0-2.07-5.16q-1.17-2.49-2.25-5,.87,2.61,1.83,5.21a30.84,30.84,0,0,1,1.72,5.18c.37,1.77.65,3.59.93,5.4s.59,3.63.79,5.43c.43,3.62.62,7.3,1.24,11,0,.15.06.3.08.45a86.22,86.22,0,0,1-8.66,2.58c-21.11,5-43.26,5-64.74,2.68a312.8,312.8,0,0,1-33.86-5.59c.07-1.13.15-2.26.25-3.38.23-2.56.56-5.1,1-7.62a57.66,57.66,0,0,1,3.42-11.2,115,115,0,0,1,5.31-10.59A84.17,84.17,0,0,0,286.3,391,50.17,50.17,0,0,0,282,402.27a76.92,76.92,0,0,0-1.76,9.77c-.2,1.73-.29,3.5-.4,5.25a18.81,18.81,0,0,1-.69,5.18A24.89,24.89,0,0,1,278,425a22.32,22.32,0,0,1-7.06,8.51,14.5,14.5,0,0,1-4.9,2.22,43.15,43.15,0,0,1-5.65,1,48.51,48.51,0,0,1-7,.25l-.59.61A2.51,2.51,0,0,1,253,436a3.1,3.1,0,0,1,.73-1,23.29,23.29,0,0,1,2.22-1.76c.83-.61,1.65-1.24,2.49-1.9a28.12,28.12,0,0,0,2.61-2.27,7.41,7.41,0,0,0-3.66.16,10.09,10.09,0,0,0-3.23,1.61,7,7,0,0,0-2.47,3,3.55,3.55,0,0,0-.16,2.18,2.91,2.91,0,0,0,.42.89c-1-.07-2-.17-3-.31a20.5,20.5,0,0,1-5.28-1.58,13.16,13.16,0,0,1-1.61-.88l-.44.37a12.58,12.58,0,0,1,1.91-3,9.22,9.22,0,0,1,2.26-1.93c.84-.44,1.93-.89,3.05-1.5a13.63,13.63,0,0,0,3.14-2.28,13.3,13.3,0,0,0-3.89,0,12.49,12.49,0,0,0-1.87.39,8.58,8.58,0,0,0-2,.78,6.52,6.52,0,0,0-2.78,3.36,5.41,5.41,0,0,0-.22,3.15,5.71,5.71,0,0,1-1.44-1.61,3.21,3.21,0,0,1-.38-1,3.1,3.1,0,0,1-.06-1,2.23,2.23,0,0,1,.94-1.53,24.75,24.75,0,0,1,5-2.44,14.62,14.62,0,0,0,2.86-1.59,7.9,7.9,0,0,0,1.34-1.26,5.83,5.83,0,0,0,1-1.73,19.5,19.5,0,0,0,.56-6.37l-.1-3c0-1.62.16-3.24.16-4.86,0,.25,0-.57,0-.32,0-1.36,0-1.61,0-3s0-2.76,0-4.14,0-2.48-.05-3.73q-.09-6-.56-11.92a105.25,105.25,0,0,0-1.55-11.85,57.37,57.37,0,0,0-3.33-11.48,23,23,0,0,0-6.91-9.6,23.74,23.74,0,0,1,6.26,9.85,56.88,56.88,0,0,1,2.72,11.44,158.51,158.51,0,0,1,1.23,23.57c0,2.75-.08,5.49-.14,8.23,0,1.28-.05,2.56-.13,3.84s-.21,2.34-.3,3.51,0,2.29,0,3.44c0,.79,0,1.59,0,2.37-.94,0-1.82,0-2.32,0a154.22,154.22,0,0,1-17.6-.24c-2.76-.22-14.45-.57-15.15-4.64-.62-3.64,11.46-4.83,13.86-6.68,4.66-3.6-6.25-6.18-8.38-7.39-30.12-17.08-31.38-57.25-28.43-87.67.88-9.14,2.27-18.22,3.91-27.25a377.39,377.39,0,0,1,52.43-133.52c1.58-2.49,3.43-4.82,5.11-7.23a69.57,69.57,0,0,0,4.85-9c-9.34,5.35-33.67,17.65-41.5,14.05a3.13,3.13,0,0,1-1.89-2.45c-1.49-7.78,4.74-23.31,13.9-34.62.45-.56.91-1.1,1.36-1.63a67.87,67.87,0,0,0,15.55,5.6,84.28,84.28,0,0,0,16.9,2.09,92.43,92.43,0,0,0,33.59-5.63,64.14,64.14,0,0,0,15.19-8.1,45.39,45.39,0,0,0,11.86-12.46c.16-.24.29-.49.44-.74a78.28,78.28,0,0,1,30.15,1.73c14.64,3.74,28.11,11.16,39.87,20.61l2.52,2c.14-.19,12.91-17.93,24.43-17.93h.21c7.34.14,15.49,5.29,22.94,14.5,9.16,11.31,15.4,26.84,13.9,34.62a3.13,3.13,0,0,1-1.89,2.45c-6.84,3.16-27.56-6.48-38.9-12.53.13.07.27.41.35.53,1.79,2.83,3.25,5.85,5.1,8.65,1.73,2.64,3.36,5.33,4.94,8.06.55,1,1.1,1.91,1.64,2.87,3.2,5.72,6.19,11.55,9.11,17.41,11.43,22.95,22.15,46.29,30.8,70.44,8,22.35,15,45.95,17.25,69.67C486.12,331.68,484.14,351.27,475.19,368Z"/>            </clipPath>        </defs>        <g clip-path="url(#outline)">            <rect fill="#7778AB" width="640" height="480" />        </g>    </g>    <g id="pattern">        <g clip-path="url(#outline)">            <path fill="#FF8431"  d="M213.89,348.69c-.53,1.67-.95,3.36-1.63,5s-1.29,3.68-.61,5.6A10.12,10.12,0,0,0,214.5,363a35,35,0,0,0,3.59,2.9,3.46,3.46,0,0,0,2.28.82,2.62,2.62,0,0,0,1.24-.6,20.67,20.67,0,0,0,6-7.67,10,10,0,0,0,1.29-6.31c-.63-3.15-3.6-4.52-6.87-5.52a14.84,14.84,0,0,0-3.71-.76c-2-.09-4.42.84-4.37,2.76"/><path fill="#FF8431"  d="M190,328.09a38.75,38.75,0,0,1,9.5,3.45,7.68,7.68,0,0,1,2.95,2.29,8.54,8.54,0,0,1,1.08,4.33c.31,4.75.59,9.73-1.42,14S196,359.75,191.55,358c-1.59-.63-2.08-1.69-2.12-3.35-.2-8.28-1.39-16.55-1.58-24.83A2.07,2.07,0,0,1,190,328.09Z"/><path fill="#FF8431"  d="M189.82,298.42a19.21,19.21,0,0,0,1.88,1.21,5.34,5.34,0,0,0,2.38.53,3.92,3.92,0,0,0,3.33-3.36,7.64,7.64,0,0,0-1.11-4.9,1.64,1.64,0,0,0-1-.92,2.38,2.38,0,0,0-1.43.47,5.17,5.17,0,0,1-2.38.37Z"/><path fill="#FF8431"  d="M193.84,319.82a4,4,0,0,0,2.39,2.33,7,7,0,0,0,4.11.17,16,16,0,0,0,7.69-4c1.6-1.5,5.43-3.41,5.19-6a6.18,6.18,0,0,0-.59-1.87,20.12,20.12,0,0,0-2.11-4c-3.39-4.54-12.4-2.81-15,1.88C194.1,310.87,192.76,317,193.84,319.82Z"/><path fill="#FF8431"  d="M210.51,327.79c2.29,2.29,4.56,5.58,7.78,1.92,2.19-2.57,1.14-6.9-1.59-8.89a4.76,4.76,0,0,0-2.36-1c-1.89-.16-7.28,3.59-6.24,5.88a2.48,2.48,0,0,0,1,.88A10.33,10.33,0,0,1,210.51,327.79Z"/><path fill="#FF8431"  d="M239.31,340.06c1.52.27,2.92-.47,3-3a4,4,0,0,0-2.7-3.83,3.48,3.48,0,0,0-4.07,1.5C234.41,336.93,237,339.65,239.31,340.06Z"/><path fill="#FF8431"  d="M487.06,304.49a7.82,7.82,0,0,0-3.56-1.5l-1.31.3c-3.43,1.39-7.61,3.15-10.49,5.52s-2.64,4.2-1.39,7.77c1.85,5.28,10.41,8.66,14.81,11.53a2.53,2.53,0,0,0,1.3.51,2.26,2.26,0,0,0,1-.3l1.78-.89Z"/><path fill="#FF8431"  d="M476.15,354.32a4.53,4.53,0,0,0-.46-.56,7.18,7.18,0,0,1,4-12.06c1.63-.26,5.15-.16,5.93,1.65a2.31,2.31,0,0,1,.15,1.08,32.8,32.8,0,0,1-1.46,6.75c-.65,2.4-1.41,4.78-2.27,7.11a3.4,3.4,0,0,1-.85,1.46c-1,.84-2.63.25-3.33-.84C476.76,357.24,477.22,355.83,476.15,354.32Z"/><path fill="#FF8431"  d="M466.27,361.93c-7.26-2.1-15.92-2.66-20.13,4.41A19.91,19.91,0,0,0,444,377.1a7.54,7.54,0,0,0,2.07,4.85c1.95,1.86,4.93,2.09,7.26,3.44,1.64,1,3.1,2.75,5,3.07,2.35.39,4.31-1.34,5.88-2.84,3-2.81,5.95-5.66,8.05-9.16,1.47-2.46,2.87-5.61,2.83-8.53a3.94,3.94,0,0,0-1.06-2.81,6.15,6.15,0,0,0-1.91-1.1A57.68,57.68,0,0,0,466.27,361.93Z"/><path fill="#FF8431"  d="M198.8,368l.07,0a9.1,9.1,0,0,1,5.28-.22c4.22.93,7.26,3.47,10.53,5.69,4,2.71,7.95,5.44,11.92,8.15,1.38.95,2.88,2.13,2.69,3.86a6.1,6.1,0,0,1-.88,2.17c-2.06,3.51-3.83,6.7-7,9.51-1.15,1-2.6,2-4,1.91a4,4,0,0,1-2.25-1.26C207.83,391,201,387.48,197,374.56,196.19,372.11,195.79,369.23,198.8,368Z"/><path fill="#FF8431"  d="M445.88,322.47a2.26,2.26,0,0,0,.11,3,4,4,0,0,0,4,.3,2.41,2.41,0,0,0,.85-1c.4-.92-.36-3.08-1.12-3.74C448.5,320,446.61,321.47,445.88,322.47Z"/><path fill="#FF8431"  d="M440.23,349.41a6.56,6.56,0,0,1-.8,1.81,8.44,8.44,0,0,0-1.54,2.84c-.25,1.16-.29,2.86.65,3.76s3.57.5,4.56-.39a3.85,3.85,0,0,0,1-2.44c.3-2.16,2.1-4.58.07-6.41a6.17,6.17,0,0,0-2.48-1.24c-.33-.1-.73-.17-1,.08a1,1,0,0,0-.19.46C440.46,348.42,440.36,348.93,440.23,349.41Z"/><path fill="#FF8431"  d="M452,344.2c0,.3.08.56.09.72.07.95.08,1.89.1,2.84,0,1.37-.35,2.41,1.11,3.13,2.21,1.09,5,3.12,7.5,3.26a3.65,3.65,0,0,0,2.72-6.3,7.12,7.12,0,0,0-1.76-1.12l-8.62-4.42a1.06,1.06,0,0,0-.45-.16C451.76,342.09,451.85,343.31,452,344.2Z"/><path fill="#FF8431"  d="M463,326.14a19.2,19.2,0,0,0-2.81,4.5c-.64,1.36-1.2,3-.46,4.3,1.1,1.93,6.34,3.33,8.42,3.5a1.65,1.65,0,0,0,1.75-1,3.23,3.23,0,0,0,0-1.2,13.52,13.52,0,0,1,.58-4.06c.47-2.23-.76-5.89-2.68-7.18S464.35,324.66,463,326.14Z"/><path fill="#FF8431"  d="M158.11,362.28a4.55,4.55,0,0,0,.23,6c1.51,1.59,6.21,1.84,8,.61a4.91,4.91,0,0,0,1.7-2.05c.82-1.86-.72-6.23-2.26-7.55C163.4,357.25,159.59,360.27,158.11,362.28Z"/><path fill="#FF8431"  d="M128.85,357.35a8.64,8.64,0,0,1-.92,2.34c-2.1,3.92-5.09,6.81-3.87,11.62,1.07,4.25,4.72,5.79,8.37,3.2a11.33,11.33,0,0,0,3.82-5.54c.76-2.15,1.15-4.41,1.74-6.61a7.51,7.51,0,0,0-2.38-7.91c-1.12-.85-3.14-1.69-4.58-1.3C129,353.72,129.32,355.48,128.85,357.35Z"/><path fill="#FF8431"  d="M170.83,400.19c.61-.28,1.14-.54,1.47-.67,3.13-1.19,6.32-2.14,9.49-3.2a2.61,2.61,0,0,0,2.24-2.65L186,381.59a16.1,16.1,0,0,0,.16-6.48,8.08,8.08,0,0,0-15.08-1.65,15.81,15.81,0,0,0-1.23,4.45L166.08,399a2.71,2.71,0,0,0,0,1.06C166.5,402,169,401,170.83,400.19Z"/><path fill="#FF8431"  d="M146.88,354.16a5.64,5.64,0,0,0,4.63,3.24,13.82,13.82,0,0,0,7.15-1.36c3.7-1.64,9.71-5.82,11.5-9.65s-3.77-10.75-7.27-11.75c-4.15-1.18-11.88,1.56-14,5.5a21.29,21.29,0,0,0-1.52,5.6,28.75,28.75,0,0,0-1.06,5.7A6.3,6.3,0,0,0,146.88,354.16Z"/><path fill="#FF8431"  d="M119.2,320.49a39.86,39.86,0,0,0-3.75,11.8,7.76,7.76,0,0,0,1.13,5.37c1.91,2.53,5.94,1.63,8.22.07,2-1.37,3-3.79,3.58-6.14.71-2.83,2.64-6.75,1.84-9.69-.72-2.64-4.07-4.29-6.49-4.95C122.05,316.49,120.5,318.12,119.2,320.49Z"/><path fill="#FF8431"  d="M138.46,269.92a7.49,7.49,0,0,0-1.7,1c-3.89,3-7.69,6.27-10.15,10.51-6.76,11.7,4.5,42.15,21.12,37.76a9.27,9.27,0,0,0,3.67-2.42C163.74,305.37,150.79,264.92,138.46,269.92Z"/><path fill="#FF8431"  d="M473.22,290.25a1.89,1.89,0,0,0,.14,3c1,.78,4,.91,5.12.3a2.71,2.71,0,0,0,1.08-1c.52-.93-.46-3.09-1.44-3.74C476.59,287.76,474.16,289.25,473.22,290.25Z"/><path fill="#FF8431"  d="M406.06,400.73a19.4,19.4,0,0,0-2.81,4.5c-.64,1.36-1.2,3-.46,4.3,1.1,1.93,6.34,3.33,8.42,3.5a1.65,1.65,0,0,0,1.75-1,3.23,3.23,0,0,0,0-1.2,13.52,13.52,0,0,1,.58-4.06c.47-2.23-.76-5.88-2.68-7.18S407.4,399.25,406.06,400.73Z"/><path fill="#FF8431"  d="M415,384.81a11,11,0,0,0,.43,3,2.75,2.75,0,0,0,1.39,2.05c1.19.44,4-.87,5-1.57a1,1,0,0,0,.39-1.09,1.71,1.71,0,0,0-.45-.52,7.66,7.66,0,0,1-1.24-2,4.67,4.67,0,0,0-3.83-2.16C415.4,382.67,415,383.67,415,384.81Z"/><path fill="#FF8431"  d="M256.87,415.08a19.47,19.47,0,0,0-2.82,4.5c-.64,1.36-1.19,3-.45,4.3,1.1,1.93,6.33,3.34,8.42,3.5a1.65,1.65,0,0,0,1.75-1,3.18,3.18,0,0,0,0-1.19,13.54,13.54,0,0,1,.58-4.07c.47-2.23-.76-5.88-2.69-7.18C259.86,412.72,258.21,413.6,256.87,415.08Z"/><path fill="#FF8431"  d="M254.25,408.44a2.25,2.25,0,0,0,.11,3,4,4,0,0,0,4,.3,2.32,2.32,0,0,0,.84-1c.41-.92-.35-3.08-1.12-3.74C256.87,405.94,255,407.44,254.25,408.44Z"/><path fill="#FF8431"  d="M197.11,15.3c-5.36.41-10.48,1.87-14.63,5.22-3.85,3.12-6.35,7.09-8.8,11-4.75,7.6-13,15-6.45,23.5,5.67,7.38,11.05,15.27,18,21.54,5.77,5.2,12.85,9.26,20.57,10.12,12.71,1.42,33.8-8.21,38-21.32,3.36-10.49-7.1-30-13.82-37.87C221.59,17.62,209.74,14.33,197.11,15.3Z"/><path fill="#FF8431"  d="M406.49,53.79c3.07,9.76,11.58,15.24,21.63,13,6.44-1.44,16.43-9.47,7.31-15.23-2.17-1.37-4.81-1.74-7.37-2q-7.83-.93-15.71-1.49c-1.75-.12-3.71-.16-5,1S405.92,52,406.49,53.79Z"/><path fill="#FF8431"  d="M114.29,103c1.09.38,2.06.69,2.63.94,3.33,1.43,6.58,3,9.83,4.63,4.75,2.34,7.65,5.4,12.65,1.69,7.6-5.65,19.39-11.54,24.28-19.92A14,14,0,0,0,146.93,70a27.91,27.91,0,0,0-6.93,4L109.82,95.74A4.65,4.65,0,0,0,108.48,97C106.69,100,111,101.83,114.29,103Z"/><path fill="#FF8431"  d="M539.47,5.73C522.1.69,497.93,2.61,494.42,21c-3.41,17.82,6.36,43.7,23.27,51.39,7.34,3.34,15.59,4.29,23.65,4,5-.2,10.48-1.08,14-4.73C573.5,52.55,564.71,13,539.47,5.73Z"/>            <g opacity="0.6" ><path fill="#E8D3B3"  d="M285.16,418.84c2.41-25.61,23.87-48.92,47.26-49.49,24.86-.61,52.32,18.62,54.82,48.11.13,1.49,1.2.46-.05,1.63-1.4,1.32-6.65,1.94-9.64,2.8-14.1,4.06-27.6,4.48-43.78,4.36-16.48-.12-33.16-4.21-48.13-7.41"/></g>        </g>    </g>    <g id="mask">        <path fill="none"  d="M262.68,125.25c-.76.07-1.52.14-2.29.19l-.1.11-.4,0a19.53,19.53,0,0,1-.43,3.69Z"/><path opacity="0.1"  d="M339.31,405.32c-39.1-.61-54-9.37-54-9.37l-3.87,19.14c6.31,3.26,30.14,4.89,57.22,6.93S391,415.5,391,415.5l-2.86-18.74S378.41,405.93,339.31,405.32Z"/><path opacity="0.1"  d="M426.2,117.27c-4.18-1.39-7.73.64-10.07,4.09a25.3,25.3,0,0,0-2.76,5.74c-.23.65-.58,1.44-1,2.38,2.5,2.94,4.44,5.34,6.4,8.13,1.44.82,2.73,1.61,4.2,2.37q2.83,1.47,5.74,2.8c1.5.69,4.19,2.52,5.84,2.52,5.46,2.22,13.54,5.83,19.57,3.89a4.55,4.55,0,0,0,3.28-3.41C459.59,135.46,437.6,121.07,426.2,117.27Z"/><g opacity="0.1" ><path d="M484.62,335.15c.23,1.7-3.51,6.77-4.43,8.5-1.82,3.4-3.69,6.77-5.68,10.08a108.4,108.4,0,0,1-13.23,18.12,63.28,63.28,0,0,1-11.06,9.47A60.18,60.18,0,0,1,444,385a32.36,32.36,0,0,1-5.53,2.51c-4,1.16-6.15-2.21-7.32-5.52a39.64,39.64,0,0,1-2.34-17.54A117.62,117.62,0,0,1,431.32,350l-1.95,4.49c-3.06,11.13-4.58,22.56-6,34a4.63,4.63,0,0,0,.26,2.2,3,3,0,0,0-.88.73c-2.06,2.52-.69,11.1-.81,14.3a.63.63,0,0,0,.09.45c.16.19.45.14.69.08a107.14,107.14,0,0,0,24.47-9.44A67.59,67.59,0,0,0,470,377.06c3.19-4.31,7.4-9.86,9.2-14.91C482.27,353.44,485.88,344.31,484.62,335.15Z"/></g><path opacity="0.1"  d="M157.66,346.43A90.42,90.42,0,0,1,134,312c-4.34-10.86-24.44-58.65-24.44-65.3,0,0-4.34,4.48,4.08,28.1s11.4,28.1,11.4,28.1S114,287,109.6,287.37s10.32,30,26.88,42.36c0,0-13.3-9.09-15.47-4.07s21.72,24.57,35,30.14c0,0-12.21-2.85-13,1.63s21.18,20.23,52.13,17.24l-3.53-10.59S175.58,363,157.66,346.43Z"/><path opacity="0.1"  d="M269.41,115.57c-1.27.07-2.55.12-3.83.12-2.66,0-5,.86-7.65.54-9.24-1.1-16.66,1.48-24.94,5.14-11,6.82-21.48,17.09-21.32,24.41.24,11.34,30.52-2.64,41.47-8.07-6.95,10.46-22.72,36-34.48,62.1-1.18.41-12.91,34.19-12.91,34.19s-7.29,26.2-7.43,26.8c-14.66,64.62-10,89.33-4.07,110.78s32.52,32.47,32.52,32.47S213,407.69,212,411.42c-2.78,10.8,38.14,7.65,38.14,7.65l-.26-18.71s-34.21,7.88-47.51-47.79S223,236.63,246.93,175.27A191.39,191.39,0,0,1,267,136.87q3.63-5.34,7.64-10.4a71,71,0,0,0,5.07-6.77c.35-.56,3.44-6.21,1.69-5.85a86.51,86.51,0,0,1-9.24,1.4Z"/><path fill="#ffc80b"  d="M403,70.73a4.09,4.09,0,0,0-1-.29c-.31,0-.62-.07-.93-.09a7.74,7.74,0,0,0-1.86.14,8.83,8.83,0,0,0-2.52.91c.06-.19.13-.39.18-.59a17.65,17.65,0,0,0,.56-5.12,21.08,21.08,0,0,0-.84-5,20.21,20.21,0,0,0-2.07-4.75,1.2,1.2,0,0,0-1-.59,1.22,1.22,0,0,0-1.24,1.21v.06a7.26,7.26,0,0,1-1.51,3.83c-.13.2-.29.39-.44.59a25.29,25.29,0,0,0-.09-4.6,16.11,16.11,0,0,0-3.24-8.33,10.53,10.53,0,0,0-3.72-3,8.27,8.27,0,0,0-2.4-.73,6.51,6.51,0,0,0-1.33,0,4.84,4.84,0,0,0-1.45.29,3.43,3.43,0,0,0-1.5,1.1,3.53,3.53,0,0,0-.65,1.69,5.52,5.52,0,0,0,0,.57q-2.28-1.8-4.71-3.37a75.52,75.52,0,0,0-10.64-5.7,77.46,77.46,0,0,0-23.25-6l-1.48-.11s0-.08,0-.12a89.59,89.59,0,0,0-22.43,1.07,83.88,83.88,0,0,0-22.81,7.22,91.07,91.07,0,0,0-10.41,5.9A102.84,102.84,0,0,0,270.58,54l-1,.85c-3.25,1.9-6.42,3.95-9.55,6-4.67,3.16-9.26,6.44-13.89,9.6-2.32,1.56-4.64,3.17-7,4.47a16.14,16.14,0,0,1-1.75.83,12.94,12.94,0,0,1-1.84.47,24.13,24.13,0,0,1-4,.45,28.58,28.58,0,0,1-8-.92,32.11,32.11,0,0,1-3.83-1.21,28.16,28.16,0,0,1-3.58-1.67,1.45,1.45,0,0,0-.9-.21,1.57,1.57,0,0,0-1.32.89,1.54,1.54,0,0,0-.23.92v0a9.63,9.63,0,0,0,.79,3.11,1.5,1.5,0,0,0-.57.65,1.55,1.55,0,0,0-.22.93,14.45,14.45,0,0,0,.78,3.7c.11.31.24.62.38.92a.42.42,0,0,0-.06.25,17.65,17.65,0,0,0,.74,4,1.11,1.11,0,0,0-.31.46,1.12,1.12,0,0,0-.06.77,6.19,6.19,0,0,0,1.14,2.15,15.23,15.23,0,0,0,1.49,1.6A21.66,21.66,0,0,0,220,94.75c.35.31.71.61,1.08.89a32.66,32.66,0,0,1-4.54,0h-.1a1.1,1.1,0,0,0-.36,0,1.08,1.08,0,0,0-.71.59,1.06,1.06,0,0,0-.15.87,10.25,10.25,0,0,0,2.32,4.11,22.76,22.76,0,0,0,2.36,2.35,25.76,25.76,0,0,1-3.34-.23h0a1.38,1.38,0,0,0-.35,0,1.14,1.14,0,0,0-.76.57,1.11,1.11,0,0,0-.19.84,12.42,12.42,0,0,0,1.62,4c.71,1.21,3.18,2.73,4.08,3.76,1.83,2,5.44-6.27,7.68-4.76s11,5,13.64,6.15c2.34,1,5.19,1.2,7.64,1.85s1-.27,3.66,0a62.67,62.67,0,0,0,8,.43c1.28,0,2.56,0,3.83-.13l5.38-.33s-4.91.24-4.88.2c.77,0,1.53-.12,2.29-.19a82.06,82.06,0,0,0,9.24-1.4c2.05-.42,4.08-.92,6.1-1.45,8.19-2.17,11.44-2.12,18.76-6.43,2.26-1.36,5.31-3,7.41-4.63s3.95-1.8,5.79-3.69a45.85,45.85,0,0,0,5-6.14A27.62,27.62,0,0,0,324,85l-1.5,5,.17,0a5.62,5.62,0,0,1,.09-.57,19.59,19.59,0,0,1,.78-2.73c18.34-2.05,36.73,2.74,52.8,11.57a119.06,119.06,0,0,1,11.88,7.48,47.14,47.14,0,0,0,10.46-7.59,29.69,29.69,0,0,0,7.4-11.21,20.53,20.53,0,0,0,1.2-6.74,13.82,13.82,0,0,0-1.6-6.81A6.15,6.15,0,0,0,403,70.73Z"/>        <path fill="#fff" opacity="0.1"  d="M478.13,335.73c2.67-5.45,5.06-11,7.22-16.66-.16-4-.48-8.12-1-12.42C482,286.63,467.49,243,467.49,243l-6.67-17.49-15.54-36S439.78,175,436.55,168c-16.29-35-34.27-48.68-34.27-48.68l-17.15-12.24c6,6.78,32.31,49.68,42.63,70s42.63,96.66,49.69,140.92A75,75,0,0,1,478.13,335.73Z"/>    </g>    <g id="outline">        <path fill="none"  d="M216.12,85.89a15.26,15.26,0,0,0,.54,2l1.19,0a15.65,15.65,0,0,1-1.48-1.66C216.28,86.14,216.21,86,216.12,85.89Z"/><path fill="none"  d="M222.89,87.76c1.06-.09,2.13-.21,3.18-.38a32.33,32.33,0,0,0,3.67-.78l-.61-.1a33.77,33.77,0,0,1-6.35-1.78,21.59,21.59,0,0,1-3.47-1.8l-.7-.28-.83-.39a10.69,10.69,0,0,0,1.16,2.09A13.64,13.64,0,0,0,222.89,87.76Z"/><path fill="none"  d="M222.56,111.78c.7-1,1.41-1.89,2.15-2.8.34-.42.68-.82,1-1.23-1.09-.65-2.16-1.34-3.2-2.09l-1,.08a35.21,35.21,0,0,1-3.56,0,16.59,16.59,0,0,0,3.23,4.64C221.61,110.88,222.08,111.34,222.56,111.78Z"/><path fill="none"  d="M222,102.85a40.17,40.17,0,0,0,6.69,4.89,55.47,55.47,0,0,0,15.52,6.2,65.1,65.1,0,0,0,16.69,1.74,84.46,84.46,0,0,0,16.61-2.17,120.31,120.31,0,0,0,16-4.72,68.22,68.22,0,0,0,14.75-7.55A47.28,47.28,0,0,0,320.1,89.8a35.3,35.3,0,0,0,6.44-15.23h0a.15.15,0,0,1,.17-.13.16.16,0,0,1,.13.15,27.44,27.44,0,0,1-1.62,8.4,33.33,33.33,0,0,1-1.49,3.68c18.28-2,36.6,2.8,52.61,11.59a119.83,119.83,0,0,1,11.59,7.28,48.86,48.86,0,0,0,10.15-8,28.51,28.51,0,0,0,6.76-11,19.73,19.73,0,0,0,.94-6.32,12.18,12.18,0,0,0-1.54-6,4.51,4.51,0,0,0-2-1.89,2.32,2.32,0,0,0-.59-.15c-.24,0-.48,0-.73,0a7,7,0,0,0-1.44.15,8.58,8.58,0,0,0-4.75,3.3A1,1,0,0,1,393,74.5a16.28,16.28,0,0,0,1.64-4.21,16.51,16.51,0,0,0,.39-4.49,18.38,18.38,0,0,0-.83-4.46c-.13-.41-.28-.82-.44-1.23a13.32,13.32,0,0,1-1,1.74,18.37,18.37,0,0,1-1.62,2.08,22.29,22.29,0,0,1-1.89,1.87,1.32,1.32,0,0,1-2.17-1.19v-.06a27.73,27.73,0,0,0,.22-7.81,13.29,13.29,0,0,0-2.74-6.8,8.1,8.1,0,0,0-2.69-2.11,5.65,5.65,0,0,0-1.53-.45,3,3,0,0,0-1.29.09c-.13.05-.14.08-.15.09a.51.51,0,0,0-.06.22,3.79,3.79,0,0,0,.23,1.37,14.53,14.53,0,0,0,1.66,3.26,1.56,1.56,0,0,1-2.42,2h0a44.41,44.41,0,0,0-4.26-3.73c-1.52-1.18-3.1-2.27-4.72-3.32a71.47,71.47,0,0,0-10.17-5.46,77.49,77.49,0,0,0-22.29-6,86.93,86.93,0,0,0-23.17.69,84.79,84.79,0,0,0-22.22,6.68,93.82,93.82,0,0,0-16,9.45l-.86-.3a.15.15,0,0,1-.06.09c-4.79,3-9.34,6.23-13.83,9.62S251.88,69,247.37,72.36a85.31,85.31,0,0,1-7.06,4.85,16.76,16.76,0,0,1-2,1,15.13,15.13,0,0,1-2.21.67,26.26,26.26,0,0,1-4.4.66,30.51,30.51,0,0,1-8.79-.74,36.52,36.52,0,0,1-4.22-1.26l-.6-.23a8,8,0,0,0,1.13,1.43,15,15,0,0,0,4.79,3,31.28,31.28,0,0,0,5.74,1.74,41.34,41.34,0,0,0,6,.81h.07a1.44,1.44,0,0,1,.59,2.71,28.58,28.58,0,0,1-9.94,3,45.63,45.63,0,0,1-5.09.34c-1,0-2,0-3-.08a11.19,11.19,0,0,0,1,1.24,23.81,23.81,0,0,0,2.93,2.52,42.28,42.28,0,0,0,6.8,4,62.56,62.56,0,0,0,15.15,5,76,76,0,0,0,15.93,1.42,101.89,101.89,0,0,0,15.89-1.62c5.25-1,10.44-2.16,15.53-3.61,1.28-.37,2.52-.8,3.79-1.17s2.5-.87,3.74-1.33,2.47-1,3.65-1.52l1.81-.81,1.77-.88a47.88,47.88,0,0,0,12.71-9.17,32.65,32.65,0,0,0,4.75-6.27,22.21,22.21,0,0,0,2.74-7.39v0a.14.14,0,0,1,.17-.12.15.15,0,0,1,.13.15,20.66,20.66,0,0,1-2.07,7.88,30.17,30.17,0,0,1-2,3.61,36.19,36.19,0,0,1-2.47,3.29,45.11,45.11,0,0,1-12.84,10.19c-9.64,5.27-20.39,8-31.11,9.28a101.19,101.19,0,0,1-16.22.7,104.79,104.79,0,0,1-16.1-1.69,78.83,78.83,0,0,1-15.57-4.54c-1.06-.45-2.11-.94-3.14-1.46-1.31.16-2.61.27-3.92.3-1.12,0-2.23,0-3.34-.08a11.42,11.42,0,0,0,1.11,1.72A22.73,22.73,0,0,0,222,102.85ZM372.42,63a15.64,15.64,0,0,1,1.7,7.26,17,17,0,0,1-.14,1.88c0,.31-.06.62-.11.93l-.23.91a18.29,18.29,0,0,1-.51,1.79c-.24.57-.48,1.14-.74,1.7a8.94,8.94,0,0,1-.89,1.6l-1,1.51A25.66,25.66,0,0,1,368,83.23c.33-1.18.8-2.24,1.18-3.32l.52-1.63c.08-.27.17-.53.27-.8s.12-.54.19-.81c.13-.54.26-1.07.41-1.6s.17-1.08.26-1.61l.14-.79c0-.27,0-.54.05-.81,0-.53.11-1.06.08-1.6a21.7,21.7,0,0,0-.88-6.36,29.85,29.85,0,0,0-2.63-6.29A13.44,13.44,0,0,1,372.42,63Zm-9.88,1.13a13.22,13.22,0,0,1,.79,2.55,15.84,15.84,0,0,1,.23,2.66,14.72,14.72,0,0,1-.94,5.19,11.39,11.39,0,0,1-2.82,4.38c.19-1.75.39-3.35.53-4.93s.23-3.12.23-4.64c0-.77,0-1.52-.06-2.29s-.09-1.53-.23-2.3c-.14-1.57-.55-3.09-.82-4.85A10.45,10.45,0,0,1,362.54,64.16Zm-42.89-14.6A25.35,25.35,0,0,0,312.1,52a20.31,20.31,0,0,1,7.18-3.86,30.33,30.33,0,0,1,8.16-1.45,25.33,25.33,0,0,1,16,4.75,23.27,23.27,0,0,1,8.93,14.07,31.36,31.36,0,0,1-.9,16.25,42,42,0,0,0-1.36-15.66c-.21-.61-.37-1.23-.62-1.82l-.73-1.77c-.26-.58-.6-1.11-.89-1.68-.15-.27-.29-.56-.46-.82l-.55-.77a18.47,18.47,0,0,0-1.11-1.52l-1.24-1.41A13.85,13.85,0,0,0,343.09,55a13.7,13.7,0,0,0-1.46-1.18,22.47,22.47,0,0,0-6.69-3.44A26.74,26.74,0,0,0,327.42,49,35.1,35.1,0,0,0,319.65,49.56Z"/><path fill="none"  d="M467.1,243.37c-8.65-24.15-19.37-47.49-30.8-70.44-2.92-5.86-5.91-11.69-9.11-17.41-.54-1-1.09-1.91-1.64-2.87-1.58-2.73-3.21-5.42-4.94-8.06-1.85-2.8-3.31-5.82-5.1-8.65-.08-.12-.22-.46-.35-.53,11.34,6.05,32.06,15.69,38.9,12.53a3.13,3.13,0,0,0,1.89-2.45c1.5-7.78-4.74-23.31-13.9-34.62-7.45-9.21-15.6-14.36-22.94-14.5h-.21c-11.52,0-24.29,17.74-24.43,17.93l-2.52-2c-11.76-9.45-25.23-16.87-39.87-20.61A78.28,78.28,0,0,0,321.93,90c-.15.25-.28.5-.44.74a45.39,45.39,0,0,1-11.86,12.46,64.14,64.14,0,0,1-15.19,8.1A88.77,88.77,0,0,1,244,114.84a67.87,67.87,0,0,1-15.55-5.6c-.45.53-.91,1.07-1.36,1.63-9.16,11.31-15.39,26.84-13.9,34.62a3.13,3.13,0,0,0,1.89,2.45c7.83,3.6,32.16-8.7,41.5-14.05a69.57,69.57,0,0,1-4.85,9c-1.68,2.41-3.53,4.74-5.11,7.23a377.39,377.39,0,0,0-52.43,133.52c-1.64,9-3,18.11-3.91,27.25-2.95,30.42-1.69,70.59,28.43,87.67,2.13,1.21,13,3.79,8.38,7.39-2.4,1.85-14.48,3-13.86,6.68.7,4.07,12.39,4.42,15.15,4.64a154.22,154.22,0,0,0,17.6.24c.5,0,1.38,0,2.32,0,0-.78,0-1.58,0-2.37,0-1.15-.07-2.29,0-3.44s.23-2.33.3-3.51.1-2.56.13-3.84c.06-2.74.12-5.48.14-8.23a158.51,158.51,0,0,0-1.23-23.57,56.88,56.88,0,0,0-2.72-11.44,23.74,23.74,0,0,0-6.26-9.85,23,23,0,0,1,6.91,9.6,57.37,57.37,0,0,1,3.33,11.48,105.25,105.25,0,0,1,1.55,11.85q.47,6,.56,11.92c0,1.25,0,2.49.05,3.73s0,2.76,0,4.14,0,1.6,0,3c0-.25,0,.57,0,.32,0,1.62-.21,3.24-.16,4.86l.1,3a19.5,19.5,0,0,1-.56,6.37,5.83,5.83,0,0,1-1,1.73,7.9,7.9,0,0,1-1.34,1.26,14.62,14.62,0,0,1-2.86,1.59,24.75,24.75,0,0,0-5,2.44,2.23,2.23,0,0,0-.94,1.53,3.1,3.1,0,0,0,.06,1,3.21,3.21,0,0,0,.38,1,5.71,5.71,0,0,0,1.44,1.61,5.41,5.41,0,0,1,.22-3.15,6.52,6.52,0,0,1,2.78-3.36,8.58,8.58,0,0,1,2-.78,12.49,12.49,0,0,1,1.87-.39,13.3,13.3,0,0,1,3.89,0,13.63,13.63,0,0,1-3.14,2.28c-1.12.61-2.21,1.06-3.05,1.5a9.22,9.22,0,0,0-2.26,1.93,12.58,12.58,0,0,0-1.91,3l.44-.37a13.16,13.16,0,0,0,1.61.88A20.5,20.5,0,0,0,249,436.6c1,.14,2,.24,3,.31a2.91,2.91,0,0,1-.42-.89,3.55,3.55,0,0,1,.16-2.18,7,7,0,0,1,2.47-3,10.09,10.09,0,0,1,3.23-1.61,7.41,7.41,0,0,1,3.66-.16,28.12,28.12,0,0,1-2.61,2.27c-.84.66-1.66,1.29-2.49,1.9a23.29,23.29,0,0,0-2.22,1.76,3.1,3.1,0,0,0-.73,1,2.51,2.51,0,0,0-.21,1.56l.59-.61a48.51,48.51,0,0,0,7-.25,43.15,43.15,0,0,0,5.65-1,14.5,14.5,0,0,0,4.9-2.22A22.32,22.32,0,0,0,278,425a24.89,24.89,0,0,0,1.19-2.5,18.81,18.81,0,0,0,.69-5.18c.11-1.75.2-3.52.4-5.25a76.92,76.92,0,0,1,1.76-9.77A50.17,50.17,0,0,1,286.3,391a84.17,84.17,0,0,1,6.22-10.16,115,115,0,0,0-5.31,10.59,57.66,57.66,0,0,0-3.42,11.2c-.47,2.52-.8,5.06-1,7.62-.1,1.12-.18,2.25-.25,3.38a312.8,312.8,0,0,0,33.86,5.59c21.48,2.29,43.63,2.35,64.74-2.68a86.22,86.22,0,0,0,8.66-2.58c0-.15-.06-.3-.08-.45-.62-3.71-.81-7.39-1.24-11-.2-1.8-.51-3.61-.79-5.43s-.56-3.63-.93-5.4a30.84,30.84,0,0,0-1.72-5.18q-1-2.59-1.83-5.21,1.08,2.54,2.25,5a31.76,31.76,0,0,1,2.07,5.16c.5,1.8.88,3.6,1.28,5.39s.8,3.59,1.12,5.43c.62,3.66,1,7.33,1.72,10.85a31,31,0,0,0,1.51,5.11,26.64,26.64,0,0,0,2.43,4.68,20.21,20.21,0,0,0,7.48,7,13.33,13.33,0,0,0,2.34.91c.8.25,1.71.44,2.57.62a44.53,44.53,0,0,0,5.29.71,51.54,51.54,0,0,0,5.7.11l.55.57a2.57,2.57,0,0,0-.21-1.56,3.42,3.42,0,0,0-.73-1,23.91,23.91,0,0,0-2.23-1.75c-.82-.61-1.64-1.24-2.48-1.9a27.06,27.06,0,0,1-2.61-2.28,7.49,7.49,0,0,1,3.65.16,10.06,10.06,0,0,1,3.24,1.62,7.05,7.05,0,0,1,2.47,3,3.59,3.59,0,0,1,.16,2.17,2.79,2.79,0,0,1-.44.92c1.2-.08,2.38-.2,3.53-.39a20.41,20.41,0,0,0,4.87-1.58,15.2,15.2,0,0,0,1.48-.83l.45.38a12.87,12.87,0,0,0-1.91-3,9.24,9.24,0,0,0-2.27-1.92c-.84-.44-1.92-.89-3-1.5a13.19,13.19,0,0,1-3.14-2.29,13.57,13.57,0,0,1,3.88.05,12.35,12.35,0,0,1,1.88.39,8.08,8.08,0,0,1,2,.78,6.54,6.54,0,0,1,2.79,3.36,5.56,5.56,0,0,1,.23,3.12,5.88,5.88,0,0,0,1.29-1.42,3.83,3.83,0,0,0,.58-1.85,2.25,2.25,0,0,0-.12-.84,1.91,1.91,0,0,0-.4-.72c-.79-.94-2.47-1.64-4.13-2.28a21.12,21.12,0,0,1-5.32-2.59,7.85,7.85,0,0,1-1.24-1.21,4.82,4.82,0,0,1-.87-1.72,9.16,9.16,0,0,1-.28-1.57c-.06-.51-.08-1-.1-1.48a111.51,111.51,0,0,1,.44-11.18c.29-3.68.68-7.35,1.13-11,.89-7.32,2-14.61,3.49-21.84.76-3.61,1.59-7.21,2.61-10.76a54.87,54.87,0,0,1,1.74-5.26,23,23,0,0,1,1.16-2.52,7.34,7.34,0,0,1,1.66-2.2,7.31,7.31,0,0,0-1.46,2.3,23.21,23.21,0,0,0-.94,2.57c-.55,1.74-1,3.52-1.4,5.31-.79,3.57-1.4,7.19-1.93,10.81-1.1,7.25-1.92,14.54-2.61,21.84q-.48,5.48-.83,10.95c-.19,3.41-.36,6.86-.24,10.19,5.42.86,11.33.44,16.68.28a155.32,155.32,0,0,0,19.15-1.45c2.36-.37,3.95,0,2.58-2.3-1.61-2.7-4-4-6.92-5-2.42-.82-9.31-1-10.72-3.45-.77-1.34.08-2,1-2.94,1.35-1.35,4-2.2,5.6-3.24q3-1.89,5.8-4.05A69.64,69.64,0,0,0,475.19,368c8.95-16.71,10.93-36.3,9.16-54.94C482.11,289.32,475.1,265.72,467.1,243.37Z"/><path fill="none"  d="M145.9,307.05c-14.61-18.27-22.84-35.2-28.29-46.41-2.72-5.61-6.1-12.56-7.49-12.56h0c-.73,1-.76,6.95,4.23,23,3.6,11.62,8.57,24.37,12.09,31a1.5,1.5,0,0,1-2.55,1.58c-3.88-5.38-10.33-13-13.66-14.58.77,5.54,13.45,29.08,27.18,39.38a1.5,1.5,0,0,1-1.77,2.42c-3.38-2.41-11.15-6.62-13.54-4.23-.31.86,2.08,5.18,11.54,12.95,7.82,6.42,16.84,12.21,23,14.74a1.5,1.5,0,0,1-.87,2.86c-5.44-1.08-10.83-.89-11.25.39.12.59,1.47,2.51,5.06,5.11,3.28,2.38,19.48,13,43.76,10.8-4.67-10.69-6.81-22.41-7.38-34.42C175.17,333,157.54,321.6,145.9,307.05Z"/><path d="M334.94,50.41a22.47,22.47,0,0,1,6.69,3.44A13.7,13.7,0,0,1,343.09,55a13.85,13.85,0,0,1,1.38,1.27l1.24,1.41a18.47,18.47,0,0,1,1.11,1.52l.55.77c.17.26.31.55.46.82.29.57.63,1.1.89,1.68l.73,1.77c.25.59.41,1.21.62,1.82a42,42,0,0,1,1.36,15.66,31.36,31.36,0,0,0,.9-16.25,23.27,23.27,0,0,0-8.93-14.07,25.33,25.33,0,0,0-16-4.75,30.33,30.33,0,0,0-8.16,1.45A20.31,20.31,0,0,0,312.1,52a25.35,25.35,0,0,1,7.55-2.43,35.1,35.1,0,0,1,7.77-.54A26.74,26.74,0,0,1,334.94,50.41Z"/><path d="M360.5,67.08c0,.77.09,1.52.06,2.29,0,1.52-.08,3.06-.23,4.64s-.34,3.18-.53,4.93a11.39,11.39,0,0,0,2.82-4.38,14.72,14.72,0,0,0,.94-5.19,15.84,15.84,0,0,0-.23-2.66,13.22,13.22,0,0,0-.79-2.55,10.45,10.45,0,0,0-3.09-4.23c.27,1.76.68,3.28.82,4.85C360.41,65.55,360.41,66.33,360.5,67.08Z"/><path d="M371.12,70.26c0,.54-.06,1.07-.08,1.6,0,.27,0,.54-.05.81l-.14.79c-.09.53-.15,1.08-.26,1.61s-.28,1.06-.41,1.6c-.07.27-.1.55-.19.81s-.19.53-.27.8l-.52,1.63c-.38,1.08-.85,2.14-1.18,3.32a25.66,25.66,0,0,0,2.48-2.62l1-1.51a8.94,8.94,0,0,0,.89-1.6c.26-.56.5-1.13.74-1.7a18.29,18.29,0,0,0,.51-1.79l.23-.91c.05-.31.07-.62.11-.93a17,17,0,0,0,.14-1.88,15.64,15.64,0,0,0-1.7-7.26,13.44,13.44,0,0,0-4.81-5.42,29.85,29.85,0,0,1,2.63,6.29A21.7,21.7,0,0,1,371.12,70.26Z"/><path d="M480.31,275.87c-6.48-25.07-15.82-49.32-26.42-72.92-5.39-12-11.13-23.86-17-35.62a264.23,264.23,0,0,0-13.36-24.4c1.45.68,3,1.37,4.5,2,9.91,4.35,17.51,6.54,22.69,6.54a11.17,11.17,0,0,0,4.63-.85,6.15,6.15,0,0,0,3.59-4.61c1.67-8.68-4.71-25-14.52-37.08-8-9.91-17-15.45-25.21-15.61h-.26c-9.77,0-20.19,10.83-25.06,16.63-1.84-1.47-3.72-2.9-5.63-4.26a47.5,47.5,0,0,0,10.46-7.6,29.61,29.61,0,0,0,7.4-11.21,20.53,20.53,0,0,0,1.2-6.74,13.82,13.82,0,0,0-1.6-6.81A6.15,6.15,0,0,0,403,70.73a4.09,4.09,0,0,0-1-.29c-.31,0-.61-.07-.93-.09a8.29,8.29,0,0,0-1.86.14,8.83,8.83,0,0,0-2.52.91c.06-.19.13-.39.18-.59a17.62,17.62,0,0,0,.56-5.11,21.08,21.08,0,0,0-.84-5.06,20.21,20.21,0,0,0-2.07-4.75,1.2,1.2,0,0,0-1-.59,1.22,1.22,0,0,0-1.24,1.21v.06a7.26,7.26,0,0,1-1.51,3.83c-.13.2-.29.4-.44.59a25.29,25.29,0,0,0-.09-4.6,16.17,16.17,0,0,0-3.24-8.33,10.53,10.53,0,0,0-3.72-3,8.27,8.27,0,0,0-2.4-.73,6.51,6.51,0,0,0-1.33,0,4.58,4.58,0,0,0-1.45.3,3.33,3.33,0,0,0-1.5,1.09,3.53,3.53,0,0,0-.65,1.69,5.52,5.52,0,0,0,0,.57c-1.52-1.19-3.09-2.32-4.71-3.36a74,74,0,0,0-10.64-5.71,77.45,77.45,0,0,0-23.25-6,88.86,88.86,0,0,0-23.94.95A83.29,83.29,0,0,0,290.48,41a91.2,91.2,0,0,0-10.42,5.9c-3.31,2.17-6.46,4.78-9.7,7.13S263.45,58.7,260,61c-4.67,3.15-9.26,6.44-13.89,9.6-2.32,1.56-4.63,3.16-7,4.47a14.54,14.54,0,0,1-1.75.83,12.66,12.66,0,0,1-1.84.46,25.16,25.16,0,0,1-4,.46,29.26,29.26,0,0,1-7.95-.92,34.26,34.26,0,0,1-3.84-1.22A27.31,27.31,0,0,1,216.18,73a1.66,1.66,0,0,0-.91-.21,1.61,1.61,0,0,0-1.49,1.73,9.76,9.76,0,0,0,.81,3.16,1.56,1.56,0,0,0-.8,1.52,14,14,0,0,0,.77,3.7c.11.31.24.62.38.92a.42.42,0,0,0-.06.25,17.9,17.9,0,0,0,.75,4,1.11,1.11,0,0,0-.38,1.19,6.19,6.19,0,0,0,1.14,2.15,15.23,15.23,0,0,0,1.49,1.6A21.66,21.66,0,0,0,220,94.75c.39.35.8.69,1.21,1a33.88,33.88,0,0,1-4.73,0h-.09a1.11,1.11,0,0,0-1.17,1.38,10.18,10.18,0,0,0,2.32,4.11,22.32,22.32,0,0,0,2.49,2.47,29.54,29.54,0,0,1-3.55-.23,1,1,0,0,0-.35,0,1.13,1.13,0,0,0-.89,1.3,12.42,12.42,0,0,0,1.62,4,21.41,21.41,0,0,0,2.48,3.32c.56.62,1.15,1.2,1.75,1.77-7.71,11.32-12.37,24.67-10.91,32.23a6.16,6.16,0,0,0,3.58,4.61,11,11,0,0,0,4.63.85c5.18,0,12.78-2.19,22.7-6.54,2.51-1.1,4.94-2.25,7.17-3.34a351.63,351.63,0,0,0-21,36,379.37,379.37,0,0,0-27.51,69.12q-5.15,17.82-8.5,36.07c-3,16.36-5.85,34.82-5.45,52.82-10.61-6.19-26.76-16.95-37.55-30.45-14.41-18-22.55-34.76-27.94-45.84-4.91-10.12-7.37-15.19-11.12-14.13a3,3,0,0,0-1.91,1.82c-2.47,5.79,5.19,29.93,11.64,45.82-3.12-3.41-6.57-6.53-9.07-6.94a2.11,2.11,0,0,0-2.42,1.29c-1.79,4.17,8.51,23.55,20.26,36.41-2.91-.84-5.83-.91-7.74,1a3.18,3.18,0,0,0-.79,3c1.16,5.82,16.67,18.71,29.11,25.91-3.23.12-6.22,1-6.74,3.58-.27,1.37.6,3,2.66,5.07,4.77,4.73,20.25,14.68,42.52,14.68a75.13,75.13,0,0,0,7.94-.42,72.87,72.87,0,0,0,3.55,6.41,53,53,0,0,0,21.65,19.67c.46.23,2,1.13,3.25,1.71-.13.05-.23.1-.31.12-1.79.63-3.6,1.17-5.38,1.82-3.43,1.25-9.09,3.22-6.81,8,1.87,3.92,8,4.81,11.7,5.39a118.06,118.06,0,0,0,20,1c1.45,0,3.45.1,5.46.05-.43,1.17-1.94,2-3.62,2.77a25.27,25.27,0,0,0-5.64,2.81,6,6,0,0,0-1.32,1.45,5.1,5.1,0,0,0-.7,2,6.35,6.35,0,0,0,.1,2,6.56,6.56,0,0,0,.68,1.79,11.21,11.21,0,0,0,5.18,4.33,22.83,22.83,0,0,0,6.06,1.85,48.77,48.77,0,0,0,12.25.07,44.71,44.71,0,0,0,6-1.12,17.23,17.23,0,0,0,5.82-2.68,24.88,24.88,0,0,0,7.82-9.69A20.45,20.45,0,0,0,282,422a25.34,25.34,0,0,0,.32-4.77l0-.51c22.41,4.87,45.49,7.76,68.45,6.85a160.1,160.1,0,0,0,32.55-4.43c2.4-.6,4.77-1.26,7.12-2a28.84,28.84,0,0,0,3.1,7.11,21.91,21.91,0,0,0,8.26,8.09,15.66,15.66,0,0,0,2.77,1.14c.95.31,1.84.51,2.78.72A48.1,48.1,0,0,0,413,435a45.77,45.77,0,0,0,11.38-.31,23.06,23.06,0,0,0,5.61-1.79,13.82,13.82,0,0,0,2.62-1.56,8.9,8.9,0,0,0,2.25-2.39,6.87,6.87,0,0,0,1-3.36,5.19,5.19,0,0,0-1.23-3.53,8.33,8.33,0,0,0-2.68-2,24.86,24.86,0,0,0-2.68-1.13,19.6,19.6,0,0,1-4.59-2.15,4.54,4.54,0,0,1-.74-.7,1.83,1.83,0,0,1-.37-.72l0-.12.83.08a142.39,142.39,0,0,0,20.86,0c5.57-.29,11.91-.22,17.3-1.84,3.77-1.13,2.9-4.86.85-7.65-3.27-4.43-9.45-5.46-14.45-6.64l-.43-.13c.93-.57,1.95-1.32,2.33-1.55a77.06,77.06,0,0,0,11.86-8.78c14-12.68,21.83-30.36,24.29-48.89C489.83,318.38,485.69,296.69,480.31,275.87Zm-263.65-188a15.26,15.26,0,0,1-.54-2c.09.12.16.25.25.36a15.65,15.65,0,0,0,1.48,1.66Zm1.12-5.62.83.39.7.28a21.59,21.59,0,0,0,3.47,1.8,33.77,33.77,0,0,0,6.35,1.78l.61.1a32.33,32.33,0,0,1-3.67.78c-1,.17-2.12.29-3.18.38a13.64,13.64,0,0,1-3.95-3.42A10.69,10.69,0,0,1,217.78,82.25Zm1.41,17.62a11.42,11.42,0,0,1-1.11-1.72c1.11.08,2.22.1,3.34.08,1.31,0,2.61-.14,3.92-.3,1,.52,2.08,1,3.14,1.46a78.83,78.83,0,0,0,15.57,4.54,104.79,104.79,0,0,0,16.1,1.69,101.19,101.19,0,0,0,16.22-.7c10.72-1.28,21.47-4,31.11-9.28a45.11,45.11,0,0,0,12.84-10.19,36.19,36.19,0,0,0,2.47-3.29,30.17,30.17,0,0,0,2-3.61,20.66,20.66,0,0,0,2.07-7.88.15.15,0,0,0-.13-.15.14.14,0,0,0-.17.14,22.21,22.21,0,0,1-2.74,7.39,32.65,32.65,0,0,1-4.75,6.27,47.88,47.88,0,0,1-12.71,9.17l-1.77.88-1.81.81c-1.18.57-2.43,1-3.65,1.52s-2.48.9-3.74,1.33-2.51.8-3.79,1.17c-5.09,1.45-10.28,2.63-15.53,3.61a101.89,101.89,0,0,1-15.89,1.62A76,76,0,0,1,244.23,103a62.56,62.56,0,0,1-15.15-5,42.28,42.28,0,0,1-6.8-4,23.81,23.81,0,0,1-2.93-2.52,11.19,11.19,0,0,1-1-1.24c1,.06,2,.08,3,.08a45.63,45.63,0,0,0,5.09-.34,28.58,28.58,0,0,0,9.94-3,1.44,1.44,0,0,0-.59-2.71h-.07a41.34,41.34,0,0,1-6-.81A31.28,31.28,0,0,1,224,81.78a15,15,0,0,1-4.79-3,8,8,0,0,1-1.13-1.43l.6.23a36.52,36.52,0,0,0,4.22,1.26,30.51,30.51,0,0,0,8.79.74,26.26,26.26,0,0,0,4.4-.66,15.13,15.13,0,0,0,2.21-.67,16.76,16.76,0,0,0,2-1,85.31,85.31,0,0,0,7.06-4.85c4.2-3.16,8.35-6.38,12.55-9.54a148,148,0,0,1,12.77-8.41l2.67-1.62c1.68-1,3.23-2.22,4.88-3.29a88.47,88.47,0,0,1,11.28-6.23,84.79,84.79,0,0,1,22.22-6.68,86.93,86.93,0,0,1,23.17-.69,77.49,77.49,0,0,1,22.29,6,71.47,71.47,0,0,1,10.17,5.46c1.62,1,3.2,2.14,4.72,3.32a44.45,44.45,0,0,1,4.27,3.74,1.56,1.56,0,0,0,2.42-2,14.53,14.53,0,0,1-1.66-3.26,3.79,3.79,0,0,1-.23-1.37.51.51,0,0,1,.06-.22s0,0,.15-.09a3,3,0,0,1,1.29-.09,5.65,5.65,0,0,1,1.53.45,8.1,8.1,0,0,1,2.69,2.11,13.29,13.29,0,0,1,2.74,6.8,27.73,27.73,0,0,1-.22,7.81v.06a1.32,1.32,0,0,0,2.17,1.19,22.29,22.29,0,0,0,1.89-1.87,18.37,18.37,0,0,0,1.62-2.08,13.32,13.32,0,0,0,1-1.74c.16.41.31.82.44,1.23a18.38,18.38,0,0,1,.83,4.46,16.51,16.51,0,0,1-.39,4.49A16.28,16.28,0,0,1,393,74.5a1,1,0,0,0,1.73,1.1,8.58,8.58,0,0,1,4.75-3.3,7,7,0,0,1,1.44-.15c.25,0,.49,0,.73,0a2.32,2.32,0,0,1,.59.15,4.51,4.51,0,0,1,2,1.89,12.18,12.18,0,0,1,1.54,6,19.73,19.73,0,0,1-.94,6.32,28.51,28.51,0,0,1-6.76,11,48.86,48.86,0,0,1-10.15,8,119.83,119.83,0,0,0-11.59-7.28c-16-8.79-34.33-13.58-52.61-11.59A33.33,33.33,0,0,0,325.22,83a27.44,27.44,0,0,0,1.62-8.4.16.16,0,0,0-.13-.15.15.15,0,0,0-.17.14A35.3,35.3,0,0,1,320.1,89.8a47.28,47.28,0,0,1-11.87,11.44,68.22,68.22,0,0,1-14.75,7.55,120.31,120.31,0,0,1-16,4.72,84.46,84.46,0,0,1-16.61,2.17,65.1,65.1,0,0,1-16.69-1.74,55.47,55.47,0,0,1-15.52-6.2,40.17,40.17,0,0,1-6.69-4.89A22.73,22.73,0,0,1,219.19,99.87Zm-1.25,5.89a35.21,35.21,0,0,0,3.56,0l1-.08c1,.75,2.11,1.44,3.2,2.09-.35.41-.69.81-1,1.23-.74.91-1.45,1.85-2.15,2.8-.48-.44-.95-.9-1.39-1.38A16.59,16.59,0,0,1,217.94,105.76Zm-68.39,257c-3.59-2.6-4.94-4.52-5.06-5.11.42-1.28,5.81-1.47,11.25-.39a1.5,1.5,0,0,0,.87-2.86c-6.16-2.53-15.18-8.32-23-14.74-9.46-7.77-11.85-12.09-11.54-12.95,2.39-2.39,10.16,1.82,13.54,4.23a1.5,1.5,0,0,0,1.77-2.42c-13.73-10.3-26.41-33.84-27.18-39.38,3.33,1.63,9.78,9.2,13.66,14.58a1.5,1.5,0,0,0,2.55-1.58c-3.52-6.65-8.49-19.4-12.09-31-5-16.1-5-22.07-4.23-23h0c1.39,0,4.77,6.95,7.49,12.56,5.45,11.21,13.68,28.14,28.29,46.41,11.64,14.55,29.27,26,40,32.1.57,12,2.71,23.73,7.38,34.42C169,375.75,152.83,365.15,149.55,362.77ZM475.19,368a69.64,69.64,0,0,1-18.8,22.19q-2.81,2.16-5.8,4.05c-1.64,1-4.25,1.89-5.6,3.24-.89.89-1.74,1.6-1,2.94,1.41,2.49,8.3,2.63,10.72,3.45,2.94,1,5.31,2.32,6.92,5,1.37,2.3-.22,1.93-2.58,2.3a155.32,155.32,0,0,1-19.15,1.45c-5.35.16-11.26.58-16.68-.28-.12-3.33.05-6.78.24-10.19q.35-5.47.83-10.95c.69-7.3,1.51-14.59,2.61-21.84.53-3.62,1.14-7.24,1.93-10.81.39-1.79.85-3.57,1.4-5.31a23.21,23.21,0,0,1,.94-2.57,7.31,7.31,0,0,1,1.46-2.3,7.34,7.34,0,0,0-1.66,2.2,23,23,0,0,0-1.16,2.52,54.87,54.87,0,0,0-1.74,5.26c-1,3.55-1.85,7.15-2.61,10.76-1.46,7.23-2.6,14.52-3.49,21.84-.45,3.66-.84,7.33-1.13,11a111.51,111.51,0,0,0-.44,11.18c0,.48,0,1,.1,1.48a9.16,9.16,0,0,0,.28,1.57,4.82,4.82,0,0,0,.87,1.72,7.85,7.85,0,0,0,1.24,1.21,21.12,21.12,0,0,0,5.32,2.59c1.66.64,3.34,1.34,4.13,2.28a1.91,1.91,0,0,1,.4.72,2.25,2.25,0,0,1,.12.84,3.83,3.83,0,0,1-.58,1.85,5.88,5.88,0,0,1-1.29,1.42,5.56,5.56,0,0,0-.23-3.12,6.54,6.54,0,0,0-2.79-3.36,8.08,8.08,0,0,0-2-.78,12.35,12.35,0,0,0-1.88-.39,13.57,13.57,0,0,0-3.88-.05,13.19,13.19,0,0,0,3.14,2.29c1.12.61,2.2,1.06,3,1.5a9.24,9.24,0,0,1,2.27,1.92,12.87,12.87,0,0,1,1.91,3l-.45-.38a15.2,15.2,0,0,1-1.48.83,20.41,20.41,0,0,1-4.87,1.58c-1.15.19-2.33.31-3.53.39a2.79,2.79,0,0,0,.44-.92,3.59,3.59,0,0,0-.16-2.17,7.05,7.05,0,0,0-2.47-3,10.06,10.06,0,0,0-3.24-1.62,7.49,7.49,0,0,0-3.65-.16,27.06,27.06,0,0,0,2.61,2.28c.84.66,1.66,1.29,2.48,1.9a23.91,23.91,0,0,1,2.23,1.75,3.42,3.42,0,0,1,.73,1,2.57,2.57,0,0,1,.21,1.56l-.55-.57a51.54,51.54,0,0,1-5.7-.11,44.53,44.53,0,0,1-5.29-.71c-.86-.18-1.77-.37-2.57-.62A13.33,13.33,0,0,1,403,430a20.21,20.21,0,0,1-7.48-7,26.64,26.64,0,0,1-2.43-4.68,31,31,0,0,1-1.51-5.11c-.76-3.52-1.1-7.19-1.72-10.85-.32-1.84-.74-3.63-1.12-5.43s-.78-3.59-1.28-5.39a31.76,31.76,0,0,0-2.07-5.16q-1.17-2.49-2.25-5,.87,2.61,1.83,5.21a30.84,30.84,0,0,1,1.72,5.18c.37,1.77.65,3.59.93,5.4s.59,3.63.79,5.43c.43,3.62.62,7.3,1.24,11,0,.15.06.3.08.45a86.22,86.22,0,0,1-8.66,2.58c-21.11,5-43.26,5-64.74,2.68a312.8,312.8,0,0,1-33.86-5.59c.07-1.13.15-2.26.25-3.38.23-2.56.56-5.1,1-7.62a57.66,57.66,0,0,1,3.42-11.2,115,115,0,0,1,5.31-10.59A84.17,84.17,0,0,0,286.3,391,50.17,50.17,0,0,0,282,402.27a76.92,76.92,0,0,0-1.76,9.77c-.2,1.73-.29,3.5-.4,5.25a18.81,18.81,0,0,1-.69,5.18A24.89,24.89,0,0,1,278,425a22.32,22.32,0,0,1-7.06,8.51,14.5,14.5,0,0,1-4.9,2.22,43.15,43.15,0,0,1-5.65,1,48.51,48.51,0,0,1-7,.25l-.59.61A2.51,2.51,0,0,1,253,436a3.1,3.1,0,0,1,.73-1,23.29,23.29,0,0,1,2.22-1.76c.83-.61,1.65-1.24,2.49-1.9a28.12,28.12,0,0,0,2.61-2.27,7.41,7.41,0,0,0-3.66.16,10.09,10.09,0,0,0-3.23,1.61,7,7,0,0,0-2.47,3,3.55,3.55,0,0,0-.16,2.18,2.91,2.91,0,0,0,.42.89c-1-.07-2-.17-3-.31a20.5,20.5,0,0,1-5.28-1.58,13.16,13.16,0,0,1-1.61-.88l-.44.37a12.58,12.58,0,0,1,1.91-3,9.22,9.22,0,0,1,2.26-1.93c.84-.44,1.93-.89,3.05-1.5a13.63,13.63,0,0,0,3.14-2.28,13.3,13.3,0,0,0-3.89,0,12.49,12.49,0,0,0-1.87.39,8.58,8.58,0,0,0-2,.78,6.52,6.52,0,0,0-2.78,3.36,5.41,5.41,0,0,0-.22,3.15,5.71,5.71,0,0,1-1.44-1.61,3.21,3.21,0,0,1-.38-1,3.1,3.1,0,0,1-.06-1,2.23,2.23,0,0,1,.94-1.53,24.75,24.75,0,0,1,5-2.44,14.62,14.62,0,0,0,2.86-1.59,7.9,7.9,0,0,0,1.34-1.26,5.83,5.83,0,0,0,1-1.73,19.5,19.5,0,0,0,.56-6.37l-.1-3c0-1.62.16-3.24.16-4.86,0,.25,0-.57,0-.32,0-1.36,0-1.61,0-3s0-2.76,0-4.14,0-2.48-.05-3.73q-.09-6-.56-11.92a105.25,105.25,0,0,0-1.55-11.85,57.37,57.37,0,0,0-3.33-11.48,23,23,0,0,0-6.91-9.6,23.74,23.74,0,0,1,6.26,9.85,56.88,56.88,0,0,1,2.72,11.44,158.51,158.51,0,0,1,1.23,23.57c0,2.75-.08,5.49-.14,8.23,0,1.28-.05,2.56-.13,3.84s-.21,2.34-.3,3.51,0,2.29,0,3.44c0,.79,0,1.59,0,2.37-.94,0-1.82,0-2.32,0a154.22,154.22,0,0,1-17.6-.24c-2.76-.22-14.45-.57-15.15-4.64-.62-3.64,11.46-4.83,13.86-6.68,4.66-3.6-6.25-6.18-8.38-7.39-30.12-17.08-31.38-57.25-28.43-87.67.88-9.14,2.27-18.22,3.91-27.25a377.39,377.39,0,0,1,52.43-133.52c1.58-2.49,3.43-4.82,5.11-7.23a69.57,69.57,0,0,0,4.85-9c-9.34,5.35-33.67,17.65-41.5,14.05a3.13,3.13,0,0,1-1.89-2.45c-1.49-7.78,4.74-23.31,13.9-34.62.45-.56.91-1.1,1.36-1.63a67.87,67.87,0,0,0,15.55,5.6,84.28,84.28,0,0,0,16.9,2.09,92.43,92.43,0,0,0,33.59-5.63,64.14,64.14,0,0,0,15.19-8.1,45.39,45.39,0,0,0,11.86-12.46c.16-.24.29-.49.44-.74a78.28,78.28,0,0,1,30.15,1.73c14.64,3.74,28.11,11.16,39.87,20.61l2.52,2c.14-.19,12.91-17.93,24.43-17.93h.21c7.34.14,15.49,5.29,22.94,14.5,9.16,11.31,15.4,26.84,13.9,34.62a3.13,3.13,0,0,1-1.89,2.45c-6.84,3.16-27.56-6.48-38.9-12.53.13.07.27.41.35.53,1.79,2.83,3.25,5.85,5.1,8.65,1.73,2.64,3.36,5.33,4.94,8.06.55,1,1.1,1.91,1.64,2.87,3.2,5.72,6.19,11.55,9.11,17.41,11.43,22.95,22.15,46.29,30.8,70.44,8,22.35,15,45.95,17.25,69.67C486.12,331.68,484.14,351.27,475.19,368Z"/>    </g>    <g id="eye">        <g id="eye-color1">            <g opacity="0" ><path fill="#7778AB"  d="M234.82,140.34c-.14.46-.2.94-.35,1.4a16,16,0,0,1-1.35,2.87c-.53.93-1,1.89-1.54,2.82-.24.42-.5.81-.77,1.21l-.43.61c-.09.11-.46.47-.46.6-.19.25-.39.5-.59.74-5.88,7-13.9,9.8-22.69,6.53-8.54-3.17-14.21-10.4-14.65-19.54a.84.84,0,0,1,0-.28.93.93,0,0,1,0-.29,23.27,23.27,0,0,1,19-21.81,18.93,18.93,0,0,1,11.42,1.34c-15.29-7.7-34.35-2.92-39.29,15.34a20.81,20.81,0,0,0-.67,6.53A29.42,29.42,0,0,0,193,158.64c8.6,7.09,21.5,6.67,31.05,1.77,7.18-3.69,10-12.6,10.92-20.45C234.91,140.08,234.86,140.21,234.82,140.34Z"/></g><g opacity="0" ><path fill="#7778AB"  d="M358.58,134.27c-.24.62-.44,1.25-.7,1.86a24.39,24.39,0,0,1-2,3.67,31.67,31.67,0,0,1-2.54,3.43c-5.88,7-13.9,9.8-22.69,6.53-8.53-3.17-14.2-10.4-14.65-19.53a2.11,2.11,0,0,1,0-.58,23.29,23.29,0,0,1,19-21.81,18.89,18.89,0,0,1,11.43,1.35c-15.3-7.71-34.36-2.93-39.3,15.33a20.54,20.54,0,0,0-.66,6.53A29.34,29.34,0,0,0,317,151.28c8.59,7.09,21.5,6.67,31,1.77,6.9-3.55,9.72-12,10.77-19.65C358.75,133.65,358.67,134,358.58,134.27Z"/></g>        </g>        <g id="eye-shape">            <path fill="#fbfbfb"  d="M295.89,123.07c-21.73-17.81-51.73-12-72.06,4.87-11.71,10.13-20.83,23.9-22.36,39.62-1.27,13.08,2.6,26.27,9.61,37.28,12.38,19.45,36.51,33.94,59.91,27.09,20.91-6.11,35.23-26.44,41.18-46.49C318.73,163.33,314.39,138.24,295.89,123.07ZM312,167.47c3.12,13.13-4,29.28-15.05,36.62-11.44,7.58-25.45,6.3-36.15-1.92-11.83-9.09-12.9-22.85-8.48-36.32a1.57,1.57,0,0,1,.15-.32c5.3-13,19.95-19.08,33.33-17.47a40.23,40.23,0,0,1,4.79.88c7-1.95,15.58,1.56,16.61,9.37A21.23,21.23,0,0,1,312,167.47Z"/><path d="M221.71,125.82C211.07,135,202.58,147.11,199.5,161c-2.77,12.5-.75,25.57,4.53,37.14,10.21,22.39,34.35,41.15,59.93,38.25,23.13-2.63,40.23-22.12,48.49-42.66,9.19-22.89,7.78-50-9.89-68.54C280.11,101.65,245.06,106.47,221.71,125.82Zm90.46,59.62c-5.95,20.05-20.27,40.38-41.18,46.49-23.4,6.85-47.53-7.64-59.91-27.09-7-11-10.88-24.2-9.61-37.28,1.53-15.72,10.65-29.49,22.36-39.62,20.33-16.85,50.33-22.68,72.06-4.87C314.39,138.24,318.73,163.33,312.17,185.44Z"/><path d="M307.12,162.07c-1.18,7.61-8.53,14.08-16.4,11.78-7.26-2.13-10.49-10.21-8.63-17.13a1.6,1.6,0,0,1,.1-.39,1.34,1.34,0,0,1,.18-.38,12.35,12.35,0,0,1,8.2-7,40.23,40.23,0,0,0-4.79-.88c-13.38-1.61-28,4.46-33.33,17.47a1.57,1.57,0,0,0-.15.32c-4.42,13.47-3.35,27.23,8.48,36.32,10.7,8.22,24.71,9.5,36.15,1.92C308,196.75,315.1,180.6,312,167.47a21.23,21.23,0,0,0-4.8-9.16A12.9,12.9,0,0,1,307.12,162.07Z"/><path fill="#fff"  d="M290.57,148.94a12.35,12.35,0,0,0-8.2,7,1.34,1.34,0,0,0-.18.38,1.6,1.6,0,0,0-.1.39c-1.86,6.92,1.37,15,8.63,17.13,7.87,2.3,15.22-4.17,16.4-11.78a12.9,12.9,0,0,0,.06-3.76C306.15,150.5,297.61,147,290.57,148.94Z"/><path fill="#fbfbfb"  d="M437.65,124.5c-21.81-15.38-53-18.4-71.71,3.56-17.26,21.61-17.19,56.12-2.48,79a51.88,51.88,0,0,0,65.66,19.41A58,58,0,0,0,462.59,177C463.67,156.62,454.4,136.32,437.65,124.5Zm-65.73,81.87c-14.35-8.08-20.39-26.75-13.74-41.89a30.47,30.47,0,0,1,4.24-6.94,10.08,10.08,0,0,1,1.62-5.67c2.64-4.14,8-4.83,12.6-3.8a30.47,30.47,0,0,1,12.64-.95c14.23,1.89,27.34,11.65,30.73,26C426.49,200.61,394.74,217.86,371.92,206.37Z"/><path d="M445.1,126.64c-22.48-20.28-60.06-25.65-81.28-.7-16.45,20.59-17.87,51.29-7.19,74.85,10.79,23.79,36.25,38.16,62.16,32.38,23.25-5.18,41.58-24.61,45.83-47.94C468.51,163.94,461.25,141.21,445.1,126.64ZM462.59,177a58,58,0,0,1-33.47,49.54,51.88,51.88,0,0,1-65.66-19.41c-14.71-22.92-14.78-57.43,2.48-79,18.68-22,49.9-18.94,71.71-3.56C454.4,136.32,463.67,156.62,462.59,177Z"/><path d="M389.28,147.12a30.47,30.47,0,0,0-12.64.95,17.62,17.62,0,0,1,3.22,1.06c5.45,2.45,8.82,8.1,6.23,13.93-3,6.78-10.57,8.51-16.85,5.52a1.7,1.7,0,0,1-.39-.18,1.3,1.3,0,0,1-.34-.25,13.66,13.66,0,0,1-6.09-10.61,30.47,30.47,0,0,0-4.24,6.94c-6.65,15.14-.61,33.81,13.74,41.89,22.82,11.49,54.57-5.76,48.09-33.26C416.62,158.77,403.51,149,389.28,147.12Z"/><path fill="#fff"  d="M368.51,168.15a1.3,1.3,0,0,0,.34.25,1.7,1.7,0,0,0,.39.18c6.28,3,13.85,1.26,16.85-5.52,2.59-5.83-.78-11.48-6.23-13.93a17.62,17.62,0,0,0-3.22-1.06c-4.6-1-10-.34-12.6,3.8a10.08,10.08,0,0,0-1.62,5.67A13.66,13.66,0,0,0,368.51,168.15Z"/>        </g>        <g id="eye-color2">            <path fill="#B5B4B4"  d="M296.93,204.09c-11.44,7.58-25.45,6.3-36.15-1.92-11.83-9.09-12.9-22.85-8.48-36.32a1.57,1.57,0,0,1,.15-.32c5.09-12.49,18.79-18.56,31.71-17.61-18.58-4.75-40.69,3.61-47,22.29a37.84,37.84,0,0,0,4.9,33.64c7.49,10.53,19.92,14.8,32.48,14.76,6.18,0,12.54-1,17.8-4.27,8.59-5.28,15.13-15.61,17.42-26.36A36.26,36.26,0,0,1,296.93,204.09Z"/><path fill="#B5B4B4"  d="M413.7,150.66c-9.56-6.81-25.15-8-36.48-2.77a30.7,30.7,0,0,1,12.06-.77c14.23,1.89,27.34,11.65,30.73,26,6.48,27.5-25.27,44.75-48.09,33.26a32.32,32.32,0,0,1-14.31-17.05,17.33,17.33,0,0,0,.4,2.36,31.2,31.2,0,0,0,16.47,20.87c13.13,6.59,30.83,4.54,43.3-5.59a31.73,31.73,0,0,0,10.47-14.43C433.11,177.65,426.41,159.69,413.7,150.66Z"/>        </g>    </g>    <g id="nose-mouth">        <path fill="none"  d="M409,275.37h0Z"/><path fill="none"  d="M394.78,308.82l0,.08s0,0,0-.07Z"/><path fill="#e8d3b3"  d="M361.93,304.22a40.62,40.62,0,0,1,3.69,9.25,32.5,32.5,0,0,1,1.09,10,28.16,28.16,0,0,1-1.22,7c.94-.4,1.88-.84,2.78-1.31a33.14,33.14,0,0,0,5.12-3.27,32.58,32.58,0,0,0,8-9.07,36.91,36.91,0,0,0,4.43-11.47,60.07,60.07,0,0,0,1.23-12.54,44.83,44.83,0,0,1,.64,8.36,21.71,21.71,0,0,1,4.89,4.1,12.15,12.15,0,0,1,1.77,2.62l.08-.11a25.11,25.11,0,0,0,2.45-5.9,40.39,40.39,0,0,0,1.32-6.67c-.26-.49-.54-1-.85-1.46a15.93,15.93,0,0,1,2.55,2.93,25.91,25.91,0,0,1,1.88,3.43,35.8,35.8,0,0,1,1.36,3.67c0,.12.07.25.11.38l.71-1.45c.57-1.54,1.32-3,1.84-4.55a49.08,49.08,0,0,0,2.38-9.42,37.41,37.41,0,0,0,.06-9.69,29,29,0,0,0-2.85-9.46,19.44,19.44,0,0,1,3.58,5.76h0a21.12,21.12,0,0,1,3.61.54,34.7,34.7,0,0,1,4.56,1.49,45.09,45.09,0,0,1,4.33,2.05c.53.28,1,.59,1.55.89a48.63,48.63,0,0,0-1-5.12,32.4,32.4,0,0,0-2.83-7.41,28.07,28.07,0,0,0-2.14-3.33,24.78,24.78,0,0,0-2.68-2.94,21.28,21.28,0,0,0-6.89-4.32,16.48,16.48,0,0,1,8,3c.41.28.8.6,1.19.91.73-.13,1.46-.27,2.19-.35a29.66,29.66,0,0,1,3-.23,32,32,0,0,1,6,.33,31.13,31.13,0,0,1,5.9,1.43,27.11,27.11,0,0,1,2.8,1.1,49.94,49.94,0,0,0-8.27-13.81,45.43,45.43,0,0,0-6.88-6.56c-1.23-1-2.56-1.88-3.88-2.77s-2.73-1.64-4.16-2.35a68.43,68.43,0,0,0-18.19-6.23,94.94,94.94,0,0,0-14-1.74c-.27,1.15-.58,2.32-1,3.5-6.48,19.83-28.21,40.19-43.87,41.1-.52,0-1,.05-1.58.05-15.46,0-37.36-12.51-48.72-28.07a44.82,44.82,0,0,1-5.42-9.56,117.07,117.07,0,0,0-12.57,4.44,72.2,72.2,0,0,0-17.07,9.82,37.91,37.91,0,0,0-6.84,6.85,30.84,30.84,0,0,0-4.65,8.32,29.93,29.93,0,0,0-1.58,9.35l.05,2.4.28,2.39c.05.39.09.8.15,1.19l0,.23c.21-.28.42-.54.64-.81a21.72,21.72,0,0,1,3.33-3.24,16.6,16.6,0,0,1,4.09-2.35,14.57,14.57,0,0,1,4.65-1l1.45-.1-.17,1.45a37.19,37.19,0,0,0-.17,5.5,39,39,0,0,0,.61,5.51,25.27,25.27,0,0,0,1.6,5.25,18.45,18.45,0,0,0,2.08,3.43,17.92,17.92,0,0,1,.25-1.79,16.23,16.23,0,0,1,.95-3.21,11.64,11.64,0,0,1,1.72-2.85,8.87,8.87,0,0,1,2.61-2,2.83,2.83,0,0,0-.28.2,6.31,6.31,0,0,1,.63-.34,36.56,36.56,0,0,1,2.68-11.74,33.12,33.12,0,0,0-1.37,5.87,40.24,40.24,0,0,0-.49,6A39.29,39.29,0,0,0,265,297.51a36.32,36.32,0,0,0,2.11,5.54,39,39,0,0,0,2.9,5.16,47.12,47.12,0,0,0,5.71,7c.05-.86.13-1.72.25-2.58a34.78,34.78,0,0,1,1.1-5.31,26.28,26.28,0,0,1,2.05-5.1,19.57,19.57,0,0,1,3.31-4.53l2.47-2.52-.06,3.61a49,49,0,0,0,1.27,11.65,39.22,39.22,0,0,0,4.19,10.88,27.7,27.7,0,0,0,7.58,8.6,28.51,28.51,0,0,0,8.75,4.28c0-1.59,0-3.16.09-4.74.11-2.21.3-4.41.61-6.61a43.94,43.94,0,0,1,1.4-6.55,19,19,0,0,1,3.05-6.21l.76-.94.82.83a34.91,34.91,0,0,1,5.28,6.85,22.78,22.78,0,0,1,1.84,4,13.07,13.07,0,0,1,.71,3.59,7.92,7.92,0,0,0,1.57-.42,9.2,9.2,0,0,0,2.13-1.21,11.72,11.72,0,0,0,3.17-3.86,20.71,20.71,0,0,0,1.78-4.83,31.93,31.93,0,0,0,.77-4.26c-.2-.21-.39-.44-.6-.65a44,44,0,0,0-5.45-4.79,28.47,28.47,0,0,1,6.37,3.76,29.39,29.39,0,0,1,5.32,5.31,23.53,23.53,0,0,1,3.69,6.7l.61,1.84c.15.64.26,1.28.38,1.91.06.32.13.64.17,1l0,.46a47.6,47.6,0,0,0,10.8-8.76l1.32-1.55c.42-.53.79-1.09,1.19-1.64a13.37,13.37,0,0,0,1.12-1.69,16.56,16.56,0,0,0,1-1.78l.89-1.85c.29-.62.46-1.29.71-1.93l.36-1c.1-.33.16-.67.24-1l.05-.21a25.18,25.18,0,0,0,.43-2.53,53.33,53.33,0,0,0-2.91-5.28A41.71,41.71,0,0,1,361.93,304.22Z"/><path d="M439.85,265.47a51.39,51.39,0,0,0-3.7-9.35,50,50,0,0,0-2.51-4.38c-.45-.72-1-1.38-1.47-2.07l-.75-1-.82-1a44,44,0,0,0-7.28-7,49.11,49.11,0,0,0-8.58-5.33,62.39,62.39,0,0,0-9.38-3.61,71,71,0,0,0-9.78-2,72.93,72.93,0,0,0-14.16-.5c2.2-10.25-.35-18.92-7.37-24.72-14.57-12-41.79-12-62.29-6.63C295.08,202.2,283.21,209.76,280,218c-2.18,5.64-2,11.82.43,18.22a95.82,95.82,0,0,0-12.92,3.55,67.55,67.55,0,0,0-18.06,9.34,36.16,36.16,0,0,0-12.67,16.21A30.68,30.68,0,0,0,235,275.7l.07,2.62.33,2.59c.06.43.1.86.18,1.29l.29,1.27.57,2.53.88,3.81,1.82-3.57a21.91,21.91,0,0,1,2.19-3.36,19.35,19.35,0,0,1,2.82-2.9,13.82,13.82,0,0,1,3.38-2.05,10.7,10.7,0,0,1,2.46-.73,41.58,41.58,0,0,0,.13,4.33,34.67,34.67,0,0,0,.92,5.8,27.07,27.07,0,0,0,2,5.53,18,18,0,0,0,3.62,4.7l1.12,1-.11-1.5a18.53,18.53,0,0,1,.08-3.15,15.76,15.76,0,0,1,.64-3.11,11.83,11.83,0,0,1,1.37-2.87,8.74,8.74,0,0,1,2.05-2,2.83,2.83,0,0,1,.28-.2,8.87,8.87,0,0,0-2.61,2,11.64,11.64,0,0,0-1.72,2.85,16.23,16.23,0,0,0-.95,3.21,17.92,17.92,0,0,0-.25,1.79,18.45,18.45,0,0,1-2.08-3.43,25.27,25.27,0,0,1-1.6-5.25,39,39,0,0,1-.61-5.51,37.19,37.19,0,0,1,.17-5.5l.17-1.45-1.45.1a14.57,14.57,0,0,0-4.65,1,16.6,16.6,0,0,0-4.09,2.35,21.72,21.72,0,0,0-3.33,3.24c-.22.27-.43.53-.64.81l0-.23c-.06-.39-.1-.8-.15-1.19l-.28-2.39-.05-2.4a29.93,29.93,0,0,1,1.58-9.35,30.84,30.84,0,0,1,4.65-8.32,37.91,37.91,0,0,1,6.84-6.85,72.2,72.2,0,0,1,17.07-9.82,117.07,117.07,0,0,1,12.57-4.44,44.82,44.82,0,0,0,5.42,9.56c11.36,15.56,33.26,28.07,48.72,28.07.54,0,1.06,0,1.58-.05,15.66-.91,37.39-21.27,43.87-41.1.39-1.18.7-2.35,1-3.5a94.94,94.94,0,0,1,14,1.74,68.43,68.43,0,0,1,18.19,6.23c1.43.71,2.79,1.54,4.16,2.35s2.65,1.77,3.88,2.77a45.43,45.43,0,0,1,6.88,6.56,49.94,49.94,0,0,1,8.27,13.81,27.11,27.11,0,0,0-2.8-1.1,31.13,31.13,0,0,0-5.9-1.43,32,32,0,0,0-6-.33,29.66,29.66,0,0,0-3,.23c-.73.08-1.46.22-2.19.35-.39-.31-.78-.63-1.19-.91a16.48,16.48,0,0,0-8-3,21.28,21.28,0,0,1,6.89,4.32,24.78,24.78,0,0,1,2.68,2.94,28.07,28.07,0,0,1,2.14,3.33,32.4,32.4,0,0,1,2.83,7.41,48.63,48.63,0,0,1,1,5.12c-.51-.3-1-.61-1.55-.89a45.09,45.09,0,0,0-4.33-2.05,34.7,34.7,0,0,0-4.56-1.49,21.12,21.12,0,0,0-3.61-.54h0a19.44,19.44,0,0,0-3.58-5.76,29,29,0,0,1,2.85,9.46,37.41,37.41,0,0,1-.06,9.69,49.08,49.08,0,0,1-2.38,9.42c-.52,1.55-1.27,3-1.84,4.55l-.71,1.45c0-.13-.07-.26-.11-.38a35.8,35.8,0,0,0-1.36-3.67,25.91,25.91,0,0,0-1.88-3.43,15.93,15.93,0,0,0-2.55-2.93c.31.48.59,1,.85,1.46a40.39,40.39,0,0,1-1.32,6.67,25.11,25.11,0,0,1-2.45,5.9l-.08.11a12.15,12.15,0,0,0-1.77-2.62,21.71,21.71,0,0,0-4.89-4.1,44.83,44.83,0,0,0-.64-8.36,60.07,60.07,0,0,1-1.23,12.54,36.91,36.91,0,0,1-4.43,11.47,32.58,32.58,0,0,1-8,9.07,33.14,33.14,0,0,1-5.12,3.27c-.9.47-1.84.91-2.78,1.31a28.16,28.16,0,0,0,1.22-7,32.5,32.5,0,0,0-1.09-10,40.62,40.62,0,0,0-3.69-9.25,41.71,41.71,0,0,0-5.61-8.09,53.33,53.33,0,0,1,2.91,5.28c.54,1.11,1.06,2.23,1.53,3.37a47.55,47.55,0,0,1,2.77,9.16,32.62,32.62,0,0,1,.58,4.7,31.78,31.78,0,0,1-.06,4.68,28.83,28.83,0,0,1-2.32,9L360.55,335l2.86-.75a30.71,30.71,0,0,0,6.25-2.47,36.09,36.09,0,0,0,5.53-3.63,32.83,32.83,0,0,0,8.43-10.11,35.34,35.34,0,0,0,3.81-12.45c.15-1.28.24-2.56.28-3.84,1.07,1.64,2.15,3.21,3.06,4.81a12.47,12.47,0,0,1,1.27,2.81l.15.49a2.51,2.51,0,0,0,.46.83,2,2,0,0,0,1.33.69,2.26,2.26,0,0,0,1.2-.25,3.82,3.82,0,0,0,1.11-.87,9.36,9.36,0,0,0,.66-.85,16,16,0,0,0,2.33-7.12,14.43,14.43,0,0,0-.93-6.9c.28.56.54,1.12.79,1.68a35,35,0,0,1,1.19,3.54c.33,1.2.59,2.41.81,3.63a33.45,33.45,0,0,1,.5,3.64l.3,3.86,2-3.38q1.31-2.2,2.58-4.46c.37-.78.73-1.57,1.08-2.36a24,24,0,0,0,1-2.39,35.78,35.78,0,0,0,1.52-5c.17-.85.42-1.69.54-2.55s.23-1.73.32-2.6a30.71,30.71,0,0,0-.84-10.38,26.83,26.83,0,0,0-1-2.91c1.06.37,2.1.77,3.11,1.22,1.4.67,2.76,1.37,4.09,2.14s2.63,1.57,3.89,2.44,2.56,1.73,3.71,2.64l2.35,1.86-.1-3.06a37,37,0,0,0-1.22-8.53,32.33,32.33,0,0,0-1.39-4.13,26.09,26.09,0,0,0-2-3.88,21.65,21.65,0,0,0-4.68-5.28,42,42,0,0,1,5,.1,36.08,36.08,0,0,1,5.77.9,34.94,34.94,0,0,1,5.49,1.81,27.07,27.07,0,0,1,5,2.71l2.72,2Zm-45,43.43,0-.08h0C394.86,308.92,394.84,308.94,394.82,308.9ZM288.53,244.72c-4.65-6.38-9.43-16-5.72-25.6,2.81-7.28,14.19-14.32,29.71-18.38a101.33,101.33,0,0,1,25.6-3.44c15.39,0,27.43,4,34,9.48,8.91,7.36,7.79,18,5.29,25.7-6.16,18.85-26.56,38.18-41.19,39S299.76,260.1,288.53,244.72Z"/><path fill="#724331"  d="M377.43,232.48c2.5-7.66,3.62-18.34-5.29-25.7-6.59-5.43-18.63-9.48-34-9.48a101.33,101.33,0,0,0-25.6,3.44c-15.52,4.06-26.9,11.1-29.71,18.38-3.71,9.6,1.07,19.22,5.72,25.6,11.23,15.38,33.1,27.67,47.71,26.8S371.27,251.33,377.43,232.48Z"/><path d="M358.51,305.16l-.36,1c-.25.64-.42,1.31-.71,1.93l-.89,1.85a16.56,16.56,0,0,1-1,1.78,13.37,13.37,0,0,1-1.12,1.69c-.4.55-.77,1.11-1.19,1.64l-1.32,1.55a47.6,47.6,0,0,1-10.8,8.76l0-.46c0-.32-.11-.64-.17-1-.12-.63-.23-1.27-.38-1.91l-.61-1.84a23.53,23.53,0,0,0-3.69-6.7,29.39,29.39,0,0,0-5.32-5.31,28.47,28.47,0,0,0-6.37-3.76,44,44,0,0,1,5.45,4.79c.21.21.4.44.6.65a31.93,31.93,0,0,1-.77,4.26,20.71,20.71,0,0,1-1.78,4.83,11.72,11.72,0,0,1-3.17,3.86,9.2,9.2,0,0,1-2.13,1.21,7.92,7.92,0,0,1-1.57.42,13.07,13.07,0,0,0-.71-3.59,22.78,22.78,0,0,0-1.84-4,34.91,34.91,0,0,0-5.28-6.85l-.82-.83-.76.94a19,19,0,0,0-3.05,6.21,43.94,43.94,0,0,0-1.4,6.55c-.31,2.2-.5,4.4-.61,6.61-.07,1.58-.1,3.15-.09,4.74a28.51,28.51,0,0,1-8.75-4.28,27.7,27.7,0,0,1-7.58-8.6,39.22,39.22,0,0,1-4.19-10.88,49,49,0,0,1-1.27-11.65l.06-3.61-2.47,2.52a19.57,19.57,0,0,0-3.31,4.53,26.28,26.28,0,0,0-2.05,5.1,34.78,34.78,0,0,0-1.1,5.31c-.12.86-.2,1.72-.25,2.58a47.12,47.12,0,0,1-5.71-7,39,39,0,0,1-2.9-5.16,36.32,36.32,0,0,1-2.11-5.54,39.29,39.29,0,0,1-1.66-11.78,40.24,40.24,0,0,1,.49-6,33.12,33.12,0,0,1,1.37-5.87,36.56,36.56,0,0,0-2.68,11.74.28.28,0,0,0,0,.09,40.29,40.29,0,0,0,1,12.22,38.11,38.11,0,0,0,1.95,5.87,41.51,41.51,0,0,0,2.81,5.52,50,50,0,0,0,7.77,9.63l2,2V318a34,34,0,0,1,.4-5,33.34,33.34,0,0,1,1.11-4.89A22.64,22.64,0,0,1,282,302.7c0,.75.11,1.5.18,2.26a54,54,0,0,0,1,6.17,41.14,41.14,0,0,0,4.47,11.72,30,30,0,0,0,20,14.56l1.79.4L309.4,336c-.1-2.09-.1-4.26,0-6.4s.22-4.27.47-6.38A44.41,44.41,0,0,1,311,317a19.25,19.25,0,0,1,1.8-4.49c.64.66,1.27,1.35,1.86,2.05a29.81,29.81,0,0,1,2.42,3.28,15,15,0,0,1,2.68,7.39l0,.79.7-.06a9,9,0,0,0,5.12-2.27,13,13,0,0,0,3.17-4.39,24.45,24.45,0,0,0,1.92-9.36,36.43,36.43,0,0,1,3.73,4.83,25.56,25.56,0,0,1,2.92,6.28l.45,1.66.28,1.69c.05.28.11.56.14.84l0,.85.08,1.71.12,2.33,2-1a30,30,0,0,0,3.8-2.22,41.77,41.77,0,0,0,3.49-2.57,38.7,38.7,0,0,0,6.07-6.2,28.91,28.91,0,0,0,4.18-7.6,22.83,22.83,0,0,0,1.29-8.43l-.46,1.84-.05.21C358.67,304.49,358.61,304.83,358.51,305.16Z"/><path fill="#44241b"  d="M334.67,209.16c-2.9-9.63-30.7,1.33-28,8.71C310,227.07,337.57,218.79,334.67,209.16Z"/><path fill="#44241b"  d="M348.91,232.14a5.66,5.66,0,1,0-5.57-5.74A5.65,5.65,0,0,0,348.91,232.14Z"/><path fill="#44241b"  d="M311.74,231.56c-4.68-.07-8.54,3.94-8.62,9s3.66,9.15,8.34,9.22,8.55-3.94,8.63-9S316.43,231.64,311.74,231.56Z"/><path fill="#44241b"  d="M340.2,246.15a2.86,2.86,0,1,0,2.38,2.86A2.64,2.64,0,0,0,340.2,246.15Z"/>    </g></svg>