<!--  ~ Copyright (C) 2018 Baidu, Inc. All Rights Reserved.  --><svg viewBox="0 0 640 480" xmlns="http://www.w3.org/2000/svg">    <g id="back-ground-cl">        <rect fill="none" width="640" height="480" />        <ellipse opacity="0.1" cx="331.93" cy="418.82" rx="168.39" ry="32.01"/>    </g>    <g id="body">        <defs>            <clipPath id="outline">                <path fill="none"  d="M409.36,124.68l.22-.31c3.88-5.71,5.24-12.8,9.68-18.19,4.6-5.6,12-7.82,16.47-13.52a23.16,23.16,0,0,0,5-13c.25-4.7-1.19-11.93-7.43-8.4-3,1.71-5.32,4.27-8.64,5.79a52.5,52.5,0,0,1-9.31,3.12c-12.4,3.05-33.65,4.52-37.55,19A129.43,129.43,0,0,1,409.36,124.68Z"/><path fill="none"  d="M179.94,333c-3.93-.31-7.8,5.92-3.2,7.61,1.23.45,1.6,2.64,0,2.89q-3.6,1.77-1.2,4.19a1.51,1.51,0,0,1-1.15,2.75,17.19,17.19,0,0,0-4.32-.66c-2.65.09-3.44.25-4.34,2.82-1.56,4.44,2.68,6.57,6.06,8.39,1.39.75.64,2.71-.76,2.8a5.56,5.56,0,0,0,3.79,1.83,5.86,5.86,0,0,0,1.72.19,25.3,25.3,0,0,0,2.61-.1c2.32-.15,4.64-.43,6.95-.65,1.15-.11,2.51-.17,4-.29a109,109,0,0,1-4.25-28.82A9.38,9.38,0,0,0,179.94,333Z"/><path fill="none"  d="M256.06,130.89c3.58-4.65,7.34-9.14,11.33-13.4a116.37,116.37,0,0,1,17.93-15.72,1.19,1.19,0,0,1-.08-.2c-4.8-16.49-22.57-27.9-38.18-17.28-4.87,3.3-9,7.6-14,10.69a25.66,25.66,0,0,1-7.55,3.24c-1.95.47-4.79.76-5.37,3.3-.49,2.13,1.64,4.68,3,6,5.58,5.36,12.86,4.41,19.87,4.45,4,0,8.61.69,10.81,4.53C256.51,121.26,253.75,126.69,256.06,130.89Z"/><path fill="none"  d="M467.09,243.42c-8.65-24.15-19.37-47.49-30.8-70.44-9.42-18.92-19.18-36.8-34.41-51.76C388,107.61,371,96.63,352.07,91.78c-1.34-.34-2.68-.64-4-.91,0,0,0,0,0,0s0,0,0,0l-.92-.24a36.39,36.39,0,0,0,2.43-7.58,35.19,35.19,0,0,1-9.72,9.85l-3.22,2.15,1.65-3.53A69.55,69.55,0,0,0,342.93,78a68.49,68.49,0,0,0,1.46-8.88c-1.63,2.48-3.29,5-5,7.38a107.76,107.76,0,0,1-9.05,11.24l-6.05,6.45,3.59-8.08A43.27,43.27,0,0,0,331,62.51c-1.27,4.22-2.55,8.44-3.87,12.65a90.27,90.27,0,0,1-3,8.93,21.53,21.53,0,0,1-2.43,4.23A13.21,13.21,0,0,1,318,91.66l-2.13,1.28.85-2.3A10,10,0,0,0,316,82.4a32.2,32.2,0,0,1-2.15,8.68c-.18.45-.34.48-.67.82a3.27,3.27,0,0,0-.44,0c-.83.2-1.66.46-2.48.71s-1.67.52-2.49.8-1.65.57-2.47.88-1.63.64-2.44,1-1.62.69-2.41,1.06-1.6.74-2.39,1.14-1.58.8-2.36,1.23-1.55.86-2.32,1.31c-20,11.78-34.51,30.8-46.79,50.08a377.39,377.39,0,0,0-52.43,133.52c-1.64,9-3,18.11-3.91,27.25-2.94,30.42-1.69,70.59,28.43,87.67,2.13,1.21,13,3.79,8.38,7.39-2.4,1.85-14.48,3-13.86,6.68.7,4.07,12.39,4.42,15.15,4.64a154.22,154.22,0,0,0,17.6.24c.52,0,1.44,0,2.41,0,.14-1.74.13-3.58.15-5.43s0-3.86.07-5.79c.07-3.85.18-7.68.2-11.51a153.15,153.15,0,0,0-1.33-22.87,55.56,55.56,0,0,0-2.69-11.09,30,30,0,0,0-2.47-5.14,18.3,18.3,0,0,0-3.62-4.42,22.64,22.64,0,0,1,6.82,9.26,57.1,57.1,0,0,1,3.4,11.14,136.91,136.91,0,0,1,2.22,23.1c.1,3.86.11,7.72.09,11.56,0,1.92,0,3.83,0,5.75s.07,3.86-.08,5.9a13.94,13.94,0,0,1-.56,3.13l-.12.39c0,.14-.12.3-.19.45a4.11,4.11,0,0,1-.47.85,7.08,7.08,0,0,1-1.24,1.36,22.65,22.65,0,0,1-5.48,2.84c-1.7.7-3.31,1.6-3.59,2.59a2.09,2.09,0,0,0-.11.85,4.53,4.53,0,0,0,.06.5l.14.48a4.92,4.92,0,0,0,1.25,1.77c.12.11.27.22.4.33a5.55,5.55,0,0,1,.24-3.09,6.57,6.57,0,0,1,2.78-3.36,8.58,8.58,0,0,1,2-.78,12.49,12.49,0,0,1,1.87-.39,13.3,13.3,0,0,1,3.89,0,13.63,13.63,0,0,1-3.14,2.28c-1.12.61-2.2,1.06-3.05,1.5a9.22,9.22,0,0,0-2.26,1.93,12.58,12.58,0,0,0-1.91,3l.47-.39a14.51,14.51,0,0,0,3.19,1.55,19.2,19.2,0,0,0,2.59.75,22.4,22.4,0,0,0,2.68.41c.46,0,.93.06,1.39.09a3,3,0,0,1-.43-.9,3.55,3.55,0,0,1,.16-2.18,7,7,0,0,1,2.47-3,9.89,9.89,0,0,1,3.23-1.61,7.41,7.41,0,0,1,3.66-.16,28.12,28.12,0,0,1-2.61,2.27c-.84.66-1.66,1.29-2.48,1.9a22.31,22.31,0,0,0-2.23,1.76,3.1,3.1,0,0,0-.73,1,2.51,2.51,0,0,0-.21,1.56l.55-.57a48,48,0,0,0,8.39-.42,36.13,36.13,0,0,0,5.42-1.12,14.6,14.6,0,0,0,4.65-2.47,20.1,20.1,0,0,0,3.79-3.86,25.54,25.54,0,0,0,2.86-4.7,12,12,0,0,0,.53-1.25c.15-.41.31-.82.43-1.28.26-.88.48-1.81.7-2.73l1.23-5.61c.81-3.76,1.62-7.54,2.58-11.28a112.65,112.65,0,0,1,3.47-11.07,48.3,48.3,0,0,1,5.15-10.35c-3.71,6.77-5.64,14.26-7.19,21.75-.77,3.71-1.42,7.45-2.06,11.2a313.77,313.77,0,0,0,33.11,5.43c21.47,2.28,43.62,2.35,64.74-2.68a86.81,86.81,0,0,0,8.65-2.58c0-.15-.06-.3-.08-.45-.62-3.71-.81-7.39-1.24-11-.2-1.8-.51-3.61-.79-5.43s-.56-3.63-.93-5.4a30.84,30.84,0,0,0-1.72-5.18q-1-2.6-1.83-5.21,1.08,2.53,2.25,5a31.76,31.76,0,0,1,2.07,5.16c.5,1.8.88,3.6,1.28,5.39s.8,3.59,1.12,5.43c.62,3.66,1,7.33,1.72,10.85a31,31,0,0,0,1.51,5.11,26.64,26.64,0,0,0,2.43,4.68,20.21,20.21,0,0,0,7.48,7,13.33,13.33,0,0,0,2.34.91c.8.25,1.71.44,2.57.62a44.53,44.53,0,0,0,5.29.71,51.54,51.54,0,0,0,5.7.11l.55.57a2.57,2.57,0,0,0-.21-1.56,3.42,3.42,0,0,0-.73-1,23.91,23.91,0,0,0-2.23-1.75c-.82-.61-1.64-1.24-2.48-1.9a27.06,27.06,0,0,1-2.61-2.28,7.37,7.37,0,0,1,3.65.16,10.06,10.06,0,0,1,3.24,1.62,7.05,7.05,0,0,1,2.47,3,3.59,3.59,0,0,1,.16,2.17,2.79,2.79,0,0,1-.44.92c1.2-.08,2.38-.2,3.53-.39a20.26,20.26,0,0,0,4.87-1.58,15.2,15.2,0,0,0,1.48-.83l.45.38a12.87,12.87,0,0,0-1.91-3,9.39,9.39,0,0,0-2.26-1.92c-.85-.44-1.93-.89-3-1.5a13.68,13.68,0,0,1-3.14-2.29,13.57,13.57,0,0,1,3.88.05,12.35,12.35,0,0,1,1.88.39,8.46,8.46,0,0,1,2,.77,6.61,6.61,0,0,1,2.79,3.37,5.56,5.56,0,0,1,.23,3.12,5.88,5.88,0,0,0,1.29-1.42,3.83,3.83,0,0,0,.58-1.85,2.22,2.22,0,0,0-.12-.84,1.79,1.79,0,0,0-.4-.72c-.79-.94-2.47-1.64-4.13-2.28a21.12,21.12,0,0,1-5.32-2.59,7.85,7.85,0,0,1-1.24-1.21,4.82,4.82,0,0,1-.87-1.72,9.16,9.16,0,0,1-.28-1.57c-.06-.51-.08-1-.1-1.48a108.6,108.6,0,0,1,.45-11.18c.28-3.68.67-7.35,1.12-11,.89-7.32,2-14.61,3.49-21.84.76-3.61,1.59-7.21,2.61-10.76a54,54,0,0,1,1.74-5.26,23,23,0,0,1,1.16-2.52,7.34,7.34,0,0,1,1.66-2.2,7.31,7.31,0,0,0-1.46,2.3,23.21,23.21,0,0,0-.94,2.57c-.55,1.74-1,3.52-1.4,5.3-.79,3.58-1.4,7.2-1.93,10.82-1.1,7.25-1.92,14.54-2.61,21.84q-.48,5.47-.83,10.95c-.19,3.41-.36,6.86-.24,10.19,5.42.86,11.33.44,16.68.28a155.32,155.32,0,0,0,19.15-1.45c2.36-.37,3.95,0,2.58-2.3-1.61-2.7-4-4-6.92-5-2.42-.82-9.31-1-10.72-3.45-.77-1.34.08-2.05,1-2.94,1.35-1.35,4-2.21,5.6-3.24q3-1.89,5.8-4A69.64,69.64,0,0,0,475.18,368c8.95-16.71,10.93-36.3,9.16-54.94C482.1,289.37,475.09,265.77,467.09,243.42Z"/><path stroke-linejoin="round" stroke-width="0" fill="none" stroke="#000" stroke-linecap="round"  d="M348,90.87s0,0,0,0"/><path d="M480.3,275.92c-6.47-25.07-15.82-49.32-26.42-72.92-5.39-12-11.13-23.86-17-35.62-5.06-10.06-10.07-20.08-16.63-29.27-2.75-3.84-5.69-7.57-8.8-11.14.13-.17.25-.33.35-.48,2.49-3.51,3.93-7.57,5.73-11.44a28.12,28.12,0,0,1,10.76-12.48c6.76-4.45,12.3-9.21,14.54-17.33,1.5-5.45,2.06-15-4-18.06a5.55,5.55,0,0,0-5.86.48c-2.25,1.46-4,3.55-6.33,5a36.61,36.61,0,0,1-8.22,3.57C404.41,80.52,380,81.26,375,97.62a98.55,98.55,0,0,0-25.75-9.51,36.22,36.22,0,0,0,2.36-8.77l.55-4-2,3.58a34,34,0,0,1-6.46,8.23l-1.1-.16a68.74,68.74,0,0,0,2.76-8.4,71.13,71.13,0,0,0,2.13-14.73l.19-4.94L345,63c-2.64,3.95-5.22,7.91-8,11.73q-1.9,2.64-3.93,5.17a45.2,45.2,0,0,0-.47-23.32l-1.34-4.53L330,56.59c-1.7,6-3.41,11.93-5.06,17.91a89.68,89.68,0,0,1-2.71,8.77,19.91,19.91,0,0,1-2,3.91v0l-1.26.19A11.15,11.15,0,0,0,316,80.18L314.85,79v1.58a30.85,30.85,0,0,1-1,7.87,84.44,84.44,0,0,0-26,11.59C284.21,88.31,274.53,78.18,261.83,77c-13.2-1.29-20.64,9.82-30.88,15.78-3,1.77-6,2.23-9.26,3.1A5.67,5.67,0,0,0,217.63,99c-2,4.44,1.46,9.34,4.87,11.91,4.16,3.14,9.5,4.31,14.64,4.26,2.79,0,5.61-.44,8.4-.12,2.52.29,5.07,1.35,6.07,4,.83,2.17.08,4.86.1,7.13a11.59,11.59,0,0,0,2.42,7.32c-10.31,13.85-19,29-26.88,44.21a379.37,379.37,0,0,0-27.51,69.12q-5.15,17.82-8.5,36.07c-2.79,15.33-5.49,32.51-5.48,49.41-3.72-2.54-8.2-4-12.2-.58-2.79,2.39-2.37,7.22-.06,10a5.38,5.38,0,0,0-1.69,5.23c-3.61-.43-7.46,0-9.28,3.49-2.71,5.25,1.78,9.52,6,12.14a3.61,3.61,0,0,0,.25,2.72c1.64,3.43,6.51,3.63,9.74,3.47a113.36,113.36,0,0,0,12.57-.79,73.09,73.09,0,0,0,7.11,15,53,53,0,0,0,21.65,19.67c.46.23,2,1.13,3.25,1.71-.13.05-.23.1-.31.12-1.78.63-3.6,1.17-5.38,1.82-3.43,1.25-9.09,3.22-6.81,8,1.87,3.92,8,4.81,11.7,5.39a118.06,118.06,0,0,0,20,1c1.44,0,3.43.1,5.42.05a3.08,3.08,0,0,1-.28.54,4.13,4.13,0,0,1-.71.75,20.47,20.47,0,0,1-4.78,2.37,16.94,16.94,0,0,0-2.81,1.43,5.83,5.83,0,0,0-2.43,2.87,6.55,6.55,0,0,0,2.08,6.77,12.4,12.4,0,0,0,2.66,1.88,18.93,18.93,0,0,0,2.86,1.25,23.52,23.52,0,0,0,2.95.83,27.38,27.38,0,0,0,3,.45,49,49,0,0,0,11.85-.35,37.34,37.34,0,0,0,5.85-1.33,17.25,17.25,0,0,0,5.43-3,25.15,25.15,0,0,0,7.16-9.66,18.28,18.28,0,0,0,1-2.89c.26-1,.45-1.92.65-2.88s.37-1.91.55-2.86c22.29,4.82,45.23,7.67,68.05,6.76a160.29,160.29,0,0,0,32.56-4.43q3.58-.9,7.11-2a28.5,28.5,0,0,0,3.11,7.11,21.71,21.71,0,0,0,8.25,8.08,15.26,15.26,0,0,0,2.77,1.15c.95.31,1.84.51,2.78.72a48.1,48.1,0,0,0,5.61.87,45.76,45.76,0,0,0,11.38-.31A23.06,23.06,0,0,0,430,433a14.37,14.37,0,0,0,2.62-1.56,8.74,8.74,0,0,0,2.25-2.39,6.87,6.87,0,0,0,1-3.36,5.19,5.19,0,0,0-1.23-3.53,8.19,8.19,0,0,0-2.68-2,27.2,27.2,0,0,0-2.68-1.14,19.2,19.2,0,0,1-4.59-2.14,4.54,4.54,0,0,1-.74-.7,1.83,1.83,0,0,1-.37-.72l0-.12.83.08a142.39,142.39,0,0,0,20.86,0c5.57-.29,11.91-.22,17.3-1.84,3.77-1.14,2.9-4.87.85-7.65-3.27-4.43-9.45-5.46-14.45-6.64l-.43-.13c.93-.57,1.95-1.32,2.33-1.55a76.58,76.58,0,0,0,11.86-8.78c14-12.68,21.83-30.36,24.29-48.89C489.82,318.43,485.68,296.74,480.3,275.92,-65-195.79A52.5,52.5,0,0,0,424.64,77c3.32-1.52,5.61-4.08,8.64-5.79,6.24-3.53,7.68,3.7,7.43,8.4a23.16,23.16,0,0,1-5,13c-4.51,5.7-11.87,7.92-16.47,13.52-4.44,5.39-5.8,12.48-9.68,18.19l-.22.31a129.43,129.43,0,0,0-31.58-25.56C381.68,84.65,402.93,83.18,415.33,80.13,253.78,116.48C251.58,112.64,247,112,243,112c-7,0-14.29.91-19.87-4.45-1.35-1.3-3.48-3.85-3-6,.58-2.54,3.42-2.83,5.37-3.3A25.66,25.66,0,0,0,233,95c5-3.09,9.16-7.39,14-10.69,15.61-10.62,33.38.79,38.18,17.28a1.19,1.19,0,0,0,.08.2,116.37,116.37,0,0,0-17.93,15.72c-4,4.26-7.75,8.75-11.33,13.4C253.75,126.69,256.51,121.26,253.78,116.48,186.1,365c-2.31.22-4.63.5-6.95.65a25.3,25.3,0,0,1-2.61.1,5.86,5.86,0,0,1-1.72-.19,5.56,5.56,0,0,1-3.79-1.83c1.4-.09,2.15-2.05.76-2.8-3.38-1.82-7.62-3.95-6.06-8.39.9-2.57,1.69-2.73,4.34-2.82a17.19,17.19,0,0,1,4.32.66,1.51,1.51,0,0,0,1.15-2.75q-2.4-2.42,1.2-4.19c1.6-.25,1.23-2.44,0-2.89-4.6-1.69-.73-7.92,3.2-7.61a9.38,9.38,0,0,1,5.86,2.95,109,109,0,0,0,4.25,28.82C188.61,364.86,187.25,364.92,186.1,365,289.08,3a69.64,69.64,0,0,1-18.8,22.19q-2.81,2.16-5.8,4c-1.64,1-4.25,1.89-5.6,3.24-.89.89-1.74,1.6-1,2.94,1.41,2.49,8.3,2.63,10.72,3.45,2.94,1,5.31,2.32,6.92,5,1.37,2.3-.22,1.93-2.58,2.3a155.32,155.32,0,0,1-19.15,1.45c-5.35.16-11.26.58-16.68-.28-.12-3.33.05-6.78.24-10.19q.34-5.47.83-10.95c.69-7.3,1.51-14.59,2.61-21.84.53-3.62,1.14-7.24,1.93-10.82.39-1.78.85-3.56,1.4-5.3a23.21,23.21,0,0,1,.94-2.57,7.31,7.31,0,0,1,1.46-2.3,7.34,7.34,0,0,0-1.66,2.2,23,23,0,0,0-1.16,2.52,54,54,0,0,0-1.74,5.26c-1,3.55-1.85,7.15-2.61,10.76-1.46,7.23-2.6,14.52-3.49,21.84-.45,3.66-.84,7.33-1.12,11a108.6,108.6,0,0,0-.45,11.18c0,.48,0,1,.1,1.48a9.16,9.16,0,0,0,.28,1.57,4.82,4.82,0,0,0,.87,1.72,7.85,7.85,0,0,0,1.24,1.21,21.12,21.12,0,0,0,5.32,2.59c1.66.64,3.34,1.34,4.13,2.28a1.79,1.79,0,0,1,.4.72,2.22,2.22,0,0,1,.12.84,3.83,3.83,0,0,1-.58,1.85,5.88,5.88,0,0,1-1.29,1.42,5.56,5.56,0,0,0-.23-3.12,6.61,6.61,0,0,0-2.79-3.37,8.46,8.46,0,0,0-2-.77,12.35,12.35,0,0,0-1.88-.39,13.57,13.57,0,0,0-3.88-.05,13.68,13.68,0,0,0,3.14,2.29c1.12.61,2.2,1.06,3,1.5a9.39,9.39,0,0,1,2.26,1.92,12.87,12.87,0,0,1,1.91,3l-.45-.38a15.2,15.2,0,0,1-1.48.83,20.26,20.26,0,0,1-4.87,1.58c-1.15.19-2.33.31-3.53.39a2.79,2.79,0,0,0,.44-.92,3.59,3.59,0,0,0-.16-2.17,7.05,7.05,0,0,0-2.47-3,10.06,10.06,0,0,0-3.24-1.62,7.37,7.37,0,0,0-3.65-.16,27.06,27.06,0,0,0,2.61,2.28c.84.66,1.66,1.29,2.48,1.9a23.91,23.91,0,0,1,2.23,1.75,3.42,3.42,0,0,1,.73,1,2.57,2.57,0,0,1,.21,1.56l-.55-.57a51.54,51.54,0,0,1-5.7-.11,44.53,44.53,0,0,1-5.29-.71c-.86-.18-1.77-.37-2.57-.62A13.33,13.33,0,0,1,403,430a20.21,20.21,0,0,1-7.48-7,26.64,26.64,0,0,1-2.43-4.68,31,31,0,0,1-1.51-5.11c-.76-3.52-1.1-7.19-1.72-10.85-.32-1.84-.74-3.63-1.12-5.43s-.78-3.59-1.28-5.39a31.76,31.76,0,0,0-2.07-5.16q-1.17-2.49-2.25-5Q384,384,385,386.57a30.84,30.84,0,0,1,1.72,5.18c.37,1.77.65,3.59.93,5.4s.59,3.63.79,5.43c.43,3.62.62,7.3,1.24,11,0,.15.06.3.08.45a86.81,86.81,0,0,1-8.65,2.58c-21.12,5-43.27,5-64.74,2.68a313.77,313.77,0,0,1-33.11-5.43c.64-3.75,1.29-7.49,2.06-11.2,1.55-7.49,3.48-15,7.19-21.75a48.3,48.3,0,0,0-5.15,10.35,112.65,112.65,0,0,0-3.47,11.07c-1,3.74-1.77,7.52-2.58,11.28l-1.23,5.61c-.22.92-.44,1.85-.7,2.73-.12.46-.28.87-.43,1.28a12,12,0,0,1-.53,1.25,25.54,25.54,0,0,1-2.86,4.7,20.1,20.1,0,0,1-3.79,3.86,14.6,14.6,0,0,1-4.65,2.47,36.13,36.13,0,0,1-5.42,1.12,48,48,0,0,1-8.39.42l-.55.57a2.51,2.51,0,0,1,.21-1.56,3.1,3.1,0,0,1,.73-1,22.31,22.31,0,0,1,2.23-1.76c.82-.61,1.64-1.24,2.48-1.9a28.12,28.12,0,0,0,2.61-2.27,7.41,7.41,0,0,0-3.66.16,9.89,9.89,0,0,0-3.23,1.61,7,7,0,0,0-2.47,3,3.55,3.55,0,0,0-.16,2.18,3,3,0,0,0,.43.9c-.46,0-.93-.05-1.39-.09a22.4,22.4,0,0,1-2.68-.41,19.2,19.2,0,0,1-2.59-.75,14.51,14.51,0,0,1-3.19-1.55l-.47.39a12.58,12.58,0,0,1,1.91-3,9.22,9.22,0,0,1,2.26-1.93c.85-.44,1.93-.89,3.05-1.5a13.63,13.63,0,0,0,3.14-2.28,13.3,13.3,0,0,0-3.89,0,12.49,12.49,0,0,0-1.87.39,8.58,8.58,0,0,0-2,.78,6.57,6.57,0,0,0-2.78,3.36,5.55,5.55,0,0,0-.24,3.09c-.13-.11-.28-.22-.4-.33a4.92,4.92,0,0,1-1.25-1.77l-.14-.48a4.53,4.53,0,0,1-.06-.5,2.09,2.09,0,0,1,.11-.85c.28-1,1.89-1.89,3.59-2.59a22.65,22.65,0,0,0,5.48-2.84,7.08,7.08,0,0,0,1.24-1.36,4.11,4.11,0,0,0,.47-.85c.07-.15.14-.31.19-.45l.12-.39a13.94,13.94,0,0,0,.56-3.13c.15-2,.09-4,.08-5.9s-.05-3.83,0-5.75c0-3.84,0-7.7-.09-11.56a136.91,136.91,0,0,0-2.22-23.1,57.1,57.1,0,0,0-3.4-11.14,22.64,22.64,0,0,0-6.82-9.26,18.3,18.3,0,0,1,3.62,4.42,30,30,0,0,1,2.47,5.14,55.56,55.56,0,0,1,2.69,11.09,153.15,153.15,0,0,1,1.33,22.87c0,3.83-.13,7.66-.2,11.51,0,1.93-.06,3.87-.07,5.79s0,3.69-.15,5.43c-1,0-1.89-.05-2.41,0a154.22,154.22,0,0,1-17.6-.24c-2.76-.22-14.45-.57-15.15-4.64C212.55,409,224.63,407.8,227,406c4.66-3.6-6.25-6.18-8.38-7.39-30.12-17.08-31.37-57.25-28.43-87.67.88-9.14,2.27-18.22,3.91-27.25a377.39,377.39,0,0,1,52.43-133.52c12.28-19.28,26.78-38.3,46.79-50.08.77-.45,1.54-.89,2.32-1.31s1.57-.84,2.36-1.23,1.58-.78,2.39-1.14,1.6-.72,2.41-1.06,1.62-.66,2.44-1,1.64-.6,2.47-.88,1.65-.55,2.49-.8,1.65-.51,2.48-.71a3.27,3.27,0,0,1,.44,0c.33-.34.49-.37.67-.82A32.2,32.2,0,0,0,316,82.4a10,10,0,0,1,.78,8.24l-.85,2.3L318,91.66a13.21,13.21,0,0,0,3.68-3.34,21.53,21.53,0,0,0,2.43-4.23,90.27,90.27,0,0,0,3-8.93c1.32-4.21,2.6-8.43,3.87-12.65a43.27,43.27,0,0,1-3.16,23.55l-3.59,8.08,6.05-6.45a107.76,107.76,0,0,0,9.05-11.24c1.72-2.43,3.38-4.9,5-7.38A68.49,68.49,0,0,1,342.93,78a69.55,69.55,0,0,1-4.67,13.57l-1.65,3.53,3.22-2.15a35.19,35.19,0,0,0,9.72-9.85,36.39,36.39,0,0,1-2.43,7.58l.92.24c1.35.27,2.69.57,4,.91,18.95,4.85,36,15.83,49.81,29.44,15.23,15,25,32.84,34.41,51.76,11.43,23,22.15,46.29,30.8,70.44,8,22.35,15,46,17.25,69.67C486.11,331.73,484.13,351.32,475.18,368Z"/>            </clipPath>        </defs>        <g clip-path="url(#outline)">            <rect fill="#FCD4D4" width="640" height="480" />        </g>    </g>    <g id="pattern">        <g clip-path="url(#outline)">            <path fill="#513E2A" opacity="0"  d="M215,219.54s-7.45,9.69-3.88,19.35C211.13,238.89,218.45,230.11,215,219.54Z"/><path fill="#513E2A" opacity="0"  d="M208.11,258.06S198,271,202.64,284C202.64,284,212.6,272.3,208.11,258.06Z"/><path fill="#513E2A" opacity="0"  d="M228.37,254.42s-8.34,9.82-5.08,20.19C223.29,274.61,231.46,265.73,228.37,254.42Z"/><path fill="#513E2A" opacity="0"  d="M261.15,201.79s-9.82,13.15-4.84,26.08C256.31,227.87,266,215.92,261.15,201.79Z"/><path fill="#513E2A" opacity="0"  d="M218.79,175.19s-6.65,7.75-4.11,16C214.68,191.16,221.19,184.16,218.79,175.19Z"/><path fill="#513E2A" opacity="0"  d="M272.75,265.94s-6.89,12.06-1.38,22.4C271.37,288.34,278.26,277.31,272.75,265.94Z"/><path fill="#513E2A" opacity="0"  d="M255.88,287.12s-8.15,14.25-1.63,26.47C254.25,313.59,262.39,300.56,255.88,287.12Z"/><path fill="#513E2A" opacity="0"  d="M313.3,306.26s-8.14,14.26-1.63,26.48C311.67,332.74,319.82,319.7,313.3,306.26Z"/><path fill="#513E2A" opacity="0"  d="M299.05,224s-8.15,14.26-1.63,26.47C297.42,250.46,305.56,237.43,299.05,224Z"/><path fill="#513E2A" opacity="0"  d="M353,252s-5.58,15.45,2.94,26.36C355.91,278.37,361.69,264.14,353,252Z"/><path fill="#513E2A" opacity="0"  d="M330,261.87s-8.14,14.25-1.63,26.47C328.37,288.34,336.52,275.31,330,261.87Z"/><path fill="#513E2A" opacity="0"  d="M367.51,204.23s-4.46,15.8,4.81,26.08C372.32,230.31,377.08,215.7,367.51,204.23Z"/><path fill="#513E2A" opacity="0"  d="M380.34,255.86s-5.2,15.57,3.59,26.28C383.93,282.14,389.36,267.76,380.34,255.86Z"/><path fill="#513E2A" opacity="0"  d="M350.71,311s-3.51,11.95,3.45,19.83C354.16,330.84,357.88,319.79,350.71,311Z"/><path fill="#513E2A" opacity="0"  d="M410.39,256.28s-5.09,15.61,3.77,26.25C414.16,282.53,419.49,268.12,410.39,256.28Z"/><path fill="#513E2A" opacity="0"  d="M447.22,257.28s-3.82,16,5.86,25.87C453.08,283.15,457.24,268.36,447.22,257.28Z"/><path fill="#513E2A" opacity="0"  d="M426.9,165.55s-4.38,15.83,5,26.06C431.86,191.61,436.53,177,426.9,165.55Z"/><path fill="#513E2A" opacity="0"  d="M402.79,206.68s-3.18,12.48,4.3,20.37C407.09,227.05,410.53,215.49,402.79,206.68Z"/><path fill="#513E2A" opacity="0"  d="M436.39,217.89s-2.63,9.65,3.08,15.87C439.47,233.76,442.29,224.83,436.39,217.89Z"/><path fill="#513E2A" opacity="0"  d="M460,234.58s-2.65,9.65,3,15.88C463.07,250.46,465.91,241.54,460,234.58Z"/><path fill="#513E2A" opacity="0"  d="M332.23,205.55s-6,10.43-1.2,19.36C331,224.91,337,215.38,332.23,205.55Z"/>            <g opacity="0.6" ><path fill="#DDDDDD"  d="M285.16,418.84c2.41-25.61,23.87-48.92,47.26-49.49,24.86-.61,52.32,18.62,54.82,48.11.13,1.49,1.2.46-.05,1.63-1.4,1.32-6.65,1.94-9.64,2.8-14.1,4.06-27.6,4.48-43.78,4.36-16.48-.12-33.16-4.21-48.13-7.41"/></g>        </g>    </g>    <g id="mask">        <g opacity="0.1" ><path d="M484.88,335.07c.24,1.7-3.5,6.77-4.43,8.5-1.82,3.4-3.69,6.77-5.67,10.08a108.4,108.4,0,0,1-13.23,18.12,63.65,63.65,0,0,1-11.06,9.46,60.26,60.26,0,0,1-6.26,3.67,32,32,0,0,1-5.53,2.5c-4,1.16-6.14-2.21-7.32-5.52A39.75,39.75,0,0,1,429,364.34a119.74,119.74,0,0,1,2.55-14.41l-1.94,4.49c-3.07,11.12-4.58,22.55-6,34a4.62,4.62,0,0,0,.27,2.2,3.36,3.36,0,0,0-.88.73c-2.06,2.52-.7,11.1-.82,14.3a.69.69,0,0,0,.1.45c.15.19.45.14.69.08a107.68,107.68,0,0,0,24.46-9.43c9.47-5.3,16.41-12.77,22.8-21.4,3.19-4.31,7.4-8.23,9.2-13.28C482.54,353.36,486.15,344.23,484.88,335.07Z"/></g><g opacity="0.1" ><path d="M250.6,407a21.47,21.47,0,0,1-.65-7.87.68.68,0,0,0,0-.14c-16.91-5.85-31.94-19.16-39.3-35.31-4-8.82-6.13-18.92-6.18-30.43-.13-27.61,3.21-61,10.77-87.25,10.9-37.74,30.59-71.47,52.33-104.44,10.78-16.34,17.62-34.19,32.6-46.79-23.63,13.11-38,28.59-53.17,54.08-14.43,24.28-29.76,53.17-39.75,79.21s-15,53.61-17.25,81.34c-2,24.3-2.41,58.2,14.72,78,10,11.57,21.38,19,39.09,21.26,2.21.28,4.46.59,6.72.91A9.64,9.64,0,0,1,250.6,407Z"/></g><g opacity="0.1" ><path d="M389.41,411.83c-.7-9.29.31-9.54.31-9.54-5.29,1.25-9.81,4.43-15.11,5.67a158.85,158.85,0,0,1-19.42,3c-22,2.28-44.35.82-66.16-2.85-1.82-5.46-1.09-11.68-.06-17.2a70.09,70.09,0,0,1,2.3-7.7l-.25.27c-2.59,2.56-3.34,6.84-4.36,10.24-1.49,4.94-2.88,9.8-3,15a4.86,4.86,0,0,1-.94,2.85c.05,1.1.07,2.22.07,3.34,0,.15,0,.28,0,.43,1.38.31,2.75.62,4.08.94,14.89,5.54,32.72,6.73,47.92,6.85,15.66.13,34.69-1.08,45-4.9,2.86-1.06,9.11-1.62,10.47-3.06C391.39,413.86,389.53,413.44,389.41,411.83Z"/></g>        <g opacity="0.1" ><path fill="#fff"  d="M379.25,102.11c6.05,5.3,10.42,13.69,14.49,20.51,4.46,7.47,8.87,15,13.36,22.41,13,21.71,26.15,43.75,37,66.66a328.37,328.37,0,0,1,23.41,68.9c2.75,12.34,4.9,24.8,6.6,37.33,1.39,10.34,4.07,22.69-2.48,31.88,4.28-6,9.86-10.61,11.35-14.66,5.27-14.38.18-32.18-2.49-46.67C475,259,465,230.59,453.51,202.94c-11.28-27.21-25.53-53.07-44.82-75.49C392.48,108.61,379.47,102.3,379.25,102.11Z"/></g>    </g>    <g id="outline">        <path fill="none"  d="M409.36,124.68l.22-.31c3.88-5.71,5.24-12.8,9.68-18.19,4.6-5.6,12-7.82,16.47-13.52a23.16,23.16,0,0,0,5-13c.25-4.7-1.19-11.93-7.43-8.4-3,1.71-5.32,4.27-8.64,5.79a52.5,52.5,0,0,1-9.31,3.12c-12.4,3.05-33.65,4.52-37.55,19A129.43,129.43,0,0,1,409.36,124.68Z"/><path fill="none"  d="M179.94,333c-3.93-.31-7.8,5.92-3.2,7.61,1.23.45,1.6,2.64,0,2.89q-3.6,1.77-1.2,4.19a1.51,1.51,0,0,1-1.15,2.75,17.19,17.19,0,0,0-4.32-.66c-2.65.09-3.44.25-4.34,2.82-1.56,4.44,2.68,6.57,6.06,8.39,1.39.75.64,2.71-.76,2.8a5.56,5.56,0,0,0,3.79,1.83,5.86,5.86,0,0,0,1.72.19,25.3,25.3,0,0,0,2.61-.1c2.32-.15,4.64-.43,6.95-.65,1.15-.11,2.51-.17,4-.29a109,109,0,0,1-4.25-28.82A9.38,9.38,0,0,0,179.94,333Z"/><path fill="none"  d="M256.06,130.89c3.58-4.65,7.34-9.14,11.33-13.4a116.37,116.37,0,0,1,17.93-15.72,1.19,1.19,0,0,1-.08-.2c-4.8-16.49-22.57-27.9-38.18-17.28-4.87,3.3-9,7.6-14,10.69a25.66,25.66,0,0,1-7.55,3.24c-1.95.47-4.79.76-5.37,3.3-.49,2.13,1.64,4.68,3,6,5.58,5.36,12.86,4.41,19.87,4.45,4,0,8.61.69,10.81,4.53C256.51,121.26,253.75,126.69,256.06,130.89Z"/><path fill="none"  d="M467.09,243.42c-8.65-24.15-19.37-47.49-30.8-70.44-9.42-18.92-19.18-36.8-34.41-51.76C388,107.61,371,96.63,352.07,91.78c-1.34-.34-2.68-.64-4-.91,0,0,0,0,0,0s0,0,0,0l-.92-.24a36.39,36.39,0,0,0,2.43-7.58,35.19,35.19,0,0,1-9.72,9.85l-3.22,2.15,1.65-3.53A69.55,69.55,0,0,0,342.93,78a68.49,68.49,0,0,0,1.46-8.88c-1.63,2.48-3.29,5-5,7.38a107.76,107.76,0,0,1-9.05,11.24l-6.05,6.45,3.59-8.08A43.27,43.27,0,0,0,331,62.51c-1.27,4.22-2.55,8.44-3.87,12.65a90.27,90.27,0,0,1-3,8.93,21.53,21.53,0,0,1-2.43,4.23A13.21,13.21,0,0,1,318,91.66l-2.13,1.28.85-2.3A10,10,0,0,0,316,82.4a32.2,32.2,0,0,1-2.15,8.68c-.18.45-.34.48-.67.82a3.27,3.27,0,0,0-.44,0c-.83.2-1.66.46-2.48.71s-1.67.52-2.49.8-1.65.57-2.47.88-1.63.64-2.44,1-1.62.69-2.41,1.06-1.6.74-2.39,1.14-1.58.8-2.36,1.23-1.55.86-2.32,1.31c-20,11.78-34.51,30.8-46.79,50.08a377.39,377.39,0,0,0-52.43,133.52c-1.64,9-3,18.11-3.91,27.25-2.94,30.42-1.69,70.59,28.43,87.67,2.13,1.21,13,3.79,8.38,7.39-2.4,1.85-14.48,3-13.86,6.68.7,4.07,12.39,4.42,15.15,4.64a154.22,154.22,0,0,0,17.6.24c.52,0,1.44,0,2.41,0,.14-1.74.13-3.58.15-5.43s0-3.86.07-5.79c.07-3.85.18-7.68.2-11.51a153.15,153.15,0,0,0-1.33-22.87,55.56,55.56,0,0,0-2.69-11.09,30,30,0,0,0-2.47-5.14,18.3,18.3,0,0,0-3.62-4.42,22.64,22.64,0,0,1,6.82,9.26,57.1,57.1,0,0,1,3.4,11.14,136.91,136.91,0,0,1,2.22,23.1c.1,3.86.11,7.72.09,11.56,0,1.92,0,3.83,0,5.75s.07,3.86-.08,5.9a13.94,13.94,0,0,1-.56,3.13l-.12.39c0,.14-.12.3-.19.45a4.11,4.11,0,0,1-.47.85,7.08,7.08,0,0,1-1.24,1.36,22.65,22.65,0,0,1-5.48,2.84c-1.7.7-3.31,1.6-3.59,2.59a2.09,2.09,0,0,0-.11.85,4.53,4.53,0,0,0,.06.5l.14.48a4.92,4.92,0,0,0,1.25,1.77c.12.11.27.22.4.33a5.55,5.55,0,0,1,.24-3.09,6.57,6.57,0,0,1,2.78-3.36,8.58,8.58,0,0,1,2-.78,12.49,12.49,0,0,1,1.87-.39,13.3,13.3,0,0,1,3.89,0,13.63,13.63,0,0,1-3.14,2.28c-1.12.61-2.2,1.06-3.05,1.5a9.22,9.22,0,0,0-2.26,1.93,12.58,12.58,0,0,0-1.91,3l.47-.39a14.51,14.51,0,0,0,3.19,1.55,19.2,19.2,0,0,0,2.59.75,22.4,22.4,0,0,0,2.68.41c.46,0,.93.06,1.39.09a3,3,0,0,1-.43-.9,3.55,3.55,0,0,1,.16-2.18,7,7,0,0,1,2.47-3,9.89,9.89,0,0,1,3.23-1.61,7.41,7.41,0,0,1,3.66-.16,28.12,28.12,0,0,1-2.61,2.27c-.84.66-1.66,1.29-2.48,1.9a22.31,22.31,0,0,0-2.23,1.76,3.1,3.1,0,0,0-.73,1,2.51,2.51,0,0,0-.21,1.56l.55-.57a48,48,0,0,0,8.39-.42,36.13,36.13,0,0,0,5.42-1.12,14.6,14.6,0,0,0,4.65-2.47,20.1,20.1,0,0,0,3.79-3.86,25.54,25.54,0,0,0,2.86-4.7,12,12,0,0,0,.53-1.25c.15-.41.31-.82.43-1.28.26-.88.48-1.81.7-2.73l1.23-5.61c.81-3.76,1.62-7.54,2.58-11.28a112.65,112.65,0,0,1,3.47-11.07,48.3,48.3,0,0,1,5.15-10.35c-3.71,6.77-5.64,14.26-7.19,21.75-.77,3.71-1.42,7.45-2.06,11.2a313.77,313.77,0,0,0,33.11,5.43c21.47,2.28,43.62,2.35,64.74-2.68a86.81,86.81,0,0,0,8.65-2.58c0-.15-.06-.3-.08-.45-.62-3.71-.81-7.39-1.24-11-.2-1.8-.51-3.61-.79-5.43s-.56-3.63-.93-5.4a30.84,30.84,0,0,0-1.72-5.18q-1-2.6-1.83-5.21,1.08,2.53,2.25,5a31.76,31.76,0,0,1,2.07,5.16c.5,1.8.88,3.6,1.28,5.39s.8,3.59,1.12,5.43c.62,3.66,1,7.33,1.72,10.85a31,31,0,0,0,1.51,5.11,26.64,26.64,0,0,0,2.43,4.68,20.21,20.21,0,0,0,7.48,7,13.33,13.33,0,0,0,2.34.91c.8.25,1.71.44,2.57.62a44.53,44.53,0,0,0,5.29.71,51.54,51.54,0,0,0,5.7.11l.55.57a2.57,2.57,0,0,0-.21-1.56,3.42,3.42,0,0,0-.73-1,23.91,23.91,0,0,0-2.23-1.75c-.82-.61-1.64-1.24-2.48-1.9a27.06,27.06,0,0,1-2.61-2.28,7.37,7.37,0,0,1,3.65.16,10.06,10.06,0,0,1,3.24,1.62,7.05,7.05,0,0,1,2.47,3,3.59,3.59,0,0,1,.16,2.17,2.79,2.79,0,0,1-.44.92c1.2-.08,2.38-.2,3.53-.39a20.26,20.26,0,0,0,4.87-1.58,15.2,15.2,0,0,0,1.48-.83l.45.38a12.87,12.87,0,0,0-1.91-3,9.39,9.39,0,0,0-2.26-1.92c-.85-.44-1.93-.89-3-1.5a13.68,13.68,0,0,1-3.14-2.29,13.57,13.57,0,0,1,3.88.05,12.35,12.35,0,0,1,1.88.39,8.46,8.46,0,0,1,2,.77,6.61,6.61,0,0,1,2.79,3.37,5.56,5.56,0,0,1,.23,3.12,5.88,5.88,0,0,0,1.29-1.42,3.83,3.83,0,0,0,.58-1.85,2.22,2.22,0,0,0-.12-.84,1.79,1.79,0,0,0-.4-.72c-.79-.94-2.47-1.64-4.13-2.28a21.12,21.12,0,0,1-5.32-2.59,7.85,7.85,0,0,1-1.24-1.21,4.82,4.82,0,0,1-.87-1.72,9.16,9.16,0,0,1-.28-1.57c-.06-.51-.08-1-.1-1.48a108.6,108.6,0,0,1,.45-11.18c.28-3.68.67-7.35,1.12-11,.89-7.32,2-14.61,3.49-21.84.76-3.61,1.59-7.21,2.61-10.76a54,54,0,0,1,1.74-5.26,23,23,0,0,1,1.16-2.52,7.34,7.34,0,0,1,1.66-2.2,7.31,7.31,0,0,0-1.46,2.3,23.21,23.21,0,0,0-.94,2.57c-.55,1.74-1,3.52-1.4,5.3-.79,3.58-1.4,7.2-1.93,10.82-1.1,7.25-1.92,14.54-2.61,21.84q-.48,5.47-.83,10.95c-.19,3.41-.36,6.86-.24,10.19,5.42.86,11.33.44,16.68.28a155.32,155.32,0,0,0,19.15-1.45c2.36-.37,3.95,0,2.58-2.3-1.61-2.7-4-4-6.92-5-2.42-.82-9.31-1-10.72-3.45-.77-1.34.08-2.05,1-2.94,1.35-1.35,4-2.21,5.6-3.24q3-1.89,5.8-4A69.64,69.64,0,0,0,475.18,368c8.95-16.71,10.93-36.3,9.16-54.94C482.1,289.37,475.09,265.77,467.09,243.42Z"/><path stroke-linejoin="round" stroke-width="0" fill="none" stroke="#000" stroke-linecap="round"  d="M348,90.87s0,0,0,0"/><path d="M480.3,275.92c-6.47-25.07-15.82-49.32-26.42-72.92-5.39-12-11.13-23.86-17-35.62-5.06-10.06-10.07-20.08-16.63-29.27-2.75-3.84-5.69-7.57-8.8-11.14.13-.17.25-.33.35-.48,2.49-3.51,3.93-7.57,5.73-11.44a28.12,28.12,0,0,1,10.76-12.48c6.76-4.45,12.3-9.21,14.54-17.33,1.5-5.45,2.06-15-4-18.06a5.55,5.55,0,0,0-5.86.48c-2.25,1.46-4,3.55-6.33,5a36.61,36.61,0,0,1-8.22,3.57C404.41,80.52,380,81.26,375,97.62a98.55,98.55,0,0,0-25.75-9.51,36.22,36.22,0,0,0,2.36-8.77l.55-4-2,3.58a34,34,0,0,1-6.46,8.23l-1.1-.16a68.74,68.74,0,0,0,2.76-8.4,71.13,71.13,0,0,0,2.13-14.73l.19-4.94L345,63c-2.64,3.95-5.22,7.91-8,11.73q-1.9,2.64-3.93,5.17a45.2,45.2,0,0,0-.47-23.32l-1.34-4.53L330,56.59c-1.7,6-3.41,11.93-5.06,17.91a89.68,89.68,0,0,1-2.71,8.77,19.91,19.91,0,0,1-2,3.91v0l-1.26.19A11.15,11.15,0,0,0,316,80.18L314.85,79v1.58a30.85,30.85,0,0,1-1,7.87,84.44,84.44,0,0,0-26,11.59C284.21,88.31,274.53,78.18,261.83,77c-13.2-1.29-20.64,9.82-30.88,15.78-3,1.77-6,2.23-9.26,3.1A5.67,5.67,0,0,0,217.63,99c-2,4.44,1.46,9.34,4.87,11.91,4.16,3.14,9.5,4.31,14.64,4.26,2.79,0,5.61-.44,8.4-.12,2.52.29,5.07,1.35,6.07,4,.83,2.17.08,4.86.1,7.13a11.59,11.59,0,0,0,2.42,7.32c-10.31,13.85-19,29-26.88,44.21a379.37,379.37,0,0,0-27.51,69.12q-5.15,17.82-8.5,36.07c-2.79,15.33-5.49,32.51-5.48,49.41-3.72-2.54-8.2-4-12.2-.58-2.79,2.39-2.37,7.22-.06,10a5.38,5.38,0,0,0-1.69,5.23c-3.61-.43-7.46,0-9.28,3.49-2.71,5.25,1.78,9.52,6,12.14a3.61,3.61,0,0,0,.25,2.72c1.64,3.43,6.51,3.63,9.74,3.47a113.36,113.36,0,0,0,12.57-.79,73.09,73.09,0,0,0,7.11,15,53,53,0,0,0,21.65,19.67c.46.23,2,1.13,3.25,1.71-.13.05-.23.1-.31.12-1.78.63-3.6,1.17-5.38,1.82-3.43,1.25-9.09,3.22-6.81,8,1.87,3.92,8,4.81,11.7,5.39a118.06,118.06,0,0,0,20,1c1.44,0,3.43.1,5.42.05a3.08,3.08,0,0,1-.28.54,4.13,4.13,0,0,1-.71.75,20.47,20.47,0,0,1-4.78,2.37,16.94,16.94,0,0,0-2.81,1.43,5.83,5.83,0,0,0-2.43,2.87,6.55,6.55,0,0,0,2.08,6.77,12.4,12.4,0,0,0,2.66,1.88,18.93,18.93,0,0,0,2.86,1.25,23.52,23.52,0,0,0,2.95.83,27.38,27.38,0,0,0,3,.45,49,49,0,0,0,11.85-.35,37.34,37.34,0,0,0,5.85-1.33,17.25,17.25,0,0,0,5.43-3,25.15,25.15,0,0,0,7.16-9.66,18.28,18.28,0,0,0,1-2.89c.26-1,.45-1.92.65-2.88s.37-1.91.55-2.86c22.29,4.82,45.23,7.67,68.05,6.76a160.29,160.29,0,0,0,32.56-4.43q3.58-.9,7.11-2a28.5,28.5,0,0,0,3.11,7.11,21.71,21.71,0,0,0,8.25,8.08,15.26,15.26,0,0,0,2.77,1.15c.95.31,1.84.51,2.78.72a48.1,48.1,0,0,0,5.61.87,45.76,45.76,0,0,0,11.38-.31A23.06,23.06,0,0,0,430,433a14.37,14.37,0,0,0,2.62-1.56,8.74,8.74,0,0,0,2.25-2.39,6.87,6.87,0,0,0,1-3.36,5.19,5.19,0,0,0-1.23-3.53,8.19,8.19,0,0,0-2.68-2,27.2,27.2,0,0,0-2.68-1.14,19.2,19.2,0,0,1-4.59-2.14,4.54,4.54,0,0,1-.74-.7,1.83,1.83,0,0,1-.37-.72l0-.12.83.08a142.39,142.39,0,0,0,20.86,0c5.57-.29,11.91-.22,17.3-1.84,3.77-1.14,2.9-4.87.85-7.65-3.27-4.43-9.45-5.46-14.45-6.64l-.43-.13c.93-.57,1.95-1.32,2.33-1.55a76.58,76.58,0,0,0,11.86-8.78c14-12.68,21.83-30.36,24.29-48.89C489.82,318.43,485.68,296.74,480.3,275.92Zm-65-195.79A52.5,52.5,0,0,0,424.64,77c3.32-1.52,5.61-4.08,8.64-5.79,6.24-3.53,7.68,3.7,7.43,8.4a23.16,23.16,0,0,1-5,13c-4.51,5.7-11.87,7.92-16.47,13.52-4.44,5.39-5.8,12.48-9.68,18.19l-.22.31a129.43,129.43,0,0,0-31.58-25.56C381.68,84.65,402.93,83.18,415.33,80.13ZM253.78,116.48C251.58,112.64,247,112,243,112c-7,0-14.29.91-19.87-4.45-1.35-1.3-3.48-3.85-3-6,.58-2.54,3.42-2.83,5.37-3.3A25.66,25.66,0,0,0,233,95c5-3.09,9.16-7.39,14-10.69,15.61-10.62,33.38.79,38.18,17.28a1.19,1.19,0,0,0,.08.2,116.37,116.37,0,0,0-17.93,15.72c-4,4.26-7.75,8.75-11.33,13.4C253.75,126.69,256.51,121.26,253.78,116.48ZM186.1,365c-2.31.22-4.63.5-6.95.65a25.3,25.3,0,0,1-2.61.1,5.86,5.86,0,0,1-1.72-.19,5.56,5.56,0,0,1-3.79-1.83c1.4-.09,2.15-2.05.76-2.8-3.38-1.82-7.62-3.95-6.06-8.39.9-2.57,1.69-2.73,4.34-2.82a17.19,17.19,0,0,1,4.32.66,1.51,1.51,0,0,0,1.15-2.75q-2.4-2.42,1.2-4.19c1.6-.25,1.23-2.44,0-2.89-4.6-1.69-.73-7.92,3.2-7.61a9.38,9.38,0,0,1,5.86,2.95,109,109,0,0,0,4.25,28.82C188.61,364.86,187.25,364.92,186.1,365Zm289.08,3a69.64,69.64,0,0,1-18.8,22.19q-2.81,2.16-5.8,4c-1.64,1-4.25,1.89-5.6,3.24-.89.89-1.74,1.6-1,2.94,1.41,2.49,8.3,2.63,10.72,3.45,2.94,1,5.31,2.32,6.92,5,1.37,2.3-.22,1.93-2.58,2.3a155.32,155.32,0,0,1-19.15,1.45c-5.35.16-11.26.58-16.68-.28-.12-3.33.05-6.78.24-10.19q.34-5.47.83-10.95c.69-7.3,1.51-14.59,2.61-21.84.53-3.62,1.14-7.24,1.93-10.82.39-1.78.85-3.56,1.4-5.3a23.21,23.21,0,0,1,.94-2.57,7.31,7.31,0,0,1,1.46-2.3,7.34,7.34,0,0,0-1.66,2.2,23,23,0,0,0-1.16,2.52,54,54,0,0,0-1.74,5.26c-1,3.55-1.85,7.15-2.61,10.76-1.46,7.23-2.6,14.52-3.49,21.84-.45,3.66-.84,7.33-1.12,11a108.6,108.6,0,0,0-.45,11.18c0,.48,0,1,.1,1.48a9.16,9.16,0,0,0,.28,1.57,4.82,4.82,0,0,0,.87,1.72,7.85,7.85,0,0,0,1.24,1.21,21.12,21.12,0,0,0,5.32,2.59c1.66.64,3.34,1.34,4.13,2.28a1.79,1.79,0,0,1,.4.72,2.22,2.22,0,0,1,.12.84,3.83,3.83,0,0,1-.58,1.85,5.88,5.88,0,0,1-1.29,1.42,5.56,5.56,0,0,0-.23-3.12,6.61,6.61,0,0,0-2.79-3.37,8.46,8.46,0,0,0-2-.77,12.35,12.35,0,0,0-1.88-.39,13.57,13.57,0,0,0-3.88-.05,13.68,13.68,0,0,0,3.14,2.29c1.12.61,2.2,1.06,3,1.5a9.39,9.39,0,0,1,2.26,1.92,12.87,12.87,0,0,1,1.91,3l-.45-.38a15.2,15.2,0,0,1-1.48.83,20.26,20.26,0,0,1-4.87,1.58c-1.15.19-2.33.31-3.53.39a2.79,2.79,0,0,0,.44-.92,3.59,3.59,0,0,0-.16-2.17,7.05,7.05,0,0,0-2.47-3,10.06,10.06,0,0,0-3.24-1.62,7.37,7.37,0,0,0-3.65-.16,27.06,27.06,0,0,0,2.61,2.28c.84.66,1.66,1.29,2.48,1.9a23.91,23.91,0,0,1,2.23,1.75,3.42,3.42,0,0,1,.73,1,2.57,2.57,0,0,1,.21,1.56l-.55-.57a51.54,51.54,0,0,1-5.7-.11,44.53,44.53,0,0,1-5.29-.71c-.86-.18-1.77-.37-2.57-.62A13.33,13.33,0,0,1,403,430a20.21,20.21,0,0,1-7.48-7,26.64,26.64,0,0,1-2.43-4.68,31,31,0,0,1-1.51-5.11c-.76-3.52-1.1-7.19-1.72-10.85-.32-1.84-.74-3.63-1.12-5.43s-.78-3.59-1.28-5.39a31.76,31.76,0,0,0-2.07-5.16q-1.17-2.49-2.25-5Q384,384,385,386.57a30.84,30.84,0,0,1,1.72,5.18c.37,1.77.65,3.59.93,5.4s.59,3.63.79,5.43c.43,3.62.62,7.3,1.24,11,0,.15.06.3.08.45a86.81,86.81,0,0,1-8.65,2.58c-21.12,5-43.27,5-64.74,2.68a313.77,313.77,0,0,1-33.11-5.43c.64-3.75,1.29-7.49,2.06-11.2,1.55-7.49,3.48-15,7.19-21.75a48.3,48.3,0,0,0-5.15,10.35,112.65,112.65,0,0,0-3.47,11.07c-1,3.74-1.77,7.52-2.58,11.28l-1.23,5.61c-.22.92-.44,1.85-.7,2.73-.12.46-.28.87-.43,1.28a12,12,0,0,1-.53,1.25,25.54,25.54,0,0,1-2.86,4.7,20.1,20.1,0,0,1-3.79,3.86,14.6,14.6,0,0,1-4.65,2.47,36.13,36.13,0,0,1-5.42,1.12,48,48,0,0,1-8.39.42l-.55.57a2.51,2.51,0,0,1,.21-1.56,3.1,3.1,0,0,1,.73-1,22.31,22.31,0,0,1,2.23-1.76c.82-.61,1.64-1.24,2.48-1.9a28.12,28.12,0,0,0,2.61-2.27,7.41,7.41,0,0,0-3.66.16,9.89,9.89,0,0,0-3.23,1.61,7,7,0,0,0-2.47,3,3.55,3.55,0,0,0-.16,2.18,3,3,0,0,0,.43.9c-.46,0-.93-.05-1.39-.09a22.4,22.4,0,0,1-2.68-.41,19.2,19.2,0,0,1-2.59-.75,14.51,14.51,0,0,1-3.19-1.55l-.47.39a12.58,12.58,0,0,1,1.91-3,9.22,9.22,0,0,1,2.26-1.93c.85-.44,1.93-.89,3.05-1.5a13.63,13.63,0,0,0,3.14-2.28,13.3,13.3,0,0,0-3.89,0,12.49,12.49,0,0,0-1.87.39,8.58,8.58,0,0,0-2,.78,6.57,6.57,0,0,0-2.78,3.36,5.55,5.55,0,0,0-.24,3.09c-.13-.11-.28-.22-.4-.33a4.92,4.92,0,0,1-1.25-1.77l-.14-.48a4.53,4.53,0,0,1-.06-.5,2.09,2.09,0,0,1,.11-.85c.28-1,1.89-1.89,3.59-2.59a22.65,22.65,0,0,0,5.48-2.84,7.08,7.08,0,0,0,1.24-1.36,4.11,4.11,0,0,0,.47-.85c.07-.15.14-.31.19-.45l.12-.39a13.94,13.94,0,0,0,.56-3.13c.15-2,.09-4,.08-5.9s-.05-3.83,0-5.75c0-3.84,0-7.7-.09-11.56a136.91,136.91,0,0,0-2.22-23.1,57.1,57.1,0,0,0-3.4-11.14,22.64,22.64,0,0,0-6.82-9.26,18.3,18.3,0,0,1,3.62,4.42,30,30,0,0,1,2.47,5.14,55.56,55.56,0,0,1,2.69,11.09,153.15,153.15,0,0,1,1.33,22.87c0,3.83-.13,7.66-.2,11.51,0,1.93-.06,3.87-.07,5.79s0,3.69-.15,5.43c-1,0-1.89-.05-2.41,0a154.22,154.22,0,0,1-17.6-.24c-2.76-.22-14.45-.57-15.15-4.64C212.55,409,224.63,407.8,227,406c4.66-3.6-6.25-6.18-8.38-7.39-30.12-17.08-31.37-57.25-28.43-87.67.88-9.14,2.27-18.22,3.91-27.25a377.39,377.39,0,0,1,52.43-133.52c12.28-19.28,26.78-38.3,46.79-50.08.77-.45,1.54-.89,2.32-1.31s1.57-.84,2.36-1.23,1.58-.78,2.39-1.14,1.6-.72,2.41-1.06,1.62-.66,2.44-1,1.64-.6,2.47-.88,1.65-.55,2.49-.8,1.65-.51,2.48-.71a3.27,3.27,0,0,1,.44,0c.33-.34.49-.37.67-.82A32.2,32.2,0,0,0,316,82.4a10,10,0,0,1,.78,8.24l-.85,2.3L318,91.66a13.21,13.21,0,0,0,3.68-3.34,21.53,21.53,0,0,0,2.43-4.23,90.27,90.27,0,0,0,3-8.93c1.32-4.21,2.6-8.43,3.87-12.65a43.27,43.27,0,0,1-3.16,23.55l-3.59,8.08,6.05-6.45a107.76,107.76,0,0,0,9.05-11.24c1.72-2.43,3.38-4.9,5-7.38A68.49,68.49,0,0,1,342.93,78a69.55,69.55,0,0,1-4.67,13.57l-1.65,3.53,3.22-2.15a35.19,35.19,0,0,0,9.72-9.85,36.39,36.39,0,0,1-2.43,7.58l.92.24c1.35.27,2.69.57,4,.91,18.95,4.85,36,15.83,49.81,29.44,15.23,15,25,32.84,34.41,51.76,11.43,23,22.15,46.29,30.8,70.44,8,22.35,15,46,17.25,69.67C486.11,331.73,484.13,351.32,475.18,368Z"/>    </g>    <g id="eye">        <g id="eye-color1">            <g opacity="0" ><path fill="#FCD4D4"  d="M284,132c-.14.46-.21.94-.36,1.4a15.33,15.33,0,0,1-1.35,2.87c-.52.94-1,1.89-1.54,2.83-.24.41-.5.8-.77,1.2-.14.2-.28.41-.43.61s-.45.47-.45.6l-.6.74c-5.88,7-13.9,9.8-22.69,6.54-8.54-3.18-14.21-10.41-14.65-19.54a1.27,1.27,0,0,1,0-.28,1,1,0,0,1,0-.3,23.29,23.29,0,0,1,19-21.81,18.93,18.93,0,0,1,11.42,1.35c-15.29-7.7-34.35-2.93-39.29,15.33a20.54,20.54,0,0,0-.66,6.53,29.36,29.36,0,0,0,10.48,20.24c8.59,7.08,21.5,6.67,31,1.76,7.19-3.69,10-12.6,10.92-20.45C284.09,131.73,284.05,131.85,284,132Z"/></g><g opacity="0" ><path fill="#FCD4D4"  d="M407.76,125.92c-.24.62-.44,1.25-.69,1.86a25.27,25.27,0,0,1-2,3.66,30.31,30.31,0,0,1-2.53,3.43c-5.89,7-13.91,9.8-22.7,6.54-8.53-3.18-14.2-10.41-14.65-19.54a2.46,2.46,0,0,1,0-.28,2.66,2.66,0,0,1,0-.3,23.3,23.3,0,0,1,19-21.81,19,19,0,0,1,11.42,1.35c-15.3-7.7-34.36-2.93-39.3,15.33a20.83,20.83,0,0,0-.66,6.53,29.4,29.4,0,0,0,10.48,20.24c8.59,7.08,21.5,6.67,31,1.77,6.91-3.55,9.73-12,10.77-19.66C407.93,125.29,407.86,125.67,407.76,125.92Z"/></g>        </g>        <g id="eye-shape">            <path d="M220.75,186a1.18,1.18,0,0,0,1.6.57,1.45,1.45,0,0,0,.22-.09l.13-.05c5-2.07,10.08-4.56,15.26-6.22,3.31-1.06,3.64.38,5.91,2.67a44.14,44.14,0,0,0,4.66,4.09,36.62,36.62,0,0,0,21.08,7.5A40.09,40.09,0,0,0,302.52,178a47.31,47.31,0,0,0,8.57-21.65c.17-1.32-.41-5.8,0-6.7.49-1.08,5.79-2.53,7-3.07q6.13-2.68,12.24-5.42c14.58-6.53,28.85-13.74,43.36-20.39-12.56,12.13-13.22,31.28-7.45,47,5.88,16,19.05,32.15,37.53,32.1,19.25,0,36.3-15.42,41.63-33.35a41.26,41.26,0,0,0-.64-25.69c-4.67-12.92-14.66-21.38-27.25-26.38a56,56,0,0,0-15.7-3.82,35.23,35.23,0,0,0-11.07.8,6.64,6.64,0,0,0,1.47-2.13c.82-1.43-2.23-5.33-4.37-6.75-1.28-.85-2.49-1.72-3.74-2.59-1.45-1-3.4-2.08-5.13-1l-.48.29c-.63.34,1.27-.77.66-.38l-.42.26-.07.06-.41.25c-1.09.66-1.19.81-2.29,1.45q-6.74,3.94-13.64,7.6t-13.91,7.07q-7,3.43-14.12,6.66T320,128.51l-7.17,3.08-3.6,1.53-1.8.76-.68.29a47.33,47.33,0,0,0-23.92-20c-10.67-4-21.54-2.34-32,1.64-8.55,3.27-16.29,8.76-19.73,17.55-4.18,10.7-2.3,22.95,2,33.34-2.1.79-5.22,1.8-6.39,3.05-.86.91-1,2.44-1.5,3.6-1.53,3.81-3.67,7.41-4.75,11.39A1.37,1.37,0,0,0,220.75,186Zm177.69,10.38a27.23,27.23,0,0,1-3-.76c-15.37-4.81-25.15-21.23-28.48-36.16-3.52-15.83.68-32.76,15.31-41.4,7.82-4.63,16.25-5.48,25.07-3.61a57.25,57.25,0,0,1,13.79,4.85c2.73,1.38,5.12,3.33,7.81,4.73,15.12,11.6,19.3,31.46,10.93,48.47A46.83,46.83,0,0,1,420,192.85C413.3,196.3,405.84,197.86,398.44,196.39Z"/><path fill="none"  d="M420,192.85c-6.65,3.45-14.11,5-21.51,3.54A34.2,34.2,0,0,0,420,192.85Z"/><path fill="#fff"  d="M420,192.85a46.83,46.83,0,0,0,19.9-20.34c8.37-17,4.19-36.87-10.93-48.47-2.69-1.4-5.08-3.35-7.81-4.73a57.25,57.25,0,0,0-13.79-4.85c-8.82-1.87-17.25-1-25.07,3.61-14.63,8.64-18.83,25.57-15.31,41.4,3.33,14.93,13.11,31.35,28.48,36.16a27.23,27.23,0,0,0,3,.76A34.2,34.2,0,0,0,420,192.85Zm-26.34-15.24c-11.38.59-16.79-10.33-18.41-20.36a44.34,44.34,0,0,1-.51-5c-.3-7.3,2.38-13.24,7.29-16.52a9,9,0,0,0-.43,3.91c.41,4.09,2.62,8.82,7.42,8.37,4.1-.38,7.16-3.89,7.81-7.77a1.5,1.5,0,0,0,.07-.44,1.39,1.39,0,0,0,0-.46,7.59,7.59,0,0,0-3.6-6.3c.26,0,.52,0,.78,0,12.33,1.17,22.05,8.79,21.92,21.78a1.93,1.93,0,0,1,0,.34,1.74,1.74,0,0,1-.05.34C414.59,166.59,405.14,177,393.61,177.61Z"/><path fill="#212121"  d="M229.91,170.54c1.58-1.22,4.13-1.9,6-2.73.8-.37.84-.37.54-1.06-4.54-10.3-6.81-23.53-1.64-34.07,3.81-7.77,11.52-12.22,19.46-14.87,9.27-3.09,18.49-4.27,27.86-.75a44.26,44.26,0,0,1,22.77,19.75,1.52,1.52,0,0,0,1.69.69c26.57-11.17,51.35-21.56,76-36.52a8.79,8.79,0,0,1-.83.5c.41.33.86.74,1.38,1.23,2.39,2.25,6.5,5.47,6.5,5.47-1.56,2.89-5.24,4.51-8.1,5.84-7.2,3.33-14.36,6.75-21.52,10.17q-25.26,12.06-51,23.12a1.43,1.43,0,0,0-.74,1.29c1,17-8.77,35.27-24.92,41.48-15.64,6-31.17-.05-41.29-12.78a1.45,1.45,0,0,0-1.46-.39c-5.4,2.21-11.8,4.41-17.2,6.61,1-2.47,2.25-5.85,3.28-8.3A12.85,12.85,0,0,1,229.91,170.54Z"/><path d="M375.2,157.25a44.34,44.34,0,0,1-.51-5c-.3-7.3,2.38-13.24,7.29-16.52a9,9,0,0,0-.43,3.91c.41,4.09,2.62,8.82,7.42,8.37,4.1-.38,7.16-3.89,7.81-7.77a1.5,1.5,0,0,0,.07-.44,1.39,1.39,0,0,0,0-.46,7.59,7.59,0,0,0-3.6-6.3c.26,0,.52,0,.78,0,12.33,1.17,22.05,8.79,21.92,21.78a1.93,1.93,0,0,1,0,.34,1.74,1.74,0,0,1-.05.34c-1.29,11-10.74,21.44-22.27,22S376.82,167.28,375.2,157.25Z"/>        </g>        <g id="eye-color2">            <path fill="#6C29FF"  d="M393.5,177.61c11.53-.6,21-11,22.27-22a1.22,1.22,0,0,0,0-.34,1,1,0,0,0,0-.34c.14-13-9.58-20.61-21.91-21.78-.27,0-.52,0-.79,0L393,133c1.07.65,5.12-.1,6.52,0a40.67,40.67,0,0,1,7.18,1.22,32,32,0,0,1,12.74,6.42c17.28,14.9,1.45,40.58-18,42.56-9.1.92-17.64-3-21.82-11.29a44.28,44.28,0,0,1-4.49-14.67C376.71,167.28,382.12,178.2,393.5,177.61Z"/>        </g>    </g>    <g id="nose-mouth">        <path fill="none"  d="M409,275.37h0Z"/><path fill="none"  d="M394.78,308.82l0,.08s0,0,0-.07Z"/><path fill="#e8d3b3"  d="M361.93,304.22a40.62,40.62,0,0,1,3.69,9.25,32.5,32.5,0,0,1,1.09,10,28.16,28.16,0,0,1-1.22,7c.94-.4,1.88-.84,2.78-1.31a33.14,33.14,0,0,0,5.12-3.27,32.58,32.58,0,0,0,8-9.07,36.91,36.91,0,0,0,4.43-11.47,60.07,60.07,0,0,0,1.23-12.54,44.83,44.83,0,0,1,.64,8.36,21.71,21.71,0,0,1,4.89,4.1,12.15,12.15,0,0,1,1.77,2.62l.08-.11a25.11,25.11,0,0,0,2.45-5.9,40.39,40.39,0,0,0,1.32-6.67c-.26-.49-.54-1-.85-1.46a15.93,15.93,0,0,1,2.55,2.93,25.91,25.91,0,0,1,1.88,3.43,35.8,35.8,0,0,1,1.36,3.67c0,.12.07.25.11.38l.71-1.45c.57-1.54,1.32-3,1.84-4.55a49.08,49.08,0,0,0,2.38-9.42,37.41,37.41,0,0,0,.06-9.69,29,29,0,0,0-2.85-9.46,19.44,19.44,0,0,1,3.58,5.76h0a21.12,21.12,0,0,1,3.61.54,34.7,34.7,0,0,1,4.56,1.49,45.09,45.09,0,0,1,4.33,2.05c.53.28,1,.59,1.55.89a48.63,48.63,0,0,0-1-5.12,32.4,32.4,0,0,0-2.83-7.41,28.07,28.07,0,0,0-2.14-3.33,24.78,24.78,0,0,0-2.68-2.94,21.28,21.28,0,0,0-6.89-4.32,16.48,16.48,0,0,1,8,3c.41.28.8.6,1.19.91.73-.13,1.46-.27,2.19-.35a29.66,29.66,0,0,1,3-.23,32,32,0,0,1,6,.33,31.13,31.13,0,0,1,5.9,1.43,27.11,27.11,0,0,1,2.8,1.1,49.94,49.94,0,0,0-8.27-13.81,45.43,45.43,0,0,0-6.88-6.56c-1.23-1-2.56-1.88-3.88-2.77s-2.73-1.64-4.16-2.35a68.43,68.43,0,0,0-18.19-6.23,94.94,94.94,0,0,0-14-1.74c-.27,1.15-.58,2.32-1,3.5-6.48,19.83-28.21,40.19-43.87,41.1-.52,0-1,.05-1.58.05-15.46,0-37.36-12.51-48.72-28.07a44.82,44.82,0,0,1-5.42-9.56,117.07,117.07,0,0,0-12.57,4.44,72.2,72.2,0,0,0-17.07,9.82,37.91,37.91,0,0,0-6.84,6.85,30.84,30.84,0,0,0-4.65,8.32,29.93,29.93,0,0,0-1.58,9.35l.05,2.4.28,2.39c.05.39.09.8.15,1.19l0,.23c.21-.28.42-.54.64-.81a21.72,21.72,0,0,1,3.33-3.24,16.6,16.6,0,0,1,4.09-2.35,14.57,14.57,0,0,1,4.65-1l1.45-.1-.17,1.45a37.19,37.19,0,0,0-.17,5.5,39,39,0,0,0,.61,5.51,25.27,25.27,0,0,0,1.6,5.25,18.45,18.45,0,0,0,2.08,3.43,17.92,17.92,0,0,1,.25-1.79,16.23,16.23,0,0,1,.95-3.21,11.64,11.64,0,0,1,1.72-2.85,8.87,8.87,0,0,1,2.61-2,2.83,2.83,0,0,0-.28.2,6.31,6.31,0,0,1,.63-.34,36.56,36.56,0,0,1,2.68-11.74,33.12,33.12,0,0,0-1.37,5.87,40.24,40.24,0,0,0-.49,6A39.29,39.29,0,0,0,265,297.51a36.32,36.32,0,0,0,2.11,5.54,39,39,0,0,0,2.9,5.16,47.12,47.12,0,0,0,5.71,7c.05-.86.13-1.72.25-2.58a34.78,34.78,0,0,1,1.1-5.31,26.28,26.28,0,0,1,2.05-5.1,19.57,19.57,0,0,1,3.31-4.53l2.47-2.52-.06,3.61a49,49,0,0,0,1.27,11.65,39.22,39.22,0,0,0,4.19,10.88,27.7,27.7,0,0,0,7.58,8.6,28.51,28.51,0,0,0,8.75,4.28c0-1.59,0-3.16.09-4.74.11-2.21.3-4.41.61-6.61a43.94,43.94,0,0,1,1.4-6.55,19,19,0,0,1,3.05-6.21l.76-.94.82.83a34.91,34.91,0,0,1,5.28,6.85,22.78,22.78,0,0,1,1.84,4,13.07,13.07,0,0,1,.71,3.59,7.92,7.92,0,0,0,1.57-.42,9.2,9.2,0,0,0,2.13-1.21,11.72,11.72,0,0,0,3.17-3.86,20.71,20.71,0,0,0,1.78-4.83,31.93,31.93,0,0,0,.77-4.26c-.2-.21-.39-.44-.6-.65a44,44,0,0,0-5.45-4.79,28.47,28.47,0,0,1,6.37,3.76,29.39,29.39,0,0,1,5.32,5.31,23.53,23.53,0,0,1,3.69,6.7l.61,1.84c.15.64.26,1.28.38,1.91.06.32.13.64.17,1l0,.46a47.6,47.6,0,0,0,10.8-8.76l1.32-1.55c.42-.53.79-1.09,1.19-1.64a13.37,13.37,0,0,0,1.12-1.69,16.56,16.56,0,0,0,1-1.78l.89-1.85c.29-.62.46-1.29.71-1.93l.36-1c.1-.33.16-.67.24-1l.05-.21a25.18,25.18,0,0,0,.43-2.53,53.33,53.33,0,0,0-2.91-5.28A41.71,41.71,0,0,1,361.93,304.22Z"/><path d="M439.85,265.47a51.39,51.39,0,0,0-3.7-9.35,50,50,0,0,0-2.51-4.38c-.45-.72-1-1.38-1.47-2.07l-.75-1-.82-1a44,44,0,0,0-7.28-7,49.11,49.11,0,0,0-8.58-5.33,62.39,62.39,0,0,0-9.38-3.61,71,71,0,0,0-9.78-2,72.93,72.93,0,0,0-14.16-.5c2.2-10.25-.35-18.92-7.37-24.72-14.57-12-41.79-12-62.29-6.63C295.08,202.2,283.21,209.76,280,218c-2.18,5.64-2,11.82.43,18.22a95.82,95.82,0,0,0-12.92,3.55,67.55,67.55,0,0,0-18.06,9.34,36.16,36.16,0,0,0-12.67,16.21A30.68,30.68,0,0,0,235,275.7l.07,2.62.33,2.59c.06.43.1.86.18,1.29l.29,1.27.57,2.53.88,3.81,1.82-3.57a21.91,21.91,0,0,1,2.19-3.36,19.35,19.35,0,0,1,2.82-2.9,13.82,13.82,0,0,1,3.38-2.05,10.7,10.7,0,0,1,2.46-.73,41.58,41.58,0,0,0,.13,4.33,34.67,34.67,0,0,0,.92,5.8,27.07,27.07,0,0,0,2,5.53,18,18,0,0,0,3.62,4.7l1.12,1-.11-1.5a18.53,18.53,0,0,1,.08-3.15,15.76,15.76,0,0,1,.64-3.11,11.83,11.83,0,0,1,1.37-2.87,8.74,8.74,0,0,1,2.05-2,2.83,2.83,0,0,1,.28-.2,8.87,8.87,0,0,0-2.61,2,11.64,11.64,0,0,0-1.72,2.85,16.23,16.23,0,0,0-.95,3.21,17.92,17.92,0,0,0-.25,1.79,18.45,18.45,0,0,1-2.08-3.43,25.27,25.27,0,0,1-1.6-5.25,39,39,0,0,1-.61-5.51,37.19,37.19,0,0,1,.17-5.5l.17-1.45-1.45.1a14.57,14.57,0,0,0-4.65,1,16.6,16.6,0,0,0-4.09,2.35,21.72,21.72,0,0,0-3.33,3.24c-.22.27-.43.53-.64.81l0-.23c-.06-.39-.1-.8-.15-1.19l-.28-2.39-.05-2.4a29.93,29.93,0,0,1,1.58-9.35,30.84,30.84,0,0,1,4.65-8.32,37.91,37.91,0,0,1,6.84-6.85,72.2,72.2,0,0,1,17.07-9.82,117.07,117.07,0,0,1,12.57-4.44,44.82,44.82,0,0,0,5.42,9.56c11.36,15.56,33.26,28.07,48.72,28.07.54,0,1.06,0,1.58-.05,15.66-.91,37.39-21.27,43.87-41.1.39-1.18.7-2.35,1-3.5a94.94,94.94,0,0,1,14,1.74,68.43,68.43,0,0,1,18.19,6.23c1.43.71,2.79,1.54,4.16,2.35s2.65,1.77,3.88,2.77a45.43,45.43,0,0,1,6.88,6.56,49.94,49.94,0,0,1,8.27,13.81,27.11,27.11,0,0,0-2.8-1.1,31.13,31.13,0,0,0-5.9-1.43,32,32,0,0,0-6-.33,29.66,29.66,0,0,0-3,.23c-.73.08-1.46.22-2.19.35-.39-.31-.78-.63-1.19-.91a16.48,16.48,0,0,0-8-3,21.28,21.28,0,0,1,6.89,4.32,24.78,24.78,0,0,1,2.68,2.94,28.07,28.07,0,0,1,2.14,3.33,32.4,32.4,0,0,1,2.83,7.41,48.63,48.63,0,0,1,1,5.12c-.51-.3-1-.61-1.55-.89a45.09,45.09,0,0,0-4.33-2.05,34.7,34.7,0,0,0-4.56-1.49,21.12,21.12,0,0,0-3.61-.54h0a19.44,19.44,0,0,0-3.58-5.76,29,29,0,0,1,2.85,9.46,37.41,37.41,0,0,1-.06,9.69,49.08,49.08,0,0,1-2.38,9.42c-.52,1.55-1.27,3-1.84,4.55l-.71,1.45c0-.13-.07-.26-.11-.38a35.8,35.8,0,0,0-1.36-3.67,25.91,25.91,0,0,0-1.88-3.43,15.93,15.93,0,0,0-2.55-2.93c.31.48.59,1,.85,1.46a40.39,40.39,0,0,1-1.32,6.67,25.11,25.11,0,0,1-2.45,5.9l-.08.11a12.15,12.15,0,0,0-1.77-2.62,21.71,21.71,0,0,0-4.89-4.1,44.83,44.83,0,0,0-.64-8.36,60.07,60.07,0,0,1-1.23,12.54,36.91,36.91,0,0,1-4.43,11.47,32.58,32.58,0,0,1-8,9.07,33.14,33.14,0,0,1-5.12,3.27c-.9.47-1.84.91-2.78,1.31a28.16,28.16,0,0,0,1.22-7,32.5,32.5,0,0,0-1.09-10,40.62,40.62,0,0,0-3.69-9.25,41.71,41.71,0,0,0-5.61-8.09,53.33,53.33,0,0,1,2.91,5.28c.54,1.11,1.06,2.23,1.53,3.37a47.55,47.55,0,0,1,2.77,9.16,32.62,32.62,0,0,1,.58,4.7,31.78,31.78,0,0,1-.06,4.68,28.83,28.83,0,0,1-2.32,9L360.55,335l2.86-.75a30.71,30.71,0,0,0,6.25-2.47,36.09,36.09,0,0,0,5.53-3.63,32.83,32.83,0,0,0,8.43-10.11,35.34,35.34,0,0,0,3.81-12.45c.15-1.28.24-2.56.28-3.84,1.07,1.64,2.15,3.21,3.06,4.81a12.47,12.47,0,0,1,1.27,2.81l.15.49a2.51,2.51,0,0,0,.46.83,2,2,0,0,0,1.33.69,2.26,2.26,0,0,0,1.2-.25,3.82,3.82,0,0,0,1.11-.87,9.36,9.36,0,0,0,.66-.85,16,16,0,0,0,2.33-7.12,14.43,14.43,0,0,0-.93-6.9c.28.56.54,1.12.79,1.68a35,35,0,0,1,1.19,3.54c.33,1.2.59,2.41.81,3.63a33.45,33.45,0,0,1,.5,3.64l.3,3.86,2-3.38q1.31-2.2,2.58-4.46c.37-.78.73-1.57,1.08-2.36a24,24,0,0,0,1-2.39,35.78,35.78,0,0,0,1.52-5c.17-.85.42-1.69.54-2.55s.23-1.73.32-2.6a30.71,30.71,0,0,0-.84-10.38,26.83,26.83,0,0,0-1-2.91c1.06.37,2.1.77,3.11,1.22,1.4.67,2.76,1.37,4.09,2.14s2.63,1.57,3.89,2.44,2.56,1.73,3.71,2.64l2.35,1.86-.1-3.06a37,37,0,0,0-1.22-8.53,32.33,32.33,0,0,0-1.39-4.13,26.09,26.09,0,0,0-2-3.88,21.65,21.65,0,0,0-4.68-5.28,42,42,0,0,1,5,.1,36.08,36.08,0,0,1,5.77.9,34.94,34.94,0,0,1,5.49,1.81,27.07,27.07,0,0,1,5,2.71l2.72,2Zm-45,43.43,0-.08h0C394.86,308.92,394.84,308.94,394.82,308.9ZM288.53,244.72c-4.65-6.38-9.43-16-5.72-25.6,2.81-7.28,14.19-14.32,29.71-18.38a101.33,101.33,0,0,1,25.6-3.44c15.39,0,27.43,4,34,9.48,8.91,7.36,7.79,18,5.29,25.7-6.16,18.85-26.56,38.18-41.19,39S299.76,260.1,288.53,244.72Z"/><path fill="#724331"  d="M377.43,232.48c2.5-7.66,3.62-18.34-5.29-25.7-6.59-5.43-18.63-9.48-34-9.48a101.33,101.33,0,0,0-25.6,3.44c-15.52,4.06-26.9,11.1-29.71,18.38-3.71,9.6,1.07,19.22,5.72,25.6,11.23,15.38,33.1,27.67,47.71,26.8S371.27,251.33,377.43,232.48Z"/><path d="M358.51,305.16l-.36,1c-.25.64-.42,1.31-.71,1.93l-.89,1.85a16.56,16.56,0,0,1-1,1.78,13.37,13.37,0,0,1-1.12,1.69c-.4.55-.77,1.11-1.19,1.64l-1.32,1.55a47.6,47.6,0,0,1-10.8,8.76l0-.46c0-.32-.11-.64-.17-1-.12-.63-.23-1.27-.38-1.91l-.61-1.84a23.53,23.53,0,0,0-3.69-6.7,29.39,29.39,0,0,0-5.32-5.31,28.47,28.47,0,0,0-6.37-3.76,44,44,0,0,1,5.45,4.79c.21.21.4.44.6.65a31.93,31.93,0,0,1-.77,4.26,20.71,20.71,0,0,1-1.78,4.83,11.72,11.72,0,0,1-3.17,3.86,9.2,9.2,0,0,1-2.13,1.21,7.92,7.92,0,0,1-1.57.42,13.07,13.07,0,0,0-.71-3.59,22.78,22.78,0,0,0-1.84-4,34.91,34.91,0,0,0-5.28-6.85l-.82-.83-.76.94a19,19,0,0,0-3.05,6.21,43.94,43.94,0,0,0-1.4,6.55c-.31,2.2-.5,4.4-.61,6.61-.07,1.58-.1,3.15-.09,4.74a28.51,28.51,0,0,1-8.75-4.28,27.7,27.7,0,0,1-7.58-8.6,39.22,39.22,0,0,1-4.19-10.88,49,49,0,0,1-1.27-11.65l.06-3.61-2.47,2.52a19.57,19.57,0,0,0-3.31,4.53,26.28,26.28,0,0,0-2.05,5.1,34.78,34.78,0,0,0-1.1,5.31c-.12.86-.2,1.72-.25,2.58a47.12,47.12,0,0,1-5.71-7,39,39,0,0,1-2.9-5.16,36.32,36.32,0,0,1-2.11-5.54,39.29,39.29,0,0,1-1.66-11.78,40.24,40.24,0,0,1,.49-6,33.12,33.12,0,0,1,1.37-5.87,36.56,36.56,0,0,0-2.68,11.74.28.28,0,0,0,0,.09,40.29,40.29,0,0,0,1,12.22,38.11,38.11,0,0,0,1.95,5.87,41.51,41.51,0,0,0,2.81,5.52,50,50,0,0,0,7.77,9.63l2,2V318a34,34,0,0,1,.4-5,33.34,33.34,0,0,1,1.11-4.89A22.64,22.64,0,0,1,282,302.7c0,.75.11,1.5.18,2.26a54,54,0,0,0,1,6.17,41.14,41.14,0,0,0,4.47,11.72,30,30,0,0,0,20,14.56l1.79.4L309.4,336c-.1-2.09-.1-4.26,0-6.4s.22-4.27.47-6.38A44.41,44.41,0,0,1,311,317a19.25,19.25,0,0,1,1.8-4.49c.64.66,1.27,1.35,1.86,2.05a29.81,29.81,0,0,1,2.42,3.28,15,15,0,0,1,2.68,7.39l0,.79.7-.06a9,9,0,0,0,5.12-2.27,13,13,0,0,0,3.17-4.39,24.45,24.45,0,0,0,1.92-9.36,36.43,36.43,0,0,1,3.73,4.83,25.56,25.56,0,0,1,2.92,6.28l.45,1.66.28,1.69c.05.28.11.56.14.84l0,.85.08,1.71.12,2.33,2-1a30,30,0,0,0,3.8-2.22,41.77,41.77,0,0,0,3.49-2.57,38.7,38.7,0,0,0,6.07-6.2,28.91,28.91,0,0,0,4.18-7.6,22.83,22.83,0,0,0,1.29-8.43l-.46,1.84-.05.21C358.67,304.49,358.61,304.83,358.51,305.16Z"/><path fill="#44241b"  d="M334.67,209.16c-2.9-9.63-30.7,1.33-28,8.71C310,227.07,337.57,218.79,334.67,209.16Z"/><path fill="#44241b"  d="M348.91,232.14a5.66,5.66,0,1,0-5.57-5.74A5.65,5.65,0,0,0,348.91,232.14Z"/><path fill="#44241b"  d="M311.74,231.56c-4.68-.07-8.54,3.94-8.62,9s3.66,9.15,8.34,9.22,8.55-3.94,8.63-9S316.43,231.64,311.74,231.56Z"/><path fill="#44241b"  d="M340.2,246.15a2.86,2.86,0,1,0,2.38,2.86A2.64,2.64,0,0,0,340.2,246.15Z"/>    </g></svg>