<!--  ~ Copyright (C) 2018 Baidu, Inc. All Rights Reserved.  --><svg viewBox="0 0 640 480" xmlns="http://www.w3.org/2000/svg">    <g id="back-ground-cl">        <rect fill="none" width="640" height="480" />        <ellipse opacity="0.1" cx="331.93" cy="418.82" rx="168.39" ry="32.01"/>    </g>    <g id="body">        <defs>            <clipPath id="outline">                <path fill="none"  d="M356.34,93.11,355.15,93a2.48,2.48,0,0,0-.27,0c-2.91-2-5.82-4-8.74-5.93L328.09,74.67l-18-12.43c-6-4.14-12-8.28-18.09-12.3-3-2-6.06-4-9.15-5.88-.77-.46-1.54-.9-2.3-1.3l-.44-.22a.13.13,0,0,1,0,.06c0,.4,0,.83,0,1.27,0,.87.05,1.76.09,2.65.45,7.19,1.48,14.44,2.38,21.66l5,35.75c-.17.14-.31.22-.5.36-16.78,11.82-29.49,28.77-40.42,45.94a377.39,377.39,0,0,0-52.43,133.52c-1.64,9-3,18.11-3.91,27.25-2.95,30.42-1.69,70.59,28.43,87.67,2.13,1.21,13,3.79,8.38,7.39-2.4,1.85-14.48,3-13.86,6.68.7,4.07,12.39,4.42,15.14,4.63a154.42,154.42,0,0,0,17.61.25c.5,0,1.36,0,2.29,0,0-.41,0-.81,0-1.23,0-1.89-.11-3.82,0-5.9s.23-3.84.28-5.79q.13-5.81,0-11.62c-.08-3.87-.29-7.74-.56-11.6s-.7-7.72-1.31-11.54a69.07,69.07,0,0,0-2.59-11.28,32,32,0,0,0-2.24-5.33,16.17,16.17,0,0,0-3.47-4.62h0a16.23,16.23,0,0,1,3.86,4.39,32.74,32.74,0,0,1,2.6,5.28,70.82,70.82,0,0,1,3.27,11.3A156.39,156.39,0,0,1,250.86,393c.2,3.91.31,7.82.27,11.74,0,1.94-.06,4-.17,5.88s.11,3.77.12,5.78a20.78,20.78,0,0,1-.16,3.11,10.25,10.25,0,0,1-.35,1.64,5.4,5.4,0,0,1-.83,1.73,8,8,0,0,1-2.69,2.28,24.91,24.91,0,0,1-2.79,1.32c-.91.38-1.78.74-2.57,1.14a5.63,5.63,0,0,0-1.85,1.34,2.09,2.09,0,0,0-.43,1.64,4,4,0,0,0,.82,1.9,8.07,8.07,0,0,0,1,1,5.5,5.5,0,0,1,.24-3.1,6.54,6.54,0,0,1,2.78-3.37,8.36,8.36,0,0,1,2-.77,12.23,12.23,0,0,1,1.87-.39,13.57,13.57,0,0,1,3.88,0,13.47,13.47,0,0,1-3.14,2.29c-1.11.61-2.2,1.06-3,1.5a9.43,9.43,0,0,0-2.27,1.92,12.87,12.87,0,0,0-1.91,3l.46-.38a13.4,13.4,0,0,0,2.29,1.19,20.72,20.72,0,0,0,5.24,1.4c.78.1,1.56.16,2.35.21a2.79,2.79,0,0,1-.44-.92,3.51,3.51,0,0,1,.15-2.17,7.07,7.07,0,0,1,2.48-3,10,10,0,0,1,3.23-1.62,7.49,7.49,0,0,1,3.65-.16,28.26,28.26,0,0,1-2.6,2.28c-.84.66-1.66,1.29-2.49,1.9a23.66,23.66,0,0,0-2.22,1.75,3.44,3.44,0,0,0-.74,1,2.58,2.58,0,0,0-.2,1.56l.56-.58a48.94,48.94,0,0,0,7.56-.3,41.54,41.54,0,0,0,5.56-1,15.07,15.07,0,0,0,4.81-2.28,23.18,23.18,0,0,0,6.94-8.47c.21-.42.39-.85.59-1.27l.46-1.26c.26-.9.52-1.81.73-2.75.45-1.86.84-3.77,1.26-5.67.81-3.81,1.63-7.63,2.6-11.42a113.45,113.45,0,0,1,3.48-11.21,49,49,0,0,1,5.19-10.48c-3.75,6.85-5.69,14.44-7.24,22-.76,3.66-1.4,7.35-2,11.06a314,314,0,0,0,33.1,5.43c21.48,2.28,43.63,2.35,64.74-2.68a85.25,85.25,0,0,0,8.74-2.61c-.67-3.67-.88-7.34-1.29-10.93-.18-1.86-.49-3.71-.78-5.59s-.58-3.74-.95-5.57a29.16,29.16,0,0,0-1.73-5.34c-.67-1.77-1.29-3.56-1.9-5.35h0c.75,1.74,1.51,3.47,2.32,5.18a28.53,28.53,0,0,1,2.08,5.32c.5,1.85.89,3.7,1.29,5.55s.82,3.71,1.13,5.6c.6,3.76.95,7.53,1.82,11.12a28.69,28.69,0,0,0,1.71,5.19,27.72,27.72,0,0,0,2.71,4.7,18.59,18.59,0,0,0,8.14,6.58,29.09,29.09,0,0,0,5.24,1.25,45.57,45.57,0,0,0,5.48.52c1.28,0,2.56,0,3.84,0l.55.56a2.54,2.54,0,0,0-.2-1.55,3.44,3.44,0,0,0-.74-1,22.12,22.12,0,0,0-2.22-1.75c-.83-.61-1.65-1.24-2.49-1.9a29.86,29.86,0,0,1-2.6-2.28,7.37,7.37,0,0,1,3.65.16,10,10,0,0,1,3.23,1.62,7.1,7.1,0,0,1,2.48,3,3.62,3.62,0,0,1,.15,2.18,2.72,2.72,0,0,1-.45.94l.3,0a23.22,23.22,0,0,0,5.27-.88,16.74,16.74,0,0,0,4.32-1.93l.46.39a12.46,12.46,0,0,0-1.91-3,9.43,9.43,0,0,0-2.27-1.92c-.84-.44-1.93-.89-3.05-1.5a13.63,13.63,0,0,1-3.13-2.29,13.57,13.57,0,0,1,3.88.05,12.23,12.23,0,0,1,1.87.39,8.36,8.36,0,0,1,2,.77,6.56,6.56,0,0,1,2.78,3.36,5.46,5.46,0,0,1,.23,3.14,4.48,4.48,0,0,0,1.86-3.14,2.21,2.21,0,0,0-.46-1.63,5.32,5.32,0,0,0-1.75-1.3c-1.51-.77-3.32-1.32-5.16-2.14a12.14,12.14,0,0,1-2.77-1.64,6.27,6.27,0,0,1-1.24-1.32,4.21,4.21,0,0,1-.5-.89,5.48,5.48,0,0,1-.28-.91,14.89,14.89,0,0,1-.23-1.52l-.18-1.44c-.13-1-.19-1.92-.26-2.88a104.74,104.74,0,0,1,1.2-22.89c1.11-7.54,2.75-15,4.36-22.33a89.58,89.58,0,0,1,2.87-11,23.91,23.91,0,0,1,2.59-5.12,17.25,17.25,0,0,1,3.95-4.09,20,20,0,0,0-5.79,9.46,88.3,88.3,0,0,0-2.19,11.06c-1.26,7.46-2.59,14.9-3.47,22.36-.44,3.74-.76,7.47-.93,11.21a88.36,88.36,0,0,0,.24,11.16c.07.88.15,1.77.28,2.65,5.44.88,11.37.46,16.75.3a155.32,155.32,0,0,0,19.15-1.45c2.36-.37,3.95,0,2.58-2.3-1.61-2.7-4-4-6.93-5-2.41-.82-9.3-1-10.71-3.45-.77-1.34.08-2.05,1-2.94,1.35-1.35,4-2.21,5.6-3.24q3-1.89,5.8-4.05a69.75,69.75,0,0,0,18.8-22.19c8.95-16.71,10.93-36.3,9.16-54.94-2.24-23.72-9.25-47.32-17.25-69.67-8.65-24.15-19.37-47.5-30.8-70.44-9.42-18.92-19.18-36.8-34.41-51.76C389.07,108.75,373.57,98.42,356.34,93.11,8,6.24Z"/><path fill="none"  d="M145,317.78h27.56l-71.92-39.63L129.33,312l-30.8,2.45,90.83,48.08a96.53,96.53,0,0,1-2.11-9.92Z"/><path fill="none"  d="M267.39,117.6c1.46-1.56,3-3.07,4.5-4.56-8.5,2.38-22,7.21-31.5,15.67-6,5.32-12.3,12.9-18.44,20.23-9.54,11.4-19.41,23.19-28.86,27.91-6.61,3.31-16.2,5.12-26.35,7.05C153.57,186.38,140,189,134,194.9c-7.1,7.1-3.51,37.79,4.28,53.22,2.24,4.45,4.62,6.95,6.38,6.69,5.45-.82,9.67-8.05,14.14-15.71,3.63-6.21,7.38-12.63,12.3-16.56l2.2-1.76c12-9.52,40-31.82,42.9-43.07,1.67-6.38,9.55-20.13,19.87-32.1,9.45-11,17.5-16.77,24-19.66C262.44,123.09,264.87,120.29,267.39,117.6Z"/><path fill="none"  d="M532.28,181.08c-10.22,4.15-22.94,9.31-32.5,5.77-6.34-2.35-8.9-9-12.14-17.48-4.9-12.81-11.63-30.37-35.73-44.7-26.93-16-51.52-19-64.41-19.27a130.53,130.53,0,0,1,16.75,14c6.92.86,16.19,3.16,23.95,9.12,15.12,11.61,26.85,33,37.2,51.85,5.79,10.54,10.78,19.64,15.42,25.25l2.36,2.86c11.84,14.38,23,27.95,33.76,24.21,3.76-1.3,9.55-8.48,15.49-19.2,5.4-9.73,10.22-21.07,12.28-28.89,1.53-5.79.93-7.29.8-7.53C543.2,176.65,537.9,178.81,532.28,181.08Z"/><path d="M546.25,174.21c-3.18-.73-8.44,1.39-15.09,4.09-9.75,3.95-21.88,8.87-30.34,5.74-5.06-1.88-7.29-7.69-10.37-15.74-5.07-13.23-12-31.35-37-46.21-31-18.41-59-20-70.37-19.67q-3.3-2.11-6.74-4a99.76,99.76,0,0,0-26.06-10q-10.33-7.94-20.83-15.65c-11.77-8.66-23.64-17.16-35.8-25.32-3.06-2-6.12-4-9.31-5.91-.8-.47-1.61-.93-2.47-1.37a13.21,13.21,0,0,0-1.4-.64c-.15-.05-.25-.1-.44-.15l-.31-.07a1.36,1.36,0,0,0-.46,0,1.72,1.72,0,0,0-.73.16,2,2,0,0,0-.66.53,2.53,2.53,0,0,0-.38.72,6.8,6.8,0,0,0-.28,1.74c0,.51,0,1,0,1.47,0,1,.06,1.89.13,2.82.29,3.7.75,7.33,1.24,11s1.06,7.25,1.66,10.85c1.78,11,3.84,21.84,6.11,32.69a105.63,105.63,0,0,0-9.75,7.54c-7,1.55-25.65,6.53-38.17,17.72-6.13,5.47-12.54,13.13-18.75,20.55-9.35,11.16-19,22.71-27.9,27.15-6.24,3.12-15.63,4.9-25.57,6.78-13.61,2.57-27.68,5.23-34.28,11.83-8.81,8.81-3.91,41.57,3.72,56.7,2.8,5.54,5.74,8.35,8.77,8.35a4.71,4.71,0,0,0,.74-.06c6.86-1,11.44-8.86,16.28-17.16,3.49-6,7.1-12.14,11.58-15.73l2.2-1.75c13.22-10.53,40.75-32.44,43.93-44.66,2.56-9.8,19-34.76,36-46.21-10.74,14.19-19.77,29.87-27.85,45.51a378.65,378.65,0,0,0-27.51,69.12q-5.15,17.82-8.5,36.06c-3.67,20.16-7.18,43.49-4.6,65.22l-33.26-27.39h30.85L87.8,267.65l35.45,41.77L88,312.22l102.56,54.29A73.58,73.58,0,0,0,198.19,383a54.05,54.05,0,0,0,16.37,16.68,55.94,55.94,0,0,0,5.28,3c.46.23,2,1.13,3.25,1.71-.13,0-.23.1-.31.12-1.79.63-3.6,1.17-5.38,1.82-3.43,1.25-9.09,3.21-6.82,8,1.88,3.92,8,4.8,11.71,5.38a117,117,0,0,0,20,1c1.43,0,3.41.1,5.39,0a3.67,3.67,0,0,1-.27.46c-.78,1.08-2.5,1.86-4.26,2.58-.89.36-1.82.74-2.78,1.21a8.75,8.75,0,0,0-2.81,2.1,5.2,5.2,0,0,0-.95,1.84,5.44,5.44,0,0,0-.14,2,7,7,0,0,0,1.42,3.42,13.23,13.23,0,0,0,5.37,3.72,23.2,23.2,0,0,0,6,1.57,48.66,48.66,0,0,0,12-.11,46.19,46.19,0,0,0,5.91-1.2,17.82,17.82,0,0,0,5.64-2.79,23.54,23.54,0,0,0,4.39-4.36,28.57,28.57,0,0,0,3.12-5.23c.22-.46.4-.93.6-1.4l.5-1.5c.25-1,.5-1.95.68-2.91s.43-2.15.63-3.23c22.29,4.83,45.24,7.68,68.06,6.77a160.1,160.1,0,0,0,32.55-4.43q3.63-.9,7.19-2a29,29,0,0,0,3.8,8.11,20.46,20.46,0,0,0,9.09,7.68,31,31,0,0,0,5.75,1.49,47.09,47.09,0,0,0,5.79.67,45.51,45.51,0,0,0,5.84,0c1-.07,1.92-.15,2.94-.3a24.39,24.39,0,0,0,3-.66,19,19,0,0,0,5.57-2.55,9.63,9.63,0,0,0,2.39-2.34,6.59,6.59,0,0,0,1.21-3.38,5.81,5.81,0,0,0-.19-1.92,5.38,5.38,0,0,0-.92-1.76,8.31,8.31,0,0,0-2.74-2.09c-1.87-.93-3.7-1.46-5.32-2.18s-2.8-1.53-3.1-2.52l.76.08a143.8,143.8,0,0,0,20.86,0c5.57-.29,11.91-.22,17.3-1.84,3.77-1.14,2.9-4.87.85-7.65-3.27-4.44-9.45-5.46-14.45-6.64l-.43-.13c.93-.57,1.95-1.32,2.33-1.55A76.48,76.48,0,0,0,462.69,389c14-12.67,21.83-30.36,24.28-48.89,2.85-21.53-1.29-43.22-6.67-64-6.48-25.07-15.82-49.32-26.42-72.92-5.39-12-11.13-23.86-17-35.62-5.06-10.06-10.07-20.08-16.63-29.27a147.15,147.15,0,0,0-12.42-15.14A44.36,44.36,0,0,1,426.37,131c14.63,11.22,26.2,32.31,36.4,50.91,5.86,10.67,10.92,19.89,15.74,25.72l2.36,2.86c10.95,13.3,21.36,25.95,32.32,25.95a14.49,14.49,0,0,0,4.74-.81c11.66-4.06,31.39-46.39,30.79-57.55C548.57,175.31,547.3,174.45,546.25,174.21,-310.16-28.6c-10.32,12-18.2,25.72-19.87,32.1-2.93,11.25-30.94,33.55-42.9,43.07l-2.2,1.76c-4.92,3.93-8.67,10.35-12.3,16.56-4.47,7.66-8.69,14.89-14.14,15.71-1.76.26-4.14-2.24-6.38-6.69C130.51,232.69,126.92,202,134,194.9c5.94-5.94,19.55-8.52,32.72-11,10.15-1.93,19.74-3.74,26.35-7.05,9.45-4.72,19.32-16.51,28.86-27.91,6.14-7.33,12.48-14.91,18.44-20.23,9.47-8.46,23-13.29,31.5-15.67-1.54,1.49-3,3-4.5,4.56-2.52,2.69-4.95,5.49-7.3,8.35C253.59,128.84,245.54,134.64,236.09,145.61,98.53,314.4l30.8-2.45-28.68-33.8,71.92,39.63H145l42.24,34.78a96.53,96.53,0,0,0,2.11,9.92,436.29,173.09c11.43,22.94,22.15,46.29,30.8,70.44,8,22.35,15,46,17.25,69.67,1.77,18.64-.21,38.23-9.16,54.94a69.75,69.75,0,0,1-18.8,22.19q-2.81,2.16-5.8,4.05c-1.64,1-4.25,1.89-5.6,3.24-.89.89-1.74,1.6-1,2.94,1.41,2.48,8.3,2.63,10.71,3.45,2.95,1,5.32,2.32,6.93,5,1.37,2.3-.22,1.93-2.58,2.3a155.32,155.32,0,0,1-19.15,1.45c-5.38.16-11.31.58-16.75-.3-.13-.88-.21-1.77-.28-2.65a88.36,88.36,0,0,1-.24-11.16c.17-3.74.49-7.47.93-11.21.88-7.46,2.21-14.9,3.47-22.36A88.3,88.3,0,0,1,429.24,354a20,20,0,0,1,5.79-9.46,17.25,17.25,0,0,0-3.95,4.09,23.91,23.91,0,0,0-2.59,5.12,89.58,89.58,0,0,0-2.87,11c-1.61,7.38-3.25,14.79-4.36,22.33a104.74,104.74,0,0,0-1.2,22.89c.07,1,.13,1.92.26,2.88l.18,1.44a14.89,14.89,0,0,0,.23,1.52,5.48,5.48,0,0,0,.28.91,4.21,4.21,0,0,0,.5.89,6.27,6.27,0,0,0,1.24,1.32,12.14,12.14,0,0,0,2.77,1.64c1.84.82,3.65,1.37,5.16,2.14a5.32,5.32,0,0,1,1.75,1.3,2.21,2.21,0,0,1,.46,1.63,4.48,4.48,0,0,1-1.86,3.14,5.46,5.46,0,0,0-.23-3.14,6.56,6.56,0,0,0-2.78-3.36,8.36,8.36,0,0,0-2-.77,12.23,12.23,0,0,0-1.87-.39,13.57,13.57,0,0,0-3.88-.05,13.63,13.63,0,0,0,3.13,2.29c1.12.61,2.21,1.06,3.05,1.5a9.43,9.43,0,0,1,2.27,1.92,12.46,12.46,0,0,1,1.91,3l-.46-.39a16.74,16.74,0,0,1-4.32,1.93,23.22,23.22,0,0,1-5.27.88l-.3,0a2.72,2.72,0,0,0,.45-.94,3.62,3.62,0,0,0-.15-2.18,7.1,7.1,0,0,0-2.48-3,10,10,0,0,0-3.23-1.62,7.37,7.37,0,0,0-3.65-.16,29.86,29.86,0,0,0,2.6,2.28c.84.66,1.66,1.29,2.49,1.9a22.12,22.12,0,0,1,2.22,1.75,3.44,3.44,0,0,1,.74,1,2.54,2.54,0,0,1,.2,1.55l-.55-.56c-1.28,0-2.56.06-3.84,0a45.57,45.57,0,0,1-5.48-.52,29.09,29.09,0,0,1-5.24-1.25,18.59,18.59,0,0,1-8.14-6.58,27.72,27.72,0,0,1-2.71-4.7,28.69,28.69,0,0,1-1.71-5.19c-.87-3.59-1.22-7.36-1.82-11.12-.31-1.89-.73-3.76-1.13-5.6s-.79-3.7-1.29-5.55a28.53,28.53,0,0,0-2.08-5.32c-.81-1.71-1.57-3.44-2.32-5.18h0c.61,1.79,1.23,3.58,1.9,5.35a29.16,29.16,0,0,1,1.73,5.34c.37,1.83.65,3.7.95,5.57s.6,3.73.78,5.59c.41,3.59.62,7.26,1.29,10.93a85.25,85.25,0,0,1-8.74,2.61c-21.11,5-43.26,5-64.74,2.68a314,314,0,0,1-33.1-5.43c.63-3.71,1.27-7.4,2-11.06,1.55-7.58,3.49-15.17,7.24-22a49,49,0,0,0-5.19,10.48,113.45,113.45,0,0,0-3.48,11.21c-1,3.79-1.79,7.61-2.6,11.42-.42,1.9-.81,3.81-1.26,5.67-.21.94-.47,1.85-.73,2.75l-.46,1.26c-.2.42-.38.85-.59,1.27a23.18,23.18,0,0,1-6.94,8.47,15.07,15.07,0,0,1-4.81,2.28,41.54,41.54,0,0,1-5.56,1,48.94,48.94,0,0,1-7.56.3l-.56.58a2.58,2.58,0,0,1,.2-1.56,3.44,3.44,0,0,1,.74-1,23.66,23.66,0,0,1,2.22-1.75c.83-.61,1.65-1.24,2.49-1.9a28.26,28.26,0,0,0,2.6-2.28,7.49,7.49,0,0,0-3.65.16,10,10,0,0,0-3.23,1.62,7.07,7.07,0,0,0-2.48,3,3.51,3.51,0,0,0-.15,2.17,2.79,2.79,0,0,0,.44.92c-.79,0-1.57-.11-2.35-.21a20.72,20.72,0,0,1-5.24-1.4,13.4,13.4,0,0,1-2.29-1.19l-.46.38a12.87,12.87,0,0,1,1.91-3,9.43,9.43,0,0,1,2.27-1.92c.84-.44,1.93-.89,3-1.5a13.47,13.47,0,0,0,3.14-2.29,13.57,13.57,0,0,0-3.88,0,12.23,12.23,0,0,0-1.87.39,8.36,8.36,0,0,0-2,.77,6.54,6.54,0,0,0-2.78,3.37,5.5,5.5,0,0,0-.24,3.1,8.07,8.07,0,0,1-1-1,4,4,0,0,1-.82-1.9,2.09,2.09,0,0,1,.43-1.64,5.63,5.63,0,0,1,1.85-1.34c.79-.4,1.66-.76,2.57-1.14a24.91,24.91,0,0,0,2.79-1.32,8,8,0,0,0,2.69-2.28,5.4,5.4,0,0,0,.83-1.73,10.25,10.25,0,0,0,.35-1.64,20.78,20.78,0,0,0,.16-3.11c0-2-.18-4-.12-5.78s.15-3.94.17-5.88c0-3.92-.07-7.83-.27-11.74a156.39,156.39,0,0,0-2.77-23.32,70.82,70.82,0,0,0-3.27-11.3,32.74,32.74,0,0,0-2.6-5.28,16.23,16.23,0,0,0-3.86-4.39h0a16.17,16.17,0,0,1,3.47,4.62,32,32,0,0,1,2.24,5.33A69.07,69.07,0,0,1,246.66,370c.61,3.82,1,7.68,1.31,11.54s.48,7.73.56,11.6.07,7.75,0,11.62c0,1.95-.13,3.82-.28,5.79s.05,4,0,5.9c0,.42,0,.82,0,1.23-.93,0-1.79,0-2.29,0a154.42,154.42,0,0,1-17.61-.25c-2.75-.21-14.44-.56-15.14-4.63-.62-3.64,11.46-4.83,13.86-6.68,4.66-3.6-6.25-6.18-8.38-7.39-30.12-17.08-31.38-57.25-28.43-87.67.88-9.14,2.27-18.22,3.91-27.25a377.39,377.39,0,0,1,52.43-133.52c10.93-17.17,23.64-34.12,40.42-45.94.19-.14.33-.22.5-.36l-5-35.75c-.9-7.22-1.93-14.47-2.38-21.66,0-.89-.08-1.78-.09-2.65,0-.44,0-.87,0-1.27a.13.13,0,0,0,0-.06l.44.22c.76.4,1.53.84,2.3,1.3,3.09,1.85,6.12,3.87,9.15,5.88,6.08,4,12.08,8.16,18.09,12.3l18,12.43,18.05,12.41c2.92,2,5.83,4,8.74,5.93a2.48,2.48,0,0,1,.27,0l1.19.07c17.23,5.31,32.73,15.64,45.54,28.22C417.11,136.29,426.87,154.17,436.29,173.09,108.42,11.56c-2.06,7.82-6.88,19.16-12.28,28.89-5.94,10.72-11.73,17.9-15.49,19.2-10.75,3.74-21.92-9.83-33.76-24.21l-2.36-2.86c-4.64-5.61-9.63-14.71-15.42-25.25-10.35-18.86-22.08-40.24-37.2-51.85-7.76-6-17-8.26-23.95-9.12a130.53,130.53,0,0,0-16.75-14c12.89.28,37.48,3.26,64.41,19.27,24.1,14.33,30.83,31.89,35.73,44.7,3.24,8.46,5.8,15.13,12.14,17.48,9.56,3.54,22.28-1.62,32.5-5.77,5.62-2.27,10.92-4.43,13.23-4C545.64,177.36,546.24,178.86,544.71,184.65Z"/><polygon fill="#b07f6e"  points="364.29 99.35 364.29 99.35 364.29 99.35 364.29 99.35"/>            </clipPath>        </defs>        <g clip-path="url(#outline)">            <rect fill="#C5EDC5" width="640" height="480" />        </g>    </g>    <g id="pattern">        <g clip-path="url(#outline)">            <path fill="#435055"  d="M213.89,348.69c-.53,1.67-.95,3.36-1.63,5s-1.29,3.68-.61,5.6A10.12,10.12,0,0,0,214.5,363a35,35,0,0,0,3.59,2.9,3.46,3.46,0,0,0,2.28.82,2.62,2.62,0,0,0,1.24-.6,20.67,20.67,0,0,0,6-7.67,10,10,0,0,0,1.29-6.31c-.63-3.15-3.6-4.52-6.87-5.52a14.84,14.84,0,0,0-3.71-.76c-2-.09-4.42.84-4.37,2.76"/><path fill="#435055"  d="M190,328.09a38.75,38.75,0,0,1,9.5,3.45,7.68,7.68,0,0,1,2.95,2.29,8.54,8.54,0,0,1,1.08,4.33c.31,4.75.59,9.73-1.42,14S196,359.75,191.55,358c-1.59-.63-2.08-1.69-2.12-3.35-.2-8.28-1.39-16.55-1.58-24.83A2.07,2.07,0,0,1,190,328.09Z"/><path fill="#435055"  d="M189.82,298.42a19.21,19.21,0,0,0,1.88,1.21,5.34,5.34,0,0,0,2.38.53,3.92,3.92,0,0,0,3.33-3.36,7.64,7.64,0,0,0-1.11-4.9,1.64,1.64,0,0,0-1-.92,2.38,2.38,0,0,0-1.43.47,5.17,5.17,0,0,1-2.38.37Z"/><path fill="#435055"  d="M193.84,319.82a4,4,0,0,0,2.39,2.33,7,7,0,0,0,4.11.17,16,16,0,0,0,7.69-4c1.6-1.5,5.43-3.41,5.19-6a6.18,6.18,0,0,0-.59-1.87,20.12,20.12,0,0,0-2.11-4c-3.39-4.54-12.4-2.81-15,1.88C194.1,310.87,192.76,317,193.84,319.82Z"/><path fill="#435055"  d="M210.51,327.79c2.29,2.29,4.56,5.58,7.78,1.92,2.19-2.57,1.14-6.9-1.59-8.89a4.76,4.76,0,0,0-2.36-1c-1.89-.16-7.28,3.59-6.24,5.88a2.48,2.48,0,0,0,1,.88A10.33,10.33,0,0,1,210.51,327.79Z"/><path fill="#435055"  d="M239.31,340.06c1.52.27,2.92-.47,3-3a4,4,0,0,0-2.7-3.83,3.48,3.48,0,0,0-4.07,1.5C234.41,336.93,237,339.65,239.31,340.06Z"/><path fill="#435055"  d="M487.06,304.49a7.82,7.82,0,0,0-3.56-1.5l-1.31.3c-3.43,1.39-7.61,3.15-10.49,5.52s-2.64,4.2-1.39,7.77c1.85,5.28,10.41,8.66,14.81,11.53a2.53,2.53,0,0,0,1.3.51,2.26,2.26,0,0,0,1-.3l1.78-.89Z"/><path fill="#435055"  d="M476.15,354.32a4.53,4.53,0,0,0-.46-.56,7.18,7.18,0,0,1,4-12.06c1.63-.26,5.15-.16,5.93,1.65a2.31,2.31,0,0,1,.15,1.08,32.8,32.8,0,0,1-1.46,6.75c-.65,2.4-1.41,4.78-2.27,7.11a3.4,3.4,0,0,1-.85,1.46c-1,.84-2.63.25-3.33-.84C476.76,357.24,477.22,355.83,476.15,354.32Z"/><path fill="#435055"  d="M466.27,361.93c-7.26-2.1-15.92-2.66-20.13,4.41A19.91,19.91,0,0,0,444,377.1a7.54,7.54,0,0,0,2.07,4.85c1.95,1.86,4.93,2.09,7.26,3.44,1.64,1,3.1,2.75,5,3.07,2.35.39,4.31-1.34,5.88-2.84,3-2.81,5.95-5.66,8.05-9.16,1.47-2.46,2.87-5.61,2.83-8.53a3.94,3.94,0,0,0-1.06-2.81,6.15,6.15,0,0,0-1.91-1.1A57.68,57.68,0,0,0,466.27,361.93Z"/><path fill="#435055"  d="M198.8,368l.07,0a9.1,9.1,0,0,1,5.28-.22c4.22.93,7.26,3.47,10.53,5.69,4,2.71,7.95,5.44,11.92,8.15,1.38.95,2.88,2.13,2.69,3.86a6.1,6.1,0,0,1-.88,2.17c-2.06,3.51-3.83,6.7-7,9.51-1.15,1-2.6,2-4,1.91a4,4,0,0,1-2.25-1.26C207.83,391,201,387.48,197,374.56,196.19,372.11,195.79,369.23,198.8,368Z"/><path fill="#435055"  d="M445.88,322.47a2.26,2.26,0,0,0,.11,3,4,4,0,0,0,4,.3,2.41,2.41,0,0,0,.85-1c.4-.92-.36-3.08-1.12-3.74C448.5,320,446.61,321.47,445.88,322.47Z"/><path fill="#435055"  d="M440.23,349.41a6.56,6.56,0,0,1-.8,1.81,8.44,8.44,0,0,0-1.54,2.84c-.25,1.16-.29,2.86.65,3.76s3.57.5,4.56-.39a3.85,3.85,0,0,0,1-2.44c.3-2.16,2.1-4.58.07-6.41a6.17,6.17,0,0,0-2.48-1.24c-.33-.1-.73-.17-1,.08a1,1,0,0,0-.19.46C440.46,348.42,440.36,348.93,440.23,349.41Z"/><path fill="#435055"  d="M452,344.2c0,.3.08.56.09.72.07.95.08,1.89.1,2.84,0,1.37-.35,2.41,1.11,3.13,2.21,1.09,5,3.12,7.5,3.26a3.65,3.65,0,0,0,2.72-6.3,7.12,7.12,0,0,0-1.76-1.12l-8.62-4.42a1.06,1.06,0,0,0-.45-.16C451.76,342.09,451.85,343.31,452,344.2Z"/><path fill="#435055"  d="M463,326.14a19.2,19.2,0,0,0-2.81,4.5c-.64,1.36-1.2,3-.46,4.3,1.1,1.93,6.34,3.33,8.42,3.5a1.65,1.65,0,0,0,1.75-1,3.23,3.23,0,0,0,0-1.2,13.52,13.52,0,0,1,.58-4.06c.47-2.23-.76-5.89-2.68-7.18S464.35,324.66,463,326.14Z"/><path fill="#435055"  d="M158.11,362.28a4.55,4.55,0,0,0,.23,6c1.51,1.59,6.21,1.84,8,.61a4.91,4.91,0,0,0,1.7-2.05c.82-1.86-.72-6.23-2.26-7.55C163.4,357.25,159.59,360.27,158.11,362.28Z"/><path fill="#435055"  d="M128.85,357.35a8.64,8.64,0,0,1-.92,2.34c-2.1,3.92-5.09,6.81-3.87,11.62,1.07,4.25,4.72,5.79,8.37,3.2a11.33,11.33,0,0,0,3.82-5.54c.76-2.15,1.15-4.41,1.74-6.61a7.51,7.51,0,0,0-2.38-7.91c-1.12-.85-3.14-1.69-4.58-1.3C129,353.72,129.32,355.48,128.85,357.35Z"/><path fill="#435055"  d="M170.83,400.19c.61-.28,1.14-.54,1.47-.67,3.13-1.19,6.32-2.14,9.49-3.2a2.61,2.61,0,0,0,2.24-2.65L186,381.59a16.1,16.1,0,0,0,.16-6.48,8.08,8.08,0,0,0-15.08-1.65,15.81,15.81,0,0,0-1.23,4.45L166.08,399a2.71,2.71,0,0,0,0,1.06C166.5,402,169,401,170.83,400.19Z"/><path fill="#435055"  d="M146.88,354.16a5.64,5.64,0,0,0,4.63,3.24,13.82,13.82,0,0,0,7.15-1.36c3.7-1.64,9.71-5.82,11.5-9.65s-3.77-10.75-7.27-11.75c-4.15-1.18-11.88,1.56-14,5.5a21.29,21.29,0,0,0-1.52,5.6,28.75,28.75,0,0,0-1.06,5.7A6.3,6.3,0,0,0,146.88,354.16Z"/><path fill="#435055"  d="M119.2,320.49a39.86,39.86,0,0,0-3.75,11.8,7.76,7.76,0,0,0,1.13,5.37c1.91,2.53,5.94,1.63,8.22.07,2-1.37,3-3.79,3.58-6.14.71-2.83,2.64-6.75,1.84-9.69-.72-2.64-4.07-4.29-6.49-4.95C122.05,316.49,120.5,318.12,119.2,320.49Z"/><path fill="#435055"  d="M138.46,269.92a7.49,7.49,0,0,0-1.7,1c-3.89,3-7.69,6.27-10.15,10.51-6.76,11.7,4.5,42.15,21.12,37.76a9.27,9.27,0,0,0,3.67-2.42C163.74,305.37,150.79,264.92,138.46,269.92Z"/><path fill="#435055"  d="M473.22,290.25a1.89,1.89,0,0,0,.14,3c1,.78,4,.91,5.12.3a2.71,2.71,0,0,0,1.08-1c.52-.93-.46-3.09-1.44-3.74C476.59,287.76,474.16,289.25,473.22,290.25Z"/><path fill="#435055"  d="M406.06,400.73a19.4,19.4,0,0,0-2.81,4.5c-.64,1.36-1.2,3-.46,4.3,1.1,1.93,6.34,3.33,8.42,3.5a1.65,1.65,0,0,0,1.75-1,3.23,3.23,0,0,0,0-1.2,13.52,13.52,0,0,1,.58-4.06c.47-2.23-.76-5.88-2.68-7.18S407.4,399.25,406.06,400.73Z"/><path fill="#435055"  d="M415,384.81a11,11,0,0,0,.43,3,2.75,2.75,0,0,0,1.39,2.05c1.19.44,4-.87,5-1.57a1,1,0,0,0,.39-1.09,1.71,1.71,0,0,0-.45-.52,7.66,7.66,0,0,1-1.24-2,4.67,4.67,0,0,0-3.83-2.16C415.4,382.67,415,383.67,415,384.81Z"/><path fill="#435055"  d="M256.87,415.08a19.47,19.47,0,0,0-2.82,4.5c-.64,1.36-1.19,3-.45,4.3,1.1,1.93,6.33,3.34,8.42,3.5a1.65,1.65,0,0,0,1.75-1,3.18,3.18,0,0,0,0-1.19,13.54,13.54,0,0,1,.58-4.07c.47-2.23-.76-5.88-2.69-7.18C259.86,412.72,258.21,413.6,256.87,415.08Z"/><path fill="#435055"  d="M254.25,408.44a2.25,2.25,0,0,0,.11,3,4,4,0,0,0,4,.3,2.32,2.32,0,0,0,.84-1c.41-.92-.35-3.08-1.12-3.74C256.87,405.94,255,407.44,254.25,408.44Z"/><path fill="#435055"  d="M197.11,15.3c-5.36.41-10.48,1.87-14.63,5.22-3.85,3.12-6.35,7.09-8.8,11-4.75,7.6-13,15-6.45,23.5,5.67,7.38,11.05,15.27,18,21.54,5.77,5.2,12.85,9.26,20.57,10.12,12.71,1.42,33.8-8.21,38-21.32,3.36-10.49-7.1-30-13.82-37.87C221.59,17.62,209.74,14.33,197.11,15.3Z"/><path fill="#435055"  d="M406.49,53.79c3.07,9.76,11.58,15.24,21.63,13,6.44-1.44,16.43-9.47,7.31-15.23-2.17-1.37-4.81-1.74-7.37-2q-7.83-.93-15.71-1.49c-1.75-.12-3.71-.16-5,1S405.92,52,406.49,53.79Z"/><path fill="#435055"  d="M114.29,103c1.09.38,2.06.69,2.63.94,3.33,1.43,6.58,3,9.83,4.63,4.75,2.34,7.65,5.4,12.65,1.69,7.6-5.65,19.39-11.54,24.28-19.92A14,14,0,0,0,146.93,70a27.91,27.91,0,0,0-6.93,4L109.82,95.74A4.65,4.65,0,0,0,108.48,97C106.69,100,111,101.83,114.29,103Z"/><path fill="#435055"  d="M539.47,5.73C522.1.69,497.93,2.61,494.42,21c-3.41,17.82,6.36,43.7,23.27,51.39,7.34,3.34,15.59,4.29,23.65,4,5-.2,10.48-1.08,14-4.73C573.5,52.55,564.71,13,539.47,5.73Z"/>            <g opacity="0.6" ><path fill="#FFFFFF"  d="M286.26,416.16c.88-28.18,28-44.62,48.46-46.25,24-1.92,50.29,17.56,52.72,45.36.12,1.4-.12,1.26-1.55,2-5,2.54-10.59,3.24-16,4.06-11.74,1.78-24,2.07-35.88,2-15.95-.12-32.06-1.28-47.32-6.76"/></g>        </g>    </g>    <g id="mask">        <path fill="#2d2926"  d="M219.12,178.47c2.56-9.8,19-34.76,36-46.21a181.92,181.92,0,0,1,12.29-14.66,119.8,119.8,0,0,1,9.18-8.85c-7,1.55-25.65,6.53-38.18,17.72-6.12,5.46-12.53,13.13-18.74,20.54-9.35,11.17-19,22.72-27.9,27.16-6.24,3.12-15.63,4.9-25.57,6.78-13.61,2.57-27.68,5.23-34.28,11.83-8.81,8.81-3.91,41.56,3.72,56.69,2.8,5.55,5.74,8.36,8.77,8.36a4.71,4.71,0,0,0,.74-.06c6.86-1,11.44-8.86,16.28-17.16,3.49-6,7.1-12.14,11.58-15.73l2.2-1.75C188.41,212.6,215.94,190.68,219.12,178.47Z"/><path opacity="0.1"  d="M288.85,110.38c-13.72,13.3-30.44,34.29-42.39,65-23.9,61.37-57.84,121.65-44.53,177.31s47.51,47.79,47.51,47.79l.26,18.7s-40.92,3.16-38.14-7.65c1-3.72,14.74-7.37,14.74-7.37s-26.55-11-32.52-32.47-10.59-46.15,4.07-110.78,43.72-108.6,56.48-124.35c8.74-10.79,17.74-23.88,33.11-33.84Z"/><path opacity="0.1"  d="M284.88,396.05s14.86,8.76,54,9.37,48.87-8.55,48.87-8.55l2.86,18.73s-25.26,8.56-52.34,6.52-50.91-3.67-57.22-6.92Z"/><path opacity="0.1"  d="M360.63,96.5s-78.25-57.37-81.48-55.77,37.09,54.14,44.42,59S363.07,109.12,360.63,96.5Z"/><path opacity="0.1"  d="M267.77,119.31s-15.88,3.25-26.88,15.06-22.4,31.37-33.4,41.95-29.73,19.55-41.13,28.11-34.21,31.77-34.21,31.77,5.15,21,12.75,20.09,16.57-23.35,23.09-29.87,42.76-33,48.46-44.8,15.89-42,44.4-53.35Z"/><path opacity="0.1"  d="M396.06,113.2s30.55-2,47.25,18.73,36.25,88.38,93.27,74.94c0,0-9.78,27.7-22,27.7s-35.41-24.26-61.9-74.13c-20.78-39.1-48.88-39.91-48.88-39.91Z"/><polygon opacity="0.1"  points="96.85 275.84 142.19 312.22 119.66 319.01 189.71 357.84 192.15 365.71 93.27 313.31 126.29 310.69 96.85 275.84"/><g opacity="0.1" ><path d="M484.37,336.38c.23,1.7-3.51,6.77-4.43,8.49-1.82,3.4-3.69,6.78-5.68,10.08A107.44,107.44,0,0,1,461,373.07a63.22,63.22,0,0,1-11,9.47,60.18,60.18,0,0,1-6.26,3.66,33.15,33.15,0,0,1-5.53,2.51c-4,1.16-6.15-2.21-7.32-5.52a39.63,39.63,0,0,1-2.34-17.54,118,118,0,0,1,2.55-14.42l-1.95,4.49c-3.06,11.13-4.58,22.56-6,34a4.63,4.63,0,0,0,.26,2.2,3.3,3.3,0,0,0-.88.72c-2.05,2.52-.69,11.11-.81,14.31a.64.64,0,0,0,.09.45c.16.19.46.14.69.08a108.08,108.08,0,0,0,24.47-9.44c9.47-5.29,16.41-12.76,22.79-21.4,3.19-4.31,7.4-8.22,9.2-13.28C482,354.67,485.64,345.54,484.37,336.38Z"/></g><path fill="#2d2926"  d="M546.25,174.21c-3.18-.74-8.44,1.39-15.09,4.09-9.75,3.95-21.88,8.87-30.34,5.74-5.07-1.88-7.29-7.69-10.37-15.74-5.07-13.23-12-31.35-37-46.21-31-18.41-59-20-70.37-19.68a131.09,131.09,0,0,1,24.72,20.67A44.23,44.23,0,0,1,426.37,131c14.63,11.22,26.2,32.31,36.4,50.91,5.86,10.67,10.92,19.89,15.74,25.72l2.36,2.86c10.95,13.3,21.36,25.95,32.32,25.95a14.49,14.49,0,0,0,4.74-.81c11.66-4.06,31.39-46.39,30.79-57.55C548.57,175.31,547.3,174.45,546.25,174.21Z"/>        <path fill="#fff" opacity="0.1"  d="M476.21,346l1.08-1.26a92.83,92.83,0,0,0,7.42-10.56,145.3,145.3,0,0,0-.81-27.45c-5.29-45.37-31.36-100.15-52-142.51s-47.25-57-47.25-57c6,6.79,32.31,49.69,42.63,70.05S469.92,273.93,477,318.19A76.17,76.17,0,0,1,476.21,346Z"/>    </g>    <g id="outline">        <path fill="none"  d="M356.34,93.11,355.15,93a2.48,2.48,0,0,0-.27,0c-2.91-2-5.82-4-8.74-5.93L328.09,74.67l-18-12.43c-6-4.14-12-8.28-18.09-12.3-3-2-6.06-4-9.15-5.88-.77-.46-1.54-.9-2.3-1.3l-.44-.22a.13.13,0,0,1,0,.06c0,.4,0,.83,0,1.27,0,.87.05,1.76.09,2.65.45,7.19,1.48,14.44,2.38,21.66l5,35.75c-.17.14-.31.22-.5.36-16.78,11.82-29.49,28.77-40.42,45.94a377.39,377.39,0,0,0-52.43,133.52c-1.64,9-3,18.11-3.91,27.25-2.95,30.42-1.69,70.59,28.43,87.67,2.13,1.21,13,3.79,8.38,7.39-2.4,1.85-14.48,3-13.86,6.68.7,4.07,12.39,4.42,15.14,4.63a154.42,154.42,0,0,0,17.61.25c.5,0,1.36,0,2.29,0,0-.41,0-.81,0-1.23,0-1.89-.11-3.82,0-5.9s.23-3.84.28-5.79q.13-5.81,0-11.62c-.08-3.87-.29-7.74-.56-11.6s-.7-7.72-1.31-11.54a69.07,69.07,0,0,0-2.59-11.28,32,32,0,0,0-2.24-5.33,16.17,16.17,0,0,0-3.47-4.62h0a16.23,16.23,0,0,1,3.86,4.39,32.74,32.74,0,0,1,2.6,5.28,70.82,70.82,0,0,1,3.27,11.3A156.39,156.39,0,0,1,250.86,393c.2,3.91.31,7.82.27,11.74,0,1.94-.06,4-.17,5.88s.11,3.77.12,5.78a20.78,20.78,0,0,1-.16,3.11,10.25,10.25,0,0,1-.35,1.64,5.4,5.4,0,0,1-.83,1.73,8,8,0,0,1-2.69,2.28,24.91,24.91,0,0,1-2.79,1.32c-.91.38-1.78.74-2.57,1.14a5.63,5.63,0,0,0-1.85,1.34,2.09,2.09,0,0,0-.43,1.64,4,4,0,0,0,.82,1.9,8.07,8.07,0,0,0,1,1,5.5,5.5,0,0,1,.24-3.1,6.54,6.54,0,0,1,2.78-3.37,8.36,8.36,0,0,1,2-.77,12.23,12.23,0,0,1,1.87-.39,13.57,13.57,0,0,1,3.88,0,13.47,13.47,0,0,1-3.14,2.29c-1.11.61-2.2,1.06-3,1.5a9.43,9.43,0,0,0-2.27,1.92,12.87,12.87,0,0,0-1.91,3l.46-.38a13.4,13.4,0,0,0,2.29,1.19,20.72,20.72,0,0,0,5.24,1.4c.78.1,1.56.16,2.35.21a2.79,2.79,0,0,1-.44-.92,3.51,3.51,0,0,1,.15-2.17,7.07,7.07,0,0,1,2.48-3,10,10,0,0,1,3.23-1.62,7.49,7.49,0,0,1,3.65-.16,28.26,28.26,0,0,1-2.6,2.28c-.84.66-1.66,1.29-2.49,1.9a23.66,23.66,0,0,0-2.22,1.75,3.44,3.44,0,0,0-.74,1,2.58,2.58,0,0,0-.2,1.56l.56-.58a48.94,48.94,0,0,0,7.56-.3,41.54,41.54,0,0,0,5.56-1,15.07,15.07,0,0,0,4.81-2.28,23.18,23.18,0,0,0,6.94-8.47c.21-.42.39-.85.59-1.27l.46-1.26c.26-.9.52-1.81.73-2.75.45-1.86.84-3.77,1.26-5.67.81-3.81,1.63-7.63,2.6-11.42a113.45,113.45,0,0,1,3.48-11.21,49,49,0,0,1,5.19-10.48c-3.75,6.85-5.69,14.44-7.24,22-.76,3.66-1.4,7.35-2,11.06a314,314,0,0,0,33.1,5.43c21.48,2.28,43.63,2.35,64.74-2.68a85.25,85.25,0,0,0,8.74-2.61c-.67-3.67-.88-7.34-1.29-10.93-.18-1.86-.49-3.71-.78-5.59s-.58-3.74-.95-5.57a29.16,29.16,0,0,0-1.73-5.34c-.67-1.77-1.29-3.56-1.9-5.35h0c.75,1.74,1.51,3.47,2.32,5.18a28.53,28.53,0,0,1,2.08,5.32c.5,1.85.89,3.7,1.29,5.55s.82,3.71,1.13,5.6c.6,3.76.95,7.53,1.82,11.12a28.69,28.69,0,0,0,1.71,5.19,27.72,27.72,0,0,0,2.71,4.7,18.59,18.59,0,0,0,8.14,6.58,29.09,29.09,0,0,0,5.24,1.25,45.57,45.57,0,0,0,5.48.52c1.28,0,2.56,0,3.84,0l.55.56a2.54,2.54,0,0,0-.2-1.55,3.44,3.44,0,0,0-.74-1,22.12,22.12,0,0,0-2.22-1.75c-.83-.61-1.65-1.24-2.49-1.9a29.86,29.86,0,0,1-2.6-2.28,7.37,7.37,0,0,1,3.65.16,10,10,0,0,1,3.23,1.62,7.1,7.1,0,0,1,2.48,3,3.62,3.62,0,0,1,.15,2.18,2.72,2.72,0,0,1-.45.94l.3,0a23.22,23.22,0,0,0,5.27-.88,16.74,16.74,0,0,0,4.32-1.93l.46.39a12.46,12.46,0,0,0-1.91-3,9.43,9.43,0,0,0-2.27-1.92c-.84-.44-1.93-.89-3.05-1.5a13.63,13.63,0,0,1-3.13-2.29,13.57,13.57,0,0,1,3.88.05,12.23,12.23,0,0,1,1.87.39,8.36,8.36,0,0,1,2,.77,6.56,6.56,0,0,1,2.78,3.36,5.46,5.46,0,0,1,.23,3.14,4.48,4.48,0,0,0,1.86-3.14,2.21,2.21,0,0,0-.46-1.63,5.32,5.32,0,0,0-1.75-1.3c-1.51-.77-3.32-1.32-5.16-2.14a12.14,12.14,0,0,1-2.77-1.64,6.27,6.27,0,0,1-1.24-1.32,4.21,4.21,0,0,1-.5-.89,5.48,5.48,0,0,1-.28-.91,14.89,14.89,0,0,1-.23-1.52l-.18-1.44c-.13-1-.19-1.92-.26-2.88a104.74,104.74,0,0,1,1.2-22.89c1.11-7.54,2.75-15,4.36-22.33a89.58,89.58,0,0,1,2.87-11,23.91,23.91,0,0,1,2.59-5.12,17.25,17.25,0,0,1,3.95-4.09,20,20,0,0,0-5.79,9.46,88.3,88.3,0,0,0-2.19,11.06c-1.26,7.46-2.59,14.9-3.47,22.36-.44,3.74-.76,7.47-.93,11.21a88.36,88.36,0,0,0,.24,11.16c.07.88.15,1.77.28,2.65,5.44.88,11.37.46,16.75.3a155.32,155.32,0,0,0,19.15-1.45c2.36-.37,3.95,0,2.58-2.3-1.61-2.7-4-4-6.93-5-2.41-.82-9.3-1-10.71-3.45-.77-1.34.08-2.05,1-2.94,1.35-1.35,4-2.21,5.6-3.24q3-1.89,5.8-4.05a69.75,69.75,0,0,0,18.8-22.19c8.95-16.71,10.93-36.3,9.16-54.94-2.24-23.72-9.25-47.32-17.25-69.67-8.65-24.15-19.37-47.5-30.8-70.44-9.42-18.92-19.18-36.8-34.41-51.76C389.07,108.75,373.57,98.42,356.34,93.11Zm8,6.24Z"/><path fill="none"  d="M145,317.78h27.56l-71.92-39.63L129.33,312l-30.8,2.45,90.83,48.08a96.53,96.53,0,0,1-2.11-9.92Z"/><path fill="none"  d="M267.39,117.6c1.46-1.56,3-3.07,4.5-4.56-8.5,2.38-22,7.21-31.5,15.67-6,5.32-12.3,12.9-18.44,20.23-9.54,11.4-19.41,23.19-28.86,27.91-6.61,3.31-16.2,5.12-26.35,7.05C153.57,186.38,140,189,134,194.9c-7.1,7.1-3.51,37.79,4.28,53.22,2.24,4.45,4.62,6.95,6.38,6.69,5.45-.82,9.67-8.05,14.14-15.71,3.63-6.21,7.38-12.63,12.3-16.56l2.2-1.76c12-9.52,40-31.82,42.9-43.07,1.67-6.38,9.55-20.13,19.87-32.1,9.45-11,17.5-16.77,24-19.66C262.44,123.09,264.87,120.29,267.39,117.6Z"/><path fill="none"  d="M532.28,181.08c-10.22,4.15-22.94,9.31-32.5,5.77-6.34-2.35-8.9-9-12.14-17.48-4.9-12.81-11.63-30.37-35.73-44.7-26.93-16-51.52-19-64.41-19.27a130.53,130.53,0,0,1,16.75,14c6.92.86,16.19,3.16,23.95,9.12,15.12,11.61,26.85,33,37.2,51.85,5.79,10.54,10.78,19.64,15.42,25.25l2.36,2.86c11.84,14.38,23,27.95,33.76,24.21,3.76-1.3,9.55-8.48,15.49-19.2,5.4-9.73,10.22-21.07,12.28-28.89,1.53-5.79.93-7.29.8-7.53C543.2,176.65,537.9,178.81,532.28,181.08Z"/><path d="M546.25,174.21c-3.18-.73-8.44,1.39-15.09,4.09-9.75,3.95-21.88,8.87-30.34,5.74-5.06-1.88-7.29-7.69-10.37-15.74-5.07-13.23-12-31.35-37-46.21-31-18.41-59-20-70.37-19.67q-3.3-2.11-6.74-4a99.76,99.76,0,0,0-26.06-10q-10.33-7.94-20.83-15.65c-11.77-8.66-23.64-17.16-35.8-25.32-3.06-2-6.12-4-9.31-5.91-.8-.47-1.61-.93-2.47-1.37a13.21,13.21,0,0,0-1.4-.64c-.15-.05-.25-.1-.44-.15l-.31-.07a1.36,1.36,0,0,0-.46,0,1.72,1.72,0,0,0-.73.16,2,2,0,0,0-.66.53,2.53,2.53,0,0,0-.38.72,6.8,6.8,0,0,0-.28,1.74c0,.51,0,1,0,1.47,0,1,.06,1.89.13,2.82.29,3.7.75,7.33,1.24,11s1.06,7.25,1.66,10.85c1.78,11,3.84,21.84,6.11,32.69a105.63,105.63,0,0,0-9.75,7.54c-7,1.55-25.65,6.53-38.17,17.72-6.13,5.47-12.54,13.13-18.75,20.55-9.35,11.16-19,22.71-27.9,27.15-6.24,3.12-15.63,4.9-25.57,6.78-13.61,2.57-27.68,5.23-34.28,11.83-8.81,8.81-3.91,41.57,3.72,56.7,2.8,5.54,5.74,8.35,8.77,8.35a4.71,4.71,0,0,0,.74-.06c6.86-1,11.44-8.86,16.28-17.16,3.49-6,7.1-12.14,11.58-15.73l2.2-1.75c13.22-10.53,40.75-32.44,43.93-44.66,2.56-9.8,19-34.76,36-46.21-10.74,14.19-19.77,29.87-27.85,45.51a378.65,378.65,0,0,0-27.51,69.12q-5.15,17.82-8.5,36.06c-3.67,20.16-7.18,43.49-4.6,65.22l-33.26-27.39h30.85L87.8,267.65l35.45,41.77L88,312.22l102.56,54.29A73.58,73.58,0,0,0,198.19,383a54.05,54.05,0,0,0,16.37,16.68,55.94,55.94,0,0,0,5.28,3c.46.23,2,1.13,3.25,1.71-.13,0-.23.1-.31.12-1.79.63-3.6,1.17-5.38,1.82-3.43,1.25-9.09,3.21-6.82,8,1.88,3.92,8,4.8,11.71,5.38a117,117,0,0,0,20,1c1.43,0,3.41.1,5.39,0a3.67,3.67,0,0,1-.27.46c-.78,1.08-2.5,1.86-4.26,2.58-.89.36-1.82.74-2.78,1.21a8.75,8.75,0,0,0-2.81,2.1,5.2,5.2,0,0,0-.95,1.84,5.44,5.44,0,0,0-.14,2,7,7,0,0,0,1.42,3.42,13.23,13.23,0,0,0,5.37,3.72,23.2,23.2,0,0,0,6,1.57,48.66,48.66,0,0,0,12-.11,46.19,46.19,0,0,0,5.91-1.2,17.82,17.82,0,0,0,5.64-2.79,23.54,23.54,0,0,0,4.39-4.36,28.57,28.57,0,0,0,3.12-5.23c.22-.46.4-.93.6-1.4l.5-1.5c.25-1,.5-1.95.68-2.91s.43-2.15.63-3.23c22.29,4.83,45.24,7.68,68.06,6.77a160.1,160.1,0,0,0,32.55-4.43q3.63-.9,7.19-2a29,29,0,0,0,3.8,8.11,20.46,20.46,0,0,0,9.09,7.68,31,31,0,0,0,5.75,1.49,47.09,47.09,0,0,0,5.79.67,45.51,45.51,0,0,0,5.84,0c1-.07,1.92-.15,2.94-.3a24.39,24.39,0,0,0,3-.66,19,19,0,0,0,5.57-2.55,9.63,9.63,0,0,0,2.39-2.34,6.59,6.59,0,0,0,1.21-3.38,5.81,5.81,0,0,0-.19-1.92,5.38,5.38,0,0,0-.92-1.76,8.31,8.31,0,0,0-2.74-2.09c-1.87-.93-3.7-1.46-5.32-2.18s-2.8-1.53-3.1-2.52l.76.08a143.8,143.8,0,0,0,20.86,0c5.57-.29,11.91-.22,17.3-1.84,3.77-1.14,2.9-4.87.85-7.65-3.27-4.44-9.45-5.46-14.45-6.64l-.43-.13c.93-.57,1.95-1.32,2.33-1.55A76.48,76.48,0,0,0,462.69,389c14-12.67,21.83-30.36,24.28-48.89,2.85-21.53-1.29-43.22-6.67-64-6.48-25.07-15.82-49.32-26.42-72.92-5.39-12-11.13-23.86-17-35.62-5.06-10.06-10.07-20.08-16.63-29.27a147.15,147.15,0,0,0-12.42-15.14A44.36,44.36,0,0,1,426.37,131c14.63,11.22,26.2,32.31,36.4,50.91,5.86,10.67,10.92,19.89,15.74,25.72l2.36,2.86c10.95,13.3,21.36,25.95,32.32,25.95a14.49,14.49,0,0,0,4.74-.81c11.66-4.06,31.39-46.39,30.79-57.55C548.57,175.31,547.3,174.45,546.25,174.21Zm-310.16-28.6c-10.32,12-18.2,25.72-19.87,32.1-2.93,11.25-30.94,33.55-42.9,43.07l-2.2,1.76c-4.92,3.93-8.67,10.35-12.3,16.56-4.47,7.66-8.69,14.89-14.14,15.71-1.76.26-4.14-2.24-6.38-6.69C130.51,232.69,126.92,202,134,194.9c5.94-5.94,19.55-8.52,32.72-11,10.15-1.93,19.74-3.74,26.35-7.05,9.45-4.72,19.32-16.51,28.86-27.91,6.14-7.33,12.48-14.91,18.44-20.23,9.47-8.46,23-13.29,31.5-15.67-1.54,1.49-3,3-4.5,4.56-2.52,2.69-4.95,5.49-7.3,8.35C253.59,128.84,245.54,134.64,236.09,145.61ZM98.53,314.4l30.8-2.45-28.68-33.8,71.92,39.63H145l42.24,34.78a96.53,96.53,0,0,0,2.11,9.92ZM436.29,173.09c11.43,22.94,22.15,46.29,30.8,70.44,8,22.35,15,46,17.25,69.67,1.77,18.64-.21,38.23-9.16,54.94a69.75,69.75,0,0,1-18.8,22.19q-2.81,2.16-5.8,4.05c-1.64,1-4.25,1.89-5.6,3.24-.89.89-1.74,1.6-1,2.94,1.41,2.48,8.3,2.63,10.71,3.45,2.95,1,5.32,2.32,6.93,5,1.37,2.3-.22,1.93-2.58,2.3a155.32,155.32,0,0,1-19.15,1.45c-5.38.16-11.31.58-16.75-.3-.13-.88-.21-1.77-.28-2.65a88.36,88.36,0,0,1-.24-11.16c.17-3.74.49-7.47.93-11.21.88-7.46,2.21-14.9,3.47-22.36A88.3,88.3,0,0,1,429.24,354a20,20,0,0,1,5.79-9.46,17.25,17.25,0,0,0-3.95,4.09,23.91,23.91,0,0,0-2.59,5.12,89.58,89.58,0,0,0-2.87,11c-1.61,7.38-3.25,14.79-4.36,22.33a104.74,104.74,0,0,0-1.2,22.89c.07,1,.13,1.92.26,2.88l.18,1.44a14.89,14.89,0,0,0,.23,1.52,5.48,5.48,0,0,0,.28.91,4.21,4.21,0,0,0,.5.89,6.27,6.27,0,0,0,1.24,1.32,12.14,12.14,0,0,0,2.77,1.64c1.84.82,3.65,1.37,5.16,2.14a5.32,5.32,0,0,1,1.75,1.3,2.21,2.21,0,0,1,.46,1.63,4.48,4.48,0,0,1-1.86,3.14,5.46,5.46,0,0,0-.23-3.14,6.56,6.56,0,0,0-2.78-3.36,8.36,8.36,0,0,0-2-.77,12.23,12.23,0,0,0-1.87-.39,13.57,13.57,0,0,0-3.88-.05,13.63,13.63,0,0,0,3.13,2.29c1.12.61,2.21,1.06,3.05,1.5a9.43,9.43,0,0,1,2.27,1.92,12.46,12.46,0,0,1,1.91,3l-.46-.39a16.74,16.74,0,0,1-4.32,1.93,23.22,23.22,0,0,1-5.27.88l-.3,0a2.72,2.72,0,0,0,.45-.94,3.62,3.62,0,0,0-.15-2.18,7.1,7.1,0,0,0-2.48-3,10,10,0,0,0-3.23-1.62,7.37,7.37,0,0,0-3.65-.16,29.86,29.86,0,0,0,2.6,2.28c.84.66,1.66,1.29,2.49,1.9a22.12,22.12,0,0,1,2.22,1.75,3.44,3.44,0,0,1,.74,1,2.54,2.54,0,0,1,.2,1.55l-.55-.56c-1.28,0-2.56.06-3.84,0a45.57,45.57,0,0,1-5.48-.52,29.09,29.09,0,0,1-5.24-1.25,18.59,18.59,0,0,1-8.14-6.58,27.72,27.72,0,0,1-2.71-4.7,28.69,28.69,0,0,1-1.71-5.19c-.87-3.59-1.22-7.36-1.82-11.12-.31-1.89-.73-3.76-1.13-5.6s-.79-3.7-1.29-5.55a28.53,28.53,0,0,0-2.08-5.32c-.81-1.71-1.57-3.44-2.32-5.18h0c.61,1.79,1.23,3.58,1.9,5.35a29.16,29.16,0,0,1,1.73,5.34c.37,1.83.65,3.7.95,5.57s.6,3.73.78,5.59c.41,3.59.62,7.26,1.29,10.93a85.25,85.25,0,0,1-8.74,2.61c-21.11,5-43.26,5-64.74,2.68a314,314,0,0,1-33.1-5.43c.63-3.71,1.27-7.4,2-11.06,1.55-7.58,3.49-15.17,7.24-22a49,49,0,0,0-5.19,10.48,113.45,113.45,0,0,0-3.48,11.21c-1,3.79-1.79,7.61-2.6,11.42-.42,1.9-.81,3.81-1.26,5.67-.21.94-.47,1.85-.73,2.75l-.46,1.26c-.2.42-.38.85-.59,1.27a23.18,23.18,0,0,1-6.94,8.47,15.07,15.07,0,0,1-4.81,2.28,41.54,41.54,0,0,1-5.56,1,48.94,48.94,0,0,1-7.56.3l-.56.58a2.58,2.58,0,0,1,.2-1.56,3.44,3.44,0,0,1,.74-1,23.66,23.66,0,0,1,2.22-1.75c.83-.61,1.65-1.24,2.49-1.9a28.26,28.26,0,0,0,2.6-2.28,7.49,7.49,0,0,0-3.65.16,10,10,0,0,0-3.23,1.62,7.07,7.07,0,0,0-2.48,3,3.51,3.51,0,0,0-.15,2.17,2.79,2.79,0,0,0,.44.92c-.79,0-1.57-.11-2.35-.21a20.72,20.72,0,0,1-5.24-1.4,13.4,13.4,0,0,1-2.29-1.19l-.46.38a12.87,12.87,0,0,1,1.91-3,9.43,9.43,0,0,1,2.27-1.92c.84-.44,1.93-.89,3-1.5a13.47,13.47,0,0,0,3.14-2.29,13.57,13.57,0,0,0-3.88,0,12.23,12.23,0,0,0-1.87.39,8.36,8.36,0,0,0-2,.77,6.54,6.54,0,0,0-2.78,3.37,5.5,5.5,0,0,0-.24,3.1,8.07,8.07,0,0,1-1-1,4,4,0,0,1-.82-1.9,2.09,2.09,0,0,1,.43-1.64,5.63,5.63,0,0,1,1.85-1.34c.79-.4,1.66-.76,2.57-1.14a24.91,24.91,0,0,0,2.79-1.32,8,8,0,0,0,2.69-2.28,5.4,5.4,0,0,0,.83-1.73,10.25,10.25,0,0,0,.35-1.64,20.78,20.78,0,0,0,.16-3.11c0-2-.18-4-.12-5.78s.15-3.94.17-5.88c0-3.92-.07-7.83-.27-11.74a156.39,156.39,0,0,0-2.77-23.32,70.82,70.82,0,0,0-3.27-11.3,32.74,32.74,0,0,0-2.6-5.28,16.23,16.23,0,0,0-3.86-4.39h0a16.17,16.17,0,0,1,3.47,4.62,32,32,0,0,1,2.24,5.33A69.07,69.07,0,0,1,246.66,370c.61,3.82,1,7.68,1.31,11.54s.48,7.73.56,11.6.07,7.75,0,11.62c0,1.95-.13,3.82-.28,5.79s.05,4,0,5.9c0,.42,0,.82,0,1.23-.93,0-1.79,0-2.29,0a154.42,154.42,0,0,1-17.61-.25c-2.75-.21-14.44-.56-15.14-4.63-.62-3.64,11.46-4.83,13.86-6.68,4.66-3.6-6.25-6.18-8.38-7.39-30.12-17.08-31.38-57.25-28.43-87.67.88-9.14,2.27-18.22,3.91-27.25a377.39,377.39,0,0,1,52.43-133.52c10.93-17.17,23.64-34.12,40.42-45.94.19-.14.33-.22.5-.36l-5-35.75c-.9-7.22-1.93-14.47-2.38-21.66,0-.89-.08-1.78-.09-2.65,0-.44,0-.87,0-1.27a.13.13,0,0,0,0-.06l.44.22c.76.4,1.53.84,2.3,1.3,3.09,1.85,6.12,3.87,9.15,5.88,6.08,4,12.08,8.16,18.09,12.3l18,12.43,18.05,12.41c2.92,2,5.83,4,8.74,5.93a2.48,2.48,0,0,1,.27,0l1.19.07c17.23,5.31,32.73,15.64,45.54,28.22C417.11,136.29,426.87,154.17,436.29,173.09Zm108.42,11.56c-2.06,7.82-6.88,19.16-12.28,28.89-5.94,10.72-11.73,17.9-15.49,19.2-10.75,3.74-21.92-9.83-33.76-24.21l-2.36-2.86c-4.64-5.61-9.63-14.71-15.42-25.25-10.35-18.86-22.08-40.24-37.2-51.85-7.76-6-17-8.26-23.95-9.12a130.53,130.53,0,0,0-16.75-14c12.89.28,37.48,3.26,64.41,19.27,24.1,14.33,30.83,31.89,35.73,44.7,3.24,8.46,5.8,15.13,12.14,17.48,9.56,3.54,22.28-1.62,32.5-5.77,5.62-2.27,10.92-4.43,13.23-4C545.64,177.36,546.24,178.86,544.71,184.65Z"/><polygon fill="#b07f6e"  points="364.29 99.35 364.29 99.35 364.29 99.35 364.29 99.35"/>    </g>    <g id="eye">        <g id="eye-color1">            <g opacity="0" ><path fill="#C5EDC5"  d="M251.88,194.72c-.14.46-.2.94-.35,1.41a16.61,16.61,0,0,1-1.35,2.86c-.53.94-1,1.9-1.55,2.83-.23.41-.49.81-.76,1.2-.14.21-.29.41-.44.61s-.45.47-.45.6c-.19.25-.39.5-.59.74-5.88,7.05-13.91,9.8-22.69,6.54-8.54-3.17-14.21-10.41-14.65-19.54a1.27,1.27,0,0,1,0-.28,1.29,1.29,0,0,1,0-.29,23.29,23.29,0,0,1,19-21.82,19,19,0,0,1,11.42,1.35c-15.3-7.7-34.36-2.93-39.3,15.33a21.13,21.13,0,0,0-.66,6.53A29.44,29.44,0,0,0,210,213c8.59,7.08,21.5,6.67,31,1.77,7.19-3.7,10-12.6,10.93-20.46C252,194.47,251.92,194.59,251.88,194.72Z"/></g><g opacity="0" ><path fill="#C5EDC5"  d="M375.64,188.66c-.24.62-.44,1.25-.7,1.86a25.86,25.86,0,0,1-2,3.67,32.56,32.56,0,0,1-2.54,3.42c-5.88,7-13.9,9.8-22.69,6.54-8.54-3.17-14.21-10.41-14.65-19.54a1.27,1.27,0,0,1,0-.28.9.9,0,0,1,0-.29,23.29,23.29,0,0,1,19-21.82,19,19,0,0,1,11.42,1.35c-15.29-7.7-34.35-2.93-39.29,15.33a20.54,20.54,0,0,0-.66,6.53,29.36,29.36,0,0,0,10.48,20.24c8.59,7.08,21.5,6.67,31,1.77,6.9-3.55,9.72-12,10.77-19.66C375.81,188,375.73,188.41,375.64,188.66Z"/></g>        </g>        <g id="eye-shape">            <path fill="#fbfbfb"  d="M295.23,123.9c-21.73-17.81-51.73-12-72.06,4.87-11.71,10.13-20.83,23.9-22.35,39.61-1.28,13.09,2.59,26.27,9.6,37.28,12.38,19.45,36.52,33.94,59.91,27.1,20.91-6.12,35.23-26.45,41.18-46.49C318.07,164.16,313.73,139.06,295.23,123.9Zm16.09,44.39c3.12,13.14-4,29.29-15.05,36.62-11.44,7.59-25.45,6.31-36.15-1.92-11.83-9.09-12.9-22.85-8.48-36.31a1.66,1.66,0,0,1,.15-.33c5.3-13,20-19.08,33.33-17.46a40.23,40.23,0,0,1,4.79.88c7-2,15.58,1.56,16.61,9.36A21.23,21.23,0,0,1,311.32,168.29Z"/><path d="M221.05,126.64c-10.64,9.21-19.13,21.3-22.21,35.19-2.76,12.5-.75,25.57,4.53,37.13,10.21,22.39,34.35,41.16,59.93,38.25,23.13-2.63,40.23-22.11,48.49-42.65,9.19-22.89,7.78-50-9.89-68.55C279.45,102.48,244.4,107.3,221.05,126.64Zm90.46,59.63c-5.95,20-20.27,40.37-41.18,46.49-23.39,6.84-47.53-7.65-59.91-27.1-7-11-10.88-24.19-9.6-37.28,1.52-15.71,10.64-29.48,22.35-39.61,20.33-16.85,50.33-22.68,72.06-4.87C313.73,139.06,318.07,164.16,311.51,186.27Z"/><path d="M306.46,162.89c-1.18,7.61-8.53,14.09-16.4,11.78-7.26-2.13-10.49-10.21-8.63-17.12a1.6,1.6,0,0,1,.1-.39,1.55,1.55,0,0,1,.18-.39,12.36,12.36,0,0,1,8.2-7,40.23,40.23,0,0,0-4.79-.88c-13.38-1.62-28,4.45-33.33,17.46a1.66,1.66,0,0,0-.15.33c-4.42,13.46-3.35,27.22,8.48,36.31,10.7,8.23,24.71,9.51,36.15,1.92,11.05-7.33,18.17-23.48,15.05-36.62a21.23,21.23,0,0,0-4.8-9.16A12.89,12.89,0,0,1,306.46,162.89Z"/><path fill="#fff"  d="M289.91,149.77a12.36,12.36,0,0,0-8.2,7,1.55,1.55,0,0,0-.18.39,1.6,1.6,0,0,0-.1.39c-1.86,6.91,1.37,15,8.63,17.12,7.87,2.31,15.22-4.17,16.4-11.78a12.89,12.89,0,0,0,.06-3.76C305.49,151.33,297,147.81,289.91,149.77Z"/><path fill="#fbfbfb"  d="M437,125.33c-21.81-15.39-53-18.4-71.71,3.55-17.26,21.61-17.19,56.12-2.48,79a51.87,51.87,0,0,0,65.66,19.41,58,58,0,0,0,33.47-49.53C463,157.45,453.74,137.14,437,125.33ZM371.26,207.2c-14.35-8.09-20.39-26.75-13.74-41.9a30.4,30.4,0,0,1,4.24-6.93,10.14,10.14,0,0,1,1.62-5.68c2.63-4.13,8-4.82,12.6-3.79a30.44,30.44,0,0,1,12.63-1c14.24,1.89,27.35,11.64,30.73,26C425.83,201.43,394.08,218.68,371.26,207.2Z"/><path d="M444.44,127.47c-22.48-20.29-60.06-25.66-81.28-.71-16.45,20.6-17.87,51.3-7.19,74.86,10.79,23.79,36.25,38.16,62.16,32.38,23.25-5.19,41.58-24.61,45.83-47.95C467.84,164.77,460.58,142,444.44,127.47Zm17.49,50.33a58,58,0,0,1-33.47,49.53,51.87,51.87,0,0,1-65.66-19.41c-14.71-22.92-14.78-57.43,2.48-79,18.67-21.95,49.9-18.94,71.71-3.55C453.74,137.14,463,157.45,461.93,177.8Z"/><path d="M388.61,148a30.44,30.44,0,0,0-12.63,1A17.87,17.87,0,0,1,379.2,150c5.45,2.44,8.81,8.09,6.23,13.93-3,6.77-10.57,8.5-16.85,5.51a1.36,1.36,0,0,1-.39-.18,1.28,1.28,0,0,1-.34-.24,13.69,13.69,0,0,1-6.09-10.61,30.4,30.4,0,0,0-4.24,6.93c-6.65,15.15-.61,33.81,13.74,41.9,22.82,11.48,54.57-5.77,48.08-33.26C416,159.59,402.85,149.84,388.61,148Z"/><path fill="#fff"  d="M367.85,169a1.28,1.28,0,0,0,.34.24,1.36,1.36,0,0,0,.39.18c6.28,3,13.85,1.26,16.85-5.51,2.58-5.84-.78-11.49-6.23-13.93A17.87,17.87,0,0,0,376,148.9c-4.6-1-10-.34-12.6,3.79a10.14,10.14,0,0,0-1.62,5.68A13.69,13.69,0,0,0,367.85,169Z"/><path fill="#fcf9f7"  d="M312.47,111.88c-3.15-2.12-8.21-4.63-12.08-3.19-2.63,1-3.4,3.79-2.51,6.24a12.78,12.78,0,0,0,.68,1.53,18.3,18.3,0,0,0,6.7,7.31c3.21,1.86,8.4,2.89,11.18-.27,2.17-2.47,1.49-6-.39-8.45A14.85,14.85,0,0,0,312.47,111.88Z"/><path fill="#fcf9f7"  d="M354.8,126.17c4.59-.46,8.71-4.37,10.83-8.24a10.54,10.54,0,0,0,1.3-3.71,3.28,3.28,0,0,0-.12-1.59c-.45-1.17-1.81-1.7-3.05-1.91a13.76,13.76,0,0,0-7.42.87c-3.38,1.35-7,3.44-8.19,7.14a6.23,6.23,0,0,0-.15.62C347.21,123.36,351,126.56,354.8,126.17Z"/>        </g>        <g id="eye-color2">            <path fill="#FFF471"  d="M296.27,204.91c-11.44,7.59-25.45,6.31-36.15-1.92-11.83-9.09-12.9-22.84-8.48-36.31a1.35,1.35,0,0,1,.15-.32c5.09-12.49,18.79-18.57,31.71-17.61-18.58-4.76-40.69,3.61-47,22.29a37.85,37.85,0,0,0,4.9,33.63c7.49,10.53,19.92,14.81,32.48,14.76,6.18,0,12.54-1,17.8-4.26,8.59-5.28,15.13-15.61,17.42-26.36A36.29,36.29,0,0,1,296.27,204.91Z"/><path fill="#FFF471"  d="M413,151.48c-9.56-6.8-25.15-8-36.48-2.76a30.47,30.47,0,0,1,12.05-.77c14.24,1.89,27.35,11.64,30.73,26,6.49,27.5-25.26,44.74-48.08,33.26a32.32,32.32,0,0,1-14.31-17,15.56,15.56,0,0,0,.4,2.35,31.17,31.17,0,0,0,16.47,20.87c13.12,6.59,30.83,4.54,43.3-5.59a31.75,31.75,0,0,0,10.47-14.43C432.45,178.47,425.74,160.52,413,151.48Z"/>        </g>    </g>    <g id="nose-mouth">        <path fill="none"  d="M409,275.37h0Z"/><path fill="none"  d="M394.78,308.82l0,.08s0,0,0-.07Z"/><path fill="#e8d3b3"  d="M361.93,304.22a40.62,40.62,0,0,1,3.69,9.25,32.5,32.5,0,0,1,1.09,10,28.16,28.16,0,0,1-1.22,7c.94-.4,1.88-.84,2.78-1.31a33.14,33.14,0,0,0,5.12-3.27,32.58,32.58,0,0,0,8-9.07,36.91,36.91,0,0,0,4.43-11.47,60.07,60.07,0,0,0,1.23-12.54,44.83,44.83,0,0,1,.64,8.36,21.71,21.71,0,0,1,4.89,4.1,12.15,12.15,0,0,1,1.77,2.62l.08-.11a25.11,25.11,0,0,0,2.45-5.9,40.39,40.39,0,0,0,1.32-6.67c-.26-.49-.54-1-.85-1.46a15.93,15.93,0,0,1,2.55,2.93,25.91,25.91,0,0,1,1.88,3.43,35.8,35.8,0,0,1,1.36,3.67c0,.12.07.25.11.38l.71-1.45c.57-1.54,1.32-3,1.84-4.55a49.08,49.08,0,0,0,2.38-9.42,37.41,37.41,0,0,0,.06-9.69,29,29,0,0,0-2.85-9.46,19.44,19.44,0,0,1,3.58,5.76h0a21.12,21.12,0,0,1,3.61.54,34.7,34.7,0,0,1,4.56,1.49,45.09,45.09,0,0,1,4.33,2.05c.53.28,1,.59,1.55.89a48.63,48.63,0,0,0-1-5.12,32.4,32.4,0,0,0-2.83-7.41,28.07,28.07,0,0,0-2.14-3.33,24.78,24.78,0,0,0-2.68-2.94,21.28,21.28,0,0,0-6.89-4.32,16.48,16.48,0,0,1,8,3c.41.28.8.6,1.19.91.73-.13,1.46-.27,2.19-.35a29.66,29.66,0,0,1,3-.23,32,32,0,0,1,6,.33,31.13,31.13,0,0,1,5.9,1.43,27.11,27.11,0,0,1,2.8,1.1,49.94,49.94,0,0,0-8.27-13.81,45.43,45.43,0,0,0-6.88-6.56c-1.23-1-2.56-1.88-3.88-2.77s-2.73-1.64-4.16-2.35a68.43,68.43,0,0,0-18.19-6.23,94.94,94.94,0,0,0-14-1.74c-.27,1.15-.58,2.32-1,3.5-6.48,19.83-28.21,40.19-43.87,41.1-.52,0-1,.05-1.58.05-15.46,0-37.36-12.51-48.72-28.07a44.82,44.82,0,0,1-5.42-9.56,117.07,117.07,0,0,0-12.57,4.44,72.2,72.2,0,0,0-17.07,9.82,37.91,37.91,0,0,0-6.84,6.85,30.84,30.84,0,0,0-4.65,8.32,29.93,29.93,0,0,0-1.58,9.35l.05,2.4.28,2.39c.05.39.09.8.15,1.19l0,.23c.21-.28.42-.54.64-.81a21.72,21.72,0,0,1,3.33-3.24,16.6,16.6,0,0,1,4.09-2.35,14.57,14.57,0,0,1,4.65-1l1.45-.1-.17,1.45a37.19,37.19,0,0,0-.17,5.5,39,39,0,0,0,.61,5.51,25.27,25.27,0,0,0,1.6,5.25,18.45,18.45,0,0,0,2.08,3.43,17.92,17.92,0,0,1,.25-1.79,16.23,16.23,0,0,1,.95-3.21,11.64,11.64,0,0,1,1.72-2.85,8.87,8.87,0,0,1,2.61-2,2.83,2.83,0,0,0-.28.2,6.31,6.31,0,0,1,.63-.34,36.56,36.56,0,0,1,2.68-11.74,33.12,33.12,0,0,0-1.37,5.87,40.24,40.24,0,0,0-.49,6A39.29,39.29,0,0,0,265,297.51a36.32,36.32,0,0,0,2.11,5.54,39,39,0,0,0,2.9,5.16,47.12,47.12,0,0,0,5.71,7c.05-.86.13-1.72.25-2.58a34.78,34.78,0,0,1,1.1-5.31,26.28,26.28,0,0,1,2.05-5.1,19.57,19.57,0,0,1,3.31-4.53l2.47-2.52-.06,3.61a49,49,0,0,0,1.27,11.65,39.22,39.22,0,0,0,4.19,10.88,27.7,27.7,0,0,0,7.58,8.6,28.51,28.51,0,0,0,8.75,4.28c0-1.59,0-3.16.09-4.74.11-2.21.3-4.41.61-6.61a43.94,43.94,0,0,1,1.4-6.55,19,19,0,0,1,3.05-6.21l.76-.94.82.83a34.91,34.91,0,0,1,5.28,6.85,22.78,22.78,0,0,1,1.84,4,13.07,13.07,0,0,1,.71,3.59,7.92,7.92,0,0,0,1.57-.42,9.2,9.2,0,0,0,2.13-1.21,11.72,11.72,0,0,0,3.17-3.86,20.71,20.71,0,0,0,1.78-4.83,31.93,31.93,0,0,0,.77-4.26c-.2-.21-.39-.44-.6-.65a44,44,0,0,0-5.45-4.79,28.47,28.47,0,0,1,6.37,3.76,29.39,29.39,0,0,1,5.32,5.31,23.53,23.53,0,0,1,3.69,6.7l.61,1.84c.15.64.26,1.28.38,1.91.06.32.13.64.17,1l0,.46a47.6,47.6,0,0,0,10.8-8.76l1.32-1.55c.42-.53.79-1.09,1.19-1.64a13.37,13.37,0,0,0,1.12-1.69,16.56,16.56,0,0,0,1-1.78l.89-1.85c.29-.62.46-1.29.71-1.93l.36-1c.1-.33.16-.67.24-1l.05-.21a25.18,25.18,0,0,0,.43-2.53,53.33,53.33,0,0,0-2.91-5.28A41.71,41.71,0,0,1,361.93,304.22Z"/><path d="M439.85,265.47a51.39,51.39,0,0,0-3.7-9.35,50,50,0,0,0-2.51-4.38c-.45-.72-1-1.38-1.47-2.07l-.75-1-.82-1a44,44,0,0,0-7.28-7,49.11,49.11,0,0,0-8.58-5.33,62.39,62.39,0,0,0-9.38-3.61,71,71,0,0,0-9.78-2,72.93,72.93,0,0,0-14.16-.5c2.2-10.25-.35-18.92-7.37-24.72-14.57-12-41.79-12-62.29-6.63C295.08,202.2,283.21,209.76,280,218c-2.18,5.64-2,11.82.43,18.22a95.82,95.82,0,0,0-12.92,3.55,67.55,67.55,0,0,0-18.06,9.34,36.16,36.16,0,0,0-12.67,16.21A30.68,30.68,0,0,0,235,275.7l.07,2.62.33,2.59c.06.43.1.86.18,1.29l.29,1.27.57,2.53.88,3.81,1.82-3.57a21.91,21.91,0,0,1,2.19-3.36,19.35,19.35,0,0,1,2.82-2.9,13.82,13.82,0,0,1,3.38-2.05,10.7,10.7,0,0,1,2.46-.73,41.58,41.58,0,0,0,.13,4.33,34.67,34.67,0,0,0,.92,5.8,27.07,27.07,0,0,0,2,5.53,18,18,0,0,0,3.62,4.7l1.12,1-.11-1.5a18.53,18.53,0,0,1,.08-3.15,15.76,15.76,0,0,1,.64-3.11,11.83,11.83,0,0,1,1.37-2.87,8.74,8.74,0,0,1,2.05-2,2.83,2.83,0,0,1,.28-.2,8.87,8.87,0,0,0-2.61,2,11.64,11.64,0,0,0-1.72,2.85,16.23,16.23,0,0,0-.95,3.21,17.92,17.92,0,0,0-.25,1.79,18.45,18.45,0,0,1-2.08-3.43,25.27,25.27,0,0,1-1.6-5.25,39,39,0,0,1-.61-5.51,37.19,37.19,0,0,1,.17-5.5l.17-1.45-1.45.1a14.57,14.57,0,0,0-4.65,1,16.6,16.6,0,0,0-4.09,2.35,21.72,21.72,0,0,0-3.33,3.24c-.22.27-.43.53-.64.81l0-.23c-.06-.39-.1-.8-.15-1.19l-.28-2.39-.05-2.4a29.93,29.93,0,0,1,1.58-9.35,30.84,30.84,0,0,1,4.65-8.32,37.91,37.91,0,0,1,6.84-6.85,72.2,72.2,0,0,1,17.07-9.82,117.07,117.07,0,0,1,12.57-4.44,44.82,44.82,0,0,0,5.42,9.56c11.36,15.56,33.26,28.07,48.72,28.07.54,0,1.06,0,1.58-.05,15.66-.91,37.39-21.27,43.87-41.1.39-1.18.7-2.35,1-3.5a94.94,94.94,0,0,1,14,1.74,68.43,68.43,0,0,1,18.19,6.23c1.43.71,2.79,1.54,4.16,2.35s2.65,1.77,3.88,2.77a45.43,45.43,0,0,1,6.88,6.56,49.94,49.94,0,0,1,8.27,13.81,27.11,27.11,0,0,0-2.8-1.1,31.13,31.13,0,0,0-5.9-1.43,32,32,0,0,0-6-.33,29.66,29.66,0,0,0-3,.23c-.73.08-1.46.22-2.19.35-.39-.31-.78-.63-1.19-.91a16.48,16.48,0,0,0-8-3,21.28,21.28,0,0,1,6.89,4.32,24.78,24.78,0,0,1,2.68,2.94,28.07,28.07,0,0,1,2.14,3.33,32.4,32.4,0,0,1,2.83,7.41,48.63,48.63,0,0,1,1,5.12c-.51-.3-1-.61-1.55-.89a45.09,45.09,0,0,0-4.33-2.05,34.7,34.7,0,0,0-4.56-1.49,21.12,21.12,0,0,0-3.61-.54h0a19.44,19.44,0,0,0-3.58-5.76,29,29,0,0,1,2.85,9.46,37.41,37.41,0,0,1-.06,9.69,49.08,49.08,0,0,1-2.38,9.42c-.52,1.55-1.27,3-1.84,4.55l-.71,1.45c0-.13-.07-.26-.11-.38a35.8,35.8,0,0,0-1.36-3.67,25.91,25.91,0,0,0-1.88-3.43,15.93,15.93,0,0,0-2.55-2.93c.31.48.59,1,.85,1.46a40.39,40.39,0,0,1-1.32,6.67,25.11,25.11,0,0,1-2.45,5.9l-.08.11a12.15,12.15,0,0,0-1.77-2.62,21.71,21.71,0,0,0-4.89-4.1,44.83,44.83,0,0,0-.64-8.36,60.07,60.07,0,0,1-1.23,12.54,36.91,36.91,0,0,1-4.43,11.47,32.58,32.58,0,0,1-8,9.07,33.14,33.14,0,0,1-5.12,3.27c-.9.47-1.84.91-2.78,1.31a28.16,28.16,0,0,0,1.22-7,32.5,32.5,0,0,0-1.09-10,40.62,40.62,0,0,0-3.69-9.25,41.71,41.71,0,0,0-5.61-8.09,53.33,53.33,0,0,1,2.91,5.28c.54,1.11,1.06,2.23,1.53,3.37a47.55,47.55,0,0,1,2.77,9.16,32.62,32.62,0,0,1,.58,4.7,31.78,31.78,0,0,1-.06,4.68,28.83,28.83,0,0,1-2.32,9L360.55,335l2.86-.75a30.71,30.71,0,0,0,6.25-2.47,36.09,36.09,0,0,0,5.53-3.63,32.83,32.83,0,0,0,8.43-10.11,35.34,35.34,0,0,0,3.81-12.45c.15-1.28.24-2.56.28-3.84,1.07,1.64,2.15,3.21,3.06,4.81a12.47,12.47,0,0,1,1.27,2.81l.15.49a2.51,2.51,0,0,0,.46.83,2,2,0,0,0,1.33.69,2.26,2.26,0,0,0,1.2-.25,3.82,3.82,0,0,0,1.11-.87,9.36,9.36,0,0,0,.66-.85,16,16,0,0,0,2.33-7.12,14.43,14.43,0,0,0-.93-6.9c.28.56.54,1.12.79,1.68a35,35,0,0,1,1.19,3.54c.33,1.2.59,2.41.81,3.63a33.45,33.45,0,0,1,.5,3.64l.3,3.86,2-3.38q1.31-2.2,2.58-4.46c.37-.78.73-1.57,1.08-2.36a24,24,0,0,0,1-2.39,35.78,35.78,0,0,0,1.52-5c.17-.85.42-1.69.54-2.55s.23-1.73.32-2.6a30.71,30.71,0,0,0-.84-10.38,26.83,26.83,0,0,0-1-2.91c1.06.37,2.1.77,3.11,1.22,1.4.67,2.76,1.37,4.09,2.14s2.63,1.57,3.89,2.44,2.56,1.73,3.71,2.64l2.35,1.86-.1-3.06a37,37,0,0,0-1.22-8.53,32.33,32.33,0,0,0-1.39-4.13,26.09,26.09,0,0,0-2-3.88,21.65,21.65,0,0,0-4.68-5.28,42,42,0,0,1,5,.1,36.08,36.08,0,0,1,5.77.9,34.94,34.94,0,0,1,5.49,1.81,27.07,27.07,0,0,1,5,2.71l2.72,2Zm-45,43.43,0-.08h0C394.86,308.92,394.84,308.94,394.82,308.9ZM288.53,244.72c-4.65-6.38-9.43-16-5.72-25.6,2.81-7.28,14.19-14.32,29.71-18.38a101.33,101.33,0,0,1,25.6-3.44c15.39,0,27.43,4,34,9.48,8.91,7.36,7.79,18,5.29,25.7-6.16,18.85-26.56,38.18-41.19,39S299.76,260.1,288.53,244.72Z"/><path fill="#724331"  d="M377.43,232.48c2.5-7.66,3.62-18.34-5.29-25.7-6.59-5.43-18.63-9.48-34-9.48a101.33,101.33,0,0,0-25.6,3.44c-15.52,4.06-26.9,11.1-29.71,18.38-3.71,9.6,1.07,19.22,5.72,25.6,11.23,15.38,33.1,27.67,47.71,26.8S371.27,251.33,377.43,232.48Z"/><path d="M358.51,305.16l-.36,1c-.25.64-.42,1.31-.71,1.93l-.89,1.85a16.56,16.56,0,0,1-1,1.78,13.37,13.37,0,0,1-1.12,1.69c-.4.55-.77,1.11-1.19,1.64l-1.32,1.55a47.6,47.6,0,0,1-10.8,8.76l0-.46c0-.32-.11-.64-.17-1-.12-.63-.23-1.27-.38-1.91l-.61-1.84a23.53,23.53,0,0,0-3.69-6.7,29.39,29.39,0,0,0-5.32-5.31,28.47,28.47,0,0,0-6.37-3.76,44,44,0,0,1,5.45,4.79c.21.21.4.44.6.65a31.93,31.93,0,0,1-.77,4.26,20.71,20.71,0,0,1-1.78,4.83,11.72,11.72,0,0,1-3.17,3.86,9.2,9.2,0,0,1-2.13,1.21,7.92,7.92,0,0,1-1.57.42,13.07,13.07,0,0,0-.71-3.59,22.78,22.78,0,0,0-1.84-4,34.91,34.91,0,0,0-5.28-6.85l-.82-.83-.76.94a19,19,0,0,0-3.05,6.21,43.94,43.94,0,0,0-1.4,6.55c-.31,2.2-.5,4.4-.61,6.61-.07,1.58-.1,3.15-.09,4.74a28.51,28.51,0,0,1-8.75-4.28,27.7,27.7,0,0,1-7.58-8.6,39.22,39.22,0,0,1-4.19-10.88,49,49,0,0,1-1.27-11.65l.06-3.61-2.47,2.52a19.57,19.57,0,0,0-3.31,4.53,26.28,26.28,0,0,0-2.05,5.1,34.78,34.78,0,0,0-1.1,5.31c-.12.86-.2,1.72-.25,2.58a47.12,47.12,0,0,1-5.71-7,39,39,0,0,1-2.9-5.16,36.32,36.32,0,0,1-2.11-5.54,39.29,39.29,0,0,1-1.66-11.78,40.24,40.24,0,0,1,.49-6,33.12,33.12,0,0,1,1.37-5.87,36.56,36.56,0,0,0-2.68,11.74.28.28,0,0,0,0,.09,40.29,40.29,0,0,0,1,12.22,38.11,38.11,0,0,0,1.95,5.87,41.51,41.51,0,0,0,2.81,5.52,50,50,0,0,0,7.77,9.63l2,2V318a34,34,0,0,1,.4-5,33.34,33.34,0,0,1,1.11-4.89A22.64,22.64,0,0,1,282,302.7c0,.75.11,1.5.18,2.26a54,54,0,0,0,1,6.17,41.14,41.14,0,0,0,4.47,11.72,30,30,0,0,0,20,14.56l1.79.4L309.4,336c-.1-2.09-.1-4.26,0-6.4s.22-4.27.47-6.38A44.41,44.41,0,0,1,311,317a19.25,19.25,0,0,1,1.8-4.49c.64.66,1.27,1.35,1.86,2.05a29.81,29.81,0,0,1,2.42,3.28,15,15,0,0,1,2.68,7.39l0,.79.7-.06a9,9,0,0,0,5.12-2.27,13,13,0,0,0,3.17-4.39,24.45,24.45,0,0,0,1.92-9.36,36.43,36.43,0,0,1,3.73,4.83,25.56,25.56,0,0,1,2.92,6.28l.45,1.66.28,1.69c.05.28.11.56.14.84l0,.85.08,1.71.12,2.33,2-1a30,30,0,0,0,3.8-2.22,41.77,41.77,0,0,0,3.49-2.57,38.7,38.7,0,0,0,6.07-6.2,28.91,28.91,0,0,0,4.18-7.6,22.83,22.83,0,0,0,1.29-8.43l-.46,1.84-.05.21C358.67,304.49,358.61,304.83,358.51,305.16Z"/><path fill="#44241b"  d="M334.67,209.16c-2.9-9.63-30.7,1.33-28,8.71C310,227.07,337.57,218.79,334.67,209.16Z"/><path fill="#44241b"  d="M348.91,232.14a5.66,5.66,0,1,0-5.57-5.74A5.65,5.65,0,0,0,348.91,232.14Z"/><path fill="#44241b"  d="M311.74,231.56c-4.68-.07-8.54,3.94-8.62,9s3.66,9.15,8.34,9.22,8.55-3.94,8.63-9S316.43,231.64,311.74,231.56Z"/><path fill="#44241b"  d="M340.2,246.15a2.86,2.86,0,1,0,2.38,2.86A2.64,2.64,0,0,0,340.2,246.15Z"/>    </g></svg>