<!--  ~ Copyright (C) 2018 Baidu, Inc. All Rights Reserved.  --><svg viewBox="0 0 640 480" xmlns="http://www.w3.org/2000/svg">    <g id="back-ground-cl">        <rect fill="none" width="640" height="480" />        <ellipse opacity="0.1" cx="331.93" cy="418.82" rx="168.39" ry="32.01"/>    </g>    <g id="body">        <defs>            <clipPath id="outline">                <path fill="none"  d="M412.51,86.52a11.78,11.78,0,0,0-2.32-2.75c-2.85.47-4.27.74-3.57,7.08s9.42,16.68,24.5,16.68c.81,0,1.63,0,2.48-.09a28.52,28.52,0,0,0,20.1-10.61c.2-.26.4-.52.59-.79a23,23,0,0,0,4-11,30.21,30.21,0,0,0-8.09-23.83c-6.2-6.37-15.69-8.28-24.77-5a59.25,59.25,0,0,0-6.31,2.7l-.23.13c.09.82.43,2.73,1,7.69l.1-.06a55.67,55.67,0,0,1,6.77-3c7.41-2.73,15-.07,19.29,6.77,3.56,5.66,4.12,12.57,1.46,18-3.39,7-11.6,10.9-19.52,9.35C419.46,96.22,415.11,90.15,412.51,86.52Z"/><path fill="none"  d="M419.56,137.49c1.1,1.52,2.15,3.07,3.17,4.64-.43-8.08-1.16-20.37-2.2-33.9a28.55,28.55,0,0,1-7.85-4.21c-4.75-3.6-8-8.55-8.49-12.9-.89-8.05,1.77-9.13,5.64-9.77,1.77-.29,3,1.4,4.67,3.75A37,37,0,0,0,419,90.55c-4.57-49-9.46-60-12-62.14a1.2,1.2,0,0,0-.94-.38c-9.84,1.23-36.86,43.84-47.94,62.64a101.45,101.45,0,0,1,17.72,7.59C393.21,107.69,408,121.56,419.56,137.49Z"/><path fill="none"  d="M307.9,90.41c-2.51-4-10.95-17.35-20.47-30C270.89,38.52,262.88,34.1,259.1,34.1a3.79,3.79,0,0,0-1.63.34c-2.94,1.41-8.51,12-12.84,67.24-1.5,19.25-2.41,38.34-2.88,50.44a215.64,215.64,0,0,1,25.85-34.59C278.85,105.54,292.43,95.62,307.9,90.41Z"/><path fill="none"  d="M445.67,397.9c4.15-3,8.74-5.13,12.75-8.43a70.25,70.25,0,0,0,17.73-22c8.67-16.77,10.48-36.28,8.64-54.84-2.41-24.3-9.67-48.43-18-71.3-3-8.15-6.18-16.2-9.55-24.19a49.52,49.52,0,0,1-6.7,3.1,79.84,79.84,0,0,0,8-5.23,49,49,0,0,0,7-6.26,21.24,21.24,0,0,0,4.71-7.73,11.81,11.81,0,0,0-.5-8.53,13.67,13.67,0,0,0-2.3-3.79,19.3,19.3,0,0,0-3.26-3.12,26.31,26.31,0,0,0-3.89-2.45q-2.07-1-4.27-1.88a58.51,58.51,0,0,0-9.12-2.51,82.85,82.85,0,0,0-9.48-1.33c.47,0,.94,0,1.42-.08l-2.36-4.77C427,153.39,417,135.33,401.43,120.25c-13.82-13.37-30.73-24.14-49.51-28.88a77.59,77.59,0,0,0-57.83,7.82c-20,11.46-34.63,30.21-46.94,49.3a369.59,369.59,0,0,0-20.83,36.89c1.72-.37,3.46-.71,5.2-1-6.22,2-12.39,4.16-18.38,6.64a88.21,88.21,0,0,0-8.73,4.12,38.77,38.77,0,0,0-4,2.52,15.7,15.7,0,0,0-3.29,3.09,5.9,5.9,0,0,0-1.28,3.84,16.15,16.15,0,0,0,.68,4.49,48.26,48.26,0,0,0,3.64,8.82,164.25,164.25,0,0,0,10.16,16.65c-1-1.07-2-2.18-2.95-3.31a381.67,381.67,0,0,0-13.69,52.52c-1.65,9-3,18.08-3.92,27.2-2.95,30.34-1.79,70.38,27.91,87.8a53.54,53.54,0,0,0,7,3.46c.75.31,2.37.54,2.88,1.31.83,1.26,0,2-1.08,2.7-2.47,1.51-14.63,3.19-13.72,6.89,1,4.22,11.94,4.52,15,4.78a152.52,152.52,0,0,0,17.5.3c1,0,2.09,0,3.17-.06.11-1.08.14-2.21.16-3.35,0-3.94.05-7.95.15-11.9s.16-7.91.16-11.86a174,174,0,0,0-1.37-23.62A64.46,64.46,0,0,0,245,355.91a32.82,32.82,0,0,0-2.38-5.39A16.83,16.83,0,0,0,239,345.9a16.94,16.94,0,0,1,4,4.43,32.27,32.27,0,0,1,2.67,5.36,64.11,64.11,0,0,1,3.12,11.54,158.1,158.1,0,0,1,2.1,23.78c.23,8-.05,15.87.1,23.8a23.1,23.1,0,0,1-.58,6.21c-.08.27-.16.52-.26.8a5.37,5.37,0,0,1-.42.87,6,6,0,0,1-1.18,1.41,11.54,11.54,0,0,1-2.8,1.74,45.72,45.72,0,0,0-5.21,2.44,3.13,3.13,0,0,0-1.37,1.6,3,3,0,0,0-.09,1,4.88,4.88,0,0,0,.27,1.08,5.87,5.87,0,0,0,2.06,2.39,5.48,5.48,0,0,1,.22-3.52,6.65,6.65,0,0,1,2.74-3.24,8.9,8.9,0,0,1,1.92-.76,13.62,13.62,0,0,1,1.85-.43,16,16,0,0,1,3.82-.26,16,16,0,0,1-3.21,2.08c-.54.29-1.16.53-1.65.78a15.73,15.73,0,0,0-1.47.69,8.67,8.67,0,0,0-2.32,2.06,11.36,11.36,0,0,0-1.72,3.09l.23-.19c.38.25.78.48,1.19.7a20.36,20.36,0,0,0,5.29,1.78,25,25,0,0,0,2.82.36c.38,0,.77,0,1.15.06a2.5,2.5,0,0,1-.64-1.2,3.62,3.62,0,0,1,.21-2.08,7.22,7.22,0,0,1,2.45-2.88,11,11,0,0,1,3.17-1.65,8.11,8.11,0,0,1,3.57-.35c-.94.8-1.84,1.44-2.71,2.08l-2.56,1.88a15.28,15.28,0,0,0-2.25,1.87,3.22,3.22,0,0,0-.68,1.13,2.54,2.54,0,0,0-.07,1.56l.3-.32c.32,0,.64,0,1,0a48.82,48.82,0,0,0,5.8-.21,44,44,0,0,0,5.72-.92,17.06,17.06,0,0,0,2.68-.81,14.34,14.34,0,0,0,2.46-1.27A22.32,22.32,0,0,0,278,426c.22-.43.45-.85.64-1.29l.3-.66.23-.65a12.56,12.56,0,0,0,.43-1.35c.13-.46.27-.92.37-1.41.48-1.89.86-3.83,1.28-5.77.81-3.87,1.62-7.77,2.58-11.63s2.08-7.68,3.44-11.42a49.56,49.56,0,0,1,5.2-10.71l-1.39,2.63-1.19,2.71c-.37.92-.71,1.85-1.06,2.77s-.63,1.87-.94,2.8A116.29,116.29,0,0,0,285,403.53c-.76,3.63-1.41,7.29-2.05,11a316.46,316.46,0,0,0,33.09,5.44c21.95,2.37,44.63,2.42,66.18-2.89,2.66-.65,5.3-1.4,7.91-2.23-.15-.76-.28-1.52-.39-2.27-.52-3.56-.72-7.09-1.19-10.57-.23-1.73-.53-3.49-.8-5.23s-.57-3.5-1-5.2a37.21,37.21,0,0,0-1.73-5c-.63-1.65-1.22-3.32-1.8-5,.69,1.63,1.4,3.26,2.14,4.86a36.4,36.4,0,0,1,2,4.95c.49,1.73.85,3.46,1.23,5.2s.76,3.45,1.09,5.21c.62,3.52.95,7.06,1.58,10.49a38.26,38.26,0,0,0,1.25,5,26.75,26.75,0,0,0,2.09,4.67,22.28,22.28,0,0,0,6.69,7.5,15,15,0,0,0,4.47,2.06,41.38,41.38,0,0,0,5.08,1,48.33,48.33,0,0,0,8.42.38l.31.31h0a2.62,2.62,0,0,0-.07-1.56,3.4,3.4,0,0,0-.69-1.13,14.77,14.77,0,0,0-2.25-1.87l-2.56-1.88c-.87-.64-1.77-1.28-2.7-2.08a7.93,7.93,0,0,1,3.56.36,10.63,10.63,0,0,1,3.17,1.64,7.18,7.18,0,0,1,2.45,2.89,3.42,3.42,0,0,1,.21,2.07,2.53,2.53,0,0,1-.63,1.2l1.11-.06a22.59,22.59,0,0,0,5-.89,16.67,16.67,0,0,0,4.35-2l.25.2a11.16,11.16,0,0,0-1.73-3.08,8.31,8.31,0,0,0-2.31-2.06,14.68,14.68,0,0,0-1.48-.7c-.48-.25-1.11-.49-1.65-.78a15.16,15.16,0,0,1-3.21-2.08,16,16,0,0,1,3.82.26,13.28,13.28,0,0,1,1.85.43,8.52,8.52,0,0,1,1.92.76,6.55,6.55,0,0,1,2.74,3.24,5.48,5.48,0,0,1,.23,3.5,7.91,7.91,0,0,0,1.41-1.28,4.54,4.54,0,0,0,.87-1.83,2.87,2.87,0,0,0-1.55-3.26,28.13,28.13,0,0,0-4.64-2,24,24,0,0,1-2.56-1.17,8.3,8.3,0,0,1-2.4-1.93,6.75,6.75,0,0,1-.48-.71,4.47,4.47,0,0,1-.35-.83,9.48,9.48,0,0,1-.29-1.49c-.11-.95-.16-1.86-.18-2.76-.05-1.81,0-3.6,0-5.38.12-3.56.38-7.11.7-10.65.62-7.07,1.53-14.12,2.78-21.12.65-3.49,1.36-7,2.31-10.4a47.66,47.66,0,0,1,1.63-5.08,21.23,21.23,0,0,1,1.12-2.42,7.43,7.43,0,0,1,1.62-2.11,7.18,7.18,0,0,0-1.46,2.19,22.22,22.22,0,0,0-.94,2.46c-.53,1.68-1,3.39-1.35,5.11-.75,3.45-1.29,6.94-1.76,10.44-.95,7-1.6,14-2.06,21.08-.21,3.52-.37,7-.45,10.56,0,1.75,0,3.51,0,5.24,0,.23,0,.46,0,.69,5.9.87,12.12.57,18,.37a139.7,139.7,0,0,0,19-1.57c2.82-.49,3.2-.31,1.75-3-1.38-2.56-4.41-3.86-7-4.74-2.38-.8-4.85-1.22-7.28-1.83-1-.25-2.68-.48-3.21-1.5C443.69,399.32,444.71,398.59,445.67,397.9Z"/><path fill="none"  d="M164.26,327a17,17,0,0,0,5.41,9.44l7.42,6.85-8.84-4.88c-.31-.17-30.25-17-37-46.49-2.89,4.56-8.56,16.4-5.76,36l.24,1.68-1.67-.3c-.21,0-4-.8-6.8-6.54.43,7.76,2.52,20.07,10.7,29.95,7.83,9.47,19.61,14.86,35,16l5.13.39-4.76,2a81.61,81.61,0,0,1-8.27,2.87,76,76,0,0,0,37.54-2.25c-4.12-10.7-5.77-22.39-6.21-33.77A33.19,33.19,0,0,1,164.26,327Z"/><path d="M419.64,69.17h0l-.18,0Z"/><path d="M452.75,396.6A76,76,0,0,0,464,387.8c13.41-12.75,20.76-30.18,23-48.34,2.74-21.86-1.67-43.93-7.23-65A434.42,434.42,0,0,0,459.38,216a42.23,42.23,0,0,0,7.6-5.84,25.59,25.59,0,0,0,3.21-3.81,17.62,17.62,0,0,0,2.32-4.53,14,14,0,0,0-.45-10.2,19.81,19.81,0,0,0-1.18-2.29,20.87,20.87,0,0,0-1.53-2.07,19.54,19.54,0,0,0-3.72-3.44,30.81,30.81,0,0,0-8.92-4.28,49.18,49.18,0,0,0-9.56-1.89c-1.85-.18-3.7-.28-5.55-.29q-2.79-5.67-5.62-11.3c-3.36-6.66-6.74-13.27-10.57-19.62-.37-7.42-1.14-21.45-2.36-37.4a32.2,32.2,0,0,0,8,1c.87,0,1.77,0,2.7-.1a31,31,0,0,0,21.85-11.55c.22-.28.44-.57.64-.86a25.45,25.45,0,0,0,4.5-12.11A32.7,32.7,0,0,0,452,59.55c-6.87-7.06-17.36-9.21-27.41-5.56-6.59,2.38-6.85,3.12-6.74,4.14,0,.12,1.44,10.37,1.48,10.73l.09.19.21.12c5.19-1.32,9.44-4.79,15.13-3.74a14.17,14.17,0,0,1,9.24,6.4c3.11,5,3.62,11,1.33,15.65-2.87,5.89-10.12,9.33-16.85,8a18.22,18.22,0,0,1-6.79-2.81c-2.74-29.93-7-61-13.07-66.14a3.6,3.6,0,0,0-2.82-.94c-12.54,1.57-43.47,53.14-50.05,64.33a82,82,0,0,0-33.65-2.85,74.92,74.92,0,0,0-11.81,2.54c-2.05-3.3-10.87-17.36-20.9-30.64-15.86-21-26.66-29.78-33-26.75-2.26,1.09-9.13,4.39-14.22,69.26-1.71,21.83-2.64,43.46-3.05,55-4.22,7.11-8.17,14.36-11.9,21.61q-2.07,4-4,8c-3.62.88-7.21,1.91-10.75,3.15a70.11,70.11,0,0,0-9.14,3.87,34.28,34.28,0,0,0-4.32,2.62,17.66,17.66,0,0,0-3.85,3.56,8.57,8.57,0,0,0-1.32,2.51c-.07.23-.15.47-.21.71l-.1.69a10.7,10.7,0,0,0-.08,1.37,17.47,17.47,0,0,0,.85,5.15,44.79,44.79,0,0,0,4.18,9.1A85,85,0,0,0,204,227c.5.66,1,1.31,1.52,2q-3.08,9-5.7,18.09-5.13,17.8-8.49,36c-3.14,17.24-5.44,34.81-5,52.38a30.47,30.47,0,0,1-22.44-13l-1.77-2.58-.44,3.1a17,17,0,0,0,1.9,9.39c-9.27-6.67-26.65-21.81-30.49-43.69l-.43-2.45L131,288.12c-.47.51-11.12,12.51-8.22,37.84-1.7-1.3-4.21-4.31-5.45-11.13l-1.48-8.15-.94,8.23c-.1.92-2.43,22.9,11.16,39.34,7.35,8.91,17.95,14.4,31.55,16.37-2.82,1-6.22,1.94-8.32,1.94H142l6.82,2.37a67.07,67.07,0,0,0,20.54,2.93A77.05,77.05,0,0,0,193.52,374a65.78,65.78,0,0,0,4.87,9.34,52.9,52.9,0,0,0,21.1,19.21c.92.46,1.85.89,2.79,1.3a9.19,9.19,0,0,0,1.25.53l.49.2c-.49.16-1,.36-1.45.52-1.7.59-3.42,1.12-5.11,1.72-3.31,1.19-9.12,3.12-6.74,7.75,2.05,4,8.63,4.75,12.48,5.28a124,124,0,0,0,19.36.86c1.38,0,3.38.11,5.38,0,0,.08-.06.17-.08.24a3,3,0,0,1-.24.47,3.79,3.79,0,0,1-.72.85,9.48,9.48,0,0,1-2.25,1.36,42.87,42.87,0,0,0-5.54,2.6,5.5,5.5,0,0,0-2.34,2.88,5.42,5.42,0,0,0-.2,1.94,7.07,7.07,0,0,0,.44,1.8,7.44,7.44,0,0,0,2.1,2.8,13.08,13.08,0,0,0,2.71,1.81,22.51,22.51,0,0,0,6,2,28.13,28.13,0,0,0,3.08.38c1,.08,2,.13,3,.15a47.51,47.51,0,0,0,6.08-.28,45.38,45.38,0,0,0,6-1.05,18.51,18.51,0,0,0,3-1,16.24,16.24,0,0,0,2.79-1.49,23.63,23.63,0,0,0,8-9.35c.22-.47.45-.92.65-1.4l.3-.7.25-.75a13.1,13.1,0,0,0,.44-1.49c.12-.5.26-1,.35-1.48.31-1.39.57-2.78.82-4.17l.39.09c22.74,4.9,46.19,7.78,69.49,6.66a158.3,158.3,0,0,0,31.67-4.54q3.35-.86,6.64-1.91l.18.65a28,28,0,0,0,2.11,5.06,23.44,23.44,0,0,0,7.15,8.35,17.15,17.15,0,0,0,5.1,2.44,46.75,46.75,0,0,0,5.33,1.12,49.33,49.33,0,0,0,10.86.35c.91-.07,1.8-.16,2.74-.32a22.39,22.39,0,0,0,2.72-.63,18.81,18.81,0,0,0,5.16-2.33,10.9,10.9,0,0,0,2.24-2,6.92,6.92,0,0,0,1.35-2.93,5.27,5.27,0,0,0-.39-3.33,6.07,6.07,0,0,0-2.25-2.37,30,30,0,0,0-5.07-2.22,10.06,10.06,0,0,1-4-2.36c-.1-.12-.21-.28-.28-.38a2.4,2.4,0,0,1-.17-.39c0-.14-.08-.3-.12-.47l.91.09a142.87,142.87,0,0,0,21.2.05c5.56-.29,11.61-.36,17-1.79,4.09-1.08,2.59-5.48.27-8-3.66-4-9.54-4.72-14.51-6-.16,0-.32-.1-.48-.15.34-.21.64-.43.79-.52C450,398.32,451.38,397.48,452.75,396.6,428,97.9c7.92,1.55,16.13-2.38,19.52-9.35,2.66-5.45,2.1-12.36-1.46-18-4.31-6.84-11.88-9.5-19.29-6.77a55.67,55.67,0,0,0-6.77,3l-.1.06c-.54-5-.88-6.87-1-7.69l.23-.13a59.25,59.25,0,0,1,6.31-2.7c9.08-3.29,18.57-1.38,24.77,5a30.21,30.21,0,0,1,8.09,23.83,23,23,0,0,1-4,11c-.19.27-.39.53-.59.79a28.52,28.52,0,0,1-20.1,10.61c-.85.06-1.67.09-2.48.09-15.08,0-23.8-10.41-24.5-16.68s.72-6.61,3.57-7.08a11.78,11.78,0,0,1,2.32,2.75C415.11,90.15,419.46,96.22,428,97.9,406.1,28a1.2,1.2,0,0,1,.94.38c2.53,2.15,7.42,13.12,12,62.14a37,37,0,0,1-4.53-5.45c-1.68-2.35-2.9-4-4.67-3.75-3.87.64-6.53,1.72-5.64,9.77.49,4.35,3.74,9.3,8.49,12.9a28.55,28.55,0,0,0,7.85,4.21c1,13.53,1.77,25.82,2.2,33.9-1-1.57-2.07-3.12-3.17-4.64-11.53-15.93-26.35-29.8-43.68-39.23a101.45,101.45,0,0,0-17.72-7.59C369.24,71.87,396.26,29.26,406.1,28,244.63,101.68c4.33-55.22,9.9-65.83,12.84-67.24a3.79,3.79,0,0,1,1.63-.34c3.78,0,11.79,4.42,28.33,26.34,9.52,12.62,18,26,20.47,30-15.47,5.21-29,15.13-40.3,27.12a215.64,215.64,0,0,0-25.85,34.59C242.22,140,243.13,120.93,244.63,101.68,155.05,374a81.61,81.61,0,0,0,8.27-2.87l4.76-2-5.13-.39c-15.41-1.18-27.19-6.57-35-16-8.18-9.88-10.27-22.19-10.7-29.95,2.83,5.74,6.59,6.5,6.8,6.54l1.67.3-.24-1.68c-2.8-19.6,2.87-31.44,5.76-36,6.78,29.5,36.72,46.32,37,46.49l8.84,4.88-7.42-6.85a17,17,0,0,1-5.41-9.44A33.19,33.19,0,0,0,186.38,338c.44,11.38,2.09,23.07,6.21,33.77A76,76,0,0,1,155.05,374,289.33,26.67c.53,1,2.24,1.25,3.21,1.5,2.43.61,4.9,1,7.28,1.83,2.62.88,5.65,2.18,7,4.74,1.45,2.72,1.07,2.54-1.75,3a139.7,139.7,0,0,1-19,1.57c-5.9.2-12.12.5-18-.37,0-.23,0-.46,0-.69-.07-1.73-.07-3.49,0-5.24.08-3.52.24-7,.45-10.56.46-7,1.11-14.08,2.06-21.08.47-3.5,1-7,1.76-10.44.37-1.72.82-3.43,1.35-5.11a22.22,22.22,0,0,1,.94-2.46,7.18,7.18,0,0,1,1.46-2.19,7.43,7.43,0,0,0-1.62,2.11,21.23,21.23,0,0,0-1.12,2.42,47.66,47.66,0,0,0-1.63,5.08c-.95,3.43-1.66,6.91-2.31,10.4-1.25,7-2.16,14.05-2.78,21.12-.32,3.54-.58,7.09-.7,10.65-.06,1.78-.09,3.57,0,5.38,0,.9.07,1.81.18,2.76a9.48,9.48,0,0,0,.29,1.49,4.47,4.47,0,0,0,.35.83,6.75,6.75,0,0,0,.48.71,8.3,8.3,0,0,0,2.4,1.93,24,24,0,0,0,2.56,1.17,28.13,28.13,0,0,1,4.64,2,2.87,2.87,0,0,1,1.55,3.26,4.54,4.54,0,0,1-.87,1.83,7.91,7.91,0,0,1-1.41,1.28,5.48,5.48,0,0,0-.23-3.5,6.55,6.55,0,0,0-2.74-3.24,8.52,8.52,0,0,0-1.92-.76,13.28,13.28,0,0,0-1.85-.43,16,16,0,0,0-3.82-.26,15.16,15.16,0,0,0,3.21,2.08c.54.29,1.17.53,1.65.78a14.68,14.68,0,0,1,1.48.7,8.31,8.31,0,0,1,2.31,2.06,11.16,11.16,0,0,1,1.73,3.08l-.25-.2a16.67,16.67,0,0,1-4.35,2,22.59,22.59,0,0,1-5,.89l-1.11.06a2.53,2.53,0,0,0,.63-1.2,3.42,3.42,0,0,0-.21-2.07,7.18,7.18,0,0,0-2.45-2.89,10.63,10.63,0,0,0-3.17-1.64,7.93,7.93,0,0,0-3.56-.36c.93.8,1.83,1.44,2.7,2.08l2.56,1.88a14.77,14.77,0,0,1,2.25,1.87,3.4,3.4,0,0,1,.69,1.13,2.62,2.62,0,0,1,.07,1.56h0l-.31-.31a48.33,48.33,0,0,1-8.42-.38,41.38,41.38,0,0,1-5.08-1,15,15,0,0,1-4.47-2.06,22.28,22.28,0,0,1-6.69-7.5,26.75,26.75,0,0,1-2.09-4.67,38.26,38.26,0,0,1-1.25-5c-.63-3.43-1-7-1.58-10.49-.33-1.76-.72-3.47-1.09-5.21s-.74-3.47-1.23-5.2a36.4,36.4,0,0,0-2-4.95c-.74-1.6-1.45-3.23-2.14-4.86.58,1.68,1.17,3.35,1.8,5a37.21,37.21,0,0,1,1.73,5c.39,1.7.67,3.45,1,5.2s.57,3.5.8,5.23c.47,3.48.67,7,1.19,10.57.11.75.24,1.51.39,2.27-2.61.83-5.25,1.58-7.91,2.23-21.55,5.31-44.23,5.26-66.18,2.89A316.46,316.46,0,0,1,283,414.5c.64-3.68,1.29-7.34,2.05-11A116.29,116.29,0,0,1,287.9,392c.31-.93.59-1.88.94-2.8s.69-1.85,1.06-2.77l1.19-2.71,1.39-2.63a49.56,49.56,0,0,0-5.2,10.71c-1.36,3.74-2.46,7.57-3.44,11.42s-1.77,7.76-2.58,11.63c-.42,1.94-.8,3.88-1.28,5.77-.1.49-.24.95-.37,1.41a12.56,12.56,0,0,1-.43,1.35l-.23.65-.3.66c-.19.44-.42.86-.64,1.29a22.32,22.32,0,0,1-7.42,8.42,14.34,14.34,0,0,1-2.46,1.27,17.06,17.06,0,0,1-2.68.81,44,44,0,0,1-5.72.92,48.82,48.82,0,0,1-5.8.21c-.31,0-.63,0-1,0l-.3.32a2.54,2.54,0,0,1,.07-1.56,3.22,3.22,0,0,1,.68-1.13,15.28,15.28,0,0,1,2.25-1.87l2.56-1.88c.87-.64,1.77-1.28,2.71-2.08a8.11,8.11,0,0,0-3.57.35,11,11,0,0,0-3.17,1.65,7.22,7.22,0,0,0-2.45,2.88,3.62,3.62,0,0,0-.21,2.08,2.5,2.5,0,0,0,.64,1.2c-.38,0-.77,0-1.15-.06a25,25,0,0,1-2.82-.36,20.36,20.36,0,0,1-5.29-1.78c-.41-.22-.81-.45-1.19-.7l-.23.19a11.36,11.36,0,0,1,1.72-3.09,8.67,8.67,0,0,1,2.32-2.06A15.73,15.73,0,0,1,247,429c.49-.25,1.11-.49,1.65-.78a16,16,0,0,0,3.21-2.08,16,16,0,0,0-3.82.26,13.62,13.62,0,0,0-1.85.43,8.9,8.9,0,0,0-1.92.76,6.65,6.65,0,0,0-2.74,3.24,5.48,5.48,0,0,0-.22,3.52,5.87,5.87,0,0,1-2.06-2.39,4.88,4.88,0,0,1-.27-1.08,3,3,0,0,1,.09-1,3.13,3.13,0,0,1,1.37-1.6,45.72,45.72,0,0,1,5.21-2.44,11.54,11.54,0,0,0,2.8-1.74,6,6,0,0,0,1.18-1.41,5.37,5.37,0,0,0,.42-.87c.1-.28.18-.53.26-.8a23.1,23.1,0,0,0,.58-6.21c-.15-7.93.13-15.83-.1-23.8a158.1,158.1,0,0,0-2.1-23.78,64.11,64.11,0,0,0-3.12-11.54,32.27,32.27,0,0,0-2.67-5.36,16.94,16.94,0,0,0-4-4.43,16.83,16.83,0,0,1,3.65,4.62,32.82,32.82,0,0,1,2.38,5.39,64.46,64.46,0,0,1,2.55,11.51A174,174,0,0,1,248.91,391c0,3.95-.08,7.9-.16,11.86s-.13,8-.15,11.9c0,1.14,0,2.27-.16,3.35-1.08,0-2.17,0-3.17.06a152.52,152.52,0,0,1-17.5-.3c-3.09-.26-14-.56-15-4.78-.91-3.7,11.25-5.38,13.72-6.89,1.07-.66,1.91-1.44,1.08-2.7-.51-.77-2.13-1-2.88-1.31a53.54,53.54,0,0,1-7-3.46C188,381.35,186.8,341.31,189.75,311c.89-9.12,2.27-18.19,3.92-27.2a381.67,381.67,0,0,1,13.69-52.52c.95,1.13,1.93,2.24,2.95,3.31a164.25,164.25,0,0,1-10.16-16.65,48.26,48.26,0,0,1-3.64-8.82,16.15,16.15,0,0,1-.68-4.49,5.9,5.9,0,0,1,1.28-3.84,15.7,15.7,0,0,1,3.29-3.09,38.77,38.77,0,0,1,4-2.52,88.21,88.21,0,0,1,8.73-4.12c6-2.48,12.16-4.6,18.38-6.64-1.74.28-3.48.62-5.2,1a369.59,369.59,0,0,1,20.83-36.89c12.31-19.09,26.91-37.84,46.94-49.3a77.59,77.59,0,0,1,57.83-7.82c18.78,4.74,35.69,15.51,49.51,28.88C417,135.33,427,153.39,436.55,172.6l2.36,4.77c-.48,0-1,0-1.42.08a82.85,82.85,0,0,1,9.48,1.33,58.51,58.51,0,0,1,9.12,2.51q2.21.84,4.27,1.88a26.31,26.31,0,0,1,3.89,2.45,19.3,19.3,0,0,1,3.26,3.12,13.67,13.67,0,0,1,2.3,3.79,11.81,11.81,0,0,1,.5,8.53,21.24,21.24,0,0,1-4.71,7.73,49,49,0,0,1-7,6.26,79.84,79.84,0,0,1-8,5.23,49.52,49.52,0,0,0,6.7-3.1c3.37,8,6.58,16,9.55,24.19,8.32,22.87,15.58,47,18,71.3,1.84,18.56,0,38.07-8.64,54.84a70.25,70.25,0,0,1-17.73,22c-4,3.3-8.6,5.44-12.75,8.43C444.71,398.59,443.69,399.32,444.38,400.64Z"/>            </clipPath>        </defs>        <g clip-path="url(#outline)">            <rect fill="#9287C6" width="640" height="480" />        </g>    </g>    <g id="pattern">        <g clip-path="url(#outline)">            <path fill="#3F2D2A"  d="M224.65,337.33s7.32-8.78,3.88-19.34C228.53,318,221.09,327.67,224.65,337.33Z"/><path fill="#3F2D2A"  d="M220.2,391.54s10-11.71,5.47-26C225.67,365.59,215.53,378.5,220.2,391.54Z"/><path fill="#3F2D2A"  d="M236.81,373.05s8.17-8.87,5.08-20.18C241.89,352.87,233.55,362.69,236.81,373.05Z"/><path fill="#3F2D2A"  d="M195.61,348.52s9.68-11.94,4.85-26.07C200.46,322.45,190.64,335.6,195.61,348.52Z"/><path fill="#3F2D2A"  d="M208.57,315.49s6.13-7.34,3.25-16.17C211.82,299.32,205.6,307.41,208.57,315.49Z"/><path fill="#3F2D2A"  d="M284.89,386.79s6.89-11,1.38-22.41C286.27,364.38,279.38,376.45,284.89,386.79Z"/><path fill="#3F2D2A"  d="M267.77,412s8.14-13,1.63-26.48C269.4,385.56,261.25,399.82,267.77,412Z"/><path fill="#3F2D2A"  d="M241.89,401.9s8.15-13,1.63-26.48C243.52,375.42,235.38,389.68,241.89,401.9Z"/><path fill="#3F2D2A"  d="M202.9,372.13s8.15-13,1.63-26.47C204.53,345.66,196.39,359.91,202.9,372.13Z"/><path fill="#3F2D2A"  d="M440.11,340.47s5.78-14.24-2.94-26.36C437.17,314.11,431.59,329.55,440.11,340.47Z"/><path fill="#3F2D2A"  d="M445.89,397.39s8.15-13,1.63-26.48C447.52,370.91,439.38,385.17,445.89,397.39Z"/><path fill="#3F2D2A"  d="M434.77,386.82s4.94-14.62-5-26.08C429.78,360.74,425.15,376.54,434.77,386.82Z"/><path fill="#3F2D2A"  d="M410.38,410.94s5.43-14.38-3.6-26.28C406.78,384.66,401.59,400.24,410.38,410.94Z"/><path fill="#3F2D2A"  d="M193.93,316.93s6.93-9.38,2.79-19.94C196.72,297,189.72,307.3,193.93,316.93Z"/><path fill="#3F2D2A"  d="M420.63,393.09s5.33-14.41-3.77-26.25C416.86,366.84,411.77,382.45,420.63,393.09Z"/><path fill="#3F2D2A"  d="M466.6,381.6s4.16-14.8-5.86-25.87C460.74,355.73,456.92,371.69,466.6,381.6Z"/><path fill="#3F2D2A"  d="M471.16,318s4.68-14.64-5-26.06C466.21,291.93,461.83,307.76,471.16,318Z"/><path fill="#3F2D2A"  d="M449.38,366.38s3.45-11.56-4.29-20.36C445.09,346,441.91,358.5,449.38,366.38Z"/><path fill="#3F2D2A"  d="M453,332.2s2.82-8.93-3.08-15.87C449.91,316.33,447.28,326,453,332.2Z"/><path fill="#3F2D2A"  d="M473.56,333s-2.66,9.64,3,15.87C476.59,348.9,479.43,340,473.56,333Z"/><path fill="#3F2D2A"  d="M465.72,342.54s6-9.53,1.19-19.36C466.91,323.18,461,333.61,465.72,342.54Z"/>            <g opacity="0.6" ><path fill="#E8D3B3"  d="M285.16,418.84c2.41-25.61,23.87-48.92,47.26-49.49,24.86-.61,52.32,18.62,54.82,48.11.13,1.49,1.2.46-.05,1.63-1.4,1.32-6.65,1.94-9.64,2.8-14.1,4.06-27.6,4.48-43.78,4.36-16.48-.12-33.16-4.21-48.13-7.41"/></g>        </g>    </g>    <g id="mask">        <path opacity="0.1"  d="M285.39,396.05s14.86,8.75,54,9.36,48.87-8.55,48.87-8.55l2.85,18.73s-25.25,8.56-52.33,6.52-50.91-3.66-57.22-6.92Z"/><path opacity="0.1"  d="M251.67,139.88s0-.25,0-.7c-7.19,9.48-17.71,25.45-28.06,47.06-1.68.07-25,7.4-28.15,15.55-2.4,6.11,11.61,25.46,11.32,26.45-3.24,9.91-6.2,20.47-8.74,31.66C183.39,324.52,188,349.23,194,370.68s32.51,32.46,32.51,32.46-13.78,3.65-14.74,7.37c-2.77,10.81,38.15,7.66,38.15,7.66l-.26-18.71s-34.21,7.87-47.52-47.79,20.64-115.94,44.53-177.3,66.79-83.9,66.79-83.9a90.33,90.33,0,0,0-20.34,8l-18.82,13.66Z"/><path opacity="0.2"  d="M403.86,118,406,95.72a15.11,15.11,0,0,1-1.76-5.36c-.48-4.36.1-5.72,1.32-7.1-.15-5.82-.75-29.12-1.46-35.83,0-.4-.08-.81-.13-1.22h0C398.3,45,371,96.3,371,96.3l23.35,14.06,19.82,22.19s-.07-1.35-.21-3.72C410.66,124.68,407,120.48,403.86,118Z"/><path opacity="0.2"  d="M293.1,98.46l4-4a112.13,112.13,0,0,0-14.1,8.8s-14.52-45.62-17.64-55.8c-.11-.34-.22-.67-.33-1a2,2,0,0,0-2,.57c-10.79,11.17-11.37,84.27-11.4,92.16,1-1.34,2-2.56,2.84-3.64C264.25,123.53,274.31,108.69,293.1,98.46Z"/><path fill="#ffce00"  d="M412.17,83.69c-.64-2.24-5.73-.42-6.54,0,0,0,.48.48.46-.42-1.22,1.38-2.3,2.24-1.82,6.6A17.55,17.55,0,0,0,406,95.72l.14-1.45s6,10,14.53,13l0,.38a32.54,32.54,0,0,0,10.69,1.76c.88,0,1.78,0,2.7-.1A29,29,0,0,0,458.16,93c3.58-7.65,3.68-18.29-2.46-28.17-14.46-23.25-36.49-7.11-36.74-7l-.32.53,1.08,10.26.15-.48c.09-.06,8.95-5.19,16.53-3.68a12.51,12.51,0,0,1,7.79,5.42c4.34,6.73,4.58,13.9,1.12,19C442,93.74,434.93,97.35,429,96.2c-4.23-.83-7.38-2.15-9.69-4.41,0,.35-1.47-1-1.47-1S412.77,85.79,412.17,83.69Zm26.58,16.82c12.63-4.34,19.82-13.17,19.82-26.74,0,0,7.33,17.65-11.13,29.46s-46.84-2.85-40.86-17.79c0,0,1.22.41,4.75,6.38S426.13,104.86,438.75,100.51Z"/><path opacity="0.1"  d="M297.29,94.27l-.16.16a77.56,77.56,0,0,1,11.29-4.91S289.18,61.07,284.8,55.58c-6.38-8-17.24-20-22.27-21.45s-6.1.67-7.46,3.66c0,0,6.72-.5,10,8.66C274.05,48.22,297.29,94.27,297.29,94.27Z"/><path opacity="0.2"  d="M283,103.23a112.13,112.13,0,0,1,14.1-8.8l.16-.16s-23.24-46-32.23-47.82c.11.31.22.64.33,1C268.51,57.61,283,103.23,283,103.23Z"/><path opacity="0.1"  d="M283,103.23a112.13,112.13,0,0,1,14.1-8.8l.16-.16s-23.24-46-32.23-47.82c.11.31.22.64.33,1C268.51,57.61,283,103.23,283,103.23Z"/><path opacity="0.1"  d="M410.36,82.29c1.81-.16,2.19.67,3.86,3a52.62,52.62,0,0,0,5,5.49c-.24-1.79-1.12-10.23-3-28.28-2.31-21.59-7.2-35-9.51-35.16S399.25,32,399.25,32c2.7-2.18,3.94,6.73,4.75,14.26C406.43,46.75,408.63,64.44,410.36,82.29Z"/><path opacity="0.2"  d="M405.59,83.76c1.1-1.23,2.7-1.66,4.54-2h.23c-1.73-17.85-3.93-35-6.36-35.58.05.41.09.82.13,1.22C404.84,54.14,405.44,77.94,405.59,83.76Z"/><path opacity="0.1"  d="M405.59,83.76c1.1-1.23,2.7-1.66,4.54-2h.23c-1.73-17.85-3.93-35-6.36-35.58.05.41.09.82.13,1.22C404.84,54.14,405.44,77.94,405.59,83.76Z"/><path fill="#ffce00"  d="M409.86,82.29c-.08,0,.35-.5.27-.49-1.84.3-2.94.23-4,1.46,0,.9-.46.42-.46.42.81-.41,6.92-.58,8.28,1.32a83.11,83.11,0,0,0,5.43,6.79s0-.16-.07-.51a37.75,37.75,0,0,1-4.2-5.12C413.4,83.83,411.67,82.13,409.86,82.29Z"/><path opacity="0.1"  d="M414,128.83c4.94,6.19,9,12.27,9,12.27l-2.28-33.42a28.57,28.57,0,0,1-8.44-4.61C413.1,114.08,413.68,123.77,414,128.83Z"/><path opacity="0.2"  d="M406,95.72,403.86,118c3.11,2.45,6.8,6.65,10.11,10.8-.29-5.06-.87-14.75-1.69-25.76A23.67,23.67,0,0,1,406,95.72Z"/><path opacity="0.1"  d="M406,95.72,403.86,118c3.11,2.45,6.8,6.65,10.11,10.8-.29-5.06-.87-14.75-1.69-25.76A23.67,23.67,0,0,1,406,95.72Z"/><path fill="#ffce00"  d="M406.17,94.27,406,95.72a23.67,23.67,0,0,0,6.25,7.35,28.57,28.57,0,0,0,8.44,4.61l0-.38C412.14,104.31,406.17,94.27,406.17,94.27Z"/><path opacity="0.1"  d="M406.17,94.27,406,95.72a23.67,23.67,0,0,0,6.25,7.35,28.57,28.57,0,0,0,8.44,4.61l0-.38C412.14,104.31,406.17,94.27,406.17,94.27Z"/><path fill="#ffce00"  d="M411.33,91.82c-3.53-6-4.75-6.38-4.75-6.38-6,14.94,22.4,29.6,40.86,17.79s11.13-29.46,11.13-29.46c0,13.57-7.19,22.4-19.82,26.74S414.86,97.8,411.33,91.82Z"/><path opacity="0.1"  d="M411.33,91.82c-3.53-6-4.75-6.38-4.75-6.38-6,14.94,22.4,29.6,40.86,17.79s11.13-29.46,11.13-29.46c0,13.57-7.19,22.4-19.82,26.74S414.86,97.8,411.33,91.82Z"/><g opacity="0.1" ><path d="M484.43,337.09c.24,1.7-3.5,6.76-4.43,8.49-1.82,3.4-3.68,6.78-5.67,10.08a108.4,108.4,0,0,1-13.23,18.12A62.8,62.8,0,0,1,450,383.24a61.18,61.18,0,0,1-6.25,3.67,33.52,33.52,0,0,1-5.53,2.51c-4,1.16-6.15-2.21-7.33-5.52a39.79,39.79,0,0,1-2.34-17.54c.54-4.89,1.56-7.23,2.75-12.36l-2.14,2.43c-3.07,11.13-4.58,22.56-6,34a4.58,4.58,0,0,0,.26,2.19,3.36,3.36,0,0,0-.88.73c-2.06,2.52-.69,11.1-.82,14.3a.73.73,0,0,0,.1.46c.15.18.45.14.69.07A107.5,107.5,0,0,0,447,398.76c9.48-5.29,16.41-12.76,22.8-21.4,3.19-4.31,7.4-8.23,9.2-13.28C482.09,355.37,485.7,346.24,484.43,337.09Z"/></g>        <path fill="#fff" opacity="0.1"  d="M345.46,90S374,94.45,399,118.28s39.1,58.1,39.1,58.1l.61-.07-.22,1.32s28.66,1.2,31.92,17.55c1.13,5.67-1.13,10.17-4.39,13.78-6.14,6.79-15.37,10.93-15.37,10.93l.14-.13a44.8,44.8,0,0,0,6.45-3.46s12.22,30.95,15.75,43.91c2.48,9.11,10.72,36.39,11.6,53.7s-.54,26.95-.54,26.95-26.4-84.31-35-107.93S412.86,138.44,345.46,90Z"/>    </g>    <g id="outline">        <path fill="none"  d="M412.51,86.52a11.78,11.78,0,0,0-2.32-2.75c-2.85.47-4.27.74-3.57,7.08s9.42,16.68,24.5,16.68c.81,0,1.63,0,2.48-.09a28.52,28.52,0,0,0,20.1-10.61c.2-.26.4-.52.59-.79a23,23,0,0,0,4-11,30.21,30.21,0,0,0-8.09-23.83c-6.2-6.37-15.69-8.28-24.77-5a59.25,59.25,0,0,0-6.31,2.7l-.23.13c.09.82.43,2.73,1,7.69l.1-.06a55.67,55.67,0,0,1,6.77-3c7.41-2.73,15-.07,19.29,6.77,3.56,5.66,4.12,12.57,1.46,18-3.39,7-11.6,10.9-19.52,9.35C419.46,96.22,415.11,90.15,412.51,86.52Z"/><path fill="none"  d="M419.56,137.49c1.1,1.52,2.15,3.07,3.17,4.64-.43-8.08-1.16-20.37-2.2-33.9a28.55,28.55,0,0,1-7.85-4.21c-4.75-3.6-8-8.55-8.49-12.9-.89-8.05,1.77-9.13,5.64-9.77,1.77-.29,3,1.4,4.67,3.75A37,37,0,0,0,419,90.55c-4.57-49-9.46-60-12-62.14a1.2,1.2,0,0,0-.94-.38c-9.84,1.23-36.86,43.84-47.94,62.64a101.45,101.45,0,0,1,17.72,7.59C393.21,107.69,408,121.56,419.56,137.49Z"/><path fill="none"  d="M307.9,90.41c-2.51-4-10.95-17.35-20.47-30C270.89,38.52,262.88,34.1,259.1,34.1a3.79,3.79,0,0,0-1.63.34c-2.94,1.41-8.51,12-12.84,67.24-1.5,19.25-2.41,38.34-2.88,50.44a215.64,215.64,0,0,1,25.85-34.59C278.85,105.54,292.43,95.62,307.9,90.41Z"/><path fill="none"  d="M445.67,397.9c4.15-3,8.74-5.13,12.75-8.43a70.25,70.25,0,0,0,17.73-22c8.67-16.77,10.48-36.28,8.64-54.84-2.41-24.3-9.67-48.43-18-71.3-3-8.15-6.18-16.2-9.55-24.19a49.52,49.52,0,0,1-6.7,3.1,79.84,79.84,0,0,0,8-5.23,49,49,0,0,0,7-6.26,21.24,21.24,0,0,0,4.71-7.73,11.81,11.81,0,0,0-.5-8.53,13.67,13.67,0,0,0-2.3-3.79,19.3,19.3,0,0,0-3.26-3.12,26.31,26.31,0,0,0-3.89-2.45q-2.07-1-4.27-1.88a58.51,58.51,0,0,0-9.12-2.51,82.85,82.85,0,0,0-9.48-1.33c.47,0,.94,0,1.42-.08l-2.36-4.77C427,153.39,417,135.33,401.43,120.25c-13.82-13.37-30.73-24.14-49.51-28.88a77.59,77.59,0,0,0-57.83,7.82c-20,11.46-34.63,30.21-46.94,49.3a369.59,369.59,0,0,0-20.83,36.89c1.72-.37,3.46-.71,5.2-1-6.22,2-12.39,4.16-18.38,6.64a88.21,88.21,0,0,0-8.73,4.12,38.77,38.77,0,0,0-4,2.52,15.7,15.7,0,0,0-3.29,3.09,5.9,5.9,0,0,0-1.28,3.84,16.15,16.15,0,0,0,.68,4.49,48.26,48.26,0,0,0,3.64,8.82,164.25,164.25,0,0,0,10.16,16.65c-1-1.07-2-2.18-2.95-3.31a381.67,381.67,0,0,0-13.69,52.52c-1.65,9-3,18.08-3.92,27.2-2.95,30.34-1.79,70.38,27.91,87.8a53.54,53.54,0,0,0,7,3.46c.75.31,2.37.54,2.88,1.31.83,1.26,0,2-1.08,2.7-2.47,1.51-14.63,3.19-13.72,6.89,1,4.22,11.94,4.52,15,4.78a152.52,152.52,0,0,0,17.5.3c1,0,2.09,0,3.17-.06.11-1.08.14-2.21.16-3.35,0-3.94.05-7.95.15-11.9s.16-7.91.16-11.86a174,174,0,0,0-1.37-23.62A64.46,64.46,0,0,0,245,355.91a32.82,32.82,0,0,0-2.38-5.39A16.83,16.83,0,0,0,239,345.9a16.94,16.94,0,0,1,4,4.43,32.27,32.27,0,0,1,2.67,5.36,64.11,64.11,0,0,1,3.12,11.54,158.1,158.1,0,0,1,2.1,23.78c.23,8-.05,15.87.1,23.8a23.1,23.1,0,0,1-.58,6.21c-.08.27-.16.52-.26.8a5.37,5.37,0,0,1-.42.87,6,6,0,0,1-1.18,1.41,11.54,11.54,0,0,1-2.8,1.74,45.72,45.72,0,0,0-5.21,2.44,3.13,3.13,0,0,0-1.37,1.6,3,3,0,0,0-.09,1,4.88,4.88,0,0,0,.27,1.08,5.87,5.87,0,0,0,2.06,2.39,5.48,5.48,0,0,1,.22-3.52,6.65,6.65,0,0,1,2.74-3.24,8.9,8.9,0,0,1,1.92-.76,13.62,13.62,0,0,1,1.85-.43,16,16,0,0,1,3.82-.26,16,16,0,0,1-3.21,2.08c-.54.29-1.16.53-1.65.78a15.73,15.73,0,0,0-1.47.69,8.67,8.67,0,0,0-2.32,2.06,11.36,11.36,0,0,0-1.72,3.09l.23-.19c.38.25.78.48,1.19.7a20.36,20.36,0,0,0,5.29,1.78,25,25,0,0,0,2.82.36c.38,0,.77,0,1.15.06a2.5,2.5,0,0,1-.64-1.2,3.62,3.62,0,0,1,.21-2.08,7.22,7.22,0,0,1,2.45-2.88,11,11,0,0,1,3.17-1.65,8.11,8.11,0,0,1,3.57-.35c-.94.8-1.84,1.44-2.71,2.08l-2.56,1.88a15.28,15.28,0,0,0-2.25,1.87,3.22,3.22,0,0,0-.68,1.13,2.54,2.54,0,0,0-.07,1.56l.3-.32c.32,0,.64,0,1,0a48.82,48.82,0,0,0,5.8-.21,44,44,0,0,0,5.72-.92,17.06,17.06,0,0,0,2.68-.81,14.34,14.34,0,0,0,2.46-1.27A22.32,22.32,0,0,0,278,426c.22-.43.45-.85.64-1.29l.3-.66.23-.65a12.56,12.56,0,0,0,.43-1.35c.13-.46.27-.92.37-1.41.48-1.89.86-3.83,1.28-5.77.81-3.87,1.62-7.77,2.58-11.63s2.08-7.68,3.44-11.42a49.56,49.56,0,0,1,5.2-10.71l-1.39,2.63-1.19,2.71c-.37.92-.71,1.85-1.06,2.77s-.63,1.87-.94,2.8A116.29,116.29,0,0,0,285,403.53c-.76,3.63-1.41,7.29-2.05,11a316.46,316.46,0,0,0,33.09,5.44c21.95,2.37,44.63,2.42,66.18-2.89,2.66-.65,5.3-1.4,7.91-2.23-.15-.76-.28-1.52-.39-2.27-.52-3.56-.72-7.09-1.19-10.57-.23-1.73-.53-3.49-.8-5.23s-.57-3.5-1-5.2a37.21,37.21,0,0,0-1.73-5c-.63-1.65-1.22-3.32-1.8-5,.69,1.63,1.4,3.26,2.14,4.86a36.4,36.4,0,0,1,2,4.95c.49,1.73.85,3.46,1.23,5.2s.76,3.45,1.09,5.21c.62,3.52.95,7.06,1.58,10.49a38.26,38.26,0,0,0,1.25,5,26.75,26.75,0,0,0,2.09,4.67,22.28,22.28,0,0,0,6.69,7.5,15,15,0,0,0,4.47,2.06,41.38,41.38,0,0,0,5.08,1,48.33,48.33,0,0,0,8.42.38l.31.31h0a2.62,2.62,0,0,0-.07-1.56,3.4,3.4,0,0,0-.69-1.13,14.77,14.77,0,0,0-2.25-1.87l-2.56-1.88c-.87-.64-1.77-1.28-2.7-2.08a7.93,7.93,0,0,1,3.56.36,10.63,10.63,0,0,1,3.17,1.64,7.18,7.18,0,0,1,2.45,2.89,3.42,3.42,0,0,1,.21,2.07,2.53,2.53,0,0,1-.63,1.2l1.11-.06a22.59,22.59,0,0,0,5-.89,16.67,16.67,0,0,0,4.35-2l.25.2a11.16,11.16,0,0,0-1.73-3.08,8.31,8.31,0,0,0-2.31-2.06,14.68,14.68,0,0,0-1.48-.7c-.48-.25-1.11-.49-1.65-.78a15.16,15.16,0,0,1-3.21-2.08,16,16,0,0,1,3.82.26,13.28,13.28,0,0,1,1.85.43,8.52,8.52,0,0,1,1.92.76,6.55,6.55,0,0,1,2.74,3.24,5.48,5.48,0,0,1,.23,3.5,7.91,7.91,0,0,0,1.41-1.28,4.54,4.54,0,0,0,.87-1.83,2.87,2.87,0,0,0-1.55-3.26,28.13,28.13,0,0,0-4.64-2,24,24,0,0,1-2.56-1.17,8.3,8.3,0,0,1-2.4-1.93,6.75,6.75,0,0,1-.48-.71,4.47,4.47,0,0,1-.35-.83,9.48,9.48,0,0,1-.29-1.49c-.11-.95-.16-1.86-.18-2.76-.05-1.81,0-3.6,0-5.38.12-3.56.38-7.11.7-10.65.62-7.07,1.53-14.12,2.78-21.12.65-3.49,1.36-7,2.31-10.4a47.66,47.66,0,0,1,1.63-5.08,21.23,21.23,0,0,1,1.12-2.42,7.43,7.43,0,0,1,1.62-2.11,7.18,7.18,0,0,0-1.46,2.19,22.22,22.22,0,0,0-.94,2.46c-.53,1.68-1,3.39-1.35,5.11-.75,3.45-1.29,6.94-1.76,10.44-.95,7-1.6,14-2.06,21.08-.21,3.52-.37,7-.45,10.56,0,1.75,0,3.51,0,5.24,0,.23,0,.46,0,.69,5.9.87,12.12.57,18,.37a139.7,139.7,0,0,0,19-1.57c2.82-.49,3.2-.31,1.75-3-1.38-2.56-4.41-3.86-7-4.74-2.38-.8-4.85-1.22-7.28-1.83-1-.25-2.68-.48-3.21-1.5C443.69,399.32,444.71,398.59,445.67,397.9Z"/><path fill="none"  d="M164.26,327a17,17,0,0,0,5.41,9.44l7.42,6.85-8.84-4.88c-.31-.17-30.25-17-37-46.49-2.89,4.56-8.56,16.4-5.76,36l.24,1.68-1.67-.3c-.21,0-4-.8-6.8-6.54.43,7.76,2.52,20.07,10.7,29.95,7.83,9.47,19.61,14.86,35,16l5.13.39-4.76,2a81.61,81.61,0,0,1-8.27,2.87,76,76,0,0,0,37.54-2.25c-4.12-10.7-5.77-22.39-6.21-33.77A33.19,33.19,0,0,1,164.26,327Z"/><path d="M419.64,69.17h0l-.18,0Z"/><path d="M452.75,396.6A76,76,0,0,0,464,387.8c13.41-12.75,20.76-30.18,23-48.34,2.74-21.86-1.67-43.93-7.23-65A434.42,434.42,0,0,0,459.38,216a42.23,42.23,0,0,0,7.6-5.84,25.59,25.59,0,0,0,3.21-3.81,17.62,17.62,0,0,0,2.32-4.53,14,14,0,0,0-.45-10.2,19.81,19.81,0,0,0-1.18-2.29,20.87,20.87,0,0,0-1.53-2.07,19.54,19.54,0,0,0-3.72-3.44,30.81,30.81,0,0,0-8.92-4.28,49.18,49.18,0,0,0-9.56-1.89c-1.85-.18-3.7-.28-5.55-.29q-2.79-5.67-5.62-11.3c-3.36-6.66-6.74-13.27-10.57-19.62-.37-7.42-1.14-21.45-2.36-37.4a32.2,32.2,0,0,0,8,1c.87,0,1.77,0,2.7-.1a31,31,0,0,0,21.85-11.55c.22-.28.44-.57.64-.86a25.45,25.45,0,0,0,4.5-12.11A32.7,32.7,0,0,0,452,59.55c-6.87-7.06-17.36-9.21-27.41-5.56-6.59,2.38-6.85,3.12-6.74,4.14,0,.12,1.44,10.37,1.48,10.73l.09.19.21.12c5.19-1.32,9.44-4.79,15.13-3.74a14.17,14.17,0,0,1,9.24,6.4c3.11,5,3.62,11,1.33,15.65-2.87,5.89-10.12,9.33-16.85,8a18.22,18.22,0,0,1-6.79-2.81c-2.74-29.93-7-61-13.07-66.14a3.6,3.6,0,0,0-2.82-.94c-12.54,1.57-43.47,53.14-50.05,64.33a82,82,0,0,0-33.65-2.85,74.92,74.92,0,0,0-11.81,2.54c-2.05-3.3-10.87-17.36-20.9-30.64-15.86-21-26.66-29.78-33-26.75-2.26,1.09-9.13,4.39-14.22,69.26-1.71,21.83-2.64,43.46-3.05,55-4.22,7.11-8.17,14.36-11.9,21.61q-2.07,4-4,8c-3.62.88-7.21,1.91-10.75,3.15a70.11,70.11,0,0,0-9.14,3.87,34.28,34.28,0,0,0-4.32,2.62,17.66,17.66,0,0,0-3.85,3.56,8.57,8.57,0,0,0-1.32,2.51c-.07.23-.15.47-.21.71l-.1.69a10.7,10.7,0,0,0-.08,1.37,17.47,17.47,0,0,0,.85,5.15,44.79,44.79,0,0,0,4.18,9.1A85,85,0,0,0,204,227c.5.66,1,1.31,1.52,2q-3.08,9-5.7,18.09-5.13,17.8-8.49,36c-3.14,17.24-5.44,34.81-5,52.38a30.47,30.47,0,0,1-22.44-13l-1.77-2.58-.44,3.1a17,17,0,0,0,1.9,9.39c-9.27-6.67-26.65-21.81-30.49-43.69l-.43-2.45L131,288.12c-.47.51-11.12,12.51-8.22,37.84-1.7-1.3-4.21-4.31-5.45-11.13l-1.48-8.15-.94,8.23c-.1.92-2.43,22.9,11.16,39.34,7.35,8.91,17.95,14.4,31.55,16.37-2.82,1-6.22,1.94-8.32,1.94H142l6.82,2.37a67.07,67.07,0,0,0,20.54,2.93A77.05,77.05,0,0,0,193.52,374a65.78,65.78,0,0,0,4.87,9.34,52.9,52.9,0,0,0,21.1,19.21c.92.46,1.85.89,2.79,1.3a9.19,9.19,0,0,0,1.25.53l.49.2c-.49.16-1,.36-1.45.52-1.7.59-3.42,1.12-5.11,1.72-3.31,1.19-9.12,3.12-6.74,7.75,2.05,4,8.63,4.75,12.48,5.28a124,124,0,0,0,19.36.86c1.38,0,3.38.11,5.38,0,0,.08-.06.17-.08.24a3,3,0,0,1-.24.47,3.79,3.79,0,0,1-.72.85,9.48,9.48,0,0,1-2.25,1.36,42.87,42.87,0,0,0-5.54,2.6,5.5,5.5,0,0,0-2.34,2.88,5.42,5.42,0,0,0-.2,1.94,7.07,7.07,0,0,0,.44,1.8,7.44,7.44,0,0,0,2.1,2.8,13.08,13.08,0,0,0,2.71,1.81,22.51,22.51,0,0,0,6,2,28.13,28.13,0,0,0,3.08.38c1,.08,2,.13,3,.15a47.51,47.51,0,0,0,6.08-.28,45.38,45.38,0,0,0,6-1.05,18.51,18.51,0,0,0,3-1,16.24,16.24,0,0,0,2.79-1.49,23.63,23.63,0,0,0,8-9.35c.22-.47.45-.92.65-1.4l.3-.7.25-.75a13.1,13.1,0,0,0,.44-1.49c.12-.5.26-1,.35-1.48.31-1.39.57-2.78.82-4.17l.39.09c22.74,4.9,46.19,7.78,69.49,6.66a158.3,158.3,0,0,0,31.67-4.54q3.35-.86,6.64-1.91l.18.65a28,28,0,0,0,2.11,5.06,23.44,23.44,0,0,0,7.15,8.35,17.15,17.15,0,0,0,5.1,2.44,46.75,46.75,0,0,0,5.33,1.12,49.33,49.33,0,0,0,10.86.35c.91-.07,1.8-.16,2.74-.32a22.39,22.39,0,0,0,2.72-.63,18.81,18.81,0,0,0,5.16-2.33,10.9,10.9,0,0,0,2.24-2,6.92,6.92,0,0,0,1.35-2.93,5.27,5.27,0,0,0-.39-3.33,6.07,6.07,0,0,0-2.25-2.37,30,30,0,0,0-5.07-2.22,10.06,10.06,0,0,1-4-2.36c-.1-.12-.21-.28-.28-.38a2.4,2.4,0,0,1-.17-.39c0-.14-.08-.3-.12-.47l.91.09a142.87,142.87,0,0,0,21.2.05c5.56-.29,11.61-.36,17-1.79,4.09-1.08,2.59-5.48.27-8-3.66-4-9.54-4.72-14.51-6-.16,0-.32-.1-.48-.15.34-.21.64-.43.79-.52C450,398.32,451.38,397.48,452.75,396.6ZM428,97.9c7.92,1.55,16.13-2.38,19.52-9.35,2.66-5.45,2.1-12.36-1.46-18-4.31-6.84-11.88-9.5-19.29-6.77a55.67,55.67,0,0,0-6.77,3l-.1.06c-.54-5-.88-6.87-1-7.69l.23-.13a59.25,59.25,0,0,1,6.31-2.7c9.08-3.29,18.57-1.38,24.77,5a30.21,30.21,0,0,1,8.09,23.83,23,23,0,0,1-4,11c-.19.27-.39.53-.59.79a28.52,28.52,0,0,1-20.1,10.61c-.85.06-1.67.09-2.48.09-15.08,0-23.8-10.41-24.5-16.68s.72-6.61,3.57-7.08a11.78,11.78,0,0,1,2.32,2.75C415.11,90.15,419.46,96.22,428,97.9ZM406.1,28a1.2,1.2,0,0,1,.94.38c2.53,2.15,7.42,13.12,12,62.14a37,37,0,0,1-4.53-5.45c-1.68-2.35-2.9-4-4.67-3.75-3.87.64-6.53,1.72-5.64,9.77.49,4.35,3.74,9.3,8.49,12.9a28.55,28.55,0,0,0,7.85,4.21c1,13.53,1.77,25.82,2.2,33.9-1-1.57-2.07-3.12-3.17-4.64-11.53-15.93-26.35-29.8-43.68-39.23a101.45,101.45,0,0,0-17.72-7.59C369.24,71.87,396.26,29.26,406.1,28ZM244.63,101.68c4.33-55.22,9.9-65.83,12.84-67.24a3.79,3.79,0,0,1,1.63-.34c3.78,0,11.79,4.42,28.33,26.34,9.52,12.62,18,26,20.47,30-15.47,5.21-29,15.13-40.3,27.12a215.64,215.64,0,0,0-25.85,34.59C242.22,140,243.13,120.93,244.63,101.68ZM155.05,374a81.61,81.61,0,0,0,8.27-2.87l4.76-2-5.13-.39c-15.41-1.18-27.19-6.57-35-16-8.18-9.88-10.27-22.19-10.7-29.95,2.83,5.74,6.59,6.5,6.8,6.54l1.67.3-.24-1.68c-2.8-19.6,2.87-31.44,5.76-36,6.78,29.5,36.72,46.32,37,46.49l8.84,4.88-7.42-6.85a17,17,0,0,1-5.41-9.44A33.19,33.19,0,0,0,186.38,338c.44,11.38,2.09,23.07,6.21,33.77A76,76,0,0,1,155.05,374Zm289.33,26.67c.53,1,2.24,1.25,3.21,1.5,2.43.61,4.9,1,7.28,1.83,2.62.88,5.65,2.18,7,4.74,1.45,2.72,1.07,2.54-1.75,3a139.7,139.7,0,0,1-19,1.57c-5.9.2-12.12.5-18-.37,0-.23,0-.46,0-.69-.07-1.73-.07-3.49,0-5.24.08-3.52.24-7,.45-10.56.46-7,1.11-14.08,2.06-21.08.47-3.5,1-7,1.76-10.44.37-1.72.82-3.43,1.35-5.11a22.22,22.22,0,0,1,.94-2.46,7.18,7.18,0,0,1,1.46-2.19,7.43,7.43,0,0,0-1.62,2.11,21.23,21.23,0,0,0-1.12,2.42,47.66,47.66,0,0,0-1.63,5.08c-.95,3.43-1.66,6.91-2.31,10.4-1.25,7-2.16,14.05-2.78,21.12-.32,3.54-.58,7.09-.7,10.65-.06,1.78-.09,3.57,0,5.38,0,.9.07,1.81.18,2.76a9.48,9.48,0,0,0,.29,1.49,4.47,4.47,0,0,0,.35.83,6.75,6.75,0,0,0,.48.71,8.3,8.3,0,0,0,2.4,1.93,24,24,0,0,0,2.56,1.17,28.13,28.13,0,0,1,4.64,2,2.87,2.87,0,0,1,1.55,3.26,4.54,4.54,0,0,1-.87,1.83,7.91,7.91,0,0,1-1.41,1.28,5.48,5.48,0,0,0-.23-3.5,6.55,6.55,0,0,0-2.74-3.24,8.52,8.52,0,0,0-1.92-.76,13.28,13.28,0,0,0-1.85-.43,16,16,0,0,0-3.82-.26,15.16,15.16,0,0,0,3.21,2.08c.54.29,1.17.53,1.65.78a14.68,14.68,0,0,1,1.48.7,8.31,8.31,0,0,1,2.31,2.06,11.16,11.16,0,0,1,1.73,3.08l-.25-.2a16.67,16.67,0,0,1-4.35,2,22.59,22.59,0,0,1-5,.89l-1.11.06a2.53,2.53,0,0,0,.63-1.2,3.42,3.42,0,0,0-.21-2.07,7.18,7.18,0,0,0-2.45-2.89,10.63,10.63,0,0,0-3.17-1.64,7.93,7.93,0,0,0-3.56-.36c.93.8,1.83,1.44,2.7,2.08l2.56,1.88a14.77,14.77,0,0,1,2.25,1.87,3.4,3.4,0,0,1,.69,1.13,2.62,2.62,0,0,1,.07,1.56h0l-.31-.31a48.33,48.33,0,0,1-8.42-.38,41.38,41.38,0,0,1-5.08-1,15,15,0,0,1-4.47-2.06,22.28,22.28,0,0,1-6.69-7.5,26.75,26.75,0,0,1-2.09-4.67,38.26,38.26,0,0,1-1.25-5c-.63-3.43-1-7-1.58-10.49-.33-1.76-.72-3.47-1.09-5.21s-.74-3.47-1.23-5.2a36.4,36.4,0,0,0-2-4.95c-.74-1.6-1.45-3.23-2.14-4.86.58,1.68,1.17,3.35,1.8,5a37.21,37.21,0,0,1,1.73,5c.39,1.7.67,3.45,1,5.2s.57,3.5.8,5.23c.47,3.48.67,7,1.19,10.57.11.75.24,1.51.39,2.27-2.61.83-5.25,1.58-7.91,2.23-21.55,5.31-44.23,5.26-66.18,2.89A316.46,316.46,0,0,1,283,414.5c.64-3.68,1.29-7.34,2.05-11A116.29,116.29,0,0,1,287.9,392c.31-.93.59-1.88.94-2.8s.69-1.85,1.06-2.77l1.19-2.71,1.39-2.63a49.56,49.56,0,0,0-5.2,10.71c-1.36,3.74-2.46,7.57-3.44,11.42s-1.77,7.76-2.58,11.63c-.42,1.94-.8,3.88-1.28,5.77-.1.49-.24.95-.37,1.41a12.56,12.56,0,0,1-.43,1.35l-.23.65-.3.66c-.19.44-.42.86-.64,1.29a22.32,22.32,0,0,1-7.42,8.42,14.34,14.34,0,0,1-2.46,1.27,17.06,17.06,0,0,1-2.68.81,44,44,0,0,1-5.72.92,48.82,48.82,0,0,1-5.8.21c-.31,0-.63,0-1,0l-.3.32a2.54,2.54,0,0,1,.07-1.56,3.22,3.22,0,0,1,.68-1.13,15.28,15.28,0,0,1,2.25-1.87l2.56-1.88c.87-.64,1.77-1.28,2.71-2.08a8.11,8.11,0,0,0-3.57.35,11,11,0,0,0-3.17,1.65,7.22,7.22,0,0,0-2.45,2.88,3.62,3.62,0,0,0-.21,2.08,2.5,2.5,0,0,0,.64,1.2c-.38,0-.77,0-1.15-.06a25,25,0,0,1-2.82-.36,20.36,20.36,0,0,1-5.29-1.78c-.41-.22-.81-.45-1.19-.7l-.23.19a11.36,11.36,0,0,1,1.72-3.09,8.67,8.67,0,0,1,2.32-2.06A15.73,15.73,0,0,1,247,429c.49-.25,1.11-.49,1.65-.78a16,16,0,0,0,3.21-2.08,16,16,0,0,0-3.82.26,13.62,13.62,0,0,0-1.85.43,8.9,8.9,0,0,0-1.92.76,6.65,6.65,0,0,0-2.74,3.24,5.48,5.48,0,0,0-.22,3.52,5.87,5.87,0,0,1-2.06-2.39,4.88,4.88,0,0,1-.27-1.08,3,3,0,0,1,.09-1,3.13,3.13,0,0,1,1.37-1.6,45.72,45.72,0,0,1,5.21-2.44,11.54,11.54,0,0,0,2.8-1.74,6,6,0,0,0,1.18-1.41,5.37,5.37,0,0,0,.42-.87c.1-.28.18-.53.26-.8a23.1,23.1,0,0,0,.58-6.21c-.15-7.93.13-15.83-.1-23.8a158.1,158.1,0,0,0-2.1-23.78,64.11,64.11,0,0,0-3.12-11.54,32.27,32.27,0,0,0-2.67-5.36,16.94,16.94,0,0,0-4-4.43,16.83,16.83,0,0,1,3.65,4.62,32.82,32.82,0,0,1,2.38,5.39,64.46,64.46,0,0,1,2.55,11.51A174,174,0,0,1,248.91,391c0,3.95-.08,7.9-.16,11.86s-.13,8-.15,11.9c0,1.14,0,2.27-.16,3.35-1.08,0-2.17,0-3.17.06a152.52,152.52,0,0,1-17.5-.3c-3.09-.26-14-.56-15-4.78-.91-3.7,11.25-5.38,13.72-6.89,1.07-.66,1.91-1.44,1.08-2.7-.51-.77-2.13-1-2.88-1.31a53.54,53.54,0,0,1-7-3.46C188,381.35,186.8,341.31,189.75,311c.89-9.12,2.27-18.19,3.92-27.2a381.67,381.67,0,0,1,13.69-52.52c.95,1.13,1.93,2.24,2.95,3.31a164.25,164.25,0,0,1-10.16-16.65,48.26,48.26,0,0,1-3.64-8.82,16.15,16.15,0,0,1-.68-4.49,5.9,5.9,0,0,1,1.28-3.84,15.7,15.7,0,0,1,3.29-3.09,38.77,38.77,0,0,1,4-2.52,88.21,88.21,0,0,1,8.73-4.12c6-2.48,12.16-4.6,18.38-6.64-1.74.28-3.48.62-5.2,1a369.59,369.59,0,0,1,20.83-36.89c12.31-19.09,26.91-37.84,46.94-49.3a77.59,77.59,0,0,1,57.83-7.82c18.78,4.74,35.69,15.51,49.51,28.88C417,135.33,427,153.39,436.55,172.6l2.36,4.77c-.48,0-1,0-1.42.08a82.85,82.85,0,0,1,9.48,1.33,58.51,58.51,0,0,1,9.12,2.51q2.21.84,4.27,1.88a26.31,26.31,0,0,1,3.89,2.45,19.3,19.3,0,0,1,3.26,3.12,13.67,13.67,0,0,1,2.3,3.79,11.81,11.81,0,0,1,.5,8.53,21.24,21.24,0,0,1-4.71,7.73,49,49,0,0,1-7,6.26,79.84,79.84,0,0,1-8,5.23,49.52,49.52,0,0,0,6.7-3.1c3.37,8,6.58,16,9.55,24.19,8.32,22.87,15.58,47,18,71.3,1.84,18.56,0,38.07-8.64,54.84a70.25,70.25,0,0,1-17.73,22c-4,3.3-8.6,5.44-12.75,8.43C444.71,398.59,443.69,399.32,444.38,400.64Z"/>    </g>    <g id="eye">        <g id="eye-color1">            <g opacity="0" ><path fill="#9287C6"  d="M284,132c-.14.46-.21.94-.36,1.4a15.33,15.33,0,0,1-1.35,2.87c-.52.94-1,1.89-1.54,2.83-.24.41-.5.8-.77,1.2-.14.2-.28.41-.43.61s-.45.47-.45.6l-.6.74c-5.88,7-13.9,9.8-22.69,6.54-8.54-3.18-14.21-10.41-14.65-19.54a1.27,1.27,0,0,1,0-.28,1,1,0,0,1,0-.3,23.29,23.29,0,0,1,19-21.81,18.93,18.93,0,0,1,11.42,1.35c-15.29-7.7-34.35-2.93-39.29,15.33a20.54,20.54,0,0,0-.66,6.53,29.36,29.36,0,0,0,10.48,20.24c8.59,7.08,21.5,6.67,31,1.76,7.19-3.69,10-12.6,10.92-20.45C284.09,131.73,284.05,131.85,284,132Z"/></g><g opacity="0" ><path fill="#9287C6"  d="M407.76,125.92c-.24.62-.44,1.25-.69,1.86a25.27,25.27,0,0,1-2,3.66,30.31,30.31,0,0,1-2.53,3.43c-5.89,7-13.91,9.8-22.7,6.54-8.53-3.18-14.2-10.41-14.65-19.54a2.46,2.46,0,0,1,0-.28,2.66,2.66,0,0,1,0-.3,23.3,23.3,0,0,1,19-21.81,19,19,0,0,1,11.42,1.35c-15.3-7.7-34.36-2.93-39.3,15.33a20.83,20.83,0,0,0-.66,6.53,29.4,29.4,0,0,0,10.48,20.24c8.59,7.08,21.5,6.67,31,1.77,6.91-3.55,9.73-12,10.77-19.66C407.93,125.29,407.86,125.67,407.76,125.92Z"/></g>        </g>        <g id="eye-shape">            <path d="M220.75,186a1.18,1.18,0,0,0,1.6.57,1.45,1.45,0,0,0,.22-.09l.13-.05c5-2.07,10.08-4.56,15.26-6.22,3.31-1.06,3.64.38,5.91,2.67a44.14,44.14,0,0,0,4.66,4.09,36.62,36.62,0,0,0,21.08,7.5A40.09,40.09,0,0,0,302.52,178a47.31,47.31,0,0,0,8.57-21.65c.17-1.32-.41-5.8,0-6.7.49-1.08,5.79-2.53,7-3.07q6.13-2.68,12.24-5.42c14.58-6.53,28.85-13.74,43.36-20.39-12.56,12.13-13.22,31.28-7.45,47,5.88,16,19.05,32.15,37.53,32.1,19.25,0,36.3-15.42,41.63-33.35a41.26,41.26,0,0,0-.64-25.69c-4.67-12.92-14.66-21.38-27.25-26.38a56,56,0,0,0-15.7-3.82,35.23,35.23,0,0,0-11.07.8,6.64,6.64,0,0,0,1.47-2.13c.82-1.43-2.23-5.33-4.37-6.75-1.28-.85-2.49-1.72-3.74-2.59-1.45-1-3.4-2.08-5.13-1l-.48.29c-.63.34,1.27-.77.66-.38l-.42.26-.07.06-.41.25c-1.09.66-1.19.81-2.29,1.45q-6.74,3.94-13.64,7.6t-13.91,7.07q-7,3.43-14.12,6.66T320,128.51l-7.17,3.08-3.6,1.53-1.8.76-.68.29a47.33,47.33,0,0,0-23.92-20c-10.67-4-21.54-2.34-32,1.64-8.55,3.27-16.29,8.76-19.73,17.55-4.18,10.7-2.3,22.95,2,33.34-2.1.79-5.22,1.8-6.39,3.05-.86.91-1,2.44-1.5,3.6-1.53,3.81-3.67,7.41-4.75,11.39A1.37,1.37,0,0,0,220.75,186Zm177.69,10.38a27.23,27.23,0,0,1-3-.76c-15.37-4.81-25.15-21.23-28.48-36.16-3.52-15.83.68-32.76,15.31-41.4,7.82-4.63,16.25-5.48,25.07-3.61a57.25,57.25,0,0,1,13.79,4.85c2.73,1.38,5.12,3.33,7.81,4.73,15.12,11.6,19.3,31.46,10.93,48.47A46.83,46.83,0,0,1,420,192.85C413.3,196.3,405.84,197.86,398.44,196.39Z"/><path fill="none"  d="M420,192.85c-6.65,3.45-14.11,5-21.51,3.54A34.2,34.2,0,0,0,420,192.85Z"/><path fill="#fff"  d="M420,192.85a46.83,46.83,0,0,0,19.9-20.34c8.37-17,4.19-36.87-10.93-48.47-2.69-1.4-5.08-3.35-7.81-4.73a57.25,57.25,0,0,0-13.79-4.85c-8.82-1.87-17.25-1-25.07,3.61-14.63,8.64-18.83,25.57-15.31,41.4,3.33,14.93,13.11,31.35,28.48,36.16a27.23,27.23,0,0,0,3,.76A34.2,34.2,0,0,0,420,192.85Zm-26.34-15.24c-11.38.59-16.79-10.33-18.41-20.36a44.34,44.34,0,0,1-.51-5c-.3-7.3,2.38-13.24,7.29-16.52a9,9,0,0,0-.43,3.91c.41,4.09,2.62,8.82,7.42,8.37,4.1-.38,7.16-3.89,7.81-7.77a1.5,1.5,0,0,0,.07-.44,1.39,1.39,0,0,0,0-.46,7.59,7.59,0,0,0-3.6-6.3c.26,0,.52,0,.78,0,12.33,1.17,22.05,8.79,21.92,21.78a1.93,1.93,0,0,1,0,.34,1.74,1.74,0,0,1-.05.34C414.59,166.59,405.14,177,393.61,177.61Z"/><path fill="#212121"  d="M229.91,170.54c1.58-1.22,4.13-1.9,6-2.73.8-.37.84-.37.54-1.06-4.54-10.3-6.81-23.53-1.64-34.07,3.81-7.77,11.52-12.22,19.46-14.87,9.27-3.09,18.49-4.27,27.86-.75a44.26,44.26,0,0,1,22.77,19.75,1.52,1.52,0,0,0,1.69.69c26.57-11.17,51.35-21.56,76-36.52a8.79,8.79,0,0,1-.83.5c.41.33.86.74,1.38,1.23,2.39,2.25,6.5,5.47,6.5,5.47-1.56,2.89-5.24,4.51-8.1,5.84-7.2,3.33-14.36,6.75-21.52,10.17q-25.26,12.06-51,23.12a1.43,1.43,0,0,0-.74,1.29c1,17-8.77,35.27-24.92,41.48-15.64,6-31.17-.05-41.29-12.78a1.45,1.45,0,0,0-1.46-.39c-5.4,2.21-11.8,4.41-17.2,6.61,1-2.47,2.25-5.85,3.28-8.3A12.85,12.85,0,0,1,229.91,170.54Z"/><path d="M375.2,157.25a44.34,44.34,0,0,1-.51-5c-.3-7.3,2.38-13.24,7.29-16.52a9,9,0,0,0-.43,3.91c.41,4.09,2.62,8.82,7.42,8.37,4.1-.38,7.16-3.89,7.81-7.77a1.5,1.5,0,0,0,.07-.44,1.39,1.39,0,0,0,0-.46,7.59,7.59,0,0,0-3.6-6.3c.26,0,.52,0,.78,0,12.33,1.17,22.05,8.79,21.92,21.78a1.93,1.93,0,0,1,0,.34,1.74,1.74,0,0,1-.05.34c-1.29,11-10.74,21.44-22.27,22S376.82,167.28,375.2,157.25Z"/>        </g>        <g id="eye-color2">            <path fill="#FFF471"  d="M393.5,177.61c11.53-.6,21-11,22.27-22a1.22,1.22,0,0,0,0-.34,1,1,0,0,0,0-.34c.14-13-9.58-20.61-21.91-21.78-.27,0-.52,0-.79,0L393,133c1.07.65,5.12-.1,6.52,0a40.67,40.67,0,0,1,7.18,1.22,32,32,0,0,1,12.74,6.42c17.28,14.9,1.45,40.58-18,42.56-9.1.92-17.64-3-21.82-11.29a44.28,44.28,0,0,1-4.49-14.67C376.71,167.28,382.12,178.2,393.5,177.61Z"/>        </g>    </g>    <g id="nose-mouth">        <path d="M345.48,229c-2.11,3.05-8,1.44-9.17-2.09,0-.11.07-.22.09-.33a1.34,1.34,0,0,0,0-.2c4.65-1.74,6.61-8.89,7-13.29.52-6.63.46-17.56-7.54-19.89-9.4-2.72-14.37,9-14.1,16.59.23,6.65,3.79,15.56,11.15,16.87l.37.05v0c-1.43,4.19-7.21,6.29-10.28,2.88-1.29-1.44-2.41-1.31-1.12.12,3.75,4.17,10,4.13,13,.43,2.76,3.34,8.17,3.32,11.26-1.16C347.16,227.46,346.56,227.45,345.48,229Z"/><path fill="#2d2821"  d="M324.62,208.1c.12,4.83,1.89,11.79,6.53,14.49,6.3,3.67,8.8-4.66,9.22-9.46.38-4.38.61-10-1.67-13.87-2.48-4.27-7.49-3.87-10.58-.73C325.59,201.09,324.81,204.63,324.62,208.1Z"/><ellipse fill="#fff"  cx="337.11" cy="202.86" rx="2.2" ry="4.78" transform="translate(-44.45 106.9) rotate(-16.92)"/>    </g></svg>