<!--  ~ Copyright (C) 2018 Baidu, Inc. All Rights Reserved.  --><svg viewBox="0 0 640 480" xmlns="http://www.w3.org/2000/svg">    <g id="back-ground-cl">        <rect fill="none" width="640" height="480" />        <ellipse opacity="0.1" cx="331.93" cy="418.82" rx="168.39" ry="32.01"/>    </g>    <g id="body">        <defs>            <clipPath id="outline">                <path fill="none"  d="M160.05,333.15c-3.58-5.9-3.3-13-.58-19.25a13.76,13.76,0,0,1,6-6.84c2.6-1.38,4.51-.84,7.22-.85,2.4,0,5.77-.62,4.77-3.69a7.54,7.54,0,0,0-1.09-1.75,7.82,7.82,0,0,0-4.49-3.35c-4-1.16-8.86-.44-12.85.56-16.25,4.06-24.71,20.78-26.8,36.27C129.54,354,149.85,369.5,167,373.66a61.12,61.12,0,0,0,26.47.37,90.59,90.59,0,0,1-6.9-26.51C175.94,346.14,165.41,342,160.05,333.15Z"/><path fill="none"  d="M258.25,128q4.35-5.44,9.09-10.54a109.44,109.44,0,0,1,26.43-21c-11.2-9.39-22.06-19.2-33.66-28.1-5.07-3.88-10.25-8-16.07-10.68-8.33-3.89-15.54-2.62-22.11,3.8-16.17,15.79-25.3,35.47-33.63,56-2.85,7-6.35,14.31-12.63,18.91-2.66,1.94-5.92,2.67-6,6.52a8.34,8.34,0,0,0,4.11,7.15c4.63,3.09,10.49,3.83,15.93,3.59a54.82,54.82,0,0,0,28.91-10c7.45-5.2,14.53-11.57,23.54-13.92,5.08-1.32,10.34-1,15.51-1.64C257.88,128.1,258.06,128.06,258.25,128Z"/><path fill="none"  d="M376.27,98.3a120.48,120.48,0,0,1,13.07,8.34c12.85,5.91,23.72,16.66,32.35,27.83,7.08,9.18,13.26,19,20.46,28.11,4.72,6,11,10,17.61,3.92,3.42-3.14,5.67-7.4,7.62-11.55,5.46-11.58,11.08-23.16,15.88-35,1.35-3.35,3-6.57,2.76-10.22-.31-4.08-3.57-5.68-6.63-7.9-4.31-3.12-8.53-6.34-12.64-9.72A164.7,164.7,0,0,1,443,68.3c-2.69-3.35-4.83-6.44-9.61-6.48-3.43,0-7.26,1.1-10.62,1.67l-17.13,2.88c-19,3.21-42,5.42-55.86,20.29-.18.49-.36,1-.56,1.46A99.39,99.39,0,0,1,376.27,98.3Z"/><path fill="none"  d="M436.24,173c-9.43-18.92-19.18-36.8-34.42-51.77C388,107.62,371,96.63,352,91.79c-1.34-.34-2.69-.64-4-.91h0a4.74,4.74,0,0,0-.94-.18,37,37,0,0,0,2.45-7.64,35.23,35.23,0,0,1-9.73,9.85l-3.22,2.15,1.66-3.53a69.55,69.55,0,0,0,6.13-22.45c-1.63,2.48-3.29,5-5,7.38a107.76,107.76,0,0,1-9.05,11.24l-6,6.44,3.58-8.07A43.19,43.19,0,0,0,331,62.52c-1.28,4.22-2.56,8.44-3.87,12.65a86.84,86.84,0,0,1-3,8.92,21,21,0,0,1-2.42,4.23A13.38,13.38,0,0,1,318,91.67L315.85,93l.84-2.3a10,10,0,0,0-.78-8.24,31.83,31.83,0,0,1-2.15,8.68c-.09.24-.19.47-.3.71l-.76.14a77.44,77.44,0,0,0-19.41,8.11c-20,11.78-34.5,30.8-46.79,50.07a377.42,377.42,0,0,0-52.42,133.53c-1.65,9-3,18.11-3.92,27.25-2.94,30.42-1.68,70.59,28.43,87.67,2.13,1.21,13,3.79,8.39,7.39-2.4,1.85-14.49,3-13.86,6.68.69,4.07,12.39,4.42,15.14,4.63a154.25,154.25,0,0,0,17.6.25c.53,0,1.44,0,2.41,0,.15-1.73.14-3.58.16-5.42s0-3.86.06-5.79c.07-3.85.18-7.68.2-11.51A150.38,150.38,0,0,0,247.36,372a55.56,55.56,0,0,0-2.69-11.09,30.32,30.32,0,0,0-2.46-5.14,18.35,18.35,0,0,0-3.63-4.43h0a22.92,22.92,0,0,1,6.82,9.27,57.18,57.18,0,0,1,3.39,11.13,135,135,0,0,1,2.22,23.1c.11,3.87.11,7.73.1,11.57,0,1.92,0,3.83,0,5.75s.08,3.85-.07,5.9a14.63,14.63,0,0,1-.56,3.13l-.13.39c0,.14-.12.3-.18.45a6.36,6.36,0,0,1-.47.85,6.81,6.81,0,0,1-1.25,1.36A22,22,0,0,1,243,427c-1.7.71-3.31,1.6-3.6,2.6a1.92,1.92,0,0,0-.1.85,3.09,3.09,0,0,0,.06.5l.14.48a4.85,4.85,0,0,0,1.25,1.77c.12.11.27.21.4.32a5.43,5.43,0,0,1,.24-3.08,6.54,6.54,0,0,1,2.78-3.37,8.36,8.36,0,0,1,2-.77,12.23,12.23,0,0,1,1.87-.39,13.57,13.57,0,0,1,3.88-.05,13.47,13.47,0,0,1-3.14,2.29c-1.11.61-2.2,1.06-3,1.5a9.43,9.43,0,0,0-2.27,1.92,12.66,12.66,0,0,0-1.91,3l.47-.39a15.29,15.29,0,0,0,3.2,1.55,21.13,21.13,0,0,0,2.58.75,22.72,22.72,0,0,0,2.68.41l1.4.09a2.54,2.54,0,0,1-.43-.91,3.51,3.51,0,0,1,.15-2.17,7.13,7.13,0,0,1,2.47-3,10.06,10.06,0,0,1,3.24-1.62,7.37,7.37,0,0,1,3.65-.16,29.86,29.86,0,0,1-2.6,2.28c-.84.66-1.66,1.29-2.49,1.9a23.66,23.66,0,0,0-2.22,1.75,3.44,3.44,0,0,0-.74,1,2.5,2.5,0,0,0-.2,1.56l.54-.57a48.17,48.17,0,0,0,8.4-.42,36.26,36.26,0,0,0,5.41-1.12,15.05,15.05,0,0,0,4.66-2.47,20.69,20.69,0,0,0,3.79-3.86,25.49,25.49,0,0,0,2.85-4.7,12.1,12.1,0,0,0,.54-1.25c.15-.41.3-.82.42-1.28.27-.89.49-1.81.71-2.73l1.23-5.62c.81-3.76,1.61-7.53,2.58-11.28a113.26,113.26,0,0,1,3.46-11.06,48.77,48.77,0,0,1,5.15-10.35h0c-3.7,6.77-5.64,14.26-7.18,21.75-.78,3.71-1.42,7.45-2.06,11.2a311.41,311.41,0,0,0,33.1,5.42c21.48,2.29,43.63,2.36,64.74-2.67a86.22,86.22,0,0,0,8.66-2.58c0-.15-.06-.3-.08-.45-.63-3.71-.81-7.39-1.25-11-.2-1.8-.5-3.61-.78-5.43s-.56-3.63-.94-5.41a31.1,31.1,0,0,0-1.71-5.18c-.65-1.72-1.25-3.46-1.84-5.2.73,1.69,1.47,3.37,2.26,5a31.94,31.94,0,0,1,2.07,5.16c.49,1.79.87,3.59,1.27,5.39s.81,3.59,1.13,5.43c.62,3.66,1,7.32,1.72,10.85a32.65,32.65,0,0,0,1.5,5.11A27.37,27.37,0,0,0,395.5,423a20.1,20.1,0,0,0,7.48,7,12.63,12.63,0,0,0,2.34.92c.8.24,1.7.43,2.56.61a45,45,0,0,0,5.3.72,51.54,51.54,0,0,0,5.7.11l.54.56a2.54,2.54,0,0,0-.2-1.55,3.32,3.32,0,0,0-.74-1,22.12,22.12,0,0,0-2.22-1.75c-.83-.61-1.65-1.24-2.49-1.91a29.47,29.47,0,0,1-2.61-2.27,7.41,7.41,0,0,1,3.66.16,9.82,9.82,0,0,1,3.23,1.62,7.1,7.1,0,0,1,2.48,3,3.62,3.62,0,0,1,.15,2.18,2.79,2.79,0,0,1-.44.92c1.2-.09,2.39-.2,3.54-.4a20.31,20.31,0,0,0,4.86-1.57,13.17,13.17,0,0,0,1.48-.83l.46.38a12.77,12.77,0,0,0-1.91-3A9.43,9.43,0,0,0,426.4,425c-.84-.44-1.93-.89-3-1.5a13.63,13.63,0,0,1-3.13-2.29,13.57,13.57,0,0,1,3.88.05,12.23,12.23,0,0,1,1.87.39,8.36,8.36,0,0,1,2,.77,6.56,6.56,0,0,1,2.78,3.36,5.4,5.4,0,0,1,.23,3.12,5.91,5.91,0,0,0,1.3-1.41,3.82,3.82,0,0,0,.57-1.85,2.2,2.2,0,0,0-.11-.84,1.94,1.94,0,0,0-.41-.72c-.78-.95-2.46-1.64-4.13-2.28a21.47,21.47,0,0,1-5.32-2.59,7.46,7.46,0,0,1-1.23-1.22,5,5,0,0,1-.88-1.71,9.08,9.08,0,0,1-.27-1.57c-.06-.52-.09-1-.1-1.48a111.51,111.51,0,0,1,.44-11.18c.28-3.68.68-7.35,1.13-11,.89-7.33,2-14.61,3.48-21.85.76-3.61,1.6-7.2,2.61-10.75.51-1.78,1.06-3.54,1.74-5.26a21.32,21.32,0,0,1,1.17-2.52,8,8,0,0,1,1.29-1.85,4,4,0,0,1,.37-.35,7.2,7.2,0,0,0-1.46,2.3,20.74,20.74,0,0,0-.94,2.57c-.56,1.74-1,3.51-1.4,5.3-.79,3.58-1.4,7.19-1.94,10.82-1.1,7.25-1.92,14.54-2.6,21.83-.33,3.65-.61,7.31-.83,10.95-.2,3.41-.36,6.86-.25,10.19,5.42.86,11.33.45,16.69.29A155,155,0,0,0,459,411.22c2.36-.36,3.95,0,2.58-2.29-1.6-2.7-4-4-6.92-5-2.42-.82-9.31-1-10.72-3.45-.76-1.34.09-2,1-2.94,1.35-1.35,4-2.21,5.61-3.24q3-1.89,5.8-4A69.52,69.52,0,0,0,475.12,368c9-16.7,10.93-36.3,9.17-54.93C482,289.38,475,265.78,467,243.43,458.39,219.28,447.67,195.93,436.24,173Z"/><path d="M453.83,203c-5.4-12-11.14-23.86-17.05-35.62-5.06-10.06-10.07-20.08-16.63-29.27q-3.45-4.86-7.33-9.43a219.21,219.21,0,0,1,15.57,20c3.71,5.25,7.36,10.57,11.35,15.61,3,3.78,6.39,7.71,11.47,8.33,9.41,1.16,15.38-9,18.76-16.2,5.83-12.38,11.84-24.74,16.87-37.47,1.63-4.13,3.9-8.76,1.59-13.08-2.53-4.74-9-7.72-13.1-10.85a173.65,173.65,0,0,1-28.54-26.85c-3.15-3.8-6-8.57-11.3-9.31-6.08-.84-13.22,1.63-19.22,2.65-21.21,3.57-47.81,5-65,19.61.11-.61.21-1.21.3-1.82l.55-4-2,3.59a33.45,33.45,0,0,1-6.45,8.22L342.6,87a68.33,68.33,0,0,0,2.76-8.41,70.94,70.94,0,0,0,2.13-14.72l.19-5L344.91,63c-2.64,3.94-5.21,7.91-8,11.72Q335,77.39,333,79.93a45.09,45.09,0,0,0-.48-23.32l-1.33-4.54-1.29,4.53c-1.7,6-3.41,11.93-5.06,17.91a87,87,0,0,1-2.7,8.77,20.76,20.76,0,0,1-2.05,3.91h0l-1.26.2a11.2,11.2,0,0,0-2.95-7.22L314.79,79v1.58a30.72,30.72,0,0,1-1,7.86A81,81,0,0,0,296.56,95a1.62,1.62,0,0,0-.25-.28C285,85.23,274,75.35,262.37,66.34,253.49,59.5,241.31,49.1,229.16,53c-5.27,1.7-9.22,6-12.84,10a136.25,136.25,0,0,0-12.8,16.4,159.55,159.55,0,0,0-16.22,32.39,85.1,85.1,0,0,1-6.31,14,29.37,29.37,0,0,1-5.23,6.62c-2.15,2-5.18,2.79-7.14,4.83-6.34,6.62,1.61,15.05,7.81,17.47,10.12,3.95,22.32,1.59,32.15-2.15,10.51-4,18.17-12.59,28.12-17.56,6.16-3.09,12.44-3.09,19-3.72-11,14.4-20.23,30.38-28.47,46.32a380.09,380.09,0,0,0-27.51,69.12q-5.13,17.82-8.5,36.06c-3.45,19-6.77,40.77-5,61.39-13.52-2.25-28.79-9.5-25.39-24.85.72-3.22,2-6.56,4.64-8.66,4.41-3.49,8.54.65,12.92-1.44s2.51-7.49.27-10.52c-7.91-10.73-27.31-3-35,4.3-9.48,8.95-16.45,25.8-14.34,38.87,2.64,16.29,18,28.65,32.9,33.49a62.47,62.47,0,0,0,32.55,1.4,68.93,68.93,0,0,0,3.4,6.1,54.13,54.13,0,0,0,16.36,16.68,56.11,56.11,0,0,0,5.29,3c.46.22,2,1.13,3.24,1.71l-.31.12c-1.78.63-3.6,1.16-5.37,1.81-3.43,1.26-9.09,3.22-6.82,8,1.87,3.91,8,4.8,11.7,5.38a117.09,117.09,0,0,0,20,1c1.45,0,3.43.1,5.43.05a3.56,3.56,0,0,1-.29.54,3.81,3.81,0,0,1-.71.75,20.38,20.38,0,0,1-4.77,2.37,17.66,17.66,0,0,0-2.81,1.42,5.9,5.9,0,0,0-2.43,2.88,6.53,6.53,0,0,0,2.08,6.76,11.83,11.83,0,0,0,2.66,1.88,18.89,18.89,0,0,0,2.85,1.26,23.66,23.66,0,0,0,3,.83,25,25,0,0,0,3,.44,49,49,0,0,0,11.86-.34,38.78,38.78,0,0,0,5.85-1.33,17.68,17.68,0,0,0,5.43-3,25.22,25.22,0,0,0,7.16-9.66,18.6,18.6,0,0,0,1-2.89c.26-1,.46-1.93.66-2.88s.37-1.91.54-2.87c22.29,4.82,45.23,7.68,68.06,6.77a160.19,160.19,0,0,0,32.55-4.43c2.39-.6,4.77-1.27,7.12-2a28.63,28.63,0,0,0,3.1,7.11,21.81,21.81,0,0,0,8.26,8.08,15.91,15.91,0,0,0,2.76,1.15c1,.3,1.85.51,2.78.72a48.77,48.77,0,0,0,5.61.87,45.84,45.84,0,0,0,11.39-.31,23.43,23.43,0,0,0,5.6-1.79,14.28,14.28,0,0,0,2.63-1.57A9,9,0,0,0,434.8,429a6.86,6.86,0,0,0,1-3.36,5.1,5.1,0,0,0-1.23-3.53,8.34,8.34,0,0,0-2.67-2c-.91-.45-1.81-.8-2.68-1.13a19.28,19.28,0,0,1-4.6-2.14,4.11,4.11,0,0,1-.73-.71,1.76,1.76,0,0,1-.38-.71l0-.12.83.07a142.53,142.53,0,0,0,20.87,0c5.56-.3,11.91-.22,17.3-1.84,3.77-1.14,2.9-4.87.85-7.65-3.27-4.44-9.45-5.46-14.46-6.64l-.43-.13c.94-.57,1.95-1.32,2.34-1.55a76.39,76.39,0,0,0,11.85-8.79c14-12.67,21.84-30.36,24.29-48.89,2.85-21.53-1.3-43.23-6.67-64C473.77,250.85,464.43,226.61,453.83,203,405.65,66.37l17.13-2.88c3.36-.57,7.19-1.69,10.62-1.67,4.78,0,6.92,3.13,9.61,6.48a164.7,164.7,0,0,0,23.74,23.78c4.11,3.38,8.33,6.6,12.64,9.72,3.06,2.22,6.32,3.82,6.63,7.9.28,3.65-1.41,6.87-2.76,10.22-4.8,11.87-10.42,23.45-15.88,35-1.95,4.15-4.2,8.41-7.62,11.55-6.61,6.06-12.89,2-17.61-3.92-7.2-9.08-13.38-18.93-20.46-28.11-8.63-11.17-19.5-21.92-32.35-27.83a120.48,120.48,0,0,0-13.07-8.34,99.39,99.39,0,0,0-27-10.18c.2-.48.38-1,.56-1.46C363.64,71.79,386.63,69.58,405.65,66.37,242.17,129.76c-9,2.35-16.09,8.72-23.54,13.92a54.82,54.82,0,0,1-28.91,10c-5.44.24-11.3-.5-15.93-3.59a8.34,8.34,0,0,1-4.11-7.15c.07-3.85,3.33-4.58,6-6.52,6.28-4.6,9.78-11.89,12.63-18.91,8.33-20.57,17.46-40.25,33.63-56,6.57-6.42,13.78-7.69,22.11-3.8,5.82,2.72,11,6.8,16.07,10.68,11.6,8.9,22.46,18.71,33.66,28.1a109.44,109.44,0,0,0-26.43,21q-4.75,5.08-9.09,10.54c-.19,0-.37.07-.57.09C252.51,128.74,247.25,128.44,242.17,129.76,167,373.66c-17.1-4.16-37.41-19.67-34.73-39.41C134.31,318.76,142.77,302,159,298c4-1,8.82-1.72,12.85-.56a7.82,7.82,0,0,1,4.49,3.35,7.54,7.54,0,0,1,1.09,1.75c1,3.07-2.37,3.67-4.77,3.69-2.71,0-4.62-.53-7.22.85a13.76,13.76,0,0,0-6,6.84c-2.72,6.2-3,13.35.58,19.25,5.36,8.84,15.89,13,26.47,14.37a90.59,90.59,0,0,0,6.9,26.51A61.12,61.12,0,0,1,167,373.66,475.12,368a69.52,69.52,0,0,1-18.79,22.2q-2.81,2.16-5.8,4c-1.64,1-4.26,1.89-5.61,3.24-.88.89-1.73,1.6-1,2.94,1.41,2.48,8.3,2.63,10.72,3.45,2.94,1,5.32,2.32,6.92,5,1.37,2.3-.22,1.93-2.58,2.29a155,155,0,0,1-19.14,1.46c-5.36.16-11.27.57-16.69-.29-.11-3.33.05-6.78.25-10.19.22-3.64.5-7.3.83-10.95.68-7.29,1.5-14.58,2.6-21.83.54-3.63,1.15-7.24,1.94-10.82.39-1.79.84-3.56,1.4-5.3a20.74,20.74,0,0,1,.94-2.57,7.2,7.2,0,0,1,1.46-2.3,4,4,0,0,0-.37.35,8,8,0,0,0-1.29,1.85,21.32,21.32,0,0,0-1.17,2.52c-.68,1.72-1.23,3.48-1.74,5.26-1,3.55-1.85,7.14-2.61,10.75-1.45,7.24-2.59,14.52-3.48,21.85-.45,3.66-.85,7.33-1.13,11a111.51,111.51,0,0,0-.44,11.18c0,.47,0,1,.1,1.48a9.08,9.08,0,0,0,.27,1.57,5,5,0,0,0,.88,1.71,7.46,7.46,0,0,0,1.23,1.22,21.47,21.47,0,0,0,5.32,2.59c1.67.64,3.35,1.33,4.13,2.28a1.94,1.94,0,0,1,.41.72,2.2,2.2,0,0,1,.11.84,3.82,3.82,0,0,1-.57,1.85,5.91,5.91,0,0,1-1.3,1.41,5.4,5.4,0,0,0-.23-3.12,6.56,6.56,0,0,0-2.78-3.36,8.36,8.36,0,0,0-2-.77,12.23,12.23,0,0,0-1.87-.39,13.57,13.57,0,0,0-3.88-.05,13.63,13.63,0,0,0,3.13,2.29c1.12.61,2.21,1.06,3,1.5a9.43,9.43,0,0,1,2.27,1.92,12.77,12.77,0,0,1,1.91,3l-.46-.38a13.17,13.17,0,0,1-1.48.83,20.31,20.31,0,0,1-4.86,1.57c-1.15.2-2.34.31-3.54.4a2.79,2.79,0,0,0,.44-.92,3.62,3.62,0,0,0-.15-2.18,7.1,7.1,0,0,0-2.48-3,9.82,9.82,0,0,0-3.23-1.62,7.41,7.41,0,0,0-3.66-.16,29.47,29.47,0,0,0,2.61,2.27c.84.67,1.66,1.3,2.49,1.91a22.12,22.12,0,0,1,2.22,1.75,3.32,3.32,0,0,1,.74,1,2.54,2.54,0,0,1,.2,1.55l-.54-.56a51.54,51.54,0,0,1-5.7-.11,45,45,0,0,1-5.3-.72c-.86-.18-1.76-.37-2.56-.61A12.63,12.63,0,0,1,403,430a20.1,20.1,0,0,1-7.48-7,27.37,27.37,0,0,1-2.44-4.68,32.65,32.65,0,0,1-1.5-5.11c-.76-3.53-1.1-7.19-1.72-10.85-.32-1.84-.74-3.63-1.13-5.43s-.78-3.6-1.27-5.39a31.94,31.94,0,0,0-2.07-5.16c-.79-1.66-1.53-3.34-2.26-5,.59,1.74,1.19,3.48,1.84,5.2a31.1,31.1,0,0,1,1.71,5.18c.38,1.78.65,3.6.94,5.41s.58,3.63.78,5.43c.44,3.62.62,7.3,1.25,11,0,.15.05.3.08.45a86.22,86.22,0,0,1-8.66,2.58c-21.11,5-43.26,5-64.74,2.67a311.41,311.41,0,0,1-33.1-5.42c.64-3.75,1.28-7.49,2.06-11.2,1.54-7.49,3.48-15,7.18-21.75h0a48.77,48.77,0,0,0-5.15,10.35,113.26,113.26,0,0,0-3.46,11.06c-1,3.75-1.77,7.52-2.58,11.28L280,419.24c-.22.92-.44,1.84-.71,2.73-.12.46-.27.87-.42,1.28a12.1,12.1,0,0,1-.54,1.25,25.49,25.49,0,0,1-2.85,4.7,20.69,20.69,0,0,1-3.79,3.86,15.05,15.05,0,0,1-4.66,2.47,36.26,36.26,0,0,1-5.41,1.12,48.17,48.17,0,0,1-8.4.42l-.54.57a2.5,2.5,0,0,1,.2-1.56,3.44,3.44,0,0,1,.74-1,23.66,23.66,0,0,1,2.22-1.75c.83-.61,1.65-1.24,2.49-1.9a29.86,29.86,0,0,0,2.6-2.28,7.37,7.37,0,0,0-3.65.16,10.06,10.06,0,0,0-3.24,1.62,7.13,7.13,0,0,0-2.47,3,3.51,3.51,0,0,0-.15,2.17,2.54,2.54,0,0,0,.43.91l-1.4-.09a22.72,22.72,0,0,1-2.68-.41,21.13,21.13,0,0,1-2.58-.75,15.29,15.29,0,0,1-3.2-1.55l-.47.39a12.66,12.66,0,0,1,1.91-3,9.43,9.43,0,0,1,2.27-1.92c.84-.44,1.93-.89,3-1.5a13.47,13.47,0,0,0,3.14-2.29,13.57,13.57,0,0,0-3.88.05,12.23,12.23,0,0,0-1.87.39,8.36,8.36,0,0,0-2,.77,6.54,6.54,0,0,0-2.78,3.37,5.43,5.43,0,0,0-.24,3.08c-.13-.11-.28-.21-.4-.32a4.85,4.85,0,0,1-1.25-1.77l-.14-.48a3.09,3.09,0,0,1-.06-.5,1.92,1.92,0,0,1,.1-.85c.29-1,1.9-1.89,3.6-2.6a22,22,0,0,0,5.47-2.83,6.81,6.81,0,0,0,1.25-1.36,6.36,6.36,0,0,0,.47-.85c.06-.15.13-.31.18-.45l.13-.39a14.63,14.63,0,0,0,.56-3.13c.15-2.05.09-4,.07-5.9s0-3.83,0-5.75c0-3.84,0-7.7-.1-11.57a135,135,0,0,0-2.22-23.1,57.18,57.18,0,0,0-3.39-11.13,22.92,22.92,0,0,0-6.82-9.27h0a18.35,18.35,0,0,1,3.63,4.43,30.32,30.32,0,0,1,2.46,5.14A55.56,55.56,0,0,1,247.36,372a150.38,150.38,0,0,1,1.33,22.87c0,3.83-.13,7.66-.2,11.51,0,1.93-.06,3.87-.06,5.79s0,3.69-.16,5.42c-1,0-1.88,0-2.41,0a154.25,154.25,0,0,1-17.6-.25c-2.75-.21-14.45-.56-15.14-4.63-.63-3.64,11.46-4.83,13.86-6.68,4.66-3.6-6.26-6.18-8.39-7.39-30.11-17.08-31.37-57.25-28.43-87.67.89-9.14,2.27-18.22,3.92-27.25A377.42,377.42,0,0,1,246.5,150.12c12.29-19.27,26.78-38.29,46.79-50.07a77.44,77.44,0,0,1,19.41-8.11l.76-.14c.11-.24.21-.47.3-.71a31.83,31.83,0,0,0,2.15-8.68,10,10,0,0,1,.78,8.24l-.84,2.3L318,91.67a13.38,13.38,0,0,0,3.68-3.35,21,21,0,0,0,2.42-4.23,86.84,86.84,0,0,0,3-8.92c1.31-4.21,2.59-8.43,3.87-12.65a43.19,43.19,0,0,1-3.17,23.55l-3.58,8.07,6-6.44a107.76,107.76,0,0,0,9.05-11.24c1.73-2.43,3.39-4.9,5-7.38a69.55,69.55,0,0,1-6.13,22.45l-1.66,3.53,3.22-2.15a35.23,35.23,0,0,0,9.73-9.85,37,37,0,0,1-2.45,7.64,4.74,4.74,0,0,1,.94.18h0c1.34.27,2.69.57,4,.91,18.94,4.84,36,15.83,49.8,29.43,15.24,15,25,32.85,34.42,51.77,11.43,22.94,22.15,46.29,30.8,70.44,8,22.35,15,45.95,17.25,69.67C486.05,331.73,484.08,351.33,475.12,368Z"/>            </clipPath>        </defs>        <g clip-path="url(#outline)">            <rect fill="#C5EDC5" width="640" height="480" />        </g>    </g>    <g id="pattern">        <g clip-path="url(#outline)">            <path fill="#435055"  d="M389.21,109.75a38.1,38.1,0,0,0-9.78-2.63c-7.56-1-18.32-.79-24.8,4.08a18.1,18.1,0,0,0-7.58,14.54c0,12.71,4.6,26.33,7.61,38.62,4.65,19,9.3,39,20.12,55.55,7.14,10.94,24.86,25.33,39,21.07C433,235.15,436.14,193.84,432.9,178,428.15,154.87,410.42,118.49,389.21,109.75Z"/>            <g opacity="0.6" ><path fill="#DDDDDD"  d="M285.16,418.84c2.41-25.61,23.87-48.92,47.26-49.49,24.86-.61,52.32,18.62,54.82,48.11.13,1.49,1.2.46-.05,1.63-1.4,1.32-6.65,1.94-9.64,2.8-14.1,4.06-27.6,4.48-43.78,4.36-16.48-.12-33.16-4.21-48.13-7.41"/></g>        </g>    </g>    <g id="mask">        <path fill="#2d2926"  d="M277.46,109.18c4.07-3.21,8.52-5.84,12.75-8.83,2.22-1.57,4.33-3.11,6.56-4.46a1.21,1.21,0,0,0-.46-1.2C285,85.23,274,75.35,262.37,66.34,253.49,59.5,241.31,49.1,229.16,53c-5.27,1.7-9.22,6-12.84,10a136.25,136.25,0,0,0-12.8,16.4,159.55,159.55,0,0,0-16.22,32.39,84.63,84.63,0,0,1-6.31,14,29.2,29.2,0,0,1-5.23,6.63c-2.15,2-5.18,2.79-7.14,4.83-6.34,6.62,1.61,15.05,7.81,17.47,10.12,3.95,22.32,1.59,32.15-2.15,10.51-4,18.17-12.59,28.12-17.56,7-3.51,14.18-3,21.68-4A79.65,79.65,0,0,1,277.46,109.18Z"/><path fill="#2d2926"  d="M348.54,90a7,7,0,0,1,2.68.66l.16.08A64.78,64.78,0,0,1,373,99.38a50.67,50.67,0,0,1,12.37,7.38c.91.47,1.8.95,2.67,1.46,2.52,1.48,5.26,2.47,7.57,4.3a28.36,28.36,0,0,1,3.51,3.42c11.63,8.7,21.12,21.29,29.24,32.79,3.71,5.25,7.36,10.56,11.35,15.61,3,3.78,6.39,7.71,11.47,8.33,9.41,1.16,15.38-9,18.76-16.2,5.83-12.38,11.84-24.74,16.87-37.47,1.63-4.13,3.9-8.76,1.59-13.08-2.53-4.74-9-7.72-13.1-10.85a174.07,174.07,0,0,1-28.54-26.85c-3.15-3.8-6-8.58-11.3-9.31-6.08-.84-13.22,1.63-19.22,2.64-21.65,3.65-48.92,5.06-66,20.55Z"/><g opacity="0.4" ><path d="M430,124a19,19,0,0,0-1.16-6.2,16.3,16.3,0,0,0-3.91-4.89,123.52,123.52,0,0,0-20.14-15.41c-3.16-1.93-6.52-3.76-10.2-4.14-7.14-.73-13.43,4-20.21,6.6a4.26,4.26,0,0,1,.86.49,15.48,15.48,0,0,1,2.85,1.5,11.9,11.9,0,0,1,2.41,1c7.12,3.89,9.93,4.33,15,8.66,15.49,13.24,27.5,29.7,39.87,45.9C431.13,147.51,430.84,134.81,430,124Z"/></g><g opacity="0.1" ><path d="M484.52,334.46c.24,1.7-3.5,6.77-4.43,8.49-1.82,3.4-3.69,6.78-5.67,10.09a107.91,107.91,0,0,1-13.23,18.11,63.28,63.28,0,0,1-11.06,9.47,60.18,60.18,0,0,1-6.26,3.66,32.27,32.27,0,0,1-5.52,2.51c-4,1.16-6.15-2.21-7.33-5.52a39.77,39.77,0,0,1-2.34-17.54,119.9,119.9,0,0,1,2.55-14.42l-1.94,4.49c-3.07,11.13-4.58,22.56-6,34a4.63,4.63,0,0,0,.26,2.2,3,3,0,0,0-.88.73c-2.06,2.51-.69,11.1-.82,14.3a.7.7,0,0,0,.1.45c.15.19.45.14.69.08a107.07,107.07,0,0,0,24.46-9.44c9.48-5.29,17.7-11,24.09-19.59a61.68,61.68,0,0,0,7.91-15.08C482.18,352.75,485.79,343.62,484.52,334.46Z"/></g><g opacity="0.1" ><path d="M267.23,141c10.78-16.33,17.62-34.19,32.6-46.78-23.63,13.11-38,28.58-53.16,54.08-14.44,24.28-29.77,53.16-39.76,79.21s-15,53.6-17.25,81.34c-1.44,17.39-2,39.71,4,58.26-12.16,2.89-24.55,2.42-35.58-4.39-32.1-19.81-16.24-53.36-16.24-53.36-5,6.28-7.46,8.94-9.87,24-2.23,13.87,8.42,27.2,19.58,34.28,13.92,8.82,29.75,10.19,45,6.81a51.74,51.74,0,0,0,7.84,12.38c10,11.56,21.38,19,39.1,21.26,2.22.28,4.49.59,6.78.91,0-3.47-.14-6.94-.17-10.41-17.11-5.77-32.35-19.19-39.78-35.5-4-8.82-6.13-18.92-6.18-30.42-.13-27.61,3.21-61,10.77-87.25C225.8,207.67,245.5,173.93,267.23,141Z"/></g><g opacity="0.1" ><path d="M389.36,401.68c-5.28,1.25-9.81,4.43-15.11,5.66a156.93,156.93,0,0,1-19.42,3c-22,2.28-44.35.82-66.16-2.85-1.82-5.45-1.09-11.68-.06-17.2a47.25,47.25,0,0,1,1.73-6c-1.08,2.57-1.94,5.23-2.79,7.87-.55,1.71-1,3.49-1.6,5.17-.31.79-1,1.73-1.36,2.66a5.25,5.25,0,0,1-.12,1c-.14.61-.26,1.23-.37,1.85a5.64,5.64,0,0,1-.4,1.26,4.84,4.84,0,0,1-.74,2.24,22.67,22.67,0,0,0-.51,5.15c0,.36,0,.73,0,1.1a4.94,4.94,0,0,1-.43,2l4.45,1c14.89,5.55,32.72,6.74,47.93,6.86,15.65.13,34.68-1.09,45-4.9,2.86-1.07,9.11-1.63,10.47-3.06,1.21-1.27-.65-1.69-.77-3.3C388.35,401.92,389.36,401.68,389.36,401.68Z"/></g><g opacity="0.4" ><path d="M265.75,120.76A47.08,47.08,0,0,0,243.3,107.6c-4.49-1.12-9.49-1.5-13.54.73-2.57,1.41-4.5,3.73-6.41,6a198.22,198.22,0,0,1-41,36,83.94,83.94,0,0,0,37.69-8.17c9.08-4.35,17.47-10.37,27.18-13a58.6,58.6,0,0,1,13.33-1.85A53,53,0,0,1,265.75,120.76Z"/></g>        <g opacity="0.1" ><path fill="#fff"  d="M379.38,102.63c6.06,5.3,10.42,13.68,14.49,20.5,4.46,7.47,8.88,15,13.37,22.42,13,21.71,26.15,43.75,37,66.65a328.76,328.76,0,0,1,23.41,68.9c2.75,12.34,4.9,24.81,6.59,37.33,1.4,10.34,4.07,22.69-2.47,31.88,4.28-6,9.86-10.61,11.34-14.66,5.27-14.38.19-32.18-2.49-46.67-5.44-29.5-15.47-57.88-26.93-85.52-11.28-27.21-25.53-53.08-44.83-75.5C392.61,109.13,379.6,102.82,379.38,102.63Z"/></g>    </g>    <g id="outline">        <path fill="none"  d="M160.05,333.15c-3.58-5.9-3.3-13-.58-19.25a13.76,13.76,0,0,1,6-6.84c2.6-1.38,4.51-.84,7.22-.85,2.4,0,5.77-.62,4.77-3.69a7.54,7.54,0,0,0-1.09-1.75,7.82,7.82,0,0,0-4.49-3.35c-4-1.16-8.86-.44-12.85.56-16.25,4.06-24.71,20.78-26.8,36.27C129.54,354,149.85,369.5,167,373.66a61.12,61.12,0,0,0,26.47.37,90.59,90.59,0,0,1-6.9-26.51C175.94,346.14,165.41,342,160.05,333.15Z"/><path fill="none"  d="M258.25,128q4.35-5.44,9.09-10.54a109.44,109.44,0,0,1,26.43-21c-11.2-9.39-22.06-19.2-33.66-28.1-5.07-3.88-10.25-8-16.07-10.68-8.33-3.89-15.54-2.62-22.11,3.8-16.17,15.79-25.3,35.47-33.63,56-2.85,7-6.35,14.31-12.63,18.91-2.66,1.94-5.92,2.67-6,6.52a8.34,8.34,0,0,0,4.11,7.15c4.63,3.09,10.49,3.83,15.93,3.59a54.82,54.82,0,0,0,28.91-10c7.45-5.2,14.53-11.57,23.54-13.92,5.08-1.32,10.34-1,15.51-1.64C257.88,128.1,258.06,128.06,258.25,128Z"/><path fill="none"  d="M376.27,98.3a120.48,120.48,0,0,1,13.07,8.34c12.85,5.91,23.72,16.66,32.35,27.83,7.08,9.18,13.26,19,20.46,28.11,4.72,6,11,10,17.61,3.92,3.42-3.14,5.67-7.4,7.62-11.55,5.46-11.58,11.08-23.16,15.88-35,1.35-3.35,3-6.57,2.76-10.22-.31-4.08-3.57-5.68-6.63-7.9-4.31-3.12-8.53-6.34-12.64-9.72A164.7,164.7,0,0,1,443,68.3c-2.69-3.35-4.83-6.44-9.61-6.48-3.43,0-7.26,1.1-10.62,1.67l-17.13,2.88c-19,3.21-42,5.42-55.86,20.29-.18.49-.36,1-.56,1.46A99.39,99.39,0,0,1,376.27,98.3Z"/><path fill="none"  d="M436.24,173c-9.43-18.92-19.18-36.8-34.42-51.77C388,107.62,371,96.63,352,91.79c-1.34-.34-2.69-.64-4-.91h0a4.74,4.74,0,0,0-.94-.18,37,37,0,0,0,2.45-7.64,35.23,35.23,0,0,1-9.73,9.85l-3.22,2.15,1.66-3.53a69.55,69.55,0,0,0,6.13-22.45c-1.63,2.48-3.29,5-5,7.38a107.76,107.76,0,0,1-9.05,11.24l-6,6.44,3.58-8.07A43.19,43.19,0,0,0,331,62.52c-1.28,4.22-2.56,8.44-3.87,12.65a86.84,86.84,0,0,1-3,8.92,21,21,0,0,1-2.42,4.23A13.38,13.38,0,0,1,318,91.67L315.85,93l.84-2.3a10,10,0,0,0-.78-8.24,31.83,31.83,0,0,1-2.15,8.68c-.09.24-.19.47-.3.71l-.76.14a77.44,77.44,0,0,0-19.41,8.11c-20,11.78-34.5,30.8-46.79,50.07a377.42,377.42,0,0,0-52.42,133.53c-1.65,9-3,18.11-3.92,27.25-2.94,30.42-1.68,70.59,28.43,87.67,2.13,1.21,13,3.79,8.39,7.39-2.4,1.85-14.49,3-13.86,6.68.69,4.07,12.39,4.42,15.14,4.63a154.25,154.25,0,0,0,17.6.25c.53,0,1.44,0,2.41,0,.15-1.73.14-3.58.16-5.42s0-3.86.06-5.79c.07-3.85.18-7.68.2-11.51A150.38,150.38,0,0,0,247.36,372a55.56,55.56,0,0,0-2.69-11.09,30.32,30.32,0,0,0-2.46-5.14,18.35,18.35,0,0,0-3.63-4.43h0a22.92,22.92,0,0,1,6.82,9.27,57.18,57.18,0,0,1,3.39,11.13,135,135,0,0,1,2.22,23.1c.11,3.87.11,7.73.1,11.57,0,1.92,0,3.83,0,5.75s.08,3.85-.07,5.9a14.63,14.63,0,0,1-.56,3.13l-.13.39c0,.14-.12.3-.18.45a6.36,6.36,0,0,1-.47.85,6.81,6.81,0,0,1-1.25,1.36A22,22,0,0,1,243,427c-1.7.71-3.31,1.6-3.6,2.6a1.92,1.92,0,0,0-.1.85,3.09,3.09,0,0,0,.06.5l.14.48a4.85,4.85,0,0,0,1.25,1.77c.12.11.27.21.4.32a5.43,5.43,0,0,1,.24-3.08,6.54,6.54,0,0,1,2.78-3.37,8.36,8.36,0,0,1,2-.77,12.23,12.23,0,0,1,1.87-.39,13.57,13.57,0,0,1,3.88-.05,13.47,13.47,0,0,1-3.14,2.29c-1.11.61-2.2,1.06-3,1.5a9.43,9.43,0,0,0-2.27,1.92,12.66,12.66,0,0,0-1.91,3l.47-.39a15.29,15.29,0,0,0,3.2,1.55,21.13,21.13,0,0,0,2.58.75,22.72,22.72,0,0,0,2.68.41l1.4.09a2.54,2.54,0,0,1-.43-.91,3.51,3.51,0,0,1,.15-2.17,7.13,7.13,0,0,1,2.47-3,10.06,10.06,0,0,1,3.24-1.62,7.37,7.37,0,0,1,3.65-.16,29.86,29.86,0,0,1-2.6,2.28c-.84.66-1.66,1.29-2.49,1.9a23.66,23.66,0,0,0-2.22,1.75,3.44,3.44,0,0,0-.74,1,2.5,2.5,0,0,0-.2,1.56l.54-.57a48.17,48.17,0,0,0,8.4-.42,36.26,36.26,0,0,0,5.41-1.12,15.05,15.05,0,0,0,4.66-2.47,20.69,20.69,0,0,0,3.79-3.86,25.49,25.49,0,0,0,2.85-4.7,12.1,12.1,0,0,0,.54-1.25c.15-.41.3-.82.42-1.28.27-.89.49-1.81.71-2.73l1.23-5.62c.81-3.76,1.61-7.53,2.58-11.28a113.26,113.26,0,0,1,3.46-11.06,48.77,48.77,0,0,1,5.15-10.35h0c-3.7,6.77-5.64,14.26-7.18,21.75-.78,3.71-1.42,7.45-2.06,11.2a311.41,311.41,0,0,0,33.1,5.42c21.48,2.29,43.63,2.36,64.74-2.67a86.22,86.22,0,0,0,8.66-2.58c0-.15-.06-.3-.08-.45-.63-3.71-.81-7.39-1.25-11-.2-1.8-.5-3.61-.78-5.43s-.56-3.63-.94-5.41a31.1,31.1,0,0,0-1.71-5.18c-.65-1.72-1.25-3.46-1.84-5.2.73,1.69,1.47,3.37,2.26,5a31.94,31.94,0,0,1,2.07,5.16c.49,1.79.87,3.59,1.27,5.39s.81,3.59,1.13,5.43c.62,3.66,1,7.32,1.72,10.85a32.65,32.65,0,0,0,1.5,5.11A27.37,27.37,0,0,0,395.5,423a20.1,20.1,0,0,0,7.48,7,12.63,12.63,0,0,0,2.34.92c.8.24,1.7.43,2.56.61a45,45,0,0,0,5.3.72,51.54,51.54,0,0,0,5.7.11l.54.56a2.54,2.54,0,0,0-.2-1.55,3.32,3.32,0,0,0-.74-1,22.12,22.12,0,0,0-2.22-1.75c-.83-.61-1.65-1.24-2.49-1.91a29.47,29.47,0,0,1-2.61-2.27,7.41,7.41,0,0,1,3.66.16,9.82,9.82,0,0,1,3.23,1.62,7.1,7.1,0,0,1,2.48,3,3.62,3.62,0,0,1,.15,2.18,2.79,2.79,0,0,1-.44.92c1.2-.09,2.39-.2,3.54-.4a20.31,20.31,0,0,0,4.86-1.57,13.17,13.17,0,0,0,1.48-.83l.46.38a12.77,12.77,0,0,0-1.91-3A9.43,9.43,0,0,0,426.4,425c-.84-.44-1.93-.89-3-1.5a13.63,13.63,0,0,1-3.13-2.29,13.57,13.57,0,0,1,3.88.05,12.23,12.23,0,0,1,1.87.39,8.36,8.36,0,0,1,2,.77,6.56,6.56,0,0,1,2.78,3.36,5.4,5.4,0,0,1,.23,3.12,5.91,5.91,0,0,0,1.3-1.41,3.82,3.82,0,0,0,.57-1.85,2.2,2.2,0,0,0-.11-.84,1.94,1.94,0,0,0-.41-.72c-.78-.95-2.46-1.64-4.13-2.28a21.47,21.47,0,0,1-5.32-2.59,7.46,7.46,0,0,1-1.23-1.22,5,5,0,0,1-.88-1.71,9.08,9.08,0,0,1-.27-1.57c-.06-.52-.09-1-.1-1.48a111.51,111.51,0,0,1,.44-11.18c.28-3.68.68-7.35,1.13-11,.89-7.33,2-14.61,3.48-21.85.76-3.61,1.6-7.2,2.61-10.75.51-1.78,1.06-3.54,1.74-5.26a21.32,21.32,0,0,1,1.17-2.52,8,8,0,0,1,1.29-1.85,4,4,0,0,1,.37-.35,7.2,7.2,0,0,0-1.46,2.3,20.74,20.74,0,0,0-.94,2.57c-.56,1.74-1,3.51-1.4,5.3-.79,3.58-1.4,7.19-1.94,10.82-1.1,7.25-1.92,14.54-2.6,21.83-.33,3.65-.61,7.31-.83,10.95-.2,3.41-.36,6.86-.25,10.19,5.42.86,11.33.45,16.69.29A155,155,0,0,0,459,411.22c2.36-.36,3.95,0,2.58-2.29-1.6-2.7-4-4-6.92-5-2.42-.82-9.31-1-10.72-3.45-.76-1.34.09-2,1-2.94,1.35-1.35,4-2.21,5.61-3.24q3-1.89,5.8-4A69.52,69.52,0,0,0,475.12,368c9-16.7,10.93-36.3,9.17-54.93C482,289.38,475,265.78,467,243.43,458.39,219.28,447.67,195.93,436.24,173Z"/><path d="M453.83,203c-5.4-12-11.14-23.86-17.05-35.62-5.06-10.06-10.07-20.08-16.63-29.27q-3.45-4.86-7.33-9.43a219.21,219.21,0,0,1,15.57,20c3.71,5.25,7.36,10.57,11.35,15.61,3,3.78,6.39,7.71,11.47,8.33,9.41,1.16,15.38-9,18.76-16.2,5.83-12.38,11.84-24.74,16.87-37.47,1.63-4.13,3.9-8.76,1.59-13.08-2.53-4.74-9-7.72-13.1-10.85a173.65,173.65,0,0,1-28.54-26.85c-3.15-3.8-6-8.57-11.3-9.31-6.08-.84-13.22,1.63-19.22,2.65-21.21,3.57-47.81,5-65,19.61.11-.61.21-1.21.3-1.82l.55-4-2,3.59a33.45,33.45,0,0,1-6.45,8.22L342.6,87a68.33,68.33,0,0,0,2.76-8.41,70.94,70.94,0,0,0,2.13-14.72l.19-5L344.91,63c-2.64,3.94-5.21,7.91-8,11.72Q335,77.39,333,79.93a45.09,45.09,0,0,0-.48-23.32l-1.33-4.54-1.29,4.53c-1.7,6-3.41,11.93-5.06,17.91a87,87,0,0,1-2.7,8.77,20.76,20.76,0,0,1-2.05,3.91h0l-1.26.2a11.2,11.2,0,0,0-2.95-7.22L314.79,79v1.58a30.72,30.72,0,0,1-1,7.86A81,81,0,0,0,296.56,95a1.62,1.62,0,0,0-.25-.28C285,85.23,274,75.35,262.37,66.34,253.49,59.5,241.31,49.1,229.16,53c-5.27,1.7-9.22,6-12.84,10a136.25,136.25,0,0,0-12.8,16.4,159.55,159.55,0,0,0-16.22,32.39,85.1,85.1,0,0,1-6.31,14,29.37,29.37,0,0,1-5.23,6.62c-2.15,2-5.18,2.79-7.14,4.83-6.34,6.62,1.61,15.05,7.81,17.47,10.12,3.95,22.32,1.59,32.15-2.15,10.51-4,18.17-12.59,28.12-17.56,6.16-3.09,12.44-3.09,19-3.72-11,14.4-20.23,30.38-28.47,46.32a380.09,380.09,0,0,0-27.51,69.12q-5.13,17.82-8.5,36.06c-3.45,19-6.77,40.77-5,61.39-13.52-2.25-28.79-9.5-25.39-24.85.72-3.22,2-6.56,4.64-8.66,4.41-3.49,8.54.65,12.92-1.44s2.51-7.49.27-10.52c-7.91-10.73-27.31-3-35,4.3-9.48,8.95-16.45,25.8-14.34,38.87,2.64,16.29,18,28.65,32.9,33.49a62.47,62.47,0,0,0,32.55,1.4,68.93,68.93,0,0,0,3.4,6.1,54.13,54.13,0,0,0,16.36,16.68,56.11,56.11,0,0,0,5.29,3c.46.22,2,1.13,3.24,1.71l-.31.12c-1.78.63-3.6,1.16-5.37,1.81-3.43,1.26-9.09,3.22-6.82,8,1.87,3.91,8,4.8,11.7,5.38a117.09,117.09,0,0,0,20,1c1.45,0,3.43.1,5.43.05a3.56,3.56,0,0,1-.29.54,3.81,3.81,0,0,1-.71.75,20.38,20.38,0,0,1-4.77,2.37,17.66,17.66,0,0,0-2.81,1.42,5.9,5.9,0,0,0-2.43,2.88,6.53,6.53,0,0,0,2.08,6.76,11.83,11.83,0,0,0,2.66,1.88,18.89,18.89,0,0,0,2.85,1.26,23.66,23.66,0,0,0,3,.83,25,25,0,0,0,3,.44,49,49,0,0,0,11.86-.34,38.78,38.78,0,0,0,5.85-1.33,17.68,17.68,0,0,0,5.43-3,25.22,25.22,0,0,0,7.16-9.66,18.6,18.6,0,0,0,1-2.89c.26-1,.46-1.93.66-2.88s.37-1.91.54-2.87c22.29,4.82,45.23,7.68,68.06,6.77a160.19,160.19,0,0,0,32.55-4.43c2.39-.6,4.77-1.27,7.12-2a28.63,28.63,0,0,0,3.1,7.11,21.81,21.81,0,0,0,8.26,8.08,15.91,15.91,0,0,0,2.76,1.15c1,.3,1.85.51,2.78.72a48.77,48.77,0,0,0,5.61.87,45.84,45.84,0,0,0,11.39-.31,23.43,23.43,0,0,0,5.6-1.79,14.28,14.28,0,0,0,2.63-1.57A9,9,0,0,0,434.8,429a6.86,6.86,0,0,0,1-3.36,5.1,5.1,0,0,0-1.23-3.53,8.34,8.34,0,0,0-2.67-2c-.91-.45-1.81-.8-2.68-1.13a19.28,19.28,0,0,1-4.6-2.14,4.11,4.11,0,0,1-.73-.71,1.76,1.76,0,0,1-.38-.71l0-.12.83.07a142.53,142.53,0,0,0,20.87,0c5.56-.3,11.91-.22,17.3-1.84,3.77-1.14,2.9-4.87.85-7.65-3.27-4.44-9.45-5.46-14.46-6.64l-.43-.13c.94-.57,1.95-1.32,2.34-1.55a76.39,76.39,0,0,0,11.85-8.79c14-12.67,21.84-30.36,24.29-48.89,2.85-21.53-1.3-43.23-6.67-64C473.77,250.85,464.43,226.61,453.83,203ZM405.65,66.37l17.13-2.88c3.36-.57,7.19-1.69,10.62-1.67,4.78,0,6.92,3.13,9.61,6.48a164.7,164.7,0,0,0,23.74,23.78c4.11,3.38,8.33,6.6,12.64,9.72,3.06,2.22,6.32,3.82,6.63,7.9.28,3.65-1.41,6.87-2.76,10.22-4.8,11.87-10.42,23.45-15.88,35-1.95,4.15-4.2,8.41-7.62,11.55-6.61,6.06-12.89,2-17.61-3.92-7.2-9.08-13.38-18.93-20.46-28.11-8.63-11.17-19.5-21.92-32.35-27.83a120.48,120.48,0,0,0-13.07-8.34,99.39,99.39,0,0,0-27-10.18c.2-.48.38-1,.56-1.46C363.64,71.79,386.63,69.58,405.65,66.37ZM242.17,129.76c-9,2.35-16.09,8.72-23.54,13.92a54.82,54.82,0,0,1-28.91,10c-5.44.24-11.3-.5-15.93-3.59a8.34,8.34,0,0,1-4.11-7.15c.07-3.85,3.33-4.58,6-6.52,6.28-4.6,9.78-11.89,12.63-18.91,8.33-20.57,17.46-40.25,33.63-56,6.57-6.42,13.78-7.69,22.11-3.8,5.82,2.72,11,6.8,16.07,10.68,11.6,8.9,22.46,18.71,33.66,28.1a109.44,109.44,0,0,0-26.43,21q-4.75,5.08-9.09,10.54c-.19,0-.37.07-.57.09C252.51,128.74,247.25,128.44,242.17,129.76ZM167,373.66c-17.1-4.16-37.41-19.67-34.73-39.41C134.31,318.76,142.77,302,159,298c4-1,8.82-1.72,12.85-.56a7.82,7.82,0,0,1,4.49,3.35,7.54,7.54,0,0,1,1.09,1.75c1,3.07-2.37,3.67-4.77,3.69-2.71,0-4.62-.53-7.22.85a13.76,13.76,0,0,0-6,6.84c-2.72,6.2-3,13.35.58,19.25,5.36,8.84,15.89,13,26.47,14.37a90.59,90.59,0,0,0,6.9,26.51A61.12,61.12,0,0,1,167,373.66ZM475.12,368a69.52,69.52,0,0,1-18.79,22.2q-2.81,2.16-5.8,4c-1.64,1-4.26,1.89-5.61,3.24-.88.89-1.73,1.6-1,2.94,1.41,2.48,8.3,2.63,10.72,3.45,2.94,1,5.32,2.32,6.92,5,1.37,2.3-.22,1.93-2.58,2.29a155,155,0,0,1-19.14,1.46c-5.36.16-11.27.57-16.69-.29-.11-3.33.05-6.78.25-10.19.22-3.64.5-7.3.83-10.95.68-7.29,1.5-14.58,2.6-21.83.54-3.63,1.15-7.24,1.94-10.82.39-1.79.84-3.56,1.4-5.3a20.74,20.74,0,0,1,.94-2.57,7.2,7.2,0,0,1,1.46-2.3,4,4,0,0,0-.37.35,8,8,0,0,0-1.29,1.85,21.32,21.32,0,0,0-1.17,2.52c-.68,1.72-1.23,3.48-1.74,5.26-1,3.55-1.85,7.14-2.61,10.75-1.45,7.24-2.59,14.52-3.48,21.85-.45,3.66-.85,7.33-1.13,11a111.51,111.51,0,0,0-.44,11.18c0,.47,0,1,.1,1.48a9.08,9.08,0,0,0,.27,1.57,5,5,0,0,0,.88,1.71,7.46,7.46,0,0,0,1.23,1.22,21.47,21.47,0,0,0,5.32,2.59c1.67.64,3.35,1.33,4.13,2.28a1.94,1.94,0,0,1,.41.72,2.2,2.2,0,0,1,.11.84,3.82,3.82,0,0,1-.57,1.85,5.91,5.91,0,0,1-1.3,1.41,5.4,5.4,0,0,0-.23-3.12,6.56,6.56,0,0,0-2.78-3.36,8.36,8.36,0,0,0-2-.77,12.23,12.23,0,0,0-1.87-.39,13.57,13.57,0,0,0-3.88-.05,13.63,13.63,0,0,0,3.13,2.29c1.12.61,2.21,1.06,3,1.5a9.43,9.43,0,0,1,2.27,1.92,12.77,12.77,0,0,1,1.91,3l-.46-.38a13.17,13.17,0,0,1-1.48.83,20.31,20.31,0,0,1-4.86,1.57c-1.15.2-2.34.31-3.54.4a2.79,2.79,0,0,0,.44-.92,3.62,3.62,0,0,0-.15-2.18,7.1,7.1,0,0,0-2.48-3,9.82,9.82,0,0,0-3.23-1.62,7.41,7.41,0,0,0-3.66-.16,29.47,29.47,0,0,0,2.61,2.27c.84.67,1.66,1.3,2.49,1.91a22.12,22.12,0,0,1,2.22,1.75,3.32,3.32,0,0,1,.74,1,2.54,2.54,0,0,1,.2,1.55l-.54-.56a51.54,51.54,0,0,1-5.7-.11,45,45,0,0,1-5.3-.72c-.86-.18-1.76-.37-2.56-.61A12.63,12.63,0,0,1,403,430a20.1,20.1,0,0,1-7.48-7,27.37,27.37,0,0,1-2.44-4.68,32.65,32.65,0,0,1-1.5-5.11c-.76-3.53-1.1-7.19-1.72-10.85-.32-1.84-.74-3.63-1.13-5.43s-.78-3.6-1.27-5.39a31.94,31.94,0,0,0-2.07-5.16c-.79-1.66-1.53-3.34-2.26-5,.59,1.74,1.19,3.48,1.84,5.2a31.1,31.1,0,0,1,1.71,5.18c.38,1.78.65,3.6.94,5.41s.58,3.63.78,5.43c.44,3.62.62,7.3,1.25,11,0,.15.05.3.08.45a86.22,86.22,0,0,1-8.66,2.58c-21.11,5-43.26,5-64.74,2.67a311.41,311.41,0,0,1-33.1-5.42c.64-3.75,1.28-7.49,2.06-11.2,1.54-7.49,3.48-15,7.18-21.75h0a48.77,48.77,0,0,0-5.15,10.35,113.26,113.26,0,0,0-3.46,11.06c-1,3.75-1.77,7.52-2.58,11.28L280,419.24c-.22.92-.44,1.84-.71,2.73-.12.46-.27.87-.42,1.28a12.1,12.1,0,0,1-.54,1.25,25.49,25.49,0,0,1-2.85,4.7,20.69,20.69,0,0,1-3.79,3.86,15.05,15.05,0,0,1-4.66,2.47,36.26,36.26,0,0,1-5.41,1.12,48.17,48.17,0,0,1-8.4.42l-.54.57a2.5,2.5,0,0,1,.2-1.56,3.44,3.44,0,0,1,.74-1,23.66,23.66,0,0,1,2.22-1.75c.83-.61,1.65-1.24,2.49-1.9a29.86,29.86,0,0,0,2.6-2.28,7.37,7.37,0,0,0-3.65.16,10.06,10.06,0,0,0-3.24,1.62,7.13,7.13,0,0,0-2.47,3,3.51,3.51,0,0,0-.15,2.17,2.54,2.54,0,0,0,.43.91l-1.4-.09a22.72,22.72,0,0,1-2.68-.41,21.13,21.13,0,0,1-2.58-.75,15.29,15.29,0,0,1-3.2-1.55l-.47.39a12.66,12.66,0,0,1,1.91-3,9.43,9.43,0,0,1,2.27-1.92c.84-.44,1.93-.89,3-1.5a13.47,13.47,0,0,0,3.14-2.29,13.57,13.57,0,0,0-3.88.05,12.23,12.23,0,0,0-1.87.39,8.36,8.36,0,0,0-2,.77,6.54,6.54,0,0,0-2.78,3.37,5.43,5.43,0,0,0-.24,3.08c-.13-.11-.28-.21-.4-.32a4.85,4.85,0,0,1-1.25-1.77l-.14-.48a3.09,3.09,0,0,1-.06-.5,1.92,1.92,0,0,1,.1-.85c.29-1,1.9-1.89,3.6-2.6a22,22,0,0,0,5.47-2.83,6.81,6.81,0,0,0,1.25-1.36,6.36,6.36,0,0,0,.47-.85c.06-.15.13-.31.18-.45l.13-.39a14.63,14.63,0,0,0,.56-3.13c.15-2.05.09-4,.07-5.9s0-3.83,0-5.75c0-3.84,0-7.7-.1-11.57a135,135,0,0,0-2.22-23.1,57.18,57.18,0,0,0-3.39-11.13,22.92,22.92,0,0,0-6.82-9.27h0a18.35,18.35,0,0,1,3.63,4.43,30.32,30.32,0,0,1,2.46,5.14A55.56,55.56,0,0,1,247.36,372a150.38,150.38,0,0,1,1.33,22.87c0,3.83-.13,7.66-.2,11.51,0,1.93-.06,3.87-.06,5.79s0,3.69-.16,5.42c-1,0-1.88,0-2.41,0a154.25,154.25,0,0,1-17.6-.25c-2.75-.21-14.45-.56-15.14-4.63-.63-3.64,11.46-4.83,13.86-6.68,4.66-3.6-6.26-6.18-8.39-7.39-30.11-17.08-31.37-57.25-28.43-87.67.89-9.14,2.27-18.22,3.92-27.25A377.42,377.42,0,0,1,246.5,150.12c12.29-19.27,26.78-38.29,46.79-50.07a77.44,77.44,0,0,1,19.41-8.11l.76-.14c.11-.24.21-.47.3-.71a31.83,31.83,0,0,0,2.15-8.68,10,10,0,0,1,.78,8.24l-.84,2.3L318,91.67a13.38,13.38,0,0,0,3.68-3.35,21,21,0,0,0,2.42-4.23,86.84,86.84,0,0,0,3-8.92c1.31-4.21,2.59-8.43,3.87-12.65a43.19,43.19,0,0,1-3.17,23.55l-3.58,8.07,6-6.44a107.76,107.76,0,0,0,9.05-11.24c1.73-2.43,3.39-4.9,5-7.38a69.55,69.55,0,0,1-6.13,22.45l-1.66,3.53,3.22-2.15a35.23,35.23,0,0,0,9.73-9.85,37,37,0,0,1-2.45,7.64,4.74,4.74,0,0,1,.94.18h0c1.34.27,2.69.57,4,.91,18.94,4.84,36,15.83,49.8,29.43,15.24,15,25,32.85,34.42,51.77,11.43,22.94,22.15,46.29,30.8,70.44,8,22.35,15,45.95,17.25,69.67C486.05,331.73,484.08,351.33,475.12,368Z"/>    </g>    <g id="eye">        <g id="eye-color1">            <g opacity="0" ><path fill="#C5EDC5"  d="M265.55,159.29c-.14.46-.21.94-.36,1.4a15.33,15.33,0,0,1-1.35,2.87c-.52.94-1,1.89-1.54,2.82-.24.42-.5.81-.77,1.21l-.43.61c-.09.12-.45.47-.45.6l-.6.74c-5.88,7-13.9,9.8-22.69,6.53-8.54-3.17-14.21-10.4-14.65-19.53a2.11,2.11,0,0,1,0-.58,23.28,23.28,0,0,1,19-21.81,18.86,18.86,0,0,1,11.42,1.35c-15.29-7.71-34.35-2.93-39.29,15.33a20.54,20.54,0,0,0-.66,6.53,29.34,29.34,0,0,0,10.48,20.23c8.59,7.09,21.5,6.67,31,1.77,7.19-3.69,10-12.6,10.92-20.45C265.63,159,265.58,159.16,265.55,159.29Z"/></g><g opacity="0" ><path fill="#C5EDC5"  d="M389.3,153.23c-.24.61-.44,1.24-.7,1.86a24.28,24.28,0,0,1-2,3.66,29.23,29.23,0,0,1-2.54,3.43c-5.88,7-13.9,9.8-22.69,6.53-8.53-3.17-14.2-10.4-14.65-19.53a2.11,2.11,0,0,1,0-.58,23.29,23.29,0,0,1,19.05-21.81,18.87,18.87,0,0,1,11.42,1.35c-15.3-7.71-34.36-2.93-39.3,15.33a20.54,20.54,0,0,0-.66,6.53,29.38,29.38,0,0,0,10.48,20.23c8.59,7.09,21.5,6.68,31,1.77,6.91-3.54,9.73-12,10.77-19.65C389.47,152.6,389.39,153,389.3,153.23Z"/></g>        </g>        <g id="eye-shape">            <path fill="#fff"  d="M305.64,165.74A35.81,35.81,0,0,0,302.39,115a36.06,36.06,0,0,0-23.85-9c-.79,0-1.58,0-2.38.08a36.13,36.13,0,0,0-33.83,38.21A35.59,35.59,0,0,0,254.53,169a36.39,36.39,0,0,0,51.11-3.27ZM283,152c-3.37.22-6.49-5.66-7-13.13s1.87-13.7,5.24-13.91c2.32-.15,4.53,2.6,5.83,6.76-2.45,1.13-4.19,2.73-3.57,4.46.52,1.47,2.42,1.74,4.66,1.33,0,.19,0,.38.05.58C288.73,145.57,286.38,151.8,283,152Z"/><path d="M304.37,112.71a39.27,39.27,0,0,0-65,31.79,38.61,38.61,0,0,0,13.23,26.77,39,39,0,0,0,25.82,9.7c.85,0,1.71,0,2.57-.08a39.07,39.07,0,0,0,26.94-13.16,38.83,38.83,0,0,0-3.52-55ZM254.53,169a35.59,35.59,0,0,1-12.2-24.71,36.13,36.13,0,0,1,33.83-38.21c.8,0,1.59-.08,2.38-.08a36.06,36.06,0,0,1,23.85,9,35.81,35.81,0,0,1,3.25,50.77A36.39,36.39,0,0,1,254.53,169Z"/><path fill="#fff"  d="M419.71,164.43a38.84,38.84,0,0,0-2.86-55.07,39.08,39.08,0,0,0-26.22-10c-.69,0-1.39,0-2.09,0a39,39,0,1,0,31.17,65Zm-28.58-6.06c-6.7.35-12.67-9.81-13.34-22.7S382,112,388.7,111.7c4.69-.25,9,4.67,11.43,12.06-4.09,1.87-7.5,4.87-7.11,7.28.51,3.23,4.64,3.65,9,2.59,0,.26,0,.51.05.77C402.71,147.29,397.82,158,391.13,158.37Z"/><path d="M432.75,136.14a41.62,41.62,0,0,0-13.9-29,42.12,42.12,0,1,0-28.34,73.21c.74,0,1.48,0,2.23-.06a42.07,42.07,0,0,0,29.19-13.83A41.61,41.61,0,0,0,432.75,136.14Zm-81.38,4.23a39.16,39.16,0,0,1,37.17-41c.7,0,1.4,0,2.09,0a39.08,39.08,0,0,1,26.22,10,38.84,38.84,0,0,1,2.86,55.07,39.3,39.3,0,0,1-68.34-24.06Z"/><path d="M402,133.63c-4.33,1.06-8.46.64-9-2.59-.39-2.41,3-5.41,7.11-7.28-2.41-7.39-6.74-12.31-11.43-12.06-6.7.34-11.58,11.08-10.91,24s6.64,23.05,13.34,22.7,11.58-11.08,10.91-24C402,134.14,402,133.89,402,133.63Z"/><path d="M288.2,137.52c-2.24.41-4.14.14-4.66-1.33-.62-1.73,1.12-3.33,3.57-4.46-1.3-4.16-3.51-6.91-5.83-6.76-3.37.21-5.72,6.44-5.24,13.91s3.6,13.35,7,13.13,5.72-6.44,5.24-13.91C288.24,137.9,288.22,137.71,288.2,137.52Z"/><ellipse fill="#fff"  cx="288.44" cy="134.91" rx="5.06" ry="3.14" transform="translate(-21.25 60.8) rotate(-11.61)"/><ellipse fill="#fff"  cx="400.91" cy="128.98" rx="8.57" ry="5.33" transform="translate(-17.38 79.97) rotate(-11.15)"/>        </g>        <g id="eye-color2">            <path fill="#DDFF94"  d="M282,122.25a18.68,18.68,0,1,0,18.68,18.68A18.68,18.68,0,0,0,282,122.25Zm7.1,15.74a8.3,8.3,0,0,1-.83.12c.48,7.46-1.87,13.69-5.24,13.9s-6.49-5.66-7-13.13,1.87-13.7,5.24-13.91c2.32-.15,4.53,2.6,5.83,6.77-2.45,1.13-4.19,2.72-3.57,4.45a1.88,1.88,0,0,0,.52.77,2.15,2.15,0,0,1-.57-1c-.35-1.7,1.59-3.54,4.32-4.1s5.24.36,5.59,2.06S291.81,137.43,289.08,138Z"/><path fill="#DDFF94"  d="M390.39,107.46a28.24,28.24,0,1,0,28.23,28.23A28.23,28.23,0,0,0,390.39,107.46ZM402,134.19c0,.07,0,.14,0,.22.67,12.88-4.22,23.62-10.91,24s-12.67-9.81-13.34-22.7S382,112,388.7,111.7c4.68-.25,9,4.65,11.41,12,4.55-.82,8.65.77,9.21,3.61S406.62,133.25,402,134.19Z"/>        </g>    </g>    <g id="nose-mouth">        <path d="M345.48,229c-2.11,3.05-8,1.44-9.17-2.09,0-.11.07-.22.09-.33a1.34,1.34,0,0,0,0-.2c4.65-1.74,6.61-8.89,7-13.29.52-6.63.46-17.56-7.54-19.89-9.4-2.72-14.37,9-14.1,16.59.23,6.65,3.79,15.56,11.15,16.87l.37.05v0c-1.43,4.19-7.21,6.29-10.28,2.88-1.29-1.44-2.41-1.31-1.12.12,3.75,4.17,10,4.13,13,.43,2.76,3.34,8.17,3.32,11.26-1.16C347.16,227.46,346.56,227.45,345.48,229Z"/><path fill="#2d2821"  d="M324.62,208.1c.12,4.83,1.89,11.79,6.53,14.49,6.3,3.67,8.8-4.66,9.22-9.46.38-4.38.61-10-1.67-13.87-2.48-4.27-7.49-3.87-10.58-.73C325.59,201.09,324.81,204.63,324.62,208.1Z"/><ellipse fill="#fff"  cx="337.11" cy="202.86" rx="2.2" ry="4.78" transform="translate(-44.45 106.9) rotate(-16.92)"/>    </g></svg>