<!--  ~ Copyright (C) 2018 Baidu, Inc. All Rights Reserved.  --><svg viewBox="0 0 640 480" xmlns="http://www.w3.org/2000/svg">    <g id="back-ground-cl">        <rect fill="none" width="640" height="480" />        <ellipse opacity="0.1" cx="331.93" cy="418.82" rx="168.39" ry="32.01"/>    </g>    <g id="body">        <defs>            <clipPath id="outline">                <path d="M452.79,396.45a74.64,74.64,0,0,0,11.24-8.8c13.41-12.74,20.76-30.16,23-48.33,2.74-21.85-1.67-43.92-7.23-65-.26-1-.53-2-.8-2.95C484.77,254.69,475,232,466,218.91c-2.06-3-4.26-5.89-6.55-8.72,5.27-2,9.82-5.7,11.79-12.19,7.21-23.69-25.32-71.16-56-92-12-8.11-30-17.2-48.08-14.51-1.38.21-2.68.47-3.89.77-13.05-5-27.1-7.16-41.07-5.33a76.35,76.35,0,0,0-18.43,4.89c-.61-.12-1.23-.23-1.87-.33-18.07-2.69-36.12,6.4-48.09,14.51-30.69,20.8-63.22,68.27-56,92,2.29,7.56,8.08,11.31,14.44,13.06-.09.21-.19.43-.27.64-.58.58-1.17,1.14-1.74,1.72a71.11,71.11,0,0,0-18.36,34c-1.89,8.09-2.48,18.7,1.32,26.7q-.93,4.44-1.77,8.91c-3.19,17.56-5.52,35.46-5,53.34a124.13,124.13,0,0,0,2.93,24.35,21.68,21.68,0,0,1-12.22-1.83,23.68,23.68,0,0,1-10.27-10.33,36.35,36.35,0,0,1-4-14.28A30.84,30.84,0,0,1,165,319.67l1.67-3.79-2.92,2.93a30.86,30.86,0,0,0-5.92,8.75,43.78,43.78,0,0,0-3.3,10,36.18,36.18,0,0,0,1.62,20.78,28.54,28.54,0,0,0,5.8,8.83,32.61,32.61,0,0,0,8.47,6.25,34.12,34.12,0,0,0,20.45,3.69,38.08,38.08,0,0,0,3.86-.73,63.27,63.27,0,0,0,3.75,6.85,52.62,52.62,0,0,0,21.1,19.2c.91.46,1.84.89,2.78,1.31a11.42,11.42,0,0,0,1.25.53l.49.2c-.49.15-1,.36-1.45.52-1.7.58-3.42,1.11-5.11,1.72-3.3,1.19-9.11,3.11-6.74,7.74,2.06,4,8.64,4.75,12.49,5.28a123.81,123.81,0,0,0,19.35.87c1.4,0,3.42.1,5.44,0a3.91,3.91,0,0,1-.43.94,4.48,4.48,0,0,1-.77.81,20.81,20.81,0,0,1-4.84,2.41,16.84,16.84,0,0,0-2.77,1.41,5.55,5.55,0,0,0-2.33,2.74,6.28,6.28,0,0,0,2,6.48,11.73,11.73,0,0,0,2.6,1.84,19.49,19.49,0,0,0,2.82,1.24,21.22,21.22,0,0,0,2.93.82,26.7,26.7,0,0,0,3,.45,49.12,49.12,0,0,0,11.81-.34,39.28,39.28,0,0,0,5.82-1.31,17.34,17.34,0,0,0,5.36-3,25.06,25.06,0,0,0,7.12-9.57,12.5,12.5,0,0,0,.55-1.41,12,12,0,0,0,.44-1.45c.27-1,.47-1.91.67-2.87s.4-2,.59-3.07l.32.07c22.75,4.9,46.19,7.78,69.48,6.66A158.18,158.18,0,0,0,384.12,419c2.24-.58,4.46-1.23,6.67-1.93a28.42,28.42,0,0,0,3.17,7.31,21.75,21.75,0,0,0,8.19,8c.44.21.88.45,1.34.62l.69.28.7.23c.94.3,1.84.5,2.77.71a50.13,50.13,0,0,0,5.58.86,46.31,46.31,0,0,0,11.33-.32A23.23,23.23,0,0,0,430.1,433a14.18,14.18,0,0,0,2.58-1.54,8.69,8.69,0,0,0,2.19-2.32,6.54,6.54,0,0,0,1-3.22,4.84,4.84,0,0,0-1.16-3.36,8,8,0,0,0-2.59-1.91,28.21,28.21,0,0,0-2.66-1.13,19.06,19.06,0,0,1-4.67-2.19,4.64,4.64,0,0,1-.78-.75,2,2,0,0,1-.42-.81,4.13,4.13,0,0,1-.1-.44l.86.08a141.4,141.4,0,0,0,21.19.06c5.56-.3,11.61-.37,17-1.79,4.09-1.08,2.59-5.49.27-8-3.66-4-9.54-4.72-14.51-6l-.47-.14c.33-.21.63-.44.78-.52Q450.74,397.77,452.79,396.45,7.4,15.15a139.56,139.56,0,0,1-19.05,1.56c-5.87.2-12.06.51-17.92-.35-.13-3.43,0-7,.26-10.46.23-3.66.52-7.31.86-11,.7-7.31,1.55-14.61,2.69-21.86.55-3.63,1.18-7.25,2-10.83.4-1.79.86-3.57,1.43-5.31a24.1,24.1,0,0,1,1-2.57,9.33,9.33,0,0,1,.64-1.21,5.14,5.14,0,0,1,.84-1.08q-.19.18-.39.39a3.28,3.28,0,0,0-.53.64,7.92,7.92,0,0,0-.72,1.18,24,24,0,0,0-1.15,2.53c-.66,1.72-1.21,3.49-1.71,5.27-1,3.56-1.81,7.16-2.55,10.78-1.42,7.24-2.53,14.54-3.4,21.87-.45,3.66-.83,7.33-1.11,11a108.58,108.58,0,0,0-.42,11.16c0,.48,0,1,.1,1.47a9.51,9.51,0,0,0,.27,1.53,4.59,4.59,0,0,0,.33.86,5.89,5.89,0,0,0,.5.76,6.57,6.57,0,0,0,1.19,1.17,21.14,21.14,0,0,0,5.26,2.55c1.67.65,3.38,1.34,4.25,2.37a2.16,2.16,0,0,1,.46.8,2.38,2.38,0,0,1,.12.94,4,4,0,0,1-.61,2,6.77,6.77,0,0,1-1.73,1.78,5.45,5.45,0,0,0-.23-3.53,6.6,6.6,0,0,0-2.73-3.23,9,9,0,0,0-1.92-.77,13.34,13.34,0,0,0-1.86-.42,15.43,15.43,0,0,0-3.81-.26,16,16,0,0,0,3.21,2.08c.54.29,1.16.53,1.64.78a16,16,0,0,1,1.48.69,8.65,8.65,0,0,1,2.32,2.06,11.21,11.21,0,0,1,1.72,3.09l-.23-.2a13,13,0,0,1-1.59.89,20.13,20.13,0,0,1-4.94,1.61,38.82,38.82,0,0,1-3.92.41,2.62,2.62,0,0,0,.64-1.21,3.6,3.6,0,0,0-.21-2.07,7.25,7.25,0,0,0-2.46-2.88A10.77,10.77,0,0,0,415,425a8.21,8.21,0,0,0-3.56-.36c.94.81,1.84,1.44,2.71,2.08l2.56,1.88a15.93,15.93,0,0,1,2.25,1.87,3.27,3.27,0,0,1,.68,1.14,2.54,2.54,0,0,1,.07,1.56h0l-.3-.31a51.85,51.85,0,0,1-6-.1,45.54,45.54,0,0,1-5.33-.74c-.86-.18-1.77-.37-2.59-.62l-.61-.18-.6-.23c-.4-.15-.78-.35-1.17-.53a20.35,20.35,0,0,1-7.56-7.11,26.78,26.78,0,0,1-2.44-4.73,30.8,30.8,0,0,1-1.5-5.15c-.75-3.54-1.07-7.22-1.68-10.88-.31-1.83-.72-3.63-1.09-5.43s-.76-3.61-1.25-5.4a31.41,31.41,0,0,0-2-5.17c-.77-1.67-1.5-3.36-2.22-5.06h0c.6,1.74,1.22,3.48,1.88,5.2a31.91,31.91,0,0,1,1.75,5.18c.39,1.78.67,3.6,1,5.42s.6,3.63.81,5.44c.46,3.62.66,7.31,1.29,11,.05.31.12.62.17.92q-3.93,1.26-7.94,2.24c-21.55,5.31-44.22,5.26-66.17,2.9a315.35,315.35,0,0,1-33-5.44,1.7,1.7,0,0,1,0-.22c.66-3.79,1.32-7.58,2.13-11.33a112.43,112.43,0,0,1,2.85-11.15c.56-1.83,1.24-3.63,2-5.41.39-.87.76-1.76,1.17-2.63l1.34-2.56a49.29,49.29,0,0,0-5.08,10.39,113.52,113.52,0,0,0-3.41,11.09c-.95,3.75-1.74,7.53-2.54,11.3-.4,1.88-.78,3.77-1.21,5.63-.22.92-.44,1.85-.7,2.74-.12.46-.28.88-.43,1.3a11.51,11.51,0,0,1-.54,1.27,25.12,25.12,0,0,1-2.87,4.75,20.33,20.33,0,0,1-3.83,3.92,15,15,0,0,1-4.73,2.53,37.08,37.08,0,0,1-5.47,1.14,48.54,48.54,0,0,1-8.69.42l-.3.31a2.61,2.61,0,0,1,.07-1.56,3.35,3.35,0,0,1,.69-1.14,15.38,15.38,0,0,1,2.25-1.87l2.56-1.88c.87-.64,1.77-1.28,2.7-2.08a8.07,8.07,0,0,0-3.56.36,10.86,10.86,0,0,0-3.17,1.64,7.25,7.25,0,0,0-2.45,2.89,3.44,3.44,0,0,0-.21,2.07,2.44,2.44,0,0,0,.63,1.2c-.58,0-1.17-.06-1.76-.11a21.28,21.28,0,0,1-2.71-.42,20.19,20.19,0,0,1-2.63-.75,15.57,15.57,0,0,1-2.46-1.09q-.45-.25-.87-.54l-.24.21a11.07,11.07,0,0,1,1.72-3.09,8.47,8.47,0,0,1,2.31-2.06c.4-.26,1-.44,1.48-.69s1.11-.49,1.65-.78a16,16,0,0,0,3.21-2.08,15.52,15.52,0,0,0-3.82.25,14.88,14.88,0,0,0-1.85.43,8.76,8.76,0,0,0-1.92.77,6.62,6.62,0,0,0-2.74,3.23,5.52,5.52,0,0,0-.23,3.51,8.54,8.54,0,0,1-.79-.65,5,5,0,0,1-1.32-1.88l-.15-.51a3.6,3.6,0,0,1-.07-.55,2.44,2.44,0,0,1,.12-.95c.37-1.16,2-2.05,3.75-2.76.87-.37,1.77-.73,2.69-1.16a11.85,11.85,0,0,0,2.73-1.64,6.24,6.24,0,0,0,1.2-1.3,4.92,4.92,0,0,0,.45-.81,3.83,3.83,0,0,0,.17-.43l.13-.38a14,14,0,0,0,.55-3.08c.15-2,.1-3.95.08-5.88s0-3.84,0-5.76c0-3.85,0-7.72-.07-11.58a136.93,136.93,0,0,0-2.14-23.11,56.9,56.9,0,0,0-3.33-11.14,29.71,29.71,0,0,0-2.8-5.1,18.48,18.48,0,0,0-4-4.21,18.46,18.46,0,0,1,3.67,4.41,30.51,30.51,0,0,1,2.5,5.14,56.43,56.43,0,0,1,2.76,11.11A149.87,149.87,0,0,1,249,395c0,3.84-.11,7.68-.17,11.53,0,1.93-.05,3.87-.06,5.8s0,3.85-.16,5.66v0c-1.1.05-2.22,0-3.24.06a152.3,152.3,0,0,1-17.49-.3c-3.1-.25-14-.56-15-4.78-.92-3.7,11.24-5.38,13.71-6.89,1.07-.65,1.92-1.43,1.08-2.69-.51-.77-2.13-1-2.87-1.31a53.66,53.66,0,0,1-7-3.46c-29.69-17.42-30.85-57.46-27.9-87.79.89-9.12,2.27-18.19,3.91-27.2.4-2.13.84-4.25,1.27-6.38.24.34.47.68.73,1,8.93,11,22.83,13,36.08,10.45,15.68-3.06,28.91-12.2,35.48-27.08.17-.38-.09-2.1-.26-1.73-5.34,11.83-15.6,20-27.91,23.72-11.64,3.51-25.2,5-35.89-1.79-4.29-2.73-8.23-6.37-10.12-11.17-3.28-8.31-2.17-17.46.46-25.77A72,72,0,0,1,211.73,215c8.9-9,19.15-16.63,26.84-26.74.27-.34-.07-1.79-.14-1.72-6.78,7.6-14.65,14.05-22.1,21a371.61,371.61,0,0,1,30.89-59.11c12.3-19.09,26.91-37.83,46.94-49.29A77.49,77.49,0,0,1,352,91.27c18.78,4.74,35.69,15.5,49.51,28.88,15.58,15.07,25.54,33.13,35.11,52.34q6.32,12.64,12.27,25.49c-4.46-4.91-9-9.74-13.36-14.69,0,0-.33,1.37-.06,1.73,7.17,9.45,15.54,17.92,23.06,27.09,7.94,9.7,14.4,20.1,18.42,32,4.38,13,4.57,28.19-7.4,37-10.07,7.37-22.18,6.93-33.9,4.18-13.94-3.26-25.83-11.49-31.82-24.77-.16-.35-.35,1.34-.18,1.74a46.06,46.06,0,0,0,28.79,25.41c12.81,3.87,26.82,4.45,37.83-4a25.79,25.79,0,0,0,7.37-8.87,234,234,0,0,1,7.21,37.79c1.84,18.56,0,38.06-8.63,54.83a70.25,70.25,0,0,1-17.73,22c-4,3.29-8.6,5.43-12.75,8.42-1,.7-2,1.43-1.29,2.75.54,1,2.24,1.25,3.21,1.49,2.43.62,4.9,1,7.28,1.84,2.62.88,5.65,2.17,7,4.74C463.39,411.29,463,411.1,460.19,411.6,180.61,375.44a32.84,32.84,0,0,1-9.51-3.34,31.2,31.2,0,0,1-8.08-6,27.16,27.16,0,0,1-5.45-8.38,34.52,34.52,0,0,1-1.45-19.87,42.71,42.71,0,0,1,3.13-9.63,34.81,34.81,0,0,1,2.94-5.1,35.37,35.37,0,0,0-.87,11.22,37.54,37.54,0,0,0,4.27,14.84,24.63,24.63,0,0,0,11,10.85,23,23,0,0,0,13.07,1.77,78.22,78.22,0,0,0,4.51,13.32c-1.13.25-2.28.46-3.44.6A33.74,33.74,0,0,1,180.61,375.44,33-223.37c11.17-17.51,26.69-34,41.51-44,17-11.52,30.56-14.56,40.15-14.56a40.82,40.82,0,0,1,4.13.2c-12,5.59-22.63,14-31.76,23.72-16.54,17.64-29.32,39.12-40.36,60.51q-7.8,15.1-14.19,30.86c-6.86-1.78-11.23-5.62-13-11.51C197,187,201.9,170.49,213.64,152.07,200.19-44c14.82,10,30.33,26.49,41.51,44,11.74,18.42,16.68,34.9,13.54,45.22-1.61,5.31-5.32,9-11.06,10.93q-1.74-2.1-3.52-4.14L453,201.17c-5.38-11.89-11.09-23.63-17-35.28-5-9.83-9.94-19.56-16.41-28.51-11.53-15.93-26.35-29.79-43.68-39.22q-4.2-2.28-8.6-4.18l.32,0C384.89,91.43,402.28,100.24,413.83,108.07Z"/><path d="M338.67,328.5c-23.56,2.27-47.86-6.38-63.87-23.94,0,0-.17.61,0,.77,16,17.76,40.23,26.78,63.93,24.71,24.15-2.11,46.52-15.4,61.49-34.21.22-.28-.08-1.36-.11-1.32C384.71,313,362.86,326.17,338.67,328.5Z"/><path d="M383.49,318.68C360.41,342.39,318,348.86,292,326.47c-.05,0-.23.82,0,1,25.9,22.51,69,17.29,91.63-7.56C383.8,319.67,383.54,318.62,383.49,318.68Z"/><path d="M364.32,339.39c-14.65,11.7-38.81,13.35-54.78,3.49-.1-.07-.27,1,0,1.14,16.06,9.91,40.28,8.73,54.92-3.37C364.66,340.45,364.41,339.31,364.32,339.39Z"/>            </clipPath>        </defs>        <g clip-path="url(#outline)">            <rect fill="#9287C6" width="640" height="480" />        </g>    </g>    <g id="pattern">        <g clip-path="url(#outline)">            <rect fill="#606060" opacity="0"  x="1.02" y="0.28" width="640" height="480"/>            <g opacity="0.6" ><path fill="#95C6C1"  d="M285,417.33c1-10.66,5.3-32.75,16.87-35.84,8.11-2.17,17.24-.57,25.51-.5s16.52-.1,24.76-.51c7.07-.36,16.84-1.51,21.65,1.37,10.43,6.23,13.81,25.56,14.56,36.62.07,1,.29-.59-1.2.13a30.14,30.14,0,0,1-6.76,2.1,172,172,0,0,1-45.93,4c-16.27-1-33.07-2.65-48-6.84"/></g>        </g>    </g>    <g id="mask">        <path fill="#2d2926"  d="M213.56,210.2a355,355,0,0,1,14.69-32.5c11-21.26,23.72-42.6,40.14-60.17,10.31-11,21.63-19.6,35.51-25.11-11-2.19-26.86-1.57-49.24,13.6-30.73,20.82-63.28,68.38-56,92.15C200.9,205.71,207.25,208.4,213.56,210.2Z"/><g opacity="0.1" ><path d="M485.51,334.54c.23,1.7-3.52,6.77-4.44,8.49-1.83,3.4-3.71,6.78-5.7,10.08a108.63,108.63,0,0,1-13.27,18.12A63,63,0,0,1,451,380.69a59.81,59.81,0,0,1-6.28,3.67,33.35,33.35,0,0,1-5.55,2.51c-4,1.16-6.17-2.21-7.35-5.52a39.48,39.48,0,0,1-2.34-17.54A119.55,119.55,0,0,1,432,349.39l-1.94,4.49c-3.08,11.13-4.6,22.56-6.05,34a4.58,4.58,0,0,0,.26,2.19,3.53,3.53,0,0,0-.88.73c-2.06,2.52-.69,11.1-.81,14.31a.64.64,0,0,0,.09.45c.16.19.46.14.69.07,8.49-2.29,16.42-3.94,24.1-8.21,9.5-5.3,18.46-12.14,24.87-20.77a61.25,61.25,0,0,0,7.68-15.13C483.16,352.82,486.78,343.7,485.51,334.54Z"/></g><g opacity="0.1" ><path d="M246.88,148.34a612.54,612.54,0,0,0-33.1,62.91c8.38-5.8,13.8-13.69,21.7-20.06a7.16,7.16,0,0,1,2.93-3.51c8.64-16.15,18.87-31.16,29.1-46.64,10.81-16.34,17.68-34.19,32.7-46.78C276.51,107.37,262.08,122.84,246.88,148.34Z"/></g><g opacity="0.1" ><path d="M250.25,399.07c0-.15,0-.29,0-.43-17.15-5.78-32.41-19.19-39.86-35.48-4-8.82-6.15-18.92-6.21-30.42a373.79,373.79,0,0,1,2.94-47.53c-5.46-2.15-10.27-5.44-12.89-10.91a.27.27,0,0,1-.08-.07c-2.08,11.46-3.53,23-4.49,34.65-2,24.3-2.64,58.64,14.54,78.45,10,11.56,21.68,18.57,39.46,20.83,2.16.27,4.37.57,6.6.88C249.76,405.73,250.31,402.49,250.25,399.07Z"/></g><g opacity="0.1" ><path d="M390.18,411.22c-.7-9.29-.91-9.28-.9-9.28-5.31,1.25-9.09,4.25-14.4,5.48a160.1,160.1,0,0,1-19.48,2.95c-22.09,2.28-44.5.82-66.38-2.85a29.78,29.78,0,0,1-1.73-13.09,100.57,100.57,0,0,0-4,15.41,33,33,0,0,1-.63,4.66c0,.15-.08.3-.12.44,1.1.25,3.19.5,4.25.75,14.95,5.54,32.83,6.73,48.08,6.86,15.71.13,34.8-1.09,45.13-4.91,2.87-1.06,9.14-1.62,10.5-3.05C391.71,413.32,390.3,412.83,390.18,411.22Z"/></g><g opacity="0.1" ><path fill="#fff"  d="M480.63,289.33q-1.54-8.4-3.58-16.68a19.76,19.76,0,0,1-8.87,11.21c2.5,11.55,4.49,23.21,6.07,34.92,1.4,10.34,4.07,22.69-2.47,31.88,4.28-6,9.86-10.61,11.34-14.66C488.39,321.62,483.31,303.82,480.63,289.33Z"/></g><path fill="#2d2926"  d="M376.41,99.41C393.86,109,408.2,123,419.73,139.13c6.56,9.19,10.9,18.71,15.95,28.77,5.92,11.76,11.19,22.71,16.58,34.72,1.24,2.76,4.58,4.42,5.79,7.19,6.09-1.85,10-4.78,12.24-12.11,7.23-23.77-25.09-70.54-55.82-91.36-23.6-16-40.32-15.9-51.21-13.22A107.1,107.1,0,0,1,376.41,99.41Z"/>        <g opacity="0.1" ><path fill="#fff"  d="M453.7,203.8c-11.28-27.21-25.53-53.08-44.83-75.49-16.21-18.84-29.22-25.15-29.44-25.34,6.06,5.3,10.42,13.69,14.49,20.5,13.25,22.2,26.95,45.74,44.62,65,4.78,5.2,10.2,9.29,14.09,15.33.63,1,1.23,2,1.81,3C453.38,204.15,454.78,206.41,453.7,203.8Z"/></g><g opacity="0.1" ><path fill="#fff"  d="M481.6,289.23c-1-5.6-3.2-11.06-4.55-16.58a19.71,19.71,0,0,1-8.87,11.2c2.5,11.56,4.49,23.21,6.07,34.93,1.4,10.33,4.07,22.69-2.47,31.88,4.28-6,9.86-10.61,11.34-14.66C488.39,321.61,484.27,303.72,481.6,289.23Z"/></g>    </g>    <g id="outline">        <path d="M452.79,396.45a74.64,74.64,0,0,0,11.24-8.8c13.41-12.74,20.76-30.16,23-48.33,2.74-21.85-1.67-43.92-7.23-65-.26-1-.53-2-.8-2.95C484.77,254.69,475,232,466,218.91c-2.06-3-4.26-5.89-6.55-8.72,5.27-2,9.82-5.7,11.79-12.19,7.21-23.69-25.32-71.16-56-92-12-8.11-30-17.2-48.08-14.51-1.38.21-2.68.47-3.89.77-13.05-5-27.1-7.16-41.07-5.33a76.35,76.35,0,0,0-18.43,4.89c-.61-.12-1.23-.23-1.87-.33-18.07-2.69-36.12,6.4-48.09,14.51-30.69,20.8-63.22,68.27-56,92,2.29,7.56,8.08,11.31,14.44,13.06-.09.21-.19.43-.27.64-.58.58-1.17,1.14-1.74,1.72a71.11,71.11,0,0,0-18.36,34c-1.89,8.09-2.48,18.7,1.32,26.7q-.93,4.44-1.77,8.91c-3.19,17.56-5.52,35.46-5,53.34a124.13,124.13,0,0,0,2.93,24.35,21.68,21.68,0,0,1-12.22-1.83,23.68,23.68,0,0,1-10.27-10.33,36.35,36.35,0,0,1-4-14.28A30.84,30.84,0,0,1,165,319.67l1.67-3.79-2.92,2.93a30.86,30.86,0,0,0-5.92,8.75,43.78,43.78,0,0,0-3.3,10,36.18,36.18,0,0,0,1.62,20.78,28.54,28.54,0,0,0,5.8,8.83,32.61,32.61,0,0,0,8.47,6.25,34.12,34.12,0,0,0,20.45,3.69,38.08,38.08,0,0,0,3.86-.73,63.27,63.27,0,0,0,3.75,6.85,52.62,52.62,0,0,0,21.1,19.2c.91.46,1.84.89,2.78,1.31a11.42,11.42,0,0,0,1.25.53l.49.2c-.49.15-1,.36-1.45.52-1.7.58-3.42,1.11-5.11,1.72-3.3,1.19-9.11,3.11-6.74,7.74,2.06,4,8.64,4.75,12.49,5.28a123.81,123.81,0,0,0,19.35.87c1.4,0,3.42.1,5.44,0a3.91,3.91,0,0,1-.43.94,4.48,4.48,0,0,1-.77.81,20.81,20.81,0,0,1-4.84,2.41,16.84,16.84,0,0,0-2.77,1.41,5.55,5.55,0,0,0-2.33,2.74,6.28,6.28,0,0,0,2,6.48,11.73,11.73,0,0,0,2.6,1.84,19.49,19.49,0,0,0,2.82,1.24,21.22,21.22,0,0,0,2.93.82,26.7,26.7,0,0,0,3,.45,49.12,49.12,0,0,0,11.81-.34,39.28,39.28,0,0,0,5.82-1.31,17.34,17.34,0,0,0,5.36-3,25.06,25.06,0,0,0,7.12-9.57,12.5,12.5,0,0,0,.55-1.41,12,12,0,0,0,.44-1.45c.27-1,.47-1.91.67-2.87s.4-2,.59-3.07l.32.07c22.75,4.9,46.19,7.78,69.48,6.66A158.18,158.18,0,0,0,384.12,419c2.24-.58,4.46-1.23,6.67-1.93a28.42,28.42,0,0,0,3.17,7.31,21.75,21.75,0,0,0,8.19,8c.44.21.88.45,1.34.62l.69.28.7.23c.94.3,1.84.5,2.77.71a50.13,50.13,0,0,0,5.58.86,46.31,46.31,0,0,0,11.33-.32A23.23,23.23,0,0,0,430.1,433a14.18,14.18,0,0,0,2.58-1.54,8.69,8.69,0,0,0,2.19-2.32,6.54,6.54,0,0,0,1-3.22,4.84,4.84,0,0,0-1.16-3.36,8,8,0,0,0-2.59-1.91,28.21,28.21,0,0,0-2.66-1.13,19.06,19.06,0,0,1-4.67-2.19,4.64,4.64,0,0,1-.78-.75,2,2,0,0,1-.42-.81,4.13,4.13,0,0,1-.1-.44l.86.08a141.4,141.4,0,0,0,21.19.06c5.56-.3,11.61-.37,17-1.79,4.09-1.08,2.59-5.49.27-8-3.66-4-9.54-4.72-14.51-6l-.47-.14c.33-.21.63-.44.78-.52Q450.74,397.77,452.79,396.45Zm7.4,15.15a139.56,139.56,0,0,1-19.05,1.56c-5.87.2-12.06.51-17.92-.35-.13-3.43,0-7,.26-10.46.23-3.66.52-7.31.86-11,.7-7.31,1.55-14.61,2.69-21.86.55-3.63,1.18-7.25,2-10.83.4-1.79.86-3.57,1.43-5.31a24.1,24.1,0,0,1,1-2.57,9.33,9.33,0,0,1,.64-1.21,5.14,5.14,0,0,1,.84-1.08q-.19.18-.39.39a3.28,3.28,0,0,0-.53.64,7.92,7.92,0,0,0-.72,1.18,24,24,0,0,0-1.15,2.53c-.66,1.72-1.21,3.49-1.71,5.27-1,3.56-1.81,7.16-2.55,10.78-1.42,7.24-2.53,14.54-3.4,21.87-.45,3.66-.83,7.33-1.11,11a108.58,108.58,0,0,0-.42,11.16c0,.48,0,1,.1,1.47a9.51,9.51,0,0,0,.27,1.53,4.59,4.59,0,0,0,.33.86,5.89,5.89,0,0,0,.5.76,6.57,6.57,0,0,0,1.19,1.17,21.14,21.14,0,0,0,5.26,2.55c1.67.65,3.38,1.34,4.25,2.37a2.16,2.16,0,0,1,.46.8,2.38,2.38,0,0,1,.12.94,4,4,0,0,1-.61,2,6.77,6.77,0,0,1-1.73,1.78,5.45,5.45,0,0,0-.23-3.53,6.6,6.6,0,0,0-2.73-3.23,9,9,0,0,0-1.92-.77,13.34,13.34,0,0,0-1.86-.42,15.43,15.43,0,0,0-3.81-.26,16,16,0,0,0,3.21,2.08c.54.29,1.16.53,1.64.78a16,16,0,0,1,1.48.69,8.65,8.65,0,0,1,2.32,2.06,11.21,11.21,0,0,1,1.72,3.09l-.23-.2a13,13,0,0,1-1.59.89,20.13,20.13,0,0,1-4.94,1.61,38.82,38.82,0,0,1-3.92.41,2.62,2.62,0,0,0,.64-1.21,3.6,3.6,0,0,0-.21-2.07,7.25,7.25,0,0,0-2.46-2.88A10.77,10.77,0,0,0,415,425a8.21,8.21,0,0,0-3.56-.36c.94.81,1.84,1.44,2.71,2.08l2.56,1.88a15.93,15.93,0,0,1,2.25,1.87,3.27,3.27,0,0,1,.68,1.14,2.54,2.54,0,0,1,.07,1.56h0l-.3-.31a51.85,51.85,0,0,1-6-.1,45.54,45.54,0,0,1-5.33-.74c-.86-.18-1.77-.37-2.59-.62l-.61-.18-.6-.23c-.4-.15-.78-.35-1.17-.53a20.35,20.35,0,0,1-7.56-7.11,26.78,26.78,0,0,1-2.44-4.73,30.8,30.8,0,0,1-1.5-5.15c-.75-3.54-1.07-7.22-1.68-10.88-.31-1.83-.72-3.63-1.09-5.43s-.76-3.61-1.25-5.4a31.41,31.41,0,0,0-2-5.17c-.77-1.67-1.5-3.36-2.22-5.06h0c.6,1.74,1.22,3.48,1.88,5.2a31.91,31.91,0,0,1,1.75,5.18c.39,1.78.67,3.6,1,5.42s.6,3.63.81,5.44c.46,3.62.66,7.31,1.29,11,.05.31.12.62.17.92q-3.93,1.26-7.94,2.24c-21.55,5.31-44.22,5.26-66.17,2.9a315.35,315.35,0,0,1-33-5.44,1.7,1.7,0,0,1,0-.22c.66-3.79,1.32-7.58,2.13-11.33a112.43,112.43,0,0,1,2.85-11.15c.56-1.83,1.24-3.63,2-5.41.39-.87.76-1.76,1.17-2.63l1.34-2.56a49.29,49.29,0,0,0-5.08,10.39,113.52,113.52,0,0,0-3.41,11.09c-.95,3.75-1.74,7.53-2.54,11.3-.4,1.88-.78,3.77-1.21,5.63-.22.92-.44,1.85-.7,2.74-.12.46-.28.88-.43,1.3a11.51,11.51,0,0,1-.54,1.27,25.12,25.12,0,0,1-2.87,4.75,20.33,20.33,0,0,1-3.83,3.92,15,15,0,0,1-4.73,2.53,37.08,37.08,0,0,1-5.47,1.14,48.54,48.54,0,0,1-8.69.42l-.3.31a2.61,2.61,0,0,1,.07-1.56,3.35,3.35,0,0,1,.69-1.14,15.38,15.38,0,0,1,2.25-1.87l2.56-1.88c.87-.64,1.77-1.28,2.7-2.08a8.07,8.07,0,0,0-3.56.36,10.86,10.86,0,0,0-3.17,1.64,7.25,7.25,0,0,0-2.45,2.89,3.44,3.44,0,0,0-.21,2.07,2.44,2.44,0,0,0,.63,1.2c-.58,0-1.17-.06-1.76-.11a21.28,21.28,0,0,1-2.71-.42,20.19,20.19,0,0,1-2.63-.75,15.57,15.57,0,0,1-2.46-1.09q-.45-.25-.87-.54l-.24.21a11.07,11.07,0,0,1,1.72-3.09,8.47,8.47,0,0,1,2.31-2.06c.4-.26,1-.44,1.48-.69s1.11-.49,1.65-.78a16,16,0,0,0,3.21-2.08,15.52,15.52,0,0,0-3.82.25,14.88,14.88,0,0,0-1.85.43,8.76,8.76,0,0,0-1.92.77,6.62,6.62,0,0,0-2.74,3.23,5.52,5.52,0,0,0-.23,3.51,8.54,8.54,0,0,1-.79-.65,5,5,0,0,1-1.32-1.88l-.15-.51a3.6,3.6,0,0,1-.07-.55,2.44,2.44,0,0,1,.12-.95c.37-1.16,2-2.05,3.75-2.76.87-.37,1.77-.73,2.69-1.16a11.85,11.85,0,0,0,2.73-1.64,6.24,6.24,0,0,0,1.2-1.3,4.92,4.92,0,0,0,.45-.81,3.83,3.83,0,0,0,.17-.43l.13-.38a14,14,0,0,0,.55-3.08c.15-2,.1-3.95.08-5.88s0-3.84,0-5.76c0-3.85,0-7.72-.07-11.58a136.93,136.93,0,0,0-2.14-23.11,56.9,56.9,0,0,0-3.33-11.14,29.71,29.71,0,0,0-2.8-5.1,18.48,18.48,0,0,0-4-4.21,18.46,18.46,0,0,1,3.67,4.41,30.51,30.51,0,0,1,2.5,5.14,56.43,56.43,0,0,1,2.76,11.11A149.87,149.87,0,0,1,249,395c0,3.84-.11,7.68-.17,11.53,0,1.93-.05,3.87-.06,5.8s0,3.85-.16,5.66v0c-1.1.05-2.22,0-3.24.06a152.3,152.3,0,0,1-17.49-.3c-3.1-.25-14-.56-15-4.78-.92-3.7,11.24-5.38,13.71-6.89,1.07-.65,1.92-1.43,1.08-2.69-.51-.77-2.13-1-2.87-1.31a53.66,53.66,0,0,1-7-3.46c-29.69-17.42-30.85-57.46-27.9-87.79.89-9.12,2.27-18.19,3.91-27.2.4-2.13.84-4.25,1.27-6.38.24.34.47.68.73,1,8.93,11,22.83,13,36.08,10.45,15.68-3.06,28.91-12.2,35.48-27.08.17-.38-.09-2.1-.26-1.73-5.34,11.83-15.6,20-27.91,23.72-11.64,3.51-25.2,5-35.89-1.79-4.29-2.73-8.23-6.37-10.12-11.17-3.28-8.31-2.17-17.46.46-25.77A72,72,0,0,1,211.73,215c8.9-9,19.15-16.63,26.84-26.74.27-.34-.07-1.79-.14-1.72-6.78,7.6-14.65,14.05-22.1,21a371.61,371.61,0,0,1,30.89-59.11c12.3-19.09,26.91-37.83,46.94-49.29A77.49,77.49,0,0,1,352,91.27c18.78,4.74,35.69,15.5,49.51,28.88,15.58,15.07,25.54,33.13,35.11,52.34q6.32,12.64,12.27,25.49c-4.46-4.91-9-9.74-13.36-14.69,0,0-.33,1.37-.06,1.73,7.17,9.45,15.54,17.92,23.06,27.09,7.94,9.7,14.4,20.1,18.42,32,4.38,13,4.57,28.19-7.4,37-10.07,7.37-22.18,6.93-33.9,4.18-13.94-3.26-25.83-11.49-31.82-24.77-.16-.35-.35,1.34-.18,1.74a46.06,46.06,0,0,0,28.79,25.41c12.81,3.87,26.82,4.45,37.83-4a25.79,25.79,0,0,0,7.37-8.87,234,234,0,0,1,7.21,37.79c1.84,18.56,0,38.06-8.63,54.83a70.25,70.25,0,0,1-17.73,22c-4,3.29-8.6,5.43-12.75,8.42-1,.7-2,1.43-1.29,2.75.54,1,2.24,1.25,3.21,1.49,2.43.62,4.9,1,7.28,1.84,2.62.88,5.65,2.17,7,4.74C463.39,411.29,463,411.1,460.19,411.6ZM180.61,375.44a32.84,32.84,0,0,1-9.51-3.34,31.2,31.2,0,0,1-8.08-6,27.16,27.16,0,0,1-5.45-8.38,34.52,34.52,0,0,1-1.45-19.87,42.71,42.71,0,0,1,3.13-9.63,34.81,34.81,0,0,1,2.94-5.1,35.37,35.37,0,0,0-.87,11.22,37.54,37.54,0,0,0,4.27,14.84,24.63,24.63,0,0,0,11,10.85,23,23,0,0,0,13.07,1.77,78.22,78.22,0,0,0,4.51,13.32c-1.13.25-2.28.46-3.44.6A33.74,33.74,0,0,1,180.61,375.44Zm33-223.37c11.17-17.51,26.69-34,41.51-44,17-11.52,30.56-14.56,40.15-14.56a40.82,40.82,0,0,1,4.13.2c-12,5.59-22.63,14-31.76,23.72-16.54,17.64-29.32,39.12-40.36,60.51q-7.8,15.1-14.19,30.86c-6.86-1.78-11.23-5.62-13-11.51C197,187,201.9,170.49,213.64,152.07Zm200.19-44c14.82,10,30.33,26.49,41.51,44,11.74,18.42,16.68,34.9,13.54,45.22-1.61,5.31-5.32,9-11.06,10.93q-1.74-2.1-3.52-4.14L453,201.17c-5.38-11.89-11.09-23.63-17-35.28-5-9.83-9.94-19.56-16.41-28.51-11.53-15.93-26.35-29.79-43.68-39.22q-4.2-2.28-8.6-4.18l.32,0C384.89,91.43,402.28,100.24,413.83,108.07Z"/><path d="M338.67,328.5c-23.56,2.27-47.86-6.38-63.87-23.94,0,0-.17.61,0,.77,16,17.76,40.23,26.78,63.93,24.71,24.15-2.11,46.52-15.4,61.49-34.21.22-.28-.08-1.36-.11-1.32C384.71,313,362.86,326.17,338.67,328.5Z"/><path d="M383.49,318.68C360.41,342.39,318,348.86,292,326.47c-.05,0-.23.82,0,1,25.9,22.51,69,17.29,91.63-7.56C383.8,319.67,383.54,318.62,383.49,318.68Z"/><path d="M364.32,339.39c-14.65,11.7-38.81,13.35-54.78,3.49-.1-.07-.27,1,0,1.14,16.06,9.91,40.28,8.73,54.92-3.37C364.66,340.45,364.41,339.31,364.32,339.39Z"/>    </g>    <g id="eye">        <g id="eye-color1">            <g opacity="0" ><path fill="#9287C6"  d="M288.19,128.43c-.14.46-.2.94-.35,1.4a16.7,16.7,0,0,1-1.35,2.87c-.53.93-1,1.89-1.55,2.82-.24.42-.49.81-.76,1.21l-.44.61c-.08.12-.45.47-.45.6-.19.25-.39.5-.59.74-5.88,7-13.91,9.8-22.7,6.53-8.53-3.17-14.2-10.4-14.65-19.53a2.11,2.11,0,0,1,0-.58,23.29,23.29,0,0,1,19-21.81,18.87,18.87,0,0,1,11.42,1.35c-15.3-7.71-34.36-2.93-39.3,15.33a20.83,20.83,0,0,0-.66,6.53,29.42,29.42,0,0,0,10.48,20.23c8.59,7.09,21.5,6.67,31,1.77,7.19-3.69,10-12.6,10.93-20.45Z"/></g><g opacity="0" ><path fill="#9287C6"  d="M411.94,122.36c-.23.62-.44,1.25-.69,1.87a25.75,25.75,0,0,1-2,3.66,31.67,31.67,0,0,1-2.54,3.43c-5.88,7-13.9,9.8-22.69,6.53-8.54-3.17-14.21-10.4-14.65-19.53a2.11,2.11,0,0,1,0-.58,23.28,23.28,0,0,1,19-21.81,18.86,18.86,0,0,1,11.42,1.35c-15.29-7.71-34.35-2.93-39.29,15.33a20.84,20.84,0,0,0-.67,6.53,29.42,29.42,0,0,0,10.48,20.23c8.6,7.09,21.51,6.67,31.05,1.77,6.9-3.54,9.72-12,10.77-19.65C412.12,121.74,412,122.12,411.94,122.36Z"/></g>        </g>        <g id="eye-shape">            <path fill="#fcfcfc"  d="M286.68,173.37a22.62,22.62,0,0,1-22.27-21.15,1.54,1.54,0,0,1,0-.38,1.32,1.32,0,0,1,0-.35c.61-12.1,10.62-22.28,23-22.42h.39a8.41,8.41,0,0,1,3.5-.67,7.13,7.13,0,0,1,6.07,3.48,22.15,22.15,0,0,1,2.49,1.73,48.14,48.14,0,0,0-4.57-5.28c-6.07-6-13.83-11-22.19-13-10.19-2.46-20.16,1-28,7.64-14.72,13.6-19,37.21-10.83,55.4,7.13,15.82,25,29.46,43.07,25.17,15-3.55,25-18.37,29.24-32.32A41.4,41.4,0,0,0,308,152.57C306.39,163,297.86,173.55,286.68,173.37Z"/><path d="M273,112.22c-11-2.4-21.66,1.45-30.06,8.61-14,12.93-19.22,34.74-13.65,52.85,5.64,18.37,23,34.45,43.07,33.53,17.07-.79,29.35-15.39,35.3-30.2,6.85-17,4.06-35-8.35-48.74C292.51,120.69,283.1,114.41,273,112.22Zm33.54,59c-4.28,14-14.23,28.77-29.24,32.32-18.11,4.29-35.94-9.35-43.07-25.17-8.19-18.19-3.89-41.8,10.83-55.4,7.82-6.66,17.79-10.1,28-7.64,8.36,2,16.12,7,22.19,13a48.14,48.14,0,0,1,4.57,5.28,22.15,22.15,0,0,0-2.49-1.73,7.42,7.42,0,0,1,1,4.13c-.19,4.07-2.6,8.64-7.18,8.7-4.34.06-7.59-3.78-8.17-7.81a1.65,1.65,0,0,1-.06-.46,1.37,1.37,0,0,1,0-.46,8.09,8.09,0,0,1,4.81-6.91h-.39c-12.37.14-22.38,10.32-23,22.42a1.32,1.32,0,0,0,0,.35,1.54,1.54,0,0,0,0,.38,22.62,22.62,0,0,0,22.27,21.15c11.18.18,19.71-10.39,21.27-20.8A41.4,41.4,0,0,1,306.58,171.2Z"/><path fill="#fcfcfc"  d="M432.43,164.36c1-5.46,2.44-13.2.13-18.85,0,.1-4.61,4.27-4.62,4.37-1.29,11.65-5.42,22.66-17.38,22.44-12.37-.21-20-10.31-20.73-23.11,0-.13,4.08-1,4.09-1.15s-4.12.47-4.1.35c.64-13.22,8.58-24.36,21.49-24.51h.4c1.1-.5-17.24,14.22.29,19,20.13,5.52,8.44-18.21,9.69-16,1.88,3.37,5.75,5.09,7.23,6.71-3.35-5.26-10.19-12.37-16-15.88-15.32-9.25-36.46-8.65-47.36,7.58a1.56,1.56,0,0,1-.84.65c-12.38,15.92-13.78,40.58-3.61,58.11,8.52,14.68,25.87,23.08,41.95,18.3S429.43,180.78,432.43,164.36Z"/><path d="M418.09,117.84c-8.18-6.19-18.66-9.66-28.95-8.62-32,3.23-41.2,45.75-31,70.76,7,17.07,23.72,28.55,41.12,26.1,17.6-2.47,29.84-19,34.36-36.62C438.64,149.94,433.81,129.73,418.09,117.84Zm-54.63,65.83c-8.47-15-7.89-34.95-.89-50.35,3-6.69,7.75-12.74,14-16.55,8.1-4.91,18.39-5.69,27.41-2.81a42.81,42.81,0,0,1,22,17.09l-4.31-3.65c.9,4.23.91,9.38-2.5,12s-9.45.85-11.31-3.27,0-9.3,3.57-12A24.28,24.28,0,0,0,396.2,166c5,4.74,12.32,7.21,19,5.47a21.11,21.11,0,0,0,11.77-8.76,34.91,34.91,0,0,0,5.19-13.93,56.12,56.12,0,0,1-10.07,38.69c-4.1,5.71-9.43,10.72-15.93,13.41-12.38,5.13-27.49.66-36.7-9.07A40.47,40.47,0,0,1,363.46,183.67Z"/><path fill="#fff"  d="M291.28,128.4a8.41,8.41,0,0,0-3.5.67A8.09,8.09,0,0,0,283,136a1.37,1.37,0,0,0,0,.46,1.65,1.65,0,0,0,.06.46c.58,4,3.83,7.87,8.17,7.81,4.58-.06,7-4.63,7.18-8.7a7.42,7.42,0,0,0-1-4.13A7.13,7.13,0,0,0,291.28,128.4Z"/>        </g>        <g id="eye-color2">            <path fill="#F7849F"  d="M307,156.43a15.63,15.63,0,0,1-1.35,2.87c-.52.93-1,1.89-1.54,2.82-.24.41-.5.81-.77,1.2l-.43.62c-.09.11-.45.46-.45.6l-.6.74c-5.88,7-13.9,9.8-22.69,6.53-8.54-3.17-14.21-10.41-14.65-19.54a.86.86,0,0,1,0-.28.9.9,0,0,1,0-.29,23.29,23.29,0,0,1,19-21.82A19,19,0,0,1,295,131.23c-15.29-7.7-34.35-2.93-39.29,15.33a20.58,20.58,0,0,0-.66,6.54,29.34,29.34,0,0,0,10.48,20.23c8.59,7.08,21.5,6.67,31,1.77,7.19-3.69,10-12.6,10.92-20.46,0,.13-.08.26-.11.38C307.26,155.49,307.19,156,307,156.43Z"/><path fill="#F7849F"  d="M431.65,151.46c-.24.62-.44,1.25-.7,1.86a24.88,24.88,0,0,1-2,3.67,31,31,0,0,1-2.54,3.43c-5.88,7-13.9,9.8-22.69,6.53-8.53-3.17-14.2-10.41-14.65-19.54a2.46,2.46,0,0,1,0-.28,2.64,2.64,0,0,1,0-.29A23.3,23.3,0,0,1,408.16,125a19,19,0,0,1,11.42,1.35c-15.3-7.7-34.36-2.93-39.3,15.34a20.48,20.48,0,0,0-.66,6.53,29.38,29.38,0,0,0,10.48,20.23c8.59,7.09,21.5,6.67,31,1.77,6.91-3.55,9.73-12,10.77-19.66C431.82,150.83,431.74,151.21,431.65,151.46Z"/>        </g>    </g>    <g id="nose-mouth">        <path fill="#f25757"  d="M342.46,246.45c-.41.22-2.32-.19-2.89,0a1,1,0,0,0-.52,1,14.81,14.81,0,0,0,.4,4.35,12.51,12.51,0,0,0-2.61-3.47,3.5,3.5,0,0,0-2.79-1.15c-1.22.19-2.07,1.53-3.4,1.18a3.47,3.47,0,0,1-.36-.08,57.36,57.36,0,0,1,3.34,6,8,8,0,0,0,.83,1.91,6,6,0,0,0,1.35,1.49,5.81,5.81,0,0,0,3.73,1.3,5,5,0,0,0,3.57-1.48,5.6,5.6,0,0,0,1.51-3.64,14.85,14.85,0,0,0-.67-4.13,16,16,0,0,0-1.28-3.22Z"/><path fill="#d33d3d"  d="M334.05,247.25a3.5,3.5,0,0,1,2.79,1.15,12.51,12.51,0,0,1,2.61,3.47,14.81,14.81,0,0,1-.4-4.35,1,1,0,0,1,.52-1c.57-.23,2.48.18,2.89,0a14.9,14.9,0,0,1-4.63-3.24,8.23,8.23,0,0,1-.88-1.16,7.5,7.5,0,0,1-2,.18c-.12.23-.25.46-.39.68a13.31,13.31,0,0,1-4.54,4.35l-.26.13.49.91a.13.13,0,0,0,.07,0,3.47,3.47,0,0,0,.36.08C332,248.78,332.83,247.44,334.05,247.25Z"/><path d="M370.82,232.48a21.37,21.37,0,0,1-1.41,5.86,12.93,12.93,0,0,1-3.34,4.75c-2.9,2.59-6.88,3.57-10.8,3.78a39.61,39.61,0,0,1-6-.17,21,21,0,0,1-5.72-1.3,16.45,16.45,0,0,1-5.12-2.84,10.05,10.05,0,0,1-.73-.73c4.22-1.48,6.82-6.56,9.69-9.86,6.16-7.12,14.84-20.64,5.73-29.06-4.65-4.31-12.15-5-18.17-4.69a62.28,62.28,0,0,0-20.68,4.42c-5.23,2.66-9.45,6.53-8.45,13s7.23,11.46,11.66,15.53,10.35,10.1,16.49,11c-.06.09-.12.19-.19.28a13.25,13.25,0,0,1-4.5,3.64,22.8,22.8,0,0,1-5.53,1.92,33.16,33.16,0,0,1-5.88.72,42.27,42.27,0,0,1-6-.2,40.29,40.29,0,0,1-5.87-1,27,27,0,0,1-5.58-2,13.06,13.06,0,0,1-4.65-3.71,11.7,11.7,0,0,0,4.22,4.45,23.43,23.43,0,0,0,5.63,2.61A36.15,36.15,0,0,0,318,250.45a26.39,26.39,0,0,0,11.36-2.84c.48,1.11,1.08,2.15,1.65,3.19a36.69,36.69,0,0,1,1.93,3.8c.13.32.21.63.35,1a6.17,6.17,0,0,0,.51,1,7.1,7.1,0,0,0,1.52,1.71,6.68,6.68,0,0,0,4.25,1.54,5.77,5.77,0,0,0,4.16-1.8,6.4,6.4,0,0,0,1.68-4.18,13.74,13.74,0,0,0-.8-4.35,17.17,17.17,0,0,0-1.11-2.66,22.41,22.41,0,0,0,2.54.88,15.94,15.94,0,0,0,3.11.59,35.08,35.08,0,0,0,6.24.22,22.1,22.1,0,0,0,6.2-1.19,14.37,14.37,0,0,0,5.42-3.36,13,13,0,0,0,3.19-5.44A17.27,17.27,0,0,0,370.82,232.48Zm-26.2,21.42a5.6,5.6,0,0,1-1.51,3.64,5,5,0,0,1-3.57,1.48,5.81,5.81,0,0,1-3.73-1.3,6,6,0,0,1-1.35-1.49,8,8,0,0,1-.83-1.91,57.36,57.36,0,0,0-3.34-6,.13.13,0,0,1-.07,0l-.49-.91.26-.13a13.31,13.31,0,0,0,4.54-4.35c.14-.22.27-.45.39-.68a7.5,7.5,0,0,0,2-.18,8.23,8.23,0,0,0,.88,1.16,14.9,14.9,0,0,0,4.63,3.24l.21.1a16,16,0,0,1,1.28,3.22A14.85,14.85,0,0,1,344.62,253.9Zm-8.85-46.15a7.79,7.79,0,0,0-1.63-.54,1.32,1.32,0,0,1,0-2.53,15,15,0,0,1,8.91-.64c2,.49,4.91,1.55,4.09,4.15a5.68,5.68,0,0,1-5.3,3.6C339.45,211.52,337.81,208.83,335.77,207.75Z"/><rect fill="#563a33"  x="312.85" y="240.07" width="2.61" height="2.61" rx="1.02" ry="1.02" transform="translate(-35.24 428.13) rotate(-65.66)"/><rect fill="#563a33"  x="305.19" y="237.27" width="2.61" height="2.61" rx="1.02" ry="1.02" transform="translate(-37.12 419.64) rotate(-65.68)"/><rect fill="#563a33"  x="305.43" y="243.3" width="2.61" height="2.61" rx="1.02" ry="1.02" transform="translate(-42.42 423.51) rotate(-65.7)"/><rect fill="#563a33"  x="354.66" y="241.94" width="2.61" height="2.61" rx="1.02" ry="1.02" transform="translate(-12.2 467.59) rotate(-65.7)"/><rect fill="#563a33"  x="359.88" y="234.44" width="2.61" height="2.61" rx="1.02" ry="1.02" transform="translate(-2.37 467.82) rotate(-65.68)"/><rect fill="#563a33"  x="361.21" y="239.37" width="2.61" height="2.61" rx="1.02" ry="1.02" transform="translate(-6.17 471.78) rotate(-65.66)"/><path fill="#fff"  d="M347.14,208.19c.82-2.6-2.13-3.66-4.09-4.15a15,15,0,0,0-8.91.64,1.32,1.32,0,0,0,0,2.53,7.79,7.79,0,0,1,1.63.54c2,1.08,3.68,3.77,6.07,4A5.68,5.68,0,0,0,347.14,208.19Z"/><path d="M308.87,269.07a132,132,0,0,0,13.9,4.15c1.17.27,2.35.42,3.53.65s2.36.35,3.56.4l1.78.15,1.79.06c1.19.07,2.39,0,3.58,0s2.38-.11,3.57-.2,2.38-.24,3.56-.45a60.72,60.72,0,0,0,7-1.45,69,69,0,0,0,13.44-5.31,46,46,0,0,1-13,6.8,51.64,51.64,0,0,1-14.54,2.61,49.69,49.69,0,0,1-14.67-1.74A67.64,67.64,0,0,1,308.87,269.07Z"/><g opacity="0.1" ><path d="M338.59,282.74c10.32-.58,20.87-7.3,26-15.68-.22.65-19.13,9.52-26.87,8.94-17.2-1.29-29.27-7-28.86-6.93C308.87,269.07,321.89,283.67,338.59,282.74Z"/></g>    </g></svg>