<!--  ~ Copyright (C) 2018 Baidu, Inc. All Rights Reserved.  --><svg viewBox="0 0 640 480" xmlns="http://www.w3.org/2000/svg">    <g id="back-ground-cl">        <rect fill="none" width="640" height="480" />        <ellipse opacity="0.1" cx="331.93" cy="418.82" rx="168.39" ry="32.01"/>    </g>    <g id="body">        <defs>            <clipPath id="outline">                <path fill="none"  d="M232.67,166.75c9.68-17.65,20.79-34.89,34.47-49.52a121.14,121.14,0,0,1,12.24-11.42,45.83,45.83,0,0,0-10.11-5.51c-16.12-6.38-33.92-5.2-50.91-5.52-14.21-.27-28.56-1.69-41.38-8.32-2.58-1.34-5.08-3-7.87-3.86-5.89-1.82-8.35,2.62-8.21,8.18.19,7.5,2.86,14.61,6.71,21,7.09,11.74,17.58,22.28,27.46,31.72,10.63,10.17,23.06,18.88,37.26,23.17Z"/><path fill="none"  d="M190.91,282.76q3.41-18.24,8.5-36.1c2.09-7.25,4.43-14.43,7-21.54A107.42,107.42,0,0,0,181,212.2c-14.66-5.28-30.51-9.16-43.52-18.08-1.27-.87-2.45-1.82-3.67-2.74-4.61-3.46-8.13,0-8.49,5s2.59,10.17,5.9,13.88c5.47,6.13,12.69,10.25,17.7,16.87.91,1.2.64,1.86-.55,1-4.47-3-10.73-4.54-15.85-6.29-3.06-1.05-7-2.29-7.39,2.08-.17,2.07,1.31,5,2.2,6.76,4.21,8.31,11.82,15.55,19.28,20.71,1.57,1.08.68,2.06-1,1.09l-12.45-7.16C133,261,145.82,269.89,158,278c9.67,6.39,19.94,12.82,30.65,17.76C189.39,291.3,190.14,287,190.91,282.76Z"/><path fill="none"  d="M179,365.86c-12,1.32-28.59-.84-36-11.74-3.32-4.87-3.56-10.88-1.51-16.31,1.5-4,4.53-7.8,9.07-8.18,2.32-.19,2.86.62,5.19-.77s2.13-1.51.52-3.5A7.7,7.7,0,0,0,155,323.9c-3.14-2.43-8.44-1.61-12-.87-14.21,2.92-21.46,16.71-23.75,30-3.09,17.82,15.17,31.74,30.75,35s31.62-1.22,45.17-9.94a77.57,77.57,0,0,1-5.72-14.46A50,50,0,0,1,179,365.86Z"/><path fill="none"  d="M420.12,137.87c1.29,1.81,2.5,3.65,3.68,5.51,17.78-2.92,32.49-13.34,42.37-29,9.41-14.89,14.36-32.33,17-49.61a197.31,197.31,0,0,0,2.23-26.7c.1-5.9.77-13.27-2.8-18.33-2.77-3.93-7.95-5.71-11.77-2.16-1.76,1.64-3,3.95-4.2,6-11.84,19.64-35.58,31.05-55,41.75-11.6,6.39-34.89,17.53-33.89,33.59C394.56,108.48,408.93,122.19,420.12,137.87Z"/><path fill="none"  d="M539.17,207.63a16.23,16.23,0,0,0-3.93,1.26c-4.84,1.73-10.83,3.65-15.07,6.52-1.2.8-1.47.65-.56-.56,4.71-6.21,11.25-11.27,16.66-16.77,3.3-3.35,6.08-7.55,6.76-12.28.36-2.47.21-6.69-2-8.37-3.32-2.54-5.3,0-7.52,1.67-18.41,13.63-45.31,14.58-61.14,31.85-3.41,3.72-6.83,7.54-10.15,11.44a418.08,418.08,0,0,1,18,53.44q.72,2.78,1.4,5.58a269,269,0,0,0,31.92-18.74c11.28-7.69,22-16.22,21.81-30.58-4.15,2.39-8.8,4.28-13,6.66-1.69,1-2.08,1-.51-.09,7.46-5.15,15.07-12.9,19.27-21.2.74-1.46,3-6.11,2.39-8S540.6,207.55,539.17,207.63Z"/><path fill="none"  d="M436.22,172.78c-9.43-18.94-19.2-36.84-34.45-51.82-11.16-11-24.38-20.22-39-25.95l-.23-.12a27.81,27.81,0,0,0-.84-7.34,26.63,26.63,0,0,0-2.11-5.49,26.86,26.86,0,0,1-1.16,7.44l-.31,1-1-.46a13.07,13.07,0,0,1-7.45-11.83c0-1.21.09-2.35.11-3.42a15.11,15.11,0,0,0-.21-3.1,16.26,16.26,0,0,0-2.34-5.77,25.43,25.43,0,0,0-9.46-8.43,60.88,60.88,0,0,0-9.68-4c.21.84.4,1.69.56,2.57a15.58,15.58,0,0,1,0,5.78,11.64,11.64,0,0,1-2.63,5.33,25.69,25.69,0,0,1-4.22,3.64c-.71.52-1.41,1-2.07,1.55s-1.25,1-1.94,1.68a23.06,23.06,0,0,0-3.52,3.39c-.71,1-.63,2.68-.45,4.36a15.62,15.62,0,0,1,.19,2.83,5.09,5.09,0,0,1-.35,1.64,3.44,3.44,0,0,1-1.15,1.47l-.55.39-.55-.29a31.5,31.5,0,0,0-6.87-2.68,32.31,32.31,0,0,0-6.28-1c.46,1,.81,2,1.17,3l1.37,4.07c.46,1.31.94,2.61,1.49,3.89l-.37.16a77.77,77.77,0,0,0-8.84,4.45c-20,11.79-34.54,30.83-46.84,50.13A378,378,0,0,0,193.8,283.56c-1.64,9-3,18.13-3.92,27.28-2.94,30.45-1.69,70.66,28.46,87.76,2.14,1.21,13.06,3.8,8.4,7.4-2.4,1.85-14.51,3-13.88,6.69.7,4.07,12.4,4.42,15.16,4.64a157,157,0,0,0,17.62.25c.53,0,1.45,0,2.42,0,.14-1.74.13-3.59.15-5.43s0-3.87.07-5.8c.07-3.85.18-7.69.2-11.52a152.15,152.15,0,0,0-1.34-22.9,55.65,55.65,0,0,0-2.69-11.1A30.07,30.07,0,0,0,242,355.7a18.55,18.55,0,0,0-3.62-4.43,22.82,22.82,0,0,1,6.83,9.28,57.16,57.16,0,0,1,3.39,11.15,136.23,136.23,0,0,1,2.23,23.12c.1,3.87.11,7.73.09,11.58,0,1.92,0,3.83,0,5.76s.07,3.86-.08,5.9a14.12,14.12,0,0,1-.56,3.14l-.12.39c-.05.14-.12.3-.19.45a5.41,5.41,0,0,1-.47.85,6.49,6.49,0,0,1-1.25,1.35,21.79,21.79,0,0,1-5.48,2.84c-1.7.71-3.31,1.61-3.6,2.61a2.07,2.07,0,0,0-.1.85,4.84,4.84,0,0,0,.06.5l.14.48a5.1,5.1,0,0,0,1.25,1.77c.12.11.27.21.41.33a5.49,5.49,0,0,1,.23-3.1,6.58,6.58,0,0,1,2.79-3.36,8.4,8.4,0,0,1,2-.78,12.49,12.49,0,0,1,1.87-.39,13.64,13.64,0,0,1,3.89-.05,13.39,13.39,0,0,1-3.14,2.29c-1.12.61-2.21,1.06-3.05,1.5a9.26,9.26,0,0,0-2.27,1.93,12.66,12.66,0,0,0-1.91,3l.47-.39a14.81,14.81,0,0,0,3.2,1.55,19.2,19.2,0,0,0,2.59.75,22.4,22.4,0,0,0,2.68.41c.46.05.93.06,1.4.09a2.7,2.7,0,0,1-.44-.9,3.62,3.62,0,0,1,.16-2.18,7.07,7.07,0,0,1,2.48-3,9.91,9.91,0,0,1,3.23-1.62,7.41,7.41,0,0,1,3.66-.16,28.12,28.12,0,0,1-2.61,2.27c-.84.67-1.66,1.3-2.49,1.91a23.66,23.66,0,0,0-2.22,1.75,3.27,3.27,0,0,0-.74,1,2.58,2.58,0,0,0-.21,1.56l.55-.56a49.13,49.13,0,0,0,8.4-.43,36.53,36.53,0,0,0,5.43-1.12,14.8,14.8,0,0,0,4.65-2.47,20.2,20.2,0,0,0,3.8-3.87,25.54,25.54,0,0,0,2.86-4.7,10.16,10.16,0,0,0,.53-1.25,11.47,11.47,0,0,0,.43-1.29c.27-.88.49-1.8.71-2.73l1.23-5.62c.81-3.76,1.61-7.54,2.58-11.29a113.69,113.69,0,0,1,3.47-11.08,48.6,48.6,0,0,1,5.15-10.36c-3.71,6.78-5.64,14.28-7.19,21.77-.78,3.72-1.42,7.46-2.06,11.22a311.75,311.75,0,0,0,33.14,5.43c21.5,2.29,43.67,2.36,64.81-2.68a87,87,0,0,0,8.66-2.58c0-.15-.06-.3-.08-.46-.62-3.71-.81-7.39-1.24-11-.21-1.8-.51-3.62-.79-5.44s-.56-3.63-.93-5.41a32.2,32.2,0,0,0-1.72-5.19c-.65-1.72-1.25-3.46-1.84-5.21.73,1.69,1.47,3.37,2.26,5a32.69,32.69,0,0,1,2.07,5.16c.49,1.8.88,3.6,1.28,5.4s.8,3.6,1.12,5.44c.62,3.66,1,7.33,1.72,10.85a31.16,31.16,0,0,0,1.51,5.12,26.77,26.77,0,0,0,2.44,4.69,20.16,20.16,0,0,0,7.49,7,12.37,12.37,0,0,0,2.34.92c.8.24,1.7.43,2.56.61a44.88,44.88,0,0,0,5.31.72,51.54,51.54,0,0,0,5.7.11l.55.56a2.47,2.47,0,0,0-.21-1.55,3,3,0,0,0-.73-1,22.31,22.31,0,0,0-2.23-1.76c-.83-.61-1.65-1.24-2.49-1.9a29.91,29.91,0,0,1-2.61-2.28,7.41,7.41,0,0,1,3.66.16,10.06,10.06,0,0,1,3.24,1.62,7.13,7.13,0,0,1,2.47,3,3.62,3.62,0,0,1,.16,2.18,2.79,2.79,0,0,1-.44.92,33.9,33.9,0,0,0,3.54-.4,20,20,0,0,0,4.87-1.58,11.92,11.92,0,0,0,1.48-.83l.45.38a12.87,12.87,0,0,0-1.91-3,9.24,9.24,0,0,0-2.27-1.92c-.84-.44-1.93-.89-3.05-1.51a13.55,13.55,0,0,1-3.14-2.28,13.28,13.28,0,0,1,3.89.05,12.23,12.23,0,0,1,1.87.39,8,8,0,0,1,2,.77,6.61,6.61,0,0,1,2.79,3.37,5.47,5.47,0,0,1,.23,3.12,6,6,0,0,0,1.3-1.42,3.72,3.72,0,0,0,.57-1.85,2,2,0,0,0-.11-.84,1.94,1.94,0,0,0-.41-.72c-.78-.95-2.47-1.65-4.13-2.29a21.18,21.18,0,0,1-5.33-2.59,7.8,7.8,0,0,1-1.23-1.21,4.68,4.68,0,0,1-.88-1.72,9.08,9.08,0,0,1-.27-1.57c-.06-.52-.09-1-.1-1.48a106,106,0,0,1,.44-11.19c.28-3.69.68-7.36,1.13-11,.89-7.33,2-14.62,3.49-21.86.76-3.62,1.59-7.22,2.61-10.77a54.15,54.15,0,0,1,1.74-5.27,23,23,0,0,1,1.16-2.52,7.54,7.54,0,0,1,1.67-2.21,7.18,7.18,0,0,0-1.46,2.31,23.26,23.26,0,0,0-.95,2.57c-.55,1.74-1,3.52-1.4,5.31-.79,3.58-1.4,7.2-1.93,10.83-1.11,7.26-1.93,14.56-2.61,21.86-.33,3.65-.61,7.31-.84,11-.19,3.41-.35,6.87-.24,10.2,5.43.86,11.34.45,16.71.29A155.5,155.5,0,0,0,459,411.27c2.36-.36,4,0,2.58-2.3-1.6-2.7-4-4-6.93-5-2.41-.83-9.31-1-10.72-3.45-.77-1.35.08-2.06,1-2.95,1.35-1.35,4-2.21,5.61-3.24q3-1.89,5.8-4.06A69.65,69.65,0,0,0,475.15,368c9-16.73,10.94-36.34,9.18-55-2.25-23.75-9.26-47.37-17.28-69.75C458.4,219.12,447.66,195.75,436.22,172.78Z"/><path d="M529.73,207.84c8.85-7.68,19.57-15.8,15.94-28-1.7-5.72-6.62-8.35-11.7-4.89a103.25,103.25,0,0,1-16.68,9.74c-12.8,5.63-26.71,9.41-38.53,17.08-5.91,3.84-10.17,9-14.73,14.27-1,1.15-2,2.31-3,3.47q-3.48-8.4-7.21-16.69c-5.4-12-11.15-23.88-17.06-35.65-3.59-7.14-7.17-14.26-11.28-21.07a62.67,62.67,0,0,0,38.87-23.89c12.35-16,18.53-36.31,21.64-56.07A201.82,201.82,0,0,0,488.44,37c.11-8.93-.49-24.09-12.77-24.4-4.85-.13-7.8,3.44-10.23,7.2a72,72,0,0,1-13.68,16.33c-11.52,9.95-25.13,17.4-38.35,24.81-12.89,7.22-38.13,18.71-38.69,36.3a104.85,104.85,0,0,0-11.88-5.38,24.77,24.77,0,0,0-.43-4.46,27.09,27.09,0,0,0-3.05-8.4L358,76.67l.08,2.73a25.56,25.56,0,0,1-1.1,8.39,11,11,0,0,1-4.94-9.54c0-1.06.17-2.17.24-3.35a17.85,17.85,0,0,0-.18-3.64,19.27,19.27,0,0,0-2.56-6.78A24.77,24.77,0,0,0,345,59a32,32,0,0,0-5.8-4.05,68.35,68.35,0,0,0-12.8-5.17l-2.65-.84.77,2.66c1,3.35,1.94,6.67,1.35,9.67a9,9,0,0,1-2,4.05,23,23,0,0,1-3.7,3.3c-.69.54-1.4,1.08-2.11,1.66s-1.42,1.25-2,1.82l-1.95,1.78a9.89,9.89,0,0,0-1.94,2.28,6.34,6.34,0,0,0-.82,3.1,18.32,18.32,0,0,0,.23,2.83,15,15,0,0,1,.27,2.42,2.42,2.42,0,0,1-.24,1.1A32,32,0,0,0,305,83.45a31.08,31.08,0,0,0-7.75-.64l-1.15,0,.6.94a25.68,25.68,0,0,1,1.86,3.75l1.65,4c.16.38.33.76.5,1.14a93.67,93.67,0,0,0-18.82,11.21c-11.3-8.45-26.06-11-39.92-11.68-18.14-.92-36.86,1.16-54.42-4.54-7.55-2.45-26.62-16.9-29.39-1.22-2.57,14.48,7.21,28.88,16.08,39.23,10.17,11.88,21.18,23.69,34.15,32.56a81.83,81.83,0,0,0,23,11q-2.24,4.14-4.37,8.28A381.09,381.09,0,0,0,207.45,222a86.7,86.7,0,0,0-9.87-6c-13.07-6.82-27.58-10.27-41.24-15.66a84.08,84.08,0,0,1-20.41-11.08c-4.05-3.09-8.47-4.25-11.71.75-4,6.15-1.2,14.22,2.69,19.62,3.27,4.54,7.74,7.89,12,11.48-8.26-4-18.2-6.88-16.75,3.22,1,6.72,4.66,12.26,9.39,17a1.61,1.61,0,0,0-1.27,1.47c-1.54,16.27,9.34,26.13,21.64,34.63,11.33,7.82,23.53,15.64,36.32,21.39-3,20.23-4.54,42.17.38,61.87a50,50,0,0,1-16.69,2.49c-12.78-.26-33.64-7-27.82-23.84a11.41,11.41,0,0,1,2.1-3.95c2.55-2.9,4.87-2.42,8.42-2.14,2,.16,3.94.23,5.31-1.43,2.56-3.08-.38-7.88-2.83-10-4-3.56-10.88-2.62-15.66-1.49a28.53,28.53,0,0,0-14.78,8.82c-7.53,8.42-13.09,23.06-10,34.28,3.73,13.59,17,23.44,30.14,26.94,17.12,4.57,34.83-.1,49.75-9.64.43.75.87,1.51,1.34,2.25a54,54,0,0,0,16.38,16.7,55.16,55.16,0,0,0,5.29,3c.46.23,2,1.14,3.25,1.72l-.31.12c-1.79.63-3.6,1.17-5.38,1.82-3.43,1.25-9.1,3.22-6.82,8,1.87,3.92,8,4.81,11.71,5.39a118.29,118.29,0,0,0,20,1c1.44,0,3.44.1,5.43.05a3.08,3.08,0,0,1-.28.54,3.87,3.87,0,0,1-.71.76,20.67,20.67,0,0,1-4.78,2.37,17,17,0,0,0-2.82,1.43,5.88,5.88,0,0,0-2.43,2.87,6.54,6.54,0,0,0,2.08,6.77,12.26,12.26,0,0,0,2.67,1.89A18.4,18.4,0,0,0,244,438.6a23.66,23.66,0,0,0,3,.83,25.21,25.21,0,0,0,3,.45,49.12,49.12,0,0,0,11.87-.35,37.6,37.6,0,0,0,5.85-1.33,17.61,17.61,0,0,0,5.44-3,25.18,25.18,0,0,0,7.16-9.67,18.39,18.39,0,0,0,1-2.9c.26-1,.46-1.92.65-2.88s.38-1.91.55-2.87c22.32,4.83,45.28,7.68,68.13,6.78a160.59,160.59,0,0,0,32.59-4.44q3.58-.9,7.13-2a28.54,28.54,0,0,0,3.1,7.12,21.83,21.83,0,0,0,8.26,8.09,16,16,0,0,0,2.77,1.15c1,.3,1.85.5,2.79.72a48.43,48.43,0,0,0,5.61.87,45.93,45.93,0,0,0,11.4-.31,23.5,23.5,0,0,0,5.61-1.79,14.43,14.43,0,0,0,2.62-1.57,8.93,8.93,0,0,0,2.26-2.39,6.76,6.76,0,0,0,1-3.36,5.15,5.15,0,0,0-1.23-3.54,8.45,8.45,0,0,0-2.67-2c-.92-.45-1.82-.8-2.69-1.13a19.29,19.29,0,0,1-4.6-2.15,4.45,4.45,0,0,1-.73-.7,1.86,1.86,0,0,1-.38-.72l0-.13.84.08a142.66,142.66,0,0,0,20.88,0c5.57-.3,11.92-.22,17.32-1.85,3.77-1.13,2.9-4.86.85-7.65-3.27-4.44-9.46-5.46-14.47-6.64l-.43-.13c.93-.58,1.95-1.33,2.33-1.56a76.79,76.79,0,0,0,11.87-8.8c14-12.68,21.86-30.39,24.32-48.94s-.3-37.32-4.56-55.49a252.38,252.38,0,0,0,36.52-21.84c11.52-8.13,20.78-18,19.35-33a1.61,1.61,0,0,0-1.26-1.47c4.72-4.74,8.42-10.28,9.38-17C547.84,201,538,203.83,529.73,207.84,411.66,65.33c19.42-10.7,43.16-22.11,55-41.75,1.23-2,2.44-4.35,4.2-6,3.82-3.55,9-1.77,11.77,2.16,3.57,5.06,2.9,12.43,2.8,18.33a197.31,197.31,0,0,1-2.23,26.7c-2.67,17.28-7.62,34.72-17,49.61-9.88,15.65-24.59,26.07-42.37,29-1.18-1.86-2.39-3.7-3.68-5.51-11.19-15.68-25.56-29.39-42.35-38.95C376.77,82.86,400.06,71.72,411.66,65.33,195.07,143.48c-9.88-9.44-20.37-20-27.46-31.72-3.85-6.37-6.52-13.48-6.71-21-.14-5.56,2.32-10,8.21-8.18,2.79.87,5.29,2.52,7.87,3.86,12.82,6.63,27.17,8.05,41.38,8.32,17,.32,34.79-.86,50.91,5.52a45.83,45.83,0,0,1,10.11,5.51,121.14,121.14,0,0,0-12.24,11.42c-13.68,14.63-24.79,31.87-34.47,49.52l-.34-.1C218.13,162.36,205.7,153.65,195.07,143.48,158,278c-12.22-8.08-25.06-16.93-24.9-32.65l12.45,7.16c1.7,1,2.59,0,1-1.09-7.46-5.16-15.07-12.4-19.28-20.71-.89-1.75-2.37-4.69-2.2-6.76.37-4.37,4.33-3.13,7.39-2.08,5.12,1.75,11.38,3.27,15.85,6.29,1.19.81,1.46.15.55-1-5-6.62-12.23-10.74-17.7-16.87-3.31-3.71-6.26-8.73-5.9-13.88s3.88-8.41,8.49-5c1.22.92,2.4,1.87,3.67,2.74,13,8.92,28.86,12.8,43.52,18.08a107.42,107.42,0,0,1,25.36,12.92c-2.52,7.11-4.86,14.29-7,21.54q-5.13,17.84-8.5,36.1c-.77,4.2-1.52,8.54-2.22,13C178,290.79,167.71,284.36,158,278,-8.11,110c-15.58-3.29-33.84-17.21-30.75-35,2.29-13.24,9.54-27,23.75-30,3.6-.74,8.9-1.56,12,.87a7.7,7.7,0,0,1,1.27,1.46c1.61,2,1.87,2.08-.52,3.5s-2.87.58-5.19.77c-4.54.38-7.57,4.21-9.07,8.18-2.05,5.43-1.81,11.44,1.51,16.31,7.44,10.9,24,13.06,36,11.74a50,50,0,0,0,10.38-2.25,77.57,77.57,0,0,0,5.72,14.46C181.55,386.79,165.6,391.31,149.93,388,334.4-75c1.76,18.66-.22,38.27-9.18,55a69.65,69.65,0,0,1-18.82,22.21q-2.81,2.17-5.8,4.06c-1.64,1-4.26,1.89-5.61,3.24-.89.89-1.74,1.6-1,2.95,1.41,2.48,8.31,2.62,10.72,3.45,2.95,1,5.33,2.32,6.93,5,1.37,2.3-.22,1.94-2.58,2.3a155.5,155.5,0,0,1-19.16,1.46c-5.37.16-11.28.57-16.71-.29-.11-3.33.05-6.79.24-10.2.23-3.65.51-7.31.84-11,.68-7.3,1.5-14.6,2.61-21.86.53-3.63,1.14-7.25,1.93-10.83.4-1.79.85-3.57,1.4-5.31a23.26,23.26,0,0,1,.95-2.57,7.18,7.18,0,0,1,1.46-2.31,7.54,7.54,0,0,0-1.67,2.21,23,23,0,0,0-1.16,2.52A54.15,54.15,0,0,0,428,358.4c-1,3.55-1.85,7.15-2.61,10.77-1.46,7.24-2.6,14.53-3.49,21.86-.45,3.67-.85,7.34-1.13,11a106,106,0,0,0-.44,11.19c0,.47,0,1,.1,1.48a9.08,9.08,0,0,0,.27,1.57,4.68,4.68,0,0,0,.88,1.72,7.8,7.8,0,0,0,1.23,1.21,21.18,21.18,0,0,0,5.33,2.59c1.66.64,3.35,1.34,4.13,2.29a1.94,1.94,0,0,1,.41.72,2,2,0,0,1,.11.84,3.72,3.72,0,0,1-.57,1.85,6,6,0,0,1-1.3,1.42,5.47,5.47,0,0,0-.23-3.12,6.61,6.61,0,0,0-2.79-3.37,8,8,0,0,0-2-.77,12.23,12.23,0,0,0-1.87-.39,13.28,13.28,0,0,0-3.89-.05,13.55,13.55,0,0,0,3.14,2.28c1.12.62,2.21,1.07,3.05,1.51a9.24,9.24,0,0,1,2.27,1.92,12.87,12.87,0,0,1,1.91,3l-.45-.38a11.92,11.92,0,0,1-1.48.83,20,20,0,0,1-4.87,1.58,33.9,33.9,0,0,1-3.54.4,2.79,2.79,0,0,0,.44-.92,3.62,3.62,0,0,0-.16-2.18,7.13,7.13,0,0,0-2.47-3,10.06,10.06,0,0,0-3.24-1.62,7.41,7.41,0,0,0-3.66-.16,29.91,29.91,0,0,0,2.61,2.28c.84.66,1.66,1.29,2.49,1.9a22.31,22.31,0,0,1,2.23,1.76,3,3,0,0,1,.73,1,2.47,2.47,0,0,1,.21,1.55l-.55-.56a51.54,51.54,0,0,1-5.7-.11,44.88,44.88,0,0,1-5.31-.72c-.86-.18-1.76-.37-2.56-.61a12.37,12.37,0,0,1-2.34-.92,20.16,20.16,0,0,1-7.49-7,26.77,26.77,0,0,1-2.44-4.69,31.16,31.16,0,0,1-1.51-5.12c-.76-3.52-1.1-7.19-1.72-10.85-.32-1.84-.74-3.64-1.12-5.44s-.79-3.6-1.28-5.4a32.69,32.69,0,0,0-2.07-5.16c-.79-1.67-1.53-3.35-2.26-5,.59,1.75,1.19,3.49,1.84,5.21a32.2,32.2,0,0,1,1.72,5.19c.37,1.78.65,3.6.93,5.41s.58,3.64.79,5.44c.43,3.62.62,7.3,1.24,11,0,.16.06.31.08.46a87,87,0,0,1-8.66,2.58c-21.14,5-43.31,5-64.81,2.68A311.75,311.75,0,0,1,283,413.93c.64-3.76,1.28-7.5,2.06-11.22,1.55-7.49,3.48-15,7.19-21.77a48.6,48.6,0,0,0-5.15,10.36,113.69,113.69,0,0,0-3.47,11.08c-1,3.75-1.77,7.53-2.58,11.29l-1.23,5.62c-.22.93-.44,1.85-.71,2.73a11.47,11.47,0,0,1-.43,1.29,10.16,10.16,0,0,1-.53,1.25,25.54,25.54,0,0,1-2.86,4.7,20.2,20.2,0,0,1-3.8,3.87,14.8,14.8,0,0,1-4.65,2.47,36.53,36.53,0,0,1-5.43,1.12,49.13,49.13,0,0,1-8.4.43l-.55.56a2.58,2.58,0,0,1,.21-1.56,3.27,3.27,0,0,1,.74-1,23.66,23.66,0,0,1,2.22-1.75c.83-.61,1.65-1.24,2.49-1.91a28.12,28.12,0,0,0,2.61-2.27,7.41,7.41,0,0,0-3.66.16,9.91,9.91,0,0,0-3.23,1.62,7.07,7.07,0,0,0-2.48,3,3.62,3.62,0,0,0-.16,2.18,2.7,2.7,0,0,0,.44.9c-.47,0-.94,0-1.4-.09a22.4,22.4,0,0,1-2.68-.41,19.2,19.2,0,0,1-2.59-.75,14.81,14.81,0,0,1-3.2-1.55l-.47.39a12.66,12.66,0,0,1,1.91-3,9.26,9.26,0,0,1,2.27-1.93c.84-.44,1.93-.89,3.05-1.5a13.39,13.39,0,0,0,3.14-2.29,13.64,13.64,0,0,0-3.89.05,12.49,12.49,0,0,0-1.87.39,8.4,8.4,0,0,0-2,.78,6.58,6.58,0,0,0-2.79,3.36,5.49,5.49,0,0,0-.23,3.1c-.14-.12-.29-.22-.41-.33a5.1,5.1,0,0,1-1.25-1.77l-.14-.48a4.84,4.84,0,0,1-.06-.5,2.07,2.07,0,0,1,.1-.85c.29-1,1.9-1.9,3.6-2.61a21.79,21.79,0,0,0,5.48-2.84,6.49,6.49,0,0,0,1.25-1.35A5.41,5.41,0,0,0,250,422c.07-.15.14-.31.19-.45l.12-.39a14.12,14.12,0,0,0,.56-3.14c.15-2,.09-4,.08-5.9s-.05-3.84,0-5.76c0-3.85,0-7.71-.09-11.58a136.23,136.23,0,0,0-2.23-23.12,57.16,57.16,0,0,0-3.39-11.15,22.82,22.82,0,0,0-6.83-9.28A18.55,18.55,0,0,1,242,355.7a30.07,30.07,0,0,1,2.47,5.15,55.65,55.65,0,0,1,2.69,11.1,152.15,152.15,0,0,1,1.34,22.9c0,3.83-.13,7.67-.2,11.52,0,1.93-.06,3.87-.07,5.8s0,3.69-.15,5.43c-1,0-1.89,0-2.42,0a157,157,0,0,1-17.62-.25c-2.76-.22-14.46-.57-15.16-4.64-.63-3.65,11.48-4.84,13.88-6.69,4.66-3.6-6.26-6.19-8.4-7.4-30.15-17.1-31.4-57.31-28.46-87.76.89-9.15,2.28-18.24,3.92-27.28a378,378,0,0,1,52.48-133.67c12.3-19.3,26.81-38.34,46.84-50.13A77.77,77.77,0,0,1,302,95.31l.37-.16c-.55-1.28-1-2.58-1.49-3.89l-1.37-4.07c-.36-1-.71-2-1.17-3a32.31,32.31,0,0,1,6.28,1,31.5,31.5,0,0,1,6.87,2.68l.55.29.55-.39a3.44,3.44,0,0,0,1.15-1.47,5.09,5.09,0,0,0,.35-1.64,15.62,15.62,0,0,0-.19-2.83c-.18-1.68-.26-3.33.45-4.36A23.06,23.06,0,0,1,317.83,74c.69-.63,1.27-1.15,1.94-1.68s1.36-1,2.07-1.55a25.69,25.69,0,0,0,4.22-3.64,11.64,11.64,0,0,0,2.63-5.33,15.58,15.58,0,0,0,0-5.78c-.16-.88-.35-1.73-.56-2.57a60.88,60.88,0,0,1,9.68,4,25.43,25.43,0,0,1,9.46,8.43,16.26,16.26,0,0,1,2.34,5.77,15.11,15.11,0,0,1,.21,3.1c0,1.07-.12,2.21-.11,3.42a13.07,13.07,0,0,0,7.45,11.83l1,.46.31-1a26.86,26.86,0,0,0,1.16-7.44,26.63,26.63,0,0,1,2.11,5.49,27.81,27.81,0,0,1,.84,7.34l.23.12c14.62,5.73,27.84,15,39,25.95,15.25,15,25,32.88,34.45,51.82,11.44,23,22.18,46.34,30.83,70.51C475.07,265.67,482.08,289.29,484.33,313,56.87-95.58c-4.2,8.3-11.81,16-19.27,21.2-1.57,1.09-1.18,1.07.51.09,4.16-2.38,8.81-4.27,13-6.66.15,14.36-10.53,22.89-21.81,30.58a269,269,0,0,1-31.92,18.74q-.68-2.81-1.4-5.58a418.08,418.08,0,0,0-18-53.44c3.32-3.9,6.74-7.72,10.15-11.44,15.83-17.27,42.73-18.22,61.14-31.85,2.22-1.65,4.2-4.21,7.52-1.67,2.2,1.68,2.35,5.9,2,8.37-.68,4.73-3.46,8.93-6.76,12.28-5.41,5.5-11.95,10.56-16.66,16.77-.91,1.21-.64,1.36.56.56,4.24-2.87,10.23-4.79,15.07-6.52a16.23,16.23,0,0,1,3.93-1.26c1.43-.08,3.79-.17,4.42,1.84S541.94,216,541.2,217.46Z"/>            </clipPath>        </defs>        <g clip-path="url(#outline)">            <rect fill="#FCD4D4" width="640" height="480" />        </g>    </g>    <g id="pattern">        <g clip-path="url(#outline)">            <path fill="#B6EAFF" opacity="0"  d="M215,219.54s-7.45,9.69-3.88,19.35C211.13,238.89,218.45,230.11,215,219.54Z"/><path fill="#B6EAFF" opacity="0"  d="M208.11,258.06S198,271,202.64,284C202.64,284,212.6,272.3,208.11,258.06Z"/><path fill="#B6EAFF" opacity="0"  d="M228.37,254.42s-8.34,9.82-5.08,20.19C223.29,274.61,231.46,265.73,228.37,254.42Z"/><path fill="#B6EAFF" opacity="0"  d="M261.15,201.79s-9.82,13.15-4.84,26.08C256.31,227.87,266,215.92,261.15,201.79Z"/><path fill="#B6EAFF" opacity="0"  d="M218.79,175.19s-6.65,7.75-4.11,16C214.68,191.16,221.19,184.16,218.79,175.19Z"/><path fill="#B6EAFF" opacity="0"  d="M272.75,265.94s-6.89,12.06-1.38,22.4C271.37,288.34,278.26,277.31,272.75,265.94Z"/><path fill="#B6EAFF" opacity="0"  d="M255.88,287.12s-8.15,14.25-1.63,26.47C254.25,313.59,262.39,300.56,255.88,287.12Z"/><path fill="#B6EAFF" opacity="0"  d="M313.3,306.26s-8.14,14.26-1.63,26.48C311.67,332.74,319.82,319.7,313.3,306.26Z"/><path fill="#B6EAFF" opacity="0"  d="M299.05,224s-8.15,14.26-1.63,26.47C297.42,250.46,305.56,237.43,299.05,224Z"/><path fill="#B6EAFF" opacity="0"  d="M353,252s-5.58,15.45,2.94,26.36C355.91,278.37,361.69,264.14,353,252Z"/><path fill="#B6EAFF" opacity="0"  d="M330,261.87s-8.14,14.25-1.63,26.47C328.37,288.34,336.52,275.31,330,261.87Z"/><path fill="#B6EAFF" opacity="0"  d="M367.51,204.23s-4.46,15.8,4.81,26.08C372.32,230.31,377.08,215.7,367.51,204.23Z"/><path fill="#B6EAFF" opacity="0"  d="M380.34,255.86s-5.2,15.57,3.59,26.28C383.93,282.14,389.36,267.76,380.34,255.86Z"/><path fill="#B6EAFF" opacity="0"  d="M350.71,311s-3.51,11.95,3.45,19.83C354.16,330.84,357.88,319.79,350.71,311Z"/><path fill="#B6EAFF" opacity="0"  d="M410.39,256.28s-5.09,15.61,3.77,26.25C414.16,282.53,419.49,268.12,410.39,256.28Z"/><path fill="#B6EAFF" opacity="0"  d="M447.22,257.28s-3.82,16,5.86,25.87C453.08,283.15,457.24,268.36,447.22,257.28Z"/><path fill="#B6EAFF" opacity="0"  d="M426.9,165.55s-4.38,15.83,5,26.06C431.86,191.61,436.53,177,426.9,165.55Z"/><path fill="#B6EAFF" opacity="0"  d="M402.79,206.68s-3.18,12.48,4.3,20.37C407.09,227.05,410.53,215.49,402.79,206.68Z"/><path fill="#B6EAFF" opacity="0"  d="M436.39,217.89s-2.63,9.65,3.08,15.87C439.47,233.76,442.29,224.83,436.39,217.89Z"/><path fill="#B6EAFF" opacity="0"  d="M460,234.58s-2.65,9.65,3,15.88C463.07,250.46,465.91,241.54,460,234.58Z"/><path fill="#B6EAFF" opacity="0"  d="M332.23,205.55s-6,10.43-1.2,19.36C331,224.91,337,215.38,332.23,205.55Z"/>            <g opacity="0.6" ><path fill="#606060"  d="M285.32,418.84c2.41-25.61,25.87-48.92,49.26-49.49,24.85-.61,50.32,18.62,52.82,48.11.13,1.49,1.19.46,0,1.63-1.41,1.32-6.66,1.94-9.64,2.8-14.1,4.06-27.6,4.48-43.78,4.36-16.48-.12-33.16-4.21-48.14-7.41"/></g>        </g>    </g>    <g id="mask">        <g opacity="0.2" ><path d="M190.92,136.34c13.84,13.42,28.43,21.15,45.92,27.84.25-3.65,2.94-7.2,4.83-10.07,2.57-3.9,4.15-8.24,6.76-12.13,3-4.45,6.5-9.89,11.08-12.95a86,86,0,0,0-12.73-7c-11.15-4.87-22.71-5.08-34.5-7.1a178.72,178.72,0,0,1-21.17-5c-5.49-1.65-12.61-6-18.28-6.08a3,3,0,0,0-3,3C170.12,116.53,185.54,131.13,190.92,136.34Z"/></g><g opacity="0.2" ><path d="M423.51,143.16a6.74,6.74,0,0,0,2.78-.48c1.35-.64,1.7-2.59,3-3.37a95.19,95.19,0,0,0,44-58.43c3.93-15.12,11.13-37.14-.43-50.57C463.77,40.52,458.56,53.83,449,63.66c-9.19,9.48-21.62,15-32.68,22.17-9.88,6.45-19.29,15.42-22.08,26.63,4.89,5.14,10.38,9.64,15.41,14.63s8.42,10.87,13,16.06C423,143.16,423.22,143.17,423.51,143.16Z"/></g><path fill="#fff"  d="M529.72,207.84c8.86-7.68,19.58-15.8,15.95-28-1.7-5.72-6.62-8.35-11.7-4.89a103.25,103.25,0,0,1-16.68,9.74c-12.8,5.63-26.71,9.41-38.53,17.08-5.91,3.83-10.17,9-14.73,14.27q-1.71,2-3.4,4a4.88,4.88,0,0,1,.67,2.57c0,.34,0,.67,0,1,2.72,3,3.63,7.24,4.62,11.11.87,3.38,1.83,6.71,2.8,10a5.11,5.11,0,0,1,1,1.82c2.1,6.8,6,12.84,6.27,20.09a16.46,16.46,0,0,1,2.62,5.88,5.79,5.79,0,0,1-.78,4.07c1,2.86,1.91,5.74,2.8,8.68a248,248,0,0,0,38.28-22.68c11.52-8.13,20.78-18,19.35-33A1.63,1.63,0,0,0,537,228.1c4.72-4.73,8.42-10.27,9.38-17C547.84,201,538,203.83,529.72,207.84Zm1.68,42.72c-2.49,2.24-5.57,3.69-8.48,5.37-7.66,4.43-14.21,10.51-21.34,15.75s-9.12,9.51-17.95,10.11a4.49,4.49,0,0,1-2.13-.24c-2.38-1.11,4.25.57,6.52-.75,23.26-13.52,44.43-22.52,48.52-44.71C535.5,241.27,535.57,246.83,531.4,250.56Z"/><path fill="#fff"  d="M190.87,291.09c0,.15-.07.3-.11.46C190.8,291.39,190.83,291.24,190.87,291.09Z"/><path fill="#fff"  d="M190.13,294.7c0,.17,0,.35-.07.52C190.08,295.05,190.1,294.87,190.13,294.7Z"/><path fill="#fff"  d="M189.58,296.83c-8.83-.6-13.74-4.59-20.87-9.84S155,275.67,147.36,271.24c-2.9-1.68-6-3.13-8.48-5.37-.85-.76-1.86-1.64-2.81-2.6,4.05,5.45,9.77,10,15.83,14.16,11.8,8.15,24.56,16.3,37.93,22.1a19.92,19.92,0,0,1,.09-3.16c0,.1,0,.2,0,.3A.29.29,0,0,1,189.58,296.83Z"/><path fill="#fff"  d="M207.23,227.7c.26-1,.51-2,.78-3a5.16,5.16,0,0,1,.77-1.69,87.13,87.13,0,0,0-11.2-7c-13.07-6.83-27.58-10.27-41.24-15.66a84.08,84.08,0,0,1-20.41-11.08c-4.05-3.09-8.47-4.25-11.71.75-4,6.15-1.21,14.22,2.69,19.62,3.27,4.54,7.74,7.89,12,11.48-8.26-4-18.2-6.88-16.75,3.22,1,6.72,4.66,12.26,9.39,17a1.61,1.61,0,0,0-1.27,1.47,28.2,28.2,0,0,0,2.64,15.28,4.35,4.35,0,0,1,0-1l1.5,3.92c10.62,11.52,38.18,32.28,55.5,35.69.41.09,1.14-7.32,1.34-6.94a1,1,0,0,0,0,.17c.51-1.91,1-3.6,1.42-4.79a.05.05,0,0,1,0,0,267.81,267.81,0,0,1,14.48-57Z"/><path fill="#fff"  d="M190.47,292.85c0,.18-.07.35-.11.53C190.4,293.2,190.43,293,190.47,292.85Z"/><g opacity="0.1" ><path d="M480.33,343.55c-1.82,3.4-3.69,6.77-5.68,10.08a107.84,107.84,0,0,1-13.23,18.12,62.92,62.92,0,0,1-11.06,9.47,61.09,61.09,0,0,1-6.25,3.66,33.52,33.52,0,0,1-5.53,2.51c-4,1.16-6.15-2.21-7.33-5.52a39.79,39.79,0,0,1-2.34-17.54,119.55,119.55,0,0,1,2.55-14.42l-1.94,4.49c-3.07,11.13-4.58,22.56-6,34a4.76,4.76,0,0,0,.26,2.2,3.1,3.1,0,0,0-.87.73c-2.06,2.51-.7,11.1-.82,14.3a.68.68,0,0,0,.09.45c.16.19.46.14.7.08a107.25,107.25,0,0,0,24.46-9.44,72.78,72.78,0,0,0,23.62-20.58c3.19-4.31,6.59-9,8.39-14.1,3.1-8.71,6.71-17.84,5.44-27C485,336.75,481.26,341.82,480.33,343.55Z"/></g><g opacity="0.1" ><path d="M389.58,402.28c-5.28,1.25-9.81,4.43-15.11,5.67a159.14,159.14,0,0,1-19.42,2.95c-22,2.28-44.36.82-66.17-2.85-1.83-5.46-1.1-11.69-.07-17.21.53-2.84,2-6.43,2.63-8.76-.35.47-.68,1-1,1.49a6.69,6.69,0,0,1-.66,2.49,12.9,12.9,0,0,1-1.36,2.33c-1.72,4.17-2.05,8.66-3,13-1.06,4.62-2.89,9-3.85,13.65q2.63.57,5.13,1.17c14.89,5.54,32.72,6.73,47.93,6.86,15.66.12,34.69-1.09,45-4.91,2.86-1.06,9.11-1.62,10.47-3.06,1.21-1.26-.64-1.68-.77-3.29C388.57,402.52,389.58,402.28,389.58,402.28Z"/></g><g opacity="0.1" ><path d="M267.44,141.52c10.77-16.34,18.69-32.74,33.67-45.33-23.63,13.11-39.09,27.13-54.25,52.63-14.37,24.18-29.63,52.92-39.63,78.88l-.13.34a267.81,267.81,0,0,0-14.48,57q-1.78,12.1-2.77,24.32c-1.55,18.79-2.14,43.32,5.59,62.64-16.67,9.88-37.46,17-54.49,6.48-27.5-17-13.92-45.72-13.92-45.72-4.27,5.38-6.39,7.66-8.46,20.59-1.9,11.88,7.22,23.3,16.78,29.36,16.52,10.47,36.17,8.7,53.27.83a60.94,60.94,0,0,0,9.53-5.66,50.22,50.22,0,0,0,6.42,9.51c10,11.56,21.38,19,39.1,21.26l5.4.72a82.94,82.94,0,0,0,.22-9.46,5.37,5.37,0,0,1,.11-1.09c-16.75-5.93-31.59-19.15-38.9-35.17-4-8.82-6.13-18.92-6.18-30.43-.13-27.62,3.21-61,10.78-87.26C226,208.23,245.69,174.5,267.44,141.52Z"/></g><g opacity="0.1" ><path d="M190.54,288.66c-15-19.17-43.77-18.1-58.8-37.26l1.14,5.66a4.35,4.35,0,0,0,0,1c.24,1.84,1.62,3.62,3.17,5.19,1,1,2,1.84,2.81,2.6,2.5,2.24,5.58,3.69,8.48,5.37,7.66,4.43,14.22,10.51,21.35,15.75s12,9.24,20.87,9.84a.29.29,0,0,0,.3-.16c0-.1,0-.2,0-.3,0-.38.08-.77.14-1.15,0-.17,0-.35.07-.52.07-.44.15-.88.23-1.32,0-.18.07-.35.11-.53.09-.44.19-.88.29-1.3,0-.16.07-.31.11-.46.1-.41.2-.8.31-1.19a1,1,0,0,1,0-.17A7.78,7.78,0,0,0,190.54,288.66Z"/></g><g opacity="0.1" ><path d="M479.7,272.94c-1.62,2.07-.58,7.5,1.8,8.61a4.49,4.49,0,0,0,2.13.24c8.83-.6,10.82-4.87,17.95-10.11s13.68-11.32,21.34-15.75c2.91-1.68,6-3.13,8.48-5.37,4.17-3.73,4.1-9.29,5.14-14.47C521.52,255.25,494.71,253.77,479.7,272.94Z"/></g>        <g opacity="0.1" ><path fill="#fff"  d="M379.9,103.06c6.06,5.3,10.42,13.69,14.49,20.51,4.46,7.47,8.88,15,13.37,22.42,13,21.7,26.15,43.75,37,66.65a328.37,328.37,0,0,1,23.41,68.9c2.75,12.34,4.9,24.8,6.59,37.33,1.4,10.34,4.07,22.69-2.47,31.88,4.28-6,9.86-10.61,11.34-14.66,5.27-14.38.19-32.18-2.49-46.67-5.44-29.5-15.47-57.88-26.93-85.53-11.28-27.21-25.53-53.07-44.83-75.49C393.13,109.56,380.12,103.25,379.9,103.06Z"/></g>    </g>    <g id="outline">        <path fill="none"  d="M232.67,166.75c9.68-17.65,20.79-34.89,34.47-49.52a121.14,121.14,0,0,1,12.24-11.42,45.83,45.83,0,0,0-10.11-5.51c-16.12-6.38-33.92-5.2-50.91-5.52-14.21-.27-28.56-1.69-41.38-8.32-2.58-1.34-5.08-3-7.87-3.86-5.89-1.82-8.35,2.62-8.21,8.18.19,7.5,2.86,14.61,6.71,21,7.09,11.74,17.58,22.28,27.46,31.72,10.63,10.17,23.06,18.88,37.26,23.17Z"/><path fill="none"  d="M190.91,282.76q3.41-18.24,8.5-36.1c2.09-7.25,4.43-14.43,7-21.54A107.42,107.42,0,0,0,181,212.2c-14.66-5.28-30.51-9.16-43.52-18.08-1.27-.87-2.45-1.82-3.67-2.74-4.61-3.46-8.13,0-8.49,5s2.59,10.17,5.9,13.88c5.47,6.13,12.69,10.25,17.7,16.87.91,1.2.64,1.86-.55,1-4.47-3-10.73-4.54-15.85-6.29-3.06-1.05-7-2.29-7.39,2.08-.17,2.07,1.31,5,2.2,6.76,4.21,8.31,11.82,15.55,19.28,20.71,1.57,1.08.68,2.06-1,1.09l-12.45-7.16C133,261,145.82,269.89,158,278c9.67,6.39,19.94,12.82,30.65,17.76C189.39,291.3,190.14,287,190.91,282.76Z"/><path fill="none"  d="M179,365.86c-12,1.32-28.59-.84-36-11.74-3.32-4.87-3.56-10.88-1.51-16.31,1.5-4,4.53-7.8,9.07-8.18,2.32-.19,2.86.62,5.19-.77s2.13-1.51.52-3.5A7.7,7.7,0,0,0,155,323.9c-3.14-2.43-8.44-1.61-12-.87-14.21,2.92-21.46,16.71-23.75,30-3.09,17.82,15.17,31.74,30.75,35s31.62-1.22,45.17-9.94a77.57,77.57,0,0,1-5.72-14.46A50,50,0,0,1,179,365.86Z"/><path fill="none"  d="M420.12,137.87c1.29,1.81,2.5,3.65,3.68,5.51,17.78-2.92,32.49-13.34,42.37-29,9.41-14.89,14.36-32.33,17-49.61a197.31,197.31,0,0,0,2.23-26.7c.1-5.9.77-13.27-2.8-18.33-2.77-3.93-7.95-5.71-11.77-2.16-1.76,1.64-3,3.95-4.2,6-11.84,19.64-35.58,31.05-55,41.75-11.6,6.39-34.89,17.53-33.89,33.59C394.56,108.48,408.93,122.19,420.12,137.87Z"/><path fill="none"  d="M539.17,207.63a16.23,16.23,0,0,0-3.93,1.26c-4.84,1.73-10.83,3.65-15.07,6.52-1.2.8-1.47.65-.56-.56,4.71-6.21,11.25-11.27,16.66-16.77,3.3-3.35,6.08-7.55,6.76-12.28.36-2.47.21-6.69-2-8.37-3.32-2.54-5.3,0-7.52,1.67-18.41,13.63-45.31,14.58-61.14,31.85-3.41,3.72-6.83,7.54-10.15,11.44a418.08,418.08,0,0,1,18,53.44q.72,2.78,1.4,5.58a269,269,0,0,0,31.92-18.74c11.28-7.69,22-16.22,21.81-30.58-4.15,2.39-8.8,4.28-13,6.66-1.69,1-2.08,1-.51-.09,7.46-5.15,15.07-12.9,19.27-21.2.74-1.46,3-6.11,2.39-8S540.6,207.55,539.17,207.63Z"/><path fill="none"  d="M436.22,172.78c-9.43-18.94-19.2-36.84-34.45-51.82-11.16-11-24.38-20.22-39-25.95l-.23-.12a27.81,27.81,0,0,0-.84-7.34,26.63,26.63,0,0,0-2.11-5.49,26.86,26.86,0,0,1-1.16,7.44l-.31,1-1-.46a13.07,13.07,0,0,1-7.45-11.83c0-1.21.09-2.35.11-3.42a15.11,15.11,0,0,0-.21-3.1,16.26,16.26,0,0,0-2.34-5.77,25.43,25.43,0,0,0-9.46-8.43,60.88,60.88,0,0,0-9.68-4c.21.84.4,1.69.56,2.57a15.58,15.58,0,0,1,0,5.78,11.64,11.64,0,0,1-2.63,5.33,25.69,25.69,0,0,1-4.22,3.64c-.71.52-1.41,1-2.07,1.55s-1.25,1-1.94,1.68a23.06,23.06,0,0,0-3.52,3.39c-.71,1-.63,2.68-.45,4.36a15.62,15.62,0,0,1,.19,2.83,5.09,5.09,0,0,1-.35,1.64,3.44,3.44,0,0,1-1.15,1.47l-.55.39-.55-.29a31.5,31.5,0,0,0-6.87-2.68,32.31,32.31,0,0,0-6.28-1c.46,1,.81,2,1.17,3l1.37,4.07c.46,1.31.94,2.61,1.49,3.89l-.37.16a77.77,77.77,0,0,0-8.84,4.45c-20,11.79-34.54,30.83-46.84,50.13A378,378,0,0,0,193.8,283.56c-1.64,9-3,18.13-3.92,27.28-2.94,30.45-1.69,70.66,28.46,87.76,2.14,1.21,13.06,3.8,8.4,7.4-2.4,1.85-14.51,3-13.88,6.69.7,4.07,12.4,4.42,15.16,4.64a157,157,0,0,0,17.62.25c.53,0,1.45,0,2.42,0,.14-1.74.13-3.59.15-5.43s0-3.87.07-5.8c.07-3.85.18-7.69.2-11.52a152.15,152.15,0,0,0-1.34-22.9,55.65,55.65,0,0,0-2.69-11.1A30.07,30.07,0,0,0,242,355.7a18.55,18.55,0,0,0-3.62-4.43,22.82,22.82,0,0,1,6.83,9.28,57.16,57.16,0,0,1,3.39,11.15,136.23,136.23,0,0,1,2.23,23.12c.1,3.87.11,7.73.09,11.58,0,1.92,0,3.83,0,5.76s.07,3.86-.08,5.9a14.12,14.12,0,0,1-.56,3.14l-.12.39c-.05.14-.12.3-.19.45a5.41,5.41,0,0,1-.47.85,6.49,6.49,0,0,1-1.25,1.35,21.79,21.79,0,0,1-5.48,2.84c-1.7.71-3.31,1.61-3.6,2.61a2.07,2.07,0,0,0-.1.85,4.84,4.84,0,0,0,.06.5l.14.48a5.1,5.1,0,0,0,1.25,1.77c.12.11.27.21.41.33a5.49,5.49,0,0,1,.23-3.1,6.58,6.58,0,0,1,2.79-3.36,8.4,8.4,0,0,1,2-.78,12.49,12.49,0,0,1,1.87-.39,13.64,13.64,0,0,1,3.89-.05,13.39,13.39,0,0,1-3.14,2.29c-1.12.61-2.21,1.06-3.05,1.5a9.26,9.26,0,0,0-2.27,1.93,12.66,12.66,0,0,0-1.91,3l.47-.39a14.81,14.81,0,0,0,3.2,1.55,19.2,19.2,0,0,0,2.59.75,22.4,22.4,0,0,0,2.68.41c.46.05.93.06,1.4.09a2.7,2.7,0,0,1-.44-.9,3.62,3.62,0,0,1,.16-2.18,7.07,7.07,0,0,1,2.48-3,9.91,9.91,0,0,1,3.23-1.62,7.41,7.41,0,0,1,3.66-.16,28.12,28.12,0,0,1-2.61,2.27c-.84.67-1.66,1.3-2.49,1.91a23.66,23.66,0,0,0-2.22,1.75,3.27,3.27,0,0,0-.74,1,2.58,2.58,0,0,0-.21,1.56l.55-.56a49.13,49.13,0,0,0,8.4-.43,36.53,36.53,0,0,0,5.43-1.12,14.8,14.8,0,0,0,4.65-2.47,20.2,20.2,0,0,0,3.8-3.87,25.54,25.54,0,0,0,2.86-4.7,10.16,10.16,0,0,0,.53-1.25,11.47,11.47,0,0,0,.43-1.29c.27-.88.49-1.8.71-2.73l1.23-5.62c.81-3.76,1.61-7.54,2.58-11.29a113.69,113.69,0,0,1,3.47-11.08,48.6,48.6,0,0,1,5.15-10.36c-3.71,6.78-5.64,14.28-7.19,21.77-.78,3.72-1.42,7.46-2.06,11.22a311.75,311.75,0,0,0,33.14,5.43c21.5,2.29,43.67,2.36,64.81-2.68a87,87,0,0,0,8.66-2.58c0-.15-.06-.3-.08-.46-.62-3.71-.81-7.39-1.24-11-.21-1.8-.51-3.62-.79-5.44s-.56-3.63-.93-5.41a32.2,32.2,0,0,0-1.72-5.19c-.65-1.72-1.25-3.46-1.84-5.21.73,1.69,1.47,3.37,2.26,5a32.69,32.69,0,0,1,2.07,5.16c.49,1.8.88,3.6,1.28,5.4s.8,3.6,1.12,5.44c.62,3.66,1,7.33,1.72,10.85a31.16,31.16,0,0,0,1.51,5.12,26.77,26.77,0,0,0,2.44,4.69,20.16,20.16,0,0,0,7.49,7,12.37,12.37,0,0,0,2.34.92c.8.24,1.7.43,2.56.61a44.88,44.88,0,0,0,5.31.72,51.54,51.54,0,0,0,5.7.11l.55.56a2.47,2.47,0,0,0-.21-1.55,3,3,0,0,0-.73-1,22.31,22.31,0,0,0-2.23-1.76c-.83-.61-1.65-1.24-2.49-1.9a29.91,29.91,0,0,1-2.61-2.28,7.41,7.41,0,0,1,3.66.16,10.06,10.06,0,0,1,3.24,1.62,7.13,7.13,0,0,1,2.47,3,3.62,3.62,0,0,1,.16,2.18,2.79,2.79,0,0,1-.44.92,33.9,33.9,0,0,0,3.54-.4,20,20,0,0,0,4.87-1.58,11.92,11.92,0,0,0,1.48-.83l.45.38a12.87,12.87,0,0,0-1.91-3,9.24,9.24,0,0,0-2.27-1.92c-.84-.44-1.93-.89-3.05-1.51a13.55,13.55,0,0,1-3.14-2.28,13.28,13.28,0,0,1,3.89.05,12.23,12.23,0,0,1,1.87.39,8,8,0,0,1,2,.77,6.61,6.61,0,0,1,2.79,3.37,5.47,5.47,0,0,1,.23,3.12,6,6,0,0,0,1.3-1.42,3.72,3.72,0,0,0,.57-1.85,2,2,0,0,0-.11-.84,1.94,1.94,0,0,0-.41-.72c-.78-.95-2.47-1.65-4.13-2.29a21.18,21.18,0,0,1-5.33-2.59,7.8,7.8,0,0,1-1.23-1.21,4.68,4.68,0,0,1-.88-1.72,9.08,9.08,0,0,1-.27-1.57c-.06-.52-.09-1-.1-1.48a106,106,0,0,1,.44-11.19c.28-3.69.68-7.36,1.13-11,.89-7.33,2-14.62,3.49-21.86.76-3.62,1.59-7.22,2.61-10.77a54.15,54.15,0,0,1,1.74-5.27,23,23,0,0,1,1.16-2.52,7.54,7.54,0,0,1,1.67-2.21,7.18,7.18,0,0,0-1.46,2.31,23.26,23.26,0,0,0-.95,2.57c-.55,1.74-1,3.52-1.4,5.31-.79,3.58-1.4,7.2-1.93,10.83-1.11,7.26-1.93,14.56-2.61,21.86-.33,3.65-.61,7.31-.84,11-.19,3.41-.35,6.87-.24,10.2,5.43.86,11.34.45,16.71.29A155.5,155.5,0,0,0,459,411.27c2.36-.36,4,0,2.58-2.3-1.6-2.7-4-4-6.93-5-2.41-.83-9.31-1-10.72-3.45-.77-1.35.08-2.06,1-2.95,1.35-1.35,4-2.21,5.61-3.24q3-1.89,5.8-4.06A69.65,69.65,0,0,0,475.15,368c9-16.73,10.94-36.34,9.18-55-2.25-23.75-9.26-47.37-17.28-69.75C458.4,219.12,447.66,195.75,436.22,172.78Z"/><path d="M529.73,207.84c8.85-7.68,19.57-15.8,15.94-28-1.7-5.72-6.62-8.35-11.7-4.89a103.25,103.25,0,0,1-16.68,9.74c-12.8,5.63-26.71,9.41-38.53,17.08-5.91,3.84-10.17,9-14.73,14.27-1,1.15-2,2.31-3,3.47q-3.48-8.4-7.21-16.69c-5.4-12-11.15-23.88-17.06-35.65-3.59-7.14-7.17-14.26-11.28-21.07a62.67,62.67,0,0,0,38.87-23.89c12.35-16,18.53-36.31,21.64-56.07A201.82,201.82,0,0,0,488.44,37c.11-8.93-.49-24.09-12.77-24.4-4.85-.13-7.8,3.44-10.23,7.2a72,72,0,0,1-13.68,16.33c-11.52,9.95-25.13,17.4-38.35,24.81-12.89,7.22-38.13,18.71-38.69,36.3a104.85,104.85,0,0,0-11.88-5.38,24.77,24.77,0,0,0-.43-4.46,27.09,27.09,0,0,0-3.05-8.4L358,76.67l.08,2.73a25.56,25.56,0,0,1-1.1,8.39,11,11,0,0,1-4.94-9.54c0-1.06.17-2.17.24-3.35a17.85,17.85,0,0,0-.18-3.64,19.27,19.27,0,0,0-2.56-6.78A24.77,24.77,0,0,0,345,59a32,32,0,0,0-5.8-4.05,68.35,68.35,0,0,0-12.8-5.17l-2.65-.84.77,2.66c1,3.35,1.94,6.67,1.35,9.67a9,9,0,0,1-2,4.05,23,23,0,0,1-3.7,3.3c-.69.54-1.4,1.08-2.11,1.66s-1.42,1.25-2,1.82l-1.95,1.78a9.89,9.89,0,0,0-1.94,2.28,6.34,6.34,0,0,0-.82,3.1,18.32,18.32,0,0,0,.23,2.83,15,15,0,0,1,.27,2.42,2.42,2.42,0,0,1-.24,1.1A32,32,0,0,0,305,83.45a31.08,31.08,0,0,0-7.75-.64l-1.15,0,.6.94a25.68,25.68,0,0,1,1.86,3.75l1.65,4c.16.38.33.76.5,1.14a93.67,93.67,0,0,0-18.82,11.21c-11.3-8.45-26.06-11-39.92-11.68-18.14-.92-36.86,1.16-54.42-4.54-7.55-2.45-26.62-16.9-29.39-1.22-2.57,14.48,7.21,28.88,16.08,39.23,10.17,11.88,21.18,23.69,34.15,32.56a81.83,81.83,0,0,0,23,11q-2.24,4.14-4.37,8.28A381.09,381.09,0,0,0,207.45,222a86.7,86.7,0,0,0-9.87-6c-13.07-6.82-27.58-10.27-41.24-15.66a84.08,84.08,0,0,1-20.41-11.08c-4.05-3.09-8.47-4.25-11.71.75-4,6.15-1.2,14.22,2.69,19.62,3.27,4.54,7.74,7.89,12,11.48-8.26-4-18.2-6.88-16.75,3.22,1,6.72,4.66,12.26,9.39,17a1.61,1.61,0,0,0-1.27,1.47c-1.54,16.27,9.34,26.13,21.64,34.63,11.33,7.82,23.53,15.64,36.32,21.39-3,20.23-4.54,42.17.38,61.87a50,50,0,0,1-16.69,2.49c-12.78-.26-33.64-7-27.82-23.84a11.41,11.41,0,0,1,2.1-3.95c2.55-2.9,4.87-2.42,8.42-2.14,2,.16,3.94.23,5.31-1.43,2.56-3.08-.38-7.88-2.83-10-4-3.56-10.88-2.62-15.66-1.49a28.53,28.53,0,0,0-14.78,8.82c-7.53,8.42-13.09,23.06-10,34.28,3.73,13.59,17,23.44,30.14,26.94,17.12,4.57,34.83-.1,49.75-9.64.43.75.87,1.51,1.34,2.25a54,54,0,0,0,16.38,16.7,55.16,55.16,0,0,0,5.29,3c.46.23,2,1.14,3.25,1.72l-.31.12c-1.79.63-3.6,1.17-5.38,1.82-3.43,1.25-9.1,3.22-6.82,8,1.87,3.92,8,4.81,11.71,5.39a118.29,118.29,0,0,0,20,1c1.44,0,3.44.1,5.43.05a3.08,3.08,0,0,1-.28.54,3.87,3.87,0,0,1-.71.76,20.67,20.67,0,0,1-4.78,2.37,17,17,0,0,0-2.82,1.43,5.88,5.88,0,0,0-2.43,2.87,6.54,6.54,0,0,0,2.08,6.77,12.26,12.26,0,0,0,2.67,1.89A18.4,18.4,0,0,0,244,438.6a23.66,23.66,0,0,0,3,.83,25.21,25.21,0,0,0,3,.45,49.12,49.12,0,0,0,11.87-.35,37.6,37.6,0,0,0,5.85-1.33,17.61,17.61,0,0,0,5.44-3,25.18,25.18,0,0,0,7.16-9.67,18.39,18.39,0,0,0,1-2.9c.26-1,.46-1.92.65-2.88s.38-1.91.55-2.87c22.32,4.83,45.28,7.68,68.13,6.78a160.59,160.59,0,0,0,32.59-4.44q3.58-.9,7.13-2a28.54,28.54,0,0,0,3.1,7.12,21.83,21.83,0,0,0,8.26,8.09,16,16,0,0,0,2.77,1.15c1,.3,1.85.5,2.79.72a48.43,48.43,0,0,0,5.61.87,45.93,45.93,0,0,0,11.4-.31,23.5,23.5,0,0,0,5.61-1.79,14.43,14.43,0,0,0,2.62-1.57,8.93,8.93,0,0,0,2.26-2.39,6.76,6.76,0,0,0,1-3.36,5.15,5.15,0,0,0-1.23-3.54,8.45,8.45,0,0,0-2.67-2c-.92-.45-1.82-.8-2.69-1.13a19.29,19.29,0,0,1-4.6-2.15,4.45,4.45,0,0,1-.73-.7,1.86,1.86,0,0,1-.38-.72l0-.13.84.08a142.66,142.66,0,0,0,20.88,0c5.57-.3,11.92-.22,17.32-1.85,3.77-1.13,2.9-4.86.85-7.65-3.27-4.44-9.46-5.46-14.47-6.64l-.43-.13c.93-.58,1.95-1.33,2.33-1.56a76.79,76.79,0,0,0,11.87-8.8c14-12.68,21.86-30.39,24.32-48.94s-.3-37.32-4.56-55.49a252.38,252.38,0,0,0,36.52-21.84c11.52-8.13,20.78-18,19.35-33a1.61,1.61,0,0,0-1.26-1.47c4.72-4.74,8.42-10.28,9.38-17C547.84,201,538,203.83,529.73,207.84ZM411.66,65.33c19.42-10.7,43.16-22.11,55-41.75,1.23-2,2.44-4.35,4.2-6,3.82-3.55,9-1.77,11.77,2.16,3.57,5.06,2.9,12.43,2.8,18.33a197.31,197.31,0,0,1-2.23,26.7c-2.67,17.28-7.62,34.72-17,49.61-9.88,15.65-24.59,26.07-42.37,29-1.18-1.86-2.39-3.7-3.68-5.51-11.19-15.68-25.56-29.39-42.35-38.95C376.77,82.86,400.06,71.72,411.66,65.33ZM195.07,143.48c-9.88-9.44-20.37-20-27.46-31.72-3.85-6.37-6.52-13.48-6.71-21-.14-5.56,2.32-10,8.21-8.18,2.79.87,5.29,2.52,7.87,3.86,12.82,6.63,27.17,8.05,41.38,8.32,17,.32,34.79-.86,50.91,5.52a45.83,45.83,0,0,1,10.11,5.51,121.14,121.14,0,0,0-12.24,11.42c-13.68,14.63-24.79,31.87-34.47,49.52l-.34-.1C218.13,162.36,205.7,153.65,195.07,143.48ZM158,278c-12.22-8.08-25.06-16.93-24.9-32.65l12.45,7.16c1.7,1,2.59,0,1-1.09-7.46-5.16-15.07-12.4-19.28-20.71-.89-1.75-2.37-4.69-2.2-6.76.37-4.37,4.33-3.13,7.39-2.08,5.12,1.75,11.38,3.27,15.85,6.29,1.19.81,1.46.15.55-1-5-6.62-12.23-10.74-17.7-16.87-3.31-3.71-6.26-8.73-5.9-13.88s3.88-8.41,8.49-5c1.22.92,2.4,1.87,3.67,2.74,13,8.92,28.86,12.8,43.52,18.08a107.42,107.42,0,0,1,25.36,12.92c-2.52,7.11-4.86,14.29-7,21.54q-5.13,17.84-8.5,36.1c-.77,4.2-1.52,8.54-2.22,13C178,290.79,167.71,284.36,158,278Zm-8.11,110c-15.58-3.29-33.84-17.21-30.75-35,2.29-13.24,9.54-27,23.75-30,3.6-.74,8.9-1.56,12,.87a7.7,7.7,0,0,1,1.27,1.46c1.61,2,1.87,2.08-.52,3.5s-2.87.58-5.19.77c-4.54.38-7.57,4.21-9.07,8.18-2.05,5.43-1.81,11.44,1.51,16.31,7.44,10.9,24,13.06,36,11.74a50,50,0,0,0,10.38-2.25,77.57,77.57,0,0,0,5.72,14.46C181.55,386.79,165.6,391.31,149.93,388Zm334.4-75c1.76,18.66-.22,38.27-9.18,55a69.65,69.65,0,0,1-18.82,22.21q-2.81,2.17-5.8,4.06c-1.64,1-4.26,1.89-5.61,3.24-.89.89-1.74,1.6-1,2.95,1.41,2.48,8.31,2.62,10.72,3.45,2.95,1,5.33,2.32,6.93,5,1.37,2.3-.22,1.94-2.58,2.3a155.5,155.5,0,0,1-19.16,1.46c-5.37.16-11.28.57-16.71-.29-.11-3.33.05-6.79.24-10.2.23-3.65.51-7.31.84-11,.68-7.3,1.5-14.6,2.61-21.86.53-3.63,1.14-7.25,1.93-10.83.4-1.79.85-3.57,1.4-5.31a23.26,23.26,0,0,1,.95-2.57,7.18,7.18,0,0,1,1.46-2.31,7.54,7.54,0,0,0-1.67,2.21,23,23,0,0,0-1.16,2.52A54.15,54.15,0,0,0,428,358.4c-1,3.55-1.85,7.15-2.61,10.77-1.46,7.24-2.6,14.53-3.49,21.86-.45,3.67-.85,7.34-1.13,11a106,106,0,0,0-.44,11.19c0,.47,0,1,.1,1.48a9.08,9.08,0,0,0,.27,1.57,4.68,4.68,0,0,0,.88,1.72,7.8,7.8,0,0,0,1.23,1.21,21.18,21.18,0,0,0,5.33,2.59c1.66.64,3.35,1.34,4.13,2.29a1.94,1.94,0,0,1,.41.72,2,2,0,0,1,.11.84,3.72,3.72,0,0,1-.57,1.85,6,6,0,0,1-1.3,1.42,5.47,5.47,0,0,0-.23-3.12,6.61,6.61,0,0,0-2.79-3.37,8,8,0,0,0-2-.77,12.23,12.23,0,0,0-1.87-.39,13.28,13.28,0,0,0-3.89-.05,13.55,13.55,0,0,0,3.14,2.28c1.12.62,2.21,1.07,3.05,1.51a9.24,9.24,0,0,1,2.27,1.92,12.87,12.87,0,0,1,1.91,3l-.45-.38a11.92,11.92,0,0,1-1.48.83,20,20,0,0,1-4.87,1.58,33.9,33.9,0,0,1-3.54.4,2.79,2.79,0,0,0,.44-.92,3.62,3.62,0,0,0-.16-2.18,7.13,7.13,0,0,0-2.47-3,10.06,10.06,0,0,0-3.24-1.62,7.41,7.41,0,0,0-3.66-.16,29.91,29.91,0,0,0,2.61,2.28c.84.66,1.66,1.29,2.49,1.9a22.31,22.31,0,0,1,2.23,1.76,3,3,0,0,1,.73,1,2.47,2.47,0,0,1,.21,1.55l-.55-.56a51.54,51.54,0,0,1-5.7-.11,44.88,44.88,0,0,1-5.31-.72c-.86-.18-1.76-.37-2.56-.61a12.37,12.37,0,0,1-2.34-.92,20.16,20.16,0,0,1-7.49-7,26.77,26.77,0,0,1-2.44-4.69,31.16,31.16,0,0,1-1.51-5.12c-.76-3.52-1.1-7.19-1.72-10.85-.32-1.84-.74-3.64-1.12-5.44s-.79-3.6-1.28-5.4a32.69,32.69,0,0,0-2.07-5.16c-.79-1.67-1.53-3.35-2.26-5,.59,1.75,1.19,3.49,1.84,5.21a32.2,32.2,0,0,1,1.72,5.19c.37,1.78.65,3.6.93,5.41s.58,3.64.79,5.44c.43,3.62.62,7.3,1.24,11,0,.16.06.31.08.46a87,87,0,0,1-8.66,2.58c-21.14,5-43.31,5-64.81,2.68A311.75,311.75,0,0,1,283,413.93c.64-3.76,1.28-7.5,2.06-11.22,1.55-7.49,3.48-15,7.19-21.77a48.6,48.6,0,0,0-5.15,10.36,113.69,113.69,0,0,0-3.47,11.08c-1,3.75-1.77,7.53-2.58,11.29l-1.23,5.62c-.22.93-.44,1.85-.71,2.73a11.47,11.47,0,0,1-.43,1.29,10.16,10.16,0,0,1-.53,1.25,25.54,25.54,0,0,1-2.86,4.7,20.2,20.2,0,0,1-3.8,3.87,14.8,14.8,0,0,1-4.65,2.47,36.53,36.53,0,0,1-5.43,1.12,49.13,49.13,0,0,1-8.4.43l-.55.56a2.58,2.58,0,0,1,.21-1.56,3.27,3.27,0,0,1,.74-1,23.66,23.66,0,0,1,2.22-1.75c.83-.61,1.65-1.24,2.49-1.91a28.12,28.12,0,0,0,2.61-2.27,7.41,7.41,0,0,0-3.66.16,9.91,9.91,0,0,0-3.23,1.62,7.07,7.07,0,0,0-2.48,3,3.62,3.62,0,0,0-.16,2.18,2.7,2.7,0,0,0,.44.9c-.47,0-.94,0-1.4-.09a22.4,22.4,0,0,1-2.68-.41,19.2,19.2,0,0,1-2.59-.75,14.81,14.81,0,0,1-3.2-1.55l-.47.39a12.66,12.66,0,0,1,1.91-3,9.26,9.26,0,0,1,2.27-1.93c.84-.44,1.93-.89,3.05-1.5a13.39,13.39,0,0,0,3.14-2.29,13.64,13.64,0,0,0-3.89.05,12.49,12.49,0,0,0-1.87.39,8.4,8.4,0,0,0-2,.78,6.58,6.58,0,0,0-2.79,3.36,5.49,5.49,0,0,0-.23,3.1c-.14-.12-.29-.22-.41-.33a5.1,5.1,0,0,1-1.25-1.77l-.14-.48a4.84,4.84,0,0,1-.06-.5,2.07,2.07,0,0,1,.1-.85c.29-1,1.9-1.9,3.6-2.61a21.79,21.79,0,0,0,5.48-2.84,6.49,6.49,0,0,0,1.25-1.35A5.41,5.41,0,0,0,250,422c.07-.15.14-.31.19-.45l.12-.39a14.12,14.12,0,0,0,.56-3.14c.15-2,.09-4,.08-5.9s-.05-3.84,0-5.76c0-3.85,0-7.71-.09-11.58a136.23,136.23,0,0,0-2.23-23.12,57.16,57.16,0,0,0-3.39-11.15,22.82,22.82,0,0,0-6.83-9.28A18.55,18.55,0,0,1,242,355.7a30.07,30.07,0,0,1,2.47,5.15,55.65,55.65,0,0,1,2.69,11.1,152.15,152.15,0,0,1,1.34,22.9c0,3.83-.13,7.67-.2,11.52,0,1.93-.06,3.87-.07,5.8s0,3.69-.15,5.43c-1,0-1.89,0-2.42,0a157,157,0,0,1-17.62-.25c-2.76-.22-14.46-.57-15.16-4.64-.63-3.65,11.48-4.84,13.88-6.69,4.66-3.6-6.26-6.19-8.4-7.4-30.15-17.1-31.4-57.31-28.46-87.76.89-9.15,2.28-18.24,3.92-27.28a378,378,0,0,1,52.48-133.67c12.3-19.3,26.81-38.34,46.84-50.13A77.77,77.77,0,0,1,302,95.31l.37-.16c-.55-1.28-1-2.58-1.49-3.89l-1.37-4.07c-.36-1-.71-2-1.17-3a32.31,32.31,0,0,1,6.28,1,31.5,31.5,0,0,1,6.87,2.68l.55.29.55-.39a3.44,3.44,0,0,0,1.15-1.47,5.09,5.09,0,0,0,.35-1.64,15.62,15.62,0,0,0-.19-2.83c-.18-1.68-.26-3.33.45-4.36A23.06,23.06,0,0,1,317.83,74c.69-.63,1.27-1.15,1.94-1.68s1.36-1,2.07-1.55a25.69,25.69,0,0,0,4.22-3.64,11.64,11.64,0,0,0,2.63-5.33,15.58,15.58,0,0,0,0-5.78c-.16-.88-.35-1.73-.56-2.57a60.88,60.88,0,0,1,9.68,4,25.43,25.43,0,0,1,9.46,8.43,16.26,16.26,0,0,1,2.34,5.77,15.11,15.11,0,0,1,.21,3.1c0,1.07-.12,2.21-.11,3.42a13.07,13.07,0,0,0,7.45,11.83l1,.46.31-1a26.86,26.86,0,0,0,1.16-7.44,26.63,26.63,0,0,1,2.11,5.49,27.81,27.81,0,0,1,.84,7.34l.23.12c14.62,5.73,27.84,15,39,25.95,15.25,15,25,32.88,34.45,51.82,11.44,23,22.18,46.34,30.83,70.51C475.07,265.67,482.08,289.29,484.33,313Zm56.87-95.58c-4.2,8.3-11.81,16-19.27,21.2-1.57,1.09-1.18,1.07.51.09,4.16-2.38,8.81-4.27,13-6.66.15,14.36-10.53,22.89-21.81,30.58a269,269,0,0,1-31.92,18.74q-.68-2.81-1.4-5.58a418.08,418.08,0,0,0-18-53.44c3.32-3.9,6.74-7.72,10.15-11.44,15.83-17.27,42.73-18.22,61.14-31.85,2.22-1.65,4.2-4.21,7.52-1.67,2.2,1.68,2.35,5.9,2,8.37-.68,4.73-3.46,8.93-6.76,12.28-5.41,5.5-11.95,10.56-16.66,16.77-.91,1.21-.64,1.36.56.56,4.24-2.87,10.23-4.79,15.07-6.52a16.23,16.23,0,0,1,3.93-1.26c1.43-.08,3.79-.17,4.42,1.84S541.94,216,541.2,217.46Z"/>    </g>    <g id="eye">        <g id="eye-color1">            <g opacity="0" ><path fill="#FCD4D4"  d="M249.45,149.37c-.14.46-.21.94-.36,1.4a15.33,15.33,0,0,1-1.35,2.87c-.52.93-1,1.89-1.54,2.82-.24.42-.5.81-.77,1.21l-.43.61c-.09.11-.46.47-.46.6-.19.25-.39.5-.59.74-5.88,7-13.9,9.8-22.69,6.53-8.54-3.17-14.21-10.4-14.65-19.54a.84.84,0,0,1,0-.28.93.93,0,0,1,0-.29,23.27,23.27,0,0,1,19-21.81,18.86,18.86,0,0,1,11.42,1.35c-15.29-7.71-34.35-2.93-39.29,15.33a20.84,20.84,0,0,0-.67,6.53,29.39,29.39,0,0,0,10.49,20.23c8.59,7.09,21.5,6.67,31,1.77,7.19-3.69,10-12.6,10.92-20.45C249.53,149.11,249.48,149.24,249.45,149.37Z"/></g><g opacity="0" ><path fill="#FCD4D4"  d="M373.2,143.3c-.24.62-.44,1.25-.7,1.87a24.77,24.77,0,0,1-2,3.66,29.23,29.23,0,0,1-2.54,3.43c-5.88,7-13.9,9.8-22.69,6.53-8.53-3.17-14.2-10.4-14.65-19.53a2.11,2.11,0,0,1,0-.58,23.29,23.29,0,0,1,19-21.81,18.87,18.87,0,0,1,11.42,1.35c-15.3-7.71-34.36-2.93-39.3,15.33a20.54,20.54,0,0,0-.66,6.53,29.38,29.38,0,0,0,10.48,20.23c8.59,7.09,21.5,6.67,31,1.77,6.91-3.54,9.72-12,10.77-19.65C373.37,142.68,373.29,143.06,373.2,143.3Z"/></g>        </g>        <g id="eye-shape">            <path fill="#fff"  d="M312.54,138.57c-1.24-.42-6.63-.89-14.56-1.27-.59,5.6-10.78,19.12-25.61,18.19-13-.81-19.14-14.78-20.67-18.9-18.22.28-28,1.27-30,2.33-.18,2.3,1.34,9.19,6.7,15.73s16.29,14.63,36.77,14.63c28.46,0,41.06-16.94,44.25-22.13C312.36,142.4,312.73,139.32,312.54,138.57Z"/><path d="M270.72,104.07a7.5,7.5,0,0,0-6.2,6.16c-1.15,5.07,1.08,11.4,3.68,13.26,2.28,1.63,17.06,7.22,29.36,10.74-25-1.29-69.58-1.26-76.93,1.91a2.83,2.83,0,0,0-1.8,1.86c-.63,3.13,1.25,11.2,7.28,18.55,5.88,7.18,17.44,15.73,39.09,15.73,33.65,0,47.64-22.4,49.89-30.25.81-2.8.5-4.37-.11-5.25,6.57-1.67,10-7.3,11-12.31.28-1.42-.29-2.87-1.69-4.31C316.18,111.88,278.06,102.78,270.72,104.07Zm-5.52,65.21c-20.48,0-31.3-8-36.77-14.63s-6.88-13.43-6.7-15.73c2-1.06,11.75-2,30-2.33,1.53,4.12,7.65,18.09,20.67,18.9,14.83.93,25-12.59,25.61-18.19,7.93.38,13.32.85,14.56,1.27.19.75-.18,3.83-3.09,8.58C306.26,152.34,293.66,169.28,265.2,169.28Z"/><path fill="#fff"  d="M438.64,134.75c1.32-3.1,1-4.44.81-4.67-1.69-1.24-12.7-1.24-26.14-.55-1.12,5.15-5.42,18.11-20.4,19.09-15.73,1-24.28-10.67-26.62-14.45-4.43.77-7.5,1.55-8.4,2.29-.28.72.11,3.95,2.83,8.36,3.25,5.29,13.17,17.53,35,17C419.7,161.15,435,143.29,438.64,134.75Z"/><path d="M441.67,128.06c-1.51-1.66-9.77-3.15-40.53-.84-7.15.53-43,3.42-45.73,7.53-1.5,2.25.15,7,2,10.38,2.59,4.68,12.77,19.67,36.83,19.67l1.55,0c23.21-.61,40.64-17.24,45.59-28.86C443,132.29,443,129.57,441.67,128.06Zm-80.95,16.76c-2.72-4.41-3.11-7.64-2.83-8.36.9-.74,4-1.52,8.4-2.29,2.34,3.78,10.89,15.47,26.62,14.45,15-1,19.28-13.94,20.4-19.09,13.44-.69,24.45-.69,26.14.55.21.23.51,1.57-.81,4.67-3.65,8.54-18.94,26.4-42.92,27C373.89,162.35,364,150.11,360.72,144.82Z"/><path d="M402.67,119.42c1.41-2.83-2-13.13-5.5-18.48-2.06-3.15-4.16-4.69-6.24-4.6-3.12.16-14.83,4.28-25.05,8.83-21.31,9.47-21.61,13.71-21.71,15.1h0c-.18,2.51-.08,7.14,2.64,10a7.7,7.7,0,0,0,5.79,2.26h.45c3.95-.16,16.37-2.75,26.6-5.24C401.4,121.94,402.29,120.18,402.67,119.42Z"/>        </g>        <g id="eye-color2">            <path fill="#6C29FF"  d="M258.5,152.44a40.76,40.76,0,0,0,11.9,2.81c-11.67-2-17.25-14.75-18.7-18.66-4.29.07-8.09.17-11.46.31A37.06,37.06,0,0,0,258.5,152.44Z"/><path fill="#6C29FF"  d="M307,137.86c-2.4-.2-5.44-.39-9-.56-.52,4.95-8.55,16.08-20.65,18C290.06,154.22,301,147.48,307,137.86Z"/><path fill="#6C29FF"  d="M377,147.23a40.63,40.63,0,0,0,7.47,1.74,42,42,0,0,0,5.66.38c15.36,0,28.59-8.3,34.59-20.24-3.45.07-7.31.21-11.4.42-1.12,5.15-5.42,18.11-20.4,19.09-15.73,1-24.28-10.67-26.62-14.45a53.22,53.22,0,0,0-6.5,1.44A38.07,38.07,0,0,0,377,147.23Z"/>        </g>    </g>    <g id="nose-mouth">        <path fill="#f25757"  d="M342.46,246.45c-.41.22-2.32-.19-2.89,0a1,1,0,0,0-.52,1,14.81,14.81,0,0,0,.4,4.35,12.51,12.51,0,0,0-2.61-3.47,3.5,3.5,0,0,0-2.79-1.15c-1.22.19-2.07,1.53-3.4,1.18a3.47,3.47,0,0,1-.36-.08,57.36,57.36,0,0,1,3.34,6,8,8,0,0,0,.83,1.91,6,6,0,0,0,1.35,1.49,5.81,5.81,0,0,0,3.73,1.3,5,5,0,0,0,3.57-1.48,5.6,5.6,0,0,0,1.51-3.64,14.85,14.85,0,0,0-.67-4.13,16,16,0,0,0-1.28-3.22Z"/><path fill="#d33d3d"  d="M334.05,247.25a3.5,3.5,0,0,1,2.79,1.15,12.51,12.51,0,0,1,2.61,3.47,14.81,14.81,0,0,1-.4-4.35,1,1,0,0,1,.52-1c.57-.23,2.48.18,2.89,0a14.9,14.9,0,0,1-4.63-3.24,8.23,8.23,0,0,1-.88-1.16,7.5,7.5,0,0,1-2,.18c-.12.23-.25.46-.39.68a13.31,13.31,0,0,1-4.54,4.35l-.26.13.49.91a.13.13,0,0,0,.07,0,3.47,3.47,0,0,0,.36.08C332,248.78,332.83,247.44,334.05,247.25Z"/><path d="M370.82,232.48a21.37,21.37,0,0,1-1.41,5.86,12.93,12.93,0,0,1-3.34,4.75c-2.9,2.59-6.88,3.57-10.8,3.78a39.61,39.61,0,0,1-6-.17,21,21,0,0,1-5.72-1.3,16.45,16.45,0,0,1-5.12-2.84,10.05,10.05,0,0,1-.73-.73c4.22-1.48,6.82-6.56,9.69-9.86,6.16-7.12,14.84-20.64,5.73-29.06-4.65-4.31-12.15-5-18.17-4.69a62.28,62.28,0,0,0-20.68,4.42c-5.23,2.66-9.45,6.53-8.45,13s7.23,11.46,11.66,15.53,10.35,10.1,16.49,11c-.06.09-.12.19-.19.28a13.25,13.25,0,0,1-4.5,3.64,22.8,22.8,0,0,1-5.53,1.92,33.16,33.16,0,0,1-5.88.72,42.27,42.27,0,0,1-6-.2,40.29,40.29,0,0,1-5.87-1,27,27,0,0,1-5.58-2,13.06,13.06,0,0,1-4.65-3.71,11.7,11.7,0,0,0,4.22,4.45,23.43,23.43,0,0,0,5.63,2.61A36.15,36.15,0,0,0,318,250.45a26.39,26.39,0,0,0,11.36-2.84c.48,1.11,1.08,2.15,1.65,3.19a36.69,36.69,0,0,1,1.93,3.8c.13.32.21.63.35,1a6.17,6.17,0,0,0,.51,1,7.1,7.1,0,0,0,1.52,1.71,6.68,6.68,0,0,0,4.25,1.54,5.77,5.77,0,0,0,4.16-1.8,6.4,6.4,0,0,0,1.68-4.18,13.74,13.74,0,0,0-.8-4.35,17.17,17.17,0,0,0-1.11-2.66,22.41,22.41,0,0,0,2.54.88,15.94,15.94,0,0,0,3.11.59,35.08,35.08,0,0,0,6.24.22,22.1,22.1,0,0,0,6.2-1.19,14.37,14.37,0,0,0,5.42-3.36,13,13,0,0,0,3.19-5.44A17.27,17.27,0,0,0,370.82,232.48Zm-26.2,21.42a5.6,5.6,0,0,1-1.51,3.64,5,5,0,0,1-3.57,1.48,5.81,5.81,0,0,1-3.73-1.3,6,6,0,0,1-1.35-1.49,8,8,0,0,1-.83-1.91,57.36,57.36,0,0,0-3.34-6,.13.13,0,0,1-.07,0l-.49-.91.26-.13a13.31,13.31,0,0,0,4.54-4.35c.14-.22.27-.45.39-.68a7.5,7.5,0,0,0,2-.18,8.23,8.23,0,0,0,.88,1.16,14.9,14.9,0,0,0,4.63,3.24l.21.1a16,16,0,0,1,1.28,3.22A14.85,14.85,0,0,1,344.62,253.9Zm-8.85-46.15a7.79,7.79,0,0,0-1.63-.54,1.32,1.32,0,0,1,0-2.53,15,15,0,0,1,8.91-.64c2,.49,4.91,1.55,4.09,4.15a5.68,5.68,0,0,1-5.3,3.6C339.45,211.52,337.81,208.83,335.77,207.75Z"/><rect fill="#563a33"  x="312.85" y="240.07" width="2.61" height="2.61" rx="1.02" ry="1.02" transform="translate(-35.24 428.13) rotate(-65.66)"/><rect fill="#563a33"  x="305.19" y="237.27" width="2.61" height="2.61" rx="1.02" ry="1.02" transform="translate(-37.12 419.64) rotate(-65.68)"/><rect fill="#563a33"  x="305.43" y="243.3" width="2.61" height="2.61" rx="1.02" ry="1.02" transform="translate(-42.42 423.51) rotate(-65.7)"/><rect fill="#563a33"  x="354.66" y="241.94" width="2.61" height="2.61" rx="1.02" ry="1.02" transform="translate(-12.2 467.59) rotate(-65.7)"/><rect fill="#563a33"  x="359.88" y="234.44" width="2.61" height="2.61" rx="1.02" ry="1.02" transform="translate(-2.37 467.82) rotate(-65.68)"/><rect fill="#563a33"  x="361.21" y="239.37" width="2.61" height="2.61" rx="1.02" ry="1.02" transform="translate(-6.17 471.78) rotate(-65.66)"/><path fill="#fff"  d="M347.14,208.19c.82-2.6-2.13-3.66-4.09-4.15a15,15,0,0,0-8.91.64,1.32,1.32,0,0,0,0,2.53,7.79,7.79,0,0,1,1.63.54c2,1.08,3.68,3.77,6.07,4A5.68,5.68,0,0,0,347.14,208.19Z"/><path d="M308.87,269.07a132,132,0,0,0,13.9,4.15c1.17.27,2.35.42,3.53.65s2.36.35,3.56.4l1.78.15,1.79.06c1.19.07,2.39,0,3.58,0s2.38-.11,3.57-.2,2.38-.24,3.56-.45a60.72,60.72,0,0,0,7-1.45,69,69,0,0,0,13.44-5.31,46,46,0,0,1-13,6.8,51.64,51.64,0,0,1-14.54,2.61,49.69,49.69,0,0,1-14.67-1.74A67.64,67.64,0,0,1,308.87,269.07Z"/><g opacity="0.1" ><path d="M338.59,282.74c10.32-.58,20.87-7.3,26-15.68-.22.65-19.13,9.52-26.87,8.94-17.2-1.29-29.27-7-28.86-6.93C308.87,269.07,321.89,283.67,338.59,282.74Z"/></g>    </g></svg>