<!--  ~ Copyright (C) 2018 Baidu, Inc. All Rights Reserved.  --><svg viewBox="0 0 640 480" xmlns="http://www.w3.org/2000/svg">    <g id="back-ground-cl">        <rect fill="none" width="640" height="480" />        <ellipse opacity="0.1" cx="331.93" cy="418.82" rx="168.39" ry="32.01"/>    </g>    <g id="body">        <defs>            <clipPath id="outline">                <path fill="none"  d="M409.36,124.68l.22-.31c3.88-5.71,5.24-12.8,9.68-18.19,4.6-5.6,12-7.82,16.47-13.52a23.16,23.16,0,0,0,5-13c.25-4.7-1.19-11.93-7.43-8.4-3,1.71-5.32,4.27-8.64,5.79a52.5,52.5,0,0,1-9.31,3.12c-12.4,3.05-33.65,4.52-37.55,19A129.43,129.43,0,0,1,409.36,124.68Z"/><path fill="none"  d="M179.94,333c-3.93-.31-7.8,5.92-3.2,7.61,1.23.45,1.6,2.64,0,2.89q-3.6,1.77-1.2,4.19a1.51,1.51,0,0,1-1.15,2.75,17.19,17.19,0,0,0-4.32-.66c-2.65.09-3.44.25-4.34,2.82-1.56,4.44,2.68,6.57,6.06,8.39,1.39.75.64,2.71-.76,2.8a5.56,5.56,0,0,0,3.79,1.83,5.86,5.86,0,0,0,1.72.19,25.3,25.3,0,0,0,2.61-.1c2.32-.15,4.64-.43,6.95-.65,1.15-.11,2.51-.17,4-.29a109,109,0,0,1-4.25-28.82A9.38,9.38,0,0,0,179.94,333Z"/><path fill="none"  d="M256.06,130.89c3.58-4.65,7.34-9.14,11.33-13.4a116.37,116.37,0,0,1,17.93-15.72,1.19,1.19,0,0,1-.08-.2c-4.8-16.49-22.57-27.9-38.18-17.28-4.87,3.3-9,7.6-14,10.69a25.66,25.66,0,0,1-7.55,3.24c-1.95.47-4.79.76-5.37,3.3-.49,2.13,1.64,4.68,3,6,5.58,5.36,12.86,4.41,19.87,4.45,4,0,8.61.69,10.81,4.53C256.51,121.26,253.75,126.69,256.06,130.89Z"/><path fill="none"  d="M467.09,243.42c-8.65-24.15-19.37-47.49-30.8-70.44-9.42-18.92-19.18-36.8-34.41-51.76C388,107.61,371,96.63,352.07,91.78c-1.34-.34-2.68-.64-4-.91,0,0,0,0,0,0s0,0,0,0l-.92-.24a36.39,36.39,0,0,0,2.43-7.58,35.19,35.19,0,0,1-9.72,9.85l-3.22,2.15,1.65-3.53A69.55,69.55,0,0,0,342.93,78a68.49,68.49,0,0,0,1.46-8.88c-1.63,2.48-3.29,5-5,7.38a107.76,107.76,0,0,1-9.05,11.24l-6.05,6.45,3.59-8.08A43.27,43.27,0,0,0,331,62.51c-1.27,4.22-2.55,8.44-3.87,12.65a90.27,90.27,0,0,1-3,8.93,21.53,21.53,0,0,1-2.43,4.23A13.21,13.21,0,0,1,318,91.66l-2.13,1.28.85-2.3A10,10,0,0,0,316,82.4a32.2,32.2,0,0,1-2.15,8.68c-.18.45-.34.48-.67.82a3.27,3.27,0,0,0-.44,0c-.83.2-1.66.46-2.48.71s-1.67.52-2.49.8-1.65.57-2.47.88-1.63.64-2.44,1-1.62.69-2.41,1.06-1.6.74-2.39,1.14-1.58.8-2.36,1.23-1.55.86-2.32,1.31c-20,11.78-34.51,30.8-46.79,50.08a377.39,377.39,0,0,0-52.43,133.52c-1.64,9-3,18.11-3.91,27.25-2.94,30.42-1.69,70.59,28.43,87.67,2.13,1.21,13,3.79,8.38,7.39-2.4,1.85-14.48,3-13.86,6.68.7,4.07,12.39,4.42,15.15,4.64a154.22,154.22,0,0,0,17.6.24c.52,0,1.44,0,2.41,0,.14-1.74.13-3.58.15-5.43s0-3.86.07-5.79c.07-3.85.18-7.68.2-11.51a153.15,153.15,0,0,0-1.33-22.87,55.56,55.56,0,0,0-2.69-11.09,30,30,0,0,0-2.47-5.14,18.3,18.3,0,0,0-3.62-4.42,22.64,22.64,0,0,1,6.82,9.26,57.1,57.1,0,0,1,3.4,11.14,136.91,136.91,0,0,1,2.22,23.1c.1,3.86.11,7.72.09,11.56,0,1.92,0,3.83,0,5.75s.07,3.86-.08,5.9a13.94,13.94,0,0,1-.56,3.13l-.12.39c0,.14-.12.3-.19.45a4.11,4.11,0,0,1-.47.85,7.08,7.08,0,0,1-1.24,1.36,22.65,22.65,0,0,1-5.48,2.84c-1.7.7-3.31,1.6-3.59,2.59a2.09,2.09,0,0,0-.11.85,4.53,4.53,0,0,0,.06.5l.14.48a4.92,4.92,0,0,0,1.25,1.77c.12.11.27.22.4.33a5.55,5.55,0,0,1,.24-3.09,6.57,6.57,0,0,1,2.78-3.36,8.58,8.58,0,0,1,2-.78,12.49,12.49,0,0,1,1.87-.39,13.3,13.3,0,0,1,3.89,0,13.63,13.63,0,0,1-3.14,2.28c-1.12.61-2.2,1.06-3.05,1.5a9.22,9.22,0,0,0-2.26,1.93,12.58,12.58,0,0,0-1.91,3l.47-.39a14.51,14.51,0,0,0,3.19,1.55,19.2,19.2,0,0,0,2.59.75,22.4,22.4,0,0,0,2.68.41c.46,0,.93.06,1.39.09a3,3,0,0,1-.43-.9,3.55,3.55,0,0,1,.16-2.18,7,7,0,0,1,2.47-3,9.89,9.89,0,0,1,3.23-1.61,7.41,7.41,0,0,1,3.66-.16,28.12,28.12,0,0,1-2.61,2.27c-.84.66-1.66,1.29-2.48,1.9a22.31,22.31,0,0,0-2.23,1.76,3.1,3.1,0,0,0-.73,1,2.51,2.51,0,0,0-.21,1.56l.55-.57a48,48,0,0,0,8.39-.42,36.13,36.13,0,0,0,5.42-1.12,14.6,14.6,0,0,0,4.65-2.47,20.1,20.1,0,0,0,3.79-3.86,25.54,25.54,0,0,0,2.86-4.7,12,12,0,0,0,.53-1.25c.15-.41.31-.82.43-1.28.26-.88.48-1.81.7-2.73l1.23-5.61c.81-3.76,1.62-7.54,2.58-11.28a112.65,112.65,0,0,1,3.47-11.07,48.3,48.3,0,0,1,5.15-10.35c-3.71,6.77-5.64,14.26-7.19,21.75-.77,3.71-1.42,7.45-2.06,11.2a313.77,313.77,0,0,0,33.11,5.43c21.47,2.28,43.62,2.35,64.74-2.68a86.81,86.81,0,0,0,8.65-2.58c0-.15-.06-.3-.08-.45-.62-3.71-.81-7.39-1.24-11-.2-1.8-.51-3.61-.79-5.43s-.56-3.63-.93-5.4a30.84,30.84,0,0,0-1.72-5.18q-1-2.6-1.83-5.21,1.08,2.53,2.25,5a31.76,31.76,0,0,1,2.07,5.16c.5,1.8.88,3.6,1.28,5.39s.8,3.59,1.12,5.43c.62,3.66,1,7.33,1.72,10.85a31,31,0,0,0,1.51,5.11,26.64,26.64,0,0,0,2.43,4.68,20.21,20.21,0,0,0,7.48,7,13.33,13.33,0,0,0,2.34.91c.8.25,1.71.44,2.57.62a44.53,44.53,0,0,0,5.29.71,51.54,51.54,0,0,0,5.7.11l.55.57a2.57,2.57,0,0,0-.21-1.56,3.42,3.42,0,0,0-.73-1,23.91,23.91,0,0,0-2.23-1.75c-.82-.61-1.64-1.24-2.48-1.9a27.06,27.06,0,0,1-2.61-2.28,7.37,7.37,0,0,1,3.65.16,10.06,10.06,0,0,1,3.24,1.62,7.05,7.05,0,0,1,2.47,3,3.59,3.59,0,0,1,.16,2.17,2.79,2.79,0,0,1-.44.92c1.2-.08,2.38-.2,3.53-.39a20.26,20.26,0,0,0,4.87-1.58,15.2,15.2,0,0,0,1.48-.83l.45.38a12.87,12.87,0,0,0-1.91-3,9.39,9.39,0,0,0-2.26-1.92c-.85-.44-1.93-.89-3-1.5a13.68,13.68,0,0,1-3.14-2.29,13.57,13.57,0,0,1,3.88.05,12.35,12.35,0,0,1,1.88.39,8.46,8.46,0,0,1,2,.77,6.61,6.61,0,0,1,2.79,3.37,5.56,5.56,0,0,1,.23,3.12,5.88,5.88,0,0,0,1.29-1.42,3.83,3.83,0,0,0,.58-1.85,2.22,2.22,0,0,0-.12-.84,1.79,1.79,0,0,0-.4-.72c-.79-.94-2.47-1.64-4.13-2.28a21.12,21.12,0,0,1-5.32-2.59,7.85,7.85,0,0,1-1.24-1.21,4.82,4.82,0,0,1-.87-1.72,9.16,9.16,0,0,1-.28-1.57c-.06-.51-.08-1-.1-1.48a108.6,108.6,0,0,1,.45-11.18c.28-3.68.67-7.35,1.12-11,.89-7.32,2-14.61,3.49-21.84.76-3.61,1.59-7.21,2.61-10.76a54,54,0,0,1,1.74-5.26,23,23,0,0,1,1.16-2.52,7.34,7.34,0,0,1,1.66-2.2,7.31,7.31,0,0,0-1.46,2.3,23.21,23.21,0,0,0-.94,2.57c-.55,1.74-1,3.52-1.4,5.3-.79,3.58-1.4,7.2-1.93,10.82-1.1,7.25-1.92,14.54-2.61,21.84q-.48,5.47-.83,10.95c-.19,3.41-.36,6.86-.24,10.19,5.42.86,11.33.44,16.68.28a155.32,155.32,0,0,0,19.15-1.45c2.36-.37,3.95,0,2.58-2.3-1.61-2.7-4-4-6.92-5-2.42-.82-9.31-1-10.72-3.45-.77-1.34.08-2.05,1-2.94,1.35-1.35,4-2.21,5.6-3.24q3-1.89,5.8-4A69.64,69.64,0,0,0,475.18,368c8.95-16.71,10.93-36.3,9.16-54.94C482.1,289.37,475.09,265.77,467.09,243.42Z"/><path stroke-linejoin="round" stroke-width="0" fill="none" stroke="#000" stroke-linecap="round"  d="M348,90.87s0,0,0,0"/><path d="M480.3,275.92c-6.47-25.07-15.82-49.32-26.42-72.92-5.39-12-11.13-23.86-17-35.62-5.06-10.06-10.07-20.08-16.63-29.27-2.75-3.84-5.69-7.57-8.8-11.14.13-.17.25-.33.35-.48,2.49-3.51,3.93-7.57,5.73-11.44a28.12,28.12,0,0,1,10.76-12.48c6.76-4.45,12.3-9.21,14.54-17.33,1.5-5.45,2.06-15-4-18.06a5.55,5.55,0,0,0-5.86.48c-2.25,1.46-4,3.55-6.33,5a36.61,36.61,0,0,1-8.22,3.57C404.41,80.52,380,81.26,375,97.62a98.55,98.55,0,0,0-25.75-9.51,36.22,36.22,0,0,0,2.36-8.77l.55-4-2,3.58a34,34,0,0,1-6.46,8.23l-1.1-.16a68.74,68.74,0,0,0,2.76-8.4,71.13,71.13,0,0,0,2.13-14.73l.19-4.94L345,63c-2.64,3.95-5.22,7.91-8,11.73q-1.9,2.64-3.93,5.17a45.2,45.2,0,0,0-.47-23.32l-1.34-4.53L330,56.59c-1.7,6-3.41,11.93-5.06,17.91a89.68,89.68,0,0,1-2.71,8.77,19.91,19.91,0,0,1-2,3.91v0l-1.26.19A11.15,11.15,0,0,0,316,80.18L314.85,79v1.58a30.85,30.85,0,0,1-1,7.87,84.44,84.44,0,0,0-26,11.59C284.21,88.31,274.53,78.18,261.83,77c-13.2-1.29-20.64,9.82-30.88,15.78-3,1.77-6,2.23-9.26,3.1A5.67,5.67,0,0,0,217.63,99c-2,4.44,1.46,9.34,4.87,11.91,4.16,3.14,9.5,4.31,14.64,4.26,2.79,0,5.61-.44,8.4-.12,2.52.29,5.07,1.35,6.07,4,.83,2.17.08,4.86.1,7.13a11.59,11.59,0,0,0,2.42,7.32c-10.31,13.85-19,29-26.88,44.21a379.37,379.37,0,0,0-27.51,69.12q-5.15,17.82-8.5,36.07c-2.79,15.33-5.49,32.51-5.48,49.41-3.72-2.54-8.2-4-12.2-.58-2.79,2.39-2.37,7.22-.06,10a5.38,5.38,0,0,0-1.69,5.23c-3.61-.43-7.46,0-9.28,3.49-2.71,5.25,1.78,9.52,6,12.14a3.61,3.61,0,0,0,.25,2.72c1.64,3.43,6.51,3.63,9.74,3.47a113.36,113.36,0,0,0,12.57-.79,73.09,73.09,0,0,0,7.11,15,53,53,0,0,0,21.65,19.67c.46.23,2,1.13,3.25,1.71-.13.05-.23.1-.31.12-1.78.63-3.6,1.17-5.38,1.82-3.43,1.25-9.09,3.22-6.81,8,1.87,3.92,8,4.81,11.7,5.39a118.06,118.06,0,0,0,20,1c1.44,0,3.43.1,5.42.05a3.08,3.08,0,0,1-.28.54,4.13,4.13,0,0,1-.71.75,20.47,20.47,0,0,1-4.78,2.37,16.94,16.94,0,0,0-2.81,1.43,5.83,5.83,0,0,0-2.43,2.87,6.55,6.55,0,0,0,2.08,6.77,12.4,12.4,0,0,0,2.66,1.88,18.93,18.93,0,0,0,2.86,1.25,23.52,23.52,0,0,0,2.95.83,27.38,27.38,0,0,0,3,.45,49,49,0,0,0,11.85-.35,37.34,37.34,0,0,0,5.85-1.33,17.25,17.25,0,0,0,5.43-3,25.15,25.15,0,0,0,7.16-9.66,18.28,18.28,0,0,0,1-2.89c.26-1,.45-1.92.65-2.88s.37-1.91.55-2.86c22.29,4.82,45.23,7.67,68.05,6.76a160.29,160.29,0,0,0,32.56-4.43q3.58-.9,7.11-2a28.5,28.5,0,0,0,3.11,7.11,21.71,21.71,0,0,0,8.25,8.08,15.26,15.26,0,0,0,2.77,1.15c.95.31,1.84.51,2.78.72a48.1,48.1,0,0,0,5.61.87,45.76,45.76,0,0,0,11.38-.31A23.06,23.06,0,0,0,430,433a14.37,14.37,0,0,0,2.62-1.56,8.74,8.74,0,0,0,2.25-2.39,6.87,6.87,0,0,0,1-3.36,5.19,5.19,0,0,0-1.23-3.53,8.19,8.19,0,0,0-2.68-2,27.2,27.2,0,0,0-2.68-1.14,19.2,19.2,0,0,1-4.59-2.14,4.54,4.54,0,0,1-.74-.7,1.83,1.83,0,0,1-.37-.72l0-.12.83.08a142.39,142.39,0,0,0,20.86,0c5.57-.29,11.91-.22,17.3-1.84,3.77-1.14,2.9-4.87.85-7.65-3.27-4.43-9.45-5.46-14.45-6.64l-.43-.13c.93-.57,1.95-1.32,2.33-1.55a76.58,76.58,0,0,0,11.86-8.78c14-12.68,21.83-30.36,24.29-48.89C489.82,318.43,485.68,296.74,480.3,275.92,-65-195.79A52.5,52.5,0,0,0,424.64,77c3.32-1.52,5.61-4.08,8.64-5.79,6.24-3.53,7.68,3.7,7.43,8.4a23.16,23.16,0,0,1-5,13c-4.51,5.7-11.87,7.92-16.47,13.52-4.44,5.39-5.8,12.48-9.68,18.19l-.22.31a129.43,129.43,0,0,0-31.58-25.56C381.68,84.65,402.93,83.18,415.33,80.13,253.78,116.48C251.58,112.64,247,112,243,112c-7,0-14.29.91-19.87-4.45-1.35-1.3-3.48-3.85-3-6,.58-2.54,3.42-2.83,5.37-3.3A25.66,25.66,0,0,0,233,95c5-3.09,9.16-7.39,14-10.69,15.61-10.62,33.38.79,38.18,17.28a1.19,1.19,0,0,0,.08.2,116.37,116.37,0,0,0-17.93,15.72c-4,4.26-7.75,8.75-11.33,13.4C253.75,126.69,256.51,121.26,253.78,116.48,186.1,365c-2.31.22-4.63.5-6.95.65a25.3,25.3,0,0,1-2.61.1,5.86,5.86,0,0,1-1.72-.19,5.56,5.56,0,0,1-3.79-1.83c1.4-.09,2.15-2.05.76-2.8-3.38-1.82-7.62-3.95-6.06-8.39.9-2.57,1.69-2.73,4.34-2.82a17.19,17.19,0,0,1,4.32.66,1.51,1.51,0,0,0,1.15-2.75q-2.4-2.42,1.2-4.19c1.6-.25,1.23-2.44,0-2.89-4.6-1.69-.73-7.92,3.2-7.61a9.38,9.38,0,0,1,5.86,2.95,109,109,0,0,0,4.25,28.82C188.61,364.86,187.25,364.92,186.1,365,289.08,3a69.64,69.64,0,0,1-18.8,22.19q-2.81,2.16-5.8,4c-1.64,1-4.25,1.89-5.6,3.24-.89.89-1.74,1.6-1,2.94,1.41,2.49,8.3,2.63,10.72,3.45,2.94,1,5.31,2.32,6.92,5,1.37,2.3-.22,1.93-2.58,2.3a155.32,155.32,0,0,1-19.15,1.45c-5.35.16-11.26.58-16.68-.28-.12-3.33.05-6.78.24-10.19q.34-5.47.83-10.95c.69-7.3,1.51-14.59,2.61-21.84.53-3.62,1.14-7.24,1.93-10.82.39-1.78.85-3.56,1.4-5.3a23.21,23.21,0,0,1,.94-2.57,7.31,7.31,0,0,1,1.46-2.3,7.34,7.34,0,0,0-1.66,2.2,23,23,0,0,0-1.16,2.52,54,54,0,0,0-1.74,5.26c-1,3.55-1.85,7.15-2.61,10.76-1.46,7.23-2.6,14.52-3.49,21.84-.45,3.66-.84,7.33-1.12,11a108.6,108.6,0,0,0-.45,11.18c0,.48,0,1,.1,1.48a9.16,9.16,0,0,0,.28,1.57,4.82,4.82,0,0,0,.87,1.72,7.85,7.85,0,0,0,1.24,1.21,21.12,21.12,0,0,0,5.32,2.59c1.66.64,3.34,1.34,4.13,2.28a1.79,1.79,0,0,1,.4.72,2.22,2.22,0,0,1,.12.84,3.83,3.83,0,0,1-.58,1.85,5.88,5.88,0,0,1-1.29,1.42,5.56,5.56,0,0,0-.23-3.12,6.61,6.61,0,0,0-2.79-3.37,8.46,8.46,0,0,0-2-.77,12.35,12.35,0,0,0-1.88-.39,13.57,13.57,0,0,0-3.88-.05,13.68,13.68,0,0,0,3.14,2.29c1.12.61,2.2,1.06,3,1.5a9.39,9.39,0,0,1,2.26,1.92,12.87,12.87,0,0,1,1.91,3l-.45-.38a15.2,15.2,0,0,1-1.48.83,20.26,20.26,0,0,1-4.87,1.58c-1.15.19-2.33.31-3.53.39a2.79,2.79,0,0,0,.44-.92,3.59,3.59,0,0,0-.16-2.17,7.05,7.05,0,0,0-2.47-3,10.06,10.06,0,0,0-3.24-1.62,7.37,7.37,0,0,0-3.65-.16,27.06,27.06,0,0,0,2.61,2.28c.84.66,1.66,1.29,2.48,1.9a23.91,23.91,0,0,1,2.23,1.75,3.42,3.42,0,0,1,.73,1,2.57,2.57,0,0,1,.21,1.56l-.55-.57a51.54,51.54,0,0,1-5.7-.11,44.53,44.53,0,0,1-5.29-.71c-.86-.18-1.77-.37-2.57-.62A13.33,13.33,0,0,1,403,430a20.21,20.21,0,0,1-7.48-7,26.64,26.64,0,0,1-2.43-4.68,31,31,0,0,1-1.51-5.11c-.76-3.52-1.1-7.19-1.72-10.85-.32-1.84-.74-3.63-1.12-5.43s-.78-3.59-1.28-5.39a31.76,31.76,0,0,0-2.07-5.16q-1.17-2.49-2.25-5Q384,384,385,386.57a30.84,30.84,0,0,1,1.72,5.18c.37,1.77.65,3.59.93,5.4s.59,3.63.79,5.43c.43,3.62.62,7.3,1.24,11,0,.15.06.3.08.45a86.81,86.81,0,0,1-8.65,2.58c-21.12,5-43.27,5-64.74,2.68a313.77,313.77,0,0,1-33.11-5.43c.64-3.75,1.29-7.49,2.06-11.2,1.55-7.49,3.48-15,7.19-21.75a48.3,48.3,0,0,0-5.15,10.35,112.65,112.65,0,0,0-3.47,11.07c-1,3.74-1.77,7.52-2.58,11.28l-1.23,5.61c-.22.92-.44,1.85-.7,2.73-.12.46-.28.87-.43,1.28a12,12,0,0,1-.53,1.25,25.54,25.54,0,0,1-2.86,4.7,20.1,20.1,0,0,1-3.79,3.86,14.6,14.6,0,0,1-4.65,2.47,36.13,36.13,0,0,1-5.42,1.12,48,48,0,0,1-8.39.42l-.55.57a2.51,2.51,0,0,1,.21-1.56,3.1,3.1,0,0,1,.73-1,22.31,22.31,0,0,1,2.23-1.76c.82-.61,1.64-1.24,2.48-1.9a28.12,28.12,0,0,0,2.61-2.27,7.41,7.41,0,0,0-3.66.16,9.89,9.89,0,0,0-3.23,1.61,7,7,0,0,0-2.47,3,3.55,3.55,0,0,0-.16,2.18,3,3,0,0,0,.43.9c-.46,0-.93-.05-1.39-.09a22.4,22.4,0,0,1-2.68-.41,19.2,19.2,0,0,1-2.59-.75,14.51,14.51,0,0,1-3.19-1.55l-.47.39a12.58,12.58,0,0,1,1.91-3,9.22,9.22,0,0,1,2.26-1.93c.85-.44,1.93-.89,3.05-1.5a13.63,13.63,0,0,0,3.14-2.28,13.3,13.3,0,0,0-3.89,0,12.49,12.49,0,0,0-1.87.39,8.58,8.58,0,0,0-2,.78,6.57,6.57,0,0,0-2.78,3.36,5.55,5.55,0,0,0-.24,3.09c-.13-.11-.28-.22-.4-.33a4.92,4.92,0,0,1-1.25-1.77l-.14-.48a4.53,4.53,0,0,1-.06-.5,2.09,2.09,0,0,1,.11-.85c.28-1,1.89-1.89,3.59-2.59a22.65,22.65,0,0,0,5.48-2.84,7.08,7.08,0,0,0,1.24-1.36,4.11,4.11,0,0,0,.47-.85c.07-.15.14-.31.19-.45l.12-.39a13.94,13.94,0,0,0,.56-3.13c.15-2,.09-4,.08-5.9s-.05-3.83,0-5.75c0-3.84,0-7.7-.09-11.56a136.91,136.91,0,0,0-2.22-23.1,57.1,57.1,0,0,0-3.4-11.14,22.64,22.64,0,0,0-6.82-9.26,18.3,18.3,0,0,1,3.62,4.42,30,30,0,0,1,2.47,5.14,55.56,55.56,0,0,1,2.69,11.09,153.15,153.15,0,0,1,1.33,22.87c0,3.83-.13,7.66-.2,11.51,0,1.93-.06,3.87-.07,5.79s0,3.69-.15,5.43c-1,0-1.89-.05-2.41,0a154.22,154.22,0,0,1-17.6-.24c-2.76-.22-14.45-.57-15.15-4.64C212.55,409,224.63,407.8,227,406c4.66-3.6-6.25-6.18-8.38-7.39-30.12-17.08-31.37-57.25-28.43-87.67.88-9.14,2.27-18.22,3.91-27.25a377.39,377.39,0,0,1,52.43-133.52c12.28-19.28,26.78-38.3,46.79-50.08.77-.45,1.54-.89,2.32-1.31s1.57-.84,2.36-1.23,1.58-.78,2.39-1.14,1.6-.72,2.41-1.06,1.62-.66,2.44-1,1.64-.6,2.47-.88,1.65-.55,2.49-.8,1.65-.51,2.48-.71a3.27,3.27,0,0,1,.44,0c.33-.34.49-.37.67-.82A32.2,32.2,0,0,0,316,82.4a10,10,0,0,1,.78,8.24l-.85,2.3L318,91.66a13.21,13.21,0,0,0,3.68-3.34,21.53,21.53,0,0,0,2.43-4.23,90.27,90.27,0,0,0,3-8.93c1.32-4.21,2.6-8.43,3.87-12.65a43.27,43.27,0,0,1-3.16,23.55l-3.59,8.08,6.05-6.45a107.76,107.76,0,0,0,9.05-11.24c1.72-2.43,3.38-4.9,5-7.38A68.49,68.49,0,0,1,342.93,78a69.55,69.55,0,0,1-4.67,13.57l-1.65,3.53,3.22-2.15a35.19,35.19,0,0,0,9.72-9.85,36.39,36.39,0,0,1-2.43,7.58l.92.24c1.35.27,2.69.57,4,.91,18.95,4.85,36,15.83,49.81,29.44,15.23,15,25,32.84,34.41,51.76,11.43,23,22.15,46.29,30.8,70.44,8,22.35,15,46,17.25,69.67C486.11,331.73,484.13,351.32,475.18,368Z"/>            </clipPath>        </defs>        <g clip-path="url(#outline)">            <rect fill="#FCD4D4" width="640" height="480" />        </g>    </g>    <g id="pattern">        <g clip-path="url(#outline)">            <g opacity="0.6" ><path fill="#E8D3B3"  d="M225.5,310.37c-3-1.41-6.42-1.34-9.66-.8-10.47,1.76-22.5,9.07-27.73,18.3-3.21,5.67-1.18,7.54-.89,14,.21,4.72.8,5.52,1.06,11.07.16,3.27-.9,5.65,1.78,7.54,4.85-3,8.16-8.94,10.59-14.09A41.13,41.13,0,0,1,220.05,327c4.25-2,9.54-4.12,10.24-8.77C230.77,315,228.47,311.77,225.5,310.37Z"/></g><g opacity="0.6" ><path fill="#E8D3B3"  d="M218.7,286.36c-2.53-.86-5.31-.45-7.89.26a176.71,176.71,0,0,0-20.06,7.09A64.3,64.3,0,0,0,188.57,317a198.32,198.32,0,0,0,30.28-19c1.92-1.48,4-3.25,4.22-5.66C223.37,289.7,221.23,287.23,218.7,286.36Z"/></g><g opacity="0.6" ><path fill="#E8D3B3"  d="M508.47,313.36c4.47-1,6.36-4.61,3.39-8.15-4.36-5.19-13.38-7.28-19.68-9-6.61-1.86-13.34-3-20.07-4.27l-1.47-.29c-5.56-1.09-11.44-2.31-17.11-.83-3.15.82-6.7,3.65-5.38,6.62a6,6,0,0,0,2.82,2.54C468.36,309.49,488.29,317.81,508.47,313.36Z"/></g><g opacity="0.6" ><path fill="#E8D3B3"  d="M509.87,332.52q-10.59-4.89-21.55-8.91c-1.55-.57-3.14-1.19-4.74-1.8-5.31-2-10.85-4.06-16.36-4.44-3.68-.26-9.41-1.2-12.36,1.62-5.89,5.62,8.21,14.63,11.89,17.64,6.78,5.55,14.53,12.09,22.69,15.34,8.77,3.5,18.24,5,27.62,5.49,5,.28,13.84,1,15.54-5.49C535.24,341.88,516.36,335.52,509.87,332.52Z"/></g><g opacity="0.6" ><path fill="#E8D3B3"  d="M162.06,354.12c-.25-2.17-1.26-4.28-2.69-4.69a3.48,3.48,0,0,0-2.88.88c-8.65,6.07-10.39,18.35-10,29.61.35,9.38-.45,29.6,8.28,35.71,5.77,4,7.12-3.89,7-8.33-.19-9.4-1.43-18.74-1.7-28.1C159.88,370.84,163,362.57,162.06,354.12Z"/></g><g opacity="0.6" ><path fill="#E8D3B3"  d="M132.43,335.13a10.4,10.4,0,0,0-5,2.52,26.44,26.44,0,0,0-7.28,10.61c-1.43,3.43-2.49,7.06-3.65,10.48-3,8.89-5.66,17.89-8.31,26.89-2.44,8.29-4.83,16.66-6.51,25.15-.56,2.78-3.14,11.13-.49,13.55,9.77,8.92,19.2-27.4,20.53-32.77,3.55-14.31,6-29.43,12.42-42.61C136.26,344.6,142.08,333.78,132.43,335.13Z"/></g>            <g opacity="0.6" ><path fill="#DCFEFF"  d="M285.77,418.84c2.26-24.13,21.66-59.15,48.78-60.3,26.6-1.12,50.68,35,52.69,58.92.13,1.48.51,1.44-.05,1.63-1.81.61-6.61,1.94-9.58,2.8-14,4.06-27.43,4.48-43.52,4.36-16.38-.12-33-4.21-47.85-7.41"/></g>        </g>    </g>    <g id="mask">        <g opacity="0.1" ><path d="M484.88,335.07c.24,1.7-3.5,6.77-4.43,8.5-1.82,3.4-3.69,6.77-5.67,10.08a108.4,108.4,0,0,1-13.23,18.12,63.65,63.65,0,0,1-11.06,9.46,60.26,60.26,0,0,1-6.26,3.67,32,32,0,0,1-5.53,2.5c-4,1.16-6.14-2.21-7.32-5.52A39.75,39.75,0,0,1,429,364.34a119.74,119.74,0,0,1,2.55-14.41l-1.94,4.49c-3.07,11.12-4.58,22.55-6,34a4.62,4.62,0,0,0,.27,2.2,3.36,3.36,0,0,0-.88.73c-2.06,2.52-.7,11.1-.82,14.3a.69.69,0,0,0,.1.45c.15.19.45.14.69.08a107.68,107.68,0,0,0,24.46-9.43c9.47-5.3,16.41-12.77,22.8-21.4,3.19-4.31,7.4-8.23,9.2-13.28C482.54,353.36,486.15,344.23,484.88,335.07Z"/></g><g opacity="0.1" ><path d="M250.6,407a21.47,21.47,0,0,1-.65-7.87.68.68,0,0,0,0-.14c-16.91-5.85-31.94-19.16-39.3-35.31-4-8.82-6.13-18.92-6.18-30.43-.13-27.61,3.21-61,10.77-87.25,10.9-37.74,30.59-71.47,52.33-104.44,10.78-16.34,17.62-34.19,32.6-46.79-23.63,13.11-38,28.59-53.17,54.08-14.43,24.28-29.76,53.17-39.75,79.21s-15,53.61-17.25,81.34c-2,24.3-2.41,58.2,14.72,78,10,11.57,21.38,19,39.09,21.26,2.21.28,4.46.59,6.72.91A9.64,9.64,0,0,1,250.6,407Z"/></g><g opacity="0.1" ><path d="M389.41,411.83c-.7-9.29.31-9.54.31-9.54-5.29,1.25-9.81,4.43-15.11,5.67a158.85,158.85,0,0,1-19.42,3c-22,2.28-44.35.82-66.16-2.85-1.82-5.46-1.09-11.68-.06-17.2a70.09,70.09,0,0,1,2.3-7.7l-.25.27c-2.59,2.56-3.34,6.84-4.36,10.24-1.49,4.94-2.88,9.8-3,15a4.86,4.86,0,0,1-.94,2.85c.05,1.1.07,2.22.07,3.34,0,.15,0,.28,0,.43,1.38.31,2.75.62,4.08.94,14.89,5.54,32.72,6.73,47.92,6.85,15.66.13,34.69-1.08,45-4.9,2.86-1.06,9.11-1.62,10.47-3.06C391.39,413.86,389.53,413.44,389.41,411.83Z"/></g>        <g opacity="0.1" ><path fill="#fff"  d="M379.25,102.11c6.05,5.3,10.42,13.69,14.49,20.51,4.46,7.47,8.87,15,13.36,22.41,13,21.71,26.15,43.75,37,66.66a328.37,328.37,0,0,1,23.41,68.9c2.75,12.34,4.9,24.8,6.6,37.33,1.39,10.34,4.07,22.69-2.48,31.88,4.28-6,9.86-10.61,11.35-14.66,5.27-14.38.18-32.18-2.49-46.67C475,259,465,230.59,453.51,202.94c-11.28-27.21-25.53-53.07-44.82-75.49C392.48,108.61,379.47,102.3,379.25,102.11Z"/></g>    </g>    <g id="outline">        <path fill="none"  d="M409.36,124.68l.22-.31c3.88-5.71,5.24-12.8,9.68-18.19,4.6-5.6,12-7.82,16.47-13.52a23.16,23.16,0,0,0,5-13c.25-4.7-1.19-11.93-7.43-8.4-3,1.71-5.32,4.27-8.64,5.79a52.5,52.5,0,0,1-9.31,3.12c-12.4,3.05-33.65,4.52-37.55,19A129.43,129.43,0,0,1,409.36,124.68Z"/><path fill="none"  d="M179.94,333c-3.93-.31-7.8,5.92-3.2,7.61,1.23.45,1.6,2.64,0,2.89q-3.6,1.77-1.2,4.19a1.51,1.51,0,0,1-1.15,2.75,17.19,17.19,0,0,0-4.32-.66c-2.65.09-3.44.25-4.34,2.82-1.56,4.44,2.68,6.57,6.06,8.39,1.39.75.64,2.71-.76,2.8a5.56,5.56,0,0,0,3.79,1.83,5.86,5.86,0,0,0,1.72.19,25.3,25.3,0,0,0,2.61-.1c2.32-.15,4.64-.43,6.95-.65,1.15-.11,2.51-.17,4-.29a109,109,0,0,1-4.25-28.82A9.38,9.38,0,0,0,179.94,333Z"/><path fill="none"  d="M256.06,130.89c3.58-4.65,7.34-9.14,11.33-13.4a116.37,116.37,0,0,1,17.93-15.72,1.19,1.19,0,0,1-.08-.2c-4.8-16.49-22.57-27.9-38.18-17.28-4.87,3.3-9,7.6-14,10.69a25.66,25.66,0,0,1-7.55,3.24c-1.95.47-4.79.76-5.37,3.3-.49,2.13,1.64,4.68,3,6,5.58,5.36,12.86,4.41,19.87,4.45,4,0,8.61.69,10.81,4.53C256.51,121.26,253.75,126.69,256.06,130.89Z"/><path fill="none"  d="M467.09,243.42c-8.65-24.15-19.37-47.49-30.8-70.44-9.42-18.92-19.18-36.8-34.41-51.76C388,107.61,371,96.63,352.07,91.78c-1.34-.34-2.68-.64-4-.91,0,0,0,0,0,0s0,0,0,0l-.92-.24a36.39,36.39,0,0,0,2.43-7.58,35.19,35.19,0,0,1-9.72,9.85l-3.22,2.15,1.65-3.53A69.55,69.55,0,0,0,342.93,78a68.49,68.49,0,0,0,1.46-8.88c-1.63,2.48-3.29,5-5,7.38a107.76,107.76,0,0,1-9.05,11.24l-6.05,6.45,3.59-8.08A43.27,43.27,0,0,0,331,62.51c-1.27,4.22-2.55,8.44-3.87,12.65a90.27,90.27,0,0,1-3,8.93,21.53,21.53,0,0,1-2.43,4.23A13.21,13.21,0,0,1,318,91.66l-2.13,1.28.85-2.3A10,10,0,0,0,316,82.4a32.2,32.2,0,0,1-2.15,8.68c-.18.45-.34.48-.67.82a3.27,3.27,0,0,0-.44,0c-.83.2-1.66.46-2.48.71s-1.67.52-2.49.8-1.65.57-2.47.88-1.63.64-2.44,1-1.62.69-2.41,1.06-1.6.74-2.39,1.14-1.58.8-2.36,1.23-1.55.86-2.32,1.31c-20,11.78-34.51,30.8-46.79,50.08a377.39,377.39,0,0,0-52.43,133.52c-1.64,9-3,18.11-3.91,27.25-2.94,30.42-1.69,70.59,28.43,87.67,2.13,1.21,13,3.79,8.38,7.39-2.4,1.85-14.48,3-13.86,6.68.7,4.07,12.39,4.42,15.15,4.64a154.22,154.22,0,0,0,17.6.24c.52,0,1.44,0,2.41,0,.14-1.74.13-3.58.15-5.43s0-3.86.07-5.79c.07-3.85.18-7.68.2-11.51a153.15,153.15,0,0,0-1.33-22.87,55.56,55.56,0,0,0-2.69-11.09,30,30,0,0,0-2.47-5.14,18.3,18.3,0,0,0-3.62-4.42,22.64,22.64,0,0,1,6.82,9.26,57.1,57.1,0,0,1,3.4,11.14,136.91,136.91,0,0,1,2.22,23.1c.1,3.86.11,7.72.09,11.56,0,1.92,0,3.83,0,5.75s.07,3.86-.08,5.9a13.94,13.94,0,0,1-.56,3.13l-.12.39c0,.14-.12.3-.19.45a4.11,4.11,0,0,1-.47.85,7.08,7.08,0,0,1-1.24,1.36,22.65,22.65,0,0,1-5.48,2.84c-1.7.7-3.31,1.6-3.59,2.59a2.09,2.09,0,0,0-.11.85,4.53,4.53,0,0,0,.06.5l.14.48a4.92,4.92,0,0,0,1.25,1.77c.12.11.27.22.4.33a5.55,5.55,0,0,1,.24-3.09,6.57,6.57,0,0,1,2.78-3.36,8.58,8.58,0,0,1,2-.78,12.49,12.49,0,0,1,1.87-.39,13.3,13.3,0,0,1,3.89,0,13.63,13.63,0,0,1-3.14,2.28c-1.12.61-2.2,1.06-3.05,1.5a9.22,9.22,0,0,0-2.26,1.93,12.58,12.58,0,0,0-1.91,3l.47-.39a14.51,14.51,0,0,0,3.19,1.55,19.2,19.2,0,0,0,2.59.75,22.4,22.4,0,0,0,2.68.41c.46,0,.93.06,1.39.09a3,3,0,0,1-.43-.9,3.55,3.55,0,0,1,.16-2.18,7,7,0,0,1,2.47-3,9.89,9.89,0,0,1,3.23-1.61,7.41,7.41,0,0,1,3.66-.16,28.12,28.12,0,0,1-2.61,2.27c-.84.66-1.66,1.29-2.48,1.9a22.31,22.31,0,0,0-2.23,1.76,3.1,3.1,0,0,0-.73,1,2.51,2.51,0,0,0-.21,1.56l.55-.57a48,48,0,0,0,8.39-.42,36.13,36.13,0,0,0,5.42-1.12,14.6,14.6,0,0,0,4.65-2.47,20.1,20.1,0,0,0,3.79-3.86,25.54,25.54,0,0,0,2.86-4.7,12,12,0,0,0,.53-1.25c.15-.41.31-.82.43-1.28.26-.88.48-1.81.7-2.73l1.23-5.61c.81-3.76,1.62-7.54,2.58-11.28a112.65,112.65,0,0,1,3.47-11.07,48.3,48.3,0,0,1,5.15-10.35c-3.71,6.77-5.64,14.26-7.19,21.75-.77,3.71-1.42,7.45-2.06,11.2a313.77,313.77,0,0,0,33.11,5.43c21.47,2.28,43.62,2.35,64.74-2.68a86.81,86.81,0,0,0,8.65-2.58c0-.15-.06-.3-.08-.45-.62-3.71-.81-7.39-1.24-11-.2-1.8-.51-3.61-.79-5.43s-.56-3.63-.93-5.4a30.84,30.84,0,0,0-1.72-5.18q-1-2.6-1.83-5.21,1.08,2.53,2.25,5a31.76,31.76,0,0,1,2.07,5.16c.5,1.8.88,3.6,1.28,5.39s.8,3.59,1.12,5.43c.62,3.66,1,7.33,1.72,10.85a31,31,0,0,0,1.51,5.11,26.64,26.64,0,0,0,2.43,4.68,20.21,20.21,0,0,0,7.48,7,13.33,13.33,0,0,0,2.34.91c.8.25,1.71.44,2.57.62a44.53,44.53,0,0,0,5.29.71,51.54,51.54,0,0,0,5.7.11l.55.57a2.57,2.57,0,0,0-.21-1.56,3.42,3.42,0,0,0-.73-1,23.91,23.91,0,0,0-2.23-1.75c-.82-.61-1.64-1.24-2.48-1.9a27.06,27.06,0,0,1-2.61-2.28,7.37,7.37,0,0,1,3.65.16,10.06,10.06,0,0,1,3.24,1.62,7.05,7.05,0,0,1,2.47,3,3.59,3.59,0,0,1,.16,2.17,2.79,2.79,0,0,1-.44.92c1.2-.08,2.38-.2,3.53-.39a20.26,20.26,0,0,0,4.87-1.58,15.2,15.2,0,0,0,1.48-.83l.45.38a12.87,12.87,0,0,0-1.91-3,9.39,9.39,0,0,0-2.26-1.92c-.85-.44-1.93-.89-3-1.5a13.68,13.68,0,0,1-3.14-2.29,13.57,13.57,0,0,1,3.88.05,12.35,12.35,0,0,1,1.88.39,8.46,8.46,0,0,1,2,.77,6.61,6.61,0,0,1,2.79,3.37,5.56,5.56,0,0,1,.23,3.12,5.88,5.88,0,0,0,1.29-1.42,3.83,3.83,0,0,0,.58-1.85,2.22,2.22,0,0,0-.12-.84,1.79,1.79,0,0,0-.4-.72c-.79-.94-2.47-1.64-4.13-2.28a21.12,21.12,0,0,1-5.32-2.59,7.85,7.85,0,0,1-1.24-1.21,4.82,4.82,0,0,1-.87-1.72,9.16,9.16,0,0,1-.28-1.57c-.06-.51-.08-1-.1-1.48a108.6,108.6,0,0,1,.45-11.18c.28-3.68.67-7.35,1.12-11,.89-7.32,2-14.61,3.49-21.84.76-3.61,1.59-7.21,2.61-10.76a54,54,0,0,1,1.74-5.26,23,23,0,0,1,1.16-2.52,7.34,7.34,0,0,1,1.66-2.2,7.31,7.31,0,0,0-1.46,2.3,23.21,23.21,0,0,0-.94,2.57c-.55,1.74-1,3.52-1.4,5.3-.79,3.58-1.4,7.2-1.93,10.82-1.1,7.25-1.92,14.54-2.61,21.84q-.48,5.47-.83,10.95c-.19,3.41-.36,6.86-.24,10.19,5.42.86,11.33.44,16.68.28a155.32,155.32,0,0,0,19.15-1.45c2.36-.37,3.95,0,2.58-2.3-1.61-2.7-4-4-6.92-5-2.42-.82-9.31-1-10.72-3.45-.77-1.34.08-2.05,1-2.94,1.35-1.35,4-2.21,5.6-3.24q3-1.89,5.8-4A69.64,69.64,0,0,0,475.18,368c8.95-16.71,10.93-36.3,9.16-54.94C482.1,289.37,475.09,265.77,467.09,243.42Z"/><path stroke-linejoin="round" stroke-width="0" fill="none" stroke="#000" stroke-linecap="round"  d="M348,90.87s0,0,0,0"/><path d="M480.3,275.92c-6.47-25.07-15.82-49.32-26.42-72.92-5.39-12-11.13-23.86-17-35.62-5.06-10.06-10.07-20.08-16.63-29.27-2.75-3.84-5.69-7.57-8.8-11.14.13-.17.25-.33.35-.48,2.49-3.51,3.93-7.57,5.73-11.44a28.12,28.12,0,0,1,10.76-12.48c6.76-4.45,12.3-9.21,14.54-17.33,1.5-5.45,2.06-15-4-18.06a5.55,5.55,0,0,0-5.86.48c-2.25,1.46-4,3.55-6.33,5a36.61,36.61,0,0,1-8.22,3.57C404.41,80.52,380,81.26,375,97.62a98.55,98.55,0,0,0-25.75-9.51,36.22,36.22,0,0,0,2.36-8.77l.55-4-2,3.58a34,34,0,0,1-6.46,8.23l-1.1-.16a68.74,68.74,0,0,0,2.76-8.4,71.13,71.13,0,0,0,2.13-14.73l.19-4.94L345,63c-2.64,3.95-5.22,7.91-8,11.73q-1.9,2.64-3.93,5.17a45.2,45.2,0,0,0-.47-23.32l-1.34-4.53L330,56.59c-1.7,6-3.41,11.93-5.06,17.91a89.68,89.68,0,0,1-2.71,8.77,19.91,19.91,0,0,1-2,3.91v0l-1.26.19A11.15,11.15,0,0,0,316,80.18L314.85,79v1.58a30.85,30.85,0,0,1-1,7.87,84.44,84.44,0,0,0-26,11.59C284.21,88.31,274.53,78.18,261.83,77c-13.2-1.29-20.64,9.82-30.88,15.78-3,1.77-6,2.23-9.26,3.1A5.67,5.67,0,0,0,217.63,99c-2,4.44,1.46,9.34,4.87,11.91,4.16,3.14,9.5,4.31,14.64,4.26,2.79,0,5.61-.44,8.4-.12,2.52.29,5.07,1.35,6.07,4,.83,2.17.08,4.86.1,7.13a11.59,11.59,0,0,0,2.42,7.32c-10.31,13.85-19,29-26.88,44.21a379.37,379.37,0,0,0-27.51,69.12q-5.15,17.82-8.5,36.07c-2.79,15.33-5.49,32.51-5.48,49.41-3.72-2.54-8.2-4-12.2-.58-2.79,2.39-2.37,7.22-.06,10a5.38,5.38,0,0,0-1.69,5.23c-3.61-.43-7.46,0-9.28,3.49-2.71,5.25,1.78,9.52,6,12.14a3.61,3.61,0,0,0,.25,2.72c1.64,3.43,6.51,3.63,9.74,3.47a113.36,113.36,0,0,0,12.57-.79,73.09,73.09,0,0,0,7.11,15,53,53,0,0,0,21.65,19.67c.46.23,2,1.13,3.25,1.71-.13.05-.23.1-.31.12-1.78.63-3.6,1.17-5.38,1.82-3.43,1.25-9.09,3.22-6.81,8,1.87,3.92,8,4.81,11.7,5.39a118.06,118.06,0,0,0,20,1c1.44,0,3.43.1,5.42.05a3.08,3.08,0,0,1-.28.54,4.13,4.13,0,0,1-.71.75,20.47,20.47,0,0,1-4.78,2.37,16.94,16.94,0,0,0-2.81,1.43,5.83,5.83,0,0,0-2.43,2.87,6.55,6.55,0,0,0,2.08,6.77,12.4,12.4,0,0,0,2.66,1.88,18.93,18.93,0,0,0,2.86,1.25,23.52,23.52,0,0,0,2.95.83,27.38,27.38,0,0,0,3,.45,49,49,0,0,0,11.85-.35,37.34,37.34,0,0,0,5.85-1.33,17.25,17.25,0,0,0,5.43-3,25.15,25.15,0,0,0,7.16-9.66,18.28,18.28,0,0,0,1-2.89c.26-1,.45-1.92.65-2.88s.37-1.91.55-2.86c22.29,4.82,45.23,7.67,68.05,6.76a160.29,160.29,0,0,0,32.56-4.43q3.58-.9,7.11-2a28.5,28.5,0,0,0,3.11,7.11,21.71,21.71,0,0,0,8.25,8.08,15.26,15.26,0,0,0,2.77,1.15c.95.31,1.84.51,2.78.72a48.1,48.1,0,0,0,5.61.87,45.76,45.76,0,0,0,11.38-.31A23.06,23.06,0,0,0,430,433a14.37,14.37,0,0,0,2.62-1.56,8.74,8.74,0,0,0,2.25-2.39,6.87,6.87,0,0,0,1-3.36,5.19,5.19,0,0,0-1.23-3.53,8.19,8.19,0,0,0-2.68-2,27.2,27.2,0,0,0-2.68-1.14,19.2,19.2,0,0,1-4.59-2.14,4.54,4.54,0,0,1-.74-.7,1.83,1.83,0,0,1-.37-.72l0-.12.83.08a142.39,142.39,0,0,0,20.86,0c5.57-.29,11.91-.22,17.3-1.84,3.77-1.14,2.9-4.87.85-7.65-3.27-4.43-9.45-5.46-14.45-6.64l-.43-.13c.93-.57,1.95-1.32,2.33-1.55a76.58,76.58,0,0,0,11.86-8.78c14-12.68,21.83-30.36,24.29-48.89C489.82,318.43,485.68,296.74,480.3,275.92Zm-65-195.79A52.5,52.5,0,0,0,424.64,77c3.32-1.52,5.61-4.08,8.64-5.79,6.24-3.53,7.68,3.7,7.43,8.4a23.16,23.16,0,0,1-5,13c-4.51,5.7-11.87,7.92-16.47,13.52-4.44,5.39-5.8,12.48-9.68,18.19l-.22.31a129.43,129.43,0,0,0-31.58-25.56C381.68,84.65,402.93,83.18,415.33,80.13ZM253.78,116.48C251.58,112.64,247,112,243,112c-7,0-14.29.91-19.87-4.45-1.35-1.3-3.48-3.85-3-6,.58-2.54,3.42-2.83,5.37-3.3A25.66,25.66,0,0,0,233,95c5-3.09,9.16-7.39,14-10.69,15.61-10.62,33.38.79,38.18,17.28a1.19,1.19,0,0,0,.08.2,116.37,116.37,0,0,0-17.93,15.72c-4,4.26-7.75,8.75-11.33,13.4C253.75,126.69,256.51,121.26,253.78,116.48ZM186.1,365c-2.31.22-4.63.5-6.95.65a25.3,25.3,0,0,1-2.61.1,5.86,5.86,0,0,1-1.72-.19,5.56,5.56,0,0,1-3.79-1.83c1.4-.09,2.15-2.05.76-2.8-3.38-1.82-7.62-3.95-6.06-8.39.9-2.57,1.69-2.73,4.34-2.82a17.19,17.19,0,0,1,4.32.66,1.51,1.51,0,0,0,1.15-2.75q-2.4-2.42,1.2-4.19c1.6-.25,1.23-2.44,0-2.89-4.6-1.69-.73-7.92,3.2-7.61a9.38,9.38,0,0,1,5.86,2.95,109,109,0,0,0,4.25,28.82C188.61,364.86,187.25,364.92,186.1,365Zm289.08,3a69.64,69.64,0,0,1-18.8,22.19q-2.81,2.16-5.8,4c-1.64,1-4.25,1.89-5.6,3.24-.89.89-1.74,1.6-1,2.94,1.41,2.49,8.3,2.63,10.72,3.45,2.94,1,5.31,2.32,6.92,5,1.37,2.3-.22,1.93-2.58,2.3a155.32,155.32,0,0,1-19.15,1.45c-5.35.16-11.26.58-16.68-.28-.12-3.33.05-6.78.24-10.19q.34-5.47.83-10.95c.69-7.3,1.51-14.59,2.61-21.84.53-3.62,1.14-7.24,1.93-10.82.39-1.78.85-3.56,1.4-5.3a23.21,23.21,0,0,1,.94-2.57,7.31,7.31,0,0,1,1.46-2.3,7.34,7.34,0,0,0-1.66,2.2,23,23,0,0,0-1.16,2.52,54,54,0,0,0-1.74,5.26c-1,3.55-1.85,7.15-2.61,10.76-1.46,7.23-2.6,14.52-3.49,21.84-.45,3.66-.84,7.33-1.12,11a108.6,108.6,0,0,0-.45,11.18c0,.48,0,1,.1,1.48a9.16,9.16,0,0,0,.28,1.57,4.82,4.82,0,0,0,.87,1.72,7.85,7.85,0,0,0,1.24,1.21,21.12,21.12,0,0,0,5.32,2.59c1.66.64,3.34,1.34,4.13,2.28a1.79,1.79,0,0,1,.4.72,2.22,2.22,0,0,1,.12.84,3.83,3.83,0,0,1-.58,1.85,5.88,5.88,0,0,1-1.29,1.42,5.56,5.56,0,0,0-.23-3.12,6.61,6.61,0,0,0-2.79-3.37,8.46,8.46,0,0,0-2-.77,12.35,12.35,0,0,0-1.88-.39,13.57,13.57,0,0,0-3.88-.05,13.68,13.68,0,0,0,3.14,2.29c1.12.61,2.2,1.06,3,1.5a9.39,9.39,0,0,1,2.26,1.92,12.87,12.87,0,0,1,1.91,3l-.45-.38a15.2,15.2,0,0,1-1.48.83,20.26,20.26,0,0,1-4.87,1.58c-1.15.19-2.33.31-3.53.39a2.79,2.79,0,0,0,.44-.92,3.59,3.59,0,0,0-.16-2.17,7.05,7.05,0,0,0-2.47-3,10.06,10.06,0,0,0-3.24-1.62,7.37,7.37,0,0,0-3.65-.16,27.06,27.06,0,0,0,2.61,2.28c.84.66,1.66,1.29,2.48,1.9a23.91,23.91,0,0,1,2.23,1.75,3.42,3.42,0,0,1,.73,1,2.57,2.57,0,0,1,.21,1.56l-.55-.57a51.54,51.54,0,0,1-5.7-.11,44.53,44.53,0,0,1-5.29-.71c-.86-.18-1.77-.37-2.57-.62A13.33,13.33,0,0,1,403,430a20.21,20.21,0,0,1-7.48-7,26.64,26.64,0,0,1-2.43-4.68,31,31,0,0,1-1.51-5.11c-.76-3.52-1.1-7.19-1.72-10.85-.32-1.84-.74-3.63-1.12-5.43s-.78-3.59-1.28-5.39a31.76,31.76,0,0,0-2.07-5.16q-1.17-2.49-2.25-5Q384,384,385,386.57a30.84,30.84,0,0,1,1.72,5.18c.37,1.77.65,3.59.93,5.4s.59,3.63.79,5.43c.43,3.62.62,7.3,1.24,11,0,.15.06.3.08.45a86.81,86.81,0,0,1-8.65,2.58c-21.12,5-43.27,5-64.74,2.68a313.77,313.77,0,0,1-33.11-5.43c.64-3.75,1.29-7.49,2.06-11.2,1.55-7.49,3.48-15,7.19-21.75a48.3,48.3,0,0,0-5.15,10.35,112.65,112.65,0,0,0-3.47,11.07c-1,3.74-1.77,7.52-2.58,11.28l-1.23,5.61c-.22.92-.44,1.85-.7,2.73-.12.46-.28.87-.43,1.28a12,12,0,0,1-.53,1.25,25.54,25.54,0,0,1-2.86,4.7,20.1,20.1,0,0,1-3.79,3.86,14.6,14.6,0,0,1-4.65,2.47,36.13,36.13,0,0,1-5.42,1.12,48,48,0,0,1-8.39.42l-.55.57a2.51,2.51,0,0,1,.21-1.56,3.1,3.1,0,0,1,.73-1,22.31,22.31,0,0,1,2.23-1.76c.82-.61,1.64-1.24,2.48-1.9a28.12,28.12,0,0,0,2.61-2.27,7.41,7.41,0,0,0-3.66.16,9.89,9.89,0,0,0-3.23,1.61,7,7,0,0,0-2.47,3,3.55,3.55,0,0,0-.16,2.18,3,3,0,0,0,.43.9c-.46,0-.93-.05-1.39-.09a22.4,22.4,0,0,1-2.68-.41,19.2,19.2,0,0,1-2.59-.75,14.51,14.51,0,0,1-3.19-1.55l-.47.39a12.58,12.58,0,0,1,1.91-3,9.22,9.22,0,0,1,2.26-1.93c.85-.44,1.93-.89,3.05-1.5a13.63,13.63,0,0,0,3.14-2.28,13.3,13.3,0,0,0-3.89,0,12.49,12.49,0,0,0-1.87.39,8.58,8.58,0,0,0-2,.78,6.57,6.57,0,0,0-2.78,3.36,5.55,5.55,0,0,0-.24,3.09c-.13-.11-.28-.22-.4-.33a4.92,4.92,0,0,1-1.25-1.77l-.14-.48a4.53,4.53,0,0,1-.06-.5,2.09,2.09,0,0,1,.11-.85c.28-1,1.89-1.89,3.59-2.59a22.65,22.65,0,0,0,5.48-2.84,7.08,7.08,0,0,0,1.24-1.36,4.11,4.11,0,0,0,.47-.85c.07-.15.14-.31.19-.45l.12-.39a13.94,13.94,0,0,0,.56-3.13c.15-2,.09-4,.08-5.9s-.05-3.83,0-5.75c0-3.84,0-7.7-.09-11.56a136.91,136.91,0,0,0-2.22-23.1,57.1,57.1,0,0,0-3.4-11.14,22.64,22.64,0,0,0-6.82-9.26,18.3,18.3,0,0,1,3.62,4.42,30,30,0,0,1,2.47,5.14,55.56,55.56,0,0,1,2.69,11.09,153.15,153.15,0,0,1,1.33,22.87c0,3.83-.13,7.66-.2,11.51,0,1.93-.06,3.87-.07,5.79s0,3.69-.15,5.43c-1,0-1.89-.05-2.41,0a154.22,154.22,0,0,1-17.6-.24c-2.76-.22-14.45-.57-15.15-4.64C212.55,409,224.63,407.8,227,406c4.66-3.6-6.25-6.18-8.38-7.39-30.12-17.08-31.37-57.25-28.43-87.67.88-9.14,2.27-18.22,3.91-27.25a377.39,377.39,0,0,1,52.43-133.52c12.28-19.28,26.78-38.3,46.79-50.08.77-.45,1.54-.89,2.32-1.31s1.57-.84,2.36-1.23,1.58-.78,2.39-1.14,1.6-.72,2.41-1.06,1.62-.66,2.44-1,1.64-.6,2.47-.88,1.65-.55,2.49-.8,1.65-.51,2.48-.71a3.27,3.27,0,0,1,.44,0c.33-.34.49-.37.67-.82A32.2,32.2,0,0,0,316,82.4a10,10,0,0,1,.78,8.24l-.85,2.3L318,91.66a13.21,13.21,0,0,0,3.68-3.34,21.53,21.53,0,0,0,2.43-4.23,90.27,90.27,0,0,0,3-8.93c1.32-4.21,2.6-8.43,3.87-12.65a43.27,43.27,0,0,1-3.16,23.55l-3.59,8.08,6.05-6.45a107.76,107.76,0,0,0,9.05-11.24c1.72-2.43,3.38-4.9,5-7.38A68.49,68.49,0,0,1,342.93,78a69.55,69.55,0,0,1-4.67,13.57l-1.65,3.53,3.22-2.15a35.19,35.19,0,0,0,9.72-9.85,36.39,36.39,0,0,1-2.43,7.58l.92.24c1.35.27,2.69.57,4,.91,18.95,4.85,36,15.83,49.81,29.44,15.23,15,25,32.84,34.41,51.76,11.43,23,22.15,46.29,30.8,70.44,8,22.35,15,46,17.25,69.67C486.11,331.73,484.13,351.32,475.18,368Z"/>    </g>    <g id="eye">        <g id="eye-color1">            <g opacity="0" ><path fill="#FCD4D4"  d="M280,171.81c-.14.46-.2.94-.35,1.4a16,16,0,0,1-1.35,2.87c-.52.94-1,1.89-1.54,2.82-.24.42-.5.81-.77,1.21l-.43.61c-.09.12-.46.47-.46.6-.19.25-.39.5-.59.74-5.88,7-13.9,9.8-22.69,6.53-8.54-3.17-14.21-10.4-14.65-19.53a2.11,2.11,0,0,1,0-.58,23.28,23.28,0,0,1,19-21.81A18.86,18.86,0,0,1,267.64,148c-15.29-7.71-34.35-2.93-39.29,15.33a20.84,20.84,0,0,0-.67,6.53,29.42,29.42,0,0,0,10.48,20.23c8.6,7.09,21.5,6.67,31,1.77,7.18-3.69,10-12.6,10.92-20.45C280.1,171.55,280.05,171.68,280,171.81Z"/></g><g opacity="0" ><path fill="#FCD4D4"  d="M403.77,165.74c-.24.62-.44,1.25-.7,1.87a24.28,24.28,0,0,1-2,3.66,31.67,31.67,0,0,1-2.54,3.43c-5.88,7-13.9,9.8-22.69,6.53-8.53-3.17-14.2-10.4-14.65-19.53a1.37,1.37,0,0,1,0-.29,2.64,2.64,0,0,1,0-.29,23.29,23.29,0,0,1,19-21.81,18.89,18.89,0,0,1,11.43,1.35c-15.3-7.71-34.36-2.93-39.3,15.33a20.54,20.54,0,0,0-.66,6.53,29.38,29.38,0,0,0,10.48,20.23c8.59,7.09,21.5,6.67,31,1.77,6.9-3.54,9.72-12,10.77-19.65C403.94,165.12,403.86,165.5,403.77,165.74Z"/></g>        </g>        <g id="eye-shape">            <path d="M399,132.29c-.4-4.85-25.25-7.51-47.46-7.58a58.06,58.06,0,0,0,9,1.38c-4,0-15.83.26-27.37.54,2.63,4,11.8,16.45,24.71,17.21C373.23,144.74,399.43,137.73,399,132.29Z"/><path d="M310.61,126.44c-21.88,2-45.75,6.6-45.75,11.4,0,5.46,27.06,12.06,42,8.1,13.85-3.67,21.16-15.39,23.23-19.24-12.24.31-23.33.61-23.33.61C308.1,127.07,309.38,126.77,310.61,126.44Z"/><path opacity="0.1"  d="M351.52,124.71a49.45,49.45,0,0,1-8.41-2.74,16.56,16.56,0,0,1-5,1.14,5.05,5.05,0,0,1-3.76-1.67c-2-2.09-2.71-5.89-3-9.11a15.74,15.74,0,0,1-.8-1.59.49.49,0,0,1,0,.11c.08,2,.13,8.44-2.51,11.25a4.31,4.31,0,0,1-3.2,1.41,15,15,0,0,1-4.75-1.21,35.11,35.11,0,0,1-9.51,4.14c7.22-.65,14.22-1,20.08-1,0,0-.21.46-.63,1.24l3.06-.07c-.5-.77-.77-1.23-.77-1.23C337.94,124.91,344.6,124.68,351.52,124.71Z"/><path d="M351.52,124.71c-6.92,0-13.58.2-19.17.69,0,0,.27.46.77,1.23,11.54-.28,23.35-.54,27.37-.54A58.06,58.06,0,0,1,351.52,124.71Z"/><path opacity="0.1"  d="M351.52,124.71c-6.92,0-13.58.2-19.17.69,0,0,.27.46.77,1.23,11.54-.28,23.35-.54,27.37-.54A58.06,58.06,0,0,1,351.52,124.71Z"/><path d="M310.61,126.44c-1.23.33-2.51.63-3.88.87,0,0,11.09-.3,23.33-.61.42-.78.63-1.24.63-1.24C324.83,125.43,317.83,125.79,310.61,126.44Z"/><path opacity="0.1"  d="M310.61,126.44c-1.23.33-2.51.63-3.88.87,0,0,11.09-.3,23.33-.61.42-.78.63-1.24.63-1.24C324.83,125.43,317.83,125.79,310.61,126.44Z"/><path fill="#3f221b"  d="M338.44,112.33a8.46,8.46,0,0,1-5-2.53c0,3.54.44,8,2,9.9a2.15,2.15,0,0,0,1.64.87c6.68.23,26-11.6,26.14-16a3.06,3.06,0,0,0-1.62-3,6.72,6.72,0,0,0-6.64.55C354.82,102.16,341.33,112.43,338.44,112.33Z"/><path d="M338.15,123.11a16.56,16.56,0,0,0,5-1.14c8.5-3,22.14-11.37,22.14-16.91a5.65,5.65,0,0,0-3.33-5.35,9.57,9.57,0,0,0-9.41,1.06c-3.46,2.76-12.16,8.69-14.05,9.32A21,21,0,0,1,334,106l-2.4-2.76-.23,3.65a39.44,39.44,0,0,0,.07,5.49c.26,3.22,1,7,3,9.11A5.05,5.05,0,0,0,338.15,123.11Zm22.47-20.7a2.7,2.7,0,0,1,1.63,2.65c0,3.94-17.79,15-24.1,15a2.05,2.05,0,0,1-1.57-.72c-1.58-1.68-2.12-5.58-2.26-8.73,1.48,1.38,3,2.46,4.14,2.46,2.73,0,15.8-9.91,15.92-10A6.67,6.67,0,0,1,360.62,102.41Z"/><path fill="#3f221b"  d="M326.13,121.22a1.3,1.3,0,0,0,1-.68c.93-1.43,1.14-4.55,1-7.5-1.12,1.36-2.08,2.09-2.89,2.16-2.41.24-14.31-8.44-14.42-8.53a4.5,4.5,0,0,0-3.09-.77,3.76,3.76,0,0,0-1.81.62,2.3,2.3,0,0,0-.94,2.34C305.36,112.47,321.15,121.71,326.13,121.22Z"/><path d="M328.07,122.1c2.64-2.81,2.59-9.3,2.51-11.25,0-.23,0-.41,0-.5l-.24-3.65-2.4,2.76a18,18,0,0,1-3.31,3.12c-1.69-.68-8.26-5.17-10.86-7.25a7.91,7.91,0,0,0-7.76-.87,4.83,4.83,0,0,0-2.8,4.51c0,4.29,10.11,10.69,16.93,13.33a15,15,0,0,0,4.75,1.21A4.31,4.31,0,0,0,328.07,122.1Zm-20.78-14.93a4.13,4.13,0,0,1,1.76-.36,4.71,4.71,0,0,1,2.83.87c.1.08,10.46,8,12.75,8a5.07,5.07,0,0,0,2.9-1.51c-.16,2.37-.65,4.85-1.65,5.92a1.3,1.3,0,0,1-1,.46c-4.71,0-18.68-8.63-18.68-11.54A1.81,1.81,0,0,1,307.29,107.17Z"/><path fill="#512c20"  d="M409.36,135.05c0,5.09-5.29,7.73-9.36,7.73a6.87,6.87,0,0,0-4.31,1.57,2.86,2.86,0,1,0,.95,2.12,3.18,3.18,0,0,0-.07-.62c2.84-2.89,5.38-1.49,8.86-3.4A7.72,7.72,0,0,0,409.36,135.05Z"/>        </g>        <g id="eye-color2">            <g opacity="0" ><path fill="#6C29FF"  d="M246,163.84c-.14.47-.2.95-.35,1.41a16.7,16.7,0,0,1-1.35,2.87c-.53.93-1,1.89-1.55,2.82a13.5,13.5,0,0,1-.76,1.2c-.14.21-.29.41-.44.62s-.45.46-.45.6c-.19.25-.39.49-.59.74-5.88,7-13.91,9.8-22.69,6.53-8.54-3.17-14.21-10.41-14.65-19.54a1.27,1.27,0,0,1,0-.28,1.36,1.36,0,0,1,0-.29,23.29,23.29,0,0,1,19-21.82,19,19,0,0,1,11.42,1.35c-15.3-7.7-34.35-2.93-39.3,15.34a21.07,21.07,0,0,0-.66,6.53,29.42,29.42,0,0,0,10.48,20.23c8.59,7.09,21.5,6.67,31,1.77,7.19-3.69,10-12.6,10.93-20.46C246.13,163.59,246.08,163.72,246,163.84Z"/></g><g opacity="0" ><path fill="#6C29FF"  d="M369.8,157.78c-.24.62-.44,1.25-.7,1.86a25.86,25.86,0,0,1-2,3.67,33.76,33.76,0,0,1-2.54,3.43c-5.88,7-13.9,9.8-22.69,6.53-8.54-3.17-14.21-10.4-14.65-19.54a1.23,1.23,0,0,1,0-.28.93.93,0,0,1,0-.29,23.29,23.29,0,0,1,19-21.82,19,19,0,0,1,11.42,1.35c-15.29-7.7-34.35-2.93-39.29,15.34a20.48,20.48,0,0,0-.66,6.53,29.34,29.34,0,0,0,10.48,20.23c8.59,7.09,21.5,6.67,31,1.77,6.9-3.55,9.72-12,10.77-19.66C370,157.15,369.89,157.53,369.8,157.78Z"/></g>        </g>    </g>    <g id="nose-mouth">        <path fill="#f25757"  d="M342.46,246.45c-.41.22-2.32-.19-2.89,0a1,1,0,0,0-.52,1,14.81,14.81,0,0,0,.4,4.35,12.51,12.51,0,0,0-2.61-3.47,3.5,3.5,0,0,0-2.79-1.15c-1.22.19-2.07,1.53-3.4,1.18a3.47,3.47,0,0,1-.36-.08,57.36,57.36,0,0,1,3.34,6,8,8,0,0,0,.83,1.91,6,6,0,0,0,1.35,1.49,5.81,5.81,0,0,0,3.73,1.3,5,5,0,0,0,3.57-1.48,5.6,5.6,0,0,0,1.51-3.64,14.85,14.85,0,0,0-.67-4.13,16,16,0,0,0-1.28-3.22Z"/><path fill="#d33d3d"  d="M334.05,247.25a3.5,3.5,0,0,1,2.79,1.15,12.51,12.51,0,0,1,2.61,3.47,14.81,14.81,0,0,1-.4-4.35,1,1,0,0,1,.52-1c.57-.23,2.48.18,2.89,0a14.9,14.9,0,0,1-4.63-3.24,8.23,8.23,0,0,1-.88-1.16,7.5,7.5,0,0,1-2,.18c-.12.23-.25.46-.39.68a13.31,13.31,0,0,1-4.54,4.35l-.26.13.49.91a.13.13,0,0,0,.07,0,3.47,3.47,0,0,0,.36.08C332,248.78,332.83,247.44,334.05,247.25Z"/><path d="M370.82,232.48a21.37,21.37,0,0,1-1.41,5.86,12.93,12.93,0,0,1-3.34,4.75c-2.9,2.59-6.88,3.57-10.8,3.78a39.61,39.61,0,0,1-6-.17,21,21,0,0,1-5.72-1.3,16.45,16.45,0,0,1-5.12-2.84,10.05,10.05,0,0,1-.73-.73c4.22-1.48,6.82-6.56,9.69-9.86,6.16-7.12,14.84-20.64,5.73-29.06-4.65-4.31-12.15-5-18.17-4.69a62.28,62.28,0,0,0-20.68,4.42c-5.23,2.66-9.45,6.53-8.45,13s7.23,11.46,11.66,15.53,10.35,10.1,16.49,11c-.06.09-.12.19-.19.28a13.25,13.25,0,0,1-4.5,3.64,22.8,22.8,0,0,1-5.53,1.92,33.16,33.16,0,0,1-5.88.72,42.27,42.27,0,0,1-6-.2,40.29,40.29,0,0,1-5.87-1,27,27,0,0,1-5.58-2,13.06,13.06,0,0,1-4.65-3.71,11.7,11.7,0,0,0,4.22,4.45,23.43,23.43,0,0,0,5.63,2.61A36.15,36.15,0,0,0,318,250.45a26.39,26.39,0,0,0,11.36-2.84c.48,1.11,1.08,2.15,1.65,3.19a36.69,36.69,0,0,1,1.93,3.8c.13.32.21.63.35,1a6.17,6.17,0,0,0,.51,1,7.1,7.1,0,0,0,1.52,1.71,6.68,6.68,0,0,0,4.25,1.54,5.77,5.77,0,0,0,4.16-1.8,6.4,6.4,0,0,0,1.68-4.18,13.74,13.74,0,0,0-.8-4.35,17.17,17.17,0,0,0-1.11-2.66,22.41,22.41,0,0,0,2.54.88,15.94,15.94,0,0,0,3.11.59,35.08,35.08,0,0,0,6.24.22,22.1,22.1,0,0,0,6.2-1.19,14.37,14.37,0,0,0,5.42-3.36,13,13,0,0,0,3.19-5.44A17.27,17.27,0,0,0,370.82,232.48Zm-26.2,21.42a5.6,5.6,0,0,1-1.51,3.64,5,5,0,0,1-3.57,1.48,5.81,5.81,0,0,1-3.73-1.3,6,6,0,0,1-1.35-1.49,8,8,0,0,1-.83-1.91,57.36,57.36,0,0,0-3.34-6,.13.13,0,0,1-.07,0l-.49-.91.26-.13a13.31,13.31,0,0,0,4.54-4.35c.14-.22.27-.45.39-.68a7.5,7.5,0,0,0,2-.18,8.23,8.23,0,0,0,.88,1.16,14.9,14.9,0,0,0,4.63,3.24l.21.1a16,16,0,0,1,1.28,3.22A14.85,14.85,0,0,1,344.62,253.9Zm-8.85-46.15a7.79,7.79,0,0,0-1.63-.54,1.32,1.32,0,0,1,0-2.53,15,15,0,0,1,8.91-.64c2,.49,4.91,1.55,4.09,4.15a5.68,5.68,0,0,1-5.3,3.6C339.45,211.52,337.81,208.83,335.77,207.75Z"/><rect fill="#563a33"  x="312.85" y="240.07" width="2.61" height="2.61" rx="1.02" ry="1.02" transform="translate(-35.24 428.13) rotate(-65.66)"/><rect fill="#563a33"  x="305.19" y="237.27" width="2.61" height="2.61" rx="1.02" ry="1.02" transform="translate(-37.12 419.64) rotate(-65.68)"/><rect fill="#563a33"  x="305.43" y="243.3" width="2.61" height="2.61" rx="1.02" ry="1.02" transform="translate(-42.42 423.51) rotate(-65.7)"/><rect fill="#563a33"  x="354.66" y="241.94" width="2.61" height="2.61" rx="1.02" ry="1.02" transform="translate(-12.2 467.59) rotate(-65.7)"/><rect fill="#563a33"  x="359.88" y="234.44" width="2.61" height="2.61" rx="1.02" ry="1.02" transform="translate(-2.37 467.82) rotate(-65.68)"/><rect fill="#563a33"  x="361.21" y="239.37" width="2.61" height="2.61" rx="1.02" ry="1.02" transform="translate(-6.17 471.78) rotate(-65.66)"/><path fill="#fff"  d="M347.14,208.19c.82-2.6-2.13-3.66-4.09-4.15a15,15,0,0,0-8.91.64,1.32,1.32,0,0,0,0,2.53,7.79,7.79,0,0,1,1.63.54c2,1.08,3.68,3.77,6.07,4A5.68,5.68,0,0,0,347.14,208.19Z"/><path d="M308.87,269.07a132,132,0,0,0,13.9,4.15c1.17.27,2.35.42,3.53.65s2.36.35,3.56.4l1.78.15,1.79.06c1.19.07,2.39,0,3.58,0s2.38-.11,3.57-.2,2.38-.24,3.56-.45a60.72,60.72,0,0,0,7-1.45,69,69,0,0,0,13.44-5.31,46,46,0,0,1-13,6.8,51.64,51.64,0,0,1-14.54,2.61,49.69,49.69,0,0,1-14.67-1.74A67.64,67.64,0,0,1,308.87,269.07Z"/><g opacity="0.1" ><path d="M338.59,282.74c10.32-.58,20.87-7.3,26-15.68-.22.65-19.13,9.52-26.87,8.94-17.2-1.29-29.27-7-28.86-6.93C308.87,269.07,321.89,283.67,338.59,282.74Z"/></g>    </g></svg>