<!--  ~ Copyright (C) 2018 Baidu, Inc. All Rights Reserved.  --><svg viewBox="0 0 640 480" xmlns="http://www.w3.org/2000/svg">    <g id="back-ground-cl">        <rect fill="none" width="640" height="480" />        <ellipse opacity="0.1" cx="331.93" cy="418.82" rx="168.39" ry="32.01"/>    </g>    <g id="body">        <defs>            <clipPath id="outline">                <path fill="none"  d="M295.17,95.68c-8-20.46-24.84-58.25-36.27-60.84-6.79-1.54-21.21,5-36.75,16.7S195.29,76.25,194.89,83c-.55,9.35,8.57,21.9,17.43,29,5.25,4.19,10.21,6.29,13,5.49,7.48-2.17,31.78-28.83,40.51-38.92l1.08-1.24,21.51,22.39C290.59,98.25,292.85,96.92,295.17,95.68Z"/><path fill="none"  d="M406.11,70.18l.87.66c18.6,14.17,40.36,29.07,44.08,28.89,5.39-.32,31.52-19.11,33-37.42.64-8.16-12.41-22.21-30.35-32.69-23.54-13.75-39.78-13.38-47.13-8.44C389.55,32.6,366.4,72.29,356.63,90a99.64,99.64,0,0,1,13.52,5.18Z"/><path fill="none"  d="M167,345.32c-16.78-1.85-27-9.3-29.61-21.54-3.42-16.17,3.88-28.61,11.05-36.48-9.9,6.95-21.66,19.33-19.49,38.17a38.8,38.8,0,0,0,19.84,30c11.65,6.62,26.69,8.09,39.86,4.2a106.25,106.25,0,0,1-2.33-14.44A89.86,89.86,0,0,1,167,345.32Z"/><path fill="none"  d="M470.21,252.4a21.19,21.19,0,0,1-2.19.14c-.09,0-.16-.51-.21-.51h.05c2.07.05,6.47-3.05,7-5.07.43-1.59-4.27-5.62-7.34-6.76l.31.12c1.33.26,6.23-.88,8.31-2.36a3.37,3.37,0,0,0,1.4-2.41c.53-3.78-7.86-8.93-13.28-10.66l-.1-.36c1.56.48,7.11-.12,9.53-1.71a3.92,3.92,0,0,0,1.68-3.1c.54-5-19.81-25.44-34.78-36.92l.7.43q-2.51-5.14-5.05-10.27c-9.42-18.92-19.18-36.8-34.41-51.76C388,107.59,371,96.61,352.06,91.76A77.38,77.38,0,0,0,293.33,100c-20,11.78-34.51,30.8-46.79,50.08a365.55,365.55,0,0,0-18.3,32.22c1.5-1.19,2.73-2.14,3.53-2.76l.33.38c-15,11.49-34.32,31.92-33.79,36.93A4,4,0,0,0,200,220c2.41,1.59,8,1.19,9.52.71l-.1.36c-5.41,1.73-13.81,7.88-13.27,11.66a3.37,3.37,0,0,0,1.4,2.41,14.26,14.26,0,0,0,7.8,1.86l.32-.12c-3.08,1.14-7.28,5.67-6.84,7.26.55,2,5,5.11,7,5.07l.06,1s-.12-.5-.21-.5a18.72,18.72,0,0,1-3.54-.34q-4.8,16.93-8,34.28c-1.64,9-3,18.12-3.91,27.25-2.94,30.42-1.69,70.59,28.43,87.67,2.13,1.21,13,3.79,8.39,7.39-2.4,1.85-14.49,3-13.87,6.68.7,4.07,12.39,4.42,15.15,4.64a154.25,154.25,0,0,0,17.6.24c.52,0,1.44,0,2.41,0,.15-1.74.14-3.58.15-5.43s0-3.86.07-5.78c.07-3.85.18-7.69.2-11.52a151.82,151.82,0,0,0-1.33-22.87,55.56,55.56,0,0,0-2.69-11.09,30,30,0,0,0-2.47-5.14,18.3,18.3,0,0,0-3.62-4.42,22.64,22.64,0,0,1,6.82,9.26,56.42,56.42,0,0,1,3.4,11.14,135.88,135.88,0,0,1,2.22,23.1c.1,3.86.11,7.72.09,11.56,0,1.92,0,3.83,0,5.75s.07,3.86-.08,5.9a13.4,13.4,0,0,1-.56,3.13l-.12.39c-.05.15-.12.31-.18.45a4.67,4.67,0,0,1-.48.85,6.77,6.77,0,0,1-1.24,1.36,22.47,22.47,0,0,1-5.48,2.84c-1.69.7-3.31,1.6-3.59,2.59a2.12,2.12,0,0,0-.11.85,4.26,4.26,0,0,0,.06.5l.15.48a4.77,4.77,0,0,0,1.24,1.77l.41.33a5.45,5.45,0,0,1,.23-3.09,6.54,6.54,0,0,1,2.79-3.36,8.51,8.51,0,0,1,2-.78,12.35,12.35,0,0,1,1.88-.39,13.23,13.23,0,0,1,3.88,0,13.42,13.42,0,0,1-3.14,2.28c-1.12.61-2.2,1.06-3,1.5a9.08,9.08,0,0,0-2.27,1.93,12.58,12.58,0,0,0-1.91,3l.47-.39a15,15,0,0,0,3.19,1.55,19.2,19.2,0,0,0,2.59.75,22.72,22.72,0,0,0,2.68.41c.46,0,.93.06,1.39.09a2.88,2.88,0,0,1-.43-.9,3.62,3.62,0,0,1,.16-2.18,7.11,7.11,0,0,1,2.47-3,10,10,0,0,1,3.24-1.61,7.37,7.37,0,0,1,3.65-.16,26.88,26.88,0,0,1-2.61,2.27c-.84.66-1.66,1.29-2.48,1.9a22.31,22.31,0,0,0-2.23,1.76,3.25,3.25,0,0,0-.73,1,2.58,2.58,0,0,0-.21,1.56h0l.55-.56a49,49,0,0,0,8.39-.43,36.13,36.13,0,0,0,5.42-1.12,14.6,14.6,0,0,0,4.65-2.47,20.1,20.1,0,0,0,3.79-3.86,25,25,0,0,0,2.86-4.7,10.16,10.16,0,0,0,.53-1.25,11.29,11.29,0,0,0,.43-1.28c.27-.88.49-1.81.71-2.73l1.22-5.61c.81-3.76,1.62-7.54,2.58-11.28a115.41,115.41,0,0,1,3.47-11.07,48.3,48.3,0,0,1,5.15-10.35c-3.71,6.77-5.64,14.26-7.18,21.75-.78,3.71-1.42,7.45-2.07,11.2a314.19,314.19,0,0,0,33.11,5.43c21.48,2.29,43.62,2.35,64.74-2.68a84.24,84.24,0,0,0,8.65-2.58c0-.15-.05-.3-.08-.45-.62-3.71-.81-7.39-1.24-11-.2-1.8-.51-3.61-.78-5.43s-.56-3.63-.94-5.4a31.73,31.73,0,0,0-1.71-5.18q-1-2.6-1.84-5.21c.73,1.69,1.47,3.37,2.25,5a30.89,30.89,0,0,1,2.07,5.16c.5,1.8.88,3.6,1.28,5.4s.8,3.58,1.12,5.42c.62,3.66,1,7.33,1.72,10.85a31,31,0,0,0,1.51,5.11,26.68,26.68,0,0,0,2.44,4.68,20.18,20.18,0,0,0,7.47,7,14.57,14.57,0,0,0,2.34.92c.8.24,1.71.43,2.57.61a44.53,44.53,0,0,0,5.29.71,51.54,51.54,0,0,0,5.7.11l.55.57a2.5,2.5,0,0,0-.21-1.56,3.25,3.25,0,0,0-.73-1,25,25,0,0,0-2.22-1.75c-.83-.61-1.65-1.24-2.49-1.9a28.31,28.31,0,0,1-2.61-2.28,7.41,7.41,0,0,1,3.66.17,9.89,9.89,0,0,1,3.23,1.61,7,7,0,0,1,2.47,3,3.52,3.52,0,0,1,.16,2.17,2.79,2.79,0,0,1-.44.92c1.2-.08,2.38-.2,3.53-.39a20.26,20.26,0,0,0,4.87-1.58,15.2,15.2,0,0,0,1.48-.83l.45.38a12.87,12.87,0,0,0-1.91-3,9.39,9.39,0,0,0-2.26-1.92c-.84-.44-1.93-.89-3.05-1.5a13.39,13.39,0,0,1-3.14-2.29,13.64,13.64,0,0,1,3.89.05,12.49,12.49,0,0,1,1.87.39,8.58,8.58,0,0,1,2,.78,6.52,6.52,0,0,1,2.78,3.36,5.47,5.47,0,0,1,.23,3.12,6.14,6.14,0,0,0,1.3-1.42,3.93,3.93,0,0,0,.57-1.85,2.25,2.25,0,0,0-.11-.84,1.9,1.9,0,0,0-.41-.71c-.78-.95-2.47-1.65-4.13-2.29a21.12,21.12,0,0,1-5.32-2.59,7.85,7.85,0,0,1-1.24-1.21,4.82,4.82,0,0,1-.87-1.72,8.21,8.21,0,0,1-.27-1.57c-.06-.51-.09-1-.11-1.48a108.6,108.6,0,0,1,.45-11.18c.28-3.68.67-7.35,1.13-11,.89-7.32,2-14.61,3.48-21.84.76-3.61,1.59-7.21,2.61-10.76a54.87,54.87,0,0,1,1.74-5.26A23,23,0,0,1,431,350.6a7.51,7.51,0,0,1,1.66-2.2,7.49,7.49,0,0,0-1.46,2.3,25.42,25.42,0,0,0-.94,2.57c-.55,1.74-1,3.52-1.4,5.31-.79,3.57-1.4,7.19-1.93,10.81-1.1,7.25-1.92,14.54-2.6,21.84q-.49,5.47-.84,10.95c-.19,3.41-.36,6.86-.24,10.19,5.42.86,11.33.44,16.69.28a155.16,155.16,0,0,0,19.14-1.45c2.36-.37,3.95,0,2.58-2.3-1.61-2.7-4-4-6.92-5-2.42-.82-9.31-1-10.72-3.45-.76-1.34.09-2.05,1-2.94,1.35-1.35,4-2.2,5.61-3.24,2-1.26,3.93-2.61,5.79-4.05A69.52,69.52,0,0,0,475.16,368c9-16.71,10.93-36.3,9.17-54.94C482.38,292.51,476.86,272.05,470.21,252.4Z"/><path d="M480.28,275.9c-2.09-8.12-4.5-16.15-7.14-24.1,2.05-.64,4-1.83,4.64-4.05.66-2.42-1-4.47-3.15-6a8.77,8.77,0,0,0,3.27-1.35,6.33,6.33,0,0,0,2.64-4.44c.57-4.05-3.48-7.35-7.58-9.61a8,8,0,0,0,2.4-1,6.85,6.85,0,0,0,3-5.29c.79-7.38-22.46-26.63-32.74-34.75q-4.32-9-8.82-17.93c-5.06-10.06-10.07-20.08-16.63-29.27-11.53-16.15-26.43-30.23-43.88-39.81-1-.56-2-1.1-3.07-1.62L406,73.89c8.12,6.16,38.47,28.84,45.06,28.84h.15c7.13-.42,34.26-20.91,35.77-40.17.87-11.12-15.89-26.21-31.83-35.52-16.22-9.48-38-16.64-50.32-8.34-17.94,12.06-41.58,52.86-51.21,70.43a81.66,81.66,0,0,0-31.41-2.27,77.88,77.88,0,0,0-24.39,7.47c-6.51-16.66-24.41-59.26-38.28-62.41-9.24-2.09-26.32,7.53-39.22,17.23S192.46,73.33,191.9,82.82c-.62,10.47,8.86,23.77,18.55,31.49,3.14,2.51,8.71,6.33,13.51,6.33a7.77,7.77,0,0,0,2.16-.29c4.21-1.23,12.57-8.34,24.85-21.13,7.09-7.39,13.53-14.65,16-17.48l18.87,19.64a115.31,115.31,0,0,0-18.48,16.09C251,135,238.22,156.37,227.23,177.64c-1.57,3-3.08,6.09-4.57,9.16-11.34,9.3-28,24.12-27.33,30.39a6.85,6.85,0,0,0,3,5.29,8.11,8.11,0,0,0,2.4,1c-4.1,2.26-8.14,5.56-7.57,9.61a6.29,6.29,0,0,0,2.64,4.44,8.7,8.7,0,0,0,3.27,1.35c-2.1,1.52-3.82,3.57-3.16,6a5.61,5.61,0,0,0,3.32,3.54q-4.81,17-8,34.39c-3.34,18.35-6.55,39.34-5.14,59.35-11.6,1.26-41.24,2.32-45.75-19-5.68-26.83,20.74-42.77,21-42.93l-1.28-2.7c-.38.14-38,14.38-34.1,48.28A41.72,41.72,0,0,0,147.31,358a53.68,53.68,0,0,0,26.43,6.72,56.15,56.15,0,0,0,15.65-2.22,75.23,75.23,0,0,0,8.79,20.37,53.92,53.92,0,0,0,16.36,16.68,52.83,52.83,0,0,0,5.29,3c.45.23,2,1.13,3.24,1.71a2.69,2.69,0,0,1-.31.12c-1.78.63-3.6,1.17-5.38,1.82-3.42,1.25-9.09,3.22-6.81,8,1.87,3.92,8,4.81,11.7,5.39a118.11,118.11,0,0,0,20,1c1.44,0,3.43.1,5.42.05a3.08,3.08,0,0,1-.28.54,3.55,3.55,0,0,1-.71.75,20.47,20.47,0,0,1-4.78,2.37,16.87,16.87,0,0,0-2.8,1.43,5.8,5.8,0,0,0-2.44,2.87,6.55,6.55,0,0,0,2.08,6.77,12.21,12.21,0,0,0,2.67,1.88,18.4,18.4,0,0,0,2.85,1.25,23.19,23.19,0,0,0,3,.83,27.21,27.21,0,0,0,3,.45,49,49,0,0,0,11.85-.35,37.34,37.34,0,0,0,5.85-1.33,17.41,17.41,0,0,0,5.44-3,25.12,25.12,0,0,0,7.15-9.66,17.94,17.94,0,0,0,1-2.89c.26-1,.45-1.92.65-2.88s.37-1.91.55-2.86c22.29,4.82,45.23,7.67,68.06,6.76a159.59,159.59,0,0,0,32.55-4.43c2.39-.6,4.76-1.26,7.12-2a28.47,28.47,0,0,0,3.1,7.11,21.88,21.88,0,0,0,8.25,8.09,16,16,0,0,0,2.77,1.14c.95.31,1.84.51,2.78.72a48.43,48.43,0,0,0,5.61.87,45.76,45.76,0,0,0,11.38-.31A23.06,23.06,0,0,0,430,433a13.82,13.82,0,0,0,2.62-1.56,8.74,8.74,0,0,0,2.25-2.39,6.77,6.77,0,0,0,1-3.36,5.14,5.14,0,0,0-1.23-3.53,8.09,8.09,0,0,0-2.68-2,25.61,25.61,0,0,0-2.67-1.13,19.49,19.49,0,0,1-4.6-2.15,5,5,0,0,1-.74-.7,2,2,0,0,1-.37-.72l0-.12.83.08a142.53,142.53,0,0,0,20.87,0c5.56-.29,11.9-.22,17.29-1.84,3.77-1.13,2.9-4.86.85-7.65-3.26-4.43-9.45-5.46-14.45-6.64l-.43-.12c.93-.58,1.95-1.33,2.33-1.56a76.58,76.58,0,0,0,11.86-8.78c14-12.68,21.84-30.36,24.29-48.89C489.81,318.41,485.66,296.72,480.28,275.9,406.54,21.18c7.35-4.94,23.59-5.31,47.13,8.44,17.94,10.48,31,24.53,30.35,32.69-1.44,18.31-27.57,37.1-33,37.42C447.34,99.91,425.58,85,407,70.84l-.87-.66-36,25A99.64,99.64,0,0,0,356.63,90C366.4,72.29,389.55,32.6,406.54,21.18,266.87,77.3l-1.08,1.24c-8.73,10.09-33,36.75-40.51,38.92-2.75.8-7.71-1.3-13-5.49-8.86-7.07-18-19.62-17.43-29,.4-6.75,11.61-19.69,27.26-31.46s30-18.24,36.75-16.7c11.43,2.59,28.3,40.38,36.27,60.84-2.32,1.24-4.58,2.57-6.79,4,148.79,355.43a38.8,38.8,0,0,1-19.84-30c-2.17-18.84,9.59-31.22,19.49-38.17-7.17,7.87-14.47,20.31-11.05,36.48C140,336,150.22,343.47,167,345.32a89.86,89.86,0,0,0,19.32-.13,106.25,106.25,0,0,0,2.33,14.44C175.48,363.52,160.44,362.05,148.79,355.43,475.16,368a69.52,69.52,0,0,1-18.8,22.19c-1.86,1.44-3.8,2.79-5.79,4.05-1.65,1-4.26,1.89-5.61,3.24-.88.89-1.73,1.6-1,2.94,1.41,2.49,8.3,2.63,10.72,3.45,2.94,1,5.31,2.32,6.92,5,1.37,2.3-.22,1.93-2.58,2.3a155.16,155.16,0,0,1-19.14,1.45c-5.36.16-11.27.58-16.69-.28-.12-3.33,0-6.78.24-10.19q.35-5.48.84-10.95c.68-7.3,1.5-14.59,2.6-21.84.53-3.62,1.14-7.24,1.93-10.81.4-1.79.85-3.57,1.4-5.31a25.42,25.42,0,0,1,.94-2.57,7.49,7.49,0,0,1,1.46-2.3,7.51,7.51,0,0,0-1.66,2.2,23,23,0,0,0-1.16,2.52,54.87,54.87,0,0,0-1.74,5.26c-1,3.55-1.85,7.15-2.61,10.76C424,376.37,422.87,383.66,422,391c-.46,3.66-.85,7.33-1.13,11a108.6,108.6,0,0,0-.45,11.18c0,.48.05,1,.11,1.48a8.21,8.21,0,0,0,.27,1.57,4.82,4.82,0,0,0,.87,1.72,7.85,7.85,0,0,0,1.24,1.21,21.12,21.12,0,0,0,5.32,2.59c1.66.64,3.35,1.34,4.13,2.29a1.9,1.9,0,0,1,.41.71,2.25,2.25,0,0,1,.11.84,3.93,3.93,0,0,1-.57,1.85,6.14,6.14,0,0,1-1.3,1.42,5.47,5.47,0,0,0-.23-3.12,6.52,6.52,0,0,0-2.78-3.36,8.58,8.58,0,0,0-2-.78,12.49,12.49,0,0,0-1.87-.39,13.64,13.64,0,0,0-3.89-.05,13.39,13.39,0,0,0,3.14,2.29c1.12.61,2.21,1.06,3.05,1.5a9.39,9.39,0,0,1,2.26,1.92,12.87,12.87,0,0,1,1.91,3l-.45-.38a15.2,15.2,0,0,1-1.48.83,20.26,20.26,0,0,1-4.87,1.58c-1.15.19-2.33.31-3.53.39a2.79,2.79,0,0,0,.44-.92,3.52,3.52,0,0,0-.16-2.17,7,7,0,0,0-2.47-3,9.89,9.89,0,0,0-3.23-1.61,7.41,7.41,0,0,0-3.66-.17,28.31,28.31,0,0,0,2.61,2.28c.84.66,1.66,1.29,2.49,1.9a25,25,0,0,1,2.22,1.75,3.25,3.25,0,0,1,.73,1,2.5,2.5,0,0,1,.21,1.56l-.55-.57a51.54,51.54,0,0,1-5.7-.11,44.53,44.53,0,0,1-5.29-.71c-.86-.18-1.77-.37-2.57-.61A14.57,14.57,0,0,1,403,430a20.18,20.18,0,0,1-7.47-7,26.68,26.68,0,0,1-2.44-4.68,31,31,0,0,1-1.51-5.11c-.75-3.52-1.1-7.19-1.72-10.85-.32-1.84-.73-3.63-1.12-5.42s-.78-3.6-1.28-5.4a30.89,30.89,0,0,0-2.07-5.16c-.78-1.66-1.52-3.34-2.25-5Q384,384,385,386.55a31.73,31.73,0,0,1,1.71,5.18c.38,1.77.65,3.59.94,5.4s.58,3.63.78,5.43c.43,3.62.62,7.3,1.24,11,0,.15.06.3.08.45a84.24,84.24,0,0,1-8.65,2.58c-21.12,5-43.26,5-64.74,2.68a314.19,314.19,0,0,1-33.11-5.43c.65-3.75,1.29-7.49,2.07-11.2,1.54-7.49,3.47-15,7.18-21.75a48.3,48.3,0,0,0-5.15,10.35,115.41,115.41,0,0,0-3.47,11.07c-1,3.74-1.77,7.52-2.58,11.28l-1.22,5.61c-.22.92-.44,1.85-.71,2.73a11.29,11.29,0,0,1-.43,1.28,10.16,10.16,0,0,1-.53,1.25,25,25,0,0,1-2.86,4.7,20.1,20.1,0,0,1-3.79,3.86,14.6,14.6,0,0,1-4.65,2.47,36.13,36.13,0,0,1-5.42,1.12,49,49,0,0,1-8.39.43l-.55.56h0a2.58,2.58,0,0,1,.21-1.56,3.25,3.25,0,0,1,.73-1,22.31,22.31,0,0,1,2.23-1.76c.82-.61,1.64-1.24,2.48-1.9A26.88,26.88,0,0,0,261,429.1a7.37,7.37,0,0,0-3.65.16,10,10,0,0,0-3.24,1.61,7.11,7.11,0,0,0-2.47,3,3.62,3.62,0,0,0-.16,2.18,2.88,2.88,0,0,0,.43.9c-.46,0-.93-.05-1.39-.09a22.72,22.72,0,0,1-2.68-.41,19.2,19.2,0,0,1-2.59-.75,15,15,0,0,1-3.19-1.55l-.47.39a12.58,12.58,0,0,1,1.91-3,9.08,9.08,0,0,1,2.27-1.93c.84-.44,1.92-.89,3-1.5a13.42,13.42,0,0,0,3.14-2.28,13.23,13.23,0,0,0-3.88,0,12.35,12.35,0,0,0-1.88.39,8.51,8.51,0,0,0-2,.78,6.54,6.54,0,0,0-2.79,3.36,5.45,5.45,0,0,0-.23,3.09l-.41-.33a4.77,4.77,0,0,1-1.24-1.77l-.15-.48a4.26,4.26,0,0,1-.06-.5,2.12,2.12,0,0,1,.11-.85c.28-1,1.9-1.89,3.59-2.59a22.47,22.47,0,0,0,5.48-2.84,6.77,6.77,0,0,0,1.24-1.36,4.67,4.67,0,0,0,.48-.85c.06-.14.13-.3.18-.45l.12-.39a13.4,13.4,0,0,0,.56-3.13c.15-2,.09-4,.08-5.9s0-3.83,0-5.75c0-3.84,0-7.7-.09-11.56a135.88,135.88,0,0,0-2.22-23.1,56.42,56.42,0,0,0-3.4-11.14,22.64,22.64,0,0,0-6.82-9.26,18.3,18.3,0,0,1,3.62,4.42,30,30,0,0,1,2.47,5.14,55.56,55.56,0,0,1,2.69,11.09,151.82,151.82,0,0,1,1.33,22.87c0,3.83-.13,7.67-.2,11.52,0,1.92-.06,3.86-.07,5.78s0,3.69-.15,5.43c-1,0-1.89,0-2.41,0a154.25,154.25,0,0,1-17.6-.24c-2.76-.22-14.45-.57-15.15-4.64-.62-3.64,11.47-4.83,13.87-6.68,4.65-3.6-6.26-6.18-8.39-7.39-30.12-17.08-31.37-57.25-28.43-87.67.88-9.13,2.27-18.21,3.91-27.25q3.24-17.33,8-34.28a18.72,18.72,0,0,0,3.54.34c.09,0,.16.5.21.5l-.06-1c-2,0-6.47-3.05-7-5.07-.44-1.59,3.76-6.12,6.84-7.26l-.32.12a14.26,14.26,0,0,1-7.8-1.86,3.37,3.37,0,0,1-1.4-2.41c-.54-3.78,7.86-9.93,13.27-11.66l.1-.36c-1.55.48-7.11.88-9.52-.71a4,4,0,0,1-1.69-3.1c-.53-5,18.81-25.44,33.79-36.93l-.33-.38c-.8.62-2,1.57-3.53,2.76a365.55,365.55,0,0,1,18.3-32.22c12.28-19.28,26.78-38.3,46.79-50.08a77.38,77.38,0,0,1,58.73-8.26C371,96.61,388,107.59,401.86,121.2c15.23,15,25,32.84,34.41,51.76q2.55,5.13,5.05,10.27l-.7-.43c15,11.48,35.32,31.91,34.78,36.92a3.92,3.92,0,0,1-1.68,3.1c-2.42,1.59-8,2.19-9.53,1.71l.1.36c5.42,1.73,13.81,6.88,13.28,10.66a3.37,3.37,0,0,1-1.4,2.41c-2.08,1.48-7,2.62-8.31,2.36l-.31-.12c3.07,1.14,7.77,5.17,7.34,6.76-.56,2-5,5.12-7,5.07h-.05c.05,0,.12.51.21.51a21.19,21.19,0,0,0,2.19-.14c6.65,19.65,12.17,40.11,14.12,60.67C486.09,331.71,484.12,351.3,475.16,368Z"/>            </clipPath>        </defs>        <g clip-path="url(#outline)">            <rect fill="#898989" width="640" height="480" />        </g>    </g>    <g id="pattern">        <g clip-path="url(#outline)">            <path fill="#435055"  d="M213.89,348.69c-.53,1.67-.95,3.36-1.63,5s-1.29,3.68-.61,5.6A10.12,10.12,0,0,0,214.5,363a35,35,0,0,0,3.59,2.9,3.46,3.46,0,0,0,2.28.82,2.62,2.62,0,0,0,1.24-.6,20.67,20.67,0,0,0,6-7.67,10,10,0,0,0,1.29-6.31c-.63-3.15-3.6-4.52-6.87-5.52a14.84,14.84,0,0,0-3.71-.76c-2-.09-4.42.84-4.37,2.76"/><path fill="#435055"  d="M190,328.09a38.75,38.75,0,0,1,9.5,3.45,7.68,7.68,0,0,1,2.95,2.29,8.54,8.54,0,0,1,1.08,4.33c.31,4.75.59,9.73-1.42,14S196,359.75,191.55,358c-1.59-.63-2.08-1.69-2.12-3.35-.2-8.28-1.39-16.55-1.58-24.83A2.07,2.07,0,0,1,190,328.09Z"/><path fill="#435055"  d="M189.82,298.42a19.21,19.21,0,0,0,1.88,1.21,5.34,5.34,0,0,0,2.38.53,3.92,3.92,0,0,0,3.33-3.36,7.64,7.64,0,0,0-1.11-4.9,1.64,1.64,0,0,0-1-.92,2.38,2.38,0,0,0-1.43.47,5.17,5.17,0,0,1-2.38.37Z"/><path fill="#435055"  d="M193.84,319.82a4,4,0,0,0,2.39,2.33,7,7,0,0,0,4.11.17,16,16,0,0,0,7.69-4c1.6-1.5,5.43-3.41,5.19-6a6.18,6.18,0,0,0-.59-1.87,20.12,20.12,0,0,0-2.11-4c-3.39-4.54-12.4-2.81-15,1.88C194.1,310.87,192.76,317,193.84,319.82Z"/><path fill="#435055"  d="M210.51,327.79c2.29,2.29,4.56,5.58,7.78,1.92,2.19-2.57,1.14-6.9-1.59-8.89a4.76,4.76,0,0,0-2.36-1c-1.89-.16-7.28,3.59-6.24,5.88a2.48,2.48,0,0,0,1,.88A10.33,10.33,0,0,1,210.51,327.79Z"/><path fill="#435055"  d="M239.31,340.06c1.52.27,2.92-.47,3-3a4,4,0,0,0-2.7-3.83,3.48,3.48,0,0,0-4.07,1.5C234.41,336.93,237,339.65,239.31,340.06Z"/><path fill="#435055"  d="M487.06,304.49a7.82,7.82,0,0,0-3.56-1.5l-1.31.3c-3.43,1.39-7.61,3.15-10.49,5.52s-2.64,4.2-1.39,7.77c1.85,5.28,10.41,8.66,14.81,11.53a2.53,2.53,0,0,0,1.3.51,2.26,2.26,0,0,0,1-.3l1.78-.89Z"/><path fill="#435055"  d="M476.15,354.32a4.53,4.53,0,0,0-.46-.56,7.18,7.18,0,0,1,4-12.06c1.63-.26,5.15-.16,5.93,1.65a2.31,2.31,0,0,1,.15,1.08,32.8,32.8,0,0,1-1.46,6.75c-.65,2.4-1.41,4.78-2.27,7.11a3.4,3.4,0,0,1-.85,1.46c-1,.84-2.63.25-3.33-.84C476.76,357.24,477.22,355.83,476.15,354.32Z"/><path fill="#435055"  d="M466.27,361.93c-7.26-2.1-15.92-2.66-20.13,4.41A19.91,19.91,0,0,0,444,377.1a7.54,7.54,0,0,0,2.07,4.85c1.95,1.86,4.93,2.09,7.26,3.44,1.64,1,3.1,2.75,5,3.07,2.35.39,4.31-1.34,5.88-2.84,3-2.81,5.95-5.66,8.05-9.16,1.47-2.46,2.87-5.61,2.83-8.53a3.94,3.94,0,0,0-1.06-2.81,6.15,6.15,0,0,0-1.91-1.1A57.68,57.68,0,0,0,466.27,361.93Z"/><path fill="#435055"  d="M198.8,368l.07,0a9.1,9.1,0,0,1,5.28-.22c4.22.93,7.26,3.47,10.53,5.69,4,2.71,7.95,5.44,11.92,8.15,1.38.95,2.88,2.13,2.69,3.86a6.1,6.1,0,0,1-.88,2.17c-2.06,3.51-3.83,6.7-7,9.51-1.15,1-2.6,2-4,1.91a4,4,0,0,1-2.25-1.26C207.83,391,201,387.48,197,374.56,196.19,372.11,195.79,369.23,198.8,368Z"/><path fill="#435055"  d="M445.88,322.47a2.26,2.26,0,0,0,.11,3,4,4,0,0,0,4,.3,2.41,2.41,0,0,0,.85-1c.4-.92-.36-3.08-1.12-3.74C448.5,320,446.61,321.47,445.88,322.47Z"/><path fill="#435055"  d="M440.23,349.41a6.56,6.56,0,0,1-.8,1.81,8.44,8.44,0,0,0-1.54,2.84c-.25,1.16-.29,2.86.65,3.76s3.57.5,4.56-.39a3.85,3.85,0,0,0,1-2.44c.3-2.16,2.1-4.58.07-6.41a6.17,6.17,0,0,0-2.48-1.24c-.33-.1-.73-.17-1,.08a1,1,0,0,0-.19.46C440.46,348.42,440.36,348.93,440.23,349.41Z"/><path fill="#435055"  d="M452,344.2c0,.3.08.56.09.72.07.95.08,1.89.1,2.84,0,1.37-.35,2.41,1.11,3.13,2.21,1.09,5,3.12,7.5,3.26a3.65,3.65,0,0,0,2.72-6.3,7.12,7.12,0,0,0-1.76-1.12l-8.62-4.42a1.06,1.06,0,0,0-.45-.16C451.76,342.09,451.85,343.31,452,344.2Z"/><path fill="#435055"  d="M463,326.14a19.2,19.2,0,0,0-2.81,4.5c-.64,1.36-1.2,3-.46,4.3,1.1,1.93,6.34,3.33,8.42,3.5a1.65,1.65,0,0,0,1.75-1,3.23,3.23,0,0,0,0-1.2,13.52,13.52,0,0,1,.58-4.06c.47-2.23-.76-5.89-2.68-7.18S464.35,324.66,463,326.14Z"/><path fill="#435055"  d="M158.11,362.28a4.55,4.55,0,0,0,.23,6c1.51,1.59,6.21,1.84,8,.61a4.91,4.91,0,0,0,1.7-2.05c.82-1.86-.72-6.23-2.26-7.55C163.4,357.25,159.59,360.27,158.11,362.28Z"/><path fill="#435055"  d="M128.85,357.35a8.64,8.64,0,0,1-.92,2.34c-2.1,3.92-5.09,6.81-3.87,11.62,1.07,4.25,4.72,5.79,8.37,3.2a11.33,11.33,0,0,0,3.82-5.54c.76-2.15,1.15-4.41,1.74-6.61a7.51,7.51,0,0,0-2.38-7.91c-1.12-.85-3.14-1.69-4.58-1.3C129,353.72,129.32,355.48,128.85,357.35Z"/><path fill="#435055"  d="M170.83,400.19c.61-.28,1.14-.54,1.47-.67,3.13-1.19,6.32-2.14,9.49-3.2a2.61,2.61,0,0,0,2.24-2.65L186,381.59a16.1,16.1,0,0,0,.16-6.48,8.08,8.08,0,0,0-15.08-1.65,15.81,15.81,0,0,0-1.23,4.45L166.08,399a2.71,2.71,0,0,0,0,1.06C166.5,402,169,401,170.83,400.19Z"/><path fill="#435055"  d="M146.88,354.16a5.64,5.64,0,0,0,4.63,3.24,13.82,13.82,0,0,0,7.15-1.36c3.7-1.64,9.71-5.82,11.5-9.65s-3.77-10.75-7.27-11.75c-4.15-1.18-11.88,1.56-14,5.5a21.29,21.29,0,0,0-1.52,5.6,28.75,28.75,0,0,0-1.06,5.7A6.3,6.3,0,0,0,146.88,354.16Z"/><path fill="#435055"  d="M119.2,320.49a39.86,39.86,0,0,0-3.75,11.8,7.76,7.76,0,0,0,1.13,5.37c1.91,2.53,5.94,1.63,8.22.07,2-1.37,3-3.79,3.58-6.14.71-2.83,2.64-6.75,1.84-9.69-.72-2.64-4.07-4.29-6.49-4.95C122.05,316.49,120.5,318.12,119.2,320.49Z"/><path fill="#435055"  d="M138.46,269.92a7.49,7.49,0,0,0-1.7,1c-3.89,3-7.69,6.27-10.15,10.51-6.76,11.7,4.5,42.15,21.12,37.76a9.27,9.27,0,0,0,3.67-2.42C163.74,305.37,150.79,264.92,138.46,269.92Z"/><path fill="#435055"  d="M473.22,290.25a1.89,1.89,0,0,0,.14,3c1,.78,4,.91,5.12.3a2.71,2.71,0,0,0,1.08-1c.52-.93-.46-3.09-1.44-3.74C476.59,287.76,474.16,289.25,473.22,290.25Z"/><path fill="#435055"  d="M406.06,400.73a19.4,19.4,0,0,0-2.81,4.5c-.64,1.36-1.2,3-.46,4.3,1.1,1.93,6.34,3.33,8.42,3.5a1.65,1.65,0,0,0,1.75-1,3.23,3.23,0,0,0,0-1.2,13.52,13.52,0,0,1,.58-4.06c.47-2.23-.76-5.88-2.68-7.18S407.4,399.25,406.06,400.73Z"/><path fill="#435055"  d="M415,384.81a11,11,0,0,0,.43,3,2.75,2.75,0,0,0,1.39,2.05c1.19.44,4-.87,5-1.57a1,1,0,0,0,.39-1.09,1.71,1.71,0,0,0-.45-.52,7.66,7.66,0,0,1-1.24-2,4.67,4.67,0,0,0-3.83-2.16C415.4,382.67,415,383.67,415,384.81Z"/><path fill="#435055"  d="M256.87,415.08a19.47,19.47,0,0,0-2.82,4.5c-.64,1.36-1.19,3-.45,4.3,1.1,1.93,6.33,3.34,8.42,3.5a1.65,1.65,0,0,0,1.75-1,3.18,3.18,0,0,0,0-1.19,13.54,13.54,0,0,1,.58-4.07c.47-2.23-.76-5.88-2.69-7.18C259.86,412.72,258.21,413.6,256.87,415.08Z"/><path fill="#435055"  d="M254.25,408.44a2.25,2.25,0,0,0,.11,3,4,4,0,0,0,4,.3,2.32,2.32,0,0,0,.84-1c.41-.92-.35-3.08-1.12-3.74C256.87,405.94,255,407.44,254.25,408.44Z"/><path fill="#435055"  d="M197.11,15.3c-5.36.41-10.48,1.87-14.63,5.22-3.85,3.12-6.35,7.09-8.8,11-4.75,7.6-13,15-6.45,23.5,5.67,7.38,11.05,15.27,18,21.54,5.77,5.2,12.85,9.26,20.57,10.12,12.71,1.42,33.8-8.21,38-21.32,3.36-10.49-7.1-30-13.82-37.87C221.59,17.62,209.74,14.33,197.11,15.3Z"/><path fill="#435055"  d="M406.49,53.79c3.07,9.76,11.58,15.24,21.63,13,6.44-1.44,16.43-9.47,7.31-15.23-2.17-1.37-4.81-1.74-7.37-2q-7.83-.93-15.71-1.49c-1.75-.12-3.71-.16-5,1S405.92,52,406.49,53.79Z"/><path fill="#435055"  d="M114.29,103c1.09.38,2.06.69,2.63.94,3.33,1.43,6.58,3,9.83,4.63,4.75,2.34,7.65,5.4,12.65,1.69,7.6-5.65,19.39-11.54,24.28-19.92A14,14,0,0,0,146.93,70a27.91,27.91,0,0,0-6.93,4L109.82,95.74A4.65,4.65,0,0,0,108.48,97C106.69,100,111,101.83,114.29,103Z"/><path fill="#435055"  d="M539.47,5.73C522.1.69,497.93,2.61,494.42,21c-3.41,17.82,6.36,43.7,23.27,51.39,7.34,3.34,15.59,4.29,23.65,4,5-.2,10.48-1.08,14-4.73C573.5,52.55,564.71,13,539.47,5.73Z"/>            <g opacity="0.6" ><path fill="#FFFFFF"  d="M285.65,417.34c.88-28.07,28.25-44.44,48.84-46.07,24.2-1.91,50.7,17.49,53.14,45.19.13,1.39-.11,1.25-1.55,2-5.06,2.52-10.68,3.22-16.14,4-11.84,1.77-24.23,2.06-36.17,2-16.08-.11-32.32-1.27-47.7-6.73"/></g>        </g>    </g>    <g id="mask">        <path opacity="0.1"  d="M292.13,98S271,61.72,264.23,62.33s-41.34,22.61-47.65,30.14-12.83,11.61-11.4,14,13.35,14.79,20.52,12.38,36.79-32.36,41.22-39.38l20.94,22.11Z"/><path opacity="0.1"  d="M360.35,92.67S389.07,56,404.54,50.11s54.78,8.76,73.52,28.72c0,0-17.77,22.39-26.91,22.4S406.07,72,406.07,72L370.13,97Z"/><path opacity="0.1"  d="M153.05,282.06s-27.09,17.72-19.76,44,35.64,29.12,55.6,26.47l1,7.94s-44,13.64-58.85-22.2S153.05,282.06,153.05,282.06Z"/><path opacity="0.1"  d="M314,91.72s-42.9,22.54-66.79,83.9-57.84,121.64-44.53,177.31,47.51,47.78,47.51,47.78l.26,18.71s-40.92,3.15-38.14-7.65c1-3.72,14.74-7.37,14.74-7.37s-26.55-11-32.52-32.47-10.59-46.16,4.07-110.78c1-4.58,2.6-13.16,2.6-13.16s-4.57-1.42-3.34-4.62,5.9-5.5,5.9-5.5-9-.41-8.35-6.52c.56-5.55,11-8.35,11.81-9.36,0,0-13,4.27-9.57-7.54,2.23-7.59,25.05-23.62,26.92-27.78a226.1,226.1,0,0,1,30.51-49.87C267.83,121.05,281.14,100.41,314,91.72Z"/><path opacity="0.1"  d="M285.62,396.3s14.86,8.76,54,9.37,48.87-8.55,48.87-8.55l2.86,18.73s-25.26,8.55-52.34,6.52-50.91-3.67-57.22-6.93Z"/><g opacity="0.1" ><path d="M484.17,337.26c.23,1.7-3.5,6.77-4.43,8.5-1.82,3.4-3.69,6.77-5.68,10.08A108.34,108.34,0,0,1,460.84,374a63.59,63.59,0,0,1-11.06,9.46,60.26,60.26,0,0,1-6.26,3.67A33.15,33.15,0,0,1,438,389.6c-4,1.15-6.14-2.22-7.32-5.52a39.81,39.81,0,0,1-2.34-17.55,119.74,119.74,0,0,1,2.55-14.41l-1.94,4.49c-3.07,11.12-4.59,22.55-6,34a4.72,4.72,0,0,0,.26,2.19,3.48,3.48,0,0,0-.87.73c-2.06,2.52-.7,11.1-.82,14.3a.63.63,0,0,0,.09.45c.16.19.46.15.7.08a107.68,107.68,0,0,0,24.46-9.43c9.47-5.3,16.41-12.77,22.8-21.4,3.19-4.31,7.4-8.23,9.2-13.28C481.83,355.55,485.44,346.42,484.17,337.26Z"/></g>        <path fill="#fff" opacity="0.1"  d="M343.59,89.82s28.56,2.3,57.39,29.93c10.72,10.28,20.44,24.84,30.24,43,3.3,6.12,7.4,13.2,10.38,20.37l-1.42,1.63s39,29.07,35.13,36.35c-2.45,4.58-10.29,2.24-10.29,2.24l-.61,2.44s15.35,4.64,13.14,10.59c-1.63,4.38-9.06,2.65-9.06,2.65l-.62,2.44s7.54,2.85,7.23,5.5-7.33,2.75-7.33,2.75l.1,2.54s1.53,0,2.35-.1a304,304,0,0,1,9.57,32.58c3.26,15.07,6.72,34.42,4.78,51.32,0,0-18.26-70.25-45.95-130S373.45,105,343.59,89.82Z"/>    </g>    <g id="outline">        <path fill="none"  d="M295.17,95.68c-8-20.46-24.84-58.25-36.27-60.84-6.79-1.54-21.21,5-36.75,16.7S195.29,76.25,194.89,83c-.55,9.35,8.57,21.9,17.43,29,5.25,4.19,10.21,6.29,13,5.49,7.48-2.17,31.78-28.83,40.51-38.92l1.08-1.24,21.51,22.39C290.59,98.25,292.85,96.92,295.17,95.68Z"/><path fill="none"  d="M406.11,70.18l.87.66c18.6,14.17,40.36,29.07,44.08,28.89,5.39-.32,31.52-19.11,33-37.42.64-8.16-12.41-22.21-30.35-32.69-23.54-13.75-39.78-13.38-47.13-8.44C389.55,32.6,366.4,72.29,356.63,90a99.64,99.64,0,0,1,13.52,5.18Z"/><path fill="none"  d="M167,345.32c-16.78-1.85-27-9.3-29.61-21.54-3.42-16.17,3.88-28.61,11.05-36.48-9.9,6.95-21.66,19.33-19.49,38.17a38.8,38.8,0,0,0,19.84,30c11.65,6.62,26.69,8.09,39.86,4.2a106.25,106.25,0,0,1-2.33-14.44A89.86,89.86,0,0,1,167,345.32Z"/><path fill="none"  d="M470.21,252.4a21.19,21.19,0,0,1-2.19.14c-.09,0-.16-.51-.21-.51h.05c2.07.05,6.47-3.05,7-5.07.43-1.59-4.27-5.62-7.34-6.76l.31.12c1.33.26,6.23-.88,8.31-2.36a3.37,3.37,0,0,0,1.4-2.41c.53-3.78-7.86-8.93-13.28-10.66l-.1-.36c1.56.48,7.11-.12,9.53-1.71a3.92,3.92,0,0,0,1.68-3.1c.54-5-19.81-25.44-34.78-36.92l.7.43q-2.51-5.14-5.05-10.27c-9.42-18.92-19.18-36.8-34.41-51.76C388,107.59,371,96.61,352.06,91.76A77.38,77.38,0,0,0,293.33,100c-20,11.78-34.51,30.8-46.79,50.08a365.55,365.55,0,0,0-18.3,32.22c1.5-1.19,2.73-2.14,3.53-2.76l.33.38c-15,11.49-34.32,31.92-33.79,36.93A4,4,0,0,0,200,220c2.41,1.59,8,1.19,9.52.71l-.1.36c-5.41,1.73-13.81,7.88-13.27,11.66a3.37,3.37,0,0,0,1.4,2.41,14.26,14.26,0,0,0,7.8,1.86l.32-.12c-3.08,1.14-7.28,5.67-6.84,7.26.55,2,5,5.11,7,5.07l.06,1s-.12-.5-.21-.5a18.72,18.72,0,0,1-3.54-.34q-4.8,16.93-8,34.28c-1.64,9-3,18.12-3.91,27.25-2.94,30.42-1.69,70.59,28.43,87.67,2.13,1.21,13,3.79,8.39,7.39-2.4,1.85-14.49,3-13.87,6.68.7,4.07,12.39,4.42,15.15,4.64a154.25,154.25,0,0,0,17.6.24c.52,0,1.44,0,2.41,0,.15-1.74.14-3.58.15-5.43s0-3.86.07-5.78c.07-3.85.18-7.69.2-11.52a151.82,151.82,0,0,0-1.33-22.87,55.56,55.56,0,0,0-2.69-11.09,30,30,0,0,0-2.47-5.14,18.3,18.3,0,0,0-3.62-4.42,22.64,22.64,0,0,1,6.82,9.26,56.42,56.42,0,0,1,3.4,11.14,135.88,135.88,0,0,1,2.22,23.1c.1,3.86.11,7.72.09,11.56,0,1.92,0,3.83,0,5.75s.07,3.86-.08,5.9a13.4,13.4,0,0,1-.56,3.13l-.12.39c-.05.15-.12.31-.18.45a4.67,4.67,0,0,1-.48.85,6.77,6.77,0,0,1-1.24,1.36,22.47,22.47,0,0,1-5.48,2.84c-1.69.7-3.31,1.6-3.59,2.59a2.12,2.12,0,0,0-.11.85,4.26,4.26,0,0,0,.06.5l.15.48a4.77,4.77,0,0,0,1.24,1.77l.41.33a5.45,5.45,0,0,1,.23-3.09,6.54,6.54,0,0,1,2.79-3.36,8.51,8.51,0,0,1,2-.78,12.35,12.35,0,0,1,1.88-.39,13.23,13.23,0,0,1,3.88,0,13.42,13.42,0,0,1-3.14,2.28c-1.12.61-2.2,1.06-3,1.5a9.08,9.08,0,0,0-2.27,1.93,12.58,12.58,0,0,0-1.91,3l.47-.39a15,15,0,0,0,3.19,1.55,19.2,19.2,0,0,0,2.59.75,22.72,22.72,0,0,0,2.68.41c.46,0,.93.06,1.39.09a2.88,2.88,0,0,1-.43-.9,3.62,3.62,0,0,1,.16-2.18,7.11,7.11,0,0,1,2.47-3,10,10,0,0,1,3.24-1.61,7.37,7.37,0,0,1,3.65-.16,26.88,26.88,0,0,1-2.61,2.27c-.84.66-1.66,1.29-2.48,1.9a22.31,22.31,0,0,0-2.23,1.76,3.25,3.25,0,0,0-.73,1,2.58,2.58,0,0,0-.21,1.56h0l.55-.56a49,49,0,0,0,8.39-.43,36.13,36.13,0,0,0,5.42-1.12,14.6,14.6,0,0,0,4.65-2.47,20.1,20.1,0,0,0,3.79-3.86,25,25,0,0,0,2.86-4.7,10.16,10.16,0,0,0,.53-1.25,11.29,11.29,0,0,0,.43-1.28c.27-.88.49-1.81.71-2.73l1.22-5.61c.81-3.76,1.62-7.54,2.58-11.28a115.41,115.41,0,0,1,3.47-11.07,48.3,48.3,0,0,1,5.15-10.35c-3.71,6.77-5.64,14.26-7.18,21.75-.78,3.71-1.42,7.45-2.07,11.2a314.19,314.19,0,0,0,33.11,5.43c21.48,2.29,43.62,2.35,64.74-2.68a84.24,84.24,0,0,0,8.65-2.58c0-.15-.05-.3-.08-.45-.62-3.71-.81-7.39-1.24-11-.2-1.8-.51-3.61-.78-5.43s-.56-3.63-.94-5.4a31.73,31.73,0,0,0-1.71-5.18q-1-2.6-1.84-5.21c.73,1.69,1.47,3.37,2.25,5a30.89,30.89,0,0,1,2.07,5.16c.5,1.8.88,3.6,1.28,5.4s.8,3.58,1.12,5.42c.62,3.66,1,7.33,1.72,10.85a31,31,0,0,0,1.51,5.11,26.68,26.68,0,0,0,2.44,4.68,20.18,20.18,0,0,0,7.47,7,14.57,14.57,0,0,0,2.34.92c.8.24,1.71.43,2.57.61a44.53,44.53,0,0,0,5.29.71,51.54,51.54,0,0,0,5.7.11l.55.57a2.5,2.5,0,0,0-.21-1.56,3.25,3.25,0,0,0-.73-1,25,25,0,0,0-2.22-1.75c-.83-.61-1.65-1.24-2.49-1.9a28.31,28.31,0,0,1-2.61-2.28,7.41,7.41,0,0,1,3.66.17,9.89,9.89,0,0,1,3.23,1.61,7,7,0,0,1,2.47,3,3.52,3.52,0,0,1,.16,2.17,2.79,2.79,0,0,1-.44.92c1.2-.08,2.38-.2,3.53-.39a20.26,20.26,0,0,0,4.87-1.58,15.2,15.2,0,0,0,1.48-.83l.45.38a12.87,12.87,0,0,0-1.91-3,9.39,9.39,0,0,0-2.26-1.92c-.84-.44-1.93-.89-3.05-1.5a13.39,13.39,0,0,1-3.14-2.29,13.64,13.64,0,0,1,3.89.05,12.49,12.49,0,0,1,1.87.39,8.58,8.58,0,0,1,2,.78,6.52,6.52,0,0,1,2.78,3.36,5.47,5.47,0,0,1,.23,3.12,6.14,6.14,0,0,0,1.3-1.42,3.93,3.93,0,0,0,.57-1.85,2.25,2.25,0,0,0-.11-.84,1.9,1.9,0,0,0-.41-.71c-.78-.95-2.47-1.65-4.13-2.29a21.12,21.12,0,0,1-5.32-2.59,7.85,7.85,0,0,1-1.24-1.21,4.82,4.82,0,0,1-.87-1.72,8.21,8.21,0,0,1-.27-1.57c-.06-.51-.09-1-.11-1.48a108.6,108.6,0,0,1,.45-11.18c.28-3.68.67-7.35,1.13-11,.89-7.32,2-14.61,3.48-21.84.76-3.61,1.59-7.21,2.61-10.76a54.87,54.87,0,0,1,1.74-5.26A23,23,0,0,1,431,350.6a7.51,7.51,0,0,1,1.66-2.2,7.49,7.49,0,0,0-1.46,2.3,25.42,25.42,0,0,0-.94,2.57c-.55,1.74-1,3.52-1.4,5.31-.79,3.57-1.4,7.19-1.93,10.81-1.1,7.25-1.92,14.54-2.6,21.84q-.49,5.47-.84,10.95c-.19,3.41-.36,6.86-.24,10.19,5.42.86,11.33.44,16.69.28a155.16,155.16,0,0,0,19.14-1.45c2.36-.37,3.95,0,2.58-2.3-1.61-2.7-4-4-6.92-5-2.42-.82-9.31-1-10.72-3.45-.76-1.34.09-2.05,1-2.94,1.35-1.35,4-2.2,5.61-3.24,2-1.26,3.93-2.61,5.79-4.05A69.52,69.52,0,0,0,475.16,368c9-16.71,10.93-36.3,9.17-54.94C482.38,292.51,476.86,272.05,470.21,252.4Z"/><path d="M480.28,275.9c-2.09-8.12-4.5-16.15-7.14-24.1,2.05-.64,4-1.83,4.64-4.05.66-2.42-1-4.47-3.15-6a8.77,8.77,0,0,0,3.27-1.35,6.33,6.33,0,0,0,2.64-4.44c.57-4.05-3.48-7.35-7.58-9.61a8,8,0,0,0,2.4-1,6.85,6.85,0,0,0,3-5.29c.79-7.38-22.46-26.63-32.74-34.75q-4.32-9-8.82-17.93c-5.06-10.06-10.07-20.08-16.63-29.27-11.53-16.15-26.43-30.23-43.88-39.81-1-.56-2-1.1-3.07-1.62L406,73.89c8.12,6.16,38.47,28.84,45.06,28.84h.15c7.13-.42,34.26-20.91,35.77-40.17.87-11.12-15.89-26.21-31.83-35.52-16.22-9.48-38-16.64-50.32-8.34-17.94,12.06-41.58,52.86-51.21,70.43a81.66,81.66,0,0,0-31.41-2.27,77.88,77.88,0,0,0-24.39,7.47c-6.51-16.66-24.41-59.26-38.28-62.41-9.24-2.09-26.32,7.53-39.22,17.23S192.46,73.33,191.9,82.82c-.62,10.47,8.86,23.77,18.55,31.49,3.14,2.51,8.71,6.33,13.51,6.33a7.77,7.77,0,0,0,2.16-.29c4.21-1.23,12.57-8.34,24.85-21.13,7.09-7.39,13.53-14.65,16-17.48l18.87,19.64a115.31,115.31,0,0,0-18.48,16.09C251,135,238.22,156.37,227.23,177.64c-1.57,3-3.08,6.09-4.57,9.16-11.34,9.3-28,24.12-27.33,30.39a6.85,6.85,0,0,0,3,5.29,8.11,8.11,0,0,0,2.4,1c-4.1,2.26-8.14,5.56-7.57,9.61a6.29,6.29,0,0,0,2.64,4.44,8.7,8.7,0,0,0,3.27,1.35c-2.1,1.52-3.82,3.57-3.16,6a5.61,5.61,0,0,0,3.32,3.54q-4.81,17-8,34.39c-3.34,18.35-6.55,39.34-5.14,59.35-11.6,1.26-41.24,2.32-45.75-19-5.68-26.83,20.74-42.77,21-42.93l-1.28-2.7c-.38.14-38,14.38-34.1,48.28A41.72,41.72,0,0,0,147.31,358a53.68,53.68,0,0,0,26.43,6.72,56.15,56.15,0,0,0,15.65-2.22,75.23,75.23,0,0,0,8.79,20.37,53.92,53.92,0,0,0,16.36,16.68,52.83,52.83,0,0,0,5.29,3c.45.23,2,1.13,3.24,1.71a2.69,2.69,0,0,1-.31.12c-1.78.63-3.6,1.17-5.38,1.82-3.42,1.25-9.09,3.22-6.81,8,1.87,3.92,8,4.81,11.7,5.39a118.11,118.11,0,0,0,20,1c1.44,0,3.43.1,5.42.05a3.08,3.08,0,0,1-.28.54,3.55,3.55,0,0,1-.71.75,20.47,20.47,0,0,1-4.78,2.37,16.87,16.87,0,0,0-2.8,1.43,5.8,5.8,0,0,0-2.44,2.87,6.55,6.55,0,0,0,2.08,6.77,12.21,12.21,0,0,0,2.67,1.88,18.4,18.4,0,0,0,2.85,1.25,23.19,23.19,0,0,0,3,.83,27.21,27.21,0,0,0,3,.45,49,49,0,0,0,11.85-.35,37.34,37.34,0,0,0,5.85-1.33,17.41,17.41,0,0,0,5.44-3,25.12,25.12,0,0,0,7.15-9.66,17.94,17.94,0,0,0,1-2.89c.26-1,.45-1.92.65-2.88s.37-1.91.55-2.86c22.29,4.82,45.23,7.67,68.06,6.76a159.59,159.59,0,0,0,32.55-4.43c2.39-.6,4.76-1.26,7.12-2a28.47,28.47,0,0,0,3.1,7.11,21.88,21.88,0,0,0,8.25,8.09,16,16,0,0,0,2.77,1.14c.95.31,1.84.51,2.78.72a48.43,48.43,0,0,0,5.61.87,45.76,45.76,0,0,0,11.38-.31A23.06,23.06,0,0,0,430,433a13.82,13.82,0,0,0,2.62-1.56,8.74,8.74,0,0,0,2.25-2.39,6.77,6.77,0,0,0,1-3.36,5.14,5.14,0,0,0-1.23-3.53,8.09,8.09,0,0,0-2.68-2,25.61,25.61,0,0,0-2.67-1.13,19.49,19.49,0,0,1-4.6-2.15,5,5,0,0,1-.74-.7,2,2,0,0,1-.37-.72l0-.12.83.08a142.53,142.53,0,0,0,20.87,0c5.56-.29,11.9-.22,17.29-1.84,3.77-1.13,2.9-4.86.85-7.65-3.26-4.43-9.45-5.46-14.45-6.64l-.43-.12c.93-.58,1.95-1.33,2.33-1.56a76.58,76.58,0,0,0,11.86-8.78c14-12.68,21.84-30.36,24.29-48.89C489.81,318.41,485.66,296.72,480.28,275.9ZM406.54,21.18c7.35-4.94,23.59-5.31,47.13,8.44,17.94,10.48,31,24.53,30.35,32.69-1.44,18.31-27.57,37.1-33,37.42C447.34,99.91,425.58,85,407,70.84l-.87-.66-36,25A99.64,99.64,0,0,0,356.63,90C366.4,72.29,389.55,32.6,406.54,21.18ZM266.87,77.3l-1.08,1.24c-8.73,10.09-33,36.75-40.51,38.92-2.75.8-7.71-1.3-13-5.49-8.86-7.07-18-19.62-17.43-29,.4-6.75,11.61-19.69,27.26-31.46s30-18.24,36.75-16.7c11.43,2.59,28.3,40.38,36.27,60.84-2.32,1.24-4.58,2.57-6.79,4ZM148.79,355.43a38.8,38.8,0,0,1-19.84-30c-2.17-18.84,9.59-31.22,19.49-38.17-7.17,7.87-14.47,20.31-11.05,36.48C140,336,150.22,343.47,167,345.32a89.86,89.86,0,0,0,19.32-.13,106.25,106.25,0,0,0,2.33,14.44C175.48,363.52,160.44,362.05,148.79,355.43ZM475.16,368a69.52,69.52,0,0,1-18.8,22.19c-1.86,1.44-3.8,2.79-5.79,4.05-1.65,1-4.26,1.89-5.61,3.24-.88.89-1.73,1.6-1,2.94,1.41,2.49,8.3,2.63,10.72,3.45,2.94,1,5.31,2.32,6.92,5,1.37,2.3-.22,1.93-2.58,2.3a155.16,155.16,0,0,1-19.14,1.45c-5.36.16-11.27.58-16.69-.28-.12-3.33,0-6.78.24-10.19q.35-5.48.84-10.95c.68-7.3,1.5-14.59,2.6-21.84.53-3.62,1.14-7.24,1.93-10.81.4-1.79.85-3.57,1.4-5.31a25.42,25.42,0,0,1,.94-2.57,7.49,7.49,0,0,1,1.46-2.3,7.51,7.51,0,0,0-1.66,2.2,23,23,0,0,0-1.16,2.52,54.87,54.87,0,0,0-1.74,5.26c-1,3.55-1.85,7.15-2.61,10.76C424,376.37,422.87,383.66,422,391c-.46,3.66-.85,7.33-1.13,11a108.6,108.6,0,0,0-.45,11.18c0,.48.05,1,.11,1.48a8.21,8.21,0,0,0,.27,1.57,4.82,4.82,0,0,0,.87,1.72,7.85,7.85,0,0,0,1.24,1.21,21.12,21.12,0,0,0,5.32,2.59c1.66.64,3.35,1.34,4.13,2.29a1.9,1.9,0,0,1,.41.71,2.25,2.25,0,0,1,.11.84,3.93,3.93,0,0,1-.57,1.85,6.14,6.14,0,0,1-1.3,1.42,5.47,5.47,0,0,0-.23-3.12,6.52,6.52,0,0,0-2.78-3.36,8.58,8.58,0,0,0-2-.78,12.49,12.49,0,0,0-1.87-.39,13.64,13.64,0,0,0-3.89-.05,13.39,13.39,0,0,0,3.14,2.29c1.12.61,2.21,1.06,3.05,1.5a9.39,9.39,0,0,1,2.26,1.92,12.87,12.87,0,0,1,1.91,3l-.45-.38a15.2,15.2,0,0,1-1.48.83,20.26,20.26,0,0,1-4.87,1.58c-1.15.19-2.33.31-3.53.39a2.79,2.79,0,0,0,.44-.92,3.52,3.52,0,0,0-.16-2.17,7,7,0,0,0-2.47-3,9.89,9.89,0,0,0-3.23-1.61,7.41,7.41,0,0,0-3.66-.17,28.31,28.31,0,0,0,2.61,2.28c.84.66,1.66,1.29,2.49,1.9a25,25,0,0,1,2.22,1.75,3.25,3.25,0,0,1,.73,1,2.5,2.5,0,0,1,.21,1.56l-.55-.57a51.54,51.54,0,0,1-5.7-.11,44.53,44.53,0,0,1-5.29-.71c-.86-.18-1.77-.37-2.57-.61A14.57,14.57,0,0,1,403,430a20.18,20.18,0,0,1-7.47-7,26.68,26.68,0,0,1-2.44-4.68,31,31,0,0,1-1.51-5.11c-.75-3.52-1.1-7.19-1.72-10.85-.32-1.84-.73-3.63-1.12-5.42s-.78-3.6-1.28-5.4a30.89,30.89,0,0,0-2.07-5.16c-.78-1.66-1.52-3.34-2.25-5Q384,384,385,386.55a31.73,31.73,0,0,1,1.71,5.18c.38,1.77.65,3.59.94,5.4s.58,3.63.78,5.43c.43,3.62.62,7.3,1.24,11,0,.15.06.3.08.45a84.24,84.24,0,0,1-8.65,2.58c-21.12,5-43.26,5-64.74,2.68a314.19,314.19,0,0,1-33.11-5.43c.65-3.75,1.29-7.49,2.07-11.2,1.54-7.49,3.47-15,7.18-21.75a48.3,48.3,0,0,0-5.15,10.35,115.41,115.41,0,0,0-3.47,11.07c-1,3.74-1.77,7.52-2.58,11.28l-1.22,5.61c-.22.92-.44,1.85-.71,2.73a11.29,11.29,0,0,1-.43,1.28,10.16,10.16,0,0,1-.53,1.25,25,25,0,0,1-2.86,4.7,20.1,20.1,0,0,1-3.79,3.86,14.6,14.6,0,0,1-4.65,2.47,36.13,36.13,0,0,1-5.42,1.12,49,49,0,0,1-8.39.43l-.55.56h0a2.58,2.58,0,0,1,.21-1.56,3.25,3.25,0,0,1,.73-1,22.31,22.31,0,0,1,2.23-1.76c.82-.61,1.64-1.24,2.48-1.9A26.88,26.88,0,0,0,261,429.1a7.37,7.37,0,0,0-3.65.16,10,10,0,0,0-3.24,1.61,7.11,7.11,0,0,0-2.47,3,3.62,3.62,0,0,0-.16,2.18,2.88,2.88,0,0,0,.43.9c-.46,0-.93-.05-1.39-.09a22.72,22.72,0,0,1-2.68-.41,19.2,19.2,0,0,1-2.59-.75,15,15,0,0,1-3.19-1.55l-.47.39a12.58,12.58,0,0,1,1.91-3,9.08,9.08,0,0,1,2.27-1.93c.84-.44,1.92-.89,3-1.5a13.42,13.42,0,0,0,3.14-2.28,13.23,13.23,0,0,0-3.88,0,12.35,12.35,0,0,0-1.88.39,8.51,8.51,0,0,0-2,.78,6.54,6.54,0,0,0-2.79,3.36,5.45,5.45,0,0,0-.23,3.09l-.41-.33a4.77,4.77,0,0,1-1.24-1.77l-.15-.48a4.26,4.26,0,0,1-.06-.5,2.12,2.12,0,0,1,.11-.85c.28-1,1.9-1.89,3.59-2.59a22.47,22.47,0,0,0,5.48-2.84,6.77,6.77,0,0,0,1.24-1.36,4.67,4.67,0,0,0,.48-.85c.06-.14.13-.3.18-.45l.12-.39a13.4,13.4,0,0,0,.56-3.13c.15-2,.09-4,.08-5.9s0-3.83,0-5.75c0-3.84,0-7.7-.09-11.56a135.88,135.88,0,0,0-2.22-23.1,56.42,56.42,0,0,0-3.4-11.14,22.64,22.64,0,0,0-6.82-9.26,18.3,18.3,0,0,1,3.62,4.42,30,30,0,0,1,2.47,5.14,55.56,55.56,0,0,1,2.69,11.09,151.82,151.82,0,0,1,1.33,22.87c0,3.83-.13,7.67-.2,11.52,0,1.92-.06,3.86-.07,5.78s0,3.69-.15,5.43c-1,0-1.89,0-2.41,0a154.25,154.25,0,0,1-17.6-.24c-2.76-.22-14.45-.57-15.15-4.64-.62-3.64,11.47-4.83,13.87-6.68,4.65-3.6-6.26-6.18-8.39-7.39-30.12-17.08-31.37-57.25-28.43-87.67.88-9.13,2.27-18.21,3.91-27.25q3.24-17.33,8-34.28a18.72,18.72,0,0,0,3.54.34c.09,0,.16.5.21.5l-.06-1c-2,0-6.47-3.05-7-5.07-.44-1.59,3.76-6.12,6.84-7.26l-.32.12a14.26,14.26,0,0,1-7.8-1.86,3.37,3.37,0,0,1-1.4-2.41c-.54-3.78,7.86-9.93,13.27-11.66l.1-.36c-1.55.48-7.11.88-9.52-.71a4,4,0,0,1-1.69-3.1c-.53-5,18.81-25.44,33.79-36.93l-.33-.38c-.8.62-2,1.57-3.53,2.76a365.55,365.55,0,0,1,18.3-32.22c12.28-19.28,26.78-38.3,46.79-50.08a77.38,77.38,0,0,1,58.73-8.26C371,96.61,388,107.59,401.86,121.2c15.23,15,25,32.84,34.41,51.76q2.55,5.13,5.05,10.27l-.7-.43c15,11.48,35.32,31.91,34.78,36.92a3.92,3.92,0,0,1-1.68,3.1c-2.42,1.59-8,2.19-9.53,1.71l.1.36c5.42,1.73,13.81,6.88,13.28,10.66a3.37,3.37,0,0,1-1.4,2.41c-2.08,1.48-7,2.62-8.31,2.36l-.31-.12c3.07,1.14,7.77,5.17,7.34,6.76-.56,2-5,5.12-7,5.07h-.05c.05,0,.12.51.21.51a21.19,21.19,0,0,0,2.19-.14c6.65,19.65,12.17,40.11,14.12,60.67C486.09,331.71,484.12,351.3,475.16,368Z"/>    </g>    <g id="eye">        <g id="eye-color1">            <g opacity="0" ><path fill="#898989"  d="M249.45,149.37c-.14.46-.21.94-.36,1.4a15.33,15.33,0,0,1-1.35,2.87c-.52.93-1,1.89-1.54,2.82-.24.42-.5.81-.77,1.21l-.43.61c-.09.11-.46.47-.46.6-.19.25-.39.5-.59.74-5.88,7-13.9,9.8-22.69,6.53-8.54-3.17-14.21-10.4-14.65-19.54a.84.84,0,0,1,0-.28.93.93,0,0,1,0-.29,23.27,23.27,0,0,1,19-21.81,18.86,18.86,0,0,1,11.42,1.35c-15.29-7.71-34.35-2.93-39.29,15.33a20.84,20.84,0,0,0-.67,6.53,29.39,29.39,0,0,0,10.49,20.23c8.59,7.09,21.5,6.67,31,1.77,7.19-3.69,10-12.6,10.92-20.45C249.53,149.11,249.48,149.24,249.45,149.37Z"/></g><g opacity="0" ><path fill="#898989"  d="M373.2,143.3c-.24.62-.44,1.25-.7,1.87a24.77,24.77,0,0,1-2,3.66,29.23,29.23,0,0,1-2.54,3.43c-5.88,7-13.9,9.8-22.69,6.53-8.53-3.17-14.2-10.4-14.65-19.53a2.11,2.11,0,0,1,0-.58,23.29,23.29,0,0,1,19-21.81,18.87,18.87,0,0,1,11.42,1.35c-15.3-7.71-34.36-2.93-39.3,15.33a20.54,20.54,0,0,0-.66,6.53,29.38,29.38,0,0,0,10.48,20.23c8.59,7.09,21.5,6.67,31,1.77,6.91-3.54,9.72-12,10.77-19.65C373.37,142.68,373.29,143.06,373.2,143.3Z"/></g>        </g>        <g id="eye-shape">            <path fill="#fff"  d="M312.54,138.57c-1.24-.42-6.63-.89-14.56-1.27-.59,5.6-10.78,19.12-25.61,18.19-13-.81-19.14-14.78-20.67-18.9-18.22.28-28,1.27-30,2.33-.18,2.3,1.34,9.19,6.7,15.73s16.29,14.63,36.77,14.63c28.46,0,41.06-16.94,44.25-22.13C312.36,142.4,312.73,139.32,312.54,138.57Z"/><path d="M270.72,104.07a7.5,7.5,0,0,0-6.2,6.16c-1.15,5.07,1.08,11.4,3.68,13.26,2.28,1.63,17.06,7.22,29.36,10.74-25-1.29-69.58-1.26-76.93,1.91a2.83,2.83,0,0,0-1.8,1.86c-.63,3.13,1.25,11.2,7.28,18.55,5.88,7.18,17.44,15.73,39.09,15.73,33.65,0,47.64-22.4,49.89-30.25.81-2.8.5-4.37-.11-5.25,6.57-1.67,10-7.3,11-12.31.28-1.42-.29-2.87-1.69-4.31C316.18,111.88,278.06,102.78,270.72,104.07Zm-5.52,65.21c-20.48,0-31.3-8-36.77-14.63s-6.88-13.43-6.7-15.73c2-1.06,11.75-2,30-2.33,1.53,4.12,7.65,18.09,20.67,18.9,14.83.93,25-12.59,25.61-18.19,7.93.38,13.32.85,14.56,1.27.19.75-.18,3.83-3.09,8.58C306.26,152.34,293.66,169.28,265.2,169.28Z"/><path fill="#fff"  d="M438.64,134.75c1.32-3.1,1-4.44.81-4.67-1.69-1.24-12.7-1.24-26.14-.55-1.12,5.15-5.42,18.11-20.4,19.09-15.73,1-24.28-10.67-26.62-14.45-4.43.77-7.5,1.55-8.4,2.29-.28.72.11,3.95,2.83,8.36,3.25,5.29,13.17,17.53,35,17C419.7,161.15,435,143.29,438.64,134.75Z"/><path d="M441.67,128.06c-1.51-1.66-9.77-3.15-40.53-.84-7.15.53-43,3.42-45.73,7.53-1.5,2.25.15,7,2,10.38,2.59,4.68,12.77,19.67,36.83,19.67l1.55,0c23.21-.61,40.64-17.24,45.59-28.86C443,132.29,443,129.57,441.67,128.06Zm-80.95,16.76c-2.72-4.41-3.11-7.64-2.83-8.36.9-.74,4-1.52,8.4-2.29,2.34,3.78,10.89,15.47,26.62,14.45,15-1,19.28-13.94,20.4-19.09,13.44-.69,24.45-.69,26.14.55.21.23.51,1.57-.81,4.67-3.65,8.54-18.94,26.4-42.92,27C373.89,162.35,364,150.11,360.72,144.82Z"/><path d="M402.67,119.42c1.41-2.83-2-13.13-5.5-18.48-2.06-3.15-4.16-4.69-6.24-4.6-3.12.16-14.83,4.28-25.05,8.83-21.31,9.47-21.61,13.71-21.71,15.1h0c-.18,2.51-.08,7.14,2.64,10a7.7,7.7,0,0,0,5.79,2.26h.45c3.95-.16,16.37-2.75,26.6-5.24C401.4,121.94,402.29,120.18,402.67,119.42Z"/>        </g>        <g id="eye-color2">            <path fill="#DDFF94"  d="M258.5,152.44a40.76,40.76,0,0,0,11.9,2.81c-11.67-2-17.25-14.75-18.7-18.66-4.29.07-8.09.17-11.46.31A37.06,37.06,0,0,0,258.5,152.44Z"/><path fill="#DDFF94"  d="M307,137.86c-2.4-.2-5.44-.39-9-.56-.52,4.95-8.55,16.08-20.65,18C290.06,154.22,301,147.48,307,137.86Z"/><path fill="#DDFF94"  d="M377,147.23a40.63,40.63,0,0,0,7.47,1.74,42,42,0,0,0,5.66.38c15.36,0,28.59-8.3,34.59-20.24-3.45.07-7.31.21-11.4.42-1.12,5.15-5.42,18.11-20.4,19.09-15.73,1-24.28-10.67-26.62-14.45a53.22,53.22,0,0,0-6.5,1.44A38.07,38.07,0,0,0,377,147.23Z"/>        </g>    </g>    <g id="nose-mouth">        <path fill="#2d2821"  d="M355.4,202.68c-2.76-4.52-5.63-9.61-9.16-13.57-8.87-9.94-21.59-6.52-29.46,2.63a97.86,97.86,0,0,0-6.34,8.82c-3.09,5.19-6.86,14-4.2,19.86,4.82,10.66,18.92,11,28.6,8.55a89.85,89.85,0,0,1,10.63-1.56c2.27-.3,5-.36,7.12-1.16,2.51-.93,4-3.91,5.19-6.3C361,213.37,358.89,208.39,355.4,202.68Zm-27.37,24a28.45,28.45,0,0,1-15.58-11.22c-.92-1.31.69-2.55,1.9-2.06a2,2,0,0,1,.93-1.25c1.57-1,3.41.28,4.72,1.15a28.64,28.64,0,0,1,9.73,11.18A1.52,1.52,0,0,1,328,226.64Zm20-2.15c-1.3,1-3.07-.42-2.54-1.6a1.4,1.4,0,0,1-1-1.79,36.82,36.82,0,0,1,5.22-11.22,1.52,1.52,0,0,1,2.74.36A13.23,13.23,0,0,1,348,224.49Z"/><path d="M360.51,205.56a111.21,111.21,0,0,0-10.57-16.65c-9.74-12.7-25.47-10.73-35.3.73-.06.07-.1.14-.15.21l-.09.1c-2.69,3.57-5.59,7.06-7.66,11.05-2.83,5.45-5.74,13.35-3.74,19.46,4,12.18,19.55,14.2,30.24,12.06,4.9-1,9.75-1.75,14.73-2.45,6.66-.93,8.76-1.74,12.09-8C362.91,216.72,363.28,210.94,360.51,205.56Zm-7.92,20.69c-2.16.8-4.85.86-7.12,1.16A89.85,89.85,0,0,0,334.84,229c-9.68,2.47-23.78,2.11-28.6-8.55-2.66-5.87,1.11-14.67,4.2-19.86a97.86,97.86,0,0,1,6.34-8.82c7.87-9.15,20.59-12.57,29.46-2.63,3.53,4,6.4,9,9.16,13.57,3.49,5.71,5.59,10.69,2.38,17.27C356.61,222.34,355.1,225.32,352.59,226.25Z"/><path d="M320,213.26c-1.31-.87-3.15-2.14-4.72-1.15a2,2,0,0,0-.93,1.25c-1.21-.49-2.82.75-1.9,2.06A28.45,28.45,0,0,0,328,226.64a1.52,1.52,0,0,0,1.7-2.2A28.64,28.64,0,0,0,320,213.26Z"/><path d="M349.62,209.88a36.82,36.82,0,0,0-5.22,11.22,1.4,1.4,0,0,0,1,1.79c-.53,1.18,1.24,2.62,2.54,1.6a13.23,13.23,0,0,0,4.38-14.25A1.52,1.52,0,0,0,349.62,209.88Z"/><path d="M282.83,243.59v-1.32a1.5,1.5,0,0,0-3,0v1.32a1.5,1.5,0,0,0,3,0Z"/><path d="M277.38,250.35a1.5,1.5,0,0,0,0-3,1.5,1.5,0,0,0,0,3Z"/><path d="M284.61,256.92a1.5,1.5,0,0,0,0-3,1.5,1.5,0,0,0,0,3Z"/><path d="M294.47,247.06a1.5,1.5,0,0,0,0-3,1.5,1.5,0,0,0,0,3Z"/><path d="M272.78,239.83a1.5,1.5,0,0,0,0-3,1.5,1.5,0,0,0,0,3Z"/><path d="M284.61,233.26a1.5,1.5,0,0,0,0-3,1.5,1.5,0,0,0,0,3Z"/><path d="M290.53,242.46a1.5,1.5,0,0,0,0-3,1.5,1.5,0,0,0,0,3Z"/><path d="M363.14,241.86a1.5,1.5,0,0,0,0-3,1.5,1.5,0,0,0,0,3Z"/><path d="M363.49,231.94a1.5,1.5,0,0,0,0-3,1.5,1.5,0,0,0,0,3Z"/><path d="M372,226.69a1.5,1.5,0,0,0,0-3,1.5,1.5,0,0,0,0,3Z"/><path d="M372,236.54a1.5,1.5,0,0,0,0-3,1.5,1.5,0,0,0,0,3Z"/><path d="M373.34,246.4a1.5,1.5,0,0,0,0-3,1.5,1.5,0,0,0,0,3Z"/><path d="M383.86,243.77a1.5,1.5,0,0,0,0-3,1.5,1.5,0,0,0,0,3Z"/><path d="M384.52,232.6a1.5,1.5,0,0,0,0-3,1.5,1.5,0,0,0,0,3Z"/><path d="M380.57,237.86a1.5,1.5,0,0,0,0-3,1.5,1.5,0,0,0,0,3Z"/><path d="M367.43,249.69a1.5,1.5,0,0,0,0-3,1.5,1.5,0,0,0,0,3Z"/><path fill="none"  d="M352.34,241.81l0,0,0,0,0,.06S352.33,241.83,352.34,241.81Z"/><path fill="#fff9ef"  d="M309.51,247.72a95,95,0,0,0-6.81-8.53q-1.95-2.19-4-4.34c-.09-.11-.19-.2-.28-.3l.18.47c.34.94.67,1.82,1,2.79s.55,1.94.76,2.91a54,54,0,0,1,.78,5.87l.46,5.85h0l.41-.2,1.16-.67C305.35,250.33,307.47,249.07,309.51,247.72Z"/><path fill="#fff9ef"  d="M358.23,245.21,358,245c-.07-.07-.14-.06-.25-.25a1.16,1.16,0,0,1,0-.37l0-.26,0-.54c-.08-.71-.13-1.45-.17-2.18a38.75,38.75,0,0,1-.06-4.45,35.79,35.79,0,0,1,.7-4.42v-.07a29.33,29.33,0,0,0-2.36,4.16c-.65,1.37-1.16,2.81-1.81,4.21-.16.35-.33.7-.5,1l-.12.25-.05.14,0,.09a.64.64,0,0,1-.07.12l0,0s0,0-.13.1q2.66,1.29,5.29,2.64Z"/><path d="M358.55,245.41l-.15-.33a2.07,2.07,0,0,0-.15-.25c0-.07-.13-.2-.1-.17s0-.1.07-.18l.07-.27c0-.19.08-.38.11-.56.12-.75.16-1.46.23-2.19.15-1.45.24-2.91.47-4.29s.59-2.74.92-4.19.64-2.87.87-4.32l.6-3.73-2.34,2.93a47.1,47.1,0,0,0-2.79,3.84,27.9,27.9,0,0,0-2.19,4.24,35,35,0,0,0-1.58,4.43c-.11.38-.2.76-.28,1.15l-.06.3,0,.22a.32.32,0,0,0,0,.13s0,0,0,.07c-1.43-.7-2.87-1.38-4.31-2.06a55,55,0,0,0-9.32-3.49,24.53,24.53,0,0,0-10.26-.58,22.17,22.17,0,0,0-9.33,4.35c-2.68,2-5.07,4.15-7.63,6l-1.79,1.22a74.24,74.24,0,0,0-6.21-9c-1.21-1.55-2.47-3.07-3.75-4.57s-2.5-3-3.75-4.57l-.65.59h0l-.64.59a10.76,10.76,0,0,1,1.22,2.33c.35.87.7,1.76,1,2.67.63,1.85,1.27,3.62,1.71,5.47s.86,3.75,1.31,5.66a35.12,35.12,0,0,0,1.8,5.63h0l-.46-5.85a54,54,0,0,0-.78-5.87c-.21-1-.46-1.95-.76-2.91s-.65-1.85-1-2.79l-.18-.47c.09.1.19.19.28.3q2,2.15,4,4.34a95,95,0,0,1,6.81,8.53c-2,1.35-4.16,2.61-6.31,3.85l-1.16.67c-1,.6-2,1.19-3.05,1.74a9.71,9.71,0,0,1-4.57,1.3,9.12,9.12,0,0,0,4.89-.54c1.57-.56,3-1.24,4.55-1.86a70.6,70.6,0,0,0,8.79-4.48c2.87-1.73,5.37-3.88,8-5.64a19.9,19.9,0,0,1,8.22-3.7,19.17,19.17,0,0,1,4.49-.28,30,30,0,0,1,4.57.68,64.37,64.37,0,0,1,9.07,2.88c6,2.35,12.14,4.65,18.34,6.66C363.09,247.76,360.82,246.57,358.55,245.41Zm-5.4-2.87,0,0a.64.64,0,0,0,.07-.12l0-.09.05-.14.12-.25c.17-.34.34-.69.5-1,.65-1.4,1.16-2.84,1.81-4.21a29.33,29.33,0,0,1,2.36-4.16v.07a35.79,35.79,0,0,0-.7,4.42,38.75,38.75,0,0,0,.06,4.45c0,.73.09,1.47.17,2.18l0,.54,0,.26a1.16,1.16,0,0,0,0,.37c.11.19.18.18.25.25l.21.17.08.07q-2.64-1.35-5.29-2.64C353.12,242.58,353.18,242.52,353.15,242.54Zm-.8-.75,0,0,0,0s0,0,0,0Z"/>    </g></svg>