<!--  ~ Copyright (C) 2018 Baidu, Inc. All Rights Reserved.  --><svg viewBox="0 0 640 480" xmlns="http://www.w3.org/2000/svg">    <g id="back-ground-cl">        <rect fill="none" width="640" height="480" />        <ellipse opacity="0.1" cx="331.93" cy="418.82" rx="168.39" ry="32.01"/>    </g>    <g id="body">        <defs>            <clipPath id="outline">                <path fill="none"  d="M412.51,86.52a11.78,11.78,0,0,0-2.32-2.75c-2.85.47-4.27.74-3.57,7.08s9.42,16.68,24.5,16.68c.81,0,1.63,0,2.48-.09a28.52,28.52,0,0,0,20.1-10.61c.2-.26.4-.52.59-.79a23,23,0,0,0,4-11,30.21,30.21,0,0,0-8.09-23.83c-6.2-6.37-15.69-8.28-24.77-5a59.25,59.25,0,0,0-6.31,2.7l-.23.13c.09.82.43,2.73,1,7.69l.1-.06a55.67,55.67,0,0,1,6.77-3c7.41-2.73,15-.07,19.29,6.77,3.56,5.66,4.12,12.57,1.46,18-3.39,7-11.6,10.9-19.52,9.35C419.46,96.22,415.11,90.15,412.51,86.52Z"/><path fill="none"  d="M419.56,137.49c1.1,1.52,2.15,3.07,3.17,4.64-.43-8.08-1.16-20.37-2.2-33.9a28.55,28.55,0,0,1-7.85-4.21c-4.75-3.6-8-8.55-8.49-12.9-.89-8.05,1.77-9.13,5.64-9.77,1.77-.29,3,1.4,4.67,3.75A37,37,0,0,0,419,90.55c-4.57-49-9.46-60-12-62.14a1.2,1.2,0,0,0-.94-.38c-9.84,1.23-36.86,43.84-47.94,62.64a101.45,101.45,0,0,1,17.72,7.59C393.21,107.69,408,121.56,419.56,137.49Z"/><path fill="none"  d="M307.9,90.41c-2.51-4-10.95-17.35-20.47-30C270.89,38.52,262.88,34.1,259.1,34.1a3.79,3.79,0,0,0-1.63.34c-2.94,1.41-8.51,12-12.84,67.24-1.5,19.25-2.41,38.34-2.88,50.44a215.64,215.64,0,0,1,25.85-34.59C278.85,105.54,292.43,95.62,307.9,90.41Z"/><path fill="none"  d="M445.67,397.9c4.15-3,8.74-5.13,12.75-8.43a70.25,70.25,0,0,0,17.73-22c8.67-16.77,10.48-36.28,8.64-54.84-2.41-24.3-9.67-48.43-18-71.3-3-8.15-6.18-16.2-9.55-24.19a49.52,49.52,0,0,1-6.7,3.1,79.84,79.84,0,0,0,8-5.23,49,49,0,0,0,7-6.26,21.24,21.24,0,0,0,4.71-7.73,11.81,11.81,0,0,0-.5-8.53,13.67,13.67,0,0,0-2.3-3.79,19.3,19.3,0,0,0-3.26-3.12,26.31,26.31,0,0,0-3.89-2.45q-2.07-1-4.27-1.88a58.51,58.51,0,0,0-9.12-2.51,82.85,82.85,0,0,0-9.48-1.33c.47,0,.94,0,1.42-.08l-2.36-4.77C427,153.39,417,135.33,401.43,120.25c-13.82-13.37-30.73-24.14-49.51-28.88a77.59,77.59,0,0,0-57.83,7.82c-20,11.46-34.63,30.21-46.94,49.3a369.59,369.59,0,0,0-20.83,36.89c1.72-.37,3.46-.71,5.2-1-6.22,2-12.39,4.16-18.38,6.64a88.21,88.21,0,0,0-8.73,4.12,38.77,38.77,0,0,0-4,2.52,15.7,15.7,0,0,0-3.29,3.09,5.9,5.9,0,0,0-1.28,3.84,16.15,16.15,0,0,0,.68,4.49,48.26,48.26,0,0,0,3.64,8.82,164.25,164.25,0,0,0,10.16,16.65c-1-1.07-2-2.18-2.95-3.31a381.67,381.67,0,0,0-13.69,52.52c-1.65,9-3,18.08-3.92,27.2-2.95,30.34-1.79,70.38,27.91,87.8a53.54,53.54,0,0,0,7,3.46c.75.31,2.37.54,2.88,1.31.83,1.26,0,2-1.08,2.7-2.47,1.51-14.63,3.19-13.72,6.89,1,4.22,11.94,4.52,15,4.78a152.52,152.52,0,0,0,17.5.3c1,0,2.09,0,3.17-.06.11-1.08.14-2.21.16-3.35,0-3.94.05-7.95.15-11.9s.16-7.91.16-11.86a174,174,0,0,0-1.37-23.62A64.46,64.46,0,0,0,245,355.91a32.82,32.82,0,0,0-2.38-5.39A16.83,16.83,0,0,0,239,345.9a16.94,16.94,0,0,1,4,4.43,32.27,32.27,0,0,1,2.67,5.36,64.11,64.11,0,0,1,3.12,11.54,158.1,158.1,0,0,1,2.1,23.78c.23,8-.05,15.87.1,23.8a23.1,23.1,0,0,1-.58,6.21c-.08.27-.16.52-.26.8a5.37,5.37,0,0,1-.42.87,6,6,0,0,1-1.18,1.41,11.54,11.54,0,0,1-2.8,1.74,45.72,45.72,0,0,0-5.21,2.44,3.13,3.13,0,0,0-1.37,1.6,3,3,0,0,0-.09,1,4.88,4.88,0,0,0,.27,1.08,5.87,5.87,0,0,0,2.06,2.39,5.48,5.48,0,0,1,.22-3.52,6.65,6.65,0,0,1,2.74-3.24,8.9,8.9,0,0,1,1.92-.76,13.62,13.62,0,0,1,1.85-.43,16,16,0,0,1,3.82-.26,16,16,0,0,1-3.21,2.08c-.54.29-1.16.53-1.65.78a15.73,15.73,0,0,0-1.47.69,8.67,8.67,0,0,0-2.32,2.06,11.36,11.36,0,0,0-1.72,3.09l.23-.19c.38.25.78.48,1.19.7a20.36,20.36,0,0,0,5.29,1.78,25,25,0,0,0,2.82.36c.38,0,.77,0,1.15.06a2.5,2.5,0,0,1-.64-1.2,3.62,3.62,0,0,1,.21-2.08,7.22,7.22,0,0,1,2.45-2.88,11,11,0,0,1,3.17-1.65,8.11,8.11,0,0,1,3.57-.35c-.94.8-1.84,1.44-2.71,2.08l-2.56,1.88a15.28,15.28,0,0,0-2.25,1.87,3.22,3.22,0,0,0-.68,1.13,2.54,2.54,0,0,0-.07,1.56l.3-.32c.32,0,.64,0,1,0a48.82,48.82,0,0,0,5.8-.21,44,44,0,0,0,5.72-.92,17.06,17.06,0,0,0,2.68-.81,14.34,14.34,0,0,0,2.46-1.27A22.32,22.32,0,0,0,278,426c.22-.43.45-.85.64-1.29l.3-.66.23-.65a12.56,12.56,0,0,0,.43-1.35c.13-.46.27-.92.37-1.41.48-1.89.86-3.83,1.28-5.77.81-3.87,1.62-7.77,2.58-11.63s2.08-7.68,3.44-11.42a49.56,49.56,0,0,1,5.2-10.71l-1.39,2.63-1.19,2.71c-.37.92-.71,1.85-1.06,2.77s-.63,1.87-.94,2.8A116.29,116.29,0,0,0,285,403.53c-.76,3.63-1.41,7.29-2.05,11a316.46,316.46,0,0,0,33.09,5.44c21.95,2.37,44.63,2.42,66.18-2.89,2.66-.65,5.3-1.4,7.91-2.23-.15-.76-.28-1.52-.39-2.27-.52-3.56-.72-7.09-1.19-10.57-.23-1.73-.53-3.49-.8-5.23s-.57-3.5-1-5.2a37.21,37.21,0,0,0-1.73-5c-.63-1.65-1.22-3.32-1.8-5,.69,1.63,1.4,3.26,2.14,4.86a36.4,36.4,0,0,1,2,4.95c.49,1.73.85,3.46,1.23,5.2s.76,3.45,1.09,5.21c.62,3.52.95,7.06,1.58,10.49a38.26,38.26,0,0,0,1.25,5,26.75,26.75,0,0,0,2.09,4.67,22.28,22.28,0,0,0,6.69,7.5,15,15,0,0,0,4.47,2.06,41.38,41.38,0,0,0,5.08,1,48.33,48.33,0,0,0,8.42.38l.31.31h0a2.62,2.62,0,0,0-.07-1.56,3.4,3.4,0,0,0-.69-1.13,14.77,14.77,0,0,0-2.25-1.87l-2.56-1.88c-.87-.64-1.77-1.28-2.7-2.08a7.93,7.93,0,0,1,3.56.36,10.63,10.63,0,0,1,3.17,1.64,7.18,7.18,0,0,1,2.45,2.89,3.42,3.42,0,0,1,.21,2.07,2.53,2.53,0,0,1-.63,1.2l1.11-.06a22.59,22.59,0,0,0,5-.89,16.67,16.67,0,0,0,4.35-2l.25.2a11.16,11.16,0,0,0-1.73-3.08,8.31,8.31,0,0,0-2.31-2.06,14.68,14.68,0,0,0-1.48-.7c-.48-.25-1.11-.49-1.65-.78a15.16,15.16,0,0,1-3.21-2.08,16,16,0,0,1,3.82.26,13.28,13.28,0,0,1,1.85.43,8.52,8.52,0,0,1,1.92.76,6.55,6.55,0,0,1,2.74,3.24,5.48,5.48,0,0,1,.23,3.5,7.91,7.91,0,0,0,1.41-1.28,4.54,4.54,0,0,0,.87-1.83,2.87,2.87,0,0,0-1.55-3.26,28.13,28.13,0,0,0-4.64-2,24,24,0,0,1-2.56-1.17,8.3,8.3,0,0,1-2.4-1.93,6.75,6.75,0,0,1-.48-.71,4.47,4.47,0,0,1-.35-.83,9.48,9.48,0,0,1-.29-1.49c-.11-.95-.16-1.86-.18-2.76-.05-1.81,0-3.6,0-5.38.12-3.56.38-7.11.7-10.65.62-7.07,1.53-14.12,2.78-21.12.65-3.49,1.36-7,2.31-10.4a47.66,47.66,0,0,1,1.63-5.08,21.23,21.23,0,0,1,1.12-2.42,7.43,7.43,0,0,1,1.62-2.11,7.18,7.18,0,0,0-1.46,2.19,22.22,22.22,0,0,0-.94,2.46c-.53,1.68-1,3.39-1.35,5.11-.75,3.45-1.29,6.94-1.76,10.44-.95,7-1.6,14-2.06,21.08-.21,3.52-.37,7-.45,10.56,0,1.75,0,3.51,0,5.24,0,.23,0,.46,0,.69,5.9.87,12.12.57,18,.37a139.7,139.7,0,0,0,19-1.57c2.82-.49,3.2-.31,1.75-3-1.38-2.56-4.41-3.86-7-4.74-2.38-.8-4.85-1.22-7.28-1.83-1-.25-2.68-.48-3.21-1.5C443.69,399.32,444.71,398.59,445.67,397.9Z"/><path fill="none"  d="M164.26,327a17,17,0,0,0,5.41,9.44l7.42,6.85-8.84-4.88c-.31-.17-30.25-17-37-46.49-2.89,4.56-8.56,16.4-5.76,36l.24,1.68-1.67-.3c-.21,0-4-.8-6.8-6.54.43,7.76,2.52,20.07,10.7,29.95,7.83,9.47,19.61,14.86,35,16l5.13.39-4.76,2a81.61,81.61,0,0,1-8.27,2.87,76,76,0,0,0,37.54-2.25c-4.12-10.7-5.77-22.39-6.21-33.77A33.19,33.19,0,0,1,164.26,327Z"/><path d="M419.64,69.17h0l-.18,0Z"/><path d="M452.75,396.6A76,76,0,0,0,464,387.8c13.41-12.75,20.76-30.18,23-48.34,2.74-21.86-1.67-43.93-7.23-65A434.42,434.42,0,0,0,459.38,216a42.23,42.23,0,0,0,7.6-5.84,25.59,25.59,0,0,0,3.21-3.81,17.62,17.62,0,0,0,2.32-4.53,14,14,0,0,0-.45-10.2,19.81,19.81,0,0,0-1.18-2.29,20.87,20.87,0,0,0-1.53-2.07,19.54,19.54,0,0,0-3.72-3.44,30.81,30.81,0,0,0-8.92-4.28,49.18,49.18,0,0,0-9.56-1.89c-1.85-.18-3.7-.28-5.55-.29q-2.79-5.67-5.62-11.3c-3.36-6.66-6.74-13.27-10.57-19.62-.37-7.42-1.14-21.45-2.36-37.4a32.2,32.2,0,0,0,8,1c.87,0,1.77,0,2.7-.1a31,31,0,0,0,21.85-11.55c.22-.28.44-.57.64-.86a25.45,25.45,0,0,0,4.5-12.11A32.7,32.7,0,0,0,452,59.55c-6.87-7.06-17.36-9.21-27.41-5.56-6.59,2.38-6.85,3.12-6.74,4.14,0,.12,1.44,10.37,1.48,10.73l.09.19.21.12c5.19-1.32,9.44-4.79,15.13-3.74a14.17,14.17,0,0,1,9.24,6.4c3.11,5,3.62,11,1.33,15.65-2.87,5.89-10.12,9.33-16.85,8a18.22,18.22,0,0,1-6.79-2.81c-2.74-29.93-7-61-13.07-66.14a3.6,3.6,0,0,0-2.82-.94c-12.54,1.57-43.47,53.14-50.05,64.33a82,82,0,0,0-33.65-2.85,74.92,74.92,0,0,0-11.81,2.54c-2.05-3.3-10.87-17.36-20.9-30.64-15.86-21-26.66-29.78-33-26.75-2.26,1.09-9.13,4.39-14.22,69.26-1.71,21.83-2.64,43.46-3.05,55-4.22,7.11-8.17,14.36-11.9,21.61q-2.07,4-4,8c-3.62.88-7.21,1.91-10.75,3.15a70.11,70.11,0,0,0-9.14,3.87,34.28,34.28,0,0,0-4.32,2.62,17.66,17.66,0,0,0-3.85,3.56,8.57,8.57,0,0,0-1.32,2.51c-.07.23-.15.47-.21.71l-.1.69a10.7,10.7,0,0,0-.08,1.37,17.47,17.47,0,0,0,.85,5.15,44.79,44.79,0,0,0,4.18,9.1A85,85,0,0,0,204,227c.5.66,1,1.31,1.52,2q-3.08,9-5.7,18.09-5.13,17.8-8.49,36c-3.14,17.24-5.44,34.81-5,52.38a30.47,30.47,0,0,1-22.44-13l-1.77-2.58-.44,3.1a17,17,0,0,0,1.9,9.39c-9.27-6.67-26.65-21.81-30.49-43.69l-.43-2.45L131,288.12c-.47.51-11.12,12.51-8.22,37.84-1.7-1.3-4.21-4.31-5.45-11.13l-1.48-8.15-.94,8.23c-.1.92-2.43,22.9,11.16,39.34,7.35,8.91,17.95,14.4,31.55,16.37-2.82,1-6.22,1.94-8.32,1.94H142l6.82,2.37a67.07,67.07,0,0,0,20.54,2.93A77.05,77.05,0,0,0,193.52,374a65.78,65.78,0,0,0,4.87,9.34,52.9,52.9,0,0,0,21.1,19.21c.92.46,1.85.89,2.79,1.3a9.19,9.19,0,0,0,1.25.53l.49.2c-.49.16-1,.36-1.45.52-1.7.59-3.42,1.12-5.11,1.72-3.31,1.19-9.12,3.12-6.74,7.75,2.05,4,8.63,4.75,12.48,5.28a124,124,0,0,0,19.36.86c1.38,0,3.38.11,5.38,0,0,.08-.06.17-.08.24a3,3,0,0,1-.24.47,3.79,3.79,0,0,1-.72.85,9.48,9.48,0,0,1-2.25,1.36,42.87,42.87,0,0,0-5.54,2.6,5.5,5.5,0,0,0-2.34,2.88,5.42,5.42,0,0,0-.2,1.94,7.07,7.07,0,0,0,.44,1.8,7.44,7.44,0,0,0,2.1,2.8,13.08,13.08,0,0,0,2.71,1.81,22.51,22.51,0,0,0,6,2,28.13,28.13,0,0,0,3.08.38c1,.08,2,.13,3,.15a47.51,47.51,0,0,0,6.08-.28,45.38,45.38,0,0,0,6-1.05,18.51,18.51,0,0,0,3-1,16.24,16.24,0,0,0,2.79-1.49,23.63,23.63,0,0,0,8-9.35c.22-.47.45-.92.65-1.4l.3-.7.25-.75a13.1,13.1,0,0,0,.44-1.49c.12-.5.26-1,.35-1.48.31-1.39.57-2.78.82-4.17l.39.09c22.74,4.9,46.19,7.78,69.49,6.66a158.3,158.3,0,0,0,31.67-4.54q3.35-.86,6.64-1.91l.18.65a28,28,0,0,0,2.11,5.06,23.44,23.44,0,0,0,7.15,8.35,17.15,17.15,0,0,0,5.1,2.44,46.75,46.75,0,0,0,5.33,1.12,49.33,49.33,0,0,0,10.86.35c.91-.07,1.8-.16,2.74-.32a22.39,22.39,0,0,0,2.72-.63,18.81,18.81,0,0,0,5.16-2.33,10.9,10.9,0,0,0,2.24-2,6.92,6.92,0,0,0,1.35-2.93,5.27,5.27,0,0,0-.39-3.33,6.07,6.07,0,0,0-2.25-2.37,30,30,0,0,0-5.07-2.22,10.06,10.06,0,0,1-4-2.36c-.1-.12-.21-.28-.28-.38a2.4,2.4,0,0,1-.17-.39c0-.14-.08-.3-.12-.47l.91.09a142.87,142.87,0,0,0,21.2.05c5.56-.29,11.61-.36,17-1.79,4.09-1.08,2.59-5.48.27-8-3.66-4-9.54-4.72-14.51-6-.16,0-.32-.1-.48-.15.34-.21.64-.43.79-.52C450,398.32,451.38,397.48,452.75,396.6,428,97.9c7.92,1.55,16.13-2.38,19.52-9.35,2.66-5.45,2.1-12.36-1.46-18-4.31-6.84-11.88-9.5-19.29-6.77a55.67,55.67,0,0,0-6.77,3l-.1.06c-.54-5-.88-6.87-1-7.69l.23-.13a59.25,59.25,0,0,1,6.31-2.7c9.08-3.29,18.57-1.38,24.77,5a30.21,30.21,0,0,1,8.09,23.83,23,23,0,0,1-4,11c-.19.27-.39.53-.59.79a28.52,28.52,0,0,1-20.1,10.61c-.85.06-1.67.09-2.48.09-15.08,0-23.8-10.41-24.5-16.68s.72-6.61,3.57-7.08a11.78,11.78,0,0,1,2.32,2.75C415.11,90.15,419.46,96.22,428,97.9,406.1,28a1.2,1.2,0,0,1,.94.38c2.53,2.15,7.42,13.12,12,62.14a37,37,0,0,1-4.53-5.45c-1.68-2.35-2.9-4-4.67-3.75-3.87.64-6.53,1.72-5.64,9.77.49,4.35,3.74,9.3,8.49,12.9a28.55,28.55,0,0,0,7.85,4.21c1,13.53,1.77,25.82,2.2,33.9-1-1.57-2.07-3.12-3.17-4.64-11.53-15.93-26.35-29.8-43.68-39.23a101.45,101.45,0,0,0-17.72-7.59C369.24,71.87,396.26,29.26,406.1,28,244.63,101.68c4.33-55.22,9.9-65.83,12.84-67.24a3.79,3.79,0,0,1,1.63-.34c3.78,0,11.79,4.42,28.33,26.34,9.52,12.62,18,26,20.47,30-15.47,5.21-29,15.13-40.3,27.12a215.64,215.64,0,0,0-25.85,34.59C242.22,140,243.13,120.93,244.63,101.68,155.05,374a81.61,81.61,0,0,0,8.27-2.87l4.76-2-5.13-.39c-15.41-1.18-27.19-6.57-35-16-8.18-9.88-10.27-22.19-10.7-29.95,2.83,5.74,6.59,6.5,6.8,6.54l1.67.3-.24-1.68c-2.8-19.6,2.87-31.44,5.76-36,6.78,29.5,36.72,46.32,37,46.49l8.84,4.88-7.42-6.85a17,17,0,0,1-5.41-9.44A33.19,33.19,0,0,0,186.38,338c.44,11.38,2.09,23.07,6.21,33.77A76,76,0,0,1,155.05,374,289.33,26.67c.53,1,2.24,1.25,3.21,1.5,2.43.61,4.9,1,7.28,1.83,2.62.88,5.65,2.18,7,4.74,1.45,2.72,1.07,2.54-1.75,3a139.7,139.7,0,0,1-19,1.57c-5.9.2-12.12.5-18-.37,0-.23,0-.46,0-.69-.07-1.73-.07-3.49,0-5.24.08-3.52.24-7,.45-10.56.46-7,1.11-14.08,2.06-21.08.47-3.5,1-7,1.76-10.44.37-1.72.82-3.43,1.35-5.11a22.22,22.22,0,0,1,.94-2.46,7.18,7.18,0,0,1,1.46-2.19,7.43,7.43,0,0,0-1.62,2.11,21.23,21.23,0,0,0-1.12,2.42,47.66,47.66,0,0,0-1.63,5.08c-.95,3.43-1.66,6.91-2.31,10.4-1.25,7-2.16,14.05-2.78,21.12-.32,3.54-.58,7.09-.7,10.65-.06,1.78-.09,3.57,0,5.38,0,.9.07,1.81.18,2.76a9.48,9.48,0,0,0,.29,1.49,4.47,4.47,0,0,0,.35.83,6.75,6.75,0,0,0,.48.71,8.3,8.3,0,0,0,2.4,1.93,24,24,0,0,0,2.56,1.17,28.13,28.13,0,0,1,4.64,2,2.87,2.87,0,0,1,1.55,3.26,4.54,4.54,0,0,1-.87,1.83,7.91,7.91,0,0,1-1.41,1.28,5.48,5.48,0,0,0-.23-3.5,6.55,6.55,0,0,0-2.74-3.24,8.52,8.52,0,0,0-1.92-.76,13.28,13.28,0,0,0-1.85-.43,16,16,0,0,0-3.82-.26,15.16,15.16,0,0,0,3.21,2.08c.54.29,1.17.53,1.65.78a14.68,14.68,0,0,1,1.48.7,8.31,8.31,0,0,1,2.31,2.06,11.16,11.16,0,0,1,1.73,3.08l-.25-.2a16.67,16.67,0,0,1-4.35,2,22.59,22.59,0,0,1-5,.89l-1.11.06a2.53,2.53,0,0,0,.63-1.2,3.42,3.42,0,0,0-.21-2.07,7.18,7.18,0,0,0-2.45-2.89,10.63,10.63,0,0,0-3.17-1.64,7.93,7.93,0,0,0-3.56-.36c.93.8,1.83,1.44,2.7,2.08l2.56,1.88a14.77,14.77,0,0,1,2.25,1.87,3.4,3.4,0,0,1,.69,1.13,2.62,2.62,0,0,1,.07,1.56h0l-.31-.31a48.33,48.33,0,0,1-8.42-.38,41.38,41.38,0,0,1-5.08-1,15,15,0,0,1-4.47-2.06,22.28,22.28,0,0,1-6.69-7.5,26.75,26.75,0,0,1-2.09-4.67,38.26,38.26,0,0,1-1.25-5c-.63-3.43-1-7-1.58-10.49-.33-1.76-.72-3.47-1.09-5.21s-.74-3.47-1.23-5.2a36.4,36.4,0,0,0-2-4.95c-.74-1.6-1.45-3.23-2.14-4.86.58,1.68,1.17,3.35,1.8,5a37.21,37.21,0,0,1,1.73,5c.39,1.7.67,3.45,1,5.2s.57,3.5.8,5.23c.47,3.48.67,7,1.19,10.57.11.75.24,1.51.39,2.27-2.61.83-5.25,1.58-7.91,2.23-21.55,5.31-44.23,5.26-66.18,2.89A316.46,316.46,0,0,1,283,414.5c.64-3.68,1.29-7.34,2.05-11A116.29,116.29,0,0,1,287.9,392c.31-.93.59-1.88.94-2.8s.69-1.85,1.06-2.77l1.19-2.71,1.39-2.63a49.56,49.56,0,0,0-5.2,10.71c-1.36,3.74-2.46,7.57-3.44,11.42s-1.77,7.76-2.58,11.63c-.42,1.94-.8,3.88-1.28,5.77-.1.49-.24.95-.37,1.41a12.56,12.56,0,0,1-.43,1.35l-.23.65-.3.66c-.19.44-.42.86-.64,1.29a22.32,22.32,0,0,1-7.42,8.42,14.34,14.34,0,0,1-2.46,1.27,17.06,17.06,0,0,1-2.68.81,44,44,0,0,1-5.72.92,48.82,48.82,0,0,1-5.8.21c-.31,0-.63,0-1,0l-.3.32a2.54,2.54,0,0,1,.07-1.56,3.22,3.22,0,0,1,.68-1.13,15.28,15.28,0,0,1,2.25-1.87l2.56-1.88c.87-.64,1.77-1.28,2.71-2.08a8.11,8.11,0,0,0-3.57.35,11,11,0,0,0-3.17,1.65,7.22,7.22,0,0,0-2.45,2.88,3.62,3.62,0,0,0-.21,2.08,2.5,2.5,0,0,0,.64,1.2c-.38,0-.77,0-1.15-.06a25,25,0,0,1-2.82-.36,20.36,20.36,0,0,1-5.29-1.78c-.41-.22-.81-.45-1.19-.7l-.23.19a11.36,11.36,0,0,1,1.72-3.09,8.67,8.67,0,0,1,2.32-2.06A15.73,15.73,0,0,1,247,429c.49-.25,1.11-.49,1.65-.78a16,16,0,0,0,3.21-2.08,16,16,0,0,0-3.82.26,13.62,13.62,0,0,0-1.85.43,8.9,8.9,0,0,0-1.92.76,6.65,6.65,0,0,0-2.74,3.24,5.48,5.48,0,0,0-.22,3.52,5.87,5.87,0,0,1-2.06-2.39,4.88,4.88,0,0,1-.27-1.08,3,3,0,0,1,.09-1,3.13,3.13,0,0,1,1.37-1.6,45.72,45.72,0,0,1,5.21-2.44,11.54,11.54,0,0,0,2.8-1.74,6,6,0,0,0,1.18-1.41,5.37,5.37,0,0,0,.42-.87c.1-.28.18-.53.26-.8a23.1,23.1,0,0,0,.58-6.21c-.15-7.93.13-15.83-.1-23.8a158.1,158.1,0,0,0-2.1-23.78,64.11,64.11,0,0,0-3.12-11.54,32.27,32.27,0,0,0-2.67-5.36,16.94,16.94,0,0,0-4-4.43,16.83,16.83,0,0,1,3.65,4.62,32.82,32.82,0,0,1,2.38,5.39,64.46,64.46,0,0,1,2.55,11.51A174,174,0,0,1,248.91,391c0,3.95-.08,7.9-.16,11.86s-.13,8-.15,11.9c0,1.14,0,2.27-.16,3.35-1.08,0-2.17,0-3.17.06a152.52,152.52,0,0,1-17.5-.3c-3.09-.26-14-.56-15-4.78-.91-3.7,11.25-5.38,13.72-6.89,1.07-.66,1.91-1.44,1.08-2.7-.51-.77-2.13-1-2.88-1.31a53.54,53.54,0,0,1-7-3.46C188,381.35,186.8,341.31,189.75,311c.89-9.12,2.27-18.19,3.92-27.2a381.67,381.67,0,0,1,13.69-52.52c.95,1.13,1.93,2.24,2.95,3.31a164.25,164.25,0,0,1-10.16-16.65,48.26,48.26,0,0,1-3.64-8.82,16.15,16.15,0,0,1-.68-4.49,5.9,5.9,0,0,1,1.28-3.84,15.7,15.7,0,0,1,3.29-3.09,38.77,38.77,0,0,1,4-2.52,88.21,88.21,0,0,1,8.73-4.12c6-2.48,12.16-4.6,18.38-6.64-1.74.28-3.48.62-5.2,1a369.59,369.59,0,0,1,20.83-36.89c12.31-19.09,26.91-37.84,46.94-49.3a77.59,77.59,0,0,1,57.83-7.82c18.78,4.74,35.69,15.51,49.51,28.88C417,135.33,427,153.39,436.55,172.6l2.36,4.77c-.48,0-1,0-1.42.08a82.85,82.85,0,0,1,9.48,1.33,58.51,58.51,0,0,1,9.12,2.51q2.21.84,4.27,1.88a26.31,26.31,0,0,1,3.89,2.45,19.3,19.3,0,0,1,3.26,3.12,13.67,13.67,0,0,1,2.3,3.79,11.81,11.81,0,0,1,.5,8.53,21.24,21.24,0,0,1-4.71,7.73,49,49,0,0,1-7,6.26,79.84,79.84,0,0,1-8,5.23,49.52,49.52,0,0,0,6.7-3.1c3.37,8,6.58,16,9.55,24.19,8.32,22.87,15.58,47,18,71.3,1.84,18.56,0,38.07-8.64,54.84a70.25,70.25,0,0,1-17.73,22c-4,3.3-8.6,5.44-12.75,8.43C444.71,398.59,443.69,399.32,444.38,400.64Z"/>            </clipPath>        </defs>        <g clip-path="url(#outline)">            <rect fill="#B59070" width="640" height="480" />        </g>    </g>    <g id="pattern">        <g clip-path="url(#outline)">            <path fill="#513E2A"  d="M1,442.46c1.37,2.94,19.68,6,22.77,7s6.15-.27,9-1.43a323.08,323.08,0,0,1,142.75-22.27c2.15.15,4.45.29,6.3-.81s2.7-2.9,3.59-4.69q4.77-9.58,9.53-19.16c1.63-3.27,6-5.8,5.77-9.45a20.34,20.34,0,0,0-2-8.57c-11.34-23.45-10.71-37.68-12.14-56.56-.88-11.62,1.34-25.07,3.9-35.71,2.42-10-30.86-23.15-37-26-20.63-9.66-42.69-16.83-65.49-19.13-13.29-1.35-26.29-3.87-38.81-8.64-12.31-4.7-34-10.42-45.71-1.08-2.73,2.19-2.28,8.74-1.85,32.39"/><path fill="#513E2A"  d="M445.06,398.18c-7.45,2.67-17.16,4.17-25,4.7a7.81,7.81,0,0,1,.26,7.57c-.24.4-.42,1.59-.05,1.87.14.11.71.66.53.66,7,.22,13.87,1,20.85.84,3.7-.11,7.4-.37,11.08-.79q4-.45,8-1c1.13-.16,2.49-.54,2.25-1.94a8.34,8.34,0,0,0-1.3-2.86c-1.17-1.9-3.93-3.7-6.26-4.58-2.75-1-5.65-1.37-8.47-2.06a3.07,3.07,0,0,1-1.29-.53c-.42-.34-.77-.11-.73-.59A5.76,5.76,0,0,1,445.06,398.18Z"/><path fill="#513E2A"  d="M227.73,404.08a83.56,83.56,0,0,0,22.85,4.36c-.27,2.33-.23,5.47-.4,7.5,0,.46-.08,1.59-.45,1.87-.14.11-.68.14-.51.14s-18.76.61-29.52-1.14a25.64,25.64,0,0,1-4.68-1.46,3.71,3.71,0,0,1-2.54-3.42c0-1.29,1.71-3,2.85-3.37,1.87-.56,3.73-1.12,5.6-1.7l2.83-.9a5.3,5.3,0,0,0,2.24-1A16.69,16.69,0,0,1,227.73,404.08Z"/><path fill="#513E2A"  d="M250.5,401.61c-.08,5.55-.41,12.5-.49,13.65-.11,1.58.42,3.07,0,4.59-.79,2.77-4.89,4.49-7.48,5.75-1.89.92-4.12,2.32-3.93,4.41.07.77.73,1.35,1,2.09,1.61,5.25,8.87,5.47,13.89,5.47,6.22,0,11.92.36,17.37-2.64,2.25-1.25,2.58-2.68,5.79-5.61,4.87-4.45,5.47-19.87,6.78-26.37.23-1.19-2.6,7.7-2.65,6.51l-.54-13.9c-1.61,2.3-2.81,5.22-4.42,7.52-.66-3.2-3.17-6.89-3.83-10.09-1.06,4.47-2.36,9.21-3.34,13.84-2.14-2.88-3.09-6.19-4-9.2-.61,4.05-3.14,8.18-3.75,12.23l-2.55-8.67-1.62,6.75c-1.47-2.74-3.5-6.86-5-9.6C251.2,400.14,251.06,401.16,250.5,401.61Z"/><path fill="#513E2A"  d="M421.47,397.35c-.24,3.31.26,11.85.34,13a43.37,43.37,0,0,0,1.31,6.37c.8,2.77,3.26,2.85,5.85,4.12,1.89.92,6.76,2.58,6.58,4.67-.6,6.6-11.8,7.44-17,7.44-6.22,0-11.12-.08-16.57-3.09a24.69,24.69,0,0,1-6.91-6.33c-3.13-4.58-4-11.27-4.78-17.76-.59-4.6.81-10.34,1-15,1.61,2.29,2.81,5.22,4.42,7.52a48.53,48.53,0,0,0,3.83-10.1c1.06,4.48,2.36,9.21,3.34,13.84,2.15-2.88,3.1-6.18,4-9.2.62,4.05,3.14,8.19,3.76,12.24l2.54-8.68,1.62,6.75c1.48-2.74,3.51-6.85,5-9.59C420.5,395.32,420.79,395.77,421.47,397.35Z"/>            <g opacity="0.6" ><path fill="#95C6C1"  d="M285,417.33c1-10.66,5.3-32.75,16.87-35.84,8.11-2.17,17.24-.57,25.51-.5s16.52-.1,24.76-.51c7.07-.36,16.84-1.51,21.65,1.37,10.43,6.23,13.81,25.56,14.56,36.62.07,1,.29-.59-1.2.13a30.14,30.14,0,0,1-6.76,2.1,172,172,0,0,1-45.93,4c-16.27-1-33.07-2.65-48-6.84"/></g>        </g>    </g>    <g id="mask">        <path opacity="0.1"  d="M285.39,396.05s14.86,8.75,54,9.36,48.87-8.55,48.87-8.55l2.85,18.73s-25.25,8.56-52.33,6.52-50.91-3.66-57.22-6.92Z"/><path opacity="0.1"  d="M251.67,139.88s0-.25,0-.7c-7.19,9.48-17.71,25.45-28.06,47.06-1.68.07-25,7.4-28.15,15.55-2.4,6.11,11.61,25.46,11.32,26.45-3.24,9.91-6.2,20.47-8.74,31.66C183.39,324.52,188,349.23,194,370.68s32.51,32.46,32.51,32.46-13.78,3.65-14.74,7.37c-2.77,10.81,38.15,7.66,38.15,7.66l-.26-18.71s-34.21,7.87-47.52-47.79,20.64-115.94,44.53-177.3,66.79-83.9,66.79-83.9a90.33,90.33,0,0,0-20.34,8l-18.82,13.66Z"/><path opacity="0.2"  d="M403.86,118,406,95.72a15.11,15.11,0,0,1-1.76-5.36c-.48-4.36.1-5.72,1.32-7.1-.15-5.82-.75-29.12-1.46-35.83,0-.4-.08-.81-.13-1.22h0C398.3,45,371,96.3,371,96.3l23.35,14.06,19.82,22.19s-.07-1.35-.21-3.72C410.66,124.68,407,120.48,403.86,118Z"/><path opacity="0.2"  d="M293.1,98.46l4-4a112.13,112.13,0,0,0-14.1,8.8s-14.52-45.62-17.64-55.8c-.11-.34-.22-.67-.33-1a2,2,0,0,0-2,.57c-10.79,11.17-11.37,84.27-11.4,92.16,1-1.34,2-2.56,2.84-3.64C264.25,123.53,274.31,108.69,293.1,98.46Z"/><path fill="#ffce00"  d="M412.17,83.69c-.64-2.24-5.73-.42-6.54,0,0,0,.48.48.46-.42-1.22,1.38-2.3,2.24-1.82,6.6A17.55,17.55,0,0,0,406,95.72l.14-1.45s6,10,14.53,13l0,.38a32.54,32.54,0,0,0,10.69,1.76c.88,0,1.78,0,2.7-.1A29,29,0,0,0,458.16,93c3.58-7.65,3.68-18.29-2.46-28.17-14.46-23.25-36.49-7.11-36.74-7l-.32.53,1.08,10.26.15-.48c.09-.06,8.95-5.19,16.53-3.68a12.51,12.51,0,0,1,7.79,5.42c4.34,6.73,4.58,13.9,1.12,19C442,93.74,434.93,97.35,429,96.2c-4.23-.83-7.38-2.15-9.69-4.41,0,.35-1.47-1-1.47-1S412.77,85.79,412.17,83.69Zm26.58,16.82c12.63-4.34,19.82-13.17,19.82-26.74,0,0,7.33,17.65-11.13,29.46s-46.84-2.85-40.86-17.79c0,0,1.22.41,4.75,6.38S426.13,104.86,438.75,100.51Z"/><path opacity="0.1"  d="M297.29,94.27l-.16.16a77.56,77.56,0,0,1,11.29-4.91S289.18,61.07,284.8,55.58c-6.38-8-17.24-20-22.27-21.45s-6.1.67-7.46,3.66c0,0,6.72-.5,10,8.66C274.05,48.22,297.29,94.27,297.29,94.27Z"/><path opacity="0.2"  d="M283,103.23a112.13,112.13,0,0,1,14.1-8.8l.16-.16s-23.24-46-32.23-47.82c.11.31.22.64.33,1C268.51,57.61,283,103.23,283,103.23Z"/><path opacity="0.1"  d="M283,103.23a112.13,112.13,0,0,1,14.1-8.8l.16-.16s-23.24-46-32.23-47.82c.11.31.22.64.33,1C268.51,57.61,283,103.23,283,103.23Z"/><path opacity="0.1"  d="M410.36,82.29c1.81-.16,2.19.67,3.86,3a52.62,52.62,0,0,0,5,5.49c-.24-1.79-1.12-10.23-3-28.28-2.31-21.59-7.2-35-9.51-35.16S399.25,32,399.25,32c2.7-2.18,3.94,6.73,4.75,14.26C406.43,46.75,408.63,64.44,410.36,82.29Z"/><path opacity="0.2"  d="M405.59,83.76c1.1-1.23,2.7-1.66,4.54-2h.23c-1.73-17.85-3.93-35-6.36-35.58.05.41.09.82.13,1.22C404.84,54.14,405.44,77.94,405.59,83.76Z"/><path opacity="0.1"  d="M405.59,83.76c1.1-1.23,2.7-1.66,4.54-2h.23c-1.73-17.85-3.93-35-6.36-35.58.05.41.09.82.13,1.22C404.84,54.14,405.44,77.94,405.59,83.76Z"/><path fill="#ffce00"  d="M409.86,82.29c-.08,0,.35-.5.27-.49-1.84.3-2.94.23-4,1.46,0,.9-.46.42-.46.42.81-.41,6.92-.58,8.28,1.32a83.11,83.11,0,0,0,5.43,6.79s0-.16-.07-.51a37.75,37.75,0,0,1-4.2-5.12C413.4,83.83,411.67,82.13,409.86,82.29Z"/><path opacity="0.1"  d="M414,128.83c4.94,6.19,9,12.27,9,12.27l-2.28-33.42a28.57,28.57,0,0,1-8.44-4.61C413.1,114.08,413.68,123.77,414,128.83Z"/><path opacity="0.2"  d="M406,95.72,403.86,118c3.11,2.45,6.8,6.65,10.11,10.8-.29-5.06-.87-14.75-1.69-25.76A23.67,23.67,0,0,1,406,95.72Z"/><path opacity="0.1"  d="M406,95.72,403.86,118c3.11,2.45,6.8,6.65,10.11,10.8-.29-5.06-.87-14.75-1.69-25.76A23.67,23.67,0,0,1,406,95.72Z"/><path fill="#ffce00"  d="M406.17,94.27,406,95.72a23.67,23.67,0,0,0,6.25,7.35,28.57,28.57,0,0,0,8.44,4.61l0-.38C412.14,104.31,406.17,94.27,406.17,94.27Z"/><path opacity="0.1"  d="M406.17,94.27,406,95.72a23.67,23.67,0,0,0,6.25,7.35,28.57,28.57,0,0,0,8.44,4.61l0-.38C412.14,104.31,406.17,94.27,406.17,94.27Z"/><path fill="#ffce00"  d="M411.33,91.82c-3.53-6-4.75-6.38-4.75-6.38-6,14.94,22.4,29.6,40.86,17.79s11.13-29.46,11.13-29.46c0,13.57-7.19,22.4-19.82,26.74S414.86,97.8,411.33,91.82Z"/><path opacity="0.1"  d="M411.33,91.82c-3.53-6-4.75-6.38-4.75-6.38-6,14.94,22.4,29.6,40.86,17.79s11.13-29.46,11.13-29.46c0,13.57-7.19,22.4-19.82,26.74S414.86,97.8,411.33,91.82Z"/><g opacity="0.1" ><path d="M484.43,337.09c.24,1.7-3.5,6.76-4.43,8.49-1.82,3.4-3.68,6.78-5.67,10.08a108.4,108.4,0,0,1-13.23,18.12A62.8,62.8,0,0,1,450,383.24a61.18,61.18,0,0,1-6.25,3.67,33.52,33.52,0,0,1-5.53,2.51c-4,1.16-6.15-2.21-7.33-5.52a39.79,39.79,0,0,1-2.34-17.54c.54-4.89,1.56-7.23,2.75-12.36l-2.14,2.43c-3.07,11.13-4.58,22.56-6,34a4.58,4.58,0,0,0,.26,2.19,3.36,3.36,0,0,0-.88.73c-2.06,2.52-.69,11.1-.82,14.3a.73.73,0,0,0,.1.46c.15.18.45.14.69.07A107.5,107.5,0,0,0,447,398.76c9.48-5.29,16.41-12.76,22.8-21.4,3.19-4.31,7.4-8.23,9.2-13.28C482.09,355.37,485.7,346.24,484.43,337.09Z"/></g>        <path fill="#fff" opacity="0.1"  d="M345.46,90S374,94.45,399,118.28s39.1,58.1,39.1,58.1l.61-.07-.22,1.32s28.66,1.2,31.92,17.55c1.13,5.67-1.13,10.17-4.39,13.78-6.14,6.79-15.37,10.93-15.37,10.93l.14-.13a44.8,44.8,0,0,0,6.45-3.46s12.22,30.95,15.75,43.91c2.48,9.11,10.72,36.39,11.6,53.7s-.54,26.95-.54,26.95-26.4-84.31-35-107.93S412.86,138.44,345.46,90Z"/>    </g>    <g id="outline">        <path fill="none"  d="M412.51,86.52a11.78,11.78,0,0,0-2.32-2.75c-2.85.47-4.27.74-3.57,7.08s9.42,16.68,24.5,16.68c.81,0,1.63,0,2.48-.09a28.52,28.52,0,0,0,20.1-10.61c.2-.26.4-.52.59-.79a23,23,0,0,0,4-11,30.21,30.21,0,0,0-8.09-23.83c-6.2-6.37-15.69-8.28-24.77-5a59.25,59.25,0,0,0-6.31,2.7l-.23.13c.09.82.43,2.73,1,7.69l.1-.06a55.67,55.67,0,0,1,6.77-3c7.41-2.73,15-.07,19.29,6.77,3.56,5.66,4.12,12.57,1.46,18-3.39,7-11.6,10.9-19.52,9.35C419.46,96.22,415.11,90.15,412.51,86.52Z"/><path fill="none"  d="M419.56,137.49c1.1,1.52,2.15,3.07,3.17,4.64-.43-8.08-1.16-20.37-2.2-33.9a28.55,28.55,0,0,1-7.85-4.21c-4.75-3.6-8-8.55-8.49-12.9-.89-8.05,1.77-9.13,5.64-9.77,1.77-.29,3,1.4,4.67,3.75A37,37,0,0,0,419,90.55c-4.57-49-9.46-60-12-62.14a1.2,1.2,0,0,0-.94-.38c-9.84,1.23-36.86,43.84-47.94,62.64a101.45,101.45,0,0,1,17.72,7.59C393.21,107.69,408,121.56,419.56,137.49Z"/><path fill="none"  d="M307.9,90.41c-2.51-4-10.95-17.35-20.47-30C270.89,38.52,262.88,34.1,259.1,34.1a3.79,3.79,0,0,0-1.63.34c-2.94,1.41-8.51,12-12.84,67.24-1.5,19.25-2.41,38.34-2.88,50.44a215.64,215.64,0,0,1,25.85-34.59C278.85,105.54,292.43,95.62,307.9,90.41Z"/><path fill="none"  d="M445.67,397.9c4.15-3,8.74-5.13,12.75-8.43a70.25,70.25,0,0,0,17.73-22c8.67-16.77,10.48-36.28,8.64-54.84-2.41-24.3-9.67-48.43-18-71.3-3-8.15-6.18-16.2-9.55-24.19a49.52,49.52,0,0,1-6.7,3.1,79.84,79.84,0,0,0,8-5.23,49,49,0,0,0,7-6.26,21.24,21.24,0,0,0,4.71-7.73,11.81,11.81,0,0,0-.5-8.53,13.67,13.67,0,0,0-2.3-3.79,19.3,19.3,0,0,0-3.26-3.12,26.31,26.31,0,0,0-3.89-2.45q-2.07-1-4.27-1.88a58.51,58.51,0,0,0-9.12-2.51,82.85,82.85,0,0,0-9.48-1.33c.47,0,.94,0,1.42-.08l-2.36-4.77C427,153.39,417,135.33,401.43,120.25c-13.82-13.37-30.73-24.14-49.51-28.88a77.59,77.59,0,0,0-57.83,7.82c-20,11.46-34.63,30.21-46.94,49.3a369.59,369.59,0,0,0-20.83,36.89c1.72-.37,3.46-.71,5.2-1-6.22,2-12.39,4.16-18.38,6.64a88.21,88.21,0,0,0-8.73,4.12,38.77,38.77,0,0,0-4,2.52,15.7,15.7,0,0,0-3.29,3.09,5.9,5.9,0,0,0-1.28,3.84,16.15,16.15,0,0,0,.68,4.49,48.26,48.26,0,0,0,3.64,8.82,164.25,164.25,0,0,0,10.16,16.65c-1-1.07-2-2.18-2.95-3.31a381.67,381.67,0,0,0-13.69,52.52c-1.65,9-3,18.08-3.92,27.2-2.95,30.34-1.79,70.38,27.91,87.8a53.54,53.54,0,0,0,7,3.46c.75.31,2.37.54,2.88,1.31.83,1.26,0,2-1.08,2.7-2.47,1.51-14.63,3.19-13.72,6.89,1,4.22,11.94,4.52,15,4.78a152.52,152.52,0,0,0,17.5.3c1,0,2.09,0,3.17-.06.11-1.08.14-2.21.16-3.35,0-3.94.05-7.95.15-11.9s.16-7.91.16-11.86a174,174,0,0,0-1.37-23.62A64.46,64.46,0,0,0,245,355.91a32.82,32.82,0,0,0-2.38-5.39A16.83,16.83,0,0,0,239,345.9a16.94,16.94,0,0,1,4,4.43,32.27,32.27,0,0,1,2.67,5.36,64.11,64.11,0,0,1,3.12,11.54,158.1,158.1,0,0,1,2.1,23.78c.23,8-.05,15.87.1,23.8a23.1,23.1,0,0,1-.58,6.21c-.08.27-.16.52-.26.8a5.37,5.37,0,0,1-.42.87,6,6,0,0,1-1.18,1.41,11.54,11.54,0,0,1-2.8,1.74,45.72,45.72,0,0,0-5.21,2.44,3.13,3.13,0,0,0-1.37,1.6,3,3,0,0,0-.09,1,4.88,4.88,0,0,0,.27,1.08,5.87,5.87,0,0,0,2.06,2.39,5.48,5.48,0,0,1,.22-3.52,6.65,6.65,0,0,1,2.74-3.24,8.9,8.9,0,0,1,1.92-.76,13.62,13.62,0,0,1,1.85-.43,16,16,0,0,1,3.82-.26,16,16,0,0,1-3.21,2.08c-.54.29-1.16.53-1.65.78a15.73,15.73,0,0,0-1.47.69,8.67,8.67,0,0,0-2.32,2.06,11.36,11.36,0,0,0-1.72,3.09l.23-.19c.38.25.78.48,1.19.7a20.36,20.36,0,0,0,5.29,1.78,25,25,0,0,0,2.82.36c.38,0,.77,0,1.15.06a2.5,2.5,0,0,1-.64-1.2,3.62,3.62,0,0,1,.21-2.08,7.22,7.22,0,0,1,2.45-2.88,11,11,0,0,1,3.17-1.65,8.11,8.11,0,0,1,3.57-.35c-.94.8-1.84,1.44-2.71,2.08l-2.56,1.88a15.28,15.28,0,0,0-2.25,1.87,3.22,3.22,0,0,0-.68,1.13,2.54,2.54,0,0,0-.07,1.56l.3-.32c.32,0,.64,0,1,0a48.82,48.82,0,0,0,5.8-.21,44,44,0,0,0,5.72-.92,17.06,17.06,0,0,0,2.68-.81,14.34,14.34,0,0,0,2.46-1.27A22.32,22.32,0,0,0,278,426c.22-.43.45-.85.64-1.29l.3-.66.23-.65a12.56,12.56,0,0,0,.43-1.35c.13-.46.27-.92.37-1.41.48-1.89.86-3.83,1.28-5.77.81-3.87,1.62-7.77,2.58-11.63s2.08-7.68,3.44-11.42a49.56,49.56,0,0,1,5.2-10.71l-1.39,2.63-1.19,2.71c-.37.92-.71,1.85-1.06,2.77s-.63,1.87-.94,2.8A116.29,116.29,0,0,0,285,403.53c-.76,3.63-1.41,7.29-2.05,11a316.46,316.46,0,0,0,33.09,5.44c21.95,2.37,44.63,2.42,66.18-2.89,2.66-.65,5.3-1.4,7.91-2.23-.15-.76-.28-1.52-.39-2.27-.52-3.56-.72-7.09-1.19-10.57-.23-1.73-.53-3.49-.8-5.23s-.57-3.5-1-5.2a37.21,37.21,0,0,0-1.73-5c-.63-1.65-1.22-3.32-1.8-5,.69,1.63,1.4,3.26,2.14,4.86a36.4,36.4,0,0,1,2,4.95c.49,1.73.85,3.46,1.23,5.2s.76,3.45,1.09,5.21c.62,3.52.95,7.06,1.58,10.49a38.26,38.26,0,0,0,1.25,5,26.75,26.75,0,0,0,2.09,4.67,22.28,22.28,0,0,0,6.69,7.5,15,15,0,0,0,4.47,2.06,41.38,41.38,0,0,0,5.08,1,48.33,48.33,0,0,0,8.42.38l.31.31h0a2.62,2.62,0,0,0-.07-1.56,3.4,3.4,0,0,0-.69-1.13,14.77,14.77,0,0,0-2.25-1.87l-2.56-1.88c-.87-.64-1.77-1.28-2.7-2.08a7.93,7.93,0,0,1,3.56.36,10.63,10.63,0,0,1,3.17,1.64,7.18,7.18,0,0,1,2.45,2.89,3.42,3.42,0,0,1,.21,2.07,2.53,2.53,0,0,1-.63,1.2l1.11-.06a22.59,22.59,0,0,0,5-.89,16.67,16.67,0,0,0,4.35-2l.25.2a11.16,11.16,0,0,0-1.73-3.08,8.31,8.31,0,0,0-2.31-2.06,14.68,14.68,0,0,0-1.48-.7c-.48-.25-1.11-.49-1.65-.78a15.16,15.16,0,0,1-3.21-2.08,16,16,0,0,1,3.82.26,13.28,13.28,0,0,1,1.85.43,8.52,8.52,0,0,1,1.92.76,6.55,6.55,0,0,1,2.74,3.24,5.48,5.48,0,0,1,.23,3.5,7.91,7.91,0,0,0,1.41-1.28,4.54,4.54,0,0,0,.87-1.83,2.87,2.87,0,0,0-1.55-3.26,28.13,28.13,0,0,0-4.64-2,24,24,0,0,1-2.56-1.17,8.3,8.3,0,0,1-2.4-1.93,6.75,6.75,0,0,1-.48-.71,4.47,4.47,0,0,1-.35-.83,9.48,9.48,0,0,1-.29-1.49c-.11-.95-.16-1.86-.18-2.76-.05-1.81,0-3.6,0-5.38.12-3.56.38-7.11.7-10.65.62-7.07,1.53-14.12,2.78-21.12.65-3.49,1.36-7,2.31-10.4a47.66,47.66,0,0,1,1.63-5.08,21.23,21.23,0,0,1,1.12-2.42,7.43,7.43,0,0,1,1.62-2.11,7.18,7.18,0,0,0-1.46,2.19,22.22,22.22,0,0,0-.94,2.46c-.53,1.68-1,3.39-1.35,5.11-.75,3.45-1.29,6.94-1.76,10.44-.95,7-1.6,14-2.06,21.08-.21,3.52-.37,7-.45,10.56,0,1.75,0,3.51,0,5.24,0,.23,0,.46,0,.69,5.9.87,12.12.57,18,.37a139.7,139.7,0,0,0,19-1.57c2.82-.49,3.2-.31,1.75-3-1.38-2.56-4.41-3.86-7-4.74-2.38-.8-4.85-1.22-7.28-1.83-1-.25-2.68-.48-3.21-1.5C443.69,399.32,444.71,398.59,445.67,397.9Z"/><path fill="none"  d="M164.26,327a17,17,0,0,0,5.41,9.44l7.42,6.85-8.84-4.88c-.31-.17-30.25-17-37-46.49-2.89,4.56-8.56,16.4-5.76,36l.24,1.68-1.67-.3c-.21,0-4-.8-6.8-6.54.43,7.76,2.52,20.07,10.7,29.95,7.83,9.47,19.61,14.86,35,16l5.13.39-4.76,2a81.61,81.61,0,0,1-8.27,2.87,76,76,0,0,0,37.54-2.25c-4.12-10.7-5.77-22.39-6.21-33.77A33.19,33.19,0,0,1,164.26,327Z"/><path d="M419.64,69.17h0l-.18,0Z"/><path d="M452.75,396.6A76,76,0,0,0,464,387.8c13.41-12.75,20.76-30.18,23-48.34,2.74-21.86-1.67-43.93-7.23-65A434.42,434.42,0,0,0,459.38,216a42.23,42.23,0,0,0,7.6-5.84,25.59,25.59,0,0,0,3.21-3.81,17.62,17.62,0,0,0,2.32-4.53,14,14,0,0,0-.45-10.2,19.81,19.81,0,0,0-1.18-2.29,20.87,20.87,0,0,0-1.53-2.07,19.54,19.54,0,0,0-3.72-3.44,30.81,30.81,0,0,0-8.92-4.28,49.18,49.18,0,0,0-9.56-1.89c-1.85-.18-3.7-.28-5.55-.29q-2.79-5.67-5.62-11.3c-3.36-6.66-6.74-13.27-10.57-19.62-.37-7.42-1.14-21.45-2.36-37.4a32.2,32.2,0,0,0,8,1c.87,0,1.77,0,2.7-.1a31,31,0,0,0,21.85-11.55c.22-.28.44-.57.64-.86a25.45,25.45,0,0,0,4.5-12.11A32.7,32.7,0,0,0,452,59.55c-6.87-7.06-17.36-9.21-27.41-5.56-6.59,2.38-6.85,3.12-6.74,4.14,0,.12,1.44,10.37,1.48,10.73l.09.19.21.12c5.19-1.32,9.44-4.79,15.13-3.74a14.17,14.17,0,0,1,9.24,6.4c3.11,5,3.62,11,1.33,15.65-2.87,5.89-10.12,9.33-16.85,8a18.22,18.22,0,0,1-6.79-2.81c-2.74-29.93-7-61-13.07-66.14a3.6,3.6,0,0,0-2.82-.94c-12.54,1.57-43.47,53.14-50.05,64.33a82,82,0,0,0-33.65-2.85,74.92,74.92,0,0,0-11.81,2.54c-2.05-3.3-10.87-17.36-20.9-30.64-15.86-21-26.66-29.78-33-26.75-2.26,1.09-9.13,4.39-14.22,69.26-1.71,21.83-2.64,43.46-3.05,55-4.22,7.11-8.17,14.36-11.9,21.61q-2.07,4-4,8c-3.62.88-7.21,1.91-10.75,3.15a70.11,70.11,0,0,0-9.14,3.87,34.28,34.28,0,0,0-4.32,2.62,17.66,17.66,0,0,0-3.85,3.56,8.57,8.57,0,0,0-1.32,2.51c-.07.23-.15.47-.21.71l-.1.69a10.7,10.7,0,0,0-.08,1.37,17.47,17.47,0,0,0,.85,5.15,44.79,44.79,0,0,0,4.18,9.1A85,85,0,0,0,204,227c.5.66,1,1.31,1.52,2q-3.08,9-5.7,18.09-5.13,17.8-8.49,36c-3.14,17.24-5.44,34.81-5,52.38a30.47,30.47,0,0,1-22.44-13l-1.77-2.58-.44,3.1a17,17,0,0,0,1.9,9.39c-9.27-6.67-26.65-21.81-30.49-43.69l-.43-2.45L131,288.12c-.47.51-11.12,12.51-8.22,37.84-1.7-1.3-4.21-4.31-5.45-11.13l-1.48-8.15-.94,8.23c-.1.92-2.43,22.9,11.16,39.34,7.35,8.91,17.95,14.4,31.55,16.37-2.82,1-6.22,1.94-8.32,1.94H142l6.82,2.37a67.07,67.07,0,0,0,20.54,2.93A77.05,77.05,0,0,0,193.52,374a65.78,65.78,0,0,0,4.87,9.34,52.9,52.9,0,0,0,21.1,19.21c.92.46,1.85.89,2.79,1.3a9.19,9.19,0,0,0,1.25.53l.49.2c-.49.16-1,.36-1.45.52-1.7.59-3.42,1.12-5.11,1.72-3.31,1.19-9.12,3.12-6.74,7.75,2.05,4,8.63,4.75,12.48,5.28a124,124,0,0,0,19.36.86c1.38,0,3.38.11,5.38,0,0,.08-.06.17-.08.24a3,3,0,0,1-.24.47,3.79,3.79,0,0,1-.72.85,9.48,9.48,0,0,1-2.25,1.36,42.87,42.87,0,0,0-5.54,2.6,5.5,5.5,0,0,0-2.34,2.88,5.42,5.42,0,0,0-.2,1.94,7.07,7.07,0,0,0,.44,1.8,7.44,7.44,0,0,0,2.1,2.8,13.08,13.08,0,0,0,2.71,1.81,22.51,22.51,0,0,0,6,2,28.13,28.13,0,0,0,3.08.38c1,.08,2,.13,3,.15a47.51,47.51,0,0,0,6.08-.28,45.38,45.38,0,0,0,6-1.05,18.51,18.51,0,0,0,3-1,16.24,16.24,0,0,0,2.79-1.49,23.63,23.63,0,0,0,8-9.35c.22-.47.45-.92.65-1.4l.3-.7.25-.75a13.1,13.1,0,0,0,.44-1.49c.12-.5.26-1,.35-1.48.31-1.39.57-2.78.82-4.17l.39.09c22.74,4.9,46.19,7.78,69.49,6.66a158.3,158.3,0,0,0,31.67-4.54q3.35-.86,6.64-1.91l.18.65a28,28,0,0,0,2.11,5.06,23.44,23.44,0,0,0,7.15,8.35,17.15,17.15,0,0,0,5.1,2.44,46.75,46.75,0,0,0,5.33,1.12,49.33,49.33,0,0,0,10.86.35c.91-.07,1.8-.16,2.74-.32a22.39,22.39,0,0,0,2.72-.63,18.81,18.81,0,0,0,5.16-2.33,10.9,10.9,0,0,0,2.24-2,6.92,6.92,0,0,0,1.35-2.93,5.27,5.27,0,0,0-.39-3.33,6.07,6.07,0,0,0-2.25-2.37,30,30,0,0,0-5.07-2.22,10.06,10.06,0,0,1-4-2.36c-.1-.12-.21-.28-.28-.38a2.4,2.4,0,0,1-.17-.39c0-.14-.08-.3-.12-.47l.91.09a142.87,142.87,0,0,0,21.2.05c5.56-.29,11.61-.36,17-1.79,4.09-1.08,2.59-5.48.27-8-3.66-4-9.54-4.72-14.51-6-.16,0-.32-.1-.48-.15.34-.21.64-.43.79-.52C450,398.32,451.38,397.48,452.75,396.6ZM428,97.9c7.92,1.55,16.13-2.38,19.52-9.35,2.66-5.45,2.1-12.36-1.46-18-4.31-6.84-11.88-9.5-19.29-6.77a55.67,55.67,0,0,0-6.77,3l-.1.06c-.54-5-.88-6.87-1-7.69l.23-.13a59.25,59.25,0,0,1,6.31-2.7c9.08-3.29,18.57-1.38,24.77,5a30.21,30.21,0,0,1,8.09,23.83,23,23,0,0,1-4,11c-.19.27-.39.53-.59.79a28.52,28.52,0,0,1-20.1,10.61c-.85.06-1.67.09-2.48.09-15.08,0-23.8-10.41-24.5-16.68s.72-6.61,3.57-7.08a11.78,11.78,0,0,1,2.32,2.75C415.11,90.15,419.46,96.22,428,97.9ZM406.1,28a1.2,1.2,0,0,1,.94.38c2.53,2.15,7.42,13.12,12,62.14a37,37,0,0,1-4.53-5.45c-1.68-2.35-2.9-4-4.67-3.75-3.87.64-6.53,1.72-5.64,9.77.49,4.35,3.74,9.3,8.49,12.9a28.55,28.55,0,0,0,7.85,4.21c1,13.53,1.77,25.82,2.2,33.9-1-1.57-2.07-3.12-3.17-4.64-11.53-15.93-26.35-29.8-43.68-39.23a101.45,101.45,0,0,0-17.72-7.59C369.24,71.87,396.26,29.26,406.1,28ZM244.63,101.68c4.33-55.22,9.9-65.83,12.84-67.24a3.79,3.79,0,0,1,1.63-.34c3.78,0,11.79,4.42,28.33,26.34,9.52,12.62,18,26,20.47,30-15.47,5.21-29,15.13-40.3,27.12a215.64,215.64,0,0,0-25.85,34.59C242.22,140,243.13,120.93,244.63,101.68ZM155.05,374a81.61,81.61,0,0,0,8.27-2.87l4.76-2-5.13-.39c-15.41-1.18-27.19-6.57-35-16-8.18-9.88-10.27-22.19-10.7-29.95,2.83,5.74,6.59,6.5,6.8,6.54l1.67.3-.24-1.68c-2.8-19.6,2.87-31.44,5.76-36,6.78,29.5,36.72,46.32,37,46.49l8.84,4.88-7.42-6.85a17,17,0,0,1-5.41-9.44A33.19,33.19,0,0,0,186.38,338c.44,11.38,2.09,23.07,6.21,33.77A76,76,0,0,1,155.05,374Zm289.33,26.67c.53,1,2.24,1.25,3.21,1.5,2.43.61,4.9,1,7.28,1.83,2.62.88,5.65,2.18,7,4.74,1.45,2.72,1.07,2.54-1.75,3a139.7,139.7,0,0,1-19,1.57c-5.9.2-12.12.5-18-.37,0-.23,0-.46,0-.69-.07-1.73-.07-3.49,0-5.24.08-3.52.24-7,.45-10.56.46-7,1.11-14.08,2.06-21.08.47-3.5,1-7,1.76-10.44.37-1.72.82-3.43,1.35-5.11a22.22,22.22,0,0,1,.94-2.46,7.18,7.18,0,0,1,1.46-2.19,7.43,7.43,0,0,0-1.62,2.11,21.23,21.23,0,0,0-1.12,2.42,47.66,47.66,0,0,0-1.63,5.08c-.95,3.43-1.66,6.91-2.31,10.4-1.25,7-2.16,14.05-2.78,21.12-.32,3.54-.58,7.09-.7,10.65-.06,1.78-.09,3.57,0,5.38,0,.9.07,1.81.18,2.76a9.48,9.48,0,0,0,.29,1.49,4.47,4.47,0,0,0,.35.83,6.75,6.75,0,0,0,.48.71,8.3,8.3,0,0,0,2.4,1.93,24,24,0,0,0,2.56,1.17,28.13,28.13,0,0,1,4.64,2,2.87,2.87,0,0,1,1.55,3.26,4.54,4.54,0,0,1-.87,1.83,7.91,7.91,0,0,1-1.41,1.28,5.48,5.48,0,0,0-.23-3.5,6.55,6.55,0,0,0-2.74-3.24,8.52,8.52,0,0,0-1.92-.76,13.28,13.28,0,0,0-1.85-.43,16,16,0,0,0-3.82-.26,15.16,15.16,0,0,0,3.21,2.08c.54.29,1.17.53,1.65.78a14.68,14.68,0,0,1,1.48.7,8.31,8.31,0,0,1,2.31,2.06,11.16,11.16,0,0,1,1.73,3.08l-.25-.2a16.67,16.67,0,0,1-4.35,2,22.59,22.59,0,0,1-5,.89l-1.11.06a2.53,2.53,0,0,0,.63-1.2,3.42,3.42,0,0,0-.21-2.07,7.18,7.18,0,0,0-2.45-2.89,10.63,10.63,0,0,0-3.17-1.64,7.93,7.93,0,0,0-3.56-.36c.93.8,1.83,1.44,2.7,2.08l2.56,1.88a14.77,14.77,0,0,1,2.25,1.87,3.4,3.4,0,0,1,.69,1.13,2.62,2.62,0,0,1,.07,1.56h0l-.31-.31a48.33,48.33,0,0,1-8.42-.38,41.38,41.38,0,0,1-5.08-1,15,15,0,0,1-4.47-2.06,22.28,22.28,0,0,1-6.69-7.5,26.75,26.75,0,0,1-2.09-4.67,38.26,38.26,0,0,1-1.25-5c-.63-3.43-1-7-1.58-10.49-.33-1.76-.72-3.47-1.09-5.21s-.74-3.47-1.23-5.2a36.4,36.4,0,0,0-2-4.95c-.74-1.6-1.45-3.23-2.14-4.86.58,1.68,1.17,3.35,1.8,5a37.21,37.21,0,0,1,1.73,5c.39,1.7.67,3.45,1,5.2s.57,3.5.8,5.23c.47,3.48.67,7,1.19,10.57.11.75.24,1.51.39,2.27-2.61.83-5.25,1.58-7.91,2.23-21.55,5.31-44.23,5.26-66.18,2.89A316.46,316.46,0,0,1,283,414.5c.64-3.68,1.29-7.34,2.05-11A116.29,116.29,0,0,1,287.9,392c.31-.93.59-1.88.94-2.8s.69-1.85,1.06-2.77l1.19-2.71,1.39-2.63a49.56,49.56,0,0,0-5.2,10.71c-1.36,3.74-2.46,7.57-3.44,11.42s-1.77,7.76-2.58,11.63c-.42,1.94-.8,3.88-1.28,5.77-.1.49-.24.95-.37,1.41a12.56,12.56,0,0,1-.43,1.35l-.23.65-.3.66c-.19.44-.42.86-.64,1.29a22.32,22.32,0,0,1-7.42,8.42,14.34,14.34,0,0,1-2.46,1.27,17.06,17.06,0,0,1-2.68.81,44,44,0,0,1-5.72.92,48.82,48.82,0,0,1-5.8.21c-.31,0-.63,0-1,0l-.3.32a2.54,2.54,0,0,1,.07-1.56,3.22,3.22,0,0,1,.68-1.13,15.28,15.28,0,0,1,2.25-1.87l2.56-1.88c.87-.64,1.77-1.28,2.71-2.08a8.11,8.11,0,0,0-3.57.35,11,11,0,0,0-3.17,1.65,7.22,7.22,0,0,0-2.45,2.88,3.62,3.62,0,0,0-.21,2.08,2.5,2.5,0,0,0,.64,1.2c-.38,0-.77,0-1.15-.06a25,25,0,0,1-2.82-.36,20.36,20.36,0,0,1-5.29-1.78c-.41-.22-.81-.45-1.19-.7l-.23.19a11.36,11.36,0,0,1,1.72-3.09,8.67,8.67,0,0,1,2.32-2.06A15.73,15.73,0,0,1,247,429c.49-.25,1.11-.49,1.65-.78a16,16,0,0,0,3.21-2.08,16,16,0,0,0-3.82.26,13.62,13.62,0,0,0-1.85.43,8.9,8.9,0,0,0-1.92.76,6.65,6.65,0,0,0-2.74,3.24,5.48,5.48,0,0,0-.22,3.52,5.87,5.87,0,0,1-2.06-2.39,4.88,4.88,0,0,1-.27-1.08,3,3,0,0,1,.09-1,3.13,3.13,0,0,1,1.37-1.6,45.72,45.72,0,0,1,5.21-2.44,11.54,11.54,0,0,0,2.8-1.74,6,6,0,0,0,1.18-1.41,5.37,5.37,0,0,0,.42-.87c.1-.28.18-.53.26-.8a23.1,23.1,0,0,0,.58-6.21c-.15-7.93.13-15.83-.1-23.8a158.1,158.1,0,0,0-2.1-23.78,64.11,64.11,0,0,0-3.12-11.54,32.27,32.27,0,0,0-2.67-5.36,16.94,16.94,0,0,0-4-4.43,16.83,16.83,0,0,1,3.65,4.62,32.82,32.82,0,0,1,2.38,5.39,64.46,64.46,0,0,1,2.55,11.51A174,174,0,0,1,248.91,391c0,3.95-.08,7.9-.16,11.86s-.13,8-.15,11.9c0,1.14,0,2.27-.16,3.35-1.08,0-2.17,0-3.17.06a152.52,152.52,0,0,1-17.5-.3c-3.09-.26-14-.56-15-4.78-.91-3.7,11.25-5.38,13.72-6.89,1.07-.66,1.91-1.44,1.08-2.7-.51-.77-2.13-1-2.88-1.31a53.54,53.54,0,0,1-7-3.46C188,381.35,186.8,341.31,189.75,311c.89-9.12,2.27-18.19,3.92-27.2a381.67,381.67,0,0,1,13.69-52.52c.95,1.13,1.93,2.24,2.95,3.31a164.25,164.25,0,0,1-10.16-16.65,48.26,48.26,0,0,1-3.64-8.82,16.15,16.15,0,0,1-.68-4.49,5.9,5.9,0,0,1,1.28-3.84,15.7,15.7,0,0,1,3.29-3.09,38.77,38.77,0,0,1,4-2.52,88.21,88.21,0,0,1,8.73-4.12c6-2.48,12.16-4.6,18.38-6.64-1.74.28-3.48.62-5.2,1a369.59,369.59,0,0,1,20.83-36.89c12.31-19.09,26.91-37.84,46.94-49.3a77.59,77.59,0,0,1,57.83-7.82c18.78,4.74,35.69,15.51,49.51,28.88C417,135.33,427,153.39,436.55,172.6l2.36,4.77c-.48,0-1,0-1.42.08a82.85,82.85,0,0,1,9.48,1.33,58.51,58.51,0,0,1,9.12,2.51q2.21.84,4.27,1.88a26.31,26.31,0,0,1,3.89,2.45,19.3,19.3,0,0,1,3.26,3.12,13.67,13.67,0,0,1,2.3,3.79,11.81,11.81,0,0,1,.5,8.53,21.24,21.24,0,0,1-4.71,7.73,49,49,0,0,1-7,6.26,79.84,79.84,0,0,1-8,5.23,49.52,49.52,0,0,0,6.7-3.1c3.37,8,6.58,16,9.55,24.19,8.32,22.87,15.58,47,18,71.3,1.84,18.56,0,38.07-8.64,54.84a70.25,70.25,0,0,1-17.73,22c-4,3.3-8.6,5.44-12.75,8.43C444.71,398.59,443.69,399.32,444.38,400.64Z"/>    </g>    <g id="eye">        <g id="eye-color1">            <path fill="#B59070"  d="M423,110c-10.92,0-24.13,2.06-36.44,9.45-13.21,7.93-17.16,15.15-21,22.12-2.76,5.05-5.42,9.91-11.48,14.25,10.32-3.39,24.69-9.79,36.24-21.3a79.58,79.58,0,0,1,47.61-23.27A91.28,91.28,0,0,0,423,110Z"/><path fill="#B59070"  d="M291.57,138.89c-4.62-7.36-9.41-15-20.37-21.7-22.06-13.51-46-5.6-54.63-1.89,3,2,4.46,6,6.2,10.84,3.67,10.17,8.7,24.09,31.27,32.49,26.78,10,52,5,61.7,2.31C302,155.5,296.93,147.41,291.57,138.89Z"/>        </g>        <g id="eye-shape">            <path fill="none"  d="M368.14,174.13a32.24,32.24,0,0,0,14.41,8.44A33.17,33.17,0,0,1,368.14,174.13Z"/><path fill="none"  d="M410.49,123l-.14.09c.09-.06.2-.11.29-.16Z"/><path fill="none"  d="M291.57,138.88c-4.62-7.36-9.41-15-20.37-21.69-22.06-13.52-46-5.61-54.63-1.9,3,1.95,4.46,6,6.2,10.84,3.67,10.17,8.7,24.09,31.27,32.49,26.78,10,52,5,61.7,2.31C302,155.49,296.93,147.4,291.57,138.88Z"/><path fill="none"  d="M386.52,119.41c-13.21,7.93-17.16,15.15-21,22.12-2.76,5.05-5.42,9.91-11.48,14.25,10.32-3.39,24.69-9.79,36.24-21.3a79.58,79.58,0,0,1,47.61-23.27A91.28,91.28,0,0,0,423,110C412,110,398.83,112,386.52,119.41Z"/><path fill="#fff"  d="M393.72,184.24c16.32.47,31.69-6.39,41.08-18.42,7-9,9.52-19.49,6.88-28.79-6-21-19.34-18.87-19.91-18.76l-2.22.55a74.38,74.38,0,0,0-8.91,4.1c-.09,0-.2.1-.29.16a75.41,75.41,0,0,0-8.44,5.37,15.65,15.65,0,0,1,12,5.46c4.25,4.89,4.52,21.76-12.67,26.4-16,4.31-21.47-9.2-22.61-12.71-2.23,1.43-4.47,2.73-6.69,3.91a104.81,104.81,0,0,1-12.75,5.72,35.12,35.12,0,0,0,9,16.9,33.17,33.17,0,0,0,14.41,8.44A44.74,44.74,0,0,0,393.72,184.24Z"/><path fill="#fff"  d="M253,161.43c-20.13-7.48-27.21-19.53-31.12-29.18a40.24,40.24,0,0,0-3,8.34c-2.53,10.12,1.18,22.22,9.68,31.57a43.93,43.93,0,0,0,39.63,14.1c17.18-2.58,25.8-11.72,30.05-19.19-3.2.29-6.65.48-10.3.48A100,100,0,0,1,253,161.43Z"/><path d="M454.9,112.75l-7.13-2.36c-.34-.11-33.89-10.91-62.8,6.45a58.68,58.68,0,0,0-14.13,11.37,46.8,46.8,0,0,0-5.51-5.91c-1.6-1.44-3.29-2.77-5-4,.95-1.68,2-3.31,3.05-4.92,1.22-1.78,2.59-3.41,4.09-5.19a16,16,0,0,0-5.88,3.65,24.51,24.51,0,0,0-3.71,4.72,55.57,55.57,0,0,0-6.77-3.83,33.1,33.1,0,0,0-8.24-2.67l7.08,4.72,6.53,4.43a28.64,28.64,0,0,0-1.64,4.54,21.69,21.69,0,0,0-.79,6.81c1.07-2,2-4,3-6,.62-1.25,1.25-2.48,1.89-3.7,1.65,1.12,3.3,2.24,5,3.34,2.22,1.44,4.46,2.88,6.82,4.21a61.42,61.42,0,0,0-7.8,11.72c-4.09,7.48-7.63,13.93-22.64,19.2l.71,2.9a93.57,93.57,0,0,0,15.39-4c1.65,6.93,9,28.15,37.27,29l1.75,0c16.63,0,32.15-7.25,41.78-19.61,7.61-9.76,10.31-21.22,7.41-31.45-3.85-13.57-10.85-18.46-16.21-20.15a108.56,108.56,0,0,1,19.05-2.75Zm-86.76,61.38a35.12,35.12,0,0,1-9-16.9,104.81,104.81,0,0,0,12.75-5.72c2.22-1.18,4.46-2.48,6.69-3.91,1.14,3.51,6.65,17,22.61,12.71,17.19-4.64,16.92-21.51,12.67-26.4a15.65,15.65,0,0,0-12-5.46,75.41,75.41,0,0,1,8.44-5.37l.14-.09.15-.07a74.38,74.38,0,0,1,8.91-4.1l2.22-.55c.57-.11,13.94-2.27,19.91,18.76,2.64,9.3.13,19.79-6.88,28.79-9.39,12-24.76,18.89-41.08,18.42a44.74,44.74,0,0,1-11.17-1.67A32.24,32.24,0,0,1,368.14,174.13Zm22.15-39.65c-11.55,11.51-25.92,17.91-36.24,21.3,6.06-4.34,8.72-9.2,11.48-14.25,3.83-7,7.78-14.19,21-22.12C398.83,112,412,110,423,110a91.28,91.28,0,0,1,14.94,1.25A79.58,79.58,0,0,0,390.29,134.48Z"/><path d="M297.26,142.17a77,77,0,0,1,3.49-7c1.65-3,3.5-5.85,5.35-8.72l.75-1.12,6.71,5a10.29,10.29,0,0,0-2.11-4.49,17.33,17.33,0,0,0-3-3c1.11-1.65,2.23-3.3,3.34-5,1.95-2.85,3.89-5.71,5.76-8.69a55.54,55.54,0,0,0-7.6,7.26q-2,2.28-3.86,4.73a20.86,20.86,0,0,0-2.34-1.23,15.48,15.48,0,0,0-4.71-1.33,32.5,32.5,0,0,0,3.46,3.32c.64.54,1.29,1.06,1.93,1.57l-.88,1.29a53.93,53.93,0,0,0-5,9.35,34.11,34.11,0,0,0-2,7c-.83-1.27-1.65-2.58-2.49-3.91-4.81-7.65-9.78-15.56-21.35-22.65-28.9-17.72-60.71-.55-61-.38l-4.69,2.59,5.35.23c3.79.16,5.2,3.57,7.55,10.08.17.48.35,1,.53,1.46A39.93,39.93,0,0,0,216,139.86c-2.77,11.08,1.21,24.23,10.37,34.32a47.52,47.52,0,0,0,35.18,15.58,49,49,0,0,0,7.12-.53,51.43,51.43,0,0,0,14.16-4.17,57.05,57.05,0,0,0-1.6,9.64c-.06.52-.09,1-.12,1.55a23.81,23.81,0,0,0-3.4,3.7,17.8,17.8,0,0,0-2.63,4.83,49.61,49.61,0,0,0,4.33-3.21c.54-.44,1.06-.88,1.58-1.32v.43c0,2,.15,4,.28,6a55.6,55.6,0,0,0,1.2,7.36,14.87,14.87,0,0,0-2.2.2,10.18,10.18,0,0,0-3.43,1.25,14.84,14.84,0,0,0,3.41,1.1,26,26,0,0,0,3,.42c.14.48.27,1,.41,1.46a38.8,38.8,0,0,0,5.33,10.72,108.65,108.65,0,0,1-3.06-11.32c-.05-.25-.09-.5-.14-.75h1.1c1.11,0,2.21-.12,3.49-.25a7,7,0,0,0-3.08-2.07,11.19,11.19,0,0,0-2-.54c-.43-2.61-.77-5.22-1-7.85-.19-1.93-.36-3.86-.44-5.8-.07-.86-.11-1.73-.14-2.6,1.21-1,2.39-2.05,3.63-3s2.69-2.08,4.24-3.15a11.58,11.58,0,0,0-5.46,1.13,18.48,18.48,0,0,0-2.54,1.41c-.08-3.17-.11-6.36-.13-9.58a39.79,39.79,0,0,0,18.43-18.1A95.1,95.1,0,0,0,321,162.44l4.06-1.53L321,159.6C307.85,155.46,302.11,149.34,297.26,142.17Zm-29.07,44.09a43.93,43.93,0,0,1-39.63-14.1c-8.5-9.35-12.21-21.45-9.68-31.57a40.24,40.24,0,0,1,3-8.34c3.91,9.65,11,21.7,31.12,29.18a100,100,0,0,0,34.95,6.12c3.65,0,7.1-.19,10.3-.48C294,174.54,285.37,183.68,268.19,186.26ZM254,158.62c-22.57-8.4-27.6-22.32-31.27-32.49-1.74-4.81-3.21-8.89-6.2-10.84,8.67-3.71,32.57-11.62,54.63,1.9,11,6.72,15.75,14.33,20.37,21.69,5.36,8.52,10.44,16.61,24.17,22.05C306,163.6,280.82,168.59,254,158.62Z"/>        </g>        <g id="eye-color2">            <path fill="#FF8A8A"  d="M406.08,168c22.15-6.31,22-25.85,18.49-33.79-2.91-6.49-7.81-10.65-14.08-11.26a77.4,77.4,0,0,0-8.58,5.46,15.65,15.65,0,0,1,12,5.46c4.25,4.9,4.52,21.76-12.67,26.41-16,4.3-21.47-9.21-22.61-12.72-2.23,1.43-4.47,2.74-6.69,3.91C373.7,156.45,382,174.88,406.08,168Z"/>        </g>    </g>    <g id="nose-mouth">        <path fill="#f25757"  d="M342.46,246.45c-.41.22-2.32-.19-2.89,0a1,1,0,0,0-.52,1,14.81,14.81,0,0,0,.4,4.35,12.51,12.51,0,0,0-2.61-3.47,3.5,3.5,0,0,0-2.79-1.15c-1.22.19-2.07,1.53-3.4,1.18a3.47,3.47,0,0,1-.36-.08,57.36,57.36,0,0,1,3.34,6,8,8,0,0,0,.83,1.91,6,6,0,0,0,1.35,1.49,5.81,5.81,0,0,0,3.73,1.3,5,5,0,0,0,3.57-1.48,5.6,5.6,0,0,0,1.51-3.64,14.85,14.85,0,0,0-.67-4.13,16,16,0,0,0-1.28-3.22Z"/><path fill="#d33d3d"  d="M334.05,247.25a3.5,3.5,0,0,1,2.79,1.15,12.51,12.51,0,0,1,2.61,3.47,14.81,14.81,0,0,1-.4-4.35,1,1,0,0,1,.52-1c.57-.23,2.48.18,2.89,0a14.9,14.9,0,0,1-4.63-3.24,8.23,8.23,0,0,1-.88-1.16,7.5,7.5,0,0,1-2,.18c-.12.23-.25.46-.39.68a13.31,13.31,0,0,1-4.54,4.35l-.26.13.49.91a.13.13,0,0,0,.07,0,3.47,3.47,0,0,0,.36.08C332,248.78,332.83,247.44,334.05,247.25Z"/><path d="M370.82,232.48a21.37,21.37,0,0,1-1.41,5.86,12.93,12.93,0,0,1-3.34,4.75c-2.9,2.59-6.88,3.57-10.8,3.78a39.61,39.61,0,0,1-6-.17,21,21,0,0,1-5.72-1.3,16.45,16.45,0,0,1-5.12-2.84,10.05,10.05,0,0,1-.73-.73c4.22-1.48,6.82-6.56,9.69-9.86,6.16-7.12,14.84-20.64,5.73-29.06-4.65-4.31-12.15-5-18.17-4.69a62.28,62.28,0,0,0-20.68,4.42c-5.23,2.66-9.45,6.53-8.45,13s7.23,11.46,11.66,15.53,10.35,10.1,16.49,11c-.06.09-.12.19-.19.28a13.25,13.25,0,0,1-4.5,3.64,22.8,22.8,0,0,1-5.53,1.92,33.16,33.16,0,0,1-5.88.72,42.27,42.27,0,0,1-6-.2,40.29,40.29,0,0,1-5.87-1,27,27,0,0,1-5.58-2,13.06,13.06,0,0,1-4.65-3.71,11.7,11.7,0,0,0,4.22,4.45,23.43,23.43,0,0,0,5.63,2.61A36.15,36.15,0,0,0,318,250.45a26.39,26.39,0,0,0,11.36-2.84c.48,1.11,1.08,2.15,1.65,3.19a36.69,36.69,0,0,1,1.93,3.8c.13.32.21.63.35,1a6.17,6.17,0,0,0,.51,1,7.1,7.1,0,0,0,1.52,1.71,6.68,6.68,0,0,0,4.25,1.54,5.77,5.77,0,0,0,4.16-1.8,6.4,6.4,0,0,0,1.68-4.18,13.74,13.74,0,0,0-.8-4.35,17.17,17.17,0,0,0-1.11-2.66,22.41,22.41,0,0,0,2.54.88,15.94,15.94,0,0,0,3.11.59,35.08,35.08,0,0,0,6.24.22,22.1,22.1,0,0,0,6.2-1.19,14.37,14.37,0,0,0,5.42-3.36,13,13,0,0,0,3.19-5.44A17.27,17.27,0,0,0,370.82,232.48Zm-26.2,21.42a5.6,5.6,0,0,1-1.51,3.64,5,5,0,0,1-3.57,1.48,5.81,5.81,0,0,1-3.73-1.3,6,6,0,0,1-1.35-1.49,8,8,0,0,1-.83-1.91,57.36,57.36,0,0,0-3.34-6,.13.13,0,0,1-.07,0l-.49-.91.26-.13a13.31,13.31,0,0,0,4.54-4.35c.14-.22.27-.45.39-.68a7.5,7.5,0,0,0,2-.18,8.23,8.23,0,0,0,.88,1.16,14.9,14.9,0,0,0,4.63,3.24l.21.1a16,16,0,0,1,1.28,3.22A14.85,14.85,0,0,1,344.62,253.9Zm-8.85-46.15a7.79,7.79,0,0,0-1.63-.54,1.32,1.32,0,0,1,0-2.53,15,15,0,0,1,8.91-.64c2,.49,4.91,1.55,4.09,4.15a5.68,5.68,0,0,1-5.3,3.6C339.45,211.52,337.81,208.83,335.77,207.75Z"/><rect fill="#563a33"  x="312.85" y="240.07" width="2.61" height="2.61" rx="1.02" ry="1.02" transform="translate(-35.24 428.13) rotate(-65.66)"/><rect fill="#563a33"  x="305.19" y="237.27" width="2.61" height="2.61" rx="1.02" ry="1.02" transform="translate(-37.12 419.64) rotate(-65.68)"/><rect fill="#563a33"  x="305.43" y="243.3" width="2.61" height="2.61" rx="1.02" ry="1.02" transform="translate(-42.42 423.51) rotate(-65.7)"/><rect fill="#563a33"  x="354.66" y="241.94" width="2.61" height="2.61" rx="1.02" ry="1.02" transform="translate(-12.2 467.59) rotate(-65.7)"/><rect fill="#563a33"  x="359.88" y="234.44" width="2.61" height="2.61" rx="1.02" ry="1.02" transform="translate(-2.37 467.82) rotate(-65.68)"/><rect fill="#563a33"  x="361.21" y="239.37" width="2.61" height="2.61" rx="1.02" ry="1.02" transform="translate(-6.17 471.78) rotate(-65.66)"/><path fill="#fff"  d="M347.14,208.19c.82-2.6-2.13-3.66-4.09-4.15a15,15,0,0,0-8.91.64,1.32,1.32,0,0,0,0,2.53,7.79,7.79,0,0,1,1.63.54c2,1.08,3.68,3.77,6.07,4A5.68,5.68,0,0,0,347.14,208.19Z"/><path d="M308.87,269.07a132,132,0,0,0,13.9,4.15c1.17.27,2.35.42,3.53.65s2.36.35,3.56.4l1.78.15,1.79.06c1.19.07,2.39,0,3.58,0s2.38-.11,3.57-.2,2.38-.24,3.56-.45a60.72,60.72,0,0,0,7-1.45,69,69,0,0,0,13.44-5.31,46,46,0,0,1-13,6.8,51.64,51.64,0,0,1-14.54,2.61,49.69,49.69,0,0,1-14.67-1.74A67.64,67.64,0,0,1,308.87,269.07Z"/><g opacity="0.1" ><path d="M338.59,282.74c10.32-.58,20.87-7.3,26-15.68-.22.65-19.13,9.52-26.87,8.94-17.2-1.29-29.27-7-28.86-6.93C308.87,269.07,321.89,283.67,338.59,282.74Z"/></g>    </g></svg>