<!--  ~ Copyright (C) 2018 Baidu, Inc. All Rights Reserved.  --><svg viewBox="0 0 640 480" xmlns="http://www.w3.org/2000/svg">    <g id="back-ground-cl">        <rect fill="none" width="640" height="480" />        <ellipse opacity="0.1" cx="331.93" cy="418.82" rx="168.39" ry="32.01"/>    </g>    <g id="body">        <defs>            <clipPath id="outline">                <path d="M452.79,396.45a74.64,74.64,0,0,0,11.24-8.8c13.41-12.74,20.76-30.16,23-48.33,2.74-21.85-1.67-43.92-7.23-65-.26-1-.53-2-.8-2.95C484.77,254.69,475,232,466,218.91c-2.06-3-4.26-5.89-6.55-8.72,5.27-2,9.82-5.7,11.79-12.19,7.21-23.69-25.32-71.16-56-92-12-8.11-30-17.2-48.08-14.51-1.38.21-2.68.47-3.89.77-13.05-5-27.1-7.16-41.07-5.33a76.35,76.35,0,0,0-18.43,4.89c-.61-.12-1.23-.23-1.87-.33-18.07-2.69-36.12,6.4-48.09,14.51-30.69,20.8-63.22,68.27-56,92,2.29,7.56,8.08,11.31,14.44,13.06-.09.21-.19.43-.27.64-.58.58-1.17,1.14-1.74,1.72a71.11,71.11,0,0,0-18.36,34c-1.89,8.09-2.48,18.7,1.32,26.7q-.93,4.44-1.77,8.91c-3.19,17.56-5.52,35.46-5,53.34a124.13,124.13,0,0,0,2.93,24.35,21.68,21.68,0,0,1-12.22-1.83,23.68,23.68,0,0,1-10.27-10.33,36.35,36.35,0,0,1-4-14.28A30.84,30.84,0,0,1,165,319.67l1.67-3.79-2.92,2.93a30.86,30.86,0,0,0-5.92,8.75,43.78,43.78,0,0,0-3.3,10,36.18,36.18,0,0,0,1.62,20.78,28.54,28.54,0,0,0,5.8,8.83,32.61,32.61,0,0,0,8.47,6.25,34.12,34.12,0,0,0,20.45,3.69,38.08,38.08,0,0,0,3.86-.73,63.27,63.27,0,0,0,3.75,6.85,52.62,52.62,0,0,0,21.1,19.2c.91.46,1.84.89,2.78,1.31a11.42,11.42,0,0,0,1.25.53l.49.2c-.49.15-1,.36-1.45.52-1.7.58-3.42,1.11-5.11,1.72-3.3,1.19-9.11,3.11-6.74,7.74,2.06,4,8.64,4.75,12.49,5.28a123.81,123.81,0,0,0,19.35.87c1.4,0,3.42.1,5.44,0a3.91,3.91,0,0,1-.43.94,4.48,4.48,0,0,1-.77.81,20.81,20.81,0,0,1-4.84,2.41,16.84,16.84,0,0,0-2.77,1.41,5.55,5.55,0,0,0-2.33,2.74,6.28,6.28,0,0,0,2,6.48,11.73,11.73,0,0,0,2.6,1.84,19.49,19.49,0,0,0,2.82,1.24,21.22,21.22,0,0,0,2.93.82,26.7,26.7,0,0,0,3,.45,49.12,49.12,0,0,0,11.81-.34,39.28,39.28,0,0,0,5.82-1.31,17.34,17.34,0,0,0,5.36-3,25.06,25.06,0,0,0,7.12-9.57,12.5,12.5,0,0,0,.55-1.41,12,12,0,0,0,.44-1.45c.27-1,.47-1.91.67-2.87s.4-2,.59-3.07l.32.07c22.75,4.9,46.19,7.78,69.48,6.66A158.18,158.18,0,0,0,384.12,419c2.24-.58,4.46-1.23,6.67-1.93a28.42,28.42,0,0,0,3.17,7.31,21.75,21.75,0,0,0,8.19,8c.44.21.88.45,1.34.62l.69.28.7.23c.94.3,1.84.5,2.77.71a50.13,50.13,0,0,0,5.58.86,46.31,46.31,0,0,0,11.33-.32A23.23,23.23,0,0,0,430.1,433a14.18,14.18,0,0,0,2.58-1.54,8.69,8.69,0,0,0,2.19-2.32,6.54,6.54,0,0,0,1-3.22,4.84,4.84,0,0,0-1.16-3.36,8,8,0,0,0-2.59-1.91,28.21,28.21,0,0,0-2.66-1.13,19.06,19.06,0,0,1-4.67-2.19,4.64,4.64,0,0,1-.78-.75,2,2,0,0,1-.42-.81,4.13,4.13,0,0,1-.1-.44l.86.08a141.4,141.4,0,0,0,21.19.06c5.56-.3,11.61-.37,17-1.79,4.09-1.08,2.59-5.49.27-8-3.66-4-9.54-4.72-14.51-6l-.47-.14c.33-.21.63-.44.78-.52Q450.74,397.77,452.79,396.45,7.4,15.15a139.56,139.56,0,0,1-19.05,1.56c-5.87.2-12.06.51-17.92-.35-.13-3.43,0-7,.26-10.46.23-3.66.52-7.31.86-11,.7-7.31,1.55-14.61,2.69-21.86.55-3.63,1.18-7.25,2-10.83.4-1.79.86-3.57,1.43-5.31a24.1,24.1,0,0,1,1-2.57,9.33,9.33,0,0,1,.64-1.21,5.14,5.14,0,0,1,.84-1.08q-.19.18-.39.39a3.28,3.28,0,0,0-.53.64,7.92,7.92,0,0,0-.72,1.18,24,24,0,0,0-1.15,2.53c-.66,1.72-1.21,3.49-1.71,5.27-1,3.56-1.81,7.16-2.55,10.78-1.42,7.24-2.53,14.54-3.4,21.87-.45,3.66-.83,7.33-1.11,11a108.58,108.58,0,0,0-.42,11.16c0,.48,0,1,.1,1.47a9.51,9.51,0,0,0,.27,1.53,4.59,4.59,0,0,0,.33.86,5.89,5.89,0,0,0,.5.76,6.57,6.57,0,0,0,1.19,1.17,21.14,21.14,0,0,0,5.26,2.55c1.67.65,3.38,1.34,4.25,2.37a2.16,2.16,0,0,1,.46.8,2.38,2.38,0,0,1,.12.94,4,4,0,0,1-.61,2,6.77,6.77,0,0,1-1.73,1.78,5.45,5.45,0,0,0-.23-3.53,6.6,6.6,0,0,0-2.73-3.23,9,9,0,0,0-1.92-.77,13.34,13.34,0,0,0-1.86-.42,15.43,15.43,0,0,0-3.81-.26,16,16,0,0,0,3.21,2.08c.54.29,1.16.53,1.64.78a16,16,0,0,1,1.48.69,8.65,8.65,0,0,1,2.32,2.06,11.21,11.21,0,0,1,1.72,3.09l-.23-.2a13,13,0,0,1-1.59.89,20.13,20.13,0,0,1-4.94,1.61,38.82,38.82,0,0,1-3.92.41,2.62,2.62,0,0,0,.64-1.21,3.6,3.6,0,0,0-.21-2.07,7.25,7.25,0,0,0-2.46-2.88A10.77,10.77,0,0,0,415,425a8.21,8.21,0,0,0-3.56-.36c.94.81,1.84,1.44,2.71,2.08l2.56,1.88a15.93,15.93,0,0,1,2.25,1.87,3.27,3.27,0,0,1,.68,1.14,2.54,2.54,0,0,1,.07,1.56h0l-.3-.31a51.85,51.85,0,0,1-6-.1,45.54,45.54,0,0,1-5.33-.74c-.86-.18-1.77-.37-2.59-.62l-.61-.18-.6-.23c-.4-.15-.78-.35-1.17-.53a20.35,20.35,0,0,1-7.56-7.11,26.78,26.78,0,0,1-2.44-4.73,30.8,30.8,0,0,1-1.5-5.15c-.75-3.54-1.07-7.22-1.68-10.88-.31-1.83-.72-3.63-1.09-5.43s-.76-3.61-1.25-5.4a31.41,31.41,0,0,0-2-5.17c-.77-1.67-1.5-3.36-2.22-5.06h0c.6,1.74,1.22,3.48,1.88,5.2a31.91,31.91,0,0,1,1.75,5.18c.39,1.78.67,3.6,1,5.42s.6,3.63.81,5.44c.46,3.62.66,7.31,1.29,11,.05.31.12.62.17.92q-3.93,1.26-7.94,2.24c-21.55,5.31-44.22,5.26-66.17,2.9a315.35,315.35,0,0,1-33-5.44,1.7,1.7,0,0,1,0-.22c.66-3.79,1.32-7.58,2.13-11.33a112.43,112.43,0,0,1,2.85-11.15c.56-1.83,1.24-3.63,2-5.41.39-.87.76-1.76,1.17-2.63l1.34-2.56a49.29,49.29,0,0,0-5.08,10.39,113.52,113.52,0,0,0-3.41,11.09c-.95,3.75-1.74,7.53-2.54,11.3-.4,1.88-.78,3.77-1.21,5.63-.22.92-.44,1.85-.7,2.74-.12.46-.28.88-.43,1.3a11.51,11.51,0,0,1-.54,1.27,25.12,25.12,0,0,1-2.87,4.75,20.33,20.33,0,0,1-3.83,3.92,15,15,0,0,1-4.73,2.53,37.08,37.08,0,0,1-5.47,1.14,48.54,48.54,0,0,1-8.69.42l-.3.31a2.61,2.61,0,0,1,.07-1.56,3.35,3.35,0,0,1,.69-1.14,15.38,15.38,0,0,1,2.25-1.87l2.56-1.88c.87-.64,1.77-1.28,2.7-2.08a8.07,8.07,0,0,0-3.56.36,10.86,10.86,0,0,0-3.17,1.64,7.25,7.25,0,0,0-2.45,2.89,3.44,3.44,0,0,0-.21,2.07,2.44,2.44,0,0,0,.63,1.2c-.58,0-1.17-.06-1.76-.11a21.28,21.28,0,0,1-2.71-.42,20.19,20.19,0,0,1-2.63-.75,15.57,15.57,0,0,1-2.46-1.09q-.45-.25-.87-.54l-.24.21a11.07,11.07,0,0,1,1.72-3.09,8.47,8.47,0,0,1,2.31-2.06c.4-.26,1-.44,1.48-.69s1.11-.49,1.65-.78a16,16,0,0,0,3.21-2.08,15.52,15.52,0,0,0-3.82.25,14.88,14.88,0,0,0-1.85.43,8.76,8.76,0,0,0-1.92.77,6.62,6.62,0,0,0-2.74,3.23,5.52,5.52,0,0,0-.23,3.51,8.54,8.54,0,0,1-.79-.65,5,5,0,0,1-1.32-1.88l-.15-.51a3.6,3.6,0,0,1-.07-.55,2.44,2.44,0,0,1,.12-.95c.37-1.16,2-2.05,3.75-2.76.87-.37,1.77-.73,2.69-1.16a11.85,11.85,0,0,0,2.73-1.64,6.24,6.24,0,0,0,1.2-1.3,4.92,4.92,0,0,0,.45-.81,3.83,3.83,0,0,0,.17-.43l.13-.38a14,14,0,0,0,.55-3.08c.15-2,.1-3.95.08-5.88s0-3.84,0-5.76c0-3.85,0-7.72-.07-11.58a136.93,136.93,0,0,0-2.14-23.11,56.9,56.9,0,0,0-3.33-11.14,29.71,29.71,0,0,0-2.8-5.1,18.48,18.48,0,0,0-4-4.21,18.46,18.46,0,0,1,3.67,4.41,30.51,30.51,0,0,1,2.5,5.14,56.43,56.43,0,0,1,2.76,11.11A149.87,149.87,0,0,1,249,395c0,3.84-.11,7.68-.17,11.53,0,1.93-.05,3.87-.06,5.8s0,3.85-.16,5.66v0c-1.1.05-2.22,0-3.24.06a152.3,152.3,0,0,1-17.49-.3c-3.1-.25-14-.56-15-4.78-.92-3.7,11.24-5.38,13.71-6.89,1.07-.65,1.92-1.43,1.08-2.69-.51-.77-2.13-1-2.87-1.31a53.66,53.66,0,0,1-7-3.46c-29.69-17.42-30.85-57.46-27.9-87.79.89-9.12,2.27-18.19,3.91-27.2.4-2.13.84-4.25,1.27-6.38.24.34.47.68.73,1,8.93,11,22.83,13,36.08,10.45,15.68-3.06,28.91-12.2,35.48-27.08.17-.38-.09-2.1-.26-1.73-5.34,11.83-15.6,20-27.91,23.72-11.64,3.51-25.2,5-35.89-1.79-4.29-2.73-8.23-6.37-10.12-11.17-3.28-8.31-2.17-17.46.46-25.77A72,72,0,0,1,211.73,215c8.9-9,19.15-16.63,26.84-26.74.27-.34-.07-1.79-.14-1.72-6.78,7.6-14.65,14.05-22.1,21a371.61,371.61,0,0,1,30.89-59.11c12.3-19.09,26.91-37.83,46.94-49.29A77.49,77.49,0,0,1,352,91.27c18.78,4.74,35.69,15.5,49.51,28.88,15.58,15.07,25.54,33.13,35.11,52.34q6.32,12.64,12.27,25.49c-4.46-4.91-9-9.74-13.36-14.69,0,0-.33,1.37-.06,1.73,7.17,9.45,15.54,17.92,23.06,27.09,7.94,9.7,14.4,20.1,18.42,32,4.38,13,4.57,28.19-7.4,37-10.07,7.37-22.18,6.93-33.9,4.18-13.94-3.26-25.83-11.49-31.82-24.77-.16-.35-.35,1.34-.18,1.74a46.06,46.06,0,0,0,28.79,25.41c12.81,3.87,26.82,4.45,37.83-4a25.79,25.79,0,0,0,7.37-8.87,234,234,0,0,1,7.21,37.79c1.84,18.56,0,38.06-8.63,54.83a70.25,70.25,0,0,1-17.73,22c-4,3.29-8.6,5.43-12.75,8.42-1,.7-2,1.43-1.29,2.75.54,1,2.24,1.25,3.21,1.49,2.43.62,4.9,1,7.28,1.84,2.62.88,5.65,2.17,7,4.74C463.39,411.29,463,411.1,460.19,411.6,180.61,375.44a32.84,32.84,0,0,1-9.51-3.34,31.2,31.2,0,0,1-8.08-6,27.16,27.16,0,0,1-5.45-8.38,34.52,34.52,0,0,1-1.45-19.87,42.71,42.71,0,0,1,3.13-9.63,34.81,34.81,0,0,1,2.94-5.1,35.37,35.37,0,0,0-.87,11.22,37.54,37.54,0,0,0,4.27,14.84,24.63,24.63,0,0,0,11,10.85,23,23,0,0,0,13.07,1.77,78.22,78.22,0,0,0,4.51,13.32c-1.13.25-2.28.46-3.44.6A33.74,33.74,0,0,1,180.61,375.44,33-223.37c11.17-17.51,26.69-34,41.51-44,17-11.52,30.56-14.56,40.15-14.56a40.82,40.82,0,0,1,4.13.2c-12,5.59-22.63,14-31.76,23.72-16.54,17.64-29.32,39.12-40.36,60.51q-7.8,15.1-14.19,30.86c-6.86-1.78-11.23-5.62-13-11.51C197,187,201.9,170.49,213.64,152.07,200.19-44c14.82,10,30.33,26.49,41.51,44,11.74,18.42,16.68,34.9,13.54,45.22-1.61,5.31-5.32,9-11.06,10.93q-1.74-2.1-3.52-4.14L453,201.17c-5.38-11.89-11.09-23.63-17-35.28-5-9.83-9.94-19.56-16.41-28.51-11.53-15.93-26.35-29.79-43.68-39.22q-4.2-2.28-8.6-4.18l.32,0C384.89,91.43,402.28,100.24,413.83,108.07Z"/><path d="M338.67,328.5c-23.56,2.27-47.86-6.38-63.87-23.94,0,0-.17.61,0,.77,16,17.76,40.23,26.78,63.93,24.71,24.15-2.11,46.52-15.4,61.49-34.21.22-.28-.08-1.36-.11-1.32C384.71,313,362.86,326.17,338.67,328.5Z"/><path d="M383.49,318.68C360.41,342.39,318,348.86,292,326.47c-.05,0-.23.82,0,1,25.9,22.51,69,17.29,91.63-7.56C383.8,319.67,383.54,318.62,383.49,318.68Z"/><path d="M364.32,339.39c-14.65,11.7-38.81,13.35-54.78,3.49-.1-.07-.27,1,0,1.14,16.06,9.91,40.28,8.73,54.92-3.37C364.66,340.45,364.41,339.31,364.32,339.39Z"/>            </clipPath>        </defs>        <g clip-path="url(#outline)">            <rect fill="#9287C6" width="640" height="480" />        </g>    </g>    <g id="pattern">        <g clip-path="url(#outline)">            <rect fill="#435055" opacity="0"  x="-0.83" y="-0.29" width="640" height="480"/>            <g opacity="0.6" ><path fill="#FFFFFF"  d="M286.26,416.16c.88-28.18,28-44.62,48.46-46.25,24-1.92,50.29,17.56,52.72,45.36.12,1.4-.12,1.26-1.55,2-5,2.54-10.59,3.24-16,4.06-11.74,1.78-24,2.07-35.88,2-15.95-.12-32.06-1.28-47.32-6.76"/></g>        </g>    </g>    <g id="mask">        <path fill="#2d2926"  d="M213.56,210.2a355,355,0,0,1,14.69-32.5c11-21.26,23.72-42.6,40.14-60.17,10.31-11,21.63-19.6,35.51-25.11-11-2.19-26.86-1.57-49.24,13.6-30.73,20.82-63.28,68.38-56,92.15C200.9,205.71,207.25,208.4,213.56,210.2Z"/><g opacity="0.1" ><path d="M485.51,334.54c.23,1.7-3.52,6.77-4.44,8.49-1.83,3.4-3.71,6.78-5.7,10.08a108.63,108.63,0,0,1-13.27,18.12A63,63,0,0,1,451,380.69a59.81,59.81,0,0,1-6.28,3.67,33.35,33.35,0,0,1-5.55,2.51c-4,1.16-6.17-2.21-7.35-5.52a39.48,39.48,0,0,1-2.34-17.54A119.55,119.55,0,0,1,432,349.39l-1.94,4.49c-3.08,11.13-4.6,22.56-6.05,34a4.58,4.58,0,0,0,.26,2.19,3.53,3.53,0,0,0-.88.73c-2.06,2.52-.69,11.1-.81,14.31a.64.64,0,0,0,.09.45c.16.19.46.14.69.07,8.49-2.29,16.42-3.94,24.1-8.21,9.5-5.3,18.46-12.14,24.87-20.77a61.25,61.25,0,0,0,7.68-15.13C483.16,352.82,486.78,343.7,485.51,334.54Z"/></g><g opacity="0.1" ><path d="M246.88,148.34a612.54,612.54,0,0,0-33.1,62.91c8.38-5.8,13.8-13.69,21.7-20.06a7.16,7.16,0,0,1,2.93-3.51c8.64-16.15,18.87-31.16,29.1-46.64,10.81-16.34,17.68-34.19,32.7-46.78C276.51,107.37,262.08,122.84,246.88,148.34Z"/></g><g opacity="0.1" ><path d="M250.25,399.07c0-.15,0-.29,0-.43-17.15-5.78-32.41-19.19-39.86-35.48-4-8.82-6.15-18.92-6.21-30.42a373.79,373.79,0,0,1,2.94-47.53c-5.46-2.15-10.27-5.44-12.89-10.91a.27.27,0,0,1-.08-.07c-2.08,11.46-3.53,23-4.49,34.65-2,24.3-2.64,58.64,14.54,78.45,10,11.56,21.68,18.57,39.46,20.83,2.16.27,4.37.57,6.6.88C249.76,405.73,250.31,402.49,250.25,399.07Z"/></g><g opacity="0.1" ><path d="M390.18,411.22c-.7-9.29-.91-9.28-.9-9.28-5.31,1.25-9.09,4.25-14.4,5.48a160.1,160.1,0,0,1-19.48,2.95c-22.09,2.28-44.5.82-66.38-2.85a29.78,29.78,0,0,1-1.73-13.09,100.57,100.57,0,0,0-4,15.41,33,33,0,0,1-.63,4.66c0,.15-.08.3-.12.44,1.1.25,3.19.5,4.25.75,14.95,5.54,32.83,6.73,48.08,6.86,15.71.13,34.8-1.09,45.13-4.91,2.87-1.06,9.14-1.62,10.5-3.05C391.71,413.32,390.3,412.83,390.18,411.22Z"/></g><g opacity="0.1" ><path fill="#fff"  d="M480.63,289.33q-1.54-8.4-3.58-16.68a19.76,19.76,0,0,1-8.87,11.21c2.5,11.55,4.49,23.21,6.07,34.92,1.4,10.34,4.07,22.69-2.47,31.88,4.28-6,9.86-10.61,11.34-14.66C488.39,321.62,483.31,303.82,480.63,289.33Z"/></g><path fill="#2d2926"  d="M376.41,99.41C393.86,109,408.2,123,419.73,139.13c6.56,9.19,10.9,18.71,15.95,28.77,5.92,11.76,11.19,22.71,16.58,34.72,1.24,2.76,4.58,4.42,5.79,7.19,6.09-1.85,10-4.78,12.24-12.11,7.23-23.77-25.09-70.54-55.82-91.36-23.6-16-40.32-15.9-51.21-13.22A107.1,107.1,0,0,1,376.41,99.41Z"/>        <g opacity="0.1" ><path fill="#fff"  d="M453.7,203.8c-11.28-27.21-25.53-53.08-44.83-75.49-16.21-18.84-29.22-25.15-29.44-25.34,6.06,5.3,10.42,13.69,14.49,20.5,13.25,22.2,26.95,45.74,44.62,65,4.78,5.2,10.2,9.29,14.09,15.33.63,1,1.23,2,1.81,3C453.38,204.15,454.78,206.41,453.7,203.8Z"/></g><g opacity="0.1" ><path fill="#fff"  d="M481.6,289.23c-1-5.6-3.2-11.06-4.55-16.58a19.71,19.71,0,0,1-8.87,11.2c2.5,11.56,4.49,23.21,6.07,34.93,1.4,10.33,4.07,22.69-2.47,31.88,4.28-6,9.86-10.61,11.34-14.66C488.39,321.61,484.27,303.72,481.6,289.23Z"/></g>    </g>    <g id="outline">        <path d="M452.79,396.45a74.64,74.64,0,0,0,11.24-8.8c13.41-12.74,20.76-30.16,23-48.33,2.74-21.85-1.67-43.92-7.23-65-.26-1-.53-2-.8-2.95C484.77,254.69,475,232,466,218.91c-2.06-3-4.26-5.89-6.55-8.72,5.27-2,9.82-5.7,11.79-12.19,7.21-23.69-25.32-71.16-56-92-12-8.11-30-17.2-48.08-14.51-1.38.21-2.68.47-3.89.77-13.05-5-27.1-7.16-41.07-5.33a76.35,76.35,0,0,0-18.43,4.89c-.61-.12-1.23-.23-1.87-.33-18.07-2.69-36.12,6.4-48.09,14.51-30.69,20.8-63.22,68.27-56,92,2.29,7.56,8.08,11.31,14.44,13.06-.09.21-.19.43-.27.64-.58.58-1.17,1.14-1.74,1.72a71.11,71.11,0,0,0-18.36,34c-1.89,8.09-2.48,18.7,1.32,26.7q-.93,4.44-1.77,8.91c-3.19,17.56-5.52,35.46-5,53.34a124.13,124.13,0,0,0,2.93,24.35,21.68,21.68,0,0,1-12.22-1.83,23.68,23.68,0,0,1-10.27-10.33,36.35,36.35,0,0,1-4-14.28A30.84,30.84,0,0,1,165,319.67l1.67-3.79-2.92,2.93a30.86,30.86,0,0,0-5.92,8.75,43.78,43.78,0,0,0-3.3,10,36.18,36.18,0,0,0,1.62,20.78,28.54,28.54,0,0,0,5.8,8.83,32.61,32.61,0,0,0,8.47,6.25,34.12,34.12,0,0,0,20.45,3.69,38.08,38.08,0,0,0,3.86-.73,63.27,63.27,0,0,0,3.75,6.85,52.62,52.62,0,0,0,21.1,19.2c.91.46,1.84.89,2.78,1.31a11.42,11.42,0,0,0,1.25.53l.49.2c-.49.15-1,.36-1.45.52-1.7.58-3.42,1.11-5.11,1.72-3.3,1.19-9.11,3.11-6.74,7.74,2.06,4,8.64,4.75,12.49,5.28a123.81,123.81,0,0,0,19.35.87c1.4,0,3.42.1,5.44,0a3.91,3.91,0,0,1-.43.94,4.48,4.48,0,0,1-.77.81,20.81,20.81,0,0,1-4.84,2.41,16.84,16.84,0,0,0-2.77,1.41,5.55,5.55,0,0,0-2.33,2.74,6.28,6.28,0,0,0,2,6.48,11.73,11.73,0,0,0,2.6,1.84,19.49,19.49,0,0,0,2.82,1.24,21.22,21.22,0,0,0,2.93.82,26.7,26.7,0,0,0,3,.45,49.12,49.12,0,0,0,11.81-.34,39.28,39.28,0,0,0,5.82-1.31,17.34,17.34,0,0,0,5.36-3,25.06,25.06,0,0,0,7.12-9.57,12.5,12.5,0,0,0,.55-1.41,12,12,0,0,0,.44-1.45c.27-1,.47-1.91.67-2.87s.4-2,.59-3.07l.32.07c22.75,4.9,46.19,7.78,69.48,6.66A158.18,158.18,0,0,0,384.12,419c2.24-.58,4.46-1.23,6.67-1.93a28.42,28.42,0,0,0,3.17,7.31,21.75,21.75,0,0,0,8.19,8c.44.21.88.45,1.34.62l.69.28.7.23c.94.3,1.84.5,2.77.71a50.13,50.13,0,0,0,5.58.86,46.31,46.31,0,0,0,11.33-.32A23.23,23.23,0,0,0,430.1,433a14.18,14.18,0,0,0,2.58-1.54,8.69,8.69,0,0,0,2.19-2.32,6.54,6.54,0,0,0,1-3.22,4.84,4.84,0,0,0-1.16-3.36,8,8,0,0,0-2.59-1.91,28.21,28.21,0,0,0-2.66-1.13,19.06,19.06,0,0,1-4.67-2.19,4.64,4.64,0,0,1-.78-.75,2,2,0,0,1-.42-.81,4.13,4.13,0,0,1-.1-.44l.86.08a141.4,141.4,0,0,0,21.19.06c5.56-.3,11.61-.37,17-1.79,4.09-1.08,2.59-5.49.27-8-3.66-4-9.54-4.72-14.51-6l-.47-.14c.33-.21.63-.44.78-.52Q450.74,397.77,452.79,396.45Zm7.4,15.15a139.56,139.56,0,0,1-19.05,1.56c-5.87.2-12.06.51-17.92-.35-.13-3.43,0-7,.26-10.46.23-3.66.52-7.31.86-11,.7-7.31,1.55-14.61,2.69-21.86.55-3.63,1.18-7.25,2-10.83.4-1.79.86-3.57,1.43-5.31a24.1,24.1,0,0,1,1-2.57,9.33,9.33,0,0,1,.64-1.21,5.14,5.14,0,0,1,.84-1.08q-.19.18-.39.39a3.28,3.28,0,0,0-.53.64,7.92,7.92,0,0,0-.72,1.18,24,24,0,0,0-1.15,2.53c-.66,1.72-1.21,3.49-1.71,5.27-1,3.56-1.81,7.16-2.55,10.78-1.42,7.24-2.53,14.54-3.4,21.87-.45,3.66-.83,7.33-1.11,11a108.58,108.58,0,0,0-.42,11.16c0,.48,0,1,.1,1.47a9.51,9.51,0,0,0,.27,1.53,4.59,4.59,0,0,0,.33.86,5.89,5.89,0,0,0,.5.76,6.57,6.57,0,0,0,1.19,1.17,21.14,21.14,0,0,0,5.26,2.55c1.67.65,3.38,1.34,4.25,2.37a2.16,2.16,0,0,1,.46.8,2.38,2.38,0,0,1,.12.94,4,4,0,0,1-.61,2,6.77,6.77,0,0,1-1.73,1.78,5.45,5.45,0,0,0-.23-3.53,6.6,6.6,0,0,0-2.73-3.23,9,9,0,0,0-1.92-.77,13.34,13.34,0,0,0-1.86-.42,15.43,15.43,0,0,0-3.81-.26,16,16,0,0,0,3.21,2.08c.54.29,1.16.53,1.64.78a16,16,0,0,1,1.48.69,8.65,8.65,0,0,1,2.32,2.06,11.21,11.21,0,0,1,1.72,3.09l-.23-.2a13,13,0,0,1-1.59.89,20.13,20.13,0,0,1-4.94,1.61,38.82,38.82,0,0,1-3.92.41,2.62,2.62,0,0,0,.64-1.21,3.6,3.6,0,0,0-.21-2.07,7.25,7.25,0,0,0-2.46-2.88A10.77,10.77,0,0,0,415,425a8.21,8.21,0,0,0-3.56-.36c.94.81,1.84,1.44,2.71,2.08l2.56,1.88a15.93,15.93,0,0,1,2.25,1.87,3.27,3.27,0,0,1,.68,1.14,2.54,2.54,0,0,1,.07,1.56h0l-.3-.31a51.85,51.85,0,0,1-6-.1,45.54,45.54,0,0,1-5.33-.74c-.86-.18-1.77-.37-2.59-.62l-.61-.18-.6-.23c-.4-.15-.78-.35-1.17-.53a20.35,20.35,0,0,1-7.56-7.11,26.78,26.78,0,0,1-2.44-4.73,30.8,30.8,0,0,1-1.5-5.15c-.75-3.54-1.07-7.22-1.68-10.88-.31-1.83-.72-3.63-1.09-5.43s-.76-3.61-1.25-5.4a31.41,31.41,0,0,0-2-5.17c-.77-1.67-1.5-3.36-2.22-5.06h0c.6,1.74,1.22,3.48,1.88,5.2a31.91,31.91,0,0,1,1.75,5.18c.39,1.78.67,3.6,1,5.42s.6,3.63.81,5.44c.46,3.62.66,7.31,1.29,11,.05.31.12.62.17.92q-3.93,1.26-7.94,2.24c-21.55,5.31-44.22,5.26-66.17,2.9a315.35,315.35,0,0,1-33-5.44,1.7,1.7,0,0,1,0-.22c.66-3.79,1.32-7.58,2.13-11.33a112.43,112.43,0,0,1,2.85-11.15c.56-1.83,1.24-3.63,2-5.41.39-.87.76-1.76,1.17-2.63l1.34-2.56a49.29,49.29,0,0,0-5.08,10.39,113.52,113.52,0,0,0-3.41,11.09c-.95,3.75-1.74,7.53-2.54,11.3-.4,1.88-.78,3.77-1.21,5.63-.22.92-.44,1.85-.7,2.74-.12.46-.28.88-.43,1.3a11.51,11.51,0,0,1-.54,1.27,25.12,25.12,0,0,1-2.87,4.75,20.33,20.33,0,0,1-3.83,3.92,15,15,0,0,1-4.73,2.53,37.08,37.08,0,0,1-5.47,1.14,48.54,48.54,0,0,1-8.69.42l-.3.31a2.61,2.61,0,0,1,.07-1.56,3.35,3.35,0,0,1,.69-1.14,15.38,15.38,0,0,1,2.25-1.87l2.56-1.88c.87-.64,1.77-1.28,2.7-2.08a8.07,8.07,0,0,0-3.56.36,10.86,10.86,0,0,0-3.17,1.64,7.25,7.25,0,0,0-2.45,2.89,3.44,3.44,0,0,0-.21,2.07,2.44,2.44,0,0,0,.63,1.2c-.58,0-1.17-.06-1.76-.11a21.28,21.28,0,0,1-2.71-.42,20.19,20.19,0,0,1-2.63-.75,15.57,15.57,0,0,1-2.46-1.09q-.45-.25-.87-.54l-.24.21a11.07,11.07,0,0,1,1.72-3.09,8.47,8.47,0,0,1,2.31-2.06c.4-.26,1-.44,1.48-.69s1.11-.49,1.65-.78a16,16,0,0,0,3.21-2.08,15.52,15.52,0,0,0-3.82.25,14.88,14.88,0,0,0-1.85.43,8.76,8.76,0,0,0-1.92.77,6.62,6.62,0,0,0-2.74,3.23,5.52,5.52,0,0,0-.23,3.51,8.54,8.54,0,0,1-.79-.65,5,5,0,0,1-1.32-1.88l-.15-.51a3.6,3.6,0,0,1-.07-.55,2.44,2.44,0,0,1,.12-.95c.37-1.16,2-2.05,3.75-2.76.87-.37,1.77-.73,2.69-1.16a11.85,11.85,0,0,0,2.73-1.64,6.24,6.24,0,0,0,1.2-1.3,4.92,4.92,0,0,0,.45-.81,3.83,3.83,0,0,0,.17-.43l.13-.38a14,14,0,0,0,.55-3.08c.15-2,.1-3.95.08-5.88s0-3.84,0-5.76c0-3.85,0-7.72-.07-11.58a136.93,136.93,0,0,0-2.14-23.11,56.9,56.9,0,0,0-3.33-11.14,29.71,29.71,0,0,0-2.8-5.1,18.48,18.48,0,0,0-4-4.21,18.46,18.46,0,0,1,3.67,4.41,30.51,30.51,0,0,1,2.5,5.14,56.43,56.43,0,0,1,2.76,11.11A149.87,149.87,0,0,1,249,395c0,3.84-.11,7.68-.17,11.53,0,1.93-.05,3.87-.06,5.8s0,3.85-.16,5.66v0c-1.1.05-2.22,0-3.24.06a152.3,152.3,0,0,1-17.49-.3c-3.1-.25-14-.56-15-4.78-.92-3.7,11.24-5.38,13.71-6.89,1.07-.65,1.92-1.43,1.08-2.69-.51-.77-2.13-1-2.87-1.31a53.66,53.66,0,0,1-7-3.46c-29.69-17.42-30.85-57.46-27.9-87.79.89-9.12,2.27-18.19,3.91-27.2.4-2.13.84-4.25,1.27-6.38.24.34.47.68.73,1,8.93,11,22.83,13,36.08,10.45,15.68-3.06,28.91-12.2,35.48-27.08.17-.38-.09-2.1-.26-1.73-5.34,11.83-15.6,20-27.91,23.72-11.64,3.51-25.2,5-35.89-1.79-4.29-2.73-8.23-6.37-10.12-11.17-3.28-8.31-2.17-17.46.46-25.77A72,72,0,0,1,211.73,215c8.9-9,19.15-16.63,26.84-26.74.27-.34-.07-1.79-.14-1.72-6.78,7.6-14.65,14.05-22.1,21a371.61,371.61,0,0,1,30.89-59.11c12.3-19.09,26.91-37.83,46.94-49.29A77.49,77.49,0,0,1,352,91.27c18.78,4.74,35.69,15.5,49.51,28.88,15.58,15.07,25.54,33.13,35.11,52.34q6.32,12.64,12.27,25.49c-4.46-4.91-9-9.74-13.36-14.69,0,0-.33,1.37-.06,1.73,7.17,9.45,15.54,17.92,23.06,27.09,7.94,9.7,14.4,20.1,18.42,32,4.38,13,4.57,28.19-7.4,37-10.07,7.37-22.18,6.93-33.9,4.18-13.94-3.26-25.83-11.49-31.82-24.77-.16-.35-.35,1.34-.18,1.74a46.06,46.06,0,0,0,28.79,25.41c12.81,3.87,26.82,4.45,37.83-4a25.79,25.79,0,0,0,7.37-8.87,234,234,0,0,1,7.21,37.79c1.84,18.56,0,38.06-8.63,54.83a70.25,70.25,0,0,1-17.73,22c-4,3.29-8.6,5.43-12.75,8.42-1,.7-2,1.43-1.29,2.75.54,1,2.24,1.25,3.21,1.49,2.43.62,4.9,1,7.28,1.84,2.62.88,5.65,2.17,7,4.74C463.39,411.29,463,411.1,460.19,411.6ZM180.61,375.44a32.84,32.84,0,0,1-9.51-3.34,31.2,31.2,0,0,1-8.08-6,27.16,27.16,0,0,1-5.45-8.38,34.52,34.52,0,0,1-1.45-19.87,42.71,42.71,0,0,1,3.13-9.63,34.81,34.81,0,0,1,2.94-5.1,35.37,35.37,0,0,0-.87,11.22,37.54,37.54,0,0,0,4.27,14.84,24.63,24.63,0,0,0,11,10.85,23,23,0,0,0,13.07,1.77,78.22,78.22,0,0,0,4.51,13.32c-1.13.25-2.28.46-3.44.6A33.74,33.74,0,0,1,180.61,375.44Zm33-223.37c11.17-17.51,26.69-34,41.51-44,17-11.52,30.56-14.56,40.15-14.56a40.82,40.82,0,0,1,4.13.2c-12,5.59-22.63,14-31.76,23.72-16.54,17.64-29.32,39.12-40.36,60.51q-7.8,15.1-14.19,30.86c-6.86-1.78-11.23-5.62-13-11.51C197,187,201.9,170.49,213.64,152.07Zm200.19-44c14.82,10,30.33,26.49,41.51,44,11.74,18.42,16.68,34.9,13.54,45.22-1.61,5.31-5.32,9-11.06,10.93q-1.74-2.1-3.52-4.14L453,201.17c-5.38-11.89-11.09-23.63-17-35.28-5-9.83-9.94-19.56-16.41-28.51-11.53-15.93-26.35-29.79-43.68-39.22q-4.2-2.28-8.6-4.18l.32,0C384.89,91.43,402.28,100.24,413.83,108.07Z"/><path d="M338.67,328.5c-23.56,2.27-47.86-6.38-63.87-23.94,0,0-.17.61,0,.77,16,17.76,40.23,26.78,63.93,24.71,24.15-2.11,46.52-15.4,61.49-34.21.22-.28-.08-1.36-.11-1.32C384.71,313,362.86,326.17,338.67,328.5Z"/><path d="M383.49,318.68C360.41,342.39,318,348.86,292,326.47c-.05,0-.23.82,0,1,25.9,22.51,69,17.29,91.63-7.56C383.8,319.67,383.54,318.62,383.49,318.68Z"/><path d="M364.32,339.39c-14.65,11.7-38.81,13.35-54.78,3.49-.1-.07-.27,1,0,1.14,16.06,9.91,40.28,8.73,54.92-3.37C364.66,340.45,364.41,339.31,364.32,339.39Z"/>    </g>    <g id="eye">        <g id="eye-color1">            <path fill="#9287C6"  d="M265.06,168.79l-16.27.91-.49.09c-1.94.33-4,.22-6,.44-3.86.44-7.72.71-11.59.91-1.93.09-3.71.53-5.65.58h-.18c2.22,3.46,4.15,6.83,6.91,9.83a47.38,47.38,0,0,0,10.41,8.15,36.87,36.87,0,0,0,11.85,4.55c4.17.82,8.6,1.64,12.84,1.22a56.61,56.61,0,0,0,6.33-1c2.08-.43,3.95-1.78,5.93-2.53a39.67,39.67,0,0,0,10.89-6.31c3.3-2.64,7.92-5.59,10-9.26,1.77-3,4.44-6.82,5.24-10.42l-20.39,1.2Z"/><path fill="#9287C6"  d="M290,125.25A44.34,44.34,0,0,0,269,117.17a47.18,47.18,0,0,0-22.17,2.63,38.24,38.24,0,0,0-9.75,5.36,35.5,35.5,0,0,0-7.64,8,32,32,0,0,0-4.63,10,52.14,52.14,0,0,0-1.67,11.08,48.58,48.58,0,0,0,.66,11.14,15.29,15.29,0,0,0,.71,2.53,3.79,3.79,0,0,0,.47.93h0c1.9,0,3.82-.11,5.73-.2,3.83-.18,7.5-.14,11.3-.49,1.9-.19,3.94-.66,5.81-.95l.7-.11.61-.13c.42-.09.88-.25,1.31-.36.89-.28,1.78-.58,2.68-.91,3.56-1.31,7.12-2.75,10.61-4.3,1.75-.78,3.76-1.27,5.47-2.11a35.62,35.62,0,0,0,4.59-2.51h.6l7.34-3.57,7.17-3.63,15.33-6.66h0A46.21,46.21,0,0,0,290,125.25Z"/><path fill="#9287C6"  d="M404.65,168.79l16.27.91.5.09c1.94.33,3.87-.42,5.8-.21,3.86.44,7.73.72,11.59.91,1.94.1,3.87,1.18,5.81,1.23h.18a70.33,70.33,0,0,1-7.4,9.78,44.91,44.91,0,0,1-9.92,8.2,36.93,36.93,0,0,1-11.86,4.55,46,46,0,0,1-13,1.07,56.6,56.6,0,0,1-6.29-1.18,37.67,37.67,0,0,1-5.78-2.18,39.38,39.38,0,0,1-10.89-6.31c-3.31-2.64-7.93-5.59-10-9.26-1.77-3-4.45-6.82-5.25-10.42l20.52,1.33Z"/><path fill="#9287C6"  d="M379.77,125.25a44.3,44.3,0,0,1,20.93-8.08,47.2,47.2,0,0,1,22.17,2.63,38.24,38.24,0,0,1,9.75,5.36,35.5,35.5,0,0,1,7.64,8,32.44,32.44,0,0,1,4.63,10,52.13,52.13,0,0,1,1.66,11.08,47.48,47.48,0,0,1-.66,11.14,15.3,15.3,0,0,1-.7,2.53,4.15,4.15,0,0,1-.48.93h0c-1.91,0-3.83-.11-5.74-.2-3.82-.18-7.49-.14-11.29-.49-1.9-.19-4-.66-5.81-.95l-.7-.11-.62-.13c-.41-.09-.87-.25-1.31-.36-.88-.28-1.78-.36-2.67-.69-3.57-1.31-6.92-2.22-10.42-3.77-1.74-.78-3.68-1.93-5.39-2.77s-3.42-1.26-4.84-2.27l-.3-.15-.32-.18-7-3.35-7.53-3.85-15.34-6.66h0A46.33,46.33,0,0,1,379.77,125.25Z"/>        </g>        <g id="eye-shape">            <path fill="none"  d="M265.06,168.79c-11.41.64-22.76,2.13-34.16,2.7q-2.9.15-5.8.23h-.18a70.27,70.27,0,0,0,7.39,9.78,44.73,44.73,0,0,0,9.93,8.2,36.87,36.87,0,0,0,11.85,4.55,43.94,43.94,0,0,0,12.7.48,56.61,56.61,0,0,0,6.33-1,39.8,39.8,0,0,0,17-8.1,33.06,33.06,0,0,0,8.16-9.47,53.41,53.41,0,0,0,4.24-9.78l-17.57,1.2Z"/><path fill="none"  d="M290,125.25A44.3,44.3,0,0,0,269,117.17a47.06,47.06,0,0,0-22.17,2.63,38.24,38.24,0,0,0-9.75,5.36,35.5,35.5,0,0,0-7.64,8,32,32,0,0,0-4.63,10,52.78,52.78,0,0,0-1.67,11.08,48.58,48.58,0,0,0,.66,11.14,15.29,15.29,0,0,0,.71,2.53,3.79,3.79,0,0,0,.47.93c1.93,0,3.85-.1,5.76-.19,5.86-.28,12-.34,17.69-1.65a86.07,86.07,0,0,0,15.33-5.6q2.63-1.17,5.19-2.43c4.15-2.11,8.18-4.29,12.46-6.14l7.52-3.25,15.33-6.66A46.21,46.21,0,0,0,290,125.25Zm-13.14,19c-2,1.22-4.1,2.33-6.16,3.5l-6.23,3.35-6.32,3.2-3.19,1.56c-1,.54-2.13,1.06-3.23,1.55a32.47,32.47,0,0,1-6.86,2.34,16.05,16.05,0,0,1-7.2,0c3.58.92,8.76-2.25,11.81-3.75q6.63-3.26,13.15-6.73c2.35-1.26,4.7-2.52,7.06-3.76a157.23,157.23,0,0,1,19.16-8.82C284.92,139.41,280.89,141.88,276.81,144.26Z"/><path fill="none"  d="M270,160.8h0c-1.73.91-3.46,1.78-5.21,2.61,1.75-.83,3.48-1.7,5.21-2.61Z"/><path fill="#fcfcfc"  d="M302.12,144l-12.35,6.3-7.42,3.78c-4.22,2.11-8.22,4.55-12.4,6.75h0c-1.73.91-3.46,1.78-5.21,2.61-3.51,1.66-7,3.25-10.68,4.64l-.1,0,10-1,17.54-1.67a12.21,12.21,0,0,1-.31-1.33,1.5,1.5,0,0,1-.07-.44,1.39,1.39,0,0,1,0-.46c.2-5,4.16-8.15,9.13-8.35h.12a3.76,3.76,0,0,1,1-.55l.08,0,.19-.08a1.32,1.32,0,0,1,1.4.32l2.26,1.67c.57.42,1.16.81,1.18,1.61,0,0,0,.1,0,.14a9.06,9.06,0,0,1,1.08,5.56c0,.17,0,.35-.07.52l6.14-.54a38.31,38.31,0,0,0-1.11-18.4C302.37,144.69,302.23,144.33,302.12,144Z"/><path d="M298,130.13a46.21,46.21,0,0,0-13.76-10.58c-11.32-6-26.37-6.39-38.31-2.16a42.81,42.81,0,0,0-10.53,5.55,36.51,36.51,0,0,0-4.53,3.91,38.57,38.57,0,0,0-3.84,4.62,34.54,34.54,0,0,0-5.12,10.85,55.69,55.69,0,0,0-1.74,11.73,50.44,50.44,0,0,0,.74,11.86,18.19,18.19,0,0,0,.85,3,7.15,7.15,0,0,0,.87,1.61,3.21,3.21,0,0,0,1,.9,2.34,2.34,0,0,0,.53.2c3.55,9,11.05,16.54,20,21.26.37.19.74.39,1.11.57l1.15.55.57.26.43.18c19.35,8.17,42.45.74,53.57-16.94,4.05-6.44,6.71-13.95,6.31-21.63C306.87,146.7,304,137.26,298,130.13Zm.47,46.24a44.31,44.31,0,0,1-13.76,12.7,42.72,42.72,0,0,1-20.94,6,43.72,43.72,0,0,1-38.61-23.24c26.05-1.91,52.62-3.81,78.67-5.72a38.81,38.81,0,0,1-3.12,6.77C300.05,174.07,299.3,175.24,298.5,176.37Zm5.08-12.92-6.14.54c0-.17.05-.35.07-.52a9.06,9.06,0,0,0-1.08-5.56,4.84,4.84,0,0,1-1.13,2.8c-1.64,1.87-4.54.92-5.73-1a3.68,3.68,0,0,1,.8-4.92h-.12c-5,.2-8.93,3.32-9.13,8.35a1.39,1.39,0,0,0,0,.46,1.5,1.5,0,0,0,.07.44,12.21,12.21,0,0,0,.31,1.33l-17.54,1.67-10,1,.1,0c3.65-1.39,7.17-3,10.68-4.64,1.75-.83,3.48-1.7,5.21-2.61h0c4.18-2.2,8.18-4.64,12.4-6.75l7.42-3.78,12.35-6.3c.11.36.25.72.35,1.08A38.31,38.31,0,0,1,303.58,163.45ZM289,149.52c-8.3,4-16.73,8.08-25.17,11.82a86.07,86.07,0,0,1-15.33,5.6c-5.74,1.31-11.83,1.37-17.69,1.65-1.91.09-3.83.16-5.76.19a3.79,3.79,0,0,1-.47-.93,15.29,15.29,0,0,1-.71-2.53,48.58,48.58,0,0,1-.66-11.14,52.78,52.78,0,0,1,1.67-11.08,32,32,0,0,1,4.63-10,35.5,35.5,0,0,1,7.64-8,38.24,38.24,0,0,1,9.75-5.36A47.06,47.06,0,0,1,269,117.17,44.3,44.3,0,0,1,290,125.25c6.16,4.47,9.78,10.46,13.1,17.41Z"/><path fill="#fff"  d="M295.26,156.16,293,154.49a1.32,1.32,0,0,0-1.4-.32l-.19.08-.08,0a3.76,3.76,0,0,0-1,.55,3.68,3.68,0,0,0-.8,4.92c1.19,1.88,4.09,2.83,5.73,1a4.84,4.84,0,0,0,1.13-2.8s0-.09,0-.14C296.42,157,295.83,156.58,295.26,156.16Z"/><path d="M262.58,149.26q-6.52,3.48-13.15,6.73c-3.05,1.5-8.23,4.67-11.81,3.75a16.05,16.05,0,0,0,7.2,0,32.47,32.47,0,0,0,6.86-2.34c1.1-.49,2.18-1,3.23-1.55l3.19-1.56,6.32-3.2,6.23-3.35c2.06-1.17,4.14-2.28,6.16-3.5,4.08-2.38,8.11-4.85,12-7.58a157.23,157.23,0,0,0-19.16,8.82C267.28,146.74,264.93,148,262.58,149.26Z"/><path fill="none"  d="M404.45,168.79c11.41.64,22.76,2.13,34.16,2.7,1.94.1,3.87.18,5.81.23h.18a70.33,70.33,0,0,1-7.4,9.78,44.91,44.91,0,0,1-9.92,8.2,36.93,36.93,0,0,1-11.86,4.55,43.91,43.91,0,0,1-12.7.48,57,57,0,0,1-6.33-1,39.85,39.85,0,0,1-16.95-8.1,32.9,32.9,0,0,1-8.16-9.47A53.41,53.41,0,0,1,367,166.4l17.57,1.2Z"/><path fill="none"  d="M365.23,142.86l15.34,6.66,7.51,3.25c4.28,1.85,8.32,4,12.46,6.14q2.56,1.26,5.19,2.43a86.17,86.17,0,0,0,15.34,5.6c5.73,1.31,11.83,1.37,17.68,1.65,1.91.09,3.83.16,5.76.19a4.15,4.15,0,0,0,.48-.93,15.3,15.3,0,0,0,.7-2.53,47.48,47.48,0,0,0,.66-11.14,52.13,52.13,0,0,0-1.66-11.08,32.44,32.44,0,0,0-4.63-10,35.5,35.5,0,0,0-7.64-8,38.24,38.24,0,0,0-9.75-5.36,47.07,47.07,0,0,0-22.17-2.63,44.3,44.3,0,0,0-20.93,8.08A46.33,46.33,0,0,0,365.23,142.86Zm15.49-6.18a157.79,157.79,0,0,1,19.15,8.82c2.37,1.24,4.72,2.5,7.07,3.76,4.35,2.32,8.72,4.56,13.15,6.73,3.05,1.5,8.23,4.67,11.81,3.75a16.05,16.05,0,0,1-7.2,0,32.75,32.75,0,0,1-6.87-2.34c-1.09-.49-2.18-1-3.23-1.55l-3.18-1.56-6.32-3.2-6.24-3.35c-2.05-1.17-4.13-2.28-6.15-3.5C388.63,141.88,384.6,139.41,380.72,136.68Z"/><path d="M362.18,155.9c-.4,7.68,2.26,15.19,6.31,21.63,11.12,17.68,34.22,25.11,53.57,16.94l.42-.18.58-.26,1.15-.55c.37-.18.74-.38,1.11-.57,8.95-4.72,16.46-12.22,20-21.26a2.54,2.54,0,0,0,.53-.2,3.21,3.21,0,0,0,1-.9,7.08,7.08,0,0,0,.86-1.61,19.26,19.26,0,0,0,.86-3,51,51,0,0,0,.74-11.86,55.69,55.69,0,0,0-1.74-11.73,34.76,34.76,0,0,0-5.12-10.85,39.54,39.54,0,0,0-3.84-4.62,36.6,36.6,0,0,0-4.54-3.91,42.46,42.46,0,0,0-10.53-5.55c-11.94-4.23-27-3.88-38.3,2.16a46.26,46.26,0,0,0-13.77,10.58C365.51,137.26,362.65,146.7,362.18,155.9Zm6.6,17a39.6,39.6,0,0,1-3.13-6.77c26.05,1.91,52.62,3.81,78.67,5.72a43.7,43.7,0,0,1-38.6,23.24,42.79,42.79,0,0,1-21-6A44.53,44.53,0,0,1,371,176.37C370.22,175.24,369.47,174.07,368.78,172.87ZM367,145.05c.11-.36.24-.72.36-1.08l12.35,6.3,7.41,3.78c4.23,2.11,8.23,4.55,12.4,6.75h0q2.58,1.37,5.21,2.61c3.5,1.66,7,3.25,10.68,4.64l.09,0-10-1L388,165.41a10.21,10.21,0,0,0,.3-1.33,1.91,1.91,0,0,0,.08-.44,1.72,1.72,0,0,0,0-.46c-.2-5-4.16-8.15-9.14-8.35h-.11a3.69,3.69,0,0,1,.8,4.92c-1.2,1.88-4.09,2.83-5.73,1a4.77,4.77,0,0,1-1.13-2.8,9,9,0,0,0-1.08,5.56c0,.17,0,.35.06.52l-6.13-.54A38.3,38.3,0,0,1,367,145.05Zm-.57-2.39c3.32-6.95,6.94-12.94,13.1-17.41a44.3,44.3,0,0,1,20.93-8.08,47.07,47.07,0,0,1,22.17,2.63,38.24,38.24,0,0,1,9.75,5.36,35.5,35.5,0,0,1,7.64,8,32.44,32.44,0,0,1,4.63,10,52.13,52.13,0,0,1,1.66,11.08,47.48,47.48,0,0,1-.66,11.14,15.3,15.3,0,0,1-.7,2.53,4.15,4.15,0,0,1-.48.93c-1.93,0-3.85-.1-5.76-.19-5.85-.28-11.95-.34-17.68-1.65a86.17,86.17,0,0,1-15.34-5.6c-8.43-3.74-16.86-7.78-25.16-11.82Z"/><path d="M406.94,149.26c4.35,2.32,8.72,4.56,13.15,6.73,3.05,1.5,8.23,4.67,11.81,3.75a16.05,16.05,0,0,1-7.2,0,32.75,32.75,0,0,1-6.87-2.34c-1.09-.49-2.18-1-3.23-1.55l-3.18-1.56-6.32-3.2-6.24-3.35c-2.05-1.17-4.13-2.28-6.15-3.5-4.08-2.38-8.11-4.85-12-7.58a157.79,157.79,0,0,1,19.15,8.82C402.24,146.74,404.59,148,406.94,149.26Z"/><path fill="none"  d="M404.37,169.08c11.42.64,22.77,2.13,34.16,2.7,1.94.1,3.87.18,5.81.23h.18a70.33,70.33,0,0,1-7.4,9.78,44.91,44.91,0,0,1-9.92,8.2,37,37,0,0,1-11.85,4.55,43.59,43.59,0,0,1-12.7.48,56.26,56.26,0,0,1-6.33-1,39.8,39.8,0,0,1-17-8.1,32.9,32.9,0,0,1-8.16-9.47,53.41,53.41,0,0,1-4.24-9.78l17.57,1.2Z"/><path fill="none"  d="M365.15,143.15l15.34,6.66,7.51,3.25c4.29,1.86,8.32,4,12.46,6.14,1.71.84,3.45,1.65,5.19,2.43a86.17,86.17,0,0,0,15.34,5.6c5.73,1.31,11.83,1.37,17.68,1.65,1.92.09,3.83.16,5.76.19a4.15,4.15,0,0,0,.48-.93,15.3,15.3,0,0,0,.7-2.53,47.48,47.48,0,0,0,.66-11.14,52.13,52.13,0,0,0-1.66-11.08,32.44,32.44,0,0,0-4.63-10,35.71,35.71,0,0,0-7.64-8,37.91,37.91,0,0,0-9.75-5.35,47.08,47.08,0,0,0-22.17-2.64,44.3,44.3,0,0,0-20.93,8.08A46.4,46.4,0,0,0,365.15,143.15ZM380.64,137a157.79,157.79,0,0,1,19.15,8.82c2.37,1.24,4.72,2.5,7.07,3.76q6.52,3.48,13.15,6.73c3.05,1.5,8.23,4.67,11.81,3.75a16.05,16.05,0,0,1-7.2,0,32.75,32.75,0,0,1-6.87-2.34c-1.09-.49-2.18-1-3.23-1.55l-3.18-1.56L405,151.4l-6.24-3.35c-2-1.17-4.13-2.28-6.15-3.5C388.55,142.17,384.52,139.7,380.64,137Z"/><path fill="none"  d="M399.48,161.09h0q2.58,1.36,5.21,2.61-2.62-1.24-5.21-2.61Z"/><path fill="#fcfcfc"  d="M367.32,144.26l12.35,6.3,7.41,3.78c4.23,2.11,8.23,4.55,12.4,6.75h0q2.58,1.36,5.21,2.61c3.5,1.66,7,3.25,10.68,4.64l.09,0-10-1L388,165.7a12.6,12.6,0,0,0,.31-1.32,1.63,1.63,0,0,0,.07-.45,1.72,1.72,0,0,0,0-.46c-.2-5-4.16-8.15-9.14-8.35h-.11a4,4,0,0,0-1-.55l-.07,0-.19-.08a1.31,1.31,0,0,0-1.4.32l-2.27,1.67c-.57.42-1.16.81-1.17,1.61,0,.05,0,.1,0,.14a9,9,0,0,0-1.08,5.56c0,.17,0,.35.06.52l-6.13-.53a38.33,38.33,0,0,1,1.1-18.41C367.07,145,367.2,144.62,367.32,144.26Z"/><path fill="#fff"  d="M374.17,156.45l2.27-1.67a1.31,1.31,0,0,1,1.4-.32l.19.08.07,0a4,4,0,0,1,1,.55,3.69,3.69,0,0,1,.8,4.92c-1.2,1.88-4.09,2.83-5.73,1a4.84,4.84,0,0,1-1.13-2.8s0-.09,0-.14C373,157.26,373.6,156.87,374.17,156.45Z"/><path d="M406.86,149.55q6.52,3.48,13.15,6.73c3.05,1.5,8.23,4.67,11.81,3.75a16.05,16.05,0,0,1-7.2,0,32.75,32.75,0,0,1-6.87-2.34c-1.09-.49-2.18-1-3.23-1.55l-3.18-1.56L405,151.4l-6.24-3.35c-2-1.17-4.13-2.28-6.15-3.5-4.08-2.38-8.11-4.85-12-7.58a157.79,157.79,0,0,1,19.15,8.82C402.16,147,404.51,148.29,406.86,149.55Z"/>        </g>        <g id="eye-color2">            <g opacity="0" ><path fill="#F7849F"  d="M292.91,147.82c-.14.46-.21.94-.36,1.41a15.55,15.55,0,0,1-1.35,2.86c-.52.94-1,1.9-1.54,2.83-.24.41-.49.8-.77,1.2-.14.21-.28.41-.43.61s-.45.47-.45.6c-.2.25-.39.5-.6.74-5.88,7.05-13.9,9.8-22.69,6.54-8.53-3.18-14.2-10.41-14.65-19.54a1.27,1.27,0,0,1,0-.28,2.66,2.66,0,0,1,0-.3,23.29,23.29,0,0,1,19.05-21.81A19,19,0,0,1,280.54,124c-15.3-7.7-34.36-2.93-39.3,15.33a20.54,20.54,0,0,0-.66,6.53,29.4,29.4,0,0,0,10.48,20.24c8.59,7.08,21.5,6.67,31,1.77,7.19-3.7,10-12.61,10.92-20.46C293,147.57,293,147.69,292.91,147.82Z"/></g><g opacity="0" ><path fill="#F7849F"  d="M416.66,141.76c-.23.62-.44,1.25-.69,1.86a26.23,26.23,0,0,1-2,3.66,31.67,31.67,0,0,1-2.54,3.43c-5.88,7-13.91,9.8-22.69,6.54-8.54-3.18-14.21-10.41-14.66-19.54a2.46,2.46,0,0,1,0-.28,1.45,1.45,0,0,1,0-.3,23.28,23.28,0,0,1,19-21.81,19,19,0,0,1,11.42,1.35c-15.3-7.7-34.36-2.93-39.3,15.33a21.13,21.13,0,0,0-.66,6.53,29.44,29.44,0,0,0,10.48,20.24c8.59,7.08,21.5,6.67,31,1.77,6.91-3.55,9.73-12,10.78-19.66C416.83,141.13,416.76,141.51,416.66,141.76Z"/></g>        </g>    </g>    <g id="nose-mouth">        <path fill="#ecc98e"  d="M377.12,230.72c-1.23-8.8-11.21-15.68-44.66-15.18-37.64.57-50.92,13.2-50.11,26.48s-.74,81.65,53.83,79.11S380.06,251.68,377.12,230.72Z"/><path d="M366.09,252.67a25.42,25.42,0,0,0-5.73-4.45,41,41,0,0,0-13.55-4.69,61.75,61.75,0,0,0-11-.81l-1.15-6.05c.87-.09,1.73-.2,2.57-.32,11.72-1.71,33.08-8.88,32.1-16.49-1.09-8.55-18.79-9.56-29.23-9.39-19.61.32-48.43,5.56-49.27,14.23a6.51,6.51,0,0,0,2.29,5.45c5,4.8,17.91,7.13,30.63,7.13,2.67,0,5.32-.12,7.91-.32l1.12,5.86h-.18a107.45,107.45,0,0,0-14.05,1.66,69.67,69.67,0,0,0-6.91,1.71c-1.14.32-2.26.75-3.39,1.14s-2.22.9-3.29,1.47a32.59,32.59,0,0,0-3.15,1.78,21.6,21.6,0,0,0-2.87,2.28,16.8,16.8,0,0,0-4.07,6.05,15.69,15.69,0,0,0-.94,7.13,16.57,16.57,0,0,0,2.19,6.68,17.71,17.71,0,0,1-1.37-6.73,15,15,0,0,1,1.47-6.5c1.91-4.08,5.58-6.85,9.73-8.58A57.77,57.77,0,0,1,319,247.27a114.07,114.07,0,0,1,13.69-1.45,63.2,63.2,0,0,1,13.62.52,41,41,0,0,1,12.88,3.93c3.94,2,7.53,5,9.45,9.09a17.59,17.59,0,0,1,1.76,6.49,26.79,26.79,0,0,1-.45,6.9,23.73,23.73,0,0,0,1.28-6.92,18.27,18.27,0,0,0-1.24-7.06A18.71,18.71,0,0,0,366.09,252.67Z"/><path fill="#724331"  d="M311,222.79c6.19-.38,13.55,10.05,14.54,11.5a90.94,90.94,0,0,0,11.24-.91c1.55-.22,3.1-.51,4.65-.84,1.06-2,6.52-12,11.31-12.88,5.51-1,6.1,4.33,3.84,8,6-2.66,10-5.55,9.76-7.42-.56-4.35-10.83-7-26.22-6.77-24,.38-45.86,6.76-46.32,11.52a3.62,3.62,0,0,0,1.37,3c2.24,2.13,6.73,3.81,12.37,4.91C306.26,230.85,304.67,223.17,311,222.79Z"/><path fill="#512c20"  d="M352.74,219.38c-4.79.91-10.25,10.86-11.31,12.87a1.12,1.12,0,0,0-.13.32,91.55,91.55,0,0,0,15.33-4.94c.09-.12.16-.26.24-.38C359.13,223.57,358.25,218.33,352.74,219.38Z"/><path fill="#512c20"  d="M325.54,234.05c-1-1.45-8.35-11.88-14.54-11.5s-4.93,8-3.65,10a2.43,2.43,0,0,0,.19.29,95,95,0,0,0,18.15,1.39S325.62,234.16,325.54,234.05Z"/>    </g></svg>