<!--  ~ Copyright (C) 2018 Baidu, Inc. All Rights Reserved.  --><svg viewBox="0 0 640 480" xmlns="http://www.w3.org/2000/svg">    <g id="back-ground-cl">        <rect fill="none" width="640" height="480" />        <ellipse opacity="0.1" cx="331.93" cy="418.82" rx="168.39" ry="32.01"/>    </g>    <g id="body">        <defs>            <clipPath id="outline">                <path fill="none"  d="M191,368c-11.84.35-48.23-1.43-56.94-35.55-3.59-14.05-1-26.83,7.4-36a43.12,43.12,0,0,1,11-8.54,23.34,23.34,0,0,1,4.22-1.61c2.44-.76,5-1.54,6-3.12a2.72,2.72,0,0,0,.26-3.11,3.39,3.39,0,0,0-3.53-1.12c-3.45.69-18.15,6.23-27.13,20.69-7,11.26-8.43,24.78-4.3,40.18,11.41,42.5,51,44.33,70.56,43.84-.14-.22-.29-.43-.43-.64A72.87,72.87,0,0,1,191,368Z"/><path fill="none"  d="M436.24,173.1c-9.43-18.92-19.18-36.8-34.42-51.77a132.89,132.89,0,0,0-14.69-12.47,12.73,12.73,0,0,1-3.58.26h.08c.42-.09.82-.2,1.22-.32a23.46,23.46,0,0,0,2.46-.93,30,30,0,0,0,3.45-1.85c1.11-.68,2.15-1.46,3.18-2.24l.29-.23-1.3-.09c-.8-.09-1.6-.18-2.39-.33s-1.57-.28-2.35-.46a42.55,42.55,0,0,1-9-3.17A45.47,45.47,0,0,1,375,97.17c-.67-.43-1.35-.83-2-1.28s-1.28-.93-1.9-1.41a45.65,45.65,0,0,1-3.6-3c-1.14-1.08-2.19-2.25-3.23-3.41,1.34.83,2.61,1.71,3.91,2.54l2,1.2c.65.42,1.3.81,2,1.17s1.34.73,2,1.11,1.36.68,2,1c1.35.69,2.74,1.28,4.12,1.9q2.38.94,4.81,1.72c.8,0,1.61,0,2.4-.14a26.31,26.31,0,0,0,4-.68,22.67,22.67,0,0,0,3.79-1.23,20.42,20.42,0,0,0,6.38-4.43,19.19,19.19,0,0,0,2.4-3c.18-.28.36-.58.53-.89l-.22,0c-1.07.19-2.16.31-3.23.47S399,89,397.88,89s-2.19,0-3.29-.19A18.24,18.24,0,0,1,388.25,87c-.48-.24-.93-.54-1.39-.81l0,0-.6-.44-.48.13h0c.16,0,.31-.1.47-.15a5.3,5.3,0,0,1-.67-.57,7.88,7.88,0,0,1-2-2.55,8.91,8.91,0,0,0,2.41,2c.42.29.92.46,1.36.71l.08,0a32.06,32.06,0,0,0,7-3.42,23,23,0,0,0,3.7-3,20.9,20.9,0,0,0,3-3.64,23.07,23.07,0,0,0,3.41-8.69,27.82,27.82,0,0,0,.27-7.67l-2.46,2.65c-1.26,1.25-2.6,2.43-3.9,3.65-.69.57-1.41,1.11-2.12,1.66a22.31,22.31,0,0,1-2.16,1.6l-2.29,1.45a9.15,9.15,0,0,1-1.19.65l-1.23.6a27.62,27.62,0,0,1-10.53,2.79,48.12,48.12,0,0,1-10.77-.82,101.77,101.77,0,0,0-10.31-1.45,31.46,31.46,0,0,0-10.05.83,36.28,36.28,0,0,0-9.35,3.84,38.31,38.31,0,0,0-4.23,2.81,31.83,31.83,0,0,0-3.75,3.32l-1.52,1.59L328,82a25.25,25.25,0,0,0-3.23-5.15c-.31-.41-.64-.81-1-1.19s-.68-.78-1-1.15a30,30,0,0,0-2.28-2.09,30.6,30.6,0,0,0-10.83-5.86,36,36,0,0,0-12.37-1.52,27.86,27.86,0,0,0-12,2.74,37.68,37.68,0,0,0-10,7.49c-3,3-5.8,6.34-8.93,9.45a36.24,36.24,0,0,1-10.75,7.9,26.3,26.3,0,0,1-6.49,1.91,29.81,29.81,0,0,1-5.5.24A15.87,15.87,0,0,0,245.4,99a16.9,16.9,0,0,0,3.81,4.36A21.47,21.47,0,0,0,260,107.74a41.79,41.79,0,0,0,12-.26c1-.16,2.07-.34,3.1-.55,2.33-.55,4.23-1.14,5.47-1.56l.7-.25c.8-.9,1.6-1.8,2.44-2.69a39.73,39.73,0,0,1,5-4.49,23.23,23.23,0,0,1,6-3.22,36.16,36.16,0,0,1,6.49-1.66,49.49,49.49,0,0,1,13.14-.31,72.33,72.33,0,0,0-12.79,2,41.62,41.62,0,0,0-6,2.07,22.93,22.93,0,0,0-5.27,3.21c-3.3,2.61-5.82,6-8.84,9.28a21.74,21.74,0,0,1-5.33,4.43c-.33.18-.66.33-1,.5.74,0,1.5,0,2.25,0a40.19,40.19,0,0,0,8-1,63.37,63.37,0,0,0,7.86-2.19l3.86-1.45c1.26-.56,2.54-1.08,3.82-1.61-1.17.73-2.34,1.49-3.53,2.21l-1.07.57c-.87.47-1.74.94-2.62,1.38a52.27,52.27,0,0,1-7.83,3,39.8,39.8,0,0,1-8.36,1.56,29.82,29.82,0,0,1-4.33,0l-.89-.09c-10,10-18.33,21.74-25.87,33.56a377.49,377.49,0,0,0-52.42,133.53c-1.65,9-3,18.11-3.92,27.25-2.94,30.42-1.68,70.59,28.43,87.67,2.13,1.21,13,3.79,8.39,7.39-2.4,1.85-14.49,3-13.86,6.68.69,4.07,12.39,4.42,15.14,4.63a154.25,154.25,0,0,0,17.6.25c.53,0,1.45,0,2.42,0,0-.45.07-.92.09-1.4.11-3.78.06-7.78.17-11.66s.13-7.77.11-11.66a160.11,160.11,0,0,0-1.56-23.17,59.61,59.61,0,0,0-2.71-11.26,32,32,0,0,0-2.44-5.24,18,18,0,0,0-3.64-4.51c3.16,2.36,5.26,5.88,6.82,9.46a61.73,61.73,0,0,1,3.41,11.29A143.66,143.66,0,0,1,251,392.89c.14,3.91.19,7.82.18,11.73s.08,7.72,0,11.73a22.49,22.49,0,0,1-.26,3.11,13,13,0,0,1-.37,1.59,6.14,6.14,0,0,1-.77,1.72,8.05,8.05,0,0,1-2.66,2.36,25.27,25.27,0,0,1-2.81,1.33c-.91.39-1.79.74-2.58,1.14a6.21,6.21,0,0,0-1.9,1.33,2,2,0,0,0-.5,1.62,3.58,3.58,0,0,0,.78,1.91,6.46,6.46,0,0,0,1.07,1.09,5.57,5.57,0,0,1,.23-3.12,6.62,6.62,0,0,1,2.79-3.36,8.46,8.46,0,0,1,2-.77,12.35,12.35,0,0,1,1.88-.39,13.57,13.57,0,0,1,3.88-.05,13.47,13.47,0,0,1-3.14,2.29c-1.12.61-2.2,1.06-3,1.5a9.24,9.24,0,0,0-2.27,1.92,12.46,12.46,0,0,0-1.91,3l.46-.38a14.2,14.2,0,0,0,2.19,1.15,20.7,20.7,0,0,0,5.23,1.43c.81.1,1.63.17,2.45.22a2.79,2.79,0,0,1-.44-.92,3.59,3.59,0,0,1,.16-2.17,7.13,7.13,0,0,1,2.47-3,10.06,10.06,0,0,1,3.24-1.62,7.37,7.37,0,0,1,3.65-.16,29.86,29.86,0,0,1-2.6,2.28c-.85.66-1.67,1.29-2.49,1.9a23.91,23.91,0,0,0-2.23,1.75,3.42,3.42,0,0,0-.73,1,2.56,2.56,0,0,0-.21,1.56l.56-.58a49.16,49.16,0,0,0,7.48-.29,42,42,0,0,0,5.57-1,15.12,15.12,0,0,0,4.83-2.26,23.24,23.24,0,0,0,7-8.46c.22-.41.4-.85.6-1.27l.46-1.26c.26-.9.52-1.8.74-2.75.45-1.86.84-3.77,1.25-5.68.82-3.81,1.64-7.64,2.61-11.43a116.56,116.56,0,0,1,3.48-11.23,48.6,48.6,0,0,1,5.2-10.49c-3.76,6.86-5.7,14.46-7.25,22-.76,3.65-1.4,7.33-2,11a314.62,314.62,0,0,0,33.11,5.43c21.48,2.28,43.63,2.35,64.74-2.68a86,86,0,0,0,8.74-2.61c-.67-3.65-.88-7.29-1.29-10.87-.18-1.87-.49-3.72-.78-5.6s-.57-3.75-1-5.59a28.28,28.28,0,0,0-1.73-5.35c-.67-1.78-1.29-3.58-1.9-5.37.75,1.74,1.51,3.48,2.32,5.19a28.16,28.16,0,0,1,2.09,5.35c.49,1.85.88,3.7,1.29,5.56s.82,3.72,1.12,5.61c.61,3.78,1,7.55,1.83,11.15a27,27,0,0,0,4.48,9.9,18.52,18.52,0,0,0,8.2,6.54c.4.16.83.25,1.24.39l1.33.32c.9.2,1.8.36,2.71.5a48.25,48.25,0,0,0,5.5.51c1.22,0,2.43,0,3.65,0l.55.56a2.47,2.47,0,0,0-.21-1.55,3.25,3.25,0,0,0-.73-1,23.32,23.32,0,0,0-2.22-1.75c-.83-.61-1.65-1.24-2.49-1.91a28.12,28.12,0,0,1-2.61-2.27,7.41,7.41,0,0,1,3.66.16,9.91,9.91,0,0,1,3.23,1.62,7.1,7.1,0,0,1,2.48,3,3.62,3.62,0,0,1,.15,2.18,2.68,2.68,0,0,1-.45.93l.5,0a23,23,0,0,0,5.28-.93,16.53,16.53,0,0,0,4.11-1.87l.45.39a12.46,12.46,0,0,0-1.91-3,9.39,9.39,0,0,0-2.26-1.92c-.84-.44-1.93-.89-3.05-1.5a13.63,13.63,0,0,1-3.13-2.29,13.58,13.58,0,0,1,3.88,0,12.49,12.49,0,0,1,1.87.39,8.53,8.53,0,0,1,2,.77,6.6,6.6,0,0,1,2.78,3.36,5.49,5.49,0,0,1,.23,3.15,6.09,6.09,0,0,0,1.29-1.42,3.53,3.53,0,0,0,.57-1.91,2.15,2.15,0,0,0-.57-1.58,6.25,6.25,0,0,0-1.87-1.28c-1.54-.76-3.37-1.31-5.22-2.17a11.09,11.09,0,0,1-2.77-1.74,6.72,6.72,0,0,1-1.18-1.43,5.35,5.35,0,0,1-.63-1.82c-.3-2-.52-3.82-.72-5.75a116,116,0,0,1,0-23,111.34,111.34,0,0,1,1.7-11.35c.39-1.87.82-3.73,1.25-5.57s.85-3.71,1.34-5.55A60.19,60.19,0,0,1,428,353.53a23.63,23.63,0,0,1,7-8.94,25,25,0,0,0-6.29,9.26,59.33,59.33,0,0,0-3.13,10.82c-.75,3.68-1.46,7.45-2.09,11.14s-1,7.45-1.3,11.2a122.24,122.24,0,0,0,.54,22.47c.12,1,.25,2,.39,3,5.44.88,11.39.46,16.78.3A157.3,157.3,0,0,0,459,411.34c2.35-.37,3.94,0,2.57-2.3-1.6-2.7-4-4-6.92-5-2.42-.82-9.31-1-10.72-3.45-.76-1.34.09-2.05,1-2.94,1.35-1.35,4-2.21,5.61-3.24q3-1.89,5.8-4.05a69.52,69.52,0,0,0,18.79-22.2c9-16.7,10.94-36.3,9.17-54.93C482,289.49,475,265.89,467,243.54,458.39,219.39,447.67,196,436.24,173.1,-123.14-93c-.94-.49-1.93-.89-2.88-1.34s-2-.79-3-1.07a16.64,16.64,0,0,0-6.15-.83,8.49,8.49,0,0,0-5.36,2.61,62.22,62.22,0,0,0-4.31,4.68,47.94,47.94,0,0,1-4.51,4.62A16.8,16.8,0,0,1,281.36,92a17.8,17.8,0,0,0,5.22-3.61,46.9,46.9,0,0,0,4.25-4.75,47.71,47.71,0,0,1,4.29-4.85,13.12,13.12,0,0,1,2.65-2,10.4,10.4,0,0,1,1.57-.66,7.66,7.66,0,0,1,1.68-.28,17.12,17.12,0,0,1,6.49,1,30.53,30.53,0,0,1,5.94,2.59,54.79,54.79,0,0,1,10.46,7.5c-1.71-1.29-3.46-2.51-5.27-3.65A55.34,55.34,0,0,0,313.1,80.11,318.23,96c-2.64.91-5.29,1.74-8,2.57l-4,1.21a22.16,22.16,0,0,0-3.81,1.45A27.57,27.57,0,0,0,299,103.4a10.31,10.31,0,0,1-3.82,1.72,12.34,12.34,0,0,0,1.87-.89,15.06,15.06,0,0,0,1.66-1.22,26.58,26.58,0,0,1,3.4-2.5A18.56,18.56,0,0,1,306,98.82l4-1.25c2.66-.81,5.32-1.62,8-2.36s5.37-1.47,8.09-2.09C323.49,94.13,320.86,95.05,318.23,96,33.31,3a15.19,15.19,0,0,0-2-1.52,12.48,12.48,0,0,0-4.51-1.9,15.31,15.31,0,0,0-4.92-.26,22,22,0,0,0-4.94,1.1A14,14,0,0,1,340,94.52a13.26,13.26,0,0,1,5.25,0,13.08,13.08,0,0,1,2.52.84A12.07,12.07,0,0,1,350,96.82a11.51,11.51,0,0,1,1.88,1.81,7.76,7.76,0,0,1,.77,1c.25.36.48.72.71,1.08C352.72,100.17,352.2,99.5,351.54,99,349,81.81a26.52,26.52,0,0,0-5.24,2.09A31,31,0,0,0,339,87.05a34.42,34.42,0,0,0-4.22,3.88,29.89,29.89,0,0,1,8.59-7.7,21,21,0,0,1,11.21-3c2,.08,3.85.37,5.77.59s3.82.5,5.71.8c3.76.56,7.66,1,11.27-.5a13.43,13.43,0,0,1-5.57,1.53,38.47,38.47,0,0,1-5.79-.27c-3.82-.39-7.64-1-11.43-1.15A18.08,18.08,0,0,0,349,81.81Z"/><path fill="none"  d="M199.68,246.9a379.41,379.41,0,0,1,27.52-69.12c11-21.27,23.71-42.61,40.14-60.17.52-.57,1.06-1.11,1.6-1.66l-.14,0-4.73-1.8,5-.94a19.08,19.08,0,0,0,3.77-1.12q3.25-3.08,6.72-5.86a68.07,68.07,0,0,1-7.44,1.88,43,43,0,0,1-12.25.75,27.74,27.74,0,0,1-3.7-.62q-5.34,1.86-10.58,4C205,129,181.13,172.4,166.75,203.63c-8.61,18.69-7.78,57.57,11,73,3.91,3.2,9.9.63,15.38-3.34Q195.93,260,199.68,246.9Z"/><path fill="none"  d="M495.35,201c-1.69-2.39-3.28-4.64-4.76-6.94-5-7.8-10.39-15.59-15.56-23.13-5.54-8.05-11.26-16.38-16.62-24.77-11.64-18.21-22.74-33.93-40.69-41.87a126.75,126.75,0,0,0-19-6.46A25.38,25.38,0,0,1,396.21,99a24.93,24.93,0,0,1-5.81,1.1l.65.13c.74.15,1.47.25,2.21.35a27.44,27.44,0,0,0,4.36.33l3.89-.08-2.93,2.35a39.54,39.54,0,0,1-3.38,2.38,26.61,26.61,0,0,1-3.67,1.91c-.26.12-.54.2-.81.31a139.54,139.54,0,0,1,29.43,30.44c6.56,9.19,11.57,19.21,16.63,29.27,5.92,11.76,11.65,23.61,17.05,35.62a486.45,486.45,0,0,1,23.1,61c5.16,4.75,11.15,9.13,15.65,9.32a5,5,0,0,0,4.07-1.58c8.62-9,13.47-37.37,10.25-49.76C505,214.61,500.07,207.71,495.35,201Z"/><path d="M509.8,221.33c-2.08-8-7.12-15.14-12-22-1.67-2.35-3.24-4.58-4.69-6.82-5.06-7.84-10.42-15.65-15.61-23.21-5.52-8-11.23-16.34-16.56-24.68-11.47-18-23.31-34.74-42-43a132.21,132.21,0,0,0-16.81-5.85,17.45,17.45,0,0,0,1.64-1.46,22.19,22.19,0,0,0,2.85-3.48,19.72,19.72,0,0,0,2-4.16l.82-2.48-2.6.66c-1,.25-2,.48-3,.75s-2,.4-3,.61-2,.25-3,.39a28.07,28.07,0,0,1-3,.1,19.2,19.2,0,0,1-6-.87c-.42-.12-.81-.29-1.21-.44a31.9,31.9,0,0,0,7.14-3.06,23.29,23.29,0,0,0,3.9-2.89,22,22,0,0,0,3.25-3.64,24.36,24.36,0,0,0,3.92-9,27.76,27.76,0,0,0,.4-9.84l-.23-1.54-1.14,1.17-3.65,3.73c-1.26,1.2-2.59,2.31-3.88,3.47-.68.53-1.38,1-2.07,1.55a22.17,22.17,0,0,1-2.11,1.48l-2.21,1.32a6.69,6.69,0,0,1-1.13.58l-1.16.53a25.21,25.21,0,0,1-9.78,2.35,48.1,48.1,0,0,1-10.21-1C365.14,70,361.64,69.26,358,69a34.54,34.54,0,0,0-10.9.78A37.45,37.45,0,0,0,337,73.82a42.26,42.26,0,0,0-4.56,3c-.92.7-1.8,1.43-2.66,2.21a29.83,29.83,0,0,0-2.67-4A15,15,0,0,0,326,73.74c-.38-.42-.74-.86-1.14-1.27-.83-.77-1.59-1.62-2.49-2.31a33.21,33.21,0,0,0-11.9-6.4,39.18,39.18,0,0,0-13.33-1.59l-1.68,0-1.69.18a16.21,16.21,0,0,0-1.68.25c-.56.11-1.12.19-1.67.33A30.34,30.34,0,0,0,284,65.3a40.34,40.34,0,0,0-10.65,8.14c-3.08,3.16-5.85,6.52-8.79,9.61a33.85,33.85,0,0,1-9.9,7.67,24,24,0,0,1-5.92,1.89,30.4,30.4,0,0,1-6.26.33l-1.16,0,.19,1.08a15.14,15.14,0,0,0,1,3.12A17.61,17.61,0,0,0,244,99.91a18.53,18.53,0,0,0,4.29,4.67,19,19,0,0,0,3.42,2.06c-2.42.88-4.82,1.8-7.2,2.78-41.65,17.16-65.87,61.27-80.47,93-4.72,10.26-6.62,25.55-5,39.91,1.89,16.29,7.85,29.31,16.78,36.64a9.31,9.31,0,0,0,6.09,2.15c3.35,0,6.94-1.51,10.32-3.61-.37,1.83-.72,3.66-1.07,5.49-4.63,25.51-9,56.07-1.13,82.07-12,.23-45.09-2-53.07-33.32-3.33-13-.95-24.84,6.7-33.22A40.42,40.42,0,0,1,154,290.56a20.06,20.06,0,0,1,3.65-1.37c2.82-.88,6-1.87,7.62-4.36a5.68,5.68,0,0,0,.23-6.43,6.37,6.37,0,0,0-6.6-2.37c-5.74,1.15-20.4,8.05-29.09,22.05-7.44,12-9,26.3-4.65,42.53,11.19,41.66,47.75,46.13,69.07,46.13,2.36,0,4.51-.06,6.43-.12a53.5,53.5,0,0,0,13.9,13.1,54.72,54.72,0,0,0,5.28,3c.46.22,2,1.13,3.24,1.71l-.3.12c-1.79.63-3.6,1.17-5.38,1.81-3.43,1.26-9.09,3.22-6.82,8,1.88,3.91,8,4.8,11.71,5.38a116.92,116.92,0,0,0,20,1c1.44,0,3.41.1,5.39,0a1.91,1.91,0,0,1-.21.38c-.72,1.09-2.44,1.89-4.19,2.6-.88.37-1.81.74-2.77,1.21a8.74,8.74,0,0,0-2.83,2,5.08,5.08,0,0,0-1,1.79,5.4,5.4,0,0,0-.21,2,6.65,6.65,0,0,0,1.35,3.46,12.82,12.82,0,0,0,5.35,3.79,23.61,23.61,0,0,0,6,1.61,48.91,48.91,0,0,0,12-.09,44.5,44.5,0,0,0,5.91-1.19,17.56,17.56,0,0,0,5.66-2.77,24.55,24.55,0,0,0,7.55-9.57c.22-.46.4-.94.61-1.4l.5-1.5c.25-1,.5-1.95.69-2.92s.44-2.19.63-3.28c22.3,4.82,45.24,7.68,68.07,6.77a160.19,160.19,0,0,0,32.55-4.43q3.63-.9,7.19-2a28.92,28.92,0,0,0,3.87,8.22,20.33,20.33,0,0,0,9.19,7.64c.47.2,1,.33,1.46.49s.95.26,1.43.37c.95.24,1.91.42,2.87.59a48.21,48.21,0,0,0,11.67.59c1-.09,1.93-.16,3-.33a23,23,0,0,0,2.95-.69,18.44,18.44,0,0,0,5.57-2.64,9.37,9.37,0,0,0,2.34-2.43,6.56,6.56,0,0,0,1-3.47,5.25,5.25,0,0,0-1.36-3.62A8.89,8.89,0,0,0,431.7,420c-1.87-.9-3.7-1.42-5.29-2.16a8.6,8.6,0,0,1-2.05-1.25,4.22,4.22,0,0,1-.64-.74,2,2,0,0,1-.16-.42l.76.08a143.8,143.8,0,0,0,20.86,0c5.56-.29,11.91-.22,17.3-1.84,3.77-1.14,2.9-4.87.85-7.65-3.27-4.44-9.45-5.46-14.46-6.64l-.43-.13c.94-.57,2-1.32,2.34-1.55A76.39,76.39,0,0,0,462.63,389c14-12.67,21.84-30.36,24.29-48.89,2.85-21.53-1.3-43.22-6.67-64-.57-2.21-1.18-4.42-1.79-6.62,4.58,3.73,9.65,6.83,14,7h.42a7.94,7.94,0,0,0,5.95-2.51C508.43,263.85,513.31,234.84,509.8,221.33,177.74,276.62c-18.77-15.42-19.6-54.3-11-73C181.13,172.4,205,129,245.63,112.19q5.24-2.14,10.58-4a27.74,27.74,0,0,0,3.7.62,43,43,0,0,0,12.25-.75,68.07,68.07,0,0,0,7.44-1.88q-3.47,2.79-6.72,5.86a19.08,19.08,0,0,1-3.77,1.12l-5,.94,4.73,1.8.14,0c-.54.55-1.08,1.09-1.6,1.66-16.43,17.56-29.15,38.9-40.14,60.17a379.41,379.41,0,0,0-27.52,69.12q-3.77,13.07-6.56,26.38C187.64,277.25,181.65,279.82,177.74,276.62,128,339.84c-4.13-15.4-2.69-28.92,4.3-40.18,9-14.46,23.68-20,27.13-20.69a3.39,3.39,0,0,1,3.53,1.12,2.72,2.72,0,0,1-.26,3.11c-1,1.58-3.56,2.36-6,3.12a23.34,23.34,0,0,0-4.22,1.61,43.12,43.12,0,0,0-11,8.54c-8.36,9.15-11,21.93-7.4,36,8.71,34.12,45.1,35.9,56.94,35.55a72.87,72.87,0,0,0,7.13,15c.14.21.29.42.43.64C179,384.17,139.42,382.34,128,339.84,386.22,85.71l.6.44,0,0c.46.27.91.57,1.39.81a18.24,18.24,0,0,0,6.34,1.81c1.1.17,2.19.13,3.29.19s2.19-.1,3.28-.19,2.16-.28,3.23-.47l.22,0c-.17.31-.35.61-.53.89a19.19,19.19,0,0,1-2.4,3,20.42,20.42,0,0,1-6.38,4.43,22.67,22.67,0,0,1-3.79,1.23,26.31,26.31,0,0,1-4,.68c-.79.09-1.6.12-2.4.14q-2.43-.78-4.81-1.72c-1.38-.62-2.77-1.21-4.12-1.9-.68-.35-1.38-.66-2-1s-1.33-.75-2-1.11-1.33-.75-2-1.17l-2-1.2c-1.3-.83-2.57-1.71-3.91-2.54,1,1.16,2.09,2.33,3.23,3.41a45.65,45.65,0,0,0,3.6,3c.62.48,1.26,1,1.9,1.41s1.33.85,2,1.28a45.47,45.47,0,0,0,4.16,2.31,42.55,42.55,0,0,0,9,3.17c.78.18,1.56.34,2.35.46s1.59.24,2.39.33l1.3.09-.29.23c-1,.78-2.07,1.56-3.18,2.24a30,30,0,0,1-3.45,1.85,23.46,23.46,0,0,1-2.46.93c-.4.12-.8.23-1.22.32h-.08a12.73,12.73,0,0,0,3.58-.26,132.89,132.89,0,0,1,14.69,12.47c15.24,15,25,32.85,34.42,51.77,11.43,22.94,22.15,46.29,30.8,70.44,8,22.35,15,46,17.25,69.67,1.77,18.63-.21,38.23-9.17,54.93a69.52,69.52,0,0,1-18.79,22.2q-2.81,2.16-5.8,4.05c-1.64,1-4.26,1.89-5.61,3.24-.88.89-1.73,1.6-1,2.94,1.41,2.48,8.3,2.63,10.72,3.45,2.94,1,5.32,2.32,6.92,5,1.37,2.3-.22,1.93-2.57,2.3a157.3,157.3,0,0,1-19.15,1.45c-5.39.16-11.34.58-16.78-.3-.14-1-.27-2-.39-3a122.24,122.24,0,0,1-.54-22.47c.25-3.75.71-7.48,1.3-11.2s1.34-7.46,2.09-11.14a59.33,59.33,0,0,1,3.13-10.82,25,25,0,0,1,6.29-9.26,23.63,23.63,0,0,0-7,8.94,60.19,60.19,0,0,0-3.84,10.81c-.49,1.84-.91,3.7-1.34,5.55s-.86,3.7-1.25,5.57a111.34,111.34,0,0,0-1.7,11.35,116,116,0,0,0,0,23c.2,1.93.42,3.77.72,5.75a5.35,5.35,0,0,0,.63,1.82,6.72,6.72,0,0,0,1.18,1.43,11.09,11.09,0,0,0,2.77,1.74c1.85.86,3.68,1.41,5.22,2.17a6.25,6.25,0,0,1,1.87,1.28,2.15,2.15,0,0,1,.57,1.58,3.53,3.53,0,0,1-.57,1.91,6.09,6.09,0,0,1-1.29,1.42,5.49,5.49,0,0,0-.23-3.15,6.6,6.6,0,0,0-2.78-3.36,8.53,8.53,0,0,0-2-.77,12.49,12.49,0,0,0-1.87-.39,13.58,13.58,0,0,0-3.88,0,13.63,13.63,0,0,0,3.13,2.29c1.12.61,2.21,1.06,3.05,1.5a9.39,9.39,0,0,1,2.26,1.92,12.46,12.46,0,0,1,1.91,3l-.45-.39a16.53,16.53,0,0,1-4.11,1.87,23,23,0,0,1-5.28.93l-.5,0a2.68,2.68,0,0,0,.45-.93,3.62,3.62,0,0,0-.15-2.18,7.1,7.1,0,0,0-2.48-3,9.91,9.91,0,0,0-3.23-1.62,7.41,7.41,0,0,0-3.66-.16,28.12,28.12,0,0,0,2.61,2.27c.84.67,1.66,1.3,2.49,1.91a23.32,23.32,0,0,1,2.22,1.75,3.25,3.25,0,0,1,.73,1,2.47,2.47,0,0,1,.21,1.55l-.55-.56c-1.22,0-2.43,0-3.65,0a48.25,48.25,0,0,1-5.5-.51c-.91-.14-1.81-.3-2.71-.5l-1.33-.32c-.41-.14-.84-.23-1.24-.39a18.52,18.52,0,0,1-8.2-6.54,27,27,0,0,1-4.48-9.9c-.87-3.6-1.22-7.37-1.83-11.15-.3-1.89-.72-3.76-1.12-5.61s-.8-3.71-1.29-5.56a28.16,28.16,0,0,0-2.09-5.35c-.81-1.71-1.57-3.45-2.32-5.19.61,1.79,1.23,3.59,1.9,5.37a28.28,28.28,0,0,1,1.73,5.35c.38,1.84.66,3.72,1,5.59s.6,3.73.78,5.6c.41,3.58.62,7.22,1.29,10.87a86,86,0,0,1-8.74,2.61c-21.11,5-43.26,5-64.74,2.68A314.62,314.62,0,0,1,283.2,414c.63-3.7,1.27-7.38,2-11,1.55-7.59,3.49-15.19,7.25-22a48.6,48.6,0,0,0-5.2,10.49,116.56,116.56,0,0,0-3.48,11.23c-1,3.79-1.79,7.62-2.61,11.43-.41,1.91-.8,3.82-1.25,5.68-.22.95-.48,1.85-.74,2.75l-.46,1.26c-.2.42-.38.86-.6,1.27a23.24,23.24,0,0,1-7,8.46,15.12,15.12,0,0,1-4.83,2.26,42,42,0,0,1-5.57,1,49.16,49.16,0,0,1-7.48.29l-.56.58a2.56,2.56,0,0,1,.21-1.56,3.42,3.42,0,0,1,.73-1,23.91,23.91,0,0,1,2.23-1.75c.82-.61,1.64-1.24,2.49-1.9a29.86,29.86,0,0,0,2.6-2.28,7.37,7.37,0,0,0-3.65.16,10.06,10.06,0,0,0-3.24,1.62,7.13,7.13,0,0,0-2.47,3,3.59,3.59,0,0,0-.16,2.17,2.79,2.79,0,0,0,.44.92c-.82-.05-1.64-.12-2.45-.22a20.7,20.7,0,0,1-5.23-1.43,14.2,14.2,0,0,1-2.19-1.15l-.46.38a12.46,12.46,0,0,1,1.91-3,9.24,9.24,0,0,1,2.27-1.92c.84-.44,1.92-.89,3-1.5a13.47,13.47,0,0,0,3.14-2.29,13.57,13.57,0,0,0-3.88.05,12.35,12.35,0,0,0-1.88.39,8.46,8.46,0,0,0-2,.77,6.62,6.62,0,0,0-2.79,3.36,5.57,5.57,0,0,0-.23,3.12,6.46,6.46,0,0,1-1.07-1.09,3.58,3.58,0,0,1-.78-1.91,2,2,0,0,1,.5-1.62,6.21,6.21,0,0,1,1.9-1.33c.79-.4,1.67-.75,2.58-1.14a25.27,25.27,0,0,0,2.81-1.33,8.05,8.05,0,0,0,2.66-2.36,6.14,6.14,0,0,0,.77-1.72,13,13,0,0,0,.37-1.59,22.49,22.49,0,0,0,.26-3.11c0-4-.08-7.81,0-11.73s0-7.82-.18-11.73a143.66,143.66,0,0,0-2.45-23.39,61.73,61.73,0,0,0-3.41-11.29c-1.56-3.58-3.66-7.1-6.82-9.46a18,18,0,0,1,3.64,4.51,32,32,0,0,1,2.44,5.24,59.61,59.61,0,0,1,2.71,11.26,160.11,160.11,0,0,1,1.56,23.17c0,3.89-.05,7.77-.11,11.66s-.06,7.88-.17,11.66c0,.48-.05.95-.09,1.4-1,0-1.89,0-2.42,0a154.25,154.25,0,0,1-17.6-.25c-2.75-.21-14.45-.56-15.14-4.63-.63-3.64,11.46-4.83,13.86-6.68,4.66-3.6-6.26-6.18-8.39-7.39-30.11-17.08-31.37-57.25-28.43-87.67.89-9.14,2.27-18.22,3.92-27.25A377.49,377.49,0,0,1,246.5,150.23c7.54-11.82,15.91-23.54,25.87-33.56l.89.09a29.82,29.82,0,0,0,4.33,0,39.8,39.8,0,0,0,8.36-1.56,52.27,52.27,0,0,0,7.83-3c.88-.44,1.75-.91,2.62-1.38l1.07-.57c1.19-.72,2.36-1.48,3.53-2.21-1.28.53-2.56,1-3.82,1.61l-3.86,1.45a63.37,63.37,0,0,1-7.86,2.19,40.19,40.19,0,0,1-8,1c-.75,0-1.51,0-2.25,0,.33-.17.66-.32,1-.5a21.74,21.74,0,0,0,5.33-4.43c3-3.31,5.54-6.67,8.84-9.28a22.93,22.93,0,0,1,5.27-3.21,41.62,41.62,0,0,1,6-2.07,72.33,72.33,0,0,1,12.79-2,49.49,49.49,0,0,0-13.14.31,36.16,36.16,0,0,0-6.49,1.66,23.23,23.23,0,0,0-6,3.22,39.73,39.73,0,0,0-5,4.49c-.84.89-1.64,1.79-2.44,2.69l-.7.25-.58.45c-1.62.41-3.25.79-4.89,1.11-1,.21-2.07.39-3.1.55a41.79,41.79,0,0,1-12,.26,21.47,21.47,0,0,1-10.83-4.36A16.9,16.9,0,0,1,245.4,99a15.87,15.87,0,0,1-1.81-4.22,29.81,29.81,0,0,0,5.5-.24,26.3,26.3,0,0,0,6.49-1.91,36.24,36.24,0,0,0,10.75-7.9c3.13-3.11,5.9-6.44,8.93-9.45a37.68,37.68,0,0,1,10-7.49,27.86,27.86,0,0,1,12-2.74,36,36,0,0,1,12.37,1.52,30.6,30.6,0,0,1,10.83,5.86,30,30,0,0,1,2.28,2.09c.36.37.69.77,1,1.15s.68.78,1,1.19A25.25,25.25,0,0,1,328,82l.93,2,1.52-1.59a31.83,31.83,0,0,1,3.75-3.32,38.31,38.31,0,0,1,4.23-2.81,36.28,36.28,0,0,1,9.35-3.84,31.46,31.46,0,0,1,10.05-.83,101.77,101.77,0,0,1,10.31,1.45,48.12,48.12,0,0,0,10.77.82,27.62,27.62,0,0,0,10.53-2.79l1.23-.6a9.15,9.15,0,0,0,1.19-.65l2.29-1.45a22.31,22.31,0,0,0,2.16-1.6c.71-.55,1.43-1.09,2.12-1.66,1.3-1.22,2.64-2.4,3.9-3.65l2.46-2.65a27.82,27.82,0,0,1-.27,7.67,23.07,23.07,0,0,1-3.41,8.69,20.9,20.9,0,0,1-3,3.64,23,23,0,0,1-3.7,3,32.06,32.06,0,0,1-7,3.42l-.08,0c-.44-.25-.94-.42-1.36-.71a8.91,8.91,0,0,1-2.41-2,7.88,7.88,0,0,0,2,2.55,5.3,5.3,0,0,0,.67.57,496.65,271.85a5,5,0,0,1-4.07,1.58c-4.5-.19-10.49-4.57-15.65-9.32a486.45,486.45,0,0,0-23.1-61c-5.4-12-11.13-23.86-17.05-35.62-5.06-10.06-10.07-20.08-16.63-29.27a139.54,139.54,0,0,0-29.43-30.44c.27-.11.55-.19.81-.31a26.61,26.61,0,0,0,3.67-1.91,39.54,39.54,0,0,0,3.38-2.38l2.93-2.35-3.89.08a27.44,27.44,0,0,1-4.36-.33c-.74-.1-1.47-.2-2.21-.35l-.65-.13a24.93,24.93,0,0,0,5.81-1.1,25.38,25.38,0,0,0,2.56-1.15,126.75,126.75,0,0,1,19,6.46c17.95,7.94,29,23.66,40.69,41.87,5.36,8.39,11.08,16.72,16.62,24.77,5.17,7.54,10.53,15.33,15.56,23.13,1.48,2.3,3.07,4.55,4.76,6.94,4.72,6.68,9.6,13.58,11.55,21.06C510.12,234.48,505.27,262.82,496.65,271.85Z"/><path d="M280.05,105.82l.58-.45c-1.24.42-3.14,1-5.47,1.56C276.8,106.61,278.43,106.23,280.05,105.82Z"/><path d="M383.63,109.1c.42-.09.82-.2,1.22-.32"/><path d="M323.91,86.93a54.79,54.79,0,0,0-10.46-7.5,30.53,30.53,0,0,0-5.94-2.59,17.12,17.12,0,0,0-6.49-1,7.66,7.66,0,0,0-1.68.28,10.4,10.4,0,0,0-1.57.66,13.12,13.12,0,0,0-2.65,2,47.71,47.71,0,0,0-4.29,4.85,46.9,46.9,0,0,1-4.25,4.75A17.8,17.8,0,0,1,281.36,92a16.8,16.8,0,0,0,5.55-3.24,47.94,47.94,0,0,0,4.51-4.62,62.22,62.22,0,0,1,4.31-4.68,8.49,8.49,0,0,1,5.36-2.61,16.64,16.64,0,0,1,6.15.83c1,.28,2,.7,3,1.07s1.94.85,2.88,1.34a55.34,55.34,0,0,1,5.54,3.17C320.45,84.42,322.2,85.64,323.91,86.93Z"/><path d="M371.8,82.64a13.43,13.43,0,0,0,5.57-1.53c-3.61,1.54-7.51,1.06-11.27.5-1.89-.3-3.8-.55-5.71-.8s-3.8-.51-5.77-.59a21,21,0,0,0-11.21,3,29.89,29.89,0,0,0-8.59,7.7A34.42,34.42,0,0,1,339,87.05a31,31,0,0,1,4.74-3.15A26.52,26.52,0,0,1,349,81.81a18.08,18.08,0,0,1,5.56-.59c3.79.17,7.61.76,11.43,1.15A38.47,38.47,0,0,0,371.8,82.64Z"/><path d="M351.89,98.63A11.51,11.51,0,0,0,350,96.82a12.07,12.07,0,0,0-2.24-1.41,13.08,13.08,0,0,0-2.52-.84,13.26,13.26,0,0,0-5.25,0,14,14,0,0,0-4.82,1.87,22,22,0,0,1,4.94-1.1,15.31,15.31,0,0,1,4.92.26,12.48,12.48,0,0,1,4.51,1.9,15.19,15.19,0,0,1,2,1.52c.66.53,1.18,1.2,1.83,1.78-.23-.36-.46-.72-.71-1.08A7.76,7.76,0,0,0,351.89,98.63Z"/><path d="M310,97.57l-4,1.25a18.56,18.56,0,0,0-3.91,1.69,26.58,26.58,0,0,0-3.4,2.5,15.06,15.06,0,0,1-1.66,1.22,12.34,12.34,0,0,1-1.87.89A10.31,10.31,0,0,0,299,103.4a27.57,27.57,0,0,1,3.48-2.22,22.16,22.16,0,0,1,3.81-1.45l4-1.21c2.66-.83,5.31-1.66,8-2.57s5.26-1.82,7.86-2.83c-2.72.62-5.41,1.35-8.09,2.09S312.66,96.76,310,97.57Z"/>            </clipPath>        </defs>        <g clip-path="url(#outline)">            <rect fill="#BA756C" width="640" height="480" />        </g>    </g>    <g id="pattern">        <g clip-path="url(#outline)">            <path fill="#B6EAFF"  d="M452.2,315a10.59,10.59,0,0,0,4.79-3.93,9.23,9.23,0,0,0,1.6-5.73,41.53,41.53,0,0,1-3.94,3.62,16.43,16.43,0,0,1-4,2.36,30.14,30.14,0,0,1-4.62,1.5c-1.65.41-3.39.77-5.33,1.21a11,11,0,0,0,5.55,1.92A13,13,0,0,0,452.2,315Z"/><path fill="#B6EAFF"  d="M197.27,349.6a19,19,0,0,0,7.35,4.14,16.14,16.14,0,0,0,8.24.34,55.25,55.25,0,0,1-7-3.24,32.19,32.19,0,0,1-5.9-4.23,48.7,48.7,0,0,1-5.1-5.33c-1.62-1.95-3.16-4-4.78-6.21A18.77,18.77,0,0,0,192.2,343,22.58,22.58,0,0,0,197.27,349.6Z"/><path fill="#B6EAFF"  d="M224.91,397.06a23.36,23.36,0,0,0,2.64.15,28.34,28.34,0,0,0,5.22-.35,7.8,7.8,0,0,0,1.28-.23l1.26-.32c.84-.21,1.66-.45,2.48-.69a44.9,44.9,0,0,0,4.68-2.12c-1.74,0-3.39.1-5,.19-.83,0-1.65,0-2.46,0s-1.62.11-2.43,0c-1.6-.11-3.2,0-4.76-.29-.77-.12-1.57-.11-2.33-.28l-2.3-.43a35.06,35.06,0,0,1-8.7-3.22,33.37,33.37,0,0,1-7.82-5.77,17.75,17.75,0,0,0,6.07,8.37,24.09,24.09,0,0,0,9.59,4.52Z"/><path fill="#B6EAFF"  d="M251,301.11c-1.48-.12-2.88,0-4.28,0s-2.76,0-4.12,0-2.7,0-4-.2-2.63-.26-3.94-.41a46.36,46.36,0,0,1-7.65-1.86,39.27,39.27,0,0,1-7.48-3.43,15.66,15.66,0,0,0,6.14,6.26,23.48,23.48,0,0,0,8.39,3l2.22.23a20.78,20.78,0,0,0,2.23,0,25.62,25.62,0,0,0,4.38-.46A33.12,33.12,0,0,0,247,303,32.27,32.27,0,0,0,251,301.11Z"/><path fill="#B6EAFF"  d="M198.49,370.35a8.42,8.42,0,0,0,7.1,2.09,6.64,6.64,0,0,0,3.48-1.68,21.91,21.91,0,0,0-3.27-1.46c-1-.33-1.93-.68-2.87-.92s-1.87-.53-2.89-.76-2.1-.45-3.46-.67A5.88,5.88,0,0,0,198.49,370.35Z"/><path fill="#B6EAFF"  d="M210.13,304.93c-1.31-.16-2.58-.47-3.85-.74a43.64,43.64,0,0,1-7.38-2.5,37.13,37.13,0,0,1-7-4.11,15.36,15.36,0,0,0,5.44,6.8,22.62,22.62,0,0,0,8,3.7l2.18.42a20,20,0,0,0,2.19.21,25.6,25.6,0,0,0,4.38-.1,33.39,33.39,0,0,0,4.26-.82,31.83,31.83,0,0,0,4-1.59c-1.46-.24-2.85-.27-4.23-.37s-2.74-.2-4.08-.37S211.42,305.21,210.13,304.93Z"/><path fill="#B6EAFF"  d="M471.52,331.27a14.34,14.34,0,0,0,5.83-.49,16.14,16.14,0,0,0,5.14-2.58,20.19,20.19,0,0,0,2.11-1.92,15.24,15.24,0,0,0,1.66-2.37,17.24,17.24,0,0,0-2.73.72c-.89.22-1.7.54-2.53.8-1.64.52-3.2,1.07-4.77,1.52s-3.13.86-4.76,1.18a40.54,40.54,0,0,1-5.25.73A9,9,0,0,0,471.52,331.27Z"/><path fill="#B6EAFF"  d="M408.74,407.11c-.92,0-1.78.07-2.65.1-1.72.07-3.37.18-5,.2s-3.25,0-4.91-.12a41.48,41.48,0,0,1-5.25-.69,9,9,0,0,0,4.47,3.72,14.23,14.23,0,0,0,5.75,1.08,16.1,16.1,0,0,0,5.64-1.12,17.86,17.86,0,0,0,2.54-1.3,15.65,15.65,0,0,0,2.24-1.84A19.24,19.24,0,0,0,408.74,407.11Z"/><path fill="#B6EAFF"  d="M410.59,370.63c-1.67.41-3.26.86-4.86,1.2s-3.18.66-4.83.88a40.42,40.42,0,0,1-5.28.38,9.09,9.09,0,0,0,5.13,2.75,14.41,14.41,0,0,0,5.85-.1,16.05,16.05,0,0,0,5.29-2.25,18.32,18.32,0,0,0,2.23-1.78,14.76,14.76,0,0,0,1.82-2.26,19,19,0,0,0-2.78.55C412.27,370.16,411.43,370.42,410.59,370.63Z"/><path fill="#B6EAFF"  d="M241,384.12a39,39,0,0,1-5.82-1.48,37.4,37.4,0,0,1-5.52-2.36,63.23,63.23,0,0,1-5.58-3.27,12.89,12.89,0,0,0,3.75,5.82,16.62,16.62,0,0,0,6.06,3.59,16.79,16.79,0,0,0,7,.85,15.81,15.81,0,0,0,3.42-.67,16.51,16.51,0,0,0,3.14-1.44c-1.16-.29-2.25-.33-3.32-.51S242,384.38,241,384.12Z"/><path fill="#B6EAFF"  d="M207.65,319.48c.52,0,1,.08,1.55.1a8.81,8.81,0,0,0,1.54-.05c.52,0,1-.12,1.53-.19a14.71,14.71,0,0,0,2.95-.95,27.94,27.94,0,0,0-2.83-1l-1.35-.46-.67-.19-.65-.25c-.43-.15-.86-.3-1.29-.43l-1.26-.47a10.16,10.16,0,0,1-1.23-.49c-.41-.17-.83-.31-1.23-.49-1.6-.7-3.16-1.49-4.73-2.37s-3.14-1.87-4.85-3.06a10.67,10.67,0,0,0,2.87,5.49,15.51,15.51,0,0,0,5.12,3.61,16.76,16.76,0,0,0,3,.95C206.62,319.3,207.13,319.43,207.65,319.48Z"/><path fill="#B6EAFF"  d="M217.52,335.45a16.34,16.34,0,0,0,3.68-.81,17.09,17.09,0,0,0,3.35-1.65c-1.27-.21-2.44-.15-3.61-.29s-2.28-.17-3.39-.4a34.56,34.56,0,0,1-6.36-1.45,39.54,39.54,0,0,1-6.07-2.52c-2-1-4-2.17-6.09-3.48a14.9,14.9,0,0,0,4.32,6.06,18.54,18.54,0,0,0,6.6,3.74A17.73,17.73,0,0,0,217.52,335.45Z"/><path fill="#B6EAFF"  d="M274.84,395.63a54.9,54.9,0,0,1-5.85-1,55.64,55.64,0,0,1-5.73-1.59c-1.93-.63-3.85-1.35-6-2.17a13.41,13.41,0,0,0,4.55,5,18,18,0,0,0,6.26,2.69,17.8,17.8,0,0,0,6.82.22,15.48,15.48,0,0,0,3.27-.87,15.26,15.26,0,0,0,3-1.58c-1.15-.23-2.21-.22-3.27-.36S275.85,395.8,274.84,395.63Z"/><path fill="#B6EAFF"  d="M230.62,365.14c-1.45-.43-2.85-.73-4.18-1.14s-2.66-.77-4-1.28a23.59,23.59,0,0,1-4.11-2,6.88,6.88,0,0,0,2.38,4.64,11.34,11.34,0,0,0,4.59,2.52,13.39,13.39,0,0,0,5.06.43,16.94,16.94,0,0,0,2.47-.53,11.74,11.74,0,0,0,2.33-1.09,14.75,14.75,0,0,0-2.35-.87C232.09,365.53,231.34,365.32,230.62,365.14Z"/><path fill="#B6EAFF"  d="M270.52,408.65a15.58,15.58,0,0,0,2.31-2.21,27.74,27.74,0,0,0-3.08.4c-.49.06-1,.11-1.45.19-.24,0-.47.07-.71.12l-.7.05q-.7.06-1.38.15l-1.36.06c-.23,0-.45,0-.67,0l-.67,0c-.45,0-.89,0-1.33,0a27.19,27.19,0,0,1-5.3-.8,42.62,42.62,0,0,1-5.62-1.8A10.58,10.58,0,0,0,255,409.5a13.71,13.71,0,0,0,6.32,1.9,15.32,15.32,0,0,0,1.66,0l.83-.06c.28,0,.55-.08.82-.14.54-.12,1.08-.21,1.61-.37s1-.37,1.52-.57a7.88,7.88,0,0,0,1.45-.73C269.62,409.24,270.08,409,270.52,408.65Z"/><path fill="#B6EAFF"  d="M450.25,375.6a10.49,10.49,0,0,0,4.83,3.94,13.47,13.47,0,0,0,6.31,1.08,12.27,12.27,0,0,0,1.6-.2,10.53,10.53,0,0,0,1.57-.37c.5-.18,1-.34,1.51-.53s.95-.48,1.41-.74a7.12,7.12,0,0,0,1.32-.86c.41-.32.82-.65,1.21-1a10.66,10.66,0,0,0,1.05-1.16,11.55,11.55,0,0,0,.91-1.26c-1.07.17-2,.48-2.93.71-.47.11-.93.21-1.38.33l-.67.19c-.22,0-.45.07-.67.12-.45.09-.88.18-1.31.3s-.88.12-1.31.19a7.86,7.86,0,0,1-1.28.16,9.38,9.38,0,0,1-1.29.12,29.4,29.4,0,0,1-5.21-.11A53.17,53.17,0,0,1,450.25,375.6Z"/><path fill="#B6EAFF"  d="M478,348a31.85,31.85,0,0,1-9.34,3.85,42.7,42.7,0,0,1-10.22,1.1,79.6,79.6,0,0,1-10.73-.8,27.29,27.29,0,0,0,10.46,3.92,28.76,28.76,0,0,0,11.42-.33,24.11,24.11,0,0,0,10.28-5.22,22.55,22.55,0,0,0,6.4-9.23A48.67,48.67,0,0,1,478,348Z"/><path fill="#B6EAFF"  d="M478.37,297.44a10.62,10.62,0,0,0,2.19-5.91,52.63,52.63,0,0,1-4.42,3.69,23.88,23.88,0,0,1-4.5,2.6,42.75,42.75,0,0,1-5,1.86c-1.77.54-3.61,1-5.63,1.62a12.32,12.32,0,0,0,6.05,1.48,15.07,15.07,0,0,0,6.23-1.32A12.65,12.65,0,0,0,478.37,297.44Z"/><path fill="#B6EAFF"  d="M436.35,389.41a7.43,7.43,0,0,0,4,.11,7.77,7.77,0,0,0,3.43-1.86,7.4,7.4,0,0,0,1.23-1.5,6.91,6.91,0,0,0,.72-1.87,13.39,13.39,0,0,0-1.9.29c-.59.08-1.09.26-1.61.35-1,.27-1.93.46-2.82.71l-2.77.65c-1,.23-2,.45-3.39.72A5.23,5.23,0,0,0,436.35,389.41Z"/><path fill="#B6EAFF"  d="M471.72,315.62a24,24,0,0,1-3.27,1.84,22.93,22.93,0,0,1-3.5,1.34c-1.28.39-2.63.72-4.25,1.13a7.47,7.47,0,0,0,4.46,2,9.38,9.38,0,0,0,5-.84,9.14,9.14,0,0,0,3.83-3.28,8.91,8.91,0,0,0,1.09-2.21,8.72,8.72,0,0,0,.35-2.44,23,23,0,0,0-2,1.3C472.81,314.84,472.31,315.3,471.72,315.62Z"/><path fill="#B6EAFF"  d="M450.25,367.65A25.15,25.15,0,0,1,447,369.5a24.14,24.14,0,0,1-3.51,1.33c-1.27.39-2.63.72-4.25,1.13a7.44,7.44,0,0,0,4.47,2,9.35,9.35,0,0,0,9.89-6.33,9.12,9.12,0,0,0,.36-2.44,21.74,21.74,0,0,0-2,1.3C451.34,366.87,450.85,367.34,450.25,367.65Z"/><path fill="#B6EAFF"  d="M459.37,334.92c-.74.23-1.39.56-2.05.8a36.45,36.45,0,0,1-3.74,1.25,19.58,19.58,0,0,1-3.76.54,27,27,0,0,1-4.46-.17,6.89,6.89,0,0,0,3.9,3.26,9.42,9.42,0,0,0,5.29.26,10.46,10.46,0,0,0,4.51-2.52,11.33,11.33,0,0,0,1.59-1.94,10.63,10.63,0,0,0,1-2.32A14.71,14.71,0,0,0,459.37,334.92Z"/><path fill="#B6EAFF"  d="M409.35,386.39a43.93,43.93,0,0,1-6.19.05c-2.13-.1-4.3-.3-6.67-.46a15.62,15.62,0,0,0,6.08,3.54,18,18,0,0,0,7.13.85,14.18,14.18,0,0,0,6.95-2.46,11.07,11.07,0,0,0,4.28-5.73,29.56,29.56,0,0,1-5.77,3A23.19,23.19,0,0,1,409.35,386.39Z"/><path fill="#B6EAFF"  d="M265,377.31c-1.72,0-3.37,0-5-.08s-3.24-.18-4.89-.4a40.12,40.12,0,0,1-5.2-1,9,9,0,0,0,4.25,4,14.4,14.4,0,0,0,5.68,1.4,16,16,0,0,0,5.69-.81,18,18,0,0,0,2.62-1.15,14.83,14.83,0,0,0,2.33-1.71,18.64,18.64,0,0,0-2.82-.19C266.71,377.29,265.84,377.33,265,377.31Z"/>            <g opacity="0.6" ><path fill="#FF8431"  d="M285,418.84c2.41-25.61,27.2-49.28,50.64-49.63s49.12,18.76,51.63,48.25c.13,1.49,1.2.46-.05,1.63-1.41,1.32-6.67,1.94-9.66,2.8-14.13,4.06-27.65,4.48-43.86,4.36-16.51-.12-33.22-4.21-48.23-7.41"/></g>        </g>    </g>    <g id="mask">        <path fill="none"  d="M274.73,111.13a21.75,21.75,0,0,0,4.67-3.87c.43-.46.86-.94,1.29-1.42l-.77.24q-3.42,2.76-6.67,5.81A14.72,14.72,0,0,0,274.73,111.13Z"/><path fill="none"  d="M281.33,105.12l-.4.14-.61.49c.2,0,.39-.09.58-.15Z"/><path fill="none"  d="M386.82,86.14l-.6-.44-.48.14h0s.41.14,1.13.33Z"/><path opacity="0.1"  d="M339,405.18c-39.1-.61-54-9.36-54-9.36L281.12,415c6.32,3.26,30.14,4.89,57.23,6.92s52.33-6.51,52.33-6.51l-2.85-18.74S378.06,405.8,339,405.18Z"/><path opacity="0.1"  d="M275.16,106.93c1.73-.34,3.45-.74,5.16-1.18l.61-.49C279.72,105.68,277.68,106.33,275.16,106.93Z"/><path opacity="0.1"  d="M264.07,114.1l5-.95a18.41,18.41,0,0,0,4.14-1.26q3.25-3,6.67-5.81a68.92,68.92,0,0,1-7.76,2,46,46,0,0,1-9.53.9,18.72,18.72,0,0,0-1.94,1.83c-8.14,9-37.2,45.34-47.24,63.81s-31,70.05-32,80.37,1.9,23.35,1.9,23.35a21.93,21.93,0,0,0,9.5-4.89s11.13-44.53,22.27-69.51c9.1-20.43,26.75-60.28,54-87.94l-.24-.08Z"/><path opacity="0.1"  d="M167.83,377.15c-37.24-15.83-41.27-49.69-35.84-70s31-26.88,31-26.88c-1.09-4.62-10.32,1.08-14.67,3.53s-13.3,9.77-17.1,17.1-13.85,24.17,2.17,56.21,65.44,26.61,65.44,26.61l-3.26-5.7S178.69,381.77,167.83,377.15Z"/><path opacity="0.1"  d="M474.72,264.69s9.51,9.78,17.38,9.51c0,0-3.53-39.92-20.37-73-13.68-26.94-51.92-78.73-73.14-98h0a35.51,35.51,0,0,1-3.38,2.38,26.67,26.67,0,0,1-3.67,1.92,22.05,22.05,0,0,1-3.52,1.18c8.28,6.74,21.63,18.68,30.78,32.22,14.12,20.91,30.68,56.2,43.17,87.7S474.72,264.69,474.72,264.69Z"/><path opacity="0.1"  d="M391.05,100.23c.74.16,1.47.26,2.21.36s1.79.22,2.67.28c-.57-.48-1.13-.93-1.67-1.34a25.5,25.5,0,0,1-3.86.57C390.62,100.15,390.83,100.2,391.05,100.23Z"/><path opacity="0.1"  d="M273.26,116.76c-.5,0-1-.1-1.51-.17-6.43,6.75-11.6,13.77-16.67,20C242.32,152.37,213.27,196.36,198.6,261s-10,89.33-4.07,110.78,32.52,32.47,32.52,32.47-13.78,3.64-14.74,7.36c-2.78,10.81,38.14,7.66,38.14,7.66l-.26-18.71s-34.21,7.87-47.51-47.79,14.82-114.58,38.71-175.94c8.74-22.44,22.38-44.51,34.44-60A24.52,24.52,0,0,1,273.26,116.76Z"/><path fill="#2d2926"  d="M395.2,105.56a37,37,0,0,0,3.39-2.38l2.92-2.34-3.89.08c-.54,0-1.11,0-1.69,0-.88-.06-1.79-.15-2.67-.28s-1.47-.2-2.21-.36c-.22,0-.43-.08-.65-.13a25.5,25.5,0,0,0,3.86-.57c.65-.15,1.31-.32,1.95-.53a20.63,20.63,0,0,0,7.55-4.74,22.27,22.27,0,0,0,2.85-3.49,19.41,19.41,0,0,0,2-4.15l.82-2.48-2.6.66c-1,.25-2,.47-3,.74s-2,.41-3,.61-2,.26-3,.39a28.08,28.08,0,0,1-3,.11,19.5,19.5,0,0,1-6-.87c-.42-.12-.81-.29-1.21-.44a31.9,31.9,0,0,0,7.14-3.06,23.86,23.86,0,0,0,3.9-2.89,21.71,21.71,0,0,0,3.25-3.65,24.31,24.31,0,0,0,3.92-8.94,27.76,27.76,0,0,0,.4-9.84l-.23-1.54-1.14,1.16-3.65,3.74c-1.26,1.19-2.59,2.31-3.88,3.47-.68.53-1.38,1-2.07,1.55a22.17,22.17,0,0,1-2.11,1.48l-2.21,1.31a6.07,6.07,0,0,1-1.13.59l-1.16.53a25.21,25.21,0,0,1-9.78,2.35,48.1,48.1,0,0,1-10.21-1C365.14,70,361.64,69.26,358,69a34.52,34.52,0,0,0-10.9.78A37.45,37.45,0,0,0,337,73.82a42.26,42.26,0,0,0-4.56,3c-.92.7-1.8,1.43-2.66,2.21a29.21,29.21,0,0,0-2.67-4A15,15,0,0,0,326,73.74c-.38-.42-.74-.86-1.14-1.27-.83-.77-1.59-1.62-2.49-2.31a33.21,33.21,0,0,0-11.9-6.4,38.94,38.94,0,0,0-13.33-1.59l-1.68,0-1.69.18a16.21,16.21,0,0,0-1.68.25c-.56.11-1.12.19-1.67.33A30.34,30.34,0,0,0,284,65.3a40.34,40.34,0,0,0-10.65,8.14c-3.08,3.16-5.85,6.51-8.79,9.61a33.85,33.85,0,0,1-9.9,7.67,24,24,0,0,1-5.92,1.89,30.4,30.4,0,0,1-6.26.33l-1.16,0,.19,1.08a14.86,14.86,0,0,0,1,3.11A17.3,17.3,0,0,0,244,99.91a18.53,18.53,0,0,0,4.29,4.67,22.46,22.46,0,0,0,11.64,4.22c.91.09,1.82.14,2.72.16a46,46,0,0,0,9.53-.9,68.92,68.92,0,0,0,7.76-2l.77-.24c-.43.48-.86,1-1.29,1.42a21.75,21.75,0,0,1-4.67,3.87,14.72,14.72,0,0,1-1.48.76,18.41,18.41,0,0,1-4.14,1.26l-5,.95,4.73,1.8.24.08a14.82,14.82,0,0,0,2,.51l.67.1c.51.07,1,.14,1.51.17a24.52,24.52,0,0,0,2.57.09c.58,0,1.17,0,1.76,0a39.8,39.8,0,0,0,8.36-1.56,52.7,52.7,0,0,0,7.83-3c.88-.44,2.53-2.08,3.4-2.55,13.5-5.57,25.47-10.91,30.32-12.16a12.75,12.75,0,0,1,9.2,1c1.82,1,3.21,2.53,5,3.59,6.11,3.68,13.79,5.9,20.75,7.22a50.88,50.88,0,0,0,21.14-.12,13.67,13.67,0,0,0,4.07-.35l.39-.11a22.05,22.05,0,0,0,3.52-1.18A26.67,26.67,0,0,0,395.2,105.56Z"/><g opacity="0.1" ><path d="M479.38,348.82c-1.82,3.4-3.92,6.59-5.91,9.89-3.85,6.42-8.49,10.76-13.6,16.25a63.23,63.23,0,0,1-11.06,9.46,60.26,60.26,0,0,1-6.26,3.67A32.79,32.79,0,0,1,437,390.6c-4,1.15-6.14-2.22-7.32-5.52a39.81,39.81,0,0,1-2.34-17.55c.54-4.88.17-9.24,1.36-14.38l-1.94,4.49c-3.07,11.13-4.21,22.52-5.65,34a4.59,4.59,0,0,0,.26,2.19c-.35.21.17.45-.06.73-2.06,2.52-.69,11.1-.82,14.3a.69.69,0,0,0,.1.45c.15.19.45.14.69.08a107.68,107.68,0,0,0,24.46-9.43c9.47-5.3,16.41-12.77,22.8-21.4,3.19-4.31,7.4-8.23,9.2-13.28,3.1-8.71,8-17.87,6.71-27C484.7,339.93,480.31,347.09,479.38,348.82Z"/></g>        <path fill="#fff" opacity="0.1"  d="M476.94,340.82c2.49-4,5-8,7.86-11.7a154,154,0,0,0-1.05-22.6c-5.3-45.38-31.36-100.16-52-142.52s-47.24-57-47.24-57c6,6.79,32.31,49.69,42.63,70.06S469.76,273.7,476.82,318A75.28,75.28,0,0,1,476.94,340.82Z"/>    </g>    <g id="outline">        <path fill="none"  d="M191,368c-11.84.35-48.23-1.43-56.94-35.55-3.59-14.05-1-26.83,7.4-36a43.12,43.12,0,0,1,11-8.54,23.34,23.34,0,0,1,4.22-1.61c2.44-.76,5-1.54,6-3.12a2.72,2.72,0,0,0,.26-3.11,3.39,3.39,0,0,0-3.53-1.12c-3.45.69-18.15,6.23-27.13,20.69-7,11.26-8.43,24.78-4.3,40.18,11.41,42.5,51,44.33,70.56,43.84-.14-.22-.29-.43-.43-.64A72.87,72.87,0,0,1,191,368Z"/><path fill="none"  d="M436.24,173.1c-9.43-18.92-19.18-36.8-34.42-51.77a132.89,132.89,0,0,0-14.69-12.47,12.73,12.73,0,0,1-3.58.26h.08c.42-.09.82-.2,1.22-.32a23.46,23.46,0,0,0,2.46-.93,30,30,0,0,0,3.45-1.85c1.11-.68,2.15-1.46,3.18-2.24l.29-.23-1.3-.09c-.8-.09-1.6-.18-2.39-.33s-1.57-.28-2.35-.46a42.55,42.55,0,0,1-9-3.17A45.47,45.47,0,0,1,375,97.17c-.67-.43-1.35-.83-2-1.28s-1.28-.93-1.9-1.41a45.65,45.65,0,0,1-3.6-3c-1.14-1.08-2.19-2.25-3.23-3.41,1.34.83,2.61,1.71,3.91,2.54l2,1.2c.65.42,1.3.81,2,1.17s1.34.73,2,1.11,1.36.68,2,1c1.35.69,2.74,1.28,4.12,1.9q2.38.94,4.81,1.72c.8,0,1.61,0,2.4-.14a26.31,26.31,0,0,0,4-.68,22.67,22.67,0,0,0,3.79-1.23,20.42,20.42,0,0,0,6.38-4.43,19.19,19.19,0,0,0,2.4-3c.18-.28.36-.58.53-.89l-.22,0c-1.07.19-2.16.31-3.23.47S399,89,397.88,89s-2.19,0-3.29-.19A18.24,18.24,0,0,1,388.25,87c-.48-.24-.93-.54-1.39-.81l0,0-.6-.44-.48.13h0c.16,0,.31-.1.47-.15a5.3,5.3,0,0,1-.67-.57,7.88,7.88,0,0,1-2-2.55,8.91,8.91,0,0,0,2.41,2c.42.29.92.46,1.36.71l.08,0a32.06,32.06,0,0,0,7-3.42,23,23,0,0,0,3.7-3,20.9,20.9,0,0,0,3-3.64,23.07,23.07,0,0,0,3.41-8.69,27.82,27.82,0,0,0,.27-7.67l-2.46,2.65c-1.26,1.25-2.6,2.43-3.9,3.65-.69.57-1.41,1.11-2.12,1.66a22.31,22.31,0,0,1-2.16,1.6l-2.29,1.45a9.15,9.15,0,0,1-1.19.65l-1.23.6a27.62,27.62,0,0,1-10.53,2.79,48.12,48.12,0,0,1-10.77-.82,101.77,101.77,0,0,0-10.31-1.45,31.46,31.46,0,0,0-10.05.83,36.28,36.28,0,0,0-9.35,3.84,38.31,38.31,0,0,0-4.23,2.81,31.83,31.83,0,0,0-3.75,3.32l-1.52,1.59L328,82a25.25,25.25,0,0,0-3.23-5.15c-.31-.41-.64-.81-1-1.19s-.68-.78-1-1.15a30,30,0,0,0-2.28-2.09,30.6,30.6,0,0,0-10.83-5.86,36,36,0,0,0-12.37-1.52,27.86,27.86,0,0,0-12,2.74,37.68,37.68,0,0,0-10,7.49c-3,3-5.8,6.34-8.93,9.45a36.24,36.24,0,0,1-10.75,7.9,26.3,26.3,0,0,1-6.49,1.91,29.81,29.81,0,0,1-5.5.24A15.87,15.87,0,0,0,245.4,99a16.9,16.9,0,0,0,3.81,4.36A21.47,21.47,0,0,0,260,107.74a41.79,41.79,0,0,0,12-.26c1-.16,2.07-.34,3.1-.55,2.33-.55,4.23-1.14,5.47-1.56l.7-.25c.8-.9,1.6-1.8,2.44-2.69a39.73,39.73,0,0,1,5-4.49,23.23,23.23,0,0,1,6-3.22,36.16,36.16,0,0,1,6.49-1.66,49.49,49.49,0,0,1,13.14-.31,72.33,72.33,0,0,0-12.79,2,41.62,41.62,0,0,0-6,2.07,22.93,22.93,0,0,0-5.27,3.21c-3.3,2.61-5.82,6-8.84,9.28a21.74,21.74,0,0,1-5.33,4.43c-.33.18-.66.33-1,.5.74,0,1.5,0,2.25,0a40.19,40.19,0,0,0,8-1,63.37,63.37,0,0,0,7.86-2.19l3.86-1.45c1.26-.56,2.54-1.08,3.82-1.61-1.17.73-2.34,1.49-3.53,2.21l-1.07.57c-.87.47-1.74.94-2.62,1.38a52.27,52.27,0,0,1-7.83,3,39.8,39.8,0,0,1-8.36,1.56,29.82,29.82,0,0,1-4.33,0l-.89-.09c-10,10-18.33,21.74-25.87,33.56a377.49,377.49,0,0,0-52.42,133.53c-1.65,9-3,18.11-3.92,27.25-2.94,30.42-1.68,70.59,28.43,87.67,2.13,1.21,13,3.79,8.39,7.39-2.4,1.85-14.49,3-13.86,6.68.69,4.07,12.39,4.42,15.14,4.63a154.25,154.25,0,0,0,17.6.25c.53,0,1.45,0,2.42,0,0-.45.07-.92.09-1.4.11-3.78.06-7.78.17-11.66s.13-7.77.11-11.66a160.11,160.11,0,0,0-1.56-23.17,59.61,59.61,0,0,0-2.71-11.26,32,32,0,0,0-2.44-5.24,18,18,0,0,0-3.64-4.51c3.16,2.36,5.26,5.88,6.82,9.46a61.73,61.73,0,0,1,3.41,11.29A143.66,143.66,0,0,1,251,392.89c.14,3.91.19,7.82.18,11.73s.08,7.72,0,11.73a22.49,22.49,0,0,1-.26,3.11,13,13,0,0,1-.37,1.59,6.14,6.14,0,0,1-.77,1.72,8.05,8.05,0,0,1-2.66,2.36,25.27,25.27,0,0,1-2.81,1.33c-.91.39-1.79.74-2.58,1.14a6.21,6.21,0,0,0-1.9,1.33,2,2,0,0,0-.5,1.62,3.58,3.58,0,0,0,.78,1.91,6.46,6.46,0,0,0,1.07,1.09,5.57,5.57,0,0,1,.23-3.12,6.62,6.62,0,0,1,2.79-3.36,8.46,8.46,0,0,1,2-.77,12.35,12.35,0,0,1,1.88-.39,13.57,13.57,0,0,1,3.88-.05,13.47,13.47,0,0,1-3.14,2.29c-1.12.61-2.2,1.06-3,1.5a9.24,9.24,0,0,0-2.27,1.92,12.46,12.46,0,0,0-1.91,3l.46-.38a14.2,14.2,0,0,0,2.19,1.15,20.7,20.7,0,0,0,5.23,1.43c.81.1,1.63.17,2.45.22a2.79,2.79,0,0,1-.44-.92,3.59,3.59,0,0,1,.16-2.17,7.13,7.13,0,0,1,2.47-3,10.06,10.06,0,0,1,3.24-1.62,7.37,7.37,0,0,1,3.65-.16,29.86,29.86,0,0,1-2.6,2.28c-.85.66-1.67,1.29-2.49,1.9a23.91,23.91,0,0,0-2.23,1.75,3.42,3.42,0,0,0-.73,1,2.56,2.56,0,0,0-.21,1.56l.56-.58a49.16,49.16,0,0,0,7.48-.29,42,42,0,0,0,5.57-1,15.12,15.12,0,0,0,4.83-2.26,23.24,23.24,0,0,0,7-8.46c.22-.41.4-.85.6-1.27l.46-1.26c.26-.9.52-1.8.74-2.75.45-1.86.84-3.77,1.25-5.68.82-3.81,1.64-7.64,2.61-11.43a116.56,116.56,0,0,1,3.48-11.23,48.6,48.6,0,0,1,5.2-10.49c-3.76,6.86-5.7,14.46-7.25,22-.76,3.65-1.4,7.33-2,11a314.62,314.62,0,0,0,33.11,5.43c21.48,2.28,43.63,2.35,64.74-2.68a86,86,0,0,0,8.74-2.61c-.67-3.65-.88-7.29-1.29-10.87-.18-1.87-.49-3.72-.78-5.6s-.57-3.75-1-5.59a28.28,28.28,0,0,0-1.73-5.35c-.67-1.78-1.29-3.58-1.9-5.37.75,1.74,1.51,3.48,2.32,5.19a28.16,28.16,0,0,1,2.09,5.35c.49,1.85.88,3.7,1.29,5.56s.82,3.72,1.12,5.61c.61,3.78,1,7.55,1.83,11.15a27,27,0,0,0,4.48,9.9,18.52,18.52,0,0,0,8.2,6.54c.4.16.83.25,1.24.39l1.33.32c.9.2,1.8.36,2.71.5a48.25,48.25,0,0,0,5.5.51c1.22,0,2.43,0,3.65,0l.55.56a2.47,2.47,0,0,0-.21-1.55,3.25,3.25,0,0,0-.73-1,23.32,23.32,0,0,0-2.22-1.75c-.83-.61-1.65-1.24-2.49-1.91a28.12,28.12,0,0,1-2.61-2.27,7.41,7.41,0,0,1,3.66.16,9.91,9.91,0,0,1,3.23,1.62,7.1,7.1,0,0,1,2.48,3,3.62,3.62,0,0,1,.15,2.18,2.68,2.68,0,0,1-.45.93l.5,0a23,23,0,0,0,5.28-.93,16.53,16.53,0,0,0,4.11-1.87l.45.39a12.46,12.46,0,0,0-1.91-3,9.39,9.39,0,0,0-2.26-1.92c-.84-.44-1.93-.89-3.05-1.5a13.63,13.63,0,0,1-3.13-2.29,13.58,13.58,0,0,1,3.88,0,12.49,12.49,0,0,1,1.87.39,8.53,8.53,0,0,1,2,.77,6.6,6.6,0,0,1,2.78,3.36,5.49,5.49,0,0,1,.23,3.15,6.09,6.09,0,0,0,1.29-1.42,3.53,3.53,0,0,0,.57-1.91,2.15,2.15,0,0,0-.57-1.58,6.25,6.25,0,0,0-1.87-1.28c-1.54-.76-3.37-1.31-5.22-2.17a11.09,11.09,0,0,1-2.77-1.74,6.72,6.72,0,0,1-1.18-1.43,5.35,5.35,0,0,1-.63-1.82c-.3-2-.52-3.82-.72-5.75a116,116,0,0,1,0-23,111.34,111.34,0,0,1,1.7-11.35c.39-1.87.82-3.73,1.25-5.57s.85-3.71,1.34-5.55A60.19,60.19,0,0,1,428,353.53a23.63,23.63,0,0,1,7-8.94,25,25,0,0,0-6.29,9.26,59.33,59.33,0,0,0-3.13,10.82c-.75,3.68-1.46,7.45-2.09,11.14s-1,7.45-1.3,11.2a122.24,122.24,0,0,0,.54,22.47c.12,1,.25,2,.39,3,5.44.88,11.39.46,16.78.3A157.3,157.3,0,0,0,459,411.34c2.35-.37,3.94,0,2.57-2.3-1.6-2.7-4-4-6.92-5-2.42-.82-9.31-1-10.72-3.45-.76-1.34.09-2.05,1-2.94,1.35-1.35,4-2.21,5.61-3.24q3-1.89,5.8-4.05a69.52,69.52,0,0,0,18.79-22.2c9-16.7,10.94-36.3,9.17-54.93C482,289.49,475,265.89,467,243.54,458.39,219.39,447.67,196,436.24,173.1Zm-123.14-93c-.94-.49-1.93-.89-2.88-1.34s-2-.79-3-1.07a16.64,16.64,0,0,0-6.15-.83,8.49,8.49,0,0,0-5.36,2.61,62.22,62.22,0,0,0-4.31,4.68,47.94,47.94,0,0,1-4.51,4.62A16.8,16.8,0,0,1,281.36,92a17.8,17.8,0,0,0,5.22-3.61,46.9,46.9,0,0,0,4.25-4.75,47.71,47.71,0,0,1,4.29-4.85,13.12,13.12,0,0,1,2.65-2,10.4,10.4,0,0,1,1.57-.66,7.66,7.66,0,0,1,1.68-.28,17.12,17.12,0,0,1,6.49,1,30.53,30.53,0,0,1,5.94,2.59,54.79,54.79,0,0,1,10.46,7.5c-1.71-1.29-3.46-2.51-5.27-3.65A55.34,55.34,0,0,0,313.1,80.11ZM318.23,96c-2.64.91-5.29,1.74-8,2.57l-4,1.21a22.16,22.16,0,0,0-3.81,1.45A27.57,27.57,0,0,0,299,103.4a10.31,10.31,0,0,1-3.82,1.72,12.34,12.34,0,0,0,1.87-.89,15.06,15.06,0,0,0,1.66-1.22,26.58,26.58,0,0,1,3.4-2.5A18.56,18.56,0,0,1,306,98.82l4-1.25c2.66-.81,5.32-1.62,8-2.36s5.37-1.47,8.09-2.09C323.49,94.13,320.86,95.05,318.23,96Zm33.31,3a15.19,15.19,0,0,0-2-1.52,12.48,12.48,0,0,0-4.51-1.9,15.31,15.31,0,0,0-4.92-.26,22,22,0,0,0-4.94,1.1A14,14,0,0,1,340,94.52a13.26,13.26,0,0,1,5.25,0,13.08,13.08,0,0,1,2.52.84A12.07,12.07,0,0,1,350,96.82a11.51,11.51,0,0,1,1.88,1.81,7.76,7.76,0,0,1,.77,1c.25.36.48.72.71,1.08C352.72,100.17,352.2,99.5,351.54,99ZM349,81.81a26.52,26.52,0,0,0-5.24,2.09A31,31,0,0,0,339,87.05a34.42,34.42,0,0,0-4.22,3.88,29.89,29.89,0,0,1,8.59-7.7,21,21,0,0,1,11.21-3c2,.08,3.85.37,5.77.59s3.82.5,5.71.8c3.76.56,7.66,1,11.27-.5a13.43,13.43,0,0,1-5.57,1.53,38.47,38.47,0,0,1-5.79-.27c-3.82-.39-7.64-1-11.43-1.15A18.08,18.08,0,0,0,349,81.81Z"/><path fill="none"  d="M199.68,246.9a379.41,379.41,0,0,1,27.52-69.12c11-21.27,23.71-42.61,40.14-60.17.52-.57,1.06-1.11,1.6-1.66l-.14,0-4.73-1.8,5-.94a19.08,19.08,0,0,0,3.77-1.12q3.25-3.08,6.72-5.86a68.07,68.07,0,0,1-7.44,1.88,43,43,0,0,1-12.25.75,27.74,27.74,0,0,1-3.7-.62q-5.34,1.86-10.58,4C205,129,181.13,172.4,166.75,203.63c-8.61,18.69-7.78,57.57,11,73,3.91,3.2,9.9.63,15.38-3.34Q195.93,260,199.68,246.9Z"/><path fill="none"  d="M495.35,201c-1.69-2.39-3.28-4.64-4.76-6.94-5-7.8-10.39-15.59-15.56-23.13-5.54-8.05-11.26-16.38-16.62-24.77-11.64-18.21-22.74-33.93-40.69-41.87a126.75,126.75,0,0,0-19-6.46A25.38,25.38,0,0,1,396.21,99a24.93,24.93,0,0,1-5.81,1.1l.65.13c.74.15,1.47.25,2.21.35a27.44,27.44,0,0,0,4.36.33l3.89-.08-2.93,2.35a39.54,39.54,0,0,1-3.38,2.38,26.61,26.61,0,0,1-3.67,1.91c-.26.12-.54.2-.81.31a139.54,139.54,0,0,1,29.43,30.44c6.56,9.19,11.57,19.21,16.63,29.27,5.92,11.76,11.65,23.61,17.05,35.62a486.45,486.45,0,0,1,23.1,61c5.16,4.75,11.15,9.13,15.65,9.32a5,5,0,0,0,4.07-1.58c8.62-9,13.47-37.37,10.25-49.76C505,214.61,500.07,207.71,495.35,201Z"/><path d="M509.8,221.33c-2.08-8-7.12-15.14-12-22-1.67-2.35-3.24-4.58-4.69-6.82-5.06-7.84-10.42-15.65-15.61-23.21-5.52-8-11.23-16.34-16.56-24.68-11.47-18-23.31-34.74-42-43a132.21,132.21,0,0,0-16.81-5.85,17.45,17.45,0,0,0,1.64-1.46,22.19,22.19,0,0,0,2.85-3.48,19.72,19.72,0,0,0,2-4.16l.82-2.48-2.6.66c-1,.25-2,.48-3,.75s-2,.4-3,.61-2,.25-3,.39a28.07,28.07,0,0,1-3,.1,19.2,19.2,0,0,1-6-.87c-.42-.12-.81-.29-1.21-.44a31.9,31.9,0,0,0,7.14-3.06,23.29,23.29,0,0,0,3.9-2.89,22,22,0,0,0,3.25-3.64,24.36,24.36,0,0,0,3.92-9,27.76,27.76,0,0,0,.4-9.84l-.23-1.54-1.14,1.17-3.65,3.73c-1.26,1.2-2.59,2.31-3.88,3.47-.68.53-1.38,1-2.07,1.55a22.17,22.17,0,0,1-2.11,1.48l-2.21,1.32a6.69,6.69,0,0,1-1.13.58l-1.16.53a25.21,25.21,0,0,1-9.78,2.35,48.1,48.1,0,0,1-10.21-1C365.14,70,361.64,69.26,358,69a34.54,34.54,0,0,0-10.9.78A37.45,37.45,0,0,0,337,73.82a42.26,42.26,0,0,0-4.56,3c-.92.7-1.8,1.43-2.66,2.21a29.83,29.83,0,0,0-2.67-4A15,15,0,0,0,326,73.74c-.38-.42-.74-.86-1.14-1.27-.83-.77-1.59-1.62-2.49-2.31a33.21,33.21,0,0,0-11.9-6.4,39.18,39.18,0,0,0-13.33-1.59l-1.68,0-1.69.18a16.21,16.21,0,0,0-1.68.25c-.56.11-1.12.19-1.67.33A30.34,30.34,0,0,0,284,65.3a40.34,40.34,0,0,0-10.65,8.14c-3.08,3.16-5.85,6.52-8.79,9.61a33.85,33.85,0,0,1-9.9,7.67,24,24,0,0,1-5.92,1.89,30.4,30.4,0,0,1-6.26.33l-1.16,0,.19,1.08a15.14,15.14,0,0,0,1,3.12A17.61,17.61,0,0,0,244,99.91a18.53,18.53,0,0,0,4.29,4.67,19,19,0,0,0,3.42,2.06c-2.42.88-4.82,1.8-7.2,2.78-41.65,17.16-65.87,61.27-80.47,93-4.72,10.26-6.62,25.55-5,39.91,1.89,16.29,7.85,29.31,16.78,36.64a9.31,9.31,0,0,0,6.09,2.15c3.35,0,6.94-1.51,10.32-3.61-.37,1.83-.72,3.66-1.07,5.49-4.63,25.51-9,56.07-1.13,82.07-12,.23-45.09-2-53.07-33.32-3.33-13-.95-24.84,6.7-33.22A40.42,40.42,0,0,1,154,290.56a20.06,20.06,0,0,1,3.65-1.37c2.82-.88,6-1.87,7.62-4.36a5.68,5.68,0,0,0,.23-6.43,6.37,6.37,0,0,0-6.6-2.37c-5.74,1.15-20.4,8.05-29.09,22.05-7.44,12-9,26.3-4.65,42.53,11.19,41.66,47.75,46.13,69.07,46.13,2.36,0,4.51-.06,6.43-.12a53.5,53.5,0,0,0,13.9,13.1,54.72,54.72,0,0,0,5.28,3c.46.22,2,1.13,3.24,1.71l-.3.12c-1.79.63-3.6,1.17-5.38,1.81-3.43,1.26-9.09,3.22-6.82,8,1.88,3.91,8,4.8,11.71,5.38a116.92,116.92,0,0,0,20,1c1.44,0,3.41.1,5.39,0a1.91,1.91,0,0,1-.21.38c-.72,1.09-2.44,1.89-4.19,2.6-.88.37-1.81.74-2.77,1.21a8.74,8.74,0,0,0-2.83,2,5.08,5.08,0,0,0-1,1.79,5.4,5.4,0,0,0-.21,2,6.65,6.65,0,0,0,1.35,3.46,12.82,12.82,0,0,0,5.35,3.79,23.61,23.61,0,0,0,6,1.61,48.91,48.91,0,0,0,12-.09,44.5,44.5,0,0,0,5.91-1.19,17.56,17.56,0,0,0,5.66-2.77,24.55,24.55,0,0,0,7.55-9.57c.22-.46.4-.94.61-1.4l.5-1.5c.25-1,.5-1.95.69-2.92s.44-2.19.63-3.28c22.3,4.82,45.24,7.68,68.07,6.77a160.19,160.19,0,0,0,32.55-4.43q3.63-.9,7.19-2a28.92,28.92,0,0,0,3.87,8.22,20.33,20.33,0,0,0,9.19,7.64c.47.2,1,.33,1.46.49s.95.26,1.43.37c.95.24,1.91.42,2.87.59a48.21,48.21,0,0,0,11.67.59c1-.09,1.93-.16,3-.33a23,23,0,0,0,2.95-.69,18.44,18.44,0,0,0,5.57-2.64,9.37,9.37,0,0,0,2.34-2.43,6.56,6.56,0,0,0,1-3.47,5.25,5.25,0,0,0-1.36-3.62A8.89,8.89,0,0,0,431.7,420c-1.87-.9-3.7-1.42-5.29-2.16a8.6,8.6,0,0,1-2.05-1.25,4.22,4.22,0,0,1-.64-.74,2,2,0,0,1-.16-.42l.76.08a143.8,143.8,0,0,0,20.86,0c5.56-.29,11.91-.22,17.3-1.84,3.77-1.14,2.9-4.87.85-7.65-3.27-4.44-9.45-5.46-14.46-6.64l-.43-.13c.94-.57,2-1.32,2.34-1.55A76.39,76.39,0,0,0,462.63,389c14-12.67,21.84-30.36,24.29-48.89,2.85-21.53-1.3-43.22-6.67-64-.57-2.21-1.18-4.42-1.79-6.62,4.58,3.73,9.65,6.83,14,7h.42a7.94,7.94,0,0,0,5.95-2.51C508.43,263.85,513.31,234.84,509.8,221.33ZM177.74,276.62c-18.77-15.42-19.6-54.3-11-73C181.13,172.4,205,129,245.63,112.19q5.24-2.14,10.58-4a27.74,27.74,0,0,0,3.7.62,43,43,0,0,0,12.25-.75,68.07,68.07,0,0,0,7.44-1.88q-3.47,2.79-6.72,5.86a19.08,19.08,0,0,1-3.77,1.12l-5,.94,4.73,1.8.14,0c-.54.55-1.08,1.09-1.6,1.66-16.43,17.56-29.15,38.9-40.14,60.17a379.41,379.41,0,0,0-27.52,69.12q-3.77,13.07-6.56,26.38C187.64,277.25,181.65,279.82,177.74,276.62ZM128,339.84c-4.13-15.4-2.69-28.92,4.3-40.18,9-14.46,23.68-20,27.13-20.69a3.39,3.39,0,0,1,3.53,1.12,2.72,2.72,0,0,1-.26,3.11c-1,1.58-3.56,2.36-6,3.12a23.34,23.34,0,0,0-4.22,1.61,43.12,43.12,0,0,0-11,8.54c-8.36,9.15-11,21.93-7.4,36,8.71,34.12,45.1,35.9,56.94,35.55a72.87,72.87,0,0,0,7.13,15c.14.21.29.42.43.64C179,384.17,139.42,382.34,128,339.84ZM386.22,85.71l.6.44,0,0c.46.27.91.57,1.39.81a18.24,18.24,0,0,0,6.34,1.81c1.1.17,2.19.13,3.29.19s2.19-.1,3.28-.19,2.16-.28,3.23-.47l.22,0c-.17.31-.35.61-.53.89a19.19,19.19,0,0,1-2.4,3,20.42,20.42,0,0,1-6.38,4.43,22.67,22.67,0,0,1-3.79,1.23,26.31,26.31,0,0,1-4,.68c-.79.09-1.6.12-2.4.14q-2.43-.78-4.81-1.72c-1.38-.62-2.77-1.21-4.12-1.9-.68-.35-1.38-.66-2-1s-1.33-.75-2-1.11-1.33-.75-2-1.17l-2-1.2c-1.3-.83-2.57-1.71-3.91-2.54,1,1.16,2.09,2.33,3.23,3.41a45.65,45.65,0,0,0,3.6,3c.62.48,1.26,1,1.9,1.41s1.33.85,2,1.28a45.47,45.47,0,0,0,4.16,2.31,42.55,42.55,0,0,0,9,3.17c.78.18,1.56.34,2.35.46s1.59.24,2.39.33l1.3.09-.29.23c-1,.78-2.07,1.56-3.18,2.24a30,30,0,0,1-3.45,1.85,23.46,23.46,0,0,1-2.46.93c-.4.12-.8.23-1.22.32h-.08a12.73,12.73,0,0,0,3.58-.26,132.89,132.89,0,0,1,14.69,12.47c15.24,15,25,32.85,34.42,51.77,11.43,22.94,22.15,46.29,30.8,70.44,8,22.35,15,46,17.25,69.67,1.77,18.63-.21,38.23-9.17,54.93a69.52,69.52,0,0,1-18.79,22.2q-2.81,2.16-5.8,4.05c-1.64,1-4.26,1.89-5.61,3.24-.88.89-1.73,1.6-1,2.94,1.41,2.48,8.3,2.63,10.72,3.45,2.94,1,5.32,2.32,6.92,5,1.37,2.3-.22,1.93-2.57,2.3a157.3,157.3,0,0,1-19.15,1.45c-5.39.16-11.34.58-16.78-.3-.14-1-.27-2-.39-3a122.24,122.24,0,0,1-.54-22.47c.25-3.75.71-7.48,1.3-11.2s1.34-7.46,2.09-11.14a59.33,59.33,0,0,1,3.13-10.82,25,25,0,0,1,6.29-9.26,23.63,23.63,0,0,0-7,8.94,60.19,60.19,0,0,0-3.84,10.81c-.49,1.84-.91,3.7-1.34,5.55s-.86,3.7-1.25,5.57a111.34,111.34,0,0,0-1.7,11.35,116,116,0,0,0,0,23c.2,1.93.42,3.77.72,5.75a5.35,5.35,0,0,0,.63,1.82,6.72,6.72,0,0,0,1.18,1.43,11.09,11.09,0,0,0,2.77,1.74c1.85.86,3.68,1.41,5.22,2.17a6.25,6.25,0,0,1,1.87,1.28,2.15,2.15,0,0,1,.57,1.58,3.53,3.53,0,0,1-.57,1.91,6.09,6.09,0,0,1-1.29,1.42,5.49,5.49,0,0,0-.23-3.15,6.6,6.6,0,0,0-2.78-3.36,8.53,8.53,0,0,0-2-.77,12.49,12.49,0,0,0-1.87-.39,13.58,13.58,0,0,0-3.88,0,13.63,13.63,0,0,0,3.13,2.29c1.12.61,2.21,1.06,3.05,1.5a9.39,9.39,0,0,1,2.26,1.92,12.46,12.46,0,0,1,1.91,3l-.45-.39a16.53,16.53,0,0,1-4.11,1.87,23,23,0,0,1-5.28.93l-.5,0a2.68,2.68,0,0,0,.45-.93,3.62,3.62,0,0,0-.15-2.18,7.1,7.1,0,0,0-2.48-3,9.91,9.91,0,0,0-3.23-1.62,7.41,7.41,0,0,0-3.66-.16,28.12,28.12,0,0,0,2.61,2.27c.84.67,1.66,1.3,2.49,1.91a23.32,23.32,0,0,1,2.22,1.75,3.25,3.25,0,0,1,.73,1,2.47,2.47,0,0,1,.21,1.55l-.55-.56c-1.22,0-2.43,0-3.65,0a48.25,48.25,0,0,1-5.5-.51c-.91-.14-1.81-.3-2.71-.5l-1.33-.32c-.41-.14-.84-.23-1.24-.39a18.52,18.52,0,0,1-8.2-6.54,27,27,0,0,1-4.48-9.9c-.87-3.6-1.22-7.37-1.83-11.15-.3-1.89-.72-3.76-1.12-5.61s-.8-3.71-1.29-5.56a28.16,28.16,0,0,0-2.09-5.35c-.81-1.71-1.57-3.45-2.32-5.19.61,1.79,1.23,3.59,1.9,5.37a28.28,28.28,0,0,1,1.73,5.35c.38,1.84.66,3.72,1,5.59s.6,3.73.78,5.6c.41,3.58.62,7.22,1.29,10.87a86,86,0,0,1-8.74,2.61c-21.11,5-43.26,5-64.74,2.68A314.62,314.62,0,0,1,283.2,414c.63-3.7,1.27-7.38,2-11,1.55-7.59,3.49-15.19,7.25-22a48.6,48.6,0,0,0-5.2,10.49,116.56,116.56,0,0,0-3.48,11.23c-1,3.79-1.79,7.62-2.61,11.43-.41,1.91-.8,3.82-1.25,5.68-.22.95-.48,1.85-.74,2.75l-.46,1.26c-.2.42-.38.86-.6,1.27a23.24,23.24,0,0,1-7,8.46,15.12,15.12,0,0,1-4.83,2.26,42,42,0,0,1-5.57,1,49.16,49.16,0,0,1-7.48.29l-.56.58a2.56,2.56,0,0,1,.21-1.56,3.42,3.42,0,0,1,.73-1,23.91,23.91,0,0,1,2.23-1.75c.82-.61,1.64-1.24,2.49-1.9a29.86,29.86,0,0,0,2.6-2.28,7.37,7.37,0,0,0-3.65.16,10.06,10.06,0,0,0-3.24,1.62,7.13,7.13,0,0,0-2.47,3,3.59,3.59,0,0,0-.16,2.17,2.79,2.79,0,0,0,.44.92c-.82-.05-1.64-.12-2.45-.22a20.7,20.7,0,0,1-5.23-1.43,14.2,14.2,0,0,1-2.19-1.15l-.46.38a12.46,12.46,0,0,1,1.91-3,9.24,9.24,0,0,1,2.27-1.92c.84-.44,1.92-.89,3-1.5a13.47,13.47,0,0,0,3.14-2.29,13.57,13.57,0,0,0-3.88.05,12.35,12.35,0,0,0-1.88.39,8.46,8.46,0,0,0-2,.77,6.62,6.62,0,0,0-2.79,3.36,5.57,5.57,0,0,0-.23,3.12,6.46,6.46,0,0,1-1.07-1.09,3.58,3.58,0,0,1-.78-1.91,2,2,0,0,1,.5-1.62,6.21,6.21,0,0,1,1.9-1.33c.79-.4,1.67-.75,2.58-1.14a25.27,25.27,0,0,0,2.81-1.33,8.05,8.05,0,0,0,2.66-2.36,6.14,6.14,0,0,0,.77-1.72,13,13,0,0,0,.37-1.59,22.49,22.49,0,0,0,.26-3.11c0-4-.08-7.81,0-11.73s0-7.82-.18-11.73a143.66,143.66,0,0,0-2.45-23.39,61.73,61.73,0,0,0-3.41-11.29c-1.56-3.58-3.66-7.1-6.82-9.46a18,18,0,0,1,3.64,4.51,32,32,0,0,1,2.44,5.24,59.61,59.61,0,0,1,2.71,11.26,160.11,160.11,0,0,1,1.56,23.17c0,3.89-.05,7.77-.11,11.66s-.06,7.88-.17,11.66c0,.48-.05.95-.09,1.4-1,0-1.89,0-2.42,0a154.25,154.25,0,0,1-17.6-.25c-2.75-.21-14.45-.56-15.14-4.63-.63-3.64,11.46-4.83,13.86-6.68,4.66-3.6-6.26-6.18-8.39-7.39-30.11-17.08-31.37-57.25-28.43-87.67.89-9.14,2.27-18.22,3.92-27.25A377.49,377.49,0,0,1,246.5,150.23c7.54-11.82,15.91-23.54,25.87-33.56l.89.09a29.82,29.82,0,0,0,4.33,0,39.8,39.8,0,0,0,8.36-1.56,52.27,52.27,0,0,0,7.83-3c.88-.44,1.75-.91,2.62-1.38l1.07-.57c1.19-.72,2.36-1.48,3.53-2.21-1.28.53-2.56,1-3.82,1.61l-3.86,1.45a63.37,63.37,0,0,1-7.86,2.19,40.19,40.19,0,0,1-8,1c-.75,0-1.51,0-2.25,0,.33-.17.66-.32,1-.5a21.74,21.74,0,0,0,5.33-4.43c3-3.31,5.54-6.67,8.84-9.28a22.93,22.93,0,0,1,5.27-3.21,41.62,41.62,0,0,1,6-2.07,72.33,72.33,0,0,1,12.79-2,49.49,49.49,0,0,0-13.14.31,36.16,36.16,0,0,0-6.49,1.66,23.23,23.23,0,0,0-6,3.22,39.73,39.73,0,0,0-5,4.49c-.84.89-1.64,1.79-2.44,2.69l-.7.25-.58.45c-1.62.41-3.25.79-4.89,1.11-1,.21-2.07.39-3.1.55a41.79,41.79,0,0,1-12,.26,21.47,21.47,0,0,1-10.83-4.36A16.9,16.9,0,0,1,245.4,99a15.87,15.87,0,0,1-1.81-4.22,29.81,29.81,0,0,0,5.5-.24,26.3,26.3,0,0,0,6.49-1.91,36.24,36.24,0,0,0,10.75-7.9c3.13-3.11,5.9-6.44,8.93-9.45a37.68,37.68,0,0,1,10-7.49,27.86,27.86,0,0,1,12-2.74,36,36,0,0,1,12.37,1.52,30.6,30.6,0,0,1,10.83,5.86,30,30,0,0,1,2.28,2.09c.36.37.69.77,1,1.15s.68.78,1,1.19A25.25,25.25,0,0,1,328,82l.93,2,1.52-1.59a31.83,31.83,0,0,1,3.75-3.32,38.31,38.31,0,0,1,4.23-2.81,36.28,36.28,0,0,1,9.35-3.84,31.46,31.46,0,0,1,10.05-.83,101.77,101.77,0,0,1,10.31,1.45,48.12,48.12,0,0,0,10.77.82,27.62,27.62,0,0,0,10.53-2.79l1.23-.6a9.15,9.15,0,0,0,1.19-.65l2.29-1.45a22.31,22.31,0,0,0,2.16-1.6c.71-.55,1.43-1.09,2.12-1.66,1.3-1.22,2.64-2.4,3.9-3.65l2.46-2.65a27.82,27.82,0,0,1-.27,7.67,23.07,23.07,0,0,1-3.41,8.69,20.9,20.9,0,0,1-3,3.64,23,23,0,0,1-3.7,3,32.06,32.06,0,0,1-7,3.42l-.08,0c-.44-.25-.94-.42-1.36-.71a8.91,8.91,0,0,1-2.41-2,7.88,7.88,0,0,0,2,2.55,5.3,5.3,0,0,0,.67.57ZM496.65,271.85a5,5,0,0,1-4.07,1.58c-4.5-.19-10.49-4.57-15.65-9.32a486.45,486.45,0,0,0-23.1-61c-5.4-12-11.13-23.86-17.05-35.62-5.06-10.06-10.07-20.08-16.63-29.27a139.54,139.54,0,0,0-29.43-30.44c.27-.11.55-.19.81-.31a26.61,26.61,0,0,0,3.67-1.91,39.54,39.54,0,0,0,3.38-2.38l2.93-2.35-3.89.08a27.44,27.44,0,0,1-4.36-.33c-.74-.1-1.47-.2-2.21-.35l-.65-.13a24.93,24.93,0,0,0,5.81-1.1,25.38,25.38,0,0,0,2.56-1.15,126.75,126.75,0,0,1,19,6.46c17.95,7.94,29,23.66,40.69,41.87,5.36,8.39,11.08,16.72,16.62,24.77,5.17,7.54,10.53,15.33,15.56,23.13,1.48,2.3,3.07,4.55,4.76,6.94,4.72,6.68,9.6,13.58,11.55,21.06C510.12,234.48,505.27,262.82,496.65,271.85Z"/><path d="M280.05,105.82l.58-.45c-1.24.42-3.14,1-5.47,1.56C276.8,106.61,278.43,106.23,280.05,105.82Z"/><path d="M383.63,109.1c.42-.09.82-.2,1.22-.32"/><path d="M323.91,86.93a54.79,54.79,0,0,0-10.46-7.5,30.53,30.53,0,0,0-5.94-2.59,17.12,17.12,0,0,0-6.49-1,7.66,7.66,0,0,0-1.68.28,10.4,10.4,0,0,0-1.57.66,13.12,13.12,0,0,0-2.65,2,47.71,47.71,0,0,0-4.29,4.85,46.9,46.9,0,0,1-4.25,4.75A17.8,17.8,0,0,1,281.36,92a16.8,16.8,0,0,0,5.55-3.24,47.94,47.94,0,0,0,4.51-4.62,62.22,62.22,0,0,1,4.31-4.68,8.49,8.49,0,0,1,5.36-2.61,16.64,16.64,0,0,1,6.15.83c1,.28,2,.7,3,1.07s1.94.85,2.88,1.34a55.34,55.34,0,0,1,5.54,3.17C320.45,84.42,322.2,85.64,323.91,86.93Z"/><path d="M371.8,82.64a13.43,13.43,0,0,0,5.57-1.53c-3.61,1.54-7.51,1.06-11.27.5-1.89-.3-3.8-.55-5.71-.8s-3.8-.51-5.77-.59a21,21,0,0,0-11.21,3,29.89,29.89,0,0,0-8.59,7.7A34.42,34.42,0,0,1,339,87.05a31,31,0,0,1,4.74-3.15A26.52,26.52,0,0,1,349,81.81a18.08,18.08,0,0,1,5.56-.59c3.79.17,7.61.76,11.43,1.15A38.47,38.47,0,0,0,371.8,82.64Z"/><path d="M351.89,98.63A11.51,11.51,0,0,0,350,96.82a12.07,12.07,0,0,0-2.24-1.41,13.08,13.08,0,0,0-2.52-.84,13.26,13.26,0,0,0-5.25,0,14,14,0,0,0-4.82,1.87,22,22,0,0,1,4.94-1.1,15.31,15.31,0,0,1,4.92.26,12.48,12.48,0,0,1,4.51,1.9,15.19,15.19,0,0,1,2,1.52c.66.53,1.18,1.2,1.83,1.78-.23-.36-.46-.72-.71-1.08A7.76,7.76,0,0,0,351.89,98.63Z"/><path d="M310,97.57l-4,1.25a18.56,18.56,0,0,0-3.91,1.69,26.58,26.58,0,0,0-3.4,2.5,15.06,15.06,0,0,1-1.66,1.22,12.34,12.34,0,0,1-1.87.89A10.31,10.31,0,0,0,299,103.4a27.57,27.57,0,0,1,3.48-2.22,22.16,22.16,0,0,1,3.81-1.45l4-1.21c2.66-.83,5.31-1.66,8-2.57s5.26-1.82,7.86-2.83c-2.72.62-5.41,1.35-8.09,2.09S312.66,96.76,310,97.57Z"/>    </g>    <g id="eye">        <g id="eye-color1">            <path fill="#BA756C"  d="M265.06,168.79l-16.27.91-.49.09c-1.94.33-4,.22-6,.44-3.86.44-7.72.71-11.59.91-1.93.09-3.71.53-5.65.58h-.18c2.22,3.46,4.15,6.83,6.91,9.83a47.38,47.38,0,0,0,10.41,8.15,36.87,36.87,0,0,0,11.85,4.55c4.17.82,8.6,1.64,12.84,1.22a56.61,56.61,0,0,0,6.33-1c2.08-.43,3.95-1.78,5.93-2.53a39.67,39.67,0,0,0,10.89-6.31c3.3-2.64,7.92-5.59,10-9.26,1.77-3,4.44-6.82,5.24-10.42l-20.39,1.2Z"/><path fill="#BA756C"  d="M290,125.25A44.34,44.34,0,0,0,269,117.17a47.18,47.18,0,0,0-22.17,2.63,38.24,38.24,0,0,0-9.75,5.36,35.5,35.5,0,0,0-7.64,8,32,32,0,0,0-4.63,10,52.14,52.14,0,0,0-1.67,11.08,48.58,48.58,0,0,0,.66,11.14,15.29,15.29,0,0,0,.71,2.53,3.79,3.79,0,0,0,.47.93h0c1.9,0,3.82-.11,5.73-.2,3.83-.18,7.5-.14,11.3-.49,1.9-.19,3.94-.66,5.81-.95l.7-.11.61-.13c.42-.09.88-.25,1.31-.36.89-.28,1.78-.58,2.68-.91,3.56-1.31,7.12-2.75,10.61-4.3,1.75-.78,3.76-1.27,5.47-2.11a35.62,35.62,0,0,0,4.59-2.51h.6l7.34-3.57,7.17-3.63,15.33-6.66h0A46.21,46.21,0,0,0,290,125.25Z"/><path fill="#BA756C"  d="M404.65,168.79l16.27.91.5.09c1.94.33,3.87-.42,5.8-.21,3.86.44,7.73.72,11.59.91,1.94.1,3.87,1.18,5.81,1.23h.18a70.33,70.33,0,0,1-7.4,9.78,44.91,44.91,0,0,1-9.92,8.2,36.93,36.93,0,0,1-11.86,4.55,46,46,0,0,1-13,1.07,56.6,56.6,0,0,1-6.29-1.18,37.67,37.67,0,0,1-5.78-2.18,39.38,39.38,0,0,1-10.89-6.31c-3.31-2.64-7.93-5.59-10-9.26-1.77-3-4.45-6.82-5.25-10.42l20.52,1.33Z"/><path fill="#BA756C"  d="M379.77,125.25a44.3,44.3,0,0,1,20.93-8.08,47.2,47.2,0,0,1,22.17,2.63,38.24,38.24,0,0,1,9.75,5.36,35.5,35.5,0,0,1,7.64,8,32.44,32.44,0,0,1,4.63,10,52.13,52.13,0,0,1,1.66,11.08,47.48,47.48,0,0,1-.66,11.14,15.3,15.3,0,0,1-.7,2.53,4.15,4.15,0,0,1-.48.93h0c-1.91,0-3.83-.11-5.74-.2-3.82-.18-7.49-.14-11.29-.49-1.9-.19-4-.66-5.81-.95l-.7-.11-.62-.13c-.41-.09-.87-.25-1.31-.36-.88-.28-1.78-.36-2.67-.69-3.57-1.31-6.92-2.22-10.42-3.77-1.74-.78-3.68-1.93-5.39-2.77s-3.42-1.26-4.84-2.27l-.3-.15-.32-.18-7-3.35-7.53-3.85-15.34-6.66h0A46.33,46.33,0,0,1,379.77,125.25Z"/>        </g>        <g id="eye-shape">            <path fill="none"  d="M265.06,168.79c-11.41.64-22.76,2.13-34.16,2.7q-2.9.15-5.8.23h-.18a70.27,70.27,0,0,0,7.39,9.78,44.73,44.73,0,0,0,9.93,8.2,36.87,36.87,0,0,0,11.85,4.55,43.94,43.94,0,0,0,12.7.48,56.61,56.61,0,0,0,6.33-1,39.8,39.8,0,0,0,17-8.1,33.06,33.06,0,0,0,8.16-9.47,53.41,53.41,0,0,0,4.24-9.78l-17.57,1.2Z"/><path fill="none"  d="M290,125.25A44.3,44.3,0,0,0,269,117.17a47.06,47.06,0,0,0-22.17,2.63,38.24,38.24,0,0,0-9.75,5.36,35.5,35.5,0,0,0-7.64,8,32,32,0,0,0-4.63,10,52.78,52.78,0,0,0-1.67,11.08,48.58,48.58,0,0,0,.66,11.14,15.29,15.29,0,0,0,.71,2.53,3.79,3.79,0,0,0,.47.93c1.93,0,3.85-.1,5.76-.19,5.86-.28,12-.34,17.69-1.65a86.07,86.07,0,0,0,15.33-5.6q2.63-1.17,5.19-2.43c4.15-2.11,8.18-4.29,12.46-6.14l7.52-3.25,15.33-6.66A46.21,46.21,0,0,0,290,125.25Zm-13.14,19c-2,1.22-4.1,2.33-6.16,3.5l-6.23,3.35-6.32,3.2-3.19,1.56c-1,.54-2.13,1.06-3.23,1.55a32.47,32.47,0,0,1-6.86,2.34,16.05,16.05,0,0,1-7.2,0c3.58.92,8.76-2.25,11.81-3.75q6.63-3.26,13.15-6.73c2.35-1.26,4.7-2.52,7.06-3.76a157.23,157.23,0,0,1,19.16-8.82C284.92,139.41,280.89,141.88,276.81,144.26Z"/><path fill="none"  d="M270,160.8h0c-1.73.91-3.46,1.78-5.21,2.61,1.75-.83,3.48-1.7,5.21-2.61Z"/><path fill="#fcfcfc"  d="M302.12,144l-12.35,6.3-7.42,3.78c-4.22,2.11-8.22,4.55-12.4,6.75h0c-1.73.91-3.46,1.78-5.21,2.61-3.51,1.66-7,3.25-10.68,4.64l-.1,0,10-1,17.54-1.67a12.21,12.21,0,0,1-.31-1.33,1.5,1.5,0,0,1-.07-.44,1.39,1.39,0,0,1,0-.46c.2-5,4.16-8.15,9.13-8.35h.12a3.76,3.76,0,0,1,1-.55l.08,0,.19-.08a1.32,1.32,0,0,1,1.4.32l2.26,1.67c.57.42,1.16.81,1.18,1.61,0,0,0,.1,0,.14a9.06,9.06,0,0,1,1.08,5.56c0,.17,0,.35-.07.52l6.14-.54a38.31,38.31,0,0,0-1.11-18.4C302.37,144.69,302.23,144.33,302.12,144Z"/><path d="M298,130.13a46.21,46.21,0,0,0-13.76-10.58c-11.32-6-26.37-6.39-38.31-2.16a42.81,42.81,0,0,0-10.53,5.55,36.51,36.51,0,0,0-4.53,3.91,38.57,38.57,0,0,0-3.84,4.62,34.54,34.54,0,0,0-5.12,10.85,55.69,55.69,0,0,0-1.74,11.73,50.44,50.44,0,0,0,.74,11.86,18.19,18.19,0,0,0,.85,3,7.15,7.15,0,0,0,.87,1.61,3.21,3.21,0,0,0,1,.9,2.34,2.34,0,0,0,.53.2c3.55,9,11.05,16.54,20,21.26.37.19.74.39,1.11.57l1.15.55.57.26.43.18c19.35,8.17,42.45.74,53.57-16.94,4.05-6.44,6.71-13.95,6.31-21.63C306.87,146.7,304,137.26,298,130.13Zm.47,46.24a44.31,44.31,0,0,1-13.76,12.7,42.72,42.72,0,0,1-20.94,6,43.72,43.72,0,0,1-38.61-23.24c26.05-1.91,52.62-3.81,78.67-5.72a38.81,38.81,0,0,1-3.12,6.77C300.05,174.07,299.3,175.24,298.5,176.37Zm5.08-12.92-6.14.54c0-.17.05-.35.07-.52a9.06,9.06,0,0,0-1.08-5.56,4.84,4.84,0,0,1-1.13,2.8c-1.64,1.87-4.54.92-5.73-1a3.68,3.68,0,0,1,.8-4.92h-.12c-5,.2-8.93,3.32-9.13,8.35a1.39,1.39,0,0,0,0,.46,1.5,1.5,0,0,0,.07.44,12.21,12.21,0,0,0,.31,1.33l-17.54,1.67-10,1,.1,0c3.65-1.39,7.17-3,10.68-4.64,1.75-.83,3.48-1.7,5.21-2.61h0c4.18-2.2,8.18-4.64,12.4-6.75l7.42-3.78,12.35-6.3c.11.36.25.72.35,1.08A38.31,38.31,0,0,1,303.58,163.45ZM289,149.52c-8.3,4-16.73,8.08-25.17,11.82a86.07,86.07,0,0,1-15.33,5.6c-5.74,1.31-11.83,1.37-17.69,1.65-1.91.09-3.83.16-5.76.19a3.79,3.79,0,0,1-.47-.93,15.29,15.29,0,0,1-.71-2.53,48.58,48.58,0,0,1-.66-11.14,52.78,52.78,0,0,1,1.67-11.08,32,32,0,0,1,4.63-10,35.5,35.5,0,0,1,7.64-8,38.24,38.24,0,0,1,9.75-5.36A47.06,47.06,0,0,1,269,117.17,44.3,44.3,0,0,1,290,125.25c6.16,4.47,9.78,10.46,13.1,17.41Z"/><path fill="#fff"  d="M295.26,156.16,293,154.49a1.32,1.32,0,0,0-1.4-.32l-.19.08-.08,0a3.76,3.76,0,0,0-1,.55,3.68,3.68,0,0,0-.8,4.92c1.19,1.88,4.09,2.83,5.73,1a4.84,4.84,0,0,0,1.13-2.8s0-.09,0-.14C296.42,157,295.83,156.58,295.26,156.16Z"/><path d="M262.58,149.26q-6.52,3.48-13.15,6.73c-3.05,1.5-8.23,4.67-11.81,3.75a16.05,16.05,0,0,0,7.2,0,32.47,32.47,0,0,0,6.86-2.34c1.1-.49,2.18-1,3.23-1.55l3.19-1.56,6.32-3.2,6.23-3.35c2.06-1.17,4.14-2.28,6.16-3.5,4.08-2.38,8.11-4.85,12-7.58a157.23,157.23,0,0,0-19.16,8.82C267.28,146.74,264.93,148,262.58,149.26Z"/><path fill="none"  d="M404.45,168.79c11.41.64,22.76,2.13,34.16,2.7,1.94.1,3.87.18,5.81.23h.18a70.33,70.33,0,0,1-7.4,9.78,44.91,44.91,0,0,1-9.92,8.2,36.93,36.93,0,0,1-11.86,4.55,43.91,43.91,0,0,1-12.7.48,57,57,0,0,1-6.33-1,39.85,39.85,0,0,1-16.95-8.1,32.9,32.9,0,0,1-8.16-9.47A53.41,53.41,0,0,1,367,166.4l17.57,1.2Z"/><path fill="none"  d="M365.23,142.86l15.34,6.66,7.51,3.25c4.28,1.85,8.32,4,12.46,6.14q2.56,1.26,5.19,2.43a86.17,86.17,0,0,0,15.34,5.6c5.73,1.31,11.83,1.37,17.68,1.65,1.91.09,3.83.16,5.76.19a4.15,4.15,0,0,0,.48-.93,15.3,15.3,0,0,0,.7-2.53,47.48,47.48,0,0,0,.66-11.14,52.13,52.13,0,0,0-1.66-11.08,32.44,32.44,0,0,0-4.63-10,35.5,35.5,0,0,0-7.64-8,38.24,38.24,0,0,0-9.75-5.36,47.07,47.07,0,0,0-22.17-2.63,44.3,44.3,0,0,0-20.93,8.08A46.33,46.33,0,0,0,365.23,142.86Zm15.49-6.18a157.79,157.79,0,0,1,19.15,8.82c2.37,1.24,4.72,2.5,7.07,3.76,4.35,2.32,8.72,4.56,13.15,6.73,3.05,1.5,8.23,4.67,11.81,3.75a16.05,16.05,0,0,1-7.2,0,32.75,32.75,0,0,1-6.87-2.34c-1.09-.49-2.18-1-3.23-1.55l-3.18-1.56-6.32-3.2-6.24-3.35c-2.05-1.17-4.13-2.28-6.15-3.5C388.63,141.88,384.6,139.41,380.72,136.68Z"/><path d="M362.18,155.9c-.4,7.68,2.26,15.19,6.31,21.63,11.12,17.68,34.22,25.11,53.57,16.94l.42-.18.58-.26,1.15-.55c.37-.18.74-.38,1.11-.57,8.95-4.72,16.46-12.22,20-21.26a2.54,2.54,0,0,0,.53-.2,3.21,3.21,0,0,0,1-.9,7.08,7.08,0,0,0,.86-1.61,19.26,19.26,0,0,0,.86-3,51,51,0,0,0,.74-11.86,55.69,55.69,0,0,0-1.74-11.73,34.76,34.76,0,0,0-5.12-10.85,39.54,39.54,0,0,0-3.84-4.62,36.6,36.6,0,0,0-4.54-3.91,42.46,42.46,0,0,0-10.53-5.55c-11.94-4.23-27-3.88-38.3,2.16a46.26,46.26,0,0,0-13.77,10.58C365.51,137.26,362.65,146.7,362.18,155.9Zm6.6,17a39.6,39.6,0,0,1-3.13-6.77c26.05,1.91,52.62,3.81,78.67,5.72a43.7,43.7,0,0,1-38.6,23.24,42.79,42.79,0,0,1-21-6A44.53,44.53,0,0,1,371,176.37C370.22,175.24,369.47,174.07,368.78,172.87ZM367,145.05c.11-.36.24-.72.36-1.08l12.35,6.3,7.41,3.78c4.23,2.11,8.23,4.55,12.4,6.75h0q2.58,1.37,5.21,2.61c3.5,1.66,7,3.25,10.68,4.64l.09,0-10-1L388,165.41a10.21,10.21,0,0,0,.3-1.33,1.91,1.91,0,0,0,.08-.44,1.72,1.72,0,0,0,0-.46c-.2-5-4.16-8.15-9.14-8.35h-.11a3.69,3.69,0,0,1,.8,4.92c-1.2,1.88-4.09,2.83-5.73,1a4.77,4.77,0,0,1-1.13-2.8,9,9,0,0,0-1.08,5.56c0,.17,0,.35.06.52l-6.13-.54A38.3,38.3,0,0,1,367,145.05Zm-.57-2.39c3.32-6.95,6.94-12.94,13.1-17.41a44.3,44.3,0,0,1,20.93-8.08,47.07,47.07,0,0,1,22.17,2.63,38.24,38.24,0,0,1,9.75,5.36,35.5,35.5,0,0,1,7.64,8,32.44,32.44,0,0,1,4.63,10,52.13,52.13,0,0,1,1.66,11.08,47.48,47.48,0,0,1-.66,11.14,15.3,15.3,0,0,1-.7,2.53,4.15,4.15,0,0,1-.48.93c-1.93,0-3.85-.1-5.76-.19-5.85-.28-11.95-.34-17.68-1.65a86.17,86.17,0,0,1-15.34-5.6c-8.43-3.74-16.86-7.78-25.16-11.82Z"/><path d="M406.94,149.26c4.35,2.32,8.72,4.56,13.15,6.73,3.05,1.5,8.23,4.67,11.81,3.75a16.05,16.05,0,0,1-7.2,0,32.75,32.75,0,0,1-6.87-2.34c-1.09-.49-2.18-1-3.23-1.55l-3.18-1.56-6.32-3.2-6.24-3.35c-2.05-1.17-4.13-2.28-6.15-3.5-4.08-2.38-8.11-4.85-12-7.58a157.79,157.79,0,0,1,19.15,8.82C402.24,146.74,404.59,148,406.94,149.26Z"/><path fill="none"  d="M404.37,169.08c11.42.64,22.77,2.13,34.16,2.7,1.94.1,3.87.18,5.81.23h.18a70.33,70.33,0,0,1-7.4,9.78,44.91,44.91,0,0,1-9.92,8.2,37,37,0,0,1-11.85,4.55,43.59,43.59,0,0,1-12.7.48,56.26,56.26,0,0,1-6.33-1,39.8,39.8,0,0,1-17-8.1,32.9,32.9,0,0,1-8.16-9.47,53.41,53.41,0,0,1-4.24-9.78l17.57,1.2Z"/><path fill="none"  d="M365.15,143.15l15.34,6.66,7.51,3.25c4.29,1.86,8.32,4,12.46,6.14,1.71.84,3.45,1.65,5.19,2.43a86.17,86.17,0,0,0,15.34,5.6c5.73,1.31,11.83,1.37,17.68,1.65,1.92.09,3.83.16,5.76.19a4.15,4.15,0,0,0,.48-.93,15.3,15.3,0,0,0,.7-2.53,47.48,47.48,0,0,0,.66-11.14,52.13,52.13,0,0,0-1.66-11.08,32.44,32.44,0,0,0-4.63-10,35.71,35.71,0,0,0-7.64-8,37.91,37.91,0,0,0-9.75-5.35,47.08,47.08,0,0,0-22.17-2.64,44.3,44.3,0,0,0-20.93,8.08A46.4,46.4,0,0,0,365.15,143.15ZM380.64,137a157.79,157.79,0,0,1,19.15,8.82c2.37,1.24,4.72,2.5,7.07,3.76q6.52,3.48,13.15,6.73c3.05,1.5,8.23,4.67,11.81,3.75a16.05,16.05,0,0,1-7.2,0,32.75,32.75,0,0,1-6.87-2.34c-1.09-.49-2.18-1-3.23-1.55l-3.18-1.56L405,151.4l-6.24-3.35c-2-1.17-4.13-2.28-6.15-3.5C388.55,142.17,384.52,139.7,380.64,137Z"/><path fill="none"  d="M399.48,161.09h0q2.58,1.36,5.21,2.61-2.62-1.24-5.21-2.61Z"/><path fill="#fcfcfc"  d="M367.32,144.26l12.35,6.3,7.41,3.78c4.23,2.11,8.23,4.55,12.4,6.75h0q2.58,1.36,5.21,2.61c3.5,1.66,7,3.25,10.68,4.64l.09,0-10-1L388,165.7a12.6,12.6,0,0,0,.31-1.32,1.63,1.63,0,0,0,.07-.45,1.72,1.72,0,0,0,0-.46c-.2-5-4.16-8.15-9.14-8.35h-.11a4,4,0,0,0-1-.55l-.07,0-.19-.08a1.31,1.31,0,0,0-1.4.32l-2.27,1.67c-.57.42-1.16.81-1.17,1.61,0,.05,0,.1,0,.14a9,9,0,0,0-1.08,5.56c0,.17,0,.35.06.52l-6.13-.53a38.33,38.33,0,0,1,1.1-18.41C367.07,145,367.2,144.62,367.32,144.26Z"/><path fill="#fff"  d="M374.17,156.45l2.27-1.67a1.31,1.31,0,0,1,1.4-.32l.19.08.07,0a4,4,0,0,1,1,.55,3.69,3.69,0,0,1,.8,4.92c-1.2,1.88-4.09,2.83-5.73,1a4.84,4.84,0,0,1-1.13-2.8s0-.09,0-.14C373,157.26,373.6,156.87,374.17,156.45Z"/><path d="M406.86,149.55q6.52,3.48,13.15,6.73c3.05,1.5,8.23,4.67,11.81,3.75a16.05,16.05,0,0,1-7.2,0,32.75,32.75,0,0,1-6.87-2.34c-1.09-.49-2.18-1-3.23-1.55l-3.18-1.56L405,151.4l-6.24-3.35c-2-1.17-4.13-2.28-6.15-3.5-4.08-2.38-8.11-4.85-12-7.58a157.79,157.79,0,0,1,19.15,8.82C402.16,147,404.51,148.29,406.86,149.55Z"/>        </g>        <g id="eye-color2">            <g opacity="0" ><path fill="#DDFF94"  d="M292.91,147.82c-.14.46-.21.94-.36,1.41a15.55,15.55,0,0,1-1.35,2.86c-.52.94-1,1.9-1.54,2.83-.24.41-.49.8-.77,1.2-.14.21-.28.41-.43.61s-.45.47-.45.6c-.2.25-.39.5-.6.74-5.88,7.05-13.9,9.8-22.69,6.54-8.53-3.18-14.2-10.41-14.65-19.54a1.27,1.27,0,0,1,0-.28,2.66,2.66,0,0,1,0-.3,23.29,23.29,0,0,1,19.05-21.81A19,19,0,0,1,280.54,124c-15.3-7.7-34.36-2.93-39.3,15.33a20.54,20.54,0,0,0-.66,6.53,29.4,29.4,0,0,0,10.48,20.24c8.59,7.08,21.5,6.67,31,1.77,7.19-3.7,10-12.61,10.92-20.46C293,147.57,293,147.69,292.91,147.82Z"/></g><g opacity="0" ><path fill="#DDFF94"  d="M416.66,141.76c-.23.62-.44,1.25-.69,1.86a26.23,26.23,0,0,1-2,3.66,31.67,31.67,0,0,1-2.54,3.43c-5.88,7-13.91,9.8-22.69,6.54-8.54-3.18-14.21-10.41-14.66-19.54a2.46,2.46,0,0,1,0-.28,1.45,1.45,0,0,1,0-.3,23.28,23.28,0,0,1,19-21.81,19,19,0,0,1,11.42,1.35c-15.3-7.7-34.36-2.93-39.3,15.33a21.13,21.13,0,0,0-.66,6.53,29.44,29.44,0,0,0,10.48,20.24c8.59,7.08,21.5,6.67,31,1.77,6.91-3.55,9.73-12,10.78-19.66C416.83,141.13,416.76,141.51,416.66,141.76Z"/></g>        </g>    </g>    <g id="nose-mouth">        <path fill="#2d2821"  d="M362.77,216.52c0-5.82-.49-10.62-5.89-13.7-4.66-2.66-10.48-3.18-15.73-3.24-9-.11-19.62,1-27.94,5.17a4.89,4.89,0,0,0-2.32.8c-8.75,4.56-6.11,11.74-4.73,17.55,1.82,7.65,3,18.55,11.42,21.84,8.82,3.46,19.11-.21,28-1.33,3-.38,6-.69,8.9-1.31s4.08-2.44,5.65-5.2C363.73,230.85,362.74,223.5,362.77,216.52Z"/><path d="M364.48,217.33c0-3.28.22-6.85-1.1-9.93-2-4.69-6.69-7.24-11.39-8.54-7.3-2-15.27-1.67-22.7-.66a81.47,81.47,0,0,0-10.06,1.91,57.26,57.26,0,0,0-9.48,3.73c-4.88,2.29-7.45,7.3-7.49,12.56s1.52,10.15,3.1,15c.26.8.53,1.6.79,2.41,2.1,6.55,6.34,12.34,13.41,13.55a45.13,45.13,0,0,0,18.34-.73c5.74-1.4,11.81-1.12,17.53-2.63,5.4-1.43,8.48-9.28,9-14.37C364.83,225.61,364.45,221.35,364.48,217.33Zm-11,24c-2.84.6-5.75.89-8.63,1.25-8.65,1.08-18.63,4.59-27.19,1.28-8.13-3.15-9.32-13.58-11.08-20.91-1.22-5.08-2-12.61,3.4-15.59a55.63,55.63,0,0,1,5.4-2.85,42.25,42.25,0,0,1,5.39-1.84,63.43,63.43,0,0,1,11.45-1.94c2.77-.23,5.54-.31,8.31-.28,5.09.06,10.73.56,15.26,3.11,5.23,2.94,5.73,7.53,5.71,13.11,0,6.67.93,13.7-2.53,19.69C357.43,239,356.44,240.71,353.47,241.32Z"/><path d="M322,228c-.45-.28-.91-.54-1.37-.78a6.36,6.36,0,0,0-3.45-.77c-1.69.17-4.14,1.83-2.79,3.77A28.6,28.6,0,0,0,330,241.46a1.51,1.51,0,0,0,1.69-2.2A28.1,28.1,0,0,0,322,228Z"/><path d="M351.65,224.66a37.25,37.25,0,0,0-5.23,11.25,3.73,3.73,0,0,0,.26,3,2.32,2.32,0,0,0,3.32.37A13.24,13.24,0,0,0,354.39,225,1.52,1.52,0,0,0,351.65,224.66Z"/><path fill="none"  d="M355.82,253.09c-.06.07,0,0,0,0s0,0,0,0l0-.05Z"/><path fill="#fffaf0"  d="M302.92,246.24l-.23-.25c.05.14.1.27.16.41.33.93.66,1.79,1,2.76a29.56,29.56,0,0,1,.75,2.87,52.82,52.82,0,0,1,.77,5.79l.44,5.77h0l8.26-4a88.09,88.09,0,0,0-7.21-9.1Q304.91,248.36,302.92,246.24Z"/><path d="M303.79,245.46c-1.29-1.45-2.46-3-3.69-4.5l-.65.58h0l-.64.59a10.72,10.72,0,0,1,1.2,2.3c.34.86.69,1.74,1,2.64.62,1.82,1.26,3.57,1.69,5.39s.85,3.7,1.3,5.58a34.15,34.15,0,0,0,1.78,5.55h0l-.44-5.77a52.82,52.82,0,0,0-.77-5.79,29.56,29.56,0,0,0-.75-2.87c-.31-1-.64-1.83-1-2.76-.06-.14-.11-.27-.16-.41l.23.25q2,2.12,3.91,4.29a88.09,88.09,0,0,1,7.21,9.1,70,70,0,0,0-6.55-9.65C306.3,248.44,305.05,247,303.79,245.46Z"/><path fill="#fffaf0"  d="M361.42,256.3c-.07-.08-.14-.06-.25-.25a1.13,1.13,0,0,1,0-.36l0-.27-.05-.52c-.09-.7-.13-1.44-.17-2.16a37.69,37.69,0,0,1-.07-4.39,36.76,36.76,0,0,1,.69-4.36v0a30.05,30.05,0,0,0-2.3,4.06c-.64,1.35-1.14,2.77-1.79,4.16-.16.34-.33.69-.5,1l-.12.25,0,.13,0,.09a.64.64,0,0,1-.07.12l0,0a.56.56,0,0,1-.16.1.05.05,0,0,1,0,0c-.19.34-.41.66-.63,1h0l6.21,1.86-.4-.37Z"/><path d="M362.53,239.34a43.58,43.58,0,0,0-2.76,3.78,28.69,28.69,0,0,0-2.17,4.19,35.68,35.68,0,0,0-1.55,4.38c-.1.37-.19.74-.27,1.13l-.06.3,0,.21a.47.47,0,0,0,0,.13.49.49,0,0,0,.11.33.74.74,0,0,0,.16.12c-.05.35-.1.7-.14,1.06h0c.22-.33.44-.65.63-1a.05.05,0,0,0,0,0,.56.56,0,0,0,.16-.1l0,0a.64.64,0,0,0,.07-.12l0-.09,0-.13.12-.25c.17-.33.34-.68.5-1,.65-1.39,1.15-2.81,1.79-4.16a30.05,30.05,0,0,1,2.3-4.06v0a36.76,36.76,0,0,0-.69,4.36,37.69,37.69,0,0,0,.07,4.39c0,.72.08,1.46.17,2.16l.05.52,0,.27a1.13,1.13,0,0,0,0,.36c.11.19.18.17.25.25l.2.16.4.37c-.07-.17-.14-.33-.23-.5l-.14-.25c0-.06-.14-.19-.1-.16s0-.1.07-.18l.07-.27a5.35,5.35,0,0,0,.11-.55c.12-.74.16-1.44.23-2.16.14-1.43.24-2.86.46-4.23s.59-2.71.91-4.13.64-2.83.87-4.27l.59-3.72Zm-6.75,13.8s0,0,0,0l0,0,0,.05S355.79,253.14,355.78,253.14Z"/><path d="M281.86,261.55a1.5,1.5,0,0,0,0-3,1.5,1.5,0,0,0,0,3Z"/><path d="M289,268a1.5,1.5,0,0,0,0-3,1.5,1.5,0,0,0,0,3Z"/><path d="M298.72,258.31a1.5,1.5,0,0,0,0-3,1.5,1.5,0,0,0,0,3Z"/><path d="M277.32,251.17a1.5,1.5,0,0,0,0-3,1.5,1.5,0,0,0,0,3Z"/><path d="M289,244.69a1.5,1.5,0,0,0,0-3,1.5,1.5,0,0,0,0,3Z"/><path d="M288.53,256.53a1.5,1.5,0,0,0,0-3,1.5,1.5,0,0,0,0,3Z"/><path d="M366.47,253.18a1.5,1.5,0,0,0,0-3,1.5,1.5,0,0,0,0,3Z"/><path d="M375.24,238.21a1.5,1.5,0,0,0,0-3,1.5,1.5,0,0,0,0,3Z"/><path d="M375.24,247.93a1.5,1.5,0,0,0,0-3,1.5,1.5,0,0,0,0,3Z"/><path d="M376.54,257.66a1.5,1.5,0,0,0,0-3,1.5,1.5,0,0,0,0,3Z"/><path d="M386.91,255.07a1.5,1.5,0,0,0,0-3,1.5,1.5,0,0,0,0,3Z"/><path d="M387.56,244a1.5,1.5,0,0,0,0-3,1.5,1.5,0,0,0,0,3Z"/><path d="M383.67,249.23a1.5,1.5,0,0,0,0-3,1.5,1.5,0,0,0,0,3Z"/><path d="M370.7,260.9a1.5,1.5,0,0,0,0-3,1.5,1.5,0,0,0,0,3Z"/><path d="M298.67,266.39a9.31,9.31,0,0,0,4.5-1.28c1.38-.75,2.77-1.58,4.15-2.38,2.78-1.6,5.5-3.24,8.05-5.05s4.89-3.94,7.53-5.92a22.08,22.08,0,0,1,9.22-4.3,24.22,24.22,0,0,1,10.12.58,54.42,54.42,0,0,1,9.2,3.44c5.83,2.74,11.55,5.6,17.19,8.72-6.12-2-12.14-4.24-18.1-6.56a65.31,65.31,0,0,0-8.95-2.84,30.34,30.34,0,0,0-4.5-.66,19.21,19.21,0,0,0-4.43.27,19.59,19.59,0,0,0-8.1,3.65c-2.58,1.73-5.05,3.86-7.89,5.56A68.07,68.07,0,0,1,308,264c-1.49.62-2.93,1.29-4.48,1.84A9,9,0,0,1,298.67,266.39Z"/>    </g></svg>