<!--  ~ Copyright (C) 2018 Baidu, Inc. All Rights Reserved.  --><svg viewBox="0 0 640 480" xmlns="http://www.w3.org/2000/svg">    <g id="back-ground-cl">        <rect fill="none" width="640" height="480" />        <ellipse opacity="0.1" cx="331.93" cy="418.82" rx="168.39" ry="32.01"/>    </g>    <g id="body">        <defs>            <clipPath id="outline">                <path fill="none"  d="M412.51,86.52a11.78,11.78,0,0,0-2.32-2.75c-2.85.47-4.27.74-3.57,7.08s9.42,16.68,24.5,16.68c.81,0,1.63,0,2.48-.09a28.52,28.52,0,0,0,20.1-10.61c.2-.26.4-.52.59-.79a23,23,0,0,0,4-11,30.21,30.21,0,0,0-8.09-23.83c-6.2-6.37-15.69-8.28-24.77-5a59.25,59.25,0,0,0-6.31,2.7l-.23.13c.09.82.43,2.73,1,7.69l.1-.06a55.67,55.67,0,0,1,6.77-3c7.41-2.73,15-.07,19.29,6.77,3.56,5.66,4.12,12.57,1.46,18-3.39,7-11.6,10.9-19.52,9.35C419.46,96.22,415.11,90.15,412.51,86.52Z"/><path fill="none"  d="M419.56,137.49c1.1,1.52,2.15,3.07,3.17,4.64-.43-8.08-1.16-20.37-2.2-33.9a28.55,28.55,0,0,1-7.85-4.21c-4.75-3.6-8-8.55-8.49-12.9-.89-8.05,1.77-9.13,5.64-9.77,1.77-.29,3,1.4,4.67,3.75A37,37,0,0,0,419,90.55c-4.57-49-9.46-60-12-62.14a1.2,1.2,0,0,0-.94-.38c-9.84,1.23-36.86,43.84-47.94,62.64a101.45,101.45,0,0,1,17.72,7.59C393.21,107.69,408,121.56,419.56,137.49Z"/><path fill="none"  d="M307.9,90.41c-2.51-4-10.95-17.35-20.47-30C270.89,38.52,262.88,34.1,259.1,34.1a3.79,3.79,0,0,0-1.63.34c-2.94,1.41-8.51,12-12.84,67.24-1.5,19.25-2.41,38.34-2.88,50.44a215.64,215.64,0,0,1,25.85-34.59C278.85,105.54,292.43,95.62,307.9,90.41Z"/><path fill="none"  d="M445.67,397.9c4.15-3,8.74-5.13,12.75-8.43a70.25,70.25,0,0,0,17.73-22c8.67-16.77,10.48-36.28,8.64-54.84-2.41-24.3-9.67-48.43-18-71.3-3-8.15-6.18-16.2-9.55-24.19a49.52,49.52,0,0,1-6.7,3.1,79.84,79.84,0,0,0,8-5.23,49,49,0,0,0,7-6.26,21.24,21.24,0,0,0,4.71-7.73,11.81,11.81,0,0,0-.5-8.53,13.67,13.67,0,0,0-2.3-3.79,19.3,19.3,0,0,0-3.26-3.12,26.31,26.31,0,0,0-3.89-2.45q-2.07-1-4.27-1.88a58.51,58.51,0,0,0-9.12-2.51,82.85,82.85,0,0,0-9.48-1.33c.47,0,.94,0,1.42-.08l-2.36-4.77C427,153.39,417,135.33,401.43,120.25c-13.82-13.37-30.73-24.14-49.51-28.88a77.59,77.59,0,0,0-57.83,7.82c-20,11.46-34.63,30.21-46.94,49.3a369.59,369.59,0,0,0-20.83,36.89c1.72-.37,3.46-.71,5.2-1-6.22,2-12.39,4.16-18.38,6.64a88.21,88.21,0,0,0-8.73,4.12,38.77,38.77,0,0,0-4,2.52,15.7,15.7,0,0,0-3.29,3.09,5.9,5.9,0,0,0-1.28,3.84,16.15,16.15,0,0,0,.68,4.49,48.26,48.26,0,0,0,3.64,8.82,164.25,164.25,0,0,0,10.16,16.65c-1-1.07-2-2.18-2.95-3.31a381.67,381.67,0,0,0-13.69,52.52c-1.65,9-3,18.08-3.92,27.2-2.95,30.34-1.79,70.38,27.91,87.8a53.54,53.54,0,0,0,7,3.46c.75.31,2.37.54,2.88,1.31.83,1.26,0,2-1.08,2.7-2.47,1.51-14.63,3.19-13.72,6.89,1,4.22,11.94,4.52,15,4.78a152.52,152.52,0,0,0,17.5.3c1,0,2.09,0,3.17-.06.11-1.08.14-2.21.16-3.35,0-3.94.05-7.95.15-11.9s.16-7.91.16-11.86a174,174,0,0,0-1.37-23.62A64.46,64.46,0,0,0,245,355.91a32.82,32.82,0,0,0-2.38-5.39A16.83,16.83,0,0,0,239,345.9a16.94,16.94,0,0,1,4,4.43,32.27,32.27,0,0,1,2.67,5.36,64.11,64.11,0,0,1,3.12,11.54,158.1,158.1,0,0,1,2.1,23.78c.23,8-.05,15.87.1,23.8a23.1,23.1,0,0,1-.58,6.21c-.08.27-.16.52-.26.8a5.37,5.37,0,0,1-.42.87,6,6,0,0,1-1.18,1.41,11.54,11.54,0,0,1-2.8,1.74,45.72,45.72,0,0,0-5.21,2.44,3.13,3.13,0,0,0-1.37,1.6,3,3,0,0,0-.09,1,4.88,4.88,0,0,0,.27,1.08,5.87,5.87,0,0,0,2.06,2.39,5.48,5.48,0,0,1,.22-3.52,6.65,6.65,0,0,1,2.74-3.24,8.9,8.9,0,0,1,1.92-.76,13.62,13.62,0,0,1,1.85-.43,16,16,0,0,1,3.82-.26,16,16,0,0,1-3.21,2.08c-.54.29-1.16.53-1.65.78a15.73,15.73,0,0,0-1.47.69,8.67,8.67,0,0,0-2.32,2.06,11.36,11.36,0,0,0-1.72,3.09l.23-.19c.38.25.78.48,1.19.7a20.36,20.36,0,0,0,5.29,1.78,25,25,0,0,0,2.82.36c.38,0,.77,0,1.15.06a2.5,2.5,0,0,1-.64-1.2,3.62,3.62,0,0,1,.21-2.08,7.22,7.22,0,0,1,2.45-2.88,11,11,0,0,1,3.17-1.65,8.11,8.11,0,0,1,3.57-.35c-.94.8-1.84,1.44-2.71,2.08l-2.56,1.88a15.28,15.28,0,0,0-2.25,1.87,3.22,3.22,0,0,0-.68,1.13,2.54,2.54,0,0,0-.07,1.56l.3-.32c.32,0,.64,0,1,0a48.82,48.82,0,0,0,5.8-.21,44,44,0,0,0,5.72-.92,17.06,17.06,0,0,0,2.68-.81,14.34,14.34,0,0,0,2.46-1.27A22.32,22.32,0,0,0,278,426c.22-.43.45-.85.64-1.29l.3-.66.23-.65a12.56,12.56,0,0,0,.43-1.35c.13-.46.27-.92.37-1.41.48-1.89.86-3.83,1.28-5.77.81-3.87,1.62-7.77,2.58-11.63s2.08-7.68,3.44-11.42a49.56,49.56,0,0,1,5.2-10.71l-1.39,2.63-1.19,2.71c-.37.92-.71,1.85-1.06,2.77s-.63,1.87-.94,2.8A116.29,116.29,0,0,0,285,403.53c-.76,3.63-1.41,7.29-2.05,11a316.46,316.46,0,0,0,33.09,5.44c21.95,2.37,44.63,2.42,66.18-2.89,2.66-.65,5.3-1.4,7.91-2.23-.15-.76-.28-1.52-.39-2.27-.52-3.56-.72-7.09-1.19-10.57-.23-1.73-.53-3.49-.8-5.23s-.57-3.5-1-5.2a37.21,37.21,0,0,0-1.73-5c-.63-1.65-1.22-3.32-1.8-5,.69,1.63,1.4,3.26,2.14,4.86a36.4,36.4,0,0,1,2,4.95c.49,1.73.85,3.46,1.23,5.2s.76,3.45,1.09,5.21c.62,3.52.95,7.06,1.58,10.49a38.26,38.26,0,0,0,1.25,5,26.75,26.75,0,0,0,2.09,4.67,22.28,22.28,0,0,0,6.69,7.5,15,15,0,0,0,4.47,2.06,41.38,41.38,0,0,0,5.08,1,48.33,48.33,0,0,0,8.42.38l.31.31h0a2.62,2.62,0,0,0-.07-1.56,3.4,3.4,0,0,0-.69-1.13,14.77,14.77,0,0,0-2.25-1.87l-2.56-1.88c-.87-.64-1.77-1.28-2.7-2.08a7.93,7.93,0,0,1,3.56.36,10.63,10.63,0,0,1,3.17,1.64,7.18,7.18,0,0,1,2.45,2.89,3.42,3.42,0,0,1,.21,2.07,2.53,2.53,0,0,1-.63,1.2l1.11-.06a22.59,22.59,0,0,0,5-.89,16.67,16.67,0,0,0,4.35-2l.25.2a11.16,11.16,0,0,0-1.73-3.08,8.31,8.31,0,0,0-2.31-2.06,14.68,14.68,0,0,0-1.48-.7c-.48-.25-1.11-.49-1.65-.78a15.16,15.16,0,0,1-3.21-2.08,16,16,0,0,1,3.82.26,13.28,13.28,0,0,1,1.85.43,8.52,8.52,0,0,1,1.92.76,6.55,6.55,0,0,1,2.74,3.24,5.48,5.48,0,0,1,.23,3.5,7.91,7.91,0,0,0,1.41-1.28,4.54,4.54,0,0,0,.87-1.83,2.87,2.87,0,0,0-1.55-3.26,28.13,28.13,0,0,0-4.64-2,24,24,0,0,1-2.56-1.17,8.3,8.3,0,0,1-2.4-1.93,6.75,6.75,0,0,1-.48-.71,4.47,4.47,0,0,1-.35-.83,9.48,9.48,0,0,1-.29-1.49c-.11-.95-.16-1.86-.18-2.76-.05-1.81,0-3.6,0-5.38.12-3.56.38-7.11.7-10.65.62-7.07,1.53-14.12,2.78-21.12.65-3.49,1.36-7,2.31-10.4a47.66,47.66,0,0,1,1.63-5.08,21.23,21.23,0,0,1,1.12-2.42,7.43,7.43,0,0,1,1.62-2.11,7.18,7.18,0,0,0-1.46,2.19,22.22,22.22,0,0,0-.94,2.46c-.53,1.68-1,3.39-1.35,5.11-.75,3.45-1.29,6.94-1.76,10.44-.95,7-1.6,14-2.06,21.08-.21,3.52-.37,7-.45,10.56,0,1.75,0,3.51,0,5.24,0,.23,0,.46,0,.69,5.9.87,12.12.57,18,.37a139.7,139.7,0,0,0,19-1.57c2.82-.49,3.2-.31,1.75-3-1.38-2.56-4.41-3.86-7-4.74-2.38-.8-4.85-1.22-7.28-1.83-1-.25-2.68-.48-3.21-1.5C443.69,399.32,444.71,398.59,445.67,397.9Z"/><path fill="none"  d="M164.26,327a17,17,0,0,0,5.41,9.44l7.42,6.85-8.84-4.88c-.31-.17-30.25-17-37-46.49-2.89,4.56-8.56,16.4-5.76,36l.24,1.68-1.67-.3c-.21,0-4-.8-6.8-6.54.43,7.76,2.52,20.07,10.7,29.95,7.83,9.47,19.61,14.86,35,16l5.13.39-4.76,2a81.61,81.61,0,0,1-8.27,2.87,76,76,0,0,0,37.54-2.25c-4.12-10.7-5.77-22.39-6.21-33.77A33.19,33.19,0,0,1,164.26,327Z"/><path d="M419.64,69.17h0l-.18,0Z"/><path d="M452.75,396.6A76,76,0,0,0,464,387.8c13.41-12.75,20.76-30.18,23-48.34,2.74-21.86-1.67-43.93-7.23-65A434.42,434.42,0,0,0,459.38,216a42.23,42.23,0,0,0,7.6-5.84,25.59,25.59,0,0,0,3.21-3.81,17.62,17.62,0,0,0,2.32-4.53,14,14,0,0,0-.45-10.2,19.81,19.81,0,0,0-1.18-2.29,20.87,20.87,0,0,0-1.53-2.07,19.54,19.54,0,0,0-3.72-3.44,30.81,30.81,0,0,0-8.92-4.28,49.18,49.18,0,0,0-9.56-1.89c-1.85-.18-3.7-.28-5.55-.29q-2.79-5.67-5.62-11.3c-3.36-6.66-6.74-13.27-10.57-19.62-.37-7.42-1.14-21.45-2.36-37.4a32.2,32.2,0,0,0,8,1c.87,0,1.77,0,2.7-.1a31,31,0,0,0,21.85-11.55c.22-.28.44-.57.64-.86a25.45,25.45,0,0,0,4.5-12.11A32.7,32.7,0,0,0,452,59.55c-6.87-7.06-17.36-9.21-27.41-5.56-6.59,2.38-6.85,3.12-6.74,4.14,0,.12,1.44,10.37,1.48,10.73l.09.19.21.12c5.19-1.32,9.44-4.79,15.13-3.74a14.17,14.17,0,0,1,9.24,6.4c3.11,5,3.62,11,1.33,15.65-2.87,5.89-10.12,9.33-16.85,8a18.22,18.22,0,0,1-6.79-2.81c-2.74-29.93-7-61-13.07-66.14a3.6,3.6,0,0,0-2.82-.94c-12.54,1.57-43.47,53.14-50.05,64.33a82,82,0,0,0-33.65-2.85,74.92,74.92,0,0,0-11.81,2.54c-2.05-3.3-10.87-17.36-20.9-30.64-15.86-21-26.66-29.78-33-26.75-2.26,1.09-9.13,4.39-14.22,69.26-1.71,21.83-2.64,43.46-3.05,55-4.22,7.11-8.17,14.36-11.9,21.61q-2.07,4-4,8c-3.62.88-7.21,1.91-10.75,3.15a70.11,70.11,0,0,0-9.14,3.87,34.28,34.28,0,0,0-4.32,2.62,17.66,17.66,0,0,0-3.85,3.56,8.57,8.57,0,0,0-1.32,2.51c-.07.23-.15.47-.21.71l-.1.69a10.7,10.7,0,0,0-.08,1.37,17.47,17.47,0,0,0,.85,5.15,44.79,44.79,0,0,0,4.18,9.1A85,85,0,0,0,204,227c.5.66,1,1.31,1.52,2q-3.08,9-5.7,18.09-5.13,17.8-8.49,36c-3.14,17.24-5.44,34.81-5,52.38a30.47,30.47,0,0,1-22.44-13l-1.77-2.58-.44,3.1a17,17,0,0,0,1.9,9.39c-9.27-6.67-26.65-21.81-30.49-43.69l-.43-2.45L131,288.12c-.47.51-11.12,12.51-8.22,37.84-1.7-1.3-4.21-4.31-5.45-11.13l-1.48-8.15-.94,8.23c-.1.92-2.43,22.9,11.16,39.34,7.35,8.91,17.95,14.4,31.55,16.37-2.82,1-6.22,1.94-8.32,1.94H142l6.82,2.37a67.07,67.07,0,0,0,20.54,2.93A77.05,77.05,0,0,0,193.52,374a65.78,65.78,0,0,0,4.87,9.34,52.9,52.9,0,0,0,21.1,19.21c.92.46,1.85.89,2.79,1.3a9.19,9.19,0,0,0,1.25.53l.49.2c-.49.16-1,.36-1.45.52-1.7.59-3.42,1.12-5.11,1.72-3.31,1.19-9.12,3.12-6.74,7.75,2.05,4,8.63,4.75,12.48,5.28a124,124,0,0,0,19.36.86c1.38,0,3.38.11,5.38,0,0,.08-.06.17-.08.24a3,3,0,0,1-.24.47,3.79,3.79,0,0,1-.72.85,9.48,9.48,0,0,1-2.25,1.36,42.87,42.87,0,0,0-5.54,2.6,5.5,5.5,0,0,0-2.34,2.88,5.42,5.42,0,0,0-.2,1.94,7.07,7.07,0,0,0,.44,1.8,7.44,7.44,0,0,0,2.1,2.8,13.08,13.08,0,0,0,2.71,1.81,22.51,22.51,0,0,0,6,2,28.13,28.13,0,0,0,3.08.38c1,.08,2,.13,3,.15a47.51,47.51,0,0,0,6.08-.28,45.38,45.38,0,0,0,6-1.05,18.51,18.51,0,0,0,3-1,16.24,16.24,0,0,0,2.79-1.49,23.63,23.63,0,0,0,8-9.35c.22-.47.45-.92.65-1.4l.3-.7.25-.75a13.1,13.1,0,0,0,.44-1.49c.12-.5.26-1,.35-1.48.31-1.39.57-2.78.82-4.17l.39.09c22.74,4.9,46.19,7.78,69.49,6.66a158.3,158.3,0,0,0,31.67-4.54q3.35-.86,6.64-1.91l.18.65a28,28,0,0,0,2.11,5.06,23.44,23.44,0,0,0,7.15,8.35,17.15,17.15,0,0,0,5.1,2.44,46.75,46.75,0,0,0,5.33,1.12,49.33,49.33,0,0,0,10.86.35c.91-.07,1.8-.16,2.74-.32a22.39,22.39,0,0,0,2.72-.63,18.81,18.81,0,0,0,5.16-2.33,10.9,10.9,0,0,0,2.24-2,6.92,6.92,0,0,0,1.35-2.93,5.27,5.27,0,0,0-.39-3.33,6.07,6.07,0,0,0-2.25-2.37,30,30,0,0,0-5.07-2.22,10.06,10.06,0,0,1-4-2.36c-.1-.12-.21-.28-.28-.38a2.4,2.4,0,0,1-.17-.39c0-.14-.08-.3-.12-.47l.91.09a142.87,142.87,0,0,0,21.2.05c5.56-.29,11.61-.36,17-1.79,4.09-1.08,2.59-5.48.27-8-3.66-4-9.54-4.72-14.51-6-.16,0-.32-.1-.48-.15.34-.21.64-.43.79-.52C450,398.32,451.38,397.48,452.75,396.6,428,97.9c7.92,1.55,16.13-2.38,19.52-9.35,2.66-5.45,2.1-12.36-1.46-18-4.31-6.84-11.88-9.5-19.29-6.77a55.67,55.67,0,0,0-6.77,3l-.1.06c-.54-5-.88-6.87-1-7.69l.23-.13a59.25,59.25,0,0,1,6.31-2.7c9.08-3.29,18.57-1.38,24.77,5a30.21,30.21,0,0,1,8.09,23.83,23,23,0,0,1-4,11c-.19.27-.39.53-.59.79a28.52,28.52,0,0,1-20.1,10.61c-.85.06-1.67.09-2.48.09-15.08,0-23.8-10.41-24.5-16.68s.72-6.61,3.57-7.08a11.78,11.78,0,0,1,2.32,2.75C415.11,90.15,419.46,96.22,428,97.9,406.1,28a1.2,1.2,0,0,1,.94.38c2.53,2.15,7.42,13.12,12,62.14a37,37,0,0,1-4.53-5.45c-1.68-2.35-2.9-4-4.67-3.75-3.87.64-6.53,1.72-5.64,9.77.49,4.35,3.74,9.3,8.49,12.9a28.55,28.55,0,0,0,7.85,4.21c1,13.53,1.77,25.82,2.2,33.9-1-1.57-2.07-3.12-3.17-4.64-11.53-15.93-26.35-29.8-43.68-39.23a101.45,101.45,0,0,0-17.72-7.59C369.24,71.87,396.26,29.26,406.1,28,244.63,101.68c4.33-55.22,9.9-65.83,12.84-67.24a3.79,3.79,0,0,1,1.63-.34c3.78,0,11.79,4.42,28.33,26.34,9.52,12.62,18,26,20.47,30-15.47,5.21-29,15.13-40.3,27.12a215.64,215.64,0,0,0-25.85,34.59C242.22,140,243.13,120.93,244.63,101.68,155.05,374a81.61,81.61,0,0,0,8.27-2.87l4.76-2-5.13-.39c-15.41-1.18-27.19-6.57-35-16-8.18-9.88-10.27-22.19-10.7-29.95,2.83,5.74,6.59,6.5,6.8,6.54l1.67.3-.24-1.68c-2.8-19.6,2.87-31.44,5.76-36,6.78,29.5,36.72,46.32,37,46.49l8.84,4.88-7.42-6.85a17,17,0,0,1-5.41-9.44A33.19,33.19,0,0,0,186.38,338c.44,11.38,2.09,23.07,6.21,33.77A76,76,0,0,1,155.05,374,289.33,26.67c.53,1,2.24,1.25,3.21,1.5,2.43.61,4.9,1,7.28,1.83,2.62.88,5.65,2.18,7,4.74,1.45,2.72,1.07,2.54-1.75,3a139.7,139.7,0,0,1-19,1.57c-5.9.2-12.12.5-18-.37,0-.23,0-.46,0-.69-.07-1.73-.07-3.49,0-5.24.08-3.52.24-7,.45-10.56.46-7,1.11-14.08,2.06-21.08.47-3.5,1-7,1.76-10.44.37-1.72.82-3.43,1.35-5.11a22.22,22.22,0,0,1,.94-2.46,7.18,7.18,0,0,1,1.46-2.19,7.43,7.43,0,0,0-1.62,2.11,21.23,21.23,0,0,0-1.12,2.42,47.66,47.66,0,0,0-1.63,5.08c-.95,3.43-1.66,6.91-2.31,10.4-1.25,7-2.16,14.05-2.78,21.12-.32,3.54-.58,7.09-.7,10.65-.06,1.78-.09,3.57,0,5.38,0,.9.07,1.81.18,2.76a9.48,9.48,0,0,0,.29,1.49,4.47,4.47,0,0,0,.35.83,6.75,6.75,0,0,0,.48.71,8.3,8.3,0,0,0,2.4,1.93,24,24,0,0,0,2.56,1.17,28.13,28.13,0,0,1,4.64,2,2.87,2.87,0,0,1,1.55,3.26,4.54,4.54,0,0,1-.87,1.83,7.91,7.91,0,0,1-1.41,1.28,5.48,5.48,0,0,0-.23-3.5,6.55,6.55,0,0,0-2.74-3.24,8.52,8.52,0,0,0-1.92-.76,13.28,13.28,0,0,0-1.85-.43,16,16,0,0,0-3.82-.26,15.16,15.16,0,0,0,3.21,2.08c.54.29,1.17.53,1.65.78a14.68,14.68,0,0,1,1.48.7,8.31,8.31,0,0,1,2.31,2.06,11.16,11.16,0,0,1,1.73,3.08l-.25-.2a16.67,16.67,0,0,1-4.35,2,22.59,22.59,0,0,1-5,.89l-1.11.06a2.53,2.53,0,0,0,.63-1.2,3.42,3.42,0,0,0-.21-2.07,7.18,7.18,0,0,0-2.45-2.89,10.63,10.63,0,0,0-3.17-1.64,7.93,7.93,0,0,0-3.56-.36c.93.8,1.83,1.44,2.7,2.08l2.56,1.88a14.77,14.77,0,0,1,2.25,1.87,3.4,3.4,0,0,1,.69,1.13,2.62,2.62,0,0,1,.07,1.56h0l-.31-.31a48.33,48.33,0,0,1-8.42-.38,41.38,41.38,0,0,1-5.08-1,15,15,0,0,1-4.47-2.06,22.28,22.28,0,0,1-6.69-7.5,26.75,26.75,0,0,1-2.09-4.67,38.26,38.26,0,0,1-1.25-5c-.63-3.43-1-7-1.58-10.49-.33-1.76-.72-3.47-1.09-5.21s-.74-3.47-1.23-5.2a36.4,36.4,0,0,0-2-4.95c-.74-1.6-1.45-3.23-2.14-4.86.58,1.68,1.17,3.35,1.8,5a37.21,37.21,0,0,1,1.73,5c.39,1.7.67,3.45,1,5.2s.57,3.5.8,5.23c.47,3.48.67,7,1.19,10.57.11.75.24,1.51.39,2.27-2.61.83-5.25,1.58-7.91,2.23-21.55,5.31-44.23,5.26-66.18,2.89A316.46,316.46,0,0,1,283,414.5c.64-3.68,1.29-7.34,2.05-11A116.29,116.29,0,0,1,287.9,392c.31-.93.59-1.88.94-2.8s.69-1.85,1.06-2.77l1.19-2.71,1.39-2.63a49.56,49.56,0,0,0-5.2,10.71c-1.36,3.74-2.46,7.57-3.44,11.42s-1.77,7.76-2.58,11.63c-.42,1.94-.8,3.88-1.28,5.77-.1.49-.24.95-.37,1.41a12.56,12.56,0,0,1-.43,1.35l-.23.65-.3.66c-.19.44-.42.86-.64,1.29a22.32,22.32,0,0,1-7.42,8.42,14.34,14.34,0,0,1-2.46,1.27,17.06,17.06,0,0,1-2.68.81,44,44,0,0,1-5.72.92,48.82,48.82,0,0,1-5.8.21c-.31,0-.63,0-1,0l-.3.32a2.54,2.54,0,0,1,.07-1.56,3.22,3.22,0,0,1,.68-1.13,15.28,15.28,0,0,1,2.25-1.87l2.56-1.88c.87-.64,1.77-1.28,2.71-2.08a8.11,8.11,0,0,0-3.57.35,11,11,0,0,0-3.17,1.65,7.22,7.22,0,0,0-2.45,2.88,3.62,3.62,0,0,0-.21,2.08,2.5,2.5,0,0,0,.64,1.2c-.38,0-.77,0-1.15-.06a25,25,0,0,1-2.82-.36,20.36,20.36,0,0,1-5.29-1.78c-.41-.22-.81-.45-1.19-.7l-.23.19a11.36,11.36,0,0,1,1.72-3.09,8.67,8.67,0,0,1,2.32-2.06A15.73,15.73,0,0,1,247,429c.49-.25,1.11-.49,1.65-.78a16,16,0,0,0,3.21-2.08,16,16,0,0,0-3.82.26,13.62,13.62,0,0,0-1.85.43,8.9,8.9,0,0,0-1.92.76,6.65,6.65,0,0,0-2.74,3.24,5.48,5.48,0,0,0-.22,3.52,5.87,5.87,0,0,1-2.06-2.39,4.88,4.88,0,0,1-.27-1.08,3,3,0,0,1,.09-1,3.13,3.13,0,0,1,1.37-1.6,45.72,45.72,0,0,1,5.21-2.44,11.54,11.54,0,0,0,2.8-1.74,6,6,0,0,0,1.18-1.41,5.37,5.37,0,0,0,.42-.87c.1-.28.18-.53.26-.8a23.1,23.1,0,0,0,.58-6.21c-.15-7.93.13-15.83-.1-23.8a158.1,158.1,0,0,0-2.1-23.78,64.11,64.11,0,0,0-3.12-11.54,32.27,32.27,0,0,0-2.67-5.36,16.94,16.94,0,0,0-4-4.43,16.83,16.83,0,0,1,3.65,4.62,32.82,32.82,0,0,1,2.38,5.39,64.46,64.46,0,0,1,2.55,11.51A174,174,0,0,1,248.91,391c0,3.95-.08,7.9-.16,11.86s-.13,8-.15,11.9c0,1.14,0,2.27-.16,3.35-1.08,0-2.17,0-3.17.06a152.52,152.52,0,0,1-17.5-.3c-3.09-.26-14-.56-15-4.78-.91-3.7,11.25-5.38,13.72-6.89,1.07-.66,1.91-1.44,1.08-2.7-.51-.77-2.13-1-2.88-1.31a53.54,53.54,0,0,1-7-3.46C188,381.35,186.8,341.31,189.75,311c.89-9.12,2.27-18.19,3.92-27.2a381.67,381.67,0,0,1,13.69-52.52c.95,1.13,1.93,2.24,2.95,3.31a164.25,164.25,0,0,1-10.16-16.65,48.26,48.26,0,0,1-3.64-8.82,16.15,16.15,0,0,1-.68-4.49,5.9,5.9,0,0,1,1.28-3.84,15.7,15.7,0,0,1,3.29-3.09,38.77,38.77,0,0,1,4-2.52,88.21,88.21,0,0,1,8.73-4.12c6-2.48,12.16-4.6,18.38-6.64-1.74.28-3.48.62-5.2,1a369.59,369.59,0,0,1,20.83-36.89c12.31-19.09,26.91-37.84,46.94-49.3a77.59,77.59,0,0,1,57.83-7.82c18.78,4.74,35.69,15.51,49.51,28.88C417,135.33,427,153.39,436.55,172.6l2.36,4.77c-.48,0-1,0-1.42.08a82.85,82.85,0,0,1,9.48,1.33,58.51,58.51,0,0,1,9.12,2.51q2.21.84,4.27,1.88a26.31,26.31,0,0,1,3.89,2.45,19.3,19.3,0,0,1,3.26,3.12,13.67,13.67,0,0,1,2.3,3.79,11.81,11.81,0,0,1,.5,8.53,21.24,21.24,0,0,1-4.71,7.73,49,49,0,0,1-7,6.26,79.84,79.84,0,0,1-8,5.23,49.52,49.52,0,0,0,6.7-3.1c3.37,8,6.58,16,9.55,24.19,8.32,22.87,15.58,47,18,71.3,1.84,18.56,0,38.07-8.64,54.84a70.25,70.25,0,0,1-17.73,22c-4,3.3-8.6,5.44-12.75,8.43C444.71,398.59,443.69,399.32,444.38,400.64Z"/>            </clipPath>        </defs>        <g clip-path="url(#outline)">            <rect fill="#9287C6" width="640" height="480" />        </g>    </g>    <g id="pattern">        <g clip-path="url(#outline)">            <g opacity="0.6" ><path fill="#FF8431"  d="M502.33,335.08a151.07,151.07,0,0,1-15.05,4.07c-13.31,2.79-28.61,6-42.28,4.92,25.63,2.13,53.69.69,82-4.21,10.57-1.83,45.11-15.55,45.11-15.55L565.4,309s-29.87,13.55-37.48,16.54C519.41,328.87,511,332.28,502.33,335.08Z"/><path fill="#FF8431"  d="M518.46,316.56c13.41-6.75,28.61-18.11,29.61-27.31l-5.9-7.56c-2.44,1.84-4.87,3.67-7.35,5.48-37.7,27.5-86,49.2-132.19,57.3,24-3,48.75-8.22,73.42-14.05C490.32,327.05,505.05,323.32,518.46,316.56Z"/><path fill="#FF8431"  d="M474.38,296.75c-10.24,10.35-26.95,18.09-42.91,25.34,28.69-4,58.29-15.41,79.89-30.87,13-9.3,30.41-21.92,21.25-28.87l-7-6.47c-6.75,7.51-15.47,17.11-26.73,22.46-10,4.73-19.62,9.28-30.21,12.88-19,6.46-35.32,16.19-55.24,19.48C435.25,312.11,452.78,304.77,474.38,296.75Z"/><path fill="#FF8431"  d="M142.42,284.22c34.3,4.54,68.6,18.58,102.9,23.11-30.86-14.11-63.15-25.08-102.57-34.78l-.31,1.87c-1.31,1.76-2.09,3.73-3.41,5.49-.71,1-2.52,2.44-1.22,3.42S139.61,283.85,142.42,284.22Z"/><path fill="#FF8431"  d="M188.84,311.91c8.17-.31,14.56-.48,22.95-.58,11.31-.13,41.44,2.69,50.88,3.22a699.71,699.71,0,0,0-73.41-9.46Z"/><path fill="#FF8431"  d="M188.55,324.1a209.78,209.78,0,0,0,47-4.5l3.24-1.81a187.59,187.59,0,0,1-50-.51Z"/><path fill="#FF8431"  d="M635.49,320.67c-4.73-3.26-13.08-3.72-21-4.05,8.36-2.43,14.49-8.37,15.79-13.59s-1.34-9.76-5-13.57l-4.51,2c-20.93,18.19-42.72,31.67-69.09,40.1a835.27,835.27,0,0,1-117.82,28.09c3.53-.57,7.3.11,10.83.32,6.93.43,14.12-.46,21.08-1,20.21-1.52,40.38-3.66,60.28-7.55A402.09,402.09,0,0,0,567.93,341c12.71-4,24.77-9.17,38.42-7.39,8,1,16.15,4.35,24.72.77C639,331,640.23,323.92,635.49,320.67Z"/><path fill="#FF8431"  d="M187.87,341l.84,12.5c18.26,3.26,35.21,4.72,51.71,1.6l-8.1-1C217.17,349.79,203,345.41,187.87,341Z"/><path fill="#FF8431"  d="M250.45,402.64c6.6-.2,14.43-.48,21-.68a117.86,117.86,0,0,1-21-4.22Z"/><path fill="#FF8431"  d="M250.46,415.08a8.88,8.88,0,0,0,2.54.2,45.63,45.63,0,0,0,12.71-2.34,52,52,0,0,1-15.08-2.76Z"/><path fill="#FF8431"  d="M422.77,399.58A88.1,88.1,0,0,1,409,400.64a10.5,10.5,0,0,0,.93.58c3.61,2.29,7,5.25,11.46,5.19,2,0,1.1-2.62,1.34-4.61Z"/><path fill="#FF8431"  d="M422,413.09a33.53,33.53,0,0,1-11-.73A63.4,63.4,0,0,0,418,416a8.36,8.36,0,0,0,4.13.62c.95-.3.38-1.62-.09-2.37Z"/><path fill="#FF8431"  d="M192.68,369.56a75.9,75.9,0,0,0,18-1.6L190.46,362Z"/></g>            <g opacity="0.6" ><path fill="#FF8431"  d="M285,418.84c2.41-25.61,27.2-49.28,50.64-49.63s49.12,18.76,51.63,48.25c.13,1.49,1.2.46-.05,1.63-1.41,1.32-6.67,1.94-9.66,2.8-14.13,4.06-27.65,4.48-43.86,4.36-16.51-.12-33.22-4.21-48.23-7.41"/></g>        </g>    </g>    <g id="mask">        <path opacity="0.1"  d="M285.39,396.05s14.86,8.75,54,9.36,48.87-8.55,48.87-8.55l2.85,18.73s-25.25,8.56-52.33,6.52-50.91-3.66-57.22-6.92Z"/><path opacity="0.1"  d="M251.67,139.88s0-.25,0-.7c-7.19,9.48-17.71,25.45-28.06,47.06-1.68.07-25,7.4-28.15,15.55-2.4,6.11,11.61,25.46,11.32,26.45-3.24,9.91-6.2,20.47-8.74,31.66C183.39,324.52,188,349.23,194,370.68s32.51,32.46,32.51,32.46-13.78,3.65-14.74,7.37c-2.77,10.81,38.15,7.66,38.15,7.66l-.26-18.71s-34.21,7.87-47.52-47.79,20.64-115.94,44.53-177.3,66.79-83.9,66.79-83.9a90.33,90.33,0,0,0-20.34,8l-18.82,13.66Z"/><path opacity="0.2"  d="M403.86,118,406,95.72a15.11,15.11,0,0,1-1.76-5.36c-.48-4.36.1-5.72,1.32-7.1-.15-5.82-.75-29.12-1.46-35.83,0-.4-.08-.81-.13-1.22h0C398.3,45,371,96.3,371,96.3l23.35,14.06,19.82,22.19s-.07-1.35-.21-3.72C410.66,124.68,407,120.48,403.86,118Z"/><path opacity="0.2"  d="M293.1,98.46l4-4a112.13,112.13,0,0,0-14.1,8.8s-14.52-45.62-17.64-55.8c-.11-.34-.22-.67-.33-1a2,2,0,0,0-2,.57c-10.79,11.17-11.37,84.27-11.4,92.16,1-1.34,2-2.56,2.84-3.64C264.25,123.53,274.31,108.69,293.1,98.46Z"/><path fill="#ffce00"  d="M412.17,83.69c-.64-2.24-5.73-.42-6.54,0,0,0,.48.48.46-.42-1.22,1.38-2.3,2.24-1.82,6.6A17.55,17.55,0,0,0,406,95.72l.14-1.45s6,10,14.53,13l0,.38a32.54,32.54,0,0,0,10.69,1.76c.88,0,1.78,0,2.7-.1A29,29,0,0,0,458.16,93c3.58-7.65,3.68-18.29-2.46-28.17-14.46-23.25-36.49-7.11-36.74-7l-.32.53,1.08,10.26.15-.48c.09-.06,8.95-5.19,16.53-3.68a12.51,12.51,0,0,1,7.79,5.42c4.34,6.73,4.58,13.9,1.12,19C442,93.74,434.93,97.35,429,96.2c-4.23-.83-7.38-2.15-9.69-4.41,0,.35-1.47-1-1.47-1S412.77,85.79,412.17,83.69Zm26.58,16.82c12.63-4.34,19.82-13.17,19.82-26.74,0,0,7.33,17.65-11.13,29.46s-46.84-2.85-40.86-17.79c0,0,1.22.41,4.75,6.38S426.13,104.86,438.75,100.51Z"/><path opacity="0.1"  d="M297.29,94.27l-.16.16a77.56,77.56,0,0,1,11.29-4.91S289.18,61.07,284.8,55.58c-6.38-8-17.24-20-22.27-21.45s-6.1.67-7.46,3.66c0,0,6.72-.5,10,8.66C274.05,48.22,297.29,94.27,297.29,94.27Z"/><path opacity="0.2"  d="M283,103.23a112.13,112.13,0,0,1,14.1-8.8l.16-.16s-23.24-46-32.23-47.82c.11.31.22.64.33,1C268.51,57.61,283,103.23,283,103.23Z"/><path opacity="0.1"  d="M283,103.23a112.13,112.13,0,0,1,14.1-8.8l.16-.16s-23.24-46-32.23-47.82c.11.31.22.64.33,1C268.51,57.61,283,103.23,283,103.23Z"/><path opacity="0.1"  d="M410.36,82.29c1.81-.16,2.19.67,3.86,3a52.62,52.62,0,0,0,5,5.49c-.24-1.79-1.12-10.23-3-28.28-2.31-21.59-7.2-35-9.51-35.16S399.25,32,399.25,32c2.7-2.18,3.94,6.73,4.75,14.26C406.43,46.75,408.63,64.44,410.36,82.29Z"/><path opacity="0.2"  d="M405.59,83.76c1.1-1.23,2.7-1.66,4.54-2h.23c-1.73-17.85-3.93-35-6.36-35.58.05.41.09.82.13,1.22C404.84,54.14,405.44,77.94,405.59,83.76Z"/><path opacity="0.1"  d="M405.59,83.76c1.1-1.23,2.7-1.66,4.54-2h.23c-1.73-17.85-3.93-35-6.36-35.58.05.41.09.82.13,1.22C404.84,54.14,405.44,77.94,405.59,83.76Z"/><path fill="#ffce00"  d="M409.86,82.29c-.08,0,.35-.5.27-.49-1.84.3-2.94.23-4,1.46,0,.9-.46.42-.46.42.81-.41,6.92-.58,8.28,1.32a83.11,83.11,0,0,0,5.43,6.79s0-.16-.07-.51a37.75,37.75,0,0,1-4.2-5.12C413.4,83.83,411.67,82.13,409.86,82.29Z"/><path opacity="0.1"  d="M414,128.83c4.94,6.19,9,12.27,9,12.27l-2.28-33.42a28.57,28.57,0,0,1-8.44-4.61C413.1,114.08,413.68,123.77,414,128.83Z"/><path opacity="0.2"  d="M406,95.72,403.86,118c3.11,2.45,6.8,6.65,10.11,10.8-.29-5.06-.87-14.75-1.69-25.76A23.67,23.67,0,0,1,406,95.72Z"/><path opacity="0.1"  d="M406,95.72,403.86,118c3.11,2.45,6.8,6.65,10.11,10.8-.29-5.06-.87-14.75-1.69-25.76A23.67,23.67,0,0,1,406,95.72Z"/><path fill="#ffce00"  d="M406.17,94.27,406,95.72a23.67,23.67,0,0,0,6.25,7.35,28.57,28.57,0,0,0,8.44,4.61l0-.38C412.14,104.31,406.17,94.27,406.17,94.27Z"/><path opacity="0.1"  d="M406.17,94.27,406,95.72a23.67,23.67,0,0,0,6.25,7.35,28.57,28.57,0,0,0,8.44,4.61l0-.38C412.14,104.31,406.17,94.27,406.17,94.27Z"/><path fill="#ffce00"  d="M411.33,91.82c-3.53-6-4.75-6.38-4.75-6.38-6,14.94,22.4,29.6,40.86,17.79s11.13-29.46,11.13-29.46c0,13.57-7.19,22.4-19.82,26.74S414.86,97.8,411.33,91.82Z"/><path opacity="0.1"  d="M411.33,91.82c-3.53-6-4.75-6.38-4.75-6.38-6,14.94,22.4,29.6,40.86,17.79s11.13-29.46,11.13-29.46c0,13.57-7.19,22.4-19.82,26.74S414.86,97.8,411.33,91.82Z"/><g opacity="0.1" ><path d="M484.43,337.09c.24,1.7-3.5,6.76-4.43,8.49-1.82,3.4-3.68,6.78-5.67,10.08a108.4,108.4,0,0,1-13.23,18.12A62.8,62.8,0,0,1,450,383.24a61.18,61.18,0,0,1-6.25,3.67,33.52,33.52,0,0,1-5.53,2.51c-4,1.16-6.15-2.21-7.33-5.52a39.79,39.79,0,0,1-2.34-17.54c.54-4.89,1.56-7.23,2.75-12.36l-2.14,2.43c-3.07,11.13-4.58,22.56-6,34a4.58,4.58,0,0,0,.26,2.19,3.36,3.36,0,0,0-.88.73c-2.06,2.52-.69,11.1-.82,14.3a.73.73,0,0,0,.1.46c.15.18.45.14.69.07A107.5,107.5,0,0,0,447,398.76c9.48-5.29,16.41-12.76,22.8-21.4,3.19-4.31,7.4-8.23,9.2-13.28C482.09,355.37,485.7,346.24,484.43,337.09Z"/></g>        <path fill="#fff" opacity="0.1"  d="M345.46,90S374,94.45,399,118.28s39.1,58.1,39.1,58.1l.61-.07-.22,1.32s28.66,1.2,31.92,17.55c1.13,5.67-1.13,10.17-4.39,13.78-6.14,6.79-15.37,10.93-15.37,10.93l.14-.13a44.8,44.8,0,0,0,6.45-3.46s12.22,30.95,15.75,43.91c2.48,9.11,10.72,36.39,11.6,53.7s-.54,26.95-.54,26.95-26.4-84.31-35-107.93S412.86,138.44,345.46,90Z"/>    </g>    <g id="outline">        <path fill="none"  d="M412.51,86.52a11.78,11.78,0,0,0-2.32-2.75c-2.85.47-4.27.74-3.57,7.08s9.42,16.68,24.5,16.68c.81,0,1.63,0,2.48-.09a28.52,28.52,0,0,0,20.1-10.61c.2-.26.4-.52.59-.79a23,23,0,0,0,4-11,30.21,30.21,0,0,0-8.09-23.83c-6.2-6.37-15.69-8.28-24.77-5a59.25,59.25,0,0,0-6.31,2.7l-.23.13c.09.82.43,2.73,1,7.69l.1-.06a55.67,55.67,0,0,1,6.77-3c7.41-2.73,15-.07,19.29,6.77,3.56,5.66,4.12,12.57,1.46,18-3.39,7-11.6,10.9-19.52,9.35C419.46,96.22,415.11,90.15,412.51,86.52Z"/><path fill="none"  d="M419.56,137.49c1.1,1.52,2.15,3.07,3.17,4.64-.43-8.08-1.16-20.37-2.2-33.9a28.55,28.55,0,0,1-7.85-4.21c-4.75-3.6-8-8.55-8.49-12.9-.89-8.05,1.77-9.13,5.64-9.77,1.77-.29,3,1.4,4.67,3.75A37,37,0,0,0,419,90.55c-4.57-49-9.46-60-12-62.14a1.2,1.2,0,0,0-.94-.38c-9.84,1.23-36.86,43.84-47.94,62.64a101.45,101.45,0,0,1,17.72,7.59C393.21,107.69,408,121.56,419.56,137.49Z"/><path fill="none"  d="M307.9,90.41c-2.51-4-10.95-17.35-20.47-30C270.89,38.52,262.88,34.1,259.1,34.1a3.79,3.79,0,0,0-1.63.34c-2.94,1.41-8.51,12-12.84,67.24-1.5,19.25-2.41,38.34-2.88,50.44a215.64,215.64,0,0,1,25.85-34.59C278.85,105.54,292.43,95.62,307.9,90.41Z"/><path fill="none"  d="M445.67,397.9c4.15-3,8.74-5.13,12.75-8.43a70.25,70.25,0,0,0,17.73-22c8.67-16.77,10.48-36.28,8.64-54.84-2.41-24.3-9.67-48.43-18-71.3-3-8.15-6.18-16.2-9.55-24.19a49.52,49.52,0,0,1-6.7,3.1,79.84,79.84,0,0,0,8-5.23,49,49,0,0,0,7-6.26,21.24,21.24,0,0,0,4.71-7.73,11.81,11.81,0,0,0-.5-8.53,13.67,13.67,0,0,0-2.3-3.79,19.3,19.3,0,0,0-3.26-3.12,26.31,26.31,0,0,0-3.89-2.45q-2.07-1-4.27-1.88a58.51,58.51,0,0,0-9.12-2.51,82.85,82.85,0,0,0-9.48-1.33c.47,0,.94,0,1.42-.08l-2.36-4.77C427,153.39,417,135.33,401.43,120.25c-13.82-13.37-30.73-24.14-49.51-28.88a77.59,77.59,0,0,0-57.83,7.82c-20,11.46-34.63,30.21-46.94,49.3a369.59,369.59,0,0,0-20.83,36.89c1.72-.37,3.46-.71,5.2-1-6.22,2-12.39,4.16-18.38,6.64a88.21,88.21,0,0,0-8.73,4.12,38.77,38.77,0,0,0-4,2.52,15.7,15.7,0,0,0-3.29,3.09,5.9,5.9,0,0,0-1.28,3.84,16.15,16.15,0,0,0,.68,4.49,48.26,48.26,0,0,0,3.64,8.82,164.25,164.25,0,0,0,10.16,16.65c-1-1.07-2-2.18-2.95-3.31a381.67,381.67,0,0,0-13.69,52.52c-1.65,9-3,18.08-3.92,27.2-2.95,30.34-1.79,70.38,27.91,87.8a53.54,53.54,0,0,0,7,3.46c.75.31,2.37.54,2.88,1.31.83,1.26,0,2-1.08,2.7-2.47,1.51-14.63,3.19-13.72,6.89,1,4.22,11.94,4.52,15,4.78a152.52,152.52,0,0,0,17.5.3c1,0,2.09,0,3.17-.06.11-1.08.14-2.21.16-3.35,0-3.94.05-7.95.15-11.9s.16-7.91.16-11.86a174,174,0,0,0-1.37-23.62A64.46,64.46,0,0,0,245,355.91a32.82,32.82,0,0,0-2.38-5.39A16.83,16.83,0,0,0,239,345.9a16.94,16.94,0,0,1,4,4.43,32.27,32.27,0,0,1,2.67,5.36,64.11,64.11,0,0,1,3.12,11.54,158.1,158.1,0,0,1,2.1,23.78c.23,8-.05,15.87.1,23.8a23.1,23.1,0,0,1-.58,6.21c-.08.27-.16.52-.26.8a5.37,5.37,0,0,1-.42.87,6,6,0,0,1-1.18,1.41,11.54,11.54,0,0,1-2.8,1.74,45.72,45.72,0,0,0-5.21,2.44,3.13,3.13,0,0,0-1.37,1.6,3,3,0,0,0-.09,1,4.88,4.88,0,0,0,.27,1.08,5.87,5.87,0,0,0,2.06,2.39,5.48,5.48,0,0,1,.22-3.52,6.65,6.65,0,0,1,2.74-3.24,8.9,8.9,0,0,1,1.92-.76,13.62,13.62,0,0,1,1.85-.43,16,16,0,0,1,3.82-.26,16,16,0,0,1-3.21,2.08c-.54.29-1.16.53-1.65.78a15.73,15.73,0,0,0-1.47.69,8.67,8.67,0,0,0-2.32,2.06,11.36,11.36,0,0,0-1.72,3.09l.23-.19c.38.25.78.48,1.19.7a20.36,20.36,0,0,0,5.29,1.78,25,25,0,0,0,2.82.36c.38,0,.77,0,1.15.06a2.5,2.5,0,0,1-.64-1.2,3.62,3.62,0,0,1,.21-2.08,7.22,7.22,0,0,1,2.45-2.88,11,11,0,0,1,3.17-1.65,8.11,8.11,0,0,1,3.57-.35c-.94.8-1.84,1.44-2.71,2.08l-2.56,1.88a15.28,15.28,0,0,0-2.25,1.87,3.22,3.22,0,0,0-.68,1.13,2.54,2.54,0,0,0-.07,1.56l.3-.32c.32,0,.64,0,1,0a48.82,48.82,0,0,0,5.8-.21,44,44,0,0,0,5.72-.92,17.06,17.06,0,0,0,2.68-.81,14.34,14.34,0,0,0,2.46-1.27A22.32,22.32,0,0,0,278,426c.22-.43.45-.85.64-1.29l.3-.66.23-.65a12.56,12.56,0,0,0,.43-1.35c.13-.46.27-.92.37-1.41.48-1.89.86-3.83,1.28-5.77.81-3.87,1.62-7.77,2.58-11.63s2.08-7.68,3.44-11.42a49.56,49.56,0,0,1,5.2-10.71l-1.39,2.63-1.19,2.71c-.37.92-.71,1.85-1.06,2.77s-.63,1.87-.94,2.8A116.29,116.29,0,0,0,285,403.53c-.76,3.63-1.41,7.29-2.05,11a316.46,316.46,0,0,0,33.09,5.44c21.95,2.37,44.63,2.42,66.18-2.89,2.66-.65,5.3-1.4,7.91-2.23-.15-.76-.28-1.52-.39-2.27-.52-3.56-.72-7.09-1.19-10.57-.23-1.73-.53-3.49-.8-5.23s-.57-3.5-1-5.2a37.21,37.21,0,0,0-1.73-5c-.63-1.65-1.22-3.32-1.8-5,.69,1.63,1.4,3.26,2.14,4.86a36.4,36.4,0,0,1,2,4.95c.49,1.73.85,3.46,1.23,5.2s.76,3.45,1.09,5.21c.62,3.52.95,7.06,1.58,10.49a38.26,38.26,0,0,0,1.25,5,26.75,26.75,0,0,0,2.09,4.67,22.28,22.28,0,0,0,6.69,7.5,15,15,0,0,0,4.47,2.06,41.38,41.38,0,0,0,5.08,1,48.33,48.33,0,0,0,8.42.38l.31.31h0a2.62,2.62,0,0,0-.07-1.56,3.4,3.4,0,0,0-.69-1.13,14.77,14.77,0,0,0-2.25-1.87l-2.56-1.88c-.87-.64-1.77-1.28-2.7-2.08a7.93,7.93,0,0,1,3.56.36,10.63,10.63,0,0,1,3.17,1.64,7.18,7.18,0,0,1,2.45,2.89,3.42,3.42,0,0,1,.21,2.07,2.53,2.53,0,0,1-.63,1.2l1.11-.06a22.59,22.59,0,0,0,5-.89,16.67,16.67,0,0,0,4.35-2l.25.2a11.16,11.16,0,0,0-1.73-3.08,8.31,8.31,0,0,0-2.31-2.06,14.68,14.68,0,0,0-1.48-.7c-.48-.25-1.11-.49-1.65-.78a15.16,15.16,0,0,1-3.21-2.08,16,16,0,0,1,3.82.26,13.28,13.28,0,0,1,1.85.43,8.52,8.52,0,0,1,1.92.76,6.55,6.55,0,0,1,2.74,3.24,5.48,5.48,0,0,1,.23,3.5,7.91,7.91,0,0,0,1.41-1.28,4.54,4.54,0,0,0,.87-1.83,2.87,2.87,0,0,0-1.55-3.26,28.13,28.13,0,0,0-4.64-2,24,24,0,0,1-2.56-1.17,8.3,8.3,0,0,1-2.4-1.93,6.75,6.75,0,0,1-.48-.71,4.47,4.47,0,0,1-.35-.83,9.48,9.48,0,0,1-.29-1.49c-.11-.95-.16-1.86-.18-2.76-.05-1.81,0-3.6,0-5.38.12-3.56.38-7.11.7-10.65.62-7.07,1.53-14.12,2.78-21.12.65-3.49,1.36-7,2.31-10.4a47.66,47.66,0,0,1,1.63-5.08,21.23,21.23,0,0,1,1.12-2.42,7.43,7.43,0,0,1,1.62-2.11,7.18,7.18,0,0,0-1.46,2.19,22.22,22.22,0,0,0-.94,2.46c-.53,1.68-1,3.39-1.35,5.11-.75,3.45-1.29,6.94-1.76,10.44-.95,7-1.6,14-2.06,21.08-.21,3.52-.37,7-.45,10.56,0,1.75,0,3.51,0,5.24,0,.23,0,.46,0,.69,5.9.87,12.12.57,18,.37a139.7,139.7,0,0,0,19-1.57c2.82-.49,3.2-.31,1.75-3-1.38-2.56-4.41-3.86-7-4.74-2.38-.8-4.85-1.22-7.28-1.83-1-.25-2.68-.48-3.21-1.5C443.69,399.32,444.71,398.59,445.67,397.9Z"/><path fill="none"  d="M164.26,327a17,17,0,0,0,5.41,9.44l7.42,6.85-8.84-4.88c-.31-.17-30.25-17-37-46.49-2.89,4.56-8.56,16.4-5.76,36l.24,1.68-1.67-.3c-.21,0-4-.8-6.8-6.54.43,7.76,2.52,20.07,10.7,29.95,7.83,9.47,19.61,14.86,35,16l5.13.39-4.76,2a81.61,81.61,0,0,1-8.27,2.87,76,76,0,0,0,37.54-2.25c-4.12-10.7-5.77-22.39-6.21-33.77A33.19,33.19,0,0,1,164.26,327Z"/><path d="M419.64,69.17h0l-.18,0Z"/><path d="M452.75,396.6A76,76,0,0,0,464,387.8c13.41-12.75,20.76-30.18,23-48.34,2.74-21.86-1.67-43.93-7.23-65A434.42,434.42,0,0,0,459.38,216a42.23,42.23,0,0,0,7.6-5.84,25.59,25.59,0,0,0,3.21-3.81,17.62,17.62,0,0,0,2.32-4.53,14,14,0,0,0-.45-10.2,19.81,19.81,0,0,0-1.18-2.29,20.87,20.87,0,0,0-1.53-2.07,19.54,19.54,0,0,0-3.72-3.44,30.81,30.81,0,0,0-8.92-4.28,49.18,49.18,0,0,0-9.56-1.89c-1.85-.18-3.7-.28-5.55-.29q-2.79-5.67-5.62-11.3c-3.36-6.66-6.74-13.27-10.57-19.62-.37-7.42-1.14-21.45-2.36-37.4a32.2,32.2,0,0,0,8,1c.87,0,1.77,0,2.7-.1a31,31,0,0,0,21.85-11.55c.22-.28.44-.57.64-.86a25.45,25.45,0,0,0,4.5-12.11A32.7,32.7,0,0,0,452,59.55c-6.87-7.06-17.36-9.21-27.41-5.56-6.59,2.38-6.85,3.12-6.74,4.14,0,.12,1.44,10.37,1.48,10.73l.09.19.21.12c5.19-1.32,9.44-4.79,15.13-3.74a14.17,14.17,0,0,1,9.24,6.4c3.11,5,3.62,11,1.33,15.65-2.87,5.89-10.12,9.33-16.85,8a18.22,18.22,0,0,1-6.79-2.81c-2.74-29.93-7-61-13.07-66.14a3.6,3.6,0,0,0-2.82-.94c-12.54,1.57-43.47,53.14-50.05,64.33a82,82,0,0,0-33.65-2.85,74.92,74.92,0,0,0-11.81,2.54c-2.05-3.3-10.87-17.36-20.9-30.64-15.86-21-26.66-29.78-33-26.75-2.26,1.09-9.13,4.39-14.22,69.26-1.71,21.83-2.64,43.46-3.05,55-4.22,7.11-8.17,14.36-11.9,21.61q-2.07,4-4,8c-3.62.88-7.21,1.91-10.75,3.15a70.11,70.11,0,0,0-9.14,3.87,34.28,34.28,0,0,0-4.32,2.62,17.66,17.66,0,0,0-3.85,3.56,8.57,8.57,0,0,0-1.32,2.51c-.07.23-.15.47-.21.71l-.1.69a10.7,10.7,0,0,0-.08,1.37,17.47,17.47,0,0,0,.85,5.15,44.79,44.79,0,0,0,4.18,9.1A85,85,0,0,0,204,227c.5.66,1,1.31,1.52,2q-3.08,9-5.7,18.09-5.13,17.8-8.49,36c-3.14,17.24-5.44,34.81-5,52.38a30.47,30.47,0,0,1-22.44-13l-1.77-2.58-.44,3.1a17,17,0,0,0,1.9,9.39c-9.27-6.67-26.65-21.81-30.49-43.69l-.43-2.45L131,288.12c-.47.51-11.12,12.51-8.22,37.84-1.7-1.3-4.21-4.31-5.45-11.13l-1.48-8.15-.94,8.23c-.1.92-2.43,22.9,11.16,39.34,7.35,8.91,17.95,14.4,31.55,16.37-2.82,1-6.22,1.94-8.32,1.94H142l6.82,2.37a67.07,67.07,0,0,0,20.54,2.93A77.05,77.05,0,0,0,193.52,374a65.78,65.78,0,0,0,4.87,9.34,52.9,52.9,0,0,0,21.1,19.21c.92.46,1.85.89,2.79,1.3a9.19,9.19,0,0,0,1.25.53l.49.2c-.49.16-1,.36-1.45.52-1.7.59-3.42,1.12-5.11,1.72-3.31,1.19-9.12,3.12-6.74,7.75,2.05,4,8.63,4.75,12.48,5.28a124,124,0,0,0,19.36.86c1.38,0,3.38.11,5.38,0,0,.08-.06.17-.08.24a3,3,0,0,1-.24.47,3.79,3.79,0,0,1-.72.85,9.48,9.48,0,0,1-2.25,1.36,42.87,42.87,0,0,0-5.54,2.6,5.5,5.5,0,0,0-2.34,2.88,5.42,5.42,0,0,0-.2,1.94,7.07,7.07,0,0,0,.44,1.8,7.44,7.44,0,0,0,2.1,2.8,13.08,13.08,0,0,0,2.71,1.81,22.51,22.51,0,0,0,6,2,28.13,28.13,0,0,0,3.08.38c1,.08,2,.13,3,.15a47.51,47.51,0,0,0,6.08-.28,45.38,45.38,0,0,0,6-1.05,18.51,18.51,0,0,0,3-1,16.24,16.24,0,0,0,2.79-1.49,23.63,23.63,0,0,0,8-9.35c.22-.47.45-.92.65-1.4l.3-.7.25-.75a13.1,13.1,0,0,0,.44-1.49c.12-.5.26-1,.35-1.48.31-1.39.57-2.78.82-4.17l.39.09c22.74,4.9,46.19,7.78,69.49,6.66a158.3,158.3,0,0,0,31.67-4.54q3.35-.86,6.64-1.91l.18.65a28,28,0,0,0,2.11,5.06,23.44,23.44,0,0,0,7.15,8.35,17.15,17.15,0,0,0,5.1,2.44,46.75,46.75,0,0,0,5.33,1.12,49.33,49.33,0,0,0,10.86.35c.91-.07,1.8-.16,2.74-.32a22.39,22.39,0,0,0,2.72-.63,18.81,18.81,0,0,0,5.16-2.33,10.9,10.9,0,0,0,2.24-2,6.92,6.92,0,0,0,1.35-2.93,5.27,5.27,0,0,0-.39-3.33,6.07,6.07,0,0,0-2.25-2.37,30,30,0,0,0-5.07-2.22,10.06,10.06,0,0,1-4-2.36c-.1-.12-.21-.28-.28-.38a2.4,2.4,0,0,1-.17-.39c0-.14-.08-.3-.12-.47l.91.09a142.87,142.87,0,0,0,21.2.05c5.56-.29,11.61-.36,17-1.79,4.09-1.08,2.59-5.48.27-8-3.66-4-9.54-4.72-14.51-6-.16,0-.32-.1-.48-.15.34-.21.64-.43.79-.52C450,398.32,451.38,397.48,452.75,396.6ZM428,97.9c7.92,1.55,16.13-2.38,19.52-9.35,2.66-5.45,2.1-12.36-1.46-18-4.31-6.84-11.88-9.5-19.29-6.77a55.67,55.67,0,0,0-6.77,3l-.1.06c-.54-5-.88-6.87-1-7.69l.23-.13a59.25,59.25,0,0,1,6.31-2.7c9.08-3.29,18.57-1.38,24.77,5a30.21,30.21,0,0,1,8.09,23.83,23,23,0,0,1-4,11c-.19.27-.39.53-.59.79a28.52,28.52,0,0,1-20.1,10.61c-.85.06-1.67.09-2.48.09-15.08,0-23.8-10.41-24.5-16.68s.72-6.61,3.57-7.08a11.78,11.78,0,0,1,2.32,2.75C415.11,90.15,419.46,96.22,428,97.9ZM406.1,28a1.2,1.2,0,0,1,.94.38c2.53,2.15,7.42,13.12,12,62.14a37,37,0,0,1-4.53-5.45c-1.68-2.35-2.9-4-4.67-3.75-3.87.64-6.53,1.72-5.64,9.77.49,4.35,3.74,9.3,8.49,12.9a28.55,28.55,0,0,0,7.85,4.21c1,13.53,1.77,25.82,2.2,33.9-1-1.57-2.07-3.12-3.17-4.64-11.53-15.93-26.35-29.8-43.68-39.23a101.45,101.45,0,0,0-17.72-7.59C369.24,71.87,396.26,29.26,406.1,28ZM244.63,101.68c4.33-55.22,9.9-65.83,12.84-67.24a3.79,3.79,0,0,1,1.63-.34c3.78,0,11.79,4.42,28.33,26.34,9.52,12.62,18,26,20.47,30-15.47,5.21-29,15.13-40.3,27.12a215.64,215.64,0,0,0-25.85,34.59C242.22,140,243.13,120.93,244.63,101.68ZM155.05,374a81.61,81.61,0,0,0,8.27-2.87l4.76-2-5.13-.39c-15.41-1.18-27.19-6.57-35-16-8.18-9.88-10.27-22.19-10.7-29.95,2.83,5.74,6.59,6.5,6.8,6.54l1.67.3-.24-1.68c-2.8-19.6,2.87-31.44,5.76-36,6.78,29.5,36.72,46.32,37,46.49l8.84,4.88-7.42-6.85a17,17,0,0,1-5.41-9.44A33.19,33.19,0,0,0,186.38,338c.44,11.38,2.09,23.07,6.21,33.77A76,76,0,0,1,155.05,374Zm289.33,26.67c.53,1,2.24,1.25,3.21,1.5,2.43.61,4.9,1,7.28,1.83,2.62.88,5.65,2.18,7,4.74,1.45,2.72,1.07,2.54-1.75,3a139.7,139.7,0,0,1-19,1.57c-5.9.2-12.12.5-18-.37,0-.23,0-.46,0-.69-.07-1.73-.07-3.49,0-5.24.08-3.52.24-7,.45-10.56.46-7,1.11-14.08,2.06-21.08.47-3.5,1-7,1.76-10.44.37-1.72.82-3.43,1.35-5.11a22.22,22.22,0,0,1,.94-2.46,7.18,7.18,0,0,1,1.46-2.19,7.43,7.43,0,0,0-1.62,2.11,21.23,21.23,0,0,0-1.12,2.42,47.66,47.66,0,0,0-1.63,5.08c-.95,3.43-1.66,6.91-2.31,10.4-1.25,7-2.16,14.05-2.78,21.12-.32,3.54-.58,7.09-.7,10.65-.06,1.78-.09,3.57,0,5.38,0,.9.07,1.81.18,2.76a9.48,9.48,0,0,0,.29,1.49,4.47,4.47,0,0,0,.35.83,6.75,6.75,0,0,0,.48.71,8.3,8.3,0,0,0,2.4,1.93,24,24,0,0,0,2.56,1.17,28.13,28.13,0,0,1,4.64,2,2.87,2.87,0,0,1,1.55,3.26,4.54,4.54,0,0,1-.87,1.83,7.91,7.91,0,0,1-1.41,1.28,5.48,5.48,0,0,0-.23-3.5,6.55,6.55,0,0,0-2.74-3.24,8.52,8.52,0,0,0-1.92-.76,13.28,13.28,0,0,0-1.85-.43,16,16,0,0,0-3.82-.26,15.16,15.16,0,0,0,3.21,2.08c.54.29,1.17.53,1.65.78a14.68,14.68,0,0,1,1.48.7,8.31,8.31,0,0,1,2.31,2.06,11.16,11.16,0,0,1,1.73,3.08l-.25-.2a16.67,16.67,0,0,1-4.35,2,22.59,22.59,0,0,1-5,.89l-1.11.06a2.53,2.53,0,0,0,.63-1.2,3.42,3.42,0,0,0-.21-2.07,7.18,7.18,0,0,0-2.45-2.89,10.63,10.63,0,0,0-3.17-1.64,7.93,7.93,0,0,0-3.56-.36c.93.8,1.83,1.44,2.7,2.08l2.56,1.88a14.77,14.77,0,0,1,2.25,1.87,3.4,3.4,0,0,1,.69,1.13,2.62,2.62,0,0,1,.07,1.56h0l-.31-.31a48.33,48.33,0,0,1-8.42-.38,41.38,41.38,0,0,1-5.08-1,15,15,0,0,1-4.47-2.06,22.28,22.28,0,0,1-6.69-7.5,26.75,26.75,0,0,1-2.09-4.67,38.26,38.26,0,0,1-1.25-5c-.63-3.43-1-7-1.58-10.49-.33-1.76-.72-3.47-1.09-5.21s-.74-3.47-1.23-5.2a36.4,36.4,0,0,0-2-4.95c-.74-1.6-1.45-3.23-2.14-4.86.58,1.68,1.17,3.35,1.8,5a37.21,37.21,0,0,1,1.73,5c.39,1.7.67,3.45,1,5.2s.57,3.5.8,5.23c.47,3.48.67,7,1.19,10.57.11.75.24,1.51.39,2.27-2.61.83-5.25,1.58-7.91,2.23-21.55,5.31-44.23,5.26-66.18,2.89A316.46,316.46,0,0,1,283,414.5c.64-3.68,1.29-7.34,2.05-11A116.29,116.29,0,0,1,287.9,392c.31-.93.59-1.88.94-2.8s.69-1.85,1.06-2.77l1.19-2.71,1.39-2.63a49.56,49.56,0,0,0-5.2,10.71c-1.36,3.74-2.46,7.57-3.44,11.42s-1.77,7.76-2.58,11.63c-.42,1.94-.8,3.88-1.28,5.77-.1.49-.24.95-.37,1.41a12.56,12.56,0,0,1-.43,1.35l-.23.65-.3.66c-.19.44-.42.86-.64,1.29a22.32,22.32,0,0,1-7.42,8.42,14.34,14.34,0,0,1-2.46,1.27,17.06,17.06,0,0,1-2.68.81,44,44,0,0,1-5.72.92,48.82,48.82,0,0,1-5.8.21c-.31,0-.63,0-1,0l-.3.32a2.54,2.54,0,0,1,.07-1.56,3.22,3.22,0,0,1,.68-1.13,15.28,15.28,0,0,1,2.25-1.87l2.56-1.88c.87-.64,1.77-1.28,2.71-2.08a8.11,8.11,0,0,0-3.57.35,11,11,0,0,0-3.17,1.65,7.22,7.22,0,0,0-2.45,2.88,3.62,3.62,0,0,0-.21,2.08,2.5,2.5,0,0,0,.64,1.2c-.38,0-.77,0-1.15-.06a25,25,0,0,1-2.82-.36,20.36,20.36,0,0,1-5.29-1.78c-.41-.22-.81-.45-1.19-.7l-.23.19a11.36,11.36,0,0,1,1.72-3.09,8.67,8.67,0,0,1,2.32-2.06A15.73,15.73,0,0,1,247,429c.49-.25,1.11-.49,1.65-.78a16,16,0,0,0,3.21-2.08,16,16,0,0,0-3.82.26,13.62,13.62,0,0,0-1.85.43,8.9,8.9,0,0,0-1.92.76,6.65,6.65,0,0,0-2.74,3.24,5.48,5.48,0,0,0-.22,3.52,5.87,5.87,0,0,1-2.06-2.39,4.88,4.88,0,0,1-.27-1.08,3,3,0,0,1,.09-1,3.13,3.13,0,0,1,1.37-1.6,45.72,45.72,0,0,1,5.21-2.44,11.54,11.54,0,0,0,2.8-1.74,6,6,0,0,0,1.18-1.41,5.37,5.37,0,0,0,.42-.87c.1-.28.18-.53.26-.8a23.1,23.1,0,0,0,.58-6.21c-.15-7.93.13-15.83-.1-23.8a158.1,158.1,0,0,0-2.1-23.78,64.11,64.11,0,0,0-3.12-11.54,32.27,32.27,0,0,0-2.67-5.36,16.94,16.94,0,0,0-4-4.43,16.83,16.83,0,0,1,3.65,4.62,32.82,32.82,0,0,1,2.38,5.39,64.46,64.46,0,0,1,2.55,11.51A174,174,0,0,1,248.91,391c0,3.95-.08,7.9-.16,11.86s-.13,8-.15,11.9c0,1.14,0,2.27-.16,3.35-1.08,0-2.17,0-3.17.06a152.52,152.52,0,0,1-17.5-.3c-3.09-.26-14-.56-15-4.78-.91-3.7,11.25-5.38,13.72-6.89,1.07-.66,1.91-1.44,1.08-2.7-.51-.77-2.13-1-2.88-1.31a53.54,53.54,0,0,1-7-3.46C188,381.35,186.8,341.31,189.75,311c.89-9.12,2.27-18.19,3.92-27.2a381.67,381.67,0,0,1,13.69-52.52c.95,1.13,1.93,2.24,2.95,3.31a164.25,164.25,0,0,1-10.16-16.65,48.26,48.26,0,0,1-3.64-8.82,16.15,16.15,0,0,1-.68-4.49,5.9,5.9,0,0,1,1.28-3.84,15.7,15.7,0,0,1,3.29-3.09,38.77,38.77,0,0,1,4-2.52,88.21,88.21,0,0,1,8.73-4.12c6-2.48,12.16-4.6,18.38-6.64-1.74.28-3.48.62-5.2,1a369.59,369.59,0,0,1,20.83-36.89c12.31-19.09,26.91-37.84,46.94-49.3a77.59,77.59,0,0,1,57.83-7.82c18.78,4.74,35.69,15.51,49.51,28.88C417,135.33,427,153.39,436.55,172.6l2.36,4.77c-.48,0-1,0-1.42.08a82.85,82.85,0,0,1,9.48,1.33,58.51,58.51,0,0,1,9.12,2.51q2.21.84,4.27,1.88a26.31,26.31,0,0,1,3.89,2.45,19.3,19.3,0,0,1,3.26,3.12,13.67,13.67,0,0,1,2.3,3.79,11.81,11.81,0,0,1,.5,8.53,21.24,21.24,0,0,1-4.71,7.73,49,49,0,0,1-7,6.26,79.84,79.84,0,0,1-8,5.23,49.52,49.52,0,0,0,6.7-3.1c3.37,8,6.58,16,9.55,24.19,8.32,22.87,15.58,47,18,71.3,1.84,18.56,0,38.07-8.64,54.84a70.25,70.25,0,0,1-17.73,22c-4,3.3-8.6,5.44-12.75,8.43C444.71,398.59,443.69,399.32,444.38,400.64Z"/>    </g>    <g id="eye">        <g id="eye-color1">            <path fill="#9287C6"  d="M265.06,168.79l-16.27.91-.49.09c-1.94.33-4,.22-6,.44-3.86.44-7.72.71-11.59.91-1.93.09-3.71.53-5.65.58h-.18c2.22,3.46,4.15,6.83,6.91,9.83a47.38,47.38,0,0,0,10.41,8.15,36.87,36.87,0,0,0,11.85,4.55c4.17.82,8.6,1.64,12.84,1.22a56.61,56.61,0,0,0,6.33-1c2.08-.43,3.95-1.78,5.93-2.53a39.67,39.67,0,0,0,10.89-6.31c3.3-2.64,7.92-5.59,10-9.26,1.77-3,4.44-6.82,5.24-10.42l-20.39,1.2Z"/><path fill="#9287C6"  d="M290,125.25A44.34,44.34,0,0,0,269,117.17a47.18,47.18,0,0,0-22.17,2.63,38.24,38.24,0,0,0-9.75,5.36,35.5,35.5,0,0,0-7.64,8,32,32,0,0,0-4.63,10,52.14,52.14,0,0,0-1.67,11.08,48.58,48.58,0,0,0,.66,11.14,15.29,15.29,0,0,0,.71,2.53,3.79,3.79,0,0,0,.47.93h0c1.9,0,3.82-.11,5.73-.2,3.83-.18,7.5-.14,11.3-.49,1.9-.19,3.94-.66,5.81-.95l.7-.11.61-.13c.42-.09.88-.25,1.31-.36.89-.28,1.78-.58,2.68-.91,3.56-1.31,7.12-2.75,10.61-4.3,1.75-.78,3.76-1.27,5.47-2.11a35.62,35.62,0,0,0,4.59-2.51h.6l7.34-3.57,7.17-3.63,15.33-6.66h0A46.21,46.21,0,0,0,290,125.25Z"/><path fill="#9287C6"  d="M404.65,168.79l16.27.91.5.09c1.94.33,3.87-.42,5.8-.21,3.86.44,7.73.72,11.59.91,1.94.1,3.87,1.18,5.81,1.23h.18a70.33,70.33,0,0,1-7.4,9.78,44.91,44.91,0,0,1-9.92,8.2,36.93,36.93,0,0,1-11.86,4.55,46,46,0,0,1-13,1.07,56.6,56.6,0,0,1-6.29-1.18,37.67,37.67,0,0,1-5.78-2.18,39.38,39.38,0,0,1-10.89-6.31c-3.31-2.64-7.93-5.59-10-9.26-1.77-3-4.45-6.82-5.25-10.42l20.52,1.33Z"/><path fill="#9287C6"  d="M379.77,125.25a44.3,44.3,0,0,1,20.93-8.08,47.2,47.2,0,0,1,22.17,2.63,38.24,38.24,0,0,1,9.75,5.36,35.5,35.5,0,0,1,7.64,8,32.44,32.44,0,0,1,4.63,10,52.13,52.13,0,0,1,1.66,11.08,47.48,47.48,0,0,1-.66,11.14,15.3,15.3,0,0,1-.7,2.53,4.15,4.15,0,0,1-.48.93h0c-1.91,0-3.83-.11-5.74-.2-3.82-.18-7.49-.14-11.29-.49-1.9-.19-4-.66-5.81-.95l-.7-.11-.62-.13c-.41-.09-.87-.25-1.31-.36-.88-.28-1.78-.36-2.67-.69-3.57-1.31-6.92-2.22-10.42-3.77-1.74-.78-3.68-1.93-5.39-2.77s-3.42-1.26-4.84-2.27l-.3-.15-.32-.18-7-3.35-7.53-3.85-15.34-6.66h0A46.33,46.33,0,0,1,379.77,125.25Z"/>        </g>        <g id="eye-shape">            <path fill="none"  d="M265.06,168.79c-11.41.64-22.76,2.13-34.16,2.7q-2.9.15-5.8.23h-.18a70.27,70.27,0,0,0,7.39,9.78,44.73,44.73,0,0,0,9.93,8.2,36.87,36.87,0,0,0,11.85,4.55,43.94,43.94,0,0,0,12.7.48,56.61,56.61,0,0,0,6.33-1,39.8,39.8,0,0,0,17-8.1,33.06,33.06,0,0,0,8.16-9.47,53.41,53.41,0,0,0,4.24-9.78l-17.57,1.2Z"/><path fill="none"  d="M290,125.25A44.3,44.3,0,0,0,269,117.17a47.06,47.06,0,0,0-22.17,2.63,38.24,38.24,0,0,0-9.75,5.36,35.5,35.5,0,0,0-7.64,8,32,32,0,0,0-4.63,10,52.78,52.78,0,0,0-1.67,11.08,48.58,48.58,0,0,0,.66,11.14,15.29,15.29,0,0,0,.71,2.53,3.79,3.79,0,0,0,.47.93c1.93,0,3.85-.1,5.76-.19,5.86-.28,12-.34,17.69-1.65a86.07,86.07,0,0,0,15.33-5.6q2.63-1.17,5.19-2.43c4.15-2.11,8.18-4.29,12.46-6.14l7.52-3.25,15.33-6.66A46.21,46.21,0,0,0,290,125.25Zm-13.14,19c-2,1.22-4.1,2.33-6.16,3.5l-6.23,3.35-6.32,3.2-3.19,1.56c-1,.54-2.13,1.06-3.23,1.55a32.47,32.47,0,0,1-6.86,2.34,16.05,16.05,0,0,1-7.2,0c3.58.92,8.76-2.25,11.81-3.75q6.63-3.26,13.15-6.73c2.35-1.26,4.7-2.52,7.06-3.76a157.23,157.23,0,0,1,19.16-8.82C284.92,139.41,280.89,141.88,276.81,144.26Z"/><path fill="none"  d="M270,160.8h0c-1.73.91-3.46,1.78-5.21,2.61,1.75-.83,3.48-1.7,5.21-2.61Z"/><path fill="#fcfcfc"  d="M302.12,144l-12.35,6.3-7.42,3.78c-4.22,2.11-8.22,4.55-12.4,6.75h0c-1.73.91-3.46,1.78-5.21,2.61-3.51,1.66-7,3.25-10.68,4.64l-.1,0,10-1,17.54-1.67a12.21,12.21,0,0,1-.31-1.33,1.5,1.5,0,0,1-.07-.44,1.39,1.39,0,0,1,0-.46c.2-5,4.16-8.15,9.13-8.35h.12a3.76,3.76,0,0,1,1-.55l.08,0,.19-.08a1.32,1.32,0,0,1,1.4.32l2.26,1.67c.57.42,1.16.81,1.18,1.61,0,0,0,.1,0,.14a9.06,9.06,0,0,1,1.08,5.56c0,.17,0,.35-.07.52l6.14-.54a38.31,38.31,0,0,0-1.11-18.4C302.37,144.69,302.23,144.33,302.12,144Z"/><path d="M298,130.13a46.21,46.21,0,0,0-13.76-10.58c-11.32-6-26.37-6.39-38.31-2.16a42.81,42.81,0,0,0-10.53,5.55,36.51,36.51,0,0,0-4.53,3.91,38.57,38.57,0,0,0-3.84,4.62,34.54,34.54,0,0,0-5.12,10.85,55.69,55.69,0,0,0-1.74,11.73,50.44,50.44,0,0,0,.74,11.86,18.19,18.19,0,0,0,.85,3,7.15,7.15,0,0,0,.87,1.61,3.21,3.21,0,0,0,1,.9,2.34,2.34,0,0,0,.53.2c3.55,9,11.05,16.54,20,21.26.37.19.74.39,1.11.57l1.15.55.57.26.43.18c19.35,8.17,42.45.74,53.57-16.94,4.05-6.44,6.71-13.95,6.31-21.63C306.87,146.7,304,137.26,298,130.13Zm.47,46.24a44.31,44.31,0,0,1-13.76,12.7,42.72,42.72,0,0,1-20.94,6,43.72,43.72,0,0,1-38.61-23.24c26.05-1.91,52.62-3.81,78.67-5.72a38.81,38.81,0,0,1-3.12,6.77C300.05,174.07,299.3,175.24,298.5,176.37Zm5.08-12.92-6.14.54c0-.17.05-.35.07-.52a9.06,9.06,0,0,0-1.08-5.56,4.84,4.84,0,0,1-1.13,2.8c-1.64,1.87-4.54.92-5.73-1a3.68,3.68,0,0,1,.8-4.92h-.12c-5,.2-8.93,3.32-9.13,8.35a1.39,1.39,0,0,0,0,.46,1.5,1.5,0,0,0,.07.44,12.21,12.21,0,0,0,.31,1.33l-17.54,1.67-10,1,.1,0c3.65-1.39,7.17-3,10.68-4.64,1.75-.83,3.48-1.7,5.21-2.61h0c4.18-2.2,8.18-4.64,12.4-6.75l7.42-3.78,12.35-6.3c.11.36.25.72.35,1.08A38.31,38.31,0,0,1,303.58,163.45ZM289,149.52c-8.3,4-16.73,8.08-25.17,11.82a86.07,86.07,0,0,1-15.33,5.6c-5.74,1.31-11.83,1.37-17.69,1.65-1.91.09-3.83.16-5.76.19a3.79,3.79,0,0,1-.47-.93,15.29,15.29,0,0,1-.71-2.53,48.58,48.58,0,0,1-.66-11.14,52.78,52.78,0,0,1,1.67-11.08,32,32,0,0,1,4.63-10,35.5,35.5,0,0,1,7.64-8,38.24,38.24,0,0,1,9.75-5.36A47.06,47.06,0,0,1,269,117.17,44.3,44.3,0,0,1,290,125.25c6.16,4.47,9.78,10.46,13.1,17.41Z"/><path fill="#fff"  d="M295.26,156.16,293,154.49a1.32,1.32,0,0,0-1.4-.32l-.19.08-.08,0a3.76,3.76,0,0,0-1,.55,3.68,3.68,0,0,0-.8,4.92c1.19,1.88,4.09,2.83,5.73,1a4.84,4.84,0,0,0,1.13-2.8s0-.09,0-.14C296.42,157,295.83,156.58,295.26,156.16Z"/><path d="M262.58,149.26q-6.52,3.48-13.15,6.73c-3.05,1.5-8.23,4.67-11.81,3.75a16.05,16.05,0,0,0,7.2,0,32.47,32.47,0,0,0,6.86-2.34c1.1-.49,2.18-1,3.23-1.55l3.19-1.56,6.32-3.2,6.23-3.35c2.06-1.17,4.14-2.28,6.16-3.5,4.08-2.38,8.11-4.85,12-7.58a157.23,157.23,0,0,0-19.16,8.82C267.28,146.74,264.93,148,262.58,149.26Z"/><path fill="none"  d="M404.45,168.79c11.41.64,22.76,2.13,34.16,2.7,1.94.1,3.87.18,5.81.23h.18a70.33,70.33,0,0,1-7.4,9.78,44.91,44.91,0,0,1-9.92,8.2,36.93,36.93,0,0,1-11.86,4.55,43.91,43.91,0,0,1-12.7.48,57,57,0,0,1-6.33-1,39.85,39.85,0,0,1-16.95-8.1,32.9,32.9,0,0,1-8.16-9.47A53.41,53.41,0,0,1,367,166.4l17.57,1.2Z"/><path fill="none"  d="M365.23,142.86l15.34,6.66,7.51,3.25c4.28,1.85,8.32,4,12.46,6.14q2.56,1.26,5.19,2.43a86.17,86.17,0,0,0,15.34,5.6c5.73,1.31,11.83,1.37,17.68,1.65,1.91.09,3.83.16,5.76.19a4.15,4.15,0,0,0,.48-.93,15.3,15.3,0,0,0,.7-2.53,47.48,47.48,0,0,0,.66-11.14,52.13,52.13,0,0,0-1.66-11.08,32.44,32.44,0,0,0-4.63-10,35.5,35.5,0,0,0-7.64-8,38.24,38.24,0,0,0-9.75-5.36,47.07,47.07,0,0,0-22.17-2.63,44.3,44.3,0,0,0-20.93,8.08A46.33,46.33,0,0,0,365.23,142.86Zm15.49-6.18a157.79,157.79,0,0,1,19.15,8.82c2.37,1.24,4.72,2.5,7.07,3.76,4.35,2.32,8.72,4.56,13.15,6.73,3.05,1.5,8.23,4.67,11.81,3.75a16.05,16.05,0,0,1-7.2,0,32.75,32.75,0,0,1-6.87-2.34c-1.09-.49-2.18-1-3.23-1.55l-3.18-1.56-6.32-3.2-6.24-3.35c-2.05-1.17-4.13-2.28-6.15-3.5C388.63,141.88,384.6,139.41,380.72,136.68Z"/><path d="M362.18,155.9c-.4,7.68,2.26,15.19,6.31,21.63,11.12,17.68,34.22,25.11,53.57,16.94l.42-.18.58-.26,1.15-.55c.37-.18.74-.38,1.11-.57,8.95-4.72,16.46-12.22,20-21.26a2.54,2.54,0,0,0,.53-.2,3.21,3.21,0,0,0,1-.9,7.08,7.08,0,0,0,.86-1.61,19.26,19.26,0,0,0,.86-3,51,51,0,0,0,.74-11.86,55.69,55.69,0,0,0-1.74-11.73,34.76,34.76,0,0,0-5.12-10.85,39.54,39.54,0,0,0-3.84-4.62,36.6,36.6,0,0,0-4.54-3.91,42.46,42.46,0,0,0-10.53-5.55c-11.94-4.23-27-3.88-38.3,2.16a46.26,46.26,0,0,0-13.77,10.58C365.51,137.26,362.65,146.7,362.18,155.9Zm6.6,17a39.6,39.6,0,0,1-3.13-6.77c26.05,1.91,52.62,3.81,78.67,5.72a43.7,43.7,0,0,1-38.6,23.24,42.79,42.79,0,0,1-21-6A44.53,44.53,0,0,1,371,176.37C370.22,175.24,369.47,174.07,368.78,172.87ZM367,145.05c.11-.36.24-.72.36-1.08l12.35,6.3,7.41,3.78c4.23,2.11,8.23,4.55,12.4,6.75h0q2.58,1.37,5.21,2.61c3.5,1.66,7,3.25,10.68,4.64l.09,0-10-1L388,165.41a10.21,10.21,0,0,0,.3-1.33,1.91,1.91,0,0,0,.08-.44,1.72,1.72,0,0,0,0-.46c-.2-5-4.16-8.15-9.14-8.35h-.11a3.69,3.69,0,0,1,.8,4.92c-1.2,1.88-4.09,2.83-5.73,1a4.77,4.77,0,0,1-1.13-2.8,9,9,0,0,0-1.08,5.56c0,.17,0,.35.06.52l-6.13-.54A38.3,38.3,0,0,1,367,145.05Zm-.57-2.39c3.32-6.95,6.94-12.94,13.1-17.41a44.3,44.3,0,0,1,20.93-8.08,47.07,47.07,0,0,1,22.17,2.63,38.24,38.24,0,0,1,9.75,5.36,35.5,35.5,0,0,1,7.64,8,32.44,32.44,0,0,1,4.63,10,52.13,52.13,0,0,1,1.66,11.08,47.48,47.48,0,0,1-.66,11.14,15.3,15.3,0,0,1-.7,2.53,4.15,4.15,0,0,1-.48.93c-1.93,0-3.85-.1-5.76-.19-5.85-.28-11.95-.34-17.68-1.65a86.17,86.17,0,0,1-15.34-5.6c-8.43-3.74-16.86-7.78-25.16-11.82Z"/><path d="M406.94,149.26c4.35,2.32,8.72,4.56,13.15,6.73,3.05,1.5,8.23,4.67,11.81,3.75a16.05,16.05,0,0,1-7.2,0,32.75,32.75,0,0,1-6.87-2.34c-1.09-.49-2.18-1-3.23-1.55l-3.18-1.56-6.32-3.2-6.24-3.35c-2.05-1.17-4.13-2.28-6.15-3.5-4.08-2.38-8.11-4.85-12-7.58a157.79,157.79,0,0,1,19.15,8.82C402.24,146.74,404.59,148,406.94,149.26Z"/><path fill="none"  d="M404.37,169.08c11.42.64,22.77,2.13,34.16,2.7,1.94.1,3.87.18,5.81.23h.18a70.33,70.33,0,0,1-7.4,9.78,44.91,44.91,0,0,1-9.92,8.2,37,37,0,0,1-11.85,4.55,43.59,43.59,0,0,1-12.7.48,56.26,56.26,0,0,1-6.33-1,39.8,39.8,0,0,1-17-8.1,32.9,32.9,0,0,1-8.16-9.47,53.41,53.41,0,0,1-4.24-9.78l17.57,1.2Z"/><path fill="none"  d="M365.15,143.15l15.34,6.66,7.51,3.25c4.29,1.86,8.32,4,12.46,6.14,1.71.84,3.45,1.65,5.19,2.43a86.17,86.17,0,0,0,15.34,5.6c5.73,1.31,11.83,1.37,17.68,1.65,1.92.09,3.83.16,5.76.19a4.15,4.15,0,0,0,.48-.93,15.3,15.3,0,0,0,.7-2.53,47.48,47.48,0,0,0,.66-11.14,52.13,52.13,0,0,0-1.66-11.08,32.44,32.44,0,0,0-4.63-10,35.71,35.71,0,0,0-7.64-8,37.91,37.91,0,0,0-9.75-5.35,47.08,47.08,0,0,0-22.17-2.64,44.3,44.3,0,0,0-20.93,8.08A46.4,46.4,0,0,0,365.15,143.15ZM380.64,137a157.79,157.79,0,0,1,19.15,8.82c2.37,1.24,4.72,2.5,7.07,3.76q6.52,3.48,13.15,6.73c3.05,1.5,8.23,4.67,11.81,3.75a16.05,16.05,0,0,1-7.2,0,32.75,32.75,0,0,1-6.87-2.34c-1.09-.49-2.18-1-3.23-1.55l-3.18-1.56L405,151.4l-6.24-3.35c-2-1.17-4.13-2.28-6.15-3.5C388.55,142.17,384.52,139.7,380.64,137Z"/><path fill="none"  d="M399.48,161.09h0q2.58,1.36,5.21,2.61-2.62-1.24-5.21-2.61Z"/><path fill="#fcfcfc"  d="M367.32,144.26l12.35,6.3,7.41,3.78c4.23,2.11,8.23,4.55,12.4,6.75h0q2.58,1.36,5.21,2.61c3.5,1.66,7,3.25,10.68,4.64l.09,0-10-1L388,165.7a12.6,12.6,0,0,0,.31-1.32,1.63,1.63,0,0,0,.07-.45,1.72,1.72,0,0,0,0-.46c-.2-5-4.16-8.15-9.14-8.35h-.11a4,4,0,0,0-1-.55l-.07,0-.19-.08a1.31,1.31,0,0,0-1.4.32l-2.27,1.67c-.57.42-1.16.81-1.17,1.61,0,.05,0,.1,0,.14a9,9,0,0,0-1.08,5.56c0,.17,0,.35.06.52l-6.13-.53a38.33,38.33,0,0,1,1.1-18.41C367.07,145,367.2,144.62,367.32,144.26Z"/><path fill="#fff"  d="M374.17,156.45l2.27-1.67a1.31,1.31,0,0,1,1.4-.32l.19.08.07,0a4,4,0,0,1,1,.55,3.69,3.69,0,0,1,.8,4.92c-1.2,1.88-4.09,2.83-5.73,1a4.84,4.84,0,0,1-1.13-2.8s0-.09,0-.14C373,157.26,373.6,156.87,374.17,156.45Z"/><path d="M406.86,149.55q6.52,3.48,13.15,6.73c3.05,1.5,8.23,4.67,11.81,3.75a16.05,16.05,0,0,1-7.2,0,32.75,32.75,0,0,1-6.87-2.34c-1.09-.49-2.18-1-3.23-1.55l-3.18-1.56L405,151.4l-6.24-3.35c-2-1.17-4.13-2.28-6.15-3.5-4.08-2.38-8.11-4.85-12-7.58a157.79,157.79,0,0,1,19.15,8.82C402.16,147,404.51,148.29,406.86,149.55Z"/>        </g>        <g id="eye-color2">            <g opacity="0" ><path fill="#EFA16C"  d="M292.91,147.82c-.14.46-.21.94-.36,1.41a15.55,15.55,0,0,1-1.35,2.86c-.52.94-1,1.9-1.54,2.83-.24.41-.49.8-.77,1.2-.14.21-.28.41-.43.61s-.45.47-.45.6c-.2.25-.39.5-.6.74-5.88,7.05-13.9,9.8-22.69,6.54-8.53-3.18-14.2-10.41-14.65-19.54a1.27,1.27,0,0,1,0-.28,2.66,2.66,0,0,1,0-.3,23.29,23.29,0,0,1,19.05-21.81A19,19,0,0,1,280.54,124c-15.3-7.7-34.36-2.93-39.3,15.33a20.54,20.54,0,0,0-.66,6.53,29.4,29.4,0,0,0,10.48,20.24c8.59,7.08,21.5,6.67,31,1.77,7.19-3.7,10-12.61,10.92-20.46C293,147.57,293,147.69,292.91,147.82Z"/></g><g opacity="0" ><path fill="#EFA16C"  d="M416.66,141.76c-.23.62-.44,1.25-.69,1.86a26.23,26.23,0,0,1-2,3.66,31.67,31.67,0,0,1-2.54,3.43c-5.88,7-13.91,9.8-22.69,6.54-8.54-3.18-14.21-10.41-14.66-19.54a2.46,2.46,0,0,1,0-.28,1.45,1.45,0,0,1,0-.3,23.28,23.28,0,0,1,19-21.81,19,19,0,0,1,11.42,1.35c-15.3-7.7-34.36-2.93-39.3,15.33a21.13,21.13,0,0,0-.66,6.53,29.44,29.44,0,0,0,10.48,20.24c8.59,7.08,21.5,6.67,31,1.77,6.91-3.55,9.73-12,10.78-19.66C416.83,141.13,416.76,141.51,416.66,141.76Z"/></g>        </g>    </g>    <g id="nose-mouth">        <path fill="#d33d3d"  d="M337.25,252.72c2.78-6,10.95-8.6,18.39-3-2.85,14-9.36,40.17-18.39,40.17,12.34,0,20.88-48.35,20.88-48.35s-8.63-6.74-13-11.42a46.27,46.27,0,0,1-4.21-5.49c-.88-1.32-1.75-2.72-2.56-4.11a53.64,53.64,0,0,1-2.76-5.31,14.23,14.23,0,0,1-1.26-4c-.33,3.79-1.82,6.85-3.8,10.72-.22.43-.45.86-.68,1.28-.46.85-.94,1.69-1.43,2.51a153,153,0,0,1-11.16,15.77s.58,3.13,1.62,7.81C324.47,247.42,331.18,247.28,337.25,252.72Z"/><path fill="none"  d="M335.49,215.14a57.79,57.79,0,0,0,2.65,5.27A57.79,57.79,0,0,1,335.49,215.14Z"/><path fill="none"  d="M334.29,211.17h0a14.16,14.16,0,0,0,1.2,4A14.16,14.16,0,0,1,334.29,211.17Z"/><path fill="#f25757"  d="M355.64,249.68c-7.44-5.56-15.61-2.93-18.39,3-6.07-5.44-12.78-5.3-18.37-3.46,3.05,13.69,10.1,40.59,18.37,40.59C346.28,289.85,352.79,263.72,355.64,249.68Z"/><path d="M322.18,265.61a97.56,97.56,0,0,0,6.2,16.76c2.83,5.55,5.68,8.25,8.71,8.25,5.67,0,10.83-8.17,15.78-25a245.36,245.36,0,0,0,5.62-24.15l.13-.79-.62-.5c-.08-.07-8.26-6.69-12.34-11.2-4.37-4.81-9.77-15-10-17.95h-2.73c-1.07,12.77-15.89,29.08-16,29.24l-.45.5.12.67C316.57,241.58,318.74,253.67,322.18,265.61Zm6.42-39.05c.48-.81.94-1.65,1.38-2.49.22-.42.44-.84.65-1.27a33.65,33.65,0,0,0,3.66-11.63h0a14.16,14.16,0,0,0,1.2,4,57.79,57.79,0,0,0,2.65,5.27c.78,1.38,1.62,2.77,2.46,4.07a45.43,45.43,0,0,0,4,5.45c4.21,4.65,12.5,11.34,12.5,11.34s-8.2,48-20.05,48c-7.94,0-14.71-26.7-17.64-40.29-1-4.63-1.56-7.74-1.56-7.74A95.51,95.51,0,0,0,328.6,226.56Z"/><path d="M336.87,214.52a41.77,41.77,0,0,0,2.18,4.81q1.24,2.38,2.71,4.64a54.11,54.11,0,0,0,6.69,8.4A46.74,46.74,0,0,0,366.4,244a51.45,51.45,0,0,0,21.43,2.61,80.63,80.63,0,0,0,21.35-4.78,81.18,81.18,0,0,1-21.28,5.53,52.5,52.5,0,0,1-22-1.94A48.56,48.56,0,0,1,346.87,234a59.76,59.76,0,0,1-10.29-13.29,44.47,44.47,0,0,1-2.53-5.13Z"/><path d="M335.06,214.91a45.14,45.14,0,0,1-1.87,5.4,58.67,58.67,0,0,1-8.53,14.48,48.53,48.53,0,0,1-17.46,13.75,52.52,52.52,0,0,1-21.57,4.69,80.86,80.86,0,0,1-21.8-2.81,80.77,80.77,0,0,0,21.78,2.06,51.44,51.44,0,0,0,20.93-5.29,46.54,46.54,0,0,0,16.34-13.79,56.87,56.87,0,0,0,7.69-14.11,40,40,0,0,0,1.56-5Z"/><path fill="#2d2821"  d="M354,196.62c-.34-3.07-4.2-4.62-6.46-5.27-10.75-3.1-29.87.22-35.46,8a6.59,6.59,0,0,0-.87,7c3.15,7.1,16.47,12.76,21.15,13,5.47.24,11.67-2.84,16.19-8C352.52,206.69,354.51,201.35,354,196.62Z"/><path d="M355.2,197c-.27-2.31-1.91-5.41-8.11-7.1-10.81-2.94-29.77.24-35.68,8a8.4,8.4,0,0,0-1.12,9.12c3.53,7.52,17.16,12.75,22,12.94l.68,0c5.76,0,11.87-2.92,16.48-7.91C353.69,207.44,355.8,202,355.2,197Zm-22.81,20c-4.29-.18-16.5-5.08-19.39-11.22a5.43,5.43,0,0,1,.79-6c5.12-6.73,22.66-9.61,32.51-6.93,2.07.57,5.61,1.91,5.92,4.57.49,4.09-1.33,8.71-5,12.67C343.08,214.5,337.4,217.16,332.39,217Z"/><rect opacity="0.15"  x="350.14" y="217.37" width="2.98" height="2.98" rx="1.16" ry="1.16" transform="translate(121.28 -125.35) rotate(24.31)"/><rect opacity="0.15"  x="356.1" y="208.8" width="2.98" height="2.98" rx="1.16" ry="1.16" transform="translate(118.28 -128.56) rotate(24.31)"/><rect opacity="0.15"  x="357.63" y="214.43" width="2.98" height="2.98" rx="1.16" ry="1.16" transform="translate(120.73 -128.69) rotate(24.31)"/><rect opacity="0.15"  x="315.77" y="220.96" width="2.98" height="2.98" rx="1.16" ry="1.16" transform="translate(704.35 205.26) rotate(142.42)"/><rect opacity="0.15"  x="308" y="213.99" width="2.98" height="2.98" rx="1.16" ry="1.16" transform="matrix(-0.79, 0.61, -0.61, -0.79, 686.17, 197.5)"/><rect opacity="0.15"  x="307.81" y="219.82" width="2.98" height="2.98" rx="1.16" ry="1.16" transform="translate(689.39 208.06) rotate(142.42)"/><path d="M309,298.66a134.26,134.26,0,0,0,13.89,4.15c1.17.26,2.36.42,3.53.65s2.37.34,3.56.4l1.79.14c.59,0,1.19.05,1.78.07,1.2.07,2.39,0,3.58,0s2.39-.11,3.58-.21,2.37-.23,3.55-.44a64.75,64.75,0,0,0,7-1.45,69,69,0,0,0,13.44-5.32,45.75,45.75,0,0,1-13,6.81,52.06,52.06,0,0,1-14.54,2.61,49.75,49.75,0,0,1-14.68-1.74A67.31,67.31,0,0,1,309,298.66Z"/><g opacity="0.1" ><path d="M338.67,312.33c10.32-.58,20.87-7.3,26-15.69-.22.66-19.12,9.53-26.86,8.95-17.2-1.29-29.28-7-28.86-6.93C309,298.66,322,313.25,338.67,312.33Z"/></g>    </g></svg>