<!--  ~ Copyright (C) 2018 Baidu, Inc. All Rights Reserved.  --><svg viewBox="0 0 640 480" xmlns="http://www.w3.org/2000/svg">    <g id="back-ground-cl">        <rect fill="none" width="640" height="480" />        <ellipse opacity="0.1" cx="331.93" cy="418.82" rx="168.39" ry="32.01"/>    </g>    <g id="body">        <defs>            <clipPath id="outline">                <path fill="none"  d="M356.34,93.11,355.15,93a2.48,2.48,0,0,0-.27,0c-2.91-2-5.82-4-8.74-5.93L328.09,74.67l-18-12.43c-6-4.14-12-8.28-18.09-12.3-3-2-6.06-4-9.15-5.88-.77-.46-1.54-.9-2.3-1.3l-.44-.22a.13.13,0,0,1,0,.06c0,.4,0,.83,0,1.27,0,.87.05,1.76.09,2.65.45,7.19,1.48,14.44,2.38,21.66l5,35.75c-.17.14-.31.22-.5.36-16.78,11.82-29.49,28.77-40.42,45.94a377.39,377.39,0,0,0-52.43,133.52c-1.64,9-3,18.11-3.91,27.25-2.95,30.42-1.69,70.59,28.43,87.67,2.13,1.21,13,3.79,8.38,7.39-2.4,1.85-14.48,3-13.86,6.68.7,4.07,12.39,4.42,15.14,4.63a154.42,154.42,0,0,0,17.61.25c.5,0,1.36,0,2.29,0,0-.41,0-.81,0-1.23,0-1.89-.11-3.82,0-5.9s.23-3.84.28-5.79q.13-5.81,0-11.62c-.08-3.87-.29-7.74-.56-11.6s-.7-7.72-1.31-11.54a69.07,69.07,0,0,0-2.59-11.28,32,32,0,0,0-2.24-5.33,16.17,16.17,0,0,0-3.47-4.62h0a16.23,16.23,0,0,1,3.86,4.39,32.74,32.74,0,0,1,2.6,5.28,70.82,70.82,0,0,1,3.27,11.3A156.39,156.39,0,0,1,250.86,393c.2,3.91.31,7.82.27,11.74,0,1.94-.06,4-.17,5.88s.11,3.77.12,5.78a20.78,20.78,0,0,1-.16,3.11,10.25,10.25,0,0,1-.35,1.64,5.4,5.4,0,0,1-.83,1.73,8,8,0,0,1-2.69,2.28,24.91,24.91,0,0,1-2.79,1.32c-.91.38-1.78.74-2.57,1.14a5.63,5.63,0,0,0-1.85,1.34,2.09,2.09,0,0,0-.43,1.64,4,4,0,0,0,.82,1.9,8.07,8.07,0,0,0,1,1,5.5,5.5,0,0,1,.24-3.1,6.54,6.54,0,0,1,2.78-3.37,8.36,8.36,0,0,1,2-.77,12.23,12.23,0,0,1,1.87-.39,13.57,13.57,0,0,1,3.88,0,13.47,13.47,0,0,1-3.14,2.29c-1.11.61-2.2,1.06-3,1.5a9.43,9.43,0,0,0-2.27,1.92,12.87,12.87,0,0,0-1.91,3l.46-.38a13.4,13.4,0,0,0,2.29,1.19,20.72,20.72,0,0,0,5.24,1.4c.78.1,1.56.16,2.35.21a2.79,2.79,0,0,1-.44-.92,3.51,3.51,0,0,1,.15-2.17,7.07,7.07,0,0,1,2.48-3,10,10,0,0,1,3.23-1.62,7.49,7.49,0,0,1,3.65-.16,28.26,28.26,0,0,1-2.6,2.28c-.84.66-1.66,1.29-2.49,1.9a23.66,23.66,0,0,0-2.22,1.75,3.44,3.44,0,0,0-.74,1,2.58,2.58,0,0,0-.2,1.56l.56-.58a48.94,48.94,0,0,0,7.56-.3,41.54,41.54,0,0,0,5.56-1,15.07,15.07,0,0,0,4.81-2.28,23.18,23.18,0,0,0,6.94-8.47c.21-.42.39-.85.59-1.27l.46-1.26c.26-.9.52-1.81.73-2.75.45-1.86.84-3.77,1.26-5.67.81-3.81,1.63-7.63,2.6-11.42a113.45,113.45,0,0,1,3.48-11.21,49,49,0,0,1,5.19-10.48c-3.75,6.85-5.69,14.44-7.24,22-.76,3.66-1.4,7.35-2,11.06a314,314,0,0,0,33.1,5.43c21.48,2.28,43.63,2.35,64.74-2.68a85.25,85.25,0,0,0,8.74-2.61c-.67-3.67-.88-7.34-1.29-10.93-.18-1.86-.49-3.71-.78-5.59s-.58-3.74-.95-5.57a29.16,29.16,0,0,0-1.73-5.34c-.67-1.77-1.29-3.56-1.9-5.35h0c.75,1.74,1.51,3.47,2.32,5.18a28.53,28.53,0,0,1,2.08,5.32c.5,1.85.89,3.7,1.29,5.55s.82,3.71,1.13,5.6c.6,3.76.95,7.53,1.82,11.12a28.69,28.69,0,0,0,1.71,5.19,27.72,27.72,0,0,0,2.71,4.7,18.59,18.59,0,0,0,8.14,6.58,29.09,29.09,0,0,0,5.24,1.25,45.57,45.57,0,0,0,5.48.52c1.28,0,2.56,0,3.84,0l.55.56a2.54,2.54,0,0,0-.2-1.55,3.44,3.44,0,0,0-.74-1,22.12,22.12,0,0,0-2.22-1.75c-.83-.61-1.65-1.24-2.49-1.9a29.86,29.86,0,0,1-2.6-2.28,7.37,7.37,0,0,1,3.65.16,10,10,0,0,1,3.23,1.62,7.1,7.1,0,0,1,2.48,3,3.62,3.62,0,0,1,.15,2.18,2.72,2.72,0,0,1-.45.94l.3,0a23.22,23.22,0,0,0,5.27-.88,16.74,16.74,0,0,0,4.32-1.93l.46.39a12.46,12.46,0,0,0-1.91-3,9.43,9.43,0,0,0-2.27-1.92c-.84-.44-1.93-.89-3.05-1.5a13.63,13.63,0,0,1-3.13-2.29,13.57,13.57,0,0,1,3.88.05,12.23,12.23,0,0,1,1.87.39,8.36,8.36,0,0,1,2,.77,6.56,6.56,0,0,1,2.78,3.36,5.46,5.46,0,0,1,.23,3.14,4.48,4.48,0,0,0,1.86-3.14,2.21,2.21,0,0,0-.46-1.63,5.32,5.32,0,0,0-1.75-1.3c-1.51-.77-3.32-1.32-5.16-2.14a12.14,12.14,0,0,1-2.77-1.64,6.27,6.27,0,0,1-1.24-1.32,4.21,4.21,0,0,1-.5-.89,5.48,5.48,0,0,1-.28-.91,14.89,14.89,0,0,1-.23-1.52l-.18-1.44c-.13-1-.19-1.92-.26-2.88a104.74,104.74,0,0,1,1.2-22.89c1.11-7.54,2.75-15,4.36-22.33a89.58,89.58,0,0,1,2.87-11,23.91,23.91,0,0,1,2.59-5.12,17.25,17.25,0,0,1,3.95-4.09,20,20,0,0,0-5.79,9.46,88.3,88.3,0,0,0-2.19,11.06c-1.26,7.46-2.59,14.9-3.47,22.36-.44,3.74-.76,7.47-.93,11.21a88.36,88.36,0,0,0,.24,11.16c.07.88.15,1.77.28,2.65,5.44.88,11.37.46,16.75.3a155.32,155.32,0,0,0,19.15-1.45c2.36-.37,3.95,0,2.58-2.3-1.61-2.7-4-4-6.93-5-2.41-.82-9.3-1-10.71-3.45-.77-1.34.08-2.05,1-2.94,1.35-1.35,4-2.21,5.6-3.24q3-1.89,5.8-4.05a69.75,69.75,0,0,0,18.8-22.19c8.95-16.71,10.93-36.3,9.16-54.94-2.24-23.72-9.25-47.32-17.25-69.67-8.65-24.15-19.37-47.5-30.8-70.44-9.42-18.92-19.18-36.8-34.41-51.76C389.07,108.75,373.57,98.42,356.34,93.11,8,6.24Z"/><path fill="none"  d="M145,317.78h27.56l-71.92-39.63L129.33,312l-30.8,2.45,90.83,48.08a96.53,96.53,0,0,1-2.11-9.92Z"/><path fill="none"  d="M267.39,117.6c1.46-1.56,3-3.07,4.5-4.56-8.5,2.38-22,7.21-31.5,15.67-6,5.32-12.3,12.9-18.44,20.23-9.54,11.4-19.41,23.19-28.86,27.91-6.61,3.31-16.2,5.12-26.35,7.05C153.57,186.38,140,189,134,194.9c-7.1,7.1-3.51,37.79,4.28,53.22,2.24,4.45,4.62,6.95,6.38,6.69,5.45-.82,9.67-8.05,14.14-15.71,3.63-6.21,7.38-12.63,12.3-16.56l2.2-1.76c12-9.52,40-31.82,42.9-43.07,1.67-6.38,9.55-20.13,19.87-32.1,9.45-11,17.5-16.77,24-19.66C262.44,123.09,264.87,120.29,267.39,117.6Z"/><path fill="none"  d="M532.28,181.08c-10.22,4.15-22.94,9.31-32.5,5.77-6.34-2.35-8.9-9-12.14-17.48-4.9-12.81-11.63-30.37-35.73-44.7-26.93-16-51.52-19-64.41-19.27a130.53,130.53,0,0,1,16.75,14c6.92.86,16.19,3.16,23.95,9.12,15.12,11.61,26.85,33,37.2,51.85,5.79,10.54,10.78,19.64,15.42,25.25l2.36,2.86c11.84,14.38,23,27.95,33.76,24.21,3.76-1.3,9.55-8.48,15.49-19.2,5.4-9.73,10.22-21.07,12.28-28.89,1.53-5.79.93-7.29.8-7.53C543.2,176.65,537.9,178.81,532.28,181.08Z"/><path d="M546.25,174.21c-3.18-.73-8.44,1.39-15.09,4.09-9.75,3.95-21.88,8.87-30.34,5.74-5.06-1.88-7.29-7.69-10.37-15.74-5.07-13.23-12-31.35-37-46.21-31-18.41-59-20-70.37-19.67q-3.3-2.11-6.74-4a99.76,99.76,0,0,0-26.06-10q-10.33-7.94-20.83-15.65c-11.77-8.66-23.64-17.16-35.8-25.32-3.06-2-6.12-4-9.31-5.91-.8-.47-1.61-.93-2.47-1.37a13.21,13.21,0,0,0-1.4-.64c-.15-.05-.25-.1-.44-.15l-.31-.07a1.36,1.36,0,0,0-.46,0,1.72,1.72,0,0,0-.73.16,2,2,0,0,0-.66.53,2.53,2.53,0,0,0-.38.72,6.8,6.8,0,0,0-.28,1.74c0,.51,0,1,0,1.47,0,1,.06,1.89.13,2.82.29,3.7.75,7.33,1.24,11s1.06,7.25,1.66,10.85c1.78,11,3.84,21.84,6.11,32.69a105.63,105.63,0,0,0-9.75,7.54c-7,1.55-25.65,6.53-38.17,17.72-6.13,5.47-12.54,13.13-18.75,20.55-9.35,11.16-19,22.71-27.9,27.15-6.24,3.12-15.63,4.9-25.57,6.78-13.61,2.57-27.68,5.23-34.28,11.83-8.81,8.81-3.91,41.57,3.72,56.7,2.8,5.54,5.74,8.35,8.77,8.35a4.71,4.71,0,0,0,.74-.06c6.86-1,11.44-8.86,16.28-17.16,3.49-6,7.1-12.14,11.58-15.73l2.2-1.75c13.22-10.53,40.75-32.44,43.93-44.66,2.56-9.8,19-34.76,36-46.21-10.74,14.19-19.77,29.87-27.85,45.51a378.65,378.65,0,0,0-27.51,69.12q-5.15,17.82-8.5,36.06c-3.67,20.16-7.18,43.49-4.6,65.22l-33.26-27.39h30.85L87.8,267.65l35.45,41.77L88,312.22l102.56,54.29A73.58,73.58,0,0,0,198.19,383a54.05,54.05,0,0,0,16.37,16.68,55.94,55.94,0,0,0,5.28,3c.46.23,2,1.13,3.25,1.71-.13,0-.23.1-.31.12-1.79.63-3.6,1.17-5.38,1.82-3.43,1.25-9.09,3.21-6.82,8,1.88,3.92,8,4.8,11.71,5.38a117,117,0,0,0,20,1c1.43,0,3.41.1,5.39,0a3.67,3.67,0,0,1-.27.46c-.78,1.08-2.5,1.86-4.26,2.58-.89.36-1.82.74-2.78,1.21a8.75,8.75,0,0,0-2.81,2.1,5.2,5.2,0,0,0-.95,1.84,5.44,5.44,0,0,0-.14,2,7,7,0,0,0,1.42,3.42,13.23,13.23,0,0,0,5.37,3.72,23.2,23.2,0,0,0,6,1.57,48.66,48.66,0,0,0,12-.11,46.19,46.19,0,0,0,5.91-1.2,17.82,17.82,0,0,0,5.64-2.79,23.54,23.54,0,0,0,4.39-4.36,28.57,28.57,0,0,0,3.12-5.23c.22-.46.4-.93.6-1.4l.5-1.5c.25-1,.5-1.95.68-2.91s.43-2.15.63-3.23c22.29,4.83,45.24,7.68,68.06,6.77a160.1,160.1,0,0,0,32.55-4.43q3.63-.9,7.19-2a29,29,0,0,0,3.8,8.11,20.46,20.46,0,0,0,9.09,7.68,31,31,0,0,0,5.75,1.49,47.09,47.09,0,0,0,5.79.67,45.51,45.51,0,0,0,5.84,0c1-.07,1.92-.15,2.94-.3a24.39,24.39,0,0,0,3-.66,19,19,0,0,0,5.57-2.55,9.63,9.63,0,0,0,2.39-2.34,6.59,6.59,0,0,0,1.21-3.38,5.81,5.81,0,0,0-.19-1.92,5.38,5.38,0,0,0-.92-1.76,8.31,8.31,0,0,0-2.74-2.09c-1.87-.93-3.7-1.46-5.32-2.18s-2.8-1.53-3.1-2.52l.76.08a143.8,143.8,0,0,0,20.86,0c5.57-.29,11.91-.22,17.3-1.84,3.77-1.14,2.9-4.87.85-7.65-3.27-4.44-9.45-5.46-14.45-6.64l-.43-.13c.93-.57,1.95-1.32,2.33-1.55A76.48,76.48,0,0,0,462.69,389c14-12.67,21.83-30.36,24.28-48.89,2.85-21.53-1.29-43.22-6.67-64-6.48-25.07-15.82-49.32-26.42-72.92-5.39-12-11.13-23.86-17-35.62-5.06-10.06-10.07-20.08-16.63-29.27a147.15,147.15,0,0,0-12.42-15.14A44.36,44.36,0,0,1,426.37,131c14.63,11.22,26.2,32.31,36.4,50.91,5.86,10.67,10.92,19.89,15.74,25.72l2.36,2.86c10.95,13.3,21.36,25.95,32.32,25.95a14.49,14.49,0,0,0,4.74-.81c11.66-4.06,31.39-46.39,30.79-57.55C548.57,175.31,547.3,174.45,546.25,174.21,-310.16-28.6c-10.32,12-18.2,25.72-19.87,32.1-2.93,11.25-30.94,33.55-42.9,43.07l-2.2,1.76c-4.92,3.93-8.67,10.35-12.3,16.56-4.47,7.66-8.69,14.89-14.14,15.71-1.76.26-4.14-2.24-6.38-6.69C130.51,232.69,126.92,202,134,194.9c5.94-5.94,19.55-8.52,32.72-11,10.15-1.93,19.74-3.74,26.35-7.05,9.45-4.72,19.32-16.51,28.86-27.91,6.14-7.33,12.48-14.91,18.44-20.23,9.47-8.46,23-13.29,31.5-15.67-1.54,1.49-3,3-4.5,4.56-2.52,2.69-4.95,5.49-7.3,8.35C253.59,128.84,245.54,134.64,236.09,145.61,98.53,314.4l30.8-2.45-28.68-33.8,71.92,39.63H145l42.24,34.78a96.53,96.53,0,0,0,2.11,9.92,436.29,173.09c11.43,22.94,22.15,46.29,30.8,70.44,8,22.35,15,46,17.25,69.67,1.77,18.64-.21,38.23-9.16,54.94a69.75,69.75,0,0,1-18.8,22.19q-2.81,2.16-5.8,4.05c-1.64,1-4.25,1.89-5.6,3.24-.89.89-1.74,1.6-1,2.94,1.41,2.48,8.3,2.63,10.71,3.45,2.95,1,5.32,2.32,6.93,5,1.37,2.3-.22,1.93-2.58,2.3a155.32,155.32,0,0,1-19.15,1.45c-5.38.16-11.31.58-16.75-.3-.13-.88-.21-1.77-.28-2.65a88.36,88.36,0,0,1-.24-11.16c.17-3.74.49-7.47.93-11.21.88-7.46,2.21-14.9,3.47-22.36A88.3,88.3,0,0,1,429.24,354a20,20,0,0,1,5.79-9.46,17.25,17.25,0,0,0-3.95,4.09,23.91,23.91,0,0,0-2.59,5.12,89.58,89.58,0,0,0-2.87,11c-1.61,7.38-3.25,14.79-4.36,22.33a104.74,104.74,0,0,0-1.2,22.89c.07,1,.13,1.92.26,2.88l.18,1.44a14.89,14.89,0,0,0,.23,1.52,5.48,5.48,0,0,0,.28.91,4.21,4.21,0,0,0,.5.89,6.27,6.27,0,0,0,1.24,1.32,12.14,12.14,0,0,0,2.77,1.64c1.84.82,3.65,1.37,5.16,2.14a5.32,5.32,0,0,1,1.75,1.3,2.21,2.21,0,0,1,.46,1.63,4.48,4.48,0,0,1-1.86,3.14,5.46,5.46,0,0,0-.23-3.14,6.56,6.56,0,0,0-2.78-3.36,8.36,8.36,0,0,0-2-.77,12.23,12.23,0,0,0-1.87-.39,13.57,13.57,0,0,0-3.88-.05,13.63,13.63,0,0,0,3.13,2.29c1.12.61,2.21,1.06,3.05,1.5a9.43,9.43,0,0,1,2.27,1.92,12.46,12.46,0,0,1,1.91,3l-.46-.39a16.74,16.74,0,0,1-4.32,1.93,23.22,23.22,0,0,1-5.27.88l-.3,0a2.72,2.72,0,0,0,.45-.94,3.62,3.62,0,0,0-.15-2.18,7.1,7.1,0,0,0-2.48-3,10,10,0,0,0-3.23-1.62,7.37,7.37,0,0,0-3.65-.16,29.86,29.86,0,0,0,2.6,2.28c.84.66,1.66,1.29,2.49,1.9a22.12,22.12,0,0,1,2.22,1.75,3.44,3.44,0,0,1,.74,1,2.54,2.54,0,0,1,.2,1.55l-.55-.56c-1.28,0-2.56.06-3.84,0a45.57,45.57,0,0,1-5.48-.52,29.09,29.09,0,0,1-5.24-1.25,18.59,18.59,0,0,1-8.14-6.58,27.72,27.72,0,0,1-2.71-4.7,28.69,28.69,0,0,1-1.71-5.19c-.87-3.59-1.22-7.36-1.82-11.12-.31-1.89-.73-3.76-1.13-5.6s-.79-3.7-1.29-5.55a28.53,28.53,0,0,0-2.08-5.32c-.81-1.71-1.57-3.44-2.32-5.18h0c.61,1.79,1.23,3.58,1.9,5.35a29.16,29.16,0,0,1,1.73,5.34c.37,1.83.65,3.7.95,5.57s.6,3.73.78,5.59c.41,3.59.62,7.26,1.29,10.93a85.25,85.25,0,0,1-8.74,2.61c-21.11,5-43.26,5-64.74,2.68a314,314,0,0,1-33.1-5.43c.63-3.71,1.27-7.4,2-11.06,1.55-7.58,3.49-15.17,7.24-22a49,49,0,0,0-5.19,10.48,113.45,113.45,0,0,0-3.48,11.21c-1,3.79-1.79,7.61-2.6,11.42-.42,1.9-.81,3.81-1.26,5.67-.21.94-.47,1.85-.73,2.75l-.46,1.26c-.2.42-.38.85-.59,1.27a23.18,23.18,0,0,1-6.94,8.47,15.07,15.07,0,0,1-4.81,2.28,41.54,41.54,0,0,1-5.56,1,48.94,48.94,0,0,1-7.56.3l-.56.58a2.58,2.58,0,0,1,.2-1.56,3.44,3.44,0,0,1,.74-1,23.66,23.66,0,0,1,2.22-1.75c.83-.61,1.65-1.24,2.49-1.9a28.26,28.26,0,0,0,2.6-2.28,7.49,7.49,0,0,0-3.65.16,10,10,0,0,0-3.23,1.62,7.07,7.07,0,0,0-2.48,3,3.51,3.51,0,0,0-.15,2.17,2.79,2.79,0,0,0,.44.92c-.79,0-1.57-.11-2.35-.21a20.72,20.72,0,0,1-5.24-1.4,13.4,13.4,0,0,1-2.29-1.19l-.46.38a12.87,12.87,0,0,1,1.91-3,9.43,9.43,0,0,1,2.27-1.92c.84-.44,1.93-.89,3-1.5a13.47,13.47,0,0,0,3.14-2.29,13.57,13.57,0,0,0-3.88,0,12.23,12.23,0,0,0-1.87.39,8.36,8.36,0,0,0-2,.77,6.54,6.54,0,0,0-2.78,3.37,5.5,5.5,0,0,0-.24,3.1,8.07,8.07,0,0,1-1-1,4,4,0,0,1-.82-1.9,2.09,2.09,0,0,1,.43-1.64,5.63,5.63,0,0,1,1.85-1.34c.79-.4,1.66-.76,2.57-1.14a24.91,24.91,0,0,0,2.79-1.32,8,8,0,0,0,2.69-2.28,5.4,5.4,0,0,0,.83-1.73,10.25,10.25,0,0,0,.35-1.64,20.78,20.78,0,0,0,.16-3.11c0-2-.18-4-.12-5.78s.15-3.94.17-5.88c0-3.92-.07-7.83-.27-11.74a156.39,156.39,0,0,0-2.77-23.32,70.82,70.82,0,0,0-3.27-11.3,32.74,32.74,0,0,0-2.6-5.28,16.23,16.23,0,0,0-3.86-4.39h0a16.17,16.17,0,0,1,3.47,4.62,32,32,0,0,1,2.24,5.33A69.07,69.07,0,0,1,246.66,370c.61,3.82,1,7.68,1.31,11.54s.48,7.73.56,11.6.07,7.75,0,11.62c0,1.95-.13,3.82-.28,5.79s.05,4,0,5.9c0,.42,0,.82,0,1.23-.93,0-1.79,0-2.29,0a154.42,154.42,0,0,1-17.61-.25c-2.75-.21-14.44-.56-15.14-4.63-.62-3.64,11.46-4.83,13.86-6.68,4.66-3.6-6.25-6.18-8.38-7.39-30.12-17.08-31.38-57.25-28.43-87.67.88-9.14,2.27-18.22,3.91-27.25a377.39,377.39,0,0,1,52.43-133.52c10.93-17.17,23.64-34.12,40.42-45.94.19-.14.33-.22.5-.36l-5-35.75c-.9-7.22-1.93-14.47-2.38-21.66,0-.89-.08-1.78-.09-2.65,0-.44,0-.87,0-1.27a.13.13,0,0,0,0-.06l.44.22c.76.4,1.53.84,2.3,1.3,3.09,1.85,6.12,3.87,9.15,5.88,6.08,4,12.08,8.16,18.09,12.3l18,12.43,18.05,12.41c2.92,2,5.83,4,8.74,5.93a2.48,2.48,0,0,1,.27,0l1.19.07c17.23,5.31,32.73,15.64,45.54,28.22C417.11,136.29,426.87,154.17,436.29,173.09,108.42,11.56c-2.06,7.82-6.88,19.16-12.28,28.89-5.94,10.72-11.73,17.9-15.49,19.2-10.75,3.74-21.92-9.83-33.76-24.21l-2.36-2.86c-4.64-5.61-9.63-14.71-15.42-25.25-10.35-18.86-22.08-40.24-37.2-51.85-7.76-6-17-8.26-23.95-9.12a130.53,130.53,0,0,0-16.75-14c12.89.28,37.48,3.26,64.41,19.27,24.1,14.33,30.83,31.89,35.73,44.7,3.24,8.46,5.8,15.13,12.14,17.48,9.56,3.54,22.28-1.62,32.5-5.77,5.62-2.27,10.92-4.43,13.23-4C545.64,177.36,546.24,178.86,544.71,184.65Z"/><polygon fill="#b07f6e"  points="364.29 99.35 364.29 99.35 364.29 99.35 364.29 99.35"/>            </clipPath>        </defs>        <g clip-path="url(#outline)">            <rect fill="#49ADB7" width="640" height="480" />        </g>    </g>    <g id="pattern">        <g clip-path="url(#outline)">            <path fill="#FF8431"  d="M452.2,315a10.59,10.59,0,0,0,4.79-3.93,9.23,9.23,0,0,0,1.6-5.73,41.53,41.53,0,0,1-3.94,3.62,16.43,16.43,0,0,1-4,2.36,30.14,30.14,0,0,1-4.62,1.5c-1.65.41-3.39.77-5.33,1.21a11,11,0,0,0,5.55,1.92A13,13,0,0,0,452.2,315Z"/><path fill="#FF8431"  d="M197.27,349.6a19,19,0,0,0,7.35,4.14,16.14,16.14,0,0,0,8.24.34,55.25,55.25,0,0,1-7-3.24,32.19,32.19,0,0,1-5.9-4.23,48.7,48.7,0,0,1-5.1-5.33c-1.62-1.95-3.16-4-4.78-6.21A18.77,18.77,0,0,0,192.2,343,22.58,22.58,0,0,0,197.27,349.6Z"/><path fill="#FF8431"  d="M224.91,397.06a23.36,23.36,0,0,0,2.64.15,28.34,28.34,0,0,0,5.22-.35,7.8,7.8,0,0,0,1.28-.23l1.26-.32c.84-.21,1.66-.45,2.48-.69a44.9,44.9,0,0,0,4.68-2.12c-1.74,0-3.39.1-5,.19-.83,0-1.65,0-2.46,0s-1.62.11-2.43,0c-1.6-.11-3.2,0-4.76-.29-.77-.12-1.57-.11-2.33-.28l-2.3-.43a35.06,35.06,0,0,1-8.7-3.22,33.37,33.37,0,0,1-7.82-5.77,17.75,17.75,0,0,0,6.07,8.37,24.09,24.09,0,0,0,9.59,4.52Z"/><path fill="#FF8431"  d="M251,301.11c-1.48-.12-2.88,0-4.28,0s-2.76,0-4.12,0-2.7,0-4-.2-2.63-.26-3.94-.41a46.36,46.36,0,0,1-7.65-1.86,39.27,39.27,0,0,1-7.48-3.43,15.66,15.66,0,0,0,6.14,6.26,23.48,23.48,0,0,0,8.39,3l2.22.23a20.78,20.78,0,0,0,2.23,0,25.62,25.62,0,0,0,4.38-.46A33.12,33.12,0,0,0,247,303,32.27,32.27,0,0,0,251,301.11Z"/><path fill="#FF8431"  d="M198.49,370.35a8.42,8.42,0,0,0,7.1,2.09,6.64,6.64,0,0,0,3.48-1.68,21.91,21.91,0,0,0-3.27-1.46c-1-.33-1.93-.68-2.87-.92s-1.87-.53-2.89-.76-2.1-.45-3.46-.67A5.88,5.88,0,0,0,198.49,370.35Z"/><path fill="#FF8431"  d="M210.13,304.93c-1.31-.16-2.58-.47-3.85-.74a43.64,43.64,0,0,1-7.38-2.5,37.13,37.13,0,0,1-7-4.11,15.36,15.36,0,0,0,5.44,6.8,22.62,22.62,0,0,0,8,3.7l2.18.42a20,20,0,0,0,2.19.21,25.6,25.6,0,0,0,4.38-.1,33.39,33.39,0,0,0,4.26-.82,31.83,31.83,0,0,0,4-1.59c-1.46-.24-2.85-.27-4.23-.37s-2.74-.2-4.08-.37S211.42,305.21,210.13,304.93Z"/><path fill="#FF8431"  d="M471.52,331.27a14.34,14.34,0,0,0,5.83-.49,16.14,16.14,0,0,0,5.14-2.58,20.19,20.19,0,0,0,2.11-1.92,15.24,15.24,0,0,0,1.66-2.37,17.24,17.24,0,0,0-2.73.72c-.89.22-1.7.54-2.53.8-1.64.52-3.2,1.07-4.77,1.52s-3.13.86-4.76,1.18a40.54,40.54,0,0,1-5.25.73A9,9,0,0,0,471.52,331.27Z"/><path fill="#FF8431"  d="M408.74,407.11c-.92,0-1.78.07-2.65.1-1.72.07-3.37.18-5,.2s-3.25,0-4.91-.12a41.48,41.48,0,0,1-5.25-.69,9,9,0,0,0,4.47,3.72,14.23,14.23,0,0,0,5.75,1.08,16.1,16.1,0,0,0,5.64-1.12,17.86,17.86,0,0,0,2.54-1.3,15.65,15.65,0,0,0,2.24-1.84A19.24,19.24,0,0,0,408.74,407.11Z"/><path fill="#FF8431"  d="M410.59,370.63c-1.67.41-3.26.86-4.86,1.2s-3.18.66-4.83.88a40.42,40.42,0,0,1-5.28.38,9.09,9.09,0,0,0,5.13,2.75,14.41,14.41,0,0,0,5.85-.1,16.05,16.05,0,0,0,5.29-2.25,18.32,18.32,0,0,0,2.23-1.78,14.76,14.76,0,0,0,1.82-2.26,19,19,0,0,0-2.78.55C412.27,370.16,411.43,370.42,410.59,370.63Z"/><path fill="#FF8431"  d="M241,384.12a39,39,0,0,1-5.82-1.48,37.4,37.4,0,0,1-5.52-2.36,63.23,63.23,0,0,1-5.58-3.27,12.89,12.89,0,0,0,3.75,5.82,16.62,16.62,0,0,0,6.06,3.59,16.79,16.79,0,0,0,7,.85,15.81,15.81,0,0,0,3.42-.67,16.51,16.51,0,0,0,3.14-1.44c-1.16-.29-2.25-.33-3.32-.51S242,384.38,241,384.12Z"/><path fill="#FF8431"  d="M207.65,319.48c.52,0,1,.08,1.55.1a8.81,8.81,0,0,0,1.54-.05c.52,0,1-.12,1.53-.19a14.71,14.71,0,0,0,2.95-.95,27.94,27.94,0,0,0-2.83-1l-1.35-.46-.67-.19-.65-.25c-.43-.15-.86-.3-1.29-.43l-1.26-.47a10.16,10.16,0,0,1-1.23-.49c-.41-.17-.83-.31-1.23-.49-1.6-.7-3.16-1.49-4.73-2.37s-3.14-1.87-4.85-3.06a10.67,10.67,0,0,0,2.87,5.49,15.51,15.51,0,0,0,5.12,3.61,16.76,16.76,0,0,0,3,.95C206.62,319.3,207.13,319.43,207.65,319.48Z"/><path fill="#FF8431"  d="M217.52,335.45a16.34,16.34,0,0,0,3.68-.81,17.09,17.09,0,0,0,3.35-1.65c-1.27-.21-2.44-.15-3.61-.29s-2.28-.17-3.39-.4a34.56,34.56,0,0,1-6.36-1.45,39.54,39.54,0,0,1-6.07-2.52c-2-1-4-2.17-6.09-3.48a14.9,14.9,0,0,0,4.32,6.06,18.54,18.54,0,0,0,6.6,3.74A17.73,17.73,0,0,0,217.52,335.45Z"/><path fill="#FF8431"  d="M274.84,395.63a54.9,54.9,0,0,1-5.85-1,55.64,55.64,0,0,1-5.73-1.59c-1.93-.63-3.85-1.35-6-2.17a13.41,13.41,0,0,0,4.55,5,18,18,0,0,0,6.26,2.69,17.8,17.8,0,0,0,6.82.22,15.48,15.48,0,0,0,3.27-.87,15.26,15.26,0,0,0,3-1.58c-1.15-.23-2.21-.22-3.27-.36S275.85,395.8,274.84,395.63Z"/><path fill="#FF8431"  d="M230.62,365.14c-1.45-.43-2.85-.73-4.18-1.14s-2.66-.77-4-1.28a23.59,23.59,0,0,1-4.11-2,6.88,6.88,0,0,0,2.38,4.64,11.34,11.34,0,0,0,4.59,2.52,13.39,13.39,0,0,0,5.06.43,16.94,16.94,0,0,0,2.47-.53,11.74,11.74,0,0,0,2.33-1.09,14.75,14.75,0,0,0-2.35-.87C232.09,365.53,231.34,365.32,230.62,365.14Z"/><path fill="#FF8431"  d="M270.52,408.65a15.58,15.58,0,0,0,2.31-2.21,27.74,27.74,0,0,0-3.08.4c-.49.06-1,.11-1.45.19-.24,0-.47.07-.71.12l-.7.05q-.7.06-1.38.15l-1.36.06c-.23,0-.45,0-.67,0l-.67,0c-.45,0-.89,0-1.33,0a27.19,27.19,0,0,1-5.3-.8,42.62,42.62,0,0,1-5.62-1.8A10.58,10.58,0,0,0,255,409.5a13.71,13.71,0,0,0,6.32,1.9,15.32,15.32,0,0,0,1.66,0l.83-.06c.28,0,.55-.08.82-.14.54-.12,1.08-.21,1.61-.37s1-.37,1.52-.57a7.88,7.88,0,0,0,1.45-.73C269.62,409.24,270.08,409,270.52,408.65Z"/><path fill="#FF8431"  d="M450.25,375.6a10.49,10.49,0,0,0,4.83,3.94,13.47,13.47,0,0,0,6.31,1.08,12.27,12.27,0,0,0,1.6-.2,10.53,10.53,0,0,0,1.57-.37c.5-.18,1-.34,1.51-.53s.95-.48,1.41-.74a7.12,7.12,0,0,0,1.32-.86c.41-.32.82-.65,1.21-1a10.66,10.66,0,0,0,1.05-1.16,11.55,11.55,0,0,0,.91-1.26c-1.07.17-2,.48-2.93.71-.47.11-.93.21-1.38.33l-.67.19c-.22,0-.45.07-.67.12-.45.09-.88.18-1.31.3s-.88.12-1.31.19a7.86,7.86,0,0,1-1.28.16,9.38,9.38,0,0,1-1.29.12,29.4,29.4,0,0,1-5.21-.11A53.17,53.17,0,0,1,450.25,375.6Z"/><path fill="#FF8431"  d="M478,348a31.85,31.85,0,0,1-9.34,3.85,42.7,42.7,0,0,1-10.22,1.1,79.6,79.6,0,0,1-10.73-.8,27.29,27.29,0,0,0,10.46,3.92,28.76,28.76,0,0,0,11.42-.33,24.11,24.11,0,0,0,10.28-5.22,22.55,22.55,0,0,0,6.4-9.23A48.67,48.67,0,0,1,478,348Z"/><path fill="#FF8431"  d="M478.37,297.44a10.62,10.62,0,0,0,2.19-5.91,52.63,52.63,0,0,1-4.42,3.69,23.88,23.88,0,0,1-4.5,2.6,42.75,42.75,0,0,1-5,1.86c-1.77.54-3.61,1-5.63,1.62a12.32,12.32,0,0,0,6.05,1.48,15.07,15.07,0,0,0,6.23-1.32A12.65,12.65,0,0,0,478.37,297.44Z"/><path fill="#FF8431"  d="M436.35,389.41a7.43,7.43,0,0,0,4,.11,7.77,7.77,0,0,0,3.43-1.86,7.4,7.4,0,0,0,1.23-1.5,6.91,6.91,0,0,0,.72-1.87,13.39,13.39,0,0,0-1.9.29c-.59.08-1.09.26-1.61.35-1,.27-1.93.46-2.82.71l-2.77.65c-1,.23-2,.45-3.39.72A5.23,5.23,0,0,0,436.35,389.41Z"/><path fill="#FF8431"  d="M471.72,315.62a24,24,0,0,1-3.27,1.84,22.93,22.93,0,0,1-3.5,1.34c-1.28.39-2.63.72-4.25,1.13a7.47,7.47,0,0,0,4.46,2,9.38,9.38,0,0,0,5-.84,9.14,9.14,0,0,0,3.83-3.28,8.91,8.91,0,0,0,1.09-2.21,8.72,8.72,0,0,0,.35-2.44,23,23,0,0,0-2,1.3C472.81,314.84,472.31,315.3,471.72,315.62Z"/><path fill="#FF8431"  d="M450.25,367.65A25.15,25.15,0,0,1,447,369.5a24.14,24.14,0,0,1-3.51,1.33c-1.27.39-2.63.72-4.25,1.13a7.44,7.44,0,0,0,4.47,2,9.35,9.35,0,0,0,9.89-6.33,9.12,9.12,0,0,0,.36-2.44,21.74,21.74,0,0,0-2,1.3C451.34,366.87,450.85,367.34,450.25,367.65Z"/><path fill="#FF8431"  d="M459.37,334.92c-.74.23-1.39.56-2.05.8a36.45,36.45,0,0,1-3.74,1.25,19.58,19.58,0,0,1-3.76.54,27,27,0,0,1-4.46-.17,6.89,6.89,0,0,0,3.9,3.26,9.42,9.42,0,0,0,5.29.26,10.46,10.46,0,0,0,4.51-2.52,11.33,11.33,0,0,0,1.59-1.94,10.63,10.63,0,0,0,1-2.32A14.71,14.71,0,0,0,459.37,334.92Z"/><path fill="#FF8431"  d="M409.35,386.39a43.93,43.93,0,0,1-6.19.05c-2.13-.1-4.3-.3-6.67-.46a15.62,15.62,0,0,0,6.08,3.54,18,18,0,0,0,7.13.85,14.18,14.18,0,0,0,6.95-2.46,11.07,11.07,0,0,0,4.28-5.73,29.56,29.56,0,0,1-5.77,3A23.19,23.19,0,0,1,409.35,386.39Z"/><path fill="#FF8431"  d="M265,377.31c-1.72,0-3.37,0-5-.08s-3.24-.18-4.89-.4a40.12,40.12,0,0,1-5.2-1,9,9,0,0,0,4.25,4,14.4,14.4,0,0,0,5.68,1.4,16,16,0,0,0,5.69-.81,18,18,0,0,0,2.62-1.15,14.83,14.83,0,0,0,2.33-1.71,18.64,18.64,0,0,0-2.82-.19C266.71,377.29,265.84,377.33,265,377.31Z"/>            <g opacity="0.6" ><path fill="#C6DBC6"  d="M287.16,418.67c1.87-23.1,18-47.8,35.46-47.47,6.9.13,9,7.55,15.12,7.54s10.44-5.62,14.93-7.33c9.31-3.54,20.26,5.37,26.22,16.84,4.62,8.9,6.72,20.51,7.47,30.79.12,1.64-.53,1.82-2,2.51-2.33,1.08-3.57.86-6.43,1.67-14.89,4.2-29,4.06-44.39,3.93a153.5,153.5,0,0,1-45.95-7.74"/></g>        </g>    </g>    <g id="mask">        <path fill="#2d2926"  d="M219.12,178.47c2.56-9.8,19-34.76,36-46.21a181.92,181.92,0,0,1,12.29-14.66,119.8,119.8,0,0,1,9.18-8.85c-7,1.55-25.65,6.53-38.18,17.72-6.12,5.46-12.53,13.13-18.74,20.54-9.35,11.17-19,22.72-27.9,27.16-6.24,3.12-15.63,4.9-25.57,6.78-13.61,2.57-27.68,5.23-34.28,11.83-8.81,8.81-3.91,41.56,3.72,56.69,2.8,5.55,5.74,8.36,8.77,8.36a4.71,4.71,0,0,0,.74-.06c6.86-1,11.44-8.86,16.28-17.16,3.49-6,7.1-12.14,11.58-15.73l2.2-1.75C188.41,212.6,215.94,190.68,219.12,178.47Z"/><path opacity="0.1"  d="M288.85,110.38c-13.72,13.3-30.44,34.29-42.39,65-23.9,61.37-57.84,121.65-44.53,177.31s47.51,47.79,47.51,47.79l.26,18.7s-40.92,3.16-38.14-7.65c1-3.72,14.74-7.37,14.74-7.37s-26.55-11-32.52-32.47-10.59-46.15,4.07-110.78,43.72-108.6,56.48-124.35c8.74-10.79,17.74-23.88,33.11-33.84Z"/><path opacity="0.1"  d="M284.88,396.05s14.86,8.76,54,9.37,48.87-8.55,48.87-8.55l2.86,18.73s-25.26,8.56-52.34,6.52-50.91-3.67-57.22-6.92Z"/><path opacity="0.1"  d="M360.63,96.5s-78.25-57.37-81.48-55.77,37.09,54.14,44.42,59S363.07,109.12,360.63,96.5Z"/><path opacity="0.1"  d="M267.77,119.31s-15.88,3.25-26.88,15.06-22.4,31.37-33.4,41.95-29.73,19.55-41.13,28.11-34.21,31.77-34.21,31.77,5.15,21,12.75,20.09,16.57-23.35,23.09-29.87,42.76-33,48.46-44.8,15.89-42,44.4-53.35Z"/><path opacity="0.1"  d="M396.06,113.2s30.55-2,47.25,18.73,36.25,88.38,93.27,74.94c0,0-9.78,27.7-22,27.7s-35.41-24.26-61.9-74.13c-20.78-39.1-48.88-39.91-48.88-39.91Z"/><polygon opacity="0.1"  points="96.85 275.84 142.19 312.22 119.66 319.01 189.71 357.84 192.15 365.71 93.27 313.31 126.29 310.69 96.85 275.84"/><g opacity="0.1" ><path d="M484.37,336.38c.23,1.7-3.51,6.77-4.43,8.49-1.82,3.4-3.69,6.78-5.68,10.08A107.44,107.44,0,0,1,461,373.07a63.22,63.22,0,0,1-11,9.47,60.18,60.18,0,0,1-6.26,3.66,33.15,33.15,0,0,1-5.53,2.51c-4,1.16-6.15-2.21-7.32-5.52a39.63,39.63,0,0,1-2.34-17.54,118,118,0,0,1,2.55-14.42l-1.95,4.49c-3.06,11.13-4.58,22.56-6,34a4.63,4.63,0,0,0,.26,2.2,3.3,3.3,0,0,0-.88.72c-2.05,2.52-.69,11.11-.81,14.31a.64.64,0,0,0,.09.45c.16.19.46.14.69.08a108.08,108.08,0,0,0,24.47-9.44c9.47-5.29,16.41-12.76,22.79-21.4,3.19-4.31,7.4-8.22,9.2-13.28C482,354.67,485.64,345.54,484.37,336.38Z"/></g><path fill="#2d2926"  d="M546.25,174.21c-3.18-.74-8.44,1.39-15.09,4.09-9.75,3.95-21.88,8.87-30.34,5.74-5.07-1.88-7.29-7.69-10.37-15.74-5.07-13.23-12-31.35-37-46.21-31-18.41-59-20-70.37-19.68a131.09,131.09,0,0,1,24.72,20.67A44.23,44.23,0,0,1,426.37,131c14.63,11.22,26.2,32.31,36.4,50.91,5.86,10.67,10.92,19.89,15.74,25.72l2.36,2.86c10.95,13.3,21.36,25.95,32.32,25.95a14.49,14.49,0,0,0,4.74-.81c11.66-4.06,31.39-46.39,30.79-57.55C548.57,175.31,547.3,174.45,546.25,174.21Z"/>        <path fill="#fff" opacity="0.1"  d="M476.21,346l1.08-1.26a92.83,92.83,0,0,0,7.42-10.56,145.3,145.3,0,0,0-.81-27.45c-5.29-45.37-31.36-100.15-52-142.51s-47.25-57-47.25-57c6,6.79,32.31,49.69,42.63,70.05S469.92,273.93,477,318.19A76.17,76.17,0,0,1,476.21,346Z"/>    </g>    <g id="outline">        <path fill="none"  d="M356.34,93.11,355.15,93a2.48,2.48,0,0,0-.27,0c-2.91-2-5.82-4-8.74-5.93L328.09,74.67l-18-12.43c-6-4.14-12-8.28-18.09-12.3-3-2-6.06-4-9.15-5.88-.77-.46-1.54-.9-2.3-1.3l-.44-.22a.13.13,0,0,1,0,.06c0,.4,0,.83,0,1.27,0,.87.05,1.76.09,2.65.45,7.19,1.48,14.44,2.38,21.66l5,35.75c-.17.14-.31.22-.5.36-16.78,11.82-29.49,28.77-40.42,45.94a377.39,377.39,0,0,0-52.43,133.52c-1.64,9-3,18.11-3.91,27.25-2.95,30.42-1.69,70.59,28.43,87.67,2.13,1.21,13,3.79,8.38,7.39-2.4,1.85-14.48,3-13.86,6.68.7,4.07,12.39,4.42,15.14,4.63a154.42,154.42,0,0,0,17.61.25c.5,0,1.36,0,2.29,0,0-.41,0-.81,0-1.23,0-1.89-.11-3.82,0-5.9s.23-3.84.28-5.79q.13-5.81,0-11.62c-.08-3.87-.29-7.74-.56-11.6s-.7-7.72-1.31-11.54a69.07,69.07,0,0,0-2.59-11.28,32,32,0,0,0-2.24-5.33,16.17,16.17,0,0,0-3.47-4.62h0a16.23,16.23,0,0,1,3.86,4.39,32.74,32.74,0,0,1,2.6,5.28,70.82,70.82,0,0,1,3.27,11.3A156.39,156.39,0,0,1,250.86,393c.2,3.91.31,7.82.27,11.74,0,1.94-.06,4-.17,5.88s.11,3.77.12,5.78a20.78,20.78,0,0,1-.16,3.11,10.25,10.25,0,0,1-.35,1.64,5.4,5.4,0,0,1-.83,1.73,8,8,0,0,1-2.69,2.28,24.91,24.91,0,0,1-2.79,1.32c-.91.38-1.78.74-2.57,1.14a5.63,5.63,0,0,0-1.85,1.34,2.09,2.09,0,0,0-.43,1.64,4,4,0,0,0,.82,1.9,8.07,8.07,0,0,0,1,1,5.5,5.5,0,0,1,.24-3.1,6.54,6.54,0,0,1,2.78-3.37,8.36,8.36,0,0,1,2-.77,12.23,12.23,0,0,1,1.87-.39,13.57,13.57,0,0,1,3.88,0,13.47,13.47,0,0,1-3.14,2.29c-1.11.61-2.2,1.06-3,1.5a9.43,9.43,0,0,0-2.27,1.92,12.87,12.87,0,0,0-1.91,3l.46-.38a13.4,13.4,0,0,0,2.29,1.19,20.72,20.72,0,0,0,5.24,1.4c.78.1,1.56.16,2.35.21a2.79,2.79,0,0,1-.44-.92,3.51,3.51,0,0,1,.15-2.17,7.07,7.07,0,0,1,2.48-3,10,10,0,0,1,3.23-1.62,7.49,7.49,0,0,1,3.65-.16,28.26,28.26,0,0,1-2.6,2.28c-.84.66-1.66,1.29-2.49,1.9a23.66,23.66,0,0,0-2.22,1.75,3.44,3.44,0,0,0-.74,1,2.58,2.58,0,0,0-.2,1.56l.56-.58a48.94,48.94,0,0,0,7.56-.3,41.54,41.54,0,0,0,5.56-1,15.07,15.07,0,0,0,4.81-2.28,23.18,23.18,0,0,0,6.94-8.47c.21-.42.39-.85.59-1.27l.46-1.26c.26-.9.52-1.81.73-2.75.45-1.86.84-3.77,1.26-5.67.81-3.81,1.63-7.63,2.6-11.42a113.45,113.45,0,0,1,3.48-11.21,49,49,0,0,1,5.19-10.48c-3.75,6.85-5.69,14.44-7.24,22-.76,3.66-1.4,7.35-2,11.06a314,314,0,0,0,33.1,5.43c21.48,2.28,43.63,2.35,64.74-2.68a85.25,85.25,0,0,0,8.74-2.61c-.67-3.67-.88-7.34-1.29-10.93-.18-1.86-.49-3.71-.78-5.59s-.58-3.74-.95-5.57a29.16,29.16,0,0,0-1.73-5.34c-.67-1.77-1.29-3.56-1.9-5.35h0c.75,1.74,1.51,3.47,2.32,5.18a28.53,28.53,0,0,1,2.08,5.32c.5,1.85.89,3.7,1.29,5.55s.82,3.71,1.13,5.6c.6,3.76.95,7.53,1.82,11.12a28.69,28.69,0,0,0,1.71,5.19,27.72,27.72,0,0,0,2.71,4.7,18.59,18.59,0,0,0,8.14,6.58,29.09,29.09,0,0,0,5.24,1.25,45.57,45.57,0,0,0,5.48.52c1.28,0,2.56,0,3.84,0l.55.56a2.54,2.54,0,0,0-.2-1.55,3.44,3.44,0,0,0-.74-1,22.12,22.12,0,0,0-2.22-1.75c-.83-.61-1.65-1.24-2.49-1.9a29.86,29.86,0,0,1-2.6-2.28,7.37,7.37,0,0,1,3.65.16,10,10,0,0,1,3.23,1.62,7.1,7.1,0,0,1,2.48,3,3.62,3.62,0,0,1,.15,2.18,2.72,2.72,0,0,1-.45.94l.3,0a23.22,23.22,0,0,0,5.27-.88,16.74,16.74,0,0,0,4.32-1.93l.46.39a12.46,12.46,0,0,0-1.91-3,9.43,9.43,0,0,0-2.27-1.92c-.84-.44-1.93-.89-3.05-1.5a13.63,13.63,0,0,1-3.13-2.29,13.57,13.57,0,0,1,3.88.05,12.23,12.23,0,0,1,1.87.39,8.36,8.36,0,0,1,2,.77,6.56,6.56,0,0,1,2.78,3.36,5.46,5.46,0,0,1,.23,3.14,4.48,4.48,0,0,0,1.86-3.14,2.21,2.21,0,0,0-.46-1.63,5.32,5.32,0,0,0-1.75-1.3c-1.51-.77-3.32-1.32-5.16-2.14a12.14,12.14,0,0,1-2.77-1.64,6.27,6.27,0,0,1-1.24-1.32,4.21,4.21,0,0,1-.5-.89,5.48,5.48,0,0,1-.28-.91,14.89,14.89,0,0,1-.23-1.52l-.18-1.44c-.13-1-.19-1.92-.26-2.88a104.74,104.74,0,0,1,1.2-22.89c1.11-7.54,2.75-15,4.36-22.33a89.58,89.58,0,0,1,2.87-11,23.91,23.91,0,0,1,2.59-5.12,17.25,17.25,0,0,1,3.95-4.09,20,20,0,0,0-5.79,9.46,88.3,88.3,0,0,0-2.19,11.06c-1.26,7.46-2.59,14.9-3.47,22.36-.44,3.74-.76,7.47-.93,11.21a88.36,88.36,0,0,0,.24,11.16c.07.88.15,1.77.28,2.65,5.44.88,11.37.46,16.75.3a155.32,155.32,0,0,0,19.15-1.45c2.36-.37,3.95,0,2.58-2.3-1.61-2.7-4-4-6.93-5-2.41-.82-9.3-1-10.71-3.45-.77-1.34.08-2.05,1-2.94,1.35-1.35,4-2.21,5.6-3.24q3-1.89,5.8-4.05a69.75,69.75,0,0,0,18.8-22.19c8.95-16.71,10.93-36.3,9.16-54.94-2.24-23.72-9.25-47.32-17.25-69.67-8.65-24.15-19.37-47.5-30.8-70.44-9.42-18.92-19.18-36.8-34.41-51.76C389.07,108.75,373.57,98.42,356.34,93.11Zm8,6.24Z"/><path fill="none"  d="M145,317.78h27.56l-71.92-39.63L129.33,312l-30.8,2.45,90.83,48.08a96.53,96.53,0,0,1-2.11-9.92Z"/><path fill="none"  d="M267.39,117.6c1.46-1.56,3-3.07,4.5-4.56-8.5,2.38-22,7.21-31.5,15.67-6,5.32-12.3,12.9-18.44,20.23-9.54,11.4-19.41,23.19-28.86,27.91-6.61,3.31-16.2,5.12-26.35,7.05C153.57,186.38,140,189,134,194.9c-7.1,7.1-3.51,37.79,4.28,53.22,2.24,4.45,4.62,6.95,6.38,6.69,5.45-.82,9.67-8.05,14.14-15.71,3.63-6.21,7.38-12.63,12.3-16.56l2.2-1.76c12-9.52,40-31.82,42.9-43.07,1.67-6.38,9.55-20.13,19.87-32.1,9.45-11,17.5-16.77,24-19.66C262.44,123.09,264.87,120.29,267.39,117.6Z"/><path fill="none"  d="M532.28,181.08c-10.22,4.15-22.94,9.31-32.5,5.77-6.34-2.35-8.9-9-12.14-17.48-4.9-12.81-11.63-30.37-35.73-44.7-26.93-16-51.52-19-64.41-19.27a130.53,130.53,0,0,1,16.75,14c6.92.86,16.19,3.16,23.95,9.12,15.12,11.61,26.85,33,37.2,51.85,5.79,10.54,10.78,19.64,15.42,25.25l2.36,2.86c11.84,14.38,23,27.95,33.76,24.21,3.76-1.3,9.55-8.48,15.49-19.2,5.4-9.73,10.22-21.07,12.28-28.89,1.53-5.79.93-7.29.8-7.53C543.2,176.65,537.9,178.81,532.28,181.08Z"/><path d="M546.25,174.21c-3.18-.73-8.44,1.39-15.09,4.09-9.75,3.95-21.88,8.87-30.34,5.74-5.06-1.88-7.29-7.69-10.37-15.74-5.07-13.23-12-31.35-37-46.21-31-18.41-59-20-70.37-19.67q-3.3-2.11-6.74-4a99.76,99.76,0,0,0-26.06-10q-10.33-7.94-20.83-15.65c-11.77-8.66-23.64-17.16-35.8-25.32-3.06-2-6.12-4-9.31-5.91-.8-.47-1.61-.93-2.47-1.37a13.21,13.21,0,0,0-1.4-.64c-.15-.05-.25-.1-.44-.15l-.31-.07a1.36,1.36,0,0,0-.46,0,1.72,1.72,0,0,0-.73.16,2,2,0,0,0-.66.53,2.53,2.53,0,0,0-.38.72,6.8,6.8,0,0,0-.28,1.74c0,.51,0,1,0,1.47,0,1,.06,1.89.13,2.82.29,3.7.75,7.33,1.24,11s1.06,7.25,1.66,10.85c1.78,11,3.84,21.84,6.11,32.69a105.63,105.63,0,0,0-9.75,7.54c-7,1.55-25.65,6.53-38.17,17.72-6.13,5.47-12.54,13.13-18.75,20.55-9.35,11.16-19,22.71-27.9,27.15-6.24,3.12-15.63,4.9-25.57,6.78-13.61,2.57-27.68,5.23-34.28,11.83-8.81,8.81-3.91,41.57,3.72,56.7,2.8,5.54,5.74,8.35,8.77,8.35a4.71,4.71,0,0,0,.74-.06c6.86-1,11.44-8.86,16.28-17.16,3.49-6,7.1-12.14,11.58-15.73l2.2-1.75c13.22-10.53,40.75-32.44,43.93-44.66,2.56-9.8,19-34.76,36-46.21-10.74,14.19-19.77,29.87-27.85,45.51a378.65,378.65,0,0,0-27.51,69.12q-5.15,17.82-8.5,36.06c-3.67,20.16-7.18,43.49-4.6,65.22l-33.26-27.39h30.85L87.8,267.65l35.45,41.77L88,312.22l102.56,54.29A73.58,73.58,0,0,0,198.19,383a54.05,54.05,0,0,0,16.37,16.68,55.94,55.94,0,0,0,5.28,3c.46.23,2,1.13,3.25,1.71-.13,0-.23.1-.31.12-1.79.63-3.6,1.17-5.38,1.82-3.43,1.25-9.09,3.21-6.82,8,1.88,3.92,8,4.8,11.71,5.38a117,117,0,0,0,20,1c1.43,0,3.41.1,5.39,0a3.67,3.67,0,0,1-.27.46c-.78,1.08-2.5,1.86-4.26,2.58-.89.36-1.82.74-2.78,1.21a8.75,8.75,0,0,0-2.81,2.1,5.2,5.2,0,0,0-.95,1.84,5.44,5.44,0,0,0-.14,2,7,7,0,0,0,1.42,3.42,13.23,13.23,0,0,0,5.37,3.72,23.2,23.2,0,0,0,6,1.57,48.66,48.66,0,0,0,12-.11,46.19,46.19,0,0,0,5.91-1.2,17.82,17.82,0,0,0,5.64-2.79,23.54,23.54,0,0,0,4.39-4.36,28.57,28.57,0,0,0,3.12-5.23c.22-.46.4-.93.6-1.4l.5-1.5c.25-1,.5-1.95.68-2.91s.43-2.15.63-3.23c22.29,4.83,45.24,7.68,68.06,6.77a160.1,160.1,0,0,0,32.55-4.43q3.63-.9,7.19-2a29,29,0,0,0,3.8,8.11,20.46,20.46,0,0,0,9.09,7.68,31,31,0,0,0,5.75,1.49,47.09,47.09,0,0,0,5.79.67,45.51,45.51,0,0,0,5.84,0c1-.07,1.92-.15,2.94-.3a24.39,24.39,0,0,0,3-.66,19,19,0,0,0,5.57-2.55,9.63,9.63,0,0,0,2.39-2.34,6.59,6.59,0,0,0,1.21-3.38,5.81,5.81,0,0,0-.19-1.92,5.38,5.38,0,0,0-.92-1.76,8.31,8.31,0,0,0-2.74-2.09c-1.87-.93-3.7-1.46-5.32-2.18s-2.8-1.53-3.1-2.52l.76.08a143.8,143.8,0,0,0,20.86,0c5.57-.29,11.91-.22,17.3-1.84,3.77-1.14,2.9-4.87.85-7.65-3.27-4.44-9.45-5.46-14.45-6.64l-.43-.13c.93-.57,1.95-1.32,2.33-1.55A76.48,76.48,0,0,0,462.69,389c14-12.67,21.83-30.36,24.28-48.89,2.85-21.53-1.29-43.22-6.67-64-6.48-25.07-15.82-49.32-26.42-72.92-5.39-12-11.13-23.86-17-35.62-5.06-10.06-10.07-20.08-16.63-29.27a147.15,147.15,0,0,0-12.42-15.14A44.36,44.36,0,0,1,426.37,131c14.63,11.22,26.2,32.31,36.4,50.91,5.86,10.67,10.92,19.89,15.74,25.72l2.36,2.86c10.95,13.3,21.36,25.95,32.32,25.95a14.49,14.49,0,0,0,4.74-.81c11.66-4.06,31.39-46.39,30.79-57.55C548.57,175.31,547.3,174.45,546.25,174.21Zm-310.16-28.6c-10.32,12-18.2,25.72-19.87,32.1-2.93,11.25-30.94,33.55-42.9,43.07l-2.2,1.76c-4.92,3.93-8.67,10.35-12.3,16.56-4.47,7.66-8.69,14.89-14.14,15.71-1.76.26-4.14-2.24-6.38-6.69C130.51,232.69,126.92,202,134,194.9c5.94-5.94,19.55-8.52,32.72-11,10.15-1.93,19.74-3.74,26.35-7.05,9.45-4.72,19.32-16.51,28.86-27.91,6.14-7.33,12.48-14.91,18.44-20.23,9.47-8.46,23-13.29,31.5-15.67-1.54,1.49-3,3-4.5,4.56-2.52,2.69-4.95,5.49-7.3,8.35C253.59,128.84,245.54,134.64,236.09,145.61ZM98.53,314.4l30.8-2.45-28.68-33.8,71.92,39.63H145l42.24,34.78a96.53,96.53,0,0,0,2.11,9.92ZM436.29,173.09c11.43,22.94,22.15,46.29,30.8,70.44,8,22.35,15,46,17.25,69.67,1.77,18.64-.21,38.23-9.16,54.94a69.75,69.75,0,0,1-18.8,22.19q-2.81,2.16-5.8,4.05c-1.64,1-4.25,1.89-5.6,3.24-.89.89-1.74,1.6-1,2.94,1.41,2.48,8.3,2.63,10.71,3.45,2.95,1,5.32,2.32,6.93,5,1.37,2.3-.22,1.93-2.58,2.3a155.32,155.32,0,0,1-19.15,1.45c-5.38.16-11.31.58-16.75-.3-.13-.88-.21-1.77-.28-2.65a88.36,88.36,0,0,1-.24-11.16c.17-3.74.49-7.47.93-11.21.88-7.46,2.21-14.9,3.47-22.36A88.3,88.3,0,0,1,429.24,354a20,20,0,0,1,5.79-9.46,17.25,17.25,0,0,0-3.95,4.09,23.91,23.91,0,0,0-2.59,5.12,89.58,89.58,0,0,0-2.87,11c-1.61,7.38-3.25,14.79-4.36,22.33a104.74,104.74,0,0,0-1.2,22.89c.07,1,.13,1.92.26,2.88l.18,1.44a14.89,14.89,0,0,0,.23,1.52,5.48,5.48,0,0,0,.28.91,4.21,4.21,0,0,0,.5.89,6.27,6.27,0,0,0,1.24,1.32,12.14,12.14,0,0,0,2.77,1.64c1.84.82,3.65,1.37,5.16,2.14a5.32,5.32,0,0,1,1.75,1.3,2.21,2.21,0,0,1,.46,1.63,4.48,4.48,0,0,1-1.86,3.14,5.46,5.46,0,0,0-.23-3.14,6.56,6.56,0,0,0-2.78-3.36,8.36,8.36,0,0,0-2-.77,12.23,12.23,0,0,0-1.87-.39,13.57,13.57,0,0,0-3.88-.05,13.63,13.63,0,0,0,3.13,2.29c1.12.61,2.21,1.06,3.05,1.5a9.43,9.43,0,0,1,2.27,1.92,12.46,12.46,0,0,1,1.91,3l-.46-.39a16.74,16.74,0,0,1-4.32,1.93,23.22,23.22,0,0,1-5.27.88l-.3,0a2.72,2.72,0,0,0,.45-.94,3.62,3.62,0,0,0-.15-2.18,7.1,7.1,0,0,0-2.48-3,10,10,0,0,0-3.23-1.62,7.37,7.37,0,0,0-3.65-.16,29.86,29.86,0,0,0,2.6,2.28c.84.66,1.66,1.29,2.49,1.9a22.12,22.12,0,0,1,2.22,1.75,3.44,3.44,0,0,1,.74,1,2.54,2.54,0,0,1,.2,1.55l-.55-.56c-1.28,0-2.56.06-3.84,0a45.57,45.57,0,0,1-5.48-.52,29.09,29.09,0,0,1-5.24-1.25,18.59,18.59,0,0,1-8.14-6.58,27.72,27.72,0,0,1-2.71-4.7,28.69,28.69,0,0,1-1.71-5.19c-.87-3.59-1.22-7.36-1.82-11.12-.31-1.89-.73-3.76-1.13-5.6s-.79-3.7-1.29-5.55a28.53,28.53,0,0,0-2.08-5.32c-.81-1.71-1.57-3.44-2.32-5.18h0c.61,1.79,1.23,3.58,1.9,5.35a29.16,29.16,0,0,1,1.73,5.34c.37,1.83.65,3.7.95,5.57s.6,3.73.78,5.59c.41,3.59.62,7.26,1.29,10.93a85.25,85.25,0,0,1-8.74,2.61c-21.11,5-43.26,5-64.74,2.68a314,314,0,0,1-33.1-5.43c.63-3.71,1.27-7.4,2-11.06,1.55-7.58,3.49-15.17,7.24-22a49,49,0,0,0-5.19,10.48,113.45,113.45,0,0,0-3.48,11.21c-1,3.79-1.79,7.61-2.6,11.42-.42,1.9-.81,3.81-1.26,5.67-.21.94-.47,1.85-.73,2.75l-.46,1.26c-.2.42-.38.85-.59,1.27a23.18,23.18,0,0,1-6.94,8.47,15.07,15.07,0,0,1-4.81,2.28,41.54,41.54,0,0,1-5.56,1,48.94,48.94,0,0,1-7.56.3l-.56.58a2.58,2.58,0,0,1,.2-1.56,3.44,3.44,0,0,1,.74-1,23.66,23.66,0,0,1,2.22-1.75c.83-.61,1.65-1.24,2.49-1.9a28.26,28.26,0,0,0,2.6-2.28,7.49,7.49,0,0,0-3.65.16,10,10,0,0,0-3.23,1.62,7.07,7.07,0,0,0-2.48,3,3.51,3.51,0,0,0-.15,2.17,2.79,2.79,0,0,0,.44.92c-.79,0-1.57-.11-2.35-.21a20.72,20.72,0,0,1-5.24-1.4,13.4,13.4,0,0,1-2.29-1.19l-.46.38a12.87,12.87,0,0,1,1.91-3,9.43,9.43,0,0,1,2.27-1.92c.84-.44,1.93-.89,3-1.5a13.47,13.47,0,0,0,3.14-2.29,13.57,13.57,0,0,0-3.88,0,12.23,12.23,0,0,0-1.87.39,8.36,8.36,0,0,0-2,.77,6.54,6.54,0,0,0-2.78,3.37,5.5,5.5,0,0,0-.24,3.1,8.07,8.07,0,0,1-1-1,4,4,0,0,1-.82-1.9,2.09,2.09,0,0,1,.43-1.64,5.63,5.63,0,0,1,1.85-1.34c.79-.4,1.66-.76,2.57-1.14a24.91,24.91,0,0,0,2.79-1.32,8,8,0,0,0,2.69-2.28,5.4,5.4,0,0,0,.83-1.73,10.25,10.25,0,0,0,.35-1.64,20.78,20.78,0,0,0,.16-3.11c0-2-.18-4-.12-5.78s.15-3.94.17-5.88c0-3.92-.07-7.83-.27-11.74a156.39,156.39,0,0,0-2.77-23.32,70.82,70.82,0,0,0-3.27-11.3,32.74,32.74,0,0,0-2.6-5.28,16.23,16.23,0,0,0-3.86-4.39h0a16.17,16.17,0,0,1,3.47,4.62,32,32,0,0,1,2.24,5.33A69.07,69.07,0,0,1,246.66,370c.61,3.82,1,7.68,1.31,11.54s.48,7.73.56,11.6.07,7.75,0,11.62c0,1.95-.13,3.82-.28,5.79s.05,4,0,5.9c0,.42,0,.82,0,1.23-.93,0-1.79,0-2.29,0a154.42,154.42,0,0,1-17.61-.25c-2.75-.21-14.44-.56-15.14-4.63-.62-3.64,11.46-4.83,13.86-6.68,4.66-3.6-6.25-6.18-8.38-7.39-30.12-17.08-31.38-57.25-28.43-87.67.88-9.14,2.27-18.22,3.91-27.25a377.39,377.39,0,0,1,52.43-133.52c10.93-17.17,23.64-34.12,40.42-45.94.19-.14.33-.22.5-.36l-5-35.75c-.9-7.22-1.93-14.47-2.38-21.66,0-.89-.08-1.78-.09-2.65,0-.44,0-.87,0-1.27a.13.13,0,0,0,0-.06l.44.22c.76.4,1.53.84,2.3,1.3,3.09,1.85,6.12,3.87,9.15,5.88,6.08,4,12.08,8.16,18.09,12.3l18,12.43,18.05,12.41c2.92,2,5.83,4,8.74,5.93a2.48,2.48,0,0,1,.27,0l1.19.07c17.23,5.31,32.73,15.64,45.54,28.22C417.11,136.29,426.87,154.17,436.29,173.09Zm108.42,11.56c-2.06,7.82-6.88,19.16-12.28,28.89-5.94,10.72-11.73,17.9-15.49,19.2-10.75,3.74-21.92-9.83-33.76-24.21l-2.36-2.86c-4.64-5.61-9.63-14.71-15.42-25.25-10.35-18.86-22.08-40.24-37.2-51.85-7.76-6-17-8.26-23.95-9.12a130.53,130.53,0,0,0-16.75-14c12.89.28,37.48,3.26,64.41,19.27,24.1,14.33,30.83,31.89,35.73,44.7,3.24,8.46,5.8,15.13,12.14,17.48,9.56,3.54,22.28-1.62,32.5-5.77,5.62-2.27,10.92-4.43,13.23-4C545.64,177.36,546.24,178.86,544.71,184.65Z"/><polygon fill="#b07f6e"  points="364.29 99.35 364.29 99.35 364.29 99.35 364.29 99.35"/>    </g>    <g id="eye">        <g id="eye-color1">            <g opacity="0" ><path fill="#49ADB7"  d="M259.76,173.16c-.14.46-.21.94-.36,1.41a15.55,15.55,0,0,1-1.35,2.86c-.52.94-1,1.9-1.54,2.83-.24.41-.5.8-.77,1.2-.14.21-.28.41-.43.61s-.45.47-.45.6l-.6.74c-5.88,7-13.9,9.8-22.69,6.54-8.54-3.18-14.2-10.41-14.65-19.54a1.27,1.27,0,0,1,0-.28,1.42,1.42,0,0,1,0-.3A23.29,23.29,0,0,1,236,148a19,19,0,0,1,11.42,1.35c-15.29-7.7-34.35-2.93-39.29,15.33a20.54,20.54,0,0,0-.66,6.53,29.36,29.36,0,0,0,10.48,20.24c8.59,7.08,21.5,6.67,31,1.77,7.19-3.7,10-12.61,10.92-20.46C259.84,172.91,259.8,173,259.76,173.16Z"/></g><g opacity="0" ><path fill="#49ADB7"  d="M383.51,167.1c-.24.62-.44,1.25-.69,1.86a25.27,25.27,0,0,1-2,3.66,30.31,30.31,0,0,1-2.53,3.43c-5.88,7-13.91,9.8-22.7,6.54-8.53-3.18-14.2-10.41-14.65-19.54a2.46,2.46,0,0,1,0-.28,1.39,1.39,0,0,1,0-.3,23.28,23.28,0,0,1,19-21.81A19,19,0,0,1,371.44,142c-15.3-7.7-34.36-2.93-39.3,15.33a20.83,20.83,0,0,0-.66,6.53A29.44,29.44,0,0,0,342,184.11c8.59,7.08,21.5,6.67,31,1.77,6.91-3.55,9.73-12,10.78-19.66C383.68,166.47,383.61,166.85,383.51,167.1Z"/></g>        </g>        <g id="eye-shape">            <path fill="#fff"  d="M372.8,156.6a2.39,2.39,0,0,1,.28-.49,9.85,9.85,0,0,0-2.52,1,5.43,5.43,0,0,0-1.77,1.58c.95.15,2.38.36,4.14.57a2,2,0,0,1-.21-.47,1.11,1.11,0,0,0,.88-1.08A1.13,1.13,0,0,0,372.8,156.6Z"/><path fill="#fff"  d="M378.47,157.79a3,3,0,0,1-.71,1.91,82.19,82.19,0,0,0,18.52-.48c-8.73-2.81-14.71-3.66-18.79-3.61A3,3,0,0,1,378.47,157.79Z"/><path d="M369.32,155.3a6,6,0,0,0-3.13,4l-.14,1,1,.2a105.66,105.66,0,0,0,18.27,1.64,64.64,64.64,0,0,0,15.36-1.65l3.48-.87-3.38-1.2C381.65,151.68,373.11,153,369.32,155.3Zm3.4,3.45a2,2,0,0,0,.21.47c-1.76-.21-3.19-.42-4.14-.57a5.43,5.43,0,0,1,1.77-1.58,9.85,9.85,0,0,1,2.52-1,2.39,2.39,0,0,0-.28.49,1.13,1.13,0,0,1,.8,1.07A1.11,1.11,0,0,1,372.72,158.75Zm5,.95a3,3,0,0,0,.71-1.91,3,3,0,0,0-1-2.18c4.08-.05,10.06.8,18.79,3.61A82.19,82.19,0,0,1,377.76,159.7Z"/><path fill="#fff"  d="M293.6,157.07a14,14,0,0,0-6.73-1.46,3,3,0,0,1,1.86,2.75,3,3,0,0,1-.23,1.16c3-.29,5.47-.65,6.87-.87A5.33,5.33,0,0,0,293.6,157.07Z"/><path fill="#fff"  d="M283.82,156.14a3,3,0,0,1,.74-.48,68.5,68.5,0,0,0-16.67,3.56,77.28,77.28,0,0,0,15.36.67,2.88,2.88,0,0,1-.44-1.53,2.4,2.4,0,0,1,0-.28,1.11,1.11,0,0,0,1.85-.86A1.11,1.11,0,0,0,283.82,156.14Z"/><path d="M294.84,155.3c-3.79-2.3-12.33-3.62-31.46,3.16l-3.38,1.2,3.48.87a64.64,64.64,0,0,0,15.36,1.65,105.66,105.66,0,0,0,18.27-1.64l1-.2-.15-1A6,6,0,0,0,294.84,155.3Zm-11.28,3.06a1.13,1.13,0,0,1-.72-.28,2.4,2.4,0,0,0,0,.28,2.88,2.88,0,0,0,.44,1.53,77.28,77.28,0,0,1-15.36-.67,68.5,68.5,0,0,1,16.67-3.56,3,3,0,0,0-.74.48,1.11,1.11,0,0,1,.87,1.08A1.13,1.13,0,0,1,283.56,158.36Zm4.94,1.16a3,3,0,0,0,.23-1.16,3,3,0,0,0-1.86-2.75,14,14,0,0,1,6.73,1.46,5.33,5.33,0,0,1,1.77,1.58C294,158.87,291.53,159.23,288.5,159.52Z"/><path d="M327.79,129.66a7.94,7.94,0,0,0-3.56-3.28,15.87,15.87,0,0,1,2.16,4,16.84,16.84,0,0,1,.86,4.22,36.51,36.51,0,0,1,0,4.44c-.05.75-.12,1.51-.16,2.28a22.51,22.51,0,0,0-.14,2.36,22.52,22.52,0,0,0,1.1-2.13c.26-.74.55-1.5.74-2.27a15.07,15.07,0,0,0,.44-4.84A10.93,10.93,0,0,0,327.79,129.66Z"/><path d="M333.76,131.09a15.39,15.39,0,0,0-.49-1.73,4.58,4.58,0,0,0-.88-1.62,12.66,12.66,0,0,1-.09,1.75c0,.58-.08,1.16-.1,1.74-.05,1.15,0,2.3,0,3.44s.14,2.29.29,3.44a22.17,22.17,0,0,0,.71,3.48,14,14,0,0,0,.86-3.48,21.41,21.41,0,0,0-.3-7Z"/><path d="M340.53,127a10.31,10.31,0,0,1,1.09-2.37,6.33,6.33,0,0,0-2,1.93c-.28.38-.47.8-.71,1.2s-.38.85-.54,1.29a15,15,0,0,0-.8,5.47,20.81,20.81,0,0,0,.24,2.74c.17.89.36,1.78.61,2.65s.57,1.72.92,2.55.78,1.62,1.25,2.4c-.05-.92-.18-1.79-.31-2.67s-.19-1.74-.33-2.59c-.18-1.73-.37-3.43-.38-5.12a23.38,23.38,0,0,1,.31-5A16.08,16.08,0,0,1,340.53,127Z"/><path d="M401.51,134.68a15.07,15.07,0,0,0-5.62-1.05c-2.82,0-13.36,1-22.58,2-19.2,2.16-19.47,3.13-19.56,3.45h0c-.16.57-.07,1.63,2.38,2.27a21,21,0,0,0,5.22.52h.4c3.57,0,14.76-.63,24-1.2,19.6-1.21,20.4-1.61,20.74-1.78C407.73,138.26,404.65,135.9,401.51,134.68Z"/><path d="M310,139.55c-.09-.32-.36-1.29-19.56-3.45-9.22-1-19.76-2-22.58-2a15,15,0,0,0-5.61,1c-3.15,1.22-6.23,3.58-5,4.22.34.18,1.14.58,20.74,1.79,9.21.57,20.41,1.16,24,1.2h.4a21.09,21.09,0,0,0,5.23-.52c2.44-.64,2.53-1.7,2.37-2.27Z"/>        </g>        <g id="eye-color2">            <g opacity="0" ><path fill="#85C2FF"  d="M262.14,154.29c-.14.46-.21.94-.36,1.4a15.33,15.33,0,0,1-1.35,2.87c-.52.94-1,1.89-1.54,2.82-.24.42-.5.81-.77,1.21-.14.2-.28.41-.43.61s-.45.47-.45.6l-.6.74c-5.88,7-13.9,9.8-22.69,6.53-8.54-3.17-14.21-10.4-14.65-19.53a1.37,1.37,0,0,1,0-.29.93.93,0,0,1,0-.29,23.28,23.28,0,0,1,19-21.81,18.85,18.85,0,0,1,11.42,1.35c-15.29-7.71-34.35-2.93-39.29,15.33a20.54,20.54,0,0,0-.66,6.53,29.34,29.34,0,0,0,10.48,20.23c8.59,7.09,21.5,6.68,31,1.77,7.19-3.69,10-12.6,10.92-20.45C262.22,154,262.18,154.16,262.14,154.29Z"/></g><g opacity="0" ><path fill="#85C2FF"  d="M385.89,148.23c-.24.61-.44,1.24-.69,1.86a25.27,25.27,0,0,1-2,3.66,29.23,29.23,0,0,1-2.54,3.43c-5.88,7-13.9,9.8-22.69,6.54-8.53-3.18-14.2-10.41-14.65-19.54a2.48,2.48,0,0,1,0-.29,2.64,2.64,0,0,1,0-.29,23.29,23.29,0,0,1,19-21.81,18.87,18.87,0,0,1,11.42,1.35c-15.3-7.71-34.36-2.93-39.3,15.33a20.83,20.83,0,0,0-.66,6.53,29.38,29.38,0,0,0,10.48,20.23c8.59,7.09,21.5,6.68,31,1.77,6.91-3.54,9.73-12,10.77-19.65C386.06,147.6,386,148,385.89,148.23Z"/></g>        </g>    </g>    <g id="nose-mouth">        <path fill="#fff"  d="M349.07,205.17c2.6-4.83-8.69-9.07-11.13-3C336.45,205.91,346.47,210,349.07,205.17Z"/><path d="M306.4,233.29l-.22.51-.18.45c-.11.3-.21.6-.34.89a17.64,17.64,0,0,1-.81,1.7,12.54,12.54,0,0,1-4.8,5.22,9.5,9.5,0,0,1-3.24,1.1,11.84,11.84,0,0,1-3.51-.08,4.06,4.06,0,0,1-.83-.17c-.25-.08-.52-.13-.77-.22a5.82,5.82,0,0,1-1.37-.79,6.29,6.29,0,0,1-1.15-1.1,8,8,0,0,1-.78-1.41,7.54,7.54,0,0,1-.49-1.57,7.76,7.76,0,0,1-.06-1.67,6.43,6.43,0,0,1,1-3.12c.08-.12.14-.24.22-.35l.29-.31a5.48,5.48,0,0,1,.58-.6,6.6,6.6,0,0,1,1.45-.92,4.57,4.57,0,0,1,.81-.37l.87-.24c.14,0,.29-.09.44-.12l.43-.06.44-.05h.43a3.75,3.75,0,0,1,1.63.38,4.37,4.37,0,0,1,1.29,1.18,8.15,8.15,0,0,1,1.21,3.65,7.58,7.58,0,0,0-.48-4,4.46,4.46,0,0,0-3.48-2.62l-.56-.09h-1.11c-.18,0-.36.05-.54.07l-1.08.17a7.12,7.12,0,0,0-1.06.32,7.89,7.89,0,0,0-3.67,2.62,8.15,8.15,0,0,0-1.75,4.23,9.1,9.1,0,0,0,.52,4.56,9.5,9.5,0,0,0,1.1,2.09,9,9,0,0,0,1.68,1.69,8.68,8.68,0,0,0,2,1.22c.37.15.76.24,1.13.35a5,5,0,0,0,1.12.25,14.87,14.87,0,0,0,4.42,0,11.57,11.57,0,0,0,4.23-1.56,14.14,14.14,0,0,0,5.46-6.65c.28-.65.53-1.31.74-2,.12-.33.19-.67.29-1l.13-.49.13-.42a7.2,7.2,0,0,1,1.76-3.07,13,13,0,0,1,6.78-3.45A12,12,0,0,0,309,229.8,8.83,8.83,0,0,0,306.4,233.29Z"/><path d="M374.79,222.28a7.94,7.94,0,0,0-4.32-2,7.38,7.38,0,0,0-4.54,1,5.68,5.68,0,0,0-2.91,3.47,5.52,5.52,0,0,0,.9,4.19,5.48,5.48,0,0,1-.1-3.94,4.71,4.71,0,0,1,2.75-2.4,5.74,5.74,0,0,1,6.6,1.39,7.51,7.51,0,0,1,1.9,6.58A9.4,9.4,0,0,1,371,236.3a10.37,10.37,0,0,1-7,1.78,10.64,10.64,0,0,1-3.52-1,10.28,10.28,0,0,1-2.92-2.26,9.11,9.11,0,0,1-1.15-1.51c-.35-.53-.58-1.14-.9-1.7a12.65,12.65,0,0,0-2.46-3.77,8.5,8.5,0,0,0-8.12-2.23,8.44,8.44,0,0,1,7,3.2,11.3,11.3,0,0,1,1.71,3.46,13.29,13.29,0,0,0,2.09,4,11.25,11.25,0,0,0,3.47,3.07,12.52,12.52,0,0,0,13.41-.57,12.14,12.14,0,0,0,5.17-7.74A9.81,9.81,0,0,0,374.79,222.28Z"/><path d="M333.27,240l-.24.11-.64-13.83a.51.51,0,0,1,0-.13c11-2,28.67-17.65,22.64-26.52-6.31-9.28-44.18.65-46,8.91-1.42,6.37,10,17.47,20.4,17.83v0l.7,15.05c-.38.19-.76.37-1.14.58a21.54,21.54,0,0,0-4,2.85,21.5,21.5,0,0,0,4.87-.66c.54-.13,1.07-.29,1.6-.45l.21,0h.07a1.49,1.49,0,0,0,.94-.4c.58-.2,1.16-.4,1.73-.62a34.06,34.06,0,0,0,4.32-2,21.08,21.08,0,0,0,4-2.85,21.5,21.5,0,0,0-4.87.66A35.42,35.42,0,0,0,333.27,240Zm4.67-37.77c2.44-6.1,13.73-1.86,11.13,3S336.45,205.91,337.94,202.2Z"/>    </g></svg>