<!--  ~ Copyright (C) 2018 Baidu, Inc. All Rights Reserved.  --><svg viewBox="0 0 640 480" xmlns="http://www.w3.org/2000/svg">    <g id="back-ground-cl">        <rect fill="none" width="640" height="480" />        <ellipse opacity="0.1" cx="331.93" cy="418.82" rx="168.39" ry="32.01"/>    </g>    <g id="body">        <defs>            <clipPath id="outline">                <path fill="none"  d="M180.84,358.23c-13.37-3.79-31.9-13.93-31.89-30.06,0-7.83,5.89-17.95,14.25-18.91a9.84,9.84,0,0,1,4.14.38c1.26.4,2.41,1.63,3.63,1.87,6.6,1.28,4.62-5.39,2.32-8-5-5.78-17.34-5.63-24-3.76-14.65,4.1-29.75,21.85-29.06,37.44.77,17.19,14.14,32.19,29.19,39.12,14.31,6.59,31.64,7.43,46.85,3.51a78.41,78.41,0,0,1-7.55-19.88A60.85,60.85,0,0,1,180.84,358.23Z"/><path fill="none"  d="M227.26,177.87c11-21.26,23.71-42.61,40.14-60.17,9-9.61,19.47-17.89,31.21-23.51a14.09,14.09,0,0,0-2.36-2c-.65-.49-1.33-1-2-1.58-.38-.34-.77-.67-1.16-1h0c-8.76-6.76-23-5-32.5.13-.36.19-.72.4-1.08.61l-1.68,1C254,93.7,249.36,96.51,245,97.91c1.6,1.34,3,2.5,2.61,4a2.25,2.25,0,0,1-1.89,1.66c-1.49.36-4.65.79-7.31,1.12a7.66,7.66,0,0,0,5.34,1l7.2-1.8L245,108.39c-2.29,1.72-5.44,2.47-8.5,2.81a3.54,3.54,0,0,1,1.23,2.26,2.35,2.35,0,0,1-.78,1.89,21.32,21.32,0,0,1-5.83,3.72l1.17-.23,1.3-.25a15.11,15.11,0,0,1,1.51-.15,8.49,8.49,0,0,0,1.9-.24l1.54,2.57h0c-9.17,5.59-16.37,14.08-23.34,22.3C208.55,150.9,201.69,159,193,164.8a155.52,155.52,0,0,1-19.61,10.75l-3.93,1.9c-7.28,3.51-14.8,7.15-22.44,10-10.21,3.88-20.38,11.08-18.4,35.15,1.1,13.33,10,25.38,22.11,30C162.21,257,176.45,256,189.83,250a80.26,80.26,0,0,0,10.82-6A379.27,379.27,0,0,1,227.26,177.87Z"/><path fill="none"  d="M520.85,184.67c-7.64-2.9-15.17-6.54-22.45-10.06l-3.92-1.89A155.43,155.43,0,0,1,474.88,162c-10.56-7.09-18.13-16.52-25.45-25.65C444.35,130,439.55,124,434,119.1l-3.5-3.1,4.65.49c.75.08,1.38.16,1.93.25-.69-.32-1.37-.66-2-1l-1.69-.83-.58-.26a7,7,0,0,1-2.7-1.74,1.64,1.64,0,0,1-.36-1.47c.21-.86.9-1.32,2.32-1.92-4-.8-8.74-2.19-11.18-3.94L414.45,101l7.66,1.92a17.3,17.3,0,0,0,6.56.13c-2.16-.79-4.63-1.65-5.91-2a1.81,1.81,0,0,1-1.62-1.73c0-1.57,1.51-2,6-3.12a131.34,131.34,0,0,1-18.74-8.73C398,81.3,384.69,81,374.45,86.62c-2.76,1.52-6.07,4-6.19,7.32a2.12,2.12,0,0,0,.07.61c2.72,1.21,5.4,2.53,8,4,17.45,9.58,32.34,23.66,43.88,39.81,6.56,9.19,11.57,19.21,16.62,29.28,5.92,11.76,11.65,23.61,17.05,35.62,5.84,13,11.3,26.22,16.11,39.66a80.76,80.76,0,0,0,8.08,4.26c13.38,6,27.62,7,39.06,2.65,12.12-4.6,21-16.65,22.11-30C541.23,195.74,531.06,188.54,520.85,184.67Z"/><path fill="none"  d="M436.3,173.2c-9.43-18.93-19.18-36.8-34.42-51.77C388,107.82,371,96.84,352.08,92a77.3,77.3,0,0,0-58.72,8.25c-20,11.78-34.51,30.8-46.8,50.08a377.61,377.61,0,0,0-52.42,133.53c-1.64,9-3,18.11-3.91,27.25-2.95,30.41-1.69,70.58,28.42,87.66,2.13,1.21,13,3.8,8.39,7.39-2.4,1.85-14.49,3-13.86,6.68.69,4.07,12.39,4.42,15.14,4.64a154.25,154.25,0,0,0,17.6.25c.53,0,1.45,0,2.42,0q.06-.66.09-1.35c.11-3.78.06-7.79.17-11.67s.13-7.78.11-11.66a160.42,160.42,0,0,0-1.55-23.2,61.18,61.18,0,0,0-2.71-11.26,33,33,0,0,0-2.45-5.25,18.37,18.37,0,0,0-3.63-4.52c3.15,2.36,5.25,5.89,6.81,9.48a61,61,0,0,1,3.42,11.29A144,144,0,0,1,251,393c.14,3.92.19,7.83.18,11.74l0,5.84c0,1.94.07,3.89,0,5.9a21,21,0,0,1-.27,3.11,11.26,11.26,0,0,1-.38,1.6l-.13.4-.18.46a5.61,5.61,0,0,1-.49.86,7.83,7.83,0,0,1-2.67,2.32,25.27,25.27,0,0,1-2.81,1.33c-.91.39-1.79.74-2.58,1.14a6,6,0,0,0-1.87,1.34,2,2,0,0,0-.46,1.63,3.7,3.7,0,0,0,.8,1.91,6.76,6.76,0,0,0,1,1,5.49,5.49,0,0,1,.23-3.1,6.54,6.54,0,0,1,2.79-3.36,8.4,8.4,0,0,1,2-.78,10.89,10.89,0,0,1,1.87-.38A13.21,13.21,0,0,1,252,426a13.14,13.14,0,0,1-3.14,2.28c-1.12.61-2.2,1.07-3,1.5a9.26,9.26,0,0,0-2.27,1.93,12.58,12.58,0,0,0-1.91,3l.46-.38a13.8,13.8,0,0,0,2.26,1.18,20.33,20.33,0,0,0,5.24,1.41c.79.1,1.58.16,2.37.22a2.79,2.79,0,0,1-.44-.92,3.62,3.62,0,0,1,.16-2.18,7.25,7.25,0,0,1,2.47-3,10,10,0,0,1,3.24-1.61,7.37,7.37,0,0,1,3.65-.16,28.07,28.07,0,0,1-2.6,2.27c-.85.67-1.66,1.29-2.49,1.91a19.8,19.8,0,0,0-2.22,1.75,3.12,3.12,0,0,0-.74,1,2.58,2.58,0,0,0-.21,1.56l.56-.58a47.85,47.85,0,0,0,7.57-.3,42,42,0,0,0,5.57-1,14.81,14.81,0,0,0,4.79-2.29,16.64,16.64,0,0,0,3.79-3.88,25,25,0,0,0,2.71-4.86,34.06,34.06,0,0,0,1.72-5.38,46.87,46.87,0,0,0,.89-5.65l.74-5.85q.45-2.92,1.17-5.81c1.92-7.71,5.82-14.69,10.24-21.09a114.47,114.47,0,0,0-5.34,10.39,52.49,52.49,0,0,0-3.46,11c-.38,1.89-.69,3.8-.91,5.71l-.48,5.76a315.77,315.77,0,0,0,34,5.62c21.48,2.29,43.63,2.35,64.74-2.67a85,85,0,0,0,8.6-2.57,97,97,0,0,1-1.61-10.87,72.73,72.73,0,0,0-1.72-11.11c-.87-3.66-2-7.26-3.18-10.85a96.89,96.89,0,0,1,3.95,10.64,74.87,74.87,0,0,1,2.41,11.13,92.35,92.35,0,0,0,2.15,11,30.37,30.37,0,0,0,4.54,9.88,18.59,18.59,0,0,0,8.12,6.57,28.16,28.16,0,0,0,5.23,1.25,43.47,43.47,0,0,0,5.47.53c1.29.05,2.59,0,3.89,0l.55.57a2.58,2.58,0,0,0-.2-1.56,3.44,3.44,0,0,0-.74-1,25,25,0,0,0-2.22-1.75c-.83-.61-1.65-1.24-2.49-1.9a28.12,28.12,0,0,1-2.61-2.27,7.41,7.41,0,0,1,3.66.16,9.89,9.89,0,0,1,3.23,1.61,7.13,7.13,0,0,1,2.48,3,3.59,3.59,0,0,1,.15,2.17,2.82,2.82,0,0,1-.45.94h.24a23.88,23.88,0,0,0,5.27-.87,17,17,0,0,0,4.38-1.94l.45.38a12.58,12.58,0,0,0-1.91-3,9.22,9.22,0,0,0-2.26-1.93c-.84-.44-1.93-.89-3.05-1.5a13.34,13.34,0,0,1-3.13-2.29,13.58,13.58,0,0,1,3.88.05,12.49,12.49,0,0,1,1.87.39,8.58,8.58,0,0,1,2,.78,6.52,6.52,0,0,1,2.78,3.36A5.43,5.43,0,0,1,431,429a4.45,4.45,0,0,0,1.85-3.07,2.27,2.27,0,0,0-.41-1.65,5.38,5.38,0,0,0-1.71-1.31c-1.49-.77-3.31-1.33-5.14-2.13a12.62,12.62,0,0,1-2.76-1.6,6.38,6.38,0,0,1-1.26-1.28l-.27-.38c-.09-.16-.18-.32-.25-.48a4.82,4.82,0,0,1-.32-.92c-.14-.6-.19-1.08-.26-1.54l-.2-1.4-.37-2.83a81.22,81.22,0,0,1-.68-11.49,58.94,58.94,0,0,1,1.49-11.44c.81-3.74,1.84-7.4,2.85-11l2.9-10.94c1-3.65,2-7.29,3.17-10.9a42.86,42.86,0,0,1,2-5.34,13.72,13.72,0,0,1,3.37-4.56,13.4,13.4,0,0,0-3,4.74,44.05,44.05,0,0,0-1.64,5.38c-.93,3.65-1.73,7.33-2.51,11s-1.58,7.38-2.43,11.08-1.78,7.32-2.45,11a63.33,63.33,0,0,0-1.16,11,80,80,0,0,0,.87,11.09l.38,2.57c5.45.88,11.4.47,16.8.3a155.32,155.32,0,0,0,19.15-1.45c2.35-.37,3.94,0,2.57-2.3-1.6-2.7-4-4-6.92-5-2.41-.83-9.31-1-10.72-3.45-.76-1.35.09-2.06,1-2.94,1.36-1.35,4-2.21,5.61-3.25q3-1.87,5.8-4a69.52,69.52,0,0,0,18.79-22.2c9-16.71,10.94-36.3,9.17-54.93-2.25-23.73-9.25-47.33-17.25-69.68C458.45,219.48,447.73,196.14,436.3,173.2Z"/><path d="M521.92,181.86c-7.53-2.85-15-6.46-22.22-10-1.31-.63-2.61-1.27-3.92-1.89a153.52,153.52,0,0,1-19.23-10.54c-10.18-6.83-17.6-16.09-24.78-25A176.51,176.51,0,0,0,439.36,120a11.44,11.44,0,0,0,4.88-1l3.48-1.34c-.45-.25-2.26-.9-2.72-1.08-2.89-1.11-5.83-2.13-8.6-3.51l-1.75-.86-.6-.27.53-.21a22.32,22.32,0,0,0,3.71-1.74l3.93-2.6-4.71-.15a40.22,40.22,0,0,1-7.87-1.33A16,16,0,0,0,434,104.5l3-1.52-3.1-1.21c-.21-.08-3.61-1.39-6.66-2.45l1.18-.29a40.57,40.57,0,0,0,4.84-1.39l4.83-2-5.16-.86c-5.18-.86-18.16-7-22.94-9.85-11.26-6.74-25.75-7.11-36.9-.94-4.68,2.59-7.32,5.79-7.69,9.28-13.61-5.53-28.36-8.09-43.05-6.19a76.87,76.87,0,0,0-20.85,5.84,14.8,14.8,0,0,0-3.35-3.18,21.44,21.44,0,0,1-1.75-1.4c-.44-.39-.89-.77-1.35-1.13-10.23-7.89-25.7-5.6-35.76-.13-.4.22-.8.44-1.19.68l-1.7,1c-4.47,2.71-10,6.09-14.66,6.85l-2.42.41a22.22,22.22,0,0,0,3.68,4.07c.26.22.59.49.9.77-3.34.59-10,1.31-10.12,1.32l-4.12.44L233,105a32,32,0,0,0,5.16,3,36.61,36.61,0,0,1-5.74.55l-3.75.12,2.8,2.5a16.07,16.07,0,0,0,1.3,1,14.59,14.59,0,0,1,1.72,1.4c-3,2.57-7.35,4-11.29,5.27a10.63,10.63,0,0,1-1.49.35l-5.77,1,5.54,1.9c3.56.42,6,.71,8.28.33.55-.08,1.1-.18,1.64-.28-7,5.48-12.85,12.37-18.53,19.08-6.5,7.66-13.22,15.59-21.53,21.17a152.82,152.82,0,0,1-19.23,10.54l-3.94,1.9c-7.22,3.48-14.68,7.09-22.19,9.94-10.6,4-22.49,12-20.33,38.19,1.2,14.46,10.85,27.54,24,32.54a46.33,46.33,0,0,0,16.42,2.88,61.24,61.24,0,0,0,24.95-5.6,82,82,0,0,0,8.3-4.37q-4.87,17.16-8.13,34.73c-4.14,22.8-8.11,49.66-3.25,73.68a61.05,61.05,0,0,1-11.49-3.1c-8.62-3.25-17.72-8.74-22.26-17.06-4.28-7.83-1.8-21.94,8.41-24.19,4.47-1,12.6,7.2,15.42-.06,1.53-3.95-.72-9.61-3.9-12.09-10.76-8.4-28.1-4.73-38,2.92-11.08,8.57-20.66,22.88-18.66,37.35,2.16,15.63,13.44,29.31,27,36.7,16.23,8.81,35.25,9.71,53.28,5.31.12.2.23.41.36.61a53.84,53.84,0,0,0,16.37,16.68,51.84,51.84,0,0,0,5.28,3c.46.23,2,1.13,3.24,1.71l-.3.13c-1.79.62-3.6,1.16-5.38,1.81-3.43,1.25-9.09,3.22-6.82,8,1.88,3.91,8,4.8,11.71,5.38a115.9,115.9,0,0,0,20,1c1.44,0,3.41.1,5.39.06a2.12,2.12,0,0,1-.23.41c-.74,1.09-2.47,1.87-4.23,2.59-.89.37-1.82.74-2.77,1.21a8.73,8.73,0,0,0-2.83,2.08,5,5,0,0,0-1,1.81,5.56,5.56,0,0,0-.17,2,6.77,6.77,0,0,0,1.39,3.44,13.11,13.11,0,0,0,5.38,3.75,23.22,23.22,0,0,0,6,1.58,48.42,48.42,0,0,0,12-.11,44.67,44.67,0,0,0,5.92-1.2,17.45,17.45,0,0,0,5.65-2.83,22.49,22.49,0,0,0,7.1-10,36.65,36.65,0,0,0,2.14-8.76c22.5,4.91,45.67,7.82,68.72,6.91a160.11,160.11,0,0,0,32.55-4.44c2.41-.6,4.79-1.27,7.16-2a29.81,29.81,0,0,0,3.82,8.09,20.41,20.41,0,0,0,9.07,7.68,30.89,30.89,0,0,0,5.73,1.5,48.47,48.47,0,0,0,11.62.64c1-.07,1.92-.15,2.93-.3a23.78,23.78,0,0,0,2.95-.64,19.25,19.25,0,0,0,5.58-2.52,10.22,10.22,0,0,0,2.4-2.3,7.75,7.75,0,0,0,.86-1.58l.26-.89a6.6,6.6,0,0,0,.14-.89,6,6,0,0,0-.15-1.91,5.47,5.47,0,0,0-.87-1.78,8,8,0,0,0-2.72-2.14c-1.88-.95-3.7-1.48-5.33-2.19a10.32,10.32,0,0,1-2.14-1.2,4.2,4.2,0,0,1-.73-.73l-.14-.19-.08-.15c0-.08-.07-.18-.1-.29l.76.07a142.39,142.39,0,0,0,20.86,0c5.56-.29,11.91-.21,17.3-1.84,3.77-1.13,2.9-4.86.85-7.64-3.27-4.44-9.45-5.46-14.46-6.64l-.42-.13c.93-.57,1.95-1.32,2.33-1.55a77.7,77.7,0,0,0,11.85-8.79c14-12.67,21.84-30.36,24.29-48.89,2.85-21.54-1.3-43.23-6.67-64-2.52-9.77-5.48-19.4-8.78-28.92,1.74.95,3.51,1.84,5.32,2.65a61,61,0,0,0,24.95,5.6,46.05,46.05,0,0,0,16.41-2.88c13.18-5,22.83-18.07,24-32.53C544.4,193.85,532.51,185.88,521.92,181.86,189.85,250a61.52,61.52,0,0,1-23.71,5.32c-9.54,0-19.28-3-26.28-9.49-9-8.33-12.48-21.47-11.26-33.69a36.83,36.83,0,0,1,2.54-10.54,22.16,22.16,0,0,1,6.17-8.63c.29-.24.51-.51.78-.76a5.94,5.94,0,0,1,1.2-.69c.86-.47,1.74-.93,2.61-1.38q2.63-1.37,5.3-2.62c3.58-1.7,7.19-3.31,10.81-4.9s7.25-3.16,10.86-4.78,7.14-3.29,10.64-5.1,6.88-3.72,10.16-5.84a84.58,84.58,0,0,0,8.3-6.05c15.79-13.08,26.24-32.4,44-42.66a54.9,54.9,0,0,0-10.86.87,23.87,23.87,0,0,0,8.14-5.35,11.45,11.45,0,0,1-2.76-2.41,24.69,24.69,0,0,0,14.31-7.5,13.72,13.72,0,0,1-12.29.63c2.29.4,9.19-1.35,11-2.8.25-.2-2.37-1.72-4.08-3.32,8.28-5.21,16.81-10.51,26.42-12.38s20.66.46,26.62,8.22c-26.53,13.45-45.4,38.28-60.41,64a399.05,399.05,0,0,0-35.57,79.81,18.63,18.63,0,0,1-2.78,6.11,16.78,16.78,0,0,1-6.08,4.26Q191.76,249.19,189.85,250,149.39,376.28c-15-6.93-28.42-21.93-29.19-39.12-.69-15.59,14.41-33.34,29.06-37.44,6.69-1.87,19-2,24,3.76,2.3,2.64,4.28,9.31-2.32,8-1.22-.24-2.37-1.47-3.63-1.87a9.84,9.84,0,0,0-4.14-.38c-8.36,1-14.24,11.08-14.25,18.91,0,16.13,18.52,26.27,31.89,30.06a60.85,60.85,0,0,0,7.85,1.68,78.41,78.41,0,0,0,7.55,19.88C181,383.71,163.7,382.87,149.39,376.28,335-63c1.77,18.63-.21,38.22-9.17,54.93a69.52,69.52,0,0,1-18.79,22.2q-2.81,2.16-5.8,4c-1.64,1-4.25,1.9-5.61,3.25-.88.88-1.73,1.59-1,2.94,1.41,2.48,8.31,2.62,10.72,3.45,2.94,1,5.32,2.31,6.92,5,1.37,2.3-.22,1.93-2.57,2.3a155.32,155.32,0,0,1-19.15,1.45c-5.4.17-11.35.58-16.8-.3l-.38-2.57a80,80,0,0,1-.87-11.09,63.33,63.33,0,0,1,1.16-11c.67-3.68,1.6-7.31,2.45-11s1.63-7.39,2.43-11.08,1.58-7.37,2.51-11a44.05,44.05,0,0,1,1.64-5.38,13.4,13.4,0,0,1,3-4.74,13.72,13.72,0,0,0-3.37,4.56,42.86,42.86,0,0,0-2,5.34c-1.15,3.61-2.18,7.25-3.17,10.9l-2.9,10.94c-1,3.62-2,7.28-2.85,11a58.94,58.94,0,0,0-1.49,11.44,81.22,81.22,0,0,0,.68,11.49l.37,2.83.2,1.4c.07.46.12.94.26,1.54a4.82,4.82,0,0,0,.32.92c.07.16.16.32.25.48l.27.38a6.38,6.38,0,0,0,1.26,1.28,12.62,12.62,0,0,0,2.76,1.6c1.83.8,3.65,1.36,5.14,2.13a5.38,5.38,0,0,1,1.71,1.31,2.27,2.27,0,0,1,.41,1.65A4.45,4.45,0,0,1,431,429a5.43,5.43,0,0,0-.23-3.13,6.52,6.52,0,0,0-2.78-3.36,8.58,8.58,0,0,0-2-.78,12.49,12.49,0,0,0-1.87-.39,13.58,13.58,0,0,0-3.88-.05,13.34,13.34,0,0,0,3.13,2.29c1.12.61,2.21,1.06,3.05,1.5a9.22,9.22,0,0,1,2.26,1.93,12.58,12.58,0,0,1,1.91,3l-.45-.38a17,17,0,0,1-4.38,1.94,23.88,23.88,0,0,1-5.27.87h-.24a2.82,2.82,0,0,0,.45-.94,3.59,3.59,0,0,0-.15-2.17,7.13,7.13,0,0,0-2.48-3,9.89,9.89,0,0,0-3.23-1.61,7.41,7.41,0,0,0-3.66-.16,28.12,28.12,0,0,0,2.61,2.27c.84.66,1.66,1.29,2.49,1.9a25,25,0,0,1,2.22,1.75,3.44,3.44,0,0,1,.74,1,2.58,2.58,0,0,1,.2,1.56l-.55-.57c-1.3.05-2.6.06-3.89,0a43.47,43.47,0,0,1-5.47-.53,28.16,28.16,0,0,1-5.23-1.25,18.59,18.59,0,0,1-8.12-6.57,30.37,30.37,0,0,1-4.54-9.88,92.35,92.35,0,0,1-2.15-11,74.87,74.87,0,0,0-2.41-11.13,96.89,96.89,0,0,0-3.95-10.64c1.19,3.59,2.31,7.19,3.18,10.85a72.73,72.73,0,0,1,1.72,11.11,97,97,0,0,0,1.61,10.87,85,85,0,0,1-8.6,2.57c-21.11,5-43.26,5-64.74,2.67a315.77,315.77,0,0,1-34-5.62l.48-5.76c.22-1.91.53-3.82.91-5.71a52.49,52.49,0,0,1,3.46-11A114.47,114.47,0,0,1,292.54,381c-4.42,6.4-8.32,13.38-10.24,21.09q-.72,2.88-1.17,5.81l-.74,5.85a46.87,46.87,0,0,1-.89,5.65,34.06,34.06,0,0,1-1.72,5.38,25,25,0,0,1-2.71,4.86,16.64,16.64,0,0,1-3.79,3.88,14.81,14.81,0,0,1-4.79,2.29,42,42,0,0,1-5.57,1,47.85,47.85,0,0,1-7.57.3l-.56.58a2.58,2.58,0,0,1,.21-1.56,3.12,3.12,0,0,1,.74-1,19.8,19.8,0,0,1,2.22-1.75c.83-.62,1.64-1.24,2.49-1.91a28.07,28.07,0,0,0,2.6-2.27,7.37,7.37,0,0,0-3.65.16,10,10,0,0,0-3.24,1.61,7.25,7.25,0,0,0-2.47,3,3.62,3.62,0,0,0-.16,2.18,2.79,2.79,0,0,0,.44.92c-.79-.06-1.58-.12-2.37-.22a20.33,20.33,0,0,1-5.24-1.41,13.8,13.8,0,0,1-2.26-1.18l-.46.38a12.58,12.58,0,0,1,1.91-3,9.26,9.26,0,0,1,2.27-1.93c.84-.43,1.92-.89,3-1.5A13.14,13.14,0,0,0,252,426a13.21,13.21,0,0,0-3.88.05,10.89,10.89,0,0,0-1.87.38,8.4,8.4,0,0,0-2,.78,6.54,6.54,0,0,0-2.79,3.36,5.49,5.49,0,0,0-.23,3.1,6.76,6.76,0,0,1-1-1,3.7,3.7,0,0,1-.8-1.91,2,2,0,0,1,.46-1.63,6,6,0,0,1,1.87-1.34c.79-.4,1.67-.75,2.58-1.14a25.27,25.27,0,0,0,2.81-1.33,7.83,7.83,0,0,0,2.67-2.32,5.61,5.61,0,0,0,.49-.86l.18-.46.13-.4a11.26,11.26,0,0,0,.38-1.6,21,21,0,0,0,.27-3.11c.05-2,0-4,0-5.9l0-5.84c0-3.91,0-7.82-.18-11.74a144,144,0,0,0-2.44-23.41,61,61,0,0,0-3.42-11.29c-1.56-3.59-3.66-7.12-6.81-9.48a18.37,18.37,0,0,1,3.63,4.52,33,33,0,0,1,2.45,5.25,61.18,61.18,0,0,1,2.71,11.26,160.42,160.42,0,0,1,1.55,23.2c0,3.88-.05,7.77-.11,11.66s-.06,7.89-.17,11.67q0,.69-.09,1.35c-1,0-1.89,0-2.42,0a154.25,154.25,0,0,1-17.6-.25c-2.75-.22-14.45-.57-15.14-4.64-.63-3.64,11.46-4.83,13.86-6.68,4.66-3.59-6.26-6.18-8.39-7.39-30.11-17.08-31.37-57.25-28.42-87.66.88-9.14,2.27-18.22,3.91-27.25a377.61,377.61,0,0,1,52.42-133.53c12.29-19.28,26.79-38.3,46.8-50.08A77.3,77.3,0,0,1,352.08,92c18.94,4.84,35.95,15.82,49.8,29.43,15.24,15,25,32.84,34.42,51.77,11.43,22.94,22.15,46.28,30.8,70.43C475.1,266,482.1,289.58,484.35,313.31,54.9-93.5c-1.1,13.33-10,25.38-22.11,30-11.44,4.34-25.68,3.38-39.06-2.65a80.76,80.76,0,0,1-8.08-4.26c-4.81-13.44-10.27-26.65-16.11-39.66-5.4-12-11.13-23.86-17.05-35.62-5-10.07-10.06-20.09-16.62-29.28-11.54-16.15-26.43-30.23-43.88-39.81-2.61-1.43-5.29-2.75-8-4a2.12,2.12,0,0,1-.07-.61c.12-3.29,3.43-5.8,6.19-7.32,10.24-5.67,23.55-5.32,33.91.89a131.34,131.34,0,0,0,18.74,8.73,31.35,31.35,0,0,1-8,2.1c-.07.09,3.16,2,3.33,2.14a34.19,34.19,0,0,0,5.22,2.21,3.48,3.48,0,0,0,1,.36,17.3,17.3,0,0,1-6.56-.13L414.45,101l6.42,4.59c2.44,1.75,7.16,3.14,11.18,3.94a22,22,0,0,1-5.32,1.92c-.28,0,1.74,1.23,2.69,1.67,1.11.52,2.48,1.16,3.37,1.54l.58.26,1.69.83c.66.33,1.34.67,2,1-.55-.09-1.18-.17-1.93-.25l-4.65-.49,3.5,3.1c5.54,4.92,10.34,10.9,15.42,17.22,7.32,9.13,14.89,18.56,25.45,25.65a155.43,155.43,0,0,0,19.6,10.75l3.92,1.89c7.28,3.52,14.81,7.16,22.45,10.06C531.06,188.54,541.23,195.74,539.25,219.81Z"/>            </clipPath>        </defs>        <g clip-path="url(#outline)">            <rect fill="#BA756C" width="640" height="480" />        </g>    </g>    <g id="pattern">        <g clip-path="url(#outline)">            <path fill="#FFFFD2"  d="M1,442.46c1.37,2.94,19.68,6,22.77,7s6.15-.27,9-1.43a323.08,323.08,0,0,1,142.75-22.27c2.15.15,4.45.29,6.3-.81s2.7-2.9,3.59-4.69q4.77-9.58,9.53-19.16c1.63-3.27,6-5.8,5.77-9.45a20.34,20.34,0,0,0-2-8.57c-11.34-23.45-10.71-37.68-12.14-56.56-.88-11.62,1.34-25.07,3.9-35.71,2.42-10-30.86-23.15-37-26-20.63-9.66-42.69-16.83-65.49-19.13-13.29-1.35-26.29-3.87-38.81-8.64-12.31-4.7-34-10.42-45.71-1.08-2.73,2.19-2.28,8.74-1.85,32.39"/><path fill="#FFFFD2"  d="M445.06,398.18c-7.45,2.67-17.16,4.17-25,4.7a7.81,7.81,0,0,1,.26,7.57c-.24.4-.42,1.59-.05,1.87.14.11.71.66.53.66,7,.22,13.87,1,20.85.84,3.7-.11,7.4-.37,11.08-.79q4-.45,8-1c1.13-.16,2.49-.54,2.25-1.94a8.34,8.34,0,0,0-1.3-2.86c-1.17-1.9-3.93-3.7-6.26-4.58-2.75-1-5.65-1.37-8.47-2.06a3.07,3.07,0,0,1-1.29-.53c-.42-.34-.77-.11-.73-.59A5.76,5.76,0,0,1,445.06,398.18Z"/><path fill="#FFFFD2"  d="M227.73,404.08a83.56,83.56,0,0,0,22.85,4.36c-.27,2.33-.23,5.47-.4,7.5,0,.46-.08,1.59-.45,1.87-.14.11-.68.14-.51.14s-18.76.61-29.52-1.14a25.64,25.64,0,0,1-4.68-1.46,3.71,3.71,0,0,1-2.54-3.42c0-1.29,1.71-3,2.85-3.37,1.87-.56,3.73-1.12,5.6-1.7l2.83-.9a5.3,5.3,0,0,0,2.24-1A16.69,16.69,0,0,1,227.73,404.08Z"/><path fill="#FFFFD2"  d="M250.5,401.61c-.08,5.55-.41,12.5-.49,13.65-.11,1.58.42,3.07,0,4.59-.79,2.77-4.89,4.49-7.48,5.75-1.89.92-4.12,2.32-3.93,4.41.07.77.73,1.35,1,2.09,1.61,5.25,8.87,5.47,13.89,5.47,6.22,0,11.92.36,17.37-2.64,2.25-1.25,2.58-2.68,5.79-5.61,4.87-4.45,5.47-19.87,6.78-26.37.23-1.19-2.6,7.7-2.65,6.51l-.54-13.9c-1.61,2.3-2.81,5.22-4.42,7.52-.66-3.2-3.17-6.89-3.83-10.09-1.06,4.47-2.36,9.21-3.34,13.84-2.14-2.88-3.09-6.19-4-9.2-.61,4.05-3.14,8.18-3.75,12.23l-2.55-8.67-1.62,6.75c-1.47-2.74-3.5-6.86-5-9.6C251.2,400.14,251.06,401.16,250.5,401.61Z"/><path fill="#FFFFD2"  d="M421.47,397.35c-.24,3.31.26,11.85.34,13a43.37,43.37,0,0,0,1.31,6.37c.8,2.77,3.26,2.85,5.85,4.12,1.89.92,6.76,2.58,6.58,4.67-.6,6.6-11.8,7.44-17,7.44-6.22,0-11.12-.08-16.57-3.09a24.69,24.69,0,0,1-6.91-6.33c-3.13-4.58-4-11.27-4.78-17.76-.59-4.6.81-10.34,1-15,1.61,2.29,2.81,5.22,4.42,7.52a48.53,48.53,0,0,0,3.83-10.1c1.06,4.48,2.36,9.21,3.34,13.84,2.15-2.88,3.1-6.18,4-9.2.62,4.05,3.14,8.19,3.76,12.24l2.54-8.68,1.62,6.75c1.48-2.74,3.51-6.85,5-9.59C420.5,395.32,420.79,395.77,421.47,397.35Z"/>            <g opacity="0.6" ><path fill="#DCFEFF"  d="M285.77,418.84c2.26-24.13,21.66-59.15,48.78-60.3,26.6-1.12,50.68,35,52.69,58.92.13,1.48.51,1.44-.05,1.63-1.81.61-6.61,1.94-9.58,2.8-14,4.06-27.43,4.48-43.52,4.36-16.38-.12-33-4.21-47.85-7.41"/></g>        </g>    </g>    <g id="mask">        <g opacity="0.1" ><path d="M484.61,334.33c.23,1.7-3.51,6.77-4.43,8.5-1.82,3.4-3.69,6.77-5.68,10.08A107.36,107.36,0,0,1,461.27,371a63.22,63.22,0,0,1-11,9.47,58.45,58.45,0,0,1-6.26,3.66,31.61,31.61,0,0,1-5.53,2.51c-4,1.16-6.15-2.21-7.32-5.52a39.63,39.63,0,0,1-2.34-17.54,120.17,120.17,0,0,1,2.54-14.42l-1.94,4.5c-3.06,11.12-4.58,22.55-6,34a4.63,4.63,0,0,0,.26,2.2,3.36,3.36,0,0,0-.88.73c-2.05,2.52-.69,11.1-.81,14.3a.63.63,0,0,0,.09.45c.16.19.45.14.69.08A106.89,106.89,0,0,0,447.16,396c9.48-5.29,18.26-11.42,24.64-20.05a57,57,0,0,0,7.36-14.62C482.26,352.62,485.87,343.49,484.61,334.33Z"/></g><g opacity="0.1" ><path d="M267.32,140.84c10.77-16.34,17.61-34.19,32.59-46.79-23.63,13.11-38,28.59-53.16,54.08C232.31,172.41,217,201.3,207,227.34s-15,53.6-17.25,81.34c-1.6,19.47-2.17,45.11,6.48,64.72-20.77,3.9-43.66,3-57.65-13.34-24.51-28.68.84-55.77.84-55.77-6.66,4.45-9.83,6.24-16.74,19.86-6.36,12.53-.3,28.48,8.17,38.62,14.62,17.53,37.09,22.58,58.9,19.94A66.46,66.46,0,0,0,200,380.54a48.81,48.81,0,0,0,4.51,6.15c10,11.56,21.38,19,39.1,21.26,2,.25,4,.52,6,.8a19.88,19.88,0,0,1,.56-7.5,3.84,3.84,0,0,1-.39-3c-16.93-5.86-32-19.17-39.34-35.34-4-8.82-6.12-18.92-6.18-30.42-.12-27.61,3.21-61,10.78-87.25C225.88,207.54,245.58,173.81,267.32,140.84Z"/></g><g opacity="0.1" ><path d="M389.45,401.55c-5.29,1.25-9.82,4.43-15.12,5.66a157.09,157.09,0,0,1-19.41,3c-22,2.27-44.35.81-66.16-2.85-1.83-5.46-1.1-11.69-.07-17.2a40.45,40.45,0,0,1,1.39-4.95c-.28.72-.57,1.44-.89,2.14a14.1,14.1,0,0,1-2.5,3.62,4.38,4.38,0,0,1-.45.41c-1.33,3.58-2.37,7.3-3.27,10.65a5.24,5.24,0,0,1-.07,2c-.37,1.67-.8,3.31-1.06,5,0,1-.12,2.06-.23,3.1a5.65,5.65,0,0,1-.69,2.18c1.92.42,3.8.84,5.61,1.27,14.9,5.55,32.72,6.74,47.93,6.86,15.66.13,34.69-1.09,45-4.9,2.87-1.06,9.12-1.63,10.48-3.06,1.2-1.27-.65-1.69-.77-3.3C388.43,401.79,389.44,401.55,389.45,401.55Z"/></g><path fill="#2d2926"  d="M521.92,181.86c-7.53-2.85-15-6.46-22.22-10-1.31-.63-2.61-1.27-3.92-1.89a153.52,153.52,0,0,1-19.23-10.54c-10.18-6.84-17.6-16.09-24.78-25A180,180,0,0,0,439.36,120a11.44,11.44,0,0,0,4.88-1l3.48-1.34-3.43-1.44c-.9-.38-1.8-.68-2.68-1s-1.57-.52-2.3-.82c-1-.41-1.91-.88-2.91-1.37l-1.75-.86-.6-.27.53-.22a23.18,23.18,0,0,0,3.71-1.73l3.93-2.6-4.71-.15a40.22,40.22,0,0,1-7.87-1.33A15.81,15.81,0,0,0,434,104.5l3-1.53-3.1-1.2c-.21-.08-3.61-1.39-6.66-2.45l1.18-.3a40.88,40.88,0,0,0,4.84-1.38l4.83-2-5.16-.85c-5.18-.86-18.16-7-22.94-9.85C398.64,78.19,384.15,77.82,373,84c-4.67,2.59-7.31,5.78-7.68,9.28a104.91,104.91,0,0,1,11,5.24c17.45,9.58,32.34,23.65,43.88,39.81,6.55,9.19,11.56,19.21,16.62,29.27,5.92,11.76,11.65,23.61,17.05,35.62,6.47,14.41,12.47,29.07,17.64,44,1.74.95,3.51,1.84,5.32,2.65a61,61,0,0,0,24.95,5.6,46.05,46.05,0,0,0,16.41-2.88c13.18-5,22.83-18.08,24-32.53C544.4,193.85,532.51,185.88,521.92,181.86Z"/><path fill="#2d2926"  d="M199.29,248.38c.13-.48.68-1,.81-1.49A378.28,378.28,0,0,1,227.68,178c11-21.27,23.72-42.41,40.15-60,9.7-10.37,20.46-19,33.35-24.62a16.94,16.94,0,0,0-3.12-3.66,21.44,21.44,0,0,1-1.75-1.4c-.44-.39-.89-.77-1.35-1.13-10.23-7.89-25.7-5.6-35.76-.13-.4.22-.8.44-1.19.68-.55.32-1.11.67-1.7,1-4.47,2.71-10,6.08-14.66,6.85l-2.42.4,1.46,2a13.77,13.77,0,0,0,2.22,2.1c.26.22.59.49.9.77-3.34.59-10,1.31-10.12,1.32l-4.12.44L233,105a32,32,0,0,0,5.16,3,37.85,37.85,0,0,1-5.74.55l-3.75.12,2.8,2.5c.36.32.81.65,1.3,1a15.58,15.58,0,0,1,1.72,1.39c-3,2.58-7.35,4-11.29,5.28a12.25,12.25,0,0,1-1.49.35l-5.77,1,5.54,1.9a17,17,0,0,0,8.28.33c.55-.09,1.1-.18,1.64-.29-7,5.48-12.85,12.38-18.53,19.09-6.5,7.66-13.22,15.59-21.53,21.17a154.11,154.11,0,0,1-19.23,10.54c-1.31.62-2.62,1.26-3.94,1.9-7.22,3.48-14.68,7.09-22.19,9.94-10.6,4-22.49,12-20.33,38.19,1.2,14.46,10.85,27.54,24,32.54a46.33,46.33,0,0,0,16.42,2.88,61.24,61.24,0,0,0,24.95-5.6A82.35,82.35,0,0,0,199.29,248.38Z"/>        <g opacity="0.1" ><path fill="#fff"  d="M378.68,103.33c6.05,5.3,10.42,13.69,14.49,20.51,4.46,7.47,8.87,15,13.36,22.42,13,21.7,26.15,43.75,37,66.65a328.76,328.76,0,0,1,23.41,68.9c2.75,12.34,4.9,24.8,6.59,37.33,1.4,10.34,4.08,22.69-2.47,31.88,4.28-6,9.86-10.61,11.35-14.66,5.27-14.38.18-32.18-2.49-46.67-5.44-29.5-15.48-57.88-26.94-85.53-11.28-27.21-25.53-53.07-44.82-75.49C391.91,109.83,378.9,103.53,378.68,103.33Z"/></g>    </g>    <g id="outline">        <path fill="none"  d="M180.84,358.23c-13.37-3.79-31.9-13.93-31.89-30.06,0-7.83,5.89-17.95,14.25-18.91a9.84,9.84,0,0,1,4.14.38c1.26.4,2.41,1.63,3.63,1.87,6.6,1.28,4.62-5.39,2.32-8-5-5.78-17.34-5.63-24-3.76-14.65,4.1-29.75,21.85-29.06,37.44.77,17.19,14.14,32.19,29.19,39.12,14.31,6.59,31.64,7.43,46.85,3.51a78.41,78.41,0,0,1-7.55-19.88A60.85,60.85,0,0,1,180.84,358.23Z"/><path fill="none"  d="M227.26,177.87c11-21.26,23.71-42.61,40.14-60.17,9-9.61,19.47-17.89,31.21-23.51a14.09,14.09,0,0,0-2.36-2c-.65-.49-1.33-1-2-1.58-.38-.34-.77-.67-1.16-1h0c-8.76-6.76-23-5-32.5.13-.36.19-.72.4-1.08.61l-1.68,1C254,93.7,249.36,96.51,245,97.91c1.6,1.34,3,2.5,2.61,4a2.25,2.25,0,0,1-1.89,1.66c-1.49.36-4.65.79-7.31,1.12a7.66,7.66,0,0,0,5.34,1l7.2-1.8L245,108.39c-2.29,1.72-5.44,2.47-8.5,2.81a3.54,3.54,0,0,1,1.23,2.26,2.35,2.35,0,0,1-.78,1.89,21.32,21.32,0,0,1-5.83,3.72l1.17-.23,1.3-.25a15.11,15.11,0,0,1,1.51-.15,8.49,8.49,0,0,0,1.9-.24l1.54,2.57h0c-9.17,5.59-16.37,14.08-23.34,22.3C208.55,150.9,201.69,159,193,164.8a155.52,155.52,0,0,1-19.61,10.75l-3.93,1.9c-7.28,3.51-14.8,7.15-22.44,10-10.21,3.88-20.38,11.08-18.4,35.15,1.1,13.33,10,25.38,22.11,30C162.21,257,176.45,256,189.83,250a80.26,80.26,0,0,0,10.82-6A379.27,379.27,0,0,1,227.26,177.87Z"/><path fill="none"  d="M520.85,184.67c-7.64-2.9-15.17-6.54-22.45-10.06l-3.92-1.89A155.43,155.43,0,0,1,474.88,162c-10.56-7.09-18.13-16.52-25.45-25.65C444.35,130,439.55,124,434,119.1l-3.5-3.1,4.65.49c.75.08,1.38.16,1.93.25-.69-.32-1.37-.66-2-1l-1.69-.83-.58-.26a7,7,0,0,1-2.7-1.74,1.64,1.64,0,0,1-.36-1.47c.21-.86.9-1.32,2.32-1.92-4-.8-8.74-2.19-11.18-3.94L414.45,101l7.66,1.92a17.3,17.3,0,0,0,6.56.13c-2.16-.79-4.63-1.65-5.91-2a1.81,1.81,0,0,1-1.62-1.73c0-1.57,1.51-2,6-3.12a131.34,131.34,0,0,1-18.74-8.73C398,81.3,384.69,81,374.45,86.62c-2.76,1.52-6.07,4-6.19,7.32a2.12,2.12,0,0,0,.07.61c2.72,1.21,5.4,2.53,8,4,17.45,9.58,32.34,23.66,43.88,39.81,6.56,9.19,11.57,19.21,16.62,29.28,5.92,11.76,11.65,23.61,17.05,35.62,5.84,13,11.3,26.22,16.11,39.66a80.76,80.76,0,0,0,8.08,4.26c13.38,6,27.62,7,39.06,2.65,12.12-4.6,21-16.65,22.11-30C541.23,195.74,531.06,188.54,520.85,184.67Z"/><path fill="none"  d="M436.3,173.2c-9.43-18.93-19.18-36.8-34.42-51.77C388,107.82,371,96.84,352.08,92a77.3,77.3,0,0,0-58.72,8.25c-20,11.78-34.51,30.8-46.8,50.08a377.61,377.61,0,0,0-52.42,133.53c-1.64,9-3,18.11-3.91,27.25-2.95,30.41-1.69,70.58,28.42,87.66,2.13,1.21,13,3.8,8.39,7.39-2.4,1.85-14.49,3-13.86,6.68.69,4.07,12.39,4.42,15.14,4.64a154.25,154.25,0,0,0,17.6.25c.53,0,1.45,0,2.42,0q.06-.66.09-1.35c.11-3.78.06-7.79.17-11.67s.13-7.78.11-11.66a160.42,160.42,0,0,0-1.55-23.2,61.18,61.18,0,0,0-2.71-11.26,33,33,0,0,0-2.45-5.25,18.37,18.37,0,0,0-3.63-4.52c3.15,2.36,5.25,5.89,6.81,9.48a61,61,0,0,1,3.42,11.29A144,144,0,0,1,251,393c.14,3.92.19,7.83.18,11.74l0,5.84c0,1.94.07,3.89,0,5.9a21,21,0,0,1-.27,3.11,11.26,11.26,0,0,1-.38,1.6l-.13.4-.18.46a5.61,5.61,0,0,1-.49.86,7.83,7.83,0,0,1-2.67,2.32,25.27,25.27,0,0,1-2.81,1.33c-.91.39-1.79.74-2.58,1.14a6,6,0,0,0-1.87,1.34,2,2,0,0,0-.46,1.63,3.7,3.7,0,0,0,.8,1.91,6.76,6.76,0,0,0,1,1,5.49,5.49,0,0,1,.23-3.1,6.54,6.54,0,0,1,2.79-3.36,8.4,8.4,0,0,1,2-.78,10.89,10.89,0,0,1,1.87-.38A13.21,13.21,0,0,1,252,426a13.14,13.14,0,0,1-3.14,2.28c-1.12.61-2.2,1.07-3,1.5a9.26,9.26,0,0,0-2.27,1.93,12.58,12.58,0,0,0-1.91,3l.46-.38a13.8,13.8,0,0,0,2.26,1.18,20.33,20.33,0,0,0,5.24,1.41c.79.1,1.58.16,2.37.22a2.79,2.79,0,0,1-.44-.92,3.62,3.62,0,0,1,.16-2.18,7.25,7.25,0,0,1,2.47-3,10,10,0,0,1,3.24-1.61,7.37,7.37,0,0,1,3.65-.16,28.07,28.07,0,0,1-2.6,2.27c-.85.67-1.66,1.29-2.49,1.91a19.8,19.8,0,0,0-2.22,1.75,3.12,3.12,0,0,0-.74,1,2.58,2.58,0,0,0-.21,1.56l.56-.58a47.85,47.85,0,0,0,7.57-.3,42,42,0,0,0,5.57-1,14.81,14.81,0,0,0,4.79-2.29,16.64,16.64,0,0,0,3.79-3.88,25,25,0,0,0,2.71-4.86,34.06,34.06,0,0,0,1.72-5.38,46.87,46.87,0,0,0,.89-5.65l.74-5.85q.45-2.92,1.17-5.81c1.92-7.71,5.82-14.69,10.24-21.09a114.47,114.47,0,0,0-5.34,10.39,52.49,52.49,0,0,0-3.46,11c-.38,1.89-.69,3.8-.91,5.71l-.48,5.76a315.77,315.77,0,0,0,34,5.62c21.48,2.29,43.63,2.35,64.74-2.67a85,85,0,0,0,8.6-2.57,97,97,0,0,1-1.61-10.87,72.73,72.73,0,0,0-1.72-11.11c-.87-3.66-2-7.26-3.18-10.85a96.89,96.89,0,0,1,3.95,10.64,74.87,74.87,0,0,1,2.41,11.13,92.35,92.35,0,0,0,2.15,11,30.37,30.37,0,0,0,4.54,9.88,18.59,18.59,0,0,0,8.12,6.57,28.16,28.16,0,0,0,5.23,1.25,43.47,43.47,0,0,0,5.47.53c1.29.05,2.59,0,3.89,0l.55.57a2.58,2.58,0,0,0-.2-1.56,3.44,3.44,0,0,0-.74-1,25,25,0,0,0-2.22-1.75c-.83-.61-1.65-1.24-2.49-1.9a28.12,28.12,0,0,1-2.61-2.27,7.41,7.41,0,0,1,3.66.16,9.89,9.89,0,0,1,3.23,1.61,7.13,7.13,0,0,1,2.48,3,3.59,3.59,0,0,1,.15,2.17,2.82,2.82,0,0,1-.45.94h.24a23.88,23.88,0,0,0,5.27-.87,17,17,0,0,0,4.38-1.94l.45.38a12.58,12.58,0,0,0-1.91-3,9.22,9.22,0,0,0-2.26-1.93c-.84-.44-1.93-.89-3.05-1.5a13.34,13.34,0,0,1-3.13-2.29,13.58,13.58,0,0,1,3.88.05,12.49,12.49,0,0,1,1.87.39,8.58,8.58,0,0,1,2,.78,6.52,6.52,0,0,1,2.78,3.36A5.43,5.43,0,0,1,431,429a4.45,4.45,0,0,0,1.85-3.07,2.27,2.27,0,0,0-.41-1.65,5.38,5.38,0,0,0-1.71-1.31c-1.49-.77-3.31-1.33-5.14-2.13a12.62,12.62,0,0,1-2.76-1.6,6.38,6.38,0,0,1-1.26-1.28l-.27-.38c-.09-.16-.18-.32-.25-.48a4.82,4.82,0,0,1-.32-.92c-.14-.6-.19-1.08-.26-1.54l-.2-1.4-.37-2.83a81.22,81.22,0,0,1-.68-11.49,58.94,58.94,0,0,1,1.49-11.44c.81-3.74,1.84-7.4,2.85-11l2.9-10.94c1-3.65,2-7.29,3.17-10.9a42.86,42.86,0,0,1,2-5.34,13.72,13.72,0,0,1,3.37-4.56,13.4,13.4,0,0,0-3,4.74,44.05,44.05,0,0,0-1.64,5.38c-.93,3.65-1.73,7.33-2.51,11s-1.58,7.38-2.43,11.08-1.78,7.32-2.45,11a63.33,63.33,0,0,0-1.16,11,80,80,0,0,0,.87,11.09l.38,2.57c5.45.88,11.4.47,16.8.3a155.32,155.32,0,0,0,19.15-1.45c2.35-.37,3.94,0,2.57-2.3-1.6-2.7-4-4-6.92-5-2.41-.83-9.31-1-10.72-3.45-.76-1.35.09-2.06,1-2.94,1.36-1.35,4-2.21,5.61-3.25q3-1.87,5.8-4a69.52,69.52,0,0,0,18.79-22.2c9-16.71,10.94-36.3,9.17-54.93-2.25-23.73-9.25-47.33-17.25-69.68C458.45,219.48,447.73,196.14,436.3,173.2Z"/><path d="M521.92,181.86c-7.53-2.85-15-6.46-22.22-10-1.31-.63-2.61-1.27-3.92-1.89a153.52,153.52,0,0,1-19.23-10.54c-10.18-6.83-17.6-16.09-24.78-25A176.51,176.51,0,0,0,439.36,120a11.44,11.44,0,0,0,4.88-1l3.48-1.34c-.45-.25-2.26-.9-2.72-1.08-2.89-1.11-5.83-2.13-8.6-3.51l-1.75-.86-.6-.27.53-.21a22.32,22.32,0,0,0,3.71-1.74l3.93-2.6-4.71-.15a40.22,40.22,0,0,1-7.87-1.33A16,16,0,0,0,434,104.5l3-1.52-3.1-1.21c-.21-.08-3.61-1.39-6.66-2.45l1.18-.29a40.57,40.57,0,0,0,4.84-1.39l4.83-2-5.16-.86c-5.18-.86-18.16-7-22.94-9.85-11.26-6.74-25.75-7.11-36.9-.94-4.68,2.59-7.32,5.79-7.69,9.28-13.61-5.53-28.36-8.09-43.05-6.19a76.87,76.87,0,0,0-20.85,5.84,14.8,14.8,0,0,0-3.35-3.18,21.44,21.44,0,0,1-1.75-1.4c-.44-.39-.89-.77-1.35-1.13-10.23-7.89-25.7-5.6-35.76-.13-.4.22-.8.44-1.19.68l-1.7,1c-4.47,2.71-10,6.09-14.66,6.85l-2.42.41a22.22,22.22,0,0,0,3.68,4.07c.26.22.59.49.9.77-3.34.59-10,1.31-10.12,1.32l-4.12.44L233,105a32,32,0,0,0,5.16,3,36.61,36.61,0,0,1-5.74.55l-3.75.12,2.8,2.5a16.07,16.07,0,0,0,1.3,1,14.59,14.59,0,0,1,1.72,1.4c-3,2.57-7.35,4-11.29,5.27a10.63,10.63,0,0,1-1.49.35l-5.77,1,5.54,1.9c3.56.42,6,.71,8.28.33.55-.08,1.1-.18,1.64-.28-7,5.48-12.85,12.37-18.53,19.08-6.5,7.66-13.22,15.59-21.53,21.17a152.82,152.82,0,0,1-19.23,10.54l-3.94,1.9c-7.22,3.48-14.68,7.09-22.19,9.94-10.6,4-22.49,12-20.33,38.19,1.2,14.46,10.85,27.54,24,32.54a46.33,46.33,0,0,0,16.42,2.88,61.24,61.24,0,0,0,24.95-5.6,82,82,0,0,0,8.3-4.37q-4.87,17.16-8.13,34.73c-4.14,22.8-8.11,49.66-3.25,73.68a61.05,61.05,0,0,1-11.49-3.1c-8.62-3.25-17.72-8.74-22.26-17.06-4.28-7.83-1.8-21.94,8.41-24.19,4.47-1,12.6,7.2,15.42-.06,1.53-3.95-.72-9.61-3.9-12.09-10.76-8.4-28.1-4.73-38,2.92-11.08,8.57-20.66,22.88-18.66,37.35,2.16,15.63,13.44,29.31,27,36.7,16.23,8.81,35.25,9.71,53.28,5.31.12.2.23.41.36.61a53.84,53.84,0,0,0,16.37,16.68,51.84,51.84,0,0,0,5.28,3c.46.23,2,1.13,3.24,1.71l-.3.13c-1.79.62-3.6,1.16-5.38,1.81-3.43,1.25-9.09,3.22-6.82,8,1.88,3.91,8,4.8,11.71,5.38a115.9,115.9,0,0,0,20,1c1.44,0,3.41.1,5.39.06a2.12,2.12,0,0,1-.23.41c-.74,1.09-2.47,1.87-4.23,2.59-.89.37-1.82.74-2.77,1.21a8.73,8.73,0,0,0-2.83,2.08,5,5,0,0,0-1,1.81,5.56,5.56,0,0,0-.17,2,6.77,6.77,0,0,0,1.39,3.44,13.11,13.11,0,0,0,5.38,3.75,23.22,23.22,0,0,0,6,1.58,48.42,48.42,0,0,0,12-.11,44.67,44.67,0,0,0,5.92-1.2,17.45,17.45,0,0,0,5.65-2.83,22.49,22.49,0,0,0,7.1-10,36.65,36.65,0,0,0,2.14-8.76c22.5,4.91,45.67,7.82,68.72,6.91a160.11,160.11,0,0,0,32.55-4.44c2.41-.6,4.79-1.27,7.16-2a29.81,29.81,0,0,0,3.82,8.09,20.41,20.41,0,0,0,9.07,7.68,30.89,30.89,0,0,0,5.73,1.5,48.47,48.47,0,0,0,11.62.64c1-.07,1.92-.15,2.93-.3a23.78,23.78,0,0,0,2.95-.64,19.25,19.25,0,0,0,5.58-2.52,10.22,10.22,0,0,0,2.4-2.3,7.75,7.75,0,0,0,.86-1.58l.26-.89a6.6,6.6,0,0,0,.14-.89,6,6,0,0,0-.15-1.91,5.47,5.47,0,0,0-.87-1.78,8,8,0,0,0-2.72-2.14c-1.88-.95-3.7-1.48-5.33-2.19a10.32,10.32,0,0,1-2.14-1.2,4.2,4.2,0,0,1-.73-.73l-.14-.19-.08-.15c0-.08-.07-.18-.1-.29l.76.07a142.39,142.39,0,0,0,20.86,0c5.56-.29,11.91-.21,17.3-1.84,3.77-1.13,2.9-4.86.85-7.64-3.27-4.44-9.45-5.46-14.46-6.64l-.42-.13c.93-.57,1.95-1.32,2.33-1.55a77.7,77.7,0,0,0,11.85-8.79c14-12.67,21.84-30.36,24.29-48.89,2.85-21.54-1.3-43.23-6.67-64-2.52-9.77-5.48-19.4-8.78-28.92,1.74.95,3.51,1.84,5.32,2.65a61,61,0,0,0,24.95,5.6,46.05,46.05,0,0,0,16.41-2.88c13.18-5,22.83-18.07,24-32.53C544.4,193.85,532.51,185.88,521.92,181.86ZM189.85,250a61.52,61.52,0,0,1-23.71,5.32c-9.54,0-19.28-3-26.28-9.49-9-8.33-12.48-21.47-11.26-33.69a36.83,36.83,0,0,1,2.54-10.54,22.16,22.16,0,0,1,6.17-8.63c.29-.24.51-.51.78-.76a5.94,5.94,0,0,1,1.2-.69c.86-.47,1.74-.93,2.61-1.38q2.63-1.37,5.3-2.62c3.58-1.7,7.19-3.31,10.81-4.9s7.25-3.16,10.86-4.78,7.14-3.29,10.64-5.1,6.88-3.72,10.16-5.84a84.58,84.58,0,0,0,8.3-6.05c15.79-13.08,26.24-32.4,44-42.66a54.9,54.9,0,0,0-10.86.87,23.87,23.87,0,0,0,8.14-5.35,11.45,11.45,0,0,1-2.76-2.41,24.69,24.69,0,0,0,14.31-7.5,13.72,13.72,0,0,1-12.29.63c2.29.4,9.19-1.35,11-2.8.25-.2-2.37-1.72-4.08-3.32,8.28-5.21,16.81-10.51,26.42-12.38s20.66.46,26.62,8.22c-26.53,13.45-45.4,38.28-60.41,64a399.05,399.05,0,0,0-35.57,79.81,18.63,18.63,0,0,1-2.78,6.11,16.78,16.78,0,0,1-6.08,4.26Q191.76,249.19,189.85,250ZM149.39,376.28c-15-6.93-28.42-21.93-29.19-39.12-.69-15.59,14.41-33.34,29.06-37.44,6.69-1.87,19-2,24,3.76,2.3,2.64,4.28,9.31-2.32,8-1.22-.24-2.37-1.47-3.63-1.87a9.84,9.84,0,0,0-4.14-.38c-8.36,1-14.24,11.08-14.25,18.91,0,16.13,18.52,26.27,31.89,30.06a60.85,60.85,0,0,0,7.85,1.68,78.41,78.41,0,0,0,7.55,19.88C181,383.71,163.7,382.87,149.39,376.28Zm335-63c1.77,18.63-.21,38.22-9.17,54.93a69.52,69.52,0,0,1-18.79,22.2q-2.81,2.16-5.8,4c-1.64,1-4.25,1.9-5.61,3.25-.88.88-1.73,1.59-1,2.94,1.41,2.48,8.31,2.62,10.72,3.45,2.94,1,5.32,2.31,6.92,5,1.37,2.3-.22,1.93-2.57,2.3a155.32,155.32,0,0,1-19.15,1.45c-5.4.17-11.35.58-16.8-.3l-.38-2.57a80,80,0,0,1-.87-11.09,63.33,63.33,0,0,1,1.16-11c.67-3.68,1.6-7.31,2.45-11s1.63-7.39,2.43-11.08,1.58-7.37,2.51-11a44.05,44.05,0,0,1,1.64-5.38,13.4,13.4,0,0,1,3-4.74,13.72,13.72,0,0,0-3.37,4.56,42.86,42.86,0,0,0-2,5.34c-1.15,3.61-2.18,7.25-3.17,10.9l-2.9,10.94c-1,3.62-2,7.28-2.85,11a58.94,58.94,0,0,0-1.49,11.44,81.22,81.22,0,0,0,.68,11.49l.37,2.83.2,1.4c.07.46.12.94.26,1.54a4.82,4.82,0,0,0,.32.92c.07.16.16.32.25.48l.27.38a6.38,6.38,0,0,0,1.26,1.28,12.62,12.62,0,0,0,2.76,1.6c1.83.8,3.65,1.36,5.14,2.13a5.38,5.38,0,0,1,1.71,1.31,2.27,2.27,0,0,1,.41,1.65A4.45,4.45,0,0,1,431,429a5.43,5.43,0,0,0-.23-3.13,6.52,6.52,0,0,0-2.78-3.36,8.58,8.58,0,0,0-2-.78,12.49,12.49,0,0,0-1.87-.39,13.58,13.58,0,0,0-3.88-.05,13.34,13.34,0,0,0,3.13,2.29c1.12.61,2.21,1.06,3.05,1.5a9.22,9.22,0,0,1,2.26,1.93,12.58,12.58,0,0,1,1.91,3l-.45-.38a17,17,0,0,1-4.38,1.94,23.88,23.88,0,0,1-5.27.87h-.24a2.82,2.82,0,0,0,.45-.94,3.59,3.59,0,0,0-.15-2.17,7.13,7.13,0,0,0-2.48-3,9.89,9.89,0,0,0-3.23-1.61,7.41,7.41,0,0,0-3.66-.16,28.12,28.12,0,0,0,2.61,2.27c.84.66,1.66,1.29,2.49,1.9a25,25,0,0,1,2.22,1.75,3.44,3.44,0,0,1,.74,1,2.58,2.58,0,0,1,.2,1.56l-.55-.57c-1.3.05-2.6.06-3.89,0a43.47,43.47,0,0,1-5.47-.53,28.16,28.16,0,0,1-5.23-1.25,18.59,18.59,0,0,1-8.12-6.57,30.37,30.37,0,0,1-4.54-9.88,92.35,92.35,0,0,1-2.15-11,74.87,74.87,0,0,0-2.41-11.13,96.89,96.89,0,0,0-3.95-10.64c1.19,3.59,2.31,7.19,3.18,10.85a72.73,72.73,0,0,1,1.72,11.11,97,97,0,0,0,1.61,10.87,85,85,0,0,1-8.6,2.57c-21.11,5-43.26,5-64.74,2.67a315.77,315.77,0,0,1-34-5.62l.48-5.76c.22-1.91.53-3.82.91-5.71a52.49,52.49,0,0,1,3.46-11A114.47,114.47,0,0,1,292.54,381c-4.42,6.4-8.32,13.38-10.24,21.09q-.72,2.88-1.17,5.81l-.74,5.85a46.87,46.87,0,0,1-.89,5.65,34.06,34.06,0,0,1-1.72,5.38,25,25,0,0,1-2.71,4.86,16.64,16.64,0,0,1-3.79,3.88,14.81,14.81,0,0,1-4.79,2.29,42,42,0,0,1-5.57,1,47.85,47.85,0,0,1-7.57.3l-.56.58a2.58,2.58,0,0,1,.21-1.56,3.12,3.12,0,0,1,.74-1,19.8,19.8,0,0,1,2.22-1.75c.83-.62,1.64-1.24,2.49-1.91a28.07,28.07,0,0,0,2.6-2.27,7.37,7.37,0,0,0-3.65.16,10,10,0,0,0-3.24,1.61,7.25,7.25,0,0,0-2.47,3,3.62,3.62,0,0,0-.16,2.18,2.79,2.79,0,0,0,.44.92c-.79-.06-1.58-.12-2.37-.22a20.33,20.33,0,0,1-5.24-1.41,13.8,13.8,0,0,1-2.26-1.18l-.46.38a12.58,12.58,0,0,1,1.91-3,9.26,9.26,0,0,1,2.27-1.93c.84-.43,1.92-.89,3-1.5A13.14,13.14,0,0,0,252,426a13.21,13.21,0,0,0-3.88.05,10.89,10.89,0,0,0-1.87.38,8.4,8.4,0,0,0-2,.78,6.54,6.54,0,0,0-2.79,3.36,5.49,5.49,0,0,0-.23,3.1,6.76,6.76,0,0,1-1-1,3.7,3.7,0,0,1-.8-1.91,2,2,0,0,1,.46-1.63,6,6,0,0,1,1.87-1.34c.79-.4,1.67-.75,2.58-1.14a25.27,25.27,0,0,0,2.81-1.33,7.83,7.83,0,0,0,2.67-2.32,5.61,5.61,0,0,0,.49-.86l.18-.46.13-.4a11.26,11.26,0,0,0,.38-1.6,21,21,0,0,0,.27-3.11c.05-2,0-4,0-5.9l0-5.84c0-3.91,0-7.82-.18-11.74a144,144,0,0,0-2.44-23.41,61,61,0,0,0-3.42-11.29c-1.56-3.59-3.66-7.12-6.81-9.48a18.37,18.37,0,0,1,3.63,4.52,33,33,0,0,1,2.45,5.25,61.18,61.18,0,0,1,2.71,11.26,160.42,160.42,0,0,1,1.55,23.2c0,3.88-.05,7.77-.11,11.66s-.06,7.89-.17,11.67q0,.69-.09,1.35c-1,0-1.89,0-2.42,0a154.25,154.25,0,0,1-17.6-.25c-2.75-.22-14.45-.57-15.14-4.64-.63-3.64,11.46-4.83,13.86-6.68,4.66-3.59-6.26-6.18-8.39-7.39-30.11-17.08-31.37-57.25-28.42-87.66.88-9.14,2.27-18.22,3.91-27.25a377.61,377.61,0,0,1,52.42-133.53c12.29-19.28,26.79-38.3,46.8-50.08A77.3,77.3,0,0,1,352.08,92c18.94,4.84,35.95,15.82,49.8,29.43,15.24,15,25,32.84,34.42,51.77,11.43,22.94,22.15,46.28,30.8,70.43C475.1,266,482.1,289.58,484.35,313.31Zm54.9-93.5c-1.1,13.33-10,25.38-22.11,30-11.44,4.34-25.68,3.38-39.06-2.65a80.76,80.76,0,0,1-8.08-4.26c-4.81-13.44-10.27-26.65-16.11-39.66-5.4-12-11.13-23.86-17.05-35.62-5-10.07-10.06-20.09-16.62-29.28-11.54-16.15-26.43-30.23-43.88-39.81-2.61-1.43-5.29-2.75-8-4a2.12,2.12,0,0,1-.07-.61c.12-3.29,3.43-5.8,6.19-7.32,10.24-5.67,23.55-5.32,33.91.89a131.34,131.34,0,0,0,18.74,8.73,31.35,31.35,0,0,1-8,2.1c-.07.09,3.16,2,3.33,2.14a34.19,34.19,0,0,0,5.22,2.21,3.48,3.48,0,0,0,1,.36,17.3,17.3,0,0,1-6.56-.13L414.45,101l6.42,4.59c2.44,1.75,7.16,3.14,11.18,3.94a22,22,0,0,1-5.32,1.92c-.28,0,1.74,1.23,2.69,1.67,1.11.52,2.48,1.16,3.37,1.54l.58.26,1.69.83c.66.33,1.34.67,2,1-.55-.09-1.18-.17-1.93-.25l-4.65-.49,3.5,3.1c5.54,4.92,10.34,10.9,15.42,17.22,7.32,9.13,14.89,18.56,25.45,25.65a155.43,155.43,0,0,0,19.6,10.75l3.92,1.89c7.28,3.52,14.81,7.16,22.45,10.06C531.06,188.54,541.23,195.74,539.25,219.81Z"/>    </g>    <g id="eye">        <g id="eye-color1">            <g opacity="0" ><path fill="#BA756C"  d="M297.39,169.09c-.14.46-.21.94-.36,1.41a15.55,15.55,0,0,1-1.35,2.86c-.52.94-1,1.9-1.54,2.83-.24.41-.5.8-.77,1.2-.14.21-.28.41-.43.61s-.45.47-.45.6c-.2.25-.39.5-.6.74-5.88,7-13.9,9.8-22.69,6.54-8.54-3.18-14.2-10.41-14.65-19.54a1.27,1.27,0,0,1,0-.28,1.42,1.42,0,0,1,0-.3,23.29,23.29,0,0,1,19-21.81A19,19,0,0,1,285,145.3c-15.3-7.7-34.36-2.93-39.3,15.33a20.54,20.54,0,0,0-.66,6.53,29.4,29.4,0,0,0,10.48,20.24c8.59,7.08,21.5,6.67,31,1.77,7.19-3.7,10-12.61,10.92-20.46C297.47,168.84,297.43,169,297.39,169.09Z"/></g><g opacity="0" ><path fill="#BA756C"  d="M421.14,163c-.24.62-.44,1.25-.69,1.86a25.27,25.27,0,0,1-2,3.66A30.31,30.31,0,0,1,416,172c-5.88,7.05-13.91,9.8-22.7,6.54-8.53-3.18-14.2-10.41-14.65-19.54a2.46,2.46,0,0,1,0-.28,1.39,1.39,0,0,1,0-.3,23.28,23.28,0,0,1,19-21.81,19,19,0,0,1,11.42,1.35c-15.3-7.7-34.36-2.93-39.3,15.33a20.83,20.83,0,0,0-.66,6.53A29.44,29.44,0,0,0,379.59,180c8.59,7.08,21.5,6.67,31,1.77,6.91-3.55,9.73-12,10.78-19.66C421.31,162.4,421.24,162.78,421.14,163Z"/></g>        </g>        <g id="eye-shape">            <path fill="#fcfcfc"  d="M289.33,118.08c-7.82-4.63-16.25-5.49-25.07-3.61a56.83,56.83,0,0,0-13.79,4.85c-2.74,1.38-5.12,3.33-7.81,4.73-15.12,11.6-19.3,31.46-10.94,48.47,7.69,15.62,26.58,28.71,44.44,23.12,15.37-4.81,25.15-21.23,28.47-36.16C308.16,143.65,304,126.72,289.33,118.08ZM262.26,189c-9.47,1.85-17-6.57-18.21-15.24a1.62,1.62,0,0,1-.05-.4,1.39,1.39,0,0,1,0-.46,16.55,16.55,0,0,1,17.43-15.77,5.68,5.68,0,0,1,1.57-.87,1.14,1.14,0,0,1,1.27-.13,1.34,1.34,0,0,1,.49.32l4.7,3.45c.7.52,1.52.95,1.59,1.92,0,.11,0,.23,0,.35a15.9,15.9,0,0,1,3,10C273.89,179.25,269.86,187.48,262.26,189Z"/><path d="M296.83,119.83a35.84,35.84,0,0,0-27.08-9.2,55.33,55.33,0,0,0-15.7,3.82c-4.55,1.8-8.27,4.54-12.51,6.79a1.54,1.54,0,0,0-.39.22,1.45,1.45,0,0,0-.46.36c-13.64,10.74-19.54,27.85-14.53,44.69,5.33,17.94,22.38,33.32,41.63,33.36,18.48,0,31.65-16.1,37.53-32.11S310.39,131.88,296.83,119.83Zm7.8,39.65c-3.32,14.93-13.1,31.35-28.47,36.16-17.86,5.59-36.75-7.5-44.44-23.12-8.36-17-4.18-36.87,10.94-48.47,2.69-1.4,5.07-3.35,7.81-4.73a56.83,56.83,0,0,1,13.79-4.85c8.82-1.88,17.25-1,25.07,3.61C304,126.72,308.16,143.65,304.63,159.48Z"/><path fill="#fcfcfc"  d="M441.91,138.38c-3.23-17.34-18-24.17-34-26.81-18.86-3.14-36.89,8.23-45.55,24.74-9.27,19.81,1.24,45.06,20.38,54.74a38.17,38.17,0,0,0,44.44-6.79C438.81,172.7,444.93,154.58,441.91,138.38Zm-29.1,9.34c-9.24-.07-17.75-7-18.6-16.33a2,2,0,0,1-.06-.56,1.67,1.67,0,0,1,.08-.61,16.8,16.8,0,0,1,4-8.81,1.85,1.85,0,0,1,.25-.32l.65-.67c.24-.25.47-.5.72-.74l3.63-3.75a1.62,1.62,0,0,1,2.08-.17,17.38,17.38,0,0,1,9.3-1.72c9.06,1.06,14.51,10.2,13.34,18.68C427.09,140.6,421.2,147.78,412.81,147.72Z"/><path d="M437.61,121.53c-5.76-6.42-14.07-9.84-22.29-11.83-10.75-2.6-21.1-2.91-31.36,1.75a52.5,52.5,0,0,0-24.42,23.2c-8.76,18.74-1.73,42,14.38,54.65,13.82,10.8,33.62,12.77,48.56,3,15.16-9.89,23.85-29.06,23.44-46.89C445.72,136.84,443.47,128.05,437.61,121.53Zm-54.84,69.52c-19.14-9.68-29.65-34.93-20.38-54.74,8.66-16.51,26.69-27.88,45.55-24.74,15.93,2.64,30.74,9.47,34,26.81,3,16.2-3.1,34.32-14.7,45.88A38.17,38.17,0,0,1,382.77,191.05Z"/><path d="M269.26,166.54c-2.57,3-7.13,1.29-9-1.6a5.8,5.8,0,0,1,1.2-7.85A16.55,16.55,0,0,0,244,172.86a1.39,1.39,0,0,0,0,.46,1.62,1.62,0,0,0,.05.4c1.16,8.67,8.74,17.09,18.21,15.24,7.6-1.48,11.63-9.71,11.81-16.85a15.9,15.9,0,0,0-3-10A8,8,0,0,1,269.26,166.54Z"/><path fill="#fff"  d="M260.25,164.94c1.88,2.89,6.44,4.64,9,1.6a8,8,0,0,0,1.81-4.41c0-.12,0-.24,0-.35-.07-1-.89-1.4-1.59-1.92l-4.7-3.45a1.34,1.34,0,0,0-.49-.32,1.14,1.14,0,0,0-1.27.13,5.68,5.68,0,0,0-1.57.87A5.8,5.8,0,0,0,260.25,164.94Z"/><path d="M399.1,120.42l.72-.74C399.57,119.92,399.34,120.17,399.1,120.42Z"/><path d="M414.83,114a17.38,17.38,0,0,0-9.3,1.72l.25.17c2.9,2.29,3.92,7,1.11,9.86s-8,.49-8.86-3.1a1.6,1.6,0,0,1,0-.53,1.52,1.52,0,0,1,.21-.75,16.8,16.8,0,0,0-4,8.81,1.67,1.67,0,0,0-.08.61,2,2,0,0,0,.06.56c.85,9.31,9.36,16.26,18.6,16.33,8.39.06,14.28-7.12,15.36-15C429.34,124.24,423.89,115.1,414.83,114Z"/><path fill="#fff"  d="M398,122.69c.86,3.59,6,5.95,8.86,3.1s1.79-7.57-1.11-9.86l-.25-.17a1.62,1.62,0,0,0-2.08.17l-3.63,3.75-.72.74-.65.67a1.85,1.85,0,0,0-.25.32,1.52,1.52,0,0,0-.21.75A1.6,1.6,0,0,0,398,122.69Z"/>        </g>        <g id="eye-color2">            <path fill="#CABBFF"  d="M276.58,177a21.4,21.4,0,0,0-4.23-12.82,16.52,16.52,0,0,1,1.72,7.92c-.18,7.14-4.21,15.37-11.81,16.85-9.47,1.85-17.06-6.57-18.21-15.24a1.62,1.62,0,0,1-.05-.4,1.39,1.39,0,0,1,0-.46,16.55,16.55,0,0,1,17.42-15.77l.34-.22a19,19,0,0,0-5.14-.73c-11,0-19.93,9.35-19.93,20.87a22.56,22.56,0,0,0,.34,3.8c6.57,8.15,16.11,14.45,26.28,15.85A20.84,20.84,0,0,0,276.58,177Z"/><path fill="#CABBFF"  d="M414.89,114.05c9,1.1,14.44,10.21,13.28,18.67-1.08,7.88-7,15.06-15.36,15-8.9-.07-17.11-6.52-18.45-15.33a19.13,19.13,0,0,0-.16,2.41,20.94,20.94,0,1,0,26-20.1,21.21,21.21,0,0,0-5.13-.66Z"/>        </g>    </g>    <g id="nose-mouth">        <path fill="none"  d="M409,275.37h0Z"/><path fill="none"  d="M394.78,308.82l0,.08s0,0,0-.07Z"/><path fill="#e8d3b3"  d="M361.93,304.22a40.62,40.62,0,0,1,3.69,9.25,32.5,32.5,0,0,1,1.09,10,28.16,28.16,0,0,1-1.22,7c.94-.4,1.88-.84,2.78-1.31a33.14,33.14,0,0,0,5.12-3.27,32.58,32.58,0,0,0,8-9.07,36.91,36.91,0,0,0,4.43-11.47,60.07,60.07,0,0,0,1.23-12.54,44.83,44.83,0,0,1,.64,8.36,21.71,21.71,0,0,1,4.89,4.1,12.15,12.15,0,0,1,1.77,2.62l.08-.11a25.11,25.11,0,0,0,2.45-5.9,40.39,40.39,0,0,0,1.32-6.67c-.26-.49-.54-1-.85-1.46a15.93,15.93,0,0,1,2.55,2.93,25.91,25.91,0,0,1,1.88,3.43,35.8,35.8,0,0,1,1.36,3.67c0,.12.07.25.11.38l.71-1.45c.57-1.54,1.32-3,1.84-4.55a49.08,49.08,0,0,0,2.38-9.42,37.41,37.41,0,0,0,.06-9.69,29,29,0,0,0-2.85-9.46,19.44,19.44,0,0,1,3.58,5.76h0a21.12,21.12,0,0,1,3.61.54,34.7,34.7,0,0,1,4.56,1.49,45.09,45.09,0,0,1,4.33,2.05c.53.28,1,.59,1.55.89a48.63,48.63,0,0,0-1-5.12,32.4,32.4,0,0,0-2.83-7.41,28.07,28.07,0,0,0-2.14-3.33,24.78,24.78,0,0,0-2.68-2.94,21.28,21.28,0,0,0-6.89-4.32,16.48,16.48,0,0,1,8,3c.41.28.8.6,1.19.91.73-.13,1.46-.27,2.19-.35a29.66,29.66,0,0,1,3-.23,32,32,0,0,1,6,.33,31.13,31.13,0,0,1,5.9,1.43,27.11,27.11,0,0,1,2.8,1.1,49.94,49.94,0,0,0-8.27-13.81,45.43,45.43,0,0,0-6.88-6.56c-1.23-1-2.56-1.88-3.88-2.77s-2.73-1.64-4.16-2.35a68.43,68.43,0,0,0-18.19-6.23,94.94,94.94,0,0,0-14-1.74c-.27,1.15-.58,2.32-1,3.5-6.48,19.83-28.21,40.19-43.87,41.1-.52,0-1,.05-1.58.05-15.46,0-37.36-12.51-48.72-28.07a44.82,44.82,0,0,1-5.42-9.56,117.07,117.07,0,0,0-12.57,4.44,72.2,72.2,0,0,0-17.07,9.82,37.91,37.91,0,0,0-6.84,6.85,30.84,30.84,0,0,0-4.65,8.32,29.93,29.93,0,0,0-1.58,9.35l.05,2.4.28,2.39c.05.39.09.8.15,1.19l0,.23c.21-.28.42-.54.64-.81a21.72,21.72,0,0,1,3.33-3.24,16.6,16.6,0,0,1,4.09-2.35,14.57,14.57,0,0,1,4.65-1l1.45-.1-.17,1.45a37.19,37.19,0,0,0-.17,5.5,39,39,0,0,0,.61,5.51,25.27,25.27,0,0,0,1.6,5.25,18.45,18.45,0,0,0,2.08,3.43,17.92,17.92,0,0,1,.25-1.79,16.23,16.23,0,0,1,.95-3.21,11.64,11.64,0,0,1,1.72-2.85,8.87,8.87,0,0,1,2.61-2,2.83,2.83,0,0,0-.28.2,6.31,6.31,0,0,1,.63-.34,36.56,36.56,0,0,1,2.68-11.74,33.12,33.12,0,0,0-1.37,5.87,40.24,40.24,0,0,0-.49,6A39.29,39.29,0,0,0,265,297.51a36.32,36.32,0,0,0,2.11,5.54,39,39,0,0,0,2.9,5.16,47.12,47.12,0,0,0,5.71,7c.05-.86.13-1.72.25-2.58a34.78,34.78,0,0,1,1.1-5.31,26.28,26.28,0,0,1,2.05-5.1,19.57,19.57,0,0,1,3.31-4.53l2.47-2.52-.06,3.61a49,49,0,0,0,1.27,11.65,39.22,39.22,0,0,0,4.19,10.88,27.7,27.7,0,0,0,7.58,8.6,28.51,28.51,0,0,0,8.75,4.28c0-1.59,0-3.16.09-4.74.11-2.21.3-4.41.61-6.61a43.94,43.94,0,0,1,1.4-6.55,19,19,0,0,1,3.05-6.21l.76-.94.82.83a34.91,34.91,0,0,1,5.28,6.85,22.78,22.78,0,0,1,1.84,4,13.07,13.07,0,0,1,.71,3.59,7.92,7.92,0,0,0,1.57-.42,9.2,9.2,0,0,0,2.13-1.21,11.72,11.72,0,0,0,3.17-3.86,20.71,20.71,0,0,0,1.78-4.83,31.93,31.93,0,0,0,.77-4.26c-.2-.21-.39-.44-.6-.65a44,44,0,0,0-5.45-4.79,28.47,28.47,0,0,1,6.37,3.76,29.39,29.39,0,0,1,5.32,5.31,23.53,23.53,0,0,1,3.69,6.7l.61,1.84c.15.64.26,1.28.38,1.91.06.32.13.64.17,1l0,.46a47.6,47.6,0,0,0,10.8-8.76l1.32-1.55c.42-.53.79-1.09,1.19-1.64a13.37,13.37,0,0,0,1.12-1.69,16.56,16.56,0,0,0,1-1.78l.89-1.85c.29-.62.46-1.29.71-1.93l.36-1c.1-.33.16-.67.24-1l.05-.21a25.18,25.18,0,0,0,.43-2.53,53.33,53.33,0,0,0-2.91-5.28A41.71,41.71,0,0,1,361.93,304.22Z"/><path d="M439.85,265.47a51.39,51.39,0,0,0-3.7-9.35,50,50,0,0,0-2.51-4.38c-.45-.72-1-1.38-1.47-2.07l-.75-1-.82-1a44,44,0,0,0-7.28-7,49.11,49.11,0,0,0-8.58-5.33,62.39,62.39,0,0,0-9.38-3.61,71,71,0,0,0-9.78-2,72.93,72.93,0,0,0-14.16-.5c2.2-10.25-.35-18.92-7.37-24.72-14.57-12-41.79-12-62.29-6.63C295.08,202.2,283.21,209.76,280,218c-2.18,5.64-2,11.82.43,18.22a95.82,95.82,0,0,0-12.92,3.55,67.55,67.55,0,0,0-18.06,9.34,36.16,36.16,0,0,0-12.67,16.21A30.68,30.68,0,0,0,235,275.7l.07,2.62.33,2.59c.06.43.1.86.18,1.29l.29,1.27.57,2.53.88,3.81,1.82-3.57a21.91,21.91,0,0,1,2.19-3.36,19.35,19.35,0,0,1,2.82-2.9,13.82,13.82,0,0,1,3.38-2.05,10.7,10.7,0,0,1,2.46-.73,41.58,41.58,0,0,0,.13,4.33,34.67,34.67,0,0,0,.92,5.8,27.07,27.07,0,0,0,2,5.53,18,18,0,0,0,3.62,4.7l1.12,1-.11-1.5a18.53,18.53,0,0,1,.08-3.15,15.76,15.76,0,0,1,.64-3.11,11.83,11.83,0,0,1,1.37-2.87,8.74,8.74,0,0,1,2.05-2,2.83,2.83,0,0,1,.28-.2,8.87,8.87,0,0,0-2.61,2,11.64,11.64,0,0,0-1.72,2.85,16.23,16.23,0,0,0-.95,3.21,17.92,17.92,0,0,0-.25,1.79,18.45,18.45,0,0,1-2.08-3.43,25.27,25.27,0,0,1-1.6-5.25,39,39,0,0,1-.61-5.51,37.19,37.19,0,0,1,.17-5.5l.17-1.45-1.45.1a14.57,14.57,0,0,0-4.65,1,16.6,16.6,0,0,0-4.09,2.35,21.72,21.72,0,0,0-3.33,3.24c-.22.27-.43.53-.64.81l0-.23c-.06-.39-.1-.8-.15-1.19l-.28-2.39-.05-2.4a29.93,29.93,0,0,1,1.58-9.35,30.84,30.84,0,0,1,4.65-8.32,37.91,37.91,0,0,1,6.84-6.85,72.2,72.2,0,0,1,17.07-9.82,117.07,117.07,0,0,1,12.57-4.44,44.82,44.82,0,0,0,5.42,9.56c11.36,15.56,33.26,28.07,48.72,28.07.54,0,1.06,0,1.58-.05,15.66-.91,37.39-21.27,43.87-41.1.39-1.18.7-2.35,1-3.5a94.94,94.94,0,0,1,14,1.74,68.43,68.43,0,0,1,18.19,6.23c1.43.71,2.79,1.54,4.16,2.35s2.65,1.77,3.88,2.77a45.43,45.43,0,0,1,6.88,6.56,49.94,49.94,0,0,1,8.27,13.81,27.11,27.11,0,0,0-2.8-1.1,31.13,31.13,0,0,0-5.9-1.43,32,32,0,0,0-6-.33,29.66,29.66,0,0,0-3,.23c-.73.08-1.46.22-2.19.35-.39-.31-.78-.63-1.19-.91a16.48,16.48,0,0,0-8-3,21.28,21.28,0,0,1,6.89,4.32,24.78,24.78,0,0,1,2.68,2.94,28.07,28.07,0,0,1,2.14,3.33,32.4,32.4,0,0,1,2.83,7.41,48.63,48.63,0,0,1,1,5.12c-.51-.3-1-.61-1.55-.89a45.09,45.09,0,0,0-4.33-2.05,34.7,34.7,0,0,0-4.56-1.49,21.12,21.12,0,0,0-3.61-.54h0a19.44,19.44,0,0,0-3.58-5.76,29,29,0,0,1,2.85,9.46,37.41,37.41,0,0,1-.06,9.69,49.08,49.08,0,0,1-2.38,9.42c-.52,1.55-1.27,3-1.84,4.55l-.71,1.45c0-.13-.07-.26-.11-.38a35.8,35.8,0,0,0-1.36-3.67,25.91,25.91,0,0,0-1.88-3.43,15.93,15.93,0,0,0-2.55-2.93c.31.48.59,1,.85,1.46a40.39,40.39,0,0,1-1.32,6.67,25.11,25.11,0,0,1-2.45,5.9l-.08.11a12.15,12.15,0,0,0-1.77-2.62,21.71,21.71,0,0,0-4.89-4.1,44.83,44.83,0,0,0-.64-8.36,60.07,60.07,0,0,1-1.23,12.54,36.91,36.91,0,0,1-4.43,11.47,32.58,32.58,0,0,1-8,9.07,33.14,33.14,0,0,1-5.12,3.27c-.9.47-1.84.91-2.78,1.31a28.16,28.16,0,0,0,1.22-7,32.5,32.5,0,0,0-1.09-10,40.62,40.62,0,0,0-3.69-9.25,41.71,41.71,0,0,0-5.61-8.09,53.33,53.33,0,0,1,2.91,5.28c.54,1.11,1.06,2.23,1.53,3.37a47.55,47.55,0,0,1,2.77,9.16,32.62,32.62,0,0,1,.58,4.7,31.78,31.78,0,0,1-.06,4.68,28.83,28.83,0,0,1-2.32,9L360.55,335l2.86-.75a30.71,30.71,0,0,0,6.25-2.47,36.09,36.09,0,0,0,5.53-3.63,32.83,32.83,0,0,0,8.43-10.11,35.34,35.34,0,0,0,3.81-12.45c.15-1.28.24-2.56.28-3.84,1.07,1.64,2.15,3.21,3.06,4.81a12.47,12.47,0,0,1,1.27,2.81l.15.49a2.51,2.51,0,0,0,.46.83,2,2,0,0,0,1.33.69,2.26,2.26,0,0,0,1.2-.25,3.82,3.82,0,0,0,1.11-.87,9.36,9.36,0,0,0,.66-.85,16,16,0,0,0,2.33-7.12,14.43,14.43,0,0,0-.93-6.9c.28.56.54,1.12.79,1.68a35,35,0,0,1,1.19,3.54c.33,1.2.59,2.41.81,3.63a33.45,33.45,0,0,1,.5,3.64l.3,3.86,2-3.38q1.31-2.2,2.58-4.46c.37-.78.73-1.57,1.08-2.36a24,24,0,0,0,1-2.39,35.78,35.78,0,0,0,1.52-5c.17-.85.42-1.69.54-2.55s.23-1.73.32-2.6a30.71,30.71,0,0,0-.84-10.38,26.83,26.83,0,0,0-1-2.91c1.06.37,2.1.77,3.11,1.22,1.4.67,2.76,1.37,4.09,2.14s2.63,1.57,3.89,2.44,2.56,1.73,3.71,2.64l2.35,1.86-.1-3.06a37,37,0,0,0-1.22-8.53,32.33,32.33,0,0,0-1.39-4.13,26.09,26.09,0,0,0-2-3.88,21.65,21.65,0,0,0-4.68-5.28,42,42,0,0,1,5,.1,36.08,36.08,0,0,1,5.77.9,34.94,34.94,0,0,1,5.49,1.81,27.07,27.07,0,0,1,5,2.71l2.72,2Zm-45,43.43,0-.08h0C394.86,308.92,394.84,308.94,394.82,308.9ZM288.53,244.72c-4.65-6.38-9.43-16-5.72-25.6,2.81-7.28,14.19-14.32,29.71-18.38a101.33,101.33,0,0,1,25.6-3.44c15.39,0,27.43,4,34,9.48,8.91,7.36,7.79,18,5.29,25.7-6.16,18.85-26.56,38.18-41.19,39S299.76,260.1,288.53,244.72Z"/><path fill="#724331"  d="M377.43,232.48c2.5-7.66,3.62-18.34-5.29-25.7-6.59-5.43-18.63-9.48-34-9.48a101.33,101.33,0,0,0-25.6,3.44c-15.52,4.06-26.9,11.1-29.71,18.38-3.71,9.6,1.07,19.22,5.72,25.6,11.23,15.38,33.1,27.67,47.71,26.8S371.27,251.33,377.43,232.48Z"/><path d="M358.51,305.16l-.36,1c-.25.64-.42,1.31-.71,1.93l-.89,1.85a16.56,16.56,0,0,1-1,1.78,13.37,13.37,0,0,1-1.12,1.69c-.4.55-.77,1.11-1.19,1.64l-1.32,1.55a47.6,47.6,0,0,1-10.8,8.76l0-.46c0-.32-.11-.64-.17-1-.12-.63-.23-1.27-.38-1.91l-.61-1.84a23.53,23.53,0,0,0-3.69-6.7,29.39,29.39,0,0,0-5.32-5.31,28.47,28.47,0,0,0-6.37-3.76,44,44,0,0,1,5.45,4.79c.21.21.4.44.6.65a31.93,31.93,0,0,1-.77,4.26,20.71,20.71,0,0,1-1.78,4.83,11.72,11.72,0,0,1-3.17,3.86,9.2,9.2,0,0,1-2.13,1.21,7.92,7.92,0,0,1-1.57.42,13.07,13.07,0,0,0-.71-3.59,22.78,22.78,0,0,0-1.84-4,34.91,34.91,0,0,0-5.28-6.85l-.82-.83-.76.94a19,19,0,0,0-3.05,6.21,43.94,43.94,0,0,0-1.4,6.55c-.31,2.2-.5,4.4-.61,6.61-.07,1.58-.1,3.15-.09,4.74a28.51,28.51,0,0,1-8.75-4.28,27.7,27.7,0,0,1-7.58-8.6,39.22,39.22,0,0,1-4.19-10.88,49,49,0,0,1-1.27-11.65l.06-3.61-2.47,2.52a19.57,19.57,0,0,0-3.31,4.53,26.28,26.28,0,0,0-2.05,5.1,34.78,34.78,0,0,0-1.1,5.31c-.12.86-.2,1.72-.25,2.58a47.12,47.12,0,0,1-5.71-7,39,39,0,0,1-2.9-5.16,36.32,36.32,0,0,1-2.11-5.54,39.29,39.29,0,0,1-1.66-11.78,40.24,40.24,0,0,1,.49-6,33.12,33.12,0,0,1,1.37-5.87,36.56,36.56,0,0,0-2.68,11.74.28.28,0,0,0,0,.09,40.29,40.29,0,0,0,1,12.22,38.11,38.11,0,0,0,1.95,5.87,41.51,41.51,0,0,0,2.81,5.52,50,50,0,0,0,7.77,9.63l2,2V318a34,34,0,0,1,.4-5,33.34,33.34,0,0,1,1.11-4.89A22.64,22.64,0,0,1,282,302.7c0,.75.11,1.5.18,2.26a54,54,0,0,0,1,6.17,41.14,41.14,0,0,0,4.47,11.72,30,30,0,0,0,20,14.56l1.79.4L309.4,336c-.1-2.09-.1-4.26,0-6.4s.22-4.27.47-6.38A44.41,44.41,0,0,1,311,317a19.25,19.25,0,0,1,1.8-4.49c.64.66,1.27,1.35,1.86,2.05a29.81,29.81,0,0,1,2.42,3.28,15,15,0,0,1,2.68,7.39l0,.79.7-.06a9,9,0,0,0,5.12-2.27,13,13,0,0,0,3.17-4.39,24.45,24.45,0,0,0,1.92-9.36,36.43,36.43,0,0,1,3.73,4.83,25.56,25.56,0,0,1,2.92,6.28l.45,1.66.28,1.69c.05.28.11.56.14.84l0,.85.08,1.71.12,2.33,2-1a30,30,0,0,0,3.8-2.22,41.77,41.77,0,0,0,3.49-2.57,38.7,38.7,0,0,0,6.07-6.2,28.91,28.91,0,0,0,4.18-7.6,22.83,22.83,0,0,0,1.29-8.43l-.46,1.84-.05.21C358.67,304.49,358.61,304.83,358.51,305.16Z"/><path fill="#44241b"  d="M334.67,209.16c-2.9-9.63-30.7,1.33-28,8.71C310,227.07,337.57,218.79,334.67,209.16Z"/><path fill="#44241b"  d="M348.91,232.14a5.66,5.66,0,1,0-5.57-5.74A5.65,5.65,0,0,0,348.91,232.14Z"/><path fill="#44241b"  d="M311.74,231.56c-4.68-.07-8.54,3.94-8.62,9s3.66,9.15,8.34,9.22,8.55-3.94,8.63-9S316.43,231.64,311.74,231.56Z"/><path fill="#44241b"  d="M340.2,246.15a2.86,2.86,0,1,0,2.38,2.86A2.64,2.64,0,0,0,340.2,246.15Z"/>    </g></svg>