<!--  ~ Copyright (C) 2018 Baidu, Inc. All Rights Reserved.  --><svg viewBox="0 0 640 480" xmlns="http://www.w3.org/2000/svg">    <g id="back-ground-cl">        <rect fill="none" width="640" height="480" />        <ellipse opacity="0.1" cx="331.93" cy="418.82" rx="168.39" ry="32.01"/>    </g>    <g id="body">        <defs>            <clipPath id="outline">                <path fill="none"  d="M412.51,86.52a11.78,11.78,0,0,0-2.32-2.75c-2.85.47-4.27.74-3.57,7.08s9.42,16.68,24.5,16.68c.81,0,1.63,0,2.48-.09a28.52,28.52,0,0,0,20.1-10.61c.2-.26.4-.52.59-.79a23,23,0,0,0,4-11,30.21,30.21,0,0,0-8.09-23.83c-6.2-6.37-15.69-8.28-24.77-5a59.25,59.25,0,0,0-6.31,2.7l-.23.13c.09.82.43,2.73,1,7.69l.1-.06a55.67,55.67,0,0,1,6.77-3c7.41-2.73,15-.07,19.29,6.77,3.56,5.66,4.12,12.57,1.46,18-3.39,7-11.6,10.9-19.52,9.35C419.46,96.22,415.11,90.15,412.51,86.52Z"/><path fill="none"  d="M419.56,137.49c1.1,1.52,2.15,3.07,3.17,4.64-.43-8.08-1.16-20.37-2.2-33.9a28.55,28.55,0,0,1-7.85-4.21c-4.75-3.6-8-8.55-8.49-12.9-.89-8.05,1.77-9.13,5.64-9.77,1.77-.29,3,1.4,4.67,3.75A37,37,0,0,0,419,90.55c-4.57-49-9.46-60-12-62.14a1.2,1.2,0,0,0-.94-.38c-9.84,1.23-36.86,43.84-47.94,62.64a101.45,101.45,0,0,1,17.72,7.59C393.21,107.69,408,121.56,419.56,137.49Z"/><path fill="none"  d="M307.9,90.41c-2.51-4-10.95-17.35-20.47-30C270.89,38.52,262.88,34.1,259.1,34.1a3.79,3.79,0,0,0-1.63.34c-2.94,1.41-8.51,12-12.84,67.24-1.5,19.25-2.41,38.34-2.88,50.44a215.64,215.64,0,0,1,25.85-34.59C278.85,105.54,292.43,95.62,307.9,90.41Z"/><path fill="none"  d="M445.67,397.9c4.15-3,8.74-5.13,12.75-8.43a70.25,70.25,0,0,0,17.73-22c8.67-16.77,10.48-36.28,8.64-54.84-2.41-24.3-9.67-48.43-18-71.3-3-8.15-6.18-16.2-9.55-24.19a49.52,49.52,0,0,1-6.7,3.1,79.84,79.84,0,0,0,8-5.23,49,49,0,0,0,7-6.26,21.24,21.24,0,0,0,4.71-7.73,11.81,11.81,0,0,0-.5-8.53,13.67,13.67,0,0,0-2.3-3.79,19.3,19.3,0,0,0-3.26-3.12,26.31,26.31,0,0,0-3.89-2.45q-2.07-1-4.27-1.88a58.51,58.51,0,0,0-9.12-2.51,82.85,82.85,0,0,0-9.48-1.33c.47,0,.94,0,1.42-.08l-2.36-4.77C427,153.39,417,135.33,401.43,120.25c-13.82-13.37-30.73-24.14-49.51-28.88a77.59,77.59,0,0,0-57.83,7.82c-20,11.46-34.63,30.21-46.94,49.3a369.59,369.59,0,0,0-20.83,36.89c1.72-.37,3.46-.71,5.2-1-6.22,2-12.39,4.16-18.38,6.64a88.21,88.21,0,0,0-8.73,4.12,38.77,38.77,0,0,0-4,2.52,15.7,15.7,0,0,0-3.29,3.09,5.9,5.9,0,0,0-1.28,3.84,16.15,16.15,0,0,0,.68,4.49,48.26,48.26,0,0,0,3.64,8.82,164.25,164.25,0,0,0,10.16,16.65c-1-1.07-2-2.18-2.95-3.31a381.67,381.67,0,0,0-13.69,52.52c-1.65,9-3,18.08-3.92,27.2-2.95,30.34-1.79,70.38,27.91,87.8a53.54,53.54,0,0,0,7,3.46c.75.31,2.37.54,2.88,1.31.83,1.26,0,2-1.08,2.7-2.47,1.51-14.63,3.19-13.72,6.89,1,4.22,11.94,4.52,15,4.78a152.52,152.52,0,0,0,17.5.3c1,0,2.09,0,3.17-.06.11-1.08.14-2.21.16-3.35,0-3.94.05-7.95.15-11.9s.16-7.91.16-11.86a174,174,0,0,0-1.37-23.62A64.46,64.46,0,0,0,245,355.91a32.82,32.82,0,0,0-2.38-5.39A16.83,16.83,0,0,0,239,345.9a16.94,16.94,0,0,1,4,4.43,32.27,32.27,0,0,1,2.67,5.36,64.11,64.11,0,0,1,3.12,11.54,158.1,158.1,0,0,1,2.1,23.78c.23,8-.05,15.87.1,23.8a23.1,23.1,0,0,1-.58,6.21c-.08.27-.16.52-.26.8a5.37,5.37,0,0,1-.42.87,6,6,0,0,1-1.18,1.41,11.54,11.54,0,0,1-2.8,1.74,45.72,45.72,0,0,0-5.21,2.44,3.13,3.13,0,0,0-1.37,1.6,3,3,0,0,0-.09,1,4.88,4.88,0,0,0,.27,1.08,5.87,5.87,0,0,0,2.06,2.39,5.48,5.48,0,0,1,.22-3.52,6.65,6.65,0,0,1,2.74-3.24,8.9,8.9,0,0,1,1.92-.76,13.62,13.62,0,0,1,1.85-.43,16,16,0,0,1,3.82-.26,16,16,0,0,1-3.21,2.08c-.54.29-1.16.53-1.65.78a15.73,15.73,0,0,0-1.47.69,8.67,8.67,0,0,0-2.32,2.06,11.36,11.36,0,0,0-1.72,3.09l.23-.19c.38.25.78.48,1.19.7a20.36,20.36,0,0,0,5.29,1.78,25,25,0,0,0,2.82.36c.38,0,.77,0,1.15.06a2.5,2.5,0,0,1-.64-1.2,3.62,3.62,0,0,1,.21-2.08,7.22,7.22,0,0,1,2.45-2.88,11,11,0,0,1,3.17-1.65,8.11,8.11,0,0,1,3.57-.35c-.94.8-1.84,1.44-2.71,2.08l-2.56,1.88a15.28,15.28,0,0,0-2.25,1.87,3.22,3.22,0,0,0-.68,1.13,2.54,2.54,0,0,0-.07,1.56l.3-.32c.32,0,.64,0,1,0a48.82,48.82,0,0,0,5.8-.21,44,44,0,0,0,5.72-.92,17.06,17.06,0,0,0,2.68-.81,14.34,14.34,0,0,0,2.46-1.27A22.32,22.32,0,0,0,278,426c.22-.43.45-.85.64-1.29l.3-.66.23-.65a12.56,12.56,0,0,0,.43-1.35c.13-.46.27-.92.37-1.41.48-1.89.86-3.83,1.28-5.77.81-3.87,1.62-7.77,2.58-11.63s2.08-7.68,3.44-11.42a49.56,49.56,0,0,1,5.2-10.71l-1.39,2.63-1.19,2.71c-.37.92-.71,1.85-1.06,2.77s-.63,1.87-.94,2.8A116.29,116.29,0,0,0,285,403.53c-.76,3.63-1.41,7.29-2.05,11a316.46,316.46,0,0,0,33.09,5.44c21.95,2.37,44.63,2.42,66.18-2.89,2.66-.65,5.3-1.4,7.91-2.23-.15-.76-.28-1.52-.39-2.27-.52-3.56-.72-7.09-1.19-10.57-.23-1.73-.53-3.49-.8-5.23s-.57-3.5-1-5.2a37.21,37.21,0,0,0-1.73-5c-.63-1.65-1.22-3.32-1.8-5,.69,1.63,1.4,3.26,2.14,4.86a36.4,36.4,0,0,1,2,4.95c.49,1.73.85,3.46,1.23,5.2s.76,3.45,1.09,5.21c.62,3.52.95,7.06,1.58,10.49a38.26,38.26,0,0,0,1.25,5,26.75,26.75,0,0,0,2.09,4.67,22.28,22.28,0,0,0,6.69,7.5,15,15,0,0,0,4.47,2.06,41.38,41.38,0,0,0,5.08,1,48.33,48.33,0,0,0,8.42.38l.31.31h0a2.62,2.62,0,0,0-.07-1.56,3.4,3.4,0,0,0-.69-1.13,14.77,14.77,0,0,0-2.25-1.87l-2.56-1.88c-.87-.64-1.77-1.28-2.7-2.08a7.93,7.93,0,0,1,3.56.36,10.63,10.63,0,0,1,3.17,1.64,7.18,7.18,0,0,1,2.45,2.89,3.42,3.42,0,0,1,.21,2.07,2.53,2.53,0,0,1-.63,1.2l1.11-.06a22.59,22.59,0,0,0,5-.89,16.67,16.67,0,0,0,4.35-2l.25.2a11.16,11.16,0,0,0-1.73-3.08,8.31,8.31,0,0,0-2.31-2.06,14.68,14.68,0,0,0-1.48-.7c-.48-.25-1.11-.49-1.65-.78a15.16,15.16,0,0,1-3.21-2.08,16,16,0,0,1,3.82.26,13.28,13.28,0,0,1,1.85.43,8.52,8.52,0,0,1,1.92.76,6.55,6.55,0,0,1,2.74,3.24,5.48,5.48,0,0,1,.23,3.5,7.91,7.91,0,0,0,1.41-1.28,4.54,4.54,0,0,0,.87-1.83,2.87,2.87,0,0,0-1.55-3.26,28.13,28.13,0,0,0-4.64-2,24,24,0,0,1-2.56-1.17,8.3,8.3,0,0,1-2.4-1.93,6.75,6.75,0,0,1-.48-.71,4.47,4.47,0,0,1-.35-.83,9.48,9.48,0,0,1-.29-1.49c-.11-.95-.16-1.86-.18-2.76-.05-1.81,0-3.6,0-5.38.12-3.56.38-7.11.7-10.65.62-7.07,1.53-14.12,2.78-21.12.65-3.49,1.36-7,2.31-10.4a47.66,47.66,0,0,1,1.63-5.08,21.23,21.23,0,0,1,1.12-2.42,7.43,7.43,0,0,1,1.62-2.11,7.18,7.18,0,0,0-1.46,2.19,22.22,22.22,0,0,0-.94,2.46c-.53,1.68-1,3.39-1.35,5.11-.75,3.45-1.29,6.94-1.76,10.44-.95,7-1.6,14-2.06,21.08-.21,3.52-.37,7-.45,10.56,0,1.75,0,3.51,0,5.24,0,.23,0,.46,0,.69,5.9.87,12.12.57,18,.37a139.7,139.7,0,0,0,19-1.57c2.82-.49,3.2-.31,1.75-3-1.38-2.56-4.41-3.86-7-4.74-2.38-.8-4.85-1.22-7.28-1.83-1-.25-2.68-.48-3.21-1.5C443.69,399.32,444.71,398.59,445.67,397.9Z"/><path fill="none"  d="M164.26,327a17,17,0,0,0,5.41,9.44l7.42,6.85-8.84-4.88c-.31-.17-30.25-17-37-46.49-2.89,4.56-8.56,16.4-5.76,36l.24,1.68-1.67-.3c-.21,0-4-.8-6.8-6.54.43,7.76,2.52,20.07,10.7,29.95,7.83,9.47,19.61,14.86,35,16l5.13.39-4.76,2a81.61,81.61,0,0,1-8.27,2.87,76,76,0,0,0,37.54-2.25c-4.12-10.7-5.77-22.39-6.21-33.77A33.19,33.19,0,0,1,164.26,327Z"/><path d="M419.64,69.17h0l-.18,0Z"/><path d="M452.75,396.6A76,76,0,0,0,464,387.8c13.41-12.75,20.76-30.18,23-48.34,2.74-21.86-1.67-43.93-7.23-65A434.42,434.42,0,0,0,459.38,216a42.23,42.23,0,0,0,7.6-5.84,25.59,25.59,0,0,0,3.21-3.81,17.62,17.62,0,0,0,2.32-4.53,14,14,0,0,0-.45-10.2,19.81,19.81,0,0,0-1.18-2.29,20.87,20.87,0,0,0-1.53-2.07,19.54,19.54,0,0,0-3.72-3.44,30.81,30.81,0,0,0-8.92-4.28,49.18,49.18,0,0,0-9.56-1.89c-1.85-.18-3.7-.28-5.55-.29q-2.79-5.67-5.62-11.3c-3.36-6.66-6.74-13.27-10.57-19.62-.37-7.42-1.14-21.45-2.36-37.4a32.2,32.2,0,0,0,8,1c.87,0,1.77,0,2.7-.1a31,31,0,0,0,21.85-11.55c.22-.28.44-.57.64-.86a25.45,25.45,0,0,0,4.5-12.11A32.7,32.7,0,0,0,452,59.55c-6.87-7.06-17.36-9.21-27.41-5.56-6.59,2.38-6.85,3.12-6.74,4.14,0,.12,1.44,10.37,1.48,10.73l.09.19.21.12c5.19-1.32,9.44-4.79,15.13-3.74a14.17,14.17,0,0,1,9.24,6.4c3.11,5,3.62,11,1.33,15.65-2.87,5.89-10.12,9.33-16.85,8a18.22,18.22,0,0,1-6.79-2.81c-2.74-29.93-7-61-13.07-66.14a3.6,3.6,0,0,0-2.82-.94c-12.54,1.57-43.47,53.14-50.05,64.33a82,82,0,0,0-33.65-2.85,74.92,74.92,0,0,0-11.81,2.54c-2.05-3.3-10.87-17.36-20.9-30.64-15.86-21-26.66-29.78-33-26.75-2.26,1.09-9.13,4.39-14.22,69.26-1.71,21.83-2.64,43.46-3.05,55-4.22,7.11-8.17,14.36-11.9,21.61q-2.07,4-4,8c-3.62.88-7.21,1.91-10.75,3.15a70.11,70.11,0,0,0-9.14,3.87,34.28,34.28,0,0,0-4.32,2.62,17.66,17.66,0,0,0-3.85,3.56,8.57,8.57,0,0,0-1.32,2.51c-.07.23-.15.47-.21.71l-.1.69a10.7,10.7,0,0,0-.08,1.37,17.47,17.47,0,0,0,.85,5.15,44.79,44.79,0,0,0,4.18,9.1A85,85,0,0,0,204,227c.5.66,1,1.31,1.52,2q-3.08,9-5.7,18.09-5.13,17.8-8.49,36c-3.14,17.24-5.44,34.81-5,52.38a30.47,30.47,0,0,1-22.44-13l-1.77-2.58-.44,3.1a17,17,0,0,0,1.9,9.39c-9.27-6.67-26.65-21.81-30.49-43.69l-.43-2.45L131,288.12c-.47.51-11.12,12.51-8.22,37.84-1.7-1.3-4.21-4.31-5.45-11.13l-1.48-8.15-.94,8.23c-.1.92-2.43,22.9,11.16,39.34,7.35,8.91,17.95,14.4,31.55,16.37-2.82,1-6.22,1.94-8.32,1.94H142l6.82,2.37a67.07,67.07,0,0,0,20.54,2.93A77.05,77.05,0,0,0,193.52,374a65.78,65.78,0,0,0,4.87,9.34,52.9,52.9,0,0,0,21.1,19.21c.92.46,1.85.89,2.79,1.3a9.19,9.19,0,0,0,1.25.53l.49.2c-.49.16-1,.36-1.45.52-1.7.59-3.42,1.12-5.11,1.72-3.31,1.19-9.12,3.12-6.74,7.75,2.05,4,8.63,4.75,12.48,5.28a124,124,0,0,0,19.36.86c1.38,0,3.38.11,5.38,0,0,.08-.06.17-.08.24a3,3,0,0,1-.24.47,3.79,3.79,0,0,1-.72.85,9.48,9.48,0,0,1-2.25,1.36,42.87,42.87,0,0,0-5.54,2.6,5.5,5.5,0,0,0-2.34,2.88,5.42,5.42,0,0,0-.2,1.94,7.07,7.07,0,0,0,.44,1.8,7.44,7.44,0,0,0,2.1,2.8,13.08,13.08,0,0,0,2.71,1.81,22.51,22.51,0,0,0,6,2,28.13,28.13,0,0,0,3.08.38c1,.08,2,.13,3,.15a47.51,47.51,0,0,0,6.08-.28,45.38,45.38,0,0,0,6-1.05,18.51,18.51,0,0,0,3-1,16.24,16.24,0,0,0,2.79-1.49,23.63,23.63,0,0,0,8-9.35c.22-.47.45-.92.65-1.4l.3-.7.25-.75a13.1,13.1,0,0,0,.44-1.49c.12-.5.26-1,.35-1.48.31-1.39.57-2.78.82-4.17l.39.09c22.74,4.9,46.19,7.78,69.49,6.66a158.3,158.3,0,0,0,31.67-4.54q3.35-.86,6.64-1.91l.18.65a28,28,0,0,0,2.11,5.06,23.44,23.44,0,0,0,7.15,8.35,17.15,17.15,0,0,0,5.1,2.44,46.75,46.75,0,0,0,5.33,1.12,49.33,49.33,0,0,0,10.86.35c.91-.07,1.8-.16,2.74-.32a22.39,22.39,0,0,0,2.72-.63,18.81,18.81,0,0,0,5.16-2.33,10.9,10.9,0,0,0,2.24-2,6.92,6.92,0,0,0,1.35-2.93,5.27,5.27,0,0,0-.39-3.33,6.07,6.07,0,0,0-2.25-2.37,30,30,0,0,0-5.07-2.22,10.06,10.06,0,0,1-4-2.36c-.1-.12-.21-.28-.28-.38a2.4,2.4,0,0,1-.17-.39c0-.14-.08-.3-.12-.47l.91.09a142.87,142.87,0,0,0,21.2.05c5.56-.29,11.61-.36,17-1.79,4.09-1.08,2.59-5.48.27-8-3.66-4-9.54-4.72-14.51-6-.16,0-.32-.1-.48-.15.34-.21.64-.43.79-.52C450,398.32,451.38,397.48,452.75,396.6,428,97.9c7.92,1.55,16.13-2.38,19.52-9.35,2.66-5.45,2.1-12.36-1.46-18-4.31-6.84-11.88-9.5-19.29-6.77a55.67,55.67,0,0,0-6.77,3l-.1.06c-.54-5-.88-6.87-1-7.69l.23-.13a59.25,59.25,0,0,1,6.31-2.7c9.08-3.29,18.57-1.38,24.77,5a30.21,30.21,0,0,1,8.09,23.83,23,23,0,0,1-4,11c-.19.27-.39.53-.59.79a28.52,28.52,0,0,1-20.1,10.61c-.85.06-1.67.09-2.48.09-15.08,0-23.8-10.41-24.5-16.68s.72-6.61,3.57-7.08a11.78,11.78,0,0,1,2.32,2.75C415.11,90.15,419.46,96.22,428,97.9,406.1,28a1.2,1.2,0,0,1,.94.38c2.53,2.15,7.42,13.12,12,62.14a37,37,0,0,1-4.53-5.45c-1.68-2.35-2.9-4-4.67-3.75-3.87.64-6.53,1.72-5.64,9.77.49,4.35,3.74,9.3,8.49,12.9a28.55,28.55,0,0,0,7.85,4.21c1,13.53,1.77,25.82,2.2,33.9-1-1.57-2.07-3.12-3.17-4.64-11.53-15.93-26.35-29.8-43.68-39.23a101.45,101.45,0,0,0-17.72-7.59C369.24,71.87,396.26,29.26,406.1,28,244.63,101.68c4.33-55.22,9.9-65.83,12.84-67.24a3.79,3.79,0,0,1,1.63-.34c3.78,0,11.79,4.42,28.33,26.34,9.52,12.62,18,26,20.47,30-15.47,5.21-29,15.13-40.3,27.12a215.64,215.64,0,0,0-25.85,34.59C242.22,140,243.13,120.93,244.63,101.68,155.05,374a81.61,81.61,0,0,0,8.27-2.87l4.76-2-5.13-.39c-15.41-1.18-27.19-6.57-35-16-8.18-9.88-10.27-22.19-10.7-29.95,2.83,5.74,6.59,6.5,6.8,6.54l1.67.3-.24-1.68c-2.8-19.6,2.87-31.44,5.76-36,6.78,29.5,36.72,46.32,37,46.49l8.84,4.88-7.42-6.85a17,17,0,0,1-5.41-9.44A33.19,33.19,0,0,0,186.38,338c.44,11.38,2.09,23.07,6.21,33.77A76,76,0,0,1,155.05,374,289.33,26.67c.53,1,2.24,1.25,3.21,1.5,2.43.61,4.9,1,7.28,1.83,2.62.88,5.65,2.18,7,4.74,1.45,2.72,1.07,2.54-1.75,3a139.7,139.7,0,0,1-19,1.57c-5.9.2-12.12.5-18-.37,0-.23,0-.46,0-.69-.07-1.73-.07-3.49,0-5.24.08-3.52.24-7,.45-10.56.46-7,1.11-14.08,2.06-21.08.47-3.5,1-7,1.76-10.44.37-1.72.82-3.43,1.35-5.11a22.22,22.22,0,0,1,.94-2.46,7.18,7.18,0,0,1,1.46-2.19,7.43,7.43,0,0,0-1.62,2.11,21.23,21.23,0,0,0-1.12,2.42,47.66,47.66,0,0,0-1.63,5.08c-.95,3.43-1.66,6.91-2.31,10.4-1.25,7-2.16,14.05-2.78,21.12-.32,3.54-.58,7.09-.7,10.65-.06,1.78-.09,3.57,0,5.38,0,.9.07,1.81.18,2.76a9.48,9.48,0,0,0,.29,1.49,4.47,4.47,0,0,0,.35.83,6.75,6.75,0,0,0,.48.71,8.3,8.3,0,0,0,2.4,1.93,24,24,0,0,0,2.56,1.17,28.13,28.13,0,0,1,4.64,2,2.87,2.87,0,0,1,1.55,3.26,4.54,4.54,0,0,1-.87,1.83,7.91,7.91,0,0,1-1.41,1.28,5.48,5.48,0,0,0-.23-3.5,6.55,6.55,0,0,0-2.74-3.24,8.52,8.52,0,0,0-1.92-.76,13.28,13.28,0,0,0-1.85-.43,16,16,0,0,0-3.82-.26,15.16,15.16,0,0,0,3.21,2.08c.54.29,1.17.53,1.65.78a14.68,14.68,0,0,1,1.48.7,8.31,8.31,0,0,1,2.31,2.06,11.16,11.16,0,0,1,1.73,3.08l-.25-.2a16.67,16.67,0,0,1-4.35,2,22.59,22.59,0,0,1-5,.89l-1.11.06a2.53,2.53,0,0,0,.63-1.2,3.42,3.42,0,0,0-.21-2.07,7.18,7.18,0,0,0-2.45-2.89,10.63,10.63,0,0,0-3.17-1.64,7.93,7.93,0,0,0-3.56-.36c.93.8,1.83,1.44,2.7,2.08l2.56,1.88a14.77,14.77,0,0,1,2.25,1.87,3.4,3.4,0,0,1,.69,1.13,2.62,2.62,0,0,1,.07,1.56h0l-.31-.31a48.33,48.33,0,0,1-8.42-.38,41.38,41.38,0,0,1-5.08-1,15,15,0,0,1-4.47-2.06,22.28,22.28,0,0,1-6.69-7.5,26.75,26.75,0,0,1-2.09-4.67,38.26,38.26,0,0,1-1.25-5c-.63-3.43-1-7-1.58-10.49-.33-1.76-.72-3.47-1.09-5.21s-.74-3.47-1.23-5.2a36.4,36.4,0,0,0-2-4.95c-.74-1.6-1.45-3.23-2.14-4.86.58,1.68,1.17,3.35,1.8,5a37.21,37.21,0,0,1,1.73,5c.39,1.7.67,3.45,1,5.2s.57,3.5.8,5.23c.47,3.48.67,7,1.19,10.57.11.75.24,1.51.39,2.27-2.61.83-5.25,1.58-7.91,2.23-21.55,5.31-44.23,5.26-66.18,2.89A316.46,316.46,0,0,1,283,414.5c.64-3.68,1.29-7.34,2.05-11A116.29,116.29,0,0,1,287.9,392c.31-.93.59-1.88.94-2.8s.69-1.85,1.06-2.77l1.19-2.71,1.39-2.63a49.56,49.56,0,0,0-5.2,10.71c-1.36,3.74-2.46,7.57-3.44,11.42s-1.77,7.76-2.58,11.63c-.42,1.94-.8,3.88-1.28,5.77-.1.49-.24.95-.37,1.41a12.56,12.56,0,0,1-.43,1.35l-.23.65-.3.66c-.19.44-.42.86-.64,1.29a22.32,22.32,0,0,1-7.42,8.42,14.34,14.34,0,0,1-2.46,1.27,17.06,17.06,0,0,1-2.68.81,44,44,0,0,1-5.72.92,48.82,48.82,0,0,1-5.8.21c-.31,0-.63,0-1,0l-.3.32a2.54,2.54,0,0,1,.07-1.56,3.22,3.22,0,0,1,.68-1.13,15.28,15.28,0,0,1,2.25-1.87l2.56-1.88c.87-.64,1.77-1.28,2.71-2.08a8.11,8.11,0,0,0-3.57.35,11,11,0,0,0-3.17,1.65,7.22,7.22,0,0,0-2.45,2.88,3.62,3.62,0,0,0-.21,2.08,2.5,2.5,0,0,0,.64,1.2c-.38,0-.77,0-1.15-.06a25,25,0,0,1-2.82-.36,20.36,20.36,0,0,1-5.29-1.78c-.41-.22-.81-.45-1.19-.7l-.23.19a11.36,11.36,0,0,1,1.72-3.09,8.67,8.67,0,0,1,2.32-2.06A15.73,15.73,0,0,1,247,429c.49-.25,1.11-.49,1.65-.78a16,16,0,0,0,3.21-2.08,16,16,0,0,0-3.82.26,13.62,13.62,0,0,0-1.85.43,8.9,8.9,0,0,0-1.92.76,6.65,6.65,0,0,0-2.74,3.24,5.48,5.48,0,0,0-.22,3.52,5.87,5.87,0,0,1-2.06-2.39,4.88,4.88,0,0,1-.27-1.08,3,3,0,0,1,.09-1,3.13,3.13,0,0,1,1.37-1.6,45.72,45.72,0,0,1,5.21-2.44,11.54,11.54,0,0,0,2.8-1.74,6,6,0,0,0,1.18-1.41,5.37,5.37,0,0,0,.42-.87c.1-.28.18-.53.26-.8a23.1,23.1,0,0,0,.58-6.21c-.15-7.93.13-15.83-.1-23.8a158.1,158.1,0,0,0-2.1-23.78,64.11,64.11,0,0,0-3.12-11.54,32.27,32.27,0,0,0-2.67-5.36,16.94,16.94,0,0,0-4-4.43,16.83,16.83,0,0,1,3.65,4.62,32.82,32.82,0,0,1,2.38,5.39,64.46,64.46,0,0,1,2.55,11.51A174,174,0,0,1,248.91,391c0,3.95-.08,7.9-.16,11.86s-.13,8-.15,11.9c0,1.14,0,2.27-.16,3.35-1.08,0-2.17,0-3.17.06a152.52,152.52,0,0,1-17.5-.3c-3.09-.26-14-.56-15-4.78-.91-3.7,11.25-5.38,13.72-6.89,1.07-.66,1.91-1.44,1.08-2.7-.51-.77-2.13-1-2.88-1.31a53.54,53.54,0,0,1-7-3.46C188,381.35,186.8,341.31,189.75,311c.89-9.12,2.27-18.19,3.92-27.2a381.67,381.67,0,0,1,13.69-52.52c.95,1.13,1.93,2.24,2.95,3.31a164.25,164.25,0,0,1-10.16-16.65,48.26,48.26,0,0,1-3.64-8.82,16.15,16.15,0,0,1-.68-4.49,5.9,5.9,0,0,1,1.28-3.84,15.7,15.7,0,0,1,3.29-3.09,38.77,38.77,0,0,1,4-2.52,88.21,88.21,0,0,1,8.73-4.12c6-2.48,12.16-4.6,18.38-6.64-1.74.28-3.48.62-5.2,1a369.59,369.59,0,0,1,20.83-36.89c12.31-19.09,26.91-37.84,46.94-49.3a77.59,77.59,0,0,1,57.83-7.82c18.78,4.74,35.69,15.51,49.51,28.88C417,135.33,427,153.39,436.55,172.6l2.36,4.77c-.48,0-1,0-1.42.08a82.85,82.85,0,0,1,9.48,1.33,58.51,58.51,0,0,1,9.12,2.51q2.21.84,4.27,1.88a26.31,26.31,0,0,1,3.89,2.45,19.3,19.3,0,0,1,3.26,3.12,13.67,13.67,0,0,1,2.3,3.79,11.81,11.81,0,0,1,.5,8.53,21.24,21.24,0,0,1-4.71,7.73,49,49,0,0,1-7,6.26,79.84,79.84,0,0,1-8,5.23,49.52,49.52,0,0,0,6.7-3.1c3.37,8,6.58,16,9.55,24.19,8.32,22.87,15.58,47,18,71.3,1.84,18.56,0,38.07-8.64,54.84a70.25,70.25,0,0,1-17.73,22c-4,3.3-8.6,5.44-12.75,8.43C444.71,398.59,443.69,399.32,444.38,400.64Z"/>            </clipPath>        </defs>        <g clip-path="url(#outline)">            <rect fill="#BA756C" width="640" height="480" />        </g>    </g>    <g id="pattern">        <g clip-path="url(#outline)">            <path fill="#B6EAFF"  d="M213.89,348.69c-.53,1.67-.95,3.36-1.63,5s-1.29,3.68-.61,5.6A10.12,10.12,0,0,0,214.5,363a35,35,0,0,0,3.59,2.9,3.46,3.46,0,0,0,2.28.82,2.62,2.62,0,0,0,1.24-.6,20.67,20.67,0,0,0,6-7.67,10,10,0,0,0,1.29-6.31c-.63-3.15-3.6-4.52-6.87-5.52a14.84,14.84,0,0,0-3.71-.76c-2-.09-4.42.84-4.37,2.76"/><path fill="#B6EAFF"  d="M190,328.09a38.75,38.75,0,0,1,9.5,3.45,7.68,7.68,0,0,1,2.95,2.29,8.54,8.54,0,0,1,1.08,4.33c.31,4.75.59,9.73-1.42,14S196,359.75,191.55,358c-1.59-.63-2.08-1.69-2.12-3.35-.2-8.28-1.39-16.55-1.58-24.83A2.07,2.07,0,0,1,190,328.09Z"/><path fill="#B6EAFF"  d="M189.82,298.42a19.21,19.21,0,0,0,1.88,1.21,5.34,5.34,0,0,0,2.38.53,3.92,3.92,0,0,0,3.33-3.36,7.64,7.64,0,0,0-1.11-4.9,1.64,1.64,0,0,0-1-.92,2.38,2.38,0,0,0-1.43.47,5.17,5.17,0,0,1-2.38.37Z"/><path fill="#B6EAFF"  d="M193.84,319.82a4,4,0,0,0,2.39,2.33,7,7,0,0,0,4.11.17,16,16,0,0,0,7.69-4c1.6-1.5,5.43-3.41,5.19-6a6.18,6.18,0,0,0-.59-1.87,20.12,20.12,0,0,0-2.11-4c-3.39-4.54-12.4-2.81-15,1.88C194.1,310.87,192.76,317,193.84,319.82Z"/><path fill="#B6EAFF"  d="M210.51,327.79c2.29,2.29,4.56,5.58,7.78,1.92,2.19-2.57,1.14-6.9-1.59-8.89a4.76,4.76,0,0,0-2.36-1c-1.89-.16-7.28,3.59-6.24,5.88a2.48,2.48,0,0,0,1,.88A10.33,10.33,0,0,1,210.51,327.79Z"/><path fill="#B6EAFF"  d="M239.31,340.06c1.52.27,2.92-.47,3-3a4,4,0,0,0-2.7-3.83,3.48,3.48,0,0,0-4.07,1.5C234.41,336.93,237,339.65,239.31,340.06Z"/><path fill="#B6EAFF"  d="M487.06,304.49a7.82,7.82,0,0,0-3.56-1.5l-1.31.3c-3.43,1.39-7.61,3.15-10.49,5.52s-2.64,4.2-1.39,7.77c1.85,5.28,10.41,8.66,14.81,11.53a2.53,2.53,0,0,0,1.3.51,2.26,2.26,0,0,0,1-.3l1.78-.89Z"/><path fill="#B6EAFF"  d="M476.15,354.32a4.53,4.53,0,0,0-.46-.56,7.18,7.18,0,0,1,4-12.06c1.63-.26,5.15-.16,5.93,1.65a2.31,2.31,0,0,1,.15,1.08,32.8,32.8,0,0,1-1.46,6.75c-.65,2.4-1.41,4.78-2.27,7.11a3.4,3.4,0,0,1-.85,1.46c-1,.84-2.63.25-3.33-.84C476.76,357.24,477.22,355.83,476.15,354.32Z"/><path fill="#B6EAFF"  d="M466.27,361.93c-7.26-2.1-15.92-2.66-20.13,4.41A19.91,19.91,0,0,0,444,377.1a7.54,7.54,0,0,0,2.07,4.85c1.95,1.86,4.93,2.09,7.26,3.44,1.64,1,3.1,2.75,5,3.07,2.35.39,4.31-1.34,5.88-2.84,3-2.81,5.95-5.66,8.05-9.16,1.47-2.46,2.87-5.61,2.83-8.53a3.94,3.94,0,0,0-1.06-2.81,6.15,6.15,0,0,0-1.91-1.1A57.68,57.68,0,0,0,466.27,361.93Z"/><path fill="#B6EAFF"  d="M198.8,368l.07,0a9.1,9.1,0,0,1,5.28-.22c4.22.93,7.26,3.47,10.53,5.69,4,2.71,7.95,5.44,11.92,8.15,1.38.95,2.88,2.13,2.69,3.86a6.1,6.1,0,0,1-.88,2.17c-2.06,3.51-3.83,6.7-7,9.51-1.15,1-2.6,2-4,1.91a4,4,0,0,1-2.25-1.26C207.83,391,201,387.48,197,374.56,196.19,372.11,195.79,369.23,198.8,368Z"/><path fill="#B6EAFF"  d="M445.88,322.47a2.26,2.26,0,0,0,.11,3,4,4,0,0,0,4,.3,2.41,2.41,0,0,0,.85-1c.4-.92-.36-3.08-1.12-3.74C448.5,320,446.61,321.47,445.88,322.47Z"/><path fill="#B6EAFF"  d="M440.23,349.41a6.56,6.56,0,0,1-.8,1.81,8.44,8.44,0,0,0-1.54,2.84c-.25,1.16-.29,2.86.65,3.76s3.57.5,4.56-.39a3.85,3.85,0,0,0,1-2.44c.3-2.16,2.1-4.58.07-6.41a6.17,6.17,0,0,0-2.48-1.24c-.33-.1-.73-.17-1,.08a1,1,0,0,0-.19.46C440.46,348.42,440.36,348.93,440.23,349.41Z"/><path fill="#B6EAFF"  d="M452,344.2c0,.3.08.56.09.72.07.95.08,1.89.1,2.84,0,1.37-.35,2.41,1.11,3.13,2.21,1.09,5,3.12,7.5,3.26a3.65,3.65,0,0,0,2.72-6.3,7.12,7.12,0,0,0-1.76-1.12l-8.62-4.42a1.06,1.06,0,0,0-.45-.16C451.76,342.09,451.85,343.31,452,344.2Z"/><path fill="#B6EAFF"  d="M463,326.14a19.2,19.2,0,0,0-2.81,4.5c-.64,1.36-1.2,3-.46,4.3,1.1,1.93,6.34,3.33,8.42,3.5a1.65,1.65,0,0,0,1.75-1,3.23,3.23,0,0,0,0-1.2,13.52,13.52,0,0,1,.58-4.06c.47-2.23-.76-5.89-2.68-7.18S464.35,324.66,463,326.14Z"/><path fill="#B6EAFF"  d="M158.11,362.28a4.55,4.55,0,0,0,.23,6c1.51,1.59,6.21,1.84,8,.61a4.91,4.91,0,0,0,1.7-2.05c.82-1.86-.72-6.23-2.26-7.55C163.4,357.25,159.59,360.27,158.11,362.28Z"/><path fill="#B6EAFF"  d="M128.85,357.35a8.64,8.64,0,0,1-.92,2.34c-2.1,3.92-5.09,6.81-3.87,11.62,1.07,4.25,4.72,5.79,8.37,3.2a11.33,11.33,0,0,0,3.82-5.54c.76-2.15,1.15-4.41,1.74-6.61a7.51,7.51,0,0,0-2.38-7.91c-1.12-.85-3.14-1.69-4.58-1.3C129,353.72,129.32,355.48,128.85,357.35Z"/><path fill="#B6EAFF"  d="M170.83,400.19c.61-.28,1.14-.54,1.47-.67,3.13-1.19,6.32-2.14,9.49-3.2a2.61,2.61,0,0,0,2.24-2.65L186,381.59a16.1,16.1,0,0,0,.16-6.48,8.08,8.08,0,0,0-15.08-1.65,15.81,15.81,0,0,0-1.23,4.45L166.08,399a2.71,2.71,0,0,0,0,1.06C166.5,402,169,401,170.83,400.19Z"/><path fill="#B6EAFF"  d="M146.88,354.16a5.64,5.64,0,0,0,4.63,3.24,13.82,13.82,0,0,0,7.15-1.36c3.7-1.64,9.71-5.82,11.5-9.65s-3.77-10.75-7.27-11.75c-4.15-1.18-11.88,1.56-14,5.5a21.29,21.29,0,0,0-1.52,5.6,28.75,28.75,0,0,0-1.06,5.7A6.3,6.3,0,0,0,146.88,354.16Z"/><path fill="#B6EAFF"  d="M119.2,320.49a39.86,39.86,0,0,0-3.75,11.8,7.76,7.76,0,0,0,1.13,5.37c1.91,2.53,5.94,1.63,8.22.07,2-1.37,3-3.79,3.58-6.14.71-2.83,2.64-6.75,1.84-9.69-.72-2.64-4.07-4.29-6.49-4.95C122.05,316.49,120.5,318.12,119.2,320.49Z"/><path fill="#B6EAFF"  d="M138.46,269.92a7.49,7.49,0,0,0-1.7,1c-3.89,3-7.69,6.27-10.15,10.51-6.76,11.7,4.5,42.15,21.12,37.76a9.27,9.27,0,0,0,3.67-2.42C163.74,305.37,150.79,264.92,138.46,269.92Z"/><path fill="#B6EAFF"  d="M473.22,290.25a1.89,1.89,0,0,0,.14,3c1,.78,4,.91,5.12.3a2.71,2.71,0,0,0,1.08-1c.52-.93-.46-3.09-1.44-3.74C476.59,287.76,474.16,289.25,473.22,290.25Z"/><path fill="#B6EAFF"  d="M406.06,400.73a19.4,19.4,0,0,0-2.81,4.5c-.64,1.36-1.2,3-.46,4.3,1.1,1.93,6.34,3.33,8.42,3.5a1.65,1.65,0,0,0,1.75-1,3.23,3.23,0,0,0,0-1.2,13.52,13.52,0,0,1,.58-4.06c.47-2.23-.76-5.88-2.68-7.18S407.4,399.25,406.06,400.73Z"/><path fill="#B6EAFF"  d="M415,384.81a11,11,0,0,0,.43,3,2.75,2.75,0,0,0,1.39,2.05c1.19.44,4-.87,5-1.57a1,1,0,0,0,.39-1.09,1.71,1.71,0,0,0-.45-.52,7.66,7.66,0,0,1-1.24-2,4.67,4.67,0,0,0-3.83-2.16C415.4,382.67,415,383.67,415,384.81Z"/><path fill="#B6EAFF"  d="M256.87,415.08a19.47,19.47,0,0,0-2.82,4.5c-.64,1.36-1.19,3-.45,4.3,1.1,1.93,6.33,3.34,8.42,3.5a1.65,1.65,0,0,0,1.75-1,3.18,3.18,0,0,0,0-1.19,13.54,13.54,0,0,1,.58-4.07c.47-2.23-.76-5.88-2.69-7.18C259.86,412.72,258.21,413.6,256.87,415.08Z"/><path fill="#B6EAFF"  d="M254.25,408.44a2.25,2.25,0,0,0,.11,3,4,4,0,0,0,4,.3,2.32,2.32,0,0,0,.84-1c.41-.92-.35-3.08-1.12-3.74C256.87,405.94,255,407.44,254.25,408.44Z"/><path fill="#B6EAFF"  d="M197.11,15.3c-5.36.41-10.48,1.87-14.63,5.22-3.85,3.12-6.35,7.09-8.8,11-4.75,7.6-13,15-6.45,23.5,5.67,7.38,11.05,15.27,18,21.54,5.77,5.2,12.85,9.26,20.57,10.12,12.71,1.42,33.8-8.21,38-21.32,3.36-10.49-7.1-30-13.82-37.87C221.59,17.62,209.74,14.33,197.11,15.3Z"/><path fill="#B6EAFF"  d="M406.49,53.79c3.07,9.76,11.58,15.24,21.63,13,6.44-1.44,16.43-9.47,7.31-15.23-2.17-1.37-4.81-1.74-7.37-2q-7.83-.93-15.71-1.49c-1.75-.12-3.71-.16-5,1S405.92,52,406.49,53.79Z"/><path fill="#B6EAFF"  d="M114.29,103c1.09.38,2.06.69,2.63.94,3.33,1.43,6.58,3,9.83,4.63,4.75,2.34,7.65,5.4,12.65,1.69,7.6-5.65,19.39-11.54,24.28-19.92A14,14,0,0,0,146.93,70a27.91,27.91,0,0,0-6.93,4L109.82,95.74A4.65,4.65,0,0,0,108.48,97C106.69,100,111,101.83,114.29,103Z"/><path fill="#B6EAFF"  d="M539.47,5.73C522.1.69,497.93,2.61,494.42,21c-3.41,17.82,6.36,43.7,23.27,51.39,7.34,3.34,15.59,4.29,23.65,4,5-.2,10.48-1.08,14-4.73C573.5,52.55,564.71,13,539.47,5.73Z"/>            <g opacity="0.6" ><path fill="#FF8431"  d="M285,418.84c2.41-25.61,27.2-49.28,50.64-49.63s49.12,18.76,51.63,48.25c.13,1.49,1.2.46-.05,1.63-1.41,1.32-6.67,1.94-9.66,2.8-14.13,4.06-27.65,4.48-43.86,4.36-16.51-.12-33.22-4.21-48.23-7.41"/></g>        </g>    </g>    <g id="mask">        <path opacity="0.1"  d="M285.39,396.05s14.86,8.75,54,9.36,48.87-8.55,48.87-8.55l2.85,18.73s-25.25,8.56-52.33,6.52-50.91-3.66-57.22-6.92Z"/><path opacity="0.1"  d="M251.67,139.88s0-.25,0-.7c-7.19,9.48-17.71,25.45-28.06,47.06-1.68.07-25,7.4-28.15,15.55-2.4,6.11,11.61,25.46,11.32,26.45-3.24,9.91-6.2,20.47-8.74,31.66C183.39,324.52,188,349.23,194,370.68s32.51,32.46,32.51,32.46-13.78,3.65-14.74,7.37c-2.77,10.81,38.15,7.66,38.15,7.66l-.26-18.71s-34.21,7.87-47.52-47.79,20.64-115.94,44.53-177.3,66.79-83.9,66.79-83.9a90.33,90.33,0,0,0-20.34,8l-18.82,13.66Z"/><path opacity="0.2"  d="M403.86,118,406,95.72a15.11,15.11,0,0,1-1.76-5.36c-.48-4.36.1-5.72,1.32-7.1-.15-5.82-.75-29.12-1.46-35.83,0-.4-.08-.81-.13-1.22h0C398.3,45,371,96.3,371,96.3l23.35,14.06,19.82,22.19s-.07-1.35-.21-3.72C410.66,124.68,407,120.48,403.86,118Z"/><path opacity="0.2"  d="M293.1,98.46l4-4a112.13,112.13,0,0,0-14.1,8.8s-14.52-45.62-17.64-55.8c-.11-.34-.22-.67-.33-1a2,2,0,0,0-2,.57c-10.79,11.17-11.37,84.27-11.4,92.16,1-1.34,2-2.56,2.84-3.64C264.25,123.53,274.31,108.69,293.1,98.46Z"/><path fill="#ffce00"  d="M412.17,83.69c-.64-2.24-5.73-.42-6.54,0,0,0,.48.48.46-.42-1.22,1.38-2.3,2.24-1.82,6.6A17.55,17.55,0,0,0,406,95.72l.14-1.45s6,10,14.53,13l0,.38a32.54,32.54,0,0,0,10.69,1.76c.88,0,1.78,0,2.7-.1A29,29,0,0,0,458.16,93c3.58-7.65,3.68-18.29-2.46-28.17-14.46-23.25-36.49-7.11-36.74-7l-.32.53,1.08,10.26.15-.48c.09-.06,8.95-5.19,16.53-3.68a12.51,12.51,0,0,1,7.79,5.42c4.34,6.73,4.58,13.9,1.12,19C442,93.74,434.93,97.35,429,96.2c-4.23-.83-7.38-2.15-9.69-4.41,0,.35-1.47-1-1.47-1S412.77,85.79,412.17,83.69Zm26.58,16.82c12.63-4.34,19.82-13.17,19.82-26.74,0,0,7.33,17.65-11.13,29.46s-46.84-2.85-40.86-17.79c0,0,1.22.41,4.75,6.38S426.13,104.86,438.75,100.51Z"/><path opacity="0.1"  d="M297.29,94.27l-.16.16a77.56,77.56,0,0,1,11.29-4.91S289.18,61.07,284.8,55.58c-6.38-8-17.24-20-22.27-21.45s-6.1.67-7.46,3.66c0,0,6.72-.5,10,8.66C274.05,48.22,297.29,94.27,297.29,94.27Z"/><path opacity="0.2"  d="M283,103.23a112.13,112.13,0,0,1,14.1-8.8l.16-.16s-23.24-46-32.23-47.82c.11.31.22.64.33,1C268.51,57.61,283,103.23,283,103.23Z"/><path opacity="0.1"  d="M283,103.23a112.13,112.13,0,0,1,14.1-8.8l.16-.16s-23.24-46-32.23-47.82c.11.31.22.64.33,1C268.51,57.61,283,103.23,283,103.23Z"/><path opacity="0.1"  d="M410.36,82.29c1.81-.16,2.19.67,3.86,3a52.62,52.62,0,0,0,5,5.49c-.24-1.79-1.12-10.23-3-28.28-2.31-21.59-7.2-35-9.51-35.16S399.25,32,399.25,32c2.7-2.18,3.94,6.73,4.75,14.26C406.43,46.75,408.63,64.44,410.36,82.29Z"/><path opacity="0.2"  d="M405.59,83.76c1.1-1.23,2.7-1.66,4.54-2h.23c-1.73-17.85-3.93-35-6.36-35.58.05.41.09.82.13,1.22C404.84,54.14,405.44,77.94,405.59,83.76Z"/><path opacity="0.1"  d="M405.59,83.76c1.1-1.23,2.7-1.66,4.54-2h.23c-1.73-17.85-3.93-35-6.36-35.58.05.41.09.82.13,1.22C404.84,54.14,405.44,77.94,405.59,83.76Z"/><path fill="#ffce00"  d="M409.86,82.29c-.08,0,.35-.5.27-.49-1.84.3-2.94.23-4,1.46,0,.9-.46.42-.46.42.81-.41,6.92-.58,8.28,1.32a83.11,83.11,0,0,0,5.43,6.79s0-.16-.07-.51a37.75,37.75,0,0,1-4.2-5.12C413.4,83.83,411.67,82.13,409.86,82.29Z"/><path opacity="0.1"  d="M414,128.83c4.94,6.19,9,12.27,9,12.27l-2.28-33.42a28.57,28.57,0,0,1-8.44-4.61C413.1,114.08,413.68,123.77,414,128.83Z"/><path opacity="0.2"  d="M406,95.72,403.86,118c3.11,2.45,6.8,6.65,10.11,10.8-.29-5.06-.87-14.75-1.69-25.76A23.67,23.67,0,0,1,406,95.72Z"/><path opacity="0.1"  d="M406,95.72,403.86,118c3.11,2.45,6.8,6.65,10.11,10.8-.29-5.06-.87-14.75-1.69-25.76A23.67,23.67,0,0,1,406,95.72Z"/><path fill="#ffce00"  d="M406.17,94.27,406,95.72a23.67,23.67,0,0,0,6.25,7.35,28.57,28.57,0,0,0,8.44,4.61l0-.38C412.14,104.31,406.17,94.27,406.17,94.27Z"/><path opacity="0.1"  d="M406.17,94.27,406,95.72a23.67,23.67,0,0,0,6.25,7.35,28.57,28.57,0,0,0,8.44,4.61l0-.38C412.14,104.31,406.17,94.27,406.17,94.27Z"/><path fill="#ffce00"  d="M411.33,91.82c-3.53-6-4.75-6.38-4.75-6.38-6,14.94,22.4,29.6,40.86,17.79s11.13-29.46,11.13-29.46c0,13.57-7.19,22.4-19.82,26.74S414.86,97.8,411.33,91.82Z"/><path opacity="0.1"  d="M411.33,91.82c-3.53-6-4.75-6.38-4.75-6.38-6,14.94,22.4,29.6,40.86,17.79s11.13-29.46,11.13-29.46c0,13.57-7.19,22.4-19.82,26.74S414.86,97.8,411.33,91.82Z"/><g opacity="0.1" ><path d="M484.43,337.09c.24,1.7-3.5,6.76-4.43,8.49-1.82,3.4-3.68,6.78-5.67,10.08a108.4,108.4,0,0,1-13.23,18.12A62.8,62.8,0,0,1,450,383.24a61.18,61.18,0,0,1-6.25,3.67,33.52,33.52,0,0,1-5.53,2.51c-4,1.16-6.15-2.21-7.33-5.52a39.79,39.79,0,0,1-2.34-17.54c.54-4.89,1.56-7.23,2.75-12.36l-2.14,2.43c-3.07,11.13-4.58,22.56-6,34a4.58,4.58,0,0,0,.26,2.19,3.36,3.36,0,0,0-.88.73c-2.06,2.52-.69,11.1-.82,14.3a.73.73,0,0,0,.1.46c.15.18.45.14.69.07A107.5,107.5,0,0,0,447,398.76c9.48-5.29,16.41-12.76,22.8-21.4,3.19-4.31,7.4-8.23,9.2-13.28C482.09,355.37,485.7,346.24,484.43,337.09Z"/></g>        <path fill="#fff" opacity="0.1"  d="M345.46,90S374,94.45,399,118.28s39.1,58.1,39.1,58.1l.61-.07-.22,1.32s28.66,1.2,31.92,17.55c1.13,5.67-1.13,10.17-4.39,13.78-6.14,6.79-15.37,10.93-15.37,10.93l.14-.13a44.8,44.8,0,0,0,6.45-3.46s12.22,30.95,15.75,43.91c2.48,9.11,10.72,36.39,11.6,53.7s-.54,26.95-.54,26.95-26.4-84.31-35-107.93S412.86,138.44,345.46,90Z"/>    </g>    <g id="outline">        <path fill="none"  d="M412.51,86.52a11.78,11.78,0,0,0-2.32-2.75c-2.85.47-4.27.74-3.57,7.08s9.42,16.68,24.5,16.68c.81,0,1.63,0,2.48-.09a28.52,28.52,0,0,0,20.1-10.61c.2-.26.4-.52.59-.79a23,23,0,0,0,4-11,30.21,30.21,0,0,0-8.09-23.83c-6.2-6.37-15.69-8.28-24.77-5a59.25,59.25,0,0,0-6.31,2.7l-.23.13c.09.82.43,2.73,1,7.69l.1-.06a55.67,55.67,0,0,1,6.77-3c7.41-2.73,15-.07,19.29,6.77,3.56,5.66,4.12,12.57,1.46,18-3.39,7-11.6,10.9-19.52,9.35C419.46,96.22,415.11,90.15,412.51,86.52Z"/><path fill="none"  d="M419.56,137.49c1.1,1.52,2.15,3.07,3.17,4.64-.43-8.08-1.16-20.37-2.2-33.9a28.55,28.55,0,0,1-7.85-4.21c-4.75-3.6-8-8.55-8.49-12.9-.89-8.05,1.77-9.13,5.64-9.77,1.77-.29,3,1.4,4.67,3.75A37,37,0,0,0,419,90.55c-4.57-49-9.46-60-12-62.14a1.2,1.2,0,0,0-.94-.38c-9.84,1.23-36.86,43.84-47.94,62.64a101.45,101.45,0,0,1,17.72,7.59C393.21,107.69,408,121.56,419.56,137.49Z"/><path fill="none"  d="M307.9,90.41c-2.51-4-10.95-17.35-20.47-30C270.89,38.52,262.88,34.1,259.1,34.1a3.79,3.79,0,0,0-1.63.34c-2.94,1.41-8.51,12-12.84,67.24-1.5,19.25-2.41,38.34-2.88,50.44a215.64,215.64,0,0,1,25.85-34.59C278.85,105.54,292.43,95.62,307.9,90.41Z"/><path fill="none"  d="M445.67,397.9c4.15-3,8.74-5.13,12.75-8.43a70.25,70.25,0,0,0,17.73-22c8.67-16.77,10.48-36.28,8.64-54.84-2.41-24.3-9.67-48.43-18-71.3-3-8.15-6.18-16.2-9.55-24.19a49.52,49.52,0,0,1-6.7,3.1,79.84,79.84,0,0,0,8-5.23,49,49,0,0,0,7-6.26,21.24,21.24,0,0,0,4.71-7.73,11.81,11.81,0,0,0-.5-8.53,13.67,13.67,0,0,0-2.3-3.79,19.3,19.3,0,0,0-3.26-3.12,26.31,26.31,0,0,0-3.89-2.45q-2.07-1-4.27-1.88a58.51,58.51,0,0,0-9.12-2.51,82.85,82.85,0,0,0-9.48-1.33c.47,0,.94,0,1.42-.08l-2.36-4.77C427,153.39,417,135.33,401.43,120.25c-13.82-13.37-30.73-24.14-49.51-28.88a77.59,77.59,0,0,0-57.83,7.82c-20,11.46-34.63,30.21-46.94,49.3a369.59,369.59,0,0,0-20.83,36.89c1.72-.37,3.46-.71,5.2-1-6.22,2-12.39,4.16-18.38,6.64a88.21,88.21,0,0,0-8.73,4.12,38.77,38.77,0,0,0-4,2.52,15.7,15.7,0,0,0-3.29,3.09,5.9,5.9,0,0,0-1.28,3.84,16.15,16.15,0,0,0,.68,4.49,48.26,48.26,0,0,0,3.64,8.82,164.25,164.25,0,0,0,10.16,16.65c-1-1.07-2-2.18-2.95-3.31a381.67,381.67,0,0,0-13.69,52.52c-1.65,9-3,18.08-3.92,27.2-2.95,30.34-1.79,70.38,27.91,87.8a53.54,53.54,0,0,0,7,3.46c.75.31,2.37.54,2.88,1.31.83,1.26,0,2-1.08,2.7-2.47,1.51-14.63,3.19-13.72,6.89,1,4.22,11.94,4.52,15,4.78a152.52,152.52,0,0,0,17.5.3c1,0,2.09,0,3.17-.06.11-1.08.14-2.21.16-3.35,0-3.94.05-7.95.15-11.9s.16-7.91.16-11.86a174,174,0,0,0-1.37-23.62A64.46,64.46,0,0,0,245,355.91a32.82,32.82,0,0,0-2.38-5.39A16.83,16.83,0,0,0,239,345.9a16.94,16.94,0,0,1,4,4.43,32.27,32.27,0,0,1,2.67,5.36,64.11,64.11,0,0,1,3.12,11.54,158.1,158.1,0,0,1,2.1,23.78c.23,8-.05,15.87.1,23.8a23.1,23.1,0,0,1-.58,6.21c-.08.27-.16.52-.26.8a5.37,5.37,0,0,1-.42.87,6,6,0,0,1-1.18,1.41,11.54,11.54,0,0,1-2.8,1.74,45.72,45.72,0,0,0-5.21,2.44,3.13,3.13,0,0,0-1.37,1.6,3,3,0,0,0-.09,1,4.88,4.88,0,0,0,.27,1.08,5.87,5.87,0,0,0,2.06,2.39,5.48,5.48,0,0,1,.22-3.52,6.65,6.65,0,0,1,2.74-3.24,8.9,8.9,0,0,1,1.92-.76,13.62,13.62,0,0,1,1.85-.43,16,16,0,0,1,3.82-.26,16,16,0,0,1-3.21,2.08c-.54.29-1.16.53-1.65.78a15.73,15.73,0,0,0-1.47.69,8.67,8.67,0,0,0-2.32,2.06,11.36,11.36,0,0,0-1.72,3.09l.23-.19c.38.25.78.48,1.19.7a20.36,20.36,0,0,0,5.29,1.78,25,25,0,0,0,2.82.36c.38,0,.77,0,1.15.06a2.5,2.5,0,0,1-.64-1.2,3.62,3.62,0,0,1,.21-2.08,7.22,7.22,0,0,1,2.45-2.88,11,11,0,0,1,3.17-1.65,8.11,8.11,0,0,1,3.57-.35c-.94.8-1.84,1.44-2.71,2.08l-2.56,1.88a15.28,15.28,0,0,0-2.25,1.87,3.22,3.22,0,0,0-.68,1.13,2.54,2.54,0,0,0-.07,1.56l.3-.32c.32,0,.64,0,1,0a48.82,48.82,0,0,0,5.8-.21,44,44,0,0,0,5.72-.92,17.06,17.06,0,0,0,2.68-.81,14.34,14.34,0,0,0,2.46-1.27A22.32,22.32,0,0,0,278,426c.22-.43.45-.85.64-1.29l.3-.66.23-.65a12.56,12.56,0,0,0,.43-1.35c.13-.46.27-.92.37-1.41.48-1.89.86-3.83,1.28-5.77.81-3.87,1.62-7.77,2.58-11.63s2.08-7.68,3.44-11.42a49.56,49.56,0,0,1,5.2-10.71l-1.39,2.63-1.19,2.71c-.37.92-.71,1.85-1.06,2.77s-.63,1.87-.94,2.8A116.29,116.29,0,0,0,285,403.53c-.76,3.63-1.41,7.29-2.05,11a316.46,316.46,0,0,0,33.09,5.44c21.95,2.37,44.63,2.42,66.18-2.89,2.66-.65,5.3-1.4,7.91-2.23-.15-.76-.28-1.52-.39-2.27-.52-3.56-.72-7.09-1.19-10.57-.23-1.73-.53-3.49-.8-5.23s-.57-3.5-1-5.2a37.21,37.21,0,0,0-1.73-5c-.63-1.65-1.22-3.32-1.8-5,.69,1.63,1.4,3.26,2.14,4.86a36.4,36.4,0,0,1,2,4.95c.49,1.73.85,3.46,1.23,5.2s.76,3.45,1.09,5.21c.62,3.52.95,7.06,1.58,10.49a38.26,38.26,0,0,0,1.25,5,26.75,26.75,0,0,0,2.09,4.67,22.28,22.28,0,0,0,6.69,7.5,15,15,0,0,0,4.47,2.06,41.38,41.38,0,0,0,5.08,1,48.33,48.33,0,0,0,8.42.38l.31.31h0a2.62,2.62,0,0,0-.07-1.56,3.4,3.4,0,0,0-.69-1.13,14.77,14.77,0,0,0-2.25-1.87l-2.56-1.88c-.87-.64-1.77-1.28-2.7-2.08a7.93,7.93,0,0,1,3.56.36,10.63,10.63,0,0,1,3.17,1.64,7.18,7.18,0,0,1,2.45,2.89,3.42,3.42,0,0,1,.21,2.07,2.53,2.53,0,0,1-.63,1.2l1.11-.06a22.59,22.59,0,0,0,5-.89,16.67,16.67,0,0,0,4.35-2l.25.2a11.16,11.16,0,0,0-1.73-3.08,8.31,8.31,0,0,0-2.31-2.06,14.68,14.68,0,0,0-1.48-.7c-.48-.25-1.11-.49-1.65-.78a15.16,15.16,0,0,1-3.21-2.08,16,16,0,0,1,3.82.26,13.28,13.28,0,0,1,1.85.43,8.52,8.52,0,0,1,1.92.76,6.55,6.55,0,0,1,2.74,3.24,5.48,5.48,0,0,1,.23,3.5,7.91,7.91,0,0,0,1.41-1.28,4.54,4.54,0,0,0,.87-1.83,2.87,2.87,0,0,0-1.55-3.26,28.13,28.13,0,0,0-4.64-2,24,24,0,0,1-2.56-1.17,8.3,8.3,0,0,1-2.4-1.93,6.75,6.75,0,0,1-.48-.71,4.47,4.47,0,0,1-.35-.83,9.48,9.48,0,0,1-.29-1.49c-.11-.95-.16-1.86-.18-2.76-.05-1.81,0-3.6,0-5.38.12-3.56.38-7.11.7-10.65.62-7.07,1.53-14.12,2.78-21.12.65-3.49,1.36-7,2.31-10.4a47.66,47.66,0,0,1,1.63-5.08,21.23,21.23,0,0,1,1.12-2.42,7.43,7.43,0,0,1,1.62-2.11,7.18,7.18,0,0,0-1.46,2.19,22.22,22.22,0,0,0-.94,2.46c-.53,1.68-1,3.39-1.35,5.11-.75,3.45-1.29,6.94-1.76,10.44-.95,7-1.6,14-2.06,21.08-.21,3.52-.37,7-.45,10.56,0,1.75,0,3.51,0,5.24,0,.23,0,.46,0,.69,5.9.87,12.12.57,18,.37a139.7,139.7,0,0,0,19-1.57c2.82-.49,3.2-.31,1.75-3-1.38-2.56-4.41-3.86-7-4.74-2.38-.8-4.85-1.22-7.28-1.83-1-.25-2.68-.48-3.21-1.5C443.69,399.32,444.71,398.59,445.67,397.9Z"/><path fill="none"  d="M164.26,327a17,17,0,0,0,5.41,9.44l7.42,6.85-8.84-4.88c-.31-.17-30.25-17-37-46.49-2.89,4.56-8.56,16.4-5.76,36l.24,1.68-1.67-.3c-.21,0-4-.8-6.8-6.54.43,7.76,2.52,20.07,10.7,29.95,7.83,9.47,19.61,14.86,35,16l5.13.39-4.76,2a81.61,81.61,0,0,1-8.27,2.87,76,76,0,0,0,37.54-2.25c-4.12-10.7-5.77-22.39-6.21-33.77A33.19,33.19,0,0,1,164.26,327Z"/><path d="M419.64,69.17h0l-.18,0Z"/><path d="M452.75,396.6A76,76,0,0,0,464,387.8c13.41-12.75,20.76-30.18,23-48.34,2.74-21.86-1.67-43.93-7.23-65A434.42,434.42,0,0,0,459.38,216a42.23,42.23,0,0,0,7.6-5.84,25.59,25.59,0,0,0,3.21-3.81,17.62,17.62,0,0,0,2.32-4.53,14,14,0,0,0-.45-10.2,19.81,19.81,0,0,0-1.18-2.29,20.87,20.87,0,0,0-1.53-2.07,19.54,19.54,0,0,0-3.72-3.44,30.81,30.81,0,0,0-8.92-4.28,49.18,49.18,0,0,0-9.56-1.89c-1.85-.18-3.7-.28-5.55-.29q-2.79-5.67-5.62-11.3c-3.36-6.66-6.74-13.27-10.57-19.62-.37-7.42-1.14-21.45-2.36-37.4a32.2,32.2,0,0,0,8,1c.87,0,1.77,0,2.7-.1a31,31,0,0,0,21.85-11.55c.22-.28.44-.57.64-.86a25.45,25.45,0,0,0,4.5-12.11A32.7,32.7,0,0,0,452,59.55c-6.87-7.06-17.36-9.21-27.41-5.56-6.59,2.38-6.85,3.12-6.74,4.14,0,.12,1.44,10.37,1.48,10.73l.09.19.21.12c5.19-1.32,9.44-4.79,15.13-3.74a14.17,14.17,0,0,1,9.24,6.4c3.11,5,3.62,11,1.33,15.65-2.87,5.89-10.12,9.33-16.85,8a18.22,18.22,0,0,1-6.79-2.81c-2.74-29.93-7-61-13.07-66.14a3.6,3.6,0,0,0-2.82-.94c-12.54,1.57-43.47,53.14-50.05,64.33a82,82,0,0,0-33.65-2.85,74.92,74.92,0,0,0-11.81,2.54c-2.05-3.3-10.87-17.36-20.9-30.64-15.86-21-26.66-29.78-33-26.75-2.26,1.09-9.13,4.39-14.22,69.26-1.71,21.83-2.64,43.46-3.05,55-4.22,7.11-8.17,14.36-11.9,21.61q-2.07,4-4,8c-3.62.88-7.21,1.91-10.75,3.15a70.11,70.11,0,0,0-9.14,3.87,34.28,34.28,0,0,0-4.32,2.62,17.66,17.66,0,0,0-3.85,3.56,8.57,8.57,0,0,0-1.32,2.51c-.07.23-.15.47-.21.71l-.1.69a10.7,10.7,0,0,0-.08,1.37,17.47,17.47,0,0,0,.85,5.15,44.79,44.79,0,0,0,4.18,9.1A85,85,0,0,0,204,227c.5.66,1,1.31,1.52,2q-3.08,9-5.7,18.09-5.13,17.8-8.49,36c-3.14,17.24-5.44,34.81-5,52.38a30.47,30.47,0,0,1-22.44-13l-1.77-2.58-.44,3.1a17,17,0,0,0,1.9,9.39c-9.27-6.67-26.65-21.81-30.49-43.69l-.43-2.45L131,288.12c-.47.51-11.12,12.51-8.22,37.84-1.7-1.3-4.21-4.31-5.45-11.13l-1.48-8.15-.94,8.23c-.1.92-2.43,22.9,11.16,39.34,7.35,8.91,17.95,14.4,31.55,16.37-2.82,1-6.22,1.94-8.32,1.94H142l6.82,2.37a67.07,67.07,0,0,0,20.54,2.93A77.05,77.05,0,0,0,193.52,374a65.78,65.78,0,0,0,4.87,9.34,52.9,52.9,0,0,0,21.1,19.21c.92.46,1.85.89,2.79,1.3a9.19,9.19,0,0,0,1.25.53l.49.2c-.49.16-1,.36-1.45.52-1.7.59-3.42,1.12-5.11,1.72-3.31,1.19-9.12,3.12-6.74,7.75,2.05,4,8.63,4.75,12.48,5.28a124,124,0,0,0,19.36.86c1.38,0,3.38.11,5.38,0,0,.08-.06.17-.08.24a3,3,0,0,1-.24.47,3.79,3.79,0,0,1-.72.85,9.48,9.48,0,0,1-2.25,1.36,42.87,42.87,0,0,0-5.54,2.6,5.5,5.5,0,0,0-2.34,2.88,5.42,5.42,0,0,0-.2,1.94,7.07,7.07,0,0,0,.44,1.8,7.44,7.44,0,0,0,2.1,2.8,13.08,13.08,0,0,0,2.71,1.81,22.51,22.51,0,0,0,6,2,28.13,28.13,0,0,0,3.08.38c1,.08,2,.13,3,.15a47.51,47.51,0,0,0,6.08-.28,45.38,45.38,0,0,0,6-1.05,18.51,18.51,0,0,0,3-1,16.24,16.24,0,0,0,2.79-1.49,23.63,23.63,0,0,0,8-9.35c.22-.47.45-.92.65-1.4l.3-.7.25-.75a13.1,13.1,0,0,0,.44-1.49c.12-.5.26-1,.35-1.48.31-1.39.57-2.78.82-4.17l.39.09c22.74,4.9,46.19,7.78,69.49,6.66a158.3,158.3,0,0,0,31.67-4.54q3.35-.86,6.64-1.91l.18.65a28,28,0,0,0,2.11,5.06,23.44,23.44,0,0,0,7.15,8.35,17.15,17.15,0,0,0,5.1,2.44,46.75,46.75,0,0,0,5.33,1.12,49.33,49.33,0,0,0,10.86.35c.91-.07,1.8-.16,2.74-.32a22.39,22.39,0,0,0,2.72-.63,18.81,18.81,0,0,0,5.16-2.33,10.9,10.9,0,0,0,2.24-2,6.92,6.92,0,0,0,1.35-2.93,5.27,5.27,0,0,0-.39-3.33,6.07,6.07,0,0,0-2.25-2.37,30,30,0,0,0-5.07-2.22,10.06,10.06,0,0,1-4-2.36c-.1-.12-.21-.28-.28-.38a2.4,2.4,0,0,1-.17-.39c0-.14-.08-.3-.12-.47l.91.09a142.87,142.87,0,0,0,21.2.05c5.56-.29,11.61-.36,17-1.79,4.09-1.08,2.59-5.48.27-8-3.66-4-9.54-4.72-14.51-6-.16,0-.32-.1-.48-.15.34-.21.64-.43.79-.52C450,398.32,451.38,397.48,452.75,396.6ZM428,97.9c7.92,1.55,16.13-2.38,19.52-9.35,2.66-5.45,2.1-12.36-1.46-18-4.31-6.84-11.88-9.5-19.29-6.77a55.67,55.67,0,0,0-6.77,3l-.1.06c-.54-5-.88-6.87-1-7.69l.23-.13a59.25,59.25,0,0,1,6.31-2.7c9.08-3.29,18.57-1.38,24.77,5a30.21,30.21,0,0,1,8.09,23.83,23,23,0,0,1-4,11c-.19.27-.39.53-.59.79a28.52,28.52,0,0,1-20.1,10.61c-.85.06-1.67.09-2.48.09-15.08,0-23.8-10.41-24.5-16.68s.72-6.61,3.57-7.08a11.78,11.78,0,0,1,2.32,2.75C415.11,90.15,419.46,96.22,428,97.9ZM406.1,28a1.2,1.2,0,0,1,.94.38c2.53,2.15,7.42,13.12,12,62.14a37,37,0,0,1-4.53-5.45c-1.68-2.35-2.9-4-4.67-3.75-3.87.64-6.53,1.72-5.64,9.77.49,4.35,3.74,9.3,8.49,12.9a28.55,28.55,0,0,0,7.85,4.21c1,13.53,1.77,25.82,2.2,33.9-1-1.57-2.07-3.12-3.17-4.64-11.53-15.93-26.35-29.8-43.68-39.23a101.45,101.45,0,0,0-17.72-7.59C369.24,71.87,396.26,29.26,406.1,28ZM244.63,101.68c4.33-55.22,9.9-65.83,12.84-67.24a3.79,3.79,0,0,1,1.63-.34c3.78,0,11.79,4.42,28.33,26.34,9.52,12.62,18,26,20.47,30-15.47,5.21-29,15.13-40.3,27.12a215.64,215.64,0,0,0-25.85,34.59C242.22,140,243.13,120.93,244.63,101.68ZM155.05,374a81.61,81.61,0,0,0,8.27-2.87l4.76-2-5.13-.39c-15.41-1.18-27.19-6.57-35-16-8.18-9.88-10.27-22.19-10.7-29.95,2.83,5.74,6.59,6.5,6.8,6.54l1.67.3-.24-1.68c-2.8-19.6,2.87-31.44,5.76-36,6.78,29.5,36.72,46.32,37,46.49l8.84,4.88-7.42-6.85a17,17,0,0,1-5.41-9.44A33.19,33.19,0,0,0,186.38,338c.44,11.38,2.09,23.07,6.21,33.77A76,76,0,0,1,155.05,374Zm289.33,26.67c.53,1,2.24,1.25,3.21,1.5,2.43.61,4.9,1,7.28,1.83,2.62.88,5.65,2.18,7,4.74,1.45,2.72,1.07,2.54-1.75,3a139.7,139.7,0,0,1-19,1.57c-5.9.2-12.12.5-18-.37,0-.23,0-.46,0-.69-.07-1.73-.07-3.49,0-5.24.08-3.52.24-7,.45-10.56.46-7,1.11-14.08,2.06-21.08.47-3.5,1-7,1.76-10.44.37-1.72.82-3.43,1.35-5.11a22.22,22.22,0,0,1,.94-2.46,7.18,7.18,0,0,1,1.46-2.19,7.43,7.43,0,0,0-1.62,2.11,21.23,21.23,0,0,0-1.12,2.42,47.66,47.66,0,0,0-1.63,5.08c-.95,3.43-1.66,6.91-2.31,10.4-1.25,7-2.16,14.05-2.78,21.12-.32,3.54-.58,7.09-.7,10.65-.06,1.78-.09,3.57,0,5.38,0,.9.07,1.81.18,2.76a9.48,9.48,0,0,0,.29,1.49,4.47,4.47,0,0,0,.35.83,6.75,6.75,0,0,0,.48.71,8.3,8.3,0,0,0,2.4,1.93,24,24,0,0,0,2.56,1.17,28.13,28.13,0,0,1,4.64,2,2.87,2.87,0,0,1,1.55,3.26,4.54,4.54,0,0,1-.87,1.83,7.91,7.91,0,0,1-1.41,1.28,5.48,5.48,0,0,0-.23-3.5,6.55,6.55,0,0,0-2.74-3.24,8.52,8.52,0,0,0-1.92-.76,13.28,13.28,0,0,0-1.85-.43,16,16,0,0,0-3.82-.26,15.16,15.16,0,0,0,3.21,2.08c.54.29,1.17.53,1.65.78a14.68,14.68,0,0,1,1.48.7,8.31,8.31,0,0,1,2.31,2.06,11.16,11.16,0,0,1,1.73,3.08l-.25-.2a16.67,16.67,0,0,1-4.35,2,22.59,22.59,0,0,1-5,.89l-1.11.06a2.53,2.53,0,0,0,.63-1.2,3.42,3.42,0,0,0-.21-2.07,7.18,7.18,0,0,0-2.45-2.89,10.63,10.63,0,0,0-3.17-1.64,7.93,7.93,0,0,0-3.56-.36c.93.8,1.83,1.44,2.7,2.08l2.56,1.88a14.77,14.77,0,0,1,2.25,1.87,3.4,3.4,0,0,1,.69,1.13,2.62,2.62,0,0,1,.07,1.56h0l-.31-.31a48.33,48.33,0,0,1-8.42-.38,41.38,41.38,0,0,1-5.08-1,15,15,0,0,1-4.47-2.06,22.28,22.28,0,0,1-6.69-7.5,26.75,26.75,0,0,1-2.09-4.67,38.26,38.26,0,0,1-1.25-5c-.63-3.43-1-7-1.58-10.49-.33-1.76-.72-3.47-1.09-5.21s-.74-3.47-1.23-5.2a36.4,36.4,0,0,0-2-4.95c-.74-1.6-1.45-3.23-2.14-4.86.58,1.68,1.17,3.35,1.8,5a37.21,37.21,0,0,1,1.73,5c.39,1.7.67,3.45,1,5.2s.57,3.5.8,5.23c.47,3.48.67,7,1.19,10.57.11.75.24,1.51.39,2.27-2.61.83-5.25,1.58-7.91,2.23-21.55,5.31-44.23,5.26-66.18,2.89A316.46,316.46,0,0,1,283,414.5c.64-3.68,1.29-7.34,2.05-11A116.29,116.29,0,0,1,287.9,392c.31-.93.59-1.88.94-2.8s.69-1.85,1.06-2.77l1.19-2.71,1.39-2.63a49.56,49.56,0,0,0-5.2,10.71c-1.36,3.74-2.46,7.57-3.44,11.42s-1.77,7.76-2.58,11.63c-.42,1.94-.8,3.88-1.28,5.77-.1.49-.24.95-.37,1.41a12.56,12.56,0,0,1-.43,1.35l-.23.65-.3.66c-.19.44-.42.86-.64,1.29a22.32,22.32,0,0,1-7.42,8.42,14.34,14.34,0,0,1-2.46,1.27,17.06,17.06,0,0,1-2.68.81,44,44,0,0,1-5.72.92,48.82,48.82,0,0,1-5.8.21c-.31,0-.63,0-1,0l-.3.32a2.54,2.54,0,0,1,.07-1.56,3.22,3.22,0,0,1,.68-1.13,15.28,15.28,0,0,1,2.25-1.87l2.56-1.88c.87-.64,1.77-1.28,2.71-2.08a8.11,8.11,0,0,0-3.57.35,11,11,0,0,0-3.17,1.65,7.22,7.22,0,0,0-2.45,2.88,3.62,3.62,0,0,0-.21,2.08,2.5,2.5,0,0,0,.64,1.2c-.38,0-.77,0-1.15-.06a25,25,0,0,1-2.82-.36,20.36,20.36,0,0,1-5.29-1.78c-.41-.22-.81-.45-1.19-.7l-.23.19a11.36,11.36,0,0,1,1.72-3.09,8.67,8.67,0,0,1,2.32-2.06A15.73,15.73,0,0,1,247,429c.49-.25,1.11-.49,1.65-.78a16,16,0,0,0,3.21-2.08,16,16,0,0,0-3.82.26,13.62,13.62,0,0,0-1.85.43,8.9,8.9,0,0,0-1.92.76,6.65,6.65,0,0,0-2.74,3.24,5.48,5.48,0,0,0-.22,3.52,5.87,5.87,0,0,1-2.06-2.39,4.88,4.88,0,0,1-.27-1.08,3,3,0,0,1,.09-1,3.13,3.13,0,0,1,1.37-1.6,45.72,45.72,0,0,1,5.21-2.44,11.54,11.54,0,0,0,2.8-1.74,6,6,0,0,0,1.18-1.41,5.37,5.37,0,0,0,.42-.87c.1-.28.18-.53.26-.8a23.1,23.1,0,0,0,.58-6.21c-.15-7.93.13-15.83-.1-23.8a158.1,158.1,0,0,0-2.1-23.78,64.11,64.11,0,0,0-3.12-11.54,32.27,32.27,0,0,0-2.67-5.36,16.94,16.94,0,0,0-4-4.43,16.83,16.83,0,0,1,3.65,4.62,32.82,32.82,0,0,1,2.38,5.39,64.46,64.46,0,0,1,2.55,11.51A174,174,0,0,1,248.91,391c0,3.95-.08,7.9-.16,11.86s-.13,8-.15,11.9c0,1.14,0,2.27-.16,3.35-1.08,0-2.17,0-3.17.06a152.52,152.52,0,0,1-17.5-.3c-3.09-.26-14-.56-15-4.78-.91-3.7,11.25-5.38,13.72-6.89,1.07-.66,1.91-1.44,1.08-2.7-.51-.77-2.13-1-2.88-1.31a53.54,53.54,0,0,1-7-3.46C188,381.35,186.8,341.31,189.75,311c.89-9.12,2.27-18.19,3.92-27.2a381.67,381.67,0,0,1,13.69-52.52c.95,1.13,1.93,2.24,2.95,3.31a164.25,164.25,0,0,1-10.16-16.65,48.26,48.26,0,0,1-3.64-8.82,16.15,16.15,0,0,1-.68-4.49,5.9,5.9,0,0,1,1.28-3.84,15.7,15.7,0,0,1,3.29-3.09,38.77,38.77,0,0,1,4-2.52,88.21,88.21,0,0,1,8.73-4.12c6-2.48,12.16-4.6,18.38-6.64-1.74.28-3.48.62-5.2,1a369.59,369.59,0,0,1,20.83-36.89c12.31-19.09,26.91-37.84,46.94-49.3a77.59,77.59,0,0,1,57.83-7.82c18.78,4.74,35.69,15.51,49.51,28.88C417,135.33,427,153.39,436.55,172.6l2.36,4.77c-.48,0-1,0-1.42.08a82.85,82.85,0,0,1,9.48,1.33,58.51,58.51,0,0,1,9.12,2.51q2.21.84,4.27,1.88a26.31,26.31,0,0,1,3.89,2.45,19.3,19.3,0,0,1,3.26,3.12,13.67,13.67,0,0,1,2.3,3.79,11.81,11.81,0,0,1,.5,8.53,21.24,21.24,0,0,1-4.71,7.73,49,49,0,0,1-7,6.26,79.84,79.84,0,0,1-8,5.23,49.52,49.52,0,0,0,6.7-3.1c3.37,8,6.58,16,9.55,24.19,8.32,22.87,15.58,47,18,71.3,1.84,18.56,0,38.07-8.64,54.84a70.25,70.25,0,0,1-17.73,22c-4,3.3-8.6,5.44-12.75,8.43C444.71,398.59,443.69,399.32,444.38,400.64Z"/>    </g>    <g id="eye">        <g id="eye-color1">            <g opacity="0" ><path fill="#BA756C"  d="M234.82,140.34c-.14.46-.2.94-.35,1.4a16,16,0,0,1-1.35,2.87c-.53.93-1,1.89-1.54,2.82-.24.42-.5.81-.77,1.21l-.43.61c-.09.11-.46.47-.46.6-.19.25-.39.5-.59.74-5.88,7-13.9,9.8-22.69,6.53-8.54-3.17-14.21-10.4-14.65-19.54a.84.84,0,0,1,0-.28.93.93,0,0,1,0-.29,23.27,23.27,0,0,1,19-21.81,18.93,18.93,0,0,1,11.42,1.34c-15.29-7.7-34.35-2.92-39.29,15.34a20.81,20.81,0,0,0-.67,6.53A29.42,29.42,0,0,0,193,158.64c8.6,7.09,21.5,6.67,31.05,1.77,7.18-3.69,10-12.6,10.92-20.45C234.91,140.08,234.86,140.21,234.82,140.34Z"/></g><g opacity="0" ><path fill="#BA756C"  d="M358.58,134.27c-.24.62-.44,1.25-.7,1.86a24.39,24.39,0,0,1-2,3.67,31.67,31.67,0,0,1-2.54,3.43c-5.88,7-13.9,9.8-22.69,6.53-8.53-3.17-14.2-10.4-14.65-19.53a2.11,2.11,0,0,1,0-.58,23.29,23.29,0,0,1,19-21.81,18.89,18.89,0,0,1,11.43,1.35c-15.3-7.71-34.36-2.93-39.3,15.33a20.54,20.54,0,0,0-.66,6.53A29.34,29.34,0,0,0,317,151.28c8.59,7.09,21.5,6.67,31,1.77,6.9-3.55,9.72-12,10.77-19.65C358.75,133.65,358.67,134,358.58,134.27Z"/></g>        </g>        <g id="eye-shape">            <path fill="#fbfbfb"  d="M295.89,123.07c-21.73-17.81-51.73-12-72.06,4.87-11.71,10.13-20.83,23.9-22.36,39.62-1.27,13.08,2.6,26.27,9.61,37.28,12.38,19.45,36.51,33.94,59.91,27.09,20.91-6.11,35.23-26.44,41.18-46.49C318.73,163.33,314.39,138.24,295.89,123.07ZM312,167.47c3.12,13.13-4,29.28-15.05,36.62-11.44,7.58-25.45,6.3-36.15-1.92-11.83-9.09-12.9-22.85-8.48-36.32a1.57,1.57,0,0,1,.15-.32c5.3-13,19.95-19.08,33.33-17.47a40.23,40.23,0,0,1,4.79.88c7-1.95,15.58,1.56,16.61,9.37A21.23,21.23,0,0,1,312,167.47Z"/><path d="M221.71,125.82C211.07,135,202.58,147.11,199.5,161c-2.77,12.5-.75,25.57,4.53,37.14,10.21,22.39,34.35,41.15,59.93,38.25,23.13-2.63,40.23-22.12,48.49-42.66,9.19-22.89,7.78-50-9.89-68.54C280.11,101.65,245.06,106.47,221.71,125.82Zm90.46,59.62c-5.95,20.05-20.27,40.38-41.18,46.49-23.4,6.85-47.53-7.64-59.91-27.09-7-11-10.88-24.2-9.61-37.28,1.53-15.72,10.65-29.49,22.36-39.62,20.33-16.85,50.33-22.68,72.06-4.87C314.39,138.24,318.73,163.33,312.17,185.44Z"/><path d="M307.12,162.07c-1.18,7.61-8.53,14.08-16.4,11.78-7.26-2.13-10.49-10.21-8.63-17.13a1.6,1.6,0,0,1,.1-.39,1.34,1.34,0,0,1,.18-.38,12.35,12.35,0,0,1,8.2-7,40.23,40.23,0,0,0-4.79-.88c-13.38-1.61-28,4.46-33.33,17.47a1.57,1.57,0,0,0-.15.32c-4.42,13.47-3.35,27.23,8.48,36.32,10.7,8.22,24.71,9.5,36.15,1.92C308,196.75,315.1,180.6,312,167.47a21.23,21.23,0,0,0-4.8-9.16A12.9,12.9,0,0,1,307.12,162.07Z"/><path fill="#fff"  d="M290.57,148.94a12.35,12.35,0,0,0-8.2,7,1.34,1.34,0,0,0-.18.38,1.6,1.6,0,0,0-.1.39c-1.86,6.92,1.37,15,8.63,17.13,7.87,2.3,15.22-4.17,16.4-11.78a12.9,12.9,0,0,0,.06-3.76C306.15,150.5,297.61,147,290.57,148.94Z"/><path fill="#fbfbfb"  d="M437.65,124.5c-21.81-15.38-53-18.4-71.71,3.56-17.26,21.61-17.19,56.12-2.48,79a51.88,51.88,0,0,0,65.66,19.41A58,58,0,0,0,462.59,177C463.67,156.62,454.4,136.32,437.65,124.5Zm-65.73,81.87c-14.35-8.08-20.39-26.75-13.74-41.89a30.47,30.47,0,0,1,4.24-6.94,10.08,10.08,0,0,1,1.62-5.67c2.64-4.14,8-4.83,12.6-3.8a30.47,30.47,0,0,1,12.64-.95c14.23,1.89,27.34,11.65,30.73,26C426.49,200.61,394.74,217.86,371.92,206.37Z"/><path d="M445.1,126.64c-22.48-20.28-60.06-25.65-81.28-.7-16.45,20.59-17.87,51.29-7.19,74.85,10.79,23.79,36.25,38.16,62.16,32.38,23.25-5.18,41.58-24.61,45.83-47.94C468.51,163.94,461.25,141.21,445.1,126.64ZM462.59,177a58,58,0,0,1-33.47,49.54,51.88,51.88,0,0,1-65.66-19.41c-14.71-22.92-14.78-57.43,2.48-79,18.68-22,49.9-18.94,71.71-3.56C454.4,136.32,463.67,156.62,462.59,177Z"/><path d="M389.28,147.12a30.47,30.47,0,0,0-12.64.95,17.62,17.62,0,0,1,3.22,1.06c5.45,2.45,8.82,8.1,6.23,13.93-3,6.78-10.57,8.51-16.85,5.52a1.7,1.7,0,0,1-.39-.18,1.3,1.3,0,0,1-.34-.25,13.66,13.66,0,0,1-6.09-10.61,30.47,30.47,0,0,0-4.24,6.94c-6.65,15.14-.61,33.81,13.74,41.89,22.82,11.49,54.57-5.76,48.09-33.26C416.62,158.77,403.51,149,389.28,147.12Z"/><path fill="#fff"  d="M368.51,168.15a1.3,1.3,0,0,0,.34.25,1.7,1.7,0,0,0,.39.18c6.28,3,13.85,1.26,16.85-5.52,2.59-5.83-.78-11.48-6.23-13.93a17.62,17.62,0,0,0-3.22-1.06c-4.6-1-10-.34-12.6,3.8a10.08,10.08,0,0,0-1.62,5.67A13.66,13.66,0,0,0,368.51,168.15Z"/>        </g>        <g id="eye-color2">            <path fill="#FF8A8A"  d="M296.93,204.09c-11.44,7.58-25.45,6.3-36.15-1.92-11.83-9.09-12.9-22.85-8.48-36.32a1.57,1.57,0,0,1,.15-.32c5.09-12.49,18.79-18.56,31.71-17.61-18.58-4.75-40.69,3.61-47,22.29a37.84,37.84,0,0,0,4.9,33.64c7.49,10.53,19.92,14.8,32.48,14.76,6.18,0,12.54-1,17.8-4.27,8.59-5.28,15.13-15.61,17.42-26.36A36.26,36.26,0,0,1,296.93,204.09Z"/><path fill="#FF8A8A"  d="M413.7,150.66c-9.56-6.81-25.15-8-36.48-2.77a30.7,30.7,0,0,1,12.06-.77c14.23,1.89,27.34,11.65,30.73,26,6.48,27.5-25.27,44.75-48.09,33.26a32.32,32.32,0,0,1-14.31-17.05,17.33,17.33,0,0,0,.4,2.36,31.2,31.2,0,0,0,16.47,20.87c13.13,6.59,30.83,4.54,43.3-5.59a31.73,31.73,0,0,0,10.47-14.43C433.11,177.65,426.41,159.69,413.7,150.66Z"/>        </g>    </g>    <g id="nose-mouth">        <path fill="none"  d="M337.39,242.54l0,.47.2.05C337.5,242.88,337.44,242.71,337.39,242.54Z"/><path fill="#f25757"  d="M341.07,247.07a2,2,0,0,0,.11.37,13.84,13.84,0,0,0,1.93,3.79,12.13,12.13,0,0,0-3.62-2.2,3.38,3.38,0,0,0-2.93,0c-.83.48-1.09,1.35-1.79,1.95a3.67,3.67,0,0,1-.86.34c1.5,1.27,3.08,2.49,4.5,3.91.25.26.5.54.74.83a5.87,5.87,0,0,0,.7.71,5.94,5.94,0,0,0,1.73,1,5.68,5.68,0,0,0,3.92,0,4.89,4.89,0,0,0,2.88-2.54,5.41,5.41,0,0,0,.19-3.9,11.93,11.93,0,0,0-1.59-2.87A10.31,10.31,0,0,1,341.07,247.07Z"/><path fill="#d33d3d"  d="M336.56,249a3.38,3.38,0,0,1,2.93,0,12.13,12.13,0,0,1,3.62,2.2,13.84,13.84,0,0,1-1.93-3.79,2,2,0,0,1-.11-.37,12.29,12.29,0,0,1-1.13-.75,7.44,7.44,0,0,1-2.29-3,2.5,2.5,0,0,1-.09-.25l-.2-.05a.66.66,0,0,0,0,.14,9.73,9.73,0,0,1-1.33,3.78,8.68,8.68,0,0,1-2.91,2.87,7.16,7.16,0,0,1-.66.36,4.61,4.61,0,0,0,1.23,1c.08,0,.12.17.22.16h0a3.67,3.67,0,0,0,.86-.34C335.47,250.35,335.73,249.48,336.56,249Z"/><path d="M350.23,246a22.34,22.34,0,0,1-3.27.9,8.46,8.46,0,0,1-3.27-.18,9.18,9.18,0,0,1-3.09-1.27,7.16,7.16,0,0,1-2.36-2.38,6.94,6.94,0,0,1-.62-1.42,9.57,9.57,0,0,0,3.66-2.19,53.56,53.56,0,0,0,5-5.91c5.86-7.2,15.45-19.85,7.51-29.1C350,200,343.5,199,338,199.12a66.31,66.31,0,0,0-22.51,4.33l-.09.05a1.19,1.19,0,0,0-.22.08c-4.78,2.41-9.32,7-8.23,12.82,1.2,6.41,8,11.94,12.62,16,3.25,2.83,7.4,6.88,11.81,8.66a11.89,11.89,0,0,0,3.14.84,7.48,7.48,0,0,0,2.28-.07,12.14,12.14,0,0,1-.29,1.19,10.23,10.23,0,0,1-1.6,3.2,9.31,9.31,0,0,1-5.94,3.36,17.83,17.83,0,0,1-7.19-.3,13.28,13.28,0,0,1-6.5-3.37,8.23,8.23,0,0,0,2.61,2.87,14.46,14.46,0,0,0,3.51,1.77,15.89,15.89,0,0,0,7.87.71,12.32,12.32,0,0,0,2.82-.89c.85.88,1.76,1.68,2.66,2.49,1.05,1,2.13,1.9,3.11,2.9a10,10,0,0,1,.68.78,6.13,6.13,0,0,0,.79.82,6.64,6.64,0,0,0,1.95,1.15,6.51,6.51,0,0,0,4.48.11,5.7,5.7,0,0,0,3.34-3,6.16,6.16,0,0,0,.16-4.47,11.25,11.25,0,0,0-1.52-2.74l.37-.07c.3-.06.6-.12.9-.21a11.81,11.81,0,0,0,1.81-.56,8.41,8.41,0,0,0,3.24-2.18,9.14,9.14,0,0,0,1.81-3.35,17.18,17.18,0,0,0,.72-3.59c-1.1,2.16-2,4.42-3.61,5.9A8.68,8.68,0,0,1,350.23,246Zm-14-37.34-2-1c-1.1-.52-.61-2,.3-2.34a14.44,14.44,0,0,1,9.38-.41c1.75.51,3.75,1.42,3.3,3.62a5.47,5.47,0,0,1-4.5,3.73C340.07,212.44,338.28,209.68,336.19,208.61Zm12.38,42.73a5.41,5.41,0,0,1-.19,3.9,4.89,4.89,0,0,1-2.88,2.54,5.68,5.68,0,0,1-3.92,0,5.94,5.94,0,0,1-1.73-1,5.87,5.87,0,0,1-.7-.71c-.24-.29-.49-.57-.74-.83-1.42-1.42-3-2.64-4.5-3.91h0c-.1,0-.14-.12-.22-.16a4.61,4.61,0,0,1-1.23-1,7.16,7.16,0,0,0,.66-.36,8.68,8.68,0,0,0,2.91-2.87,9.73,9.73,0,0,0,1.33-3.78.66.66,0,0,1,0-.14l0-.47c.05.17.11.34.17.52a2.5,2.5,0,0,0,.09.25,7.44,7.44,0,0,0,2.29,3,12.29,12.29,0,0,0,1.13.75,10.31,10.31,0,0,0,5.91,1.4A11.93,11.93,0,0,1,348.57,251.34Z"/><rect fill="#563a33"  x="325.06" y="239.67" width="2.54" height="2.54" rx="0.99" ry="0.99" transform="translate(-4.25 476.01) rotate(-71.86)"/><rect fill="#563a33"  x="317.34" y="237.75" width="2.54" height="2.54" rx="0.99" ry="0.99" transform="matrix(0.31, -0.95, 0.95, 0.31, -7.85, 467.2)"/><path fill="#563a33"  d="M318.35,244.18l-.17.53a1,1,0,0,0,0,.3,1,1,0,0,0,.67,1l.53.18a1,1,0,0,0,1.25-.64l.18-.53a1,1,0,0,0-.64-1.25l-.53-.17A1,1,0,0,0,318.35,244.18Z"/><rect fill="#563a33"  x="344.07" y="240.93" width="2.54" height="2.54" rx="0.99" ry="0.99" transform="translate(7.61 494.9) rotate(-71.85)"/><rect fill="#563a33"  x="349.73" y="233.12" width="2.54" height="2.54" rx="0.99" ry="0.99" transform="translate(18.76 494.69) rotate(-71.81)"/><path fill="#563a33"  d="M352.14,240.14l.53.18a1,1,0,0,0,1.26-.63l.17-.53a.92.92,0,0,0,0-.59,1,1,0,0,0-.62-.67l-.53-.17a1,1,0,0,0-1.25.63l-.13.37-.05.16A1,1,0,0,0,352.14,240.14Z"/><path fill="#fff"  d="M342.63,212.22a5.47,5.47,0,0,0,4.5-3.73c.45-2.2-1.55-3.11-3.3-3.62a14.44,14.44,0,0,0-9.38.41c-.91.36-1.4,1.82-.3,2.34l2,1C338.28,209.68,340.07,212.44,342.63,212.22Z"/>    </g></svg>