<!--  ~ Copyright (C) 2018 Baidu, Inc. All Rights Reserved.  --><svg viewBox="0 0 640 480" xmlns="http://www.w3.org/2000/svg">    <g id="back-ground-cl">        <rect fill="none" width="640" height="480" />        <ellipse opacity="0.1" cx="331.93" cy="418.82" rx="168.39" ry="32.01"/>    </g>    <g id="body">        <defs>            <clipPath id="outline">                <path fill="none"  d="M141.25,347.12c-1.63-1.74-3.22-3.51-4.74-5.37a31.86,31.86,0,0,1-4.09-6.12,9,9,0,0,1-.68-1.89,4.64,4.64,0,0,1,0-2.32,3.53,3.53,0,0,1,1.5-2.08,5.91,5.91,0,0,1,2-.82,15.6,15.6,0,0,1,3.81-.27,36,36,0,0,1,3.63.32,137.43,137.43,0,0,1,14,2.82l3.45.85,3.42.74,1.7.37.24,0c-.45-.53-.91-1.06-1.36-1.6a144.07,144.07,0,0,1-8.89-11.92A120.33,120.33,0,0,1,147.7,307,91,91,0,0,1,142.3,294a41.58,41.58,0,0,0-7.36,2.91,47.73,47.73,0,0,0-7.31,4.64,54.65,54.65,0,0,0-6.42,5.84,50.44,50.44,0,0,0-4.9,6.07c1,.71,1.92,1.43,2.85,2.17,1.17.93,2.32,1.88,3.44,2.87q3.38,2.93,6.48,6.17l2.09,2.17-2.95-.56a23.2,23.2,0,0,1-4.58-1.5c-1.44-.61-2.85-1.27-4.23-2-2.57-1.29-5.08-2.66-7.57-4.1a40.47,40.47,0,0,0-5.3,5.85,38.23,38.23,0,0,0-4.31,7.36A31,31,0,0,0,99.86,340a28.69,28.69,0,0,0,0,8.12,58,58,0,0,0,17.14,7.5,100,100,0,0,0,19,3,155.94,155.94,0,0,0,17.83.18A143,143,0,0,1,141.25,347.12Z"/><path fill="none"  d="M170.22,336l-3.55-.42-.89-.11-.88-.17-1.76-.33-3.51-.7-3.44-.81a138,138,0,0,0-13.78-2.61c-1.15-.14-2.29-.23-3.42-.26a13.45,13.45,0,0,0-3.22.22,3.65,3.65,0,0,0-1.24.48,1.18,1.18,0,0,0-.53.72,4.4,4.4,0,0,0,.58,2.6,29.91,29.91,0,0,0,3.8,5.6c1.47,1.79,3,3.52,4.65,5.22a134.93,134.93,0,0,0,45.77,31.82q4.41,1.92,8.95,3.54c-8-13.26-10.72-29.17-11.28-44.47A97,97,0,0,1,170.22,336Z"/><path fill="none"  d="M348.73,87c0-10.08-6.49-29-9.91-38.88-.47-1.35-.89-2.56-1.24-3.61a.64.64,0,0,0-.64-.46.62.62,0,0,0-.64.45l-.29.82c-3,8.56-10.13,28.74-10.41,40.2A81.16,81.16,0,0,1,348.73,87Z"/><path fill="none"  d="M490.79,222a42.37,42.37,0,0,0-5.73-3.15,68.75,68.75,0,0,0-12.5-4.26l-2.08-.49,1.88-1a6.54,6.54,0,0,0,3.12-3.22,3.76,3.76,0,0,0,.12-2.13,4.74,4.74,0,0,0-.41-1.06l-.26-.52-.34-.47a6,6,0,0,0-4-2.15,15.72,15.72,0,0,0-5,.19,44.84,44.84,0,0,0-9.74,3.15,91.28,91.28,0,0,0-9.2,4.67,79.37,79.37,0,0,1,6.95-4.12c-5.37-12.18-11.11-24.21-17.05-36.12C427,152.15,417,134.09,401.46,119c-13.82-13.37-30.72-24.13-49.5-28.87A77.51,77.51,0,0,0,294.16,98c-20,11.45-34.63,30.19-46.93,49.28a370.8,370.8,0,0,0-30.39,57.89c.95.41,1.9.84,2.84,1.29a79.71,79.71,0,0,1,9,5.16,91.44,91.44,0,0,0-9.21-4.67,44.58,44.58,0,0,0-9.73-3.15,15.72,15.72,0,0,0-5-.19,6,6,0,0,0-4,2.15l-.34.47-.26.52a5.32,5.32,0,0,0-.42,1.06,3.85,3.85,0,0,0,.13,2.13,6.54,6.54,0,0,0,3.12,3.22l1.88,1-2.08.49a69.11,69.11,0,0,0-12.51,4.26,42.86,42.86,0,0,0-5.72,3.15,19.79,19.79,0,0,0-4.73,4.22,9.6,9.6,0,0,0-2.2,5.49,9.34,9.34,0,0,0,.4,2.95,8.41,8.41,0,0,0,.49,1.44,8.93,8.93,0,0,0,5.18,5,12.87,12.87,0,0,0,3,.71,13.5,13.5,0,0,0,3,0l3.36-.35L190.68,244a52.57,52.57,0,0,0-8.27,10.9,27.77,27.77,0,0,0-2.61,6.21,18.22,18.22,0,0,0-.58,3.24,13.75,13.75,0,0,0,.15,3.21,12.15,12.15,0,0,0,2.81,5.7c1.39,1.66,3.14,3,5.08,3s4-1,5.76-2.29a42.21,42.21,0,0,0,5.09-4.59c3.23-3.34,6.25-6.94,9.33-10.49s6.2-7.08,9.52-10.44a90.72,90.72,0,0,1,10.67-9.29,53.66,53.66,0,0,1,12.29-6.9,58.36,58.36,0,0,0-11.87,7.45,96.44,96.44,0,0,0-10.18,9.62c-3.2,3.41-6.21,7-9.19,10.62s-5.9,7.3-9.12,10.8a44.06,44.06,0,0,1-4.28,4.13q-.79,3.79-1.52,7.62c-1.64,9-3,18.08-3.91,27.2-2.95,30.32-1.79,70.35,27.9,87.77a54.83,54.83,0,0,0,7,3.46c.75.3,2.36.54,2.87,1.3.84,1.26,0,2-1.08,2.7-2.47,1.51-14.62,3.19-13.7,6.89,1,4.22,11.93,4.52,15,4.78a152.3,152.3,0,0,0,17.49.29c1,0,2.06,0,3.12-.05.08-1.46.07-3,.08-4.48,0-1.92,0-3.87.06-5.79.06-3.86.16-7.7.17-11.53a149.87,149.87,0,0,0-1.41-22.92A56.43,56.43,0,0,0,244.61,361a30.88,30.88,0,0,0-2.5-5.14,18.41,18.41,0,0,0-3.66-4.4h0a18.64,18.64,0,0,1,4,4.21,30.09,30.09,0,0,1,2.8,5.1,56.9,56.9,0,0,1,3.33,11.14A136.93,136.93,0,0,1,250.68,395c.09,3.86.09,7.72.07,11.57,0,1.92,0,3.83,0,5.76s.06,3.86-.09,5.88a14,14,0,0,1-.55,3.08l-.13.38a3.83,3.83,0,0,1-.17.43,4.54,4.54,0,0,1-.45.81,6.24,6.24,0,0,1-1.2,1.3,11.64,11.64,0,0,1-2.73,1.64c-.91.43-1.82.79-2.68,1.16-1.7.71-3.39,1.6-3.76,2.76a2.44,2.44,0,0,0-.12,1,3.76,3.76,0,0,0,.07.55l.15.51a5,5,0,0,0,1.32,1.88,8.54,8.54,0,0,0,.79.65,5.52,5.52,0,0,1,.23-3.51,6.63,6.63,0,0,1,2.74-3.23,8.76,8.76,0,0,1,1.92-.77,14.88,14.88,0,0,1,1.85-.43,15.52,15.52,0,0,1,3.82-.25,16,16,0,0,1-3.21,2.08c-.54.29-1.16.53-1.65.78a15.73,15.73,0,0,0-1.47.69,8.5,8.5,0,0,0-2.32,2.06,11.15,11.15,0,0,0-1.72,3.08h0l.24-.2c.29.18.57.37.87.53a17,17,0,0,0,2.46,1.1,21.89,21.89,0,0,0,2.63.75,21.56,21.56,0,0,0,2.71.41c.59.06,1.18.09,1.76.12a2.53,2.53,0,0,1-.63-1.2,3.43,3.43,0,0,1,.21-2.07,7.25,7.25,0,0,1,2.45-2.89,10.86,10.86,0,0,1,3.17-1.64,7.93,7.93,0,0,1,3.56-.36c-.93.8-1.83,1.44-2.71,2.08l-2.56,1.88a15.8,15.8,0,0,0-2.24,1.87,3.35,3.35,0,0,0-.69,1.14,2.58,2.58,0,0,0-.07,1.55h0l.3-.31a47.63,47.63,0,0,0,8.69-.41A36.94,36.94,0,0,0,267,436a14.83,14.83,0,0,0,4.73-2.53,20.38,20.38,0,0,0,3.84-3.92,25.65,25.65,0,0,0,2.87-4.75,11.41,11.41,0,0,0,.53-1.27,12.37,12.37,0,0,0,.43-1.3c.27-.89.49-1.82.7-2.74.43-1.86.81-3.75,1.22-5.63.79-3.77,1.58-7.55,2.53-11.3a112.5,112.5,0,0,1,3.41-11.08,49.09,49.09,0,0,1,5.09-10.39L291,383.67c-.4.87-.78,1.75-1.17,2.63-.72,1.78-1.39,3.57-2,5.41a113,113,0,0,0-2.85,11.14c-.73,3.43-1.35,6.87-1.95,10.33a314.76,314.76,0,0,0,33,5.43c21.95,2.37,44.62,2.41,66.16-2.89q3.81-.95,7.55-2.11c-.61-3.64-.82-7.26-1.26-10.83-.22-1.8-.53-3.62-.82-5.44s-.58-3.63-1-5.41a31.91,31.91,0,0,0-1.75-5.18c-.66-1.72-1.27-3.46-1.87-5.2h0c.72,1.7,1.45,3.39,2.22,5.06a30.78,30.78,0,0,1,2,5.16c.49,1.8.86,3.6,1.25,5.4s.78,3.6,1.09,5.44c.61,3.66.93,7.33,1.68,10.87a30.8,30.8,0,0,0,1.5,5.15,27.22,27.22,0,0,0,2.44,4.74,20.4,20.4,0,0,0,7.56,7.1c.39.18.77.38,1.17.52l.6.24.61.18c.82.25,1.72.44,2.59.62a45.54,45.54,0,0,0,5.33.74,54.21,54.21,0,0,0,6,.1l.3.31a2.61,2.61,0,0,0-.07-1.56,3.45,3.45,0,0,0-.69-1.14,15.8,15.8,0,0,0-2.24-1.87l-2.56-1.88c-.88-.64-1.78-1.27-2.71-2.07a8.07,8.07,0,0,1,3.56.35,10.89,10.89,0,0,1,3.17,1.65,7.15,7.15,0,0,1,2.45,2.88,3.44,3.44,0,0,1,.21,2.07,2.53,2.53,0,0,1-.64,1.21,36.06,36.06,0,0,0,3.93-.42,20.46,20.46,0,0,0,4.93-1.6,13,13,0,0,0,1.59-.89l.23.2a11.21,11.21,0,0,0-1.72-3.09,8.5,8.5,0,0,0-2.32-2.06,15.73,15.73,0,0,0-1.47-.69c-.49-.25-1.11-.49-1.65-.78a16,16,0,0,1-3.21-2.08,16,16,0,0,1,3.82.26,12,12,0,0,1,1.85.43,8.24,8.24,0,0,1,1.92.76,6.67,6.67,0,0,1,2.74,3.23,5.51,5.51,0,0,1,.22,3.53,6.62,6.62,0,0,0,1.73-1.78,4,4,0,0,0,.62-2,2.58,2.58,0,0,0-.13-.94,2.16,2.16,0,0,0-.46-.8c-.87-1-2.58-1.72-4.25-2.37a20.92,20.92,0,0,1-5.25-2.55,7.28,7.28,0,0,1-1.2-1.16,8.61,8.61,0,0,1-.49-.77,4,4,0,0,1-.33-.86,7.6,7.6,0,0,1-.27-1.53c-.06-.51-.09-1-.11-1.46a111.25,111.25,0,0,1,.43-11.16c.28-3.69.66-7.36,1.1-11,.87-7.33,2-14.63,3.41-21.87.74-3.62,1.55-7.22,2.55-10.78.49-1.77,1-3.54,1.71-5.27a22.85,22.85,0,0,1,1.14-2.52,9,9,0,0,1,.73-1.19,3.94,3.94,0,0,1,.52-.64l.39-.39a5.8,5.8,0,0,0-.84,1.08,8.29,8.29,0,0,0-.63,1.22,22.64,22.64,0,0,0-1,2.57c-.56,1.74-1,3.51-1.43,5.3-.81,3.58-1.44,7.2-2,10.83-1.13,7.25-2,14.55-2.69,21.86-.34,3.65-.63,7.31-.86,11-.18,3.07-.33,6.17-.28,9.2,5.93.9,12.2.59,18.14.39a139.29,139.29,0,0,0,19-1.57c2.83-.49,3.2-.31,1.75-3-1.37-2.56-4.41-3.86-7-4.74-2.38-.8-4.85-1.21-7.28-1.83-1-.24-2.67-.48-3.21-1.5-.69-1.32.33-2,1.29-2.74,4.15-3,8.74-5.13,12.74-8.42a70.11,70.11,0,0,0,17.73-22c8.66-16.76,10.47-36.26,8.63-54.82a234.39,234.39,0,0,0-7.58-39.12c-.49-.5-1-1-1.44-1.52-3.22-3.5-6.14-7.18-9.13-10.8s-6-7.21-9.18-10.62a96.44,96.44,0,0,0-10.18-9.62,58.36,58.36,0,0,0-11.87-7.45,53.66,53.66,0,0,1,12.29,6.9,90.72,90.72,0,0,1,10.67,9.29c3.32,3.36,6.44,6.89,9.52,10.44s6.1,7.15,9.32,10.49a43.78,43.78,0,0,0,5.09,4.59c1.79,1.31,3.81,2.37,5.76,2.29s3.7-1.35,5.09-3a12.24,12.24,0,0,0,2.81-5.7,13.75,13.75,0,0,0,.15-3.21,18.22,18.22,0,0,0-.58-3.24,27.77,27.77,0,0,0-2.61-6.21,52.57,52.57,0,0,0-8.27-10.9l-2.36-2.41,3.36.35a13.5,13.5,0,0,0,3,0,12.87,12.87,0,0,0,3-.71,8.93,8.93,0,0,0,5.18-5,8.41,8.41,0,0,0,.49-1.44,9.34,9.34,0,0,0,.4-2.95,9.6,9.6,0,0,0-2.2-5.49A19.79,19.79,0,0,0,490.79,222Z"/><polygon fill="#725e47"  points="238.45 351.44 238.45 351.44 238.45 351.44 238.45 351.44"/><polygon fill="#725e47"  points="238.45 351.44 238.45 351.44 238.45 351.44 238.45 351.44"/><path d="M497.23,224.9a22,22,0,0,0-5.29-4.6,40.52,40.52,0,0,0-6.08-3.19,69.58,69.58,0,0,0-11.22-3.63,8.3,8.3,0,0,0,.69-.64,6.68,6.68,0,0,0,1.54-2.45,5.24,5.24,0,0,0,.09-3,6.53,6.53,0,0,0-.55-1.33c-.11-.21-.22-.42-.34-.63l-.43-.57a7.56,7.56,0,0,0-1-1l-.6-.39a2.5,2.5,0,0,0-.62-.34l-.65-.29-.67-.2a10.21,10.21,0,0,0-1.36-.26,16.83,16.83,0,0,0-5.31.42,45.43,45.43,0,0,0-9.62,3.54c-.94-2.11-1.88-4.23-2.83-6.33-5.38-11.89-11.09-23.62-17-35.27-5-9.84-9.93-19.56-16.41-28.51-11.52-15.93-26.34-29.79-43.66-39.21a99.24,99.24,0,0,0-25.59-9.74c.15-10.38-6.24-28.95-10-39.75-.46-1.35-.88-2.56-1.23-3.6A2.28,2.28,0,0,0,337,42.38h0a2.27,2.27,0,0,0-2.17,1.53l-.29.83c-3.34,9.44-10.3,29.17-10.49,40.92-.61.06-1.23.12-1.84.2-21.44,2.82-39.91,14.9-54.47,30.44-16.54,17.64-29.32,39.12-40.36,60.51q-6.93,13.44-12.77,27.42a35,35,0,0,0-4.64-1.41,16.87,16.87,0,0,0-5.32-.42,10.37,10.37,0,0,0-1.35.26l-.67.2-.65.29a2.5,2.5,0,0,0-.62.34l-.6.39a7.56,7.56,0,0,0-1,1l-.43.57c-.12.21-.23.42-.34.63a6.53,6.53,0,0,0-.55,1.33,5.15,5.15,0,0,0,.09,3,6.68,6.68,0,0,0,1.54,2.45c.22.23.45.44.68.64a69.79,69.79,0,0,0-11.21,3.63,40.52,40.52,0,0,0-6.08,3.19,21.79,21.79,0,0,0-5.29,4.6,11,11,0,0,0-2.33,10.41,10.62,10.62,0,0,0,.57,1.73,9.58,9.58,0,0,0,.84,1.66,11.27,11.27,0,0,0,5.65,4.68,15.06,15.06,0,0,0,3.53.87l.7.07q-1.45,1.62-2.79,3.35a48,48,0,0,0-4,6,30.45,30.45,0,0,0-2.79,6.76,20.64,20.64,0,0,0-.64,3.69,15.65,15.65,0,0,0,.2,3.8,14.19,14.19,0,0,0,3.37,6.77,12.53,12.53,0,0,0,2.9,2.55,7.5,7.5,0,0,0,3.88,1.19,9,9,0,0,0,3.88-.86,13.85,13.85,0,0,0,1.27-.66c-.33,1.63-.64,3.26-.95,4.89-3.17,17.45-5.49,35.24-5,53a94.62,94.62,0,0,1-16-.69l-3.47-.49-.28,0c-.63-.78-1.27-1.56-1.89-2.35-3-3.89-6-7.87-8.62-12a120,120,0,0,1-7.26-12.83,89.37,89.37,0,0,1-5.35-13.68l-.22-.73-.75.19a41.65,41.65,0,0,0-8.41,3.17,49.49,49.49,0,0,0-7.61,4.76,56.57,56.57,0,0,0-6.66,6,50.11,50.11,0,0,0-5.64,7l-.47.71.73.52c1.16.83,2.33,1.73,3.47,2.65s2.26,1.86,3.36,2.83,2.41,2.19,3.57,3.32l-.56-.22c-1.39-.58-2.77-1.22-4.13-1.89-2.73-1.35-5.43-2.8-8.07-4.32l-.57-.33-.48.41a41.77,41.77,0,0,0-10.5,14.35,32.6,32.6,0,0,0-2.44,8.61,30.3,30.3,0,0,0,.09,9l0,.35.3.2a58.6,58.6,0,0,0,18,7.64,101.73,101.73,0,0,0,19.3,2.78,146.09,146.09,0,0,0,18.6-.28c2.7,2.18,5.48,4.26,8.37,6.18,2,1.36,4,2.59,6,3.85s4.1,2.41,6.22,3.49,4.24,2.17,6.38,3.2,4.33,1.95,6.54,2.82c3.63,1.47,7.33,2.8,11.06,4a52.68,52.68,0,0,0,20.45,18.24c.92.46,1.85.89,2.79,1.3a8.08,8.08,0,0,0,1.25.53l.49.2c-.49.16-1,.36-1.45.52-1.7.59-3.42,1.12-5.11,1.73-3.31,1.18-9.12,3.11-6.74,7.74,2.05,4,8.63,4.74,12.48,5.27a123.86,123.86,0,0,0,19.35.87c1.42,0,3.5.11,5.55,0a11.11,11.11,0,0,1-.29,1.17,3.58,3.58,0,0,1-.45,1,4.41,4.41,0,0,1-.76.81,21.09,21.09,0,0,1-4.85,2.41,17.24,17.24,0,0,0-2.77,1.41,5.53,5.53,0,0,0-2.32,2.74,6.26,6.26,0,0,0,2,6.48,12.12,12.12,0,0,0,2.61,1.84,18.91,18.91,0,0,0,2.81,1.24,23.18,23.18,0,0,0,2.93.82,24.52,24.52,0,0,0,3,.44,49.13,49.13,0,0,0,11.81-.33,38.87,38.87,0,0,0,5.81-1.31,17.28,17.28,0,0,0,5.37-3,25.06,25.06,0,0,0,7.12-9.57,14.75,14.75,0,0,0,.55-1.41,14,14,0,0,0,.44-1.45c.26-1,.46-1.91.66-2.87.29-1.43.55-2.86.81-4.29l.3.07c22.74,4.89,46.18,7.77,69.47,6.66a158.82,158.82,0,0,0,31.66-4.54c2.08-.53,4.14-1.13,6.19-1.78a28.59,28.59,0,0,0,3.45,8.39,21.75,21.75,0,0,0,8.19,8c.44.21.87.45,1.34.62l.68.28.71.22c.94.3,1.84.5,2.76.72a48.37,48.37,0,0,0,5.59.85,45.35,45.35,0,0,0,11.33-.32,22.76,22.76,0,0,0,5.54-1.76,14.59,14.59,0,0,0,2.58-1.55,8.47,8.47,0,0,0,2.18-2.31,6.66,6.66,0,0,0,1-3.22,4.9,4.9,0,0,0-1.17-3.36,8,8,0,0,0-2.59-1.91,28.06,28.06,0,0,0-2.65-1.13,18.89,18.89,0,0,1-4.67-2.19,4.72,4.72,0,0,1-.79-.75,2.17,2.17,0,0,1-.42-.81,7,7,0,0,1-.21-1.18c0-.17,0-.35,0-.53l1.21.13a142.74,142.74,0,0,0,21.19.05c5.56-.29,11.6-.36,17-1.79,4.09-1.08,2.58-5.48.27-8-3.66-4-9.54-4.72-14.51-6a4.42,4.42,0,0,1-.48-.15c.34-.21.64-.43.79-.51q2.13-1.2,4.2-2.52a75.15,75.15,0,0,0,11.24-8.8c13.4-12.74,20.75-30.16,23-48.32,2.66-21.2-1.42-42.6-6.74-63.09l.74.59a16.65,16.65,0,0,0,3.21,2,9,9,0,0,0,3.88.86,7.5,7.5,0,0,0,3.88-1.19,12.53,12.53,0,0,0,2.9-2.55,14.19,14.19,0,0,0,3.37-6.77,16.72,16.72,0,0,0,.2-3.8,20.64,20.64,0,0,0-.64-3.69,30,30,0,0,0-2.8-6.76,46.83,46.83,0,0,0-4-6q-1.33-1.72-2.79-3.35l.7-.07a15.19,15.19,0,0,0,3.53-.87,11.27,11.27,0,0,0,5.65-4.68A9.53,9.53,0,0,0,499,237a9.77,9.77,0,0,0,.58-1.73,11,11,0,0,0-2.33-10.41,336,45.28l.29-.82a.62.62,0,0,1,.64-.45.64.64,0,0,1,.64.46c.35,1.05.77,2.26,1.24,3.61,3.42,9.91,9.93,28.8,9.91,38.88a81.16,81.16,0,0,0-23.13-1.48C325.88,74,333,53.84,336,45.28,136,358.7a100,100,0,0,1-19-3,58,58,0,0,1-17.14-7.5,28.69,28.69,0,0,1,0-8.12,31,31,0,0,1,2.37-8.15,38.23,38.23,0,0,1,4.31-7.36,40.47,40.47,0,0,1,5.3-5.85c2.49,1.44,5,2.81,7.57,4.1,1.38.69,2.79,1.35,4.23,2a23.2,23.2,0,0,0,4.58,1.5l2.95.56-2.09-2.17q-3.11-3.24-6.48-6.17c-1.12-1-2.27-1.94-3.44-2.87-.93-.74-1.88-1.46-2.85-2.17a50.44,50.44,0,0,1,4.9-6.07,54.65,54.65,0,0,1,6.42-5.84,47.73,47.73,0,0,1,7.31-4.64A41.58,41.58,0,0,1,142.3,294,91,91,0,0,0,147.7,307a120.33,120.33,0,0,0,7.54,12.85,144.07,144.07,0,0,0,8.89,11.92c.45.54.91,1.07,1.36,1.6l-.24,0-1.7-.37-3.42-.74-3.45-.85a137.43,137.43,0,0,0-14-2.82,36,36,0,0,0-3.63-.32,15.6,15.6,0,0,0-3.81.27,5.91,5.91,0,0,0-2,.82,3.53,3.53,0,0,0-1.5,2.08,4.64,4.64,0,0,0,0,2.32,9,9,0,0,0,.68,1.89,31.86,31.86,0,0,0,4.09,6.12c1.52,1.86,3.11,3.63,4.74,5.37a143,143,0,0,0,12.6,11.76A155.94,155.94,0,0,1,136,358.7,52.78,18.56A134.93,134.93,0,0,1,143,345.44c-1.61-1.7-3.18-3.43-4.65-5.22a29.91,29.91,0,0,1-3.8-5.6A4.4,4.4,0,0,1,134,332a1.18,1.18,0,0,1,.53-.72,3.65,3.65,0,0,1,1.24-.48,13.45,13.45,0,0,1,3.22-.22c1.13,0,2.27.12,3.42.26a138,138,0,0,1,13.78,2.61l3.44.81,3.51.7,1.76.33.88.17.89.11,3.55.42a97,97,0,0,0,16.25.32c.56,15.3,3.29,31.21,11.28,44.47Q193.22,379.18,188.8,377.26,497.32,234.7a8.41,8.41,0,0,1-.49,1.44,8.93,8.93,0,0,1-5.18,5,12.87,12.87,0,0,1-3,.71,13.5,13.5,0,0,1-3,0l-3.36-.35,2.36,2.41a52.57,52.57,0,0,1,8.27,10.9,27.77,27.77,0,0,1,2.61,6.21,18.22,18.22,0,0,1,.58,3.24,13.75,13.75,0,0,1-.15,3.21,12.24,12.24,0,0,1-2.81,5.7c-1.39,1.66-3.14,3-5.09,3s-4-1-5.76-2.29a43.78,43.78,0,0,1-5.09-4.59c-3.22-3.34-6.24-6.94-9.32-10.49s-6.2-7.08-9.52-10.44a90.72,90.72,0,0,0-10.67-9.29,53.66,53.66,0,0,0-12.29-6.9,58.36,58.36,0,0,1,11.87,7.45,96.44,96.44,0,0,1,10.18,9.62c3.2,3.41,6.21,7,9.18,10.62s5.91,7.3,9.13,10.8c.47.51.95,1,1.44,1.52a234.39,234.39,0,0,1,7.58,39.12c1.84,18.56,0,38.06-8.63,54.82a70.11,70.11,0,0,1-17.73,22c-4,3.29-8.59,5.43-12.74,8.42-1,.7-2,1.42-1.29,2.74.54,1,2.24,1.26,3.21,1.5,2.43.62,4.9,1,7.28,1.83,2.61.88,5.65,2.18,7,4.74,1.45,2.72,1.08,2.54-1.75,3a139.29,139.29,0,0,1-19,1.57c-5.94.2-12.21.51-18.14-.39-.05-3,.1-6.13.28-9.2.23-3.65.52-7.31.86-11,.71-7.31,1.56-14.61,2.69-21.86.56-3.63,1.19-7.25,2-10.83.4-1.79.87-3.56,1.43-5.3a22.64,22.64,0,0,1,1-2.57,8.29,8.29,0,0,1,.63-1.22,5.8,5.8,0,0,1,.84-1.08l-.39.39a3.94,3.94,0,0,0-.52.64,9,9,0,0,0-.73,1.19,22.85,22.85,0,0,0-1.14,2.52c-.67,1.73-1.22,3.5-1.71,5.27-1,3.56-1.81,7.16-2.55,10.78-1.43,7.24-2.54,14.54-3.41,21.87-.44,3.66-.82,7.33-1.1,11a111.25,111.25,0,0,0-.43,11.16c0,.47.05.95.11,1.46a7.6,7.6,0,0,0,.27,1.53,4,4,0,0,0,.33.86,8.61,8.61,0,0,0,.49.77,7.28,7.28,0,0,0,1.2,1.16,20.92,20.92,0,0,0,5.25,2.55c1.67.65,3.38,1.34,4.25,2.37a2.16,2.16,0,0,1,.46.8,2.58,2.58,0,0,1,.13.94,4,4,0,0,1-.62,2,6.62,6.62,0,0,1-1.73,1.78,5.51,5.51,0,0,0-.22-3.53,6.67,6.67,0,0,0-2.74-3.23,8.24,8.24,0,0,0-1.92-.76,12,12,0,0,0-1.85-.43,16,16,0,0,0-3.82-.26,16,16,0,0,0,3.21,2.08c.54.29,1.16.53,1.65.78a15.73,15.73,0,0,1,1.47.69,8.5,8.5,0,0,1,2.32,2.06,11.21,11.21,0,0,1,1.72,3.09l-.23-.2a13,13,0,0,1-1.59.89,20.46,20.46,0,0,1-4.93,1.6,36.06,36.06,0,0,1-3.93.42,2.53,2.53,0,0,0,.64-1.21,3.44,3.44,0,0,0-.21-2.07,7.15,7.15,0,0,0-2.45-2.88,10.89,10.89,0,0,0-3.17-1.65,8.07,8.07,0,0,0-3.56-.35c.93.8,1.83,1.43,2.71,2.07l2.56,1.88a15.8,15.8,0,0,1,2.24,1.87,3.45,3.45,0,0,1,.69,1.14,2.61,2.61,0,0,1,.07,1.56l-.3-.31a54.21,54.21,0,0,1-6-.1,45.54,45.54,0,0,1-5.33-.74c-.87-.18-1.77-.37-2.59-.62l-.61-.18-.6-.24c-.4-.14-.78-.34-1.17-.52a20.4,20.4,0,0,1-7.56-7.1,27.22,27.22,0,0,1-2.44-4.74,30.8,30.8,0,0,1-1.5-5.15c-.75-3.54-1.07-7.21-1.68-10.87-.31-1.84-.71-3.64-1.09-5.44s-.76-3.6-1.25-5.4a30.78,30.78,0,0,0-2-5.16c-.77-1.67-1.5-3.36-2.22-5.06h0c.6,1.74,1.21,3.48,1.87,5.2a31.91,31.91,0,0,1,1.75,5.18c.39,1.78.67,3.6,1,5.41s.6,3.64.82,5.44c.44,3.57.65,7.19,1.26,10.83q-3.74,1.17-7.55,2.11c-21.54,5.3-44.21,5.26-66.16,2.89a314.76,314.76,0,0,1-33-5.43c.6-3.46,1.22-6.9,1.95-10.33a113,113,0,0,1,2.85-11.14c.57-1.84,1.24-3.63,2-5.41.39-.88.77-1.76,1.17-2.63l1.35-2.56a49.09,49.09,0,0,0-5.09,10.39,112.5,112.5,0,0,0-3.41,11.08c-.95,3.75-1.74,7.53-2.53,11.3-.41,1.88-.79,3.77-1.22,5.63-.21.92-.43,1.85-.7,2.74a12.37,12.37,0,0,1-.43,1.3,11.41,11.41,0,0,1-.53,1.27,25.65,25.65,0,0,1-2.87,4.75,20.38,20.38,0,0,1-3.84,3.92A14.83,14.83,0,0,1,267,436a36.94,36.94,0,0,1-5.46,1.14,47.63,47.63,0,0,1-8.69.41l-.3.31h0a2.58,2.58,0,0,1,.07-1.55,3.35,3.35,0,0,1,.69-1.14,15.8,15.8,0,0,1,2.24-1.87l2.56-1.88c.88-.64,1.78-1.28,2.71-2.08a7.93,7.93,0,0,0-3.56.36,10.86,10.86,0,0,0-3.17,1.64,7.25,7.25,0,0,0-2.45,2.89,3.43,3.43,0,0,0-.21,2.07,2.53,2.53,0,0,0,.63,1.2c-.58,0-1.17-.06-1.76-.12a21.56,21.56,0,0,1-2.71-.41,21.89,21.89,0,0,1-2.63-.75,17,17,0,0,1-2.46-1.1c-.3-.16-.58-.35-.87-.53l-.24.2h0a11.15,11.15,0,0,1,1.72-3.08,8.5,8.5,0,0,1,2.32-2.06,15.73,15.73,0,0,1,1.47-.69c.49-.25,1.11-.49,1.65-.78a16,16,0,0,0,3.21-2.08,15.52,15.52,0,0,0-3.82.25,14.88,14.88,0,0,0-1.85.43,8.76,8.76,0,0,0-1.92.77,6.63,6.63,0,0,0-2.74,3.23,5.52,5.52,0,0,0-.23,3.51,8.54,8.54,0,0,1-.79-.65,5,5,0,0,1-1.32-1.88l-.15-.51a3.76,3.76,0,0,1-.07-.55,2.44,2.44,0,0,1,.12-1c.37-1.16,2.06-2,3.76-2.76.86-.37,1.77-.73,2.68-1.16a11.64,11.64,0,0,0,2.73-1.64,6.24,6.24,0,0,0,1.2-1.3,4.54,4.54,0,0,0,.45-.81,3.83,3.83,0,0,0,.17-.43l.13-.38a14,14,0,0,0,.55-3.08c.15-2,.1-3.95.09-5.88s0-3.84,0-5.76c0-3.85,0-7.71-.07-11.57a136.93,136.93,0,0,0-2.14-23.11,56.9,56.9,0,0,0-3.33-11.14,30.09,30.09,0,0,0-2.8-5.1,18.64,18.64,0,0,0-4-4.21h0a18.41,18.41,0,0,1,3.66,4.4,30.88,30.88,0,0,1,2.5,5.14,56.43,56.43,0,0,1,2.76,11.11A149.87,149.87,0,0,1,248.78,395c0,3.83-.11,7.67-.17,11.53,0,1.92-.05,3.87-.06,5.79,0,1.51,0,3-.08,4.48-1.06,0-2.14,0-3.12.05a152.3,152.3,0,0,1-17.49-.29c-3.09-.26-14-.56-15-4.78-.92-3.7,11.23-5.38,13.7-6.89,1.07-.66,1.92-1.44,1.08-2.7-.51-.76-2.12-1-2.87-1.3a54.83,54.83,0,0,1-7-3.46C188.06,380,186.9,340,189.85,309.68c.89-9.12,2.27-18.19,3.91-27.2q.72-3.83,1.52-7.62a44.06,44.06,0,0,0,4.28-4.13c3.22-3.5,6.14-7.18,9.12-10.8s6-7.21,9.19-10.62a96.44,96.44,0,0,1,10.18-9.62,58.36,58.36,0,0,1,11.87-7.45,53.66,53.66,0,0,0-12.29,6.9A90.72,90.72,0,0,0,217,248.43c-3.32,3.36-6.44,6.89-9.52,10.44s-6.1,7.15-9.33,10.49A42.21,42.21,0,0,1,193,274c-1.78,1.31-3.81,2.37-5.76,2.29s-3.69-1.35-5.08-3a12.15,12.15,0,0,1-2.81-5.7,13.75,13.75,0,0,1-.15-3.21,18.22,18.22,0,0,1,.58-3.24,27.77,27.77,0,0,1,2.61-6.21,52.57,52.57,0,0,1,8.27-10.9l2.36-2.41-3.36.35a13.5,13.5,0,0,1-3,0,12.87,12.87,0,0,1-3-.71,8.93,8.93,0,0,1-5.18-5,8.41,8.41,0,0,1-.49-1.44,9.34,9.34,0,0,1-.4-2.95,9.6,9.6,0,0,1,2.2-5.49,19.79,19.79,0,0,1,4.73-4.22,42.86,42.86,0,0,1,5.72-3.15,69.11,69.11,0,0,1,12.51-4.26l2.08-.49-1.88-1a6.54,6.54,0,0,1-3.12-3.22,3.85,3.85,0,0,1-.13-2.13,5.32,5.32,0,0,1,.42-1.06l.26-.52.34-.47a6,6,0,0,1,4-2.15,15.72,15.72,0,0,1,5,.19,44.58,44.58,0,0,1,9.73,3.15,91.44,91.44,0,0,1,9.21,4.67,79.71,79.71,0,0,0-9-5.16c-.94-.45-1.89-.88-2.84-1.29a370.8,370.8,0,0,1,30.39-57.89c12.3-19.09,26.9-37.83,46.93-49.28A77.51,77.51,0,0,1,352,90.15c18.78,4.74,35.68,15.5,49.5,28.87,15.58,15.07,25.53,33.13,35.1,52.33,5.94,11.91,11.68,23.94,17.05,36.12a79.37,79.37,0,0,0-6.95,4.12,91.28,91.28,0,0,1,9.2-4.67,44.84,44.84,0,0,1,9.74-3.15,15.72,15.72,0,0,1,5-.19,6,6,0,0,1,4,2.15l.34.47.26.52a4.74,4.74,0,0,1,.41,1.06,3.76,3.76,0,0,1-.12,2.13,6.54,6.54,0,0,1-3.12,3.22l-1.88,1,2.08.49a68.75,68.75,0,0,1,12.5,4.26,42.37,42.37,0,0,1,5.73,3.15,19.79,19.79,0,0,1,4.73,4.22,9.6,9.6,0,0,1,2.2,5.49A9.34,9.34,0,0,1,497.32,234.7Z"/>            </clipPath>        </defs>        <g clip-path="url(#outline)">            <rect fill="#AED4D2" width="640" height="480" />        </g>    </g>    <g id="pattern">        <g clip-path="url(#outline)">            <path fill="#3F2D2A"  d="M348.18,92.92c11.09-4.18,21.41,1,30.77,6.67a129.47,129.47,0,0,1,36.11,33.23c9.51,12.82,16.21,27.29,23.55,41.38.36.71.73,1.42,1.11,2.12.75,1.44-6.79,7.19-7.8,7.93a21.15,21.15,0,0,1-9.2,3.71c-8,1.35-16.19-.17-23.73-2.74a91.74,91.74,0,0,1-37.57-24.84c-11.13-12.1-20.73-26.88-23.71-43.14a32.05,32.05,0,0,1-.23-12.11A16.23,16.23,0,0,1,348.18,92.92Z"/><path fill="#3F2D2A"  d="M316.14,93c-3.78-1.06-7.37-1.64-11.24-.53-15,4.3-27.49,15.46-37.84,26.67a236.48,236.48,0,0,0-29.46,40.21c-3.5,5.91-6.82,11.92-10,18-.76,1.44,4.79,6.21,5.8,6.95a21.15,21.15,0,0,0,9.2,3.71c8,1.35,16.19-.17,23.73-2.74a91.74,91.74,0,0,0,37.57-24.84c11.13-12.1,20.73-26.88,23.7-43.14a31.65,31.65,0,0,0,.23-12.11A15.66,15.66,0,0,0,316.14,93Z"/>            <g opacity="0.6" ><path fill="#FFFFFF"  d="M285.16,418.84c2.41-25.61,27.19-49.17,50.59-49.34,23.7-.18,49,18.47,51.49,48,.13,1.49,1.2.46-.05,1.63-1.4,1.32-6.65,1.94-9.64,2.8-14.1,4.06-27.6,4.48-43.78,4.36-16.48-.12-33.16-4.21-48.13-7.41"/></g>        </g>    </g>    <g id="mask">        <path d="M72,439c.15,0,.14-1,0-1s-.14,1,0,1Z"/><g opacity="0.1" ><path d="M486.73,334.73c.24,1.7-3.5,6.77-4.43,8.5-1.82,3.4-3.68,6.77-5.67,10.08a107.91,107.91,0,0,1-13.23,18.11,63.28,63.28,0,0,1-11.06,9.47,61.09,61.09,0,0,1-6.25,3.66,32,32,0,0,1-5.53,2.51c-3.47,1-5.72-1.83-7-4.65-4.77-10.47-4.28-21.77-1.73-32.76l-2.28,5c-3.06,11.12-4.07,22.09-5.51,33.54-.1.78-.69,1.39-.44,2.07-.35.21,0,1.48-.24,1.77-2.06,2.52-.95,10.74-1.07,13.94a.63.63,0,0,0,.1.45c.15.19,2.2-.5,2.44-.56a107.07,107.07,0,0,0,24.46-9.44A75.87,75.87,0,0,0,473.09,375c3.19-4.31,4.75-8.09,6.55-13.14C482.74,353.16,488,343.89,486.73,334.73Z"/></g><g opacity="0.1" ><path d="M249.93,400.22a5.25,5.25,0,0,1,.33-1.8c-17.26-5.7-30.25-18.64-37.74-35.07-4-8.82-6.13-18.92-6.18-30.42-.12-25.79,2.8-56.62,9.35-81.94-2.91,3.79-5.95,7.42-9.2,11s-6.64,7.69-11,10.33c-2.23,12.41-5.21,24.62-6.61,37.1-3.37,30.08-1.52,58.55,15.6,78.36,10,11.56,23.45,18.34,41.17,20.59,2.35.3,2.35.08,4.78.42C250.31,405.91,249.91,403.08,249.93,400.22Z"/></g><g opacity="0.1" ><path d="M245.18,148.87a631.52,631.52,0,0,0-29.66,56.38,44.72,44.72,0,0,1,12.88,6.16,6.72,6.72,0,0,1,.93.83c10.87-24.77,19.6-48.65,34.72-71.58,10.78-16.34,22.25-34,37.23-46.59C275.75,106.59,260.33,123.38,245.18,148.87Z"/></g><g opacity="0.1" ><path d="M390.11,411.46c-.7-9.29-.85-8.76-.85-8.76-2.14,1.45-7.5,3.68-12.8,4.91a157,157,0,0,1-19.42,3,226.23,226.23,0,0,1-41.23.28c-7.18-.58-14.36-1.21-21.45-2.44-1.84-.32-3.88-.87-5.15-2.3a10.92,10.92,0,0,1-2.33-5.54,18.82,18.82,0,0,1,.54-8.44c-2.74,7.49-4.3,15.42-5.74,22.84,1.35.3,5.69.6,7,.91,10.44,2.65,32.83,5.21,48,5.33,15.66.13,34.58.44,44.87-3.37,2.86-1.06,8-1.65,9.33-3.08C392.09,413.49,390.24,413.07,390.11,411.46Z"/></g>        <path d="M72,439c.15,0,.14-1,0-1s-.14,1,0,1Z"/><g opacity="0.1" ><path fill="#fff"  d="M410.36,127.82c-16.21-18.83-29.19-25-29.41-25.17,6.47,5.66,12.75,11.63,17.93,18.53,5.72,7.6,10.13,16.29,15,24.43,12.74,21.27,21.42,43.85,32.11,66.25a6,6,0,0,1,.63-.27,3.57,3.57,0,0,1,1-.61c.48-.17.49-.37,1-.55a18.44,18.44,0,0,1,1.86-1.16,11.92,11.92,0,0,1,4.14-2.06,16.83,16.83,0,0,0-.74-1.74C441,181.13,429.65,150.24,410.36,127.82Z"/></g><g opacity="0.1" ><path fill="#fff"  d="M481.79,290c-1.22-6.63-2.69-13.2-4.34-19.72a4.54,4.54,0,0,1-3.72-3.26,5.42,5.42,0,0,1-2.05-1.85c-1.95-3-3.33-6.21-5.94-7.87a5.28,5.28,0,0,1-2.25-3c-.65-.38-1.28-.76-1.88-1.19-.27-.19-.53-.39-.78-.59q4.65,14.6,8,29.58c2.75,12.34,4.9,24.81,6.59,37.33,1.4,10.34,4.07,22.69-2.47,31.88,4.28-6,9.86-10.61,11.34-14.65C489.55,322.28,484.47,304.48,481.79,290Z"/></g>    </g>    <g id="outline">        <path fill="none"  d="M141.25,347.12c-1.63-1.74-3.22-3.51-4.74-5.37a31.86,31.86,0,0,1-4.09-6.12,9,9,0,0,1-.68-1.89,4.64,4.64,0,0,1,0-2.32,3.53,3.53,0,0,1,1.5-2.08,5.91,5.91,0,0,1,2-.82,15.6,15.6,0,0,1,3.81-.27,36,36,0,0,1,3.63.32,137.43,137.43,0,0,1,14,2.82l3.45.85,3.42.74,1.7.37.24,0c-.45-.53-.91-1.06-1.36-1.6a144.07,144.07,0,0,1-8.89-11.92A120.33,120.33,0,0,1,147.7,307,91,91,0,0,1,142.3,294a41.58,41.58,0,0,0-7.36,2.91,47.73,47.73,0,0,0-7.31,4.64,54.65,54.65,0,0,0-6.42,5.84,50.44,50.44,0,0,0-4.9,6.07c1,.71,1.92,1.43,2.85,2.17,1.17.93,2.32,1.88,3.44,2.87q3.38,2.93,6.48,6.17l2.09,2.17-2.95-.56a23.2,23.2,0,0,1-4.58-1.5c-1.44-.61-2.85-1.27-4.23-2-2.57-1.29-5.08-2.66-7.57-4.1a40.47,40.47,0,0,0-5.3,5.85,38.23,38.23,0,0,0-4.31,7.36A31,31,0,0,0,99.86,340a28.69,28.69,0,0,0,0,8.12,58,58,0,0,0,17.14,7.5,100,100,0,0,0,19,3,155.94,155.94,0,0,0,17.83.18A143,143,0,0,1,141.25,347.12Z"/><path fill="none"  d="M170.22,336l-3.55-.42-.89-.11-.88-.17-1.76-.33-3.51-.7-3.44-.81a138,138,0,0,0-13.78-2.61c-1.15-.14-2.29-.23-3.42-.26a13.45,13.45,0,0,0-3.22.22,3.65,3.65,0,0,0-1.24.48,1.18,1.18,0,0,0-.53.72,4.4,4.4,0,0,0,.58,2.6,29.91,29.91,0,0,0,3.8,5.6c1.47,1.79,3,3.52,4.65,5.22a134.93,134.93,0,0,0,45.77,31.82q4.41,1.92,8.95,3.54c-8-13.26-10.72-29.17-11.28-44.47A97,97,0,0,1,170.22,336Z"/><path fill="none"  d="M348.73,87c0-10.08-6.49-29-9.91-38.88-.47-1.35-.89-2.56-1.24-3.61a.64.64,0,0,0-.64-.46.62.62,0,0,0-.64.45l-.29.82c-3,8.56-10.13,28.74-10.41,40.2A81.16,81.16,0,0,1,348.73,87Z"/><path fill="none"  d="M490.79,222a42.37,42.37,0,0,0-5.73-3.15,68.75,68.75,0,0,0-12.5-4.26l-2.08-.49,1.88-1a6.54,6.54,0,0,0,3.12-3.22,3.76,3.76,0,0,0,.12-2.13,4.74,4.74,0,0,0-.41-1.06l-.26-.52-.34-.47a6,6,0,0,0-4-2.15,15.72,15.72,0,0,0-5,.19,44.84,44.84,0,0,0-9.74,3.15,91.28,91.28,0,0,0-9.2,4.67,79.37,79.37,0,0,1,6.95-4.12c-5.37-12.18-11.11-24.21-17.05-36.12C427,152.15,417,134.09,401.46,119c-13.82-13.37-30.72-24.13-49.5-28.87A77.51,77.51,0,0,0,294.16,98c-20,11.45-34.63,30.19-46.93,49.28a370.8,370.8,0,0,0-30.39,57.89c.95.41,1.9.84,2.84,1.29a79.71,79.71,0,0,1,9,5.16,91.44,91.44,0,0,0-9.21-4.67,44.58,44.58,0,0,0-9.73-3.15,15.72,15.72,0,0,0-5-.19,6,6,0,0,0-4,2.15l-.34.47-.26.52a5.32,5.32,0,0,0-.42,1.06,3.85,3.85,0,0,0,.13,2.13,6.54,6.54,0,0,0,3.12,3.22l1.88,1-2.08.49a69.11,69.11,0,0,0-12.51,4.26,42.86,42.86,0,0,0-5.72,3.15,19.79,19.79,0,0,0-4.73,4.22,9.6,9.6,0,0,0-2.2,5.49,9.34,9.34,0,0,0,.4,2.95,8.41,8.41,0,0,0,.49,1.44,8.93,8.93,0,0,0,5.18,5,12.87,12.87,0,0,0,3,.71,13.5,13.5,0,0,0,3,0l3.36-.35L190.68,244a52.57,52.57,0,0,0-8.27,10.9,27.77,27.77,0,0,0-2.61,6.21,18.22,18.22,0,0,0-.58,3.24,13.75,13.75,0,0,0,.15,3.21,12.15,12.15,0,0,0,2.81,5.7c1.39,1.66,3.14,3,5.08,3s4-1,5.76-2.29a42.21,42.21,0,0,0,5.09-4.59c3.23-3.34,6.25-6.94,9.33-10.49s6.2-7.08,9.52-10.44a90.72,90.72,0,0,1,10.67-9.29,53.66,53.66,0,0,1,12.29-6.9,58.36,58.36,0,0,0-11.87,7.45,96.44,96.44,0,0,0-10.18,9.62c-3.2,3.41-6.21,7-9.19,10.62s-5.9,7.3-9.12,10.8a44.06,44.06,0,0,1-4.28,4.13q-.79,3.79-1.52,7.62c-1.64,9-3,18.08-3.91,27.2-2.95,30.32-1.79,70.35,27.9,87.77a54.83,54.83,0,0,0,7,3.46c.75.3,2.36.54,2.87,1.3.84,1.26,0,2-1.08,2.7-2.47,1.51-14.62,3.19-13.7,6.89,1,4.22,11.93,4.52,15,4.78a152.3,152.3,0,0,0,17.49.29c1,0,2.06,0,3.12-.05.08-1.46.07-3,.08-4.48,0-1.92,0-3.87.06-5.79.06-3.86.16-7.7.17-11.53a149.87,149.87,0,0,0-1.41-22.92A56.43,56.43,0,0,0,244.61,361a30.88,30.88,0,0,0-2.5-5.14,18.41,18.41,0,0,0-3.66-4.4h0a18.64,18.64,0,0,1,4,4.21,30.09,30.09,0,0,1,2.8,5.1,56.9,56.9,0,0,1,3.33,11.14A136.93,136.93,0,0,1,250.68,395c.09,3.86.09,7.72.07,11.57,0,1.92,0,3.83,0,5.76s.06,3.86-.09,5.88a14,14,0,0,1-.55,3.08l-.13.38a3.83,3.83,0,0,1-.17.43,4.54,4.54,0,0,1-.45.81,6.24,6.24,0,0,1-1.2,1.3,11.64,11.64,0,0,1-2.73,1.64c-.91.43-1.82.79-2.68,1.16-1.7.71-3.39,1.6-3.76,2.76a2.44,2.44,0,0,0-.12,1,3.76,3.76,0,0,0,.07.55l.15.51a5,5,0,0,0,1.32,1.88,8.54,8.54,0,0,0,.79.65,5.52,5.52,0,0,1,.23-3.51,6.63,6.63,0,0,1,2.74-3.23,8.76,8.76,0,0,1,1.92-.77,14.88,14.88,0,0,1,1.85-.43,15.52,15.52,0,0,1,3.82-.25,16,16,0,0,1-3.21,2.08c-.54.29-1.16.53-1.65.78a15.73,15.73,0,0,0-1.47.69,8.5,8.5,0,0,0-2.32,2.06,11.15,11.15,0,0,0-1.72,3.08h0l.24-.2c.29.18.57.37.87.53a17,17,0,0,0,2.46,1.1,21.89,21.89,0,0,0,2.63.75,21.56,21.56,0,0,0,2.71.41c.59.06,1.18.09,1.76.12a2.53,2.53,0,0,1-.63-1.2,3.43,3.43,0,0,1,.21-2.07,7.25,7.25,0,0,1,2.45-2.89,10.86,10.86,0,0,1,3.17-1.64,7.93,7.93,0,0,1,3.56-.36c-.93.8-1.83,1.44-2.71,2.08l-2.56,1.88a15.8,15.8,0,0,0-2.24,1.87,3.35,3.35,0,0,0-.69,1.14,2.58,2.58,0,0,0-.07,1.55h0l.3-.31a47.63,47.63,0,0,0,8.69-.41A36.94,36.94,0,0,0,267,436a14.83,14.83,0,0,0,4.73-2.53,20.38,20.38,0,0,0,3.84-3.92,25.65,25.65,0,0,0,2.87-4.75,11.41,11.41,0,0,0,.53-1.27,12.37,12.37,0,0,0,.43-1.3c.27-.89.49-1.82.7-2.74.43-1.86.81-3.75,1.22-5.63.79-3.77,1.58-7.55,2.53-11.3a112.5,112.5,0,0,1,3.41-11.08,49.09,49.09,0,0,1,5.09-10.39L291,383.67c-.4.87-.78,1.75-1.17,2.63-.72,1.78-1.39,3.57-2,5.41a113,113,0,0,0-2.85,11.14c-.73,3.43-1.35,6.87-1.95,10.33a314.76,314.76,0,0,0,33,5.43c21.95,2.37,44.62,2.41,66.16-2.89q3.81-.95,7.55-2.11c-.61-3.64-.82-7.26-1.26-10.83-.22-1.8-.53-3.62-.82-5.44s-.58-3.63-1-5.41a31.91,31.91,0,0,0-1.75-5.18c-.66-1.72-1.27-3.46-1.87-5.2h0c.72,1.7,1.45,3.39,2.22,5.06a30.78,30.78,0,0,1,2,5.16c.49,1.8.86,3.6,1.25,5.4s.78,3.6,1.09,5.44c.61,3.66.93,7.33,1.68,10.87a30.8,30.8,0,0,0,1.5,5.15,27.22,27.22,0,0,0,2.44,4.74,20.4,20.4,0,0,0,7.56,7.1c.39.18.77.38,1.17.52l.6.24.61.18c.82.25,1.72.44,2.59.62a45.54,45.54,0,0,0,5.33.74,54.21,54.21,0,0,0,6,.1l.3.31a2.61,2.61,0,0,0-.07-1.56,3.45,3.45,0,0,0-.69-1.14,15.8,15.8,0,0,0-2.24-1.87l-2.56-1.88c-.88-.64-1.78-1.27-2.71-2.07a8.07,8.07,0,0,1,3.56.35,10.89,10.89,0,0,1,3.17,1.65,7.15,7.15,0,0,1,2.45,2.88,3.44,3.44,0,0,1,.21,2.07,2.53,2.53,0,0,1-.64,1.21,36.06,36.06,0,0,0,3.93-.42,20.46,20.46,0,0,0,4.93-1.6,13,13,0,0,0,1.59-.89l.23.2a11.21,11.21,0,0,0-1.72-3.09,8.5,8.5,0,0,0-2.32-2.06,15.73,15.73,0,0,0-1.47-.69c-.49-.25-1.11-.49-1.65-.78a16,16,0,0,1-3.21-2.08,16,16,0,0,1,3.82.26,12,12,0,0,1,1.85.43,8.24,8.24,0,0,1,1.92.76,6.67,6.67,0,0,1,2.74,3.23,5.51,5.51,0,0,1,.22,3.53,6.62,6.62,0,0,0,1.73-1.78,4,4,0,0,0,.62-2,2.58,2.58,0,0,0-.13-.94,2.16,2.16,0,0,0-.46-.8c-.87-1-2.58-1.72-4.25-2.37a20.92,20.92,0,0,1-5.25-2.55,7.28,7.28,0,0,1-1.2-1.16,8.61,8.61,0,0,1-.49-.77,4,4,0,0,1-.33-.86,7.6,7.6,0,0,1-.27-1.53c-.06-.51-.09-1-.11-1.46a111.25,111.25,0,0,1,.43-11.16c.28-3.69.66-7.36,1.1-11,.87-7.33,2-14.63,3.41-21.87.74-3.62,1.55-7.22,2.55-10.78.49-1.77,1-3.54,1.71-5.27a22.85,22.85,0,0,1,1.14-2.52,9,9,0,0,1,.73-1.19,3.94,3.94,0,0,1,.52-.64l.39-.39a5.8,5.8,0,0,0-.84,1.08,8.29,8.29,0,0,0-.63,1.22,22.64,22.64,0,0,0-1,2.57c-.56,1.74-1,3.51-1.43,5.3-.81,3.58-1.44,7.2-2,10.83-1.13,7.25-2,14.55-2.69,21.86-.34,3.65-.63,7.31-.86,11-.18,3.07-.33,6.17-.28,9.2,5.93.9,12.2.59,18.14.39a139.29,139.29,0,0,0,19-1.57c2.83-.49,3.2-.31,1.75-3-1.37-2.56-4.41-3.86-7-4.74-2.38-.8-4.85-1.21-7.28-1.83-1-.24-2.67-.48-3.21-1.5-.69-1.32.33-2,1.29-2.74,4.15-3,8.74-5.13,12.74-8.42a70.11,70.11,0,0,0,17.73-22c8.66-16.76,10.47-36.26,8.63-54.82a234.39,234.39,0,0,0-7.58-39.12c-.49-.5-1-1-1.44-1.52-3.22-3.5-6.14-7.18-9.13-10.8s-6-7.21-9.18-10.62a96.44,96.44,0,0,0-10.18-9.62,58.36,58.36,0,0,0-11.87-7.45,53.66,53.66,0,0,1,12.29,6.9,90.72,90.72,0,0,1,10.67,9.29c3.32,3.36,6.44,6.89,9.52,10.44s6.1,7.15,9.32,10.49a43.78,43.78,0,0,0,5.09,4.59c1.79,1.31,3.81,2.37,5.76,2.29s3.7-1.35,5.09-3a12.24,12.24,0,0,0,2.81-5.7,13.75,13.75,0,0,0,.15-3.21,18.22,18.22,0,0,0-.58-3.24,27.77,27.77,0,0,0-2.61-6.21,52.57,52.57,0,0,0-8.27-10.9l-2.36-2.41,3.36.35a13.5,13.5,0,0,0,3,0,12.87,12.87,0,0,0,3-.71,8.93,8.93,0,0,0,5.18-5,8.41,8.41,0,0,0,.49-1.44,9.34,9.34,0,0,0,.4-2.95,9.6,9.6,0,0,0-2.2-5.49A19.79,19.79,0,0,0,490.79,222Z"/><polygon fill="#725e47"  points="238.45 351.44 238.45 351.44 238.45 351.44 238.45 351.44"/><polygon fill="#725e47"  points="238.45 351.44 238.45 351.44 238.45 351.44 238.45 351.44"/><path d="M497.23,224.9a22,22,0,0,0-5.29-4.6,40.52,40.52,0,0,0-6.08-3.19,69.58,69.58,0,0,0-11.22-3.63,8.3,8.3,0,0,0,.69-.64,6.68,6.68,0,0,0,1.54-2.45,5.24,5.24,0,0,0,.09-3,6.53,6.53,0,0,0-.55-1.33c-.11-.21-.22-.42-.34-.63l-.43-.57a7.56,7.56,0,0,0-1-1l-.6-.39a2.5,2.5,0,0,0-.62-.34l-.65-.29-.67-.2a10.21,10.21,0,0,0-1.36-.26,16.83,16.83,0,0,0-5.31.42,45.43,45.43,0,0,0-9.62,3.54c-.94-2.11-1.88-4.23-2.83-6.33-5.38-11.89-11.09-23.62-17-35.27-5-9.84-9.93-19.56-16.41-28.51-11.52-15.93-26.34-29.79-43.66-39.21a99.24,99.24,0,0,0-25.59-9.74c.15-10.38-6.24-28.95-10-39.75-.46-1.35-.88-2.56-1.23-3.6A2.28,2.28,0,0,0,337,42.38h0a2.27,2.27,0,0,0-2.17,1.53l-.29.83c-3.34,9.44-10.3,29.17-10.49,40.92-.61.06-1.23.12-1.84.2-21.44,2.82-39.91,14.9-54.47,30.44-16.54,17.64-29.32,39.12-40.36,60.51q-6.93,13.44-12.77,27.42a35,35,0,0,0-4.64-1.41,16.87,16.87,0,0,0-5.32-.42,10.37,10.37,0,0,0-1.35.26l-.67.2-.65.29a2.5,2.5,0,0,0-.62.34l-.6.39a7.56,7.56,0,0,0-1,1l-.43.57c-.12.21-.23.42-.34.63a6.53,6.53,0,0,0-.55,1.33,5.15,5.15,0,0,0,.09,3,6.68,6.68,0,0,0,1.54,2.45c.22.23.45.44.68.64a69.79,69.79,0,0,0-11.21,3.63,40.52,40.52,0,0,0-6.08,3.19,21.79,21.79,0,0,0-5.29,4.6,11,11,0,0,0-2.33,10.41,10.62,10.62,0,0,0,.57,1.73,9.58,9.58,0,0,0,.84,1.66,11.27,11.27,0,0,0,5.65,4.68,15.06,15.06,0,0,0,3.53.87l.7.07q-1.45,1.62-2.79,3.35a48,48,0,0,0-4,6,30.45,30.45,0,0,0-2.79,6.76,20.64,20.64,0,0,0-.64,3.69,15.65,15.65,0,0,0,.2,3.8,14.19,14.19,0,0,0,3.37,6.77,12.53,12.53,0,0,0,2.9,2.55,7.5,7.5,0,0,0,3.88,1.19,9,9,0,0,0,3.88-.86,13.85,13.85,0,0,0,1.27-.66c-.33,1.63-.64,3.26-.95,4.89-3.17,17.45-5.49,35.24-5,53a94.62,94.62,0,0,1-16-.69l-3.47-.49-.28,0c-.63-.78-1.27-1.56-1.89-2.35-3-3.89-6-7.87-8.62-12a120,120,0,0,1-7.26-12.83,89.37,89.37,0,0,1-5.35-13.68l-.22-.73-.75.19a41.65,41.65,0,0,0-8.41,3.17,49.49,49.49,0,0,0-7.61,4.76,56.57,56.57,0,0,0-6.66,6,50.11,50.11,0,0,0-5.64,7l-.47.71.73.52c1.16.83,2.33,1.73,3.47,2.65s2.26,1.86,3.36,2.83,2.41,2.19,3.57,3.32l-.56-.22c-1.39-.58-2.77-1.22-4.13-1.89-2.73-1.35-5.43-2.8-8.07-4.32l-.57-.33-.48.41a41.77,41.77,0,0,0-10.5,14.35,32.6,32.6,0,0,0-2.44,8.61,30.3,30.3,0,0,0,.09,9l0,.35.3.2a58.6,58.6,0,0,0,18,7.64,101.73,101.73,0,0,0,19.3,2.78,146.09,146.09,0,0,0,18.6-.28c2.7,2.18,5.48,4.26,8.37,6.18,2,1.36,4,2.59,6,3.85s4.1,2.41,6.22,3.49,4.24,2.17,6.38,3.2,4.33,1.95,6.54,2.82c3.63,1.47,7.33,2.8,11.06,4a52.68,52.68,0,0,0,20.45,18.24c.92.46,1.85.89,2.79,1.3a8.08,8.08,0,0,0,1.25.53l.49.2c-.49.16-1,.36-1.45.52-1.7.59-3.42,1.12-5.11,1.73-3.31,1.18-9.12,3.11-6.74,7.74,2.05,4,8.63,4.74,12.48,5.27a123.86,123.86,0,0,0,19.35.87c1.42,0,3.5.11,5.55,0a11.11,11.11,0,0,1-.29,1.17,3.58,3.58,0,0,1-.45,1,4.41,4.41,0,0,1-.76.81,21.09,21.09,0,0,1-4.85,2.41,17.24,17.24,0,0,0-2.77,1.41,5.53,5.53,0,0,0-2.32,2.74,6.26,6.26,0,0,0,2,6.48,12.12,12.12,0,0,0,2.61,1.84,18.91,18.91,0,0,0,2.81,1.24,23.18,23.18,0,0,0,2.93.82,24.52,24.52,0,0,0,3,.44,49.13,49.13,0,0,0,11.81-.33,38.87,38.87,0,0,0,5.81-1.31,17.28,17.28,0,0,0,5.37-3,25.06,25.06,0,0,0,7.12-9.57,14.75,14.75,0,0,0,.55-1.41,14,14,0,0,0,.44-1.45c.26-1,.46-1.91.66-2.87.29-1.43.55-2.86.81-4.29l.3.07c22.74,4.89,46.18,7.77,69.47,6.66a158.82,158.82,0,0,0,31.66-4.54c2.08-.53,4.14-1.13,6.19-1.78a28.59,28.59,0,0,0,3.45,8.39,21.75,21.75,0,0,0,8.19,8c.44.21.87.45,1.34.62l.68.28.71.22c.94.3,1.84.5,2.76.72a48.37,48.37,0,0,0,5.59.85,45.35,45.35,0,0,0,11.33-.32,22.76,22.76,0,0,0,5.54-1.76,14.59,14.59,0,0,0,2.58-1.55,8.47,8.47,0,0,0,2.18-2.31,6.66,6.66,0,0,0,1-3.22,4.9,4.9,0,0,0-1.17-3.36,8,8,0,0,0-2.59-1.91,28.06,28.06,0,0,0-2.65-1.13,18.89,18.89,0,0,1-4.67-2.19,4.72,4.72,0,0,1-.79-.75,2.17,2.17,0,0,1-.42-.81,7,7,0,0,1-.21-1.18c0-.17,0-.35,0-.53l1.21.13a142.74,142.74,0,0,0,21.19.05c5.56-.29,11.6-.36,17-1.79,4.09-1.08,2.58-5.48.27-8-3.66-4-9.54-4.72-14.51-6a4.42,4.42,0,0,1-.48-.15c.34-.21.64-.43.79-.51q2.13-1.2,4.2-2.52a75.15,75.15,0,0,0,11.24-8.8c13.4-12.74,20.75-30.16,23-48.32,2.66-21.2-1.42-42.6-6.74-63.09l.74.59a16.65,16.65,0,0,0,3.21,2,9,9,0,0,0,3.88.86,7.5,7.5,0,0,0,3.88-1.19,12.53,12.53,0,0,0,2.9-2.55,14.19,14.19,0,0,0,3.37-6.77,16.72,16.72,0,0,0,.2-3.8,20.64,20.64,0,0,0-.64-3.69,30,30,0,0,0-2.8-6.76,46.83,46.83,0,0,0-4-6q-1.33-1.72-2.79-3.35l.7-.07a15.19,15.19,0,0,0,3.53-.87,11.27,11.27,0,0,0,5.65-4.68A9.53,9.53,0,0,0,499,237a9.77,9.77,0,0,0,.58-1.73,11,11,0,0,0-2.33-10.41ZM336,45.28l.29-.82a.62.62,0,0,1,.64-.45.64.64,0,0,1,.64.46c.35,1.05.77,2.26,1.24,3.61,3.42,9.91,9.93,28.8,9.91,38.88a81.16,81.16,0,0,0-23.13-1.48C325.88,74,333,53.84,336,45.28ZM136,358.7a100,100,0,0,1-19-3,58,58,0,0,1-17.14-7.5,28.69,28.69,0,0,1,0-8.12,31,31,0,0,1,2.37-8.15,38.23,38.23,0,0,1,4.31-7.36,40.47,40.47,0,0,1,5.3-5.85c2.49,1.44,5,2.81,7.57,4.1,1.38.69,2.79,1.35,4.23,2a23.2,23.2,0,0,0,4.58,1.5l2.95.56-2.09-2.17q-3.11-3.24-6.48-6.17c-1.12-1-2.27-1.94-3.44-2.87-.93-.74-1.88-1.46-2.85-2.17a50.44,50.44,0,0,1,4.9-6.07,54.65,54.65,0,0,1,6.42-5.84,47.73,47.73,0,0,1,7.31-4.64A41.58,41.58,0,0,1,142.3,294,91,91,0,0,0,147.7,307a120.33,120.33,0,0,0,7.54,12.85,144.07,144.07,0,0,0,8.89,11.92c.45.54.91,1.07,1.36,1.6l-.24,0-1.7-.37-3.42-.74-3.45-.85a137.43,137.43,0,0,0-14-2.82,36,36,0,0,0-3.63-.32,15.6,15.6,0,0,0-3.81.27,5.91,5.91,0,0,0-2,.82,3.53,3.53,0,0,0-1.5,2.08,4.64,4.64,0,0,0,0,2.32,9,9,0,0,0,.68,1.89,31.86,31.86,0,0,0,4.09,6.12c1.52,1.86,3.11,3.63,4.74,5.37a143,143,0,0,0,12.6,11.76A155.94,155.94,0,0,1,136,358.7Zm52.78,18.56A134.93,134.93,0,0,1,143,345.44c-1.61-1.7-3.18-3.43-4.65-5.22a29.91,29.91,0,0,1-3.8-5.6A4.4,4.4,0,0,1,134,332a1.18,1.18,0,0,1,.53-.72,3.65,3.65,0,0,1,1.24-.48,13.45,13.45,0,0,1,3.22-.22c1.13,0,2.27.12,3.42.26a138,138,0,0,1,13.78,2.61l3.44.81,3.51.7,1.76.33.88.17.89.11,3.55.42a97,97,0,0,0,16.25.32c.56,15.3,3.29,31.21,11.28,44.47Q193.22,379.18,188.8,377.26ZM497.32,234.7a8.41,8.41,0,0,1-.49,1.44,8.93,8.93,0,0,1-5.18,5,12.87,12.87,0,0,1-3,.71,13.5,13.5,0,0,1-3,0l-3.36-.35,2.36,2.41a52.57,52.57,0,0,1,8.27,10.9,27.77,27.77,0,0,1,2.61,6.21,18.22,18.22,0,0,1,.58,3.24,13.75,13.75,0,0,1-.15,3.21,12.24,12.24,0,0,1-2.81,5.7c-1.39,1.66-3.14,3-5.09,3s-4-1-5.76-2.29a43.78,43.78,0,0,1-5.09-4.59c-3.22-3.34-6.24-6.94-9.32-10.49s-6.2-7.08-9.52-10.44a90.72,90.72,0,0,0-10.67-9.29,53.66,53.66,0,0,0-12.29-6.9,58.36,58.36,0,0,1,11.87,7.45,96.44,96.44,0,0,1,10.18,9.62c3.2,3.41,6.21,7,9.18,10.62s5.91,7.3,9.13,10.8c.47.51.95,1,1.44,1.52a234.39,234.39,0,0,1,7.58,39.12c1.84,18.56,0,38.06-8.63,54.82a70.11,70.11,0,0,1-17.73,22c-4,3.29-8.59,5.43-12.74,8.42-1,.7-2,1.42-1.29,2.74.54,1,2.24,1.26,3.21,1.5,2.43.62,4.9,1,7.28,1.83,2.61.88,5.65,2.18,7,4.74,1.45,2.72,1.08,2.54-1.75,3a139.29,139.29,0,0,1-19,1.57c-5.94.2-12.21.51-18.14-.39-.05-3,.1-6.13.28-9.2.23-3.65.52-7.31.86-11,.71-7.31,1.56-14.61,2.69-21.86.56-3.63,1.19-7.25,2-10.83.4-1.79.87-3.56,1.43-5.3a22.64,22.64,0,0,1,1-2.57,8.29,8.29,0,0,1,.63-1.22,5.8,5.8,0,0,1,.84-1.08l-.39.39a3.94,3.94,0,0,0-.52.64,9,9,0,0,0-.73,1.19,22.85,22.85,0,0,0-1.14,2.52c-.67,1.73-1.22,3.5-1.71,5.27-1,3.56-1.81,7.16-2.55,10.78-1.43,7.24-2.54,14.54-3.41,21.87-.44,3.66-.82,7.33-1.1,11a111.25,111.25,0,0,0-.43,11.16c0,.47.05.95.11,1.46a7.6,7.6,0,0,0,.27,1.53,4,4,0,0,0,.33.86,8.61,8.61,0,0,0,.49.77,7.28,7.28,0,0,0,1.2,1.16,20.92,20.92,0,0,0,5.25,2.55c1.67.65,3.38,1.34,4.25,2.37a2.16,2.16,0,0,1,.46.8,2.58,2.58,0,0,1,.13.94,4,4,0,0,1-.62,2,6.62,6.62,0,0,1-1.73,1.78,5.51,5.51,0,0,0-.22-3.53,6.67,6.67,0,0,0-2.74-3.23,8.24,8.24,0,0,0-1.92-.76,12,12,0,0,0-1.85-.43,16,16,0,0,0-3.82-.26,16,16,0,0,0,3.21,2.08c.54.29,1.16.53,1.65.78a15.73,15.73,0,0,1,1.47.69,8.5,8.5,0,0,1,2.32,2.06,11.21,11.21,0,0,1,1.72,3.09l-.23-.2a13,13,0,0,1-1.59.89,20.46,20.46,0,0,1-4.93,1.6,36.06,36.06,0,0,1-3.93.42,2.53,2.53,0,0,0,.64-1.21,3.44,3.44,0,0,0-.21-2.07,7.15,7.15,0,0,0-2.45-2.88,10.89,10.89,0,0,0-3.17-1.65,8.07,8.07,0,0,0-3.56-.35c.93.8,1.83,1.43,2.71,2.07l2.56,1.88a15.8,15.8,0,0,1,2.24,1.87,3.45,3.45,0,0,1,.69,1.14,2.61,2.61,0,0,1,.07,1.56l-.3-.31a54.21,54.21,0,0,1-6-.1,45.54,45.54,0,0,1-5.33-.74c-.87-.18-1.77-.37-2.59-.62l-.61-.18-.6-.24c-.4-.14-.78-.34-1.17-.52a20.4,20.4,0,0,1-7.56-7.1,27.22,27.22,0,0,1-2.44-4.74,30.8,30.8,0,0,1-1.5-5.15c-.75-3.54-1.07-7.21-1.68-10.87-.31-1.84-.71-3.64-1.09-5.44s-.76-3.6-1.25-5.4a30.78,30.78,0,0,0-2-5.16c-.77-1.67-1.5-3.36-2.22-5.06h0c.6,1.74,1.21,3.48,1.87,5.2a31.91,31.91,0,0,1,1.75,5.18c.39,1.78.67,3.6,1,5.41s.6,3.64.82,5.44c.44,3.57.65,7.19,1.26,10.83q-3.74,1.17-7.55,2.11c-21.54,5.3-44.21,5.26-66.16,2.89a314.76,314.76,0,0,1-33-5.43c.6-3.46,1.22-6.9,1.95-10.33a113,113,0,0,1,2.85-11.14c.57-1.84,1.24-3.63,2-5.41.39-.88.77-1.76,1.17-2.63l1.35-2.56a49.09,49.09,0,0,0-5.09,10.39,112.5,112.5,0,0,0-3.41,11.08c-.95,3.75-1.74,7.53-2.53,11.3-.41,1.88-.79,3.77-1.22,5.63-.21.92-.43,1.85-.7,2.74a12.37,12.37,0,0,1-.43,1.3,11.41,11.41,0,0,1-.53,1.27,25.65,25.65,0,0,1-2.87,4.75,20.38,20.38,0,0,1-3.84,3.92A14.83,14.83,0,0,1,267,436a36.94,36.94,0,0,1-5.46,1.14,47.63,47.63,0,0,1-8.69.41l-.3.31h0a2.58,2.58,0,0,1,.07-1.55,3.35,3.35,0,0,1,.69-1.14,15.8,15.8,0,0,1,2.24-1.87l2.56-1.88c.88-.64,1.78-1.28,2.71-2.08a7.93,7.93,0,0,0-3.56.36,10.86,10.86,0,0,0-3.17,1.64,7.25,7.25,0,0,0-2.45,2.89,3.43,3.43,0,0,0-.21,2.07,2.53,2.53,0,0,0,.63,1.2c-.58,0-1.17-.06-1.76-.12a21.56,21.56,0,0,1-2.71-.41,21.89,21.89,0,0,1-2.63-.75,17,17,0,0,1-2.46-1.1c-.3-.16-.58-.35-.87-.53l-.24.2h0a11.15,11.15,0,0,1,1.72-3.08,8.5,8.5,0,0,1,2.32-2.06,15.73,15.73,0,0,1,1.47-.69c.49-.25,1.11-.49,1.65-.78a16,16,0,0,0,3.21-2.08,15.52,15.52,0,0,0-3.82.25,14.88,14.88,0,0,0-1.85.43,8.76,8.76,0,0,0-1.92.77,6.63,6.63,0,0,0-2.74,3.23,5.52,5.52,0,0,0-.23,3.51,8.54,8.54,0,0,1-.79-.65,5,5,0,0,1-1.32-1.88l-.15-.51a3.76,3.76,0,0,1-.07-.55,2.44,2.44,0,0,1,.12-1c.37-1.16,2.06-2,3.76-2.76.86-.37,1.77-.73,2.68-1.16a11.64,11.64,0,0,0,2.73-1.64,6.24,6.24,0,0,0,1.2-1.3,4.54,4.54,0,0,0,.45-.81,3.83,3.83,0,0,0,.17-.43l.13-.38a14,14,0,0,0,.55-3.08c.15-2,.1-3.95.09-5.88s0-3.84,0-5.76c0-3.85,0-7.71-.07-11.57a136.93,136.93,0,0,0-2.14-23.11,56.9,56.9,0,0,0-3.33-11.14,30.09,30.09,0,0,0-2.8-5.1,18.64,18.64,0,0,0-4-4.21h0a18.41,18.41,0,0,1,3.66,4.4,30.88,30.88,0,0,1,2.5,5.14,56.43,56.43,0,0,1,2.76,11.11A149.87,149.87,0,0,1,248.78,395c0,3.83-.11,7.67-.17,11.53,0,1.92-.05,3.87-.06,5.79,0,1.51,0,3-.08,4.48-1.06,0-2.14,0-3.12.05a152.3,152.3,0,0,1-17.49-.29c-3.09-.26-14-.56-15-4.78-.92-3.7,11.23-5.38,13.7-6.89,1.07-.66,1.92-1.44,1.08-2.7-.51-.76-2.12-1-2.87-1.3a54.83,54.83,0,0,1-7-3.46C188.06,380,186.9,340,189.85,309.68c.89-9.12,2.27-18.19,3.91-27.2q.72-3.83,1.52-7.62a44.06,44.06,0,0,0,4.28-4.13c3.22-3.5,6.14-7.18,9.12-10.8s6-7.21,9.19-10.62a96.44,96.44,0,0,1,10.18-9.62,58.36,58.36,0,0,1,11.87-7.45,53.66,53.66,0,0,0-12.29,6.9A90.72,90.72,0,0,0,217,248.43c-3.32,3.36-6.44,6.89-9.52,10.44s-6.1,7.15-9.33,10.49A42.21,42.21,0,0,1,193,274c-1.78,1.31-3.81,2.37-5.76,2.29s-3.69-1.35-5.08-3a12.15,12.15,0,0,1-2.81-5.7,13.75,13.75,0,0,1-.15-3.21,18.22,18.22,0,0,1,.58-3.24,27.77,27.77,0,0,1,2.61-6.21,52.57,52.57,0,0,1,8.27-10.9l2.36-2.41-3.36.35a13.5,13.5,0,0,1-3,0,12.87,12.87,0,0,1-3-.71,8.93,8.93,0,0,1-5.18-5,8.41,8.41,0,0,1-.49-1.44,9.34,9.34,0,0,1-.4-2.95,9.6,9.6,0,0,1,2.2-5.49,19.79,19.79,0,0,1,4.73-4.22,42.86,42.86,0,0,1,5.72-3.15,69.11,69.11,0,0,1,12.51-4.26l2.08-.49-1.88-1a6.54,6.54,0,0,1-3.12-3.22,3.85,3.85,0,0,1-.13-2.13,5.32,5.32,0,0,1,.42-1.06l.26-.52.34-.47a6,6,0,0,1,4-2.15,15.72,15.72,0,0,1,5,.19,44.58,44.58,0,0,1,9.73,3.15,91.44,91.44,0,0,1,9.21,4.67,79.71,79.71,0,0,0-9-5.16c-.94-.45-1.89-.88-2.84-1.29a370.8,370.8,0,0,1,30.39-57.89c12.3-19.09,26.9-37.83,46.93-49.28A77.51,77.51,0,0,1,352,90.15c18.78,4.74,35.68,15.5,49.5,28.87,15.58,15.07,25.53,33.13,35.1,52.33,5.94,11.91,11.68,23.94,17.05,36.12a79.37,79.37,0,0,0-6.95,4.12,91.28,91.28,0,0,1,9.2-4.67,44.84,44.84,0,0,1,9.74-3.15,15.72,15.72,0,0,1,5-.19,6,6,0,0,1,4,2.15l.34.47.26.52a4.74,4.74,0,0,1,.41,1.06,3.76,3.76,0,0,1-.12,2.13,6.54,6.54,0,0,1-3.12,3.22l-1.88,1,2.08.49a68.75,68.75,0,0,1,12.5,4.26,42.37,42.37,0,0,1,5.73,3.15,19.79,19.79,0,0,1,4.73,4.22,9.6,9.6,0,0,1,2.2,5.49A9.34,9.34,0,0,1,497.32,234.7Z"/>    </g>    <g id="eye">        <g id="eye-color1">            <g opacity="0" ><path fill="#AED4D2"  d="M284,132c-.14.46-.21.94-.36,1.4a15.33,15.33,0,0,1-1.35,2.87c-.52.94-1,1.89-1.54,2.83-.24.41-.5.8-.77,1.2-.14.2-.28.41-.43.61s-.45.47-.45.6l-.6.74c-5.88,7-13.9,9.8-22.69,6.54-8.54-3.18-14.21-10.41-14.65-19.54a1.27,1.27,0,0,1,0-.28,1,1,0,0,1,0-.3,23.29,23.29,0,0,1,19-21.81,18.93,18.93,0,0,1,11.42,1.35c-15.29-7.7-34.35-2.93-39.29,15.33a20.54,20.54,0,0,0-.66,6.53,29.36,29.36,0,0,0,10.48,20.24c8.59,7.08,21.5,6.67,31,1.76,7.19-3.69,10-12.6,10.92-20.45C284.09,131.73,284.05,131.85,284,132Z"/></g><g opacity="0" ><path fill="#AED4D2"  d="M407.76,125.92c-.24.62-.44,1.25-.69,1.86a25.27,25.27,0,0,1-2,3.66,30.31,30.31,0,0,1-2.53,3.43c-5.89,7-13.91,9.8-22.7,6.54-8.53-3.18-14.2-10.41-14.65-19.54a2.46,2.46,0,0,1,0-.28,2.66,2.66,0,0,1,0-.3,23.3,23.3,0,0,1,19-21.81,19,19,0,0,1,11.42,1.35c-15.3-7.7-34.36-2.93-39.3,15.33a20.83,20.83,0,0,0-.66,6.53,29.4,29.4,0,0,0,10.48,20.24c8.59,7.08,21.5,6.67,31,1.77,6.91-3.55,9.73-12,10.77-19.66C407.93,125.29,407.86,125.67,407.76,125.92Z"/></g>        </g>        <g id="eye-shape">            <path d="M220.75,186a1.18,1.18,0,0,0,1.6.57,1.45,1.45,0,0,0,.22-.09l.13-.05c5-2.07,10.08-4.56,15.26-6.22,3.31-1.06,3.64.38,5.91,2.67a44.14,44.14,0,0,0,4.66,4.09,36.62,36.62,0,0,0,21.08,7.5A40.09,40.09,0,0,0,302.52,178a47.31,47.31,0,0,0,8.57-21.65c.17-1.32-.41-5.8,0-6.7.49-1.08,5.79-2.53,7-3.07q6.13-2.68,12.24-5.42c14.58-6.53,28.85-13.74,43.36-20.39-12.56,12.13-13.22,31.28-7.45,47,5.88,16,19.05,32.15,37.53,32.1,19.25,0,36.3-15.42,41.63-33.35a41.26,41.26,0,0,0-.64-25.69c-4.67-12.92-14.66-21.38-27.25-26.38a56,56,0,0,0-15.7-3.82,35.23,35.23,0,0,0-11.07.8,6.64,6.64,0,0,0,1.47-2.13c.82-1.43-2.23-5.33-4.37-6.75-1.28-.85-2.49-1.72-3.74-2.59-1.45-1-3.4-2.08-5.13-1l-.48.29c-.63.34,1.27-.77.66-.38l-.42.26-.07.06-.41.25c-1.09.66-1.19.81-2.29,1.45q-6.74,3.94-13.64,7.6t-13.91,7.07q-7,3.43-14.12,6.66T320,128.51l-7.17,3.08-3.6,1.53-1.8.76-.68.29a47.33,47.33,0,0,0-23.92-20c-10.67-4-21.54-2.34-32,1.64-8.55,3.27-16.29,8.76-19.73,17.55-4.18,10.7-2.3,22.95,2,33.34-2.1.79-5.22,1.8-6.39,3.05-.86.91-1,2.44-1.5,3.6-1.53,3.81-3.67,7.41-4.75,11.39A1.37,1.37,0,0,0,220.75,186Zm177.69,10.38a27.23,27.23,0,0,1-3-.76c-15.37-4.81-25.15-21.23-28.48-36.16-3.52-15.83.68-32.76,15.31-41.4,7.82-4.63,16.25-5.48,25.07-3.61a57.25,57.25,0,0,1,13.79,4.85c2.73,1.38,5.12,3.33,7.81,4.73,15.12,11.6,19.3,31.46,10.93,48.47A46.83,46.83,0,0,1,420,192.85C413.3,196.3,405.84,197.86,398.44,196.39Z"/><path fill="none"  d="M420,192.85c-6.65,3.45-14.11,5-21.51,3.54A34.2,34.2,0,0,0,420,192.85Z"/><path fill="#fff"  d="M420,192.85a46.83,46.83,0,0,0,19.9-20.34c8.37-17,4.19-36.87-10.93-48.47-2.69-1.4-5.08-3.35-7.81-4.73a57.25,57.25,0,0,0-13.79-4.85c-8.82-1.87-17.25-1-25.07,3.61-14.63,8.64-18.83,25.57-15.31,41.4,3.33,14.93,13.11,31.35,28.48,36.16a27.23,27.23,0,0,0,3,.76A34.2,34.2,0,0,0,420,192.85Zm-26.34-15.24c-11.38.59-16.79-10.33-18.41-20.36a44.34,44.34,0,0,1-.51-5c-.3-7.3,2.38-13.24,7.29-16.52a9,9,0,0,0-.43,3.91c.41,4.09,2.62,8.82,7.42,8.37,4.1-.38,7.16-3.89,7.81-7.77a1.5,1.5,0,0,0,.07-.44,1.39,1.39,0,0,0,0-.46,7.59,7.59,0,0,0-3.6-6.3c.26,0,.52,0,.78,0,12.33,1.17,22.05,8.79,21.92,21.78a1.93,1.93,0,0,1,0,.34,1.74,1.74,0,0,1-.05.34C414.59,166.59,405.14,177,393.61,177.61Z"/><path fill="#212121"  d="M229.91,170.54c1.58-1.22,4.13-1.9,6-2.73.8-.37.84-.37.54-1.06-4.54-10.3-6.81-23.53-1.64-34.07,3.81-7.77,11.52-12.22,19.46-14.87,9.27-3.09,18.49-4.27,27.86-.75a44.26,44.26,0,0,1,22.77,19.75,1.52,1.52,0,0,0,1.69.69c26.57-11.17,51.35-21.56,76-36.52a8.79,8.79,0,0,1-.83.5c.41.33.86.74,1.38,1.23,2.39,2.25,6.5,5.47,6.5,5.47-1.56,2.89-5.24,4.51-8.1,5.84-7.2,3.33-14.36,6.75-21.52,10.17q-25.26,12.06-51,23.12a1.43,1.43,0,0,0-.74,1.29c1,17-8.77,35.27-24.92,41.48-15.64,6-31.17-.05-41.29-12.78a1.45,1.45,0,0,0-1.46-.39c-5.4,2.21-11.8,4.41-17.2,6.61,1-2.47,2.25-5.85,3.28-8.3A12.85,12.85,0,0,1,229.91,170.54Z"/><path d="M375.2,157.25a44.34,44.34,0,0,1-.51-5c-.3-7.3,2.38-13.24,7.29-16.52a9,9,0,0,0-.43,3.91c.41,4.09,2.62,8.82,7.42,8.37,4.1-.38,7.16-3.89,7.81-7.77a1.5,1.5,0,0,0,.07-.44,1.39,1.39,0,0,0,0-.46,7.59,7.59,0,0,0-3.6-6.3c.26,0,.52,0,.78,0,12.33,1.17,22.05,8.79,21.92,21.78a1.93,1.93,0,0,1,0,.34,1.74,1.74,0,0,1-.05.34c-1.29,11-10.74,21.44-22.27,22S376.82,167.28,375.2,157.25Z"/>        </g>        <g id="eye-color2">            <path fill="#ED58D0"  d="M393.5,177.61c11.53-.6,21-11,22.27-22a1.22,1.22,0,0,0,0-.34,1,1,0,0,0,0-.34c.14-13-9.58-20.61-21.91-21.78-.27,0-.52,0-.79,0L393,133c1.07.65,5.12-.1,6.52,0a40.67,40.67,0,0,1,7.18,1.22,32,32,0,0,1,12.74,6.42c17.28,14.9,1.45,40.58-18,42.56-9.1.92-17.64-3-21.82-11.29a44.28,44.28,0,0,1-4.49-14.67C376.71,167.28,382.12,178.2,393.5,177.61Z"/>        </g>    </g>    <g id="nose-mouth">        <path opacity="0.1"  d="M367.82,297.69a93,93,0,0,1-30.44,6.94,85.46,85.46,0,0,1-31-4.14,84.26,84.26,0,0,1-14.33-6.2,76.27,76.27,0,0,1-9.36-6.1c2.4,2.63,4.45,5.77,6.92,8.16,3.8,3.67,8.49,6.2,13.19,8.53,10.57,5.23,22.35,8.58,34.23,7.63a75.58,75.58,0,0,0,31.11-9.9A110.77,110.77,0,0,0,382.3,293c4.34-3.43,7.86-8,12.62-10.87l-1.35.8A112.58,112.58,0,0,1,367.82,297.69Z"/><path opacity="0.1"  d="M307.1,298.26A94.36,94.36,0,0,0,322,301.18c1.34.14,2.68.27,4,.36-1.25-.09-2.5-.21-3.74-.35a93.9,93.9,0,0,1-14.94-2.91A97.2,97.2,0,0,1,293,293a83.1,83.1,0,0,1-13.37-7.61,14.92,14.92,0,0,1,1.25,1A85.69,85.69,0,0,0,292.75,293,98,98,0,0,0,307.1,298.26Z"/><path d="M306.42,300.49a85.46,85.46,0,0,0,31,4.14,93,93,0,0,0,30.44-6.94,112.58,112.58,0,0,0,25.75-14.76l1.08-.81A156,156,0,0,1,367,295.51c-2.38.91-4.84,1.58-7.27,2.35-1.21.39-2.46.64-3.69,1s-2.46.64-3.71.85l-3.74.73-3.77.55c-1.25.21-2.52.31-3.78.41s-2.52.26-3.79.27a80.09,80.09,0,0,1-11.17-.09c-1.34-.09-2.68-.22-4-.36a94.36,94.36,0,0,1-14.94-2.92A98,98,0,0,1,292.75,293a85.69,85.69,0,0,1-11.84-6.58c-.51-.34-1-.67-1.52-1,1.06,1,2.18,1.93,3.34,2.82a76.27,76.27,0,0,0,9.36,6.1A84.26,84.26,0,0,0,306.42,300.49Z"/><path fill="#fff"  d="M271.27,232.47a21.39,21.39,0,0,0-2.41-1.6,7.29,7.29,0,0,0-1.16-.53,1.75,1.75,0,0,0-.73-.13,2.31,2.31,0,0,0-.62.43,7.59,7.59,0,0,0-.89,1,22.67,22.67,0,0,0-1.65,2.41c-1.09,1.69-2,3.5-3,5.31-1.77,3.35-3.5,6.77-5.35,10.17q10.89-2.72,21.89-5,3-.63,6.08-1.21c-2.52-2.33-5-4.67-7.48-6.93C274.39,235,272.87,233.66,271.27,232.47Z"/><path fill="#fff"  d="M400.86,230.35c-1.06-3-2.09-6-3.4-8.89a25.86,25.86,0,0,0-2.15-4A6,6,0,0,0,394,216a1.13,1.13,0,0,0-.47-.23.88.88,0,0,0-.44.07,6.48,6.48,0,0,0-1.69.94,20.73,20.73,0,0,0-1.74,1.44c-1.14,1-2.21,2.19-3.3,3.34-2.16,2.32-4.18,4.8-6.22,7.27-3.81,4.69-2,2.21-5.77,7,1.16.05-3.21-.13-2.06-.06a175.6,175.6,0,0,1,23.77,2.83c2,.41,3.92.75,5.85,1.28l2.43.62C402.69,235.05,402.8,236.15,400.86,230.35Z"/><path fill="#fff"  d="M295.92,235.22a4.23,4.23,0,0,0-1-.56c-.12,0-.21-.06-.21,0s0,0-.06,0a4.54,4.54,0,0,0-.77.66c-.29.31-.59.67-.89,1-.58.76-1.15,1.58-1.73,2.41-.82,1.17-1.64,2.37-2.55,3.55q6-1.08,12.09-2l.12,0c-1-1.05-2-2.1-2.93-3.09A20.67,20.67,0,0,0,295.92,235.22Z"/><path fill="#fff"  d="M346.48,213c1.74-4.48-10.08-8.82-13.86-2.83C329.75,214.7,344.27,218.67,346.48,213Z"/><path d="M413.44,243.23c-1.88-.66-3.8-1.21-5.69-1.83l-1.38-.4-1.3-.36c-.19-1.74-.29-2.88-.39-3.75-.24-2.31-.37-2.7-1.55-7.22a79,79,0,0,0-3-9.35,28.32,28.32,0,0,0-2.35-4.53,9,9,0,0,0-1.92-2.16,4.27,4.27,0,0,0-1.7-.8,3.71,3.71,0,0,0-1.93.18,9.36,9.36,0,0,0-2.51,1.41,23.09,23.09,0,0,0-2,1.67,44.61,44.61,0,0,0-3.42,3.61c-2.12,2.51-4.1,5.08-6,7.75-2.21,3.15-2.67,3.49-3.42,4.63-.44.69-1,1.65-2.07,3.68l-2.69-.1c-6.71-.2-15.83-.3-21.75-.11-4.91.19-9.82.49-14.72.86l-.59-7.11c7.85-1,19.6-7.09,23.53-13.63,1.58-2.62,1.83-5.22.75-7.52-3.4-7.23-18.09-9-30.83-7s-21,7.11-21.89,13.7h0c-.22,1.64.47,3.34,2.05,5.06,4.47,4.87,15.59,9.33,23.39,9.55l.6,7.21q-3.07.26-6.15.56-11.37,1.22-22.68,2.92a22.07,22.07,0,0,0-2.06-4.34,13.76,13.76,0,0,0-2.08-2.65,6.12,6.12,0,0,0-1.63-1.15,3.45,3.45,0,0,0-1.3-.31,2.59,2.59,0,0,0-.78.08,5.05,5.05,0,0,0-.66.25,5.37,5.37,0,0,0-1.62,1.3,10.24,10.24,0,0,0-1.06,1.39,17.56,17.56,0,0,0-1.52,2.91,21.93,21.93,0,0,0-1.42,4.91l-3.73.7a69,69,0,0,0-6.45-8.44,45.66,45.66,0,0,0-4.53-4.48,19.62,19.62,0,0,0-2.69-2,9.72,9.72,0,0,0-1.65-.79,4.32,4.32,0,0,0-2.32-.24,4.23,4.23,0,0,0-2,1.15,12.05,12.05,0,0,0-1.19,1.34,26.76,26.76,0,0,0-1.81,2.77,53.52,53.52,0,0,0-2.69,5.76,69.37,69.37,0,0,0-3.48,11.25q-12.14,3-24.07,6.75c7.75-1.8,15.5-3.53,23.29-5.05s15.58-3.06,23.39-4.44c15.62-2.73,31.31-5,47.07-6.64a373.64,373.64,0,0,1,47.4-2.08l5.93.22,5.91.41c2,.09,3.94.37,5.91.56l2.95.32,2.93.43a122.9,122.9,0,0,1,23.11,5.4Zm-136.11,1.3q-11,2.25-21.89,5c1.85-3.4,3.58-6.82,5.35-10.17,1-1.81,1.93-3.62,3-5.31a22.67,22.67,0,0,1,1.65-2.41,7.59,7.59,0,0,1,.89-1,2.31,2.31,0,0,1,.62-.43,1.75,1.75,0,0,1,.73.13,7.29,7.29,0,0,1,1.16.53,21.39,21.39,0,0,1,2.41,1.6c1.6,1.19,3.12,2.56,4.66,3.92,2.5,2.26,5,4.6,7.48,6.93Q280.37,243.91,277.33,244.53Zm23.51-4.26q-6.06,1-12.09,2c.91-1.18,1.73-2.38,2.55-3.55.58-.83,1.15-1.65,1.73-2.41.3-.37.6-.73.89-1a4.54,4.54,0,0,1,.77-.66c.09,0,.06,0,.06,0s.09,0,.21,0a4.23,4.23,0,0,1,1,.56,20.67,20.67,0,0,1,2.11,1.94c1,1,1.94,2,2.93,3.09Zm31.78-30.1c3.78-6,15.6-1.65,13.86,2.83C344.27,218.67,329.75,214.7,332.62,210.17Zm63.49,28.42a175.6,175.6,0,0,0-23.77-2.83c-1.15-.07,3.22.11,2.06.06,3.79-4.77,2-2.29,5.77-7,2-2.47,4.06-5,6.22-7.27,1.09-1.15,2.16-2.31,3.3-3.34a20.73,20.73,0,0,1,1.74-1.44,6.48,6.48,0,0,1,1.69-.94.88.88,0,0,1,.44-.07,1.13,1.13,0,0,1,.47.23,6,6,0,0,1,1.28,1.44,25.86,25.86,0,0,1,2.15,4c1.31,2.85,2.34,5.87,3.4,8.89,1.94,5.8,1.83,4.7,3.53,10.14l-2.43-.62C400,239.34,398.07,239,396.11,238.59Z"/>    </g></svg>