<!--  ~ Copyright (C) 2018 Baidu, Inc. All Rights Reserved.  --><svg viewBox="0 0 640 480" xmlns="http://www.w3.org/2000/svg">    <g id="back-ground-cl">        <rect fill="none" width="640" height="480" />        <ellipse opacity="0.1" cx="331.93" cy="418.82" rx="168.39" ry="32.01"/>    </g>    <g id="body">        <defs>            <clipPath id="outline">                <path fill="none"  d="M257.87,128.21l.35-.12c2.92-3.66,6-7.21,9.15-10.61a118.21,118.21,0,0,1,14.79-13.43c-.08-.39-.17-.75-.25-1-1.46-5.37-6.24-8.59-11.15-10.57-7.17-2.9-15-3.63-22.21-6.5a28.11,28.11,0,0,1-7.83-4.49c-.95-.81-1.74-1.73-2.62-2.6a13.89,13.89,0,0,0-2.26-2.07,7.21,7.21,0,0,0-5.45,6c-2.73,8.82,1.08,20.06,4.85,28.19,3.54,7.63,9,12.45,16.83,15.43C253.53,126.91,256.36,128.5,257.87,128.21Z"/><path fill="none"  d="M413,128.8c14.57-10,20.21-32.54,21.46-49.56.2-2.76.82-8.24-1.57-10.18-3.22-2.61-6.26,3.45-7.76,5.36A28.9,28.9,0,0,1,409.27,84.8c-6.5,1.53-12.78,1.84-18.48,5.66-3.77,2.52-7.87,6-10.39,10.2A132,132,0,0,1,413,128.8Z"/><path fill="none"  d="M467.07,243.41c-8.65-24.15-19.37-47.49-30.8-70.44-9.43-18.92-19.18-36.8-34.42-51.76C388,107.6,371,96.62,352.05,91.77A77.35,77.35,0,0,0,293.33,100c-20,11.78-34.51,30.8-46.8,50.08a377.56,377.56,0,0,0-52.42,133.52c-1.64,9-3,18.11-3.91,27.25-2.95,30.42-1.69,70.59,28.42,87.67,2.13,1.21,13,3.79,8.39,7.39-2.4,1.85-14.49,3-13.86,6.68.69,4.07,12.39,4.42,15.14,4.64a154.25,154.25,0,0,0,17.6.24c.53,0,1.45,0,2.41,0,.15-1.74.14-3.58.16-5.43s0-3.86.07-5.79c.06-3.85.17-7.68.19-11.51a150.53,150.53,0,0,0-1.33-22.87,56.23,56.23,0,0,0-2.68-11.09,30.74,30.74,0,0,0-2.47-5.14,18.3,18.3,0,0,0-3.62-4.42,22.73,22.73,0,0,1,6.82,9.26,57.07,57.07,0,0,1,3.39,11.14,134.87,134.87,0,0,1,2.22,23.1c.11,3.86.11,7.72.1,11.56,0,1.92,0,3.83,0,5.75s.08,3.86-.07,5.9a13.94,13.94,0,0,1-.56,3.13l-.13.39c0,.14-.12.3-.18.45a4.64,4.64,0,0,1-.47.85,6.81,6.81,0,0,1-1.25,1.36,22.42,22.42,0,0,1-5.47,2.84c-1.7.7-3.31,1.6-3.6,2.59a1.94,1.94,0,0,0-.1.85,4.53,4.53,0,0,0,.06.5l.14.48a4.69,4.69,0,0,0,1.25,1.77c.12.11.27.22.4.33a5.55,5.55,0,0,1,.24-3.09,6.48,6.48,0,0,1,2.78-3.36,8.4,8.4,0,0,1,2-.78,12.23,12.23,0,0,1,1.87-.39,13.23,13.23,0,0,1,3.88,0,13.58,13.58,0,0,1-3.13,2.28c-1.12.61-2.21,1.06-3.05,1.5a9.26,9.26,0,0,0-2.27,1.93,12.91,12.91,0,0,0-1.91,3h0l.47-.39a14.81,14.81,0,0,0,3.2,1.55,19.2,19.2,0,0,0,2.59.75,22.1,22.1,0,0,0,2.68.41c.46,0,.92.06,1.39.09a2.77,2.77,0,0,1-.43-.9,3.62,3.62,0,0,1,.15-2.18,7.13,7.13,0,0,1,2.48-3,9.79,9.79,0,0,1,3.23-1.61,7.41,7.41,0,0,1,3.66-.16,29.47,29.47,0,0,1-2.61,2.27c-.84.66-1.66,1.29-2.49,1.9a22.09,22.09,0,0,0-2.22,1.76,3.27,3.27,0,0,0-.74,1,2.59,2.59,0,0,0-.2,1.56l.54-.57a48.17,48.17,0,0,0,8.4-.42,36,36,0,0,0,5.41-1.12,14.64,14.64,0,0,0,4.66-2.47,20.39,20.39,0,0,0,3.79-3.86,26.1,26.1,0,0,0,2.86-4.7c.19-.42.39-.84.53-1.25a11.29,11.29,0,0,0,.42-1.28c.27-.88.49-1.81.71-2.73l1.23-5.61c.81-3.76,1.61-7.54,2.58-11.28a115.35,115.35,0,0,1,3.46-11.07,49.24,49.24,0,0,1,5.15-10.35c-3.7,6.77-5.63,14.26-7.18,21.75-.78,3.71-1.42,7.45-2.06,11.2a314,314,0,0,0,33.1,5.43c21.48,2.28,43.63,2.35,64.74-2.68a86.22,86.22,0,0,0,8.66-2.58c0-.15-.06-.3-.08-.45-.62-3.71-.81-7.39-1.25-11-.2-1.8-.5-3.61-.78-5.43s-.56-3.63-.93-5.4a31.77,31.77,0,0,0-1.72-5.18c-.65-1.73-1.25-3.47-1.84-5.21.73,1.69,1.47,3.37,2.26,5a32.69,32.69,0,0,1,2.07,5.16c.49,1.8.88,3.6,1.28,5.39s.8,3.59,1.12,5.43c.62,3.66,1,7.33,1.72,10.85a32,32,0,0,0,1.5,5.11,27.37,27.37,0,0,0,2.44,4.68,20.21,20.21,0,0,0,7.48,7,13.33,13.33,0,0,0,2.34.91c.8.25,1.7.44,2.56.62a45,45,0,0,0,5.3.71,51.54,51.54,0,0,0,5.7.11l.54.57a2.5,2.5,0,0,0-.2-1.56,3.44,3.44,0,0,0-.74-1,23.66,23.66,0,0,0-2.22-1.75c-.83-.61-1.65-1.24-2.49-1.9a28.26,28.26,0,0,1-2.6-2.28,7.37,7.37,0,0,1,3.65.16,10.06,10.06,0,0,1,3.24,1.62,7.13,7.13,0,0,1,2.47,3,3.51,3.51,0,0,1,.15,2.17,3,3,0,0,1-.43.92c1.19-.08,2.38-.2,3.53-.39a20.19,20.19,0,0,0,4.86-1.58,13.17,13.17,0,0,0,1.48-.83l.46.38a12.87,12.87,0,0,0-1.91-3,9.43,9.43,0,0,0-2.27-1.92c-.84-.44-1.93-.89-3-1.5a13.47,13.47,0,0,1-3.14-2.29,13.57,13.57,0,0,1,3.88,0,12.23,12.23,0,0,1,1.87.39,8.36,8.36,0,0,1,2,.77,6.54,6.54,0,0,1,2.78,3.37,5.39,5.39,0,0,1,.23,3.12,6.14,6.14,0,0,0,1.3-1.42,3.72,3.72,0,0,0,.57-1.85,2,2,0,0,0-.11-.84,1.94,1.94,0,0,0-.41-.72c-.78-.94-2.46-1.64-4.13-2.28a21.07,21.07,0,0,1-5.31-2.59,7.85,7.85,0,0,1-1.24-1.21,5,5,0,0,1-.88-1.72,10.15,10.15,0,0,1-.27-1.57c-.06-.51-.09-1-.1-1.48a111.51,111.51,0,0,1,.44-11.18c.28-3.68.68-7.35,1.13-11,.89-7.32,2-14.61,3.48-21.84.76-3.61,1.6-7.21,2.61-10.76.51-1.78,1.07-3.54,1.74-5.26a23,23,0,0,1,1.17-2.52,7.34,7.34,0,0,1,1.66-2.2,7.31,7.31,0,0,0-1.46,2.3,21.35,21.35,0,0,0-.94,2.57c-.56,1.74-1,3.52-1.4,5.31-.79,3.57-1.4,7.19-1.94,10.81-1.1,7.25-1.92,14.54-2.6,21.84q-.5,5.47-.83,10.95c-.19,3.41-.36,6.86-.25,10.19,5.42.86,11.33.44,16.69.28a155.32,155.32,0,0,0,19.15-1.45c2.36-.37,3.94,0,2.57-2.3-1.6-2.7-4-4-6.92-5-2.41-.82-9.31-1-10.72-3.45-.76-1.34.09-2.05,1-2.94,1.36-1.35,4-2.2,5.61-3.24q3-1.89,5.8-4.05A69.49,69.49,0,0,0,475.15,368c9-16.71,10.94-36.3,9.17-54.94C482.07,289.36,475.07,265.76,467.07,243.41Z"/><path fill="none"  d="M160.08,333.14c-3.58-5.91-3.3-13.06-.58-19.25a13.75,13.75,0,0,1,6-6.85c2.59-1.37,4.5-.84,7.21-.85,2.4,0,5.77-.62,4.77-3.68a7.15,7.15,0,0,0-1.09-1.75,7.74,7.74,0,0,0-4.48-3.35c-4-1.17-8.87-.45-12.86.55-16.25,4.07-24.7,20.78-26.8,36.27C129.57,354,149.88,369.48,167,373.64a61.07,61.07,0,0,0,26.46.37,90.51,90.51,0,0,1-6.9-26.51C176,346.13,165.44,342,160.08,333.14Z"/><path d="M480.28,275.91c-6.48-25.07-15.82-49.32-26.42-72.92-5.4-12-11.13-23.86-17.05-35.62-5.05-10.06-10.06-20.08-16.62-29.27q-2.58-3.61-5.39-7.07C426.91,122.46,433.32,105.88,436,91c1-5.53,2.22-11.83,1.51-17.44-.4-3.24-1.72-7.74-5.52-8-6.32-.37-8.65,7-12.66,10.48C412.63,81.8,405.9,82,397.78,84a34.07,34.07,0,0,0-20,15.15c-.5-.28-1-.58-1.49-.85-16.44-9-35.32-13.85-54.08-11.43C308.51,88.62,296,94.19,285,102c-.14-.48-.29-.93-.45-1.34-2.43-6.41-8.71-9.92-14.9-12C261.88,86,253.18,85.39,246,81.26c-4-2.33-9-11-14.34-6.88-5.86,4.54-6,14.46-4.72,21,1.47,7.52,4,15.73,8.28,22.17A29.85,29.85,0,0,0,250.1,129a34.52,34.52,0,0,0,5.82,2.06c-11.12,14.47-20.4,30.56-28.69,46.61a379.41,379.41,0,0,0-27.52,69.12q-5.13,17.82-8.5,36.07c-3.45,19-6.77,40.76-5,61.39-13.53-2.26-28.79-9.5-25.4-24.86.72-3.21,2-6.56,4.64-8.65,4.41-3.5,8.54.65,12.92-1.45s2.51-7.49.27-10.52c-7.91-10.73-27.31-3-35,4.3-9.48,8.95-16.45,25.8-14.33,38.88,2.63,16.28,18,28.64,32.89,33.48a62.47,62.47,0,0,0,32.55,1.4c1,2.08,2.16,4.12,3.4,6.1a53,53,0,0,0,21.65,19.67c.46.23,2,1.13,3.24,1.71l-.3.12c-1.79.63-3.6,1.17-5.38,1.82-3.43,1.25-9.09,3.22-6.82,8,1.88,3.92,8,4.81,11.71,5.39a117.94,117.94,0,0,0,20,1c1.45,0,3.44.1,5.43,0a3.14,3.14,0,0,1-.29.54,3.81,3.81,0,0,1-.71.75,20.38,20.38,0,0,1-4.77,2.37,16.94,16.94,0,0,0-2.81,1.43,5.83,5.83,0,0,0-2.43,2.87,6.55,6.55,0,0,0,2.08,6.77,12.16,12.16,0,0,0,2.66,1.88,18.83,18.83,0,0,0,2.85,1.25,23.66,23.66,0,0,0,3,.83,27.57,27.57,0,0,0,3,.45,49,49,0,0,0,11.86-.35,37.6,37.6,0,0,0,5.85-1.33,17.47,17.47,0,0,0,5.43-3,25.15,25.15,0,0,0,7.16-9.66,18.24,18.24,0,0,0,1-2.89c.26-1,.46-1.92.66-2.88s.37-1.91.54-2.86c22.3,4.82,45.24,7.67,68.06,6.76a160.1,160.1,0,0,0,32.55-4.43c2.39-.6,4.77-1.27,7.12-2a28.47,28.47,0,0,0,3.1,7.11,21.81,21.81,0,0,0,8.26,8.08,15.17,15.17,0,0,0,2.76,1.15c1,.31,1.85.51,2.78.72a48.77,48.77,0,0,0,5.61.87,45.84,45.84,0,0,0,11.39-.31A22.85,22.85,0,0,0,430,433a14.79,14.79,0,0,0,2.63-1.56,9.05,9.05,0,0,0,2.25-2.39,6.76,6.76,0,0,0,1-3.36,5.14,5.14,0,0,0-1.23-3.53,8.16,8.16,0,0,0-2.67-2,27.2,27.2,0,0,0-2.68-1.14,19.28,19.28,0,0,1-4.6-2.14,4.89,4.89,0,0,1-.73-.7,1.86,1.86,0,0,1-.38-.72l0-.12.84.08a142.39,142.39,0,0,0,20.86,0c5.56-.29,11.91-.22,17.3-1.84,3.77-1.13,2.9-4.87.85-7.65-3.27-4.43-9.45-5.46-14.46-6.64a4,4,0,0,1-.42-.13c.93-.57,1.95-1.32,2.33-1.55a77,77,0,0,0,11.85-8.78c14-12.68,21.84-30.36,24.29-48.89C489.8,318.42,485.65,296.73,480.28,275.91,390.79,90.46c5.7-3.82,12-4.13,18.48-5.66a28.9,28.9,0,0,0,15.82-10.38c1.5-1.91,4.54-8,7.76-5.36,2.39,1.94,1.77,7.42,1.57,10.18-1.25,17-6.89,39.6-21.46,49.56a132,132,0,0,0-32.56-28.14C382.92,96.49,387,93,390.79,90.46,-138.72,35.9c-7.85-3-13.29-7.8-16.83-15.43-3.77-8.13-7.58-19.37-4.85-28.19a7.21,7.21,0,0,1,5.45-6,13.89,13.89,0,0,1,2.26,2.07c.88.87,1.67,1.79,2.62,2.6a28.11,28.11,0,0,0,7.83,4.49c7.18,2.87,15,3.6,22.21,6.5,4.91,2,9.69,5.2,11.15,10.57.08.3.17.66.25,1a118.21,118.21,0,0,0-14.79,13.43c-3.19,3.4-6.23,7-9.15,10.61l-.35.12C256.36,128.5,253.53,126.91,252.07,126.36,167,373.64c-17.11-4.16-37.42-19.67-34.74-39.41,2.1-15.49,10.55-32.2,26.8-36.27,4-1,8.83-1.72,12.86-.55a7.74,7.74,0,0,1,4.48,3.35,7.15,7.15,0,0,1,1.09,1.75c1,3.06-2.37,3.67-4.77,3.68-2.71,0-4.62-.52-7.21.85a13.75,13.75,0,0,0-6,6.85c-2.72,6.19-3,13.34.58,19.25,5.36,8.84,15.89,13,26.47,14.36a90.51,90.51,0,0,0,6.9,26.51A61.07,61.07,0,0,1,167,373.64,475.15,368a69.49,69.49,0,0,1-18.79,22.19q-2.81,2.16-5.8,4.05c-1.64,1-4.25,1.89-5.61,3.24-.88.89-1.73,1.6-1,2.94,1.41,2.49,8.31,2.63,10.72,3.45,2.94,1,5.32,2.32,6.92,5,1.37,2.3-.21,1.93-2.57,2.3a155.32,155.32,0,0,1-19.15,1.45c-5.36.16-11.27.58-16.69-.28-.11-3.33.06-6.78.25-10.19q.33-5.47.83-10.95c.68-7.3,1.5-14.59,2.6-21.84.54-3.62,1.15-7.24,1.94-10.81.39-1.79.84-3.57,1.4-5.31a21.35,21.35,0,0,1,.94-2.57,7.31,7.31,0,0,1,1.46-2.3,7.34,7.34,0,0,0-1.66,2.2,23,23,0,0,0-1.17,2.52c-.67,1.72-1.23,3.48-1.74,5.26-1,3.55-1.85,7.15-2.61,10.76C424,376.38,422.86,383.67,422,391c-.45,3.66-.85,7.33-1.13,11a111.51,111.51,0,0,0-.44,11.18c0,.48,0,1,.1,1.48a10.15,10.15,0,0,0,.27,1.57,5,5,0,0,0,.88,1.72,7.85,7.85,0,0,0,1.24,1.21,21.07,21.07,0,0,0,5.31,2.59c1.67.64,3.35,1.34,4.13,2.28a1.94,1.94,0,0,1,.41.72,2,2,0,0,1,.11.84,3.72,3.72,0,0,1-.57,1.85,6.14,6.14,0,0,1-1.3,1.42,5.39,5.39,0,0,0-.23-3.12,6.54,6.54,0,0,0-2.78-3.37,8.36,8.36,0,0,0-2-.77,12.23,12.23,0,0,0-1.87-.39,13.57,13.57,0,0,0-3.88,0,13.47,13.47,0,0,0,3.14,2.29c1.11.61,2.2,1.06,3,1.5a9.43,9.43,0,0,1,2.27,1.92,12.87,12.87,0,0,1,1.91,3l-.46-.38a13.17,13.17,0,0,1-1.48.83,20.19,20.19,0,0,1-4.86,1.58c-1.15.19-2.34.31-3.53.39a3,3,0,0,0,.43-.92,3.51,3.51,0,0,0-.15-2.17,7.13,7.13,0,0,0-2.47-3,10.06,10.06,0,0,0-3.24-1.62,7.37,7.37,0,0,0-3.65-.16,28.26,28.26,0,0,0,2.6,2.28c.84.66,1.66,1.29,2.49,1.9a23.66,23.66,0,0,1,2.22,1.75,3.44,3.44,0,0,1,.74,1,2.5,2.5,0,0,1,.2,1.56l-.54-.57a51.54,51.54,0,0,1-5.7-.11,45,45,0,0,1-5.3-.71c-.86-.18-1.76-.37-2.56-.62A13.33,13.33,0,0,1,403,430a20.21,20.21,0,0,1-7.48-7,27.37,27.37,0,0,1-2.44-4.68,32,32,0,0,1-1.5-5.11c-.76-3.52-1.1-7.19-1.72-10.85-.32-1.84-.74-3.63-1.12-5.43s-.79-3.59-1.28-5.39a32.69,32.69,0,0,0-2.07-5.16c-.79-1.66-1.53-3.34-2.26-5,.59,1.74,1.19,3.48,1.84,5.21a31.77,31.77,0,0,1,1.72,5.18c.37,1.77.64,3.59.93,5.4s.58,3.63.78,5.43c.44,3.62.63,7.3,1.25,11,0,.15,0,.3.08.45a86.22,86.22,0,0,1-8.66,2.58c-21.11,5-43.26,5-64.74,2.68a314,314,0,0,1-33.1-5.43c.64-3.75,1.28-7.49,2.06-11.2,1.55-7.49,3.48-15,7.18-21.75a49.24,49.24,0,0,0-5.15,10.35,115.35,115.35,0,0,0-3.46,11.07c-1,3.74-1.77,7.52-2.58,11.28l-1.23,5.61c-.22.92-.44,1.85-.71,2.73a11.29,11.29,0,0,1-.42,1.28c-.14.41-.34.83-.53,1.25a26.1,26.1,0,0,1-2.86,4.7,20.39,20.39,0,0,1-3.79,3.86,14.64,14.64,0,0,1-4.66,2.47,36,36,0,0,1-5.41,1.12,48.17,48.17,0,0,1-8.4.42l-.54.57a2.59,2.59,0,0,1,.2-1.56,3.27,3.27,0,0,1,.74-1,22.09,22.09,0,0,1,2.22-1.76c.83-.61,1.65-1.24,2.49-1.9a29.47,29.47,0,0,0,2.61-2.27,7.41,7.41,0,0,0-3.66.16,9.79,9.79,0,0,0-3.23,1.61,7.13,7.13,0,0,0-2.48,3,3.62,3.62,0,0,0-.15,2.18,2.77,2.77,0,0,0,.43.9c-.47,0-.93,0-1.39-.09a22.1,22.1,0,0,1-2.68-.41,19.2,19.2,0,0,1-2.59-.75,14.81,14.81,0,0,1-3.2-1.55l-.47.39h0a12.91,12.91,0,0,1,1.91-3,9.26,9.26,0,0,1,2.27-1.93c.84-.44,1.93-.89,3.05-1.5a13.58,13.58,0,0,0,3.13-2.28,13.23,13.23,0,0,0-3.88,0,12.23,12.23,0,0,0-1.87.39,8.4,8.4,0,0,0-2,.78,6.48,6.48,0,0,0-2.78,3.36,5.55,5.55,0,0,0-.24,3.09c-.13-.11-.28-.22-.4-.33a4.69,4.69,0,0,1-1.25-1.77l-.14-.48a4.53,4.53,0,0,1-.06-.5,1.94,1.94,0,0,1,.1-.85c.29-1,1.9-1.89,3.6-2.59a22.42,22.42,0,0,0,5.47-2.84,6.81,6.81,0,0,0,1.25-1.36,4.64,4.64,0,0,0,.47-.85c.06-.15.13-.31.18-.45l.13-.39a13.94,13.94,0,0,0,.56-3.13c.15-2,.09-4,.07-5.9s0-3.83,0-5.75c0-3.84,0-7.7-.1-11.56a134.87,134.87,0,0,0-2.22-23.1,57.07,57.07,0,0,0-3.39-11.14,22.73,22.73,0,0,0-6.82-9.26,18.3,18.3,0,0,1,3.62,4.42,30.74,30.74,0,0,1,2.47,5.14,56.23,56.23,0,0,1,2.68,11.09,150.53,150.53,0,0,1,1.33,22.87c0,3.83-.13,7.66-.19,11.51-.05,1.93-.06,3.87-.07,5.79s0,3.69-.16,5.43c-1,0-1.88,0-2.41,0a154.25,154.25,0,0,1-17.6-.24c-2.75-.22-14.45-.57-15.14-4.64-.63-3.64,11.46-4.83,13.86-6.68,4.66-3.6-6.26-6.18-8.39-7.39-30.11-17.08-31.37-57.25-28.42-87.67.88-9.14,2.27-18.22,3.91-27.25a377.56,377.56,0,0,1,52.42-133.52c12.29-19.28,26.79-38.3,46.8-50.08a77.35,77.35,0,0,1,58.72-8.26C371,96.62,388,107.6,401.85,121.21c15.24,15,25,32.84,34.42,51.76,11.43,22.95,22.15,46.29,30.8,70.44,8,22.35,15,46,17.25,69.67C486.09,331.72,484.11,351.31,475.15,368Z"/>            </clipPath>        </defs>        <g clip-path="url(#outline)">            <rect fill="#B59070" width="640" height="480" />        </g>    </g>    <g id="pattern">        <g clip-path="url(#outline)">            <g opacity="0.6" ><path fill="#FF8431"  d="M502.33,335.08a151.07,151.07,0,0,1-15.05,4.07c-13.31,2.79-28.61,6-42.28,4.92,25.63,2.13,53.69.69,82-4.21,10.57-1.83,45.11-15.55,45.11-15.55L565.4,309s-29.87,13.55-37.48,16.54C519.41,328.87,511,332.28,502.33,335.08Z"/><path fill="#FF8431"  d="M518.46,316.56c13.41-6.75,28.61-18.11,29.61-27.31l-5.9-7.56c-2.44,1.84-4.87,3.67-7.35,5.48-37.7,27.5-86,49.2-132.19,57.3,24-3,48.75-8.22,73.42-14.05C490.32,327.05,505.05,323.32,518.46,316.56Z"/><path fill="#FF8431"  d="M474.38,296.75c-10.24,10.35-26.95,18.09-42.91,25.34,28.69-4,58.29-15.41,79.89-30.87,13-9.3,30.41-21.92,21.25-28.87l-7-6.47c-6.75,7.51-15.47,17.11-26.73,22.46-10,4.73-19.62,9.28-30.21,12.88-19,6.46-35.32,16.19-55.24,19.48C435.25,312.11,452.78,304.77,474.38,296.75Z"/><path fill="#FF8431"  d="M142.42,284.22c34.3,4.54,68.6,18.58,102.9,23.11-30.86-14.11-63.15-25.08-102.57-34.78l-.31,1.87c-1.31,1.76-2.09,3.73-3.41,5.49-.71,1-2.52,2.44-1.22,3.42S139.61,283.85,142.42,284.22Z"/><path fill="#FF8431"  d="M188.84,311.91c8.17-.31,14.56-.48,22.95-.58,11.31-.13,41.44,2.69,50.88,3.22a699.71,699.71,0,0,0-73.41-9.46Z"/><path fill="#FF8431"  d="M188.55,324.1a209.78,209.78,0,0,0,47-4.5l3.24-1.81a187.59,187.59,0,0,1-50-.51Z"/><path fill="#FF8431"  d="M635.49,320.67c-4.73-3.26-13.08-3.72-21-4.05,8.36-2.43,14.49-8.37,15.79-13.59s-1.34-9.76-5-13.57l-4.51,2c-20.93,18.19-42.72,31.67-69.09,40.1a835.27,835.27,0,0,1-117.82,28.09c3.53-.57,7.3.11,10.83.32,6.93.43,14.12-.46,21.08-1,20.21-1.52,40.38-3.66,60.28-7.55A402.09,402.09,0,0,0,567.93,341c12.71-4,24.77-9.17,38.42-7.39,8,1,16.15,4.35,24.72.77C639,331,640.23,323.92,635.49,320.67Z"/><path fill="#FF8431"  d="M187.87,341l.84,12.5c18.26,3.26,35.21,4.72,51.71,1.6l-8.1-1C217.17,349.79,203,345.41,187.87,341Z"/><path fill="#FF8431"  d="M250.45,402.64c6.6-.2,14.43-.48,21-.68a117.86,117.86,0,0,1-21-4.22Z"/><path fill="#FF8431"  d="M250.46,415.08a8.88,8.88,0,0,0,2.54.2,45.63,45.63,0,0,0,12.71-2.34,52,52,0,0,1-15.08-2.76Z"/><path fill="#FF8431"  d="M422.77,399.58A88.1,88.1,0,0,1,409,400.64a10.5,10.5,0,0,0,.93.58c3.61,2.29,7,5.25,11.46,5.19,2,0,1.1-2.62,1.34-4.61Z"/><path fill="#FF8431"  d="M422,413.09a33.53,33.53,0,0,1-11-.73A63.4,63.4,0,0,0,418,416a8.36,8.36,0,0,0,4.13.62c.95-.3.38-1.62-.09-2.37Z"/><path fill="#FF8431"  d="M192.68,369.56a75.9,75.9,0,0,0,18-1.6L190.46,362Z"/></g>            <g opacity="0.6" ><path fill="#C6DBC6"  d="M287.16,418.67c1.87-23.1,18-47.8,35.46-47.47,6.9.13,9,7.55,15.12,7.54s10.44-5.62,14.93-7.33c9.31-3.54,20.26,5.37,26.22,16.84,4.62,8.9,6.72,20.51,7.47,30.79.12,1.64-.53,1.82-2,2.51-2.33,1.08-3.57.86-6.43,1.67-14.89,4.2-29,4.06-44.39,3.93a153.5,153.5,0,0,1-45.95-7.74"/></g>        </g>    </g>    <g id="mask">        <g opacity="0.2" ><path d="M428.87,75.85c-5.08,5.13-8.25,12.05-13.52,17-5.08,4.73-11.69,7.21-17.65,10.67a34.49,34.49,0,0,0-8.12,6.36,52.37,52.37,0,0,0,4.34,3.32,5.37,5.37,0,0,1,.45.35l1,.54a22.89,22.89,0,0,1,5.15,4.15,23.92,23.92,0,0,1,2.74,3.78,84.93,84.93,0,0,1,6.21,6.09,51.57,51.57,0,0,0,17.82-25.23C429.83,94.91,434.35,83.42,428.87,75.85Z"/></g><g opacity="0.2" ><path d="M262.45,125.8c2.7-3,5-6.39,7.7-9.43,1.83-2,4.1-3.57,5.89-5.54-2-4.16-4.39-8.56-6.59-10.59-3.65-3.37-16.41-7.59-21-9.72a60,60,0,0,1-7.92-4.46c-2-1.32-4-4-6.43-4.66a1.93,1.93,0,0,0-2,1.08c-2.08,4.44,1.15,12.7,2.25,15.64,3.47,9.27,9.39,14.74,17.5,20.74a.26.26,0,0,1-.05.09,4.58,4.58,0,0,1,.82.94,4.07,4.07,0,0,1,1,.86c.7.28,5.28,3.87,8.2,6A5.9,5.9,0,0,1,262.45,125.8Z"/></g><g opacity="0.1" ><path d="M484.43,334.75c.23,1.7-3.51,6.76-4.43,8.49-1.82,3.4-3.69,6.78-5.68,10.08a107.84,107.84,0,0,1-13.23,18.12A62.44,62.44,0,0,1,450,380.9a60.12,60.12,0,0,1-6.25,3.67,33.15,33.15,0,0,1-5.53,2.51c-4,1.15-6.15-2.21-7.32-5.52A39.5,39.5,0,0,1,428.59,364a119.47,119.47,0,0,1,2.54-14.42l-1.94,4.49c-3.06,11.13-4.58,22.56-6,34a4.58,4.58,0,0,0,.26,2.19,3.36,3.36,0,0,0-.88.73c-2.06,2.52-.69,11.1-.81,14.3a.63.63,0,0,0,.09.45c.16.19.45.15.69.08A107.32,107.32,0,0,0,447,396.42c9.48-5.3,17.16-11.14,23.54-19.77,3.19-4.31,6.66-9.86,8.46-14.91C482.08,353,485.69,343.9,484.43,334.75Z"/></g><g opacity="0.1" ><path d="M267.14,141.25c10.77-16.34,17.61-34.19,32.59-46.79-23.63,13.12-38,28.59-53.16,54.08-14.44,24.28-29.76,53.17-39.76,79.22s-15,53.6-17.25,81.33c-1.43,17.32-2,39.51,3.93,58-12.1,2.84-24.41,2.34-35.38-4.43-32.09-19.82-16.24-53.36-16.24-53.36-5,6.27-7.45,8.94-9.87,24-2.23,13.87,8.42,27.21,19.58,34.28,13.85,8.78,29.58,10.18,44.75,6.87a52,52,0,0,0,7.95,12.63c10,11.56,21.38,19,39.1,21.26,2.29.29,4.62.6,7,.93-.18-3.14-.62-6.26-.51-9.43a5.58,5.58,0,0,1,.13-1c-17.1-5.77-32.33-19.18-39.76-35.48-4-8.82-6.12-18.92-6.18-30.43-.12-27.61,3.21-61,10.78-87.24C225.7,208,245.4,174.22,267.14,141.25Z"/></g><g opacity="0.1" ><path d="M389.27,402c-5.29,1.24-9.82,4.43-15.12,5.66a159,159,0,0,1-19.41,2.95c-22,2.28-44.35.82-66.16-2.85-1.83-5.45-1.1-11.68-.07-17.2a37.94,37.94,0,0,1,1.27-4.59A39.81,39.81,0,0,0,288,390c-.76,2.25-1.08,4.63-2.41,6.66l-.1.14c-.31,5-1.31,10.55-3.93,14.6a17.9,17.9,0,0,0,.17,2.75,5.94,5.94,0,0,1,.05.72c1.54.34,3.06.69,4.53,1,14.9,5.54,32.72,6.73,47.93,6.86,15.65.12,34.69-1.09,45-4.91,2.87-1.06,9.12-1.62,10.48-3.05,1.2-1.27-.65-1.69-.77-3.3C388.25,402.21,389.26,402,389.27,402Z"/></g>        <g opacity="0.1" ><path fill="#fff"  d="M379.83,103.26c6.05,5.3,10.42,13.69,14.49,20.51,4.46,7.47,8.87,15,13.36,22.41,13,21.71,26.15,43.75,37,66.66a328.92,328.92,0,0,1,23.4,68.9c2.75,12.34,4.9,24.8,6.6,37.33,1.39,10.34,4.07,22.69-2.48,31.88,4.28-6,9.86-10.61,11.35-14.66,5.27-14.38.18-32.18-2.49-46.67-5.44-29.5-15.48-57.89-26.94-85.53-11.28-27.21-25.53-53.07-44.82-75.49C393.06,109.76,380.05,103.45,379.83,103.26Z"/></g>    </g>    <g id="outline">        <path fill="none"  d="M257.87,128.21l.35-.12c2.92-3.66,6-7.21,9.15-10.61a118.21,118.21,0,0,1,14.79-13.43c-.08-.39-.17-.75-.25-1-1.46-5.37-6.24-8.59-11.15-10.57-7.17-2.9-15-3.63-22.21-6.5a28.11,28.11,0,0,1-7.83-4.49c-.95-.81-1.74-1.73-2.62-2.6a13.89,13.89,0,0,0-2.26-2.07,7.21,7.21,0,0,0-5.45,6c-2.73,8.82,1.08,20.06,4.85,28.19,3.54,7.63,9,12.45,16.83,15.43C253.53,126.91,256.36,128.5,257.87,128.21Z"/><path fill="none"  d="M413,128.8c14.57-10,20.21-32.54,21.46-49.56.2-2.76.82-8.24-1.57-10.18-3.22-2.61-6.26,3.45-7.76,5.36A28.9,28.9,0,0,1,409.27,84.8c-6.5,1.53-12.78,1.84-18.48,5.66-3.77,2.52-7.87,6-10.39,10.2A132,132,0,0,1,413,128.8Z"/><path fill="none"  d="M467.07,243.41c-8.65-24.15-19.37-47.49-30.8-70.44-9.43-18.92-19.18-36.8-34.42-51.76C388,107.6,371,96.62,352.05,91.77A77.35,77.35,0,0,0,293.33,100c-20,11.78-34.51,30.8-46.8,50.08a377.56,377.56,0,0,0-52.42,133.52c-1.64,9-3,18.11-3.91,27.25-2.95,30.42-1.69,70.59,28.42,87.67,2.13,1.21,13,3.79,8.39,7.39-2.4,1.85-14.49,3-13.86,6.68.69,4.07,12.39,4.42,15.14,4.64a154.25,154.25,0,0,0,17.6.24c.53,0,1.45,0,2.41,0,.15-1.74.14-3.58.16-5.43s0-3.86.07-5.79c.06-3.85.17-7.68.19-11.51a150.53,150.53,0,0,0-1.33-22.87,56.23,56.23,0,0,0-2.68-11.09,30.74,30.74,0,0,0-2.47-5.14,18.3,18.3,0,0,0-3.62-4.42,22.73,22.73,0,0,1,6.82,9.26,57.07,57.07,0,0,1,3.39,11.14,134.87,134.87,0,0,1,2.22,23.1c.11,3.86.11,7.72.1,11.56,0,1.92,0,3.83,0,5.75s.08,3.86-.07,5.9a13.94,13.94,0,0,1-.56,3.13l-.13.39c0,.14-.12.3-.18.45a4.64,4.64,0,0,1-.47.85,6.81,6.81,0,0,1-1.25,1.36,22.42,22.42,0,0,1-5.47,2.84c-1.7.7-3.31,1.6-3.6,2.59a1.94,1.94,0,0,0-.1.85,4.53,4.53,0,0,0,.06.5l.14.48a4.69,4.69,0,0,0,1.25,1.77c.12.11.27.22.4.33a5.55,5.55,0,0,1,.24-3.09,6.48,6.48,0,0,1,2.78-3.36,8.4,8.4,0,0,1,2-.78,12.23,12.23,0,0,1,1.87-.39,13.23,13.23,0,0,1,3.88,0,13.58,13.58,0,0,1-3.13,2.28c-1.12.61-2.21,1.06-3.05,1.5a9.26,9.26,0,0,0-2.27,1.93,12.91,12.91,0,0,0-1.91,3h0l.47-.39a14.81,14.81,0,0,0,3.2,1.55,19.2,19.2,0,0,0,2.59.75,22.1,22.1,0,0,0,2.68.41c.46,0,.92.06,1.39.09a2.77,2.77,0,0,1-.43-.9,3.62,3.62,0,0,1,.15-2.18,7.13,7.13,0,0,1,2.48-3,9.79,9.79,0,0,1,3.23-1.61,7.41,7.41,0,0,1,3.66-.16,29.47,29.47,0,0,1-2.61,2.27c-.84.66-1.66,1.29-2.49,1.9a22.09,22.09,0,0,0-2.22,1.76,3.27,3.27,0,0,0-.74,1,2.59,2.59,0,0,0-.2,1.56l.54-.57a48.17,48.17,0,0,0,8.4-.42,36,36,0,0,0,5.41-1.12,14.64,14.64,0,0,0,4.66-2.47,20.39,20.39,0,0,0,3.79-3.86,26.1,26.1,0,0,0,2.86-4.7c.19-.42.39-.84.53-1.25a11.29,11.29,0,0,0,.42-1.28c.27-.88.49-1.81.71-2.73l1.23-5.61c.81-3.76,1.61-7.54,2.58-11.28a115.35,115.35,0,0,1,3.46-11.07,49.24,49.24,0,0,1,5.15-10.35c-3.7,6.77-5.63,14.26-7.18,21.75-.78,3.71-1.42,7.45-2.06,11.2a314,314,0,0,0,33.1,5.43c21.48,2.28,43.63,2.35,64.74-2.68a86.22,86.22,0,0,0,8.66-2.58c0-.15-.06-.3-.08-.45-.62-3.71-.81-7.39-1.25-11-.2-1.8-.5-3.61-.78-5.43s-.56-3.63-.93-5.4a31.77,31.77,0,0,0-1.72-5.18c-.65-1.73-1.25-3.47-1.84-5.21.73,1.69,1.47,3.37,2.26,5a32.69,32.69,0,0,1,2.07,5.16c.49,1.8.88,3.6,1.28,5.39s.8,3.59,1.12,5.43c.62,3.66,1,7.33,1.72,10.85a32,32,0,0,0,1.5,5.11,27.37,27.37,0,0,0,2.44,4.68,20.21,20.21,0,0,0,7.48,7,13.33,13.33,0,0,0,2.34.91c.8.25,1.7.44,2.56.62a45,45,0,0,0,5.3.71,51.54,51.54,0,0,0,5.7.11l.54.57a2.5,2.5,0,0,0-.2-1.56,3.44,3.44,0,0,0-.74-1,23.66,23.66,0,0,0-2.22-1.75c-.83-.61-1.65-1.24-2.49-1.9a28.26,28.26,0,0,1-2.6-2.28,7.37,7.37,0,0,1,3.65.16,10.06,10.06,0,0,1,3.24,1.62,7.13,7.13,0,0,1,2.47,3,3.51,3.51,0,0,1,.15,2.17,3,3,0,0,1-.43.92c1.19-.08,2.38-.2,3.53-.39a20.19,20.19,0,0,0,4.86-1.58,13.17,13.17,0,0,0,1.48-.83l.46.38a12.87,12.87,0,0,0-1.91-3,9.43,9.43,0,0,0-2.27-1.92c-.84-.44-1.93-.89-3-1.5a13.47,13.47,0,0,1-3.14-2.29,13.57,13.57,0,0,1,3.88,0,12.23,12.23,0,0,1,1.87.39,8.36,8.36,0,0,1,2,.77,6.54,6.54,0,0,1,2.78,3.37,5.39,5.39,0,0,1,.23,3.12,6.14,6.14,0,0,0,1.3-1.42,3.72,3.72,0,0,0,.57-1.85,2,2,0,0,0-.11-.84,1.94,1.94,0,0,0-.41-.72c-.78-.94-2.46-1.64-4.13-2.28a21.07,21.07,0,0,1-5.31-2.59,7.85,7.85,0,0,1-1.24-1.21,5,5,0,0,1-.88-1.72,10.15,10.15,0,0,1-.27-1.57c-.06-.51-.09-1-.1-1.48a111.51,111.51,0,0,1,.44-11.18c.28-3.68.68-7.35,1.13-11,.89-7.32,2-14.61,3.48-21.84.76-3.61,1.6-7.21,2.61-10.76.51-1.78,1.07-3.54,1.74-5.26a23,23,0,0,1,1.17-2.52,7.34,7.34,0,0,1,1.66-2.2,7.31,7.31,0,0,0-1.46,2.3,21.35,21.35,0,0,0-.94,2.57c-.56,1.74-1,3.52-1.4,5.31-.79,3.57-1.4,7.19-1.94,10.81-1.1,7.25-1.92,14.54-2.6,21.84q-.5,5.47-.83,10.95c-.19,3.41-.36,6.86-.25,10.19,5.42.86,11.33.44,16.69.28a155.32,155.32,0,0,0,19.15-1.45c2.36-.37,3.94,0,2.57-2.3-1.6-2.7-4-4-6.92-5-2.41-.82-9.31-1-10.72-3.45-.76-1.34.09-2.05,1-2.94,1.36-1.35,4-2.2,5.61-3.24q3-1.89,5.8-4.05A69.49,69.49,0,0,0,475.15,368c9-16.71,10.94-36.3,9.17-54.94C482.07,289.36,475.07,265.76,467.07,243.41Z"/><path fill="none"  d="M160.08,333.14c-3.58-5.91-3.3-13.06-.58-19.25a13.75,13.75,0,0,1,6-6.85c2.59-1.37,4.5-.84,7.21-.85,2.4,0,5.77-.62,4.77-3.68a7.15,7.15,0,0,0-1.09-1.75,7.74,7.74,0,0,0-4.48-3.35c-4-1.17-8.87-.45-12.86.55-16.25,4.07-24.7,20.78-26.8,36.27C129.57,354,149.88,369.48,167,373.64a61.07,61.07,0,0,0,26.46.37,90.51,90.51,0,0,1-6.9-26.51C176,346.13,165.44,342,160.08,333.14Z"/><path d="M480.28,275.91c-6.48-25.07-15.82-49.32-26.42-72.92-5.4-12-11.13-23.86-17.05-35.62-5.05-10.06-10.06-20.08-16.62-29.27q-2.58-3.61-5.39-7.07C426.91,122.46,433.32,105.88,436,91c1-5.53,2.22-11.83,1.51-17.44-.4-3.24-1.72-7.74-5.52-8-6.32-.37-8.65,7-12.66,10.48C412.63,81.8,405.9,82,397.78,84a34.07,34.07,0,0,0-20,15.15c-.5-.28-1-.58-1.49-.85-16.44-9-35.32-13.85-54.08-11.43C308.51,88.62,296,94.19,285,102c-.14-.48-.29-.93-.45-1.34-2.43-6.41-8.71-9.92-14.9-12C261.88,86,253.18,85.39,246,81.26c-4-2.33-9-11-14.34-6.88-5.86,4.54-6,14.46-4.72,21,1.47,7.52,4,15.73,8.28,22.17A29.85,29.85,0,0,0,250.1,129a34.52,34.52,0,0,0,5.82,2.06c-11.12,14.47-20.4,30.56-28.69,46.61a379.41,379.41,0,0,0-27.52,69.12q-5.13,17.82-8.5,36.07c-3.45,19-6.77,40.76-5,61.39-13.53-2.26-28.79-9.5-25.4-24.86.72-3.21,2-6.56,4.64-8.65,4.41-3.5,8.54.65,12.92-1.45s2.51-7.49.27-10.52c-7.91-10.73-27.31-3-35,4.3-9.48,8.95-16.45,25.8-14.33,38.88,2.63,16.28,18,28.64,32.89,33.48a62.47,62.47,0,0,0,32.55,1.4c1,2.08,2.16,4.12,3.4,6.1a53,53,0,0,0,21.65,19.67c.46.23,2,1.13,3.24,1.71l-.3.12c-1.79.63-3.6,1.17-5.38,1.82-3.43,1.25-9.09,3.22-6.82,8,1.88,3.92,8,4.81,11.71,5.39a117.94,117.94,0,0,0,20,1c1.45,0,3.44.1,5.43,0a3.14,3.14,0,0,1-.29.54,3.81,3.81,0,0,1-.71.75,20.38,20.38,0,0,1-4.77,2.37,16.94,16.94,0,0,0-2.81,1.43,5.83,5.83,0,0,0-2.43,2.87,6.55,6.55,0,0,0,2.08,6.77,12.16,12.16,0,0,0,2.66,1.88,18.83,18.83,0,0,0,2.85,1.25,23.66,23.66,0,0,0,3,.83,27.57,27.57,0,0,0,3,.45,49,49,0,0,0,11.86-.35,37.6,37.6,0,0,0,5.85-1.33,17.47,17.47,0,0,0,5.43-3,25.15,25.15,0,0,0,7.16-9.66,18.24,18.24,0,0,0,1-2.89c.26-1,.46-1.92.66-2.88s.37-1.91.54-2.86c22.3,4.82,45.24,7.67,68.06,6.76a160.1,160.1,0,0,0,32.55-4.43c2.39-.6,4.77-1.27,7.12-2a28.47,28.47,0,0,0,3.1,7.11,21.81,21.81,0,0,0,8.26,8.08,15.17,15.17,0,0,0,2.76,1.15c1,.31,1.85.51,2.78.72a48.77,48.77,0,0,0,5.61.87,45.84,45.84,0,0,0,11.39-.31A22.85,22.85,0,0,0,430,433a14.79,14.79,0,0,0,2.63-1.56,9.05,9.05,0,0,0,2.25-2.39,6.76,6.76,0,0,0,1-3.36,5.14,5.14,0,0,0-1.23-3.53,8.16,8.16,0,0,0-2.67-2,27.2,27.2,0,0,0-2.68-1.14,19.28,19.28,0,0,1-4.6-2.14,4.89,4.89,0,0,1-.73-.7,1.86,1.86,0,0,1-.38-.72l0-.12.84.08a142.39,142.39,0,0,0,20.86,0c5.56-.29,11.91-.22,17.3-1.84,3.77-1.13,2.9-4.87.85-7.65-3.27-4.43-9.45-5.46-14.46-6.64a4,4,0,0,1-.42-.13c.93-.57,1.95-1.32,2.33-1.55a77,77,0,0,0,11.85-8.78c14-12.68,21.84-30.36,24.29-48.89C489.8,318.42,485.65,296.73,480.28,275.91ZM390.79,90.46c5.7-3.82,12-4.13,18.48-5.66a28.9,28.9,0,0,0,15.82-10.38c1.5-1.91,4.54-8,7.76-5.36,2.39,1.94,1.77,7.42,1.57,10.18-1.25,17-6.89,39.6-21.46,49.56a132,132,0,0,0-32.56-28.14C382.92,96.49,387,93,390.79,90.46Zm-138.72,35.9c-7.85-3-13.29-7.8-16.83-15.43-3.77-8.13-7.58-19.37-4.85-28.19a7.21,7.21,0,0,1,5.45-6,13.89,13.89,0,0,1,2.26,2.07c.88.87,1.67,1.79,2.62,2.6a28.11,28.11,0,0,0,7.83,4.49c7.18,2.87,15,3.6,22.21,6.5,4.91,2,9.69,5.2,11.15,10.57.08.3.17.66.25,1a118.21,118.21,0,0,0-14.79,13.43c-3.19,3.4-6.23,7-9.15,10.61l-.35.12C256.36,128.5,253.53,126.91,252.07,126.36ZM167,373.64c-17.11-4.16-37.42-19.67-34.74-39.41,2.1-15.49,10.55-32.2,26.8-36.27,4-1,8.83-1.72,12.86-.55a7.74,7.74,0,0,1,4.48,3.35,7.15,7.15,0,0,1,1.09,1.75c1,3.06-2.37,3.67-4.77,3.68-2.71,0-4.62-.52-7.21.85a13.75,13.75,0,0,0-6,6.85c-2.72,6.19-3,13.34.58,19.25,5.36,8.84,15.89,13,26.47,14.36a90.51,90.51,0,0,0,6.9,26.51A61.07,61.07,0,0,1,167,373.64ZM475.15,368a69.49,69.49,0,0,1-18.79,22.19q-2.81,2.16-5.8,4.05c-1.64,1-4.25,1.89-5.61,3.24-.88.89-1.73,1.6-1,2.94,1.41,2.49,8.31,2.63,10.72,3.45,2.94,1,5.32,2.32,6.92,5,1.37,2.3-.21,1.93-2.57,2.3a155.32,155.32,0,0,1-19.15,1.45c-5.36.16-11.27.58-16.69-.28-.11-3.33.06-6.78.25-10.19q.33-5.47.83-10.95c.68-7.3,1.5-14.59,2.6-21.84.54-3.62,1.15-7.24,1.94-10.81.39-1.79.84-3.57,1.4-5.31a21.35,21.35,0,0,1,.94-2.57,7.31,7.31,0,0,1,1.46-2.3,7.34,7.34,0,0,0-1.66,2.2,23,23,0,0,0-1.17,2.52c-.67,1.72-1.23,3.48-1.74,5.26-1,3.55-1.85,7.15-2.61,10.76C424,376.38,422.86,383.67,422,391c-.45,3.66-.85,7.33-1.13,11a111.51,111.51,0,0,0-.44,11.18c0,.48,0,1,.1,1.48a10.15,10.15,0,0,0,.27,1.57,5,5,0,0,0,.88,1.72,7.85,7.85,0,0,0,1.24,1.21,21.07,21.07,0,0,0,5.31,2.59c1.67.64,3.35,1.34,4.13,2.28a1.94,1.94,0,0,1,.41.72,2,2,0,0,1,.11.84,3.72,3.72,0,0,1-.57,1.85,6.14,6.14,0,0,1-1.3,1.42,5.39,5.39,0,0,0-.23-3.12,6.54,6.54,0,0,0-2.78-3.37,8.36,8.36,0,0,0-2-.77,12.23,12.23,0,0,0-1.87-.39,13.57,13.57,0,0,0-3.88,0,13.47,13.47,0,0,0,3.14,2.29c1.11.61,2.2,1.06,3,1.5a9.43,9.43,0,0,1,2.27,1.92,12.87,12.87,0,0,1,1.91,3l-.46-.38a13.17,13.17,0,0,1-1.48.83,20.19,20.19,0,0,1-4.86,1.58c-1.15.19-2.34.31-3.53.39a3,3,0,0,0,.43-.92,3.51,3.51,0,0,0-.15-2.17,7.13,7.13,0,0,0-2.47-3,10.06,10.06,0,0,0-3.24-1.62,7.37,7.37,0,0,0-3.65-.16,28.26,28.26,0,0,0,2.6,2.28c.84.66,1.66,1.29,2.49,1.9a23.66,23.66,0,0,1,2.22,1.75,3.44,3.44,0,0,1,.74,1,2.5,2.5,0,0,1,.2,1.56l-.54-.57a51.54,51.54,0,0,1-5.7-.11,45,45,0,0,1-5.3-.71c-.86-.18-1.76-.37-2.56-.62A13.33,13.33,0,0,1,403,430a20.21,20.21,0,0,1-7.48-7,27.37,27.37,0,0,1-2.44-4.68,32,32,0,0,1-1.5-5.11c-.76-3.52-1.1-7.19-1.72-10.85-.32-1.84-.74-3.63-1.12-5.43s-.79-3.59-1.28-5.39a32.69,32.69,0,0,0-2.07-5.16c-.79-1.66-1.53-3.34-2.26-5,.59,1.74,1.19,3.48,1.84,5.21a31.77,31.77,0,0,1,1.72,5.18c.37,1.77.64,3.59.93,5.4s.58,3.63.78,5.43c.44,3.62.63,7.3,1.25,11,0,.15,0,.3.08.45a86.22,86.22,0,0,1-8.66,2.58c-21.11,5-43.26,5-64.74,2.68a314,314,0,0,1-33.1-5.43c.64-3.75,1.28-7.49,2.06-11.2,1.55-7.49,3.48-15,7.18-21.75a49.24,49.24,0,0,0-5.15,10.35,115.35,115.35,0,0,0-3.46,11.07c-1,3.74-1.77,7.52-2.58,11.28l-1.23,5.61c-.22.92-.44,1.85-.71,2.73a11.29,11.29,0,0,1-.42,1.28c-.14.41-.34.83-.53,1.25a26.1,26.1,0,0,1-2.86,4.7,20.39,20.39,0,0,1-3.79,3.86,14.64,14.64,0,0,1-4.66,2.47,36,36,0,0,1-5.41,1.12,48.17,48.17,0,0,1-8.4.42l-.54.57a2.59,2.59,0,0,1,.2-1.56,3.27,3.27,0,0,1,.74-1,22.09,22.09,0,0,1,2.22-1.76c.83-.61,1.65-1.24,2.49-1.9a29.47,29.47,0,0,0,2.61-2.27,7.41,7.41,0,0,0-3.66.16,9.79,9.79,0,0,0-3.23,1.61,7.13,7.13,0,0,0-2.48,3,3.62,3.62,0,0,0-.15,2.18,2.77,2.77,0,0,0,.43.9c-.47,0-.93,0-1.39-.09a22.1,22.1,0,0,1-2.68-.41,19.2,19.2,0,0,1-2.59-.75,14.81,14.81,0,0,1-3.2-1.55l-.47.39h0a12.91,12.91,0,0,1,1.91-3,9.26,9.26,0,0,1,2.27-1.93c.84-.44,1.93-.89,3.05-1.5a13.58,13.58,0,0,0,3.13-2.28,13.23,13.23,0,0,0-3.88,0,12.23,12.23,0,0,0-1.87.39,8.4,8.4,0,0,0-2,.78,6.48,6.48,0,0,0-2.78,3.36,5.55,5.55,0,0,0-.24,3.09c-.13-.11-.28-.22-.4-.33a4.69,4.69,0,0,1-1.25-1.77l-.14-.48a4.53,4.53,0,0,1-.06-.5,1.94,1.94,0,0,1,.1-.85c.29-1,1.9-1.89,3.6-2.59a22.42,22.42,0,0,0,5.47-2.84,6.81,6.81,0,0,0,1.25-1.36,4.64,4.64,0,0,0,.47-.85c.06-.15.13-.31.18-.45l.13-.39a13.94,13.94,0,0,0,.56-3.13c.15-2,.09-4,.07-5.9s0-3.83,0-5.75c0-3.84,0-7.7-.1-11.56a134.87,134.87,0,0,0-2.22-23.1,57.07,57.07,0,0,0-3.39-11.14,22.73,22.73,0,0,0-6.82-9.26,18.3,18.3,0,0,1,3.62,4.42,30.74,30.74,0,0,1,2.47,5.14,56.23,56.23,0,0,1,2.68,11.09,150.53,150.53,0,0,1,1.33,22.87c0,3.83-.13,7.66-.19,11.51-.05,1.93-.06,3.87-.07,5.79s0,3.69-.16,5.43c-1,0-1.88,0-2.41,0a154.25,154.25,0,0,1-17.6-.24c-2.75-.22-14.45-.57-15.14-4.64-.63-3.64,11.46-4.83,13.86-6.68,4.66-3.6-6.26-6.18-8.39-7.39-30.11-17.08-31.37-57.25-28.42-87.67.88-9.14,2.27-18.22,3.91-27.25a377.56,377.56,0,0,1,52.42-133.52c12.29-19.28,26.79-38.3,46.8-50.08a77.35,77.35,0,0,1,58.72-8.26C371,96.62,388,107.6,401.85,121.21c15.24,15,25,32.84,34.42,51.76,11.43,22.95,22.15,46.29,30.8,70.44,8,22.35,15,46,17.25,69.67C486.09,331.72,484.11,351.31,475.15,368Z"/>    </g>    <g id="eye">        <g id="eye-color1">            <path fill="#B59070"  d="M313.78,164.9c-3.39,2.5-10.65,1-16.48-.17-1.32-.26-2.6-.52-3.79-.73-4.66-.83-16.91-1.79-29.56-1.36-11,.38-25.71,2-33.21,7.25-5.59,4-10.27,5.34-12.53,3.68-1.94-1.43-2.19-5.29-.64-10.09,3.23-10,10.8-33.57,41.36-36.92a43.89,43.89,0,0,1,12.11.56c11.43,2,25,8.16,36.48,19.54,5.5,5.45,8.71,10.76,8.4,13.87A5.76,5.76,0,0,1,313.78,164.9Z"/><path fill="#B59070"  d="M442.77,166.43c-3.45,2.43-10.55.71-16.26-.67-1.28-.31-2.53-.62-3.7-.87-4.56-1-16.6-2.33-29.11-2.27-10.88,0-25.44,1.19-33.07,6.35-5.68,3.84-10.36,5.1-12.51,3.34-1.86-1.5-1.94-5.43-.21-10.25,3.61-10.1,12.07-33.75,42.36-36.22a41.84,41.84,0,0,1,11.92.94c11.19,2.4,24.31,9,35.18,20.95,5.19,5.69,8.14,11.18,7.7,14.33A6,6,0,0,1,442.77,166.43Z"/>        </g>        <g id="eye-shape">            <path fill="none"  d="M436.34,147.2c-10.89-11.41-23.95-17.74-35-20a42.19,42.19,0,0,0-11.79-.86c-29.86,2.45-37.87,25.17-41.29,34.87-1.63,4.64-1.49,8.41.36,9.85,2.15,1.67,6.75.46,12.31-3.25,7.45-5,21.81-6.11,32.55-6.18,12.35-.09,24.26,1.18,28.78,2.1,1.15.24,2.39.53,3.66.82,5.66,1.32,12.7,2.95,16.07.6a5.61,5.61,0,0,0,2.2-4.2C444.55,157.91,441.55,152.65,436.34,147.2Z"/><path fill="#fff"  d="M425.22,167.46c-1.25-.29-2.46-.57-3.6-.81-9.55-2-46.64-4.65-59.06,3.64-4,2.65-7.09,3.87-9.51,4.29,1.11,5.38,7.29,20.33,41.6,20.49,26.82.13,37.41-6.69,41.57-12.43a15.66,15.66,0,0,0,2.39-13.38C434.55,169.62,429.68,168.49,425.22,167.46Zm-5.89,19.69c-4.2-.86-6.76-5.68-5.72-10.78s5.3-8.53,9.5-7.67a7.45,7.45,0,0,1,5.39,5.15c-2.06.59-3.86,2-2.77,2.9a3.94,3.94,0,0,0,3.32.72,11.77,11.77,0,0,1-.22,2C427.78,184.58,423.53,188,419.33,187.15Z"/><path d="M425.73,176.75c-1.09-.92.71-2.31,2.77-2.9a7.45,7.45,0,0,0-5.39-5.15c-4.2-.86-8.45,2.57-9.5,7.67s1.52,9.92,5.72,10.78,8.45-2.57,9.5-7.66a11.77,11.77,0,0,0,.22-2A3.94,3.94,0,0,1,425.73,176.75Z"/><path d="M447.13,161.32c.52-4-2.62-9.92-8.62-16.2-11.39-11.92-31-23.29-49.23-21.79-13.34,1.09-24.13,6.2-32.06,15.2-7,7.9-10.24,17.2-11.82,21.67-2.14,6.07-1.65,10.88,1.35,13.21a6.36,6.36,0,0,0,2.65,1.18,6.17,6.17,0,0,0,.62.1c.86,4.86,5.2,17.25,27.08,21.74a90,90,0,0,0,17.54,1.64c28.09.14,39.44-7.36,44-13.67a18.53,18.53,0,0,0,2.9-15.75,8.73,8.73,0,0,0,2.12-1.05A8.56,8.56,0,0,0,447.13,161.32Zm-10.91,21.32c-4.16,5.74-14.75,12.56-41.57,12.43-34.31-.16-40.49-15.11-41.6-20.49,2.42-.42,5.54-1.64,9.51-4.29,12.42-8.29,49.51-5.59,59.06-3.64,1.14.24,2.35.52,3.6.81,4.46,1,9.33,2.16,13.39,1.8A15.66,15.66,0,0,1,436.22,182.64ZM442,165.13c-3.37,2.35-10.41.72-16.07-.6-1.27-.29-2.51-.58-3.66-.82-4.52-.92-16.43-2.19-28.78-2.1-10.74.07-25.1,1.21-32.55,6.18-5.56,3.71-10.16,4.92-12.31,3.25-1.85-1.44-2-5.21-.36-9.85,3.42-9.7,11.43-32.42,41.29-34.87a42.19,42.19,0,0,1,11.79.86c11.08,2.28,24.14,8.61,35,20,5.21,5.45,8.21,10.71,7.82,13.73A5.61,5.61,0,0,1,442,165.13Z"/><path fill="none"  d="M306,146.6c-11.21-11.1-24.43-17.08-35.57-19a42.44,42.44,0,0,0-11.81-.54c-29.78,3.26-37.17,26.2-40.32,36-1.5,4.68-1.26,8.44.63,9.83,2.2,1.62,6.76.28,12.21-3.58,7.32-5.17,21.65-6.7,32.38-7.07,12.34-.42,24.28.52,28.82,1.32,1.16.21,2.4.46,3.69.72,5.68,1.16,12.77,2.6,16.07.16a5.64,5.64,0,0,0,2.09-4.26C314.53,157.09,311.39,151.91,306,146.6Z"/><path fill="#fff"  d="M295.47,167.16c-1.26-.26-2.47-.5-3.62-.71-9.6-1.69-46.75-3.37-58.94,5.25-3.89,2.76-7,4.07-9.38,4.55,1.26,5.35,7.84,20.12,42.14,19.35,26.81-.6,37.21-7.71,41.22-13.56a15.68,15.68,0,0,0,2-13.45C304.86,169.07,300,168.07,295.47,167.16ZM290.12,187c-4.22-.75-6.91-5.5-6-10.62s5.06-8.67,9.29-7.93a7.46,7.46,0,0,1,5.53,5c-2.05.65-3.81,2.09-2.69,3a3.92,3.92,0,0,0,3.34.62,11.75,11.75,0,0,1-.17,2C298.5,184.21,294.34,187.76,290.12,187Z"/><path d="M296.24,176.44c-1.12-.89.64-2.33,2.69-3a7.46,7.46,0,0,0-5.53-5c-4.23-.74-8.38,2.8-9.29,7.93s1.79,9.87,6,10.62,8.38-2.8,9.29-7.92a11.75,11.75,0,0,0,.17-2A3.92,3.92,0,0,1,296.24,176.44Z"/><path d="M317.21,160.42c.4-4-2.9-9.84-9.06-15.95C296.43,132.86,276.49,122,258.34,124c-13.31,1.46-23.95,6.86-31.63,16.07-6.75,8.09-9.77,17.47-11.22,22-2,6.13-1.35,10.93,1.7,13.17a6.37,6.37,0,0,0,2.69,1.11,6.17,6.17,0,0,0,.62.09c1,4.82,5.67,17.1,27.66,21a89.35,89.35,0,0,0,17.58,1.17c28.08-.63,39.22-8.43,43.62-14.87a18.55,18.55,0,0,0,2.47-15.83,8.68,8.68,0,0,0,2.09-1.1A8.57,8.57,0,0,0,317.21,160.42ZM306.89,182c-4,5.85-14.41,13-41.22,13.56-34.3.77-40.88-14-42.14-19.35,2.4-.48,5.49-1.79,9.38-4.55,12.19-8.62,49.34-6.94,58.94-5.25,1.15.21,2.36.45,3.62.71,4.49.91,9.39,1.91,13.44,1.43A15.68,15.68,0,0,1,306.89,182Zm5.25-17.66c-3.3,2.44-10.39,1-16.07-.16-1.29-.26-2.53-.51-3.69-.72-4.54-.8-16.48-1.74-28.82-1.32-10.73.37-25.06,1.9-32.38,7.07-5.45,3.86-10,5.2-12.21,3.58-1.89-1.39-2.13-5.15-.63-9.83,3.15-9.79,10.54-32.73,40.32-36a42.44,42.44,0,0,1,11.81.54c11.14,2,24.36,8,35.57,19,5.35,5.31,8.49,10.49,8.19,13.52A5.64,5.64,0,0,1,312.14,164.38Z"/><ellipse fill="#fff"  cx="431.87" cy="175.17" rx="6.82" ry="2.79" transform="translate(-25.08 83.54) rotate(-10.74)"/><ellipse fill="#fff"  cx="301.76" cy="174.81" rx="6.82" ry="2.67" transform="translate(-34.27 81.52) rotate(-14.57)"/>        </g>        <g id="eye-color2">            <path fill="#B5B4B4"  d="M429,178.18a10,10,0,0,1-.17,1.31c-1.05,5.09-5.3,8.53-9.5,7.66s-6.76-5.68-5.72-10.78,5.3-8.53,9.5-7.67a6.57,6.57,0,0,1,2.5,1.11,9.59,9.59,0,0,0-6.44-2.56c-5.78,0-10.46,5.38-10.46,12s4.68,12,10.46,12,10.46-5.39,10.46-12c0-.36,0-.72,0-1.08Z"/><path fill="#B5B4B4"  d="M299.54,177.88a10.16,10.16,0,0,1-.13,1.21c-.91,5.12-5.07,8.67-9.29,7.92s-6.91-5.5-6-10.62,5.06-8.67,9.29-7.93a6.51,6.51,0,0,1,1.44.45,9.43,9.43,0,0,0-5.16-1.56c-5.78,0-10.46,5.38-10.46,12s4.68,12,10.46,12,10.47-5.38,10.47-12a12.82,12.82,0,0,0-.1-1.53Z"/>        </g>    </g>    <g id="nose-mouth">        <path d="M354.67,215.41a40.33,40.33,0,0,0,6.77-9,61.4,61.4,0,0,1-11.77,10.35,14.61,14.61,0,0,1-1.65,1c-.57.3-1.1.65-1.68.93l-1.73.8c-.57.27-1.18.44-1.77.67a28.91,28.91,0,0,1-5.86,1.47l-.35-6.22-.52,0c7-1.39,16.38-11,14.26-16.95-4-11.35-32.41-5.28-35.28,1.42-3.55,8.28,11.16,15.16,18.54,15.67l.36,6.31a37,37,0,0,1-13.51-2.21c-1-.35-2-.74-3-1.15l-.2-.08-.14-.06a62.37,62.37,0,0,1-10.65-5.88,38.59,38.59,0,0,0,10.33,8l0,.22a14.87,14.87,0,0,0,2.82,10.44c2.79,3.71,7.36,6,13.55,6.8a27.59,27.59,0,0,0,3.3.21,19.25,19.25,0,0,0,16.7-9c3-4.74,3.66-10.3,1.6-13.5Zm-18.18-18c1.07-4.29,11.19-2.37,9.52,1.43S335.43,201.61,336.49,197.36Z"/><path fill="#c4223a"  d="M323.72,231.05h0s3.54,4.22,12.43,4.29c8,.06,11.84-4.4,12.56-5.32l.13-.18C337.8,225.8,325.41,230.38,323.72,231.05Z"/><path fill="#8e1725"  d="M335.7,226.3a36,36,0,0,1-15.9-2.91,11.15,11.15,0,0,0,3.92,7.66c1.69-.67,14.08-5.25,25.12-1.21l-.13.18a17,17,0,0,0,2-2.5,13.25,13.25,0,0,0,2.26-8.31A26.59,26.59,0,0,1,335.7,226.3Z"/><path fill="#fff"  d="M346,198.79c1.67-3.8-8.45-5.72-9.52-1.43S344.34,202.58,346,198.79Z"/>    </g></svg>