<!--  ~ Copyright (C) 2018 Baidu, Inc. All Rights Reserved.  --><svg viewBox="0 0 640 480" xmlns="http://www.w3.org/2000/svg">    <g id="back-ground-cl">        <rect fill="none" width="640" height="480" />        <ellipse opacity="0.1" cx="331.93" cy="418.82" rx="168.39" ry="32.01"/>    </g>    <g id="body">        <defs>            <clipPath id="outline">                <path fill="none"  d="M180.84,358.23c-13.37-3.79-31.9-13.93-31.89-30.06,0-7.83,5.89-17.95,14.25-18.91a9.84,9.84,0,0,1,4.14.38c1.26.4,2.41,1.63,3.63,1.87,6.6,1.28,4.62-5.39,2.32-8-5-5.78-17.34-5.63-24-3.76-14.65,4.1-29.75,21.85-29.06,37.44.77,17.19,14.14,32.19,29.19,39.12,14.31,6.59,31.64,7.43,46.85,3.51a78.41,78.41,0,0,1-7.55-19.88A60.85,60.85,0,0,1,180.84,358.23Z"/><path fill="none"  d="M227.26,177.87c11-21.26,23.71-42.61,40.14-60.17,9-9.61,19.47-17.89,31.21-23.51a14.09,14.09,0,0,0-2.36-2c-.65-.49-1.33-1-2-1.58-.38-.34-.77-.67-1.16-1h0c-8.76-6.76-23-5-32.5.13-.36.19-.72.4-1.08.61l-1.68,1C254,93.7,249.36,96.51,245,97.91c1.6,1.34,3,2.5,2.61,4a2.25,2.25,0,0,1-1.89,1.66c-1.49.36-4.65.79-7.31,1.12a7.66,7.66,0,0,0,5.34,1l7.2-1.8L245,108.39c-2.29,1.72-5.44,2.47-8.5,2.81a3.54,3.54,0,0,1,1.23,2.26,2.35,2.35,0,0,1-.78,1.89,21.32,21.32,0,0,1-5.83,3.72l1.17-.23,1.3-.25a15.11,15.11,0,0,1,1.51-.15,8.49,8.49,0,0,0,1.9-.24l1.54,2.57h0c-9.17,5.59-16.37,14.08-23.34,22.3C208.55,150.9,201.69,159,193,164.8a155.52,155.52,0,0,1-19.61,10.75l-3.93,1.9c-7.28,3.51-14.8,7.15-22.44,10-10.21,3.88-20.38,11.08-18.4,35.15,1.1,13.33,10,25.38,22.11,30C162.21,257,176.45,256,189.83,250a80.26,80.26,0,0,0,10.82-6A379.27,379.27,0,0,1,227.26,177.87Z"/><path fill="none"  d="M520.85,184.67c-7.64-2.9-15.17-6.54-22.45-10.06l-3.92-1.89A155.43,155.43,0,0,1,474.88,162c-10.56-7.09-18.13-16.52-25.45-25.65C444.35,130,439.55,124,434,119.1l-3.5-3.1,4.65.49c.75.08,1.38.16,1.93.25-.69-.32-1.37-.66-2-1l-1.69-.83-.58-.26a7,7,0,0,1-2.7-1.74,1.64,1.64,0,0,1-.36-1.47c.21-.86.9-1.32,2.32-1.92-4-.8-8.74-2.19-11.18-3.94L414.45,101l7.66,1.92a17.3,17.3,0,0,0,6.56.13c-2.16-.79-4.63-1.65-5.91-2a1.81,1.81,0,0,1-1.62-1.73c0-1.57,1.51-2,6-3.12a131.34,131.34,0,0,1-18.74-8.73C398,81.3,384.69,81,374.45,86.62c-2.76,1.52-6.07,4-6.19,7.32a2.12,2.12,0,0,0,.07.61c2.72,1.21,5.4,2.53,8,4,17.45,9.58,32.34,23.66,43.88,39.81,6.56,9.19,11.57,19.21,16.62,29.28,5.92,11.76,11.65,23.61,17.05,35.62,5.84,13,11.3,26.22,16.11,39.66a80.76,80.76,0,0,0,8.08,4.26c13.38,6,27.62,7,39.06,2.65,12.12-4.6,21-16.65,22.11-30C541.23,195.74,531.06,188.54,520.85,184.67Z"/><path fill="none"  d="M436.3,173.2c-9.43-18.93-19.18-36.8-34.42-51.77C388,107.82,371,96.84,352.08,92a77.3,77.3,0,0,0-58.72,8.25c-20,11.78-34.51,30.8-46.8,50.08a377.61,377.61,0,0,0-52.42,133.53c-1.64,9-3,18.11-3.91,27.25-2.95,30.41-1.69,70.58,28.42,87.66,2.13,1.21,13,3.8,8.39,7.39-2.4,1.85-14.49,3-13.86,6.68.69,4.07,12.39,4.42,15.14,4.64a154.25,154.25,0,0,0,17.6.25c.53,0,1.45,0,2.42,0q.06-.66.09-1.35c.11-3.78.06-7.79.17-11.67s.13-7.78.11-11.66a160.42,160.42,0,0,0-1.55-23.2,61.18,61.18,0,0,0-2.71-11.26,33,33,0,0,0-2.45-5.25,18.37,18.37,0,0,0-3.63-4.52c3.15,2.36,5.25,5.89,6.81,9.48a61,61,0,0,1,3.42,11.29A144,144,0,0,1,251,393c.14,3.92.19,7.83.18,11.74l0,5.84c0,1.94.07,3.89,0,5.9a21,21,0,0,1-.27,3.11,11.26,11.26,0,0,1-.38,1.6l-.13.4-.18.46a5.61,5.61,0,0,1-.49.86,7.83,7.83,0,0,1-2.67,2.32,25.27,25.27,0,0,1-2.81,1.33c-.91.39-1.79.74-2.58,1.14a6,6,0,0,0-1.87,1.34,2,2,0,0,0-.46,1.63,3.7,3.7,0,0,0,.8,1.91,6.76,6.76,0,0,0,1,1,5.49,5.49,0,0,1,.23-3.1,6.54,6.54,0,0,1,2.79-3.36,8.4,8.4,0,0,1,2-.78,10.89,10.89,0,0,1,1.87-.38A13.21,13.21,0,0,1,252,426a13.14,13.14,0,0,1-3.14,2.28c-1.12.61-2.2,1.07-3,1.5a9.26,9.26,0,0,0-2.27,1.93,12.58,12.58,0,0,0-1.91,3l.46-.38a13.8,13.8,0,0,0,2.26,1.18,20.33,20.33,0,0,0,5.24,1.41c.79.1,1.58.16,2.37.22a2.79,2.79,0,0,1-.44-.92,3.62,3.62,0,0,1,.16-2.18,7.25,7.25,0,0,1,2.47-3,10,10,0,0,1,3.24-1.61,7.37,7.37,0,0,1,3.65-.16,28.07,28.07,0,0,1-2.6,2.27c-.85.67-1.66,1.29-2.49,1.91a19.8,19.8,0,0,0-2.22,1.75,3.12,3.12,0,0,0-.74,1,2.58,2.58,0,0,0-.21,1.56l.56-.58a47.85,47.85,0,0,0,7.57-.3,42,42,0,0,0,5.57-1,14.81,14.81,0,0,0,4.79-2.29,16.64,16.64,0,0,0,3.79-3.88,25,25,0,0,0,2.71-4.86,34.06,34.06,0,0,0,1.72-5.38,46.87,46.87,0,0,0,.89-5.65l.74-5.85q.45-2.92,1.17-5.81c1.92-7.71,5.82-14.69,10.24-21.09a114.47,114.47,0,0,0-5.34,10.39,52.49,52.49,0,0,0-3.46,11c-.38,1.89-.69,3.8-.91,5.71l-.48,5.76a315.77,315.77,0,0,0,34,5.62c21.48,2.29,43.63,2.35,64.74-2.67a85,85,0,0,0,8.6-2.57,97,97,0,0,1-1.61-10.87,72.73,72.73,0,0,0-1.72-11.11c-.87-3.66-2-7.26-3.18-10.85a96.89,96.89,0,0,1,3.95,10.64,74.87,74.87,0,0,1,2.41,11.13,92.35,92.35,0,0,0,2.15,11,30.37,30.37,0,0,0,4.54,9.88,18.59,18.59,0,0,0,8.12,6.57,28.16,28.16,0,0,0,5.23,1.25,43.47,43.47,0,0,0,5.47.53c1.29.05,2.59,0,3.89,0l.55.57a2.58,2.58,0,0,0-.2-1.56,3.44,3.44,0,0,0-.74-1,25,25,0,0,0-2.22-1.75c-.83-.61-1.65-1.24-2.49-1.9a28.12,28.12,0,0,1-2.61-2.27,7.41,7.41,0,0,1,3.66.16,9.89,9.89,0,0,1,3.23,1.61,7.13,7.13,0,0,1,2.48,3,3.59,3.59,0,0,1,.15,2.17,2.82,2.82,0,0,1-.45.94h.24a23.88,23.88,0,0,0,5.27-.87,17,17,0,0,0,4.38-1.94l.45.38a12.58,12.58,0,0,0-1.91-3,9.22,9.22,0,0,0-2.26-1.93c-.84-.44-1.93-.89-3.05-1.5a13.34,13.34,0,0,1-3.13-2.29,13.58,13.58,0,0,1,3.88.05,12.49,12.49,0,0,1,1.87.39,8.58,8.58,0,0,1,2,.78,6.52,6.52,0,0,1,2.78,3.36A5.43,5.43,0,0,1,431,429a4.45,4.45,0,0,0,1.85-3.07,2.27,2.27,0,0,0-.41-1.65,5.38,5.38,0,0,0-1.71-1.31c-1.49-.77-3.31-1.33-5.14-2.13a12.62,12.62,0,0,1-2.76-1.6,6.38,6.38,0,0,1-1.26-1.28l-.27-.38c-.09-.16-.18-.32-.25-.48a4.82,4.82,0,0,1-.32-.92c-.14-.6-.19-1.08-.26-1.54l-.2-1.4-.37-2.83a81.22,81.22,0,0,1-.68-11.49,58.94,58.94,0,0,1,1.49-11.44c.81-3.74,1.84-7.4,2.85-11l2.9-10.94c1-3.65,2-7.29,3.17-10.9a42.86,42.86,0,0,1,2-5.34,13.72,13.72,0,0,1,3.37-4.56,13.4,13.4,0,0,0-3,4.74,44.05,44.05,0,0,0-1.64,5.38c-.93,3.65-1.73,7.33-2.51,11s-1.58,7.38-2.43,11.08-1.78,7.32-2.45,11a63.33,63.33,0,0,0-1.16,11,80,80,0,0,0,.87,11.09l.38,2.57c5.45.88,11.4.47,16.8.3a155.32,155.32,0,0,0,19.15-1.45c2.35-.37,3.94,0,2.57-2.3-1.6-2.7-4-4-6.92-5-2.41-.83-9.31-1-10.72-3.45-.76-1.35.09-2.06,1-2.94,1.36-1.35,4-2.21,5.61-3.25q3-1.87,5.8-4a69.52,69.52,0,0,0,18.79-22.2c9-16.71,10.94-36.3,9.17-54.93-2.25-23.73-9.25-47.33-17.25-69.68C458.45,219.48,447.73,196.14,436.3,173.2Z"/><path d="M521.92,181.86c-7.53-2.85-15-6.46-22.22-10-1.31-.63-2.61-1.27-3.92-1.89a153.52,153.52,0,0,1-19.23-10.54c-10.18-6.83-17.6-16.09-24.78-25A176.51,176.51,0,0,0,439.36,120a11.44,11.44,0,0,0,4.88-1l3.48-1.34c-.45-.25-2.26-.9-2.72-1.08-2.89-1.11-5.83-2.13-8.6-3.51l-1.75-.86-.6-.27.53-.21a22.32,22.32,0,0,0,3.71-1.74l3.93-2.6-4.71-.15a40.22,40.22,0,0,1-7.87-1.33A16,16,0,0,0,434,104.5l3-1.52-3.1-1.21c-.21-.08-3.61-1.39-6.66-2.45l1.18-.29a40.57,40.57,0,0,0,4.84-1.39l4.83-2-5.16-.86c-5.18-.86-18.16-7-22.94-9.85-11.26-6.74-25.75-7.11-36.9-.94-4.68,2.59-7.32,5.79-7.69,9.28-13.61-5.53-28.36-8.09-43.05-6.19a76.87,76.87,0,0,0-20.85,5.84,14.8,14.8,0,0,0-3.35-3.18,21.44,21.44,0,0,1-1.75-1.4c-.44-.39-.89-.77-1.35-1.13-10.23-7.89-25.7-5.6-35.76-.13-.4.22-.8.44-1.19.68l-1.7,1c-4.47,2.71-10,6.09-14.66,6.85l-2.42.41a22.22,22.22,0,0,0,3.68,4.07c.26.22.59.49.9.77-3.34.59-10,1.31-10.12,1.32l-4.12.44L233,105a32,32,0,0,0,5.16,3,36.61,36.61,0,0,1-5.74.55l-3.75.12,2.8,2.5a16.07,16.07,0,0,0,1.3,1,14.59,14.59,0,0,1,1.72,1.4c-3,2.57-7.35,4-11.29,5.27a10.63,10.63,0,0,1-1.49.35l-5.77,1,5.54,1.9c3.56.42,6,.71,8.28.33.55-.08,1.1-.18,1.64-.28-7,5.48-12.85,12.37-18.53,19.08-6.5,7.66-13.22,15.59-21.53,21.17a152.82,152.82,0,0,1-19.23,10.54l-3.94,1.9c-7.22,3.48-14.68,7.09-22.19,9.94-10.6,4-22.49,12-20.33,38.19,1.2,14.46,10.85,27.54,24,32.54a46.33,46.33,0,0,0,16.42,2.88,61.24,61.24,0,0,0,24.95-5.6,82,82,0,0,0,8.3-4.37q-4.87,17.16-8.13,34.73c-4.14,22.8-8.11,49.66-3.25,73.68a61.05,61.05,0,0,1-11.49-3.1c-8.62-3.25-17.72-8.74-22.26-17.06-4.28-7.83-1.8-21.94,8.41-24.19,4.47-1,12.6,7.2,15.42-.06,1.53-3.95-.72-9.61-3.9-12.09-10.76-8.4-28.1-4.73-38,2.92-11.08,8.57-20.66,22.88-18.66,37.35,2.16,15.63,13.44,29.31,27,36.7,16.23,8.81,35.25,9.71,53.28,5.31.12.2.23.41.36.61a53.84,53.84,0,0,0,16.37,16.68,51.84,51.84,0,0,0,5.28,3c.46.23,2,1.13,3.24,1.71l-.3.13c-1.79.62-3.6,1.16-5.38,1.81-3.43,1.25-9.09,3.22-6.82,8,1.88,3.91,8,4.8,11.71,5.38a115.9,115.9,0,0,0,20,1c1.44,0,3.41.1,5.39.06a2.12,2.12,0,0,1-.23.41c-.74,1.09-2.47,1.87-4.23,2.59-.89.37-1.82.74-2.77,1.21a8.73,8.73,0,0,0-2.83,2.08,5,5,0,0,0-1,1.81,5.56,5.56,0,0,0-.17,2,6.77,6.77,0,0,0,1.39,3.44,13.11,13.11,0,0,0,5.38,3.75,23.22,23.22,0,0,0,6,1.58,48.42,48.42,0,0,0,12-.11,44.67,44.67,0,0,0,5.92-1.2,17.45,17.45,0,0,0,5.65-2.83,22.49,22.49,0,0,0,7.1-10,36.65,36.65,0,0,0,2.14-8.76c22.5,4.91,45.67,7.82,68.72,6.91a160.11,160.11,0,0,0,32.55-4.44c2.41-.6,4.79-1.27,7.16-2a29.81,29.81,0,0,0,3.82,8.09,20.41,20.41,0,0,0,9.07,7.68,30.89,30.89,0,0,0,5.73,1.5,48.47,48.47,0,0,0,11.62.64c1-.07,1.92-.15,2.93-.3a23.78,23.78,0,0,0,2.95-.64,19.25,19.25,0,0,0,5.58-2.52,10.22,10.22,0,0,0,2.4-2.3,7.75,7.75,0,0,0,.86-1.58l.26-.89a6.6,6.6,0,0,0,.14-.89,6,6,0,0,0-.15-1.91,5.47,5.47,0,0,0-.87-1.78,8,8,0,0,0-2.72-2.14c-1.88-.95-3.7-1.48-5.33-2.19a10.32,10.32,0,0,1-2.14-1.2,4.2,4.2,0,0,1-.73-.73l-.14-.19-.08-.15c0-.08-.07-.18-.1-.29l.76.07a142.39,142.39,0,0,0,20.86,0c5.56-.29,11.91-.21,17.3-1.84,3.77-1.13,2.9-4.86.85-7.64-3.27-4.44-9.45-5.46-14.46-6.64l-.42-.13c.93-.57,1.95-1.32,2.33-1.55a77.7,77.7,0,0,0,11.85-8.79c14-12.67,21.84-30.36,24.29-48.89,2.85-21.54-1.3-43.23-6.67-64-2.52-9.77-5.48-19.4-8.78-28.92,1.74.95,3.51,1.84,5.32,2.65a61,61,0,0,0,24.95,5.6,46.05,46.05,0,0,0,16.41-2.88c13.18-5,22.83-18.07,24-32.53C544.4,193.85,532.51,185.88,521.92,181.86,189.85,250a61.52,61.52,0,0,1-23.71,5.32c-9.54,0-19.28-3-26.28-9.49-9-8.33-12.48-21.47-11.26-33.69a36.83,36.83,0,0,1,2.54-10.54,22.16,22.16,0,0,1,6.17-8.63c.29-.24.51-.51.78-.76a5.94,5.94,0,0,1,1.2-.69c.86-.47,1.74-.93,2.61-1.38q2.63-1.37,5.3-2.62c3.58-1.7,7.19-3.31,10.81-4.9s7.25-3.16,10.86-4.78,7.14-3.29,10.64-5.1,6.88-3.72,10.16-5.84a84.58,84.58,0,0,0,8.3-6.05c15.79-13.08,26.24-32.4,44-42.66a54.9,54.9,0,0,0-10.86.87,23.87,23.87,0,0,0,8.14-5.35,11.45,11.45,0,0,1-2.76-2.41,24.69,24.69,0,0,0,14.31-7.5,13.72,13.72,0,0,1-12.29.63c2.29.4,9.19-1.35,11-2.8.25-.2-2.37-1.72-4.08-3.32,8.28-5.21,16.81-10.51,26.42-12.38s20.66.46,26.62,8.22c-26.53,13.45-45.4,38.28-60.41,64a399.05,399.05,0,0,0-35.57,79.81,18.63,18.63,0,0,1-2.78,6.11,16.78,16.78,0,0,1-6.08,4.26Q191.76,249.19,189.85,250,149.39,376.28c-15-6.93-28.42-21.93-29.19-39.12-.69-15.59,14.41-33.34,29.06-37.44,6.69-1.87,19-2,24,3.76,2.3,2.64,4.28,9.31-2.32,8-1.22-.24-2.37-1.47-3.63-1.87a9.84,9.84,0,0,0-4.14-.38c-8.36,1-14.24,11.08-14.25,18.91,0,16.13,18.52,26.27,31.89,30.06a60.85,60.85,0,0,0,7.85,1.68,78.41,78.41,0,0,0,7.55,19.88C181,383.71,163.7,382.87,149.39,376.28,335-63c1.77,18.63-.21,38.22-9.17,54.93a69.52,69.52,0,0,1-18.79,22.2q-2.81,2.16-5.8,4c-1.64,1-4.25,1.9-5.61,3.25-.88.88-1.73,1.59-1,2.94,1.41,2.48,8.31,2.62,10.72,3.45,2.94,1,5.32,2.31,6.92,5,1.37,2.3-.22,1.93-2.57,2.3a155.32,155.32,0,0,1-19.15,1.45c-5.4.17-11.35.58-16.8-.3l-.38-2.57a80,80,0,0,1-.87-11.09,63.33,63.33,0,0,1,1.16-11c.67-3.68,1.6-7.31,2.45-11s1.63-7.39,2.43-11.08,1.58-7.37,2.51-11a44.05,44.05,0,0,1,1.64-5.38,13.4,13.4,0,0,1,3-4.74,13.72,13.72,0,0,0-3.37,4.56,42.86,42.86,0,0,0-2,5.34c-1.15,3.61-2.18,7.25-3.17,10.9l-2.9,10.94c-1,3.62-2,7.28-2.85,11a58.94,58.94,0,0,0-1.49,11.44,81.22,81.22,0,0,0,.68,11.49l.37,2.83.2,1.4c.07.46.12.94.26,1.54a4.82,4.82,0,0,0,.32.92c.07.16.16.32.25.48l.27.38a6.38,6.38,0,0,0,1.26,1.28,12.62,12.62,0,0,0,2.76,1.6c1.83.8,3.65,1.36,5.14,2.13a5.38,5.38,0,0,1,1.71,1.31,2.27,2.27,0,0,1,.41,1.65A4.45,4.45,0,0,1,431,429a5.43,5.43,0,0,0-.23-3.13,6.52,6.52,0,0,0-2.78-3.36,8.58,8.58,0,0,0-2-.78,12.49,12.49,0,0,0-1.87-.39,13.58,13.58,0,0,0-3.88-.05,13.34,13.34,0,0,0,3.13,2.29c1.12.61,2.21,1.06,3.05,1.5a9.22,9.22,0,0,1,2.26,1.93,12.58,12.58,0,0,1,1.91,3l-.45-.38a17,17,0,0,1-4.38,1.94,23.88,23.88,0,0,1-5.27.87h-.24a2.82,2.82,0,0,0,.45-.94,3.59,3.59,0,0,0-.15-2.17,7.13,7.13,0,0,0-2.48-3,9.89,9.89,0,0,0-3.23-1.61,7.41,7.41,0,0,0-3.66-.16,28.12,28.12,0,0,0,2.61,2.27c.84.66,1.66,1.29,2.49,1.9a25,25,0,0,1,2.22,1.75,3.44,3.44,0,0,1,.74,1,2.58,2.58,0,0,1,.2,1.56l-.55-.57c-1.3.05-2.6.06-3.89,0a43.47,43.47,0,0,1-5.47-.53,28.16,28.16,0,0,1-5.23-1.25,18.59,18.59,0,0,1-8.12-6.57,30.37,30.37,0,0,1-4.54-9.88,92.35,92.35,0,0,1-2.15-11,74.87,74.87,0,0,0-2.41-11.13,96.89,96.89,0,0,0-3.95-10.64c1.19,3.59,2.31,7.19,3.18,10.85a72.73,72.73,0,0,1,1.72,11.11,97,97,0,0,0,1.61,10.87,85,85,0,0,1-8.6,2.57c-21.11,5-43.26,5-64.74,2.67a315.77,315.77,0,0,1-34-5.62l.48-5.76c.22-1.91.53-3.82.91-5.71a52.49,52.49,0,0,1,3.46-11A114.47,114.47,0,0,1,292.54,381c-4.42,6.4-8.32,13.38-10.24,21.09q-.72,2.88-1.17,5.81l-.74,5.85a46.87,46.87,0,0,1-.89,5.65,34.06,34.06,0,0,1-1.72,5.38,25,25,0,0,1-2.71,4.86,16.64,16.64,0,0,1-3.79,3.88,14.81,14.81,0,0,1-4.79,2.29,42,42,0,0,1-5.57,1,47.85,47.85,0,0,1-7.57.3l-.56.58a2.58,2.58,0,0,1,.21-1.56,3.12,3.12,0,0,1,.74-1,19.8,19.8,0,0,1,2.22-1.75c.83-.62,1.64-1.24,2.49-1.91a28.07,28.07,0,0,0,2.6-2.27,7.37,7.37,0,0,0-3.65.16,10,10,0,0,0-3.24,1.61,7.25,7.25,0,0,0-2.47,3,3.62,3.62,0,0,0-.16,2.18,2.79,2.79,0,0,0,.44.92c-.79-.06-1.58-.12-2.37-.22a20.33,20.33,0,0,1-5.24-1.41,13.8,13.8,0,0,1-2.26-1.18l-.46.38a12.58,12.58,0,0,1,1.91-3,9.26,9.26,0,0,1,2.27-1.93c.84-.43,1.92-.89,3-1.5A13.14,13.14,0,0,0,252,426a13.21,13.21,0,0,0-3.88.05,10.89,10.89,0,0,0-1.87.38,8.4,8.4,0,0,0-2,.78,6.54,6.54,0,0,0-2.79,3.36,5.49,5.49,0,0,0-.23,3.1,6.76,6.76,0,0,1-1-1,3.7,3.7,0,0,1-.8-1.91,2,2,0,0,1,.46-1.63,6,6,0,0,1,1.87-1.34c.79-.4,1.67-.75,2.58-1.14a25.27,25.27,0,0,0,2.81-1.33,7.83,7.83,0,0,0,2.67-2.32,5.61,5.61,0,0,0,.49-.86l.18-.46.13-.4a11.26,11.26,0,0,0,.38-1.6,21,21,0,0,0,.27-3.11c.05-2,0-4,0-5.9l0-5.84c0-3.91,0-7.82-.18-11.74a144,144,0,0,0-2.44-23.41,61,61,0,0,0-3.42-11.29c-1.56-3.59-3.66-7.12-6.81-9.48a18.37,18.37,0,0,1,3.63,4.52,33,33,0,0,1,2.45,5.25,61.18,61.18,0,0,1,2.71,11.26,160.42,160.42,0,0,1,1.55,23.2c0,3.88-.05,7.77-.11,11.66s-.06,7.89-.17,11.67q0,.69-.09,1.35c-1,0-1.89,0-2.42,0a154.25,154.25,0,0,1-17.6-.25c-2.75-.22-14.45-.57-15.14-4.64-.63-3.64,11.46-4.83,13.86-6.68,4.66-3.59-6.26-6.18-8.39-7.39-30.11-17.08-31.37-57.25-28.42-87.66.88-9.14,2.27-18.22,3.91-27.25a377.61,377.61,0,0,1,52.42-133.53c12.29-19.28,26.79-38.3,46.8-50.08A77.3,77.3,0,0,1,352.08,92c18.94,4.84,35.95,15.82,49.8,29.43,15.24,15,25,32.84,34.42,51.77,11.43,22.94,22.15,46.28,30.8,70.43C475.1,266,482.1,289.58,484.35,313.31,54.9-93.5c-1.1,13.33-10,25.38-22.11,30-11.44,4.34-25.68,3.38-39.06-2.65a80.76,80.76,0,0,1-8.08-4.26c-4.81-13.44-10.27-26.65-16.11-39.66-5.4-12-11.13-23.86-17.05-35.62-5-10.07-10.06-20.09-16.62-29.28-11.54-16.15-26.43-30.23-43.88-39.81-2.61-1.43-5.29-2.75-8-4a2.12,2.12,0,0,1-.07-.61c.12-3.29,3.43-5.8,6.19-7.32,10.24-5.67,23.55-5.32,33.91.89a131.34,131.34,0,0,0,18.74,8.73,31.35,31.35,0,0,1-8,2.1c-.07.09,3.16,2,3.33,2.14a34.19,34.19,0,0,0,5.22,2.21,3.48,3.48,0,0,0,1,.36,17.3,17.3,0,0,1-6.56-.13L414.45,101l6.42,4.59c2.44,1.75,7.16,3.14,11.18,3.94a22,22,0,0,1-5.32,1.92c-.28,0,1.74,1.23,2.69,1.67,1.11.52,2.48,1.16,3.37,1.54l.58.26,1.69.83c.66.33,1.34.67,2,1-.55-.09-1.18-.17-1.93-.25l-4.65-.49,3.5,3.1c5.54,4.92,10.34,10.9,15.42,17.22,7.32,9.13,14.89,18.56,25.45,25.65a155.43,155.43,0,0,0,19.6,10.75l3.92,1.89c7.28,3.52,14.81,7.16,22.45,10.06C531.06,188.54,541.23,195.74,539.25,219.81Z"/>            </clipPath>        </defs>        <g clip-path="url(#outline)">            <rect fill="#C5EDC5" width="640" height="480" />        </g>    </g>    <g id="pattern">        <g clip-path="url(#outline)">            <g opacity="0.6" ><path fill="#FFFFD2"  d="M225.5,310.37c-3-1.41-6.42-1.34-9.66-.8-10.47,1.76-22.5,9.07-27.73,18.3-3.21,5.67-1.18,7.54-.89,14,.21,4.72.8,5.52,1.06,11.07.16,3.27-.9,5.65,1.78,7.54,4.85-3,8.16-8.94,10.59-14.09A41.13,41.13,0,0,1,220.05,327c4.25-2,9.54-4.12,10.24-8.77C230.77,315,228.47,311.77,225.5,310.37Z"/></g><g opacity="0.6" ><path fill="#FFFFD2"  d="M218.7,286.36c-2.53-.86-5.31-.45-7.89.26a176.71,176.71,0,0,0-20.06,7.09A64.3,64.3,0,0,0,188.57,317a198.32,198.32,0,0,0,30.28-19c1.92-1.48,4-3.25,4.22-5.66C223.37,289.7,221.23,287.23,218.7,286.36Z"/></g><g opacity="0.6" ><path fill="#FFFFD2"  d="M508.47,313.36c4.47-1,6.36-4.61,3.39-8.15-4.36-5.19-13.38-7.28-19.68-9-6.61-1.86-13.34-3-20.07-4.27l-1.47-.29c-5.56-1.09-11.44-2.31-17.11-.83-3.15.82-6.7,3.65-5.38,6.62a6,6,0,0,0,2.82,2.54C468.36,309.49,488.29,317.81,508.47,313.36Z"/></g><g opacity="0.6" ><path fill="#FFFFD2"  d="M509.87,332.52q-10.59-4.89-21.55-8.91c-1.55-.57-3.14-1.19-4.74-1.8-5.31-2-10.85-4.06-16.36-4.44-3.68-.26-9.41-1.2-12.36,1.62-5.89,5.62,8.21,14.63,11.89,17.64,6.78,5.55,14.53,12.09,22.69,15.34,8.77,3.5,18.24,5,27.62,5.49,5,.28,13.84,1,15.54-5.49C535.24,341.88,516.36,335.52,509.87,332.52Z"/></g><g opacity="0.6" ><path fill="#FFFFD2"  d="M162.06,354.12c-.25-2.17-1.26-4.28-2.69-4.69a3.48,3.48,0,0,0-2.88.88c-8.65,6.07-10.39,18.35-10,29.61.35,9.38-.45,29.6,8.28,35.71,5.77,4,7.12-3.89,7-8.33-.19-9.4-1.43-18.74-1.7-28.1C159.88,370.84,163,362.57,162.06,354.12Z"/></g><g opacity="0.6" ><path fill="#FFFFD2"  d="M132.43,335.13a10.4,10.4,0,0,0-5,2.52,26.44,26.44,0,0,0-7.28,10.61c-1.43,3.43-2.49,7.06-3.65,10.48-3,8.89-5.66,17.89-8.31,26.89-2.44,8.29-4.83,16.66-6.51,25.15-.56,2.78-3.14,11.13-.49,13.55,9.77,8.92,19.2-27.4,20.53-32.77,3.55-14.31,6-29.43,12.42-42.61C136.26,344.6,142.08,333.78,132.43,335.13Z"/></g>            <g opacity="0.6" ><path fill="#FF8431"  d="M285,418.84c2.41-25.61,27.2-49.28,50.64-49.63s49.12,18.76,51.63,48.25c.13,1.49,1.2.46-.05,1.63-1.41,1.32-6.67,1.94-9.66,2.8-14.13,4.06-27.65,4.48-43.86,4.36-16.51-.12-33.22-4.21-48.23-7.41"/></g>        </g>    </g>    <g id="mask">        <g opacity="0.1" ><path d="M484.61,334.33c.23,1.7-3.51,6.77-4.43,8.5-1.82,3.4-3.69,6.77-5.68,10.08A107.36,107.36,0,0,1,461.27,371a63.22,63.22,0,0,1-11,9.47,58.45,58.45,0,0,1-6.26,3.66,31.61,31.61,0,0,1-5.53,2.51c-4,1.16-6.15-2.21-7.32-5.52a39.63,39.63,0,0,1-2.34-17.54,120.17,120.17,0,0,1,2.54-14.42l-1.94,4.5c-3.06,11.12-4.58,22.55-6,34a4.63,4.63,0,0,0,.26,2.2,3.36,3.36,0,0,0-.88.73c-2.05,2.52-.69,11.1-.81,14.3a.63.63,0,0,0,.09.45c.16.19.45.14.69.08A106.89,106.89,0,0,0,447.16,396c9.48-5.29,18.26-11.42,24.64-20.05a57,57,0,0,0,7.36-14.62C482.26,352.62,485.87,343.49,484.61,334.33Z"/></g><g opacity="0.1" ><path d="M267.32,140.84c10.77-16.34,17.61-34.19,32.59-46.79-23.63,13.11-38,28.59-53.16,54.08C232.31,172.41,217,201.3,207,227.34s-15,53.6-17.25,81.34c-1.6,19.47-2.17,45.11,6.48,64.72-20.77,3.9-43.66,3-57.65-13.34-24.51-28.68.84-55.77.84-55.77-6.66,4.45-9.83,6.24-16.74,19.86-6.36,12.53-.3,28.48,8.17,38.62,14.62,17.53,37.09,22.58,58.9,19.94A66.46,66.46,0,0,0,200,380.54a48.81,48.81,0,0,0,4.51,6.15c10,11.56,21.38,19,39.1,21.26,2,.25,4,.52,6,.8a19.88,19.88,0,0,1,.56-7.5,3.84,3.84,0,0,1-.39-3c-16.93-5.86-32-19.17-39.34-35.34-4-8.82-6.12-18.92-6.18-30.42-.12-27.61,3.21-61,10.78-87.25C225.88,207.54,245.58,173.81,267.32,140.84Z"/></g><g opacity="0.1" ><path d="M389.45,401.55c-5.29,1.25-9.82,4.43-15.12,5.66a157.09,157.09,0,0,1-19.41,3c-22,2.27-44.35.81-66.16-2.85-1.83-5.46-1.1-11.69-.07-17.2a40.45,40.45,0,0,1,1.39-4.95c-.28.72-.57,1.44-.89,2.14a14.1,14.1,0,0,1-2.5,3.62,4.38,4.38,0,0,1-.45.41c-1.33,3.58-2.37,7.3-3.27,10.65a5.24,5.24,0,0,1-.07,2c-.37,1.67-.8,3.31-1.06,5,0,1-.12,2.06-.23,3.1a5.65,5.65,0,0,1-.69,2.18c1.92.42,3.8.84,5.61,1.27,14.9,5.55,32.72,6.74,47.93,6.86,15.66.13,34.69-1.09,45-4.9,2.87-1.06,9.12-1.63,10.48-3.06,1.2-1.27-.65-1.69-.77-3.3C388.43,401.79,389.44,401.55,389.45,401.55Z"/></g><path fill="#2d2926"  d="M521.92,181.86c-7.53-2.85-15-6.46-22.22-10-1.31-.63-2.61-1.27-3.92-1.89a153.52,153.52,0,0,1-19.23-10.54c-10.18-6.84-17.6-16.09-24.78-25A180,180,0,0,0,439.36,120a11.44,11.44,0,0,0,4.88-1l3.48-1.34-3.43-1.44c-.9-.38-1.8-.68-2.68-1s-1.57-.52-2.3-.82c-1-.41-1.91-.88-2.91-1.37l-1.75-.86-.6-.27.53-.22a23.18,23.18,0,0,0,3.71-1.73l3.93-2.6-4.71-.15a40.22,40.22,0,0,1-7.87-1.33A15.81,15.81,0,0,0,434,104.5l3-1.53-3.1-1.2c-.21-.08-3.61-1.39-6.66-2.45l1.18-.3a40.88,40.88,0,0,0,4.84-1.38l4.83-2-5.16-.85c-5.18-.86-18.16-7-22.94-9.85C398.64,78.19,384.15,77.82,373,84c-4.67,2.59-7.31,5.78-7.68,9.28a104.91,104.91,0,0,1,11,5.24c17.45,9.58,32.34,23.65,43.88,39.81,6.55,9.19,11.56,19.21,16.62,29.27,5.92,11.76,11.65,23.61,17.05,35.62,6.47,14.41,12.47,29.07,17.64,44,1.74.95,3.51,1.84,5.32,2.65a61,61,0,0,0,24.95,5.6,46.05,46.05,0,0,0,16.41-2.88c13.18-5,22.83-18.08,24-32.53C544.4,193.85,532.51,185.88,521.92,181.86Z"/><path fill="#2d2926"  d="M199.29,248.38c.13-.48.68-1,.81-1.49A378.28,378.28,0,0,1,227.68,178c11-21.27,23.72-42.41,40.15-60,9.7-10.37,20.46-19,33.35-24.62a16.94,16.94,0,0,0-3.12-3.66,21.44,21.44,0,0,1-1.75-1.4c-.44-.39-.89-.77-1.35-1.13-10.23-7.89-25.7-5.6-35.76-.13-.4.22-.8.44-1.19.68-.55.32-1.11.67-1.7,1-4.47,2.71-10,6.08-14.66,6.85l-2.42.4,1.46,2a13.77,13.77,0,0,0,2.22,2.1c.26.22.59.49.9.77-3.34.59-10,1.31-10.12,1.32l-4.12.44L233,105a32,32,0,0,0,5.16,3,37.85,37.85,0,0,1-5.74.55l-3.75.12,2.8,2.5c.36.32.81.65,1.3,1a15.58,15.58,0,0,1,1.72,1.39c-3,2.58-7.35,4-11.29,5.28a12.25,12.25,0,0,1-1.49.35l-5.77,1,5.54,1.9a17,17,0,0,0,8.28.33c.55-.09,1.1-.18,1.64-.29-7,5.48-12.85,12.38-18.53,19.09-6.5,7.66-13.22,15.59-21.53,21.17a154.11,154.11,0,0,1-19.23,10.54c-1.31.62-2.62,1.26-3.94,1.9-7.22,3.48-14.68,7.09-22.19,9.94-10.6,4-22.49,12-20.33,38.19,1.2,14.46,10.85,27.54,24,32.54a46.33,46.33,0,0,0,16.42,2.88,61.24,61.24,0,0,0,24.95-5.6A82.35,82.35,0,0,0,199.29,248.38Z"/>        <g opacity="0.1" ><path fill="#fff"  d="M378.68,103.33c6.05,5.3,10.42,13.69,14.49,20.51,4.46,7.47,8.87,15,13.36,22.42,13,21.7,26.15,43.75,37,66.65a328.76,328.76,0,0,1,23.41,68.9c2.75,12.34,4.9,24.8,6.59,37.33,1.4,10.34,4.08,22.69-2.47,31.88,4.28-6,9.86-10.61,11.35-14.66,5.27-14.38.18-32.18-2.49-46.67-5.44-29.5-15.48-57.88-26.94-85.53-11.28-27.21-25.53-53.07-44.82-75.49C391.91,109.83,378.9,103.53,378.68,103.33Z"/></g>    </g>    <g id="outline">        <path fill="none"  d="M180.84,358.23c-13.37-3.79-31.9-13.93-31.89-30.06,0-7.83,5.89-17.95,14.25-18.91a9.84,9.84,0,0,1,4.14.38c1.26.4,2.41,1.63,3.63,1.87,6.6,1.28,4.62-5.39,2.32-8-5-5.78-17.34-5.63-24-3.76-14.65,4.1-29.75,21.85-29.06,37.44.77,17.19,14.14,32.19,29.19,39.12,14.31,6.59,31.64,7.43,46.85,3.51a78.41,78.41,0,0,1-7.55-19.88A60.85,60.85,0,0,1,180.84,358.23Z"/><path fill="none"  d="M227.26,177.87c11-21.26,23.71-42.61,40.14-60.17,9-9.61,19.47-17.89,31.21-23.51a14.09,14.09,0,0,0-2.36-2c-.65-.49-1.33-1-2-1.58-.38-.34-.77-.67-1.16-1h0c-8.76-6.76-23-5-32.5.13-.36.19-.72.4-1.08.61l-1.68,1C254,93.7,249.36,96.51,245,97.91c1.6,1.34,3,2.5,2.61,4a2.25,2.25,0,0,1-1.89,1.66c-1.49.36-4.65.79-7.31,1.12a7.66,7.66,0,0,0,5.34,1l7.2-1.8L245,108.39c-2.29,1.72-5.44,2.47-8.5,2.81a3.54,3.54,0,0,1,1.23,2.26,2.35,2.35,0,0,1-.78,1.89,21.32,21.32,0,0,1-5.83,3.72l1.17-.23,1.3-.25a15.11,15.11,0,0,1,1.51-.15,8.49,8.49,0,0,0,1.9-.24l1.54,2.57h0c-9.17,5.59-16.37,14.08-23.34,22.3C208.55,150.9,201.69,159,193,164.8a155.52,155.52,0,0,1-19.61,10.75l-3.93,1.9c-7.28,3.51-14.8,7.15-22.44,10-10.21,3.88-20.38,11.08-18.4,35.15,1.1,13.33,10,25.38,22.11,30C162.21,257,176.45,256,189.83,250a80.26,80.26,0,0,0,10.82-6A379.27,379.27,0,0,1,227.26,177.87Z"/><path fill="none"  d="M520.85,184.67c-7.64-2.9-15.17-6.54-22.45-10.06l-3.92-1.89A155.43,155.43,0,0,1,474.88,162c-10.56-7.09-18.13-16.52-25.45-25.65C444.35,130,439.55,124,434,119.1l-3.5-3.1,4.65.49c.75.08,1.38.16,1.93.25-.69-.32-1.37-.66-2-1l-1.69-.83-.58-.26a7,7,0,0,1-2.7-1.74,1.64,1.64,0,0,1-.36-1.47c.21-.86.9-1.32,2.32-1.92-4-.8-8.74-2.19-11.18-3.94L414.45,101l7.66,1.92a17.3,17.3,0,0,0,6.56.13c-2.16-.79-4.63-1.65-5.91-2a1.81,1.81,0,0,1-1.62-1.73c0-1.57,1.51-2,6-3.12a131.34,131.34,0,0,1-18.74-8.73C398,81.3,384.69,81,374.45,86.62c-2.76,1.52-6.07,4-6.19,7.32a2.12,2.12,0,0,0,.07.61c2.72,1.21,5.4,2.53,8,4,17.45,9.58,32.34,23.66,43.88,39.81,6.56,9.19,11.57,19.21,16.62,29.28,5.92,11.76,11.65,23.61,17.05,35.62,5.84,13,11.3,26.22,16.11,39.66a80.76,80.76,0,0,0,8.08,4.26c13.38,6,27.62,7,39.06,2.65,12.12-4.6,21-16.65,22.11-30C541.23,195.74,531.06,188.54,520.85,184.67Z"/><path fill="none"  d="M436.3,173.2c-9.43-18.93-19.18-36.8-34.42-51.77C388,107.82,371,96.84,352.08,92a77.3,77.3,0,0,0-58.72,8.25c-20,11.78-34.51,30.8-46.8,50.08a377.61,377.61,0,0,0-52.42,133.53c-1.64,9-3,18.11-3.91,27.25-2.95,30.41-1.69,70.58,28.42,87.66,2.13,1.21,13,3.8,8.39,7.39-2.4,1.85-14.49,3-13.86,6.68.69,4.07,12.39,4.42,15.14,4.64a154.25,154.25,0,0,0,17.6.25c.53,0,1.45,0,2.42,0q.06-.66.09-1.35c.11-3.78.06-7.79.17-11.67s.13-7.78.11-11.66a160.42,160.42,0,0,0-1.55-23.2,61.18,61.18,0,0,0-2.71-11.26,33,33,0,0,0-2.45-5.25,18.37,18.37,0,0,0-3.63-4.52c3.15,2.36,5.25,5.89,6.81,9.48a61,61,0,0,1,3.42,11.29A144,144,0,0,1,251,393c.14,3.92.19,7.83.18,11.74l0,5.84c0,1.94.07,3.89,0,5.9a21,21,0,0,1-.27,3.11,11.26,11.26,0,0,1-.38,1.6l-.13.4-.18.46a5.61,5.61,0,0,1-.49.86,7.83,7.83,0,0,1-2.67,2.32,25.27,25.27,0,0,1-2.81,1.33c-.91.39-1.79.74-2.58,1.14a6,6,0,0,0-1.87,1.34,2,2,0,0,0-.46,1.63,3.7,3.7,0,0,0,.8,1.91,6.76,6.76,0,0,0,1,1,5.49,5.49,0,0,1,.23-3.1,6.54,6.54,0,0,1,2.79-3.36,8.4,8.4,0,0,1,2-.78,10.89,10.89,0,0,1,1.87-.38A13.21,13.21,0,0,1,252,426a13.14,13.14,0,0,1-3.14,2.28c-1.12.61-2.2,1.07-3,1.5a9.26,9.26,0,0,0-2.27,1.93,12.58,12.58,0,0,0-1.91,3l.46-.38a13.8,13.8,0,0,0,2.26,1.18,20.33,20.33,0,0,0,5.24,1.41c.79.1,1.58.16,2.37.22a2.79,2.79,0,0,1-.44-.92,3.62,3.62,0,0,1,.16-2.18,7.25,7.25,0,0,1,2.47-3,10,10,0,0,1,3.24-1.61,7.37,7.37,0,0,1,3.65-.16,28.07,28.07,0,0,1-2.6,2.27c-.85.67-1.66,1.29-2.49,1.91a19.8,19.8,0,0,0-2.22,1.75,3.12,3.12,0,0,0-.74,1,2.58,2.58,0,0,0-.21,1.56l.56-.58a47.85,47.85,0,0,0,7.57-.3,42,42,0,0,0,5.57-1,14.81,14.81,0,0,0,4.79-2.29,16.64,16.64,0,0,0,3.79-3.88,25,25,0,0,0,2.71-4.86,34.06,34.06,0,0,0,1.72-5.38,46.87,46.87,0,0,0,.89-5.65l.74-5.85q.45-2.92,1.17-5.81c1.92-7.71,5.82-14.69,10.24-21.09a114.47,114.47,0,0,0-5.34,10.39,52.49,52.49,0,0,0-3.46,11c-.38,1.89-.69,3.8-.91,5.71l-.48,5.76a315.77,315.77,0,0,0,34,5.62c21.48,2.29,43.63,2.35,64.74-2.67a85,85,0,0,0,8.6-2.57,97,97,0,0,1-1.61-10.87,72.73,72.73,0,0,0-1.72-11.11c-.87-3.66-2-7.26-3.18-10.85a96.89,96.89,0,0,1,3.95,10.64,74.87,74.87,0,0,1,2.41,11.13,92.35,92.35,0,0,0,2.15,11,30.37,30.37,0,0,0,4.54,9.88,18.59,18.59,0,0,0,8.12,6.57,28.16,28.16,0,0,0,5.23,1.25,43.47,43.47,0,0,0,5.47.53c1.29.05,2.59,0,3.89,0l.55.57a2.58,2.58,0,0,0-.2-1.56,3.44,3.44,0,0,0-.74-1,25,25,0,0,0-2.22-1.75c-.83-.61-1.65-1.24-2.49-1.9a28.12,28.12,0,0,1-2.61-2.27,7.41,7.41,0,0,1,3.66.16,9.89,9.89,0,0,1,3.23,1.61,7.13,7.13,0,0,1,2.48,3,3.59,3.59,0,0,1,.15,2.17,2.82,2.82,0,0,1-.45.94h.24a23.88,23.88,0,0,0,5.27-.87,17,17,0,0,0,4.38-1.94l.45.38a12.58,12.58,0,0,0-1.91-3,9.22,9.22,0,0,0-2.26-1.93c-.84-.44-1.93-.89-3.05-1.5a13.34,13.34,0,0,1-3.13-2.29,13.58,13.58,0,0,1,3.88.05,12.49,12.49,0,0,1,1.87.39,8.58,8.58,0,0,1,2,.78,6.52,6.52,0,0,1,2.78,3.36A5.43,5.43,0,0,1,431,429a4.45,4.45,0,0,0,1.85-3.07,2.27,2.27,0,0,0-.41-1.65,5.38,5.38,0,0,0-1.71-1.31c-1.49-.77-3.31-1.33-5.14-2.13a12.62,12.62,0,0,1-2.76-1.6,6.38,6.38,0,0,1-1.26-1.28l-.27-.38c-.09-.16-.18-.32-.25-.48a4.82,4.82,0,0,1-.32-.92c-.14-.6-.19-1.08-.26-1.54l-.2-1.4-.37-2.83a81.22,81.22,0,0,1-.68-11.49,58.94,58.94,0,0,1,1.49-11.44c.81-3.74,1.84-7.4,2.85-11l2.9-10.94c1-3.65,2-7.29,3.17-10.9a42.86,42.86,0,0,1,2-5.34,13.72,13.72,0,0,1,3.37-4.56,13.4,13.4,0,0,0-3,4.74,44.05,44.05,0,0,0-1.64,5.38c-.93,3.65-1.73,7.33-2.51,11s-1.58,7.38-2.43,11.08-1.78,7.32-2.45,11a63.33,63.33,0,0,0-1.16,11,80,80,0,0,0,.87,11.09l.38,2.57c5.45.88,11.4.47,16.8.3a155.32,155.32,0,0,0,19.15-1.45c2.35-.37,3.94,0,2.57-2.3-1.6-2.7-4-4-6.92-5-2.41-.83-9.31-1-10.72-3.45-.76-1.35.09-2.06,1-2.94,1.36-1.35,4-2.21,5.61-3.25q3-1.87,5.8-4a69.52,69.52,0,0,0,18.79-22.2c9-16.71,10.94-36.3,9.17-54.93-2.25-23.73-9.25-47.33-17.25-69.68C458.45,219.48,447.73,196.14,436.3,173.2Z"/><path d="M521.92,181.86c-7.53-2.85-15-6.46-22.22-10-1.31-.63-2.61-1.27-3.92-1.89a153.52,153.52,0,0,1-19.23-10.54c-10.18-6.83-17.6-16.09-24.78-25A176.51,176.51,0,0,0,439.36,120a11.44,11.44,0,0,0,4.88-1l3.48-1.34c-.45-.25-2.26-.9-2.72-1.08-2.89-1.11-5.83-2.13-8.6-3.51l-1.75-.86-.6-.27.53-.21a22.32,22.32,0,0,0,3.71-1.74l3.93-2.6-4.71-.15a40.22,40.22,0,0,1-7.87-1.33A16,16,0,0,0,434,104.5l3-1.52-3.1-1.21c-.21-.08-3.61-1.39-6.66-2.45l1.18-.29a40.57,40.57,0,0,0,4.84-1.39l4.83-2-5.16-.86c-5.18-.86-18.16-7-22.94-9.85-11.26-6.74-25.75-7.11-36.9-.94-4.68,2.59-7.32,5.79-7.69,9.28-13.61-5.53-28.36-8.09-43.05-6.19a76.87,76.87,0,0,0-20.85,5.84,14.8,14.8,0,0,0-3.35-3.18,21.44,21.44,0,0,1-1.75-1.4c-.44-.39-.89-.77-1.35-1.13-10.23-7.89-25.7-5.6-35.76-.13-.4.22-.8.44-1.19.68l-1.7,1c-4.47,2.71-10,6.09-14.66,6.85l-2.42.41a22.22,22.22,0,0,0,3.68,4.07c.26.22.59.49.9.77-3.34.59-10,1.31-10.12,1.32l-4.12.44L233,105a32,32,0,0,0,5.16,3,36.61,36.61,0,0,1-5.74.55l-3.75.12,2.8,2.5a16.07,16.07,0,0,0,1.3,1,14.59,14.59,0,0,1,1.72,1.4c-3,2.57-7.35,4-11.29,5.27a10.63,10.63,0,0,1-1.49.35l-5.77,1,5.54,1.9c3.56.42,6,.71,8.28.33.55-.08,1.1-.18,1.64-.28-7,5.48-12.85,12.37-18.53,19.08-6.5,7.66-13.22,15.59-21.53,21.17a152.82,152.82,0,0,1-19.23,10.54l-3.94,1.9c-7.22,3.48-14.68,7.09-22.19,9.94-10.6,4-22.49,12-20.33,38.19,1.2,14.46,10.85,27.54,24,32.54a46.33,46.33,0,0,0,16.42,2.88,61.24,61.24,0,0,0,24.95-5.6,82,82,0,0,0,8.3-4.37q-4.87,17.16-8.13,34.73c-4.14,22.8-8.11,49.66-3.25,73.68a61.05,61.05,0,0,1-11.49-3.1c-8.62-3.25-17.72-8.74-22.26-17.06-4.28-7.83-1.8-21.94,8.41-24.19,4.47-1,12.6,7.2,15.42-.06,1.53-3.95-.72-9.61-3.9-12.09-10.76-8.4-28.1-4.73-38,2.92-11.08,8.57-20.66,22.88-18.66,37.35,2.16,15.63,13.44,29.31,27,36.7,16.23,8.81,35.25,9.71,53.28,5.31.12.2.23.41.36.61a53.84,53.84,0,0,0,16.37,16.68,51.84,51.84,0,0,0,5.28,3c.46.23,2,1.13,3.24,1.71l-.3.13c-1.79.62-3.6,1.16-5.38,1.81-3.43,1.25-9.09,3.22-6.82,8,1.88,3.91,8,4.8,11.71,5.38a115.9,115.9,0,0,0,20,1c1.44,0,3.41.1,5.39.06a2.12,2.12,0,0,1-.23.41c-.74,1.09-2.47,1.87-4.23,2.59-.89.37-1.82.74-2.77,1.21a8.73,8.73,0,0,0-2.83,2.08,5,5,0,0,0-1,1.81,5.56,5.56,0,0,0-.17,2,6.77,6.77,0,0,0,1.39,3.44,13.11,13.11,0,0,0,5.38,3.75,23.22,23.22,0,0,0,6,1.58,48.42,48.42,0,0,0,12-.11,44.67,44.67,0,0,0,5.92-1.2,17.45,17.45,0,0,0,5.65-2.83,22.49,22.49,0,0,0,7.1-10,36.65,36.65,0,0,0,2.14-8.76c22.5,4.91,45.67,7.82,68.72,6.91a160.11,160.11,0,0,0,32.55-4.44c2.41-.6,4.79-1.27,7.16-2a29.81,29.81,0,0,0,3.82,8.09,20.41,20.41,0,0,0,9.07,7.68,30.89,30.89,0,0,0,5.73,1.5,48.47,48.47,0,0,0,11.62.64c1-.07,1.92-.15,2.93-.3a23.78,23.78,0,0,0,2.95-.64,19.25,19.25,0,0,0,5.58-2.52,10.22,10.22,0,0,0,2.4-2.3,7.75,7.75,0,0,0,.86-1.58l.26-.89a6.6,6.6,0,0,0,.14-.89,6,6,0,0,0-.15-1.91,5.47,5.47,0,0,0-.87-1.78,8,8,0,0,0-2.72-2.14c-1.88-.95-3.7-1.48-5.33-2.19a10.32,10.32,0,0,1-2.14-1.2,4.2,4.2,0,0,1-.73-.73l-.14-.19-.08-.15c0-.08-.07-.18-.1-.29l.76.07a142.39,142.39,0,0,0,20.86,0c5.56-.29,11.91-.21,17.3-1.84,3.77-1.13,2.9-4.86.85-7.64-3.27-4.44-9.45-5.46-14.46-6.64l-.42-.13c.93-.57,1.95-1.32,2.33-1.55a77.7,77.7,0,0,0,11.85-8.79c14-12.67,21.84-30.36,24.29-48.89,2.85-21.54-1.3-43.23-6.67-64-2.52-9.77-5.48-19.4-8.78-28.92,1.74.95,3.51,1.84,5.32,2.65a61,61,0,0,0,24.95,5.6,46.05,46.05,0,0,0,16.41-2.88c13.18-5,22.83-18.07,24-32.53C544.4,193.85,532.51,185.88,521.92,181.86ZM189.85,250a61.52,61.52,0,0,1-23.71,5.32c-9.54,0-19.28-3-26.28-9.49-9-8.33-12.48-21.47-11.26-33.69a36.83,36.83,0,0,1,2.54-10.54,22.16,22.16,0,0,1,6.17-8.63c.29-.24.51-.51.78-.76a5.94,5.94,0,0,1,1.2-.69c.86-.47,1.74-.93,2.61-1.38q2.63-1.37,5.3-2.62c3.58-1.7,7.19-3.31,10.81-4.9s7.25-3.16,10.86-4.78,7.14-3.29,10.64-5.1,6.88-3.72,10.16-5.84a84.58,84.58,0,0,0,8.3-6.05c15.79-13.08,26.24-32.4,44-42.66a54.9,54.9,0,0,0-10.86.87,23.87,23.87,0,0,0,8.14-5.35,11.45,11.45,0,0,1-2.76-2.41,24.69,24.69,0,0,0,14.31-7.5,13.72,13.72,0,0,1-12.29.63c2.29.4,9.19-1.35,11-2.8.25-.2-2.37-1.72-4.08-3.32,8.28-5.21,16.81-10.51,26.42-12.38s20.66.46,26.62,8.22c-26.53,13.45-45.4,38.28-60.41,64a399.05,399.05,0,0,0-35.57,79.81,18.63,18.63,0,0,1-2.78,6.11,16.78,16.78,0,0,1-6.08,4.26Q191.76,249.19,189.85,250ZM149.39,376.28c-15-6.93-28.42-21.93-29.19-39.12-.69-15.59,14.41-33.34,29.06-37.44,6.69-1.87,19-2,24,3.76,2.3,2.64,4.28,9.31-2.32,8-1.22-.24-2.37-1.47-3.63-1.87a9.84,9.84,0,0,0-4.14-.38c-8.36,1-14.24,11.08-14.25,18.91,0,16.13,18.52,26.27,31.89,30.06a60.85,60.85,0,0,0,7.85,1.68,78.41,78.41,0,0,0,7.55,19.88C181,383.71,163.7,382.87,149.39,376.28Zm335-63c1.77,18.63-.21,38.22-9.17,54.93a69.52,69.52,0,0,1-18.79,22.2q-2.81,2.16-5.8,4c-1.64,1-4.25,1.9-5.61,3.25-.88.88-1.73,1.59-1,2.94,1.41,2.48,8.31,2.62,10.72,3.45,2.94,1,5.32,2.31,6.92,5,1.37,2.3-.22,1.93-2.57,2.3a155.32,155.32,0,0,1-19.15,1.45c-5.4.17-11.35.58-16.8-.3l-.38-2.57a80,80,0,0,1-.87-11.09,63.33,63.33,0,0,1,1.16-11c.67-3.68,1.6-7.31,2.45-11s1.63-7.39,2.43-11.08,1.58-7.37,2.51-11a44.05,44.05,0,0,1,1.64-5.38,13.4,13.4,0,0,1,3-4.74,13.72,13.72,0,0,0-3.37,4.56,42.86,42.86,0,0,0-2,5.34c-1.15,3.61-2.18,7.25-3.17,10.9l-2.9,10.94c-1,3.62-2,7.28-2.85,11a58.94,58.94,0,0,0-1.49,11.44,81.22,81.22,0,0,0,.68,11.49l.37,2.83.2,1.4c.07.46.12.94.26,1.54a4.82,4.82,0,0,0,.32.92c.07.16.16.32.25.48l.27.38a6.38,6.38,0,0,0,1.26,1.28,12.62,12.62,0,0,0,2.76,1.6c1.83.8,3.65,1.36,5.14,2.13a5.38,5.38,0,0,1,1.71,1.31,2.27,2.27,0,0,1,.41,1.65A4.45,4.45,0,0,1,431,429a5.43,5.43,0,0,0-.23-3.13,6.52,6.52,0,0,0-2.78-3.36,8.58,8.58,0,0,0-2-.78,12.49,12.49,0,0,0-1.87-.39,13.58,13.58,0,0,0-3.88-.05,13.34,13.34,0,0,0,3.13,2.29c1.12.61,2.21,1.06,3.05,1.5a9.22,9.22,0,0,1,2.26,1.93,12.58,12.58,0,0,1,1.91,3l-.45-.38a17,17,0,0,1-4.38,1.94,23.88,23.88,0,0,1-5.27.87h-.24a2.82,2.82,0,0,0,.45-.94,3.59,3.59,0,0,0-.15-2.17,7.13,7.13,0,0,0-2.48-3,9.89,9.89,0,0,0-3.23-1.61,7.41,7.41,0,0,0-3.66-.16,28.12,28.12,0,0,0,2.61,2.27c.84.66,1.66,1.29,2.49,1.9a25,25,0,0,1,2.22,1.75,3.44,3.44,0,0,1,.74,1,2.58,2.58,0,0,1,.2,1.56l-.55-.57c-1.3.05-2.6.06-3.89,0a43.47,43.47,0,0,1-5.47-.53,28.16,28.16,0,0,1-5.23-1.25,18.59,18.59,0,0,1-8.12-6.57,30.37,30.37,0,0,1-4.54-9.88,92.35,92.35,0,0,1-2.15-11,74.87,74.87,0,0,0-2.41-11.13,96.89,96.89,0,0,0-3.95-10.64c1.19,3.59,2.31,7.19,3.18,10.85a72.73,72.73,0,0,1,1.72,11.11,97,97,0,0,0,1.61,10.87,85,85,0,0,1-8.6,2.57c-21.11,5-43.26,5-64.74,2.67a315.77,315.77,0,0,1-34-5.62l.48-5.76c.22-1.91.53-3.82.91-5.71a52.49,52.49,0,0,1,3.46-11A114.47,114.47,0,0,1,292.54,381c-4.42,6.4-8.32,13.38-10.24,21.09q-.72,2.88-1.17,5.81l-.74,5.85a46.87,46.87,0,0,1-.89,5.65,34.06,34.06,0,0,1-1.72,5.38,25,25,0,0,1-2.71,4.86,16.64,16.64,0,0,1-3.79,3.88,14.81,14.81,0,0,1-4.79,2.29,42,42,0,0,1-5.57,1,47.85,47.85,0,0,1-7.57.3l-.56.58a2.58,2.58,0,0,1,.21-1.56,3.12,3.12,0,0,1,.74-1,19.8,19.8,0,0,1,2.22-1.75c.83-.62,1.64-1.24,2.49-1.91a28.07,28.07,0,0,0,2.6-2.27,7.37,7.37,0,0,0-3.65.16,10,10,0,0,0-3.24,1.61,7.25,7.25,0,0,0-2.47,3,3.62,3.62,0,0,0-.16,2.18,2.79,2.79,0,0,0,.44.92c-.79-.06-1.58-.12-2.37-.22a20.33,20.33,0,0,1-5.24-1.41,13.8,13.8,0,0,1-2.26-1.18l-.46.38a12.58,12.58,0,0,1,1.91-3,9.26,9.26,0,0,1,2.27-1.93c.84-.43,1.92-.89,3-1.5A13.14,13.14,0,0,0,252,426a13.21,13.21,0,0,0-3.88.05,10.89,10.89,0,0,0-1.87.38,8.4,8.4,0,0,0-2,.78,6.54,6.54,0,0,0-2.79,3.36,5.49,5.49,0,0,0-.23,3.1,6.76,6.76,0,0,1-1-1,3.7,3.7,0,0,1-.8-1.91,2,2,0,0,1,.46-1.63,6,6,0,0,1,1.87-1.34c.79-.4,1.67-.75,2.58-1.14a25.27,25.27,0,0,0,2.81-1.33,7.83,7.83,0,0,0,2.67-2.32,5.61,5.61,0,0,0,.49-.86l.18-.46.13-.4a11.26,11.26,0,0,0,.38-1.6,21,21,0,0,0,.27-3.11c.05-2,0-4,0-5.9l0-5.84c0-3.91,0-7.82-.18-11.74a144,144,0,0,0-2.44-23.41,61,61,0,0,0-3.42-11.29c-1.56-3.59-3.66-7.12-6.81-9.48a18.37,18.37,0,0,1,3.63,4.52,33,33,0,0,1,2.45,5.25,61.18,61.18,0,0,1,2.71,11.26,160.42,160.42,0,0,1,1.55,23.2c0,3.88-.05,7.77-.11,11.66s-.06,7.89-.17,11.67q0,.69-.09,1.35c-1,0-1.89,0-2.42,0a154.25,154.25,0,0,1-17.6-.25c-2.75-.22-14.45-.57-15.14-4.64-.63-3.64,11.46-4.83,13.86-6.68,4.66-3.59-6.26-6.18-8.39-7.39-30.11-17.08-31.37-57.25-28.42-87.66.88-9.14,2.27-18.22,3.91-27.25a377.61,377.61,0,0,1,52.42-133.53c12.29-19.28,26.79-38.3,46.8-50.08A77.3,77.3,0,0,1,352.08,92c18.94,4.84,35.95,15.82,49.8,29.43,15.24,15,25,32.84,34.42,51.77,11.43,22.94,22.15,46.28,30.8,70.43C475.1,266,482.1,289.58,484.35,313.31Zm54.9-93.5c-1.1,13.33-10,25.38-22.11,30-11.44,4.34-25.68,3.38-39.06-2.65a80.76,80.76,0,0,1-8.08-4.26c-4.81-13.44-10.27-26.65-16.11-39.66-5.4-12-11.13-23.86-17.05-35.62-5-10.07-10.06-20.09-16.62-29.28-11.54-16.15-26.43-30.23-43.88-39.81-2.61-1.43-5.29-2.75-8-4a2.12,2.12,0,0,1-.07-.61c.12-3.29,3.43-5.8,6.19-7.32,10.24-5.67,23.55-5.32,33.91.89a131.34,131.34,0,0,0,18.74,8.73,31.35,31.35,0,0,1-8,2.1c-.07.09,3.16,2,3.33,2.14a34.19,34.19,0,0,0,5.22,2.21,3.48,3.48,0,0,0,1,.36,17.3,17.3,0,0,1-6.56-.13L414.45,101l6.42,4.59c2.44,1.75,7.16,3.14,11.18,3.94a22,22,0,0,1-5.32,1.92c-.28,0,1.74,1.23,2.69,1.67,1.11.52,2.48,1.16,3.37,1.54l.58.26,1.69.83c.66.33,1.34.67,2,1-.55-.09-1.18-.17-1.93-.25l-4.65-.49,3.5,3.1c5.54,4.92,10.34,10.9,15.42,17.22,7.32,9.13,14.89,18.56,25.45,25.65a155.43,155.43,0,0,0,19.6,10.75l3.92,1.89c7.28,3.52,14.81,7.16,22.45,10.06C531.06,188.54,541.23,195.74,539.25,219.81Z"/>    </g>    <g id="eye">        <g id="eye-color1">            <g opacity="0" ><path fill="#C5EDC5"  d="M288.19,128.43c-.14.46-.2.94-.35,1.4a16.7,16.7,0,0,1-1.35,2.87c-.53.93-1,1.89-1.55,2.82-.24.42-.49.81-.76,1.21l-.44.61c-.08.12-.45.47-.45.6-.19.25-.39.5-.59.74-5.88,7-13.91,9.8-22.7,6.53-8.53-3.17-14.2-10.4-14.65-19.53a2.11,2.11,0,0,1,0-.58,23.29,23.29,0,0,1,19-21.81,18.87,18.87,0,0,1,11.42,1.35c-15.3-7.71-34.36-2.93-39.3,15.33a20.83,20.83,0,0,0-.66,6.53,29.42,29.42,0,0,0,10.48,20.23c8.59,7.09,21.5,6.67,31,1.77,7.19-3.69,10-12.6,10.93-20.45Z"/></g><g opacity="0" ><path fill="#C5EDC5"  d="M411.94,122.36c-.23.62-.44,1.25-.69,1.87a25.75,25.75,0,0,1-2,3.66,31.67,31.67,0,0,1-2.54,3.43c-5.88,7-13.9,9.8-22.69,6.53-8.54-3.17-14.21-10.4-14.65-19.53a2.11,2.11,0,0,1,0-.58,23.28,23.28,0,0,1,19-21.81,18.86,18.86,0,0,1,11.42,1.35c-15.29-7.71-34.35-2.93-39.29,15.33a20.84,20.84,0,0,0-.67,6.53,29.42,29.42,0,0,0,10.48,20.23c8.6,7.09,21.51,6.67,31.05,1.77,6.9-3.54,9.72-12,10.77-19.65C412.12,121.74,412,122.12,411.94,122.36Z"/></g>        </g>        <g id="eye-shape">            <path fill="#fcfcfc"  d="M286.68,173.37a22.62,22.62,0,0,1-22.27-21.15,1.54,1.54,0,0,1,0-.38,1.32,1.32,0,0,1,0-.35c.61-12.1,10.62-22.28,23-22.42h.39a8.41,8.41,0,0,1,3.5-.67,7.13,7.13,0,0,1,6.07,3.48,22.15,22.15,0,0,1,2.49,1.73,48.14,48.14,0,0,0-4.57-5.28c-6.07-6-13.83-11-22.19-13-10.19-2.46-20.16,1-28,7.64-14.72,13.6-19,37.21-10.83,55.4,7.13,15.82,25,29.46,43.07,25.17,15-3.55,25-18.37,29.24-32.32A41.4,41.4,0,0,0,308,152.57C306.39,163,297.86,173.55,286.68,173.37Z"/><path d="M273,112.22c-11-2.4-21.66,1.45-30.06,8.61-14,12.93-19.22,34.74-13.65,52.85,5.64,18.37,23,34.45,43.07,33.53,17.07-.79,29.35-15.39,35.3-30.2,6.85-17,4.06-35-8.35-48.74C292.51,120.69,283.1,114.41,273,112.22Zm33.54,59c-4.28,14-14.23,28.77-29.24,32.32-18.11,4.29-35.94-9.35-43.07-25.17-8.19-18.19-3.89-41.8,10.83-55.4,7.82-6.66,17.79-10.1,28-7.64,8.36,2,16.12,7,22.19,13a48.14,48.14,0,0,1,4.57,5.28,22.15,22.15,0,0,0-2.49-1.73,7.42,7.42,0,0,1,1,4.13c-.19,4.07-2.6,8.64-7.18,8.7-4.34.06-7.59-3.78-8.17-7.81a1.65,1.65,0,0,1-.06-.46,1.37,1.37,0,0,1,0-.46,8.09,8.09,0,0,1,4.81-6.91h-.39c-12.37.14-22.38,10.32-23,22.42a1.32,1.32,0,0,0,0,.35,1.54,1.54,0,0,0,0,.38,22.62,22.62,0,0,0,22.27,21.15c11.18.18,19.71-10.39,21.27-20.8A41.4,41.4,0,0,1,306.58,171.2Z"/><path fill="#fcfcfc"  d="M432.43,164.36c1-5.46,2.44-13.2.13-18.85,0,.1-4.61,4.27-4.62,4.37-1.29,11.65-5.42,22.66-17.38,22.44-12.37-.21-20-10.31-20.73-23.11,0-.13,4.08-1,4.09-1.15s-4.12.47-4.1.35c.64-13.22,8.58-24.36,21.49-24.51h.4c1.1-.5-17.24,14.22.29,19,20.13,5.52,8.44-18.21,9.69-16,1.88,3.37,5.75,5.09,7.23,6.71-3.35-5.26-10.19-12.37-16-15.88-15.32-9.25-36.46-8.65-47.36,7.58a1.56,1.56,0,0,1-.84.65c-12.38,15.92-13.78,40.58-3.61,58.11,8.52,14.68,25.87,23.08,41.95,18.3S429.43,180.78,432.43,164.36Z"/><path d="M418.09,117.84c-8.18-6.19-18.66-9.66-28.95-8.62-32,3.23-41.2,45.75-31,70.76,7,17.07,23.72,28.55,41.12,26.1,17.6-2.47,29.84-19,34.36-36.62C438.64,149.94,433.81,129.73,418.09,117.84Zm-54.63,65.83c-8.47-15-7.89-34.95-.89-50.35,3-6.69,7.75-12.74,14-16.55,8.1-4.91,18.39-5.69,27.41-2.81a42.81,42.81,0,0,1,22,17.09l-4.31-3.65c.9,4.23.91,9.38-2.5,12s-9.45.85-11.31-3.27,0-9.3,3.57-12A24.28,24.28,0,0,0,396.2,166c5,4.74,12.32,7.21,19,5.47a21.11,21.11,0,0,0,11.77-8.76,34.91,34.91,0,0,0,5.19-13.93,56.12,56.12,0,0,1-10.07,38.69c-4.1,5.71-9.43,10.72-15.93,13.41-12.38,5.13-27.49.66-36.7-9.07A40.47,40.47,0,0,1,363.46,183.67Z"/><path fill="#fff"  d="M291.28,128.4a8.41,8.41,0,0,0-3.5.67A8.09,8.09,0,0,0,283,136a1.37,1.37,0,0,0,0,.46,1.65,1.65,0,0,0,.06.46c.58,4,3.83,7.87,8.17,7.81,4.58-.06,7-4.63,7.18-8.7a7.42,7.42,0,0,0-1-4.13A7.13,7.13,0,0,0,291.28,128.4Z"/>        </g>        <g id="eye-color2">            <path fill="#ED58D0"  d="M307,156.43a15.63,15.63,0,0,1-1.35,2.87c-.52.93-1,1.89-1.54,2.82-.24.41-.5.81-.77,1.2l-.43.62c-.09.11-.45.46-.45.6l-.6.74c-5.88,7-13.9,9.8-22.69,6.53-8.54-3.17-14.21-10.41-14.65-19.54a.86.86,0,0,1,0-.28.9.9,0,0,1,0-.29,23.29,23.29,0,0,1,19-21.82A19,19,0,0,1,295,131.23c-15.29-7.7-34.35-2.93-39.29,15.33a20.58,20.58,0,0,0-.66,6.54,29.34,29.34,0,0,0,10.48,20.23c8.59,7.08,21.5,6.67,31,1.77,7.19-3.69,10-12.6,10.92-20.46,0,.13-.08.26-.11.38C307.26,155.49,307.19,156,307,156.43Z"/><path fill="#ED58D0"  d="M431.65,151.46c-.24.62-.44,1.25-.7,1.86a24.88,24.88,0,0,1-2,3.67,31,31,0,0,1-2.54,3.43c-5.88,7-13.9,9.8-22.69,6.53-8.53-3.17-14.2-10.41-14.65-19.54a2.46,2.46,0,0,1,0-.28,2.64,2.64,0,0,1,0-.29A23.3,23.3,0,0,1,408.16,125a19,19,0,0,1,11.42,1.35c-15.3-7.7-34.36-2.93-39.3,15.34a20.48,20.48,0,0,0-.66,6.53,29.38,29.38,0,0,0,10.48,20.23c8.59,7.09,21.5,6.67,31,1.77,6.91-3.55,9.73-12,10.77-19.66C431.82,150.83,431.74,151.21,431.65,151.46Z"/>        </g>    </g>    <g id="nose-mouth">        <path opacity="0.1"  d="M367.82,297.69a93,93,0,0,1-30.44,6.94,85.46,85.46,0,0,1-31-4.14,84.26,84.26,0,0,1-14.33-6.2,76.27,76.27,0,0,1-9.36-6.1c2.4,2.63,4.45,5.77,6.92,8.16,3.8,3.67,8.49,6.2,13.19,8.53,10.57,5.23,22.35,8.58,34.23,7.63a75.58,75.58,0,0,0,31.11-9.9A110.77,110.77,0,0,0,382.3,293c4.34-3.43,7.86-8,12.62-10.87l-1.35.8A112.58,112.58,0,0,1,367.82,297.69Z"/><path opacity="0.1"  d="M307.1,298.26A94.36,94.36,0,0,0,322,301.18c1.34.14,2.68.27,4,.36-1.25-.09-2.5-.21-3.74-.35a93.9,93.9,0,0,1-14.94-2.91A97.2,97.2,0,0,1,293,293a83.1,83.1,0,0,1-13.37-7.61,14.92,14.92,0,0,1,1.25,1A85.69,85.69,0,0,0,292.75,293,98,98,0,0,0,307.1,298.26Z"/><path d="M306.42,300.49a85.46,85.46,0,0,0,31,4.14,93,93,0,0,0,30.44-6.94,112.58,112.58,0,0,0,25.75-14.76l1.08-.81A156,156,0,0,1,367,295.51c-2.38.91-4.84,1.58-7.27,2.35-1.21.39-2.46.64-3.69,1s-2.46.64-3.71.85l-3.74.73-3.77.55c-1.25.21-2.52.31-3.78.41s-2.52.26-3.79.27a80.09,80.09,0,0,1-11.17-.09c-1.34-.09-2.68-.22-4-.36a94.36,94.36,0,0,1-14.94-2.92A98,98,0,0,1,292.75,293a85.69,85.69,0,0,1-11.84-6.58c-.51-.34-1-.67-1.52-1,1.06,1,2.18,1.93,3.34,2.82a76.27,76.27,0,0,0,9.36,6.1A84.26,84.26,0,0,0,306.42,300.49Z"/><path fill="#fff"  d="M271.27,232.47a21.39,21.39,0,0,0-2.41-1.6,7.29,7.29,0,0,0-1.16-.53,1.75,1.75,0,0,0-.73-.13,2.31,2.31,0,0,0-.62.43,7.59,7.59,0,0,0-.89,1,22.67,22.67,0,0,0-1.65,2.41c-1.09,1.69-2,3.5-3,5.31-1.77,3.35-3.5,6.77-5.35,10.17q10.89-2.72,21.89-5,3-.63,6.08-1.21c-2.52-2.33-5-4.67-7.48-6.93C274.39,235,272.87,233.66,271.27,232.47Z"/><path fill="#fff"  d="M400.86,230.35c-1.06-3-2.09-6-3.4-8.89a25.86,25.86,0,0,0-2.15-4A6,6,0,0,0,394,216a1.13,1.13,0,0,0-.47-.23.88.88,0,0,0-.44.07,6.48,6.48,0,0,0-1.69.94,20.73,20.73,0,0,0-1.74,1.44c-1.14,1-2.21,2.19-3.3,3.34-2.16,2.32-4.18,4.8-6.22,7.27-3.81,4.69-2,2.21-5.77,7,1.16.05-3.21-.13-2.06-.06a175.6,175.6,0,0,1,23.77,2.83c2,.41,3.92.75,5.85,1.28l2.43.62C402.69,235.05,402.8,236.15,400.86,230.35Z"/><path fill="#fff"  d="M295.92,235.22a4.23,4.23,0,0,0-1-.56c-.12,0-.21-.06-.21,0s0,0-.06,0a4.54,4.54,0,0,0-.77.66c-.29.31-.59.67-.89,1-.58.76-1.15,1.58-1.73,2.41-.82,1.17-1.64,2.37-2.55,3.55q6-1.08,12.09-2l.12,0c-1-1.05-2-2.1-2.93-3.09A20.67,20.67,0,0,0,295.92,235.22Z"/><path fill="#fff"  d="M346.48,213c1.74-4.48-10.08-8.82-13.86-2.83C329.75,214.7,344.27,218.67,346.48,213Z"/><path d="M413.44,243.23c-1.88-.66-3.8-1.21-5.69-1.83l-1.38-.4-1.3-.36c-.19-1.74-.29-2.88-.39-3.75-.24-2.31-.37-2.7-1.55-7.22a79,79,0,0,0-3-9.35,28.32,28.32,0,0,0-2.35-4.53,9,9,0,0,0-1.92-2.16,4.27,4.27,0,0,0-1.7-.8,3.71,3.71,0,0,0-1.93.18,9.36,9.36,0,0,0-2.51,1.41,23.09,23.09,0,0,0-2,1.67,44.61,44.61,0,0,0-3.42,3.61c-2.12,2.51-4.1,5.08-6,7.75-2.21,3.15-2.67,3.49-3.42,4.63-.44.69-1,1.65-2.07,3.68l-2.69-.1c-6.71-.2-15.83-.3-21.75-.11-4.91.19-9.82.49-14.72.86l-.59-7.11c7.85-1,19.6-7.09,23.53-13.63,1.58-2.62,1.83-5.22.75-7.52-3.4-7.23-18.09-9-30.83-7s-21,7.11-21.89,13.7h0c-.22,1.64.47,3.34,2.05,5.06,4.47,4.87,15.59,9.33,23.39,9.55l.6,7.21q-3.07.26-6.15.56-11.37,1.22-22.68,2.92a22.07,22.07,0,0,0-2.06-4.34,13.76,13.76,0,0,0-2.08-2.65,6.12,6.12,0,0,0-1.63-1.15,3.45,3.45,0,0,0-1.3-.31,2.59,2.59,0,0,0-.78.08,5.05,5.05,0,0,0-.66.25,5.37,5.37,0,0,0-1.62,1.3,10.24,10.24,0,0,0-1.06,1.39,17.56,17.56,0,0,0-1.52,2.91,21.93,21.93,0,0,0-1.42,4.91l-3.73.7a69,69,0,0,0-6.45-8.44,45.66,45.66,0,0,0-4.53-4.48,19.62,19.62,0,0,0-2.69-2,9.72,9.72,0,0,0-1.65-.79,4.32,4.32,0,0,0-2.32-.24,4.23,4.23,0,0,0-2,1.15,12.05,12.05,0,0,0-1.19,1.34,26.76,26.76,0,0,0-1.81,2.77,53.52,53.52,0,0,0-2.69,5.76,69.37,69.37,0,0,0-3.48,11.25q-12.14,3-24.07,6.75c7.75-1.8,15.5-3.53,23.29-5.05s15.58-3.06,23.39-4.44c15.62-2.73,31.31-5,47.07-6.64a373.64,373.64,0,0,1,47.4-2.08l5.93.22,5.91.41c2,.09,3.94.37,5.91.56l2.95.32,2.93.43a122.9,122.9,0,0,1,23.11,5.4Zm-136.11,1.3q-11,2.25-21.89,5c1.85-3.4,3.58-6.82,5.35-10.17,1-1.81,1.93-3.62,3-5.31a22.67,22.67,0,0,1,1.65-2.41,7.59,7.59,0,0,1,.89-1,2.31,2.31,0,0,1,.62-.43,1.75,1.75,0,0,1,.73.13,7.29,7.29,0,0,1,1.16.53,21.39,21.39,0,0,1,2.41,1.6c1.6,1.19,3.12,2.56,4.66,3.92,2.5,2.26,5,4.6,7.48,6.93Q280.37,243.91,277.33,244.53Zm23.51-4.26q-6.06,1-12.09,2c.91-1.18,1.73-2.38,2.55-3.55.58-.83,1.15-1.65,1.73-2.41.3-.37.6-.73.89-1a4.54,4.54,0,0,1,.77-.66c.09,0,.06,0,.06,0s.09,0,.21,0a4.23,4.23,0,0,1,1,.56,20.67,20.67,0,0,1,2.11,1.94c1,1,1.94,2,2.93,3.09Zm31.78-30.1c3.78-6,15.6-1.65,13.86,2.83C344.27,218.67,329.75,214.7,332.62,210.17Zm63.49,28.42a175.6,175.6,0,0,0-23.77-2.83c-1.15-.07,3.22.11,2.06.06,3.79-4.77,2-2.29,5.77-7,2-2.47,4.06-5,6.22-7.27,1.09-1.15,2.16-2.31,3.3-3.34a20.73,20.73,0,0,1,1.74-1.44,6.48,6.48,0,0,1,1.69-.94.88.88,0,0,1,.44-.07,1.13,1.13,0,0,1,.47.23,6,6,0,0,1,1.28,1.44,25.86,25.86,0,0,1,2.15,4c1.31,2.85,2.34,5.87,3.4,8.89,1.94,5.8,1.83,4.7,3.53,10.14l-2.43-.62C400,239.34,398.07,239,396.11,238.59Z"/>    </g></svg>