<!--  ~ Copyright (C) 2018 Baidu, Inc. All Rights Reserved.  --><svg viewBox="0 0 640 480" xmlns="http://www.w3.org/2000/svg">    <g id="back-ground-cl">        <rect fill="none" width="640" height="480" />        <ellipse opacity="0.1" cx="331.93" cy="418.82" rx="168.39" ry="32.01"/>    </g>    <g id="body">        <defs>            <clipPath id="outline">                <path fill="none"  d="M278.16,106.75q-6.77-22.12-13.52-44.26-4.15-13.56-8.3-27.13c-2.11-6.9-8.48-10.44-15-6.21-5.42,3.53-10.56,7.58-15.81,11.35-9.7,7-23.06,17.06-18.87,30.91,2.36,7.77,10.46,10.35,17.73,8.19s12.08-8.49,15.34-15.06c2.11-4.26,3.4-11.59,8.33-13.74,2.93-1.27,5.23.55,6.36,3.22,4.63,11,8.12,22.58,12.15,33.78l7.95,22.11C275.73,108.83,276.93,107.77,278.16,106.75Z"/><path fill="none"  d="M421.65,60.19a1.24,1.24,0,0,1,2.12,0c3.37,5.46,3.22,11.64,3.45,17.85.24,6.48,2,16.51,10.37,16.71,8.83.21,12.49-9.36,12.06-16.73A28.72,28.72,0,0,0,441,59.61c-4.69-4.65-11.53-8.35-18.3-8.18-5.23.13-6.35,3.75-8.3,7.77q-2.7,5.55-5.26,11.17-8.73,19.16-15.82,39l1.77,1.45Z"/><path fill="none"  d="M466.81,241c-8.75-24-19.52-47.32-30.95-70.2-9.38-18.76-19.27-36.34-34.49-51.07a126.38,126.38,0,0,0-22.77-17.59l-.76-.32a14.18,14.18,0,0,1,.61-7.09,15,15,0,0,1,4.11-6.63l-9.42,3.3-1,.37.69-.78,14-13.09a23.71,23.71,0,0,0-9.49,2.09A27.22,27.22,0,0,0,368.84,86L367,87.93l1-2.46a127.21,127.21,0,0,1,8.76-17.61L368.67,72l-1.45.74.48-1.56a32.61,32.61,0,0,1,7.23-12.73,20,20,0,0,0-6.59,1.1,22.15,22.15,0,0,0-7.22,4.18l-1.74,1.49.38-2.27,1.89-11.4-6.81,8.88-5.42,7.06,3.8-8.06A85.18,85.18,0,0,0,358,46.68c.41-1.47.78-3,1.08-4.43-.43.89-.88,1.76-1.36,2.61a99.06,99.06,0,0,1-6.47,9.94l-2.54,3.52.61-4.3,1.94-13.4c-.46.49-.91,1-1.34,1.5a24.7,24.7,0,0,0-3,4.45,30,30,0,0,0-2.06,5,47.27,47.27,0,0,0-1.35,5.3l-1.64,7.75-.56-7.87a28.91,28.91,0,0,1,.27-5.91c.25-1.92.62-3.81,1-5.68.85-3.74,1.92-7.41,3.13-11s2.55-7.19,4-10.7c.84-1.95,1.72-3.89,2.68-5.8a35.34,35.34,0,0,0-3.1,3A42.17,42.17,0,0,0,344,28.33a59.86,59.86,0,0,0-6.27,17.82l-1.91,10L335.35,46a49.48,49.48,0,0,0-2.77-14.16l-2.34,14L328.71,55l-.83-9.25a35.74,35.74,0,0,0-2.47-10.29,33.22,33.22,0,0,0-2.36-4.74l4.17,19.86.62,2.94-2.39-1.82a62.81,62.81,0,0,0-10.7-7,21.62,21.62,0,0,0-5.86-1.91,14.36,14.36,0,0,0-4-.07l13,13-.34.13c-2.93-2.14-7.42-3-11-3.38a19.67,19.67,0,0,0-8,.84,19.3,19.3,0,0,1,5.95,3.9A23.19,23.19,0,0,1,310,65.46l1.59,4-3.1-3a13.24,13.24,0,0,0-3.21-2c-1.2-.58-2.44-1.1-3.7-1.56a36.17,36.17,0,0,0-3.85-1.17l-.94-.2c.53.39,1.07.77,1.59,1.17q2,1.52,3.84,3.19a34.15,34.15,0,0,1,3.5,3.61,10.7,10.7,0,0,1,2.48,4.65l.21,1.13L307.27,75a54,54,0,0,1-5.67-1.71c-1.85-.64-3.68-1.32-5.5-2s-3.65-1.34-5.48-2l-1.85-.62,1.05.81c1.35,1.08,2.67,2.2,3.94,3.37s2.51,2.39,3.67,3.68a18.29,18.29,0,0,1,3.05,4.34l.74,1.58-1.53-.89a9.51,9.51,0,0,0-3.94-.9,30.48,30.48,0,0,0-4.27.09,31.8,31.8,0,0,0-4.23.66A11.1,11.1,0,0,0,284,82.56c1.23.71,2.59,1.17,3.86,1.81s2.78,1.47,4.12,2.28a27.23,27.23,0,0,1,4.61,3.19,15.66,15.66,0,0,1,3.64,5.56l.09.33-.33,0c-1.62.16-3.25-.7-4.78-1.1-2.66-.69-5.38-1.22-8.09-1.67a12,12,0,0,0-2.73-.31,35.48,35.48,0,0,1,6.05,3.62c1.05.8,2.05,1.56,3,2.42a4,4,0,0,0-.68.54c-19.9,11.79-34.37,30.71-46.64,49.91A378.41,378.41,0,0,0,193.34,283.4c-1.64,9-3,18.1-3.92,27.24-3,30.7-1.69,71.26,28.8,88.4a60.34,60.34,0,0,0,7.14,3.36c.56.22,1.79.47,2.09,1.17.51,1.23-.33,1.87-1.28,2.44-2.47,1.52-14.64,3.2-13.73,6.91,1.05,4.22,11.95,4.53,15.05,4.78a151.16,151.16,0,0,0,18.06.28c.73,0,1.67,0,2.61,0,.18-1.79.18-3.65.21-5.55l0-1.47a14.09,14.09,0,0,0,0-1.44l-.05-2.84c-.08-3.88,0-7.74,0-11.6a168.06,168.06,0,0,0-1.34-23,56,56,0,0,0-2.63-11.17,30.71,30.71,0,0,0-2.46-5.18,18.1,18.1,0,0,0-3.66-4.43,18.11,18.11,0,0,1,4,4.23,30.25,30.25,0,0,1,2.76,5.14,56.75,56.75,0,0,1,3.21,11.21,152.87,152.87,0,0,1,2.06,23.17l.29,11.57.09,3a14,14,0,0,1,0,1.45l0,1.43c0,1.91,0,3.87-.14,5.88a14.39,14.39,0,0,1-.56,3.09,5.8,5.8,0,0,1-2.06,2.88,24.24,24.24,0,0,1-5.42,2.74c-1.7.72-3.35,1.63-3.64,2.81a3.17,3.17,0,0,0-.07,1,4.63,4.63,0,0,0,.27,1,5,5,0,0,0,1.39,1.86c.21.19.44.35.67.52a5.49,5.49,0,0,1,.23-3.5,6.65,6.65,0,0,1,2.74-3.24,8.31,8.31,0,0,1,1.93-.76,12,12,0,0,1,1.85-.43,15,15,0,0,1,3.82-.26,16,16,0,0,1-3.21,2.08c-.54.29-1.17.53-1.65.78s-1.08.43-1.48.69a8.54,8.54,0,0,0-2.32,2.07,11.07,11.07,0,0,0-1.72,3.09l.24-.2a15.89,15.89,0,0,0,3.52,1.69,22.15,22.15,0,0,0,2.65.74,23.31,23.31,0,0,0,2.73.38c.51,0,1,.07,1.55.1a2.64,2.64,0,0,1-.64-1.2,3.62,3.62,0,0,1,.21-2.08,7.35,7.35,0,0,1,2.46-2.89,10.63,10.63,0,0,1,3.17-1.64,8,8,0,0,1,3.57-.36c-.94.8-1.84,1.44-2.71,2.08l-2.57,1.88a15.84,15.84,0,0,0-2.25,1.88,3.13,3.13,0,0,0-.68,1.13,2.54,2.54,0,0,0-.07,1.56l.3-.31a48.48,48.48,0,0,0,8.93-.45c.93-.13,1.86-.29,2.78-.49a21.88,21.88,0,0,0,2.68-.7,15.61,15.61,0,0,0,4.73-2.55,21.29,21.29,0,0,0,6.43-8.84,24.19,24.19,0,0,0,1.47-5.36c.12-.9.22-1.86.31-2.84s.19-1.92.31-2.89a88.55,88.55,0,0,1,2-11.5c1.86-7.61,5.63-14.56,9.95-20.93a107.28,107.28,0,0,0-5.31,10.27c-.78,1.75-1.43,3.56-2,5.38a55.77,55.77,0,0,0-1.43,5.55,90.38,90.38,0,0,0-1.54,11.39l0,.51a319.3,319.3,0,0,0,34.88,5.73c21.78,2.27,44.26,2.25,65.63-3.06,2.56-.64,5.11-1.35,7.63-2.16,0-.29-.11-.59-.16-.89-.64-3.69-.84-7.39-1.29-11-.22-1.81-.53-3.63-.82-5.45s-.58-3.64-1-5.42a31.69,31.69,0,0,0-1.75-5.19c-.66-1.73-1.28-3.46-1.88-5.21.71,1.7,1.44,3.39,2.22,5.06a31.87,31.87,0,0,1,2,5.18c.49,1.8.86,3.61,1.25,5.41s.78,3.6,1.09,5.44c.61,3.67.94,7.34,1.68,10.89a32.93,32.93,0,0,0,1.5,5.16,28,28,0,0,0,2.45,4.74,20.4,20.4,0,0,0,7.57,7.12,12.42,12.42,0,0,0,1.18.52l.59.24.62.18c.81.25,1.72.44,2.59.62a45.42,45.42,0,0,0,5.34.74,52,52,0,0,0,6,.1l.29.31a2.54,2.54,0,0,0-.06-1.56,3.35,3.35,0,0,0-.69-1.14,15.28,15.28,0,0,0-2.25-1.87L414,426.7c-.88-.64-1.78-1.28-2.72-2.08a8.25,8.25,0,0,1,3.57.36,10.89,10.89,0,0,1,3.17,1.65,7.13,7.13,0,0,1,2.46,2.89,3.43,3.43,0,0,1,.21,2.07,2.49,2.49,0,0,1-.64,1.21,38.72,38.72,0,0,0,3.93-.41,20.2,20.2,0,0,0,4.95-1.61,13,13,0,0,0,1.59-.89l.23.19A11.38,11.38,0,0,0,429,427a8.36,8.36,0,0,0-2.32-2.06c-.39-.26-1-.44-1.47-.69s-1.11-.5-1.65-.78a15.41,15.41,0,0,1-3.22-2.09,16,16,0,0,1,3.82.26,15,15,0,0,1,1.86.43,8.76,8.76,0,0,1,1.92.77,6.57,6.57,0,0,1,2.74,3.23,5.47,5.47,0,0,1,.23,3.54,6.65,6.65,0,0,0,1.73-1.79,4,4,0,0,0,.62-2,2.58,2.58,0,0,0-.13-.94,2.28,2.28,0,0,0-.46-.81c-.87-1-2.58-1.72-4.25-2.36a21.43,21.43,0,0,1-5.27-2.56A6.92,6.92,0,0,1,422,418a5.89,5.89,0,0,1-.5-.76,4.06,4.06,0,0,1-.33-.87,8.37,8.37,0,0,1-.27-1.53c-.06-.5-.09-1-.1-1.46a108.76,108.76,0,0,1,.42-11.18c.28-3.69.66-7.37,1.1-11,.88-7.34,2-14.65,3.42-21.9.74-3.62,1.55-7.23,2.55-10.79a55,55,0,0,1,1.71-5.28,24,24,0,0,1,1.15-2.53,8,8,0,0,1,.72-1.19,6,6,0,0,1,.92-1,5.2,5.2,0,0,0-.84,1.09,8.72,8.72,0,0,0-.64,1.21,24.1,24.1,0,0,0-1,2.57c-.57,1.75-1,3.53-1.44,5.32-.81,3.58-1.44,7.21-2,10.84-1.14,7.27-2,14.58-2.69,21.89-.34,3.66-.63,7.33-.87,11-.2,3.47-.38,7-.26,10.4,5.77.81,11.82.57,17.6.38a150.35,150.35,0,0,0,19.08-1.51c.7-.12,2.17-.13,2.76-.58l.2-.06c-.26-.26-.37-1.44-.43-1.63-1-2.88-4.09-4.39-6.77-5.36a73.15,73.15,0,0,0-7.7-2c-1-.25-2.88-.48-3.44-1.56-.7-1.32.32-2,1.29-2.74,4.15-3,8.75-5.14,12.76-8.44a70.07,70.07,0,0,0,17.75-22c8.68-16.79,10.49-36.32,8.65-54.91C482.41,288,475.14,263.84,466.81,241Z"/><path fill="none"  d="M196.62,380.68c-2.93-1.42-5.87-2.78-8.87-4.16-11.35-5.22-19.16-13.51-17.68-26.65.35-3.15,1.11-6.22,1.73-9.33.9-4.56-2.1-5.33-5.86-4.89A22.17,22.17,0,0,0,150.77,344a20.79,20.79,0,0,0-3,18.9c2.34,7.18,8.32,12.06,14.84,15.4,11.5,5.89,24.77,8.31,37.72,8-.78-1.06-1.54-2.13-2.25-3.24C197.57,382.3,197.09,381.49,196.62,380.68Z"/><path d="M479.83,274.08c-6.65-25.19-16.15-49.55-26.89-73.26-5.39-11.91-11.11-23.66-17-35.33-5-9.85-9.95-19.59-16.44-28.55A142,142,0,0,0,397,112.41l25.65-48.94c4.21,10-1.41,25.13,9.14,32,4.31,2.79,9.83,2,13.82-1,4.54-3.38,6.4-9.09,6.48-14.56.18-11.39-6.91-22.33-16.89-27.58-4.51-2.38-10.68-4.32-15.79-3a7.3,7.3,0,0,0-4.85,4c-2.07,3.75-3.79,7.74-5.6,11.61q-9.81,21-17.68,42.85A121,121,0,0,0,379,99.46a27.67,27.67,0,0,1,1.4-5c1.29-3.31,4.55-6.82,7.17-9.21l.73-.66-2.24.75L378.61,88,389,77.15l.52-.57-.78,0c-3.64-.16-8.35,1.15-11.7,2.59A28.23,28.23,0,0,0,370,83.59a130.71,130.71,0,0,1,9-17l1.23-1.94-2.06,1L369.56,70a30.34,30.34,0,0,1,7.62-11.7l1.22-1.14L376.73,57a21.33,21.33,0,0,0-8.9,1,23.46,23.46,0,0,0-6.07,3.08L364,48.28l.62-3.53-2.21,2.83-4.56,5.84c.77-2,1.48-4.09,2.09-6.18a46.75,46.75,0,0,0,1-6.39,29.51,29.51,0,0,0-.17-7.61l-.07.06c-.14,1.8-1.33,3.9-2,5.66a40.54,40.54,0,0,1-2.82,4.88c-1.16,2.07-2.44,4.07-3.79,6L354,37.42l.56-3.85-2.49,3c-1.11,1.32-2.52,2.64-3.76,4.13A28.16,28.16,0,0,0,345,45.54c-.08.17-.16.34-.25.5,0-.13.06-.25.08-.38.84-3.65,1.9-7.25,3.09-10.81s2.54-7.08,4-10.52a79.57,79.57,0,0,1,5-10l2.4-3.92-4,2.31a32.39,32.39,0,0,0-7.72,6.35A44.24,44.24,0,0,0,342,27.18,59.21,59.21,0,0,0,337,39.05a49.39,49.39,0,0,0-3.81-12.2l-1.66-3.57-.64,3.88L329,38.76a38.29,38.29,0,0,0-1.4-4.2,33.87,33.87,0,0,0-5.91-9.65l-2.92-3.29.92,4.3,4.73,22.19a55.08,55.08,0,0,0-8.71-5.38,23.61,23.61,0,0,0-6.48-2.08,15.85,15.85,0,0,0-6.91.4l-1.84.55,1.41,1.29,9.18,8.43a22.92,22.92,0,0,0-4.27-.86,21.45,21.45,0,0,0-11.66,2.12l-2.61,1.3,2.85.58a16.39,16.39,0,0,1,7.81,4.21,20.4,20.4,0,0,1,3.57,4.48l-.7-.34a41,41,0,0,0-3.9-1.61,38.58,38.58,0,0,0-4-1.19,20.37,20.37,0,0,0-2.12-.37,7,7,0,0,0-2.36.06l-2,.45,1.73,1.09a61.55,61.55,0,0,1,7.74,5.81,32.94,32.94,0,0,1,3.37,3.42,11.89,11.89,0,0,1,1.79,2.71c-1.4-.37-2.81-.83-4.21-1.3-1.83-.62-3.66-1.27-5.49-1.93s-3.66-1.31-5.51-1.94a55.51,55.51,0,0,0-5.68-1.66l-3.8-.83,3.32,2A45.65,45.65,0,0,1,289,70.51c1.33,1,2.64,2.14,3.9,3.28s2.49,2.31,3.63,3.55A23.78,23.78,0,0,1,298.72,80l-.68-.15a18.92,18.92,0,0,0-2.24-.24,30.86,30.86,0,0,0-4.41.16,31.87,31.87,0,0,0-4.35.74c-1.43.37-2.32.69-4.45,1.22l-2.52.9,3.14,1a23,23,0,0,1,4,1.73c1.45.79,2.9,1.57,4.31,2.42a26.8,26.8,0,0,1,4,2.85,9.4,9.4,0,0,1,2.42,3.14c-2.32-.81-4.93-.88-7.36-1.23a53.72,53.72,0,0,0-8.11-.45l-.54.06.49.24A46.41,46.41,0,0,1,289.87,97l.94.72a101.46,101.46,0,0,0-10.59,7.4L267.71,64.17q-3.91-12.8-7.82-25.58c-1.57-5.12-2.68-10.34-8-12.77-7.71-3.51-14.08,2.88-19.88,7-7.41,5.32-15.7,10.32-21.69,17.24-6.92,8-10.59,22.53-.54,29.85s23.15,0,29.16-9A53.46,53.46,0,0,0,243.58,62c.8-1.89,4.35-12.85,8.49-7.4.71.94,1,2.76,1.38,3.85l7.23,20.11q6,16.58,11.92,33.14-3.18,3-6.16,6.25c-16.17,17.59-28.77,38.77-39.66,59.93A380.5,380.5,0,0,0,199.38,247q-5.07,17.64-8.4,35.73c-3.23,17.74-5.58,35.83-5,53.9.46,13.65,2.6,27.82,8.62,40.21-4.48-2-9.1-3.77-13.16-6.63-8.12-5.72-10.17-13.81-8.51-23.25.68-3.85,3.83-10.5-.78-13.05-3.39-1.89-8.56-.64-12,.52a23.42,23.42,0,0,0-13.37,11.2c-6,11.58-.81,24.5,9.31,31.61,12.87,9.05,30.28,12.14,46.07,11.48a52.94,52.94,0,0,0,11.86,10.63,51.63,51.63,0,0,0,5.61,3.19c.92.45,1.86.88,2.81,1.28a4.57,4.57,0,0,0,.77.33l.32.13c-.7.31-1.41.64-1.61.71-1.72.58-3.45,1.11-5.16,1.74-3.31,1.21-8.83,3.24-6.29,7.78,2.22,4,8.87,4.65,12.79,5.17a124.8,124.8,0,0,0,19.33.81c1.31,0,3.18.1,5.08,0,0,.05,0,.11,0,.16a2.91,2.91,0,0,1-.47,1,4.1,4.1,0,0,1-.81.8,23.89,23.89,0,0,1-4.91,2.4,16.12,16.12,0,0,0-2.78,1.45,6.82,6.82,0,0,0-1.31,1.18,4.91,4.91,0,0,0-.92,1.7,6.42,6.42,0,0,0,2.28,6.39,15.83,15.83,0,0,0,5.47,3,22.79,22.79,0,0,0,2.94.8,26.63,26.63,0,0,0,3,.41A48.88,48.88,0,0,0,262,439.4c1-.15,1.95-.34,2.91-.55a27.6,27.6,0,0,0,2.91-.81,17.77,17.77,0,0,0,5.36-3,22.71,22.71,0,0,0,6.87-9.81,26,26,0,0,0,1.44-5.82c.11-1,.18-1.93.24-2.86l1.47.34c22.8,4.87,46.3,7.72,69.64,6.53a157.88,157.88,0,0,0,31.41-4.58c2.14-.55,4.26-1.17,6.36-1.84a28.73,28.73,0,0,0,3.19,7.35,21.75,21.75,0,0,0,8.2,8c.44.21.88.45,1.34.62l.69.28.7.23c1,.3,1.84.5,2.77.71a50.48,50.48,0,0,0,5.6.86,45.91,45.91,0,0,0,11.34-.32A23.31,23.31,0,0,0,430,433a14.24,14.24,0,0,0,2.58-1.55,8.4,8.4,0,0,0,2.19-2.32,6.45,6.45,0,0,0,1-3.22,4.9,4.9,0,0,0-1.17-3.36A8.07,8.07,0,0,0,432,420.6a28.21,28.21,0,0,0-2.66-1.13,19.14,19.14,0,0,1-4.68-2.19,5.08,5.08,0,0,1-.78-.75,2.27,2.27,0,0,1-.43-.81c0-.15-.07-.33-.11-.51l1.14.11a144.17,144.17,0,0,0,21,0c5.55-.29,11.51-.39,16.93-1.76,4.07-1,2.93-5.13.61-7.82-3.56-4.12-9.52-4.95-14.5-6.16a6.72,6.72,0,0,1-.76-.25,2,2,0,0,1,.3-.17,31.11,31.11,0,0,0,4.23-2.5,75.31,75.31,0,0,0,11.36-8.75c13.52-12.65,21-30.05,23.41-48.23C489.87,317.65,485.45,295.36,479.83,274.08,409.17,70.37q2.56-5.61,5.26-11.17c1.95-4,3.07-7.64,8.3-7.77,6.77-.17,13.61,3.53,18.3,8.18A28.72,28.72,0,0,1,449.65,78c.43,7.37-3.23,16.94-12.06,16.73-8.33-.2-10.13-10.23-10.37-16.71-.23-6.21-.08-12.39-3.45-17.85a1.24,1.24,0,0,0-2.12,0l-26.53,50.62-1.77-1.45Q400.46,89.56,409.17,70.37,266.6,87.8c-4-11.2-7.52-22.81-12.15-33.78-1.13-2.67-3.43-4.49-6.36-3.22-4.93,2.15-6.22,9.48-8.33,13.74-3.26,6.57-8,12.89-15.34,15.06s-15.37-.42-17.73-8.19c-4.19-13.85,9.17-23.94,18.87-30.91,5.25-3.77,10.39-7.82,15.81-11.35,6.49-4.23,12.86-.69,15,6.21q4.16,13.57,8.3,27.13,6.75,22.12,13.52,44.26c-1.23,1-2.43,2.08-3.61,3.16,-104,290.49c-6.52-3.34-12.5-8.22-14.84-15.4a20.79,20.79,0,0,1,3-18.9,22.17,22.17,0,0,1,15.17-8.34c3.76-.44,6.76.33,5.86,4.89-.62,3.11-1.38,6.18-1.73,9.33-1.48,13.14,6.33,21.43,17.68,26.65,3,1.38,5.94,2.74,8.87,4.16.47.81.95,1.62,1.45,2.42.71,1.11,1.47,2.18,2.25,3.24C187.37,386.6,174.1,384.18,162.6,378.29,313.57-11.05a70.07,70.07,0,0,1-17.75,22c-4,3.3-8.61,5.45-12.76,8.44-1,.7-2,1.42-1.29,2.74.56,1.08,2.41,1.31,3.44,1.56a73.15,73.15,0,0,1,7.7,2c2.68,1,5.74,2.48,6.77,5.36.06.19.17,1.37.43,1.63l-.2.06c-.59.45-2.06.46-2.76.58a150.35,150.35,0,0,1-19.08,1.51c-5.78.19-11.83.43-17.6-.38-.12-3.41.06-6.93.26-10.4.24-3.66.53-7.33.87-11,.7-7.31,1.55-14.62,2.69-21.89.56-3.63,1.19-7.26,2-10.84.41-1.79.87-3.57,1.44-5.32a24.1,24.1,0,0,1,1-2.57,8.72,8.72,0,0,1,.64-1.21,5.2,5.2,0,0,1,.84-1.09,6,6,0,0,0-.92,1,8,8,0,0,0-.72,1.19,24,24,0,0,0-1.15,2.53,55,55,0,0,0-1.71,5.28c-1,3.56-1.81,7.17-2.55,10.79-1.43,7.25-2.54,14.56-3.42,21.9-.44,3.67-.82,7.35-1.1,11a108.76,108.76,0,0,0-.42,11.18c0,.47,0,1,.1,1.46a8.37,8.37,0,0,0,.27,1.53,4.06,4.06,0,0,0,.33.87,5.89,5.89,0,0,0,.5.76,6.92,6.92,0,0,0,1.19,1.17,21.43,21.43,0,0,0,5.27,2.56c1.67.64,3.38,1.33,4.25,2.36a2.28,2.28,0,0,1,.46.81,2.58,2.58,0,0,1,.13.94,4,4,0,0,1-.62,2,6.65,6.65,0,0,1-1.73,1.79,5.47,5.47,0,0,0-.23-3.54,6.57,6.57,0,0,0-2.74-3.23,8.76,8.76,0,0,0-1.92-.77,15,15,0,0,0-1.86-.43,16,16,0,0,0-3.82-.26,15.41,15.41,0,0,0,3.22,2.09c.54.28,1.16.53,1.65.78s1.08.43,1.47.69A8.36,8.36,0,0,1,429,427a11.38,11.38,0,0,1,1.73,3.09l-.23-.19a13,13,0,0,1-1.59.89,20.2,20.2,0,0,1-4.95,1.61,38.72,38.72,0,0,1-3.93.41,2.49,2.49,0,0,0,.64-1.21,3.43,3.43,0,0,0-.21-2.07,7.13,7.13,0,0,0-2.46-2.89,10.89,10.89,0,0,0-3.17-1.65,8.25,8.25,0,0,0-3.57-.36c.94.8,1.84,1.44,2.72,2.08l2.56,1.89a15.28,15.28,0,0,1,2.25,1.87,3.35,3.35,0,0,1,.69,1.14,2.54,2.54,0,0,1,.06,1.56l-.29-.31a52,52,0,0,1-6-.1,45.42,45.42,0,0,1-5.34-.74c-.87-.18-1.78-.37-2.59-.62l-.62-.18-.59-.24a12.42,12.42,0,0,1-1.18-.52,20.4,20.4,0,0,1-7.57-7.12,28,28,0,0,1-2.45-4.74,32.93,32.93,0,0,1-1.5-5.16c-.74-3.55-1.07-7.22-1.68-10.89-.31-1.84-.71-3.64-1.09-5.44s-.76-3.61-1.25-5.41a31.87,31.87,0,0,0-2-5.18c-.78-1.67-1.51-3.36-2.22-5.06.6,1.75,1.22,3.48,1.88,5.21a31.69,31.69,0,0,1,1.75,5.19c.39,1.78.67,3.6,1,5.42s.6,3.64.82,5.45c.45,3.62.65,7.32,1.29,11,.05.3.11.6.16.89-2.52.81-5.07,1.52-7.63,2.16-21.37,5.31-43.85,5.33-65.63,3.06a319.3,319.3,0,0,1-34.88-5.73l0-.51a90.38,90.38,0,0,1,1.54-11.39,55.77,55.77,0,0,1,1.43-5.55c.61-1.82,1.26-3.63,2-5.38A107.28,107.28,0,0,1,292.25,381c-4.32,6.37-8.09,13.32-9.95,20.93a88.55,88.55,0,0,0-2,11.5c-.12,1-.23,1.93-.31,2.89s-.19,1.94-.31,2.84a24.19,24.19,0,0,1-1.47,5.36,21.29,21.29,0,0,1-6.43,8.84,15.61,15.61,0,0,1-4.73,2.55,21.88,21.88,0,0,1-2.68.7c-.92.2-1.85.36-2.78.49a48.48,48.48,0,0,1-8.93.45l-.3.31a2.54,2.54,0,0,1,.07-1.56,3.13,3.13,0,0,1,.68-1.13,15.84,15.84,0,0,1,2.25-1.88l2.57-1.88c.87-.64,1.77-1.28,2.71-2.08a8,8,0,0,0-3.57.36,10.63,10.63,0,0,0-3.17,1.64,7.35,7.35,0,0,0-2.46,2.89,3.62,3.62,0,0,0-.21,2.08,2.64,2.64,0,0,0,.64,1.2c-.52,0-1-.05-1.55-.1a23.31,23.31,0,0,1-2.73-.38,22.15,22.15,0,0,1-2.65-.74,15.89,15.89,0,0,1-3.52-1.69l-.24.2a11.07,11.07,0,0,1,1.72-3.09,8.54,8.54,0,0,1,2.32-2.07c.4-.26,1-.44,1.48-.69s1.11-.49,1.65-.78a16,16,0,0,0,3.21-2.08,15,15,0,0,0-3.82.26,12,12,0,0,0-1.85.43,8.31,8.31,0,0,0-1.93.76,6.65,6.65,0,0,0-2.74,3.24,5.49,5.49,0,0,0-.23,3.5c-.23-.17-.46-.33-.67-.52A5,5,0,0,1,239,431.9a4.63,4.63,0,0,1-.27-1,3.17,3.17,0,0,1,.07-1c.29-1.18,1.94-2.09,3.64-2.81a24.24,24.24,0,0,0,5.42-2.74,5.8,5.8,0,0,0,2.06-2.88,14.39,14.39,0,0,0,.56-3.09c.18-2,.14-4,.14-5.88l0-1.43a14,14,0,0,0,0-1.45l-.09-3-.29-11.57a152.87,152.87,0,0,0-2.06-23.17A56.75,56.75,0,0,0,245,360.67a30.25,30.25,0,0,0-2.76-5.14,18.11,18.11,0,0,0-4-4.23,18.1,18.1,0,0,1,3.66,4.43,30.71,30.71,0,0,1,2.46,5.18A56,56,0,0,1,247,372.08a168.06,168.06,0,0,1,1.34,23c0,3.86,0,7.72,0,11.6l.05,2.84a14.09,14.09,0,0,1,0,1.44l0,1.47c0,1.9,0,3.76-.21,5.55-.94,0-1.88,0-2.61,0a151.16,151.16,0,0,1-18.06-.28c-3.1-.25-14-.56-15.05-4.78-.91-3.71,11.26-5.39,13.73-6.91,1-.57,1.79-1.21,1.28-2.44-.3-.7-1.53-.95-2.09-1.17a60.34,60.34,0,0,1-7.14-3.36c-30.49-17.14-31.79-57.7-28.8-88.4.89-9.14,2.28-18.21,3.92-27.24a378.41,378.41,0,0,1,52.77-134.23c12.27-19.2,26.74-38.12,46.64-49.91a4,4,0,0,1,.68-.54c-.94-.86-1.94-1.62-3-2.42a35.48,35.48,0,0,0-6.05-3.62,12,12,0,0,1,2.73.31c2.71.45,5.43,1,8.09,1.67,1.53.4,3.16,1.26,4.78,1.1l.33,0-.09-.33a15.66,15.66,0,0,0-3.64-5.56A27.23,27.23,0,0,0,292,86.65c-1.34-.81-2.72-1.57-4.12-2.28s-2.63-1.1-3.86-1.81a11.1,11.1,0,0,1,3.25-1.13,31.8,31.8,0,0,1,4.23-.66,30.48,30.48,0,0,1,4.27-.09,9.51,9.51,0,0,1,3.94.9l1.53.89-.74-1.58a18.29,18.29,0,0,0-3.05-4.34c-1.16-1.29-2.39-2.51-3.67-3.68s-2.59-2.29-3.94-3.37l-1.05-.81,1.85.62c1.83.64,3.65,1.31,5.48,2s3.65,1.35,5.5,2A54,54,0,0,0,307.27,75l1.12.26-.21-1.13a10.7,10.7,0,0,0-2.48-4.65,34.15,34.15,0,0,0-3.5-3.61q-1.86-1.68-3.84-3.19c-.52-.4-1.06-.78-1.59-1.17l.94.2a36.17,36.17,0,0,1,3.85,1.17c1.26.46,2.5,1,3.7,1.56a13.24,13.24,0,0,1,3.21,2l3.1,3-1.59-4a23.19,23.19,0,0,0-5.48-8.19,19.3,19.3,0,0,0-5.95-3.9,19.67,19.67,0,0,1,8-.84c3.61.36,8.1,1.24,11,3.38l.34-.13-13-13a14.36,14.36,0,0,1,4,.07,21.62,21.62,0,0,1,5.86,1.91,62.81,62.81,0,0,1,10.7,7l2.39,1.82-.62-2.94L323.05,30.7a33.22,33.22,0,0,1,2.36,4.74,35.74,35.74,0,0,1,2.47,10.29l.83,9.25,1.53-9.17,2.34-14A49.48,49.48,0,0,1,335.35,46l.48,10.21,1.91-10A59.86,59.86,0,0,1,344,28.33a42.17,42.17,0,0,1,5.41-7.68,35.34,35.34,0,0,1,3.1-3c-1,1.91-1.84,3.85-2.68,5.8q-2.25,5.27-4,10.7c-1.21,3.62-2.28,7.29-3.13,11-.42,1.87-.79,3.76-1,5.68a28.91,28.91,0,0,0-.27,5.91l.56,7.87,1.64-7.75a47.27,47.27,0,0,1,1.35-5.3,30,30,0,0,1,2.06-5,24.7,24.7,0,0,1,3-4.45c.43-.52.88-1,1.34-1.5L349.34,54l-.61,4.3,2.54-3.52a99.06,99.06,0,0,0,6.47-9.94c.48-.85.93-1.72,1.36-2.61-.3,1.48-.67,3-1.08,4.43a85.18,85.18,0,0,1-4.8,12.72l-3.8,8.06,5.42-7.06,6.81-8.88-1.89,11.4-.38,2.27,1.74-1.49a22.15,22.15,0,0,1,7.22-4.18,20,20,0,0,1,6.59-1.1,32.61,32.61,0,0,0-7.23,12.73l-.48,1.56,1.45-.74,8.09-4.11A127.21,127.21,0,0,0,368,85.47l-1,2.46L368.84,86a27.22,27.22,0,0,1,8.57-6.08,23.71,23.71,0,0,1,9.49-2.09l-14,13.09-.69.78,1-.37,9.42-3.3a15,15,0,0,0-4.11,6.63,14.18,14.18,0,0,0-.61,7.09l.76.32a126.38,126.38,0,0,1,22.77,17.59c15.22,14.73,25.11,32.31,34.49,51.07,11.43,22.88,22.2,46.15,30.95,70.2,8.33,22.89,15.6,47.06,18,71.38C486.66,330.92,484.85,350.45,476.17,367.24Z"/>            </clipPath>        </defs>        <g clip-path="url(#outline)">            <rect fill="#3D3D3D" width="640" height="480" />        </g>    </g>    <g id="pattern">        <g clip-path="url(#outline)">            <path fill="#B6EAFF"  d="M452.2,315a10.59,10.59,0,0,0,4.79-3.93,9.23,9.23,0,0,0,1.6-5.73,41.53,41.53,0,0,1-3.94,3.62,16.43,16.43,0,0,1-4,2.36,30.14,30.14,0,0,1-4.62,1.5c-1.65.41-3.39.77-5.33,1.21a11,11,0,0,0,5.55,1.92A13,13,0,0,0,452.2,315Z"/><path fill="#B6EAFF"  d="M197.27,349.6a19,19,0,0,0,7.35,4.14,16.14,16.14,0,0,0,8.24.34,55.25,55.25,0,0,1-7-3.24,32.19,32.19,0,0,1-5.9-4.23,48.7,48.7,0,0,1-5.1-5.33c-1.62-1.95-3.16-4-4.78-6.21A18.77,18.77,0,0,0,192.2,343,22.58,22.58,0,0,0,197.27,349.6Z"/><path fill="#B6EAFF"  d="M224.91,397.06a23.36,23.36,0,0,0,2.64.15,28.34,28.34,0,0,0,5.22-.35,7.8,7.8,0,0,0,1.28-.23l1.26-.32c.84-.21,1.66-.45,2.48-.69a44.9,44.9,0,0,0,4.68-2.12c-1.74,0-3.39.1-5,.19-.83,0-1.65,0-2.46,0s-1.62.11-2.43,0c-1.6-.11-3.2,0-4.76-.29-.77-.12-1.57-.11-2.33-.28l-2.3-.43a35.06,35.06,0,0,1-8.7-3.22,33.37,33.37,0,0,1-7.82-5.77,17.75,17.75,0,0,0,6.07,8.37,24.09,24.09,0,0,0,9.59,4.52Z"/><path fill="#B6EAFF"  d="M251,301.11c-1.48-.12-2.88,0-4.28,0s-2.76,0-4.12,0-2.7,0-4-.2-2.63-.26-3.94-.41a46.36,46.36,0,0,1-7.65-1.86,39.27,39.27,0,0,1-7.48-3.43,15.66,15.66,0,0,0,6.14,6.26,23.48,23.48,0,0,0,8.39,3l2.22.23a20.78,20.78,0,0,0,2.23,0,25.62,25.62,0,0,0,4.38-.46A33.12,33.12,0,0,0,247,303,32.27,32.27,0,0,0,251,301.11Z"/><path fill="#B6EAFF"  d="M198.49,370.35a8.42,8.42,0,0,0,7.1,2.09,6.64,6.64,0,0,0,3.48-1.68,21.91,21.91,0,0,0-3.27-1.46c-1-.33-1.93-.68-2.87-.92s-1.87-.53-2.89-.76-2.1-.45-3.46-.67A5.88,5.88,0,0,0,198.49,370.35Z"/><path fill="#B6EAFF"  d="M210.13,304.93c-1.31-.16-2.58-.47-3.85-.74a43.64,43.64,0,0,1-7.38-2.5,37.13,37.13,0,0,1-7-4.11,15.36,15.36,0,0,0,5.44,6.8,22.62,22.62,0,0,0,8,3.7l2.18.42a20,20,0,0,0,2.19.21,25.6,25.6,0,0,0,4.38-.1,33.39,33.39,0,0,0,4.26-.82,31.83,31.83,0,0,0,4-1.59c-1.46-.24-2.85-.27-4.23-.37s-2.74-.2-4.08-.37S211.42,305.21,210.13,304.93Z"/><path fill="#B6EAFF"  d="M471.52,331.27a14.34,14.34,0,0,0,5.83-.49,16.14,16.14,0,0,0,5.14-2.58,20.19,20.19,0,0,0,2.11-1.92,15.24,15.24,0,0,0,1.66-2.37,17.24,17.24,0,0,0-2.73.72c-.89.22-1.7.54-2.53.8-1.64.52-3.2,1.07-4.77,1.52s-3.13.86-4.76,1.18a40.54,40.54,0,0,1-5.25.73A9,9,0,0,0,471.52,331.27Z"/><path fill="#B6EAFF"  d="M408.74,407.11c-.92,0-1.78.07-2.65.1-1.72.07-3.37.18-5,.2s-3.25,0-4.91-.12a41.48,41.48,0,0,1-5.25-.69,9,9,0,0,0,4.47,3.72,14.23,14.23,0,0,0,5.75,1.08,16.1,16.1,0,0,0,5.64-1.12,17.86,17.86,0,0,0,2.54-1.3,15.65,15.65,0,0,0,2.24-1.84A19.24,19.24,0,0,0,408.74,407.11Z"/><path fill="#B6EAFF"  d="M410.59,370.63c-1.67.41-3.26.86-4.86,1.2s-3.18.66-4.83.88a40.42,40.42,0,0,1-5.28.38,9.09,9.09,0,0,0,5.13,2.75,14.41,14.41,0,0,0,5.85-.1,16.05,16.05,0,0,0,5.29-2.25,18.32,18.32,0,0,0,2.23-1.78,14.76,14.76,0,0,0,1.82-2.26,19,19,0,0,0-2.78.55C412.27,370.16,411.43,370.42,410.59,370.63Z"/><path fill="#B6EAFF"  d="M241,384.12a39,39,0,0,1-5.82-1.48,37.4,37.4,0,0,1-5.52-2.36,63.23,63.23,0,0,1-5.58-3.27,12.89,12.89,0,0,0,3.75,5.82,16.62,16.62,0,0,0,6.06,3.59,16.79,16.79,0,0,0,7,.85,15.81,15.81,0,0,0,3.42-.67,16.51,16.51,0,0,0,3.14-1.44c-1.16-.29-2.25-.33-3.32-.51S242,384.38,241,384.12Z"/><path fill="#B6EAFF"  d="M207.65,319.48c.52,0,1,.08,1.55.1a8.81,8.81,0,0,0,1.54-.05c.52,0,1-.12,1.53-.19a14.71,14.71,0,0,0,2.95-.95,27.94,27.94,0,0,0-2.83-1l-1.35-.46-.67-.19-.65-.25c-.43-.15-.86-.3-1.29-.43l-1.26-.47a10.16,10.16,0,0,1-1.23-.49c-.41-.17-.83-.31-1.23-.49-1.6-.7-3.16-1.49-4.73-2.37s-3.14-1.87-4.85-3.06a10.67,10.67,0,0,0,2.87,5.49,15.51,15.51,0,0,0,5.12,3.61,16.76,16.76,0,0,0,3,.95C206.62,319.3,207.13,319.43,207.65,319.48Z"/><path fill="#B6EAFF"  d="M217.52,335.45a16.34,16.34,0,0,0,3.68-.81,17.09,17.09,0,0,0,3.35-1.65c-1.27-.21-2.44-.15-3.61-.29s-2.28-.17-3.39-.4a34.56,34.56,0,0,1-6.36-1.45,39.54,39.54,0,0,1-6.07-2.52c-2-1-4-2.17-6.09-3.48a14.9,14.9,0,0,0,4.32,6.06,18.54,18.54,0,0,0,6.6,3.74A17.73,17.73,0,0,0,217.52,335.45Z"/><path fill="#B6EAFF"  d="M274.84,395.63a54.9,54.9,0,0,1-5.85-1,55.64,55.64,0,0,1-5.73-1.59c-1.93-.63-3.85-1.35-6-2.17a13.41,13.41,0,0,0,4.55,5,18,18,0,0,0,6.26,2.69,17.8,17.8,0,0,0,6.82.22,15.48,15.48,0,0,0,3.27-.87,15.26,15.26,0,0,0,3-1.58c-1.15-.23-2.21-.22-3.27-.36S275.85,395.8,274.84,395.63Z"/><path fill="#B6EAFF"  d="M230.62,365.14c-1.45-.43-2.85-.73-4.18-1.14s-2.66-.77-4-1.28a23.59,23.59,0,0,1-4.11-2,6.88,6.88,0,0,0,2.38,4.64,11.34,11.34,0,0,0,4.59,2.52,13.39,13.39,0,0,0,5.06.43,16.94,16.94,0,0,0,2.47-.53,11.74,11.74,0,0,0,2.33-1.09,14.75,14.75,0,0,0-2.35-.87C232.09,365.53,231.34,365.32,230.62,365.14Z"/><path fill="#B6EAFF"  d="M270.52,408.65a15.58,15.58,0,0,0,2.31-2.21,27.74,27.74,0,0,0-3.08.4c-.49.06-1,.11-1.45.19-.24,0-.47.07-.71.12l-.7.05q-.7.06-1.38.15l-1.36.06c-.23,0-.45,0-.67,0l-.67,0c-.45,0-.89,0-1.33,0a27.19,27.19,0,0,1-5.3-.8,42.62,42.62,0,0,1-5.62-1.8A10.58,10.58,0,0,0,255,409.5a13.71,13.71,0,0,0,6.32,1.9,15.32,15.32,0,0,0,1.66,0l.83-.06c.28,0,.55-.08.82-.14.54-.12,1.08-.21,1.61-.37s1-.37,1.52-.57a7.88,7.88,0,0,0,1.45-.73C269.62,409.24,270.08,409,270.52,408.65Z"/><path fill="#B6EAFF"  d="M450.25,375.6a10.49,10.49,0,0,0,4.83,3.94,13.47,13.47,0,0,0,6.31,1.08,12.27,12.27,0,0,0,1.6-.2,10.53,10.53,0,0,0,1.57-.37c.5-.18,1-.34,1.51-.53s.95-.48,1.41-.74a7.12,7.12,0,0,0,1.32-.86c.41-.32.82-.65,1.21-1a10.66,10.66,0,0,0,1.05-1.16,11.55,11.55,0,0,0,.91-1.26c-1.07.17-2,.48-2.93.71-.47.11-.93.21-1.38.33l-.67.19c-.22,0-.45.07-.67.12-.45.09-.88.18-1.31.3s-.88.12-1.31.19a7.86,7.86,0,0,1-1.28.16,9.38,9.38,0,0,1-1.29.12,29.4,29.4,0,0,1-5.21-.11A53.17,53.17,0,0,1,450.25,375.6Z"/><path fill="#B6EAFF"  d="M478,348a31.85,31.85,0,0,1-9.34,3.85,42.7,42.7,0,0,1-10.22,1.1,79.6,79.6,0,0,1-10.73-.8,27.29,27.29,0,0,0,10.46,3.92,28.76,28.76,0,0,0,11.42-.33,24.11,24.11,0,0,0,10.28-5.22,22.55,22.55,0,0,0,6.4-9.23A48.67,48.67,0,0,1,478,348Z"/><path fill="#B6EAFF"  d="M478.37,297.44a10.62,10.62,0,0,0,2.19-5.91,52.63,52.63,0,0,1-4.42,3.69,23.88,23.88,0,0,1-4.5,2.6,42.75,42.75,0,0,1-5,1.86c-1.77.54-3.61,1-5.63,1.62a12.32,12.32,0,0,0,6.05,1.48,15.07,15.07,0,0,0,6.23-1.32A12.65,12.65,0,0,0,478.37,297.44Z"/><path fill="#B6EAFF"  d="M436.35,389.41a7.43,7.43,0,0,0,4,.11,7.77,7.77,0,0,0,3.43-1.86,7.4,7.4,0,0,0,1.23-1.5,6.91,6.91,0,0,0,.72-1.87,13.39,13.39,0,0,0-1.9.29c-.59.08-1.09.26-1.61.35-1,.27-1.93.46-2.82.71l-2.77.65c-1,.23-2,.45-3.39.72A5.23,5.23,0,0,0,436.35,389.41Z"/><path fill="#B6EAFF"  d="M471.72,315.62a24,24,0,0,1-3.27,1.84,22.93,22.93,0,0,1-3.5,1.34c-1.28.39-2.63.72-4.25,1.13a7.47,7.47,0,0,0,4.46,2,9.38,9.38,0,0,0,5-.84,9.14,9.14,0,0,0,3.83-3.28,8.91,8.91,0,0,0,1.09-2.21,8.72,8.72,0,0,0,.35-2.44,23,23,0,0,0-2,1.3C472.81,314.84,472.31,315.3,471.72,315.62Z"/><path fill="#B6EAFF"  d="M450.25,367.65A25.15,25.15,0,0,1,447,369.5a24.14,24.14,0,0,1-3.51,1.33c-1.27.39-2.63.72-4.25,1.13a7.44,7.44,0,0,0,4.47,2,9.35,9.35,0,0,0,9.89-6.33,9.12,9.12,0,0,0,.36-2.44,21.74,21.74,0,0,0-2,1.3C451.34,366.87,450.85,367.34,450.25,367.65Z"/><path fill="#B6EAFF"  d="M459.37,334.92c-.74.23-1.39.56-2.05.8a36.45,36.45,0,0,1-3.74,1.25,19.58,19.58,0,0,1-3.76.54,27,27,0,0,1-4.46-.17,6.89,6.89,0,0,0,3.9,3.26,9.42,9.42,0,0,0,5.29.26,10.46,10.46,0,0,0,4.51-2.52,11.33,11.33,0,0,0,1.59-1.94,10.63,10.63,0,0,0,1-2.32A14.71,14.71,0,0,0,459.37,334.92Z"/><path fill="#B6EAFF"  d="M409.35,386.39a43.93,43.93,0,0,1-6.19.05c-2.13-.1-4.3-.3-6.67-.46a15.62,15.62,0,0,0,6.08,3.54,18,18,0,0,0,7.13.85,14.18,14.18,0,0,0,6.95-2.46,11.07,11.07,0,0,0,4.28-5.73,29.56,29.56,0,0,1-5.77,3A23.19,23.19,0,0,1,409.35,386.39Z"/><path fill="#B6EAFF"  d="M265,377.31c-1.72,0-3.37,0-5-.08s-3.24-.18-4.89-.4a40.12,40.12,0,0,1-5.2-1,9,9,0,0,0,4.25,4,14.4,14.4,0,0,0,5.68,1.4,16,16,0,0,0,5.69-.81,18,18,0,0,0,2.62-1.15,14.83,14.83,0,0,0,2.33-1.71,18.64,18.64,0,0,0-2.82-.19C266.71,377.29,265.84,377.33,265,377.31Z"/>            <g opacity="0.6" ><path fill="#DCFEFF"  d="M285.77,418.84c2.26-24.13,21.66-59.15,48.78-60.3,26.6-1.12,50.68,35,52.69,58.92.13,1.48.51,1.44-.05,1.63-1.81.61-6.61,1.94-9.58,2.8-14,4.06-27.43,4.48-43.52,4.36-16.38-.12-33-4.21-47.85-7.41"/></g>        </g>    </g>    <g id="mask">        <path fill="#2d2926"  d="M275.62,111.89c1.22-1.08,2.38-2.21,3.64-3.22.16-.12,1.69-1.18,1.67-1.24q-6.62-21.63-13.22-43.26-3.91-12.8-7.82-25.58c-1.57-5.12-2.68-10.34-8-12.77-7.71-3.51-14.08,2.88-19.88,7-7.41,5.32-15.7,10.32-21.69,17.24-6.92,8-10.59,22.53-.54,29.85s23.15,0,29.16-9A53.46,53.46,0,0,0,243.58,62c.8-1.89,4.35-12.85,8.48-7.4.72.94,1,2.76,1.39,3.85l7.23,20.11,12.72,35.32a7.31,7.31,0,0,1,.61-.58c.39-.33.77-.7,1.15-1Z"/><path fill="#2d2926"  d="M435.24,52.32c-4.51-2.38-10.68-4.32-15.79-3a7.35,7.35,0,0,0-4.85,4c-2.07,3.75-3.79,7.74-5.6,11.61q-10.06,21.55-18.08,44l.36.29.76.57c.8.6,1.59,1.2,2.38,1.82s1.45,1.16,2.13,1.79l26.14-49.89c4.21,10-1.41,25.13,9.14,32,4.31,2.79,9.83,2,13.82-1,4.54-3.38,6.4-9.09,6.48-14.56C452.31,68.51,445.22,57.57,435.24,52.32Z"/><g opacity="0.1" ><path d="M485.26,334.8c.24,1.7-3.51,6.78-4.43,8.51-1.83,3.4-3.7,6.78-5.69,10.09a107.38,107.38,0,0,1-13.25,18.15A63.53,63.53,0,0,1,450.81,381a62.24,62.24,0,0,1-6.27,3.67,32.89,32.89,0,0,1-5.54,2.51c-4,1.16-6.15-2.22-7.33-5.53a39.61,39.61,0,0,1-2.34-17.57,118.4,118.4,0,0,1,2.55-14.45l-1.95,4.5c-3.07,11.15-4.59,22.6-6,34.07a4.62,4.62,0,0,0,.26,2.2,3.36,3.36,0,0,0-.88.73c-2.06,2.52-.7,11.12-.82,14.33a.69.69,0,0,0,.1.45c.15.19.45.14.69.08a107.87,107.87,0,0,0,24.5-9.45,75.86,75.86,0,0,0,24.16-21c3.2-4.32,6.1-8.64,7.9-13.7C482.91,353.11,486.53,344,485.26,334.8Z"/></g><g opacity="0.1" ><path d="M264.33,140.74c9.24-14,18-28.51,29.77-40.38A19.22,19.22,0,0,0,292.5,99C271.88,111.49,261,124.69,247,148.26c-14.46,24.32-29.82,53.26-39.83,79.35s-15,53.7-17.28,81.49c-2,24.34-2.41,58.3,14.75,78.15,10,11.58,21.42,19,39.16,21.3,2.05.26,4.13.54,6.22.83a31.3,31.3,0,0,0,.35-4.67,28.19,28.19,0,0,1-.21-3.68c0-.44-.09-.88-.15-1.3a5.3,5.3,0,0,1-.07-.88c-16.94-5.88-32-19.2-39.36-35.38-4-8.84-6.14-19-6.19-30.48-.13-27.66,3.21-61.13,10.79-87.4C226.08,207.77,242.55,173.77,264.33,140.74Z"/></g><g opacity="0.1" ><path d="M389.62,411.69c-.7-9.31.31-9.55.31-9.56-5.29,1.26-9.83,4.45-15.14,5.68a161.31,161.31,0,0,1-19.45,3c-22.06,2.28-44.43.82-66.28-2.86-1.83-5.46-1.09-11.7-.06-17.23.53-2.85,2-6.44,2.63-8.78-4.91,6.7-7.4,17.12-9.33,24.28a2.1,2.1,0,0,0-.06.51l-.88-.18v7a5,5,0,0,1-.16,1.26c1.93.42,3.82.85,5.64,1.28,14.92,5.56,32.77,6.75,48,6.87,15.68.13,34.75-1.09,45-4.91,2.87-1.06,9.13-1.63,10.49-3.06C391.6,413.72,389.74,413.3,389.62,411.69Z"/></g><g opacity="0.1" ><path d="M166.88,335.11c0,.15,3.44-.15,3.08-.06a24.73,24.73,0,0,0-8.58,4.41,13.81,13.81,0,0,0-4.42,5.2,25.81,25.81,0,0,0-2.37,9c-.58,5.34,0,10.72,3.95,14.7s9.34,6.33,14.33,8.3c7.47,2.95,15.11,4,23,4.91,3.06.34,6.73,1.18,7.67,4.11-2.74,2.09-6.43,2.37-9.88,2.3a68.75,68.75,0,0,1-41-14.75,17.88,17.88,0,0,1-4.27-4.41,15,15,0,0,1-1.84-5.34C145,354,148.54,343.13,156.09,337a13.46,13.46,0,0,1,7.88-3,4.55,4.55,0,0,1,2,.5C166.56,334.75,166.84,334.86,166.88,335.11Z"/></g><g opacity="0.1" ><path d="M283.49,82.94c0-.41,2-.52,2.29-.53,3.88-.13,14.31,5.12,20,10.92l-6.95.86a.92.92,0,0,1-.59,0,1.39,1.39,0,0,1-.44-.65c-1.13-2.65-1.09-2-3.06-3.76a35.64,35.64,0,0,0-5.62-4.14c-1.49-.78-3.95-1.56-5.43-2.34Z"/></g><g opacity="0.1" ><path d="M212.84,51a22.62,22.62,0,0,0-3.13,12.41,15.07,15.07,0,0,0,2.73,8.48,9.05,9.05,0,0,0,7.81,3.74,14.11,14.11,0,0,0,5.63-2.23A31.8,31.8,0,0,0,233,68.28a16.72,16.72,0,0,0,1.22-1.43,39.62,39.62,0,0,0,2.44-3.93,51.63,51.63,0,0,1,6.63-8.87c1.39-1.49,3.06-3,5.09-3.13,2.88-.2,5.14,2.31,6.91,4.59-2.54-1.51-3.39-3.72-7.46-3-1.4.24-3.24,3.21-3.87,4.4a40.75,40.75,0,0,0-2.07,5.24c-2,5.6-6.16,10.7-10.73,14.45a21.81,21.81,0,0,1-9.21,4.62c-2.79.57-5.57.94-8.27-.2a13.64,13.64,0,0,1-7.53-8.59A20.57,20.57,0,0,1,205,64.53c.24-3,1.67-5.12,3.15-7.61A39.54,39.54,0,0,1,212.84,51Z"/></g><g opacity="0.1" ><path d="M450.53,81.47a16.77,16.77,0,0,1-1.86,7.74c-1,1.93-2.21,3.75-4.23,4.78a10.5,10.5,0,0,1-8.82.17,16,16,0,0,1-5.2-3.28c-1.63-1.62-2.19-3.54-2.92-5.65a30.4,30.4,0,0,1-1.17-5.7,17.5,17.5,0,0,0,5.77,8c5.27,4.08,14.15,3.84,16.84-3.09Z"/></g><g opacity="0.1" ><path d="M213,51.37a22.48,22.48,0,0,0-3.12,12.39,15,15,0,0,0,2.72,8.47A9,9,0,0,0,220.4,76,14.34,14.34,0,0,0,226,73.74a31.23,31.23,0,0,0,7.05-5.13,15,15,0,0,0,1.22-1.42,39.47,39.47,0,0,0,2.44-3.92,51.63,51.63,0,0,1,6.62-8.86c1.39-1.49,3-3,5.09-3.13,2.87-.19,5.12,2.31,6.89,4.59-2.54-1.51-3.38-3.71-7.44-3-1.4.24-3.24,3.21-3.87,4.4A39,39,0,0,0,242,62.48c-2,5.6-6.15,10.69-10.72,14.43a21.59,21.59,0,0,1-9.2,4.61c-2.78.58-5.55,1-8.25-.2a13.57,13.57,0,0,1-7.52-8.56,20.57,20.57,0,0,1-1.09-7.89c.24-3,1.68-5.11,3.15-7.59A39.41,39.41,0,0,1,213,51.37Z"/></g><g opacity="0.1" ><path d="M450.32,81.79a16.69,16.69,0,0,1-1.86,7.72c-1,1.93-2.2,3.75-4.22,4.78a10.53,10.53,0,0,1-8.8.17,15.87,15.87,0,0,1-5.2-3.28c-1.63-1.61-2.18-3.53-2.92-5.64a31.17,31.17,0,0,1-1.16-5.69,17.52,17.52,0,0,0,5.76,8c5.26,4.07,14.13,3.83,16.82-3.09Z"/></g>        <g opacity="0.1" ><path fill="#fff"  d="M352.81,16c-1.11,3.33-2.86,6.55-4.18,9.81-3,7.25-6.36,14.7-8.39,22.26-1.2,4.44-1.82,16.33-.52,20.66.35,1.17,2.2-5.31,2.19-4.1,0,0,.06-8,.91-9.76s.93-5,1.1-7.07c.75-8.72,3.79-16.89,7-24.78Z"/></g><g opacity="0.1" ><path fill="#fff"  d="M374.51,58.61c-.35.69-2,1.44-2.61,1.91-4.85,3.64-6.94,8.34-8,14.19-.2,1.08,3.66-2.59,3.35-2Z"/></g><g opacity="0.1" ><path fill="#fff"  d="M375.86,69.33c-5.12,3.82-9.87,15-11.67,21.88.79-.85,2.51-2.91,3.3-3.77Z"/></g><g opacity="0.1" ><path fill="#fff"  d="M385.44,79.75c-5.43,1-10.46,4.87-13.54,10.38,2.13-.83,3.29-.49,5.42-1.32Z"/></g><path opacity="0.1" fill="#fff"  d="M479.21,347.51l1.08-1.27a92,92,0,0,0,7.42-10.56,145.17,145.17,0,0,0-.81-27.44c-5.29-45.38-31.36-100.16-52-142.52s-47.24-57-47.24-57c6,6.79,32.31,49.69,42.63,70.06S472.92,275.42,480,319.67A76.24,76.24,0,0,1,479.21,347.51Z"/>    </g>    <g id="outline">        <path fill="none"  d="M278.16,106.75q-6.77-22.12-13.52-44.26-4.15-13.56-8.3-27.13c-2.11-6.9-8.48-10.44-15-6.21-5.42,3.53-10.56,7.58-15.81,11.35-9.7,7-23.06,17.06-18.87,30.91,2.36,7.77,10.46,10.35,17.73,8.19s12.08-8.49,15.34-15.06c2.11-4.26,3.4-11.59,8.33-13.74,2.93-1.27,5.23.55,6.36,3.22,4.63,11,8.12,22.58,12.15,33.78l7.95,22.11C275.73,108.83,276.93,107.77,278.16,106.75Z"/><path fill="none"  d="M421.65,60.19a1.24,1.24,0,0,1,2.12,0c3.37,5.46,3.22,11.64,3.45,17.85.24,6.48,2,16.51,10.37,16.71,8.83.21,12.49-9.36,12.06-16.73A28.72,28.72,0,0,0,441,59.61c-4.69-4.65-11.53-8.35-18.3-8.18-5.23.13-6.35,3.75-8.3,7.77q-2.7,5.55-5.26,11.17-8.73,19.16-15.82,39l1.77,1.45Z"/><path fill="none"  d="M466.81,241c-8.75-24-19.52-47.32-30.95-70.2-9.38-18.76-19.27-36.34-34.49-51.07a126.38,126.38,0,0,0-22.77-17.59l-.76-.32a14.18,14.18,0,0,1,.61-7.09,15,15,0,0,1,4.11-6.63l-9.42,3.3-1,.37.69-.78,14-13.09a23.71,23.71,0,0,0-9.49,2.09A27.22,27.22,0,0,0,368.84,86L367,87.93l1-2.46a127.21,127.21,0,0,1,8.76-17.61L368.67,72l-1.45.74.48-1.56a32.61,32.61,0,0,1,7.23-12.73,20,20,0,0,0-6.59,1.1,22.15,22.15,0,0,0-7.22,4.18l-1.74,1.49.38-2.27,1.89-11.4-6.81,8.88-5.42,7.06,3.8-8.06A85.18,85.18,0,0,0,358,46.68c.41-1.47.78-3,1.08-4.43-.43.89-.88,1.76-1.36,2.61a99.06,99.06,0,0,1-6.47,9.94l-2.54,3.52.61-4.3,1.94-13.4c-.46.49-.91,1-1.34,1.5a24.7,24.7,0,0,0-3,4.45,30,30,0,0,0-2.06,5,47.27,47.27,0,0,0-1.35,5.3l-1.64,7.75-.56-7.87a28.91,28.91,0,0,1,.27-5.91c.25-1.92.62-3.81,1-5.68.85-3.74,1.92-7.41,3.13-11s2.55-7.19,4-10.7c.84-1.95,1.72-3.89,2.68-5.8a35.34,35.34,0,0,0-3.1,3A42.17,42.17,0,0,0,344,28.33a59.86,59.86,0,0,0-6.27,17.82l-1.91,10L335.35,46a49.48,49.48,0,0,0-2.77-14.16l-2.34,14L328.71,55l-.83-9.25a35.74,35.74,0,0,0-2.47-10.29,33.22,33.22,0,0,0-2.36-4.74l4.17,19.86.62,2.94-2.39-1.82a62.81,62.81,0,0,0-10.7-7,21.62,21.62,0,0,0-5.86-1.91,14.36,14.36,0,0,0-4-.07l13,13-.34.13c-2.93-2.14-7.42-3-11-3.38a19.67,19.67,0,0,0-8,.84,19.3,19.3,0,0,1,5.95,3.9A23.19,23.19,0,0,1,310,65.46l1.59,4-3.1-3a13.24,13.24,0,0,0-3.21-2c-1.2-.58-2.44-1.1-3.7-1.56a36.17,36.17,0,0,0-3.85-1.17l-.94-.2c.53.39,1.07.77,1.59,1.17q2,1.52,3.84,3.19a34.15,34.15,0,0,1,3.5,3.61,10.7,10.7,0,0,1,2.48,4.65l.21,1.13L307.27,75a54,54,0,0,1-5.67-1.71c-1.85-.64-3.68-1.32-5.5-2s-3.65-1.34-5.48-2l-1.85-.62,1.05.81c1.35,1.08,2.67,2.2,3.94,3.37s2.51,2.39,3.67,3.68a18.29,18.29,0,0,1,3.05,4.34l.74,1.58-1.53-.89a9.51,9.51,0,0,0-3.94-.9,30.48,30.48,0,0,0-4.27.09,31.8,31.8,0,0,0-4.23.66A11.1,11.1,0,0,0,284,82.56c1.23.71,2.59,1.17,3.86,1.81s2.78,1.47,4.12,2.28a27.23,27.23,0,0,1,4.61,3.19,15.66,15.66,0,0,1,3.64,5.56l.09.33-.33,0c-1.62.16-3.25-.7-4.78-1.1-2.66-.69-5.38-1.22-8.09-1.67a12,12,0,0,0-2.73-.31,35.48,35.48,0,0,1,6.05,3.62c1.05.8,2.05,1.56,3,2.42a4,4,0,0,0-.68.54c-19.9,11.79-34.37,30.71-46.64,49.91A378.41,378.41,0,0,0,193.34,283.4c-1.64,9-3,18.1-3.92,27.24-3,30.7-1.69,71.26,28.8,88.4a60.34,60.34,0,0,0,7.14,3.36c.56.22,1.79.47,2.09,1.17.51,1.23-.33,1.87-1.28,2.44-2.47,1.52-14.64,3.2-13.73,6.91,1.05,4.22,11.95,4.53,15.05,4.78a151.16,151.16,0,0,0,18.06.28c.73,0,1.67,0,2.61,0,.18-1.79.18-3.65.21-5.55l0-1.47a14.09,14.09,0,0,0,0-1.44l-.05-2.84c-.08-3.88,0-7.74,0-11.6a168.06,168.06,0,0,0-1.34-23,56,56,0,0,0-2.63-11.17,30.71,30.71,0,0,0-2.46-5.18,18.1,18.1,0,0,0-3.66-4.43,18.11,18.11,0,0,1,4,4.23,30.25,30.25,0,0,1,2.76,5.14,56.75,56.75,0,0,1,3.21,11.21,152.87,152.87,0,0,1,2.06,23.17l.29,11.57.09,3a14,14,0,0,1,0,1.45l0,1.43c0,1.91,0,3.87-.14,5.88a14.39,14.39,0,0,1-.56,3.09,5.8,5.8,0,0,1-2.06,2.88,24.24,24.24,0,0,1-5.42,2.74c-1.7.72-3.35,1.63-3.64,2.81a3.17,3.17,0,0,0-.07,1,4.63,4.63,0,0,0,.27,1,5,5,0,0,0,1.39,1.86c.21.19.44.35.67.52a5.49,5.49,0,0,1,.23-3.5,6.65,6.65,0,0,1,2.74-3.24,8.31,8.31,0,0,1,1.93-.76,12,12,0,0,1,1.85-.43,15,15,0,0,1,3.82-.26,16,16,0,0,1-3.21,2.08c-.54.29-1.17.53-1.65.78s-1.08.43-1.48.69a8.54,8.54,0,0,0-2.32,2.07,11.07,11.07,0,0,0-1.72,3.09l.24-.2a15.89,15.89,0,0,0,3.52,1.69,22.15,22.15,0,0,0,2.65.74,23.31,23.31,0,0,0,2.73.38c.51,0,1,.07,1.55.1a2.64,2.64,0,0,1-.64-1.2,3.62,3.62,0,0,1,.21-2.08,7.35,7.35,0,0,1,2.46-2.89,10.63,10.63,0,0,1,3.17-1.64,8,8,0,0,1,3.57-.36c-.94.8-1.84,1.44-2.71,2.08l-2.57,1.88a15.84,15.84,0,0,0-2.25,1.88,3.13,3.13,0,0,0-.68,1.13,2.54,2.54,0,0,0-.07,1.56l.3-.31a48.48,48.48,0,0,0,8.93-.45c.93-.13,1.86-.29,2.78-.49a21.88,21.88,0,0,0,2.68-.7,15.61,15.61,0,0,0,4.73-2.55,21.29,21.29,0,0,0,6.43-8.84,24.19,24.19,0,0,0,1.47-5.36c.12-.9.22-1.86.31-2.84s.19-1.92.31-2.89a88.55,88.55,0,0,1,2-11.5c1.86-7.61,5.63-14.56,9.95-20.93a107.28,107.28,0,0,0-5.31,10.27c-.78,1.75-1.43,3.56-2,5.38a55.77,55.77,0,0,0-1.43,5.55,90.38,90.38,0,0,0-1.54,11.39l0,.51a319.3,319.3,0,0,0,34.88,5.73c21.78,2.27,44.26,2.25,65.63-3.06,2.56-.64,5.11-1.35,7.63-2.16,0-.29-.11-.59-.16-.89-.64-3.69-.84-7.39-1.29-11-.22-1.81-.53-3.63-.82-5.45s-.58-3.64-1-5.42a31.69,31.69,0,0,0-1.75-5.19c-.66-1.73-1.28-3.46-1.88-5.21.71,1.7,1.44,3.39,2.22,5.06a31.87,31.87,0,0,1,2,5.18c.49,1.8.86,3.61,1.25,5.41s.78,3.6,1.09,5.44c.61,3.67.94,7.34,1.68,10.89a32.93,32.93,0,0,0,1.5,5.16,28,28,0,0,0,2.45,4.74,20.4,20.4,0,0,0,7.57,7.12,12.42,12.42,0,0,0,1.18.52l.59.24.62.18c.81.25,1.72.44,2.59.62a45.42,45.42,0,0,0,5.34.74,52,52,0,0,0,6,.1l.29.31a2.54,2.54,0,0,0-.06-1.56,3.35,3.35,0,0,0-.69-1.14,15.28,15.28,0,0,0-2.25-1.87L414,426.7c-.88-.64-1.78-1.28-2.72-2.08a8.25,8.25,0,0,1,3.57.36,10.89,10.89,0,0,1,3.17,1.65,7.13,7.13,0,0,1,2.46,2.89,3.43,3.43,0,0,1,.21,2.07,2.49,2.49,0,0,1-.64,1.21,38.72,38.72,0,0,0,3.93-.41,20.2,20.2,0,0,0,4.95-1.61,13,13,0,0,0,1.59-.89l.23.19A11.38,11.38,0,0,0,429,427a8.36,8.36,0,0,0-2.32-2.06c-.39-.26-1-.44-1.47-.69s-1.11-.5-1.65-.78a15.41,15.41,0,0,1-3.22-2.09,16,16,0,0,1,3.82.26,15,15,0,0,1,1.86.43,8.76,8.76,0,0,1,1.92.77,6.57,6.57,0,0,1,2.74,3.23,5.47,5.47,0,0,1,.23,3.54,6.65,6.65,0,0,0,1.73-1.79,4,4,0,0,0,.62-2,2.58,2.58,0,0,0-.13-.94,2.28,2.28,0,0,0-.46-.81c-.87-1-2.58-1.72-4.25-2.36a21.43,21.43,0,0,1-5.27-2.56A6.92,6.92,0,0,1,422,418a5.89,5.89,0,0,1-.5-.76,4.06,4.06,0,0,1-.33-.87,8.37,8.37,0,0,1-.27-1.53c-.06-.5-.09-1-.1-1.46a108.76,108.76,0,0,1,.42-11.18c.28-3.69.66-7.37,1.1-11,.88-7.34,2-14.65,3.42-21.9.74-3.62,1.55-7.23,2.55-10.79a55,55,0,0,1,1.71-5.28,24,24,0,0,1,1.15-2.53,8,8,0,0,1,.72-1.19,6,6,0,0,1,.92-1,5.2,5.2,0,0,0-.84,1.09,8.72,8.72,0,0,0-.64,1.21,24.1,24.1,0,0,0-1,2.57c-.57,1.75-1,3.53-1.44,5.32-.81,3.58-1.44,7.21-2,10.84-1.14,7.27-2,14.58-2.69,21.89-.34,3.66-.63,7.33-.87,11-.2,3.47-.38,7-.26,10.4,5.77.81,11.82.57,17.6.38a150.35,150.35,0,0,0,19.08-1.51c.7-.12,2.17-.13,2.76-.58l.2-.06c-.26-.26-.37-1.44-.43-1.63-1-2.88-4.09-4.39-6.77-5.36a73.15,73.15,0,0,0-7.7-2c-1-.25-2.88-.48-3.44-1.56-.7-1.32.32-2,1.29-2.74,4.15-3,8.75-5.14,12.76-8.44a70.07,70.07,0,0,0,17.75-22c8.68-16.79,10.49-36.32,8.65-54.91C482.41,288,475.14,263.84,466.81,241Z"/><path fill="none"  d="M196.62,380.68c-2.93-1.42-5.87-2.78-8.87-4.16-11.35-5.22-19.16-13.51-17.68-26.65.35-3.15,1.11-6.22,1.73-9.33.9-4.56-2.1-5.33-5.86-4.89A22.17,22.17,0,0,0,150.77,344a20.79,20.79,0,0,0-3,18.9c2.34,7.18,8.32,12.06,14.84,15.4,11.5,5.89,24.77,8.31,37.72,8-.78-1.06-1.54-2.13-2.25-3.24C197.57,382.3,197.09,381.49,196.62,380.68Z"/><path d="M479.83,274.08c-6.65-25.19-16.15-49.55-26.89-73.26-5.39-11.91-11.11-23.66-17-35.33-5-9.85-9.95-19.59-16.44-28.55A142,142,0,0,0,397,112.41l25.65-48.94c4.21,10-1.41,25.13,9.14,32,4.31,2.79,9.83,2,13.82-1,4.54-3.38,6.4-9.09,6.48-14.56.18-11.39-6.91-22.33-16.89-27.58-4.51-2.38-10.68-4.32-15.79-3a7.3,7.3,0,0,0-4.85,4c-2.07,3.75-3.79,7.74-5.6,11.61q-9.81,21-17.68,42.85A121,121,0,0,0,379,99.46a27.67,27.67,0,0,1,1.4-5c1.29-3.31,4.55-6.82,7.17-9.21l.73-.66-2.24.75L378.61,88,389,77.15l.52-.57-.78,0c-3.64-.16-8.35,1.15-11.7,2.59A28.23,28.23,0,0,0,370,83.59a130.71,130.71,0,0,1,9-17l1.23-1.94-2.06,1L369.56,70a30.34,30.34,0,0,1,7.62-11.7l1.22-1.14L376.73,57a21.33,21.33,0,0,0-8.9,1,23.46,23.46,0,0,0-6.07,3.08L364,48.28l.62-3.53-2.21,2.83-4.56,5.84c.77-2,1.48-4.09,2.09-6.18a46.75,46.75,0,0,0,1-6.39,29.51,29.51,0,0,0-.17-7.61l-.07.06c-.14,1.8-1.33,3.9-2,5.66a40.54,40.54,0,0,1-2.82,4.88c-1.16,2.07-2.44,4.07-3.79,6L354,37.42l.56-3.85-2.49,3c-1.11,1.32-2.52,2.64-3.76,4.13A28.16,28.16,0,0,0,345,45.54c-.08.17-.16.34-.25.5,0-.13.06-.25.08-.38.84-3.65,1.9-7.25,3.09-10.81s2.54-7.08,4-10.52a79.57,79.57,0,0,1,5-10l2.4-3.92-4,2.31a32.39,32.39,0,0,0-7.72,6.35A44.24,44.24,0,0,0,342,27.18,59.21,59.21,0,0,0,337,39.05a49.39,49.39,0,0,0-3.81-12.2l-1.66-3.57-.64,3.88L329,38.76a38.29,38.29,0,0,0-1.4-4.2,33.87,33.87,0,0,0-5.91-9.65l-2.92-3.29.92,4.3,4.73,22.19a55.08,55.08,0,0,0-8.71-5.38,23.61,23.61,0,0,0-6.48-2.08,15.85,15.85,0,0,0-6.91.4l-1.84.55,1.41,1.29,9.18,8.43a22.92,22.92,0,0,0-4.27-.86,21.45,21.45,0,0,0-11.66,2.12l-2.61,1.3,2.85.58a16.39,16.39,0,0,1,7.81,4.21,20.4,20.4,0,0,1,3.57,4.48l-.7-.34a41,41,0,0,0-3.9-1.61,38.58,38.58,0,0,0-4-1.19,20.37,20.37,0,0,0-2.12-.37,7,7,0,0,0-2.36.06l-2,.45,1.73,1.09a61.55,61.55,0,0,1,7.74,5.81,32.94,32.94,0,0,1,3.37,3.42,11.89,11.89,0,0,1,1.79,2.71c-1.4-.37-2.81-.83-4.21-1.3-1.83-.62-3.66-1.27-5.49-1.93s-3.66-1.31-5.51-1.94a55.51,55.51,0,0,0-5.68-1.66l-3.8-.83,3.32,2A45.65,45.65,0,0,1,289,70.51c1.33,1,2.64,2.14,3.9,3.28s2.49,2.31,3.63,3.55A23.78,23.78,0,0,1,298.72,80l-.68-.15a18.92,18.92,0,0,0-2.24-.24,30.86,30.86,0,0,0-4.41.16,31.87,31.87,0,0,0-4.35.74c-1.43.37-2.32.69-4.45,1.22l-2.52.9,3.14,1a23,23,0,0,1,4,1.73c1.45.79,2.9,1.57,4.31,2.42a26.8,26.8,0,0,1,4,2.85,9.4,9.4,0,0,1,2.42,3.14c-2.32-.81-4.93-.88-7.36-1.23a53.72,53.72,0,0,0-8.11-.45l-.54.06.49.24A46.41,46.41,0,0,1,289.87,97l.94.72a101.46,101.46,0,0,0-10.59,7.4L267.71,64.17q-3.91-12.8-7.82-25.58c-1.57-5.12-2.68-10.34-8-12.77-7.71-3.51-14.08,2.88-19.88,7-7.41,5.32-15.7,10.32-21.69,17.24-6.92,8-10.59,22.53-.54,29.85s23.15,0,29.16-9A53.46,53.46,0,0,0,243.58,62c.8-1.89,4.35-12.85,8.49-7.4.71.94,1,2.76,1.38,3.85l7.23,20.11q6,16.58,11.92,33.14-3.18,3-6.16,6.25c-16.17,17.59-28.77,38.77-39.66,59.93A380.5,380.5,0,0,0,199.38,247q-5.07,17.64-8.4,35.73c-3.23,17.74-5.58,35.83-5,53.9.46,13.65,2.6,27.82,8.62,40.21-4.48-2-9.1-3.77-13.16-6.63-8.12-5.72-10.17-13.81-8.51-23.25.68-3.85,3.83-10.5-.78-13.05-3.39-1.89-8.56-.64-12,.52a23.42,23.42,0,0,0-13.37,11.2c-6,11.58-.81,24.5,9.31,31.61,12.87,9.05,30.28,12.14,46.07,11.48a52.94,52.94,0,0,0,11.86,10.63,51.63,51.63,0,0,0,5.61,3.19c.92.45,1.86.88,2.81,1.28a4.57,4.57,0,0,0,.77.33l.32.13c-.7.31-1.41.64-1.61.71-1.72.58-3.45,1.11-5.16,1.74-3.31,1.21-8.83,3.24-6.29,7.78,2.22,4,8.87,4.65,12.79,5.17a124.8,124.8,0,0,0,19.33.81c1.31,0,3.18.1,5.08,0,0,.05,0,.11,0,.16a2.91,2.91,0,0,1-.47,1,4.1,4.1,0,0,1-.81.8,23.89,23.89,0,0,1-4.91,2.4,16.12,16.12,0,0,0-2.78,1.45,6.82,6.82,0,0,0-1.31,1.18,4.91,4.91,0,0,0-.92,1.7,6.42,6.42,0,0,0,2.28,6.39,15.83,15.83,0,0,0,5.47,3,22.79,22.79,0,0,0,2.94.8,26.63,26.63,0,0,0,3,.41A48.88,48.88,0,0,0,262,439.4c1-.15,1.95-.34,2.91-.55a27.6,27.6,0,0,0,2.91-.81,17.77,17.77,0,0,0,5.36-3,22.71,22.71,0,0,0,6.87-9.81,26,26,0,0,0,1.44-5.82c.11-1,.18-1.93.24-2.86l1.47.34c22.8,4.87,46.3,7.72,69.64,6.53a157.88,157.88,0,0,0,31.41-4.58c2.14-.55,4.26-1.17,6.36-1.84a28.73,28.73,0,0,0,3.19,7.35,21.75,21.75,0,0,0,8.2,8c.44.21.88.45,1.34.62l.69.28.7.23c1,.3,1.84.5,2.77.71a50.48,50.48,0,0,0,5.6.86,45.91,45.91,0,0,0,11.34-.32A23.31,23.31,0,0,0,430,433a14.24,14.24,0,0,0,2.58-1.55,8.4,8.4,0,0,0,2.19-2.32,6.45,6.45,0,0,0,1-3.22,4.9,4.9,0,0,0-1.17-3.36A8.07,8.07,0,0,0,432,420.6a28.21,28.21,0,0,0-2.66-1.13,19.14,19.14,0,0,1-4.68-2.19,5.08,5.08,0,0,1-.78-.75,2.27,2.27,0,0,1-.43-.81c0-.15-.07-.33-.11-.51l1.14.11a144.17,144.17,0,0,0,21,0c5.55-.29,11.51-.39,16.93-1.76,4.07-1,2.93-5.13.61-7.82-3.56-4.12-9.52-4.95-14.5-6.16a6.72,6.72,0,0,1-.76-.25,2,2,0,0,1,.3-.17,31.11,31.11,0,0,0,4.23-2.5,75.31,75.31,0,0,0,11.36-8.75c13.52-12.65,21-30.05,23.41-48.23C489.87,317.65,485.45,295.36,479.83,274.08ZM409.17,70.37q2.56-5.61,5.26-11.17c1.95-4,3.07-7.64,8.3-7.77,6.77-.17,13.61,3.53,18.3,8.18A28.72,28.72,0,0,1,449.65,78c.43,7.37-3.23,16.94-12.06,16.73-8.33-.2-10.13-10.23-10.37-16.71-.23-6.21-.08-12.39-3.45-17.85a1.24,1.24,0,0,0-2.12,0l-26.53,50.62-1.77-1.45Q400.46,89.56,409.17,70.37ZM266.6,87.8c-4-11.2-7.52-22.81-12.15-33.78-1.13-2.67-3.43-4.49-6.36-3.22-4.93,2.15-6.22,9.48-8.33,13.74-3.26,6.57-8,12.89-15.34,15.06s-15.37-.42-17.73-8.19c-4.19-13.85,9.17-23.94,18.87-30.91,5.25-3.77,10.39-7.82,15.81-11.35,6.49-4.23,12.86-.69,15,6.21q4.16,13.57,8.3,27.13,6.75,22.12,13.52,44.26c-1.23,1-2.43,2.08-3.61,3.16Zm-104,290.49c-6.52-3.34-12.5-8.22-14.84-15.4a20.79,20.79,0,0,1,3-18.9,22.17,22.17,0,0,1,15.17-8.34c3.76-.44,6.76.33,5.86,4.89-.62,3.11-1.38,6.18-1.73,9.33-1.48,13.14,6.33,21.43,17.68,26.65,3,1.38,5.94,2.74,8.87,4.16.47.81.95,1.62,1.45,2.42.71,1.11,1.47,2.18,2.25,3.24C187.37,386.6,174.1,384.18,162.6,378.29Zm313.57-11.05a70.07,70.07,0,0,1-17.75,22c-4,3.3-8.61,5.45-12.76,8.44-1,.7-2,1.42-1.29,2.74.56,1.08,2.41,1.31,3.44,1.56a73.15,73.15,0,0,1,7.7,2c2.68,1,5.74,2.48,6.77,5.36.06.19.17,1.37.43,1.63l-.2.06c-.59.45-2.06.46-2.76.58a150.35,150.35,0,0,1-19.08,1.51c-5.78.19-11.83.43-17.6-.38-.12-3.41.06-6.93.26-10.4.24-3.66.53-7.33.87-11,.7-7.31,1.55-14.62,2.69-21.89.56-3.63,1.19-7.26,2-10.84.41-1.79.87-3.57,1.44-5.32a24.1,24.1,0,0,1,1-2.57,8.72,8.72,0,0,1,.64-1.21,5.2,5.2,0,0,1,.84-1.09,6,6,0,0,0-.92,1,8,8,0,0,0-.72,1.19,24,24,0,0,0-1.15,2.53,55,55,0,0,0-1.71,5.28c-1,3.56-1.81,7.17-2.55,10.79-1.43,7.25-2.54,14.56-3.42,21.9-.44,3.67-.82,7.35-1.1,11a108.76,108.76,0,0,0-.42,11.18c0,.47,0,1,.1,1.46a8.37,8.37,0,0,0,.27,1.53,4.06,4.06,0,0,0,.33.87,5.89,5.89,0,0,0,.5.76,6.92,6.92,0,0,0,1.19,1.17,21.43,21.43,0,0,0,5.27,2.56c1.67.64,3.38,1.33,4.25,2.36a2.28,2.28,0,0,1,.46.81,2.58,2.58,0,0,1,.13.94,4,4,0,0,1-.62,2,6.65,6.65,0,0,1-1.73,1.79,5.47,5.47,0,0,0-.23-3.54,6.57,6.57,0,0,0-2.74-3.23,8.76,8.76,0,0,0-1.92-.77,15,15,0,0,0-1.86-.43,16,16,0,0,0-3.82-.26,15.41,15.41,0,0,0,3.22,2.09c.54.28,1.16.53,1.65.78s1.08.43,1.47.69A8.36,8.36,0,0,1,429,427a11.38,11.38,0,0,1,1.73,3.09l-.23-.19a13,13,0,0,1-1.59.89,20.2,20.2,0,0,1-4.95,1.61,38.72,38.72,0,0,1-3.93.41,2.49,2.49,0,0,0,.64-1.21,3.43,3.43,0,0,0-.21-2.07,7.13,7.13,0,0,0-2.46-2.89,10.89,10.89,0,0,0-3.17-1.65,8.25,8.25,0,0,0-3.57-.36c.94.8,1.84,1.44,2.72,2.08l2.56,1.89a15.28,15.28,0,0,1,2.25,1.87,3.35,3.35,0,0,1,.69,1.14,2.54,2.54,0,0,1,.06,1.56l-.29-.31a52,52,0,0,1-6-.1,45.42,45.42,0,0,1-5.34-.74c-.87-.18-1.78-.37-2.59-.62l-.62-.18-.59-.24a12.42,12.42,0,0,1-1.18-.52,20.4,20.4,0,0,1-7.57-7.12,28,28,0,0,1-2.45-4.74,32.93,32.93,0,0,1-1.5-5.16c-.74-3.55-1.07-7.22-1.68-10.89-.31-1.84-.71-3.64-1.09-5.44s-.76-3.61-1.25-5.41a31.87,31.87,0,0,0-2-5.18c-.78-1.67-1.51-3.36-2.22-5.06.6,1.75,1.22,3.48,1.88,5.21a31.69,31.69,0,0,1,1.75,5.19c.39,1.78.67,3.6,1,5.42s.6,3.64.82,5.45c.45,3.62.65,7.32,1.29,11,.05.3.11.6.16.89-2.52.81-5.07,1.52-7.63,2.16-21.37,5.31-43.85,5.33-65.63,3.06a319.3,319.3,0,0,1-34.88-5.73l0-.51a90.38,90.38,0,0,1,1.54-11.39,55.77,55.77,0,0,1,1.43-5.55c.61-1.82,1.26-3.63,2-5.38A107.28,107.28,0,0,1,292.25,381c-4.32,6.37-8.09,13.32-9.95,20.93a88.55,88.55,0,0,0-2,11.5c-.12,1-.23,1.93-.31,2.89s-.19,1.94-.31,2.84a24.19,24.19,0,0,1-1.47,5.36,21.29,21.29,0,0,1-6.43,8.84,15.61,15.61,0,0,1-4.73,2.55,21.88,21.88,0,0,1-2.68.7c-.92.2-1.85.36-2.78.49a48.48,48.48,0,0,1-8.93.45l-.3.31a2.54,2.54,0,0,1,.07-1.56,3.13,3.13,0,0,1,.68-1.13,15.84,15.84,0,0,1,2.25-1.88l2.57-1.88c.87-.64,1.77-1.28,2.71-2.08a8,8,0,0,0-3.57.36,10.63,10.63,0,0,0-3.17,1.64,7.35,7.35,0,0,0-2.46,2.89,3.62,3.62,0,0,0-.21,2.08,2.64,2.64,0,0,0,.64,1.2c-.52,0-1-.05-1.55-.1a23.31,23.31,0,0,1-2.73-.38,22.15,22.15,0,0,1-2.65-.74,15.89,15.89,0,0,1-3.52-1.69l-.24.2a11.07,11.07,0,0,1,1.72-3.09,8.54,8.54,0,0,1,2.32-2.07c.4-.26,1-.44,1.48-.69s1.11-.49,1.65-.78a16,16,0,0,0,3.21-2.08,15,15,0,0,0-3.82.26,12,12,0,0,0-1.85.43,8.31,8.31,0,0,0-1.93.76,6.65,6.65,0,0,0-2.74,3.24,5.49,5.49,0,0,0-.23,3.5c-.23-.17-.46-.33-.67-.52A5,5,0,0,1,239,431.9a4.63,4.63,0,0,1-.27-1,3.17,3.17,0,0,1,.07-1c.29-1.18,1.94-2.09,3.64-2.81a24.24,24.24,0,0,0,5.42-2.74,5.8,5.8,0,0,0,2.06-2.88,14.39,14.39,0,0,0,.56-3.09c.18-2,.14-4,.14-5.88l0-1.43a14,14,0,0,0,0-1.45l-.09-3-.29-11.57a152.87,152.87,0,0,0-2.06-23.17A56.75,56.75,0,0,0,245,360.67a30.25,30.25,0,0,0-2.76-5.14,18.11,18.11,0,0,0-4-4.23,18.1,18.1,0,0,1,3.66,4.43,30.71,30.71,0,0,1,2.46,5.18A56,56,0,0,1,247,372.08a168.06,168.06,0,0,1,1.34,23c0,3.86,0,7.72,0,11.6l.05,2.84a14.09,14.09,0,0,1,0,1.44l0,1.47c0,1.9,0,3.76-.21,5.55-.94,0-1.88,0-2.61,0a151.16,151.16,0,0,1-18.06-.28c-3.1-.25-14-.56-15.05-4.78-.91-3.71,11.26-5.39,13.73-6.91,1-.57,1.79-1.21,1.28-2.44-.3-.7-1.53-.95-2.09-1.17a60.34,60.34,0,0,1-7.14-3.36c-30.49-17.14-31.79-57.7-28.8-88.4.89-9.14,2.28-18.21,3.92-27.24a378.41,378.41,0,0,1,52.77-134.23c12.27-19.2,26.74-38.12,46.64-49.91a4,4,0,0,1,.68-.54c-.94-.86-1.94-1.62-3-2.42a35.48,35.48,0,0,0-6.05-3.62,12,12,0,0,1,2.73.31c2.71.45,5.43,1,8.09,1.67,1.53.4,3.16,1.26,4.78,1.1l.33,0-.09-.33a15.66,15.66,0,0,0-3.64-5.56A27.23,27.23,0,0,0,292,86.65c-1.34-.81-2.72-1.57-4.12-2.28s-2.63-1.1-3.86-1.81a11.1,11.1,0,0,1,3.25-1.13,31.8,31.8,0,0,1,4.23-.66,30.48,30.48,0,0,1,4.27-.09,9.51,9.51,0,0,1,3.94.9l1.53.89-.74-1.58a18.29,18.29,0,0,0-3.05-4.34c-1.16-1.29-2.39-2.51-3.67-3.68s-2.59-2.29-3.94-3.37l-1.05-.81,1.85.62c1.83.64,3.65,1.31,5.48,2s3.65,1.35,5.5,2A54,54,0,0,0,307.27,75l1.12.26-.21-1.13a10.7,10.7,0,0,0-2.48-4.65,34.15,34.15,0,0,0-3.5-3.61q-1.86-1.68-3.84-3.19c-.52-.4-1.06-.78-1.59-1.17l.94.2a36.17,36.17,0,0,1,3.85,1.17c1.26.46,2.5,1,3.7,1.56a13.24,13.24,0,0,1,3.21,2l3.1,3-1.59-4a23.19,23.19,0,0,0-5.48-8.19,19.3,19.3,0,0,0-5.95-3.9,19.67,19.67,0,0,1,8-.84c3.61.36,8.1,1.24,11,3.38l.34-.13-13-13a14.36,14.36,0,0,1,4,.07,21.62,21.62,0,0,1,5.86,1.91,62.81,62.81,0,0,1,10.7,7l2.39,1.82-.62-2.94L323.05,30.7a33.22,33.22,0,0,1,2.36,4.74,35.74,35.74,0,0,1,2.47,10.29l.83,9.25,1.53-9.17,2.34-14A49.48,49.48,0,0,1,335.35,46l.48,10.21,1.91-10A59.86,59.86,0,0,1,344,28.33a42.17,42.17,0,0,1,5.41-7.68,35.34,35.34,0,0,1,3.1-3c-1,1.91-1.84,3.85-2.68,5.8q-2.25,5.27-4,10.7c-1.21,3.62-2.28,7.29-3.13,11-.42,1.87-.79,3.76-1,5.68a28.91,28.91,0,0,0-.27,5.91l.56,7.87,1.64-7.75a47.27,47.27,0,0,1,1.35-5.3,30,30,0,0,1,2.06-5,24.7,24.7,0,0,1,3-4.45c.43-.52.88-1,1.34-1.5L349.34,54l-.61,4.3,2.54-3.52a99.06,99.06,0,0,0,6.47-9.94c.48-.85.93-1.72,1.36-2.61-.3,1.48-.67,3-1.08,4.43a85.18,85.18,0,0,1-4.8,12.72l-3.8,8.06,5.42-7.06,6.81-8.88-1.89,11.4-.38,2.27,1.74-1.49a22.15,22.15,0,0,1,7.22-4.18,20,20,0,0,1,6.59-1.1,32.61,32.61,0,0,0-7.23,12.73l-.48,1.56,1.45-.74,8.09-4.11A127.21,127.21,0,0,0,368,85.47l-1,2.46L368.84,86a27.22,27.22,0,0,1,8.57-6.08,23.71,23.71,0,0,1,9.49-2.09l-14,13.09-.69.78,1-.37,9.42-3.3a15,15,0,0,0-4.11,6.63,14.18,14.18,0,0,0-.61,7.09l.76.32a126.38,126.38,0,0,1,22.77,17.59c15.22,14.73,25.11,32.31,34.49,51.07,11.43,22.88,22.2,46.15,30.95,70.2,8.33,22.89,15.6,47.06,18,71.38C486.66,330.92,484.85,350.45,476.17,367.24Z"/>    </g>    <g id="eye">        <g id="eye-color1">            <g opacity="0" ><path fill="#3D3D3D"  d="M234.82,140.34c-.14.46-.2.94-.35,1.4a16,16,0,0,1-1.35,2.87c-.53.93-1,1.89-1.54,2.82-.24.42-.5.81-.77,1.21l-.43.61c-.09.11-.46.47-.46.6-.19.25-.39.5-.59.74-5.88,7-13.9,9.8-22.69,6.53-8.54-3.17-14.21-10.4-14.65-19.54a.84.84,0,0,1,0-.28.93.93,0,0,1,0-.29,23.27,23.27,0,0,1,19-21.81,18.93,18.93,0,0,1,11.42,1.34c-15.29-7.7-34.35-2.92-39.29,15.34a20.81,20.81,0,0,0-.67,6.53A29.42,29.42,0,0,0,193,158.64c8.6,7.09,21.5,6.67,31.05,1.77,7.18-3.69,10-12.6,10.92-20.45C234.91,140.08,234.86,140.21,234.82,140.34Z"/></g><g opacity="0" ><path fill="#3D3D3D"  d="M358.58,134.27c-.24.62-.44,1.25-.7,1.86a24.39,24.39,0,0,1-2,3.67,31.67,31.67,0,0,1-2.54,3.43c-5.88,7-13.9,9.8-22.69,6.53-8.53-3.17-14.2-10.4-14.65-19.53a2.11,2.11,0,0,1,0-.58,23.29,23.29,0,0,1,19-21.81,18.89,18.89,0,0,1,11.43,1.35c-15.3-7.71-34.36-2.93-39.3,15.33a20.54,20.54,0,0,0-.66,6.53A29.34,29.34,0,0,0,317,151.28c8.59,7.09,21.5,6.67,31,1.77,6.9-3.55,9.72-12,10.77-19.65C358.75,133.65,358.67,134,358.58,134.27Z"/></g>        </g>        <g id="eye-shape">            <path fill="#fbfbfb"  d="M295.89,123.07c-21.73-17.81-51.73-12-72.06,4.87-11.71,10.13-20.83,23.9-22.36,39.62-1.27,13.08,2.6,26.27,9.61,37.28,12.38,19.45,36.51,33.94,59.91,27.09,20.91-6.11,35.23-26.44,41.18-46.49C318.73,163.33,314.39,138.24,295.89,123.07ZM312,167.47c3.12,13.13-4,29.28-15.05,36.62-11.44,7.58-25.45,6.3-36.15-1.92-11.83-9.09-12.9-22.85-8.48-36.32a1.57,1.57,0,0,1,.15-.32c5.3-13,19.95-19.08,33.33-17.47a40.23,40.23,0,0,1,4.79.88c7-1.95,15.58,1.56,16.61,9.37A21.23,21.23,0,0,1,312,167.47Z"/><path d="M221.71,125.82C211.07,135,202.58,147.11,199.5,161c-2.77,12.5-.75,25.57,4.53,37.14,10.21,22.39,34.35,41.15,59.93,38.25,23.13-2.63,40.23-22.12,48.49-42.66,9.19-22.89,7.78-50-9.89-68.54C280.11,101.65,245.06,106.47,221.71,125.82Zm90.46,59.62c-5.95,20.05-20.27,40.38-41.18,46.49-23.4,6.85-47.53-7.64-59.91-27.09-7-11-10.88-24.2-9.61-37.28,1.53-15.72,10.65-29.49,22.36-39.62,20.33-16.85,50.33-22.68,72.06-4.87C314.39,138.24,318.73,163.33,312.17,185.44Z"/><path d="M307.12,162.07c-1.18,7.61-8.53,14.08-16.4,11.78-7.26-2.13-10.49-10.21-8.63-17.13a1.6,1.6,0,0,1,.1-.39,1.34,1.34,0,0,1,.18-.38,12.35,12.35,0,0,1,8.2-7,40.23,40.23,0,0,0-4.79-.88c-13.38-1.61-28,4.46-33.33,17.47a1.57,1.57,0,0,0-.15.32c-4.42,13.47-3.35,27.23,8.48,36.32,10.7,8.22,24.71,9.5,36.15,1.92C308,196.75,315.1,180.6,312,167.47a21.23,21.23,0,0,0-4.8-9.16A12.9,12.9,0,0,1,307.12,162.07Z"/><path fill="#fff"  d="M290.57,148.94a12.35,12.35,0,0,0-8.2,7,1.34,1.34,0,0,0-.18.38,1.6,1.6,0,0,0-.1.39c-1.86,6.92,1.37,15,8.63,17.13,7.87,2.3,15.22-4.17,16.4-11.78a12.9,12.9,0,0,0,.06-3.76C306.15,150.5,297.61,147,290.57,148.94Z"/><path fill="#fbfbfb"  d="M437.65,124.5c-21.81-15.38-53-18.4-71.71,3.56-17.26,21.61-17.19,56.12-2.48,79a51.88,51.88,0,0,0,65.66,19.41A58,58,0,0,0,462.59,177C463.67,156.62,454.4,136.32,437.65,124.5Zm-65.73,81.87c-14.35-8.08-20.39-26.75-13.74-41.89a30.47,30.47,0,0,1,4.24-6.94,10.08,10.08,0,0,1,1.62-5.67c2.64-4.14,8-4.83,12.6-3.8a30.47,30.47,0,0,1,12.64-.95c14.23,1.89,27.34,11.65,30.73,26C426.49,200.61,394.74,217.86,371.92,206.37Z"/><path d="M445.1,126.64c-22.48-20.28-60.06-25.65-81.28-.7-16.45,20.59-17.87,51.29-7.19,74.85,10.79,23.79,36.25,38.16,62.16,32.38,23.25-5.18,41.58-24.61,45.83-47.94C468.51,163.94,461.25,141.21,445.1,126.64ZM462.59,177a58,58,0,0,1-33.47,49.54,51.88,51.88,0,0,1-65.66-19.41c-14.71-22.92-14.78-57.43,2.48-79,18.68-22,49.9-18.94,71.71-3.56C454.4,136.32,463.67,156.62,462.59,177Z"/><path d="M389.28,147.12a30.47,30.47,0,0,0-12.64.95,17.62,17.62,0,0,1,3.22,1.06c5.45,2.45,8.82,8.1,6.23,13.93-3,6.78-10.57,8.51-16.85,5.52a1.7,1.7,0,0,1-.39-.18,1.3,1.3,0,0,1-.34-.25,13.66,13.66,0,0,1-6.09-10.61,30.47,30.47,0,0,0-4.24,6.94c-6.65,15.14-.61,33.81,13.74,41.89,22.82,11.49,54.57-5.76,48.09-33.26C416.62,158.77,403.51,149,389.28,147.12Z"/><path fill="#fff"  d="M368.51,168.15a1.3,1.3,0,0,0,.34.25,1.7,1.7,0,0,0,.39.18c6.28,3,13.85,1.26,16.85-5.52,2.59-5.83-.78-11.48-6.23-13.93a17.62,17.62,0,0,0-3.22-1.06c-4.6-1-10-.34-12.6,3.8a10.08,10.08,0,0,0-1.62,5.67A13.66,13.66,0,0,0,368.51,168.15Z"/>        </g>        <g id="eye-color2">            <path fill="#DDFF94"  d="M296.93,204.09c-11.44,7.58-25.45,6.3-36.15-1.92-11.83-9.09-12.9-22.85-8.48-36.32a1.57,1.57,0,0,1,.15-.32c5.09-12.49,18.79-18.56,31.71-17.61-18.58-4.75-40.69,3.61-47,22.29a37.84,37.84,0,0,0,4.9,33.64c7.49,10.53,19.92,14.8,32.48,14.76,6.18,0,12.54-1,17.8-4.27,8.59-5.28,15.13-15.61,17.42-26.36A36.26,36.26,0,0,1,296.93,204.09Z"/><path fill="#DDFF94"  d="M413.7,150.66c-9.56-6.81-25.15-8-36.48-2.77a30.7,30.7,0,0,1,12.06-.77c14.23,1.89,27.34,11.65,30.73,26,6.48,27.5-25.27,44.75-48.09,33.26a32.32,32.32,0,0,1-14.31-17.05,17.33,17.33,0,0,0,.4,2.36,31.2,31.2,0,0,0,16.47,20.87c13.13,6.59,30.83,4.54,43.3-5.59a31.73,31.73,0,0,0,10.47-14.43C433.11,177.65,426.41,159.69,413.7,150.66Z"/>        </g>    </g>    <g id="nose-mouth">        <path d="M373.78,247.87c-4.5,1.35-8.88,3-13.24,4.76s-8.58,3.8-12.77,5.88q-7.47,3.84-14.63,8.21l-.27-8.91.45,0a14.7,14.7,0,0,0,3.35-.36c8.25-1.87,18.48-9.31,20.57-17.39a10.77,10.77,0,0,0-3.61-11.25c-8.44-7.55-30.56-5.5-40.8-.48-5.87,2.88-6.92,6.06-6.77,8.22.31,4.29,4.76,10.32,11.08,15a31.42,31.42,0,0,0,12.72,5.91l.33,11c-2.21,1.4-4.4,2.82-6.56,4.3a191.42,191.42,0,0,0-22,17.26c7.63-5.36,15.41-10.44,23.31-15.31,4-2.4,7.93-4.8,12-7s8.09-4.49,12.23-6.56a227,227,0,0,1,25.4-11.09c4.36-1.52,8.76-3,13.24-4.12s9-2.08,13.64-2.8a92.43,92.43,0,0,0-14,1.36A123.63,123.63,0,0,0,373.78,247.87Z"/><path fill="#2d2821"  d="M318.92,249.17c6.08,4.5,12.3,6.47,17.09,5.38l.82-.22c1.31-4.23,5.14-15,10.37-15.43,4.64-.38,2.54,5.7.94,9.23,3.1-2.69,5.43-5.84,6.2-8.8a7.86,7.86,0,0,0-2.71-8.27c-3.22-2.88-9.6-4.17-16.5-4.17-7.49,0-15.59,1.52-21,4.16-2,1-5.27,2.94-5.1,5.3C309.3,239.72,313.45,245.11,318.92,249.17Z"/><path d="M404.34,242.52a7.14,7.14,0,0,0-3.53-3.67,10.34,10.34,0,0,0-4.68-1.08,10.12,10.12,0,0,0-4.54,1c1.49.52,2.88.9,4.2,1.33a24.6,24.6,0,0,1,3.67,1.42,8.37,8.37,0,0,1,2.82,2.16,12.19,12.19,0,0,1,1.94,3.64A6,6,0,0,0,404.34,242.52Z"/>    </g></svg>