<!--  ~ Copyright (C) 2018 Baidu, Inc. All Rights Reserved.  --><svg viewBox="0 0 640 480" xmlns="http://www.w3.org/2000/svg">    <g id="back-ground-cl">        <rect fill="none" width="640" height="480" />        <ellipse opacity="0.1" cx="331.93" cy="418.82" rx="168.39" ry="32.01"/>    </g>    <g id="body">        <defs>            <clipPath id="outline">                <path fill="none"  d="M409.36,124.68l.22-.31c3.88-5.71,5.24-12.8,9.68-18.19,4.6-5.6,12-7.82,16.47-13.52a23.16,23.16,0,0,0,5-13c.25-4.7-1.19-11.93-7.43-8.4-3,1.71-5.32,4.27-8.64,5.79a52.5,52.5,0,0,1-9.31,3.12c-12.4,3.05-33.65,4.52-37.55,19A129.43,129.43,0,0,1,409.36,124.68Z"/><path fill="none"  d="M179.94,333c-3.93-.31-7.8,5.92-3.2,7.61,1.23.45,1.6,2.64,0,2.89q-3.6,1.77-1.2,4.19a1.51,1.51,0,0,1-1.15,2.75,17.19,17.19,0,0,0-4.32-.66c-2.65.09-3.44.25-4.34,2.82-1.56,4.44,2.68,6.57,6.06,8.39,1.39.75.64,2.71-.76,2.8a5.56,5.56,0,0,0,3.79,1.83,5.86,5.86,0,0,0,1.72.19,25.3,25.3,0,0,0,2.61-.1c2.32-.15,4.64-.43,6.95-.65,1.15-.11,2.51-.17,4-.29a109,109,0,0,1-4.25-28.82A9.38,9.38,0,0,0,179.94,333Z"/><path fill="none"  d="M256.06,130.89c3.58-4.65,7.34-9.14,11.33-13.4a116.37,116.37,0,0,1,17.93-15.72,1.19,1.19,0,0,1-.08-.2c-4.8-16.49-22.57-27.9-38.18-17.28-4.87,3.3-9,7.6-14,10.69a25.66,25.66,0,0,1-7.55,3.24c-1.95.47-4.79.76-5.37,3.3-.49,2.13,1.64,4.68,3,6,5.58,5.36,12.86,4.41,19.87,4.45,4,0,8.61.69,10.81,4.53C256.51,121.26,253.75,126.69,256.06,130.89Z"/><path fill="none"  d="M467.09,243.42c-8.65-24.15-19.37-47.49-30.8-70.44-9.42-18.92-19.18-36.8-34.41-51.76C388,107.61,371,96.63,352.07,91.78c-1.34-.34-2.68-.64-4-.91,0,0,0,0,0,0s0,0,0,0l-.92-.24a36.39,36.39,0,0,0,2.43-7.58,35.19,35.19,0,0,1-9.72,9.85l-3.22,2.15,1.65-3.53A69.55,69.55,0,0,0,342.93,78a68.49,68.49,0,0,0,1.46-8.88c-1.63,2.48-3.29,5-5,7.38a107.76,107.76,0,0,1-9.05,11.24l-6.05,6.45,3.59-8.08A43.27,43.27,0,0,0,331,62.51c-1.27,4.22-2.55,8.44-3.87,12.65a90.27,90.27,0,0,1-3,8.93,21.53,21.53,0,0,1-2.43,4.23A13.21,13.21,0,0,1,318,91.66l-2.13,1.28.85-2.3A10,10,0,0,0,316,82.4a32.2,32.2,0,0,1-2.15,8.68c-.18.45-.34.48-.67.82a3.27,3.27,0,0,0-.44,0c-.83.2-1.66.46-2.48.71s-1.67.52-2.49.8-1.65.57-2.47.88-1.63.64-2.44,1-1.62.69-2.41,1.06-1.6.74-2.39,1.14-1.58.8-2.36,1.23-1.55.86-2.32,1.31c-20,11.78-34.51,30.8-46.79,50.08a377.39,377.39,0,0,0-52.43,133.52c-1.64,9-3,18.11-3.91,27.25-2.94,30.42-1.69,70.59,28.43,87.67,2.13,1.21,13,3.79,8.38,7.39-2.4,1.85-14.48,3-13.86,6.68.7,4.07,12.39,4.42,15.15,4.64a154.22,154.22,0,0,0,17.6.24c.52,0,1.44,0,2.41,0,.14-1.74.13-3.58.15-5.43s0-3.86.07-5.79c.07-3.85.18-7.68.2-11.51a153.15,153.15,0,0,0-1.33-22.87,55.56,55.56,0,0,0-2.69-11.09,30,30,0,0,0-2.47-5.14,18.3,18.3,0,0,0-3.62-4.42,22.64,22.64,0,0,1,6.82,9.26,57.1,57.1,0,0,1,3.4,11.14,136.91,136.91,0,0,1,2.22,23.1c.1,3.86.11,7.72.09,11.56,0,1.92,0,3.83,0,5.75s.07,3.86-.08,5.9a13.94,13.94,0,0,1-.56,3.13l-.12.39c0,.14-.12.3-.19.45a4.11,4.11,0,0,1-.47.85,7.08,7.08,0,0,1-1.24,1.36,22.65,22.65,0,0,1-5.48,2.84c-1.7.7-3.31,1.6-3.59,2.59a2.09,2.09,0,0,0-.11.85,4.53,4.53,0,0,0,.06.5l.14.48a4.92,4.92,0,0,0,1.25,1.77c.12.11.27.22.4.33a5.55,5.55,0,0,1,.24-3.09,6.57,6.57,0,0,1,2.78-3.36,8.58,8.58,0,0,1,2-.78,12.49,12.49,0,0,1,1.87-.39,13.3,13.3,0,0,1,3.89,0,13.63,13.63,0,0,1-3.14,2.28c-1.12.61-2.2,1.06-3.05,1.5a9.22,9.22,0,0,0-2.26,1.93,12.58,12.58,0,0,0-1.91,3l.47-.39a14.51,14.51,0,0,0,3.19,1.55,19.2,19.2,0,0,0,2.59.75,22.4,22.4,0,0,0,2.68.41c.46,0,.93.06,1.39.09a3,3,0,0,1-.43-.9,3.55,3.55,0,0,1,.16-2.18,7,7,0,0,1,2.47-3,9.89,9.89,0,0,1,3.23-1.61,7.41,7.41,0,0,1,3.66-.16,28.12,28.12,0,0,1-2.61,2.27c-.84.66-1.66,1.29-2.48,1.9a22.31,22.31,0,0,0-2.23,1.76,3.1,3.1,0,0,0-.73,1,2.51,2.51,0,0,0-.21,1.56l.55-.57a48,48,0,0,0,8.39-.42,36.13,36.13,0,0,0,5.42-1.12,14.6,14.6,0,0,0,4.65-2.47,20.1,20.1,0,0,0,3.79-3.86,25.54,25.54,0,0,0,2.86-4.7,12,12,0,0,0,.53-1.25c.15-.41.31-.82.43-1.28.26-.88.48-1.81.7-2.73l1.23-5.61c.81-3.76,1.62-7.54,2.58-11.28a112.65,112.65,0,0,1,3.47-11.07,48.3,48.3,0,0,1,5.15-10.35c-3.71,6.77-5.64,14.26-7.19,21.75-.77,3.71-1.42,7.45-2.06,11.2a313.77,313.77,0,0,0,33.11,5.43c21.47,2.28,43.62,2.35,64.74-2.68a86.81,86.81,0,0,0,8.65-2.58c0-.15-.06-.3-.08-.45-.62-3.71-.81-7.39-1.24-11-.2-1.8-.51-3.61-.79-5.43s-.56-3.63-.93-5.4a30.84,30.84,0,0,0-1.72-5.18q-1-2.6-1.83-5.21,1.08,2.53,2.25,5a31.76,31.76,0,0,1,2.07,5.16c.5,1.8.88,3.6,1.28,5.39s.8,3.59,1.12,5.43c.62,3.66,1,7.33,1.72,10.85a31,31,0,0,0,1.51,5.11,26.64,26.64,0,0,0,2.43,4.68,20.21,20.21,0,0,0,7.48,7,13.33,13.33,0,0,0,2.34.91c.8.25,1.71.44,2.57.62a44.53,44.53,0,0,0,5.29.71,51.54,51.54,0,0,0,5.7.11l.55.57a2.57,2.57,0,0,0-.21-1.56,3.42,3.42,0,0,0-.73-1,23.91,23.91,0,0,0-2.23-1.75c-.82-.61-1.64-1.24-2.48-1.9a27.06,27.06,0,0,1-2.61-2.28,7.37,7.37,0,0,1,3.65.16,10.06,10.06,0,0,1,3.24,1.62,7.05,7.05,0,0,1,2.47,3,3.59,3.59,0,0,1,.16,2.17,2.79,2.79,0,0,1-.44.92c1.2-.08,2.38-.2,3.53-.39a20.26,20.26,0,0,0,4.87-1.58,15.2,15.2,0,0,0,1.48-.83l.45.38a12.87,12.87,0,0,0-1.91-3,9.39,9.39,0,0,0-2.26-1.92c-.85-.44-1.93-.89-3-1.5a13.68,13.68,0,0,1-3.14-2.29,13.57,13.57,0,0,1,3.88.05,12.35,12.35,0,0,1,1.88.39,8.46,8.46,0,0,1,2,.77,6.61,6.61,0,0,1,2.79,3.37,5.56,5.56,0,0,1,.23,3.12,5.88,5.88,0,0,0,1.29-1.42,3.83,3.83,0,0,0,.58-1.85,2.22,2.22,0,0,0-.12-.84,1.79,1.79,0,0,0-.4-.72c-.79-.94-2.47-1.64-4.13-2.28a21.12,21.12,0,0,1-5.32-2.59,7.85,7.85,0,0,1-1.24-1.21,4.82,4.82,0,0,1-.87-1.72,9.16,9.16,0,0,1-.28-1.57c-.06-.51-.08-1-.1-1.48a108.6,108.6,0,0,1,.45-11.18c.28-3.68.67-7.35,1.12-11,.89-7.32,2-14.61,3.49-21.84.76-3.61,1.59-7.21,2.61-10.76a54,54,0,0,1,1.74-5.26,23,23,0,0,1,1.16-2.52,7.34,7.34,0,0,1,1.66-2.2,7.31,7.31,0,0,0-1.46,2.3,23.21,23.21,0,0,0-.94,2.57c-.55,1.74-1,3.52-1.4,5.3-.79,3.58-1.4,7.2-1.93,10.82-1.1,7.25-1.92,14.54-2.61,21.84q-.48,5.47-.83,10.95c-.19,3.41-.36,6.86-.24,10.19,5.42.86,11.33.44,16.68.28a155.32,155.32,0,0,0,19.15-1.45c2.36-.37,3.95,0,2.58-2.3-1.61-2.7-4-4-6.92-5-2.42-.82-9.31-1-10.72-3.45-.77-1.34.08-2.05,1-2.94,1.35-1.35,4-2.21,5.6-3.24q3-1.89,5.8-4A69.64,69.64,0,0,0,475.18,368c8.95-16.71,10.93-36.3,9.16-54.94C482.1,289.37,475.09,265.77,467.09,243.42Z"/><path stroke-linejoin="round" stroke-width="0" fill="none" stroke="#000" stroke-linecap="round"  d="M348,90.87s0,0,0,0"/><path d="M480.3,275.92c-6.47-25.07-15.82-49.32-26.42-72.92-5.39-12-11.13-23.86-17-35.62-5.06-10.06-10.07-20.08-16.63-29.27-2.75-3.84-5.69-7.57-8.8-11.14.13-.17.25-.33.35-.48,2.49-3.51,3.93-7.57,5.73-11.44a28.12,28.12,0,0,1,10.76-12.48c6.76-4.45,12.3-9.21,14.54-17.33,1.5-5.45,2.06-15-4-18.06a5.55,5.55,0,0,0-5.86.48c-2.25,1.46-4,3.55-6.33,5a36.61,36.61,0,0,1-8.22,3.57C404.41,80.52,380,81.26,375,97.62a98.55,98.55,0,0,0-25.75-9.51,36.22,36.22,0,0,0,2.36-8.77l.55-4-2,3.58a34,34,0,0,1-6.46,8.23l-1.1-.16a68.74,68.74,0,0,0,2.76-8.4,71.13,71.13,0,0,0,2.13-14.73l.19-4.94L345,63c-2.64,3.95-5.22,7.91-8,11.73q-1.9,2.64-3.93,5.17a45.2,45.2,0,0,0-.47-23.32l-1.34-4.53L330,56.59c-1.7,6-3.41,11.93-5.06,17.91a89.68,89.68,0,0,1-2.71,8.77,19.91,19.91,0,0,1-2,3.91v0l-1.26.19A11.15,11.15,0,0,0,316,80.18L314.85,79v1.58a30.85,30.85,0,0,1-1,7.87,84.44,84.44,0,0,0-26,11.59C284.21,88.31,274.53,78.18,261.83,77c-13.2-1.29-20.64,9.82-30.88,15.78-3,1.77-6,2.23-9.26,3.1A5.67,5.67,0,0,0,217.63,99c-2,4.44,1.46,9.34,4.87,11.91,4.16,3.14,9.5,4.31,14.64,4.26,2.79,0,5.61-.44,8.4-.12,2.52.29,5.07,1.35,6.07,4,.83,2.17.08,4.86.1,7.13a11.59,11.59,0,0,0,2.42,7.32c-10.31,13.85-19,29-26.88,44.21a379.37,379.37,0,0,0-27.51,69.12q-5.15,17.82-8.5,36.07c-2.79,15.33-5.49,32.51-5.48,49.41-3.72-2.54-8.2-4-12.2-.58-2.79,2.39-2.37,7.22-.06,10a5.38,5.38,0,0,0-1.69,5.23c-3.61-.43-7.46,0-9.28,3.49-2.71,5.25,1.78,9.52,6,12.14a3.61,3.61,0,0,0,.25,2.72c1.64,3.43,6.51,3.63,9.74,3.47a113.36,113.36,0,0,0,12.57-.79,73.09,73.09,0,0,0,7.11,15,53,53,0,0,0,21.65,19.67c.46.23,2,1.13,3.25,1.71-.13.05-.23.1-.31.12-1.78.63-3.6,1.17-5.38,1.82-3.43,1.25-9.09,3.22-6.81,8,1.87,3.92,8,4.81,11.7,5.39a118.06,118.06,0,0,0,20,1c1.44,0,3.43.1,5.42.05a3.08,3.08,0,0,1-.28.54,4.13,4.13,0,0,1-.71.75,20.47,20.47,0,0,1-4.78,2.37,16.94,16.94,0,0,0-2.81,1.43,5.83,5.83,0,0,0-2.43,2.87,6.55,6.55,0,0,0,2.08,6.77,12.4,12.4,0,0,0,2.66,1.88,18.93,18.93,0,0,0,2.86,1.25,23.52,23.52,0,0,0,2.95.83,27.38,27.38,0,0,0,3,.45,49,49,0,0,0,11.85-.35,37.34,37.34,0,0,0,5.85-1.33,17.25,17.25,0,0,0,5.43-3,25.15,25.15,0,0,0,7.16-9.66,18.28,18.28,0,0,0,1-2.89c.26-1,.45-1.92.65-2.88s.37-1.91.55-2.86c22.29,4.82,45.23,7.67,68.05,6.76a160.29,160.29,0,0,0,32.56-4.43q3.58-.9,7.11-2a28.5,28.5,0,0,0,3.11,7.11,21.71,21.71,0,0,0,8.25,8.08,15.26,15.26,0,0,0,2.77,1.15c.95.31,1.84.51,2.78.72a48.1,48.1,0,0,0,5.61.87,45.76,45.76,0,0,0,11.38-.31A23.06,23.06,0,0,0,430,433a14.37,14.37,0,0,0,2.62-1.56,8.74,8.74,0,0,0,2.25-2.39,6.87,6.87,0,0,0,1-3.36,5.19,5.19,0,0,0-1.23-3.53,8.19,8.19,0,0,0-2.68-2,27.2,27.2,0,0,0-2.68-1.14,19.2,19.2,0,0,1-4.59-2.14,4.54,4.54,0,0,1-.74-.7,1.83,1.83,0,0,1-.37-.72l0-.12.83.08a142.39,142.39,0,0,0,20.86,0c5.57-.29,11.91-.22,17.3-1.84,3.77-1.14,2.9-4.87.85-7.65-3.27-4.43-9.45-5.46-14.45-6.64l-.43-.13c.93-.57,1.95-1.32,2.33-1.55a76.58,76.58,0,0,0,11.86-8.78c14-12.68,21.83-30.36,24.29-48.89C489.82,318.43,485.68,296.74,480.3,275.92,-65-195.79A52.5,52.5,0,0,0,424.64,77c3.32-1.52,5.61-4.08,8.64-5.79,6.24-3.53,7.68,3.7,7.43,8.4a23.16,23.16,0,0,1-5,13c-4.51,5.7-11.87,7.92-16.47,13.52-4.44,5.39-5.8,12.48-9.68,18.19l-.22.31a129.43,129.43,0,0,0-31.58-25.56C381.68,84.65,402.93,83.18,415.33,80.13,253.78,116.48C251.58,112.64,247,112,243,112c-7,0-14.29.91-19.87-4.45-1.35-1.3-3.48-3.85-3-6,.58-2.54,3.42-2.83,5.37-3.3A25.66,25.66,0,0,0,233,95c5-3.09,9.16-7.39,14-10.69,15.61-10.62,33.38.79,38.18,17.28a1.19,1.19,0,0,0,.08.2,116.37,116.37,0,0,0-17.93,15.72c-4,4.26-7.75,8.75-11.33,13.4C253.75,126.69,256.51,121.26,253.78,116.48,186.1,365c-2.31.22-4.63.5-6.95.65a25.3,25.3,0,0,1-2.61.1,5.86,5.86,0,0,1-1.72-.19,5.56,5.56,0,0,1-3.79-1.83c1.4-.09,2.15-2.05.76-2.8-3.38-1.82-7.62-3.95-6.06-8.39.9-2.57,1.69-2.73,4.34-2.82a17.19,17.19,0,0,1,4.32.66,1.51,1.51,0,0,0,1.15-2.75q-2.4-2.42,1.2-4.19c1.6-.25,1.23-2.44,0-2.89-4.6-1.69-.73-7.92,3.2-7.61a9.38,9.38,0,0,1,5.86,2.95,109,109,0,0,0,4.25,28.82C188.61,364.86,187.25,364.92,186.1,365,289.08,3a69.64,69.64,0,0,1-18.8,22.19q-2.81,2.16-5.8,4c-1.64,1-4.25,1.89-5.6,3.24-.89.89-1.74,1.6-1,2.94,1.41,2.49,8.3,2.63,10.72,3.45,2.94,1,5.31,2.32,6.92,5,1.37,2.3-.22,1.93-2.58,2.3a155.32,155.32,0,0,1-19.15,1.45c-5.35.16-11.26.58-16.68-.28-.12-3.33.05-6.78.24-10.19q.34-5.47.83-10.95c.69-7.3,1.51-14.59,2.61-21.84.53-3.62,1.14-7.24,1.93-10.82.39-1.78.85-3.56,1.4-5.3a23.21,23.21,0,0,1,.94-2.57,7.31,7.31,0,0,1,1.46-2.3,7.34,7.34,0,0,0-1.66,2.2,23,23,0,0,0-1.16,2.52,54,54,0,0,0-1.74,5.26c-1,3.55-1.85,7.15-2.61,10.76-1.46,7.23-2.6,14.52-3.49,21.84-.45,3.66-.84,7.33-1.12,11a108.6,108.6,0,0,0-.45,11.18c0,.48,0,1,.1,1.48a9.16,9.16,0,0,0,.28,1.57,4.82,4.82,0,0,0,.87,1.72,7.85,7.85,0,0,0,1.24,1.21,21.12,21.12,0,0,0,5.32,2.59c1.66.64,3.34,1.34,4.13,2.28a1.79,1.79,0,0,1,.4.72,2.22,2.22,0,0,1,.12.84,3.83,3.83,0,0,1-.58,1.85,5.88,5.88,0,0,1-1.29,1.42,5.56,5.56,0,0,0-.23-3.12,6.61,6.61,0,0,0-2.79-3.37,8.46,8.46,0,0,0-2-.77,12.35,12.35,0,0,0-1.88-.39,13.57,13.57,0,0,0-3.88-.05,13.68,13.68,0,0,0,3.14,2.29c1.12.61,2.2,1.06,3,1.5a9.39,9.39,0,0,1,2.26,1.92,12.87,12.87,0,0,1,1.91,3l-.45-.38a15.2,15.2,0,0,1-1.48.83,20.26,20.26,0,0,1-4.87,1.58c-1.15.19-2.33.31-3.53.39a2.79,2.79,0,0,0,.44-.92,3.59,3.59,0,0,0-.16-2.17,7.05,7.05,0,0,0-2.47-3,10.06,10.06,0,0,0-3.24-1.62,7.37,7.37,0,0,0-3.65-.16,27.06,27.06,0,0,0,2.61,2.28c.84.66,1.66,1.29,2.48,1.9a23.91,23.91,0,0,1,2.23,1.75,3.42,3.42,0,0,1,.73,1,2.57,2.57,0,0,1,.21,1.56l-.55-.57a51.54,51.54,0,0,1-5.7-.11,44.53,44.53,0,0,1-5.29-.71c-.86-.18-1.77-.37-2.57-.62A13.33,13.33,0,0,1,403,430a20.21,20.21,0,0,1-7.48-7,26.64,26.64,0,0,1-2.43-4.68,31,31,0,0,1-1.51-5.11c-.76-3.52-1.1-7.19-1.72-10.85-.32-1.84-.74-3.63-1.12-5.43s-.78-3.59-1.28-5.39a31.76,31.76,0,0,0-2.07-5.16q-1.17-2.49-2.25-5Q384,384,385,386.57a30.84,30.84,0,0,1,1.72,5.18c.37,1.77.65,3.59.93,5.4s.59,3.63.79,5.43c.43,3.62.62,7.3,1.24,11,0,.15.06.3.08.45a86.81,86.81,0,0,1-8.65,2.58c-21.12,5-43.27,5-64.74,2.68a313.77,313.77,0,0,1-33.11-5.43c.64-3.75,1.29-7.49,2.06-11.2,1.55-7.49,3.48-15,7.19-21.75a48.3,48.3,0,0,0-5.15,10.35,112.65,112.65,0,0,0-3.47,11.07c-1,3.74-1.77,7.52-2.58,11.28l-1.23,5.61c-.22.92-.44,1.85-.7,2.73-.12.46-.28.87-.43,1.28a12,12,0,0,1-.53,1.25,25.54,25.54,0,0,1-2.86,4.7,20.1,20.1,0,0,1-3.79,3.86,14.6,14.6,0,0,1-4.65,2.47,36.13,36.13,0,0,1-5.42,1.12,48,48,0,0,1-8.39.42l-.55.57a2.51,2.51,0,0,1,.21-1.56,3.1,3.1,0,0,1,.73-1,22.31,22.31,0,0,1,2.23-1.76c.82-.61,1.64-1.24,2.48-1.9a28.12,28.12,0,0,0,2.61-2.27,7.41,7.41,0,0,0-3.66.16,9.89,9.89,0,0,0-3.23,1.61,7,7,0,0,0-2.47,3,3.55,3.55,0,0,0-.16,2.18,3,3,0,0,0,.43.9c-.46,0-.93-.05-1.39-.09a22.4,22.4,0,0,1-2.68-.41,19.2,19.2,0,0,1-2.59-.75,14.51,14.51,0,0,1-3.19-1.55l-.47.39a12.58,12.58,0,0,1,1.91-3,9.22,9.22,0,0,1,2.26-1.93c.85-.44,1.93-.89,3.05-1.5a13.63,13.63,0,0,0,3.14-2.28,13.3,13.3,0,0,0-3.89,0,12.49,12.49,0,0,0-1.87.39,8.58,8.58,0,0,0-2,.78,6.57,6.57,0,0,0-2.78,3.36,5.55,5.55,0,0,0-.24,3.09c-.13-.11-.28-.22-.4-.33a4.92,4.92,0,0,1-1.25-1.77l-.14-.48a4.53,4.53,0,0,1-.06-.5,2.09,2.09,0,0,1,.11-.85c.28-1,1.89-1.89,3.59-2.59a22.65,22.65,0,0,0,5.48-2.84,7.08,7.08,0,0,0,1.24-1.36,4.11,4.11,0,0,0,.47-.85c.07-.15.14-.31.19-.45l.12-.39a13.94,13.94,0,0,0,.56-3.13c.15-2,.09-4,.08-5.9s-.05-3.83,0-5.75c0-3.84,0-7.7-.09-11.56a136.91,136.91,0,0,0-2.22-23.1,57.1,57.1,0,0,0-3.4-11.14,22.64,22.64,0,0,0-6.82-9.26,18.3,18.3,0,0,1,3.62,4.42,30,30,0,0,1,2.47,5.14,55.56,55.56,0,0,1,2.69,11.09,153.15,153.15,0,0,1,1.33,22.87c0,3.83-.13,7.66-.2,11.51,0,1.93-.06,3.87-.07,5.79s0,3.69-.15,5.43c-1,0-1.89-.05-2.41,0a154.22,154.22,0,0,1-17.6-.24c-2.76-.22-14.45-.57-15.15-4.64C212.55,409,224.63,407.8,227,406c4.66-3.6-6.25-6.18-8.38-7.39-30.12-17.08-31.37-57.25-28.43-87.67.88-9.14,2.27-18.22,3.91-27.25a377.39,377.39,0,0,1,52.43-133.52c12.28-19.28,26.78-38.3,46.79-50.08.77-.45,1.54-.89,2.32-1.31s1.57-.84,2.36-1.23,1.58-.78,2.39-1.14,1.6-.72,2.41-1.06,1.62-.66,2.44-1,1.64-.6,2.47-.88,1.65-.55,2.49-.8,1.65-.51,2.48-.71a3.27,3.27,0,0,1,.44,0c.33-.34.49-.37.67-.82A32.2,32.2,0,0,0,316,82.4a10,10,0,0,1,.78,8.24l-.85,2.3L318,91.66a13.21,13.21,0,0,0,3.68-3.34,21.53,21.53,0,0,0,2.43-4.23,90.27,90.27,0,0,0,3-8.93c1.32-4.21,2.6-8.43,3.87-12.65a43.27,43.27,0,0,1-3.16,23.55l-3.59,8.08,6.05-6.45a107.76,107.76,0,0,0,9.05-11.24c1.72-2.43,3.38-4.9,5-7.38A68.49,68.49,0,0,1,342.93,78a69.55,69.55,0,0,1-4.67,13.57l-1.65,3.53,3.22-2.15a35.19,35.19,0,0,0,9.72-9.85,36.39,36.39,0,0,1-2.43,7.58l.92.24c1.35.27,2.69.57,4,.91,18.95,4.85,36,15.83,49.81,29.44,15.23,15,25,32.84,34.41,51.76,11.43,23,22.15,46.29,30.8,70.44,8,22.35,15,46,17.25,69.67C486.11,331.73,484.13,351.32,475.18,368Z"/>            </clipPath>        </defs>        <g clip-path="url(#outline)">            <rect fill="#FFF3B6" width="640" height="480" />        </g>    </g>    <g id="pattern">        <g clip-path="url(#outline)">            <path fill="#D6BAA7" opacity="0"  d="M192.42,300s-7.44,9.69-3.87,19.35C188.55,319.35,195.87,310.57,192.42,300Z"/><path fill="#D6BAA7" opacity="0"  d="M185.52,338.51s-10.13,12.92-5.46,26C180.06,364.47,190,352.76,185.52,338.51Z"/><path fill="#D6BAA7" opacity="0"  d="M205.79,334.88s-8.34,9.82-5.08,20.19C200.71,355.07,208.87,346.19,205.79,334.88Z"/><path fill="#D6BAA7" opacity="0"  d="M238.56,282.25s-9.82,13.15-4.84,26.08C233.72,308.33,243.39,296.38,238.56,282.25Z"/><path fill="#D6BAA7" opacity="0"  d="M196.2,255.65s-6.65,7.75-4.1,16C192.1,271.62,198.6,264.62,196.2,255.65Z"/><path fill="#D6BAA7" opacity="0"  d="M250.17,346.4s-6.9,12.06-1.38,22.4C248.79,368.8,255.68,357.77,250.17,346.4Z"/><path fill="#D6BAA7" opacity="0"  d="M233.29,367.58s-8.14,14.25-1.63,26.47C231.66,394.05,239.81,381,233.29,367.58Z"/><path fill="#D6BAA7" opacity="0"  d="M290.72,386.72s-8.15,14.26-1.63,26.47C289.09,413.19,297.23,400.16,290.72,386.72Z"/><path fill="#D6BAA7" opacity="0"  d="M276.46,304.45s-8.14,14.26-1.63,26.47C274.83,330.92,283,317.89,276.46,304.45Z"/><path fill="#D6BAA7" opacity="0"  d="M330.38,332.47s-5.57,15.45,2.95,26.36C333.33,358.83,339.11,344.59,330.38,332.47Z"/><path fill="#D6BAA7" opacity="0"  d="M307.42,342.33s-8.15,14.25-1.63,26.47C305.79,368.8,313.93,355.77,307.42,342.33Z"/><path fill="#D6BAA7" opacity="0"  d="M344.92,284.69s-4.46,15.8,4.82,26.08C349.74,310.77,354.49,296.16,344.92,284.69Z"/><path fill="#D6BAA7" opacity="0"  d="M357.75,336.32s-5.19,15.57,3.6,26.27C361.35,362.59,366.78,348.22,357.75,336.32Z"/><path fill="#D6BAA7" opacity="0"  d="M328.12,391.47s-3.5,11.95,3.46,19.83C331.58,411.3,335.3,400.25,328.12,391.47Z"/><path fill="#D6BAA7" opacity="0"  d="M387.8,336.74s-5.08,15.61,3.77,26.25C391.57,363,396.91,348.58,387.8,336.74Z"/><path fill="#D6BAA7" opacity="0"  d="M424.64,337.74s-3.83,16,5.85,25.87C430.49,363.61,434.66,348.82,424.64,337.74Z"/><path fill="#D6BAA7" opacity="0"  d="M404.32,246s-4.38,15.83,4.95,26.06C409.27,272.07,414,257.43,404.32,246Z"/><path fill="#D6BAA7" opacity="0"  d="M380.21,287.14S377,299.62,384.5,307.5C384.5,307.5,387.94,296,380.21,287.14Z"/><path fill="#D6BAA7" opacity="0"  d="M413.81,298.35s-2.63,9.65,3.07,15.87C416.88,314.22,419.7,305.29,413.81,298.35Z"/><path fill="#D6BAA7" opacity="0"  d="M437.45,315s-2.66,9.65,3,15.88C440.49,330.92,443.33,322,437.45,315Z"/><path fill="#D6BAA7" opacity="0"  d="M309.64,286s-6,10.43-1.19,19.36C308.45,305.37,314.41,295.84,309.64,286Z"/>            <g opacity="0.6" ><path fill="#FFECDC"  d="M286.16,418.84c1.15-12.45,7.46-23.49,13.94-33.84a121,121,0,0,1,10.79-14.8c3.27-3.78,6.53-8.66,11.38-10.24,5.45-1.77,11.19-1.83,16.84-1.6,4.46.18,9.85,0,13.47,3.11,7.95,6.94,14.63,17,20.34,25.87s11.91,19.27,12.8,30.12c.13,1.48.5,1.44-.05,1.63-1.78.61-6.49,1.94-9.4,2.8-13.75,4.06-26.91,4.48-42.7,4.36-16.07-.12-32.34-4.21-46.95-7.41"/></g>        </g>    </g>    <g id="mask">        <g opacity="0.1" ><path d="M484.88,335.07c.24,1.7-3.5,6.77-4.43,8.5-1.82,3.4-3.69,6.77-5.67,10.08a108.4,108.4,0,0,1-13.23,18.12,63.65,63.65,0,0,1-11.06,9.46,60.26,60.26,0,0,1-6.26,3.67,32,32,0,0,1-5.53,2.5c-4,1.16-6.14-2.21-7.32-5.52A39.75,39.75,0,0,1,429,364.34a119.74,119.74,0,0,1,2.55-14.41l-1.94,4.49c-3.07,11.12-4.58,22.55-6,34a4.62,4.62,0,0,0,.27,2.2,3.36,3.36,0,0,0-.88.73c-2.06,2.52-.7,11.1-.82,14.3a.69.69,0,0,0,.1.45c.15.19.45.14.69.08a107.68,107.68,0,0,0,24.46-9.43c9.47-5.3,16.41-12.77,22.8-21.4,3.19-4.31,7.4-8.23,9.2-13.28C482.54,353.36,486.15,344.23,484.88,335.07Z"/></g><g opacity="0.1" ><path d="M250.6,407a21.47,21.47,0,0,1-.65-7.87.68.68,0,0,0,0-.14c-16.91-5.85-31.94-19.16-39.3-35.31-4-8.82-6.13-18.92-6.18-30.43-.13-27.61,3.21-61,10.77-87.25,10.9-37.74,30.59-71.47,52.33-104.44,10.78-16.34,17.62-34.19,32.6-46.79-23.63,13.11-38,28.59-53.17,54.08-14.43,24.28-29.76,53.17-39.75,79.21s-15,53.61-17.25,81.34c-2,24.3-2.41,58.2,14.72,78,10,11.57,21.38,19,39.09,21.26,2.21.28,4.46.59,6.72.91A9.64,9.64,0,0,1,250.6,407Z"/></g><g opacity="0.1" ><path d="M389.41,411.83c-.7-9.29.31-9.54.31-9.54-5.29,1.25-9.81,4.43-15.11,5.67a158.85,158.85,0,0,1-19.42,3c-22,2.28-44.35.82-66.16-2.85-1.82-5.46-1.09-11.68-.06-17.2a70.09,70.09,0,0,1,2.3-7.7l-.25.27c-2.59,2.56-3.34,6.84-4.36,10.24-1.49,4.94-2.88,9.8-3,15a4.86,4.86,0,0,1-.94,2.85c.05,1.1.07,2.22.07,3.34,0,.15,0,.28,0,.43,1.38.31,2.75.62,4.08.94,14.89,5.54,32.72,6.73,47.92,6.85,15.66.13,34.69-1.08,45-4.9,2.86-1.06,9.11-1.62,10.47-3.06C391.39,413.86,389.53,413.44,389.41,411.83Z"/></g>        <g opacity="0.1" ><path fill="#fff"  d="M379.25,102.11c6.05,5.3,10.42,13.69,14.49,20.51,4.46,7.47,8.87,15,13.36,22.41,13,21.71,26.15,43.75,37,66.66a328.37,328.37,0,0,1,23.41,68.9c2.75,12.34,4.9,24.8,6.6,37.33,1.39,10.34,4.07,22.69-2.48,31.88,4.28-6,9.86-10.61,11.35-14.66,5.27-14.38.18-32.18-2.49-46.67C475,259,465,230.59,453.51,202.94c-11.28-27.21-25.53-53.07-44.82-75.49C392.48,108.61,379.47,102.3,379.25,102.11Z"/></g>    </g>    <g id="outline">        <path fill="none"  d="M409.36,124.68l.22-.31c3.88-5.71,5.24-12.8,9.68-18.19,4.6-5.6,12-7.82,16.47-13.52a23.16,23.16,0,0,0,5-13c.25-4.7-1.19-11.93-7.43-8.4-3,1.71-5.32,4.27-8.64,5.79a52.5,52.5,0,0,1-9.31,3.12c-12.4,3.05-33.65,4.52-37.55,19A129.43,129.43,0,0,1,409.36,124.68Z"/><path fill="none"  d="M179.94,333c-3.93-.31-7.8,5.92-3.2,7.61,1.23.45,1.6,2.64,0,2.89q-3.6,1.77-1.2,4.19a1.51,1.51,0,0,1-1.15,2.75,17.19,17.19,0,0,0-4.32-.66c-2.65.09-3.44.25-4.34,2.82-1.56,4.44,2.68,6.57,6.06,8.39,1.39.75.64,2.71-.76,2.8a5.56,5.56,0,0,0,3.79,1.83,5.86,5.86,0,0,0,1.72.19,25.3,25.3,0,0,0,2.61-.1c2.32-.15,4.64-.43,6.95-.65,1.15-.11,2.51-.17,4-.29a109,109,0,0,1-4.25-28.82A9.38,9.38,0,0,0,179.94,333Z"/><path fill="none"  d="M256.06,130.89c3.58-4.65,7.34-9.14,11.33-13.4a116.37,116.37,0,0,1,17.93-15.72,1.19,1.19,0,0,1-.08-.2c-4.8-16.49-22.57-27.9-38.18-17.28-4.87,3.3-9,7.6-14,10.69a25.66,25.66,0,0,1-7.55,3.24c-1.95.47-4.79.76-5.37,3.3-.49,2.13,1.64,4.68,3,6,5.58,5.36,12.86,4.41,19.87,4.45,4,0,8.61.69,10.81,4.53C256.51,121.26,253.75,126.69,256.06,130.89Z"/><path fill="none"  d="M467.09,243.42c-8.65-24.15-19.37-47.49-30.8-70.44-9.42-18.92-19.18-36.8-34.41-51.76C388,107.61,371,96.63,352.07,91.78c-1.34-.34-2.68-.64-4-.91,0,0,0,0,0,0s0,0,0,0l-.92-.24a36.39,36.39,0,0,0,2.43-7.58,35.19,35.19,0,0,1-9.72,9.85l-3.22,2.15,1.65-3.53A69.55,69.55,0,0,0,342.93,78a68.49,68.49,0,0,0,1.46-8.88c-1.63,2.48-3.29,5-5,7.38a107.76,107.76,0,0,1-9.05,11.24l-6.05,6.45,3.59-8.08A43.27,43.27,0,0,0,331,62.51c-1.27,4.22-2.55,8.44-3.87,12.65a90.27,90.27,0,0,1-3,8.93,21.53,21.53,0,0,1-2.43,4.23A13.21,13.21,0,0,1,318,91.66l-2.13,1.28.85-2.3A10,10,0,0,0,316,82.4a32.2,32.2,0,0,1-2.15,8.68c-.18.45-.34.48-.67.82a3.27,3.27,0,0,0-.44,0c-.83.2-1.66.46-2.48.71s-1.67.52-2.49.8-1.65.57-2.47.88-1.63.64-2.44,1-1.62.69-2.41,1.06-1.6.74-2.39,1.14-1.58.8-2.36,1.23-1.55.86-2.32,1.31c-20,11.78-34.51,30.8-46.79,50.08a377.39,377.39,0,0,0-52.43,133.52c-1.64,9-3,18.11-3.91,27.25-2.94,30.42-1.69,70.59,28.43,87.67,2.13,1.21,13,3.79,8.38,7.39-2.4,1.85-14.48,3-13.86,6.68.7,4.07,12.39,4.42,15.15,4.64a154.22,154.22,0,0,0,17.6.24c.52,0,1.44,0,2.41,0,.14-1.74.13-3.58.15-5.43s0-3.86.07-5.79c.07-3.85.18-7.68.2-11.51a153.15,153.15,0,0,0-1.33-22.87,55.56,55.56,0,0,0-2.69-11.09,30,30,0,0,0-2.47-5.14,18.3,18.3,0,0,0-3.62-4.42,22.64,22.64,0,0,1,6.82,9.26,57.1,57.1,0,0,1,3.4,11.14,136.91,136.91,0,0,1,2.22,23.1c.1,3.86.11,7.72.09,11.56,0,1.92,0,3.83,0,5.75s.07,3.86-.08,5.9a13.94,13.94,0,0,1-.56,3.13l-.12.39c0,.14-.12.3-.19.45a4.11,4.11,0,0,1-.47.85,7.08,7.08,0,0,1-1.24,1.36,22.65,22.65,0,0,1-5.48,2.84c-1.7.7-3.31,1.6-3.59,2.59a2.09,2.09,0,0,0-.11.85,4.53,4.53,0,0,0,.06.5l.14.48a4.92,4.92,0,0,0,1.25,1.77c.12.11.27.22.4.33a5.55,5.55,0,0,1,.24-3.09,6.57,6.57,0,0,1,2.78-3.36,8.58,8.58,0,0,1,2-.78,12.49,12.49,0,0,1,1.87-.39,13.3,13.3,0,0,1,3.89,0,13.63,13.63,0,0,1-3.14,2.28c-1.12.61-2.2,1.06-3.05,1.5a9.22,9.22,0,0,0-2.26,1.93,12.58,12.58,0,0,0-1.91,3l.47-.39a14.51,14.51,0,0,0,3.19,1.55,19.2,19.2,0,0,0,2.59.75,22.4,22.4,0,0,0,2.68.41c.46,0,.93.06,1.39.09a3,3,0,0,1-.43-.9,3.55,3.55,0,0,1,.16-2.18,7,7,0,0,1,2.47-3,9.89,9.89,0,0,1,3.23-1.61,7.41,7.41,0,0,1,3.66-.16,28.12,28.12,0,0,1-2.61,2.27c-.84.66-1.66,1.29-2.48,1.9a22.31,22.31,0,0,0-2.23,1.76,3.1,3.1,0,0,0-.73,1,2.51,2.51,0,0,0-.21,1.56l.55-.57a48,48,0,0,0,8.39-.42,36.13,36.13,0,0,0,5.42-1.12,14.6,14.6,0,0,0,4.65-2.47,20.1,20.1,0,0,0,3.79-3.86,25.54,25.54,0,0,0,2.86-4.7,12,12,0,0,0,.53-1.25c.15-.41.31-.82.43-1.28.26-.88.48-1.81.7-2.73l1.23-5.61c.81-3.76,1.62-7.54,2.58-11.28a112.65,112.65,0,0,1,3.47-11.07,48.3,48.3,0,0,1,5.15-10.35c-3.71,6.77-5.64,14.26-7.19,21.75-.77,3.71-1.42,7.45-2.06,11.2a313.77,313.77,0,0,0,33.11,5.43c21.47,2.28,43.62,2.35,64.74-2.68a86.81,86.81,0,0,0,8.65-2.58c0-.15-.06-.3-.08-.45-.62-3.71-.81-7.39-1.24-11-.2-1.8-.51-3.61-.79-5.43s-.56-3.63-.93-5.4a30.84,30.84,0,0,0-1.72-5.18q-1-2.6-1.83-5.21,1.08,2.53,2.25,5a31.76,31.76,0,0,1,2.07,5.16c.5,1.8.88,3.6,1.28,5.39s.8,3.59,1.12,5.43c.62,3.66,1,7.33,1.72,10.85a31,31,0,0,0,1.51,5.11,26.64,26.64,0,0,0,2.43,4.68,20.21,20.21,0,0,0,7.48,7,13.33,13.33,0,0,0,2.34.91c.8.25,1.71.44,2.57.62a44.53,44.53,0,0,0,5.29.71,51.54,51.54,0,0,0,5.7.11l.55.57a2.57,2.57,0,0,0-.21-1.56,3.42,3.42,0,0,0-.73-1,23.91,23.91,0,0,0-2.23-1.75c-.82-.61-1.64-1.24-2.48-1.9a27.06,27.06,0,0,1-2.61-2.28,7.37,7.37,0,0,1,3.65.16,10.06,10.06,0,0,1,3.24,1.62,7.05,7.05,0,0,1,2.47,3,3.59,3.59,0,0,1,.16,2.17,2.79,2.79,0,0,1-.44.92c1.2-.08,2.38-.2,3.53-.39a20.26,20.26,0,0,0,4.87-1.58,15.2,15.2,0,0,0,1.48-.83l.45.38a12.87,12.87,0,0,0-1.91-3,9.39,9.39,0,0,0-2.26-1.92c-.85-.44-1.93-.89-3-1.5a13.68,13.68,0,0,1-3.14-2.29,13.57,13.57,0,0,1,3.88.05,12.35,12.35,0,0,1,1.88.39,8.46,8.46,0,0,1,2,.77,6.61,6.61,0,0,1,2.79,3.37,5.56,5.56,0,0,1,.23,3.12,5.88,5.88,0,0,0,1.29-1.42,3.83,3.83,0,0,0,.58-1.85,2.22,2.22,0,0,0-.12-.84,1.79,1.79,0,0,0-.4-.72c-.79-.94-2.47-1.64-4.13-2.28a21.12,21.12,0,0,1-5.32-2.59,7.85,7.85,0,0,1-1.24-1.21,4.82,4.82,0,0,1-.87-1.72,9.16,9.16,0,0,1-.28-1.57c-.06-.51-.08-1-.1-1.48a108.6,108.6,0,0,1,.45-11.18c.28-3.68.67-7.35,1.12-11,.89-7.32,2-14.61,3.49-21.84.76-3.61,1.59-7.21,2.61-10.76a54,54,0,0,1,1.74-5.26,23,23,0,0,1,1.16-2.52,7.34,7.34,0,0,1,1.66-2.2,7.31,7.31,0,0,0-1.46,2.3,23.21,23.21,0,0,0-.94,2.57c-.55,1.74-1,3.52-1.4,5.3-.79,3.58-1.4,7.2-1.93,10.82-1.1,7.25-1.92,14.54-2.61,21.84q-.48,5.47-.83,10.95c-.19,3.41-.36,6.86-.24,10.19,5.42.86,11.33.44,16.68.28a155.32,155.32,0,0,0,19.15-1.45c2.36-.37,3.95,0,2.58-2.3-1.61-2.7-4-4-6.92-5-2.42-.82-9.31-1-10.72-3.45-.77-1.34.08-2.05,1-2.94,1.35-1.35,4-2.21,5.6-3.24q3-1.89,5.8-4A69.64,69.64,0,0,0,475.18,368c8.95-16.71,10.93-36.3,9.16-54.94C482.1,289.37,475.09,265.77,467.09,243.42Z"/><path stroke-linejoin="round" stroke-width="0" fill="none" stroke="#000" stroke-linecap="round"  d="M348,90.87s0,0,0,0"/><path d="M480.3,275.92c-6.47-25.07-15.82-49.32-26.42-72.92-5.39-12-11.13-23.86-17-35.62-5.06-10.06-10.07-20.08-16.63-29.27-2.75-3.84-5.69-7.57-8.8-11.14.13-.17.25-.33.35-.48,2.49-3.51,3.93-7.57,5.73-11.44a28.12,28.12,0,0,1,10.76-12.48c6.76-4.45,12.3-9.21,14.54-17.33,1.5-5.45,2.06-15-4-18.06a5.55,5.55,0,0,0-5.86.48c-2.25,1.46-4,3.55-6.33,5a36.61,36.61,0,0,1-8.22,3.57C404.41,80.52,380,81.26,375,97.62a98.55,98.55,0,0,0-25.75-9.51,36.22,36.22,0,0,0,2.36-8.77l.55-4-2,3.58a34,34,0,0,1-6.46,8.23l-1.1-.16a68.74,68.74,0,0,0,2.76-8.4,71.13,71.13,0,0,0,2.13-14.73l.19-4.94L345,63c-2.64,3.95-5.22,7.91-8,11.73q-1.9,2.64-3.93,5.17a45.2,45.2,0,0,0-.47-23.32l-1.34-4.53L330,56.59c-1.7,6-3.41,11.93-5.06,17.91a89.68,89.68,0,0,1-2.71,8.77,19.91,19.91,0,0,1-2,3.91v0l-1.26.19A11.15,11.15,0,0,0,316,80.18L314.85,79v1.58a30.85,30.85,0,0,1-1,7.87,84.44,84.44,0,0,0-26,11.59C284.21,88.31,274.53,78.18,261.83,77c-13.2-1.29-20.64,9.82-30.88,15.78-3,1.77-6,2.23-9.26,3.1A5.67,5.67,0,0,0,217.63,99c-2,4.44,1.46,9.34,4.87,11.91,4.16,3.14,9.5,4.31,14.64,4.26,2.79,0,5.61-.44,8.4-.12,2.52.29,5.07,1.35,6.07,4,.83,2.17.08,4.86.1,7.13a11.59,11.59,0,0,0,2.42,7.32c-10.31,13.85-19,29-26.88,44.21a379.37,379.37,0,0,0-27.51,69.12q-5.15,17.82-8.5,36.07c-2.79,15.33-5.49,32.51-5.48,49.41-3.72-2.54-8.2-4-12.2-.58-2.79,2.39-2.37,7.22-.06,10a5.38,5.38,0,0,0-1.69,5.23c-3.61-.43-7.46,0-9.28,3.49-2.71,5.25,1.78,9.52,6,12.14a3.61,3.61,0,0,0,.25,2.72c1.64,3.43,6.51,3.63,9.74,3.47a113.36,113.36,0,0,0,12.57-.79,73.09,73.09,0,0,0,7.11,15,53,53,0,0,0,21.65,19.67c.46.23,2,1.13,3.25,1.71-.13.05-.23.1-.31.12-1.78.63-3.6,1.17-5.38,1.82-3.43,1.25-9.09,3.22-6.81,8,1.87,3.92,8,4.81,11.7,5.39a118.06,118.06,0,0,0,20,1c1.44,0,3.43.1,5.42.05a3.08,3.08,0,0,1-.28.54,4.13,4.13,0,0,1-.71.75,20.47,20.47,0,0,1-4.78,2.37,16.94,16.94,0,0,0-2.81,1.43,5.83,5.83,0,0,0-2.43,2.87,6.55,6.55,0,0,0,2.08,6.77,12.4,12.4,0,0,0,2.66,1.88,18.93,18.93,0,0,0,2.86,1.25,23.52,23.52,0,0,0,2.95.83,27.38,27.38,0,0,0,3,.45,49,49,0,0,0,11.85-.35,37.34,37.34,0,0,0,5.85-1.33,17.25,17.25,0,0,0,5.43-3,25.15,25.15,0,0,0,7.16-9.66,18.28,18.28,0,0,0,1-2.89c.26-1,.45-1.92.65-2.88s.37-1.91.55-2.86c22.29,4.82,45.23,7.67,68.05,6.76a160.29,160.29,0,0,0,32.56-4.43q3.58-.9,7.11-2a28.5,28.5,0,0,0,3.11,7.11,21.71,21.71,0,0,0,8.25,8.08,15.26,15.26,0,0,0,2.77,1.15c.95.31,1.84.51,2.78.72a48.1,48.1,0,0,0,5.61.87,45.76,45.76,0,0,0,11.38-.31A23.06,23.06,0,0,0,430,433a14.37,14.37,0,0,0,2.62-1.56,8.74,8.74,0,0,0,2.25-2.39,6.87,6.87,0,0,0,1-3.36,5.19,5.19,0,0,0-1.23-3.53,8.19,8.19,0,0,0-2.68-2,27.2,27.2,0,0,0-2.68-1.14,19.2,19.2,0,0,1-4.59-2.14,4.54,4.54,0,0,1-.74-.7,1.83,1.83,0,0,1-.37-.72l0-.12.83.08a142.39,142.39,0,0,0,20.86,0c5.57-.29,11.91-.22,17.3-1.84,3.77-1.14,2.9-4.87.85-7.65-3.27-4.43-9.45-5.46-14.45-6.64l-.43-.13c.93-.57,1.95-1.32,2.33-1.55a76.58,76.58,0,0,0,11.86-8.78c14-12.68,21.83-30.36,24.29-48.89C489.82,318.43,485.68,296.74,480.3,275.92Zm-65-195.79A52.5,52.5,0,0,0,424.64,77c3.32-1.52,5.61-4.08,8.64-5.79,6.24-3.53,7.68,3.7,7.43,8.4a23.16,23.16,0,0,1-5,13c-4.51,5.7-11.87,7.92-16.47,13.52-4.44,5.39-5.8,12.48-9.68,18.19l-.22.31a129.43,129.43,0,0,0-31.58-25.56C381.68,84.65,402.93,83.18,415.33,80.13ZM253.78,116.48C251.58,112.64,247,112,243,112c-7,0-14.29.91-19.87-4.45-1.35-1.3-3.48-3.85-3-6,.58-2.54,3.42-2.83,5.37-3.3A25.66,25.66,0,0,0,233,95c5-3.09,9.16-7.39,14-10.69,15.61-10.62,33.38.79,38.18,17.28a1.19,1.19,0,0,0,.08.2,116.37,116.37,0,0,0-17.93,15.72c-4,4.26-7.75,8.75-11.33,13.4C253.75,126.69,256.51,121.26,253.78,116.48ZM186.1,365c-2.31.22-4.63.5-6.95.65a25.3,25.3,0,0,1-2.61.1,5.86,5.86,0,0,1-1.72-.19,5.56,5.56,0,0,1-3.79-1.83c1.4-.09,2.15-2.05.76-2.8-3.38-1.82-7.62-3.95-6.06-8.39.9-2.57,1.69-2.73,4.34-2.82a17.19,17.19,0,0,1,4.32.66,1.51,1.51,0,0,0,1.15-2.75q-2.4-2.42,1.2-4.19c1.6-.25,1.23-2.44,0-2.89-4.6-1.69-.73-7.92,3.2-7.61a9.38,9.38,0,0,1,5.86,2.95,109,109,0,0,0,4.25,28.82C188.61,364.86,187.25,364.92,186.1,365Zm289.08,3a69.64,69.64,0,0,1-18.8,22.19q-2.81,2.16-5.8,4c-1.64,1-4.25,1.89-5.6,3.24-.89.89-1.74,1.6-1,2.94,1.41,2.49,8.3,2.63,10.72,3.45,2.94,1,5.31,2.32,6.92,5,1.37,2.3-.22,1.93-2.58,2.3a155.32,155.32,0,0,1-19.15,1.45c-5.35.16-11.26.58-16.68-.28-.12-3.33.05-6.78.24-10.19q.34-5.47.83-10.95c.69-7.3,1.51-14.59,2.61-21.84.53-3.62,1.14-7.24,1.93-10.82.39-1.78.85-3.56,1.4-5.3a23.21,23.21,0,0,1,.94-2.57,7.31,7.31,0,0,1,1.46-2.3,7.34,7.34,0,0,0-1.66,2.2,23,23,0,0,0-1.16,2.52,54,54,0,0,0-1.74,5.26c-1,3.55-1.85,7.15-2.61,10.76-1.46,7.23-2.6,14.52-3.49,21.84-.45,3.66-.84,7.33-1.12,11a108.6,108.6,0,0,0-.45,11.18c0,.48,0,1,.1,1.48a9.16,9.16,0,0,0,.28,1.57,4.82,4.82,0,0,0,.87,1.72,7.85,7.85,0,0,0,1.24,1.21,21.12,21.12,0,0,0,5.32,2.59c1.66.64,3.34,1.34,4.13,2.28a1.79,1.79,0,0,1,.4.72,2.22,2.22,0,0,1,.12.84,3.83,3.83,0,0,1-.58,1.85,5.88,5.88,0,0,1-1.29,1.42,5.56,5.56,0,0,0-.23-3.12,6.61,6.61,0,0,0-2.79-3.37,8.46,8.46,0,0,0-2-.77,12.35,12.35,0,0,0-1.88-.39,13.57,13.57,0,0,0-3.88-.05,13.68,13.68,0,0,0,3.14,2.29c1.12.61,2.2,1.06,3,1.5a9.39,9.39,0,0,1,2.26,1.92,12.87,12.87,0,0,1,1.91,3l-.45-.38a15.2,15.2,0,0,1-1.48.83,20.26,20.26,0,0,1-4.87,1.58c-1.15.19-2.33.31-3.53.39a2.79,2.79,0,0,0,.44-.92,3.59,3.59,0,0,0-.16-2.17,7.05,7.05,0,0,0-2.47-3,10.06,10.06,0,0,0-3.24-1.62,7.37,7.37,0,0,0-3.65-.16,27.06,27.06,0,0,0,2.61,2.28c.84.66,1.66,1.29,2.48,1.9a23.91,23.91,0,0,1,2.23,1.75,3.42,3.42,0,0,1,.73,1,2.57,2.57,0,0,1,.21,1.56l-.55-.57a51.54,51.54,0,0,1-5.7-.11,44.53,44.53,0,0,1-5.29-.71c-.86-.18-1.77-.37-2.57-.62A13.33,13.33,0,0,1,403,430a20.21,20.21,0,0,1-7.48-7,26.64,26.64,0,0,1-2.43-4.68,31,31,0,0,1-1.51-5.11c-.76-3.52-1.1-7.19-1.72-10.85-.32-1.84-.74-3.63-1.12-5.43s-.78-3.59-1.28-5.39a31.76,31.76,0,0,0-2.07-5.16q-1.17-2.49-2.25-5Q384,384,385,386.57a30.84,30.84,0,0,1,1.72,5.18c.37,1.77.65,3.59.93,5.4s.59,3.63.79,5.43c.43,3.62.62,7.3,1.24,11,0,.15.06.3.08.45a86.81,86.81,0,0,1-8.65,2.58c-21.12,5-43.27,5-64.74,2.68a313.77,313.77,0,0,1-33.11-5.43c.64-3.75,1.29-7.49,2.06-11.2,1.55-7.49,3.48-15,7.19-21.75a48.3,48.3,0,0,0-5.15,10.35,112.65,112.65,0,0,0-3.47,11.07c-1,3.74-1.77,7.52-2.58,11.28l-1.23,5.61c-.22.92-.44,1.85-.7,2.73-.12.46-.28.87-.43,1.28a12,12,0,0,1-.53,1.25,25.54,25.54,0,0,1-2.86,4.7,20.1,20.1,0,0,1-3.79,3.86,14.6,14.6,0,0,1-4.65,2.47,36.13,36.13,0,0,1-5.42,1.12,48,48,0,0,1-8.39.42l-.55.57a2.51,2.51,0,0,1,.21-1.56,3.1,3.1,0,0,1,.73-1,22.31,22.31,0,0,1,2.23-1.76c.82-.61,1.64-1.24,2.48-1.9a28.12,28.12,0,0,0,2.61-2.27,7.41,7.41,0,0,0-3.66.16,9.89,9.89,0,0,0-3.23,1.61,7,7,0,0,0-2.47,3,3.55,3.55,0,0,0-.16,2.18,3,3,0,0,0,.43.9c-.46,0-.93-.05-1.39-.09a22.4,22.4,0,0,1-2.68-.41,19.2,19.2,0,0,1-2.59-.75,14.51,14.51,0,0,1-3.19-1.55l-.47.39a12.58,12.58,0,0,1,1.91-3,9.22,9.22,0,0,1,2.26-1.93c.85-.44,1.93-.89,3.05-1.5a13.63,13.63,0,0,0,3.14-2.28,13.3,13.3,0,0,0-3.89,0,12.49,12.49,0,0,0-1.87.39,8.58,8.58,0,0,0-2,.78,6.57,6.57,0,0,0-2.78,3.36,5.55,5.55,0,0,0-.24,3.09c-.13-.11-.28-.22-.4-.33a4.92,4.92,0,0,1-1.25-1.77l-.14-.48a4.53,4.53,0,0,1-.06-.5,2.09,2.09,0,0,1,.11-.85c.28-1,1.89-1.89,3.59-2.59a22.65,22.65,0,0,0,5.48-2.84,7.08,7.08,0,0,0,1.24-1.36,4.11,4.11,0,0,0,.47-.85c.07-.15.14-.31.19-.45l.12-.39a13.94,13.94,0,0,0,.56-3.13c.15-2,.09-4,.08-5.9s-.05-3.83,0-5.75c0-3.84,0-7.7-.09-11.56a136.91,136.91,0,0,0-2.22-23.1,57.1,57.1,0,0,0-3.4-11.14,22.64,22.64,0,0,0-6.82-9.26,18.3,18.3,0,0,1,3.62,4.42,30,30,0,0,1,2.47,5.14,55.56,55.56,0,0,1,2.69,11.09,153.15,153.15,0,0,1,1.33,22.87c0,3.83-.13,7.66-.2,11.51,0,1.93-.06,3.87-.07,5.79s0,3.69-.15,5.43c-1,0-1.89-.05-2.41,0a154.22,154.22,0,0,1-17.6-.24c-2.76-.22-14.45-.57-15.15-4.64C212.55,409,224.63,407.8,227,406c4.66-3.6-6.25-6.18-8.38-7.39-30.12-17.08-31.37-57.25-28.43-87.67.88-9.14,2.27-18.22,3.91-27.25a377.39,377.39,0,0,1,52.43-133.52c12.28-19.28,26.78-38.3,46.79-50.08.77-.45,1.54-.89,2.32-1.31s1.57-.84,2.36-1.23,1.58-.78,2.39-1.14,1.6-.72,2.41-1.06,1.62-.66,2.44-1,1.64-.6,2.47-.88,1.65-.55,2.49-.8,1.65-.51,2.48-.71a3.27,3.27,0,0,1,.44,0c.33-.34.49-.37.67-.82A32.2,32.2,0,0,0,316,82.4a10,10,0,0,1,.78,8.24l-.85,2.3L318,91.66a13.21,13.21,0,0,0,3.68-3.34,21.53,21.53,0,0,0,2.43-4.23,90.27,90.27,0,0,0,3-8.93c1.32-4.21,2.6-8.43,3.87-12.65a43.27,43.27,0,0,1-3.16,23.55l-3.59,8.08,6.05-6.45a107.76,107.76,0,0,0,9.05-11.24c1.72-2.43,3.38-4.9,5-7.38A68.49,68.49,0,0,1,342.93,78a69.55,69.55,0,0,1-4.67,13.57l-1.65,3.53,3.22-2.15a35.19,35.19,0,0,0,9.72-9.85,36.39,36.39,0,0,1-2.43,7.58l.92.24c1.35.27,2.69.57,4,.91,18.95,4.85,36,15.83,49.81,29.44,15.23,15,25,32.84,34.41,51.76,11.43,23,22.15,46.29,30.8,70.44,8,22.35,15,46,17.25,69.67C486.11,331.73,484.13,351.32,475.18,368Z"/>    </g>    <g id="eye">        <g id="eye-color1">            <g opacity="0" ><path fill="#FFF3B6"  d="M234.82,140.34c-.14.46-.2.94-.35,1.4a16,16,0,0,1-1.35,2.87c-.53.93-1,1.89-1.54,2.82-.24.42-.5.81-.77,1.21l-.43.61c-.09.11-.46.47-.46.6-.19.25-.39.5-.59.74-5.88,7-13.9,9.8-22.69,6.53-8.54-3.17-14.21-10.4-14.65-19.54a.84.84,0,0,1,0-.28.93.93,0,0,1,0-.29,23.27,23.27,0,0,1,19-21.81,18.93,18.93,0,0,1,11.42,1.34c-15.29-7.7-34.35-2.92-39.29,15.34a20.81,20.81,0,0,0-.67,6.53A29.42,29.42,0,0,0,193,158.64c8.6,7.09,21.5,6.67,31.05,1.77,7.18-3.69,10-12.6,10.92-20.45C234.91,140.08,234.86,140.21,234.82,140.34Z"/></g><g opacity="0" ><path fill="#FFF3B6"  d="M358.58,134.27c-.24.62-.44,1.25-.7,1.86a24.39,24.39,0,0,1-2,3.67,31.67,31.67,0,0,1-2.54,3.43c-5.88,7-13.9,9.8-22.69,6.53-8.53-3.17-14.2-10.4-14.65-19.53a2.11,2.11,0,0,1,0-.58,23.29,23.29,0,0,1,19-21.81,18.89,18.89,0,0,1,11.43,1.35c-15.3-7.71-34.36-2.93-39.3,15.33a20.54,20.54,0,0,0-.66,6.53A29.34,29.34,0,0,0,317,151.28c8.59,7.09,21.5,6.67,31,1.77,6.9-3.55,9.72-12,10.77-19.65C358.75,133.65,358.67,134,358.58,134.27Z"/></g>        </g>        <g id="eye-shape">            <path fill="#fbfbfb"  d="M295.89,123.07c-21.73-17.81-51.73-12-72.06,4.87-11.71,10.13-20.83,23.9-22.36,39.62-1.27,13.08,2.6,26.27,9.61,37.28,12.38,19.45,36.51,33.94,59.91,27.09,20.91-6.11,35.23-26.44,41.18-46.49C318.73,163.33,314.39,138.24,295.89,123.07ZM312,167.47c3.12,13.13-4,29.28-15.05,36.62-11.44,7.58-25.45,6.3-36.15-1.92-11.83-9.09-12.9-22.85-8.48-36.32a1.57,1.57,0,0,1,.15-.32c5.3-13,19.95-19.08,33.33-17.47a40.23,40.23,0,0,1,4.79.88c7-1.95,15.58,1.56,16.61,9.37A21.23,21.23,0,0,1,312,167.47Z"/><path d="M221.71,125.82C211.07,135,202.58,147.11,199.5,161c-2.77,12.5-.75,25.57,4.53,37.14,10.21,22.39,34.35,41.15,59.93,38.25,23.13-2.63,40.23-22.12,48.49-42.66,9.19-22.89,7.78-50-9.89-68.54C280.11,101.65,245.06,106.47,221.71,125.82Zm90.46,59.62c-5.95,20.05-20.27,40.38-41.18,46.49-23.4,6.85-47.53-7.64-59.91-27.09-7-11-10.88-24.2-9.61-37.28,1.53-15.72,10.65-29.49,22.36-39.62,20.33-16.85,50.33-22.68,72.06-4.87C314.39,138.24,318.73,163.33,312.17,185.44Z"/><path d="M307.12,162.07c-1.18,7.61-8.53,14.08-16.4,11.78-7.26-2.13-10.49-10.21-8.63-17.13a1.6,1.6,0,0,1,.1-.39,1.34,1.34,0,0,1,.18-.38,12.35,12.35,0,0,1,8.2-7,40.23,40.23,0,0,0-4.79-.88c-13.38-1.61-28,4.46-33.33,17.47a1.57,1.57,0,0,0-.15.32c-4.42,13.47-3.35,27.23,8.48,36.32,10.7,8.22,24.71,9.5,36.15,1.92C308,196.75,315.1,180.6,312,167.47a21.23,21.23,0,0,0-4.8-9.16A12.9,12.9,0,0,1,307.12,162.07Z"/><path fill="#fff"  d="M290.57,148.94a12.35,12.35,0,0,0-8.2,7,1.34,1.34,0,0,0-.18.38,1.6,1.6,0,0,0-.1.39c-1.86,6.92,1.37,15,8.63,17.13,7.87,2.3,15.22-4.17,16.4-11.78a12.9,12.9,0,0,0,.06-3.76C306.15,150.5,297.61,147,290.57,148.94Z"/><path fill="#fbfbfb"  d="M437.65,124.5c-21.81-15.38-53-18.4-71.71,3.56-17.26,21.61-17.19,56.12-2.48,79a51.88,51.88,0,0,0,65.66,19.41A58,58,0,0,0,462.59,177C463.67,156.62,454.4,136.32,437.65,124.5Zm-65.73,81.87c-14.35-8.08-20.39-26.75-13.74-41.89a30.47,30.47,0,0,1,4.24-6.94,10.08,10.08,0,0,1,1.62-5.67c2.64-4.14,8-4.83,12.6-3.8a30.47,30.47,0,0,1,12.64-.95c14.23,1.89,27.34,11.65,30.73,26C426.49,200.61,394.74,217.86,371.92,206.37Z"/><path d="M445.1,126.64c-22.48-20.28-60.06-25.65-81.28-.7-16.45,20.59-17.87,51.29-7.19,74.85,10.79,23.79,36.25,38.16,62.16,32.38,23.25-5.18,41.58-24.61,45.83-47.94C468.51,163.94,461.25,141.21,445.1,126.64ZM462.59,177a58,58,0,0,1-33.47,49.54,51.88,51.88,0,0,1-65.66-19.41c-14.71-22.92-14.78-57.43,2.48-79,18.68-22,49.9-18.94,71.71-3.56C454.4,136.32,463.67,156.62,462.59,177Z"/><path d="M389.28,147.12a30.47,30.47,0,0,0-12.64.95,17.62,17.62,0,0,1,3.22,1.06c5.45,2.45,8.82,8.1,6.23,13.93-3,6.78-10.57,8.51-16.85,5.52a1.7,1.7,0,0,1-.39-.18,1.3,1.3,0,0,1-.34-.25,13.66,13.66,0,0,1-6.09-10.61,30.47,30.47,0,0,0-4.24,6.94c-6.65,15.14-.61,33.81,13.74,41.89,22.82,11.49,54.57-5.76,48.09-33.26C416.62,158.77,403.51,149,389.28,147.12Z"/><path fill="#fff"  d="M368.51,168.15a1.3,1.3,0,0,0,.34.25,1.7,1.7,0,0,0,.39.18c6.28,3,13.85,1.26,16.85-5.52,2.59-5.83-.78-11.48-6.23-13.93a17.62,17.62,0,0,0-3.22-1.06c-4.6-1-10-.34-12.6,3.8a10.08,10.08,0,0,0-1.62,5.67A13.66,13.66,0,0,0,368.51,168.15Z"/>        </g>        <g id="eye-color2">            <path fill="#DDFF94"  d="M296.93,204.09c-11.44,7.58-25.45,6.3-36.15-1.92-11.83-9.09-12.9-22.85-8.48-36.32a1.57,1.57,0,0,1,.15-.32c5.09-12.49,18.79-18.56,31.71-17.61-18.58-4.75-40.69,3.61-47,22.29a37.84,37.84,0,0,0,4.9,33.64c7.49,10.53,19.92,14.8,32.48,14.76,6.18,0,12.54-1,17.8-4.27,8.59-5.28,15.13-15.61,17.42-26.36A36.26,36.26,0,0,1,296.93,204.09Z"/><path fill="#DDFF94"  d="M413.7,150.66c-9.56-6.81-25.15-8-36.48-2.77a30.7,30.7,0,0,1,12.06-.77c14.23,1.89,27.34,11.65,30.73,26,6.48,27.5-25.27,44.75-48.09,33.26a32.32,32.32,0,0,1-14.31-17.05,17.33,17.33,0,0,0,.4,2.36,31.2,31.2,0,0,0,16.47,20.87c13.13,6.59,30.83,4.54,43.3-5.59a31.73,31.73,0,0,0,10.47-14.43C433.11,177.65,426.41,159.69,413.7,150.66Z"/>        </g>    </g>    <g id="nose-mouth">        <path d="M345.48,229c-2.11,3.05-8,1.44-9.17-2.09,0-.11.07-.22.09-.33a1.34,1.34,0,0,0,0-.2c4.65-1.74,6.61-8.89,7-13.29.52-6.63.46-17.56-7.54-19.89-9.4-2.72-14.37,9-14.1,16.59.23,6.65,3.79,15.56,11.15,16.87l.37.05v0c-1.43,4.19-7.21,6.29-10.28,2.88-1.29-1.44-2.41-1.31-1.12.12,3.75,4.17,10,4.13,13,.43,2.76,3.34,8.17,3.32,11.26-1.16C347.16,227.46,346.56,227.45,345.48,229Z"/><path fill="#2d2821"  d="M324.62,208.1c.12,4.83,1.89,11.79,6.53,14.49,6.3,3.67,8.8-4.66,9.22-9.46.38-4.38.61-10-1.67-13.87-2.48-4.27-7.49-3.87-10.58-.73C325.59,201.09,324.81,204.63,324.62,208.1Z"/><ellipse fill="#fff"  cx="337.11" cy="202.86" rx="2.2" ry="4.78" transform="translate(-44.45 106.9) rotate(-16.92)"/>    </g></svg>