<!--  ~ Copyright (C) 2018 Baidu, Inc. All Rights Reserved.  --><svg viewBox="0 0 640 480" xmlns="http://www.w3.org/2000/svg">    <g id="back-ground-cl">        <rect fill="none" width="640" height="480" />        <ellipse opacity="0.1" cx="331.93" cy="418.82" rx="168.39" ry="32.01"/>    </g>    <g id="body">        <defs>            <clipPath id="outline">                <path fill="none"  d="M179.78,319.61a40.81,40.81,0,0,0,6.2,5.27c.19-4.32.53-8.64,1-12.92-.44-.4-.87-.81-1.29-1.25a28.66,28.66,0,0,1-3.76-4.79,26,26,0,0,1-1.4-2.6,26.84,26.84,0,0,0-1.38,3.33,23.25,23.25,0,0,0-.88,11.28C178.74,318.5,179.25,319.06,179.78,319.61Z"/><path fill="none"  d="M412.16,127.89c.41-.41.75-.78,1-1,4.44-5.3,5.5-12.57,9.83-18,3.85-4.79,9.93-6.75,14.06-11.21a21.06,21.06,0,0,0,5.43-11.57,16.34,16.34,0,0,0,0-5.36c-.15-.79-.39-2.63-1.06-3.2-.93-.79-4.39-.92-5.24-.52-2.46,1.16-4.5,3.64-7.07,4.9a43.93,43.93,0,0,1-8.28,3c-11.84,3.11-33,4-35.43,19A133.6,133.6,0,0,1,412.16,127.89Z"/><path fill="none"  d="M250.1,131.88a8.54,8.54,0,0,0,1.56,5.17,191.35,191.35,0,0,1,15.79-19.44,122.73,122.73,0,0,1,9.6-9.21c-5-14.07-20.35-23.27-34-14-4.42,3-8.16,6.9-12.72,9.69a24.52,24.52,0,0,1-6.2,2.79c-2.45.68-3.12,0-4.39,2.56-1.44,2.9-.07,4.47,2.33,6.45,5.67,4.68,12.24,3,18.88,3.44,3.41.23,6.79,1.28,8.43,4.51C250.69,126.41,250.07,129.09,250.1,131.88Z"/><path fill="none"  d="M467.15,243.54c-8.65-24.15-19.37-47.49-30.8-70.43-9.42-18.93-19.18-36.8-34.41-51.77A120.94,120.94,0,0,0,369,98h0a.41.41,0,0,0-.11-.07A30.59,30.59,0,0,0,368,89.8a29,29,0,0,0-2.44-6.32,28.85,28.85,0,0,1-1.29,8.44l-.31,1-1-.46a14.3,14.3,0,0,1-8.12-12.94c0-1.32.1-2.57.13-3.76a17.16,17.16,0,0,0-.23-3.45,18.29,18.29,0,0,0-2.59-6.39,27.87,27.87,0,0,0-10.47-9.34A67.35,67.35,0,0,0,330.76,52c.26,1,.5,2,.69,3.1a17.14,17.14,0,0,1,.05,6.31,12.61,12.61,0,0,1-2.87,5.79,27.93,27.93,0,0,1-4.61,4c-.79.57-1.56,1.14-2.29,1.71s-1.38,1.17-2.14,1.85c-1.42,1.32-3.1,2.53-3.89,3.78s-.71,3-.5,4.87a17.71,17.71,0,0,1,.21,3.1,5.13,5.13,0,0,1-.38,1.77,3.65,3.65,0,0,1-1.23,1.58l-.54.38L312.7,90a35,35,0,0,0-7.58-2.94,37,37,0,0,0-7-1c.52,1.13.93,2.28,1.34,3.42L301,93.9c.23.67.5,1.33.76,2l-.54.28a80,80,0,0,0-7.76,4c-20,11.78-34.51,30.8-46.79,50.08a377.44,377.44,0,0,0-52.43,133.53c-1.64,9-3,18.11-3.91,27.25-.18,1.83-.34,3.71-.48,5.61-.22,2.91-.39,5.89-.49,8.91a152.79,152.79,0,0,0,.9,23.47,98.74,98.74,0,0,0,3.07,15.36c4.1,14.13,11.8,26.59,25.43,34.31,2.13,1.21,13,3.8,8.38,7.39-2.4,1.85-14.48,3-13.86,6.68.7,4.07,12.39,4.42,15.14,4.64a154.42,154.42,0,0,0,17.61.25c.52,0,1.44,0,2.41,0,0-.46.07-.93.09-1.4.11-3.79.06-7.79.17-11.66s.13-7.78.11-11.66a160.15,160.15,0,0,0-1.55-23.18,61.08,61.08,0,0,0-2.71-11.25,32.45,32.45,0,0,0-2.45-5.24,18,18,0,0,0-3.63-4.52c3.16,2.36,5.25,5.88,6.81,9.47a60.89,60.89,0,0,1,3.42,11.28,143.87,143.87,0,0,1,2.44,23.39c.15,3.91.19,7.83.18,11.73s.09,7.72,0,11.74a20.91,20.91,0,0,1-.26,3.1,11.55,11.55,0,0,1-.37,1.6,6.21,6.21,0,0,1-.77,1.71,7.85,7.85,0,0,1-2.66,2.36,26.17,26.17,0,0,1-2.8,1.34c-.91.38-1.8.74-2.59,1.14a5.88,5.88,0,0,0-1.9,1.33,2,2,0,0,0-.5,1.61,3.66,3.66,0,0,0,.78,1.92,7.32,7.32,0,0,0,1.07,1.09,5.48,5.48,0,0,1,.24-3.12,6.52,6.52,0,0,1,2.78-3.36,8,8,0,0,1,2-.77,10.23,10.23,0,0,1,1.87-.39,13.21,13.21,0,0,1,3.88-.05,13.14,13.14,0,0,1-3.14,2.28c-1.11.61-2.2,1.07-3,1.5a9.26,9.26,0,0,0-2.27,1.93,12.58,12.58,0,0,0-1.91,3l.46-.38a13.38,13.38,0,0,0,2.19,1.15,20.84,20.84,0,0,0,5.23,1.44c.82.1,1.64.16,2.46.22a2.79,2.79,0,0,1-.44-.92,3.54,3.54,0,0,1,.15-2.18,7.19,7.19,0,0,1,2.48-3,10,10,0,0,1,3.23-1.61,7.37,7.37,0,0,1,3.65-.16,28.07,28.07,0,0,1-2.6,2.27c-.84.67-1.66,1.29-2.49,1.91a20.77,20.77,0,0,0-2.22,1.75,3.27,3.27,0,0,0-.74,1,2.59,2.59,0,0,0-.2,1.56l.56-.58a49.21,49.21,0,0,0,7.48-.28,43.19,43.19,0,0,0,5.56-1,14.79,14.79,0,0,0,4.83-2.25,23.12,23.12,0,0,0,7-8.46c.22-.42.4-.85.6-1.27l.47-1.26c.25-.91.52-1.81.73-2.75.46-1.87.84-3.78,1.26-5.68.81-3.81,1.63-7.64,2.6-11.44a116.37,116.37,0,0,1,3.48-11.22,49.61,49.61,0,0,1,5.2-10.5c-3.76,6.86-5.69,14.47-7.25,22-.76,3.66-1.39,7.34-2,11a311.44,311.44,0,0,0,33.1,5.43c21.48,2.29,43.63,2.35,64.74-2.67,2.92-.7,5.72-1.56,8.45-2.51-.74-3.71-.95-7.41-1.41-11-.11-.92-.24-1.84-.39-2.75l-.42-2.8c-.27-1.87-.52-3.74-.87-5.56a20.05,20.05,0,0,0-.62-2.68c-.28-.88-.61-1.77-.92-2.67l-.92-2.69-.81-2.73h0l2.49,5.1c.41.85.85,1.69,1.25,2.57a19.6,19.6,0,0,1,1,2.74c.53,1.86.94,3.7,1.38,5.55l.6,2.77c.18.95.35,1.9.49,2.84.56,3.78.9,7.53,1.7,11.11a26.29,26.29,0,0,0,4.28,9.83,18.43,18.43,0,0,0,8,6.59,28.45,28.45,0,0,0,5.2,1.29,47.43,47.43,0,0,0,5.46.57c1.29.06,2.58.05,3.87,0l.59.61a2.59,2.59,0,0,0-.2-1.56,3.27,3.27,0,0,0-.74-1,22.09,22.09,0,0,0-2.22-1.76c-.83-.61-1.65-1.24-2.49-1.9a28.07,28.07,0,0,1-2.6-2.27,7.37,7.37,0,0,1,3.65.16,9.79,9.79,0,0,1,3.23,1.61,7.13,7.13,0,0,1,2.48,3,3.62,3.62,0,0,1,.15,2.18,2.69,2.69,0,0,1-.42.89h.19a24.58,24.58,0,0,0,5.27-.85,16.59,16.59,0,0,0,4.4-1.92l.46.38a12.58,12.58,0,0,0-1.91-3,9.26,9.26,0,0,0-2.27-1.93c-.84-.44-1.93-.89-3-1.5a13.42,13.42,0,0,1-3.14-2.28,13.23,13.23,0,0,1,3.88,0,12.23,12.23,0,0,1,1.87.39,8.4,8.4,0,0,1,2,.78,6.48,6.48,0,0,1,2.78,3.36,5.44,5.44,0,0,1,.22,3.16,4.45,4.45,0,0,0,1.9-3.09,2.34,2.34,0,0,0-.42-1.67,5.2,5.2,0,0,0-1.72-1.32c-1.49-.78-3.31-1.33-5.14-2.13a12.39,12.39,0,0,1-2.75-1.61,6.55,6.55,0,0,1-1.25-1.27l-.26-.39a3,3,0,0,1-.24-.47,5.37,5.37,0,0,1-.29-.92l-.82-5.75a79.22,79.22,0,0,1-.91-11.47,67,67,0,0,1,2.93-17c1.53-5.46,2.92-10.91,4.36-16.39,1-3.67,2-7.32,3.22-10.91a53.6,53.6,0,0,1,2.13-5.29,15.48,15.48,0,0,1,2.63-4,7.52,7.52,0,0,1,.64-.62,13,13,0,0,0-2.86,4.8,52.4,52.4,0,0,0-1.78,5.35c-1,3.62-1.82,7.3-2.56,11-1.48,7.43-3.22,14.81-4.56,22.27a66.6,66.6,0,0,0-.68,21.91l.39,2.54c5.49.92,11.5.5,16.94.34a157.31,157.31,0,0,0,19.15-1.46c2.36-.37,3.95,0,2.58-2.3-1.61-2.7-4-4-6.93-5-2.41-.83-9.3-1-10.71-3.45-.77-1.35.08-2.06,1-2.94,1.35-1.35,4-2.21,5.6-3.25q3-1.87,5.8-4a69.68,69.68,0,0,0,18.8-22.2c8.95-16.71,10.93-36.3,9.16-54.93C482.16,289.49,475.15,265.89,467.15,243.54Z"/><path fill="none"  d="M185.94,325.87l0-.76a27.41,27.41,0,0,1-7.32-4.24,34.69,34.69,0,0,1-6.47-6.73,36.51,36.51,0,0,1-4.53-8.21,38.45,38.45,0,0,1-1.8-5.73,27.93,27.93,0,0,0-2.23,4.23,35.15,35.15,0,0,0-2.31,7.79,42.8,42.8,0,0,0-.62,5.07,17.5,17.5,0,0,0,5.9,2.45,20.39,20.39,0,0,1-9.3-4.37,34.78,34.78,0,0,1-7-7.71,54,54,0,0,1-4.87-9.21,72.69,72.69,0,0,1-2.74-8,23.48,23.48,0,0,0-1.83,5.05,26.15,26.15,0,0,0-.62,7.22,32.12,32.12,0,0,0,3.95,13.82l2.14,3.85-3.88-2.09a49.14,49.14,0,0,1-12.36-9.49,39.84,39.84,0,0,1-4.82-6.21c-.41-.65-.79-1.33-1.17-2-.07,1.69-.09,3.4-.06,5.09a72.69,72.69,0,0,0,.91,10.43,47.32,47.32,0,0,0,7.3,19.26l1.46,2.13-2.56,0a32.15,32.15,0,0,1-12.65-2.71,46.31,46.31,0,0,1-5.72-2.87c-.58-.35-1.15-.71-1.72-1.07.9,1.76,1.88,3.49,2.92,5.17a74.35,74.35,0,0,0,6,8.33,55.16,55.16,0,0,0,15.52,13.19,41.59,41.59,0,0,0,9.38,3.81c2.75-1.38,5.42-2.92,8-4.56a95.74,95.74,0,0,0,8.91-6.38,69.38,69.38,0,0,1-8.27,7.31,77.38,77.38,0,0,1-9.27,6.07q-2.43,1.37-5,2.51t-5.2,2.08c-1.31.46-2.65.85-4,1.2,3.37.65,6.75,1.23,10.14,1.64a80.63,80.63,0,0,0,17,.43,53.52,53.52,0,0,0,8.34-1.46A44.49,44.49,0,0,0,182,362c.54-1.44,1.05-2.89,1.49-4.37.13-.43.24-.87.36-1.3.55-1.93,1.06-3.87,1.47-5.84a57.16,57.16,0,0,1-.85,7.37,51.34,51.34,0,0,1-1.84,7.25,30.72,30.72,0,0,1-3.18,6.9c-.35.56-.74,1.11-1.15,1.64a83.57,83.57,0,0,0,9.67-3.46c1.1-.53,2.24-1,3.33-1.53a92.52,92.52,0,0,1-4.4-18.64A140.06,140.06,0,0,1,185.94,325.87,-5.19.29h.06l.09.21Z"/><path d="M180.75,326.16l.15.21-.09-.21Z"/><path d="M480.36,276.05c-6.48-25.08-15.82-49.33-26.42-72.92-5.39-12-11.13-23.86-17-35.62-5.06-10.07-10.07-20.09-16.63-29.28q-3-4.12-6.2-8.07a22.91,22.91,0,0,0,2.31-2.63c2.36-3.24,3.7-7,5.37-10.62a25.55,25.55,0,0,1,9.77-11.36c6.21-4.06,11.3-8.51,13.33-16,1.36-5,1.74-13.25-3.51-16.29a5.22,5.22,0,0,0-5.61.18c-1.78,1.07-3.18,2.82-4.91,4a30.41,30.41,0,0,1-7.15,3.44c-13.23,4.56-37.27,4.64-41,21.21q-3.08-1.94-6.25-3.69c-2.34-1.29-4.74-2.48-7.18-3.58a27.57,27.57,0,0,0-.48-5.2,30.21,30.21,0,0,0-3.38-9.22L364,78.09l.09,2.73a28.38,28.38,0,0,1-1.23,9.4,12.24,12.24,0,0,1-5.61-10.66c0-1.17.18-2.4.25-3.69a19.88,19.88,0,0,0-.19-4,21.1,21.1,0,0,0-2.81-7.4,27,27,0,0,0-5-6A36.37,36.37,0,0,0,343.12,54a76,76,0,0,0-14.07-5.68l-2.65-.83.77,2.66c1.06,3.68,2.15,7.36,1.49,10.71a10,10,0,0,1-2.19,4.52,25.16,25.16,0,0,1-4.09,3.66c-.77.59-1.55,1.18-2.32,1.82s-1.56,1.37-2.22,2l-2.15,2a10.92,10.92,0,0,0-2.11,2.48,6.92,6.92,0,0,0-.89,3.35,19.27,19.27,0,0,0,.25,3.1,16.06,16.06,0,0,1,.29,2.69,2.85,2.85,0,0,1-.32,1.34,35.4,35.4,0,0,0-7.4-2.42,33.9,33.9,0,0,0-8.52-.72l-1.14,0,.6.94a30,30,0,0,1,2,4.14L300,93.47a96.27,96.27,0,0,0-20.52,12.89c-3.76-9.62-11.93-17.65-22.55-18.89-12-1.4-18.91,8.34-28.13,14a25.62,25.62,0,0,1-8.15,3c-2,.45-3.58,1-4.52,3-1.84,3.85,1,8.29,3.91,10.68,3.83,3.17,9,4.33,13.83,4.3,2.69,0,5.41-.43,8.08,0,6.35,1,4.78,6.35,5.16,11a10.06,10.06,0,0,0,2.67,6.24,342.92,342.92,0,0,0-22.47,38.07,378.46,378.46,0,0,0-27.51,69.13q-5.15,17.8-8.5,36.06c-1.46,8-2.9,16.55-3.93,25.28a26.8,26.8,0,0,1-5.29-8.81L181,296.53l-1.58,2.62a26,26,0,0,0-2.9,6.74,22.68,22.68,0,0,0-.78,7.28c0,.64.11,1.28.2,1.9-.58-.78-1.13-1.57-1.64-2.39a36.89,36.89,0,0,1-2.15-3.82,38.8,38.8,0,0,1-1.78-4,51.15,51.15,0,0,1-2.4-8.44l-.59-3.27-2,2.63a30.91,30.91,0,0,0-4.2,7.71,35.07,35.07,0,0,0-1.94,8.46c-.14,1.42-.2,2.84-.2,4.25-.51-.38-1-.78-1.51-1.2A34,34,0,0,1,151,307.2a53,53,0,0,1-4.44-9.2,81.11,81.11,0,0,1-2.88-9.81l-.42-1.76-1,1.53a24.75,24.75,0,0,0-3.18,7.09,27.92,27.92,0,0,0-.94,7.72,33.88,33.88,0,0,0,1,7.7c.29,1.15.64,2.28,1,3.4a45.51,45.51,0,0,1-8.05-7,40.41,40.41,0,0,1-4.44-5.83,39.89,39.89,0,0,1-3.24-6.55l-2.05-5.3-.77,5.59a74.57,74.57,0,0,0-.61,10.93,70.85,70.85,0,0,0,1,10.87,56.73,56.73,0,0,0,2.8,10.6,42.34,42.34,0,0,0,3.67,7.5,31.91,31.91,0,0,1-9-2.25,53.84,53.84,0,0,1-5.48-2.61,46.66,46.66,0,0,1-5.11-3.25L105.39,324l1.77,3.94a70.25,70.25,0,0,0,5.1,9.26,77.33,77.33,0,0,0,6.3,8.43,56,56,0,0,0,16.27,13.25,42.29,42.29,0,0,0,8.56,3.29,68.32,68.32,0,0,1-10,3.94,51.08,51.08,0,0,1-10.48,2.09l-8.22.73,8,2a136.59,136.59,0,0,0,17.22,3.29,72.36,72.36,0,0,0,17.65.11,46.26,46.26,0,0,0,8.68-1.91,41.14,41.14,0,0,0,15.07-8.58l-.24.62a34.72,34.72,0,0,1-3.44,6.26,13.94,13.94,0,0,1-5,4.46l-8.82,4.33,9.69-1.87a78.05,78.05,0,0,0,15.66-4.74c1.08-.47,2.14-1,3.19-1.5A72.69,72.69,0,0,0,198.25,383a53.84,53.84,0,0,0,16.37,16.68,51.84,51.84,0,0,0,5.28,3c.46.23,2,1.13,3.25,1.71l-.31.13c-1.79.62-3.6,1.16-5.38,1.81-3.43,1.25-9.09,3.22-6.82,8,1.88,3.91,8,4.8,11.71,5.38a116,116,0,0,0,20,1c1.43,0,3.4.1,5.38.06a2.69,2.69,0,0,1-.2.38c-.72,1.09-2.44,1.88-4.19,2.6-.89.37-1.82.73-2.77,1.2a8.86,8.86,0,0,0-2.84,2,5,5,0,0,0-1,1.78,5.64,5.64,0,0,0-.21,2,6.67,6.67,0,0,0,1.35,3.45,12.82,12.82,0,0,0,5.35,3.8,24,24,0,0,0,6,1.61,48.83,48.83,0,0,0,12-.1,45.78,45.78,0,0,0,5.91-1.18,17.81,17.81,0,0,0,5.67-2.77,24.71,24.71,0,0,0,7.54-9.58c.22-.46.41-.93.61-1.39l.5-1.5c.25-1,.51-2,.69-2.92s.44-2.19.64-3.28c22.29,4.82,45.24,7.67,68.06,6.77a160.11,160.11,0,0,0,32.55-4.44c2.33-.58,4.65-1.23,6.94-1.95a24.78,24.78,0,0,0,1,2.89,30.31,30.31,0,0,0,2.83,5.22,20.79,20.79,0,0,0,9.18,7.7,31,31,0,0,0,5.77,1.48,51.6,51.6,0,0,0,5.81.64,49.31,49.31,0,0,0,5.83-.05c1-.07,1.92-.15,2.94-.29a22.64,22.64,0,0,0,3-.66,19.37,19.37,0,0,0,5.57-2.54,9.85,9.85,0,0,0,2.39-2.31,6.56,6.56,0,0,0,1.25-3.34,5.91,5.91,0,0,0-.15-1.9,5.42,5.42,0,0,0-.85-1.78,8,8,0,0,0-2.72-2.14c-1.87-.95-3.7-1.48-5.32-2.19a10.49,10.49,0,0,1-2.16-1.2,3.42,3.42,0,0,1-.74-.73l-.15-.19c0-.05-.06-.09-.09-.15a2,2,0,0,1-.14-.33l.85.08a142.39,142.39,0,0,0,20.86,0c5.57-.29,11.91-.21,17.3-1.84,3.77-1.13,2.9-4.86.85-7.64-3.27-4.44-9.45-5.46-14.45-6.64l-.43-.13c.93-.57,1.95-1.32,2.33-1.55A77.78,77.78,0,0,0,462.75,389c14-12.67,21.83-30.36,24.28-48.89C489.88,318.55,485.74,296.86,480.36,276.05,420.78,84.89a43.93,43.93,0,0,0,8.28-3c2.57-1.26,4.61-3.74,7.07-4.9.85-.4,4.31-.27,5.24.52.67.57.91,2.41,1.06,3.2a16.34,16.34,0,0,1,0,5.36A21.06,21.06,0,0,1,437,97.67c-4.13,4.46-10.21,6.42-14.06,11.21-4.33,5.39-5.39,12.66-9.83,18-.23.27-.57.64-1,1a133.6,133.6,0,0,0-26.81-24C387.82,88.94,408.94,88,420.78,84.89,249.37,123.8c-1.64-3.23-5-4.28-8.43-4.51-6.64-.45-13.21,1.24-18.88-3.44-2.4-2-3.77-3.55-2.33-6.45,1.27-2.55,1.94-1.88,4.39-2.56a24.52,24.52,0,0,0,6.2-2.79c4.56-2.79,8.3-6.7,12.72-9.69,13.66-9.23,29,0,34,14a122.73,122.73,0,0,0-9.6,9.21,191.35,191.35,0,0,0-15.79,19.44,8.54,8.54,0,0,1-1.56-5.17C250.07,129.09,250.69,126.41,249.37,123.8,177.93,313.15a23.91,23.91,0,0,1,1.19-6.5,26.84,26.84,0,0,1,1.38-3.33,26,26,0,0,0,1.4,2.6,28.66,28.66,0,0,0,3.76,4.79c.42.44.85.85,1.29,1.25-.44,4.28-.78,8.6-1,12.92a40.81,40.81,0,0,1-6.2-5.27c-.53-.55-1-1.11-1.54-1.68A24.11,24.11,0,0,1,177.93,313.15,10.07,57a83.57,83.57,0,0,1-9.67,3.46c.41-.53.8-1.08,1.15-1.64a30.72,30.72,0,0,0,3.18-6.9,51.34,51.34,0,0,0,1.84-7.25,57.16,57.16,0,0,0,.85-7.37c-.41,2-.92,3.91-1.47,5.84-.12.43-.23.87-.36,1.3-.44,1.48-1,2.93-1.49,4.37a44.49,44.49,0,0,1-16.44,8.27,53.52,53.52,0,0,1-8.34,1.46,80.63,80.63,0,0,1-17-.43c-3.39-.41-6.77-1-10.14-1.64,1.35-.35,2.69-.74,4-1.2q2.65-.93,5.2-2.08t5-2.51a77.38,77.38,0,0,0,9.27-6.07,69.38,69.38,0,0,0,8.27-7.31,95.74,95.74,0,0,1-8.91,6.38c-2.61,1.64-5.28,3.18-8,4.56a41.59,41.59,0,0,1-9.38-3.81A55.16,55.16,0,0,1,120,344.39a74.35,74.35,0,0,1-6-8.33c-1-1.68-2-3.41-2.92-5.17.57.36,1.14.72,1.72,1.07a46.31,46.31,0,0,0,5.72,2.87,32.15,32.15,0,0,0,12.65,2.71l2.56,0-1.46-2.13a47.32,47.32,0,0,1-7.3-19.26,72.69,72.69,0,0,1-.91-10.43c0-1.69,0-3.4.06-5.09.38.67.76,1.35,1.17,2a39.84,39.84,0,0,0,4.82,6.21,49.14,49.14,0,0,0,12.36,9.49l3.88,2.09-2.14-3.85a32.12,32.12,0,0,1-3.95-13.82,26.15,26.15,0,0,1,.62-7.22,23.48,23.48,0,0,1,1.83-5.05,72.69,72.69,0,0,0,2.74,8,54,54,0,0,0,4.87,9.21,34.78,34.78,0,0,0,7,7.71,20.39,20.39,0,0,0,9.3,4.37,17.5,17.5,0,0,1-5.9-2.45,42.8,42.8,0,0,1,.62-5.07,35.15,35.15,0,0,1,2.31-7.79,27.93,27.93,0,0,1,2.23-4.23,38.45,38.45,0,0,0,1.8,5.73,36.51,36.51,0,0,0,4.53,8.21,34.69,34.69,0,0,0,6.47,6.73,27.41,27.41,0,0,0,7.32,4.24l0,.76a140.06,140.06,0,0,0,1,24.11,92.52,92.52,0,0,0,4.4,18.64C190.24,369.16,189.1,369.62,188,370.15,287.24-2a69.68,69.68,0,0,1-18.8,22.2q-2.81,2.16-5.8,4c-1.64,1-4.25,1.9-5.6,3.25-.89.88-1.74,1.59-1,2.94,1.41,2.48,8.3,2.62,10.71,3.45,3,1,5.32,2.31,6.93,5,1.37,2.3-.22,1.93-2.58,2.3A157.31,157.31,0,0,1,440,412.8c-5.44.16-11.45.58-16.94-.34l-.39-2.54a66.6,66.6,0,0,1,.68-21.91c1.34-7.46,3.08-14.84,4.56-22.27.74-3.7,1.54-7.38,2.56-11a52.4,52.4,0,0,1,1.78-5.35,13,13,0,0,1,2.86-4.8,7.52,7.52,0,0,0-.64.62,15.48,15.48,0,0,0-2.63,4,53.6,53.6,0,0,0-2.13,5.29c-1.24,3.59-2.26,7.24-3.22,10.91-1.44,5.48-2.83,10.93-4.36,16.39a67,67,0,0,0-2.93,17,79.22,79.22,0,0,0,.91,11.47l.82,5.75a5.37,5.37,0,0,0,.29.92,3,3,0,0,0,.24.47l.26.39a6.55,6.55,0,0,0,1.25,1.27,12.39,12.39,0,0,0,2.75,1.61c1.83.8,3.65,1.35,5.14,2.13a5.2,5.2,0,0,1,1.72,1.32,2.34,2.34,0,0,1,.42,1.67,4.45,4.45,0,0,1-1.9,3.09,5.44,5.44,0,0,0-.22-3.16,6.48,6.48,0,0,0-2.78-3.36,8.4,8.4,0,0,0-2-.78,12.23,12.23,0,0,0-1.87-.39,13.23,13.23,0,0,0-3.88,0,13.42,13.42,0,0,0,3.14,2.28c1.11.61,2.2,1.06,3,1.5a9.26,9.26,0,0,1,2.27,1.93,12.58,12.58,0,0,1,1.91,3l-.46-.38a16.59,16.59,0,0,1-4.4,1.92,24.58,24.58,0,0,1-5.27.85h-.19a2.69,2.69,0,0,0,.42-.89,3.62,3.62,0,0,0-.15-2.18,7.13,7.13,0,0,0-2.48-3,9.79,9.79,0,0,0-3.23-1.61,7.37,7.37,0,0,0-3.65-.16,28.07,28.07,0,0,0,2.6,2.27c.84.66,1.66,1.29,2.49,1.9a22.09,22.09,0,0,1,2.22,1.76,3.27,3.27,0,0,1,.74,1,2.59,2.59,0,0,1,.2,1.56l-.59-.61c-1.29.05-2.58.06-3.87,0a47.43,47.43,0,0,1-5.46-.57,28.45,28.45,0,0,1-5.2-1.29,18.43,18.43,0,0,1-8-6.59,26.29,26.29,0,0,1-4.28-9.83c-.8-3.58-1.14-7.33-1.7-11.11-.14-.94-.31-1.89-.49-2.84l-.6-2.77c-.44-1.85-.85-3.69-1.38-5.55a19.6,19.6,0,0,0-1-2.74c-.4-.88-.84-1.72-1.25-2.57l-2.49-5.1h0l.81,2.73.92,2.69c.31.9.64,1.79.92,2.67a20.05,20.05,0,0,1,.62,2.68c.35,1.82.6,3.69.87,5.56l.42,2.8c.15.91.28,1.83.39,2.75.46,3.6.67,7.3,1.41,11-2.73.95-5.53,1.81-8.45,2.51-21.11,5-43.26,5-64.74,2.67a311.44,311.44,0,0,1-33.1-5.43c.63-3.69,1.26-7.37,2-11,1.56-7.58,3.49-15.19,7.25-22a49.61,49.61,0,0,0-5.2,10.5,116.37,116.37,0,0,0-3.48,11.22c-1,3.8-1.79,7.63-2.6,11.44-.42,1.9-.8,3.81-1.26,5.68-.21.94-.48,1.84-.73,2.75l-.47,1.26c-.2.42-.38.85-.6,1.27a23.12,23.12,0,0,1-7,8.46,14.79,14.79,0,0,1-4.83,2.25,43.19,43.19,0,0,1-5.56,1,49.21,49.21,0,0,1-7.48.28l-.56.58a2.59,2.59,0,0,1,.2-1.56,3.27,3.27,0,0,1,.74-1,20.77,20.77,0,0,1,2.22-1.75c.83-.62,1.65-1.24,2.49-1.91a28.07,28.07,0,0,0,2.6-2.27,7.37,7.37,0,0,0-3.65.16,10,10,0,0,0-3.23,1.61,7.19,7.19,0,0,0-2.48,3,3.54,3.54,0,0,0-.15,2.18,2.79,2.79,0,0,0,.44.92c-.82-.06-1.64-.12-2.46-.22a20.84,20.84,0,0,1-5.23-1.44,13.38,13.38,0,0,1-2.19-1.15l-.46.38a12.58,12.58,0,0,1,1.91-3,9.26,9.26,0,0,1,2.27-1.93c.84-.43,1.93-.89,3-1.5a13.14,13.14,0,0,0,3.14-2.28,13.21,13.21,0,0,0-3.88.05,10.23,10.23,0,0,0-1.87.39,8,8,0,0,0-2,.77,6.52,6.52,0,0,0-2.78,3.36,5.48,5.48,0,0,0-.24,3.12,7.32,7.32,0,0,1-1.07-1.09,3.66,3.66,0,0,1-.78-1.92,2,2,0,0,1,.5-1.61,5.88,5.88,0,0,1,1.9-1.33c.79-.4,1.68-.76,2.59-1.14a26.17,26.17,0,0,0,2.8-1.34,7.85,7.85,0,0,0,2.66-2.36,6.21,6.21,0,0,0,.77-1.71,11.55,11.55,0,0,0,.37-1.6,20.91,20.91,0,0,0,.26-3.1c.05-4-.08-7.81,0-11.74s0-7.82-.18-11.73a143.87,143.87,0,0,0-2.44-23.39,60.89,60.89,0,0,0-3.42-11.28c-1.56-3.59-3.65-7.11-6.81-9.47a18,18,0,0,1,3.63,4.52,32.45,32.45,0,0,1,2.45,5.24,61.08,61.08,0,0,1,2.71,11.25,160.15,160.15,0,0,1,1.55,23.18c0,3.88,0,7.76-.11,11.66s-.06,7.87-.17,11.66c0,.47,0,.94-.09,1.4-1,0-1.89,0-2.41,0a154.42,154.42,0,0,1-17.61-.25c-2.75-.22-14.44-.57-15.14-4.64-.62-3.64,11.46-4.83,13.86-6.68,4.66-3.59-6.25-6.18-8.38-7.39-13.63-7.72-21.33-20.18-25.43-34.31A98.74,98.74,0,0,1,190.21,349a152.79,152.79,0,0,1-.9-23.47c.1-3,.27-6,.49-8.91.14-1.9.3-3.78.48-5.61.88-9.14,2.27-18.22,3.91-27.25a377.44,377.44,0,0,1,52.43-133.53c12.28-19.28,26.78-38.3,46.79-50.08a80,80,0,0,1,7.76-4l.54-.28c-.26-.67-.53-1.33-.76-2l-1.53-4.48c-.41-1.14-.82-2.29-1.34-3.42a37,37,0,0,1,7,1A35,35,0,0,1,312.7,90l.56.29.54-.38A3.65,3.65,0,0,0,315,88.32a5.13,5.13,0,0,0,.38-1.77,17.71,17.71,0,0,0-.21-3.1c-.21-1.85-.31-3.69.5-4.87s2.47-2.46,3.89-3.78c.76-.68,1.4-1.26,2.14-1.85s1.5-1.14,2.29-1.71a27.93,27.93,0,0,0,4.61-4,12.61,12.61,0,0,0,2.87-5.79,17.14,17.14,0,0,0-.05-6.31c-.19-1.06-.43-2.09-.69-3.1a67.35,67.35,0,0,1,10.94,4.55,27.87,27.87,0,0,1,10.47,9.34,18.29,18.29,0,0,1,2.59,6.39,17.16,17.16,0,0,1,.23,3.45c0,1.19-.14,2.44-.13,3.76A14.3,14.3,0,0,0,363,92.47l1,.46.31-1a28.85,28.85,0,0,0,1.29-8.44A29,29,0,0,1,368,89.8a30.59,30.59,0,0,1,.89,8.16A.41.41,0,0,1,369,98h0a120.94,120.94,0,0,1,32.92,23.32c15.23,15,25,32.84,34.41,51.77,11.43,22.94,22.15,46.28,30.8,70.43,8,22.35,15,46,17.25,69.68C486.17,331.85,484.19,351.44,475.24,368.15Z"/>            </clipPath>        </defs>        <g clip-path="url(#outline)">            <rect fill="#7778AB" width="640" height="480" />        </g>    </g>    <g id="pattern">        <g clip-path="url(#outline)">            <path fill="#FFF0F0"  d="M348.18,92.92c11.09-4.18,21.41,1,30.77,6.67a129.47,129.47,0,0,1,36.11,33.23c9.51,12.82,16.21,27.29,23.55,41.38.36.71.73,1.42,1.11,2.12.75,1.44-6.79,7.19-7.8,7.93a21.15,21.15,0,0,1-9.2,3.71c-8,1.35-16.19-.17-23.73-2.74a91.74,91.74,0,0,1-37.57-24.84c-11.13-12.1-20.73-26.88-23.71-43.14a32.05,32.05,0,0,1-.23-12.11A16.23,16.23,0,0,1,348.18,92.92Z"/><path fill="#FFF0F0"  d="M316.14,93c-3.78-1.06-7.37-1.64-11.24-.53-15,4.3-27.49,15.46-37.84,26.67a236.48,236.48,0,0,0-29.46,40.21c-3.5,5.91-6.82,11.92-10,18-.76,1.44,4.79,6.21,5.8,6.95a21.15,21.15,0,0,0,9.2,3.71c8,1.35,16.19-.17,23.73-2.74a91.74,91.74,0,0,0,37.57-24.84c11.13-12.1,20.73-26.88,23.7-43.14a31.65,31.65,0,0,0,.23-12.11A15.66,15.66,0,0,0,316.14,93Z"/>            <g opacity="0.6" ><path fill="#FFFFFF"  d="M285.65,417.34c.88-28.07,28.25-44.44,48.84-46.07,24.2-1.91,50.7,17.49,53.14,45.19.13,1.39-.11,1.25-1.55,2-5.06,2.52-10.68,3.22-16.14,4-11.84,1.77-24.23,2.06-36.17,2-16.08-.11-32.32-1.27-47.7-6.73"/></g>        </g>    </g>    <g id="mask">        <g opacity="0.1" ><path d="M484.87,334.92c.23,1.69-3.51,6.76-4.43,8.49-1.82,3.4-3.69,6.78-5.68,10.08a107.84,107.84,0,0,1-13.23,18.12,63.16,63.16,0,0,1-11,9.46,60.26,60.26,0,0,1-6.26,3.67,33.15,33.15,0,0,1-5.53,2.51c-4,1.15-6.15-2.22-7.32-5.52A39.64,39.64,0,0,1,429,364.19a117.62,117.62,0,0,1,2.55-14.42l-1.95,4.49c-1.34,3.1-1.84,6.94-2.61,10.23q-1.27,5.37-2.29,10.81T423,386c-.5,3.72-2.44,6.68-2.06,10.56.28,3,1.35,6,1.24,9a.63.63,0,0,0,.09.45c.16.19.46.15.69.08a107.58,107.58,0,0,0,24.47-9.43c9.47-5.3,17.38-11.48,23.77-20.11a59.55,59.55,0,0,0,8.22-14.57C482.52,353.2,486.14,344.07,484.87,334.92Z"/></g><g opacity="0.1" ><path d="M250.8,401a5.18,5.18,0,0,1,.29-1.73c-17.38-5.65-32.91-19.19-40.43-35.7-4-8.82-6.13-18.92-6.19-30.43-.12-27.61,3.21-61,10.78-87.24,10.89-37.75,30.59-71.48,52.33-104.45,10.77-16.34,17.62-34.19,32.59-46.79-23.63,13.12-38,28.59-53.16,54.08-14.43,24.28-29.76,53.17-39.76,79.22s-15,53.6-17.25,81.33c-2,24.3-2.4,58.2,14.72,78,10,11.56,21.38,19,39.1,21.26q3.44.43,7,.93Z"/></g><g opacity="0.1" ><path d="M389.4,411.67c-.71-9.29.31-9.53.31-9.54-5.29,1.25-9.82,4.44-15.12,5.67a158.69,158.69,0,0,1-19.41,2.95c-22,2.28-44.35.82-66.16-2.85-1.83-5.45-1.1-11.68-.07-17.2.53-2.84,2.35-6.23,3-8.57-4.69,6.41-6,16-7.94,23.12a.28.28,0,0,1,0,.09,66.59,66.59,0,0,1-2.5,9.52q2.72.6,5.3,1.21c14.89,5.54,32.71,6.73,47.92,6.86,15.66.12,34.69-1.09,45-4.91,2.86-1.06,9.11-1.62,10.47-3C391.37,413.7,389.52,413.28,389.4,411.67Z"/></g>        <path fill="none"  d="M12.49,139.53a2.46,2.46,0,0,1-.26-2.56A5.84,5.84,0,0,1,14,134.9a17.76,17.76,0,0,1,6.26-3.22"/><path fill="none"  d="M2,136.7a6.53,6.53,0,0,1,3.68-6,12,12,0,0,1,1.55-.58l4.51-1.47"/><g opacity="0.1" ><path fill="#fff"  d="M380.26,102.62c6.05,5.3,10.42,13.68,14.49,20.5,4.46,7.47,8.87,15,13.36,22.42,13,21.71,26.15,43.75,37,66.65a328.76,328.76,0,0,1,23.41,68.9c2.75,12.34,4.9,24.81,6.59,37.33,1.4,10.34,4.07,22.69-2.47,31.88,4.28-6,9.86-10.6,11.34-14.65,5.28-14.39.19-32.19-2.48-46.68-5.44-29.5-15.48-57.88-26.94-85.52C443.24,176.24,429,150.37,409.7,128,393.48,109.12,380.48,102.81,380.26,102.62Z"/></g>    </g>    <g id="outline">        <path fill="none"  d="M179.78,319.61a40.81,40.81,0,0,0,6.2,5.27c.19-4.32.53-8.64,1-12.92-.44-.4-.87-.81-1.29-1.25a28.66,28.66,0,0,1-3.76-4.79,26,26,0,0,1-1.4-2.6,26.84,26.84,0,0,0-1.38,3.33,23.25,23.25,0,0,0-.88,11.28C178.74,318.5,179.25,319.06,179.78,319.61Z"/><path fill="none"  d="M412.16,127.89c.41-.41.75-.78,1-1,4.44-5.3,5.5-12.57,9.83-18,3.85-4.79,9.93-6.75,14.06-11.21a21.06,21.06,0,0,0,5.43-11.57,16.34,16.34,0,0,0,0-5.36c-.15-.79-.39-2.63-1.06-3.2-.93-.79-4.39-.92-5.24-.52-2.46,1.16-4.5,3.64-7.07,4.9a43.93,43.93,0,0,1-8.28,3c-11.84,3.11-33,4-35.43,19A133.6,133.6,0,0,1,412.16,127.89Z"/><path fill="none"  d="M250.1,131.88a8.54,8.54,0,0,0,1.56,5.17,191.35,191.35,0,0,1,15.79-19.44,122.73,122.73,0,0,1,9.6-9.21c-5-14.07-20.35-23.27-34-14-4.42,3-8.16,6.9-12.72,9.69a24.52,24.52,0,0,1-6.2,2.79c-2.45.68-3.12,0-4.39,2.56-1.44,2.9-.07,4.47,2.33,6.45,5.67,4.68,12.24,3,18.88,3.44,3.41.23,6.79,1.28,8.43,4.51C250.69,126.41,250.07,129.09,250.1,131.88Z"/><path fill="none"  d="M467.15,243.54c-8.65-24.15-19.37-47.49-30.8-70.43-9.42-18.93-19.18-36.8-34.41-51.77A120.94,120.94,0,0,0,369,98h0a.41.41,0,0,0-.11-.07A30.59,30.59,0,0,0,368,89.8a29,29,0,0,0-2.44-6.32,28.85,28.85,0,0,1-1.29,8.44l-.31,1-1-.46a14.3,14.3,0,0,1-8.12-12.94c0-1.32.1-2.57.13-3.76a17.16,17.16,0,0,0-.23-3.45,18.29,18.29,0,0,0-2.59-6.39,27.87,27.87,0,0,0-10.47-9.34A67.35,67.35,0,0,0,330.76,52c.26,1,.5,2,.69,3.1a17.14,17.14,0,0,1,.05,6.31,12.61,12.61,0,0,1-2.87,5.79,27.93,27.93,0,0,1-4.61,4c-.79.57-1.56,1.14-2.29,1.71s-1.38,1.17-2.14,1.85c-1.42,1.32-3.1,2.53-3.89,3.78s-.71,3-.5,4.87a17.71,17.71,0,0,1,.21,3.1,5.13,5.13,0,0,1-.38,1.77,3.65,3.65,0,0,1-1.23,1.58l-.54.38L312.7,90a35,35,0,0,0-7.58-2.94,37,37,0,0,0-7-1c.52,1.13.93,2.28,1.34,3.42L301,93.9c.23.67.5,1.33.76,2l-.54.28a80,80,0,0,0-7.76,4c-20,11.78-34.51,30.8-46.79,50.08a377.44,377.44,0,0,0-52.43,133.53c-1.64,9-3,18.11-3.91,27.25-.18,1.83-.34,3.71-.48,5.61-.22,2.91-.39,5.89-.49,8.91a152.79,152.79,0,0,0,.9,23.47,98.74,98.74,0,0,0,3.07,15.36c4.1,14.13,11.8,26.59,25.43,34.31,2.13,1.21,13,3.8,8.38,7.39-2.4,1.85-14.48,3-13.86,6.68.7,4.07,12.39,4.42,15.14,4.64a154.42,154.42,0,0,0,17.61.25c.52,0,1.44,0,2.41,0,0-.46.07-.93.09-1.4.11-3.79.06-7.79.17-11.66s.13-7.78.11-11.66a160.15,160.15,0,0,0-1.55-23.18,61.08,61.08,0,0,0-2.71-11.25,32.45,32.45,0,0,0-2.45-5.24,18,18,0,0,0-3.63-4.52c3.16,2.36,5.25,5.88,6.81,9.47a60.89,60.89,0,0,1,3.42,11.28,143.87,143.87,0,0,1,2.44,23.39c.15,3.91.19,7.83.18,11.73s.09,7.72,0,11.74a20.91,20.91,0,0,1-.26,3.1,11.55,11.55,0,0,1-.37,1.6,6.21,6.21,0,0,1-.77,1.71,7.85,7.85,0,0,1-2.66,2.36,26.17,26.17,0,0,1-2.8,1.34c-.91.38-1.8.74-2.59,1.14a5.88,5.88,0,0,0-1.9,1.33,2,2,0,0,0-.5,1.61,3.66,3.66,0,0,0,.78,1.92,7.32,7.32,0,0,0,1.07,1.09,5.48,5.48,0,0,1,.24-3.12,6.52,6.52,0,0,1,2.78-3.36,8,8,0,0,1,2-.77,10.23,10.23,0,0,1,1.87-.39,13.21,13.21,0,0,1,3.88-.05,13.14,13.14,0,0,1-3.14,2.28c-1.11.61-2.2,1.07-3,1.5a9.26,9.26,0,0,0-2.27,1.93,12.58,12.58,0,0,0-1.91,3l.46-.38a13.38,13.38,0,0,0,2.19,1.15,20.84,20.84,0,0,0,5.23,1.44c.82.1,1.64.16,2.46.22a2.79,2.79,0,0,1-.44-.92,3.54,3.54,0,0,1,.15-2.18,7.19,7.19,0,0,1,2.48-3,10,10,0,0,1,3.23-1.61,7.37,7.37,0,0,1,3.65-.16,28.07,28.07,0,0,1-2.6,2.27c-.84.67-1.66,1.29-2.49,1.91a20.77,20.77,0,0,0-2.22,1.75,3.27,3.27,0,0,0-.74,1,2.59,2.59,0,0,0-.2,1.56l.56-.58a49.21,49.21,0,0,0,7.48-.28,43.19,43.19,0,0,0,5.56-1,14.79,14.79,0,0,0,4.83-2.25,23.12,23.12,0,0,0,7-8.46c.22-.42.4-.85.6-1.27l.47-1.26c.25-.91.52-1.81.73-2.75.46-1.87.84-3.78,1.26-5.68.81-3.81,1.63-7.64,2.6-11.44a116.37,116.37,0,0,1,3.48-11.22,49.61,49.61,0,0,1,5.2-10.5c-3.76,6.86-5.69,14.47-7.25,22-.76,3.66-1.39,7.34-2,11a311.44,311.44,0,0,0,33.1,5.43c21.48,2.29,43.63,2.35,64.74-2.67,2.92-.7,5.72-1.56,8.45-2.51-.74-3.71-.95-7.41-1.41-11-.11-.92-.24-1.84-.39-2.75l-.42-2.8c-.27-1.87-.52-3.74-.87-5.56a20.05,20.05,0,0,0-.62-2.68c-.28-.88-.61-1.77-.92-2.67l-.92-2.69-.81-2.73h0l2.49,5.1c.41.85.85,1.69,1.25,2.57a19.6,19.6,0,0,1,1,2.74c.53,1.86.94,3.7,1.38,5.55l.6,2.77c.18.95.35,1.9.49,2.84.56,3.78.9,7.53,1.7,11.11a26.29,26.29,0,0,0,4.28,9.83,18.43,18.43,0,0,0,8,6.59,28.45,28.45,0,0,0,5.2,1.29,47.43,47.43,0,0,0,5.46.57c1.29.06,2.58.05,3.87,0l.59.61a2.59,2.59,0,0,0-.2-1.56,3.27,3.27,0,0,0-.74-1,22.09,22.09,0,0,0-2.22-1.76c-.83-.61-1.65-1.24-2.49-1.9a28.07,28.07,0,0,1-2.6-2.27,7.37,7.37,0,0,1,3.65.16,9.79,9.79,0,0,1,3.23,1.61,7.13,7.13,0,0,1,2.48,3,3.62,3.62,0,0,1,.15,2.18,2.69,2.69,0,0,1-.42.89h.19a24.58,24.58,0,0,0,5.27-.85,16.59,16.59,0,0,0,4.4-1.92l.46.38a12.58,12.58,0,0,0-1.91-3,9.26,9.26,0,0,0-2.27-1.93c-.84-.44-1.93-.89-3-1.5a13.42,13.42,0,0,1-3.14-2.28,13.23,13.23,0,0,1,3.88,0,12.23,12.23,0,0,1,1.87.39,8.4,8.4,0,0,1,2,.78,6.48,6.48,0,0,1,2.78,3.36,5.44,5.44,0,0,1,.22,3.16,4.45,4.45,0,0,0,1.9-3.09,2.34,2.34,0,0,0-.42-1.67,5.2,5.2,0,0,0-1.72-1.32c-1.49-.78-3.31-1.33-5.14-2.13a12.39,12.39,0,0,1-2.75-1.61,6.55,6.55,0,0,1-1.25-1.27l-.26-.39a3,3,0,0,1-.24-.47,5.37,5.37,0,0,1-.29-.92l-.82-5.75a79.22,79.22,0,0,1-.91-11.47,67,67,0,0,1,2.93-17c1.53-5.46,2.92-10.91,4.36-16.39,1-3.67,2-7.32,3.22-10.91a53.6,53.6,0,0,1,2.13-5.29,15.48,15.48,0,0,1,2.63-4,7.52,7.52,0,0,1,.64-.62,13,13,0,0,0-2.86,4.8,52.4,52.4,0,0,0-1.78,5.35c-1,3.62-1.82,7.3-2.56,11-1.48,7.43-3.22,14.81-4.56,22.27a66.6,66.6,0,0,0-.68,21.91l.39,2.54c5.49.92,11.5.5,16.94.34a157.31,157.31,0,0,0,19.15-1.46c2.36-.37,3.95,0,2.58-2.3-1.61-2.7-4-4-6.93-5-2.41-.83-9.3-1-10.71-3.45-.77-1.35.08-2.06,1-2.94,1.35-1.35,4-2.21,5.6-3.25q3-1.87,5.8-4a69.68,69.68,0,0,0,18.8-22.2c8.95-16.71,10.93-36.3,9.16-54.93C482.16,289.49,475.15,265.89,467.15,243.54Z"/><path fill="none"  d="M185.94,325.87l0-.76a27.41,27.41,0,0,1-7.32-4.24,34.69,34.69,0,0,1-6.47-6.73,36.51,36.51,0,0,1-4.53-8.21,38.45,38.45,0,0,1-1.8-5.73,27.93,27.93,0,0,0-2.23,4.23,35.15,35.15,0,0,0-2.31,7.79,42.8,42.8,0,0,0-.62,5.07,17.5,17.5,0,0,0,5.9,2.45,20.39,20.39,0,0,1-9.3-4.37,34.78,34.78,0,0,1-7-7.71,54,54,0,0,1-4.87-9.21,72.69,72.69,0,0,1-2.74-8,23.48,23.48,0,0,0-1.83,5.05,26.15,26.15,0,0,0-.62,7.22,32.12,32.12,0,0,0,3.95,13.82l2.14,3.85-3.88-2.09a49.14,49.14,0,0,1-12.36-9.49,39.84,39.84,0,0,1-4.82-6.21c-.41-.65-.79-1.33-1.17-2-.07,1.69-.09,3.4-.06,5.09a72.69,72.69,0,0,0,.91,10.43,47.32,47.32,0,0,0,7.3,19.26l1.46,2.13-2.56,0a32.15,32.15,0,0,1-12.65-2.71,46.31,46.31,0,0,1-5.72-2.87c-.58-.35-1.15-.71-1.72-1.07.9,1.76,1.88,3.49,2.92,5.17a74.35,74.35,0,0,0,6,8.33,55.16,55.16,0,0,0,15.52,13.19,41.59,41.59,0,0,0,9.38,3.81c2.75-1.38,5.42-2.92,8-4.56a95.74,95.74,0,0,0,8.91-6.38,69.38,69.38,0,0,1-8.27,7.31,77.38,77.38,0,0,1-9.27,6.07q-2.43,1.37-5,2.51t-5.2,2.08c-1.31.46-2.65.85-4,1.2,3.37.65,6.75,1.23,10.14,1.64a80.63,80.63,0,0,0,17,.43,53.52,53.52,0,0,0,8.34-1.46A44.49,44.49,0,0,0,182,362c.54-1.44,1.05-2.89,1.49-4.37.13-.43.24-.87.36-1.3.55-1.93,1.06-3.87,1.47-5.84a57.16,57.16,0,0,1-.85,7.37,51.34,51.34,0,0,1-1.84,7.25,30.72,30.72,0,0,1-3.18,6.9c-.35.56-.74,1.11-1.15,1.64a83.57,83.57,0,0,0,9.67-3.46c1.1-.53,2.24-1,3.33-1.53a92.52,92.52,0,0,1-4.4-18.64A140.06,140.06,0,0,1,185.94,325.87Zm-5.19.29h.06l.09.21Z"/><path d="M180.75,326.16l.15.21-.09-.21Z"/><path d="M480.36,276.05c-6.48-25.08-15.82-49.33-26.42-72.92-5.39-12-11.13-23.86-17-35.62-5.06-10.07-10.07-20.09-16.63-29.28q-3-4.12-6.2-8.07a22.91,22.91,0,0,0,2.31-2.63c2.36-3.24,3.7-7,5.37-10.62a25.55,25.55,0,0,1,9.77-11.36c6.21-4.06,11.3-8.51,13.33-16,1.36-5,1.74-13.25-3.51-16.29a5.22,5.22,0,0,0-5.61.18c-1.78,1.07-3.18,2.82-4.91,4a30.41,30.41,0,0,1-7.15,3.44c-13.23,4.56-37.27,4.64-41,21.21q-3.08-1.94-6.25-3.69c-2.34-1.29-4.74-2.48-7.18-3.58a27.57,27.57,0,0,0-.48-5.2,30.21,30.21,0,0,0-3.38-9.22L364,78.09l.09,2.73a28.38,28.38,0,0,1-1.23,9.4,12.24,12.24,0,0,1-5.61-10.66c0-1.17.18-2.4.25-3.69a19.88,19.88,0,0,0-.19-4,21.1,21.1,0,0,0-2.81-7.4,27,27,0,0,0-5-6A36.37,36.37,0,0,0,343.12,54a76,76,0,0,0-14.07-5.68l-2.65-.83.77,2.66c1.06,3.68,2.15,7.36,1.49,10.71a10,10,0,0,1-2.19,4.52,25.16,25.16,0,0,1-4.09,3.66c-.77.59-1.55,1.18-2.32,1.82s-1.56,1.37-2.22,2l-2.15,2a10.92,10.92,0,0,0-2.11,2.48,6.92,6.92,0,0,0-.89,3.35,19.27,19.27,0,0,0,.25,3.1,16.06,16.06,0,0,1,.29,2.69,2.85,2.85,0,0,1-.32,1.34,35.4,35.4,0,0,0-7.4-2.42,33.9,33.9,0,0,0-8.52-.72l-1.14,0,.6.94a30,30,0,0,1,2,4.14L300,93.47a96.27,96.27,0,0,0-20.52,12.89c-3.76-9.62-11.93-17.65-22.55-18.89-12-1.4-18.91,8.34-28.13,14a25.62,25.62,0,0,1-8.15,3c-2,.45-3.58,1-4.52,3-1.84,3.85,1,8.29,3.91,10.68,3.83,3.17,9,4.33,13.83,4.3,2.69,0,5.41-.43,8.08,0,6.35,1,4.78,6.35,5.16,11a10.06,10.06,0,0,0,2.67,6.24,342.92,342.92,0,0,0-22.47,38.07,378.46,378.46,0,0,0-27.51,69.13q-5.15,17.8-8.5,36.06c-1.46,8-2.9,16.55-3.93,25.28a26.8,26.8,0,0,1-5.29-8.81L181,296.53l-1.58,2.62a26,26,0,0,0-2.9,6.74,22.68,22.68,0,0,0-.78,7.28c0,.64.11,1.28.2,1.9-.58-.78-1.13-1.57-1.64-2.39a36.89,36.89,0,0,1-2.15-3.82,38.8,38.8,0,0,1-1.78-4,51.15,51.15,0,0,1-2.4-8.44l-.59-3.27-2,2.63a30.91,30.91,0,0,0-4.2,7.71,35.07,35.07,0,0,0-1.94,8.46c-.14,1.42-.2,2.84-.2,4.25-.51-.38-1-.78-1.51-1.2A34,34,0,0,1,151,307.2a53,53,0,0,1-4.44-9.2,81.11,81.11,0,0,1-2.88-9.81l-.42-1.76-1,1.53a24.75,24.75,0,0,0-3.18,7.09,27.92,27.92,0,0,0-.94,7.72,33.88,33.88,0,0,0,1,7.7c.29,1.15.64,2.28,1,3.4a45.51,45.51,0,0,1-8.05-7,40.41,40.41,0,0,1-4.44-5.83,39.89,39.89,0,0,1-3.24-6.55l-2.05-5.3-.77,5.59a74.57,74.57,0,0,0-.61,10.93,70.85,70.85,0,0,0,1,10.87,56.73,56.73,0,0,0,2.8,10.6,42.34,42.34,0,0,0,3.67,7.5,31.91,31.91,0,0,1-9-2.25,53.84,53.84,0,0,1-5.48-2.61,46.66,46.66,0,0,1-5.11-3.25L105.39,324l1.77,3.94a70.25,70.25,0,0,0,5.1,9.26,77.33,77.33,0,0,0,6.3,8.43,56,56,0,0,0,16.27,13.25,42.29,42.29,0,0,0,8.56,3.29,68.32,68.32,0,0,1-10,3.94,51.08,51.08,0,0,1-10.48,2.09l-8.22.73,8,2a136.59,136.59,0,0,0,17.22,3.29,72.36,72.36,0,0,0,17.65.11,46.26,46.26,0,0,0,8.68-1.91,41.14,41.14,0,0,0,15.07-8.58l-.24.62a34.72,34.72,0,0,1-3.44,6.26,13.94,13.94,0,0,1-5,4.46l-8.82,4.33,9.69-1.87a78.05,78.05,0,0,0,15.66-4.74c1.08-.47,2.14-1,3.19-1.5A72.69,72.69,0,0,0,198.25,383a53.84,53.84,0,0,0,16.37,16.68,51.84,51.84,0,0,0,5.28,3c.46.23,2,1.13,3.25,1.71l-.31.13c-1.79.62-3.6,1.16-5.38,1.81-3.43,1.25-9.09,3.22-6.82,8,1.88,3.91,8,4.8,11.71,5.38a116,116,0,0,0,20,1c1.43,0,3.4.1,5.38.06a2.69,2.69,0,0,1-.2.38c-.72,1.09-2.44,1.88-4.19,2.6-.89.37-1.82.73-2.77,1.2a8.86,8.86,0,0,0-2.84,2,5,5,0,0,0-1,1.78,5.64,5.64,0,0,0-.21,2,6.67,6.67,0,0,0,1.35,3.45,12.82,12.82,0,0,0,5.35,3.8,24,24,0,0,0,6,1.61,48.83,48.83,0,0,0,12-.1,45.78,45.78,0,0,0,5.91-1.18,17.81,17.81,0,0,0,5.67-2.77,24.71,24.71,0,0,0,7.54-9.58c.22-.46.41-.93.61-1.39l.5-1.5c.25-1,.51-2,.69-2.92s.44-2.19.64-3.28c22.29,4.82,45.24,7.67,68.06,6.77a160.11,160.11,0,0,0,32.55-4.44c2.33-.58,4.65-1.23,6.94-1.95a24.78,24.78,0,0,0,1,2.89,30.31,30.31,0,0,0,2.83,5.22,20.79,20.79,0,0,0,9.18,7.7,31,31,0,0,0,5.77,1.48,51.6,51.6,0,0,0,5.81.64,49.31,49.31,0,0,0,5.83-.05c1-.07,1.92-.15,2.94-.29a22.64,22.64,0,0,0,3-.66,19.37,19.37,0,0,0,5.57-2.54,9.85,9.85,0,0,0,2.39-2.31,6.56,6.56,0,0,0,1.25-3.34,5.91,5.91,0,0,0-.15-1.9,5.42,5.42,0,0,0-.85-1.78,8,8,0,0,0-2.72-2.14c-1.87-.95-3.7-1.48-5.32-2.19a10.49,10.49,0,0,1-2.16-1.2,3.42,3.42,0,0,1-.74-.73l-.15-.19c0-.05-.06-.09-.09-.15a2,2,0,0,1-.14-.33l.85.08a142.39,142.39,0,0,0,20.86,0c5.57-.29,11.91-.21,17.3-1.84,3.77-1.13,2.9-4.86.85-7.64-3.27-4.44-9.45-5.46-14.45-6.64l-.43-.13c.93-.57,1.95-1.32,2.33-1.55A77.78,77.78,0,0,0,462.75,389c14-12.67,21.83-30.36,24.28-48.89C489.88,318.55,485.74,296.86,480.36,276.05ZM420.78,84.89a43.93,43.93,0,0,0,8.28-3c2.57-1.26,4.61-3.74,7.07-4.9.85-.4,4.31-.27,5.24.52.67.57.91,2.41,1.06,3.2a16.34,16.34,0,0,1,0,5.36A21.06,21.06,0,0,1,437,97.67c-4.13,4.46-10.21,6.42-14.06,11.21-4.33,5.39-5.39,12.66-9.83,18-.23.27-.57.64-1,1a133.6,133.6,0,0,0-26.81-24C387.82,88.94,408.94,88,420.78,84.89ZM249.37,123.8c-1.64-3.23-5-4.28-8.43-4.51-6.64-.45-13.21,1.24-18.88-3.44-2.4-2-3.77-3.55-2.33-6.45,1.27-2.55,1.94-1.88,4.39-2.56a24.52,24.52,0,0,0,6.2-2.79c4.56-2.79,8.3-6.7,12.72-9.69,13.66-9.23,29,0,34,14a122.73,122.73,0,0,0-9.6,9.21,191.35,191.35,0,0,0-15.79,19.44,8.54,8.54,0,0,1-1.56-5.17C250.07,129.09,250.69,126.41,249.37,123.8ZM177.93,313.15a23.91,23.91,0,0,1,1.19-6.5,26.84,26.84,0,0,1,1.38-3.33,26,26,0,0,0,1.4,2.6,28.66,28.66,0,0,0,3.76,4.79c.42.44.85.85,1.29,1.25-.44,4.28-.78,8.6-1,12.92a40.81,40.81,0,0,1-6.2-5.27c-.53-.55-1-1.11-1.54-1.68A24.11,24.11,0,0,1,177.93,313.15Zm10.07,57a83.57,83.57,0,0,1-9.67,3.46c.41-.53.8-1.08,1.15-1.64a30.72,30.72,0,0,0,3.18-6.9,51.34,51.34,0,0,0,1.84-7.25,57.16,57.16,0,0,0,.85-7.37c-.41,2-.92,3.91-1.47,5.84-.12.43-.23.87-.36,1.3-.44,1.48-1,2.93-1.49,4.37a44.49,44.49,0,0,1-16.44,8.27,53.52,53.52,0,0,1-8.34,1.46,80.63,80.63,0,0,1-17-.43c-3.39-.41-6.77-1-10.14-1.64,1.35-.35,2.69-.74,4-1.2q2.65-.93,5.2-2.08t5-2.51a77.38,77.38,0,0,0,9.27-6.07,69.38,69.38,0,0,0,8.27-7.31,95.74,95.74,0,0,1-8.91,6.38c-2.61,1.64-5.28,3.18-8,4.56a41.59,41.59,0,0,1-9.38-3.81A55.16,55.16,0,0,1,120,344.39a74.35,74.35,0,0,1-6-8.33c-1-1.68-2-3.41-2.92-5.17.57.36,1.14.72,1.72,1.07a46.31,46.31,0,0,0,5.72,2.87,32.15,32.15,0,0,0,12.65,2.71l2.56,0-1.46-2.13a47.32,47.32,0,0,1-7.3-19.26,72.69,72.69,0,0,1-.91-10.43c0-1.69,0-3.4.06-5.09.38.67.76,1.35,1.17,2a39.84,39.84,0,0,0,4.82,6.21,49.14,49.14,0,0,0,12.36,9.49l3.88,2.09-2.14-3.85a32.12,32.12,0,0,1-3.95-13.82,26.15,26.15,0,0,1,.62-7.22,23.48,23.48,0,0,1,1.83-5.05,72.69,72.69,0,0,0,2.74,8,54,54,0,0,0,4.87,9.21,34.78,34.78,0,0,0,7,7.71,20.39,20.39,0,0,0,9.3,4.37,17.5,17.5,0,0,1-5.9-2.45,42.8,42.8,0,0,1,.62-5.07,35.15,35.15,0,0,1,2.31-7.79,27.93,27.93,0,0,1,2.23-4.23,38.45,38.45,0,0,0,1.8,5.73,36.51,36.51,0,0,0,4.53,8.21,34.69,34.69,0,0,0,6.47,6.73,27.41,27.41,0,0,0,7.32,4.24l0,.76a140.06,140.06,0,0,0,1,24.11,92.52,92.52,0,0,0,4.4,18.64C190.24,369.16,189.1,369.62,188,370.15Zm287.24-2a69.68,69.68,0,0,1-18.8,22.2q-2.81,2.16-5.8,4c-1.64,1-4.25,1.9-5.6,3.25-.89.88-1.74,1.59-1,2.94,1.41,2.48,8.3,2.62,10.71,3.45,3,1,5.32,2.31,6.93,5,1.37,2.3-.22,1.93-2.58,2.3A157.31,157.31,0,0,1,440,412.8c-5.44.16-11.45.58-16.94-.34l-.39-2.54a66.6,66.6,0,0,1,.68-21.91c1.34-7.46,3.08-14.84,4.56-22.27.74-3.7,1.54-7.38,2.56-11a52.4,52.4,0,0,1,1.78-5.35,13,13,0,0,1,2.86-4.8,7.52,7.52,0,0,0-.64.62,15.48,15.48,0,0,0-2.63,4,53.6,53.6,0,0,0-2.13,5.29c-1.24,3.59-2.26,7.24-3.22,10.91-1.44,5.48-2.83,10.93-4.36,16.39a67,67,0,0,0-2.93,17,79.22,79.22,0,0,0,.91,11.47l.82,5.75a5.37,5.37,0,0,0,.29.92,3,3,0,0,0,.24.47l.26.39a6.55,6.55,0,0,0,1.25,1.27,12.39,12.39,0,0,0,2.75,1.61c1.83.8,3.65,1.35,5.14,2.13a5.2,5.2,0,0,1,1.72,1.32,2.34,2.34,0,0,1,.42,1.67,4.45,4.45,0,0,1-1.9,3.09,5.44,5.44,0,0,0-.22-3.16,6.48,6.48,0,0,0-2.78-3.36,8.4,8.4,0,0,0-2-.78,12.23,12.23,0,0,0-1.87-.39,13.23,13.23,0,0,0-3.88,0,13.42,13.42,0,0,0,3.14,2.28c1.11.61,2.2,1.06,3,1.5a9.26,9.26,0,0,1,2.27,1.93,12.58,12.58,0,0,1,1.91,3l-.46-.38a16.59,16.59,0,0,1-4.4,1.92,24.58,24.58,0,0,1-5.27.85h-.19a2.69,2.69,0,0,0,.42-.89,3.62,3.62,0,0,0-.15-2.18,7.13,7.13,0,0,0-2.48-3,9.79,9.79,0,0,0-3.23-1.61,7.37,7.37,0,0,0-3.65-.16,28.07,28.07,0,0,0,2.6,2.27c.84.66,1.66,1.29,2.49,1.9a22.09,22.09,0,0,1,2.22,1.76,3.27,3.27,0,0,1,.74,1,2.59,2.59,0,0,1,.2,1.56l-.59-.61c-1.29.05-2.58.06-3.87,0a47.43,47.43,0,0,1-5.46-.57,28.45,28.45,0,0,1-5.2-1.29,18.43,18.43,0,0,1-8-6.59,26.29,26.29,0,0,1-4.28-9.83c-.8-3.58-1.14-7.33-1.7-11.11-.14-.94-.31-1.89-.49-2.84l-.6-2.77c-.44-1.85-.85-3.69-1.38-5.55a19.6,19.6,0,0,0-1-2.74c-.4-.88-.84-1.72-1.25-2.57l-2.49-5.1h0l.81,2.73.92,2.69c.31.9.64,1.79.92,2.67a20.05,20.05,0,0,1,.62,2.68c.35,1.82.6,3.69.87,5.56l.42,2.8c.15.91.28,1.83.39,2.75.46,3.6.67,7.3,1.41,11-2.73.95-5.53,1.81-8.45,2.51-21.11,5-43.26,5-64.74,2.67a311.44,311.44,0,0,1-33.1-5.43c.63-3.69,1.26-7.37,2-11,1.56-7.58,3.49-15.19,7.25-22a49.61,49.61,0,0,0-5.2,10.5,116.37,116.37,0,0,0-3.48,11.22c-1,3.8-1.79,7.63-2.6,11.44-.42,1.9-.8,3.81-1.26,5.68-.21.94-.48,1.84-.73,2.75l-.47,1.26c-.2.42-.38.85-.6,1.27a23.12,23.12,0,0,1-7,8.46,14.79,14.79,0,0,1-4.83,2.25,43.19,43.19,0,0,1-5.56,1,49.21,49.21,0,0,1-7.48.28l-.56.58a2.59,2.59,0,0,1,.2-1.56,3.27,3.27,0,0,1,.74-1,20.77,20.77,0,0,1,2.22-1.75c.83-.62,1.65-1.24,2.49-1.91a28.07,28.07,0,0,0,2.6-2.27,7.37,7.37,0,0,0-3.65.16,10,10,0,0,0-3.23,1.61,7.19,7.19,0,0,0-2.48,3,3.54,3.54,0,0,0-.15,2.18,2.79,2.79,0,0,0,.44.92c-.82-.06-1.64-.12-2.46-.22a20.84,20.84,0,0,1-5.23-1.44,13.38,13.38,0,0,1-2.19-1.15l-.46.38a12.58,12.58,0,0,1,1.91-3,9.26,9.26,0,0,1,2.27-1.93c.84-.43,1.93-.89,3-1.5a13.14,13.14,0,0,0,3.14-2.28,13.21,13.21,0,0,0-3.88.05,10.23,10.23,0,0,0-1.87.39,8,8,0,0,0-2,.77,6.52,6.52,0,0,0-2.78,3.36,5.48,5.48,0,0,0-.24,3.12,7.32,7.32,0,0,1-1.07-1.09,3.66,3.66,0,0,1-.78-1.92,2,2,0,0,1,.5-1.61,5.88,5.88,0,0,1,1.9-1.33c.79-.4,1.68-.76,2.59-1.14a26.17,26.17,0,0,0,2.8-1.34,7.85,7.85,0,0,0,2.66-2.36,6.21,6.21,0,0,0,.77-1.71,11.55,11.55,0,0,0,.37-1.6,20.91,20.91,0,0,0,.26-3.1c.05-4-.08-7.81,0-11.74s0-7.82-.18-11.73a143.87,143.87,0,0,0-2.44-23.39,60.89,60.89,0,0,0-3.42-11.28c-1.56-3.59-3.65-7.11-6.81-9.47a18,18,0,0,1,3.63,4.52,32.45,32.45,0,0,1,2.45,5.24,61.08,61.08,0,0,1,2.71,11.25,160.15,160.15,0,0,1,1.55,23.18c0,3.88,0,7.76-.11,11.66s-.06,7.87-.17,11.66c0,.47,0,.94-.09,1.4-1,0-1.89,0-2.41,0a154.42,154.42,0,0,1-17.61-.25c-2.75-.22-14.44-.57-15.14-4.64-.62-3.64,11.46-4.83,13.86-6.68,4.66-3.59-6.25-6.18-8.38-7.39-13.63-7.72-21.33-20.18-25.43-34.31A98.74,98.74,0,0,1,190.21,349a152.79,152.79,0,0,1-.9-23.47c.1-3,.27-6,.49-8.91.14-1.9.3-3.78.48-5.61.88-9.14,2.27-18.22,3.91-27.25a377.44,377.44,0,0,1,52.43-133.53c12.28-19.28,26.78-38.3,46.79-50.08a80,80,0,0,1,7.76-4l.54-.28c-.26-.67-.53-1.33-.76-2l-1.53-4.48c-.41-1.14-.82-2.29-1.34-3.42a37,37,0,0,1,7,1A35,35,0,0,1,312.7,90l.56.29.54-.38A3.65,3.65,0,0,0,315,88.32a5.13,5.13,0,0,0,.38-1.77,17.71,17.71,0,0,0-.21-3.1c-.21-1.85-.31-3.69.5-4.87s2.47-2.46,3.89-3.78c.76-.68,1.4-1.26,2.14-1.85s1.5-1.14,2.29-1.71a27.93,27.93,0,0,0,4.61-4,12.61,12.61,0,0,0,2.87-5.79,17.14,17.14,0,0,0-.05-6.31c-.19-1.06-.43-2.09-.69-3.1a67.35,67.35,0,0,1,10.94,4.55,27.87,27.87,0,0,1,10.47,9.34,18.29,18.29,0,0,1,2.59,6.39,17.16,17.16,0,0,1,.23,3.45c0,1.19-.14,2.44-.13,3.76A14.3,14.3,0,0,0,363,92.47l1,.46.31-1a28.85,28.85,0,0,0,1.29-8.44A29,29,0,0,1,368,89.8a30.59,30.59,0,0,1,.89,8.16A.41.41,0,0,1,369,98h0a120.94,120.94,0,0,1,32.92,23.32c15.23,15,25,32.84,34.41,51.77,11.43,22.94,22.15,46.28,30.8,70.43,8,22.35,15,46,17.25,69.68C486.17,331.85,484.19,351.44,475.24,368.15Z"/>    </g>    <g id="eye">        <g id="eye-color1">            <g opacity="0" ><path fill="#7778AB"  d="M276.51,144.13c-.14.46-.2.94-.35,1.4a16.7,16.7,0,0,1-1.35,2.87c-.53.94-1,1.89-1.55,2.82-.23.42-.49.81-.76,1.21l-.44.61c-.08.12-.45.47-.45.6-.19.25-.39.5-.59.74-5.88,7-13.91,9.8-22.69,6.53-8.54-3.17-14.21-10.4-14.65-19.53a1.42,1.42,0,0,1,0-.58,23.28,23.28,0,0,1,19-21.81,18.87,18.87,0,0,1,11.42,1.35c-15.3-7.71-34.36-2.93-39.3,15.33a21.13,21.13,0,0,0-.66,6.53,29.42,29.42,0,0,0,10.48,20.23c8.59,7.09,21.5,6.67,31,1.77,7.19-3.69,10-12.6,10.93-20.45C276.6,143.87,276.55,144,276.51,144.13Z"/></g><g opacity="0" ><path fill="#7778AB"  d="M400.27,138.07c-.24.61-.45,1.24-.7,1.86a25.22,25.22,0,0,1-2,3.66,31.67,31.67,0,0,1-2.54,3.43c-5.88,7-13.9,9.8-22.69,6.53-8.54-3.17-14.21-10.4-14.65-19.53a2.11,2.11,0,0,1,0-.58,23.28,23.28,0,0,1,19-21.81A18.86,18.86,0,0,1,388.19,113c-15.29-7.71-34.35-2.93-39.29,15.33a20.54,20.54,0,0,0-.66,6.53,29.34,29.34,0,0,0,10.48,20.23c8.59,7.09,21.5,6.68,31,1.77,6.9-3.54,9.72-12,10.77-19.65C400.44,137.44,400.36,137.82,400.27,138.07Z"/></g>        </g>        <g id="eye-shape">            <g opacity="0.4" ><path d="M232.2,185.18c6.52,12.52,18.21,24.54,33.43,23.53,17.63-1.17,31.58-20.12,38.41-36,2.84-6.61,3.9-15.26,4.72-22.4-2.6,11.05-7.33,21.83-15.12,30.1a42,42,0,0,1-24,13c-10,1.47-20.23-2-28.93-6.67l-.84-.46q-3.09-1.71-6-3.69c-.9-.61-3.29-1.92-4.23-2.45Z"/></g><path fill="#fbfbfb"  d="M296.65,124.62c-6.35.45-12.88,2.2-19.19,4.11a1.9,1.9,0,0,1,.8,1.34,4.38,4.38,0,0,1,0,.72,15.08,15.08,0,0,1,2.21,9.65c-.65,8.16-4.84,18.53-14.74,17.07-7.79-1.16-13.62-7.89-14.7-15.43a1.56,1.56,0,0,1-.07-.44,1.33,1.33,0,0,1,0-.45,16.86,16.86,0,0,1,.58-4.26c-2.08.68-4.18,1.35-6.27,2-8.18,2.59-16.25,5.44-23.31,10.43-4.48,3.45-8.9,7.92-6.2,13.87,1.73,3.83,5.34,6.92,8.42,9.66,7.22,6.42,15.41,12.14,24.52,15.53,16.77,6.24,34.55,1.64,46-12.29,8.84-10.76,12.91-26.35,12.57-40.14C307.08,129.16,304.19,124.09,296.65,124.62Z"/><path d="M291.52,122.42c-13.42,2.61-26.38,7-39.36,11.2-10.92,3.56-22.21,6.44-31.72,13.16-5.41,4.17-10.64,9.68-7.75,16.92,3.15,7.89,12,14,18.64,18.71,15.8,11.16,35.82,16.68,53.44,6.16,15.75-9.4,22.91-26.55,25-44.1.69-5.84,1.52-13.25-2-18.42C304,120.64,297.17,121.32,291.52,122.42Zm3.16,53.72c-11.44,13.93-29.22,18.53-46,12.29-9.11-3.39-17.3-9.11-24.52-15.53-3.08-2.74-6.69-5.83-8.42-9.66-2.7-6,1.72-10.42,6.2-13.87,7.06-5,15.13-7.84,23.31-10.43,2.09-.66,4.19-1.33,6.27-2a16.86,16.86,0,0,0-.58,4.26,1.33,1.33,0,0,0,0,.45,1.56,1.56,0,0,0,.07.44c1.08,7.54,6.91,14.27,14.7,15.43,9.9,1.46,14.09-8.91,14.74-17.07a15.08,15.08,0,0,0-2.21-9.65,8.29,8.29,0,0,1-1.79,4c-2.57,3-7.13,1.29-9-1.6a7,7,0,0,1-.68-1.37q5.31-1.67,10.67-3.16l0,0c6.31-1.91,12.84-3.66,19.19-4.11,7.54-.53,10.43,4.54,10.6,11.38C307.59,149.79,303.52,165.38,294.68,176.14Z"/><path fill="#fbfbfb"  d="M443.36,142.58c-7-3.14-14.72-5-22.13-7.08a15.62,15.62,0,0,1,0,2.56c-.68,8.28-5.55,17-15,15.73a17.48,17.48,0,0,1-14.91-14.11,1.47,1.47,0,0,1-.1-.53,1.45,1.45,0,0,1,0-.6,12.8,12.8,0,0,1,3.59-7.85,1.37,1.37,0,0,1,.51-1l1.29-1.11-3.38-1c-8.69-2.66-17.51-5.31-26.67-5.45-20.79,1.23,4.13,40.86,9.67,48.48C387,185.31,401.75,194,420.25,190.51c9-1.68,15.32-5.6,21-12.76,4.69-5.94,10.15-12.45,12.15-19.85C455.5,150,450,145.56,443.36,142.58Z"/><path d="M456.08,149.46c-2.71-6-9.73-9.13-15.59-11.23-12.28-4.4-25.09-7.3-37.62-10.9-11.9-3.42-23.71-8-36.24-8.22a1.17,1.17,0,0,0-.38,0c-20.53,1.59-6.22,30.56-.71,40.28C374.39,175,387,191.6,406,194.22a47,47,0,0,0,26.72-4.58c8.31-4.44,14-14,19.29-21.53C455.46,163.18,458.74,155.39,456.08,149.46Zm-2.7,8.44c-2,7.4-7.46,13.91-12.15,19.85-5.66,7.16-12,11.08-21,12.76-18.5,3.46-33.22-5.2-43.95-19.92-5.54-7.62-30.46-47.25-9.67-48.48,9.16.14,18,2.79,26.67,5.45l3.38,1,0,0c3,.93,6,1.81,8.85,2.57a5.31,5.31,0,0,1-1.67,3.49c-2.89,2.71-7.89.07-8.87-3.28a1.43,1.43,0,0,1-.14-.61,12.8,12.8,0,0,0-3.59,7.85,1.45,1.45,0,0,0,0,.6,1.47,1.47,0,0,0,.1.53,17.48,17.48,0,0,0,14.91,14.11c9.42,1.25,14.29-7.45,15-15.73a15.62,15.62,0,0,0,0-2.56c7.41,2.07,15.11,3.94,22.13,7.08C450,145.56,455.5,150,453.38,157.9Z"/><path fill="#fff"  d="M277.46,128.73l0,0q-5.35,1.49-10.67,3.16a7,7,0,0,0,.68,1.37c1.88,2.89,6.44,4.64,9,1.6a8.29,8.29,0,0,0,1.79-4,4.38,4.38,0,0,0,0-.72A1.9,1.9,0,0,0,277.46,128.73Z"/><path fill="#fff"  d="M394.88,130.7a1.43,1.43,0,0,0,.14.61c1,3.35,6,6,8.87,3.28a5.31,5.31,0,0,0,1.67-3.49c-2.84-.76-5.81-1.64-8.85-2.57l0,0-1.29,1.11A1.37,1.37,0,0,0,394.88,130.7Z"/><g opacity="0.4" ><path d="M231.84,184.33a40.33,40.33,0,0,0,11,12c5.8,4.39,14.79,8.18,22.15,6.74,17.34-3.39,31.08-17,37.92-32.88a74,74,0,0,0,5.53-20.77c-2.6,11.06-7.33,21.83-15.12,30.11-6.32,6.72-14.82,11.68-24,13-10,1.47-20.23-2-28.93-6.66l-.84-.46c-2.06-1.14-4.06-2.38-6-3.69-.91-.61-3.29-1.92-4.23-2.46Z"/></g><g opacity="0.4" ><path d="M439.24,185.53c-6.52,12.53-18.21,24.54-33.43,23.53-17.63-1.17-31.58-20.12-38.41-36-2.84-6.61-3.9-15.26-4.72-22.4,2.6,11.05,9.84,17.56,17.62,25.84,6.33,6.72,13.95,14.31,23.15,15.67,10,1.47,18.6,1.27,27.3-3.41l.84-.45c2.06-1.14,4.44-3.11,6.39-4.43.9-.61,2.91-2.82,3.85-3.35Z"/></g><g opacity="0.4" ><path d="M439.6,184.68a40.43,40.43,0,0,1-11,12c-5.81,4.39-14.8,8.18-22.16,6.74-17.34-3.39-31.08-17-37.91-32.88A73.63,73.63,0,0,1,363,149.82c2.6,11.06,9.85,20.6,17.63,28.87,6.33,6.73,20.33,14.45,29.61,14.92a41.67,41.67,0,0,0,17.76-2.7,31,31,0,0,0,7.9-4.61,28.78,28.78,0,0,0,3.31-3.13c.9-1,1.77-2.81,2.94-3.48Z"/></g>        </g>        <g id="eye-color2">            <path fill="#EFA16C"  d="M256.74,165.23c13.17,0,23.85-11.11,23.85-24.81a25.12,25.12,0,0,0-.13-2.62,19.45,19.45,0,0,1,0,2.64c-.65,8.16-4.84,18.53-14.74,17.07-7.79-1.16-13.62-7.89-14.7-15.43a1.56,1.56,0,0,1-.07-.44,1.33,1.33,0,0,1,0-.45,16.86,16.86,0,0,1,.58-4.26c-2.08.68-4.18,1.35-6.27,2-4.14,1.31-8.25,2.69-12.21,4.38C234.43,155.66,244.5,165.23,256.74,165.23Z"/><path fill="#EFA16C"  d="M415.27,165.43c13.12,0,23.77-11,23.91-24.54-5.84-2.18-12-3.72-17.95-5.39a15.62,15.62,0,0,1,0,2.56c-.68,8.28-5.55,17-15,15.73a17.48,17.48,0,0,1-14.91-14.11,1.47,1.47,0,0,1-.1-.53,1.45,1.45,0,0,1,0-.6c0-.37.07-.73.12-1.09a15.74,15.74,0,0,0-.25,2.82C391.16,154,402.07,165.43,415.27,165.43Z"/>        </g>    </g>    <g id="nose-mouth">        <path fill="#2d2821"  d="M362.77,216.52c0-5.82-.49-10.62-5.89-13.7-4.66-2.66-10.48-3.18-15.73-3.24-9-.11-19.62,1-27.94,5.17a4.89,4.89,0,0,0-2.32.8c-8.75,4.56-6.11,11.74-4.73,17.55,1.82,7.65,3,18.55,11.42,21.84,8.82,3.46,19.11-.21,28-1.33,3-.38,6-.69,8.9-1.31s4.08-2.44,5.65-5.2C363.73,230.85,362.74,223.5,362.77,216.52Z"/><path d="M364.48,217.33c0-3.28.22-6.85-1.1-9.93-2-4.69-6.69-7.24-11.39-8.54-7.3-2-15.27-1.67-22.7-.66a81.47,81.47,0,0,0-10.06,1.91,57.26,57.26,0,0,0-9.48,3.73c-4.88,2.29-7.45,7.3-7.49,12.56s1.52,10.15,3.1,15c.26.8.53,1.6.79,2.41,2.1,6.55,6.34,12.34,13.41,13.55a45.13,45.13,0,0,0,18.34-.73c5.74-1.4,11.81-1.12,17.53-2.63,5.4-1.43,8.48-9.28,9-14.37C364.83,225.61,364.45,221.35,364.48,217.33Zm-11,24c-2.84.6-5.75.89-8.63,1.25-8.65,1.08-18.63,4.59-27.19,1.28-8.13-3.15-9.32-13.58-11.08-20.91-1.22-5.08-2-12.61,3.4-15.59a55.63,55.63,0,0,1,5.4-2.85,42.25,42.25,0,0,1,5.39-1.84,63.43,63.43,0,0,1,11.45-1.94c2.77-.23,5.54-.31,8.31-.28,5.09.06,10.73.56,15.26,3.11,5.23,2.94,5.73,7.53,5.71,13.11,0,6.67.93,13.7-2.53,19.69C357.43,239,356.44,240.71,353.47,241.32Z"/><path d="M322,228c-.45-.28-.91-.54-1.37-.78a6.36,6.36,0,0,0-3.45-.77c-1.69.17-4.14,1.83-2.79,3.77A28.6,28.6,0,0,0,330,241.46a1.51,1.51,0,0,0,1.69-2.2A28.1,28.1,0,0,0,322,228Z"/><path d="M351.65,224.66a37.25,37.25,0,0,0-5.23,11.25,3.73,3.73,0,0,0,.26,3,2.32,2.32,0,0,0,3.32.37A13.24,13.24,0,0,0,354.39,225,1.52,1.52,0,0,0,351.65,224.66Z"/><path fill="none"  d="M355.82,253.09c-.06.07,0,0,0,0s0,0,0,0l0-.05Z"/><path fill="#fffaf0"  d="M302.92,246.24l-.23-.25c.05.14.1.27.16.41.33.93.66,1.79,1,2.76a29.56,29.56,0,0,1,.75,2.87,52.82,52.82,0,0,1,.77,5.79l.44,5.77h0l8.26-4a88.09,88.09,0,0,0-7.21-9.1Q304.91,248.36,302.92,246.24Z"/><path d="M303.79,245.46c-1.29-1.45-2.46-3-3.69-4.5l-.65.58h0l-.64.59a10.72,10.72,0,0,1,1.2,2.3c.34.86.69,1.74,1,2.64.62,1.82,1.26,3.57,1.69,5.39s.85,3.7,1.3,5.58a34.15,34.15,0,0,0,1.78,5.55h0l-.44-5.77a52.82,52.82,0,0,0-.77-5.79,29.56,29.56,0,0,0-.75-2.87c-.31-1-.64-1.83-1-2.76-.06-.14-.11-.27-.16-.41l.23.25q2,2.12,3.91,4.29a88.09,88.09,0,0,1,7.21,9.1,70,70,0,0,0-6.55-9.65C306.3,248.44,305.05,247,303.79,245.46Z"/><path fill="#fffaf0"  d="M361.42,256.3c-.07-.08-.14-.06-.25-.25a1.13,1.13,0,0,1,0-.36l0-.27-.05-.52c-.09-.7-.13-1.44-.17-2.16a37.69,37.69,0,0,1-.07-4.39,36.76,36.76,0,0,1,.69-4.36v0a30.05,30.05,0,0,0-2.3,4.06c-.64,1.35-1.14,2.77-1.79,4.16-.16.34-.33.69-.5,1l-.12.25,0,.13,0,.09a.64.64,0,0,1-.07.12l0,0a.56.56,0,0,1-.16.1.05.05,0,0,1,0,0c-.19.34-.41.66-.63,1h0l6.21,1.86-.4-.37Z"/><path d="M362.53,239.34a43.58,43.58,0,0,0-2.76,3.78,28.69,28.69,0,0,0-2.17,4.19,35.68,35.68,0,0,0-1.55,4.38c-.1.37-.19.74-.27,1.13l-.06.3,0,.21a.47.47,0,0,0,0,.13.49.49,0,0,0,.11.33.74.74,0,0,0,.16.12c-.05.35-.1.7-.14,1.06h0c.22-.33.44-.65.63-1a.05.05,0,0,0,0,0,.56.56,0,0,0,.16-.1l0,0a.64.64,0,0,0,.07-.12l0-.09,0-.13.12-.25c.17-.33.34-.68.5-1,.65-1.39,1.15-2.81,1.79-4.16a30.05,30.05,0,0,1,2.3-4.06v0a36.76,36.76,0,0,0-.69,4.36,37.69,37.69,0,0,0,.07,4.39c0,.72.08,1.46.17,2.16l.05.52,0,.27a1.13,1.13,0,0,0,0,.36c.11.19.18.17.25.25l.2.16.4.37c-.07-.17-.14-.33-.23-.5l-.14-.25c0-.06-.14-.19-.1-.16s0-.1.07-.18l.07-.27a5.35,5.35,0,0,0,.11-.55c.12-.74.16-1.44.23-2.16.14-1.43.24-2.86.46-4.23s.59-2.71.91-4.13.64-2.83.87-4.27l.59-3.72Zm-6.75,13.8s0,0,0,0l0,0,0,.05S355.79,253.14,355.78,253.14Z"/><path d="M281.86,261.55a1.5,1.5,0,0,0,0-3,1.5,1.5,0,0,0,0,3Z"/><path d="M289,268a1.5,1.5,0,0,0,0-3,1.5,1.5,0,0,0,0,3Z"/><path d="M298.72,258.31a1.5,1.5,0,0,0,0-3,1.5,1.5,0,0,0,0,3Z"/><path d="M277.32,251.17a1.5,1.5,0,0,0,0-3,1.5,1.5,0,0,0,0,3Z"/><path d="M289,244.69a1.5,1.5,0,0,0,0-3,1.5,1.5,0,0,0,0,3Z"/><path d="M288.53,256.53a1.5,1.5,0,0,0,0-3,1.5,1.5,0,0,0,0,3Z"/><path d="M366.47,253.18a1.5,1.5,0,0,0,0-3,1.5,1.5,0,0,0,0,3Z"/><path d="M375.24,238.21a1.5,1.5,0,0,0,0-3,1.5,1.5,0,0,0,0,3Z"/><path d="M375.24,247.93a1.5,1.5,0,0,0,0-3,1.5,1.5,0,0,0,0,3Z"/><path d="M376.54,257.66a1.5,1.5,0,0,0,0-3,1.5,1.5,0,0,0,0,3Z"/><path d="M386.91,255.07a1.5,1.5,0,0,0,0-3,1.5,1.5,0,0,0,0,3Z"/><path d="M387.56,244a1.5,1.5,0,0,0,0-3,1.5,1.5,0,0,0,0,3Z"/><path d="M383.67,249.23a1.5,1.5,0,0,0,0-3,1.5,1.5,0,0,0,0,3Z"/><path d="M370.7,260.9a1.5,1.5,0,0,0,0-3,1.5,1.5,0,0,0,0,3Z"/><path d="M298.67,266.39a9.31,9.31,0,0,0,4.5-1.28c1.38-.75,2.77-1.58,4.15-2.38,2.78-1.6,5.5-3.24,8.05-5.05s4.89-3.94,7.53-5.92a22.08,22.08,0,0,1,9.22-4.3,24.22,24.22,0,0,1,10.12.58,54.42,54.42,0,0,1,9.2,3.44c5.83,2.74,11.55,5.6,17.19,8.72-6.12-2-12.14-4.24-18.1-6.56a65.31,65.31,0,0,0-8.95-2.84,30.34,30.34,0,0,0-4.5-.66,19.21,19.21,0,0,0-4.43.27,19.59,19.59,0,0,0-8.1,3.65c-2.58,1.73-5.05,3.86-7.89,5.56A68.07,68.07,0,0,1,308,264c-1.49.62-2.93,1.29-4.48,1.84A9,9,0,0,1,298.67,266.39Z"/>    </g></svg>