<!--  ~ Copyright (C) 2018 Baidu, Inc. All Rights Reserved.  --><svg viewBox="0 0 640 480" xmlns="http://www.w3.org/2000/svg">    <g id="back-ground-cl">        <rect fill="none" width="640" height="480" />        <ellipse opacity="0.1" cx="331.93" cy="418.82" rx="168.39" ry="32.01"/>    </g>    <g id="body">        <defs>            <clipPath id="outline">                <path d="M452.79,396.45a74.64,74.64,0,0,0,11.24-8.8c13.41-12.74,20.76-30.16,23-48.33,2.74-21.85-1.67-43.92-7.23-65-.26-1-.53-2-.8-2.95C484.77,254.69,475,232,466,218.91c-2.06-3-4.26-5.89-6.55-8.72,5.27-2,9.82-5.7,11.79-12.19,7.21-23.69-25.32-71.16-56-92-12-8.11-30-17.2-48.08-14.51-1.38.21-2.68.47-3.89.77-13.05-5-27.1-7.16-41.07-5.33a76.35,76.35,0,0,0-18.43,4.89c-.61-.12-1.23-.23-1.87-.33-18.07-2.69-36.12,6.4-48.09,14.51-30.69,20.8-63.22,68.27-56,92,2.29,7.56,8.08,11.31,14.44,13.06-.09.21-.19.43-.27.64-.58.58-1.17,1.14-1.74,1.72a71.11,71.11,0,0,0-18.36,34c-1.89,8.09-2.48,18.7,1.32,26.7q-.93,4.44-1.77,8.91c-3.19,17.56-5.52,35.46-5,53.34a124.13,124.13,0,0,0,2.93,24.35,21.68,21.68,0,0,1-12.22-1.83,23.68,23.68,0,0,1-10.27-10.33,36.35,36.35,0,0,1-4-14.28A30.84,30.84,0,0,1,165,319.67l1.67-3.79-2.92,2.93a30.86,30.86,0,0,0-5.92,8.75,43.78,43.78,0,0,0-3.3,10,36.18,36.18,0,0,0,1.62,20.78,28.54,28.54,0,0,0,5.8,8.83,32.61,32.61,0,0,0,8.47,6.25,34.12,34.12,0,0,0,20.45,3.69,38.08,38.08,0,0,0,3.86-.73,63.27,63.27,0,0,0,3.75,6.85,52.62,52.62,0,0,0,21.1,19.2c.91.46,1.84.89,2.78,1.31a11.42,11.42,0,0,0,1.25.53l.49.2c-.49.15-1,.36-1.45.52-1.7.58-3.42,1.11-5.11,1.72-3.3,1.19-9.11,3.11-6.74,7.74,2.06,4,8.64,4.75,12.49,5.28a123.81,123.81,0,0,0,19.35.87c1.4,0,3.42.1,5.44,0a3.91,3.91,0,0,1-.43.94,4.48,4.48,0,0,1-.77.81,20.81,20.81,0,0,1-4.84,2.41,16.84,16.84,0,0,0-2.77,1.41,5.55,5.55,0,0,0-2.33,2.74,6.28,6.28,0,0,0,2,6.48,11.73,11.73,0,0,0,2.6,1.84,19.49,19.49,0,0,0,2.82,1.24,21.22,21.22,0,0,0,2.93.82,26.7,26.7,0,0,0,3,.45,49.12,49.12,0,0,0,11.81-.34,39.28,39.28,0,0,0,5.82-1.31,17.34,17.34,0,0,0,5.36-3,25.06,25.06,0,0,0,7.12-9.57,12.5,12.5,0,0,0,.55-1.41,12,12,0,0,0,.44-1.45c.27-1,.47-1.91.67-2.87s.4-2,.59-3.07l.32.07c22.75,4.9,46.19,7.78,69.48,6.66A158.18,158.18,0,0,0,384.12,419c2.24-.58,4.46-1.23,6.67-1.93a28.42,28.42,0,0,0,3.17,7.31,21.75,21.75,0,0,0,8.19,8c.44.21.88.45,1.34.62l.69.28.7.23c.94.3,1.84.5,2.77.71a50.13,50.13,0,0,0,5.58.86,46.31,46.31,0,0,0,11.33-.32A23.23,23.23,0,0,0,430.1,433a14.18,14.18,0,0,0,2.58-1.54,8.69,8.69,0,0,0,2.19-2.32,6.54,6.54,0,0,0,1-3.22,4.84,4.84,0,0,0-1.16-3.36,8,8,0,0,0-2.59-1.91,28.21,28.21,0,0,0-2.66-1.13,19.06,19.06,0,0,1-4.67-2.19,4.64,4.64,0,0,1-.78-.75,2,2,0,0,1-.42-.81,4.13,4.13,0,0,1-.1-.44l.86.08a141.4,141.4,0,0,0,21.19.06c5.56-.3,11.61-.37,17-1.79,4.09-1.08,2.59-5.49.27-8-3.66-4-9.54-4.72-14.51-6l-.47-.14c.33-.21.63-.44.78-.52Q450.74,397.77,452.79,396.45,7.4,15.15a139.56,139.56,0,0,1-19.05,1.56c-5.87.2-12.06.51-17.92-.35-.13-3.43,0-7,.26-10.46.23-3.66.52-7.31.86-11,.7-7.31,1.55-14.61,2.69-21.86.55-3.63,1.18-7.25,2-10.83.4-1.79.86-3.57,1.43-5.31a24.1,24.1,0,0,1,1-2.57,9.33,9.33,0,0,1,.64-1.21,5.14,5.14,0,0,1,.84-1.08q-.19.18-.39.39a3.28,3.28,0,0,0-.53.64,7.92,7.92,0,0,0-.72,1.18,24,24,0,0,0-1.15,2.53c-.66,1.72-1.21,3.49-1.71,5.27-1,3.56-1.81,7.16-2.55,10.78-1.42,7.24-2.53,14.54-3.4,21.87-.45,3.66-.83,7.33-1.11,11a108.58,108.58,0,0,0-.42,11.16c0,.48,0,1,.1,1.47a9.51,9.51,0,0,0,.27,1.53,4.59,4.59,0,0,0,.33.86,5.89,5.89,0,0,0,.5.76,6.57,6.57,0,0,0,1.19,1.17,21.14,21.14,0,0,0,5.26,2.55c1.67.65,3.38,1.34,4.25,2.37a2.16,2.16,0,0,1,.46.8,2.38,2.38,0,0,1,.12.94,4,4,0,0,1-.61,2,6.77,6.77,0,0,1-1.73,1.78,5.45,5.45,0,0,0-.23-3.53,6.6,6.6,0,0,0-2.73-3.23,9,9,0,0,0-1.92-.77,13.34,13.34,0,0,0-1.86-.42,15.43,15.43,0,0,0-3.81-.26,16,16,0,0,0,3.21,2.08c.54.29,1.16.53,1.64.78a16,16,0,0,1,1.48.69,8.65,8.65,0,0,1,2.32,2.06,11.21,11.21,0,0,1,1.72,3.09l-.23-.2a13,13,0,0,1-1.59.89,20.13,20.13,0,0,1-4.94,1.61,38.82,38.82,0,0,1-3.92.41,2.62,2.62,0,0,0,.64-1.21,3.6,3.6,0,0,0-.21-2.07,7.25,7.25,0,0,0-2.46-2.88A10.77,10.77,0,0,0,415,425a8.21,8.21,0,0,0-3.56-.36c.94.81,1.84,1.44,2.71,2.08l2.56,1.88a15.93,15.93,0,0,1,2.25,1.87,3.27,3.27,0,0,1,.68,1.14,2.54,2.54,0,0,1,.07,1.56h0l-.3-.31a51.85,51.85,0,0,1-6-.1,45.54,45.54,0,0,1-5.33-.74c-.86-.18-1.77-.37-2.59-.62l-.61-.18-.6-.23c-.4-.15-.78-.35-1.17-.53a20.35,20.35,0,0,1-7.56-7.11,26.78,26.78,0,0,1-2.44-4.73,30.8,30.8,0,0,1-1.5-5.15c-.75-3.54-1.07-7.22-1.68-10.88-.31-1.83-.72-3.63-1.09-5.43s-.76-3.61-1.25-5.4a31.41,31.41,0,0,0-2-5.17c-.77-1.67-1.5-3.36-2.22-5.06h0c.6,1.74,1.22,3.48,1.88,5.2a31.91,31.91,0,0,1,1.75,5.18c.39,1.78.67,3.6,1,5.42s.6,3.63.81,5.44c.46,3.62.66,7.31,1.29,11,.05.31.12.62.17.92q-3.93,1.26-7.94,2.24c-21.55,5.31-44.22,5.26-66.17,2.9a315.35,315.35,0,0,1-33-5.44,1.7,1.7,0,0,1,0-.22c.66-3.79,1.32-7.58,2.13-11.33a112.43,112.43,0,0,1,2.85-11.15c.56-1.83,1.24-3.63,2-5.41.39-.87.76-1.76,1.17-2.63l1.34-2.56a49.29,49.29,0,0,0-5.08,10.39,113.52,113.52,0,0,0-3.41,11.09c-.95,3.75-1.74,7.53-2.54,11.3-.4,1.88-.78,3.77-1.21,5.63-.22.92-.44,1.85-.7,2.74-.12.46-.28.88-.43,1.3a11.51,11.51,0,0,1-.54,1.27,25.12,25.12,0,0,1-2.87,4.75,20.33,20.33,0,0,1-3.83,3.92,15,15,0,0,1-4.73,2.53,37.08,37.08,0,0,1-5.47,1.14,48.54,48.54,0,0,1-8.69.42l-.3.31a2.61,2.61,0,0,1,.07-1.56,3.35,3.35,0,0,1,.69-1.14,15.38,15.38,0,0,1,2.25-1.87l2.56-1.88c.87-.64,1.77-1.28,2.7-2.08a8.07,8.07,0,0,0-3.56.36,10.86,10.86,0,0,0-3.17,1.64,7.25,7.25,0,0,0-2.45,2.89,3.44,3.44,0,0,0-.21,2.07,2.44,2.44,0,0,0,.63,1.2c-.58,0-1.17-.06-1.76-.11a21.28,21.28,0,0,1-2.71-.42,20.19,20.19,0,0,1-2.63-.75,15.57,15.57,0,0,1-2.46-1.09q-.45-.25-.87-.54l-.24.21a11.07,11.07,0,0,1,1.72-3.09,8.47,8.47,0,0,1,2.31-2.06c.4-.26,1-.44,1.48-.69s1.11-.49,1.65-.78a16,16,0,0,0,3.21-2.08,15.52,15.52,0,0,0-3.82.25,14.88,14.88,0,0,0-1.85.43,8.76,8.76,0,0,0-1.92.77,6.62,6.62,0,0,0-2.74,3.23,5.52,5.52,0,0,0-.23,3.51,8.54,8.54,0,0,1-.79-.65,5,5,0,0,1-1.32-1.88l-.15-.51a3.6,3.6,0,0,1-.07-.55,2.44,2.44,0,0,1,.12-.95c.37-1.16,2-2.05,3.75-2.76.87-.37,1.77-.73,2.69-1.16a11.85,11.85,0,0,0,2.73-1.64,6.24,6.24,0,0,0,1.2-1.3,4.92,4.92,0,0,0,.45-.81,3.83,3.83,0,0,0,.17-.43l.13-.38a14,14,0,0,0,.55-3.08c.15-2,.1-3.95.08-5.88s0-3.84,0-5.76c0-3.85,0-7.72-.07-11.58a136.93,136.93,0,0,0-2.14-23.11,56.9,56.9,0,0,0-3.33-11.14,29.71,29.71,0,0,0-2.8-5.1,18.48,18.48,0,0,0-4-4.21,18.46,18.46,0,0,1,3.67,4.41,30.51,30.51,0,0,1,2.5,5.14,56.43,56.43,0,0,1,2.76,11.11A149.87,149.87,0,0,1,249,395c0,3.84-.11,7.68-.17,11.53,0,1.93-.05,3.87-.06,5.8s0,3.85-.16,5.66v0c-1.1.05-2.22,0-3.24.06a152.3,152.3,0,0,1-17.49-.3c-3.1-.25-14-.56-15-4.78-.92-3.7,11.24-5.38,13.71-6.89,1.07-.65,1.92-1.43,1.08-2.69-.51-.77-2.13-1-2.87-1.31a53.66,53.66,0,0,1-7-3.46c-29.69-17.42-30.85-57.46-27.9-87.79.89-9.12,2.27-18.19,3.91-27.2.4-2.13.84-4.25,1.27-6.38.24.34.47.68.73,1,8.93,11,22.83,13,36.08,10.45,15.68-3.06,28.91-12.2,35.48-27.08.17-.38-.09-2.1-.26-1.73-5.34,11.83-15.6,20-27.91,23.72-11.64,3.51-25.2,5-35.89-1.79-4.29-2.73-8.23-6.37-10.12-11.17-3.28-8.31-2.17-17.46.46-25.77A72,72,0,0,1,211.73,215c8.9-9,19.15-16.63,26.84-26.74.27-.34-.07-1.79-.14-1.72-6.78,7.6-14.65,14.05-22.1,21a371.61,371.61,0,0,1,30.89-59.11c12.3-19.09,26.91-37.83,46.94-49.29A77.49,77.49,0,0,1,352,91.27c18.78,4.74,35.69,15.5,49.51,28.88,15.58,15.07,25.54,33.13,35.11,52.34q6.32,12.64,12.27,25.49c-4.46-4.91-9-9.74-13.36-14.69,0,0-.33,1.37-.06,1.73,7.17,9.45,15.54,17.92,23.06,27.09,7.94,9.7,14.4,20.1,18.42,32,4.38,13,4.57,28.19-7.4,37-10.07,7.37-22.18,6.93-33.9,4.18-13.94-3.26-25.83-11.49-31.82-24.77-.16-.35-.35,1.34-.18,1.74a46.06,46.06,0,0,0,28.79,25.41c12.81,3.87,26.82,4.45,37.83-4a25.79,25.79,0,0,0,7.37-8.87,234,234,0,0,1,7.21,37.79c1.84,18.56,0,38.06-8.63,54.83a70.25,70.25,0,0,1-17.73,22c-4,3.29-8.6,5.43-12.75,8.42-1,.7-2,1.43-1.29,2.75.54,1,2.24,1.25,3.21,1.49,2.43.62,4.9,1,7.28,1.84,2.62.88,5.65,2.17,7,4.74C463.39,411.29,463,411.1,460.19,411.6,180.61,375.44a32.84,32.84,0,0,1-9.51-3.34,31.2,31.2,0,0,1-8.08-6,27.16,27.16,0,0,1-5.45-8.38,34.52,34.52,0,0,1-1.45-19.87,42.71,42.71,0,0,1,3.13-9.63,34.81,34.81,0,0,1,2.94-5.1,35.37,35.37,0,0,0-.87,11.22,37.54,37.54,0,0,0,4.27,14.84,24.63,24.63,0,0,0,11,10.85,23,23,0,0,0,13.07,1.77,78.22,78.22,0,0,0,4.51,13.32c-1.13.25-2.28.46-3.44.6A33.74,33.74,0,0,1,180.61,375.44,33-223.37c11.17-17.51,26.69-34,41.51-44,17-11.52,30.56-14.56,40.15-14.56a40.82,40.82,0,0,1,4.13.2c-12,5.59-22.63,14-31.76,23.72-16.54,17.64-29.32,39.12-40.36,60.51q-7.8,15.1-14.19,30.86c-6.86-1.78-11.23-5.62-13-11.51C197,187,201.9,170.49,213.64,152.07,200.19-44c14.82,10,30.33,26.49,41.51,44,11.74,18.42,16.68,34.9,13.54,45.22-1.61,5.31-5.32,9-11.06,10.93q-1.74-2.1-3.52-4.14L453,201.17c-5.38-11.89-11.09-23.63-17-35.28-5-9.83-9.94-19.56-16.41-28.51-11.53-15.93-26.35-29.79-43.68-39.22q-4.2-2.28-8.6-4.18l.32,0C384.89,91.43,402.28,100.24,413.83,108.07Z"/><path d="M338.67,328.5c-23.56,2.27-47.86-6.38-63.87-23.94,0,0-.17.61,0,.77,16,17.76,40.23,26.78,63.93,24.71,24.15-2.11,46.52-15.4,61.49-34.21.22-.28-.08-1.36-.11-1.32C384.71,313,362.86,326.17,338.67,328.5Z"/><path d="M383.49,318.68C360.41,342.39,318,348.86,292,326.47c-.05,0-.23.82,0,1,25.9,22.51,69,17.29,91.63-7.56C383.8,319.67,383.54,318.62,383.49,318.68Z"/><path d="M364.32,339.39c-14.65,11.7-38.81,13.35-54.78,3.49-.1-.07-.27,1,0,1.14,16.06,9.91,40.28,8.73,54.92-3.37C364.66,340.45,364.41,339.31,364.32,339.39Z"/>            </clipPath>        </defs>        <g clip-path="url(#outline)">            <rect fill="#7778AB" width="640" height="480" />        </g>    </g>    <g id="pattern">        <g clip-path="url(#outline)">            <rect fill="#E8D3B3" opacity="0"  x="0.28" y="0.55" width="640" height="480"/>            <g opacity="0.6" ><path fill="#C6DBC6"  d="M287.16,418.67c1.87-23.1,18-47.8,35.46-47.47,6.9.13,9,7.55,15.12,7.54s10.44-5.62,14.93-7.33c9.31-3.54,20.26,5.37,26.22,16.84,4.62,8.9,6.72,20.51,7.47,30.79.12,1.64-.53,1.82-2,2.51-2.33,1.08-3.57.86-6.43,1.67-14.89,4.2-29,4.06-44.39,3.93a153.5,153.5,0,0,1-45.95-7.74"/></g>        </g>    </g>    <g id="mask">        <path fill="#2d2926"  d="M213.56,210.2a355,355,0,0,1,14.69-32.5c11-21.26,23.72-42.6,40.14-60.17,10.31-11,21.63-19.6,35.51-25.11-11-2.19-26.86-1.57-49.24,13.6-30.73,20.82-63.28,68.38-56,92.15C200.9,205.71,207.25,208.4,213.56,210.2Z"/><g opacity="0.1" ><path d="M485.51,334.54c.23,1.7-3.52,6.77-4.44,8.49-1.83,3.4-3.71,6.78-5.7,10.08a108.63,108.63,0,0,1-13.27,18.12A63,63,0,0,1,451,380.69a59.81,59.81,0,0,1-6.28,3.67,33.35,33.35,0,0,1-5.55,2.51c-4,1.16-6.17-2.21-7.35-5.52a39.48,39.48,0,0,1-2.34-17.54A119.55,119.55,0,0,1,432,349.39l-1.94,4.49c-3.08,11.13-4.6,22.56-6.05,34a4.58,4.58,0,0,0,.26,2.19,3.53,3.53,0,0,0-.88.73c-2.06,2.52-.69,11.1-.81,14.31a.64.64,0,0,0,.09.45c.16.19.46.14.69.07,8.49-2.29,16.42-3.94,24.1-8.21,9.5-5.3,18.46-12.14,24.87-20.77a61.25,61.25,0,0,0,7.68-15.13C483.16,352.82,486.78,343.7,485.51,334.54Z"/></g><g opacity="0.1" ><path d="M246.88,148.34a612.54,612.54,0,0,0-33.1,62.91c8.38-5.8,13.8-13.69,21.7-20.06a7.16,7.16,0,0,1,2.93-3.51c8.64-16.15,18.87-31.16,29.1-46.64,10.81-16.34,17.68-34.19,32.7-46.78C276.51,107.37,262.08,122.84,246.88,148.34Z"/></g><g opacity="0.1" ><path d="M250.25,399.07c0-.15,0-.29,0-.43-17.15-5.78-32.41-19.19-39.86-35.48-4-8.82-6.15-18.92-6.21-30.42a373.79,373.79,0,0,1,2.94-47.53c-5.46-2.15-10.27-5.44-12.89-10.91a.27.27,0,0,1-.08-.07c-2.08,11.46-3.53,23-4.49,34.65-2,24.3-2.64,58.64,14.54,78.45,10,11.56,21.68,18.57,39.46,20.83,2.16.27,4.37.57,6.6.88C249.76,405.73,250.31,402.49,250.25,399.07Z"/></g><g opacity="0.1" ><path d="M390.18,411.22c-.7-9.29-.91-9.28-.9-9.28-5.31,1.25-9.09,4.25-14.4,5.48a160.1,160.1,0,0,1-19.48,2.95c-22.09,2.28-44.5.82-66.38-2.85a29.78,29.78,0,0,1-1.73-13.09,100.57,100.57,0,0,0-4,15.41,33,33,0,0,1-.63,4.66c0,.15-.08.3-.12.44,1.1.25,3.19.5,4.25.75,14.95,5.54,32.83,6.73,48.08,6.86,15.71.13,34.8-1.09,45.13-4.91,2.87-1.06,9.14-1.62,10.5-3.05C391.71,413.32,390.3,412.83,390.18,411.22Z"/></g><g opacity="0.1" ><path fill="#fff"  d="M480.63,289.33q-1.54-8.4-3.58-16.68a19.76,19.76,0,0,1-8.87,11.21c2.5,11.55,4.49,23.21,6.07,34.92,1.4,10.34,4.07,22.69-2.47,31.88,4.28-6,9.86-10.61,11.34-14.66C488.39,321.62,483.31,303.82,480.63,289.33Z"/></g><path fill="#2d2926"  d="M376.41,99.41C393.86,109,408.2,123,419.73,139.13c6.56,9.19,10.9,18.71,15.95,28.77,5.92,11.76,11.19,22.71,16.58,34.72,1.24,2.76,4.58,4.42,5.79,7.19,6.09-1.85,10-4.78,12.24-12.11,7.23-23.77-25.09-70.54-55.82-91.36-23.6-16-40.32-15.9-51.21-13.22A107.1,107.1,0,0,1,376.41,99.41Z"/>        <g opacity="0.1" ><path fill="#fff"  d="M453.7,203.8c-11.28-27.21-25.53-53.08-44.83-75.49-16.21-18.84-29.22-25.15-29.44-25.34,6.06,5.3,10.42,13.69,14.49,20.5,13.25,22.2,26.95,45.74,44.62,65,4.78,5.2,10.2,9.29,14.09,15.33.63,1,1.23,2,1.81,3C453.38,204.15,454.78,206.41,453.7,203.8Z"/></g><g opacity="0.1" ><path fill="#fff"  d="M481.6,289.23c-1-5.6-3.2-11.06-4.55-16.58a19.71,19.71,0,0,1-8.87,11.2c2.5,11.56,4.49,23.21,6.07,34.93,1.4,10.33,4.07,22.69-2.47,31.88,4.28-6,9.86-10.61,11.34-14.66C488.39,321.61,484.27,303.72,481.6,289.23Z"/></g>    </g>    <g id="outline">        <path d="M452.79,396.45a74.64,74.64,0,0,0,11.24-8.8c13.41-12.74,20.76-30.16,23-48.33,2.74-21.85-1.67-43.92-7.23-65-.26-1-.53-2-.8-2.95C484.77,254.69,475,232,466,218.91c-2.06-3-4.26-5.89-6.55-8.72,5.27-2,9.82-5.7,11.79-12.19,7.21-23.69-25.32-71.16-56-92-12-8.11-30-17.2-48.08-14.51-1.38.21-2.68.47-3.89.77-13.05-5-27.1-7.16-41.07-5.33a76.35,76.35,0,0,0-18.43,4.89c-.61-.12-1.23-.23-1.87-.33-18.07-2.69-36.12,6.4-48.09,14.51-30.69,20.8-63.22,68.27-56,92,2.29,7.56,8.08,11.31,14.44,13.06-.09.21-.19.43-.27.64-.58.58-1.17,1.14-1.74,1.72a71.11,71.11,0,0,0-18.36,34c-1.89,8.09-2.48,18.7,1.32,26.7q-.93,4.44-1.77,8.91c-3.19,17.56-5.52,35.46-5,53.34a124.13,124.13,0,0,0,2.93,24.35,21.68,21.68,0,0,1-12.22-1.83,23.68,23.68,0,0,1-10.27-10.33,36.35,36.35,0,0,1-4-14.28A30.84,30.84,0,0,1,165,319.67l1.67-3.79-2.92,2.93a30.86,30.86,0,0,0-5.92,8.75,43.78,43.78,0,0,0-3.3,10,36.18,36.18,0,0,0,1.62,20.78,28.54,28.54,0,0,0,5.8,8.83,32.61,32.61,0,0,0,8.47,6.25,34.12,34.12,0,0,0,20.45,3.69,38.08,38.08,0,0,0,3.86-.73,63.27,63.27,0,0,0,3.75,6.85,52.62,52.62,0,0,0,21.1,19.2c.91.46,1.84.89,2.78,1.31a11.42,11.42,0,0,0,1.25.53l.49.2c-.49.15-1,.36-1.45.52-1.7.58-3.42,1.11-5.11,1.72-3.3,1.19-9.11,3.11-6.74,7.74,2.06,4,8.64,4.75,12.49,5.28a123.81,123.81,0,0,0,19.35.87c1.4,0,3.42.1,5.44,0a3.91,3.91,0,0,1-.43.94,4.48,4.48,0,0,1-.77.81,20.81,20.81,0,0,1-4.84,2.41,16.84,16.84,0,0,0-2.77,1.41,5.55,5.55,0,0,0-2.33,2.74,6.28,6.28,0,0,0,2,6.48,11.73,11.73,0,0,0,2.6,1.84,19.49,19.49,0,0,0,2.82,1.24,21.22,21.22,0,0,0,2.93.82,26.7,26.7,0,0,0,3,.45,49.12,49.12,0,0,0,11.81-.34,39.28,39.28,0,0,0,5.82-1.31,17.34,17.34,0,0,0,5.36-3,25.06,25.06,0,0,0,7.12-9.57,12.5,12.5,0,0,0,.55-1.41,12,12,0,0,0,.44-1.45c.27-1,.47-1.91.67-2.87s.4-2,.59-3.07l.32.07c22.75,4.9,46.19,7.78,69.48,6.66A158.18,158.18,0,0,0,384.12,419c2.24-.58,4.46-1.23,6.67-1.93a28.42,28.42,0,0,0,3.17,7.31,21.75,21.75,0,0,0,8.19,8c.44.21.88.45,1.34.62l.69.28.7.23c.94.3,1.84.5,2.77.71a50.13,50.13,0,0,0,5.58.86,46.31,46.31,0,0,0,11.33-.32A23.23,23.23,0,0,0,430.1,433a14.18,14.18,0,0,0,2.58-1.54,8.69,8.69,0,0,0,2.19-2.32,6.54,6.54,0,0,0,1-3.22,4.84,4.84,0,0,0-1.16-3.36,8,8,0,0,0-2.59-1.91,28.21,28.21,0,0,0-2.66-1.13,19.06,19.06,0,0,1-4.67-2.19,4.64,4.64,0,0,1-.78-.75,2,2,0,0,1-.42-.81,4.13,4.13,0,0,1-.1-.44l.86.08a141.4,141.4,0,0,0,21.19.06c5.56-.3,11.61-.37,17-1.79,4.09-1.08,2.59-5.49.27-8-3.66-4-9.54-4.72-14.51-6l-.47-.14c.33-.21.63-.44.78-.52Q450.74,397.77,452.79,396.45Zm7.4,15.15a139.56,139.56,0,0,1-19.05,1.56c-5.87.2-12.06.51-17.92-.35-.13-3.43,0-7,.26-10.46.23-3.66.52-7.31.86-11,.7-7.31,1.55-14.61,2.69-21.86.55-3.63,1.18-7.25,2-10.83.4-1.79.86-3.57,1.43-5.31a24.1,24.1,0,0,1,1-2.57,9.33,9.33,0,0,1,.64-1.21,5.14,5.14,0,0,1,.84-1.08q-.19.18-.39.39a3.28,3.28,0,0,0-.53.64,7.92,7.92,0,0,0-.72,1.18,24,24,0,0,0-1.15,2.53c-.66,1.72-1.21,3.49-1.71,5.27-1,3.56-1.81,7.16-2.55,10.78-1.42,7.24-2.53,14.54-3.4,21.87-.45,3.66-.83,7.33-1.11,11a108.58,108.58,0,0,0-.42,11.16c0,.48,0,1,.1,1.47a9.51,9.51,0,0,0,.27,1.53,4.59,4.59,0,0,0,.33.86,5.89,5.89,0,0,0,.5.76,6.57,6.57,0,0,0,1.19,1.17,21.14,21.14,0,0,0,5.26,2.55c1.67.65,3.38,1.34,4.25,2.37a2.16,2.16,0,0,1,.46.8,2.38,2.38,0,0,1,.12.94,4,4,0,0,1-.61,2,6.77,6.77,0,0,1-1.73,1.78,5.45,5.45,0,0,0-.23-3.53,6.6,6.6,0,0,0-2.73-3.23,9,9,0,0,0-1.92-.77,13.34,13.34,0,0,0-1.86-.42,15.43,15.43,0,0,0-3.81-.26,16,16,0,0,0,3.21,2.08c.54.29,1.16.53,1.64.78a16,16,0,0,1,1.48.69,8.65,8.65,0,0,1,2.32,2.06,11.21,11.21,0,0,1,1.72,3.09l-.23-.2a13,13,0,0,1-1.59.89,20.13,20.13,0,0,1-4.94,1.61,38.82,38.82,0,0,1-3.92.41,2.62,2.62,0,0,0,.64-1.21,3.6,3.6,0,0,0-.21-2.07,7.25,7.25,0,0,0-2.46-2.88A10.77,10.77,0,0,0,415,425a8.21,8.21,0,0,0-3.56-.36c.94.81,1.84,1.44,2.71,2.08l2.56,1.88a15.93,15.93,0,0,1,2.25,1.87,3.27,3.27,0,0,1,.68,1.14,2.54,2.54,0,0,1,.07,1.56h0l-.3-.31a51.85,51.85,0,0,1-6-.1,45.54,45.54,0,0,1-5.33-.74c-.86-.18-1.77-.37-2.59-.62l-.61-.18-.6-.23c-.4-.15-.78-.35-1.17-.53a20.35,20.35,0,0,1-7.56-7.11,26.78,26.78,0,0,1-2.44-4.73,30.8,30.8,0,0,1-1.5-5.15c-.75-3.54-1.07-7.22-1.68-10.88-.31-1.83-.72-3.63-1.09-5.43s-.76-3.61-1.25-5.4a31.41,31.41,0,0,0-2-5.17c-.77-1.67-1.5-3.36-2.22-5.06h0c.6,1.74,1.22,3.48,1.88,5.2a31.91,31.91,0,0,1,1.75,5.18c.39,1.78.67,3.6,1,5.42s.6,3.63.81,5.44c.46,3.62.66,7.31,1.29,11,.05.31.12.62.17.92q-3.93,1.26-7.94,2.24c-21.55,5.31-44.22,5.26-66.17,2.9a315.35,315.35,0,0,1-33-5.44,1.7,1.7,0,0,1,0-.22c.66-3.79,1.32-7.58,2.13-11.33a112.43,112.43,0,0,1,2.85-11.15c.56-1.83,1.24-3.63,2-5.41.39-.87.76-1.76,1.17-2.63l1.34-2.56a49.29,49.29,0,0,0-5.08,10.39,113.52,113.52,0,0,0-3.41,11.09c-.95,3.75-1.74,7.53-2.54,11.3-.4,1.88-.78,3.77-1.21,5.63-.22.92-.44,1.85-.7,2.74-.12.46-.28.88-.43,1.3a11.51,11.51,0,0,1-.54,1.27,25.12,25.12,0,0,1-2.87,4.75,20.33,20.33,0,0,1-3.83,3.92,15,15,0,0,1-4.73,2.53,37.08,37.08,0,0,1-5.47,1.14,48.54,48.54,0,0,1-8.69.42l-.3.31a2.61,2.61,0,0,1,.07-1.56,3.35,3.35,0,0,1,.69-1.14,15.38,15.38,0,0,1,2.25-1.87l2.56-1.88c.87-.64,1.77-1.28,2.7-2.08a8.07,8.07,0,0,0-3.56.36,10.86,10.86,0,0,0-3.17,1.64,7.25,7.25,0,0,0-2.45,2.89,3.44,3.44,0,0,0-.21,2.07,2.44,2.44,0,0,0,.63,1.2c-.58,0-1.17-.06-1.76-.11a21.28,21.28,0,0,1-2.71-.42,20.19,20.19,0,0,1-2.63-.75,15.57,15.57,0,0,1-2.46-1.09q-.45-.25-.87-.54l-.24.21a11.07,11.07,0,0,1,1.72-3.09,8.47,8.47,0,0,1,2.31-2.06c.4-.26,1-.44,1.48-.69s1.11-.49,1.65-.78a16,16,0,0,0,3.21-2.08,15.52,15.52,0,0,0-3.82.25,14.88,14.88,0,0,0-1.85.43,8.76,8.76,0,0,0-1.92.77,6.62,6.62,0,0,0-2.74,3.23,5.52,5.52,0,0,0-.23,3.51,8.54,8.54,0,0,1-.79-.65,5,5,0,0,1-1.32-1.88l-.15-.51a3.6,3.6,0,0,1-.07-.55,2.44,2.44,0,0,1,.12-.95c.37-1.16,2-2.05,3.75-2.76.87-.37,1.77-.73,2.69-1.16a11.85,11.85,0,0,0,2.73-1.64,6.24,6.24,0,0,0,1.2-1.3,4.92,4.92,0,0,0,.45-.81,3.83,3.83,0,0,0,.17-.43l.13-.38a14,14,0,0,0,.55-3.08c.15-2,.1-3.95.08-5.88s0-3.84,0-5.76c0-3.85,0-7.72-.07-11.58a136.93,136.93,0,0,0-2.14-23.11,56.9,56.9,0,0,0-3.33-11.14,29.71,29.71,0,0,0-2.8-5.1,18.48,18.48,0,0,0-4-4.21,18.46,18.46,0,0,1,3.67,4.41,30.51,30.51,0,0,1,2.5,5.14,56.43,56.43,0,0,1,2.76,11.11A149.87,149.87,0,0,1,249,395c0,3.84-.11,7.68-.17,11.53,0,1.93-.05,3.87-.06,5.8s0,3.85-.16,5.66v0c-1.1.05-2.22,0-3.24.06a152.3,152.3,0,0,1-17.49-.3c-3.1-.25-14-.56-15-4.78-.92-3.7,11.24-5.38,13.71-6.89,1.07-.65,1.92-1.43,1.08-2.69-.51-.77-2.13-1-2.87-1.31a53.66,53.66,0,0,1-7-3.46c-29.69-17.42-30.85-57.46-27.9-87.79.89-9.12,2.27-18.19,3.91-27.2.4-2.13.84-4.25,1.27-6.38.24.34.47.68.73,1,8.93,11,22.83,13,36.08,10.45,15.68-3.06,28.91-12.2,35.48-27.08.17-.38-.09-2.1-.26-1.73-5.34,11.83-15.6,20-27.91,23.72-11.64,3.51-25.2,5-35.89-1.79-4.29-2.73-8.23-6.37-10.12-11.17-3.28-8.31-2.17-17.46.46-25.77A72,72,0,0,1,211.73,215c8.9-9,19.15-16.63,26.84-26.74.27-.34-.07-1.79-.14-1.72-6.78,7.6-14.65,14.05-22.1,21a371.61,371.61,0,0,1,30.89-59.11c12.3-19.09,26.91-37.83,46.94-49.29A77.49,77.49,0,0,1,352,91.27c18.78,4.74,35.69,15.5,49.51,28.88,15.58,15.07,25.54,33.13,35.11,52.34q6.32,12.64,12.27,25.49c-4.46-4.91-9-9.74-13.36-14.69,0,0-.33,1.37-.06,1.73,7.17,9.45,15.54,17.92,23.06,27.09,7.94,9.7,14.4,20.1,18.42,32,4.38,13,4.57,28.19-7.4,37-10.07,7.37-22.18,6.93-33.9,4.18-13.94-3.26-25.83-11.49-31.82-24.77-.16-.35-.35,1.34-.18,1.74a46.06,46.06,0,0,0,28.79,25.41c12.81,3.87,26.82,4.45,37.83-4a25.79,25.79,0,0,0,7.37-8.87,234,234,0,0,1,7.21,37.79c1.84,18.56,0,38.06-8.63,54.83a70.25,70.25,0,0,1-17.73,22c-4,3.29-8.6,5.43-12.75,8.42-1,.7-2,1.43-1.29,2.75.54,1,2.24,1.25,3.21,1.49,2.43.62,4.9,1,7.28,1.84,2.62.88,5.65,2.17,7,4.74C463.39,411.29,463,411.1,460.19,411.6ZM180.61,375.44a32.84,32.84,0,0,1-9.51-3.34,31.2,31.2,0,0,1-8.08-6,27.16,27.16,0,0,1-5.45-8.38,34.52,34.52,0,0,1-1.45-19.87,42.71,42.71,0,0,1,3.13-9.63,34.81,34.81,0,0,1,2.94-5.1,35.37,35.37,0,0,0-.87,11.22,37.54,37.54,0,0,0,4.27,14.84,24.63,24.63,0,0,0,11,10.85,23,23,0,0,0,13.07,1.77,78.22,78.22,0,0,0,4.51,13.32c-1.13.25-2.28.46-3.44.6A33.74,33.74,0,0,1,180.61,375.44Zm33-223.37c11.17-17.51,26.69-34,41.51-44,17-11.52,30.56-14.56,40.15-14.56a40.82,40.82,0,0,1,4.13.2c-12,5.59-22.63,14-31.76,23.72-16.54,17.64-29.32,39.12-40.36,60.51q-7.8,15.1-14.19,30.86c-6.86-1.78-11.23-5.62-13-11.51C197,187,201.9,170.49,213.64,152.07Zm200.19-44c14.82,10,30.33,26.49,41.51,44,11.74,18.42,16.68,34.9,13.54,45.22-1.61,5.31-5.32,9-11.06,10.93q-1.74-2.1-3.52-4.14L453,201.17c-5.38-11.89-11.09-23.63-17-35.28-5-9.83-9.94-19.56-16.41-28.51-11.53-15.93-26.35-29.79-43.68-39.22q-4.2-2.28-8.6-4.18l.32,0C384.89,91.43,402.28,100.24,413.83,108.07Z"/><path d="M338.67,328.5c-23.56,2.27-47.86-6.38-63.87-23.94,0,0-.17.61,0,.77,16,17.76,40.23,26.78,63.93,24.71,24.15-2.11,46.52-15.4,61.49-34.21.22-.28-.08-1.36-.11-1.32C384.71,313,362.86,326.17,338.67,328.5Z"/><path d="M383.49,318.68C360.41,342.39,318,348.86,292,326.47c-.05,0-.23.82,0,1,25.9,22.51,69,17.29,91.63-7.56C383.8,319.67,383.54,318.62,383.49,318.68Z"/><path d="M364.32,339.39c-14.65,11.7-38.81,13.35-54.78,3.49-.1-.07-.27,1,0,1.14,16.06,9.91,40.28,8.73,54.92-3.37C364.66,340.45,364.41,339.31,364.32,339.39Z"/>    </g>    <g id="eye">        <g id="eye-color1">            <g opacity="0" ><path fill="#7778AB"  d="M251.88,194.72c-.14.46-.2.94-.35,1.41a16.61,16.61,0,0,1-1.35,2.86c-.53.94-1,1.9-1.55,2.83-.23.41-.49.81-.76,1.2-.14.21-.29.41-.44.61s-.45.47-.45.6c-.19.25-.39.5-.59.74-5.88,7.05-13.91,9.8-22.69,6.54-8.54-3.17-14.21-10.41-14.65-19.54a1.27,1.27,0,0,1,0-.28,1.29,1.29,0,0,1,0-.29,23.29,23.29,0,0,1,19-21.82,19,19,0,0,1,11.42,1.35c-15.3-7.7-34.36-2.93-39.3,15.33a21.13,21.13,0,0,0-.66,6.53A29.44,29.44,0,0,0,210,213c8.59,7.08,21.5,6.67,31,1.77,7.19-3.7,10-12.6,10.93-20.46C252,194.47,251.92,194.59,251.88,194.72Z"/></g><g opacity="0" ><path fill="#7778AB"  d="M375.64,188.66c-.24.62-.44,1.25-.7,1.86a25.86,25.86,0,0,1-2,3.67,32.56,32.56,0,0,1-2.54,3.42c-5.88,7-13.9,9.8-22.69,6.54-8.54-3.17-14.21-10.41-14.65-19.54a1.27,1.27,0,0,1,0-.28.9.9,0,0,1,0-.29,23.29,23.29,0,0,1,19-21.82,19,19,0,0,1,11.42,1.35c-15.29-7.7-34.35-2.93-39.29,15.33a20.54,20.54,0,0,0-.66,6.53,29.36,29.36,0,0,0,10.48,20.24c8.59,7.08,21.5,6.67,31,1.77,6.9-3.55,9.72-12,10.77-19.66C375.81,188,375.73,188.41,375.64,188.66Z"/></g>        </g>        <g id="eye-shape">            <path fill="#fbfbfb"  d="M295.23,123.9c-21.73-17.81-51.73-12-72.06,4.87-11.71,10.13-20.83,23.9-22.35,39.61-1.28,13.09,2.59,26.27,9.6,37.28,12.38,19.45,36.52,33.94,59.91,27.1,20.91-6.12,35.23-26.45,41.18-46.49C318.07,164.16,313.73,139.06,295.23,123.9Zm16.09,44.39c3.12,13.14-4,29.29-15.05,36.62-11.44,7.59-25.45,6.31-36.15-1.92-11.83-9.09-12.9-22.85-8.48-36.31a1.66,1.66,0,0,1,.15-.33c5.3-13,20-19.08,33.33-17.46a40.23,40.23,0,0,1,4.79.88c7-2,15.58,1.56,16.61,9.36A21.23,21.23,0,0,1,311.32,168.29Z"/><path d="M221.05,126.64c-10.64,9.21-19.13,21.3-22.21,35.19-2.76,12.5-.75,25.57,4.53,37.13,10.21,22.39,34.35,41.16,59.93,38.25,23.13-2.63,40.23-22.11,48.49-42.65,9.19-22.89,7.78-50-9.89-68.55C279.45,102.48,244.4,107.3,221.05,126.64Zm90.46,59.63c-5.95,20-20.27,40.37-41.18,46.49-23.39,6.84-47.53-7.65-59.91-27.1-7-11-10.88-24.19-9.6-37.28,1.52-15.71,10.64-29.48,22.35-39.61,20.33-16.85,50.33-22.68,72.06-4.87C313.73,139.06,318.07,164.16,311.51,186.27Z"/><path d="M306.46,162.89c-1.18,7.61-8.53,14.09-16.4,11.78-7.26-2.13-10.49-10.21-8.63-17.12a1.6,1.6,0,0,1,.1-.39,1.55,1.55,0,0,1,.18-.39,12.36,12.36,0,0,1,8.2-7,40.23,40.23,0,0,0-4.79-.88c-13.38-1.62-28,4.45-33.33,17.46a1.66,1.66,0,0,0-.15.33c-4.42,13.46-3.35,27.22,8.48,36.31,10.7,8.23,24.71,9.51,36.15,1.92,11.05-7.33,18.17-23.48,15.05-36.62a21.23,21.23,0,0,0-4.8-9.16A12.89,12.89,0,0,1,306.46,162.89Z"/><path fill="#fff"  d="M289.91,149.77a12.36,12.36,0,0,0-8.2,7,1.55,1.55,0,0,0-.18.39,1.6,1.6,0,0,0-.1.39c-1.86,6.91,1.37,15,8.63,17.12,7.87,2.31,15.22-4.17,16.4-11.78a12.89,12.89,0,0,0,.06-3.76C305.49,151.33,297,147.81,289.91,149.77Z"/><path fill="#fbfbfb"  d="M437,125.33c-21.81-15.39-53-18.4-71.71,3.55-17.26,21.61-17.19,56.12-2.48,79a51.87,51.87,0,0,0,65.66,19.41,58,58,0,0,0,33.47-49.53C463,157.45,453.74,137.14,437,125.33ZM371.26,207.2c-14.35-8.09-20.39-26.75-13.74-41.9a30.4,30.4,0,0,1,4.24-6.93,10.14,10.14,0,0,1,1.62-5.68c2.63-4.13,8-4.82,12.6-3.79a30.44,30.44,0,0,1,12.63-1c14.24,1.89,27.35,11.64,30.73,26C425.83,201.43,394.08,218.68,371.26,207.2Z"/><path d="M444.44,127.47c-22.48-20.29-60.06-25.66-81.28-.71-16.45,20.6-17.87,51.3-7.19,74.86,10.79,23.79,36.25,38.16,62.16,32.38,23.25-5.19,41.58-24.61,45.83-47.95C467.84,164.77,460.58,142,444.44,127.47Zm17.49,50.33a58,58,0,0,1-33.47,49.53,51.87,51.87,0,0,1-65.66-19.41c-14.71-22.92-14.78-57.43,2.48-79,18.67-21.95,49.9-18.94,71.71-3.55C453.74,137.14,463,157.45,461.93,177.8Z"/><path d="M388.61,148a30.44,30.44,0,0,0-12.63,1A17.87,17.87,0,0,1,379.2,150c5.45,2.44,8.81,8.09,6.23,13.93-3,6.77-10.57,8.5-16.85,5.51a1.36,1.36,0,0,1-.39-.18,1.28,1.28,0,0,1-.34-.24,13.69,13.69,0,0,1-6.09-10.61,30.4,30.4,0,0,0-4.24,6.93c-6.65,15.15-.61,33.81,13.74,41.9,22.82,11.48,54.57-5.77,48.08-33.26C416,159.59,402.85,149.84,388.61,148Z"/><path fill="#fff"  d="M367.85,169a1.28,1.28,0,0,0,.34.24,1.36,1.36,0,0,0,.39.18c6.28,3,13.85,1.26,16.85-5.51,2.58-5.84-.78-11.49-6.23-13.93A17.87,17.87,0,0,0,376,148.9c-4.6-1-10-.34-12.6,3.79a10.14,10.14,0,0,0-1.62,5.68A13.69,13.69,0,0,0,367.85,169Z"/><path fill="#fcf9f7"  d="M312.47,111.88c-3.15-2.12-8.21-4.63-12.08-3.19-2.63,1-3.4,3.79-2.51,6.24a12.78,12.78,0,0,0,.68,1.53,18.3,18.3,0,0,0,6.7,7.31c3.21,1.86,8.4,2.89,11.18-.27,2.17-2.47,1.49-6-.39-8.45A14.85,14.85,0,0,0,312.47,111.88Z"/><path fill="#fcf9f7"  d="M354.8,126.17c4.59-.46,8.71-4.37,10.83-8.24a10.54,10.54,0,0,0,1.3-3.71,3.28,3.28,0,0,0-.12-1.59c-.45-1.17-1.81-1.7-3.05-1.91a13.76,13.76,0,0,0-7.42.87c-3.38,1.35-7,3.44-8.19,7.14a6.23,6.23,0,0,0-.15.62C347.21,123.36,351,126.56,354.8,126.17Z"/>        </g>        <g id="eye-color2">            <path fill="#D6FF73"  d="M296.27,204.91c-11.44,7.59-25.45,6.31-36.15-1.92-11.83-9.09-12.9-22.84-8.48-36.31a1.35,1.35,0,0,1,.15-.32c5.09-12.49,18.79-18.57,31.71-17.61-18.58-4.76-40.69,3.61-47,22.29a37.85,37.85,0,0,0,4.9,33.63c7.49,10.53,19.92,14.81,32.48,14.76,6.18,0,12.54-1,17.8-4.26,8.59-5.28,15.13-15.61,17.42-26.36A36.29,36.29,0,0,1,296.27,204.91Z"/><path fill="#D6FF73"  d="M413,151.48c-9.56-6.8-25.15-8-36.48-2.76a30.47,30.47,0,0,1,12.05-.77c14.24,1.89,27.35,11.64,30.73,26,6.49,27.5-25.26,44.74-48.08,33.26a32.32,32.32,0,0,1-14.31-17,15.56,15.56,0,0,0,.4,2.35,31.17,31.17,0,0,0,16.47,20.87c13.12,6.59,30.83,4.54,43.3-5.59a31.75,31.75,0,0,0,10.47-14.43C432.45,178.47,425.74,160.52,413,151.48Z"/>        </g>    </g>    <g id="nose-mouth">        <path d="M354.67,215.41a40.33,40.33,0,0,0,6.77-9,61.4,61.4,0,0,1-11.77,10.35,14.61,14.61,0,0,1-1.65,1c-.57.3-1.1.65-1.68.93l-1.73.8c-.57.27-1.18.44-1.77.67a28.91,28.91,0,0,1-5.86,1.47l-.35-6.22-.52,0c7-1.39,16.38-11,14.26-16.95-4-11.35-32.41-5.28-35.28,1.42-3.55,8.28,11.16,15.16,18.54,15.67l.36,6.31a37,37,0,0,1-13.51-2.21c-1-.35-2-.74-3-1.15l-.2-.08-.14-.06a62.37,62.37,0,0,1-10.65-5.88,38.59,38.59,0,0,0,10.33,8l0,.22a14.87,14.87,0,0,0,2.82,10.44c2.79,3.71,7.36,6,13.55,6.8a27.59,27.59,0,0,0,3.3.21,19.25,19.25,0,0,0,16.7-9c3-4.74,3.66-10.3,1.6-13.5Zm-18.18-18c1.07-4.29,11.19-2.37,9.52,1.43S335.43,201.61,336.49,197.36Z"/><path fill="#c4223a"  d="M323.72,231.05h0s3.54,4.22,12.43,4.29c8,.06,11.84-4.4,12.56-5.32l.13-.18C337.8,225.8,325.41,230.38,323.72,231.05Z"/><path fill="#8e1725"  d="M335.7,226.3a36,36,0,0,1-15.9-2.91,11.15,11.15,0,0,0,3.92,7.66c1.69-.67,14.08-5.25,25.12-1.21l-.13.18a17,17,0,0,0,2-2.5,13.25,13.25,0,0,0,2.26-8.31A26.59,26.59,0,0,1,335.7,226.3Z"/><path fill="#fff"  d="M346,198.79c1.67-3.8-8.45-5.72-9.52-1.43S344.34,202.58,346,198.79Z"/>    </g></svg>