<!--  ~ Copyright (C) 2018 Baidu, Inc. All Rights Reserved.  --><svg viewBox="0 0 640 480" xmlns="http://www.w3.org/2000/svg">    <g id="back-ground-cl">        <rect fill="none" width="640" height="480" />        <ellipse opacity="0.1" cx="331.93" cy="418.82" rx="168.39" ry="32.01"/>    </g>    <g id="body">        <defs>            <clipPath id="outline">                <path fill="none"  d="M141.25,347.12c-1.63-1.74-3.22-3.51-4.74-5.37a31.86,31.86,0,0,1-4.09-6.12,9,9,0,0,1-.68-1.89,4.64,4.64,0,0,1,0-2.32,3.53,3.53,0,0,1,1.5-2.08,5.91,5.91,0,0,1,2-.82,15.6,15.6,0,0,1,3.81-.27,36,36,0,0,1,3.63.32,137.43,137.43,0,0,1,14,2.82l3.45.85,3.42.74,1.7.37.24,0c-.45-.53-.91-1.06-1.36-1.6a144.07,144.07,0,0,1-8.89-11.92A120.33,120.33,0,0,1,147.7,307,91,91,0,0,1,142.3,294a41.58,41.58,0,0,0-7.36,2.91,47.73,47.73,0,0,0-7.31,4.64,54.65,54.65,0,0,0-6.42,5.84,50.44,50.44,0,0,0-4.9,6.07c1,.71,1.92,1.43,2.85,2.17,1.17.93,2.32,1.88,3.44,2.87q3.38,2.93,6.48,6.17l2.09,2.17-2.95-.56a23.2,23.2,0,0,1-4.58-1.5c-1.44-.61-2.85-1.27-4.23-2-2.57-1.29-5.08-2.66-7.57-4.1a40.47,40.47,0,0,0-5.3,5.85,38.23,38.23,0,0,0-4.31,7.36A31,31,0,0,0,99.86,340a28.69,28.69,0,0,0,0,8.12,58,58,0,0,0,17.14,7.5,100,100,0,0,0,19,3,155.94,155.94,0,0,0,17.83.18A143,143,0,0,1,141.25,347.12Z"/><path fill="none"  d="M170.22,336l-3.55-.42-.89-.11-.88-.17-1.76-.33-3.51-.7-3.44-.81a138,138,0,0,0-13.78-2.61c-1.15-.14-2.29-.23-3.42-.26a13.45,13.45,0,0,0-3.22.22,3.65,3.65,0,0,0-1.24.48,1.18,1.18,0,0,0-.53.72,4.4,4.4,0,0,0,.58,2.6,29.91,29.91,0,0,0,3.8,5.6c1.47,1.79,3,3.52,4.65,5.22a134.93,134.93,0,0,0,45.77,31.82q4.41,1.92,8.95,3.54c-8-13.26-10.72-29.17-11.28-44.47A97,97,0,0,1,170.22,336Z"/><path fill="none"  d="M348.73,87c0-10.08-6.49-29-9.91-38.88-.47-1.35-.89-2.56-1.24-3.61a.64.64,0,0,0-.64-.46.62.62,0,0,0-.64.45l-.29.82c-3,8.56-10.13,28.74-10.41,40.2A81.16,81.16,0,0,1,348.73,87Z"/><path fill="none"  d="M490.79,222a42.37,42.37,0,0,0-5.73-3.15,68.75,68.75,0,0,0-12.5-4.26l-2.08-.49,1.88-1a6.54,6.54,0,0,0,3.12-3.22,3.76,3.76,0,0,0,.12-2.13,4.74,4.74,0,0,0-.41-1.06l-.26-.52-.34-.47a6,6,0,0,0-4-2.15,15.72,15.72,0,0,0-5,.19,44.84,44.84,0,0,0-9.74,3.15,91.28,91.28,0,0,0-9.2,4.67,79.37,79.37,0,0,1,6.95-4.12c-5.37-12.18-11.11-24.21-17.05-36.12C427,152.15,417,134.09,401.46,119c-13.82-13.37-30.72-24.13-49.5-28.87A77.51,77.51,0,0,0,294.16,98c-20,11.45-34.63,30.19-46.93,49.28a370.8,370.8,0,0,0-30.39,57.89c.95.41,1.9.84,2.84,1.29a79.71,79.71,0,0,1,9,5.16,91.44,91.44,0,0,0-9.21-4.67,44.58,44.58,0,0,0-9.73-3.15,15.72,15.72,0,0,0-5-.19,6,6,0,0,0-4,2.15l-.34.47-.26.52a5.32,5.32,0,0,0-.42,1.06,3.85,3.85,0,0,0,.13,2.13,6.54,6.54,0,0,0,3.12,3.22l1.88,1-2.08.49a69.11,69.11,0,0,0-12.51,4.26,42.86,42.86,0,0,0-5.72,3.15,19.79,19.79,0,0,0-4.73,4.22,9.6,9.6,0,0,0-2.2,5.49,9.34,9.34,0,0,0,.4,2.95,8.41,8.41,0,0,0,.49,1.44,8.93,8.93,0,0,0,5.18,5,12.87,12.87,0,0,0,3,.71,13.5,13.5,0,0,0,3,0l3.36-.35L190.68,244a52.57,52.57,0,0,0-8.27,10.9,27.77,27.77,0,0,0-2.61,6.21,18.22,18.22,0,0,0-.58,3.24,13.75,13.75,0,0,0,.15,3.21,12.15,12.15,0,0,0,2.81,5.7c1.39,1.66,3.14,3,5.08,3s4-1,5.76-2.29a42.21,42.21,0,0,0,5.09-4.59c3.23-3.34,6.25-6.94,9.33-10.49s6.2-7.08,9.52-10.44a90.72,90.72,0,0,1,10.67-9.29,53.66,53.66,0,0,1,12.29-6.9,58.36,58.36,0,0,0-11.87,7.45,96.44,96.44,0,0,0-10.18,9.62c-3.2,3.41-6.21,7-9.19,10.62s-5.9,7.3-9.12,10.8a44.06,44.06,0,0,1-4.28,4.13q-.79,3.79-1.52,7.62c-1.64,9-3,18.08-3.91,27.2-2.95,30.32-1.79,70.35,27.9,87.77a54.83,54.83,0,0,0,7,3.46c.75.3,2.36.54,2.87,1.3.84,1.26,0,2-1.08,2.7-2.47,1.51-14.62,3.19-13.7,6.89,1,4.22,11.93,4.52,15,4.78a152.3,152.3,0,0,0,17.49.29c1,0,2.06,0,3.12-.05.08-1.46.07-3,.08-4.48,0-1.92,0-3.87.06-5.79.06-3.86.16-7.7.17-11.53a149.87,149.87,0,0,0-1.41-22.92A56.43,56.43,0,0,0,244.61,361a30.88,30.88,0,0,0-2.5-5.14,18.41,18.41,0,0,0-3.66-4.4h0a18.64,18.64,0,0,1,4,4.21,30.09,30.09,0,0,1,2.8,5.1,56.9,56.9,0,0,1,3.33,11.14A136.93,136.93,0,0,1,250.68,395c.09,3.86.09,7.72.07,11.57,0,1.92,0,3.83,0,5.76s.06,3.86-.09,5.88a14,14,0,0,1-.55,3.08l-.13.38a3.83,3.83,0,0,1-.17.43,4.54,4.54,0,0,1-.45.81,6.24,6.24,0,0,1-1.2,1.3,11.64,11.64,0,0,1-2.73,1.64c-.91.43-1.82.79-2.68,1.16-1.7.71-3.39,1.6-3.76,2.76a2.44,2.44,0,0,0-.12,1,3.76,3.76,0,0,0,.07.55l.15.51a5,5,0,0,0,1.32,1.88,8.54,8.54,0,0,0,.79.65,5.52,5.52,0,0,1,.23-3.51,6.63,6.63,0,0,1,2.74-3.23,8.76,8.76,0,0,1,1.92-.77,14.88,14.88,0,0,1,1.85-.43,15.52,15.52,0,0,1,3.82-.25,16,16,0,0,1-3.21,2.08c-.54.29-1.16.53-1.65.78a15.73,15.73,0,0,0-1.47.69,8.5,8.5,0,0,0-2.32,2.06,11.15,11.15,0,0,0-1.72,3.08h0l.24-.2c.29.18.57.37.87.53a17,17,0,0,0,2.46,1.1,21.89,21.89,0,0,0,2.63.75,21.56,21.56,0,0,0,2.71.41c.59.06,1.18.09,1.76.12a2.53,2.53,0,0,1-.63-1.2,3.43,3.43,0,0,1,.21-2.07,7.25,7.25,0,0,1,2.45-2.89,10.86,10.86,0,0,1,3.17-1.64,7.93,7.93,0,0,1,3.56-.36c-.93.8-1.83,1.44-2.71,2.08l-2.56,1.88a15.8,15.8,0,0,0-2.24,1.87,3.35,3.35,0,0,0-.69,1.14,2.58,2.58,0,0,0-.07,1.55h0l.3-.31a47.63,47.63,0,0,0,8.69-.41A36.94,36.94,0,0,0,267,436a14.83,14.83,0,0,0,4.73-2.53,20.38,20.38,0,0,0,3.84-3.92,25.65,25.65,0,0,0,2.87-4.75,11.41,11.41,0,0,0,.53-1.27,12.37,12.37,0,0,0,.43-1.3c.27-.89.49-1.82.7-2.74.43-1.86.81-3.75,1.22-5.63.79-3.77,1.58-7.55,2.53-11.3a112.5,112.5,0,0,1,3.41-11.08,49.09,49.09,0,0,1,5.09-10.39L291,383.67c-.4.87-.78,1.75-1.17,2.63-.72,1.78-1.39,3.57-2,5.41a113,113,0,0,0-2.85,11.14c-.73,3.43-1.35,6.87-1.95,10.33a314.76,314.76,0,0,0,33,5.43c21.95,2.37,44.62,2.41,66.16-2.89q3.81-.95,7.55-2.11c-.61-3.64-.82-7.26-1.26-10.83-.22-1.8-.53-3.62-.82-5.44s-.58-3.63-1-5.41a31.91,31.91,0,0,0-1.75-5.18c-.66-1.72-1.27-3.46-1.87-5.2h0c.72,1.7,1.45,3.39,2.22,5.06a30.78,30.78,0,0,1,2,5.16c.49,1.8.86,3.6,1.25,5.4s.78,3.6,1.09,5.44c.61,3.66.93,7.33,1.68,10.87a30.8,30.8,0,0,0,1.5,5.15,27.22,27.22,0,0,0,2.44,4.74,20.4,20.4,0,0,0,7.56,7.1c.39.18.77.38,1.17.52l.6.24.61.18c.82.25,1.72.44,2.59.62a45.54,45.54,0,0,0,5.33.74,54.21,54.21,0,0,0,6,.1l.3.31a2.61,2.61,0,0,0-.07-1.56,3.45,3.45,0,0,0-.69-1.14,15.8,15.8,0,0,0-2.24-1.87l-2.56-1.88c-.88-.64-1.78-1.27-2.71-2.07a8.07,8.07,0,0,1,3.56.35,10.89,10.89,0,0,1,3.17,1.65,7.15,7.15,0,0,1,2.45,2.88,3.44,3.44,0,0,1,.21,2.07,2.53,2.53,0,0,1-.64,1.21,36.06,36.06,0,0,0,3.93-.42,20.46,20.46,0,0,0,4.93-1.6,13,13,0,0,0,1.59-.89l.23.2a11.21,11.21,0,0,0-1.72-3.09,8.5,8.5,0,0,0-2.32-2.06,15.73,15.73,0,0,0-1.47-.69c-.49-.25-1.11-.49-1.65-.78a16,16,0,0,1-3.21-2.08,16,16,0,0,1,3.82.26,12,12,0,0,1,1.85.43,8.24,8.24,0,0,1,1.92.76,6.67,6.67,0,0,1,2.74,3.23,5.51,5.51,0,0,1,.22,3.53,6.62,6.62,0,0,0,1.73-1.78,4,4,0,0,0,.62-2,2.58,2.58,0,0,0-.13-.94,2.16,2.16,0,0,0-.46-.8c-.87-1-2.58-1.72-4.25-2.37a20.92,20.92,0,0,1-5.25-2.55,7.28,7.28,0,0,1-1.2-1.16,8.61,8.61,0,0,1-.49-.77,4,4,0,0,1-.33-.86,7.6,7.6,0,0,1-.27-1.53c-.06-.51-.09-1-.11-1.46a111.25,111.25,0,0,1,.43-11.16c.28-3.69.66-7.36,1.1-11,.87-7.33,2-14.63,3.41-21.87.74-3.62,1.55-7.22,2.55-10.78.49-1.77,1-3.54,1.71-5.27a22.85,22.85,0,0,1,1.14-2.52,9,9,0,0,1,.73-1.19,3.94,3.94,0,0,1,.52-.64l.39-.39a5.8,5.8,0,0,0-.84,1.08,8.29,8.29,0,0,0-.63,1.22,22.64,22.64,0,0,0-1,2.57c-.56,1.74-1,3.51-1.43,5.3-.81,3.58-1.44,7.2-2,10.83-1.13,7.25-2,14.55-2.69,21.86-.34,3.65-.63,7.31-.86,11-.18,3.07-.33,6.17-.28,9.2,5.93.9,12.2.59,18.14.39a139.29,139.29,0,0,0,19-1.57c2.83-.49,3.2-.31,1.75-3-1.37-2.56-4.41-3.86-7-4.74-2.38-.8-4.85-1.21-7.28-1.83-1-.24-2.67-.48-3.21-1.5-.69-1.32.33-2,1.29-2.74,4.15-3,8.74-5.13,12.74-8.42a70.11,70.11,0,0,0,17.73-22c8.66-16.76,10.47-36.26,8.63-54.82a234.39,234.39,0,0,0-7.58-39.12c-.49-.5-1-1-1.44-1.52-3.22-3.5-6.14-7.18-9.13-10.8s-6-7.21-9.18-10.62a96.44,96.44,0,0,0-10.18-9.62,58.36,58.36,0,0,0-11.87-7.45,53.66,53.66,0,0,1,12.29,6.9,90.72,90.72,0,0,1,10.67,9.29c3.32,3.36,6.44,6.89,9.52,10.44s6.1,7.15,9.32,10.49a43.78,43.78,0,0,0,5.09,4.59c1.79,1.31,3.81,2.37,5.76,2.29s3.7-1.35,5.09-3a12.24,12.24,0,0,0,2.81-5.7,13.75,13.75,0,0,0,.15-3.21,18.22,18.22,0,0,0-.58-3.24,27.77,27.77,0,0,0-2.61-6.21,52.57,52.57,0,0,0-8.27-10.9l-2.36-2.41,3.36.35a13.5,13.5,0,0,0,3,0,12.87,12.87,0,0,0,3-.71,8.93,8.93,0,0,0,5.18-5,8.41,8.41,0,0,0,.49-1.44,9.34,9.34,0,0,0,.4-2.95,9.6,9.6,0,0,0-2.2-5.49A19.79,19.79,0,0,0,490.79,222Z"/><polygon fill="#725e47"  points="238.45 351.44 238.45 351.44 238.45 351.44 238.45 351.44"/><polygon fill="#725e47"  points="238.45 351.44 238.45 351.44 238.45 351.44 238.45 351.44"/><path d="M497.23,224.9a22,22,0,0,0-5.29-4.6,40.52,40.52,0,0,0-6.08-3.19,69.58,69.58,0,0,0-11.22-3.63,8.3,8.3,0,0,0,.69-.64,6.68,6.68,0,0,0,1.54-2.45,5.24,5.24,0,0,0,.09-3,6.53,6.53,0,0,0-.55-1.33c-.11-.21-.22-.42-.34-.63l-.43-.57a7.56,7.56,0,0,0-1-1l-.6-.39a2.5,2.5,0,0,0-.62-.34l-.65-.29-.67-.2a10.21,10.21,0,0,0-1.36-.26,16.83,16.83,0,0,0-5.31.42,45.43,45.43,0,0,0-9.62,3.54c-.94-2.11-1.88-4.23-2.83-6.33-5.38-11.89-11.09-23.62-17-35.27-5-9.84-9.93-19.56-16.41-28.51-11.52-15.93-26.34-29.79-43.66-39.21a99.24,99.24,0,0,0-25.59-9.74c.15-10.38-6.24-28.95-10-39.75-.46-1.35-.88-2.56-1.23-3.6A2.28,2.28,0,0,0,337,42.38h0a2.27,2.27,0,0,0-2.17,1.53l-.29.83c-3.34,9.44-10.3,29.17-10.49,40.92-.61.06-1.23.12-1.84.2-21.44,2.82-39.91,14.9-54.47,30.44-16.54,17.64-29.32,39.12-40.36,60.51q-6.93,13.44-12.77,27.42a35,35,0,0,0-4.64-1.41,16.87,16.87,0,0,0-5.32-.42,10.37,10.37,0,0,0-1.35.26l-.67.2-.65.29a2.5,2.5,0,0,0-.62.34l-.6.39a7.56,7.56,0,0,0-1,1l-.43.57c-.12.21-.23.42-.34.63a6.53,6.53,0,0,0-.55,1.33,5.15,5.15,0,0,0,.09,3,6.68,6.68,0,0,0,1.54,2.45c.22.23.45.44.68.64a69.79,69.79,0,0,0-11.21,3.63,40.52,40.52,0,0,0-6.08,3.19,21.79,21.79,0,0,0-5.29,4.6,11,11,0,0,0-2.33,10.41,10.62,10.62,0,0,0,.57,1.73,9.58,9.58,0,0,0,.84,1.66,11.27,11.27,0,0,0,5.65,4.68,15.06,15.06,0,0,0,3.53.87l.7.07q-1.45,1.62-2.79,3.35a48,48,0,0,0-4,6,30.45,30.45,0,0,0-2.79,6.76,20.64,20.64,0,0,0-.64,3.69,15.65,15.65,0,0,0,.2,3.8,14.19,14.19,0,0,0,3.37,6.77,12.53,12.53,0,0,0,2.9,2.55,7.5,7.5,0,0,0,3.88,1.19,9,9,0,0,0,3.88-.86,13.85,13.85,0,0,0,1.27-.66c-.33,1.63-.64,3.26-.95,4.89-3.17,17.45-5.49,35.24-5,53a94.62,94.62,0,0,1-16-.69l-3.47-.49-.28,0c-.63-.78-1.27-1.56-1.89-2.35-3-3.89-6-7.87-8.62-12a120,120,0,0,1-7.26-12.83,89.37,89.37,0,0,1-5.35-13.68l-.22-.73-.75.19a41.65,41.65,0,0,0-8.41,3.17,49.49,49.49,0,0,0-7.61,4.76,56.57,56.57,0,0,0-6.66,6,50.11,50.11,0,0,0-5.64,7l-.47.71.73.52c1.16.83,2.33,1.73,3.47,2.65s2.26,1.86,3.36,2.83,2.41,2.19,3.57,3.32l-.56-.22c-1.39-.58-2.77-1.22-4.13-1.89-2.73-1.35-5.43-2.8-8.07-4.32l-.57-.33-.48.41a41.77,41.77,0,0,0-10.5,14.35,32.6,32.6,0,0,0-2.44,8.61,30.3,30.3,0,0,0,.09,9l0,.35.3.2a58.6,58.6,0,0,0,18,7.64,101.73,101.73,0,0,0,19.3,2.78,146.09,146.09,0,0,0,18.6-.28c2.7,2.18,5.48,4.26,8.37,6.18,2,1.36,4,2.59,6,3.85s4.1,2.41,6.22,3.49,4.24,2.17,6.38,3.2,4.33,1.95,6.54,2.82c3.63,1.47,7.33,2.8,11.06,4a52.68,52.68,0,0,0,20.45,18.24c.92.46,1.85.89,2.79,1.3a8.08,8.08,0,0,0,1.25.53l.49.2c-.49.16-1,.36-1.45.52-1.7.59-3.42,1.12-5.11,1.73-3.31,1.18-9.12,3.11-6.74,7.74,2.05,4,8.63,4.74,12.48,5.27a123.86,123.86,0,0,0,19.35.87c1.42,0,3.5.11,5.55,0a11.11,11.11,0,0,1-.29,1.17,3.58,3.58,0,0,1-.45,1,4.41,4.41,0,0,1-.76.81,21.09,21.09,0,0,1-4.85,2.41,17.24,17.24,0,0,0-2.77,1.41,5.53,5.53,0,0,0-2.32,2.74,6.26,6.26,0,0,0,2,6.48,12.12,12.12,0,0,0,2.61,1.84,18.91,18.91,0,0,0,2.81,1.24,23.18,23.18,0,0,0,2.93.82,24.52,24.52,0,0,0,3,.44,49.13,49.13,0,0,0,11.81-.33,38.87,38.87,0,0,0,5.81-1.31,17.28,17.28,0,0,0,5.37-3,25.06,25.06,0,0,0,7.12-9.57,14.75,14.75,0,0,0,.55-1.41,14,14,0,0,0,.44-1.45c.26-1,.46-1.91.66-2.87.29-1.43.55-2.86.81-4.29l.3.07c22.74,4.89,46.18,7.77,69.47,6.66a158.82,158.82,0,0,0,31.66-4.54c2.08-.53,4.14-1.13,6.19-1.78a28.59,28.59,0,0,0,3.45,8.39,21.75,21.75,0,0,0,8.19,8c.44.21.87.45,1.34.62l.68.28.71.22c.94.3,1.84.5,2.76.72a48.37,48.37,0,0,0,5.59.85,45.35,45.35,0,0,0,11.33-.32,22.76,22.76,0,0,0,5.54-1.76,14.59,14.59,0,0,0,2.58-1.55,8.47,8.47,0,0,0,2.18-2.31,6.66,6.66,0,0,0,1-3.22,4.9,4.9,0,0,0-1.17-3.36,8,8,0,0,0-2.59-1.91,28.06,28.06,0,0,0-2.65-1.13,18.89,18.89,0,0,1-4.67-2.19,4.72,4.72,0,0,1-.79-.75,2.17,2.17,0,0,1-.42-.81,7,7,0,0,1-.21-1.18c0-.17,0-.35,0-.53l1.21.13a142.74,142.74,0,0,0,21.19.05c5.56-.29,11.6-.36,17-1.79,4.09-1.08,2.58-5.48.27-8-3.66-4-9.54-4.72-14.51-6a4.42,4.42,0,0,1-.48-.15c.34-.21.64-.43.79-.51q2.13-1.2,4.2-2.52a75.15,75.15,0,0,0,11.24-8.8c13.4-12.74,20.75-30.16,23-48.32,2.66-21.2-1.42-42.6-6.74-63.09l.74.59a16.65,16.65,0,0,0,3.21,2,9,9,0,0,0,3.88.86,7.5,7.5,0,0,0,3.88-1.19,12.53,12.53,0,0,0,2.9-2.55,14.19,14.19,0,0,0,3.37-6.77,16.72,16.72,0,0,0,.2-3.8,20.64,20.64,0,0,0-.64-3.69,30,30,0,0,0-2.8-6.76,46.83,46.83,0,0,0-4-6q-1.33-1.72-2.79-3.35l.7-.07a15.19,15.19,0,0,0,3.53-.87,11.27,11.27,0,0,0,5.65-4.68A9.53,9.53,0,0,0,499,237a9.77,9.77,0,0,0,.58-1.73,11,11,0,0,0-2.33-10.41,336,45.28l.29-.82a.62.62,0,0,1,.64-.45.64.64,0,0,1,.64.46c.35,1.05.77,2.26,1.24,3.61,3.42,9.91,9.93,28.8,9.91,38.88a81.16,81.16,0,0,0-23.13-1.48C325.88,74,333,53.84,336,45.28,136,358.7a100,100,0,0,1-19-3,58,58,0,0,1-17.14-7.5,28.69,28.69,0,0,1,0-8.12,31,31,0,0,1,2.37-8.15,38.23,38.23,0,0,1,4.31-7.36,40.47,40.47,0,0,1,5.3-5.85c2.49,1.44,5,2.81,7.57,4.1,1.38.69,2.79,1.35,4.23,2a23.2,23.2,0,0,0,4.58,1.5l2.95.56-2.09-2.17q-3.11-3.24-6.48-6.17c-1.12-1-2.27-1.94-3.44-2.87-.93-.74-1.88-1.46-2.85-2.17a50.44,50.44,0,0,1,4.9-6.07,54.65,54.65,0,0,1,6.42-5.84,47.73,47.73,0,0,1,7.31-4.64A41.58,41.58,0,0,1,142.3,294,91,91,0,0,0,147.7,307a120.33,120.33,0,0,0,7.54,12.85,144.07,144.07,0,0,0,8.89,11.92c.45.54.91,1.07,1.36,1.6l-.24,0-1.7-.37-3.42-.74-3.45-.85a137.43,137.43,0,0,0-14-2.82,36,36,0,0,0-3.63-.32,15.6,15.6,0,0,0-3.81.27,5.91,5.91,0,0,0-2,.82,3.53,3.53,0,0,0-1.5,2.08,4.64,4.64,0,0,0,0,2.32,9,9,0,0,0,.68,1.89,31.86,31.86,0,0,0,4.09,6.12c1.52,1.86,3.11,3.63,4.74,5.37a143,143,0,0,0,12.6,11.76A155.94,155.94,0,0,1,136,358.7,52.78,18.56A134.93,134.93,0,0,1,143,345.44c-1.61-1.7-3.18-3.43-4.65-5.22a29.91,29.91,0,0,1-3.8-5.6A4.4,4.4,0,0,1,134,332a1.18,1.18,0,0,1,.53-.72,3.65,3.65,0,0,1,1.24-.48,13.45,13.45,0,0,1,3.22-.22c1.13,0,2.27.12,3.42.26a138,138,0,0,1,13.78,2.61l3.44.81,3.51.7,1.76.33.88.17.89.11,3.55.42a97,97,0,0,0,16.25.32c.56,15.3,3.29,31.21,11.28,44.47Q193.22,379.18,188.8,377.26,497.32,234.7a8.41,8.41,0,0,1-.49,1.44,8.93,8.93,0,0,1-5.18,5,12.87,12.87,0,0,1-3,.71,13.5,13.5,0,0,1-3,0l-3.36-.35,2.36,2.41a52.57,52.57,0,0,1,8.27,10.9,27.77,27.77,0,0,1,2.61,6.21,18.22,18.22,0,0,1,.58,3.24,13.75,13.75,0,0,1-.15,3.21,12.24,12.24,0,0,1-2.81,5.7c-1.39,1.66-3.14,3-5.09,3s-4-1-5.76-2.29a43.78,43.78,0,0,1-5.09-4.59c-3.22-3.34-6.24-6.94-9.32-10.49s-6.2-7.08-9.52-10.44a90.72,90.72,0,0,0-10.67-9.29,53.66,53.66,0,0,0-12.29-6.9,58.36,58.36,0,0,1,11.87,7.45,96.44,96.44,0,0,1,10.18,9.62c3.2,3.41,6.21,7,9.18,10.62s5.91,7.3,9.13,10.8c.47.51.95,1,1.44,1.52a234.39,234.39,0,0,1,7.58,39.12c1.84,18.56,0,38.06-8.63,54.82a70.11,70.11,0,0,1-17.73,22c-4,3.29-8.59,5.43-12.74,8.42-1,.7-2,1.42-1.29,2.74.54,1,2.24,1.26,3.21,1.5,2.43.62,4.9,1,7.28,1.83,2.61.88,5.65,2.18,7,4.74,1.45,2.72,1.08,2.54-1.75,3a139.29,139.29,0,0,1-19,1.57c-5.94.2-12.21.51-18.14-.39-.05-3,.1-6.13.28-9.2.23-3.65.52-7.31.86-11,.71-7.31,1.56-14.61,2.69-21.86.56-3.63,1.19-7.25,2-10.83.4-1.79.87-3.56,1.43-5.3a22.64,22.64,0,0,1,1-2.57,8.29,8.29,0,0,1,.63-1.22,5.8,5.8,0,0,1,.84-1.08l-.39.39a3.94,3.94,0,0,0-.52.64,9,9,0,0,0-.73,1.19,22.85,22.85,0,0,0-1.14,2.52c-.67,1.73-1.22,3.5-1.71,5.27-1,3.56-1.81,7.16-2.55,10.78-1.43,7.24-2.54,14.54-3.41,21.87-.44,3.66-.82,7.33-1.1,11a111.25,111.25,0,0,0-.43,11.16c0,.47.05.95.11,1.46a7.6,7.6,0,0,0,.27,1.53,4,4,0,0,0,.33.86,8.61,8.61,0,0,0,.49.77,7.28,7.28,0,0,0,1.2,1.16,20.92,20.92,0,0,0,5.25,2.55c1.67.65,3.38,1.34,4.25,2.37a2.16,2.16,0,0,1,.46.8,2.58,2.58,0,0,1,.13.94,4,4,0,0,1-.62,2,6.62,6.62,0,0,1-1.73,1.78,5.51,5.51,0,0,0-.22-3.53,6.67,6.67,0,0,0-2.74-3.23,8.24,8.24,0,0,0-1.92-.76,12,12,0,0,0-1.85-.43,16,16,0,0,0-3.82-.26,16,16,0,0,0,3.21,2.08c.54.29,1.16.53,1.65.78a15.73,15.73,0,0,1,1.47.69,8.5,8.5,0,0,1,2.32,2.06,11.21,11.21,0,0,1,1.72,3.09l-.23-.2a13,13,0,0,1-1.59.89,20.46,20.46,0,0,1-4.93,1.6,36.06,36.06,0,0,1-3.93.42,2.53,2.53,0,0,0,.64-1.21,3.44,3.44,0,0,0-.21-2.07,7.15,7.15,0,0,0-2.45-2.88,10.89,10.89,0,0,0-3.17-1.65,8.07,8.07,0,0,0-3.56-.35c.93.8,1.83,1.43,2.71,2.07l2.56,1.88a15.8,15.8,0,0,1,2.24,1.87,3.45,3.45,0,0,1,.69,1.14,2.61,2.61,0,0,1,.07,1.56l-.3-.31a54.21,54.21,0,0,1-6-.1,45.54,45.54,0,0,1-5.33-.74c-.87-.18-1.77-.37-2.59-.62l-.61-.18-.6-.24c-.4-.14-.78-.34-1.17-.52a20.4,20.4,0,0,1-7.56-7.1,27.22,27.22,0,0,1-2.44-4.74,30.8,30.8,0,0,1-1.5-5.15c-.75-3.54-1.07-7.21-1.68-10.87-.31-1.84-.71-3.64-1.09-5.44s-.76-3.6-1.25-5.4a30.78,30.78,0,0,0-2-5.16c-.77-1.67-1.5-3.36-2.22-5.06h0c.6,1.74,1.21,3.48,1.87,5.2a31.91,31.91,0,0,1,1.75,5.18c.39,1.78.67,3.6,1,5.41s.6,3.64.82,5.44c.44,3.57.65,7.19,1.26,10.83q-3.74,1.17-7.55,2.11c-21.54,5.3-44.21,5.26-66.16,2.89a314.76,314.76,0,0,1-33-5.43c.6-3.46,1.22-6.9,1.95-10.33a113,113,0,0,1,2.85-11.14c.57-1.84,1.24-3.63,2-5.41.39-.88.77-1.76,1.17-2.63l1.35-2.56a49.09,49.09,0,0,0-5.09,10.39,112.5,112.5,0,0,0-3.41,11.08c-.95,3.75-1.74,7.53-2.53,11.3-.41,1.88-.79,3.77-1.22,5.63-.21.92-.43,1.85-.7,2.74a12.37,12.37,0,0,1-.43,1.3,11.41,11.41,0,0,1-.53,1.27,25.65,25.65,0,0,1-2.87,4.75,20.38,20.38,0,0,1-3.84,3.92A14.83,14.83,0,0,1,267,436a36.94,36.94,0,0,1-5.46,1.14,47.63,47.63,0,0,1-8.69.41l-.3.31h0a2.58,2.58,0,0,1,.07-1.55,3.35,3.35,0,0,1,.69-1.14,15.8,15.8,0,0,1,2.24-1.87l2.56-1.88c.88-.64,1.78-1.28,2.71-2.08a7.93,7.93,0,0,0-3.56.36,10.86,10.86,0,0,0-3.17,1.64,7.25,7.25,0,0,0-2.45,2.89,3.43,3.43,0,0,0-.21,2.07,2.53,2.53,0,0,0,.63,1.2c-.58,0-1.17-.06-1.76-.12a21.56,21.56,0,0,1-2.71-.41,21.89,21.89,0,0,1-2.63-.75,17,17,0,0,1-2.46-1.1c-.3-.16-.58-.35-.87-.53l-.24.2h0a11.15,11.15,0,0,1,1.72-3.08,8.5,8.5,0,0,1,2.32-2.06,15.73,15.73,0,0,1,1.47-.69c.49-.25,1.11-.49,1.65-.78a16,16,0,0,0,3.21-2.08,15.52,15.52,0,0,0-3.82.25,14.88,14.88,0,0,0-1.85.43,8.76,8.76,0,0,0-1.92.77,6.63,6.63,0,0,0-2.74,3.23,5.52,5.52,0,0,0-.23,3.51,8.54,8.54,0,0,1-.79-.65,5,5,0,0,1-1.32-1.88l-.15-.51a3.76,3.76,0,0,1-.07-.55,2.44,2.44,0,0,1,.12-1c.37-1.16,2.06-2,3.76-2.76.86-.37,1.77-.73,2.68-1.16a11.64,11.64,0,0,0,2.73-1.64,6.24,6.24,0,0,0,1.2-1.3,4.54,4.54,0,0,0,.45-.81,3.83,3.83,0,0,0,.17-.43l.13-.38a14,14,0,0,0,.55-3.08c.15-2,.1-3.95.09-5.88s0-3.84,0-5.76c0-3.85,0-7.71-.07-11.57a136.93,136.93,0,0,0-2.14-23.11,56.9,56.9,0,0,0-3.33-11.14,30.09,30.09,0,0,0-2.8-5.1,18.64,18.64,0,0,0-4-4.21h0a18.41,18.41,0,0,1,3.66,4.4,30.88,30.88,0,0,1,2.5,5.14,56.43,56.43,0,0,1,2.76,11.11A149.87,149.87,0,0,1,248.78,395c0,3.83-.11,7.67-.17,11.53,0,1.92-.05,3.87-.06,5.79,0,1.51,0,3-.08,4.48-1.06,0-2.14,0-3.12.05a152.3,152.3,0,0,1-17.49-.29c-3.09-.26-14-.56-15-4.78-.92-3.7,11.23-5.38,13.7-6.89,1.07-.66,1.92-1.44,1.08-2.7-.51-.76-2.12-1-2.87-1.3a54.83,54.83,0,0,1-7-3.46C188.06,380,186.9,340,189.85,309.68c.89-9.12,2.27-18.19,3.91-27.2q.72-3.83,1.52-7.62a44.06,44.06,0,0,0,4.28-4.13c3.22-3.5,6.14-7.18,9.12-10.8s6-7.21,9.19-10.62a96.44,96.44,0,0,1,10.18-9.62,58.36,58.36,0,0,1,11.87-7.45,53.66,53.66,0,0,0-12.29,6.9A90.72,90.72,0,0,0,217,248.43c-3.32,3.36-6.44,6.89-9.52,10.44s-6.1,7.15-9.33,10.49A42.21,42.21,0,0,1,193,274c-1.78,1.31-3.81,2.37-5.76,2.29s-3.69-1.35-5.08-3a12.15,12.15,0,0,1-2.81-5.7,13.75,13.75,0,0,1-.15-3.21,18.22,18.22,0,0,1,.58-3.24,27.77,27.77,0,0,1,2.61-6.21,52.57,52.57,0,0,1,8.27-10.9l2.36-2.41-3.36.35a13.5,13.5,0,0,1-3,0,12.87,12.87,0,0,1-3-.71,8.93,8.93,0,0,1-5.18-5,8.41,8.41,0,0,1-.49-1.44,9.34,9.34,0,0,1-.4-2.95,9.6,9.6,0,0,1,2.2-5.49,19.79,19.79,0,0,1,4.73-4.22,42.86,42.86,0,0,1,5.72-3.15,69.11,69.11,0,0,1,12.51-4.26l2.08-.49-1.88-1a6.54,6.54,0,0,1-3.12-3.22,3.85,3.85,0,0,1-.13-2.13,5.32,5.32,0,0,1,.42-1.06l.26-.52.34-.47a6,6,0,0,1,4-2.15,15.72,15.72,0,0,1,5,.19,44.58,44.58,0,0,1,9.73,3.15,91.44,91.44,0,0,1,9.21,4.67,79.71,79.71,0,0,0-9-5.16c-.94-.45-1.89-.88-2.84-1.29a370.8,370.8,0,0,1,30.39-57.89c12.3-19.09,26.9-37.83,46.93-49.28A77.51,77.51,0,0,1,352,90.15c18.78,4.74,35.68,15.5,49.5,28.87,15.58,15.07,25.53,33.13,35.1,52.33,5.94,11.91,11.68,23.94,17.05,36.12a79.37,79.37,0,0,0-6.95,4.12,91.28,91.28,0,0,1,9.2-4.67,44.84,44.84,0,0,1,9.74-3.15,15.72,15.72,0,0,1,5-.19,6,6,0,0,1,4,2.15l.34.47.26.52a4.74,4.74,0,0,1,.41,1.06,3.76,3.76,0,0,1-.12,2.13,6.54,6.54,0,0,1-3.12,3.22l-1.88,1,2.08.49a68.75,68.75,0,0,1,12.5,4.26,42.37,42.37,0,0,1,5.73,3.15,19.79,19.79,0,0,1,4.73,4.22,9.6,9.6,0,0,1,2.2,5.49A9.34,9.34,0,0,1,497.32,234.7Z"/>            </clipPath>        </defs>        <g clip-path="url(#outline)">            <rect fill="#3D3D3D" width="640" height="480" />        </g>    </g>    <g id="pattern">        <g clip-path="url(#outline)">            <g opacity="0.6" ><path fill="#435055"  d="M502.33,335.08a151.07,151.07,0,0,1-15.05,4.07c-13.31,2.79-28.61,6-42.28,4.92,25.63,2.13,53.69.69,82-4.21,10.57-1.83,45.11-15.55,45.11-15.55L565.4,309s-29.87,13.55-37.48,16.54C519.41,328.87,511,332.28,502.33,335.08Z"/><path fill="#435055"  d="M518.46,316.56c13.41-6.75,28.61-18.11,29.61-27.31l-5.9-7.56c-2.44,1.84-4.87,3.67-7.35,5.48-37.7,27.5-86,49.2-132.19,57.3,24-3,48.75-8.22,73.42-14.05C490.32,327.05,505.05,323.32,518.46,316.56Z"/><path fill="#435055"  d="M474.38,296.75c-10.24,10.35-26.95,18.09-42.91,25.34,28.69-4,58.29-15.41,79.89-30.87,13-9.3,30.41-21.92,21.25-28.87l-7-6.47c-6.75,7.51-15.47,17.11-26.73,22.46-10,4.73-19.62,9.28-30.21,12.88-19,6.46-35.32,16.19-55.24,19.48C435.25,312.11,452.78,304.77,474.38,296.75Z"/><path fill="#435055"  d="M142.42,284.22c34.3,4.54,68.6,18.58,102.9,23.11-30.86-14.11-63.15-25.08-102.57-34.78l-.31,1.87c-1.31,1.76-2.09,3.73-3.41,5.49-.71,1-2.52,2.44-1.22,3.42S139.61,283.85,142.42,284.22Z"/><path fill="#435055"  d="M188.84,311.91c8.17-.31,14.56-.48,22.95-.58,11.31-.13,41.44,2.69,50.88,3.22a699.71,699.71,0,0,0-73.41-9.46Z"/><path fill="#435055"  d="M188.55,324.1a209.78,209.78,0,0,0,47-4.5l3.24-1.81a187.59,187.59,0,0,1-50-.51Z"/><path fill="#435055"  d="M635.49,320.67c-4.73-3.26-13.08-3.72-21-4.05,8.36-2.43,14.49-8.37,15.79-13.59s-1.34-9.76-5-13.57l-4.51,2c-20.93,18.19-42.72,31.67-69.09,40.1a835.27,835.27,0,0,1-117.82,28.09c3.53-.57,7.3.11,10.83.32,6.93.43,14.12-.46,21.08-1,20.21-1.52,40.38-3.66,60.28-7.55A402.09,402.09,0,0,0,567.93,341c12.71-4,24.77-9.17,38.42-7.39,8,1,16.15,4.35,24.72.77C639,331,640.23,323.92,635.49,320.67Z"/><path fill="#435055"  d="M187.87,341l.84,12.5c18.26,3.26,35.21,4.72,51.71,1.6l-8.1-1C217.17,349.79,203,345.41,187.87,341Z"/><path fill="#435055"  d="M250.45,402.64c6.6-.2,14.43-.48,21-.68a117.86,117.86,0,0,1-21-4.22Z"/><path fill="#435055"  d="M250.46,415.08a8.88,8.88,0,0,0,2.54.2,45.63,45.63,0,0,0,12.71-2.34,52,52,0,0,1-15.08-2.76Z"/><path fill="#435055"  d="M422.77,399.58A88.1,88.1,0,0,1,409,400.64a10.5,10.5,0,0,0,.93.58c3.61,2.29,7,5.25,11.46,5.19,2,0,1.1-2.62,1.34-4.61Z"/><path fill="#435055"  d="M422,413.09a33.53,33.53,0,0,1-11-.73A63.4,63.4,0,0,0,418,416a8.36,8.36,0,0,0,4.13.62c.95-.3.38-1.62-.09-2.37Z"/><path fill="#435055"  d="M192.68,369.56a75.9,75.9,0,0,0,18-1.6L190.46,362Z"/></g>            <g opacity="0.6" ><path fill="#FFECDC"  d="M286.16,418.84c1.15-12.45,7.46-23.49,13.94-33.84a121,121,0,0,1,10.79-14.8c3.27-3.78,6.53-8.66,11.38-10.24,5.45-1.77,11.19-1.83,16.84-1.6,4.46.18,9.85,0,13.47,3.11,7.95,6.94,14.63,17,20.34,25.87s11.91,19.27,12.8,30.12c.13,1.48.5,1.44-.05,1.63-1.78.61-6.49,1.94-9.4,2.8-13.75,4.06-26.91,4.48-42.7,4.36-16.07-.12-32.34-4.21-46.95-7.41"/></g>        </g>    </g>    <g id="mask">        <path d="M72,439c.15,0,.14-1,0-1s-.14,1,0,1Z"/><g opacity="0.1" ><path d="M486.73,334.73c.24,1.7-3.5,6.77-4.43,8.5-1.82,3.4-3.68,6.77-5.67,10.08a107.91,107.91,0,0,1-13.23,18.11,63.28,63.28,0,0,1-11.06,9.47,61.09,61.09,0,0,1-6.25,3.66,32,32,0,0,1-5.53,2.51c-3.47,1-5.72-1.83-7-4.65-4.77-10.47-4.28-21.77-1.73-32.76l-2.28,5c-3.06,11.12-4.07,22.09-5.51,33.54-.1.78-.69,1.39-.44,2.07-.35.21,0,1.48-.24,1.77-2.06,2.52-.95,10.74-1.07,13.94a.63.63,0,0,0,.1.45c.15.19,2.2-.5,2.44-.56a107.07,107.07,0,0,0,24.46-9.44A75.87,75.87,0,0,0,473.09,375c3.19-4.31,4.75-8.09,6.55-13.14C482.74,353.16,488,343.89,486.73,334.73Z"/></g><g opacity="0.1" ><path d="M249.93,400.22a5.25,5.25,0,0,1,.33-1.8c-17.26-5.7-30.25-18.64-37.74-35.07-4-8.82-6.13-18.92-6.18-30.42-.12-25.79,2.8-56.62,9.35-81.94-2.91,3.79-5.95,7.42-9.2,11s-6.64,7.69-11,10.33c-2.23,12.41-5.21,24.62-6.61,37.1-3.37,30.08-1.52,58.55,15.6,78.36,10,11.56,23.45,18.34,41.17,20.59,2.35.3,2.35.08,4.78.42C250.31,405.91,249.91,403.08,249.93,400.22Z"/></g><g opacity="0.1" ><path d="M245.18,148.87a631.52,631.52,0,0,0-29.66,56.38,44.72,44.72,0,0,1,12.88,6.16,6.72,6.72,0,0,1,.93.83c10.87-24.77,19.6-48.65,34.72-71.58,10.78-16.34,22.25-34,37.23-46.59C275.75,106.59,260.33,123.38,245.18,148.87Z"/></g><g opacity="0.1" ><path d="M390.11,411.46c-.7-9.29-.85-8.76-.85-8.76-2.14,1.45-7.5,3.68-12.8,4.91a157,157,0,0,1-19.42,3,226.23,226.23,0,0,1-41.23.28c-7.18-.58-14.36-1.21-21.45-2.44-1.84-.32-3.88-.87-5.15-2.3a10.92,10.92,0,0,1-2.33-5.54,18.82,18.82,0,0,1,.54-8.44c-2.74,7.49-4.3,15.42-5.74,22.84,1.35.3,5.69.6,7,.91,10.44,2.65,32.83,5.21,48,5.33,15.66.13,34.58.44,44.87-3.37,2.86-1.06,8-1.65,9.33-3.08C392.09,413.49,390.24,413.07,390.11,411.46Z"/></g>        <path d="M72,439c.15,0,.14-1,0-1s-.14,1,0,1Z"/><g opacity="0.1" ><path fill="#fff"  d="M410.36,127.82c-16.21-18.83-29.19-25-29.41-25.17,6.47,5.66,12.75,11.63,17.93,18.53,5.72,7.6,10.13,16.29,15,24.43,12.74,21.27,21.42,43.85,32.11,66.25a6,6,0,0,1,.63-.27,3.57,3.57,0,0,1,1-.61c.48-.17.49-.37,1-.55a18.44,18.44,0,0,1,1.86-1.16,11.92,11.92,0,0,1,4.14-2.06,16.83,16.83,0,0,0-.74-1.74C441,181.13,429.65,150.24,410.36,127.82Z"/></g><g opacity="0.1" ><path fill="#fff"  d="M481.79,290c-1.22-6.63-2.69-13.2-4.34-19.72a4.54,4.54,0,0,1-3.72-3.26,5.42,5.42,0,0,1-2.05-1.85c-1.95-3-3.33-6.21-5.94-7.87a5.28,5.28,0,0,1-2.25-3c-.65-.38-1.28-.76-1.88-1.19-.27-.19-.53-.39-.78-.59q4.65,14.6,8,29.58c2.75,12.34,4.9,24.81,6.59,37.33,1.4,10.34,4.07,22.69-2.47,31.88,4.28-6,9.86-10.61,11.34-14.65C489.55,322.28,484.47,304.48,481.79,290Z"/></g>    </g>    <g id="outline">        <path fill="none"  d="M141.25,347.12c-1.63-1.74-3.22-3.51-4.74-5.37a31.86,31.86,0,0,1-4.09-6.12,9,9,0,0,1-.68-1.89,4.64,4.64,0,0,1,0-2.32,3.53,3.53,0,0,1,1.5-2.08,5.91,5.91,0,0,1,2-.82,15.6,15.6,0,0,1,3.81-.27,36,36,0,0,1,3.63.32,137.43,137.43,0,0,1,14,2.82l3.45.85,3.42.74,1.7.37.24,0c-.45-.53-.91-1.06-1.36-1.6a144.07,144.07,0,0,1-8.89-11.92A120.33,120.33,0,0,1,147.7,307,91,91,0,0,1,142.3,294a41.58,41.58,0,0,0-7.36,2.91,47.73,47.73,0,0,0-7.31,4.64,54.65,54.65,0,0,0-6.42,5.84,50.44,50.44,0,0,0-4.9,6.07c1,.71,1.92,1.43,2.85,2.17,1.17.93,2.32,1.88,3.44,2.87q3.38,2.93,6.48,6.17l2.09,2.17-2.95-.56a23.2,23.2,0,0,1-4.58-1.5c-1.44-.61-2.85-1.27-4.23-2-2.57-1.29-5.08-2.66-7.57-4.1a40.47,40.47,0,0,0-5.3,5.85,38.23,38.23,0,0,0-4.31,7.36A31,31,0,0,0,99.86,340a28.69,28.69,0,0,0,0,8.12,58,58,0,0,0,17.14,7.5,100,100,0,0,0,19,3,155.94,155.94,0,0,0,17.83.18A143,143,0,0,1,141.25,347.12Z"/><path fill="none"  d="M170.22,336l-3.55-.42-.89-.11-.88-.17-1.76-.33-3.51-.7-3.44-.81a138,138,0,0,0-13.78-2.61c-1.15-.14-2.29-.23-3.42-.26a13.45,13.45,0,0,0-3.22.22,3.65,3.65,0,0,0-1.24.48,1.18,1.18,0,0,0-.53.72,4.4,4.4,0,0,0,.58,2.6,29.91,29.91,0,0,0,3.8,5.6c1.47,1.79,3,3.52,4.65,5.22a134.93,134.93,0,0,0,45.77,31.82q4.41,1.92,8.95,3.54c-8-13.26-10.72-29.17-11.28-44.47A97,97,0,0,1,170.22,336Z"/><path fill="none"  d="M348.73,87c0-10.08-6.49-29-9.91-38.88-.47-1.35-.89-2.56-1.24-3.61a.64.64,0,0,0-.64-.46.62.62,0,0,0-.64.45l-.29.82c-3,8.56-10.13,28.74-10.41,40.2A81.16,81.16,0,0,1,348.73,87Z"/><path fill="none"  d="M490.79,222a42.37,42.37,0,0,0-5.73-3.15,68.75,68.75,0,0,0-12.5-4.26l-2.08-.49,1.88-1a6.54,6.54,0,0,0,3.12-3.22,3.76,3.76,0,0,0,.12-2.13,4.74,4.74,0,0,0-.41-1.06l-.26-.52-.34-.47a6,6,0,0,0-4-2.15,15.72,15.72,0,0,0-5,.19,44.84,44.84,0,0,0-9.74,3.15,91.28,91.28,0,0,0-9.2,4.67,79.37,79.37,0,0,1,6.95-4.12c-5.37-12.18-11.11-24.21-17.05-36.12C427,152.15,417,134.09,401.46,119c-13.82-13.37-30.72-24.13-49.5-28.87A77.51,77.51,0,0,0,294.16,98c-20,11.45-34.63,30.19-46.93,49.28a370.8,370.8,0,0,0-30.39,57.89c.95.41,1.9.84,2.84,1.29a79.71,79.71,0,0,1,9,5.16,91.44,91.44,0,0,0-9.21-4.67,44.58,44.58,0,0,0-9.73-3.15,15.72,15.72,0,0,0-5-.19,6,6,0,0,0-4,2.15l-.34.47-.26.52a5.32,5.32,0,0,0-.42,1.06,3.85,3.85,0,0,0,.13,2.13,6.54,6.54,0,0,0,3.12,3.22l1.88,1-2.08.49a69.11,69.11,0,0,0-12.51,4.26,42.86,42.86,0,0,0-5.72,3.15,19.79,19.79,0,0,0-4.73,4.22,9.6,9.6,0,0,0-2.2,5.49,9.34,9.34,0,0,0,.4,2.95,8.41,8.41,0,0,0,.49,1.44,8.93,8.93,0,0,0,5.18,5,12.87,12.87,0,0,0,3,.71,13.5,13.5,0,0,0,3,0l3.36-.35L190.68,244a52.57,52.57,0,0,0-8.27,10.9,27.77,27.77,0,0,0-2.61,6.21,18.22,18.22,0,0,0-.58,3.24,13.75,13.75,0,0,0,.15,3.21,12.15,12.15,0,0,0,2.81,5.7c1.39,1.66,3.14,3,5.08,3s4-1,5.76-2.29a42.21,42.21,0,0,0,5.09-4.59c3.23-3.34,6.25-6.94,9.33-10.49s6.2-7.08,9.52-10.44a90.72,90.72,0,0,1,10.67-9.29,53.66,53.66,0,0,1,12.29-6.9,58.36,58.36,0,0,0-11.87,7.45,96.44,96.44,0,0,0-10.18,9.62c-3.2,3.41-6.21,7-9.19,10.62s-5.9,7.3-9.12,10.8a44.06,44.06,0,0,1-4.28,4.13q-.79,3.79-1.52,7.62c-1.64,9-3,18.08-3.91,27.2-2.95,30.32-1.79,70.35,27.9,87.77a54.83,54.83,0,0,0,7,3.46c.75.3,2.36.54,2.87,1.3.84,1.26,0,2-1.08,2.7-2.47,1.51-14.62,3.19-13.7,6.89,1,4.22,11.93,4.52,15,4.78a152.3,152.3,0,0,0,17.49.29c1,0,2.06,0,3.12-.05.08-1.46.07-3,.08-4.48,0-1.92,0-3.87.06-5.79.06-3.86.16-7.7.17-11.53a149.87,149.87,0,0,0-1.41-22.92A56.43,56.43,0,0,0,244.61,361a30.88,30.88,0,0,0-2.5-5.14,18.41,18.41,0,0,0-3.66-4.4h0a18.64,18.64,0,0,1,4,4.21,30.09,30.09,0,0,1,2.8,5.1,56.9,56.9,0,0,1,3.33,11.14A136.93,136.93,0,0,1,250.68,395c.09,3.86.09,7.72.07,11.57,0,1.92,0,3.83,0,5.76s.06,3.86-.09,5.88a14,14,0,0,1-.55,3.08l-.13.38a3.83,3.83,0,0,1-.17.43,4.54,4.54,0,0,1-.45.81,6.24,6.24,0,0,1-1.2,1.3,11.64,11.64,0,0,1-2.73,1.64c-.91.43-1.82.79-2.68,1.16-1.7.71-3.39,1.6-3.76,2.76a2.44,2.44,0,0,0-.12,1,3.76,3.76,0,0,0,.07.55l.15.51a5,5,0,0,0,1.32,1.88,8.54,8.54,0,0,0,.79.65,5.52,5.52,0,0,1,.23-3.51,6.63,6.63,0,0,1,2.74-3.23,8.76,8.76,0,0,1,1.92-.77,14.88,14.88,0,0,1,1.85-.43,15.52,15.52,0,0,1,3.82-.25,16,16,0,0,1-3.21,2.08c-.54.29-1.16.53-1.65.78a15.73,15.73,0,0,0-1.47.69,8.5,8.5,0,0,0-2.32,2.06,11.15,11.15,0,0,0-1.72,3.08h0l.24-.2c.29.18.57.37.87.53a17,17,0,0,0,2.46,1.1,21.89,21.89,0,0,0,2.63.75,21.56,21.56,0,0,0,2.71.41c.59.06,1.18.09,1.76.12a2.53,2.53,0,0,1-.63-1.2,3.43,3.43,0,0,1,.21-2.07,7.25,7.25,0,0,1,2.45-2.89,10.86,10.86,0,0,1,3.17-1.64,7.93,7.93,0,0,1,3.56-.36c-.93.8-1.83,1.44-2.71,2.08l-2.56,1.88a15.8,15.8,0,0,0-2.24,1.87,3.35,3.35,0,0,0-.69,1.14,2.58,2.58,0,0,0-.07,1.55h0l.3-.31a47.63,47.63,0,0,0,8.69-.41A36.94,36.94,0,0,0,267,436a14.83,14.83,0,0,0,4.73-2.53,20.38,20.38,0,0,0,3.84-3.92,25.65,25.65,0,0,0,2.87-4.75,11.41,11.41,0,0,0,.53-1.27,12.37,12.37,0,0,0,.43-1.3c.27-.89.49-1.82.7-2.74.43-1.86.81-3.75,1.22-5.63.79-3.77,1.58-7.55,2.53-11.3a112.5,112.5,0,0,1,3.41-11.08,49.09,49.09,0,0,1,5.09-10.39L291,383.67c-.4.87-.78,1.75-1.17,2.63-.72,1.78-1.39,3.57-2,5.41a113,113,0,0,0-2.85,11.14c-.73,3.43-1.35,6.87-1.95,10.33a314.76,314.76,0,0,0,33,5.43c21.95,2.37,44.62,2.41,66.16-2.89q3.81-.95,7.55-2.11c-.61-3.64-.82-7.26-1.26-10.83-.22-1.8-.53-3.62-.82-5.44s-.58-3.63-1-5.41a31.91,31.91,0,0,0-1.75-5.18c-.66-1.72-1.27-3.46-1.87-5.2h0c.72,1.7,1.45,3.39,2.22,5.06a30.78,30.78,0,0,1,2,5.16c.49,1.8.86,3.6,1.25,5.4s.78,3.6,1.09,5.44c.61,3.66.93,7.33,1.68,10.87a30.8,30.8,0,0,0,1.5,5.15,27.22,27.22,0,0,0,2.44,4.74,20.4,20.4,0,0,0,7.56,7.1c.39.18.77.38,1.17.52l.6.24.61.18c.82.25,1.72.44,2.59.62a45.54,45.54,0,0,0,5.33.74,54.21,54.21,0,0,0,6,.1l.3.31a2.61,2.61,0,0,0-.07-1.56,3.45,3.45,0,0,0-.69-1.14,15.8,15.8,0,0,0-2.24-1.87l-2.56-1.88c-.88-.64-1.78-1.27-2.71-2.07a8.07,8.07,0,0,1,3.56.35,10.89,10.89,0,0,1,3.17,1.65,7.15,7.15,0,0,1,2.45,2.88,3.44,3.44,0,0,1,.21,2.07,2.53,2.53,0,0,1-.64,1.21,36.06,36.06,0,0,0,3.93-.42,20.46,20.46,0,0,0,4.93-1.6,13,13,0,0,0,1.59-.89l.23.2a11.21,11.21,0,0,0-1.72-3.09,8.5,8.5,0,0,0-2.32-2.06,15.73,15.73,0,0,0-1.47-.69c-.49-.25-1.11-.49-1.65-.78a16,16,0,0,1-3.21-2.08,16,16,0,0,1,3.82.26,12,12,0,0,1,1.85.43,8.24,8.24,0,0,1,1.92.76,6.67,6.67,0,0,1,2.74,3.23,5.51,5.51,0,0,1,.22,3.53,6.62,6.62,0,0,0,1.73-1.78,4,4,0,0,0,.62-2,2.58,2.58,0,0,0-.13-.94,2.16,2.16,0,0,0-.46-.8c-.87-1-2.58-1.72-4.25-2.37a20.92,20.92,0,0,1-5.25-2.55,7.28,7.28,0,0,1-1.2-1.16,8.61,8.61,0,0,1-.49-.77,4,4,0,0,1-.33-.86,7.6,7.6,0,0,1-.27-1.53c-.06-.51-.09-1-.11-1.46a111.25,111.25,0,0,1,.43-11.16c.28-3.69.66-7.36,1.1-11,.87-7.33,2-14.63,3.41-21.87.74-3.62,1.55-7.22,2.55-10.78.49-1.77,1-3.54,1.71-5.27a22.85,22.85,0,0,1,1.14-2.52,9,9,0,0,1,.73-1.19,3.94,3.94,0,0,1,.52-.64l.39-.39a5.8,5.8,0,0,0-.84,1.08,8.29,8.29,0,0,0-.63,1.22,22.64,22.64,0,0,0-1,2.57c-.56,1.74-1,3.51-1.43,5.3-.81,3.58-1.44,7.2-2,10.83-1.13,7.25-2,14.55-2.69,21.86-.34,3.65-.63,7.31-.86,11-.18,3.07-.33,6.17-.28,9.2,5.93.9,12.2.59,18.14.39a139.29,139.29,0,0,0,19-1.57c2.83-.49,3.2-.31,1.75-3-1.37-2.56-4.41-3.86-7-4.74-2.38-.8-4.85-1.21-7.28-1.83-1-.24-2.67-.48-3.21-1.5-.69-1.32.33-2,1.29-2.74,4.15-3,8.74-5.13,12.74-8.42a70.11,70.11,0,0,0,17.73-22c8.66-16.76,10.47-36.26,8.63-54.82a234.39,234.39,0,0,0-7.58-39.12c-.49-.5-1-1-1.44-1.52-3.22-3.5-6.14-7.18-9.13-10.8s-6-7.21-9.18-10.62a96.44,96.44,0,0,0-10.18-9.62,58.36,58.36,0,0,0-11.87-7.45,53.66,53.66,0,0,1,12.29,6.9,90.72,90.72,0,0,1,10.67,9.29c3.32,3.36,6.44,6.89,9.52,10.44s6.1,7.15,9.32,10.49a43.78,43.78,0,0,0,5.09,4.59c1.79,1.31,3.81,2.37,5.76,2.29s3.7-1.35,5.09-3a12.24,12.24,0,0,0,2.81-5.7,13.75,13.75,0,0,0,.15-3.21,18.22,18.22,0,0,0-.58-3.24,27.77,27.77,0,0,0-2.61-6.21,52.57,52.57,0,0,0-8.27-10.9l-2.36-2.41,3.36.35a13.5,13.5,0,0,0,3,0,12.87,12.87,0,0,0,3-.71,8.93,8.93,0,0,0,5.18-5,8.41,8.41,0,0,0,.49-1.44,9.34,9.34,0,0,0,.4-2.95,9.6,9.6,0,0,0-2.2-5.49A19.79,19.79,0,0,0,490.79,222Z"/><polygon fill="#725e47"  points="238.45 351.44 238.45 351.44 238.45 351.44 238.45 351.44"/><polygon fill="#725e47"  points="238.45 351.44 238.45 351.44 238.45 351.44 238.45 351.44"/><path d="M497.23,224.9a22,22,0,0,0-5.29-4.6,40.52,40.52,0,0,0-6.08-3.19,69.58,69.58,0,0,0-11.22-3.63,8.3,8.3,0,0,0,.69-.64,6.68,6.68,0,0,0,1.54-2.45,5.24,5.24,0,0,0,.09-3,6.53,6.53,0,0,0-.55-1.33c-.11-.21-.22-.42-.34-.63l-.43-.57a7.56,7.56,0,0,0-1-1l-.6-.39a2.5,2.5,0,0,0-.62-.34l-.65-.29-.67-.2a10.21,10.21,0,0,0-1.36-.26,16.83,16.83,0,0,0-5.31.42,45.43,45.43,0,0,0-9.62,3.54c-.94-2.11-1.88-4.23-2.83-6.33-5.38-11.89-11.09-23.62-17-35.27-5-9.84-9.93-19.56-16.41-28.51-11.52-15.93-26.34-29.79-43.66-39.21a99.24,99.24,0,0,0-25.59-9.74c.15-10.38-6.24-28.95-10-39.75-.46-1.35-.88-2.56-1.23-3.6A2.28,2.28,0,0,0,337,42.38h0a2.27,2.27,0,0,0-2.17,1.53l-.29.83c-3.34,9.44-10.3,29.17-10.49,40.92-.61.06-1.23.12-1.84.2-21.44,2.82-39.91,14.9-54.47,30.44-16.54,17.64-29.32,39.12-40.36,60.51q-6.93,13.44-12.77,27.42a35,35,0,0,0-4.64-1.41,16.87,16.87,0,0,0-5.32-.42,10.37,10.37,0,0,0-1.35.26l-.67.2-.65.29a2.5,2.5,0,0,0-.62.34l-.6.39a7.56,7.56,0,0,0-1,1l-.43.57c-.12.21-.23.42-.34.63a6.53,6.53,0,0,0-.55,1.33,5.15,5.15,0,0,0,.09,3,6.68,6.68,0,0,0,1.54,2.45c.22.23.45.44.68.64a69.79,69.79,0,0,0-11.21,3.63,40.52,40.52,0,0,0-6.08,3.19,21.79,21.79,0,0,0-5.29,4.6,11,11,0,0,0-2.33,10.41,10.62,10.62,0,0,0,.57,1.73,9.58,9.58,0,0,0,.84,1.66,11.27,11.27,0,0,0,5.65,4.68,15.06,15.06,0,0,0,3.53.87l.7.07q-1.45,1.62-2.79,3.35a48,48,0,0,0-4,6,30.45,30.45,0,0,0-2.79,6.76,20.64,20.64,0,0,0-.64,3.69,15.65,15.65,0,0,0,.2,3.8,14.19,14.19,0,0,0,3.37,6.77,12.53,12.53,0,0,0,2.9,2.55,7.5,7.5,0,0,0,3.88,1.19,9,9,0,0,0,3.88-.86,13.85,13.85,0,0,0,1.27-.66c-.33,1.63-.64,3.26-.95,4.89-3.17,17.45-5.49,35.24-5,53a94.62,94.62,0,0,1-16-.69l-3.47-.49-.28,0c-.63-.78-1.27-1.56-1.89-2.35-3-3.89-6-7.87-8.62-12a120,120,0,0,1-7.26-12.83,89.37,89.37,0,0,1-5.35-13.68l-.22-.73-.75.19a41.65,41.65,0,0,0-8.41,3.17,49.49,49.49,0,0,0-7.61,4.76,56.57,56.57,0,0,0-6.66,6,50.11,50.11,0,0,0-5.64,7l-.47.71.73.52c1.16.83,2.33,1.73,3.47,2.65s2.26,1.86,3.36,2.83,2.41,2.19,3.57,3.32l-.56-.22c-1.39-.58-2.77-1.22-4.13-1.89-2.73-1.35-5.43-2.8-8.07-4.32l-.57-.33-.48.41a41.77,41.77,0,0,0-10.5,14.35,32.6,32.6,0,0,0-2.44,8.61,30.3,30.3,0,0,0,.09,9l0,.35.3.2a58.6,58.6,0,0,0,18,7.64,101.73,101.73,0,0,0,19.3,2.78,146.09,146.09,0,0,0,18.6-.28c2.7,2.18,5.48,4.26,8.37,6.18,2,1.36,4,2.59,6,3.85s4.1,2.41,6.22,3.49,4.24,2.17,6.38,3.2,4.33,1.95,6.54,2.82c3.63,1.47,7.33,2.8,11.06,4a52.68,52.68,0,0,0,20.45,18.24c.92.46,1.85.89,2.79,1.3a8.08,8.08,0,0,0,1.25.53l.49.2c-.49.16-1,.36-1.45.52-1.7.59-3.42,1.12-5.11,1.73-3.31,1.18-9.12,3.11-6.74,7.74,2.05,4,8.63,4.74,12.48,5.27a123.86,123.86,0,0,0,19.35.87c1.42,0,3.5.11,5.55,0a11.11,11.11,0,0,1-.29,1.17,3.58,3.58,0,0,1-.45,1,4.41,4.41,0,0,1-.76.81,21.09,21.09,0,0,1-4.85,2.41,17.24,17.24,0,0,0-2.77,1.41,5.53,5.53,0,0,0-2.32,2.74,6.26,6.26,0,0,0,2,6.48,12.12,12.12,0,0,0,2.61,1.84,18.91,18.91,0,0,0,2.81,1.24,23.18,23.18,0,0,0,2.93.82,24.52,24.52,0,0,0,3,.44,49.13,49.13,0,0,0,11.81-.33,38.87,38.87,0,0,0,5.81-1.31,17.28,17.28,0,0,0,5.37-3,25.06,25.06,0,0,0,7.12-9.57,14.75,14.75,0,0,0,.55-1.41,14,14,0,0,0,.44-1.45c.26-1,.46-1.91.66-2.87.29-1.43.55-2.86.81-4.29l.3.07c22.74,4.89,46.18,7.77,69.47,6.66a158.82,158.82,0,0,0,31.66-4.54c2.08-.53,4.14-1.13,6.19-1.78a28.59,28.59,0,0,0,3.45,8.39,21.75,21.75,0,0,0,8.19,8c.44.21.87.45,1.34.62l.68.28.71.22c.94.3,1.84.5,2.76.72a48.37,48.37,0,0,0,5.59.85,45.35,45.35,0,0,0,11.33-.32,22.76,22.76,0,0,0,5.54-1.76,14.59,14.59,0,0,0,2.58-1.55,8.47,8.47,0,0,0,2.18-2.31,6.66,6.66,0,0,0,1-3.22,4.9,4.9,0,0,0-1.17-3.36,8,8,0,0,0-2.59-1.91,28.06,28.06,0,0,0-2.65-1.13,18.89,18.89,0,0,1-4.67-2.19,4.72,4.72,0,0,1-.79-.75,2.17,2.17,0,0,1-.42-.81,7,7,0,0,1-.21-1.18c0-.17,0-.35,0-.53l1.21.13a142.74,142.74,0,0,0,21.19.05c5.56-.29,11.6-.36,17-1.79,4.09-1.08,2.58-5.48.27-8-3.66-4-9.54-4.72-14.51-6a4.42,4.42,0,0,1-.48-.15c.34-.21.64-.43.79-.51q2.13-1.2,4.2-2.52a75.15,75.15,0,0,0,11.24-8.8c13.4-12.74,20.75-30.16,23-48.32,2.66-21.2-1.42-42.6-6.74-63.09l.74.59a16.65,16.65,0,0,0,3.21,2,9,9,0,0,0,3.88.86,7.5,7.5,0,0,0,3.88-1.19,12.53,12.53,0,0,0,2.9-2.55,14.19,14.19,0,0,0,3.37-6.77,16.72,16.72,0,0,0,.2-3.8,20.64,20.64,0,0,0-.64-3.69,30,30,0,0,0-2.8-6.76,46.83,46.83,0,0,0-4-6q-1.33-1.72-2.79-3.35l.7-.07a15.19,15.19,0,0,0,3.53-.87,11.27,11.27,0,0,0,5.65-4.68A9.53,9.53,0,0,0,499,237a9.77,9.77,0,0,0,.58-1.73,11,11,0,0,0-2.33-10.41ZM336,45.28l.29-.82a.62.62,0,0,1,.64-.45.64.64,0,0,1,.64.46c.35,1.05.77,2.26,1.24,3.61,3.42,9.91,9.93,28.8,9.91,38.88a81.16,81.16,0,0,0-23.13-1.48C325.88,74,333,53.84,336,45.28ZM136,358.7a100,100,0,0,1-19-3,58,58,0,0,1-17.14-7.5,28.69,28.69,0,0,1,0-8.12,31,31,0,0,1,2.37-8.15,38.23,38.23,0,0,1,4.31-7.36,40.47,40.47,0,0,1,5.3-5.85c2.49,1.44,5,2.81,7.57,4.1,1.38.69,2.79,1.35,4.23,2a23.2,23.2,0,0,0,4.58,1.5l2.95.56-2.09-2.17q-3.11-3.24-6.48-6.17c-1.12-1-2.27-1.94-3.44-2.87-.93-.74-1.88-1.46-2.85-2.17a50.44,50.44,0,0,1,4.9-6.07,54.65,54.65,0,0,1,6.42-5.84,47.73,47.73,0,0,1,7.31-4.64A41.58,41.58,0,0,1,142.3,294,91,91,0,0,0,147.7,307a120.33,120.33,0,0,0,7.54,12.85,144.07,144.07,0,0,0,8.89,11.92c.45.54.91,1.07,1.36,1.6l-.24,0-1.7-.37-3.42-.74-3.45-.85a137.43,137.43,0,0,0-14-2.82,36,36,0,0,0-3.63-.32,15.6,15.6,0,0,0-3.81.27,5.91,5.91,0,0,0-2,.82,3.53,3.53,0,0,0-1.5,2.08,4.64,4.64,0,0,0,0,2.32,9,9,0,0,0,.68,1.89,31.86,31.86,0,0,0,4.09,6.12c1.52,1.86,3.11,3.63,4.74,5.37a143,143,0,0,0,12.6,11.76A155.94,155.94,0,0,1,136,358.7Zm52.78,18.56A134.93,134.93,0,0,1,143,345.44c-1.61-1.7-3.18-3.43-4.65-5.22a29.91,29.91,0,0,1-3.8-5.6A4.4,4.4,0,0,1,134,332a1.18,1.18,0,0,1,.53-.72,3.65,3.65,0,0,1,1.24-.48,13.45,13.45,0,0,1,3.22-.22c1.13,0,2.27.12,3.42.26a138,138,0,0,1,13.78,2.61l3.44.81,3.51.7,1.76.33.88.17.89.11,3.55.42a97,97,0,0,0,16.25.32c.56,15.3,3.29,31.21,11.28,44.47Q193.22,379.18,188.8,377.26ZM497.32,234.7a8.41,8.41,0,0,1-.49,1.44,8.93,8.93,0,0,1-5.18,5,12.87,12.87,0,0,1-3,.71,13.5,13.5,0,0,1-3,0l-3.36-.35,2.36,2.41a52.57,52.57,0,0,1,8.27,10.9,27.77,27.77,0,0,1,2.61,6.21,18.22,18.22,0,0,1,.58,3.24,13.75,13.75,0,0,1-.15,3.21,12.24,12.24,0,0,1-2.81,5.7c-1.39,1.66-3.14,3-5.09,3s-4-1-5.76-2.29a43.78,43.78,0,0,1-5.09-4.59c-3.22-3.34-6.24-6.94-9.32-10.49s-6.2-7.08-9.52-10.44a90.72,90.72,0,0,0-10.67-9.29,53.66,53.66,0,0,0-12.29-6.9,58.36,58.36,0,0,1,11.87,7.45,96.44,96.44,0,0,1,10.18,9.62c3.2,3.41,6.21,7,9.18,10.62s5.91,7.3,9.13,10.8c.47.51.95,1,1.44,1.52a234.39,234.39,0,0,1,7.58,39.12c1.84,18.56,0,38.06-8.63,54.82a70.11,70.11,0,0,1-17.73,22c-4,3.29-8.59,5.43-12.74,8.42-1,.7-2,1.42-1.29,2.74.54,1,2.24,1.26,3.21,1.5,2.43.62,4.9,1,7.28,1.83,2.61.88,5.65,2.18,7,4.74,1.45,2.72,1.08,2.54-1.75,3a139.29,139.29,0,0,1-19,1.57c-5.94.2-12.21.51-18.14-.39-.05-3,.1-6.13.28-9.2.23-3.65.52-7.31.86-11,.71-7.31,1.56-14.61,2.69-21.86.56-3.63,1.19-7.25,2-10.83.4-1.79.87-3.56,1.43-5.3a22.64,22.64,0,0,1,1-2.57,8.29,8.29,0,0,1,.63-1.22,5.8,5.8,0,0,1,.84-1.08l-.39.39a3.94,3.94,0,0,0-.52.64,9,9,0,0,0-.73,1.19,22.85,22.85,0,0,0-1.14,2.52c-.67,1.73-1.22,3.5-1.71,5.27-1,3.56-1.81,7.16-2.55,10.78-1.43,7.24-2.54,14.54-3.41,21.87-.44,3.66-.82,7.33-1.1,11a111.25,111.25,0,0,0-.43,11.16c0,.47.05.95.11,1.46a7.6,7.6,0,0,0,.27,1.53,4,4,0,0,0,.33.86,8.61,8.61,0,0,0,.49.77,7.28,7.28,0,0,0,1.2,1.16,20.92,20.92,0,0,0,5.25,2.55c1.67.65,3.38,1.34,4.25,2.37a2.16,2.16,0,0,1,.46.8,2.58,2.58,0,0,1,.13.94,4,4,0,0,1-.62,2,6.62,6.62,0,0,1-1.73,1.78,5.51,5.51,0,0,0-.22-3.53,6.67,6.67,0,0,0-2.74-3.23,8.24,8.24,0,0,0-1.92-.76,12,12,0,0,0-1.85-.43,16,16,0,0,0-3.82-.26,16,16,0,0,0,3.21,2.08c.54.29,1.16.53,1.65.78a15.73,15.73,0,0,1,1.47.69,8.5,8.5,0,0,1,2.32,2.06,11.21,11.21,0,0,1,1.72,3.09l-.23-.2a13,13,0,0,1-1.59.89,20.46,20.46,0,0,1-4.93,1.6,36.06,36.06,0,0,1-3.93.42,2.53,2.53,0,0,0,.64-1.21,3.44,3.44,0,0,0-.21-2.07,7.15,7.15,0,0,0-2.45-2.88,10.89,10.89,0,0,0-3.17-1.65,8.07,8.07,0,0,0-3.56-.35c.93.8,1.83,1.43,2.71,2.07l2.56,1.88a15.8,15.8,0,0,1,2.24,1.87,3.45,3.45,0,0,1,.69,1.14,2.61,2.61,0,0,1,.07,1.56l-.3-.31a54.21,54.21,0,0,1-6-.1,45.54,45.54,0,0,1-5.33-.74c-.87-.18-1.77-.37-2.59-.62l-.61-.18-.6-.24c-.4-.14-.78-.34-1.17-.52a20.4,20.4,0,0,1-7.56-7.1,27.22,27.22,0,0,1-2.44-4.74,30.8,30.8,0,0,1-1.5-5.15c-.75-3.54-1.07-7.21-1.68-10.87-.31-1.84-.71-3.64-1.09-5.44s-.76-3.6-1.25-5.4a30.78,30.78,0,0,0-2-5.16c-.77-1.67-1.5-3.36-2.22-5.06h0c.6,1.74,1.21,3.48,1.87,5.2a31.91,31.91,0,0,1,1.75,5.18c.39,1.78.67,3.6,1,5.41s.6,3.64.82,5.44c.44,3.57.65,7.19,1.26,10.83q-3.74,1.17-7.55,2.11c-21.54,5.3-44.21,5.26-66.16,2.89a314.76,314.76,0,0,1-33-5.43c.6-3.46,1.22-6.9,1.95-10.33a113,113,0,0,1,2.85-11.14c.57-1.84,1.24-3.63,2-5.41.39-.88.77-1.76,1.17-2.63l1.35-2.56a49.09,49.09,0,0,0-5.09,10.39,112.5,112.5,0,0,0-3.41,11.08c-.95,3.75-1.74,7.53-2.53,11.3-.41,1.88-.79,3.77-1.22,5.63-.21.92-.43,1.85-.7,2.74a12.37,12.37,0,0,1-.43,1.3,11.41,11.41,0,0,1-.53,1.27,25.65,25.65,0,0,1-2.87,4.75,20.38,20.38,0,0,1-3.84,3.92A14.83,14.83,0,0,1,267,436a36.94,36.94,0,0,1-5.46,1.14,47.63,47.63,0,0,1-8.69.41l-.3.31h0a2.58,2.58,0,0,1,.07-1.55,3.35,3.35,0,0,1,.69-1.14,15.8,15.8,0,0,1,2.24-1.87l2.56-1.88c.88-.64,1.78-1.28,2.71-2.08a7.93,7.93,0,0,0-3.56.36,10.86,10.86,0,0,0-3.17,1.64,7.25,7.25,0,0,0-2.45,2.89,3.43,3.43,0,0,0-.21,2.07,2.53,2.53,0,0,0,.63,1.2c-.58,0-1.17-.06-1.76-.12a21.56,21.56,0,0,1-2.71-.41,21.89,21.89,0,0,1-2.63-.75,17,17,0,0,1-2.46-1.1c-.3-.16-.58-.35-.87-.53l-.24.2h0a11.15,11.15,0,0,1,1.72-3.08,8.5,8.5,0,0,1,2.32-2.06,15.73,15.73,0,0,1,1.47-.69c.49-.25,1.11-.49,1.65-.78a16,16,0,0,0,3.21-2.08,15.52,15.52,0,0,0-3.82.25,14.88,14.88,0,0,0-1.85.43,8.76,8.76,0,0,0-1.92.77,6.63,6.63,0,0,0-2.74,3.23,5.52,5.52,0,0,0-.23,3.51,8.54,8.54,0,0,1-.79-.65,5,5,0,0,1-1.32-1.88l-.15-.51a3.76,3.76,0,0,1-.07-.55,2.44,2.44,0,0,1,.12-1c.37-1.16,2.06-2,3.76-2.76.86-.37,1.77-.73,2.68-1.16a11.64,11.64,0,0,0,2.73-1.64,6.24,6.24,0,0,0,1.2-1.3,4.54,4.54,0,0,0,.45-.81,3.83,3.83,0,0,0,.17-.43l.13-.38a14,14,0,0,0,.55-3.08c.15-2,.1-3.95.09-5.88s0-3.84,0-5.76c0-3.85,0-7.71-.07-11.57a136.93,136.93,0,0,0-2.14-23.11,56.9,56.9,0,0,0-3.33-11.14,30.09,30.09,0,0,0-2.8-5.1,18.64,18.64,0,0,0-4-4.21h0a18.41,18.41,0,0,1,3.66,4.4,30.88,30.88,0,0,1,2.5,5.14,56.43,56.43,0,0,1,2.76,11.11A149.87,149.87,0,0,1,248.78,395c0,3.83-.11,7.67-.17,11.53,0,1.92-.05,3.87-.06,5.79,0,1.51,0,3-.08,4.48-1.06,0-2.14,0-3.12.05a152.3,152.3,0,0,1-17.49-.29c-3.09-.26-14-.56-15-4.78-.92-3.7,11.23-5.38,13.7-6.89,1.07-.66,1.92-1.44,1.08-2.7-.51-.76-2.12-1-2.87-1.3a54.83,54.83,0,0,1-7-3.46C188.06,380,186.9,340,189.85,309.68c.89-9.12,2.27-18.19,3.91-27.2q.72-3.83,1.52-7.62a44.06,44.06,0,0,0,4.28-4.13c3.22-3.5,6.14-7.18,9.12-10.8s6-7.21,9.19-10.62a96.44,96.44,0,0,1,10.18-9.62,58.36,58.36,0,0,1,11.87-7.45,53.66,53.66,0,0,0-12.29,6.9A90.72,90.72,0,0,0,217,248.43c-3.32,3.36-6.44,6.89-9.52,10.44s-6.1,7.15-9.33,10.49A42.21,42.21,0,0,1,193,274c-1.78,1.31-3.81,2.37-5.76,2.29s-3.69-1.35-5.08-3a12.15,12.15,0,0,1-2.81-5.7,13.75,13.75,0,0,1-.15-3.21,18.22,18.22,0,0,1,.58-3.24,27.77,27.77,0,0,1,2.61-6.21,52.57,52.57,0,0,1,8.27-10.9l2.36-2.41-3.36.35a13.5,13.5,0,0,1-3,0,12.87,12.87,0,0,1-3-.71,8.93,8.93,0,0,1-5.18-5,8.41,8.41,0,0,1-.49-1.44,9.34,9.34,0,0,1-.4-2.95,9.6,9.6,0,0,1,2.2-5.49,19.79,19.79,0,0,1,4.73-4.22,42.86,42.86,0,0,1,5.72-3.15,69.11,69.11,0,0,1,12.51-4.26l2.08-.49-1.88-1a6.54,6.54,0,0,1-3.12-3.22,3.85,3.85,0,0,1-.13-2.13,5.32,5.32,0,0,1,.42-1.06l.26-.52.34-.47a6,6,0,0,1,4-2.15,15.72,15.72,0,0,1,5,.19,44.58,44.58,0,0,1,9.73,3.15,91.44,91.44,0,0,1,9.21,4.67,79.71,79.71,0,0,0-9-5.16c-.94-.45-1.89-.88-2.84-1.29a370.8,370.8,0,0,1,30.39-57.89c12.3-19.09,26.9-37.83,46.93-49.28A77.51,77.51,0,0,1,352,90.15c18.78,4.74,35.68,15.5,49.5,28.87,15.58,15.07,25.53,33.13,35.1,52.33,5.94,11.91,11.68,23.94,17.05,36.12a79.37,79.37,0,0,0-6.95,4.12,91.28,91.28,0,0,1,9.2-4.67,44.84,44.84,0,0,1,9.74-3.15,15.72,15.72,0,0,1,5-.19,6,6,0,0,1,4,2.15l.34.47.26.52a4.74,4.74,0,0,1,.41,1.06,3.76,3.76,0,0,1-.12,2.13,6.54,6.54,0,0,1-3.12,3.22l-1.88,1,2.08.49a68.75,68.75,0,0,1,12.5,4.26,42.37,42.37,0,0,1,5.73,3.15,19.79,19.79,0,0,1,4.73,4.22,9.6,9.6,0,0,1,2.2,5.49A9.34,9.34,0,0,1,497.32,234.7Z"/>    </g>    <g id="eye">        <g id="eye-color1">            <g opacity="0" ><path fill="#3D3D3D"  d="M234.82,140.34c-.14.46-.2.94-.35,1.4a16,16,0,0,1-1.35,2.87c-.53.93-1,1.89-1.54,2.82-.24.42-.5.81-.77,1.21l-.43.61c-.09.11-.46.47-.46.6-.19.25-.39.5-.59.74-5.88,7-13.9,9.8-22.69,6.53-8.54-3.17-14.21-10.4-14.65-19.54a.84.84,0,0,1,0-.28.93.93,0,0,1,0-.29,23.27,23.27,0,0,1,19-21.81,18.93,18.93,0,0,1,11.42,1.34c-15.29-7.7-34.35-2.92-39.29,15.34a20.81,20.81,0,0,0-.67,6.53A29.42,29.42,0,0,0,193,158.64c8.6,7.09,21.5,6.67,31.05,1.77,7.18-3.69,10-12.6,10.92-20.45C234.91,140.08,234.86,140.21,234.82,140.34Z"/></g><g opacity="0" ><path fill="#3D3D3D"  d="M358.58,134.27c-.24.62-.44,1.25-.7,1.86a24.39,24.39,0,0,1-2,3.67,31.67,31.67,0,0,1-2.54,3.43c-5.88,7-13.9,9.8-22.69,6.53-8.53-3.17-14.2-10.4-14.65-19.53a2.11,2.11,0,0,1,0-.58,23.29,23.29,0,0,1,19-21.81,18.89,18.89,0,0,1,11.43,1.35c-15.3-7.71-34.36-2.93-39.3,15.33a20.54,20.54,0,0,0-.66,6.53A29.34,29.34,0,0,0,317,151.28c8.59,7.09,21.5,6.67,31,1.77,6.9-3.55,9.72-12,10.77-19.65C358.75,133.65,358.67,134,358.58,134.27Z"/></g>        </g>        <g id="eye-shape">            <path fill="#fbfbfb"  d="M295.89,123.07c-21.73-17.81-51.73-12-72.06,4.87-11.71,10.13-20.83,23.9-22.36,39.62-1.27,13.08,2.6,26.27,9.61,37.28,12.38,19.45,36.51,33.94,59.91,27.09,20.91-6.11,35.23-26.44,41.18-46.49C318.73,163.33,314.39,138.24,295.89,123.07ZM312,167.47c3.12,13.13-4,29.28-15.05,36.62-11.44,7.58-25.45,6.3-36.15-1.92-11.83-9.09-12.9-22.85-8.48-36.32a1.57,1.57,0,0,1,.15-.32c5.3-13,19.95-19.08,33.33-17.47a40.23,40.23,0,0,1,4.79.88c7-1.95,15.58,1.56,16.61,9.37A21.23,21.23,0,0,1,312,167.47Z"/><path d="M221.71,125.82C211.07,135,202.58,147.11,199.5,161c-2.77,12.5-.75,25.57,4.53,37.14,10.21,22.39,34.35,41.15,59.93,38.25,23.13-2.63,40.23-22.12,48.49-42.66,9.19-22.89,7.78-50-9.89-68.54C280.11,101.65,245.06,106.47,221.71,125.82Zm90.46,59.62c-5.95,20.05-20.27,40.38-41.18,46.49-23.4,6.85-47.53-7.64-59.91-27.09-7-11-10.88-24.2-9.61-37.28,1.53-15.72,10.65-29.49,22.36-39.62,20.33-16.85,50.33-22.68,72.06-4.87C314.39,138.24,318.73,163.33,312.17,185.44Z"/><path d="M307.12,162.07c-1.18,7.61-8.53,14.08-16.4,11.78-7.26-2.13-10.49-10.21-8.63-17.13a1.6,1.6,0,0,1,.1-.39,1.34,1.34,0,0,1,.18-.38,12.35,12.35,0,0,1,8.2-7,40.23,40.23,0,0,0-4.79-.88c-13.38-1.61-28,4.46-33.33,17.47a1.57,1.57,0,0,0-.15.32c-4.42,13.47-3.35,27.23,8.48,36.32,10.7,8.22,24.71,9.5,36.15,1.92C308,196.75,315.1,180.6,312,167.47a21.23,21.23,0,0,0-4.8-9.16A12.9,12.9,0,0,1,307.12,162.07Z"/><path fill="#fff"  d="M290.57,148.94a12.35,12.35,0,0,0-8.2,7,1.34,1.34,0,0,0-.18.38,1.6,1.6,0,0,0-.1.39c-1.86,6.92,1.37,15,8.63,17.13,7.87,2.3,15.22-4.17,16.4-11.78a12.9,12.9,0,0,0,.06-3.76C306.15,150.5,297.61,147,290.57,148.94Z"/><path fill="#fbfbfb"  d="M437.65,124.5c-21.81-15.38-53-18.4-71.71,3.56-17.26,21.61-17.19,56.12-2.48,79a51.88,51.88,0,0,0,65.66,19.41A58,58,0,0,0,462.59,177C463.67,156.62,454.4,136.32,437.65,124.5Zm-65.73,81.87c-14.35-8.08-20.39-26.75-13.74-41.89a30.47,30.47,0,0,1,4.24-6.94,10.08,10.08,0,0,1,1.62-5.67c2.64-4.14,8-4.83,12.6-3.8a30.47,30.47,0,0,1,12.64-.95c14.23,1.89,27.34,11.65,30.73,26C426.49,200.61,394.74,217.86,371.92,206.37Z"/><path d="M445.1,126.64c-22.48-20.28-60.06-25.65-81.28-.7-16.45,20.59-17.87,51.29-7.19,74.85,10.79,23.79,36.25,38.16,62.16,32.38,23.25-5.18,41.58-24.61,45.83-47.94C468.51,163.94,461.25,141.21,445.1,126.64ZM462.59,177a58,58,0,0,1-33.47,49.54,51.88,51.88,0,0,1-65.66-19.41c-14.71-22.92-14.78-57.43,2.48-79,18.68-22,49.9-18.94,71.71-3.56C454.4,136.32,463.67,156.62,462.59,177Z"/><path d="M389.28,147.12a30.47,30.47,0,0,0-12.64.95,17.62,17.62,0,0,1,3.22,1.06c5.45,2.45,8.82,8.1,6.23,13.93-3,6.78-10.57,8.51-16.85,5.52a1.7,1.7,0,0,1-.39-.18,1.3,1.3,0,0,1-.34-.25,13.66,13.66,0,0,1-6.09-10.61,30.47,30.47,0,0,0-4.24,6.94c-6.65,15.14-.61,33.81,13.74,41.89,22.82,11.49,54.57-5.76,48.09-33.26C416.62,158.77,403.51,149,389.28,147.12Z"/><path fill="#fff"  d="M368.51,168.15a1.3,1.3,0,0,0,.34.25,1.7,1.7,0,0,0,.39.18c6.28,3,13.85,1.26,16.85-5.52,2.59-5.83-.78-11.48-6.23-13.93a17.62,17.62,0,0,0-3.22-1.06c-4.6-1-10-.34-12.6,3.8a10.08,10.08,0,0,0-1.62,5.67A13.66,13.66,0,0,0,368.51,168.15Z"/>        </g>        <g id="eye-color2">            <path fill="#EFCA89"  d="M296.93,204.09c-11.44,7.58-25.45,6.3-36.15-1.92-11.83-9.09-12.9-22.85-8.48-36.32a1.57,1.57,0,0,1,.15-.32c5.09-12.49,18.79-18.56,31.71-17.61-18.58-4.75-40.69,3.61-47,22.29a37.84,37.84,0,0,0,4.9,33.64c7.49,10.53,19.92,14.8,32.48,14.76,6.18,0,12.54-1,17.8-4.27,8.59-5.28,15.13-15.61,17.42-26.36A36.26,36.26,0,0,1,296.93,204.09Z"/><path fill="#EFCA89"  d="M413.7,150.66c-9.56-6.81-25.15-8-36.48-2.77a30.7,30.7,0,0,1,12.06-.77c14.23,1.89,27.34,11.65,30.73,26,6.48,27.5-25.27,44.75-48.09,33.26a32.32,32.32,0,0,1-14.31-17.05,17.33,17.33,0,0,0,.4,2.36,31.2,31.2,0,0,0,16.47,20.87c13.13,6.59,30.83,4.54,43.3-5.59a31.73,31.73,0,0,0,10.47-14.43C433.11,177.65,426.41,159.69,413.7,150.66Z"/>        </g>    </g>    <g id="nose-mouth">        <path fill="#2d2821"  d="M355.4,202.68c-2.76-4.52-5.63-9.61-9.16-13.57-8.87-9.94-21.59-6.52-29.46,2.63a97.86,97.86,0,0,0-6.34,8.82c-3.09,5.19-6.86,14-4.2,19.86,4.82,10.66,18.92,11,28.6,8.55a89.85,89.85,0,0,1,10.63-1.56c2.27-.3,5-.36,7.12-1.16,2.51-.93,4-3.91,5.19-6.3C361,213.37,358.89,208.39,355.4,202.68Zm-27.37,24a28.45,28.45,0,0,1-15.58-11.22c-.92-1.31.69-2.55,1.9-2.06a2,2,0,0,1,.93-1.25c1.57-1,3.41.28,4.72,1.15a28.64,28.64,0,0,1,9.73,11.18A1.52,1.52,0,0,1,328,226.64Zm20-2.15c-1.3,1-3.07-.42-2.54-1.6a1.4,1.4,0,0,1-1-1.79,36.82,36.82,0,0,1,5.22-11.22,1.52,1.52,0,0,1,2.74.36A13.23,13.23,0,0,1,348,224.49Z"/><path d="M360.51,205.56a111.21,111.21,0,0,0-10.57-16.65c-9.74-12.7-25.47-10.73-35.3.73-.06.07-.1.14-.15.21l-.09.1c-2.69,3.57-5.59,7.06-7.66,11.05-2.83,5.45-5.74,13.35-3.74,19.46,4,12.18,19.55,14.2,30.24,12.06,4.9-1,9.75-1.75,14.73-2.45,6.66-.93,8.76-1.74,12.09-8C362.91,216.72,363.28,210.94,360.51,205.56Zm-7.92,20.69c-2.16.8-4.85.86-7.12,1.16A89.85,89.85,0,0,0,334.84,229c-9.68,2.47-23.78,2.11-28.6-8.55-2.66-5.87,1.11-14.67,4.2-19.86a97.86,97.86,0,0,1,6.34-8.82c7.87-9.15,20.59-12.57,29.46-2.63,3.53,4,6.4,9,9.16,13.57,3.49,5.71,5.59,10.69,2.38,17.27C356.61,222.34,355.1,225.32,352.59,226.25Z"/><path d="M320,213.26c-1.31-.87-3.15-2.14-4.72-1.15a2,2,0,0,0-.93,1.25c-1.21-.49-2.82.75-1.9,2.06A28.45,28.45,0,0,0,328,226.64a1.52,1.52,0,0,0,1.7-2.2A28.64,28.64,0,0,0,320,213.26Z"/><path d="M349.62,209.88a36.82,36.82,0,0,0-5.22,11.22,1.4,1.4,0,0,0,1,1.79c-.53,1.18,1.24,2.62,2.54,1.6a13.23,13.23,0,0,0,4.38-14.25A1.52,1.52,0,0,0,349.62,209.88Z"/><path d="M282.83,243.59v-1.32a1.5,1.5,0,0,0-3,0v1.32a1.5,1.5,0,0,0,3,0Z"/><path d="M277.38,250.35a1.5,1.5,0,0,0,0-3,1.5,1.5,0,0,0,0,3Z"/><path d="M284.61,256.92a1.5,1.5,0,0,0,0-3,1.5,1.5,0,0,0,0,3Z"/><path d="M294.47,247.06a1.5,1.5,0,0,0,0-3,1.5,1.5,0,0,0,0,3Z"/><path d="M272.78,239.83a1.5,1.5,0,0,0,0-3,1.5,1.5,0,0,0,0,3Z"/><path d="M284.61,233.26a1.5,1.5,0,0,0,0-3,1.5,1.5,0,0,0,0,3Z"/><path d="M290.53,242.46a1.5,1.5,0,0,0,0-3,1.5,1.5,0,0,0,0,3Z"/><path d="M363.14,241.86a1.5,1.5,0,0,0,0-3,1.5,1.5,0,0,0,0,3Z"/><path d="M363.49,231.94a1.5,1.5,0,0,0,0-3,1.5,1.5,0,0,0,0,3Z"/><path d="M372,226.69a1.5,1.5,0,0,0,0-3,1.5,1.5,0,0,0,0,3Z"/><path d="M372,236.54a1.5,1.5,0,0,0,0-3,1.5,1.5,0,0,0,0,3Z"/><path d="M373.34,246.4a1.5,1.5,0,0,0,0-3,1.5,1.5,0,0,0,0,3Z"/><path d="M383.86,243.77a1.5,1.5,0,0,0,0-3,1.5,1.5,0,0,0,0,3Z"/><path d="M384.52,232.6a1.5,1.5,0,0,0,0-3,1.5,1.5,0,0,0,0,3Z"/><path d="M380.57,237.86a1.5,1.5,0,0,0,0-3,1.5,1.5,0,0,0,0,3Z"/><path d="M367.43,249.69a1.5,1.5,0,0,0,0-3,1.5,1.5,0,0,0,0,3Z"/><path fill="none"  d="M352.34,241.81l0,0,0,0,0,.06S352.33,241.83,352.34,241.81Z"/><path fill="#fff9ef"  d="M309.51,247.72a95,95,0,0,0-6.81-8.53q-1.95-2.19-4-4.34c-.09-.11-.19-.2-.28-.3l.18.47c.34.94.67,1.82,1,2.79s.55,1.94.76,2.91a54,54,0,0,1,.78,5.87l.46,5.85h0l.41-.2,1.16-.67C305.35,250.33,307.47,249.07,309.51,247.72Z"/><path fill="#fff9ef"  d="M358.23,245.21,358,245c-.07-.07-.14-.06-.25-.25a1.16,1.16,0,0,1,0-.37l0-.26,0-.54c-.08-.71-.13-1.45-.17-2.18a38.75,38.75,0,0,1-.06-4.45,35.79,35.79,0,0,1,.7-4.42v-.07a29.33,29.33,0,0,0-2.36,4.16c-.65,1.37-1.16,2.81-1.81,4.21-.16.35-.33.7-.5,1l-.12.25-.05.14,0,.09a.64.64,0,0,1-.07.12l0,0s0,0-.13.1q2.66,1.29,5.29,2.64Z"/><path d="M358.55,245.41l-.15-.33a2.07,2.07,0,0,0-.15-.25c0-.07-.13-.2-.1-.17s0-.1.07-.18l.07-.27c0-.19.08-.38.11-.56.12-.75.16-1.46.23-2.19.15-1.45.24-2.91.47-4.29s.59-2.74.92-4.19.64-2.87.87-4.32l.6-3.73-2.34,2.93a47.1,47.1,0,0,0-2.79,3.84,27.9,27.9,0,0,0-2.19,4.24,35,35,0,0,0-1.58,4.43c-.11.38-.2.76-.28,1.15l-.06.3,0,.22a.32.32,0,0,0,0,.13s0,0,0,.07c-1.43-.7-2.87-1.38-4.31-2.06a55,55,0,0,0-9.32-3.49,24.53,24.53,0,0,0-10.26-.58,22.17,22.17,0,0,0-9.33,4.35c-2.68,2-5.07,4.15-7.63,6l-1.79,1.22a74.24,74.24,0,0,0-6.21-9c-1.21-1.55-2.47-3.07-3.75-4.57s-2.5-3-3.75-4.57l-.65.59h0l-.64.59a10.76,10.76,0,0,1,1.22,2.33c.35.87.7,1.76,1,2.67.63,1.85,1.27,3.62,1.71,5.47s.86,3.75,1.31,5.66a35.12,35.12,0,0,0,1.8,5.63h0l-.46-5.85a54,54,0,0,0-.78-5.87c-.21-1-.46-1.95-.76-2.91s-.65-1.85-1-2.79l-.18-.47c.09.1.19.19.28.3q2,2.15,4,4.34a95,95,0,0,1,6.81,8.53c-2,1.35-4.16,2.61-6.31,3.85l-1.16.67c-1,.6-2,1.19-3.05,1.74a9.71,9.71,0,0,1-4.57,1.3,9.12,9.12,0,0,0,4.89-.54c1.57-.56,3-1.24,4.55-1.86a70.6,70.6,0,0,0,8.79-4.48c2.87-1.73,5.37-3.88,8-5.64a19.9,19.9,0,0,1,8.22-3.7,19.17,19.17,0,0,1,4.49-.28,30,30,0,0,1,4.57.68,64.37,64.37,0,0,1,9.07,2.88c6,2.35,12.14,4.65,18.34,6.66C363.09,247.76,360.82,246.57,358.55,245.41Zm-5.4-2.87,0,0a.64.64,0,0,0,.07-.12l0-.09.05-.14.12-.25c.17-.34.34-.69.5-1,.65-1.4,1.16-2.84,1.81-4.21a29.33,29.33,0,0,1,2.36-4.16v.07a35.79,35.79,0,0,0-.7,4.42,38.75,38.75,0,0,0,.06,4.45c0,.73.09,1.47.17,2.18l0,.54,0,.26a1.16,1.16,0,0,0,0,.37c.11.19.18.18.25.25l.21.17.08.07q-2.64-1.35-5.29-2.64C353.12,242.58,353.18,242.52,353.15,242.54Zm-.8-.75,0,0,0,0s0,0,0,0Z"/>    </g></svg>