<!--  ~ Copyright (C) 2018 Baidu, Inc. All Rights Reserved.  --><svg viewBox="0 0 640 480" xmlns="http://www.w3.org/2000/svg">    <g id="back-ground-cl">        <rect fill="none" width="640" height="480" />        <ellipse opacity="0.1" cx="331.93" cy="418.82" rx="168.39" ry="32.01"/>    </g>    <g id="body">        <defs>            <clipPath id="outline">                <path fill="none"  d="M257.87,128.21l.35-.12c2.92-3.66,6-7.21,9.15-10.61a118.21,118.21,0,0,1,14.79-13.43c-.08-.39-.17-.75-.25-1-1.46-5.37-6.24-8.59-11.15-10.57-7.17-2.9-15-3.63-22.21-6.5a28.11,28.11,0,0,1-7.83-4.49c-.95-.81-1.74-1.73-2.62-2.6a13.89,13.89,0,0,0-2.26-2.07,7.21,7.21,0,0,0-5.45,6c-2.73,8.82,1.08,20.06,4.85,28.19,3.54,7.63,9,12.45,16.83,15.43C253.53,126.91,256.36,128.5,257.87,128.21Z"/><path fill="none"  d="M413,128.8c14.57-10,20.21-32.54,21.46-49.56.2-2.76.82-8.24-1.57-10.18-3.22-2.61-6.26,3.45-7.76,5.36A28.9,28.9,0,0,1,409.27,84.8c-6.5,1.53-12.78,1.84-18.48,5.66-3.77,2.52-7.87,6-10.39,10.2A132,132,0,0,1,413,128.8Z"/><path fill="none"  d="M467.07,243.41c-8.65-24.15-19.37-47.49-30.8-70.44-9.43-18.92-19.18-36.8-34.42-51.76C388,107.6,371,96.62,352.05,91.77A77.35,77.35,0,0,0,293.33,100c-20,11.78-34.51,30.8-46.8,50.08a377.56,377.56,0,0,0-52.42,133.52c-1.64,9-3,18.11-3.91,27.25-2.95,30.42-1.69,70.59,28.42,87.67,2.13,1.21,13,3.79,8.39,7.39-2.4,1.85-14.49,3-13.86,6.68.69,4.07,12.39,4.42,15.14,4.64a154.25,154.25,0,0,0,17.6.24c.53,0,1.45,0,2.41,0,.15-1.74.14-3.58.16-5.43s0-3.86.07-5.79c.06-3.85.17-7.68.19-11.51a150.53,150.53,0,0,0-1.33-22.87,56.23,56.23,0,0,0-2.68-11.09,30.74,30.74,0,0,0-2.47-5.14,18.3,18.3,0,0,0-3.62-4.42,22.73,22.73,0,0,1,6.82,9.26,57.07,57.07,0,0,1,3.39,11.14,134.87,134.87,0,0,1,2.22,23.1c.11,3.86.11,7.72.1,11.56,0,1.92,0,3.83,0,5.75s.08,3.86-.07,5.9a13.94,13.94,0,0,1-.56,3.13l-.13.39c0,.14-.12.3-.18.45a4.64,4.64,0,0,1-.47.85,6.81,6.81,0,0,1-1.25,1.36,22.42,22.42,0,0,1-5.47,2.84c-1.7.7-3.31,1.6-3.6,2.59a1.94,1.94,0,0,0-.1.85,4.53,4.53,0,0,0,.06.5l.14.48a4.69,4.69,0,0,0,1.25,1.77c.12.11.27.22.4.33a5.55,5.55,0,0,1,.24-3.09,6.48,6.48,0,0,1,2.78-3.36,8.4,8.4,0,0,1,2-.78,12.23,12.23,0,0,1,1.87-.39,13.23,13.23,0,0,1,3.88,0,13.58,13.58,0,0,1-3.13,2.28c-1.12.61-2.21,1.06-3.05,1.5a9.26,9.26,0,0,0-2.27,1.93,12.91,12.91,0,0,0-1.91,3h0l.47-.39a14.81,14.81,0,0,0,3.2,1.55,19.2,19.2,0,0,0,2.59.75,22.1,22.1,0,0,0,2.68.41c.46,0,.92.06,1.39.09a2.77,2.77,0,0,1-.43-.9,3.62,3.62,0,0,1,.15-2.18,7.13,7.13,0,0,1,2.48-3,9.79,9.79,0,0,1,3.23-1.61,7.41,7.41,0,0,1,3.66-.16,29.47,29.47,0,0,1-2.61,2.27c-.84.66-1.66,1.29-2.49,1.9a22.09,22.09,0,0,0-2.22,1.76,3.27,3.27,0,0,0-.74,1,2.59,2.59,0,0,0-.2,1.56l.54-.57a48.17,48.17,0,0,0,8.4-.42,36,36,0,0,0,5.41-1.12,14.64,14.64,0,0,0,4.66-2.47,20.39,20.39,0,0,0,3.79-3.86,26.1,26.1,0,0,0,2.86-4.7c.19-.42.39-.84.53-1.25a11.29,11.29,0,0,0,.42-1.28c.27-.88.49-1.81.71-2.73l1.23-5.61c.81-3.76,1.61-7.54,2.58-11.28a115.35,115.35,0,0,1,3.46-11.07,49.24,49.24,0,0,1,5.15-10.35c-3.7,6.77-5.63,14.26-7.18,21.75-.78,3.71-1.42,7.45-2.06,11.2a314,314,0,0,0,33.1,5.43c21.48,2.28,43.63,2.35,64.74-2.68a86.22,86.22,0,0,0,8.66-2.58c0-.15-.06-.3-.08-.45-.62-3.71-.81-7.39-1.25-11-.2-1.8-.5-3.61-.78-5.43s-.56-3.63-.93-5.4a31.77,31.77,0,0,0-1.72-5.18c-.65-1.73-1.25-3.47-1.84-5.21.73,1.69,1.47,3.37,2.26,5a32.69,32.69,0,0,1,2.07,5.16c.49,1.8.88,3.6,1.28,5.39s.8,3.59,1.12,5.43c.62,3.66,1,7.33,1.72,10.85a32,32,0,0,0,1.5,5.11,27.37,27.37,0,0,0,2.44,4.68,20.21,20.21,0,0,0,7.48,7,13.33,13.33,0,0,0,2.34.91c.8.25,1.7.44,2.56.62a45,45,0,0,0,5.3.71,51.54,51.54,0,0,0,5.7.11l.54.57a2.5,2.5,0,0,0-.2-1.56,3.44,3.44,0,0,0-.74-1,23.66,23.66,0,0,0-2.22-1.75c-.83-.61-1.65-1.24-2.49-1.9a28.26,28.26,0,0,1-2.6-2.28,7.37,7.37,0,0,1,3.65.16,10.06,10.06,0,0,1,3.24,1.62,7.13,7.13,0,0,1,2.47,3,3.51,3.51,0,0,1,.15,2.17,3,3,0,0,1-.43.92c1.19-.08,2.38-.2,3.53-.39a20.19,20.19,0,0,0,4.86-1.58,13.17,13.17,0,0,0,1.48-.83l.46.38a12.87,12.87,0,0,0-1.91-3,9.43,9.43,0,0,0-2.27-1.92c-.84-.44-1.93-.89-3-1.5a13.47,13.47,0,0,1-3.14-2.29,13.57,13.57,0,0,1,3.88,0,12.23,12.23,0,0,1,1.87.39,8.36,8.36,0,0,1,2,.77,6.54,6.54,0,0,1,2.78,3.37,5.39,5.39,0,0,1,.23,3.12,6.14,6.14,0,0,0,1.3-1.42,3.72,3.72,0,0,0,.57-1.85,2,2,0,0,0-.11-.84,1.94,1.94,0,0,0-.41-.72c-.78-.94-2.46-1.64-4.13-2.28a21.07,21.07,0,0,1-5.31-2.59,7.85,7.85,0,0,1-1.24-1.21,5,5,0,0,1-.88-1.72,10.15,10.15,0,0,1-.27-1.57c-.06-.51-.09-1-.1-1.48a111.51,111.51,0,0,1,.44-11.18c.28-3.68.68-7.35,1.13-11,.89-7.32,2-14.61,3.48-21.84.76-3.61,1.6-7.21,2.61-10.76.51-1.78,1.07-3.54,1.74-5.26a23,23,0,0,1,1.17-2.52,7.34,7.34,0,0,1,1.66-2.2,7.31,7.31,0,0,0-1.46,2.3,21.35,21.35,0,0,0-.94,2.57c-.56,1.74-1,3.52-1.4,5.31-.79,3.57-1.4,7.19-1.94,10.81-1.1,7.25-1.92,14.54-2.6,21.84q-.5,5.47-.83,10.95c-.19,3.41-.36,6.86-.25,10.19,5.42.86,11.33.44,16.69.28a155.32,155.32,0,0,0,19.15-1.45c2.36-.37,3.94,0,2.57-2.3-1.6-2.7-4-4-6.92-5-2.41-.82-9.31-1-10.72-3.45-.76-1.34.09-2.05,1-2.94,1.36-1.35,4-2.2,5.61-3.24q3-1.89,5.8-4.05A69.49,69.49,0,0,0,475.15,368c9-16.71,10.94-36.3,9.17-54.94C482.07,289.36,475.07,265.76,467.07,243.41Z"/><path fill="none"  d="M160.08,333.14c-3.58-5.91-3.3-13.06-.58-19.25a13.75,13.75,0,0,1,6-6.85c2.59-1.37,4.5-.84,7.21-.85,2.4,0,5.77-.62,4.77-3.68a7.15,7.15,0,0,0-1.09-1.75,7.74,7.74,0,0,0-4.48-3.35c-4-1.17-8.87-.45-12.86.55-16.25,4.07-24.7,20.78-26.8,36.27C129.57,354,149.88,369.48,167,373.64a61.07,61.07,0,0,0,26.46.37,90.51,90.51,0,0,1-6.9-26.51C176,346.13,165.44,342,160.08,333.14Z"/><path d="M480.28,275.91c-6.48-25.07-15.82-49.32-26.42-72.92-5.4-12-11.13-23.86-17.05-35.62-5.05-10.06-10.06-20.08-16.62-29.27q-2.58-3.61-5.39-7.07C426.91,122.46,433.32,105.88,436,91c1-5.53,2.22-11.83,1.51-17.44-.4-3.24-1.72-7.74-5.52-8-6.32-.37-8.65,7-12.66,10.48C412.63,81.8,405.9,82,397.78,84a34.07,34.07,0,0,0-20,15.15c-.5-.28-1-.58-1.49-.85-16.44-9-35.32-13.85-54.08-11.43C308.51,88.62,296,94.19,285,102c-.14-.48-.29-.93-.45-1.34-2.43-6.41-8.71-9.92-14.9-12C261.88,86,253.18,85.39,246,81.26c-4-2.33-9-11-14.34-6.88-5.86,4.54-6,14.46-4.72,21,1.47,7.52,4,15.73,8.28,22.17A29.85,29.85,0,0,0,250.1,129a34.52,34.52,0,0,0,5.82,2.06c-11.12,14.47-20.4,30.56-28.69,46.61a379.41,379.41,0,0,0-27.52,69.12q-5.13,17.82-8.5,36.07c-3.45,19-6.77,40.76-5,61.39-13.53-2.26-28.79-9.5-25.4-24.86.72-3.21,2-6.56,4.64-8.65,4.41-3.5,8.54.65,12.92-1.45s2.51-7.49.27-10.52c-7.91-10.73-27.31-3-35,4.3-9.48,8.95-16.45,25.8-14.33,38.88,2.63,16.28,18,28.64,32.89,33.48a62.47,62.47,0,0,0,32.55,1.4c1,2.08,2.16,4.12,3.4,6.1a53,53,0,0,0,21.65,19.67c.46.23,2,1.13,3.24,1.71l-.3.12c-1.79.63-3.6,1.17-5.38,1.82-3.43,1.25-9.09,3.22-6.82,8,1.88,3.92,8,4.81,11.71,5.39a117.94,117.94,0,0,0,20,1c1.45,0,3.44.1,5.43,0a3.14,3.14,0,0,1-.29.54,3.81,3.81,0,0,1-.71.75,20.38,20.38,0,0,1-4.77,2.37,16.94,16.94,0,0,0-2.81,1.43,5.83,5.83,0,0,0-2.43,2.87,6.55,6.55,0,0,0,2.08,6.77,12.16,12.16,0,0,0,2.66,1.88,18.83,18.83,0,0,0,2.85,1.25,23.66,23.66,0,0,0,3,.83,27.57,27.57,0,0,0,3,.45,49,49,0,0,0,11.86-.35,37.6,37.6,0,0,0,5.85-1.33,17.47,17.47,0,0,0,5.43-3,25.15,25.15,0,0,0,7.16-9.66,18.24,18.24,0,0,0,1-2.89c.26-1,.46-1.92.66-2.88s.37-1.91.54-2.86c22.3,4.82,45.24,7.67,68.06,6.76a160.1,160.1,0,0,0,32.55-4.43c2.39-.6,4.77-1.27,7.12-2a28.47,28.47,0,0,0,3.1,7.11,21.81,21.81,0,0,0,8.26,8.08,15.17,15.17,0,0,0,2.76,1.15c1,.31,1.85.51,2.78.72a48.77,48.77,0,0,0,5.61.87,45.84,45.84,0,0,0,11.39-.31A22.85,22.85,0,0,0,430,433a14.79,14.79,0,0,0,2.63-1.56,9.05,9.05,0,0,0,2.25-2.39,6.76,6.76,0,0,0,1-3.36,5.14,5.14,0,0,0-1.23-3.53,8.16,8.16,0,0,0-2.67-2,27.2,27.2,0,0,0-2.68-1.14,19.28,19.28,0,0,1-4.6-2.14,4.89,4.89,0,0,1-.73-.7,1.86,1.86,0,0,1-.38-.72l0-.12.84.08a142.39,142.39,0,0,0,20.86,0c5.56-.29,11.91-.22,17.3-1.84,3.77-1.13,2.9-4.87.85-7.65-3.27-4.43-9.45-5.46-14.46-6.64a4,4,0,0,1-.42-.13c.93-.57,1.95-1.32,2.33-1.55a77,77,0,0,0,11.85-8.78c14-12.68,21.84-30.36,24.29-48.89C489.8,318.42,485.65,296.73,480.28,275.91,390.79,90.46c5.7-3.82,12-4.13,18.48-5.66a28.9,28.9,0,0,0,15.82-10.38c1.5-1.91,4.54-8,7.76-5.36,2.39,1.94,1.77,7.42,1.57,10.18-1.25,17-6.89,39.6-21.46,49.56a132,132,0,0,0-32.56-28.14C382.92,96.49,387,93,390.79,90.46,-138.72,35.9c-7.85-3-13.29-7.8-16.83-15.43-3.77-8.13-7.58-19.37-4.85-28.19a7.21,7.21,0,0,1,5.45-6,13.89,13.89,0,0,1,2.26,2.07c.88.87,1.67,1.79,2.62,2.6a28.11,28.11,0,0,0,7.83,4.49c7.18,2.87,15,3.6,22.21,6.5,4.91,2,9.69,5.2,11.15,10.57.08.3.17.66.25,1a118.21,118.21,0,0,0-14.79,13.43c-3.19,3.4-6.23,7-9.15,10.61l-.35.12C256.36,128.5,253.53,126.91,252.07,126.36,167,373.64c-17.11-4.16-37.42-19.67-34.74-39.41,2.1-15.49,10.55-32.2,26.8-36.27,4-1,8.83-1.72,12.86-.55a7.74,7.74,0,0,1,4.48,3.35,7.15,7.15,0,0,1,1.09,1.75c1,3.06-2.37,3.67-4.77,3.68-2.71,0-4.62-.52-7.21.85a13.75,13.75,0,0,0-6,6.85c-2.72,6.19-3,13.34.58,19.25,5.36,8.84,15.89,13,26.47,14.36a90.51,90.51,0,0,0,6.9,26.51A61.07,61.07,0,0,1,167,373.64,475.15,368a69.49,69.49,0,0,1-18.79,22.19q-2.81,2.16-5.8,4.05c-1.64,1-4.25,1.89-5.61,3.24-.88.89-1.73,1.6-1,2.94,1.41,2.49,8.31,2.63,10.72,3.45,2.94,1,5.32,2.32,6.92,5,1.37,2.3-.21,1.93-2.57,2.3a155.32,155.32,0,0,1-19.15,1.45c-5.36.16-11.27.58-16.69-.28-.11-3.33.06-6.78.25-10.19q.33-5.47.83-10.95c.68-7.3,1.5-14.59,2.6-21.84.54-3.62,1.15-7.24,1.94-10.81.39-1.79.84-3.57,1.4-5.31a21.35,21.35,0,0,1,.94-2.57,7.31,7.31,0,0,1,1.46-2.3,7.34,7.34,0,0,0-1.66,2.2,23,23,0,0,0-1.17,2.52c-.67,1.72-1.23,3.48-1.74,5.26-1,3.55-1.85,7.15-2.61,10.76C424,376.38,422.86,383.67,422,391c-.45,3.66-.85,7.33-1.13,11a111.51,111.51,0,0,0-.44,11.18c0,.48,0,1,.1,1.48a10.15,10.15,0,0,0,.27,1.57,5,5,0,0,0,.88,1.72,7.85,7.85,0,0,0,1.24,1.21,21.07,21.07,0,0,0,5.31,2.59c1.67.64,3.35,1.34,4.13,2.28a1.94,1.94,0,0,1,.41.72,2,2,0,0,1,.11.84,3.72,3.72,0,0,1-.57,1.85,6.14,6.14,0,0,1-1.3,1.42,5.39,5.39,0,0,0-.23-3.12,6.54,6.54,0,0,0-2.78-3.37,8.36,8.36,0,0,0-2-.77,12.23,12.23,0,0,0-1.87-.39,13.57,13.57,0,0,0-3.88,0,13.47,13.47,0,0,0,3.14,2.29c1.11.61,2.2,1.06,3,1.5a9.43,9.43,0,0,1,2.27,1.92,12.87,12.87,0,0,1,1.91,3l-.46-.38a13.17,13.17,0,0,1-1.48.83,20.19,20.19,0,0,1-4.86,1.58c-1.15.19-2.34.31-3.53.39a3,3,0,0,0,.43-.92,3.51,3.51,0,0,0-.15-2.17,7.13,7.13,0,0,0-2.47-3,10.06,10.06,0,0,0-3.24-1.62,7.37,7.37,0,0,0-3.65-.16,28.26,28.26,0,0,0,2.6,2.28c.84.66,1.66,1.29,2.49,1.9a23.66,23.66,0,0,1,2.22,1.75,3.44,3.44,0,0,1,.74,1,2.5,2.5,0,0,1,.2,1.56l-.54-.57a51.54,51.54,0,0,1-5.7-.11,45,45,0,0,1-5.3-.71c-.86-.18-1.76-.37-2.56-.62A13.33,13.33,0,0,1,403,430a20.21,20.21,0,0,1-7.48-7,27.37,27.37,0,0,1-2.44-4.68,32,32,0,0,1-1.5-5.11c-.76-3.52-1.1-7.19-1.72-10.85-.32-1.84-.74-3.63-1.12-5.43s-.79-3.59-1.28-5.39a32.69,32.69,0,0,0-2.07-5.16c-.79-1.66-1.53-3.34-2.26-5,.59,1.74,1.19,3.48,1.84,5.21a31.77,31.77,0,0,1,1.72,5.18c.37,1.77.64,3.59.93,5.4s.58,3.63.78,5.43c.44,3.62.63,7.3,1.25,11,0,.15,0,.3.08.45a86.22,86.22,0,0,1-8.66,2.58c-21.11,5-43.26,5-64.74,2.68a314,314,0,0,1-33.1-5.43c.64-3.75,1.28-7.49,2.06-11.2,1.55-7.49,3.48-15,7.18-21.75a49.24,49.24,0,0,0-5.15,10.35,115.35,115.35,0,0,0-3.46,11.07c-1,3.74-1.77,7.52-2.58,11.28l-1.23,5.61c-.22.92-.44,1.85-.71,2.73a11.29,11.29,0,0,1-.42,1.28c-.14.41-.34.83-.53,1.25a26.1,26.1,0,0,1-2.86,4.7,20.39,20.39,0,0,1-3.79,3.86,14.64,14.64,0,0,1-4.66,2.47,36,36,0,0,1-5.41,1.12,48.17,48.17,0,0,1-8.4.42l-.54.57a2.59,2.59,0,0,1,.2-1.56,3.27,3.27,0,0,1,.74-1,22.09,22.09,0,0,1,2.22-1.76c.83-.61,1.65-1.24,2.49-1.9a29.47,29.47,0,0,0,2.61-2.27,7.41,7.41,0,0,0-3.66.16,9.79,9.79,0,0,0-3.23,1.61,7.13,7.13,0,0,0-2.48,3,3.62,3.62,0,0,0-.15,2.18,2.77,2.77,0,0,0,.43.9c-.47,0-.93,0-1.39-.09a22.1,22.1,0,0,1-2.68-.41,19.2,19.2,0,0,1-2.59-.75,14.81,14.81,0,0,1-3.2-1.55l-.47.39h0a12.91,12.91,0,0,1,1.91-3,9.26,9.26,0,0,1,2.27-1.93c.84-.44,1.93-.89,3.05-1.5a13.58,13.58,0,0,0,3.13-2.28,13.23,13.23,0,0,0-3.88,0,12.23,12.23,0,0,0-1.87.39,8.4,8.4,0,0,0-2,.78,6.48,6.48,0,0,0-2.78,3.36,5.55,5.55,0,0,0-.24,3.09c-.13-.11-.28-.22-.4-.33a4.69,4.69,0,0,1-1.25-1.77l-.14-.48a4.53,4.53,0,0,1-.06-.5,1.94,1.94,0,0,1,.1-.85c.29-1,1.9-1.89,3.6-2.59a22.42,22.42,0,0,0,5.47-2.84,6.81,6.81,0,0,0,1.25-1.36,4.64,4.64,0,0,0,.47-.85c.06-.15.13-.31.18-.45l.13-.39a13.94,13.94,0,0,0,.56-3.13c.15-2,.09-4,.07-5.9s0-3.83,0-5.75c0-3.84,0-7.7-.1-11.56a134.87,134.87,0,0,0-2.22-23.1,57.07,57.07,0,0,0-3.39-11.14,22.73,22.73,0,0,0-6.82-9.26,18.3,18.3,0,0,1,3.62,4.42,30.74,30.74,0,0,1,2.47,5.14,56.23,56.23,0,0,1,2.68,11.09,150.53,150.53,0,0,1,1.33,22.87c0,3.83-.13,7.66-.19,11.51-.05,1.93-.06,3.87-.07,5.79s0,3.69-.16,5.43c-1,0-1.88,0-2.41,0a154.25,154.25,0,0,1-17.6-.24c-2.75-.22-14.45-.57-15.14-4.64-.63-3.64,11.46-4.83,13.86-6.68,4.66-3.6-6.26-6.18-8.39-7.39-30.11-17.08-31.37-57.25-28.42-87.67.88-9.14,2.27-18.22,3.91-27.25a377.56,377.56,0,0,1,52.42-133.52c12.29-19.28,26.79-38.3,46.8-50.08a77.35,77.35,0,0,1,58.72-8.26C371,96.62,388,107.6,401.85,121.21c15.24,15,25,32.84,34.42,51.76,11.43,22.95,22.15,46.29,30.8,70.44,8,22.35,15,46,17.25,69.67C486.09,331.72,484.11,351.31,475.15,368Z"/>            </clipPath>        </defs>        <g clip-path="url(#outline)">            <rect fill="#B4D2F4" width="640" height="480" />        </g>    </g>    <g id="pattern">        <g clip-path="url(#outline)">            <rect fill="#435055" opacity="0"  x="1.02" y="0.28" width="640" height="480"/>            <g opacity="0.6" ><path fill="#FFECDC"  d="M286.16,418.84c1.15-12.45,7.46-23.49,13.94-33.84a121,121,0,0,1,10.79-14.8c3.27-3.78,6.53-8.66,11.38-10.24,5.45-1.77,11.19-1.83,16.84-1.6,4.46.18,9.85,0,13.47,3.11,7.95,6.94,14.63,17,20.34,25.87s11.91,19.27,12.8,30.12c.13,1.48.5,1.44-.05,1.63-1.78.61-6.49,1.94-9.4,2.8-13.75,4.06-26.91,4.48-42.7,4.36-16.07-.12-32.34-4.21-46.95-7.41"/></g>        </g>    </g>    <g id="mask">        <g opacity="0.2" ><path d="M428.87,75.85c-5.08,5.13-8.25,12.05-13.52,17-5.08,4.73-11.69,7.21-17.65,10.67a34.49,34.49,0,0,0-8.12,6.36,52.37,52.37,0,0,0,4.34,3.32,5.37,5.37,0,0,1,.45.35l1,.54a22.89,22.89,0,0,1,5.15,4.15,23.92,23.92,0,0,1,2.74,3.78,84.93,84.93,0,0,1,6.21,6.09,51.57,51.57,0,0,0,17.82-25.23C429.83,94.91,434.35,83.42,428.87,75.85Z"/></g><g opacity="0.2" ><path d="M262.45,125.8c2.7-3,5-6.39,7.7-9.43,1.83-2,4.1-3.57,5.89-5.54-2-4.16-4.39-8.56-6.59-10.59-3.65-3.37-16.41-7.59-21-9.72a60,60,0,0,1-7.92-4.46c-2-1.32-4-4-6.43-4.66a1.93,1.93,0,0,0-2,1.08c-2.08,4.44,1.15,12.7,2.25,15.64,3.47,9.27,9.39,14.74,17.5,20.74a.26.26,0,0,1-.05.09,4.58,4.58,0,0,1,.82.94,4.07,4.07,0,0,1,1,.86c.7.28,5.28,3.87,8.2,6A5.9,5.9,0,0,1,262.45,125.8Z"/></g><g opacity="0.1" ><path d="M484.43,334.75c.23,1.7-3.51,6.76-4.43,8.49-1.82,3.4-3.69,6.78-5.68,10.08a107.84,107.84,0,0,1-13.23,18.12A62.44,62.44,0,0,1,450,380.9a60.12,60.12,0,0,1-6.25,3.67,33.15,33.15,0,0,1-5.53,2.51c-4,1.15-6.15-2.21-7.32-5.52A39.5,39.5,0,0,1,428.59,364a119.47,119.47,0,0,1,2.54-14.42l-1.94,4.49c-3.06,11.13-4.58,22.56-6,34a4.58,4.58,0,0,0,.26,2.19,3.36,3.36,0,0,0-.88.73c-2.06,2.52-.69,11.1-.81,14.3a.63.63,0,0,0,.09.45c.16.19.45.15.69.08A107.32,107.32,0,0,0,447,396.42c9.48-5.3,17.16-11.14,23.54-19.77,3.19-4.31,6.66-9.86,8.46-14.91C482.08,353,485.69,343.9,484.43,334.75Z"/></g><g opacity="0.1" ><path d="M267.14,141.25c10.77-16.34,17.61-34.19,32.59-46.79-23.63,13.12-38,28.59-53.16,54.08-14.44,24.28-29.76,53.17-39.76,79.22s-15,53.6-17.25,81.33c-1.43,17.32-2,39.51,3.93,58-12.1,2.84-24.41,2.34-35.38-4.43-32.09-19.82-16.24-53.36-16.24-53.36-5,6.27-7.45,8.94-9.87,24-2.23,13.87,8.42,27.21,19.58,34.28,13.85,8.78,29.58,10.18,44.75,6.87a52,52,0,0,0,7.95,12.63c10,11.56,21.38,19,39.1,21.26,2.29.29,4.62.6,7,.93-.18-3.14-.62-6.26-.51-9.43a5.58,5.58,0,0,1,.13-1c-17.1-5.77-32.33-19.18-39.76-35.48-4-8.82-6.12-18.92-6.18-30.43-.12-27.61,3.21-61,10.78-87.24C225.7,208,245.4,174.22,267.14,141.25Z"/></g><g opacity="0.1" ><path d="M389.27,402c-5.29,1.24-9.82,4.43-15.12,5.66a159,159,0,0,1-19.41,2.95c-22,2.28-44.35.82-66.16-2.85-1.83-5.45-1.1-11.68-.07-17.2a37.94,37.94,0,0,1,1.27-4.59A39.81,39.81,0,0,0,288,390c-.76,2.25-1.08,4.63-2.41,6.66l-.1.14c-.31,5-1.31,10.55-3.93,14.6a17.9,17.9,0,0,0,.17,2.75,5.94,5.94,0,0,1,.05.72c1.54.34,3.06.69,4.53,1,14.9,5.54,32.72,6.73,47.93,6.86,15.65.12,34.69-1.09,45-4.91,2.87-1.06,9.12-1.62,10.48-3.05,1.2-1.27-.65-1.69-.77-3.3C388.25,402.21,389.26,402,389.27,402Z"/></g>        <g opacity="0.1" ><path fill="#fff"  d="M379.83,103.26c6.05,5.3,10.42,13.69,14.49,20.51,4.46,7.47,8.87,15,13.36,22.41,13,21.71,26.15,43.75,37,66.66a328.92,328.92,0,0,1,23.4,68.9c2.75,12.34,4.9,24.8,6.6,37.33,1.39,10.34,4.07,22.69-2.48,31.88,4.28-6,9.86-10.61,11.35-14.66,5.27-14.38.18-32.18-2.49-46.67-5.44-29.5-15.48-57.89-26.94-85.53-11.28-27.21-25.53-53.07-44.82-75.49C393.06,109.76,380.05,103.45,379.83,103.26Z"/></g>    </g>    <g id="outline">        <path fill="none"  d="M257.87,128.21l.35-.12c2.92-3.66,6-7.21,9.15-10.61a118.21,118.21,0,0,1,14.79-13.43c-.08-.39-.17-.75-.25-1-1.46-5.37-6.24-8.59-11.15-10.57-7.17-2.9-15-3.63-22.21-6.5a28.11,28.11,0,0,1-7.83-4.49c-.95-.81-1.74-1.73-2.62-2.6a13.89,13.89,0,0,0-2.26-2.07,7.21,7.21,0,0,0-5.45,6c-2.73,8.82,1.08,20.06,4.85,28.19,3.54,7.63,9,12.45,16.83,15.43C253.53,126.91,256.36,128.5,257.87,128.21Z"/><path fill="none"  d="M413,128.8c14.57-10,20.21-32.54,21.46-49.56.2-2.76.82-8.24-1.57-10.18-3.22-2.61-6.26,3.45-7.76,5.36A28.9,28.9,0,0,1,409.27,84.8c-6.5,1.53-12.78,1.84-18.48,5.66-3.77,2.52-7.87,6-10.39,10.2A132,132,0,0,1,413,128.8Z"/><path fill="none"  d="M467.07,243.41c-8.65-24.15-19.37-47.49-30.8-70.44-9.43-18.92-19.18-36.8-34.42-51.76C388,107.6,371,96.62,352.05,91.77A77.35,77.35,0,0,0,293.33,100c-20,11.78-34.51,30.8-46.8,50.08a377.56,377.56,0,0,0-52.42,133.52c-1.64,9-3,18.11-3.91,27.25-2.95,30.42-1.69,70.59,28.42,87.67,2.13,1.21,13,3.79,8.39,7.39-2.4,1.85-14.49,3-13.86,6.68.69,4.07,12.39,4.42,15.14,4.64a154.25,154.25,0,0,0,17.6.24c.53,0,1.45,0,2.41,0,.15-1.74.14-3.58.16-5.43s0-3.86.07-5.79c.06-3.85.17-7.68.19-11.51a150.53,150.53,0,0,0-1.33-22.87,56.23,56.23,0,0,0-2.68-11.09,30.74,30.74,0,0,0-2.47-5.14,18.3,18.3,0,0,0-3.62-4.42,22.73,22.73,0,0,1,6.82,9.26,57.07,57.07,0,0,1,3.39,11.14,134.87,134.87,0,0,1,2.22,23.1c.11,3.86.11,7.72.1,11.56,0,1.92,0,3.83,0,5.75s.08,3.86-.07,5.9a13.94,13.94,0,0,1-.56,3.13l-.13.39c0,.14-.12.3-.18.45a4.64,4.64,0,0,1-.47.85,6.81,6.81,0,0,1-1.25,1.36,22.42,22.42,0,0,1-5.47,2.84c-1.7.7-3.31,1.6-3.6,2.59a1.94,1.94,0,0,0-.1.85,4.53,4.53,0,0,0,.06.5l.14.48a4.69,4.69,0,0,0,1.25,1.77c.12.11.27.22.4.33a5.55,5.55,0,0,1,.24-3.09,6.48,6.48,0,0,1,2.78-3.36,8.4,8.4,0,0,1,2-.78,12.23,12.23,0,0,1,1.87-.39,13.23,13.23,0,0,1,3.88,0,13.58,13.58,0,0,1-3.13,2.28c-1.12.61-2.21,1.06-3.05,1.5a9.26,9.26,0,0,0-2.27,1.93,12.91,12.91,0,0,0-1.91,3h0l.47-.39a14.81,14.81,0,0,0,3.2,1.55,19.2,19.2,0,0,0,2.59.75,22.1,22.1,0,0,0,2.68.41c.46,0,.92.06,1.39.09a2.77,2.77,0,0,1-.43-.9,3.62,3.62,0,0,1,.15-2.18,7.13,7.13,0,0,1,2.48-3,9.79,9.79,0,0,1,3.23-1.61,7.41,7.41,0,0,1,3.66-.16,29.47,29.47,0,0,1-2.61,2.27c-.84.66-1.66,1.29-2.49,1.9a22.09,22.09,0,0,0-2.22,1.76,3.27,3.27,0,0,0-.74,1,2.59,2.59,0,0,0-.2,1.56l.54-.57a48.17,48.17,0,0,0,8.4-.42,36,36,0,0,0,5.41-1.12,14.64,14.64,0,0,0,4.66-2.47,20.39,20.39,0,0,0,3.79-3.86,26.1,26.1,0,0,0,2.86-4.7c.19-.42.39-.84.53-1.25a11.29,11.29,0,0,0,.42-1.28c.27-.88.49-1.81.71-2.73l1.23-5.61c.81-3.76,1.61-7.54,2.58-11.28a115.35,115.35,0,0,1,3.46-11.07,49.24,49.24,0,0,1,5.15-10.35c-3.7,6.77-5.63,14.26-7.18,21.75-.78,3.71-1.42,7.45-2.06,11.2a314,314,0,0,0,33.1,5.43c21.48,2.28,43.63,2.35,64.74-2.68a86.22,86.22,0,0,0,8.66-2.58c0-.15-.06-.3-.08-.45-.62-3.71-.81-7.39-1.25-11-.2-1.8-.5-3.61-.78-5.43s-.56-3.63-.93-5.4a31.77,31.77,0,0,0-1.72-5.18c-.65-1.73-1.25-3.47-1.84-5.21.73,1.69,1.47,3.37,2.26,5a32.69,32.69,0,0,1,2.07,5.16c.49,1.8.88,3.6,1.28,5.39s.8,3.59,1.12,5.43c.62,3.66,1,7.33,1.72,10.85a32,32,0,0,0,1.5,5.11,27.37,27.37,0,0,0,2.44,4.68,20.21,20.21,0,0,0,7.48,7,13.33,13.33,0,0,0,2.34.91c.8.25,1.7.44,2.56.62a45,45,0,0,0,5.3.71,51.54,51.54,0,0,0,5.7.11l.54.57a2.5,2.5,0,0,0-.2-1.56,3.44,3.44,0,0,0-.74-1,23.66,23.66,0,0,0-2.22-1.75c-.83-.61-1.65-1.24-2.49-1.9a28.26,28.26,0,0,1-2.6-2.28,7.37,7.37,0,0,1,3.65.16,10.06,10.06,0,0,1,3.24,1.62,7.13,7.13,0,0,1,2.47,3,3.51,3.51,0,0,1,.15,2.17,3,3,0,0,1-.43.92c1.19-.08,2.38-.2,3.53-.39a20.19,20.19,0,0,0,4.86-1.58,13.17,13.17,0,0,0,1.48-.83l.46.38a12.87,12.87,0,0,0-1.91-3,9.43,9.43,0,0,0-2.27-1.92c-.84-.44-1.93-.89-3-1.5a13.47,13.47,0,0,1-3.14-2.29,13.57,13.57,0,0,1,3.88,0,12.23,12.23,0,0,1,1.87.39,8.36,8.36,0,0,1,2,.77,6.54,6.54,0,0,1,2.78,3.37,5.39,5.39,0,0,1,.23,3.12,6.14,6.14,0,0,0,1.3-1.42,3.72,3.72,0,0,0,.57-1.85,2,2,0,0,0-.11-.84,1.94,1.94,0,0,0-.41-.72c-.78-.94-2.46-1.64-4.13-2.28a21.07,21.07,0,0,1-5.31-2.59,7.85,7.85,0,0,1-1.24-1.21,5,5,0,0,1-.88-1.72,10.15,10.15,0,0,1-.27-1.57c-.06-.51-.09-1-.1-1.48a111.51,111.51,0,0,1,.44-11.18c.28-3.68.68-7.35,1.13-11,.89-7.32,2-14.61,3.48-21.84.76-3.61,1.6-7.21,2.61-10.76.51-1.78,1.07-3.54,1.74-5.26a23,23,0,0,1,1.17-2.52,7.34,7.34,0,0,1,1.66-2.2,7.31,7.31,0,0,0-1.46,2.3,21.35,21.35,0,0,0-.94,2.57c-.56,1.74-1,3.52-1.4,5.31-.79,3.57-1.4,7.19-1.94,10.81-1.1,7.25-1.92,14.54-2.6,21.84q-.5,5.47-.83,10.95c-.19,3.41-.36,6.86-.25,10.19,5.42.86,11.33.44,16.69.28a155.32,155.32,0,0,0,19.15-1.45c2.36-.37,3.94,0,2.57-2.3-1.6-2.7-4-4-6.92-5-2.41-.82-9.31-1-10.72-3.45-.76-1.34.09-2.05,1-2.94,1.36-1.35,4-2.2,5.61-3.24q3-1.89,5.8-4.05A69.49,69.49,0,0,0,475.15,368c9-16.71,10.94-36.3,9.17-54.94C482.07,289.36,475.07,265.76,467.07,243.41Z"/><path fill="none"  d="M160.08,333.14c-3.58-5.91-3.3-13.06-.58-19.25a13.75,13.75,0,0,1,6-6.85c2.59-1.37,4.5-.84,7.21-.85,2.4,0,5.77-.62,4.77-3.68a7.15,7.15,0,0,0-1.09-1.75,7.74,7.74,0,0,0-4.48-3.35c-4-1.17-8.87-.45-12.86.55-16.25,4.07-24.7,20.78-26.8,36.27C129.57,354,149.88,369.48,167,373.64a61.07,61.07,0,0,0,26.46.37,90.51,90.51,0,0,1-6.9-26.51C176,346.13,165.44,342,160.08,333.14Z"/><path d="M480.28,275.91c-6.48-25.07-15.82-49.32-26.42-72.92-5.4-12-11.13-23.86-17.05-35.62-5.05-10.06-10.06-20.08-16.62-29.27q-2.58-3.61-5.39-7.07C426.91,122.46,433.32,105.88,436,91c1-5.53,2.22-11.83,1.51-17.44-.4-3.24-1.72-7.74-5.52-8-6.32-.37-8.65,7-12.66,10.48C412.63,81.8,405.9,82,397.78,84a34.07,34.07,0,0,0-20,15.15c-.5-.28-1-.58-1.49-.85-16.44-9-35.32-13.85-54.08-11.43C308.51,88.62,296,94.19,285,102c-.14-.48-.29-.93-.45-1.34-2.43-6.41-8.71-9.92-14.9-12C261.88,86,253.18,85.39,246,81.26c-4-2.33-9-11-14.34-6.88-5.86,4.54-6,14.46-4.72,21,1.47,7.52,4,15.73,8.28,22.17A29.85,29.85,0,0,0,250.1,129a34.52,34.52,0,0,0,5.82,2.06c-11.12,14.47-20.4,30.56-28.69,46.61a379.41,379.41,0,0,0-27.52,69.12q-5.13,17.82-8.5,36.07c-3.45,19-6.77,40.76-5,61.39-13.53-2.26-28.79-9.5-25.4-24.86.72-3.21,2-6.56,4.64-8.65,4.41-3.5,8.54.65,12.92-1.45s2.51-7.49.27-10.52c-7.91-10.73-27.31-3-35,4.3-9.48,8.95-16.45,25.8-14.33,38.88,2.63,16.28,18,28.64,32.89,33.48a62.47,62.47,0,0,0,32.55,1.4c1,2.08,2.16,4.12,3.4,6.1a53,53,0,0,0,21.65,19.67c.46.23,2,1.13,3.24,1.71l-.3.12c-1.79.63-3.6,1.17-5.38,1.82-3.43,1.25-9.09,3.22-6.82,8,1.88,3.92,8,4.81,11.71,5.39a117.94,117.94,0,0,0,20,1c1.45,0,3.44.1,5.43,0a3.14,3.14,0,0,1-.29.54,3.81,3.81,0,0,1-.71.75,20.38,20.38,0,0,1-4.77,2.37,16.94,16.94,0,0,0-2.81,1.43,5.83,5.83,0,0,0-2.43,2.87,6.55,6.55,0,0,0,2.08,6.77,12.16,12.16,0,0,0,2.66,1.88,18.83,18.83,0,0,0,2.85,1.25,23.66,23.66,0,0,0,3,.83,27.57,27.57,0,0,0,3,.45,49,49,0,0,0,11.86-.35,37.6,37.6,0,0,0,5.85-1.33,17.47,17.47,0,0,0,5.43-3,25.15,25.15,0,0,0,7.16-9.66,18.24,18.24,0,0,0,1-2.89c.26-1,.46-1.92.66-2.88s.37-1.91.54-2.86c22.3,4.82,45.24,7.67,68.06,6.76a160.1,160.1,0,0,0,32.55-4.43c2.39-.6,4.77-1.27,7.12-2a28.47,28.47,0,0,0,3.1,7.11,21.81,21.81,0,0,0,8.26,8.08,15.17,15.17,0,0,0,2.76,1.15c1,.31,1.85.51,2.78.72a48.77,48.77,0,0,0,5.61.87,45.84,45.84,0,0,0,11.39-.31A22.85,22.85,0,0,0,430,433a14.79,14.79,0,0,0,2.63-1.56,9.05,9.05,0,0,0,2.25-2.39,6.76,6.76,0,0,0,1-3.36,5.14,5.14,0,0,0-1.23-3.53,8.16,8.16,0,0,0-2.67-2,27.2,27.2,0,0,0-2.68-1.14,19.28,19.28,0,0,1-4.6-2.14,4.89,4.89,0,0,1-.73-.7,1.86,1.86,0,0,1-.38-.72l0-.12.84.08a142.39,142.39,0,0,0,20.86,0c5.56-.29,11.91-.22,17.3-1.84,3.77-1.13,2.9-4.87.85-7.65-3.27-4.43-9.45-5.46-14.46-6.64a4,4,0,0,1-.42-.13c.93-.57,1.95-1.32,2.33-1.55a77,77,0,0,0,11.85-8.78c14-12.68,21.84-30.36,24.29-48.89C489.8,318.42,485.65,296.73,480.28,275.91ZM390.79,90.46c5.7-3.82,12-4.13,18.48-5.66a28.9,28.9,0,0,0,15.82-10.38c1.5-1.91,4.54-8,7.76-5.36,2.39,1.94,1.77,7.42,1.57,10.18-1.25,17-6.89,39.6-21.46,49.56a132,132,0,0,0-32.56-28.14C382.92,96.49,387,93,390.79,90.46Zm-138.72,35.9c-7.85-3-13.29-7.8-16.83-15.43-3.77-8.13-7.58-19.37-4.85-28.19a7.21,7.21,0,0,1,5.45-6,13.89,13.89,0,0,1,2.26,2.07c.88.87,1.67,1.79,2.62,2.6a28.11,28.11,0,0,0,7.83,4.49c7.18,2.87,15,3.6,22.21,6.5,4.91,2,9.69,5.2,11.15,10.57.08.3.17.66.25,1a118.21,118.21,0,0,0-14.79,13.43c-3.19,3.4-6.23,7-9.15,10.61l-.35.12C256.36,128.5,253.53,126.91,252.07,126.36ZM167,373.64c-17.11-4.16-37.42-19.67-34.74-39.41,2.1-15.49,10.55-32.2,26.8-36.27,4-1,8.83-1.72,12.86-.55a7.74,7.74,0,0,1,4.48,3.35,7.15,7.15,0,0,1,1.09,1.75c1,3.06-2.37,3.67-4.77,3.68-2.71,0-4.62-.52-7.21.85a13.75,13.75,0,0,0-6,6.85c-2.72,6.19-3,13.34.58,19.25,5.36,8.84,15.89,13,26.47,14.36a90.51,90.51,0,0,0,6.9,26.51A61.07,61.07,0,0,1,167,373.64ZM475.15,368a69.49,69.49,0,0,1-18.79,22.19q-2.81,2.16-5.8,4.05c-1.64,1-4.25,1.89-5.61,3.24-.88.89-1.73,1.6-1,2.94,1.41,2.49,8.31,2.63,10.72,3.45,2.94,1,5.32,2.32,6.92,5,1.37,2.3-.21,1.93-2.57,2.3a155.32,155.32,0,0,1-19.15,1.45c-5.36.16-11.27.58-16.69-.28-.11-3.33.06-6.78.25-10.19q.33-5.47.83-10.95c.68-7.3,1.5-14.59,2.6-21.84.54-3.62,1.15-7.24,1.94-10.81.39-1.79.84-3.57,1.4-5.31a21.35,21.35,0,0,1,.94-2.57,7.31,7.31,0,0,1,1.46-2.3,7.34,7.34,0,0,0-1.66,2.2,23,23,0,0,0-1.17,2.52c-.67,1.72-1.23,3.48-1.74,5.26-1,3.55-1.85,7.15-2.61,10.76C424,376.38,422.86,383.67,422,391c-.45,3.66-.85,7.33-1.13,11a111.51,111.51,0,0,0-.44,11.18c0,.48,0,1,.1,1.48a10.15,10.15,0,0,0,.27,1.57,5,5,0,0,0,.88,1.72,7.85,7.85,0,0,0,1.24,1.21,21.07,21.07,0,0,0,5.31,2.59c1.67.64,3.35,1.34,4.13,2.28a1.94,1.94,0,0,1,.41.72,2,2,0,0,1,.11.84,3.72,3.72,0,0,1-.57,1.85,6.14,6.14,0,0,1-1.3,1.42,5.39,5.39,0,0,0-.23-3.12,6.54,6.54,0,0,0-2.78-3.37,8.36,8.36,0,0,0-2-.77,12.23,12.23,0,0,0-1.87-.39,13.57,13.57,0,0,0-3.88,0,13.47,13.47,0,0,0,3.14,2.29c1.11.61,2.2,1.06,3,1.5a9.43,9.43,0,0,1,2.27,1.92,12.87,12.87,0,0,1,1.91,3l-.46-.38a13.17,13.17,0,0,1-1.48.83,20.19,20.19,0,0,1-4.86,1.58c-1.15.19-2.34.31-3.53.39a3,3,0,0,0,.43-.92,3.51,3.51,0,0,0-.15-2.17,7.13,7.13,0,0,0-2.47-3,10.06,10.06,0,0,0-3.24-1.62,7.37,7.37,0,0,0-3.65-.16,28.26,28.26,0,0,0,2.6,2.28c.84.66,1.66,1.29,2.49,1.9a23.66,23.66,0,0,1,2.22,1.75,3.44,3.44,0,0,1,.74,1,2.5,2.5,0,0,1,.2,1.56l-.54-.57a51.54,51.54,0,0,1-5.7-.11,45,45,0,0,1-5.3-.71c-.86-.18-1.76-.37-2.56-.62A13.33,13.33,0,0,1,403,430a20.21,20.21,0,0,1-7.48-7,27.37,27.37,0,0,1-2.44-4.68,32,32,0,0,1-1.5-5.11c-.76-3.52-1.1-7.19-1.72-10.85-.32-1.84-.74-3.63-1.12-5.43s-.79-3.59-1.28-5.39a32.69,32.69,0,0,0-2.07-5.16c-.79-1.66-1.53-3.34-2.26-5,.59,1.74,1.19,3.48,1.84,5.21a31.77,31.77,0,0,1,1.72,5.18c.37,1.77.64,3.59.93,5.4s.58,3.63.78,5.43c.44,3.62.63,7.3,1.25,11,0,.15,0,.3.08.45a86.22,86.22,0,0,1-8.66,2.58c-21.11,5-43.26,5-64.74,2.68a314,314,0,0,1-33.1-5.43c.64-3.75,1.28-7.49,2.06-11.2,1.55-7.49,3.48-15,7.18-21.75a49.24,49.24,0,0,0-5.15,10.35,115.35,115.35,0,0,0-3.46,11.07c-1,3.74-1.77,7.52-2.58,11.28l-1.23,5.61c-.22.92-.44,1.85-.71,2.73a11.29,11.29,0,0,1-.42,1.28c-.14.41-.34.83-.53,1.25a26.1,26.1,0,0,1-2.86,4.7,20.39,20.39,0,0,1-3.79,3.86,14.64,14.64,0,0,1-4.66,2.47,36,36,0,0,1-5.41,1.12,48.17,48.17,0,0,1-8.4.42l-.54.57a2.59,2.59,0,0,1,.2-1.56,3.27,3.27,0,0,1,.74-1,22.09,22.09,0,0,1,2.22-1.76c.83-.61,1.65-1.24,2.49-1.9a29.47,29.47,0,0,0,2.61-2.27,7.41,7.41,0,0,0-3.66.16,9.79,9.79,0,0,0-3.23,1.61,7.13,7.13,0,0,0-2.48,3,3.62,3.62,0,0,0-.15,2.18,2.77,2.77,0,0,0,.43.9c-.47,0-.93,0-1.39-.09a22.1,22.1,0,0,1-2.68-.41,19.2,19.2,0,0,1-2.59-.75,14.81,14.81,0,0,1-3.2-1.55l-.47.39h0a12.91,12.91,0,0,1,1.91-3,9.26,9.26,0,0,1,2.27-1.93c.84-.44,1.93-.89,3.05-1.5a13.58,13.58,0,0,0,3.13-2.28,13.23,13.23,0,0,0-3.88,0,12.23,12.23,0,0,0-1.87.39,8.4,8.4,0,0,0-2,.78,6.48,6.48,0,0,0-2.78,3.36,5.55,5.55,0,0,0-.24,3.09c-.13-.11-.28-.22-.4-.33a4.69,4.69,0,0,1-1.25-1.77l-.14-.48a4.53,4.53,0,0,1-.06-.5,1.94,1.94,0,0,1,.1-.85c.29-1,1.9-1.89,3.6-2.59a22.42,22.42,0,0,0,5.47-2.84,6.81,6.81,0,0,0,1.25-1.36,4.64,4.64,0,0,0,.47-.85c.06-.15.13-.31.18-.45l.13-.39a13.94,13.94,0,0,0,.56-3.13c.15-2,.09-4,.07-5.9s0-3.83,0-5.75c0-3.84,0-7.7-.1-11.56a134.87,134.87,0,0,0-2.22-23.1,57.07,57.07,0,0,0-3.39-11.14,22.73,22.73,0,0,0-6.82-9.26,18.3,18.3,0,0,1,3.62,4.42,30.74,30.74,0,0,1,2.47,5.14,56.23,56.23,0,0,1,2.68,11.09,150.53,150.53,0,0,1,1.33,22.87c0,3.83-.13,7.66-.19,11.51-.05,1.93-.06,3.87-.07,5.79s0,3.69-.16,5.43c-1,0-1.88,0-2.41,0a154.25,154.25,0,0,1-17.6-.24c-2.75-.22-14.45-.57-15.14-4.64-.63-3.64,11.46-4.83,13.86-6.68,4.66-3.6-6.26-6.18-8.39-7.39-30.11-17.08-31.37-57.25-28.42-87.67.88-9.14,2.27-18.22,3.91-27.25a377.56,377.56,0,0,1,52.42-133.52c12.29-19.28,26.79-38.3,46.8-50.08a77.35,77.35,0,0,1,58.72-8.26C371,96.62,388,107.6,401.85,121.21c15.24,15,25,32.84,34.42,51.76,11.43,22.95,22.15,46.29,30.8,70.44,8,22.35,15,46,17.25,69.67C486.09,331.72,484.11,351.31,475.15,368Z"/>    </g>    <g id="eye">        <g id="eye-color1">            <g opacity="0" ><path fill="#B4D2F4"  d="M276.51,144.13c-.14.46-.2.94-.35,1.4a16.7,16.7,0,0,1-1.35,2.87c-.53.94-1,1.89-1.55,2.82-.23.42-.49.81-.76,1.21l-.44.61c-.08.12-.45.47-.45.6-.19.25-.39.5-.59.74-5.88,7-13.91,9.8-22.69,6.53-8.54-3.17-14.21-10.4-14.65-19.53a1.42,1.42,0,0,1,0-.58,23.28,23.28,0,0,1,19-21.81,18.87,18.87,0,0,1,11.42,1.35c-15.3-7.71-34.36-2.93-39.3,15.33a21.13,21.13,0,0,0-.66,6.53,29.42,29.42,0,0,0,10.48,20.23c8.59,7.09,21.5,6.67,31,1.77,7.19-3.69,10-12.6,10.93-20.45C276.6,143.87,276.55,144,276.51,144.13Z"/></g><g opacity="0" ><path fill="#B4D2F4"  d="M400.27,138.07c-.24.61-.45,1.24-.7,1.86a25.22,25.22,0,0,1-2,3.66,31.67,31.67,0,0,1-2.54,3.43c-5.88,7-13.9,9.8-22.69,6.53-8.54-3.17-14.21-10.4-14.65-19.53a2.11,2.11,0,0,1,0-.58,23.28,23.28,0,0,1,19-21.81A18.86,18.86,0,0,1,388.19,113c-15.29-7.71-34.35-2.93-39.29,15.33a20.54,20.54,0,0,0-.66,6.53,29.34,29.34,0,0,0,10.48,20.23c8.59,7.09,21.5,6.68,31,1.77,6.9-3.54,9.72-12,10.77-19.65C400.44,137.44,400.36,137.82,400.27,138.07Z"/></g>        </g>        <g id="eye-shape">            <g opacity="0.4" ><path d="M232.2,185.18c6.52,12.52,18.21,24.54,33.43,23.53,17.63-1.17,31.58-20.12,38.41-36,2.84-6.61,3.9-15.26,4.72-22.4-2.6,11.05-7.33,21.83-15.12,30.1a42,42,0,0,1-24,13c-10,1.47-20.23-2-28.93-6.67l-.84-.46q-3.09-1.71-6-3.69c-.9-.61-3.29-1.92-4.23-2.45Z"/></g><path fill="#fbfbfb"  d="M296.65,124.62c-6.35.45-12.88,2.2-19.19,4.11a1.9,1.9,0,0,1,.8,1.34,4.38,4.38,0,0,1,0,.72,15.08,15.08,0,0,1,2.21,9.65c-.65,8.16-4.84,18.53-14.74,17.07-7.79-1.16-13.62-7.89-14.7-15.43a1.56,1.56,0,0,1-.07-.44,1.33,1.33,0,0,1,0-.45,16.86,16.86,0,0,1,.58-4.26c-2.08.68-4.18,1.35-6.27,2-8.18,2.59-16.25,5.44-23.31,10.43-4.48,3.45-8.9,7.92-6.2,13.87,1.73,3.83,5.34,6.92,8.42,9.66,7.22,6.42,15.41,12.14,24.52,15.53,16.77,6.24,34.55,1.64,46-12.29,8.84-10.76,12.91-26.35,12.57-40.14C307.08,129.16,304.19,124.09,296.65,124.62Z"/><path d="M291.52,122.42c-13.42,2.61-26.38,7-39.36,11.2-10.92,3.56-22.21,6.44-31.72,13.16-5.41,4.17-10.64,9.68-7.75,16.92,3.15,7.89,12,14,18.64,18.71,15.8,11.16,35.82,16.68,53.44,6.16,15.75-9.4,22.91-26.55,25-44.1.69-5.84,1.52-13.25-2-18.42C304,120.64,297.17,121.32,291.52,122.42Zm3.16,53.72c-11.44,13.93-29.22,18.53-46,12.29-9.11-3.39-17.3-9.11-24.52-15.53-3.08-2.74-6.69-5.83-8.42-9.66-2.7-6,1.72-10.42,6.2-13.87,7.06-5,15.13-7.84,23.31-10.43,2.09-.66,4.19-1.33,6.27-2a16.86,16.86,0,0,0-.58,4.26,1.33,1.33,0,0,0,0,.45,1.56,1.56,0,0,0,.07.44c1.08,7.54,6.91,14.27,14.7,15.43,9.9,1.46,14.09-8.91,14.74-17.07a15.08,15.08,0,0,0-2.21-9.65,8.29,8.29,0,0,1-1.79,4c-2.57,3-7.13,1.29-9-1.6a7,7,0,0,1-.68-1.37q5.31-1.67,10.67-3.16l0,0c6.31-1.91,12.84-3.66,19.19-4.11,7.54-.53,10.43,4.54,10.6,11.38C307.59,149.79,303.52,165.38,294.68,176.14Z"/><path fill="#fbfbfb"  d="M443.36,142.58c-7-3.14-14.72-5-22.13-7.08a15.62,15.62,0,0,1,0,2.56c-.68,8.28-5.55,17-15,15.73a17.48,17.48,0,0,1-14.91-14.11,1.47,1.47,0,0,1-.1-.53,1.45,1.45,0,0,1,0-.6,12.8,12.8,0,0,1,3.59-7.85,1.37,1.37,0,0,1,.51-1l1.29-1.11-3.38-1c-8.69-2.66-17.51-5.31-26.67-5.45-20.79,1.23,4.13,40.86,9.67,48.48C387,185.31,401.75,194,420.25,190.51c9-1.68,15.32-5.6,21-12.76,4.69-5.94,10.15-12.45,12.15-19.85C455.5,150,450,145.56,443.36,142.58Z"/><path d="M456.08,149.46c-2.71-6-9.73-9.13-15.59-11.23-12.28-4.4-25.09-7.3-37.62-10.9-11.9-3.42-23.71-8-36.24-8.22a1.17,1.17,0,0,0-.38,0c-20.53,1.59-6.22,30.56-.71,40.28C374.39,175,387,191.6,406,194.22a47,47,0,0,0,26.72-4.58c8.31-4.44,14-14,19.29-21.53C455.46,163.18,458.74,155.39,456.08,149.46Zm-2.7,8.44c-2,7.4-7.46,13.91-12.15,19.85-5.66,7.16-12,11.08-21,12.76-18.5,3.46-33.22-5.2-43.95-19.92-5.54-7.62-30.46-47.25-9.67-48.48,9.16.14,18,2.79,26.67,5.45l3.38,1,0,0c3,.93,6,1.81,8.85,2.57a5.31,5.31,0,0,1-1.67,3.49c-2.89,2.71-7.89.07-8.87-3.28a1.43,1.43,0,0,1-.14-.61,12.8,12.8,0,0,0-3.59,7.85,1.45,1.45,0,0,0,0,.6,1.47,1.47,0,0,0,.1.53,17.48,17.48,0,0,0,14.91,14.11c9.42,1.25,14.29-7.45,15-15.73a15.62,15.62,0,0,0,0-2.56c7.41,2.07,15.11,3.94,22.13,7.08C450,145.56,455.5,150,453.38,157.9Z"/><path fill="#fff"  d="M277.46,128.73l0,0q-5.35,1.49-10.67,3.16a7,7,0,0,0,.68,1.37c1.88,2.89,6.44,4.64,9,1.6a8.29,8.29,0,0,0,1.79-4,4.38,4.38,0,0,0,0-.72A1.9,1.9,0,0,0,277.46,128.73Z"/><path fill="#fff"  d="M394.88,130.7a1.43,1.43,0,0,0,.14.61c1,3.35,6,6,8.87,3.28a5.31,5.31,0,0,0,1.67-3.49c-2.84-.76-5.81-1.64-8.85-2.57l0,0-1.29,1.11A1.37,1.37,0,0,0,394.88,130.7Z"/><g opacity="0.4" ><path d="M231.84,184.33a40.33,40.33,0,0,0,11,12c5.8,4.39,14.79,8.18,22.15,6.74,17.34-3.39,31.08-17,37.92-32.88a74,74,0,0,0,5.53-20.77c-2.6,11.06-7.33,21.83-15.12,30.11-6.32,6.72-14.82,11.68-24,13-10,1.47-20.23-2-28.93-6.66l-.84-.46c-2.06-1.14-4.06-2.38-6-3.69-.91-.61-3.29-1.92-4.23-2.46Z"/></g><g opacity="0.4" ><path d="M439.24,185.53c-6.52,12.53-18.21,24.54-33.43,23.53-17.63-1.17-31.58-20.12-38.41-36-2.84-6.61-3.9-15.26-4.72-22.4,2.6,11.05,9.84,17.56,17.62,25.84,6.33,6.72,13.95,14.31,23.15,15.67,10,1.47,18.6,1.27,27.3-3.41l.84-.45c2.06-1.14,4.44-3.11,6.39-4.43.9-.61,2.91-2.82,3.85-3.35Z"/></g><g opacity="0.4" ><path d="M439.6,184.68a40.43,40.43,0,0,1-11,12c-5.81,4.39-14.8,8.18-22.16,6.74-17.34-3.39-31.08-17-37.91-32.88A73.63,73.63,0,0,1,363,149.82c2.6,11.06,9.85,20.6,17.63,28.87,6.33,6.73,20.33,14.45,29.61,14.92a41.67,41.67,0,0,0,17.76-2.7,31,31,0,0,0,7.9-4.61,28.78,28.78,0,0,0,3.31-3.13c.9-1,1.77-2.81,2.94-3.48Z"/></g>        </g>        <g id="eye-color2">            <path fill="#9FA8FF"  d="M256.74,165.23c13.17,0,23.85-11.11,23.85-24.81a25.12,25.12,0,0,0-.13-2.62,19.45,19.45,0,0,1,0,2.64c-.65,8.16-4.84,18.53-14.74,17.07-7.79-1.16-13.62-7.89-14.7-15.43a1.56,1.56,0,0,1-.07-.44,1.33,1.33,0,0,1,0-.45,16.86,16.86,0,0,1,.58-4.26c-2.08.68-4.18,1.35-6.27,2-4.14,1.31-8.25,2.69-12.21,4.38C234.43,155.66,244.5,165.23,256.74,165.23Z"/><path fill="#9FA8FF"  d="M415.27,165.43c13.12,0,23.77-11,23.91-24.54-5.84-2.18-12-3.72-17.95-5.39a15.62,15.62,0,0,1,0,2.56c-.68,8.28-5.55,17-15,15.73a17.48,17.48,0,0,1-14.91-14.11,1.47,1.47,0,0,1-.1-.53,1.45,1.45,0,0,1,0-.6c0-.37.07-.73.12-1.09a15.74,15.74,0,0,0-.25,2.82C391.16,154,402.07,165.43,415.27,165.43Z"/>        </g>    </g>    <g id="nose-mouth">        <path fill="#2d2821"  d="M362.77,216.52c0-5.82-.49-10.62-5.89-13.7-4.66-2.66-10.48-3.18-15.73-3.24-9-.11-19.62,1-27.94,5.17a4.89,4.89,0,0,0-2.32.8c-8.75,4.56-6.11,11.74-4.73,17.55,1.82,7.65,3,18.55,11.42,21.84,8.82,3.46,19.11-.21,28-1.33,3-.38,6-.69,8.9-1.31s4.08-2.44,5.65-5.2C363.73,230.85,362.74,223.5,362.77,216.52Z"/><path d="M364.48,217.33c0-3.28.22-6.85-1.1-9.93-2-4.69-6.69-7.24-11.39-8.54-7.3-2-15.27-1.67-22.7-.66a81.47,81.47,0,0,0-10.06,1.91,57.26,57.26,0,0,0-9.48,3.73c-4.88,2.29-7.45,7.3-7.49,12.56s1.52,10.15,3.1,15c.26.8.53,1.6.79,2.41,2.1,6.55,6.34,12.34,13.41,13.55a45.13,45.13,0,0,0,18.34-.73c5.74-1.4,11.81-1.12,17.53-2.63,5.4-1.43,8.48-9.28,9-14.37C364.83,225.61,364.45,221.35,364.48,217.33Zm-11,24c-2.84.6-5.75.89-8.63,1.25-8.65,1.08-18.63,4.59-27.19,1.28-8.13-3.15-9.32-13.58-11.08-20.91-1.22-5.08-2-12.61,3.4-15.59a55.63,55.63,0,0,1,5.4-2.85,42.25,42.25,0,0,1,5.39-1.84,63.43,63.43,0,0,1,11.45-1.94c2.77-.23,5.54-.31,8.31-.28,5.09.06,10.73.56,15.26,3.11,5.23,2.94,5.73,7.53,5.71,13.11,0,6.67.93,13.7-2.53,19.69C357.43,239,356.44,240.71,353.47,241.32Z"/><path d="M322,228c-.45-.28-.91-.54-1.37-.78a6.36,6.36,0,0,0-3.45-.77c-1.69.17-4.14,1.83-2.79,3.77A28.6,28.6,0,0,0,330,241.46a1.51,1.51,0,0,0,1.69-2.2A28.1,28.1,0,0,0,322,228Z"/><path d="M351.65,224.66a37.25,37.25,0,0,0-5.23,11.25,3.73,3.73,0,0,0,.26,3,2.32,2.32,0,0,0,3.32.37A13.24,13.24,0,0,0,354.39,225,1.52,1.52,0,0,0,351.65,224.66Z"/><path fill="none"  d="M355.82,253.09c-.06.07,0,0,0,0s0,0,0,0l0-.05Z"/><path fill="#fffaf0"  d="M302.92,246.24l-.23-.25c.05.14.1.27.16.41.33.93.66,1.79,1,2.76a29.56,29.56,0,0,1,.75,2.87,52.82,52.82,0,0,1,.77,5.79l.44,5.77h0l8.26-4a88.09,88.09,0,0,0-7.21-9.1Q304.91,248.36,302.92,246.24Z"/><path d="M303.79,245.46c-1.29-1.45-2.46-3-3.69-4.5l-.65.58h0l-.64.59a10.72,10.72,0,0,1,1.2,2.3c.34.86.69,1.74,1,2.64.62,1.82,1.26,3.57,1.69,5.39s.85,3.7,1.3,5.58a34.15,34.15,0,0,0,1.78,5.55h0l-.44-5.77a52.82,52.82,0,0,0-.77-5.79,29.56,29.56,0,0,0-.75-2.87c-.31-1-.64-1.83-1-2.76-.06-.14-.11-.27-.16-.41l.23.25q2,2.12,3.91,4.29a88.09,88.09,0,0,1,7.21,9.1,70,70,0,0,0-6.55-9.65C306.3,248.44,305.05,247,303.79,245.46Z"/><path fill="#fffaf0"  d="M361.42,256.3c-.07-.08-.14-.06-.25-.25a1.13,1.13,0,0,1,0-.36l0-.27-.05-.52c-.09-.7-.13-1.44-.17-2.16a37.69,37.69,0,0,1-.07-4.39,36.76,36.76,0,0,1,.69-4.36v0a30.05,30.05,0,0,0-2.3,4.06c-.64,1.35-1.14,2.77-1.79,4.16-.16.34-.33.69-.5,1l-.12.25,0,.13,0,.09a.64.64,0,0,1-.07.12l0,0a.56.56,0,0,1-.16.1.05.05,0,0,1,0,0c-.19.34-.41.66-.63,1h0l6.21,1.86-.4-.37Z"/><path d="M362.53,239.34a43.58,43.58,0,0,0-2.76,3.78,28.69,28.69,0,0,0-2.17,4.19,35.68,35.68,0,0,0-1.55,4.38c-.1.37-.19.74-.27,1.13l-.06.3,0,.21a.47.47,0,0,0,0,.13.49.49,0,0,0,.11.33.74.74,0,0,0,.16.12c-.05.35-.1.7-.14,1.06h0c.22-.33.44-.65.63-1a.05.05,0,0,0,0,0,.56.56,0,0,0,.16-.1l0,0a.64.64,0,0,0,.07-.12l0-.09,0-.13.12-.25c.17-.33.34-.68.5-1,.65-1.39,1.15-2.81,1.79-4.16a30.05,30.05,0,0,1,2.3-4.06v0a36.76,36.76,0,0,0-.69,4.36,37.69,37.69,0,0,0,.07,4.39c0,.72.08,1.46.17,2.16l.05.52,0,.27a1.13,1.13,0,0,0,0,.36c.11.19.18.17.25.25l.2.16.4.37c-.07-.17-.14-.33-.23-.5l-.14-.25c0-.06-.14-.19-.1-.16s0-.1.07-.18l.07-.27a5.35,5.35,0,0,0,.11-.55c.12-.74.16-1.44.23-2.16.14-1.43.24-2.86.46-4.23s.59-2.71.91-4.13.64-2.83.87-4.27l.59-3.72Zm-6.75,13.8s0,0,0,0l0,0,0,.05S355.79,253.14,355.78,253.14Z"/><path d="M281.86,261.55a1.5,1.5,0,0,0,0-3,1.5,1.5,0,0,0,0,3Z"/><path d="M289,268a1.5,1.5,0,0,0,0-3,1.5,1.5,0,0,0,0,3Z"/><path d="M298.72,258.31a1.5,1.5,0,0,0,0-3,1.5,1.5,0,0,0,0,3Z"/><path d="M277.32,251.17a1.5,1.5,0,0,0,0-3,1.5,1.5,0,0,0,0,3Z"/><path d="M289,244.69a1.5,1.5,0,0,0,0-3,1.5,1.5,0,0,0,0,3Z"/><path d="M288.53,256.53a1.5,1.5,0,0,0,0-3,1.5,1.5,0,0,0,0,3Z"/><path d="M366.47,253.18a1.5,1.5,0,0,0,0-3,1.5,1.5,0,0,0,0,3Z"/><path d="M375.24,238.21a1.5,1.5,0,0,0,0-3,1.5,1.5,0,0,0,0,3Z"/><path d="M375.24,247.93a1.5,1.5,0,0,0,0-3,1.5,1.5,0,0,0,0,3Z"/><path d="M376.54,257.66a1.5,1.5,0,0,0,0-3,1.5,1.5,0,0,0,0,3Z"/><path d="M386.91,255.07a1.5,1.5,0,0,0,0-3,1.5,1.5,0,0,0,0,3Z"/><path d="M387.56,244a1.5,1.5,0,0,0,0-3,1.5,1.5,0,0,0,0,3Z"/><path d="M383.67,249.23a1.5,1.5,0,0,0,0-3,1.5,1.5,0,0,0,0,3Z"/><path d="M370.7,260.9a1.5,1.5,0,0,0,0-3,1.5,1.5,0,0,0,0,3Z"/><path d="M298.67,266.39a9.31,9.31,0,0,0,4.5-1.28c1.38-.75,2.77-1.58,4.15-2.38,2.78-1.6,5.5-3.24,8.05-5.05s4.89-3.94,7.53-5.92a22.08,22.08,0,0,1,9.22-4.3,24.22,24.22,0,0,1,10.12.58,54.42,54.42,0,0,1,9.2,3.44c5.83,2.74,11.55,5.6,17.19,8.72-6.12-2-12.14-4.24-18.1-6.56a65.31,65.31,0,0,0-8.95-2.84,30.34,30.34,0,0,0-4.5-.66,19.21,19.21,0,0,0-4.43.27,19.59,19.59,0,0,0-8.1,3.65c-2.58,1.73-5.05,3.86-7.89,5.56A68.07,68.07,0,0,1,308,264c-1.49.62-2.93,1.29-4.48,1.84A9,9,0,0,1,298.67,266.39Z"/>    </g></svg>