<!--  ~ Copyright (C) 2018 Baidu, Inc. All Rights Reserved.  --><svg viewBox="0 0 640 480" xmlns="http://www.w3.org/2000/svg">    <g id="back-ground-cl">        <rect fill="none" width="640" height="480" />        <ellipse opacity="0.1" cx="331.93" cy="418.82" rx="168.39" ry="32.01"/>    </g>    <g id="body">        <defs>            <clipPath id="outline">                <path fill="none"  d="M216.12,85.89a15.26,15.26,0,0,0,.54,2l1.19,0a15.65,15.65,0,0,1-1.48-1.66C216.28,86.14,216.21,86,216.12,85.89Z"/><path fill="none"  d="M222.89,87.76c1.06-.09,2.13-.21,3.18-.38a32.33,32.33,0,0,0,3.67-.78l-.61-.1a33.77,33.77,0,0,1-6.35-1.78,21.59,21.59,0,0,1-3.47-1.8l-.7-.28-.83-.39a10.69,10.69,0,0,0,1.16,2.09A13.64,13.64,0,0,0,222.89,87.76Z"/><path fill="none"  d="M222.56,111.78c.7-1,1.41-1.89,2.15-2.8.34-.42.68-.82,1-1.23-1.09-.65-2.16-1.34-3.2-2.09l-1,.08a35.21,35.21,0,0,1-3.56,0,16.59,16.59,0,0,0,3.23,4.64C221.61,110.88,222.08,111.34,222.56,111.78Z"/><path fill="none"  d="M222,102.85a40.17,40.17,0,0,0,6.69,4.89,55.47,55.47,0,0,0,15.52,6.2,65.1,65.1,0,0,0,16.69,1.74,84.46,84.46,0,0,0,16.61-2.17,120.31,120.31,0,0,0,16-4.72,68.22,68.22,0,0,0,14.75-7.55A47.28,47.28,0,0,0,320.1,89.8a35.3,35.3,0,0,0,6.44-15.23h0a.15.15,0,0,1,.17-.13.16.16,0,0,1,.13.15,27.44,27.44,0,0,1-1.62,8.4,33.33,33.33,0,0,1-1.49,3.68c18.28-2,36.6,2.8,52.61,11.59a119.83,119.83,0,0,1,11.59,7.28,48.86,48.86,0,0,0,10.15-8,28.51,28.51,0,0,0,6.76-11,19.73,19.73,0,0,0,.94-6.32,12.18,12.18,0,0,0-1.54-6,4.51,4.51,0,0,0-2-1.89,2.32,2.32,0,0,0-.59-.15c-.24,0-.48,0-.73,0a7,7,0,0,0-1.44.15,8.58,8.58,0,0,0-4.75,3.3A1,1,0,0,1,393,74.5a16.28,16.28,0,0,0,1.64-4.21,16.51,16.51,0,0,0,.39-4.49,18.38,18.38,0,0,0-.83-4.46c-.13-.41-.28-.82-.44-1.23a13.32,13.32,0,0,1-1,1.74,18.37,18.37,0,0,1-1.62,2.08,22.29,22.29,0,0,1-1.89,1.87,1.32,1.32,0,0,1-2.17-1.19v-.06a27.73,27.73,0,0,0,.22-7.81,13.29,13.29,0,0,0-2.74-6.8,8.1,8.1,0,0,0-2.69-2.11,5.65,5.65,0,0,0-1.53-.45,3,3,0,0,0-1.29.09c-.13.05-.14.08-.15.09a.51.51,0,0,0-.06.22,3.79,3.79,0,0,0,.23,1.37,14.53,14.53,0,0,0,1.66,3.26,1.56,1.56,0,0,1-2.42,2h0a44.41,44.41,0,0,0-4.26-3.73c-1.52-1.18-3.1-2.27-4.72-3.32a71.47,71.47,0,0,0-10.17-5.46,77.49,77.49,0,0,0-22.29-6,86.93,86.93,0,0,0-23.17.69,84.79,84.79,0,0,0-22.22,6.68,93.82,93.82,0,0,0-16,9.45l-.86-.3a.15.15,0,0,1-.06.09c-4.79,3-9.34,6.23-13.83,9.62S251.88,69,247.37,72.36a85.31,85.31,0,0,1-7.06,4.85,16.76,16.76,0,0,1-2,1,15.13,15.13,0,0,1-2.21.67,26.26,26.26,0,0,1-4.4.66,30.51,30.51,0,0,1-8.79-.74,36.52,36.52,0,0,1-4.22-1.26l-.6-.23a8,8,0,0,0,1.13,1.43,15,15,0,0,0,4.79,3,31.28,31.28,0,0,0,5.74,1.74,41.34,41.34,0,0,0,6,.81h.07a1.44,1.44,0,0,1,.59,2.71,28.58,28.58,0,0,1-9.94,3,45.63,45.63,0,0,1-5.09.34c-1,0-2,0-3-.08a11.19,11.19,0,0,0,1,1.24,23.81,23.81,0,0,0,2.93,2.52,42.28,42.28,0,0,0,6.8,4,62.56,62.56,0,0,0,15.15,5,76,76,0,0,0,15.93,1.42,101.89,101.89,0,0,0,15.89-1.62c5.25-1,10.44-2.16,15.53-3.61,1.28-.37,2.52-.8,3.79-1.17s2.5-.87,3.74-1.33,2.47-1,3.65-1.52l1.81-.81,1.77-.88a47.88,47.88,0,0,0,12.71-9.17,32.65,32.65,0,0,0,4.75-6.27,22.21,22.21,0,0,0,2.74-7.39v0a.14.14,0,0,1,.17-.12.15.15,0,0,1,.13.15,20.66,20.66,0,0,1-2.07,7.88,30.17,30.17,0,0,1-2,3.61,36.19,36.19,0,0,1-2.47,3.29,45.11,45.11,0,0,1-12.84,10.19c-9.64,5.27-20.39,8-31.11,9.28a101.19,101.19,0,0,1-16.22.7,104.79,104.79,0,0,1-16.1-1.69,78.83,78.83,0,0,1-15.57-4.54c-1.06-.45-2.11-.94-3.14-1.46-1.31.16-2.61.27-3.92.3-1.12,0-2.23,0-3.34-.08a11.42,11.42,0,0,0,1.11,1.72A22.73,22.73,0,0,0,222,102.85,372.42,63a15.64,15.64,0,0,1,1.7,7.26,17,17,0,0,1-.14,1.88c0,.31-.06.62-.11.93l-.23.91a18.29,18.29,0,0,1-.51,1.79c-.24.57-.48,1.14-.74,1.7a8.94,8.94,0,0,1-.89,1.6l-1,1.51A25.66,25.66,0,0,1,368,83.23c.33-1.18.8-2.24,1.18-3.32l.52-1.63c.08-.27.17-.53.27-.8s.12-.54.19-.81c.13-.54.26-1.07.41-1.6s.17-1.08.26-1.61l.14-.79c0-.27,0-.54.05-.81,0-.53.11-1.06.08-1.6a21.7,21.7,0,0,0-.88-6.36,29.85,29.85,0,0,0-2.63-6.29A13.44,13.44,0,0,1,372.42,63,-9.88,1.13a13.22,13.22,0,0,1,.79,2.55,15.84,15.84,0,0,1,.23,2.66,14.72,14.72,0,0,1-.94,5.19,11.39,11.39,0,0,1-2.82,4.38c.19-1.75.39-3.35.53-4.93s.23-3.12.23-4.64c0-.77,0-1.52-.06-2.29s-.09-1.53-.23-2.3c-.14-1.57-.55-3.09-.82-4.85A10.45,10.45,0,0,1,362.54,64.16,-42.89-14.6A25.35,25.35,0,0,0,312.1,52a20.31,20.31,0,0,1,7.18-3.86,30.33,30.33,0,0,1,8.16-1.45,25.33,25.33,0,0,1,16,4.75,23.27,23.27,0,0,1,8.93,14.07,31.36,31.36,0,0,1-.9,16.25,42,42,0,0,0-1.36-15.66c-.21-.61-.37-1.23-.62-1.82l-.73-1.77c-.26-.58-.6-1.11-.89-1.68-.15-.27-.29-.56-.46-.82l-.55-.77a18.47,18.47,0,0,0-1.11-1.52l-1.24-1.41A13.85,13.85,0,0,0,343.09,55a13.7,13.7,0,0,0-1.46-1.18,22.47,22.47,0,0,0-6.69-3.44A26.74,26.74,0,0,0,327.42,49,35.1,35.1,0,0,0,319.65,49.56Z"/><path fill="none"  d="M467.1,243.37c-8.65-24.15-19.37-47.49-30.8-70.44-2.92-5.86-5.91-11.69-9.11-17.41-.54-1-1.09-1.91-1.64-2.87-1.58-2.73-3.21-5.42-4.94-8.06-1.85-2.8-3.31-5.82-5.1-8.65-.08-.12-.22-.46-.35-.53,11.34,6.05,32.06,15.69,38.9,12.53a3.13,3.13,0,0,0,1.89-2.45c1.5-7.78-4.74-23.31-13.9-34.62-7.45-9.21-15.6-14.36-22.94-14.5h-.21c-11.52,0-24.29,17.74-24.43,17.93l-2.52-2c-11.76-9.45-25.23-16.87-39.87-20.61A78.28,78.28,0,0,0,321.93,90c-.15.25-.28.5-.44.74a45.39,45.39,0,0,1-11.86,12.46,64.14,64.14,0,0,1-15.19,8.1A88.77,88.77,0,0,1,244,114.84a67.87,67.87,0,0,1-15.55-5.6c-.45.53-.91,1.07-1.36,1.63-9.16,11.31-15.39,26.84-13.9,34.62a3.13,3.13,0,0,0,1.89,2.45c7.83,3.6,32.16-8.7,41.5-14.05a69.57,69.57,0,0,1-4.85,9c-1.68,2.41-3.53,4.74-5.11,7.23a377.39,377.39,0,0,0-52.43,133.52c-1.64,9-3,18.11-3.91,27.25-2.95,30.42-1.69,70.59,28.43,87.67,2.13,1.21,13,3.79,8.38,7.39-2.4,1.85-14.48,3-13.86,6.68.7,4.07,12.39,4.42,15.15,4.64a154.22,154.22,0,0,0,17.6.24c.5,0,1.38,0,2.32,0,0-.78,0-1.58,0-2.37,0-1.15-.07-2.29,0-3.44s.23-2.33.3-3.51.1-2.56.13-3.84c.06-2.74.12-5.48.14-8.23a158.51,158.51,0,0,0-1.23-23.57,56.88,56.88,0,0,0-2.72-11.44,23.74,23.74,0,0,0-6.26-9.85,23,23,0,0,1,6.91,9.6,57.37,57.37,0,0,1,3.33,11.48,105.25,105.25,0,0,1,1.55,11.85q.47,6,.56,11.92c0,1.25,0,2.49.05,3.73s0,2.76,0,4.14,0,1.6,0,3c0-.25,0,.57,0,.32,0,1.62-.21,3.24-.16,4.86l.1,3a19.5,19.5,0,0,1-.56,6.37,5.83,5.83,0,0,1-1,1.73,7.9,7.9,0,0,1-1.34,1.26,14.62,14.62,0,0,1-2.86,1.59,24.75,24.75,0,0,0-5,2.44,2.23,2.23,0,0,0-.94,1.53,3.1,3.1,0,0,0,.06,1,3.21,3.21,0,0,0,.38,1,5.71,5.71,0,0,0,1.44,1.61,5.41,5.41,0,0,1,.22-3.15,6.52,6.52,0,0,1,2.78-3.36,8.58,8.58,0,0,1,2-.78,12.49,12.49,0,0,1,1.87-.39,13.3,13.3,0,0,1,3.89,0,13.63,13.63,0,0,1-3.14,2.28c-1.12.61-2.21,1.06-3.05,1.5a9.22,9.22,0,0,0-2.26,1.93,12.58,12.58,0,0,0-1.91,3l.44-.37a13.16,13.16,0,0,0,1.61.88A20.5,20.5,0,0,0,249,436.6c1,.14,2,.24,3,.31a2.91,2.91,0,0,1-.42-.89,3.55,3.55,0,0,1,.16-2.18,7,7,0,0,1,2.47-3,10.09,10.09,0,0,1,3.23-1.61,7.41,7.41,0,0,1,3.66-.16,28.12,28.12,0,0,1-2.61,2.27c-.84.66-1.66,1.29-2.49,1.9a23.29,23.29,0,0,0-2.22,1.76,3.1,3.1,0,0,0-.73,1,2.51,2.51,0,0,0-.21,1.56l.59-.61a48.51,48.51,0,0,0,7-.25,43.15,43.15,0,0,0,5.65-1,14.5,14.5,0,0,0,4.9-2.22A22.32,22.32,0,0,0,278,425a24.89,24.89,0,0,0,1.19-2.5,18.81,18.81,0,0,0,.69-5.18c.11-1.75.2-3.52.4-5.25a76.92,76.92,0,0,1,1.76-9.77A50.17,50.17,0,0,1,286.3,391a84.17,84.17,0,0,1,6.22-10.16,115,115,0,0,0-5.31,10.59,57.66,57.66,0,0,0-3.42,11.2c-.47,2.52-.8,5.06-1,7.62-.1,1.12-.18,2.25-.25,3.38a312.8,312.8,0,0,0,33.86,5.59c21.48,2.29,43.63,2.35,64.74-2.68a86.22,86.22,0,0,0,8.66-2.58c0-.15-.06-.3-.08-.45-.62-3.71-.81-7.39-1.24-11-.2-1.8-.51-3.61-.79-5.43s-.56-3.63-.93-5.4a30.84,30.84,0,0,0-1.72-5.18q-1-2.59-1.83-5.21,1.08,2.54,2.25,5a31.76,31.76,0,0,1,2.07,5.16c.5,1.8.88,3.6,1.28,5.39s.8,3.59,1.12,5.43c.62,3.66,1,7.33,1.72,10.85a31,31,0,0,0,1.51,5.11,26.64,26.64,0,0,0,2.43,4.68,20.21,20.21,0,0,0,7.48,7,13.33,13.33,0,0,0,2.34.91c.8.25,1.71.44,2.57.62a44.53,44.53,0,0,0,5.29.71,51.54,51.54,0,0,0,5.7.11l.55.57a2.57,2.57,0,0,0-.21-1.56,3.42,3.42,0,0,0-.73-1,23.91,23.91,0,0,0-2.23-1.75c-.82-.61-1.64-1.24-2.48-1.9a27.06,27.06,0,0,1-2.61-2.28,7.49,7.49,0,0,1,3.65.16,10.06,10.06,0,0,1,3.24,1.62,7.05,7.05,0,0,1,2.47,3,3.59,3.59,0,0,1,.16,2.17,2.79,2.79,0,0,1-.44.92c1.2-.08,2.38-.2,3.53-.39a20.41,20.41,0,0,0,4.87-1.58,15.2,15.2,0,0,0,1.48-.83l.45.38a12.87,12.87,0,0,0-1.91-3,9.24,9.24,0,0,0-2.27-1.92c-.84-.44-1.92-.89-3-1.5a13.19,13.19,0,0,1-3.14-2.29,13.57,13.57,0,0,1,3.88.05,12.35,12.35,0,0,1,1.88.39,8.08,8.08,0,0,1,2,.78,6.54,6.54,0,0,1,2.79,3.36,5.56,5.56,0,0,1,.23,3.12,5.88,5.88,0,0,0,1.29-1.42,3.83,3.83,0,0,0,.58-1.85,2.25,2.25,0,0,0-.12-.84,1.91,1.91,0,0,0-.4-.72c-.79-.94-2.47-1.64-4.13-2.28a21.12,21.12,0,0,1-5.32-2.59,7.85,7.85,0,0,1-1.24-1.21,4.82,4.82,0,0,1-.87-1.72,9.16,9.16,0,0,1-.28-1.57c-.06-.51-.08-1-.1-1.48a111.51,111.51,0,0,1,.44-11.18c.29-3.68.68-7.35,1.13-11,.89-7.32,2-14.61,3.49-21.84.76-3.61,1.59-7.21,2.61-10.76a54.87,54.87,0,0,1,1.74-5.26,23,23,0,0,1,1.16-2.52,7.34,7.34,0,0,1,1.66-2.2,7.31,7.31,0,0,0-1.46,2.3,23.21,23.21,0,0,0-.94,2.57c-.55,1.74-1,3.52-1.4,5.31-.79,3.57-1.4,7.19-1.93,10.81-1.1,7.25-1.92,14.54-2.61,21.84q-.48,5.48-.83,10.95c-.19,3.41-.36,6.86-.24,10.19,5.42.86,11.33.44,16.68.28a155.32,155.32,0,0,0,19.15-1.45c2.36-.37,3.95,0,2.58-2.3-1.61-2.7-4-4-6.92-5-2.42-.82-9.31-1-10.72-3.45-.77-1.34.08-2,1-2.94,1.35-1.35,4-2.2,5.6-3.24q3-1.89,5.8-4.05A69.64,69.64,0,0,0,475.19,368c8.95-16.71,10.93-36.3,9.16-54.94C482.11,289.32,475.1,265.72,467.1,243.37Z"/><path fill="none"  d="M145.9,307.05c-14.61-18.27-22.84-35.2-28.29-46.41-2.72-5.61-6.1-12.56-7.49-12.56h0c-.73,1-.76,6.95,4.23,23,3.6,11.62,8.57,24.37,12.09,31a1.5,1.5,0,0,1-2.55,1.58c-3.88-5.38-10.33-13-13.66-14.58.77,5.54,13.45,29.08,27.18,39.38a1.5,1.5,0,0,1-1.77,2.42c-3.38-2.41-11.15-6.62-13.54-4.23-.31.86,2.08,5.18,11.54,12.95,7.82,6.42,16.84,12.21,23,14.74a1.5,1.5,0,0,1-.87,2.86c-5.44-1.08-10.83-.89-11.25.39.12.59,1.47,2.51,5.06,5.11,3.28,2.38,19.48,13,43.76,10.8-4.67-10.69-6.81-22.41-7.38-34.42C175.17,333,157.54,321.6,145.9,307.05Z"/><path d="M334.94,50.41a22.47,22.47,0,0,1,6.69,3.44A13.7,13.7,0,0,1,343.09,55a13.85,13.85,0,0,1,1.38,1.27l1.24,1.41a18.47,18.47,0,0,1,1.11,1.52l.55.77c.17.26.31.55.46.82.29.57.63,1.1.89,1.68l.73,1.77c.25.59.41,1.21.62,1.82a42,42,0,0,1,1.36,15.66,31.36,31.36,0,0,0,.9-16.25,23.27,23.27,0,0,0-8.93-14.07,25.33,25.33,0,0,0-16-4.75,30.33,30.33,0,0,0-8.16,1.45A20.31,20.31,0,0,0,312.1,52a25.35,25.35,0,0,1,7.55-2.43,35.1,35.1,0,0,1,7.77-.54A26.74,26.74,0,0,1,334.94,50.41Z"/><path d="M360.5,67.08c0,.77.09,1.52.06,2.29,0,1.52-.08,3.06-.23,4.64s-.34,3.18-.53,4.93a11.39,11.39,0,0,0,2.82-4.38,14.72,14.72,0,0,0,.94-5.19,15.84,15.84,0,0,0-.23-2.66,13.22,13.22,0,0,0-.79-2.55,10.45,10.45,0,0,0-3.09-4.23c.27,1.76.68,3.28.82,4.85C360.41,65.55,360.41,66.33,360.5,67.08Z"/><path d="M371.12,70.26c0,.54-.06,1.07-.08,1.6,0,.27,0,.54-.05.81l-.14.79c-.09.53-.15,1.08-.26,1.61s-.28,1.06-.41,1.6c-.07.27-.1.55-.19.81s-.19.53-.27.8l-.52,1.63c-.38,1.08-.85,2.14-1.18,3.32a25.66,25.66,0,0,0,2.48-2.62l1-1.51a8.94,8.94,0,0,0,.89-1.6c.26-.56.5-1.13.74-1.7a18.29,18.29,0,0,0,.51-1.79l.23-.91c.05-.31.07-.62.11-.93a17,17,0,0,0,.14-1.88,15.64,15.64,0,0,0-1.7-7.26,13.44,13.44,0,0,0-4.81-5.42,29.85,29.85,0,0,1,2.63,6.29A21.7,21.7,0,0,1,371.12,70.26Z"/><path d="M480.31,275.87c-6.48-25.07-15.82-49.32-26.42-72.92-5.39-12-11.13-23.86-17-35.62a264.23,264.23,0,0,0-13.36-24.4c1.45.68,3,1.37,4.5,2,9.91,4.35,17.51,6.54,22.69,6.54a11.17,11.17,0,0,0,4.63-.85,6.15,6.15,0,0,0,3.59-4.61c1.67-8.68-4.71-25-14.52-37.08-8-9.91-17-15.45-25.21-15.61h-.26c-9.77,0-20.19,10.83-25.06,16.63-1.84-1.47-3.72-2.9-5.63-4.26a47.5,47.5,0,0,0,10.46-7.6,29.61,29.61,0,0,0,7.4-11.21,20.53,20.53,0,0,0,1.2-6.74,13.82,13.82,0,0,0-1.6-6.81A6.15,6.15,0,0,0,403,70.73a4.09,4.09,0,0,0-1-.29c-.31,0-.61-.07-.93-.09a8.29,8.29,0,0,0-1.86.14,8.83,8.83,0,0,0-2.52.91c.06-.19.13-.39.18-.59a17.62,17.62,0,0,0,.56-5.11,21.08,21.08,0,0,0-.84-5.06,20.21,20.21,0,0,0-2.07-4.75,1.2,1.2,0,0,0-1-.59,1.22,1.22,0,0,0-1.24,1.21v.06a7.26,7.26,0,0,1-1.51,3.83c-.13.2-.29.4-.44.59a25.29,25.29,0,0,0-.09-4.6,16.17,16.17,0,0,0-3.24-8.33,10.53,10.53,0,0,0-3.72-3,8.27,8.27,0,0,0-2.4-.73,6.51,6.51,0,0,0-1.33,0,4.58,4.58,0,0,0-1.45.3,3.33,3.33,0,0,0-1.5,1.09,3.53,3.53,0,0,0-.65,1.69,5.52,5.52,0,0,0,0,.57c-1.52-1.19-3.09-2.32-4.71-3.36a74,74,0,0,0-10.64-5.71,77.45,77.45,0,0,0-23.25-6,88.86,88.86,0,0,0-23.94.95A83.29,83.29,0,0,0,290.48,41a91.2,91.2,0,0,0-10.42,5.9c-3.31,2.17-6.46,4.78-9.7,7.13S263.45,58.7,260,61c-4.67,3.15-9.26,6.44-13.89,9.6-2.32,1.56-4.63,3.16-7,4.47a14.54,14.54,0,0,1-1.75.83,12.66,12.66,0,0,1-1.84.46,25.16,25.16,0,0,1-4,.46,29.26,29.26,0,0,1-7.95-.92,34.26,34.26,0,0,1-3.84-1.22A27.31,27.31,0,0,1,216.18,73a1.66,1.66,0,0,0-.91-.21,1.61,1.61,0,0,0-1.49,1.73,9.76,9.76,0,0,0,.81,3.16,1.56,1.56,0,0,0-.8,1.52,14,14,0,0,0,.77,3.7c.11.31.24.62.38.92a.42.42,0,0,0-.06.25,17.9,17.9,0,0,0,.75,4,1.11,1.11,0,0,0-.38,1.19,6.19,6.19,0,0,0,1.14,2.15,15.23,15.23,0,0,0,1.49,1.6A21.66,21.66,0,0,0,220,94.75c.39.35.8.69,1.21,1a33.88,33.88,0,0,1-4.73,0h-.09a1.11,1.11,0,0,0-1.17,1.38,10.18,10.18,0,0,0,2.32,4.11,22.32,22.32,0,0,0,2.49,2.47,29.54,29.54,0,0,1-3.55-.23,1,1,0,0,0-.35,0,1.13,1.13,0,0,0-.89,1.3,12.42,12.42,0,0,0,1.62,4,21.41,21.41,0,0,0,2.48,3.32c.56.62,1.15,1.2,1.75,1.77-7.71,11.32-12.37,24.67-10.91,32.23a6.16,6.16,0,0,0,3.58,4.61,11,11,0,0,0,4.63.85c5.18,0,12.78-2.19,22.7-6.54,2.51-1.1,4.94-2.25,7.17-3.34a351.63,351.63,0,0,0-21,36,379.37,379.37,0,0,0-27.51,69.12q-5.15,17.82-8.5,36.07c-3,16.36-5.85,34.82-5.45,52.82-10.61-6.19-26.76-16.95-37.55-30.45-14.41-18-22.55-34.76-27.94-45.84-4.91-10.12-7.37-15.19-11.12-14.13a3,3,0,0,0-1.91,1.82c-2.47,5.79,5.19,29.93,11.64,45.82-3.12-3.41-6.57-6.53-9.07-6.94a2.11,2.11,0,0,0-2.42,1.29c-1.79,4.17,8.51,23.55,20.26,36.41-2.91-.84-5.83-.91-7.74,1a3.18,3.18,0,0,0-.79,3c1.16,5.82,16.67,18.71,29.11,25.91-3.23.12-6.22,1-6.74,3.58-.27,1.37.6,3,2.66,5.07,4.77,4.73,20.25,14.68,42.52,14.68a75.13,75.13,0,0,0,7.94-.42,72.87,72.87,0,0,0,3.55,6.41,53,53,0,0,0,21.65,19.67c.46.23,2,1.13,3.25,1.71-.13.05-.23.1-.31.12-1.79.63-3.6,1.17-5.38,1.82-3.43,1.25-9.09,3.22-6.81,8,1.87,3.92,8,4.81,11.7,5.39a118.06,118.06,0,0,0,20,1c1.45,0,3.45.1,5.46.05-.43,1.17-1.94,2-3.62,2.77a25.27,25.27,0,0,0-5.64,2.81,6,6,0,0,0-1.32,1.45,5.1,5.1,0,0,0-.7,2,6.35,6.35,0,0,0,.1,2,6.56,6.56,0,0,0,.68,1.79,11.21,11.21,0,0,0,5.18,4.33,22.83,22.83,0,0,0,6.06,1.85,48.77,48.77,0,0,0,12.25.07,44.71,44.71,0,0,0,6-1.12,17.23,17.23,0,0,0,5.82-2.68,24.88,24.88,0,0,0,7.82-9.69A20.45,20.45,0,0,0,282,422a25.34,25.34,0,0,0,.32-4.77l0-.51c22.41,4.87,45.49,7.76,68.45,6.85a160.1,160.1,0,0,0,32.55-4.43c2.4-.6,4.77-1.26,7.12-2a28.84,28.84,0,0,0,3.1,7.11,21.91,21.91,0,0,0,8.26,8.09,15.66,15.66,0,0,0,2.77,1.14c.95.31,1.84.51,2.78.72A48.1,48.1,0,0,0,413,435a45.77,45.77,0,0,0,11.38-.31,23.06,23.06,0,0,0,5.61-1.79,13.82,13.82,0,0,0,2.62-1.56,8.9,8.9,0,0,0,2.25-2.39,6.87,6.87,0,0,0,1-3.36,5.19,5.19,0,0,0-1.23-3.53,8.33,8.33,0,0,0-2.68-2,24.86,24.86,0,0,0-2.68-1.13,19.6,19.6,0,0,1-4.59-2.15,4.54,4.54,0,0,1-.74-.7,1.83,1.83,0,0,1-.37-.72l0-.12.83.08a142.39,142.39,0,0,0,20.86,0c5.57-.29,11.91-.22,17.3-1.84,3.77-1.13,2.9-4.86.85-7.65-3.27-4.43-9.45-5.46-14.45-6.64l-.43-.13c.93-.57,1.95-1.32,2.33-1.55a77.06,77.06,0,0,0,11.86-8.78c14-12.68,21.83-30.36,24.29-48.89C489.83,318.38,485.69,296.69,480.31,275.87,-263.65-188a15.26,15.26,0,0,1-.54-2c.09.12.16.25.25.36a15.65,15.65,0,0,0,1.48,1.66,1.12-5.62.83.39.7.28a21.59,21.59,0,0,0,3.47,1.8,33.77,33.77,0,0,0,6.35,1.78l.61.1a32.33,32.33,0,0,1-3.67.78c-1,.17-2.12.29-3.18.38a13.64,13.64,0,0,1-3.95-3.42A10.69,10.69,0,0,1,217.78,82.25,1.41,17.62a11.42,11.42,0,0,1-1.11-1.72c1.11.08,2.22.1,3.34.08,1.31,0,2.61-.14,3.92-.3,1,.52,2.08,1,3.14,1.46a78.83,78.83,0,0,0,15.57,4.54,104.79,104.79,0,0,0,16.1,1.69,101.19,101.19,0,0,0,16.22-.7c10.72-1.28,21.47-4,31.11-9.28a45.11,45.11,0,0,0,12.84-10.19,36.19,36.19,0,0,0,2.47-3.29,30.17,30.17,0,0,0,2-3.61,20.66,20.66,0,0,0,2.07-7.88.15.15,0,0,0-.13-.15.14.14,0,0,0-.17.14,22.21,22.21,0,0,1-2.74,7.39,32.65,32.65,0,0,1-4.75,6.27,47.88,47.88,0,0,1-12.71,9.17l-1.77.88-1.81.81c-1.18.57-2.43,1-3.65,1.52s-2.48.9-3.74,1.33-2.51.8-3.79,1.17c-5.09,1.45-10.28,2.63-15.53,3.61a101.89,101.89,0,0,1-15.89,1.62A76,76,0,0,1,244.23,103a62.56,62.56,0,0,1-15.15-5,42.28,42.28,0,0,1-6.8-4,23.81,23.81,0,0,1-2.93-2.52,11.19,11.19,0,0,1-1-1.24c1,.06,2,.08,3,.08a45.63,45.63,0,0,0,5.09-.34,28.58,28.58,0,0,0,9.94-3,1.44,1.44,0,0,0-.59-2.71h-.07a41.34,41.34,0,0,1-6-.81A31.28,31.28,0,0,1,224,81.78a15,15,0,0,1-4.79-3,8,8,0,0,1-1.13-1.43l.6.23a36.52,36.52,0,0,0,4.22,1.26,30.51,30.51,0,0,0,8.79.74,26.26,26.26,0,0,0,4.4-.66,15.13,15.13,0,0,0,2.21-.67,16.76,16.76,0,0,0,2-1,85.31,85.31,0,0,0,7.06-4.85c4.2-3.16,8.35-6.38,12.55-9.54a148,148,0,0,1,12.77-8.41l2.67-1.62c1.68-1,3.23-2.22,4.88-3.29a88.47,88.47,0,0,1,11.28-6.23,84.79,84.79,0,0,1,22.22-6.68,86.93,86.93,0,0,1,23.17-.69,77.49,77.49,0,0,1,22.29,6,71.47,71.47,0,0,1,10.17,5.46c1.62,1,3.2,2.14,4.72,3.32a44.45,44.45,0,0,1,4.27,3.74,1.56,1.56,0,0,0,2.42-2,14.53,14.53,0,0,1-1.66-3.26,3.79,3.79,0,0,1-.23-1.37.51.51,0,0,1,.06-.22s0,0,.15-.09a3,3,0,0,1,1.29-.09,5.65,5.65,0,0,1,1.53.45,8.1,8.1,0,0,1,2.69,2.11,13.29,13.29,0,0,1,2.74,6.8,27.73,27.73,0,0,1-.22,7.81v.06a1.32,1.32,0,0,0,2.17,1.19,22.29,22.29,0,0,0,1.89-1.87,18.37,18.37,0,0,0,1.62-2.08,13.32,13.32,0,0,0,1-1.74c.16.41.31.82.44,1.23a18.38,18.38,0,0,1,.83,4.46,16.51,16.51,0,0,1-.39,4.49A16.28,16.28,0,0,1,393,74.5a1,1,0,0,0,1.73,1.1,8.58,8.58,0,0,1,4.75-3.3,7,7,0,0,1,1.44-.15c.25,0,.49,0,.73,0a2.32,2.32,0,0,1,.59.15,4.51,4.51,0,0,1,2,1.89,12.18,12.18,0,0,1,1.54,6,19.73,19.73,0,0,1-.94,6.32,28.51,28.51,0,0,1-6.76,11,48.86,48.86,0,0,1-10.15,8,119.83,119.83,0,0,0-11.59-7.28c-16-8.79-34.33-13.58-52.61-11.59A33.33,33.33,0,0,0,325.22,83a27.44,27.44,0,0,0,1.62-8.4.16.16,0,0,0-.13-.15.15.15,0,0,0-.17.14A35.3,35.3,0,0,1,320.1,89.8a47.28,47.28,0,0,1-11.87,11.44,68.22,68.22,0,0,1-14.75,7.55,120.31,120.31,0,0,1-16,4.72,84.46,84.46,0,0,1-16.61,2.17,65.1,65.1,0,0,1-16.69-1.74,55.47,55.47,0,0,1-15.52-6.2,40.17,40.17,0,0,1-6.69-4.89A22.73,22.73,0,0,1,219.19,99.87,-1.25,5.89a35.21,35.21,0,0,0,3.56,0l1-.08c1,.75,2.11,1.44,3.2,2.09-.35.41-.69.81-1,1.23-.74.91-1.45,1.85-2.15,2.8-.48-.44-.95-.9-1.39-1.38A16.59,16.59,0,0,1,217.94,105.76,-68.39,257c-3.59-2.6-4.94-4.52-5.06-5.11.42-1.28,5.81-1.47,11.25-.39a1.5,1.5,0,0,0,.87-2.86c-6.16-2.53-15.18-8.32-23-14.74-9.46-7.77-11.85-12.09-11.54-12.95,2.39-2.39,10.16,1.82,13.54,4.23a1.5,1.5,0,0,0,1.77-2.42c-13.73-10.3-26.41-33.84-27.18-39.38,3.33,1.63,9.78,9.2,13.66,14.58a1.5,1.5,0,0,0,2.55-1.58c-3.52-6.65-8.49-19.4-12.09-31-5-16.1-5-22.07-4.23-23h0c1.39,0,4.77,6.95,7.49,12.56,5.45,11.21,13.68,28.14,28.29,46.41,11.64,14.55,29.27,26,40,32.1.57,12,2.71,23.73,7.38,34.42C169,375.75,152.83,365.15,149.55,362.77,475.19,368a69.64,69.64,0,0,1-18.8,22.19q-2.81,2.16-5.8,4.05c-1.64,1-4.25,1.89-5.6,3.24-.89.89-1.74,1.6-1,2.94,1.41,2.49,8.3,2.63,10.72,3.45,2.94,1,5.31,2.32,6.92,5,1.37,2.3-.22,1.93-2.58,2.3a155.32,155.32,0,0,1-19.15,1.45c-5.35.16-11.26.58-16.68-.28-.12-3.33.05-6.78.24-10.19q.35-5.47.83-10.95c.69-7.3,1.51-14.59,2.61-21.84.53-3.62,1.14-7.24,1.93-10.81.39-1.79.85-3.57,1.4-5.31a23.21,23.21,0,0,1,.94-2.57,7.31,7.31,0,0,1,1.46-2.3,7.34,7.34,0,0,0-1.66,2.2,23,23,0,0,0-1.16,2.52,54.87,54.87,0,0,0-1.74,5.26c-1,3.55-1.85,7.15-2.61,10.76-1.46,7.23-2.6,14.52-3.49,21.84-.45,3.66-.84,7.33-1.13,11a111.51,111.51,0,0,0-.44,11.18c0,.48,0,1,.1,1.48a9.16,9.16,0,0,0,.28,1.57,4.82,4.82,0,0,0,.87,1.72,7.85,7.85,0,0,0,1.24,1.21,21.12,21.12,0,0,0,5.32,2.59c1.66.64,3.34,1.34,4.13,2.28a1.91,1.91,0,0,1,.4.72,2.25,2.25,0,0,1,.12.84,3.83,3.83,0,0,1-.58,1.85,5.88,5.88,0,0,1-1.29,1.42,5.56,5.56,0,0,0-.23-3.12,6.54,6.54,0,0,0-2.79-3.36,8.08,8.08,0,0,0-2-.78,12.35,12.35,0,0,0-1.88-.39,13.57,13.57,0,0,0-3.88-.05,13.19,13.19,0,0,0,3.14,2.29c1.12.61,2.2,1.06,3,1.5a9.24,9.24,0,0,1,2.27,1.92,12.87,12.87,0,0,1,1.91,3l-.45-.38a15.2,15.2,0,0,1-1.48.83,20.41,20.41,0,0,1-4.87,1.58c-1.15.19-2.33.31-3.53.39a2.79,2.79,0,0,0,.44-.92,3.59,3.59,0,0,0-.16-2.17,7.05,7.05,0,0,0-2.47-3,10.06,10.06,0,0,0-3.24-1.62,7.49,7.49,0,0,0-3.65-.16,27.06,27.06,0,0,0,2.61,2.28c.84.66,1.66,1.29,2.48,1.9a23.91,23.91,0,0,1,2.23,1.75,3.42,3.42,0,0,1,.73,1,2.57,2.57,0,0,1,.21,1.56l-.55-.57a51.54,51.54,0,0,1-5.7-.11,44.53,44.53,0,0,1-5.29-.71c-.86-.18-1.77-.37-2.57-.62A13.33,13.33,0,0,1,403,430a20.21,20.21,0,0,1-7.48-7,26.64,26.64,0,0,1-2.43-4.68,31,31,0,0,1-1.51-5.11c-.76-3.52-1.1-7.19-1.72-10.85-.32-1.84-.74-3.63-1.12-5.43s-.78-3.59-1.28-5.39a31.76,31.76,0,0,0-2.07-5.16q-1.17-2.49-2.25-5,.87,2.61,1.83,5.21a30.84,30.84,0,0,1,1.72,5.18c.37,1.77.65,3.59.93,5.4s.59,3.63.79,5.43c.43,3.62.62,7.3,1.24,11,0,.15.06.3.08.45a86.22,86.22,0,0,1-8.66,2.58c-21.11,5-43.26,5-64.74,2.68a312.8,312.8,0,0,1-33.86-5.59c.07-1.13.15-2.26.25-3.38.23-2.56.56-5.1,1-7.62a57.66,57.66,0,0,1,3.42-11.2,115,115,0,0,1,5.31-10.59A84.17,84.17,0,0,0,286.3,391,50.17,50.17,0,0,0,282,402.27a76.92,76.92,0,0,0-1.76,9.77c-.2,1.73-.29,3.5-.4,5.25a18.81,18.81,0,0,1-.69,5.18A24.89,24.89,0,0,1,278,425a22.32,22.32,0,0,1-7.06,8.51,14.5,14.5,0,0,1-4.9,2.22,43.15,43.15,0,0,1-5.65,1,48.51,48.51,0,0,1-7,.25l-.59.61A2.51,2.51,0,0,1,253,436a3.1,3.1,0,0,1,.73-1,23.29,23.29,0,0,1,2.22-1.76c.83-.61,1.65-1.24,2.49-1.9a28.12,28.12,0,0,0,2.61-2.27,7.41,7.41,0,0,0-3.66.16,10.09,10.09,0,0,0-3.23,1.61,7,7,0,0,0-2.47,3,3.55,3.55,0,0,0-.16,2.18,2.91,2.91,0,0,0,.42.89c-1-.07-2-.17-3-.31a20.5,20.5,0,0,1-5.28-1.58,13.16,13.16,0,0,1-1.61-.88l-.44.37a12.58,12.58,0,0,1,1.91-3,9.22,9.22,0,0,1,2.26-1.93c.84-.44,1.93-.89,3.05-1.5a13.63,13.63,0,0,0,3.14-2.28,13.3,13.3,0,0,0-3.89,0,12.49,12.49,0,0,0-1.87.39,8.58,8.58,0,0,0-2,.78,6.52,6.52,0,0,0-2.78,3.36,5.41,5.41,0,0,0-.22,3.15,5.71,5.71,0,0,1-1.44-1.61,3.21,3.21,0,0,1-.38-1,3.1,3.1,0,0,1-.06-1,2.23,2.23,0,0,1,.94-1.53,24.75,24.75,0,0,1,5-2.44,14.62,14.62,0,0,0,2.86-1.59,7.9,7.9,0,0,0,1.34-1.26,5.83,5.83,0,0,0,1-1.73,19.5,19.5,0,0,0,.56-6.37l-.1-3c0-1.62.16-3.24.16-4.86,0,.25,0-.57,0-.32,0-1.36,0-1.61,0-3s0-2.76,0-4.14,0-2.48-.05-3.73q-.09-6-.56-11.92a105.25,105.25,0,0,0-1.55-11.85,57.37,57.37,0,0,0-3.33-11.48,23,23,0,0,0-6.91-9.6,23.74,23.74,0,0,1,6.26,9.85,56.88,56.88,0,0,1,2.72,11.44,158.51,158.51,0,0,1,1.23,23.57c0,2.75-.08,5.49-.14,8.23,0,1.28-.05,2.56-.13,3.84s-.21,2.34-.3,3.51,0,2.29,0,3.44c0,.79,0,1.59,0,2.37-.94,0-1.82,0-2.32,0a154.22,154.22,0,0,1-17.6-.24c-2.76-.22-14.45-.57-15.15-4.64-.62-3.64,11.46-4.83,13.86-6.68,4.66-3.6-6.25-6.18-8.38-7.39-30.12-17.08-31.38-57.25-28.43-87.67.88-9.14,2.27-18.22,3.91-27.25a377.39,377.39,0,0,1,52.43-133.52c1.58-2.49,3.43-4.82,5.11-7.23a69.57,69.57,0,0,0,4.85-9c-9.34,5.35-33.67,17.65-41.5,14.05a3.13,3.13,0,0,1-1.89-2.45c-1.49-7.78,4.74-23.31,13.9-34.62.45-.56.91-1.1,1.36-1.63a67.87,67.87,0,0,0,15.55,5.6,84.28,84.28,0,0,0,16.9,2.09,92.43,92.43,0,0,0,33.59-5.63,64.14,64.14,0,0,0,15.19-8.1,45.39,45.39,0,0,0,11.86-12.46c.16-.24.29-.49.44-.74a78.28,78.28,0,0,1,30.15,1.73c14.64,3.74,28.11,11.16,39.87,20.61l2.52,2c.14-.19,12.91-17.93,24.43-17.93h.21c7.34.14,15.49,5.29,22.94,14.5,9.16,11.31,15.4,26.84,13.9,34.62a3.13,3.13,0,0,1-1.89,2.45c-6.84,3.16-27.56-6.48-38.9-12.53.13.07.27.41.35.53,1.79,2.83,3.25,5.85,5.1,8.65,1.73,2.64,3.36,5.33,4.94,8.06.55,1,1.1,1.91,1.64,2.87,3.2,5.72,6.19,11.55,9.11,17.41,11.43,22.95,22.15,46.29,30.8,70.44,8,22.35,15,45.95,17.25,69.67C486.12,331.68,484.14,351.27,475.19,368Z"/>            </clipPath>        </defs>        <g clip-path="url(#outline)">            <rect fill="#49ADB7" width="640" height="480" />        </g>    </g>    <g id="pattern">        <g clip-path="url(#outline)">            <rect fill="#B6EAFF" opacity="0"  x="1.02" y="0.28" width="640" height="480"/>            <g opacity="0.6" ><path fill="#FFFFFF"  d="M285.65,417.34c.88-28.07,28.25-44.44,48.84-46.07,24.2-1.91,50.7,17.49,53.14,45.19.13,1.39-.11,1.25-1.55,2-5.06,2.52-10.68,3.22-16.14,4-11.84,1.77-24.23,2.06-36.17,2-16.08-.11-32.32-1.27-47.7-6.73"/></g>        </g>    </g>    <g id="mask">        <path fill="none"  d="M262.68,125.25c-.76.07-1.52.14-2.29.19l-.1.11-.4,0a19.53,19.53,0,0,1-.43,3.69Z"/><path opacity="0.1"  d="M339.31,405.32c-39.1-.61-54-9.37-54-9.37l-3.87,19.14c6.31,3.26,30.14,4.89,57.22,6.93S391,415.5,391,415.5l-2.86-18.74S378.41,405.93,339.31,405.32Z"/><path opacity="0.1"  d="M426.2,117.27c-4.18-1.39-7.73.64-10.07,4.09a25.3,25.3,0,0,0-2.76,5.74c-.23.65-.58,1.44-1,2.38,2.5,2.94,4.44,5.34,6.4,8.13,1.44.82,2.73,1.61,4.2,2.37q2.83,1.47,5.74,2.8c1.5.69,4.19,2.52,5.84,2.52,5.46,2.22,13.54,5.83,19.57,3.89a4.55,4.55,0,0,0,3.28-3.41C459.59,135.46,437.6,121.07,426.2,117.27Z"/><g opacity="0.1" ><path d="M484.62,335.15c.23,1.7-3.51,6.77-4.43,8.5-1.82,3.4-3.69,6.77-5.68,10.08a108.4,108.4,0,0,1-13.23,18.12,63.28,63.28,0,0,1-11.06,9.47A60.18,60.18,0,0,1,444,385a32.36,32.36,0,0,1-5.53,2.51c-4,1.16-6.15-2.21-7.32-5.52a39.64,39.64,0,0,1-2.34-17.54A117.62,117.62,0,0,1,431.32,350l-1.95,4.49c-3.06,11.13-4.58,22.56-6,34a4.63,4.63,0,0,0,.26,2.2,3,3,0,0,0-.88.73c-2.06,2.52-.69,11.1-.81,14.3a.63.63,0,0,0,.09.45c.16.19.45.14.69.08a107.14,107.14,0,0,0,24.47-9.44A67.59,67.59,0,0,0,470,377.06c3.19-4.31,7.4-9.86,9.2-14.91C482.27,353.44,485.88,344.31,484.62,335.15Z"/></g><path opacity="0.1"  d="M157.66,346.43A90.42,90.42,0,0,1,134,312c-4.34-10.86-24.44-58.65-24.44-65.3,0,0-4.34,4.48,4.08,28.1s11.4,28.1,11.4,28.1S114,287,109.6,287.37s10.32,30,26.88,42.36c0,0-13.3-9.09-15.47-4.07s21.72,24.57,35,30.14c0,0-12.21-2.85-13,1.63s21.18,20.23,52.13,17.24l-3.53-10.59S175.58,363,157.66,346.43Z"/><path opacity="0.1"  d="M269.41,115.57c-1.27.07-2.55.12-3.83.12-2.66,0-5,.86-7.65.54-9.24-1.1-16.66,1.48-24.94,5.14-11,6.82-21.48,17.09-21.32,24.41.24,11.34,30.52-2.64,41.47-8.07-6.95,10.46-22.72,36-34.48,62.1-1.18.41-12.91,34.19-12.91,34.19s-7.29,26.2-7.43,26.8c-14.66,64.62-10,89.33-4.07,110.78s32.52,32.47,32.52,32.47S213,407.69,212,411.42c-2.78,10.8,38.14,7.65,38.14,7.65l-.26-18.71s-34.21,7.88-47.51-47.79S223,236.63,246.93,175.27A191.39,191.39,0,0,1,267,136.87q3.63-5.34,7.64-10.4a71,71,0,0,0,5.07-6.77c.35-.56,3.44-6.21,1.69-5.85a86.51,86.51,0,0,1-9.24,1.4Z"/><path fill="#ffc80b"  d="M403,70.73a4.09,4.09,0,0,0-1-.29c-.31,0-.62-.07-.93-.09a7.74,7.74,0,0,0-1.86.14,8.83,8.83,0,0,0-2.52.91c.06-.19.13-.39.18-.59a17.65,17.65,0,0,0,.56-5.12,21.08,21.08,0,0,0-.84-5,20.21,20.21,0,0,0-2.07-4.75,1.2,1.2,0,0,0-1-.59,1.22,1.22,0,0,0-1.24,1.21v.06a7.26,7.26,0,0,1-1.51,3.83c-.13.2-.29.39-.44.59a25.29,25.29,0,0,0-.09-4.6,16.11,16.11,0,0,0-3.24-8.33,10.53,10.53,0,0,0-3.72-3,8.27,8.27,0,0,0-2.4-.73,6.51,6.51,0,0,0-1.33,0,4.84,4.84,0,0,0-1.45.29,3.43,3.43,0,0,0-1.5,1.1,3.53,3.53,0,0,0-.65,1.69,5.52,5.52,0,0,0,0,.57q-2.28-1.8-4.71-3.37a75.52,75.52,0,0,0-10.64-5.7,77.46,77.46,0,0,0-23.25-6l-1.48-.11s0-.08,0-.12a89.59,89.59,0,0,0-22.43,1.07,83.88,83.88,0,0,0-22.81,7.22,91.07,91.07,0,0,0-10.41,5.9A102.84,102.84,0,0,0,270.58,54l-1,.85c-3.25,1.9-6.42,3.95-9.55,6-4.67,3.16-9.26,6.44-13.89,9.6-2.32,1.56-4.64,3.17-7,4.47a16.14,16.14,0,0,1-1.75.83,12.94,12.94,0,0,1-1.84.47,24.13,24.13,0,0,1-4,.45,28.58,28.58,0,0,1-8-.92,32.11,32.11,0,0,1-3.83-1.21,28.16,28.16,0,0,1-3.58-1.67,1.45,1.45,0,0,0-.9-.21,1.57,1.57,0,0,0-1.32.89,1.54,1.54,0,0,0-.23.92v0a9.63,9.63,0,0,0,.79,3.11,1.5,1.5,0,0,0-.57.65,1.55,1.55,0,0,0-.22.93,14.45,14.45,0,0,0,.78,3.7c.11.31.24.62.38.92a.42.42,0,0,0-.06.25,17.65,17.65,0,0,0,.74,4,1.11,1.11,0,0,0-.31.46,1.12,1.12,0,0,0-.06.77,6.19,6.19,0,0,0,1.14,2.15,15.23,15.23,0,0,0,1.49,1.6A21.66,21.66,0,0,0,220,94.75c.35.31.71.61,1.08.89a32.66,32.66,0,0,1-4.54,0h-.1a1.1,1.1,0,0,0-.36,0,1.08,1.08,0,0,0-.71.59,1.06,1.06,0,0,0-.15.87,10.25,10.25,0,0,0,2.32,4.11,22.76,22.76,0,0,0,2.36,2.35,25.76,25.76,0,0,1-3.34-.23h0a1.38,1.38,0,0,0-.35,0,1.14,1.14,0,0,0-.76.57,1.11,1.11,0,0,0-.19.84,12.42,12.42,0,0,0,1.62,4c.71,1.21,3.18,2.73,4.08,3.76,1.83,2,5.44-6.27,7.68-4.76s11,5,13.64,6.15c2.34,1,5.19,1.2,7.64,1.85s1-.27,3.66,0a62.67,62.67,0,0,0,8,.43c1.28,0,2.56,0,3.83-.13l5.38-.33s-4.91.24-4.88.2c.77,0,1.53-.12,2.29-.19a82.06,82.06,0,0,0,9.24-1.4c2.05-.42,4.08-.92,6.1-1.45,8.19-2.17,11.44-2.12,18.76-6.43,2.26-1.36,5.31-3,7.41-4.63s3.95-1.8,5.79-3.69a45.85,45.85,0,0,0,5-6.14A27.62,27.62,0,0,0,324,85l-1.5,5,.17,0a5.62,5.62,0,0,1,.09-.57,19.59,19.59,0,0,1,.78-2.73c18.34-2.05,36.73,2.74,52.8,11.57a119.06,119.06,0,0,1,11.88,7.48,47.14,47.14,0,0,0,10.46-7.59,29.69,29.69,0,0,0,7.4-11.21,20.53,20.53,0,0,0,1.2-6.74,13.82,13.82,0,0,0-1.6-6.81A6.15,6.15,0,0,0,403,70.73Z"/>        <path fill="#fff" opacity="0.1"  d="M478.13,335.73c2.67-5.45,5.06-11,7.22-16.66-.16-4-.48-8.12-1-12.42C482,286.63,467.49,243,467.49,243l-6.67-17.49-15.54-36S439.78,175,436.55,168c-16.29-35-34.27-48.68-34.27-48.68l-17.15-12.24c6,6.78,32.31,49.68,42.63,70s42.63,96.66,49.69,140.92A75,75,0,0,1,478.13,335.73Z"/>    </g>    <g id="outline">        <path fill="none"  d="M216.12,85.89a15.26,15.26,0,0,0,.54,2l1.19,0a15.65,15.65,0,0,1-1.48-1.66C216.28,86.14,216.21,86,216.12,85.89Z"/><path fill="none"  d="M222.89,87.76c1.06-.09,2.13-.21,3.18-.38a32.33,32.33,0,0,0,3.67-.78l-.61-.1a33.77,33.77,0,0,1-6.35-1.78,21.59,21.59,0,0,1-3.47-1.8l-.7-.28-.83-.39a10.69,10.69,0,0,0,1.16,2.09A13.64,13.64,0,0,0,222.89,87.76Z"/><path fill="none"  d="M222.56,111.78c.7-1,1.41-1.89,2.15-2.8.34-.42.68-.82,1-1.23-1.09-.65-2.16-1.34-3.2-2.09l-1,.08a35.21,35.21,0,0,1-3.56,0,16.59,16.59,0,0,0,3.23,4.64C221.61,110.88,222.08,111.34,222.56,111.78Z"/><path fill="none"  d="M222,102.85a40.17,40.17,0,0,0,6.69,4.89,55.47,55.47,0,0,0,15.52,6.2,65.1,65.1,0,0,0,16.69,1.74,84.46,84.46,0,0,0,16.61-2.17,120.31,120.31,0,0,0,16-4.72,68.22,68.22,0,0,0,14.75-7.55A47.28,47.28,0,0,0,320.1,89.8a35.3,35.3,0,0,0,6.44-15.23h0a.15.15,0,0,1,.17-.13.16.16,0,0,1,.13.15,27.44,27.44,0,0,1-1.62,8.4,33.33,33.33,0,0,1-1.49,3.68c18.28-2,36.6,2.8,52.61,11.59a119.83,119.83,0,0,1,11.59,7.28,48.86,48.86,0,0,0,10.15-8,28.51,28.51,0,0,0,6.76-11,19.73,19.73,0,0,0,.94-6.32,12.18,12.18,0,0,0-1.54-6,4.51,4.51,0,0,0-2-1.89,2.32,2.32,0,0,0-.59-.15c-.24,0-.48,0-.73,0a7,7,0,0,0-1.44.15,8.58,8.58,0,0,0-4.75,3.3A1,1,0,0,1,393,74.5a16.28,16.28,0,0,0,1.64-4.21,16.51,16.51,0,0,0,.39-4.49,18.38,18.38,0,0,0-.83-4.46c-.13-.41-.28-.82-.44-1.23a13.32,13.32,0,0,1-1,1.74,18.37,18.37,0,0,1-1.62,2.08,22.29,22.29,0,0,1-1.89,1.87,1.32,1.32,0,0,1-2.17-1.19v-.06a27.73,27.73,0,0,0,.22-7.81,13.29,13.29,0,0,0-2.74-6.8,8.1,8.1,0,0,0-2.69-2.11,5.65,5.65,0,0,0-1.53-.45,3,3,0,0,0-1.29.09c-.13.05-.14.08-.15.09a.51.51,0,0,0-.06.22,3.79,3.79,0,0,0,.23,1.37,14.53,14.53,0,0,0,1.66,3.26,1.56,1.56,0,0,1-2.42,2h0a44.41,44.41,0,0,0-4.26-3.73c-1.52-1.18-3.1-2.27-4.72-3.32a71.47,71.47,0,0,0-10.17-5.46,77.49,77.49,0,0,0-22.29-6,86.93,86.93,0,0,0-23.17.69,84.79,84.79,0,0,0-22.22,6.68,93.82,93.82,0,0,0-16,9.45l-.86-.3a.15.15,0,0,1-.06.09c-4.79,3-9.34,6.23-13.83,9.62S251.88,69,247.37,72.36a85.31,85.31,0,0,1-7.06,4.85,16.76,16.76,0,0,1-2,1,15.13,15.13,0,0,1-2.21.67,26.26,26.26,0,0,1-4.4.66,30.51,30.51,0,0,1-8.79-.74,36.52,36.52,0,0,1-4.22-1.26l-.6-.23a8,8,0,0,0,1.13,1.43,15,15,0,0,0,4.79,3,31.28,31.28,0,0,0,5.74,1.74,41.34,41.34,0,0,0,6,.81h.07a1.44,1.44,0,0,1,.59,2.71,28.58,28.58,0,0,1-9.94,3,45.63,45.63,0,0,1-5.09.34c-1,0-2,0-3-.08a11.19,11.19,0,0,0,1,1.24,23.81,23.81,0,0,0,2.93,2.52,42.28,42.28,0,0,0,6.8,4,62.56,62.56,0,0,0,15.15,5,76,76,0,0,0,15.93,1.42,101.89,101.89,0,0,0,15.89-1.62c5.25-1,10.44-2.16,15.53-3.61,1.28-.37,2.52-.8,3.79-1.17s2.5-.87,3.74-1.33,2.47-1,3.65-1.52l1.81-.81,1.77-.88a47.88,47.88,0,0,0,12.71-9.17,32.65,32.65,0,0,0,4.75-6.27,22.21,22.21,0,0,0,2.74-7.39v0a.14.14,0,0,1,.17-.12.15.15,0,0,1,.13.15,20.66,20.66,0,0,1-2.07,7.88,30.17,30.17,0,0,1-2,3.61,36.19,36.19,0,0,1-2.47,3.29,45.11,45.11,0,0,1-12.84,10.19c-9.64,5.27-20.39,8-31.11,9.28a101.19,101.19,0,0,1-16.22.7,104.79,104.79,0,0,1-16.1-1.69,78.83,78.83,0,0,1-15.57-4.54c-1.06-.45-2.11-.94-3.14-1.46-1.31.16-2.61.27-3.92.3-1.12,0-2.23,0-3.34-.08a11.42,11.42,0,0,0,1.11,1.72A22.73,22.73,0,0,0,222,102.85ZM372.42,63a15.64,15.64,0,0,1,1.7,7.26,17,17,0,0,1-.14,1.88c0,.31-.06.62-.11.93l-.23.91a18.29,18.29,0,0,1-.51,1.79c-.24.57-.48,1.14-.74,1.7a8.94,8.94,0,0,1-.89,1.6l-1,1.51A25.66,25.66,0,0,1,368,83.23c.33-1.18.8-2.24,1.18-3.32l.52-1.63c.08-.27.17-.53.27-.8s.12-.54.19-.81c.13-.54.26-1.07.41-1.6s.17-1.08.26-1.61l.14-.79c0-.27,0-.54.05-.81,0-.53.11-1.06.08-1.6a21.7,21.7,0,0,0-.88-6.36,29.85,29.85,0,0,0-2.63-6.29A13.44,13.44,0,0,1,372.42,63Zm-9.88,1.13a13.22,13.22,0,0,1,.79,2.55,15.84,15.84,0,0,1,.23,2.66,14.72,14.72,0,0,1-.94,5.19,11.39,11.39,0,0,1-2.82,4.38c.19-1.75.39-3.35.53-4.93s.23-3.12.23-4.64c0-.77,0-1.52-.06-2.29s-.09-1.53-.23-2.3c-.14-1.57-.55-3.09-.82-4.85A10.45,10.45,0,0,1,362.54,64.16Zm-42.89-14.6A25.35,25.35,0,0,0,312.1,52a20.31,20.31,0,0,1,7.18-3.86,30.33,30.33,0,0,1,8.16-1.45,25.33,25.33,0,0,1,16,4.75,23.27,23.27,0,0,1,8.93,14.07,31.36,31.36,0,0,1-.9,16.25,42,42,0,0,0-1.36-15.66c-.21-.61-.37-1.23-.62-1.82l-.73-1.77c-.26-.58-.6-1.11-.89-1.68-.15-.27-.29-.56-.46-.82l-.55-.77a18.47,18.47,0,0,0-1.11-1.52l-1.24-1.41A13.85,13.85,0,0,0,343.09,55a13.7,13.7,0,0,0-1.46-1.18,22.47,22.47,0,0,0-6.69-3.44A26.74,26.74,0,0,0,327.42,49,35.1,35.1,0,0,0,319.65,49.56Z"/><path fill="none"  d="M467.1,243.37c-8.65-24.15-19.37-47.49-30.8-70.44-2.92-5.86-5.91-11.69-9.11-17.41-.54-1-1.09-1.91-1.64-2.87-1.58-2.73-3.21-5.42-4.94-8.06-1.85-2.8-3.31-5.82-5.1-8.65-.08-.12-.22-.46-.35-.53,11.34,6.05,32.06,15.69,38.9,12.53a3.13,3.13,0,0,0,1.89-2.45c1.5-7.78-4.74-23.31-13.9-34.62-7.45-9.21-15.6-14.36-22.94-14.5h-.21c-11.52,0-24.29,17.74-24.43,17.93l-2.52-2c-11.76-9.45-25.23-16.87-39.87-20.61A78.28,78.28,0,0,0,321.93,90c-.15.25-.28.5-.44.74a45.39,45.39,0,0,1-11.86,12.46,64.14,64.14,0,0,1-15.19,8.1A88.77,88.77,0,0,1,244,114.84a67.87,67.87,0,0,1-15.55-5.6c-.45.53-.91,1.07-1.36,1.63-9.16,11.31-15.39,26.84-13.9,34.62a3.13,3.13,0,0,0,1.89,2.45c7.83,3.6,32.16-8.7,41.5-14.05a69.57,69.57,0,0,1-4.85,9c-1.68,2.41-3.53,4.74-5.11,7.23a377.39,377.39,0,0,0-52.43,133.52c-1.64,9-3,18.11-3.91,27.25-2.95,30.42-1.69,70.59,28.43,87.67,2.13,1.21,13,3.79,8.38,7.39-2.4,1.85-14.48,3-13.86,6.68.7,4.07,12.39,4.42,15.15,4.64a154.22,154.22,0,0,0,17.6.24c.5,0,1.38,0,2.32,0,0-.78,0-1.58,0-2.37,0-1.15-.07-2.29,0-3.44s.23-2.33.3-3.51.1-2.56.13-3.84c.06-2.74.12-5.48.14-8.23a158.51,158.51,0,0,0-1.23-23.57,56.88,56.88,0,0,0-2.72-11.44,23.74,23.74,0,0,0-6.26-9.85,23,23,0,0,1,6.91,9.6,57.37,57.37,0,0,1,3.33,11.48,105.25,105.25,0,0,1,1.55,11.85q.47,6,.56,11.92c0,1.25,0,2.49.05,3.73s0,2.76,0,4.14,0,1.6,0,3c0-.25,0,.57,0,.32,0,1.62-.21,3.24-.16,4.86l.1,3a19.5,19.5,0,0,1-.56,6.37,5.83,5.83,0,0,1-1,1.73,7.9,7.9,0,0,1-1.34,1.26,14.62,14.62,0,0,1-2.86,1.59,24.75,24.75,0,0,0-5,2.44,2.23,2.23,0,0,0-.94,1.53,3.1,3.1,0,0,0,.06,1,3.21,3.21,0,0,0,.38,1,5.71,5.71,0,0,0,1.44,1.61,5.41,5.41,0,0,1,.22-3.15,6.52,6.52,0,0,1,2.78-3.36,8.58,8.58,0,0,1,2-.78,12.49,12.49,0,0,1,1.87-.39,13.3,13.3,0,0,1,3.89,0,13.63,13.63,0,0,1-3.14,2.28c-1.12.61-2.21,1.06-3.05,1.5a9.22,9.22,0,0,0-2.26,1.93,12.58,12.58,0,0,0-1.91,3l.44-.37a13.16,13.16,0,0,0,1.61.88A20.5,20.5,0,0,0,249,436.6c1,.14,2,.24,3,.31a2.91,2.91,0,0,1-.42-.89,3.55,3.55,0,0,1,.16-2.18,7,7,0,0,1,2.47-3,10.09,10.09,0,0,1,3.23-1.61,7.41,7.41,0,0,1,3.66-.16,28.12,28.12,0,0,1-2.61,2.27c-.84.66-1.66,1.29-2.49,1.9a23.29,23.29,0,0,0-2.22,1.76,3.1,3.1,0,0,0-.73,1,2.51,2.51,0,0,0-.21,1.56l.59-.61a48.51,48.51,0,0,0,7-.25,43.15,43.15,0,0,0,5.65-1,14.5,14.5,0,0,0,4.9-2.22A22.32,22.32,0,0,0,278,425a24.89,24.89,0,0,0,1.19-2.5,18.81,18.81,0,0,0,.69-5.18c.11-1.75.2-3.52.4-5.25a76.92,76.92,0,0,1,1.76-9.77A50.17,50.17,0,0,1,286.3,391a84.17,84.17,0,0,1,6.22-10.16,115,115,0,0,0-5.31,10.59,57.66,57.66,0,0,0-3.42,11.2c-.47,2.52-.8,5.06-1,7.62-.1,1.12-.18,2.25-.25,3.38a312.8,312.8,0,0,0,33.86,5.59c21.48,2.29,43.63,2.35,64.74-2.68a86.22,86.22,0,0,0,8.66-2.58c0-.15-.06-.3-.08-.45-.62-3.71-.81-7.39-1.24-11-.2-1.8-.51-3.61-.79-5.43s-.56-3.63-.93-5.4a30.84,30.84,0,0,0-1.72-5.18q-1-2.59-1.83-5.21,1.08,2.54,2.25,5a31.76,31.76,0,0,1,2.07,5.16c.5,1.8.88,3.6,1.28,5.39s.8,3.59,1.12,5.43c.62,3.66,1,7.33,1.72,10.85a31,31,0,0,0,1.51,5.11,26.64,26.64,0,0,0,2.43,4.68,20.21,20.21,0,0,0,7.48,7,13.33,13.33,0,0,0,2.34.91c.8.25,1.71.44,2.57.62a44.53,44.53,0,0,0,5.29.71,51.54,51.54,0,0,0,5.7.11l.55.57a2.57,2.57,0,0,0-.21-1.56,3.42,3.42,0,0,0-.73-1,23.91,23.91,0,0,0-2.23-1.75c-.82-.61-1.64-1.24-2.48-1.9a27.06,27.06,0,0,1-2.61-2.28,7.49,7.49,0,0,1,3.65.16,10.06,10.06,0,0,1,3.24,1.62,7.05,7.05,0,0,1,2.47,3,3.59,3.59,0,0,1,.16,2.17,2.79,2.79,0,0,1-.44.92c1.2-.08,2.38-.2,3.53-.39a20.41,20.41,0,0,0,4.87-1.58,15.2,15.2,0,0,0,1.48-.83l.45.38a12.87,12.87,0,0,0-1.91-3,9.24,9.24,0,0,0-2.27-1.92c-.84-.44-1.92-.89-3-1.5a13.19,13.19,0,0,1-3.14-2.29,13.57,13.57,0,0,1,3.88.05,12.35,12.35,0,0,1,1.88.39,8.08,8.08,0,0,1,2,.78,6.54,6.54,0,0,1,2.79,3.36,5.56,5.56,0,0,1,.23,3.12,5.88,5.88,0,0,0,1.29-1.42,3.83,3.83,0,0,0,.58-1.85,2.25,2.25,0,0,0-.12-.84,1.91,1.91,0,0,0-.4-.72c-.79-.94-2.47-1.64-4.13-2.28a21.12,21.12,0,0,1-5.32-2.59,7.85,7.85,0,0,1-1.24-1.21,4.82,4.82,0,0,1-.87-1.72,9.16,9.16,0,0,1-.28-1.57c-.06-.51-.08-1-.1-1.48a111.51,111.51,0,0,1,.44-11.18c.29-3.68.68-7.35,1.13-11,.89-7.32,2-14.61,3.49-21.84.76-3.61,1.59-7.21,2.61-10.76a54.87,54.87,0,0,1,1.74-5.26,23,23,0,0,1,1.16-2.52,7.34,7.34,0,0,1,1.66-2.2,7.31,7.31,0,0,0-1.46,2.3,23.21,23.21,0,0,0-.94,2.57c-.55,1.74-1,3.52-1.4,5.31-.79,3.57-1.4,7.19-1.93,10.81-1.1,7.25-1.92,14.54-2.61,21.84q-.48,5.48-.83,10.95c-.19,3.41-.36,6.86-.24,10.19,5.42.86,11.33.44,16.68.28a155.32,155.32,0,0,0,19.15-1.45c2.36-.37,3.95,0,2.58-2.3-1.61-2.7-4-4-6.92-5-2.42-.82-9.31-1-10.72-3.45-.77-1.34.08-2,1-2.94,1.35-1.35,4-2.2,5.6-3.24q3-1.89,5.8-4.05A69.64,69.64,0,0,0,475.19,368c8.95-16.71,10.93-36.3,9.16-54.94C482.11,289.32,475.1,265.72,467.1,243.37Z"/><path fill="none"  d="M145.9,307.05c-14.61-18.27-22.84-35.2-28.29-46.41-2.72-5.61-6.1-12.56-7.49-12.56h0c-.73,1-.76,6.95,4.23,23,3.6,11.62,8.57,24.37,12.09,31a1.5,1.5,0,0,1-2.55,1.58c-3.88-5.38-10.33-13-13.66-14.58.77,5.54,13.45,29.08,27.18,39.38a1.5,1.5,0,0,1-1.77,2.42c-3.38-2.41-11.15-6.62-13.54-4.23-.31.86,2.08,5.18,11.54,12.95,7.82,6.42,16.84,12.21,23,14.74a1.5,1.5,0,0,1-.87,2.86c-5.44-1.08-10.83-.89-11.25.39.12.59,1.47,2.51,5.06,5.11,3.28,2.38,19.48,13,43.76,10.8-4.67-10.69-6.81-22.41-7.38-34.42C175.17,333,157.54,321.6,145.9,307.05Z"/><path d="M334.94,50.41a22.47,22.47,0,0,1,6.69,3.44A13.7,13.7,0,0,1,343.09,55a13.85,13.85,0,0,1,1.38,1.27l1.24,1.41a18.47,18.47,0,0,1,1.11,1.52l.55.77c.17.26.31.55.46.82.29.57.63,1.1.89,1.68l.73,1.77c.25.59.41,1.21.62,1.82a42,42,0,0,1,1.36,15.66,31.36,31.36,0,0,0,.9-16.25,23.27,23.27,0,0,0-8.93-14.07,25.33,25.33,0,0,0-16-4.75,30.33,30.33,0,0,0-8.16,1.45A20.31,20.31,0,0,0,312.1,52a25.35,25.35,0,0,1,7.55-2.43,35.1,35.1,0,0,1,7.77-.54A26.74,26.74,0,0,1,334.94,50.41Z"/><path d="M360.5,67.08c0,.77.09,1.52.06,2.29,0,1.52-.08,3.06-.23,4.64s-.34,3.18-.53,4.93a11.39,11.39,0,0,0,2.82-4.38,14.72,14.72,0,0,0,.94-5.19,15.84,15.84,0,0,0-.23-2.66,13.22,13.22,0,0,0-.79-2.55,10.45,10.45,0,0,0-3.09-4.23c.27,1.76.68,3.28.82,4.85C360.41,65.55,360.41,66.33,360.5,67.08Z"/><path d="M371.12,70.26c0,.54-.06,1.07-.08,1.6,0,.27,0,.54-.05.81l-.14.79c-.09.53-.15,1.08-.26,1.61s-.28,1.06-.41,1.6c-.07.27-.1.55-.19.81s-.19.53-.27.8l-.52,1.63c-.38,1.08-.85,2.14-1.18,3.32a25.66,25.66,0,0,0,2.48-2.62l1-1.51a8.94,8.94,0,0,0,.89-1.6c.26-.56.5-1.13.74-1.7a18.29,18.29,0,0,0,.51-1.79l.23-.91c.05-.31.07-.62.11-.93a17,17,0,0,0,.14-1.88,15.64,15.64,0,0,0-1.7-7.26,13.44,13.44,0,0,0-4.81-5.42,29.85,29.85,0,0,1,2.63,6.29A21.7,21.7,0,0,1,371.12,70.26Z"/><path d="M480.31,275.87c-6.48-25.07-15.82-49.32-26.42-72.92-5.39-12-11.13-23.86-17-35.62a264.23,264.23,0,0,0-13.36-24.4c1.45.68,3,1.37,4.5,2,9.91,4.35,17.51,6.54,22.69,6.54a11.17,11.17,0,0,0,4.63-.85,6.15,6.15,0,0,0,3.59-4.61c1.67-8.68-4.71-25-14.52-37.08-8-9.91-17-15.45-25.21-15.61h-.26c-9.77,0-20.19,10.83-25.06,16.63-1.84-1.47-3.72-2.9-5.63-4.26a47.5,47.5,0,0,0,10.46-7.6,29.61,29.61,0,0,0,7.4-11.21,20.53,20.53,0,0,0,1.2-6.74,13.82,13.82,0,0,0-1.6-6.81A6.15,6.15,0,0,0,403,70.73a4.09,4.09,0,0,0-1-.29c-.31,0-.61-.07-.93-.09a8.29,8.29,0,0,0-1.86.14,8.83,8.83,0,0,0-2.52.91c.06-.19.13-.39.18-.59a17.62,17.62,0,0,0,.56-5.11,21.08,21.08,0,0,0-.84-5.06,20.21,20.21,0,0,0-2.07-4.75,1.2,1.2,0,0,0-1-.59,1.22,1.22,0,0,0-1.24,1.21v.06a7.26,7.26,0,0,1-1.51,3.83c-.13.2-.29.4-.44.59a25.29,25.29,0,0,0-.09-4.6,16.17,16.17,0,0,0-3.24-8.33,10.53,10.53,0,0,0-3.72-3,8.27,8.27,0,0,0-2.4-.73,6.51,6.51,0,0,0-1.33,0,4.58,4.58,0,0,0-1.45.3,3.33,3.33,0,0,0-1.5,1.09,3.53,3.53,0,0,0-.65,1.69,5.52,5.52,0,0,0,0,.57c-1.52-1.19-3.09-2.32-4.71-3.36a74,74,0,0,0-10.64-5.71,77.45,77.45,0,0,0-23.25-6,88.86,88.86,0,0,0-23.94.95A83.29,83.29,0,0,0,290.48,41a91.2,91.2,0,0,0-10.42,5.9c-3.31,2.17-6.46,4.78-9.7,7.13S263.45,58.7,260,61c-4.67,3.15-9.26,6.44-13.89,9.6-2.32,1.56-4.63,3.16-7,4.47a14.54,14.54,0,0,1-1.75.83,12.66,12.66,0,0,1-1.84.46,25.16,25.16,0,0,1-4,.46,29.26,29.26,0,0,1-7.95-.92,34.26,34.26,0,0,1-3.84-1.22A27.31,27.31,0,0,1,216.18,73a1.66,1.66,0,0,0-.91-.21,1.61,1.61,0,0,0-1.49,1.73,9.76,9.76,0,0,0,.81,3.16,1.56,1.56,0,0,0-.8,1.52,14,14,0,0,0,.77,3.7c.11.31.24.62.38.92a.42.42,0,0,0-.06.25,17.9,17.9,0,0,0,.75,4,1.11,1.11,0,0,0-.38,1.19,6.19,6.19,0,0,0,1.14,2.15,15.23,15.23,0,0,0,1.49,1.6A21.66,21.66,0,0,0,220,94.75c.39.35.8.69,1.21,1a33.88,33.88,0,0,1-4.73,0h-.09a1.11,1.11,0,0,0-1.17,1.38,10.18,10.18,0,0,0,2.32,4.11,22.32,22.32,0,0,0,2.49,2.47,29.54,29.54,0,0,1-3.55-.23,1,1,0,0,0-.35,0,1.13,1.13,0,0,0-.89,1.3,12.42,12.42,0,0,0,1.62,4,21.41,21.41,0,0,0,2.48,3.32c.56.62,1.15,1.2,1.75,1.77-7.71,11.32-12.37,24.67-10.91,32.23a6.16,6.16,0,0,0,3.58,4.61,11,11,0,0,0,4.63.85c5.18,0,12.78-2.19,22.7-6.54,2.51-1.1,4.94-2.25,7.17-3.34a351.63,351.63,0,0,0-21,36,379.37,379.37,0,0,0-27.51,69.12q-5.15,17.82-8.5,36.07c-3,16.36-5.85,34.82-5.45,52.82-10.61-6.19-26.76-16.95-37.55-30.45-14.41-18-22.55-34.76-27.94-45.84-4.91-10.12-7.37-15.19-11.12-14.13a3,3,0,0,0-1.91,1.82c-2.47,5.79,5.19,29.93,11.64,45.82-3.12-3.41-6.57-6.53-9.07-6.94a2.11,2.11,0,0,0-2.42,1.29c-1.79,4.17,8.51,23.55,20.26,36.41-2.91-.84-5.83-.91-7.74,1a3.18,3.18,0,0,0-.79,3c1.16,5.82,16.67,18.71,29.11,25.91-3.23.12-6.22,1-6.74,3.58-.27,1.37.6,3,2.66,5.07,4.77,4.73,20.25,14.68,42.52,14.68a75.13,75.13,0,0,0,7.94-.42,72.87,72.87,0,0,0,3.55,6.41,53,53,0,0,0,21.65,19.67c.46.23,2,1.13,3.25,1.71-.13.05-.23.1-.31.12-1.79.63-3.6,1.17-5.38,1.82-3.43,1.25-9.09,3.22-6.81,8,1.87,3.92,8,4.81,11.7,5.39a118.06,118.06,0,0,0,20,1c1.45,0,3.45.1,5.46.05-.43,1.17-1.94,2-3.62,2.77a25.27,25.27,0,0,0-5.64,2.81,6,6,0,0,0-1.32,1.45,5.1,5.1,0,0,0-.7,2,6.35,6.35,0,0,0,.1,2,6.56,6.56,0,0,0,.68,1.79,11.21,11.21,0,0,0,5.18,4.33,22.83,22.83,0,0,0,6.06,1.85,48.77,48.77,0,0,0,12.25.07,44.71,44.71,0,0,0,6-1.12,17.23,17.23,0,0,0,5.82-2.68,24.88,24.88,0,0,0,7.82-9.69A20.45,20.45,0,0,0,282,422a25.34,25.34,0,0,0,.32-4.77l0-.51c22.41,4.87,45.49,7.76,68.45,6.85a160.1,160.1,0,0,0,32.55-4.43c2.4-.6,4.77-1.26,7.12-2a28.84,28.84,0,0,0,3.1,7.11,21.91,21.91,0,0,0,8.26,8.09,15.66,15.66,0,0,0,2.77,1.14c.95.31,1.84.51,2.78.72A48.1,48.1,0,0,0,413,435a45.77,45.77,0,0,0,11.38-.31,23.06,23.06,0,0,0,5.61-1.79,13.82,13.82,0,0,0,2.62-1.56,8.9,8.9,0,0,0,2.25-2.39,6.87,6.87,0,0,0,1-3.36,5.19,5.19,0,0,0-1.23-3.53,8.33,8.33,0,0,0-2.68-2,24.86,24.86,0,0,0-2.68-1.13,19.6,19.6,0,0,1-4.59-2.15,4.54,4.54,0,0,1-.74-.7,1.83,1.83,0,0,1-.37-.72l0-.12.83.08a142.39,142.39,0,0,0,20.86,0c5.57-.29,11.91-.22,17.3-1.84,3.77-1.13,2.9-4.86.85-7.65-3.27-4.43-9.45-5.46-14.45-6.64l-.43-.13c.93-.57,1.95-1.32,2.33-1.55a77.06,77.06,0,0,0,11.86-8.78c14-12.68,21.83-30.36,24.29-48.89C489.83,318.38,485.69,296.69,480.31,275.87Zm-263.65-188a15.26,15.26,0,0,1-.54-2c.09.12.16.25.25.36a15.65,15.65,0,0,0,1.48,1.66Zm1.12-5.62.83.39.7.28a21.59,21.59,0,0,0,3.47,1.8,33.77,33.77,0,0,0,6.35,1.78l.61.1a32.33,32.33,0,0,1-3.67.78c-1,.17-2.12.29-3.18.38a13.64,13.64,0,0,1-3.95-3.42A10.69,10.69,0,0,1,217.78,82.25Zm1.41,17.62a11.42,11.42,0,0,1-1.11-1.72c1.11.08,2.22.1,3.34.08,1.31,0,2.61-.14,3.92-.3,1,.52,2.08,1,3.14,1.46a78.83,78.83,0,0,0,15.57,4.54,104.79,104.79,0,0,0,16.1,1.69,101.19,101.19,0,0,0,16.22-.7c10.72-1.28,21.47-4,31.11-9.28a45.11,45.11,0,0,0,12.84-10.19,36.19,36.19,0,0,0,2.47-3.29,30.17,30.17,0,0,0,2-3.61,20.66,20.66,0,0,0,2.07-7.88.15.15,0,0,0-.13-.15.14.14,0,0,0-.17.14,22.21,22.21,0,0,1-2.74,7.39,32.65,32.65,0,0,1-4.75,6.27,47.88,47.88,0,0,1-12.71,9.17l-1.77.88-1.81.81c-1.18.57-2.43,1-3.65,1.52s-2.48.9-3.74,1.33-2.51.8-3.79,1.17c-5.09,1.45-10.28,2.63-15.53,3.61a101.89,101.89,0,0,1-15.89,1.62A76,76,0,0,1,244.23,103a62.56,62.56,0,0,1-15.15-5,42.28,42.28,0,0,1-6.8-4,23.81,23.81,0,0,1-2.93-2.52,11.19,11.19,0,0,1-1-1.24c1,.06,2,.08,3,.08a45.63,45.63,0,0,0,5.09-.34,28.58,28.58,0,0,0,9.94-3,1.44,1.44,0,0,0-.59-2.71h-.07a41.34,41.34,0,0,1-6-.81A31.28,31.28,0,0,1,224,81.78a15,15,0,0,1-4.79-3,8,8,0,0,1-1.13-1.43l.6.23a36.52,36.52,0,0,0,4.22,1.26,30.51,30.51,0,0,0,8.79.74,26.26,26.26,0,0,0,4.4-.66,15.13,15.13,0,0,0,2.21-.67,16.76,16.76,0,0,0,2-1,85.31,85.31,0,0,0,7.06-4.85c4.2-3.16,8.35-6.38,12.55-9.54a148,148,0,0,1,12.77-8.41l2.67-1.62c1.68-1,3.23-2.22,4.88-3.29a88.47,88.47,0,0,1,11.28-6.23,84.79,84.79,0,0,1,22.22-6.68,86.93,86.93,0,0,1,23.17-.69,77.49,77.49,0,0,1,22.29,6,71.47,71.47,0,0,1,10.17,5.46c1.62,1,3.2,2.14,4.72,3.32a44.45,44.45,0,0,1,4.27,3.74,1.56,1.56,0,0,0,2.42-2,14.53,14.53,0,0,1-1.66-3.26,3.79,3.79,0,0,1-.23-1.37.51.51,0,0,1,.06-.22s0,0,.15-.09a3,3,0,0,1,1.29-.09,5.65,5.65,0,0,1,1.53.45,8.1,8.1,0,0,1,2.69,2.11,13.29,13.29,0,0,1,2.74,6.8,27.73,27.73,0,0,1-.22,7.81v.06a1.32,1.32,0,0,0,2.17,1.19,22.29,22.29,0,0,0,1.89-1.87,18.37,18.37,0,0,0,1.62-2.08,13.32,13.32,0,0,0,1-1.74c.16.41.31.82.44,1.23a18.38,18.38,0,0,1,.83,4.46,16.51,16.51,0,0,1-.39,4.49A16.28,16.28,0,0,1,393,74.5a1,1,0,0,0,1.73,1.1,8.58,8.58,0,0,1,4.75-3.3,7,7,0,0,1,1.44-.15c.25,0,.49,0,.73,0a2.32,2.32,0,0,1,.59.15,4.51,4.51,0,0,1,2,1.89,12.18,12.18,0,0,1,1.54,6,19.73,19.73,0,0,1-.94,6.32,28.51,28.51,0,0,1-6.76,11,48.86,48.86,0,0,1-10.15,8,119.83,119.83,0,0,0-11.59-7.28c-16-8.79-34.33-13.58-52.61-11.59A33.33,33.33,0,0,0,325.22,83a27.44,27.44,0,0,0,1.62-8.4.16.16,0,0,0-.13-.15.15.15,0,0,0-.17.14A35.3,35.3,0,0,1,320.1,89.8a47.28,47.28,0,0,1-11.87,11.44,68.22,68.22,0,0,1-14.75,7.55,120.31,120.31,0,0,1-16,4.72,84.46,84.46,0,0,1-16.61,2.17,65.1,65.1,0,0,1-16.69-1.74,55.47,55.47,0,0,1-15.52-6.2,40.17,40.17,0,0,1-6.69-4.89A22.73,22.73,0,0,1,219.19,99.87Zm-1.25,5.89a35.21,35.21,0,0,0,3.56,0l1-.08c1,.75,2.11,1.44,3.2,2.09-.35.41-.69.81-1,1.23-.74.91-1.45,1.85-2.15,2.8-.48-.44-.95-.9-1.39-1.38A16.59,16.59,0,0,1,217.94,105.76Zm-68.39,257c-3.59-2.6-4.94-4.52-5.06-5.11.42-1.28,5.81-1.47,11.25-.39a1.5,1.5,0,0,0,.87-2.86c-6.16-2.53-15.18-8.32-23-14.74-9.46-7.77-11.85-12.09-11.54-12.95,2.39-2.39,10.16,1.82,13.54,4.23a1.5,1.5,0,0,0,1.77-2.42c-13.73-10.3-26.41-33.84-27.18-39.38,3.33,1.63,9.78,9.2,13.66,14.58a1.5,1.5,0,0,0,2.55-1.58c-3.52-6.65-8.49-19.4-12.09-31-5-16.1-5-22.07-4.23-23h0c1.39,0,4.77,6.95,7.49,12.56,5.45,11.21,13.68,28.14,28.29,46.41,11.64,14.55,29.27,26,40,32.1.57,12,2.71,23.73,7.38,34.42C169,375.75,152.83,365.15,149.55,362.77ZM475.19,368a69.64,69.64,0,0,1-18.8,22.19q-2.81,2.16-5.8,4.05c-1.64,1-4.25,1.89-5.6,3.24-.89.89-1.74,1.6-1,2.94,1.41,2.49,8.3,2.63,10.72,3.45,2.94,1,5.31,2.32,6.92,5,1.37,2.3-.22,1.93-2.58,2.3a155.32,155.32,0,0,1-19.15,1.45c-5.35.16-11.26.58-16.68-.28-.12-3.33.05-6.78.24-10.19q.35-5.47.83-10.95c.69-7.3,1.51-14.59,2.61-21.84.53-3.62,1.14-7.24,1.93-10.81.39-1.79.85-3.57,1.4-5.31a23.21,23.21,0,0,1,.94-2.57,7.31,7.31,0,0,1,1.46-2.3,7.34,7.34,0,0,0-1.66,2.2,23,23,0,0,0-1.16,2.52,54.87,54.87,0,0,0-1.74,5.26c-1,3.55-1.85,7.15-2.61,10.76-1.46,7.23-2.6,14.52-3.49,21.84-.45,3.66-.84,7.33-1.13,11a111.51,111.51,0,0,0-.44,11.18c0,.48,0,1,.1,1.48a9.16,9.16,0,0,0,.28,1.57,4.82,4.82,0,0,0,.87,1.72,7.85,7.85,0,0,0,1.24,1.21,21.12,21.12,0,0,0,5.32,2.59c1.66.64,3.34,1.34,4.13,2.28a1.91,1.91,0,0,1,.4.72,2.25,2.25,0,0,1,.12.84,3.83,3.83,0,0,1-.58,1.85,5.88,5.88,0,0,1-1.29,1.42,5.56,5.56,0,0,0-.23-3.12,6.54,6.54,0,0,0-2.79-3.36,8.08,8.08,0,0,0-2-.78,12.35,12.35,0,0,0-1.88-.39,13.57,13.57,0,0,0-3.88-.05,13.19,13.19,0,0,0,3.14,2.29c1.12.61,2.2,1.06,3,1.5a9.24,9.24,0,0,1,2.27,1.92,12.87,12.87,0,0,1,1.91,3l-.45-.38a15.2,15.2,0,0,1-1.48.83,20.41,20.41,0,0,1-4.87,1.58c-1.15.19-2.33.31-3.53.39a2.79,2.79,0,0,0,.44-.92,3.59,3.59,0,0,0-.16-2.17,7.05,7.05,0,0,0-2.47-3,10.06,10.06,0,0,0-3.24-1.62,7.49,7.49,0,0,0-3.65-.16,27.06,27.06,0,0,0,2.61,2.28c.84.66,1.66,1.29,2.48,1.9a23.91,23.91,0,0,1,2.23,1.75,3.42,3.42,0,0,1,.73,1,2.57,2.57,0,0,1,.21,1.56l-.55-.57a51.54,51.54,0,0,1-5.7-.11,44.53,44.53,0,0,1-5.29-.71c-.86-.18-1.77-.37-2.57-.62A13.33,13.33,0,0,1,403,430a20.21,20.21,0,0,1-7.48-7,26.64,26.64,0,0,1-2.43-4.68,31,31,0,0,1-1.51-5.11c-.76-3.52-1.1-7.19-1.72-10.85-.32-1.84-.74-3.63-1.12-5.43s-.78-3.59-1.28-5.39a31.76,31.76,0,0,0-2.07-5.16q-1.17-2.49-2.25-5,.87,2.61,1.83,5.21a30.84,30.84,0,0,1,1.72,5.18c.37,1.77.65,3.59.93,5.4s.59,3.63.79,5.43c.43,3.62.62,7.3,1.24,11,0,.15.06.3.08.45a86.22,86.22,0,0,1-8.66,2.58c-21.11,5-43.26,5-64.74,2.68a312.8,312.8,0,0,1-33.86-5.59c.07-1.13.15-2.26.25-3.38.23-2.56.56-5.1,1-7.62a57.66,57.66,0,0,1,3.42-11.2,115,115,0,0,1,5.31-10.59A84.17,84.17,0,0,0,286.3,391,50.17,50.17,0,0,0,282,402.27a76.92,76.92,0,0,0-1.76,9.77c-.2,1.73-.29,3.5-.4,5.25a18.81,18.81,0,0,1-.69,5.18A24.89,24.89,0,0,1,278,425a22.32,22.32,0,0,1-7.06,8.51,14.5,14.5,0,0,1-4.9,2.22,43.15,43.15,0,0,1-5.65,1,48.51,48.51,0,0,1-7,.25l-.59.61A2.51,2.51,0,0,1,253,436a3.1,3.1,0,0,1,.73-1,23.29,23.29,0,0,1,2.22-1.76c.83-.61,1.65-1.24,2.49-1.9a28.12,28.12,0,0,0,2.61-2.27,7.41,7.41,0,0,0-3.66.16,10.09,10.09,0,0,0-3.23,1.61,7,7,0,0,0-2.47,3,3.55,3.55,0,0,0-.16,2.18,2.91,2.91,0,0,0,.42.89c-1-.07-2-.17-3-.31a20.5,20.5,0,0,1-5.28-1.58,13.16,13.16,0,0,1-1.61-.88l-.44.37a12.58,12.58,0,0,1,1.91-3,9.22,9.22,0,0,1,2.26-1.93c.84-.44,1.93-.89,3.05-1.5a13.63,13.63,0,0,0,3.14-2.28,13.3,13.3,0,0,0-3.89,0,12.49,12.49,0,0,0-1.87.39,8.58,8.58,0,0,0-2,.78,6.52,6.52,0,0,0-2.78,3.36,5.41,5.41,0,0,0-.22,3.15,5.71,5.71,0,0,1-1.44-1.61,3.21,3.21,0,0,1-.38-1,3.1,3.1,0,0,1-.06-1,2.23,2.23,0,0,1,.94-1.53,24.75,24.75,0,0,1,5-2.44,14.62,14.62,0,0,0,2.86-1.59,7.9,7.9,0,0,0,1.34-1.26,5.83,5.83,0,0,0,1-1.73,19.5,19.5,0,0,0,.56-6.37l-.1-3c0-1.62.16-3.24.16-4.86,0,.25,0-.57,0-.32,0-1.36,0-1.61,0-3s0-2.76,0-4.14,0-2.48-.05-3.73q-.09-6-.56-11.92a105.25,105.25,0,0,0-1.55-11.85,57.37,57.37,0,0,0-3.33-11.48,23,23,0,0,0-6.91-9.6,23.74,23.74,0,0,1,6.26,9.85,56.88,56.88,0,0,1,2.72,11.44,158.51,158.51,0,0,1,1.23,23.57c0,2.75-.08,5.49-.14,8.23,0,1.28-.05,2.56-.13,3.84s-.21,2.34-.3,3.51,0,2.29,0,3.44c0,.79,0,1.59,0,2.37-.94,0-1.82,0-2.32,0a154.22,154.22,0,0,1-17.6-.24c-2.76-.22-14.45-.57-15.15-4.64-.62-3.64,11.46-4.83,13.86-6.68,4.66-3.6-6.25-6.18-8.38-7.39-30.12-17.08-31.38-57.25-28.43-87.67.88-9.14,2.27-18.22,3.91-27.25a377.39,377.39,0,0,1,52.43-133.52c1.58-2.49,3.43-4.82,5.11-7.23a69.57,69.57,0,0,0,4.85-9c-9.34,5.35-33.67,17.65-41.5,14.05a3.13,3.13,0,0,1-1.89-2.45c-1.49-7.78,4.74-23.31,13.9-34.62.45-.56.91-1.1,1.36-1.63a67.87,67.87,0,0,0,15.55,5.6,84.28,84.28,0,0,0,16.9,2.09,92.43,92.43,0,0,0,33.59-5.63,64.14,64.14,0,0,0,15.19-8.1,45.39,45.39,0,0,0,11.86-12.46c.16-.24.29-.49.44-.74a78.28,78.28,0,0,1,30.15,1.73c14.64,3.74,28.11,11.16,39.87,20.61l2.52,2c.14-.19,12.91-17.93,24.43-17.93h.21c7.34.14,15.49,5.29,22.94,14.5,9.16,11.31,15.4,26.84,13.9,34.62a3.13,3.13,0,0,1-1.89,2.45c-6.84,3.16-27.56-6.48-38.9-12.53.13.07.27.41.35.53,1.79,2.83,3.25,5.85,5.1,8.65,1.73,2.64,3.36,5.33,4.94,8.06.55,1,1.1,1.91,1.64,2.87,3.2,5.72,6.19,11.55,9.11,17.41,11.43,22.95,22.15,46.29,30.8,70.44,8,22.35,15,45.95,17.25,69.67C486.12,331.68,484.14,351.27,475.19,368Z"/>    </g>    <g id="eye">        <g id="eye-color1">            <path d="M72,439c.15,0,.14-1,0-1s-.14,1,0,1Z"/><g opacity="0" ><path fill="#49ADB7"  d="M279.55,159.29c-.14.47-.21,1-.36,1.41a15.63,15.63,0,0,1-1.35,2.87c-.52.93-1,1.89-1.54,2.82-.24.42-.5.81-.77,1.2l-.43.62c-.09.11-.45.46-.45.6l-.6.74c-5.88,7-13.9,9.8-22.69,6.53-8.54-3.17-14.21-10.41-14.65-19.54a1.27,1.27,0,0,1,0-.28.9.9,0,0,1,0-.29,23.29,23.29,0,0,1,19-21.82,19,19,0,0,1,11.42,1.35c-15.29-7.7-34.35-2.93-39.29,15.33a20.58,20.58,0,0,0-.66,6.54A29.34,29.34,0,0,0,237.7,177.6c8.59,7.08,21.5,6.67,31,1.77,7.19-3.69,10-12.6,10.92-20.46C279.63,159,279.59,159.17,279.55,159.29Z"/></g><g opacity="0" ><path fill="#49ADB7"  d="M403.3,153.23c-.24.62-.44,1.25-.69,1.86a25.92,25.92,0,0,1-2,3.67,31,31,0,0,1-2.54,3.43c-5.88,7-13.9,9.8-22.69,6.53-8.53-3.17-14.2-10.41-14.65-19.54a2.46,2.46,0,0,1,0-.28,2.64,2.64,0,0,1,0-.29,23.3,23.3,0,0,1,19.05-21.82,19,19,0,0,1,11.42,1.35c-15.3-7.7-34.36-2.93-39.3,15.34a20.77,20.77,0,0,0-.66,6.53,29.38,29.38,0,0,0,10.48,20.23c8.59,7.09,21.5,6.67,31,1.77,6.91-3.55,9.73-12,10.77-19.66C403.47,152.6,403.39,153,403.3,153.23Z"/></g>        </g>        <g id="eye-shape">            <path d="M72,439c.15,0,.14-1,0-1s-.14,1,0,1Z"/><path fill="#fcfcfc"  d="M302.56,136.75a50.32,50.32,0,0,0-13.36-13.86c-7.41-5.22-16.44-9.14-25.66-8-6.88.88-12,4.76-17.36,8.8-16,12.43-19.2,37-11.14,54.91,7.49,16.63,26.85,30.67,45.61,24.45,15-5,24.67-21.27,27.86-36a40,40,0,0,0-5.14-29.08,21.06,21.06,0,0,1,2.37,11.14c-.46,11-5.61,26-18.92,25.32-11.53-.6-21-11-22.27-22a1.87,1.87,0,0,1,0-.35,1.93,1.93,0,0,1,0-.34c-.14-13,9.58-20.6,21.91-21.78.27,0,.52,0,.79,0a9.84,9.84,0,0,1,4.89-1.44,6.09,6.09,0,0,1,6.36,4.14A15.26,15.26,0,0,1,302.56,136.75Z"/><path d="M297.13,125.51c-15.9-15-34.94-17.68-52.69-4.19-.06,0-.1.09-.15.13l-.16.1c-32.2,24.89-13.28,88.73,29.73,85.92,17.9-1.17,30.39-17.56,35.77-33.3C315.69,156.47,310.67,138.3,297.13,125.51Zm1.7,11.07c-.37,4.7-3.28,9.51-8.6,8.16-6.66-1.69-8.92-10.67-3.13-14.72-13.93-.19-27.77,8.58-26.34,24,1.35,14.55,17.51,25.42,31.5,20.72,13.7-4.61,18.18-24.79,11.11-36.67a40,40,0,0,1,5.14,29.08c-3.19,14.68-12.89,31-27.86,36-18.76,6.22-38.12-7.82-45.61-24.45-8.06-17.9-4.86-42.48,11.14-54.91,13.4-10.41,29.23-10.55,43-.84a49.54,49.54,0,0,1,13.22,13.66,13.15,13.15,0,0,0-3.88-3.77A11.87,11.87,0,0,1,298.83,136.58Z"/><path fill="#fcfcfc"  d="M413.88,121.89c-14.5-8.81-34.49-8.24-44.8,7.22a1.52,1.52,0,0,1-.8.62c-11.71,15.15-13,38.62-3.42,55.31,8.06,14,24.48,22,39.69,17.43s24.94-20.63,27.78-36.27C435.6,148.17,429.18,131.2,413.88,121.89Zm6.77,28.39c-.48,11.41-5.85,27.07-19.69,26.35-12-.62-16.83-11.46-18.18-22.92,0-.12-1,1.27-1,1.14a1.44,1.44,0,0,1,0-.36c-.14-13.51,6-21.44,18.8-22.67.56,0,1.1-1.56,1.64-1.58,1.23-1,2.93,2.5,5.09,2.86,2.75.46,5.23-1.77,6.66.61C418.49,137.22,421,143.12,420.65,150.28Z"/><path d="M417.26,121.57c-15.68-11.86-38.75-12.35-50.79,5.44a1.17,1.17,0,0,0-.67.49c-11.22,14.84-13.43,36.45-6.31,53.91,6.71,16.44,22.85,27.5,39.63,25.14,17-2.39,28.75-18.31,33.11-35.27C437.07,152.49,432.4,133,417.26,121.57Zm13.11,44.63c-2.77,15.64-12.3,31.73-27.13,36.27S372.36,199,364.49,185c-9.4-16.69-8.1-40.16,3.33-55.31a1.48,1.48,0,0,0,.78-.62c10.07-15.46,29.6-16,43.75-7.22C427.29,131.2,433.56,148.17,430.37,166.2Z"/><path fill="#fff"  d="M292.1,128.54a9.84,9.84,0,0,0-4.89,1.44,7.6,7.6,0,0,0-3.61,6.3,1.72,1.72,0,0,0,0,.46,1.63,1.63,0,0,0,.07.45c.65,3.88,3.71,7.38,7.81,7.76,4.8.45,7-4.28,7.42-8.37a9.06,9.06,0,0,0-.42-3.9A6.09,6.09,0,0,0,292.1,128.54Z"/><path d="M416.93,133.71a8.49,8.49,0,0,1,1.28,4.26c.09,3.49-2.14,7-5.74,7.59-4.79.76-8.18-3.4-9.34-7.56a1.33,1.33,0,0,1-.1-.34,1.73,1.73,0,0,1,0-.38c-.41-2.83.36-5.52,2.2-7-.54,0-1.08,0-1.64.08-12.83,1.23-22.94,9.16-22.8,22.67a1.44,1.44,0,0,0,0,.36,2.09,2.09,0,0,0,0,.36c1.35,11.46,9.13,23.78,23.18,24.42,13.85.64,23.62-8,24.28-23.74C428.59,146,421.49,137.22,416.93,133.71Z"/><path fill="#fff"  d="M403,137.28a1.73,1.73,0,0,0,0,.38,1.33,1.33,0,0,0,.1.34c1.16,4.16,4.55,8.32,9.34,7.56,3.6-.57,5.83-4.1,5.74-7.59a8.49,8.49,0,0,0-1.28-4.26,9.82,9.82,0,0,0-6.66-4.61,6.14,6.14,0,0,0-5.09,1.14C403.34,131.76,402.57,134.45,403,137.28Z"/>        </g>        <g id="eye-color2">            <path fill="#B5B4B4"  d="M276.92,128.34c-16.92,0-30.63,13.48-30.63,30.1s13.71,30.09,30.63,30.09,30.64-13.47,30.64-30.09a29.62,29.62,0,0,0-.88-7.16c-.07,10-5.12,20.32-14.42,23.45-14,4.7-30.15-6.17-31.5-20.72-1.43-15.37,12.34-24.13,26.24-24l-.07,0A31.22,31.22,0,0,0,276.92,128.34Z"/><path fill="#B5B4B4"  d="M368.91,160.53c0,16.62,13.72,30.1,30.64,30.1s30.63-13.48,30.63-30.1a29.55,29.55,0,0,0-3.54-14.05,18.67,18.67,0,0,1,1.6,7.91c-.66,15.72-10.43,24.38-24.28,23.74-14-.64-21.83-13-23.18-24.42a2.09,2.09,0,0,1,0-.36,1.44,1.44,0,0,1,0-.36c-.14-12.91,9.1-20.72,21.11-22.46-.76-.05-1.53-.09-2.3-.09h0C382.61,130.46,368.91,143.92,368.91,160.53Z"/><path d="M72,439c.15,0,.14-1,0-1s-.14,1,0,1Z"/>        </g>    </g>    <g id="nose-mouth">        <path fill="#2d2821"  d="M355.4,202.68c-2.76-4.52-5.63-9.61-9.16-13.57-8.87-9.94-21.59-6.52-29.46,2.63a97.86,97.86,0,0,0-6.34,8.82c-3.09,5.19-6.86,14-4.2,19.86,4.82,10.66,18.92,11,28.6,8.55a89.85,89.85,0,0,1,10.63-1.56c2.27-.3,5-.36,7.12-1.16,2.51-.93,4-3.91,5.19-6.3C361,213.37,358.89,208.39,355.4,202.68Zm-27.37,24a28.45,28.45,0,0,1-15.58-11.22c-.92-1.31.69-2.55,1.9-2.06a2,2,0,0,1,.93-1.25c1.57-1,3.41.28,4.72,1.15a28.64,28.64,0,0,1,9.73,11.18A1.52,1.52,0,0,1,328,226.64Zm20-2.15c-1.3,1-3.07-.42-2.54-1.6a1.4,1.4,0,0,1-1-1.79,36.82,36.82,0,0,1,5.22-11.22,1.52,1.52,0,0,1,2.74.36A13.23,13.23,0,0,1,348,224.49Z"/><path d="M360.51,205.56a111.21,111.21,0,0,0-10.57-16.65c-9.74-12.7-25.47-10.73-35.3.73-.06.07-.1.14-.15.21l-.09.1c-2.69,3.57-5.59,7.06-7.66,11.05-2.83,5.45-5.74,13.35-3.74,19.46,4,12.18,19.55,14.2,30.24,12.06,4.9-1,9.75-1.75,14.73-2.45,6.66-.93,8.76-1.74,12.09-8C362.91,216.72,363.28,210.94,360.51,205.56Zm-7.92,20.69c-2.16.8-4.85.86-7.12,1.16A89.85,89.85,0,0,0,334.84,229c-9.68,2.47-23.78,2.11-28.6-8.55-2.66-5.87,1.11-14.67,4.2-19.86a97.86,97.86,0,0,1,6.34-8.82c7.87-9.15,20.59-12.57,29.46-2.63,3.53,4,6.4,9,9.16,13.57,3.49,5.71,5.59,10.69,2.38,17.27C356.61,222.34,355.1,225.32,352.59,226.25Z"/><path d="M320,213.26c-1.31-.87-3.15-2.14-4.72-1.15a2,2,0,0,0-.93,1.25c-1.21-.49-2.82.75-1.9,2.06A28.45,28.45,0,0,0,328,226.64a1.52,1.52,0,0,0,1.7-2.2A28.64,28.64,0,0,0,320,213.26Z"/><path d="M349.62,209.88a36.82,36.82,0,0,0-5.22,11.22,1.4,1.4,0,0,0,1,1.79c-.53,1.18,1.24,2.62,2.54,1.6a13.23,13.23,0,0,0,4.38-14.25A1.52,1.52,0,0,0,349.62,209.88Z"/><path d="M282.83,243.59v-1.32a1.5,1.5,0,0,0-3,0v1.32a1.5,1.5,0,0,0,3,0Z"/><path d="M277.38,250.35a1.5,1.5,0,0,0,0-3,1.5,1.5,0,0,0,0,3Z"/><path d="M284.61,256.92a1.5,1.5,0,0,0,0-3,1.5,1.5,0,0,0,0,3Z"/><path d="M294.47,247.06a1.5,1.5,0,0,0,0-3,1.5,1.5,0,0,0,0,3Z"/><path d="M272.78,239.83a1.5,1.5,0,0,0,0-3,1.5,1.5,0,0,0,0,3Z"/><path d="M284.61,233.26a1.5,1.5,0,0,0,0-3,1.5,1.5,0,0,0,0,3Z"/><path d="M290.53,242.46a1.5,1.5,0,0,0,0-3,1.5,1.5,0,0,0,0,3Z"/><path d="M363.14,241.86a1.5,1.5,0,0,0,0-3,1.5,1.5,0,0,0,0,3Z"/><path d="M363.49,231.94a1.5,1.5,0,0,0,0-3,1.5,1.5,0,0,0,0,3Z"/><path d="M372,226.69a1.5,1.5,0,0,0,0-3,1.5,1.5,0,0,0,0,3Z"/><path d="M372,236.54a1.5,1.5,0,0,0,0-3,1.5,1.5,0,0,0,0,3Z"/><path d="M373.34,246.4a1.5,1.5,0,0,0,0-3,1.5,1.5,0,0,0,0,3Z"/><path d="M383.86,243.77a1.5,1.5,0,0,0,0-3,1.5,1.5,0,0,0,0,3Z"/><path d="M384.52,232.6a1.5,1.5,0,0,0,0-3,1.5,1.5,0,0,0,0,3Z"/><path d="M380.57,237.86a1.5,1.5,0,0,0,0-3,1.5,1.5,0,0,0,0,3Z"/><path d="M367.43,249.69a1.5,1.5,0,0,0,0-3,1.5,1.5,0,0,0,0,3Z"/><path fill="none"  d="M352.34,241.81l0,0,0,0,0,.06S352.33,241.83,352.34,241.81Z"/><path fill="#fff9ef"  d="M309.51,247.72a95,95,0,0,0-6.81-8.53q-1.95-2.19-4-4.34c-.09-.11-.19-.2-.28-.3l.18.47c.34.94.67,1.82,1,2.79s.55,1.94.76,2.91a54,54,0,0,1,.78,5.87l.46,5.85h0l.41-.2,1.16-.67C305.35,250.33,307.47,249.07,309.51,247.72Z"/><path fill="#fff9ef"  d="M358.23,245.21,358,245c-.07-.07-.14-.06-.25-.25a1.16,1.16,0,0,1,0-.37l0-.26,0-.54c-.08-.71-.13-1.45-.17-2.18a38.75,38.75,0,0,1-.06-4.45,35.79,35.79,0,0,1,.7-4.42v-.07a29.33,29.33,0,0,0-2.36,4.16c-.65,1.37-1.16,2.81-1.81,4.21-.16.35-.33.7-.5,1l-.12.25-.05.14,0,.09a.64.64,0,0,1-.07.12l0,0s0,0-.13.1q2.66,1.29,5.29,2.64Z"/><path d="M358.55,245.41l-.15-.33a2.07,2.07,0,0,0-.15-.25c0-.07-.13-.2-.1-.17s0-.1.07-.18l.07-.27c0-.19.08-.38.11-.56.12-.75.16-1.46.23-2.19.15-1.45.24-2.91.47-4.29s.59-2.74.92-4.19.64-2.87.87-4.32l.6-3.73-2.34,2.93a47.1,47.1,0,0,0-2.79,3.84,27.9,27.9,0,0,0-2.19,4.24,35,35,0,0,0-1.58,4.43c-.11.38-.2.76-.28,1.15l-.06.3,0,.22a.32.32,0,0,0,0,.13s0,0,0,.07c-1.43-.7-2.87-1.38-4.31-2.06a55,55,0,0,0-9.32-3.49,24.53,24.53,0,0,0-10.26-.58,22.17,22.17,0,0,0-9.33,4.35c-2.68,2-5.07,4.15-7.63,6l-1.79,1.22a74.24,74.24,0,0,0-6.21-9c-1.21-1.55-2.47-3.07-3.75-4.57s-2.5-3-3.75-4.57l-.65.59h0l-.64.59a10.76,10.76,0,0,1,1.22,2.33c.35.87.7,1.76,1,2.67.63,1.85,1.27,3.62,1.71,5.47s.86,3.75,1.31,5.66a35.12,35.12,0,0,0,1.8,5.63h0l-.46-5.85a54,54,0,0,0-.78-5.87c-.21-1-.46-1.95-.76-2.91s-.65-1.85-1-2.79l-.18-.47c.09.1.19.19.28.3q2,2.15,4,4.34a95,95,0,0,1,6.81,8.53c-2,1.35-4.16,2.61-6.31,3.85l-1.16.67c-1,.6-2,1.19-3.05,1.74a9.71,9.71,0,0,1-4.57,1.3,9.12,9.12,0,0,0,4.89-.54c1.57-.56,3-1.24,4.55-1.86a70.6,70.6,0,0,0,8.79-4.48c2.87-1.73,5.37-3.88,8-5.64a19.9,19.9,0,0,1,8.22-3.7,19.17,19.17,0,0,1,4.49-.28,30,30,0,0,1,4.57.68,64.37,64.37,0,0,1,9.07,2.88c6,2.35,12.14,4.65,18.34,6.66C363.09,247.76,360.82,246.57,358.55,245.41Zm-5.4-2.87,0,0a.64.64,0,0,0,.07-.12l0-.09.05-.14.12-.25c.17-.34.34-.69.5-1,.65-1.4,1.16-2.84,1.81-4.21a29.33,29.33,0,0,1,2.36-4.16v.07a35.79,35.79,0,0,0-.7,4.42,38.75,38.75,0,0,0,.06,4.45c0,.73.09,1.47.17,2.18l0,.54,0,.26a1.16,1.16,0,0,0,0,.37c.11.19.18.18.25.25l.21.17.08.07q-2.64-1.35-5.29-2.64C353.12,242.58,353.18,242.52,353.15,242.54Zm-.8-.75,0,0,0,0s0,0,0,0Z"/>    </g></svg>