<!--  ~ Copyright (C) 2018 Baidu, Inc. All Rights Reserved.  --><svg viewBox="0 0 640 480" xmlns="http://www.w3.org/2000/svg">    <g id="back-ground-cl">        <rect fill="none" width="640" height="480" />        <ellipse opacity="0.1" cx="331.93" cy="418.82" rx="168.39" ry="32.01"/>    </g>    <g id="body">        <defs>            <clipPath id="outline">                <path fill="none"  d="M179.78,319.61a40.81,40.81,0,0,0,6.2,5.27c.19-4.32.53-8.64,1-12.92-.44-.4-.87-.81-1.29-1.25a28.66,28.66,0,0,1-3.76-4.79,26,26,0,0,1-1.4-2.6,26.84,26.84,0,0,0-1.38,3.33,23.25,23.25,0,0,0-.88,11.28C178.74,318.5,179.25,319.06,179.78,319.61Z"/><path fill="none"  d="M412.16,127.89c.41-.41.75-.78,1-1,4.44-5.3,5.5-12.57,9.83-18,3.85-4.79,9.93-6.75,14.06-11.21a21.06,21.06,0,0,0,5.43-11.57,16.34,16.34,0,0,0,0-5.36c-.15-.79-.39-2.63-1.06-3.2-.93-.79-4.39-.92-5.24-.52-2.46,1.16-4.5,3.64-7.07,4.9a43.93,43.93,0,0,1-8.28,3c-11.84,3.11-33,4-35.43,19A133.6,133.6,0,0,1,412.16,127.89Z"/><path fill="none"  d="M250.1,131.88a8.54,8.54,0,0,0,1.56,5.17,191.35,191.35,0,0,1,15.79-19.44,122.73,122.73,0,0,1,9.6-9.21c-5-14.07-20.35-23.27-34-14-4.42,3-8.16,6.9-12.72,9.69a24.52,24.52,0,0,1-6.2,2.79c-2.45.68-3.12,0-4.39,2.56-1.44,2.9-.07,4.47,2.33,6.45,5.67,4.68,12.24,3,18.88,3.44,3.41.23,6.79,1.28,8.43,4.51C250.69,126.41,250.07,129.09,250.1,131.88Z"/><path fill="none"  d="M467.15,243.54c-8.65-24.15-19.37-47.49-30.8-70.43-9.42-18.93-19.18-36.8-34.41-51.77A120.94,120.94,0,0,0,369,98h0a.41.41,0,0,0-.11-.07A30.59,30.59,0,0,0,368,89.8a29,29,0,0,0-2.44-6.32,28.85,28.85,0,0,1-1.29,8.44l-.31,1-1-.46a14.3,14.3,0,0,1-8.12-12.94c0-1.32.1-2.57.13-3.76a17.16,17.16,0,0,0-.23-3.45,18.29,18.29,0,0,0-2.59-6.39,27.87,27.87,0,0,0-10.47-9.34A67.35,67.35,0,0,0,330.76,52c.26,1,.5,2,.69,3.1a17.14,17.14,0,0,1,.05,6.31,12.61,12.61,0,0,1-2.87,5.79,27.93,27.93,0,0,1-4.61,4c-.79.57-1.56,1.14-2.29,1.71s-1.38,1.17-2.14,1.85c-1.42,1.32-3.1,2.53-3.89,3.78s-.71,3-.5,4.87a17.71,17.71,0,0,1,.21,3.1,5.13,5.13,0,0,1-.38,1.77,3.65,3.65,0,0,1-1.23,1.58l-.54.38L312.7,90a35,35,0,0,0-7.58-2.94,37,37,0,0,0-7-1c.52,1.13.93,2.28,1.34,3.42L301,93.9c.23.67.5,1.33.76,2l-.54.28a80,80,0,0,0-7.76,4c-20,11.78-34.51,30.8-46.79,50.08a377.44,377.44,0,0,0-52.43,133.53c-1.64,9-3,18.11-3.91,27.25-.18,1.83-.34,3.71-.48,5.61-.22,2.91-.39,5.89-.49,8.91a152.79,152.79,0,0,0,.9,23.47,98.74,98.74,0,0,0,3.07,15.36c4.1,14.13,11.8,26.59,25.43,34.31,2.13,1.21,13,3.8,8.38,7.39-2.4,1.85-14.48,3-13.86,6.68.7,4.07,12.39,4.42,15.14,4.64a154.42,154.42,0,0,0,17.61.25c.52,0,1.44,0,2.41,0,0-.46.07-.93.09-1.4.11-3.79.06-7.79.17-11.66s.13-7.78.11-11.66a160.15,160.15,0,0,0-1.55-23.18,61.08,61.08,0,0,0-2.71-11.25,32.45,32.45,0,0,0-2.45-5.24,18,18,0,0,0-3.63-4.52c3.16,2.36,5.25,5.88,6.81,9.47a60.89,60.89,0,0,1,3.42,11.28,143.87,143.87,0,0,1,2.44,23.39c.15,3.91.19,7.83.18,11.73s.09,7.72,0,11.74a20.91,20.91,0,0,1-.26,3.1,11.55,11.55,0,0,1-.37,1.6,6.21,6.21,0,0,1-.77,1.71,7.85,7.85,0,0,1-2.66,2.36,26.17,26.17,0,0,1-2.8,1.34c-.91.38-1.8.74-2.59,1.14a5.88,5.88,0,0,0-1.9,1.33,2,2,0,0,0-.5,1.61,3.66,3.66,0,0,0,.78,1.92,7.32,7.32,0,0,0,1.07,1.09,5.48,5.48,0,0,1,.24-3.12,6.52,6.52,0,0,1,2.78-3.36,8,8,0,0,1,2-.77,10.23,10.23,0,0,1,1.87-.39,13.21,13.21,0,0,1,3.88-.05,13.14,13.14,0,0,1-3.14,2.28c-1.11.61-2.2,1.07-3,1.5a9.26,9.26,0,0,0-2.27,1.93,12.58,12.58,0,0,0-1.91,3l.46-.38a13.38,13.38,0,0,0,2.19,1.15,20.84,20.84,0,0,0,5.23,1.44c.82.1,1.64.16,2.46.22a2.79,2.79,0,0,1-.44-.92,3.54,3.54,0,0,1,.15-2.18,7.19,7.19,0,0,1,2.48-3,10,10,0,0,1,3.23-1.61,7.37,7.37,0,0,1,3.65-.16,28.07,28.07,0,0,1-2.6,2.27c-.84.67-1.66,1.29-2.49,1.91a20.77,20.77,0,0,0-2.22,1.75,3.27,3.27,0,0,0-.74,1,2.59,2.59,0,0,0-.2,1.56l.56-.58a49.21,49.21,0,0,0,7.48-.28,43.19,43.19,0,0,0,5.56-1,14.79,14.79,0,0,0,4.83-2.25,23.12,23.12,0,0,0,7-8.46c.22-.42.4-.85.6-1.27l.47-1.26c.25-.91.52-1.81.73-2.75.46-1.87.84-3.78,1.26-5.68.81-3.81,1.63-7.64,2.6-11.44a116.37,116.37,0,0,1,3.48-11.22,49.61,49.61,0,0,1,5.2-10.5c-3.76,6.86-5.69,14.47-7.25,22-.76,3.66-1.39,7.34-2,11a311.44,311.44,0,0,0,33.1,5.43c21.48,2.29,43.63,2.35,64.74-2.67,2.92-.7,5.72-1.56,8.45-2.51-.74-3.71-.95-7.41-1.41-11-.11-.92-.24-1.84-.39-2.75l-.42-2.8c-.27-1.87-.52-3.74-.87-5.56a20.05,20.05,0,0,0-.62-2.68c-.28-.88-.61-1.77-.92-2.67l-.92-2.69-.81-2.73h0l2.49,5.1c.41.85.85,1.69,1.25,2.57a19.6,19.6,0,0,1,1,2.74c.53,1.86.94,3.7,1.38,5.55l.6,2.77c.18.95.35,1.9.49,2.84.56,3.78.9,7.53,1.7,11.11a26.29,26.29,0,0,0,4.28,9.83,18.43,18.43,0,0,0,8,6.59,28.45,28.45,0,0,0,5.2,1.29,47.43,47.43,0,0,0,5.46.57c1.29.06,2.58.05,3.87,0l.59.61a2.59,2.59,0,0,0-.2-1.56,3.27,3.27,0,0,0-.74-1,22.09,22.09,0,0,0-2.22-1.76c-.83-.61-1.65-1.24-2.49-1.9a28.07,28.07,0,0,1-2.6-2.27,7.37,7.37,0,0,1,3.65.16,9.79,9.79,0,0,1,3.23,1.61,7.13,7.13,0,0,1,2.48,3,3.62,3.62,0,0,1,.15,2.18,2.69,2.69,0,0,1-.42.89h.19a24.58,24.58,0,0,0,5.27-.85,16.59,16.59,0,0,0,4.4-1.92l.46.38a12.58,12.58,0,0,0-1.91-3,9.26,9.26,0,0,0-2.27-1.93c-.84-.44-1.93-.89-3-1.5a13.42,13.42,0,0,1-3.14-2.28,13.23,13.23,0,0,1,3.88,0,12.23,12.23,0,0,1,1.87.39,8.4,8.4,0,0,1,2,.78,6.48,6.48,0,0,1,2.78,3.36,5.44,5.44,0,0,1,.22,3.16,4.45,4.45,0,0,0,1.9-3.09,2.34,2.34,0,0,0-.42-1.67,5.2,5.2,0,0,0-1.72-1.32c-1.49-.78-3.31-1.33-5.14-2.13a12.39,12.39,0,0,1-2.75-1.61,6.55,6.55,0,0,1-1.25-1.27l-.26-.39a3,3,0,0,1-.24-.47,5.37,5.37,0,0,1-.29-.92l-.82-5.75a79.22,79.22,0,0,1-.91-11.47,67,67,0,0,1,2.93-17c1.53-5.46,2.92-10.91,4.36-16.39,1-3.67,2-7.32,3.22-10.91a53.6,53.6,0,0,1,2.13-5.29,15.48,15.48,0,0,1,2.63-4,7.52,7.52,0,0,1,.64-.62,13,13,0,0,0-2.86,4.8,52.4,52.4,0,0,0-1.78,5.35c-1,3.62-1.82,7.3-2.56,11-1.48,7.43-3.22,14.81-4.56,22.27a66.6,66.6,0,0,0-.68,21.91l.39,2.54c5.49.92,11.5.5,16.94.34a157.31,157.31,0,0,0,19.15-1.46c2.36-.37,3.95,0,2.58-2.3-1.61-2.7-4-4-6.93-5-2.41-.83-9.3-1-10.71-3.45-.77-1.35.08-2.06,1-2.94,1.35-1.35,4-2.21,5.6-3.25q3-1.87,5.8-4a69.68,69.68,0,0,0,18.8-22.2c8.95-16.71,10.93-36.3,9.16-54.93C482.16,289.49,475.15,265.89,467.15,243.54Z"/><path fill="none"  d="M185.94,325.87l0-.76a27.41,27.41,0,0,1-7.32-4.24,34.69,34.69,0,0,1-6.47-6.73,36.51,36.51,0,0,1-4.53-8.21,38.45,38.45,0,0,1-1.8-5.73,27.93,27.93,0,0,0-2.23,4.23,35.15,35.15,0,0,0-2.31,7.79,42.8,42.8,0,0,0-.62,5.07,17.5,17.5,0,0,0,5.9,2.45,20.39,20.39,0,0,1-9.3-4.37,34.78,34.78,0,0,1-7-7.71,54,54,0,0,1-4.87-9.21,72.69,72.69,0,0,1-2.74-8,23.48,23.48,0,0,0-1.83,5.05,26.15,26.15,0,0,0-.62,7.22,32.12,32.12,0,0,0,3.95,13.82l2.14,3.85-3.88-2.09a49.14,49.14,0,0,1-12.36-9.49,39.84,39.84,0,0,1-4.82-6.21c-.41-.65-.79-1.33-1.17-2-.07,1.69-.09,3.4-.06,5.09a72.69,72.69,0,0,0,.91,10.43,47.32,47.32,0,0,0,7.3,19.26l1.46,2.13-2.56,0a32.15,32.15,0,0,1-12.65-2.71,46.31,46.31,0,0,1-5.72-2.87c-.58-.35-1.15-.71-1.72-1.07.9,1.76,1.88,3.49,2.92,5.17a74.35,74.35,0,0,0,6,8.33,55.16,55.16,0,0,0,15.52,13.19,41.59,41.59,0,0,0,9.38,3.81c2.75-1.38,5.42-2.92,8-4.56a95.74,95.74,0,0,0,8.91-6.38,69.38,69.38,0,0,1-8.27,7.31,77.38,77.38,0,0,1-9.27,6.07q-2.43,1.37-5,2.51t-5.2,2.08c-1.31.46-2.65.85-4,1.2,3.37.65,6.75,1.23,10.14,1.64a80.63,80.63,0,0,0,17,.43,53.52,53.52,0,0,0,8.34-1.46A44.49,44.49,0,0,0,182,362c.54-1.44,1.05-2.89,1.49-4.37.13-.43.24-.87.36-1.3.55-1.93,1.06-3.87,1.47-5.84a57.16,57.16,0,0,1-.85,7.37,51.34,51.34,0,0,1-1.84,7.25,30.72,30.72,0,0,1-3.18,6.9c-.35.56-.74,1.11-1.15,1.64a83.57,83.57,0,0,0,9.67-3.46c1.1-.53,2.24-1,3.33-1.53a92.52,92.52,0,0,1-4.4-18.64A140.06,140.06,0,0,1,185.94,325.87,-5.19.29h.06l.09.21Z"/><path d="M180.75,326.16l.15.21-.09-.21Z"/><path d="M480.36,276.05c-6.48-25.08-15.82-49.33-26.42-72.92-5.39-12-11.13-23.86-17-35.62-5.06-10.07-10.07-20.09-16.63-29.28q-3-4.12-6.2-8.07a22.91,22.91,0,0,0,2.31-2.63c2.36-3.24,3.7-7,5.37-10.62a25.55,25.55,0,0,1,9.77-11.36c6.21-4.06,11.3-8.51,13.33-16,1.36-5,1.74-13.25-3.51-16.29a5.22,5.22,0,0,0-5.61.18c-1.78,1.07-3.18,2.82-4.91,4a30.41,30.41,0,0,1-7.15,3.44c-13.23,4.56-37.27,4.64-41,21.21q-3.08-1.94-6.25-3.69c-2.34-1.29-4.74-2.48-7.18-3.58a27.57,27.57,0,0,0-.48-5.2,30.21,30.21,0,0,0-3.38-9.22L364,78.09l.09,2.73a28.38,28.38,0,0,1-1.23,9.4,12.24,12.24,0,0,1-5.61-10.66c0-1.17.18-2.4.25-3.69a19.88,19.88,0,0,0-.19-4,21.1,21.1,0,0,0-2.81-7.4,27,27,0,0,0-5-6A36.37,36.37,0,0,0,343.12,54a76,76,0,0,0-14.07-5.68l-2.65-.83.77,2.66c1.06,3.68,2.15,7.36,1.49,10.71a10,10,0,0,1-2.19,4.52,25.16,25.16,0,0,1-4.09,3.66c-.77.59-1.55,1.18-2.32,1.82s-1.56,1.37-2.22,2l-2.15,2a10.92,10.92,0,0,0-2.11,2.48,6.92,6.92,0,0,0-.89,3.35,19.27,19.27,0,0,0,.25,3.1,16.06,16.06,0,0,1,.29,2.69,2.85,2.85,0,0,1-.32,1.34,35.4,35.4,0,0,0-7.4-2.42,33.9,33.9,0,0,0-8.52-.72l-1.14,0,.6.94a30,30,0,0,1,2,4.14L300,93.47a96.27,96.27,0,0,0-20.52,12.89c-3.76-9.62-11.93-17.65-22.55-18.89-12-1.4-18.91,8.34-28.13,14a25.62,25.62,0,0,1-8.15,3c-2,.45-3.58,1-4.52,3-1.84,3.85,1,8.29,3.91,10.68,3.83,3.17,9,4.33,13.83,4.3,2.69,0,5.41-.43,8.08,0,6.35,1,4.78,6.35,5.16,11a10.06,10.06,0,0,0,2.67,6.24,342.92,342.92,0,0,0-22.47,38.07,378.46,378.46,0,0,0-27.51,69.13q-5.15,17.8-8.5,36.06c-1.46,8-2.9,16.55-3.93,25.28a26.8,26.8,0,0,1-5.29-8.81L181,296.53l-1.58,2.62a26,26,0,0,0-2.9,6.74,22.68,22.68,0,0,0-.78,7.28c0,.64.11,1.28.2,1.9-.58-.78-1.13-1.57-1.64-2.39a36.89,36.89,0,0,1-2.15-3.82,38.8,38.8,0,0,1-1.78-4,51.15,51.15,0,0,1-2.4-8.44l-.59-3.27-2,2.63a30.91,30.91,0,0,0-4.2,7.71,35.07,35.07,0,0,0-1.94,8.46c-.14,1.42-.2,2.84-.2,4.25-.51-.38-1-.78-1.51-1.2A34,34,0,0,1,151,307.2a53,53,0,0,1-4.44-9.2,81.11,81.11,0,0,1-2.88-9.81l-.42-1.76-1,1.53a24.75,24.75,0,0,0-3.18,7.09,27.92,27.92,0,0,0-.94,7.72,33.88,33.88,0,0,0,1,7.7c.29,1.15.64,2.28,1,3.4a45.51,45.51,0,0,1-8.05-7,40.41,40.41,0,0,1-4.44-5.83,39.89,39.89,0,0,1-3.24-6.55l-2.05-5.3-.77,5.59a74.57,74.57,0,0,0-.61,10.93,70.85,70.85,0,0,0,1,10.87,56.73,56.73,0,0,0,2.8,10.6,42.34,42.34,0,0,0,3.67,7.5,31.91,31.91,0,0,1-9-2.25,53.84,53.84,0,0,1-5.48-2.61,46.66,46.66,0,0,1-5.11-3.25L105.39,324l1.77,3.94a70.25,70.25,0,0,0,5.1,9.26,77.33,77.33,0,0,0,6.3,8.43,56,56,0,0,0,16.27,13.25,42.29,42.29,0,0,0,8.56,3.29,68.32,68.32,0,0,1-10,3.94,51.08,51.08,0,0,1-10.48,2.09l-8.22.73,8,2a136.59,136.59,0,0,0,17.22,3.29,72.36,72.36,0,0,0,17.65.11,46.26,46.26,0,0,0,8.68-1.91,41.14,41.14,0,0,0,15.07-8.58l-.24.62a34.72,34.72,0,0,1-3.44,6.26,13.94,13.94,0,0,1-5,4.46l-8.82,4.33,9.69-1.87a78.05,78.05,0,0,0,15.66-4.74c1.08-.47,2.14-1,3.19-1.5A72.69,72.69,0,0,0,198.25,383a53.84,53.84,0,0,0,16.37,16.68,51.84,51.84,0,0,0,5.28,3c.46.23,2,1.13,3.25,1.71l-.31.13c-1.79.62-3.6,1.16-5.38,1.81-3.43,1.25-9.09,3.22-6.82,8,1.88,3.91,8,4.8,11.71,5.38a116,116,0,0,0,20,1c1.43,0,3.4.1,5.38.06a2.69,2.69,0,0,1-.2.38c-.72,1.09-2.44,1.88-4.19,2.6-.89.37-1.82.73-2.77,1.2a8.86,8.86,0,0,0-2.84,2,5,5,0,0,0-1,1.78,5.64,5.64,0,0,0-.21,2,6.67,6.67,0,0,0,1.35,3.45,12.82,12.82,0,0,0,5.35,3.8,24,24,0,0,0,6,1.61,48.83,48.83,0,0,0,12-.1,45.78,45.78,0,0,0,5.91-1.18,17.81,17.81,0,0,0,5.67-2.77,24.71,24.71,0,0,0,7.54-9.58c.22-.46.41-.93.61-1.39l.5-1.5c.25-1,.51-2,.69-2.92s.44-2.19.64-3.28c22.29,4.82,45.24,7.67,68.06,6.77a160.11,160.11,0,0,0,32.55-4.44c2.33-.58,4.65-1.23,6.94-1.95a24.78,24.78,0,0,0,1,2.89,30.31,30.31,0,0,0,2.83,5.22,20.79,20.79,0,0,0,9.18,7.7,31,31,0,0,0,5.77,1.48,51.6,51.6,0,0,0,5.81.64,49.31,49.31,0,0,0,5.83-.05c1-.07,1.92-.15,2.94-.29a22.64,22.64,0,0,0,3-.66,19.37,19.37,0,0,0,5.57-2.54,9.85,9.85,0,0,0,2.39-2.31,6.56,6.56,0,0,0,1.25-3.34,5.91,5.91,0,0,0-.15-1.9,5.42,5.42,0,0,0-.85-1.78,8,8,0,0,0-2.72-2.14c-1.87-.95-3.7-1.48-5.32-2.19a10.49,10.49,0,0,1-2.16-1.2,3.42,3.42,0,0,1-.74-.73l-.15-.19c0-.05-.06-.09-.09-.15a2,2,0,0,1-.14-.33l.85.08a142.39,142.39,0,0,0,20.86,0c5.57-.29,11.91-.21,17.3-1.84,3.77-1.13,2.9-4.86.85-7.64-3.27-4.44-9.45-5.46-14.45-6.64l-.43-.13c.93-.57,1.95-1.32,2.33-1.55A77.78,77.78,0,0,0,462.75,389c14-12.67,21.83-30.36,24.28-48.89C489.88,318.55,485.74,296.86,480.36,276.05,420.78,84.89a43.93,43.93,0,0,0,8.28-3c2.57-1.26,4.61-3.74,7.07-4.9.85-.4,4.31-.27,5.24.52.67.57.91,2.41,1.06,3.2a16.34,16.34,0,0,1,0,5.36A21.06,21.06,0,0,1,437,97.67c-4.13,4.46-10.21,6.42-14.06,11.21-4.33,5.39-5.39,12.66-9.83,18-.23.27-.57.64-1,1a133.6,133.6,0,0,0-26.81-24C387.82,88.94,408.94,88,420.78,84.89,249.37,123.8c-1.64-3.23-5-4.28-8.43-4.51-6.64-.45-13.21,1.24-18.88-3.44-2.4-2-3.77-3.55-2.33-6.45,1.27-2.55,1.94-1.88,4.39-2.56a24.52,24.52,0,0,0,6.2-2.79c4.56-2.79,8.3-6.7,12.72-9.69,13.66-9.23,29,0,34,14a122.73,122.73,0,0,0-9.6,9.21,191.35,191.35,0,0,0-15.79,19.44,8.54,8.54,0,0,1-1.56-5.17C250.07,129.09,250.69,126.41,249.37,123.8,177.93,313.15a23.91,23.91,0,0,1,1.19-6.5,26.84,26.84,0,0,1,1.38-3.33,26,26,0,0,0,1.4,2.6,28.66,28.66,0,0,0,3.76,4.79c.42.44.85.85,1.29,1.25-.44,4.28-.78,8.6-1,12.92a40.81,40.81,0,0,1-6.2-5.27c-.53-.55-1-1.11-1.54-1.68A24.11,24.11,0,0,1,177.93,313.15,10.07,57a83.57,83.57,0,0,1-9.67,3.46c.41-.53.8-1.08,1.15-1.64a30.72,30.72,0,0,0,3.18-6.9,51.34,51.34,0,0,0,1.84-7.25,57.16,57.16,0,0,0,.85-7.37c-.41,2-.92,3.91-1.47,5.84-.12.43-.23.87-.36,1.3-.44,1.48-1,2.93-1.49,4.37a44.49,44.49,0,0,1-16.44,8.27,53.52,53.52,0,0,1-8.34,1.46,80.63,80.63,0,0,1-17-.43c-3.39-.41-6.77-1-10.14-1.64,1.35-.35,2.69-.74,4-1.2q2.65-.93,5.2-2.08t5-2.51a77.38,77.38,0,0,0,9.27-6.07,69.38,69.38,0,0,0,8.27-7.31,95.74,95.74,0,0,1-8.91,6.38c-2.61,1.64-5.28,3.18-8,4.56a41.59,41.59,0,0,1-9.38-3.81A55.16,55.16,0,0,1,120,344.39a74.35,74.35,0,0,1-6-8.33c-1-1.68-2-3.41-2.92-5.17.57.36,1.14.72,1.72,1.07a46.31,46.31,0,0,0,5.72,2.87,32.15,32.15,0,0,0,12.65,2.71l2.56,0-1.46-2.13a47.32,47.32,0,0,1-7.3-19.26,72.69,72.69,0,0,1-.91-10.43c0-1.69,0-3.4.06-5.09.38.67.76,1.35,1.17,2a39.84,39.84,0,0,0,4.82,6.21,49.14,49.14,0,0,0,12.36,9.49l3.88,2.09-2.14-3.85a32.12,32.12,0,0,1-3.95-13.82,26.15,26.15,0,0,1,.62-7.22,23.48,23.48,0,0,1,1.83-5.05,72.69,72.69,0,0,0,2.74,8,54,54,0,0,0,4.87,9.21,34.78,34.78,0,0,0,7,7.71,20.39,20.39,0,0,0,9.3,4.37,17.5,17.5,0,0,1-5.9-2.45,42.8,42.8,0,0,1,.62-5.07,35.15,35.15,0,0,1,2.31-7.79,27.93,27.93,0,0,1,2.23-4.23,38.45,38.45,0,0,0,1.8,5.73,36.51,36.51,0,0,0,4.53,8.21,34.69,34.69,0,0,0,6.47,6.73,27.41,27.41,0,0,0,7.32,4.24l0,.76a140.06,140.06,0,0,0,1,24.11,92.52,92.52,0,0,0,4.4,18.64C190.24,369.16,189.1,369.62,188,370.15,287.24-2a69.68,69.68,0,0,1-18.8,22.2q-2.81,2.16-5.8,4c-1.64,1-4.25,1.9-5.6,3.25-.89.88-1.74,1.59-1,2.94,1.41,2.48,8.3,2.62,10.71,3.45,3,1,5.32,2.31,6.93,5,1.37,2.3-.22,1.93-2.58,2.3A157.31,157.31,0,0,1,440,412.8c-5.44.16-11.45.58-16.94-.34l-.39-2.54a66.6,66.6,0,0,1,.68-21.91c1.34-7.46,3.08-14.84,4.56-22.27.74-3.7,1.54-7.38,2.56-11a52.4,52.4,0,0,1,1.78-5.35,13,13,0,0,1,2.86-4.8,7.52,7.52,0,0,0-.64.62,15.48,15.48,0,0,0-2.63,4,53.6,53.6,0,0,0-2.13,5.29c-1.24,3.59-2.26,7.24-3.22,10.91-1.44,5.48-2.83,10.93-4.36,16.39a67,67,0,0,0-2.93,17,79.22,79.22,0,0,0,.91,11.47l.82,5.75a5.37,5.37,0,0,0,.29.92,3,3,0,0,0,.24.47l.26.39a6.55,6.55,0,0,0,1.25,1.27,12.39,12.39,0,0,0,2.75,1.61c1.83.8,3.65,1.35,5.14,2.13a5.2,5.2,0,0,1,1.72,1.32,2.34,2.34,0,0,1,.42,1.67,4.45,4.45,0,0,1-1.9,3.09,5.44,5.44,0,0,0-.22-3.16,6.48,6.48,0,0,0-2.78-3.36,8.4,8.4,0,0,0-2-.78,12.23,12.23,0,0,0-1.87-.39,13.23,13.23,0,0,0-3.88,0,13.42,13.42,0,0,0,3.14,2.28c1.11.61,2.2,1.06,3,1.5a9.26,9.26,0,0,1,2.27,1.93,12.58,12.58,0,0,1,1.91,3l-.46-.38a16.59,16.59,0,0,1-4.4,1.92,24.58,24.58,0,0,1-5.27.85h-.19a2.69,2.69,0,0,0,.42-.89,3.62,3.62,0,0,0-.15-2.18,7.13,7.13,0,0,0-2.48-3,9.79,9.79,0,0,0-3.23-1.61,7.37,7.37,0,0,0-3.65-.16,28.07,28.07,0,0,0,2.6,2.27c.84.66,1.66,1.29,2.49,1.9a22.09,22.09,0,0,1,2.22,1.76,3.27,3.27,0,0,1,.74,1,2.59,2.59,0,0,1,.2,1.56l-.59-.61c-1.29.05-2.58.06-3.87,0a47.43,47.43,0,0,1-5.46-.57,28.45,28.45,0,0,1-5.2-1.29,18.43,18.43,0,0,1-8-6.59,26.29,26.29,0,0,1-4.28-9.83c-.8-3.58-1.14-7.33-1.7-11.11-.14-.94-.31-1.89-.49-2.84l-.6-2.77c-.44-1.85-.85-3.69-1.38-5.55a19.6,19.6,0,0,0-1-2.74c-.4-.88-.84-1.72-1.25-2.57l-2.49-5.1h0l.81,2.73.92,2.69c.31.9.64,1.79.92,2.67a20.05,20.05,0,0,1,.62,2.68c.35,1.82.6,3.69.87,5.56l.42,2.8c.15.91.28,1.83.39,2.75.46,3.6.67,7.3,1.41,11-2.73.95-5.53,1.81-8.45,2.51-21.11,5-43.26,5-64.74,2.67a311.44,311.44,0,0,1-33.1-5.43c.63-3.69,1.26-7.37,2-11,1.56-7.58,3.49-15.19,7.25-22a49.61,49.61,0,0,0-5.2,10.5,116.37,116.37,0,0,0-3.48,11.22c-1,3.8-1.79,7.63-2.6,11.44-.42,1.9-.8,3.81-1.26,5.68-.21.94-.48,1.84-.73,2.75l-.47,1.26c-.2.42-.38.85-.6,1.27a23.12,23.12,0,0,1-7,8.46,14.79,14.79,0,0,1-4.83,2.25,43.19,43.19,0,0,1-5.56,1,49.21,49.21,0,0,1-7.48.28l-.56.58a2.59,2.59,0,0,1,.2-1.56,3.27,3.27,0,0,1,.74-1,20.77,20.77,0,0,1,2.22-1.75c.83-.62,1.65-1.24,2.49-1.91a28.07,28.07,0,0,0,2.6-2.27,7.37,7.37,0,0,0-3.65.16,10,10,0,0,0-3.23,1.61,7.19,7.19,0,0,0-2.48,3,3.54,3.54,0,0,0-.15,2.18,2.79,2.79,0,0,0,.44.92c-.82-.06-1.64-.12-2.46-.22a20.84,20.84,0,0,1-5.23-1.44,13.38,13.38,0,0,1-2.19-1.15l-.46.38a12.58,12.58,0,0,1,1.91-3,9.26,9.26,0,0,1,2.27-1.93c.84-.43,1.93-.89,3-1.5a13.14,13.14,0,0,0,3.14-2.28,13.21,13.21,0,0,0-3.88.05,10.23,10.23,0,0,0-1.87.39,8,8,0,0,0-2,.77,6.52,6.52,0,0,0-2.78,3.36,5.48,5.48,0,0,0-.24,3.12,7.32,7.32,0,0,1-1.07-1.09,3.66,3.66,0,0,1-.78-1.92,2,2,0,0,1,.5-1.61,5.88,5.88,0,0,1,1.9-1.33c.79-.4,1.68-.76,2.59-1.14a26.17,26.17,0,0,0,2.8-1.34,7.85,7.85,0,0,0,2.66-2.36,6.21,6.21,0,0,0,.77-1.71,11.55,11.55,0,0,0,.37-1.6,20.91,20.91,0,0,0,.26-3.1c.05-4-.08-7.81,0-11.74s0-7.82-.18-11.73a143.87,143.87,0,0,0-2.44-23.39,60.89,60.89,0,0,0-3.42-11.28c-1.56-3.59-3.65-7.11-6.81-9.47a18,18,0,0,1,3.63,4.52,32.45,32.45,0,0,1,2.45,5.24,61.08,61.08,0,0,1,2.71,11.25,160.15,160.15,0,0,1,1.55,23.18c0,3.88,0,7.76-.11,11.66s-.06,7.87-.17,11.66c0,.47,0,.94-.09,1.4-1,0-1.89,0-2.41,0a154.42,154.42,0,0,1-17.61-.25c-2.75-.22-14.44-.57-15.14-4.64-.62-3.64,11.46-4.83,13.86-6.68,4.66-3.59-6.25-6.18-8.38-7.39-13.63-7.72-21.33-20.18-25.43-34.31A98.74,98.74,0,0,1,190.21,349a152.79,152.79,0,0,1-.9-23.47c.1-3,.27-6,.49-8.91.14-1.9.3-3.78.48-5.61.88-9.14,2.27-18.22,3.91-27.25a377.44,377.44,0,0,1,52.43-133.53c12.28-19.28,26.78-38.3,46.79-50.08a80,80,0,0,1,7.76-4l.54-.28c-.26-.67-.53-1.33-.76-2l-1.53-4.48c-.41-1.14-.82-2.29-1.34-3.42a37,37,0,0,1,7,1A35,35,0,0,1,312.7,90l.56.29.54-.38A3.65,3.65,0,0,0,315,88.32a5.13,5.13,0,0,0,.38-1.77,17.71,17.71,0,0,0-.21-3.1c-.21-1.85-.31-3.69.5-4.87s2.47-2.46,3.89-3.78c.76-.68,1.4-1.26,2.14-1.85s1.5-1.14,2.29-1.71a27.93,27.93,0,0,0,4.61-4,12.61,12.61,0,0,0,2.87-5.79,17.14,17.14,0,0,0-.05-6.31c-.19-1.06-.43-2.09-.69-3.1a67.35,67.35,0,0,1,10.94,4.55,27.87,27.87,0,0,1,10.47,9.34,18.29,18.29,0,0,1,2.59,6.39,17.16,17.16,0,0,1,.23,3.45c0,1.19-.14,2.44-.13,3.76A14.3,14.3,0,0,0,363,92.47l1,.46.31-1a28.85,28.85,0,0,0,1.29-8.44A29,29,0,0,1,368,89.8a30.59,30.59,0,0,1,.89,8.16A.41.41,0,0,1,369,98h0a120.94,120.94,0,0,1,32.92,23.32c15.23,15,25,32.84,34.41,51.77,11.43,22.94,22.15,46.28,30.8,70.43,8,22.35,15,46,17.25,69.68C486.17,331.85,484.19,351.44,475.24,368.15Z"/>            </clipPath>        </defs>        <g clip-path="url(#outline)">            <rect fill="#9287C6" width="640" height="480" />        </g>    </g>    <g id="pattern">        <g clip-path="url(#outline)">            <path fill="#FFFFD2"  d="M384.05,219.12c3.34,3,7.31,5.4,11.72,6.06,5.17.77,10.43-1,14.92-3.63,19.84-11.72,20-35.18,14.83-55.26-4-15.32-9.67-31.33-20.23-43.6-12.33-14.34-30-19.83-48.55-17.73-3.3.37-6.78,1.06-9.16,3.37-3.24,3.14-3.42,8.23-3,12.73,1.11,12.44,5,24.44,8.95,36.28,4.79,14.29,9.75,28.58,16.53,42C373.69,206.63,378,213.74,384.05,219.12Z"/><path fill="#FFFFD2"  d="M251.36,395.27c2.9,5.77,9.54,4,12.3-.76.2-.36.4-.73.58-1.1a24.89,24.89,0,0,0,2.36-6.34,8.43,8.43,0,0,0-1.22-6.49c-2.63-3.54-8.39-4-12.43-4.22a4.13,4.13,0,0,0-2,.24c-3.5,1.69-1.3,10.48-.9,13.36A16.88,16.88,0,0,0,251.36,395.27Z"/><path fill="#FFFFD2"  d="M284.29,341.83a27.16,27.16,0,0,0-8.93-5.79,12,12,0,0,0-5.61-1c-8.45.95-11.16,18.09-11.21,24.75,0,3.34,3.1,5.82,5.63,7.41,4.3,2.71,9.16,4.83,14.24,4.82s10.37-2.57,12.53-7.16a15.18,15.18,0,0,0,.89-8.92A25.67,25.67,0,0,0,284.29,341.83Z"/><path fill="#FFFFD2"  d="M418.48,328.58c-3.29-4.92-9.64-7.16-15.54-6.73-10.48.77-21.25,8.32-26.46,17.29-2.74,4.71-6.42,12.69-5.63,18.24.65,4.65,4.82,6.64,8.88,7.06a54.75,54.75,0,0,0,28.39-4.39C417,356,421.43,348,421.21,338.21A18,18,0,0,0,418.48,328.58Z"/><path fill="#FFFFD2"  d="M487.2,351.12a44.09,44.09,0,0,0-4.93-3.83c-2.76-1.86-7-2.44-9.76-.35-2.09,1.57-3.22,4-4.21,6.29-.88,2-2.71,4.81-1.24,6.91,1.9,2.7,7.55,2.51,10.44,3a23.29,23.29,0,0,0,5.51.52,7.79,7.79,0,0,0,5-2.06,7.23,7.23,0,0,0,1.9-4.35,6.2,6.2,0,0,0-.91-4.17A14.53,14.53,0,0,0,487.2,351.12Z"/><path fill="#FFFFD2"  d="M485.49,323a11.83,11.83,0,0,0,2.95-5.09c.26-.76.49-1.53.72-2.28.79-2.56,1.93-5,2.5-7.61,1.13-5.26.39-10.6-4.37-13.8-3.4-2.28-7.59-2.67-11.46-3C467.6,290.6,464.65,290,464,297a40.71,40.71,0,0,0,1.6,10.18c1.39,4.78,1,9.89,4,14.11C473.11,326.1,481,327.14,485.49,323Z"/><path fill="#FFFFD2"  d="M229,349a10.08,10.08,0,0,0-6.35-1.76c-5.58.52-9.49,5.8-11,10.79a4.16,4.16,0,0,0-.22,2c.33,1.55,2.13,2.24,3.68,2.61,5.67,1.35,21.07,5.32,19.23-5.94A12,12,0,0,0,229,349Z"/><path fill="#FFFFD2"  d="M252,13c-15.16-1.33-32.1,1-48.38,3.28Q149.88,24,96.25,32.52l1.82,0c-19.15,1-39,6-53.95,13.45a39.3,39.3,0,0,0-8.7,5.5c-4.39,4-4.68,8.51-2.74,12.33C38,74.3,58.56,80.27,80.91,81.29s46.37-2.13,69.68-5.71c22.41-3.46,44.95-7.4,66-13.45S257.44,47.7,270.1,37.37c3.48-2.84,6.44-5.86,7.37-8.91C279.93,20.41,267.18,14.34,252,13Z"/><path fill="#FFFFD2"  d="M247.44,430.69c-13.15.19-26.41,2.59-39.37.37l-4.69,1.82c-6.89,12.07-.48,28.37,10.82,36.46s25.94,9.73,39.83,9.71a209.09,209.09,0,0,0,32.29-2.55,6.24,6.24,0,0,0,3-1,6,6,0,0,0,1.72-3.89c1.56-10.06-.67-21-7.42-28.59C274.91,433.14,260.59,430.5,247.44,430.69Z"/><path fill="#FFFFD2"  d="M226.9,328c5-3.42,9.31-7.65,10.18-14.21.85-6.41-2.72-12.94-8.11-16.52-7.43-4.92-15.56-2.66-23.35-5.75-5.14-2-10.17-6.42-15.86-6.66-1.07,0-6.17.5-5.94,2.45-.93-8-.21.75-2-7.12a36.22,36.22,0,0,0-3.26-9.8c-4.8-8.52-15.72-11.66-25.4-10.86-12.12,1-22.76,6.61-32.35,14.26-3.29-2.91-6.63-5.78-10-8.57-11.1-9.14-23-17.78-36.7-22.18S44.5,239,32.54,247c-12.89,8.62-19.11,24.35-22,39.59l-.37,5.74c-3.8,34.09,19.38,56.19,37.69,85.19s51,49.9,85.28,49.07c14.09-.34,38.12,2.64,49.77-5.29,9.57-6.51,19-15.68,19-28.07,0-7.88-4.42-15.32-7.61-22.36-2.94-6.5-5.68-15.69-.32-20.77,7.36-7,16.26-12.16,25-17.31C221.62,331.3,224.36,329.77,226.9,328Z"/><path fill="#FFFFD2"  d="M442.22,368.61a27.05,27.05,0,0,0-8.5,6.42,12,12,0,0,0-2.86,4.92c-2,8.27,13.18,16.68,19.42,19,3.13,1.16,6.53-.93,8.89-2.76,4-3.11,7.68-6.95,9.4-11.73s1.13-10.62-2.44-14.23a15.25,15.25,0,0,0-8.08-3.89A25.69,25.69,0,0,0,442.22,368.61Z"/>            <g opacity="0.6" ><path fill="#FFFFFF"  d="M285.42,418.84c2.41-25.61,23.86-48.92,47.26-49.49,24.85-.61,52.31,18.62,54.82,48.11.12,1.49,1.19.46-.06,1.63-1.4,1.32-6.65,1.94-9.64,2.8-14.1,4.06-27.59,4.48-43.77,4.36-16.48-.12-33.16-4.21-48.14-7.41"/></g>        </g>    </g>    <g id="mask">        <g opacity="0.1" ><path d="M484.87,334.92c.23,1.69-3.51,6.76-4.43,8.49-1.82,3.4-3.69,6.78-5.68,10.08a107.84,107.84,0,0,1-13.23,18.12,63.16,63.16,0,0,1-11,9.46,60.26,60.26,0,0,1-6.26,3.67,33.15,33.15,0,0,1-5.53,2.51c-4,1.15-6.15-2.22-7.32-5.52A39.64,39.64,0,0,1,429,364.19a117.62,117.62,0,0,1,2.55-14.42l-1.95,4.49c-1.34,3.1-1.84,6.94-2.61,10.23q-1.27,5.37-2.29,10.81T423,386c-.5,3.72-2.44,6.68-2.06,10.56.28,3,1.35,6,1.24,9a.63.63,0,0,0,.09.45c.16.19.46.15.69.08a107.58,107.58,0,0,0,24.47-9.43c9.47-5.3,17.38-11.48,23.77-20.11a59.55,59.55,0,0,0,8.22-14.57C482.52,353.2,486.14,344.07,484.87,334.92Z"/></g><g opacity="0.1" ><path d="M250.8,401a5.18,5.18,0,0,1,.29-1.73c-17.38-5.65-32.91-19.19-40.43-35.7-4-8.82-6.13-18.92-6.19-30.43-.12-27.61,3.21-61,10.78-87.24,10.89-37.75,30.59-71.48,52.33-104.45,10.77-16.34,17.62-34.19,32.59-46.79-23.63,13.12-38,28.59-53.16,54.08-14.43,24.28-29.76,53.17-39.76,79.22s-15,53.6-17.25,81.33c-2,24.3-2.4,58.2,14.72,78,10,11.56,21.38,19,39.1,21.26q3.44.43,7,.93Z"/></g><g opacity="0.1" ><path d="M389.4,411.67c-.71-9.29.31-9.53.31-9.54-5.29,1.25-9.82,4.44-15.12,5.67a158.69,158.69,0,0,1-19.41,2.95c-22,2.28-44.35.82-66.16-2.85-1.83-5.45-1.1-11.68-.07-17.2.53-2.84,2.35-6.23,3-8.57-4.69,6.41-6,16-7.94,23.12a.28.28,0,0,1,0,.09,66.59,66.59,0,0,1-2.5,9.52q2.72.6,5.3,1.21c14.89,5.54,32.71,6.73,47.92,6.86,15.66.12,34.69-1.09,45-4.91,2.86-1.06,9.11-1.62,10.47-3C391.37,413.7,389.52,413.28,389.4,411.67Z"/></g>        <path fill="none"  d="M12.49,139.53a2.46,2.46,0,0,1-.26-2.56A5.84,5.84,0,0,1,14,134.9a17.76,17.76,0,0,1,6.26-3.22"/><path fill="none"  d="M2,136.7a6.53,6.53,0,0,1,3.68-6,12,12,0,0,1,1.55-.58l4.51-1.47"/><g opacity="0.1" ><path fill="#fff"  d="M380.26,102.62c6.05,5.3,10.42,13.68,14.49,20.5,4.46,7.47,8.87,15,13.36,22.42,13,21.71,26.15,43.75,37,66.65a328.76,328.76,0,0,1,23.41,68.9c2.75,12.34,4.9,24.81,6.59,37.33,1.4,10.34,4.07,22.69-2.47,31.88,4.28-6,9.86-10.6,11.34-14.65,5.28-14.39.19-32.19-2.48-46.68-5.44-29.5-15.48-57.88-26.94-85.52C443.24,176.24,429,150.37,409.7,128,393.48,109.12,380.48,102.81,380.26,102.62Z"/></g>    </g>    <g id="outline">        <path fill="none"  d="M179.78,319.61a40.81,40.81,0,0,0,6.2,5.27c.19-4.32.53-8.64,1-12.92-.44-.4-.87-.81-1.29-1.25a28.66,28.66,0,0,1-3.76-4.79,26,26,0,0,1-1.4-2.6,26.84,26.84,0,0,0-1.38,3.33,23.25,23.25,0,0,0-.88,11.28C178.74,318.5,179.25,319.06,179.78,319.61Z"/><path fill="none"  d="M412.16,127.89c.41-.41.75-.78,1-1,4.44-5.3,5.5-12.57,9.83-18,3.85-4.79,9.93-6.75,14.06-11.21a21.06,21.06,0,0,0,5.43-11.57,16.34,16.34,0,0,0,0-5.36c-.15-.79-.39-2.63-1.06-3.2-.93-.79-4.39-.92-5.24-.52-2.46,1.16-4.5,3.64-7.07,4.9a43.93,43.93,0,0,1-8.28,3c-11.84,3.11-33,4-35.43,19A133.6,133.6,0,0,1,412.16,127.89Z"/><path fill="none"  d="M250.1,131.88a8.54,8.54,0,0,0,1.56,5.17,191.35,191.35,0,0,1,15.79-19.44,122.73,122.73,0,0,1,9.6-9.21c-5-14.07-20.35-23.27-34-14-4.42,3-8.16,6.9-12.72,9.69a24.52,24.52,0,0,1-6.2,2.79c-2.45.68-3.12,0-4.39,2.56-1.44,2.9-.07,4.47,2.33,6.45,5.67,4.68,12.24,3,18.88,3.44,3.41.23,6.79,1.28,8.43,4.51C250.69,126.41,250.07,129.09,250.1,131.88Z"/><path fill="none"  d="M467.15,243.54c-8.65-24.15-19.37-47.49-30.8-70.43-9.42-18.93-19.18-36.8-34.41-51.77A120.94,120.94,0,0,0,369,98h0a.41.41,0,0,0-.11-.07A30.59,30.59,0,0,0,368,89.8a29,29,0,0,0-2.44-6.32,28.85,28.85,0,0,1-1.29,8.44l-.31,1-1-.46a14.3,14.3,0,0,1-8.12-12.94c0-1.32.1-2.57.13-3.76a17.16,17.16,0,0,0-.23-3.45,18.29,18.29,0,0,0-2.59-6.39,27.87,27.87,0,0,0-10.47-9.34A67.35,67.35,0,0,0,330.76,52c.26,1,.5,2,.69,3.1a17.14,17.14,0,0,1,.05,6.31,12.61,12.61,0,0,1-2.87,5.79,27.93,27.93,0,0,1-4.61,4c-.79.57-1.56,1.14-2.29,1.71s-1.38,1.17-2.14,1.85c-1.42,1.32-3.1,2.53-3.89,3.78s-.71,3-.5,4.87a17.71,17.71,0,0,1,.21,3.1,5.13,5.13,0,0,1-.38,1.77,3.65,3.65,0,0,1-1.23,1.58l-.54.38L312.7,90a35,35,0,0,0-7.58-2.94,37,37,0,0,0-7-1c.52,1.13.93,2.28,1.34,3.42L301,93.9c.23.67.5,1.33.76,2l-.54.28a80,80,0,0,0-7.76,4c-20,11.78-34.51,30.8-46.79,50.08a377.44,377.44,0,0,0-52.43,133.53c-1.64,9-3,18.11-3.91,27.25-.18,1.83-.34,3.71-.48,5.61-.22,2.91-.39,5.89-.49,8.91a152.79,152.79,0,0,0,.9,23.47,98.74,98.74,0,0,0,3.07,15.36c4.1,14.13,11.8,26.59,25.43,34.31,2.13,1.21,13,3.8,8.38,7.39-2.4,1.85-14.48,3-13.86,6.68.7,4.07,12.39,4.42,15.14,4.64a154.42,154.42,0,0,0,17.61.25c.52,0,1.44,0,2.41,0,0-.46.07-.93.09-1.4.11-3.79.06-7.79.17-11.66s.13-7.78.11-11.66a160.15,160.15,0,0,0-1.55-23.18,61.08,61.08,0,0,0-2.71-11.25,32.45,32.45,0,0,0-2.45-5.24,18,18,0,0,0-3.63-4.52c3.16,2.36,5.25,5.88,6.81,9.47a60.89,60.89,0,0,1,3.42,11.28,143.87,143.87,0,0,1,2.44,23.39c.15,3.91.19,7.83.18,11.73s.09,7.72,0,11.74a20.91,20.91,0,0,1-.26,3.1,11.55,11.55,0,0,1-.37,1.6,6.21,6.21,0,0,1-.77,1.71,7.85,7.85,0,0,1-2.66,2.36,26.17,26.17,0,0,1-2.8,1.34c-.91.38-1.8.74-2.59,1.14a5.88,5.88,0,0,0-1.9,1.33,2,2,0,0,0-.5,1.61,3.66,3.66,0,0,0,.78,1.92,7.32,7.32,0,0,0,1.07,1.09,5.48,5.48,0,0,1,.24-3.12,6.52,6.52,0,0,1,2.78-3.36,8,8,0,0,1,2-.77,10.23,10.23,0,0,1,1.87-.39,13.21,13.21,0,0,1,3.88-.05,13.14,13.14,0,0,1-3.14,2.28c-1.11.61-2.2,1.07-3,1.5a9.26,9.26,0,0,0-2.27,1.93,12.58,12.58,0,0,0-1.91,3l.46-.38a13.38,13.38,0,0,0,2.19,1.15,20.84,20.84,0,0,0,5.23,1.44c.82.1,1.64.16,2.46.22a2.79,2.79,0,0,1-.44-.92,3.54,3.54,0,0,1,.15-2.18,7.19,7.19,0,0,1,2.48-3,10,10,0,0,1,3.23-1.61,7.37,7.37,0,0,1,3.65-.16,28.07,28.07,0,0,1-2.6,2.27c-.84.67-1.66,1.29-2.49,1.91a20.77,20.77,0,0,0-2.22,1.75,3.27,3.27,0,0,0-.74,1,2.59,2.59,0,0,0-.2,1.56l.56-.58a49.21,49.21,0,0,0,7.48-.28,43.19,43.19,0,0,0,5.56-1,14.79,14.79,0,0,0,4.83-2.25,23.12,23.12,0,0,0,7-8.46c.22-.42.4-.85.6-1.27l.47-1.26c.25-.91.52-1.81.73-2.75.46-1.87.84-3.78,1.26-5.68.81-3.81,1.63-7.64,2.6-11.44a116.37,116.37,0,0,1,3.48-11.22,49.61,49.61,0,0,1,5.2-10.5c-3.76,6.86-5.69,14.47-7.25,22-.76,3.66-1.39,7.34-2,11a311.44,311.44,0,0,0,33.1,5.43c21.48,2.29,43.63,2.35,64.74-2.67,2.92-.7,5.72-1.56,8.45-2.51-.74-3.71-.95-7.41-1.41-11-.11-.92-.24-1.84-.39-2.75l-.42-2.8c-.27-1.87-.52-3.74-.87-5.56a20.05,20.05,0,0,0-.62-2.68c-.28-.88-.61-1.77-.92-2.67l-.92-2.69-.81-2.73h0l2.49,5.1c.41.85.85,1.69,1.25,2.57a19.6,19.6,0,0,1,1,2.74c.53,1.86.94,3.7,1.38,5.55l.6,2.77c.18.95.35,1.9.49,2.84.56,3.78.9,7.53,1.7,11.11a26.29,26.29,0,0,0,4.28,9.83,18.43,18.43,0,0,0,8,6.59,28.45,28.45,0,0,0,5.2,1.29,47.43,47.43,0,0,0,5.46.57c1.29.06,2.58.05,3.87,0l.59.61a2.59,2.59,0,0,0-.2-1.56,3.27,3.27,0,0,0-.74-1,22.09,22.09,0,0,0-2.22-1.76c-.83-.61-1.65-1.24-2.49-1.9a28.07,28.07,0,0,1-2.6-2.27,7.37,7.37,0,0,1,3.65.16,9.79,9.79,0,0,1,3.23,1.61,7.13,7.13,0,0,1,2.48,3,3.62,3.62,0,0,1,.15,2.18,2.69,2.69,0,0,1-.42.89h.19a24.58,24.58,0,0,0,5.27-.85,16.59,16.59,0,0,0,4.4-1.92l.46.38a12.58,12.58,0,0,0-1.91-3,9.26,9.26,0,0,0-2.27-1.93c-.84-.44-1.93-.89-3-1.5a13.42,13.42,0,0,1-3.14-2.28,13.23,13.23,0,0,1,3.88,0,12.23,12.23,0,0,1,1.87.39,8.4,8.4,0,0,1,2,.78,6.48,6.48,0,0,1,2.78,3.36,5.44,5.44,0,0,1,.22,3.16,4.45,4.45,0,0,0,1.9-3.09,2.34,2.34,0,0,0-.42-1.67,5.2,5.2,0,0,0-1.72-1.32c-1.49-.78-3.31-1.33-5.14-2.13a12.39,12.39,0,0,1-2.75-1.61,6.55,6.55,0,0,1-1.25-1.27l-.26-.39a3,3,0,0,1-.24-.47,5.37,5.37,0,0,1-.29-.92l-.82-5.75a79.22,79.22,0,0,1-.91-11.47,67,67,0,0,1,2.93-17c1.53-5.46,2.92-10.91,4.36-16.39,1-3.67,2-7.32,3.22-10.91a53.6,53.6,0,0,1,2.13-5.29,15.48,15.48,0,0,1,2.63-4,7.52,7.52,0,0,1,.64-.62,13,13,0,0,0-2.86,4.8,52.4,52.4,0,0,0-1.78,5.35c-1,3.62-1.82,7.3-2.56,11-1.48,7.43-3.22,14.81-4.56,22.27a66.6,66.6,0,0,0-.68,21.91l.39,2.54c5.49.92,11.5.5,16.94.34a157.31,157.31,0,0,0,19.15-1.46c2.36-.37,3.95,0,2.58-2.3-1.61-2.7-4-4-6.93-5-2.41-.83-9.3-1-10.71-3.45-.77-1.35.08-2.06,1-2.94,1.35-1.35,4-2.21,5.6-3.25q3-1.87,5.8-4a69.68,69.68,0,0,0,18.8-22.2c8.95-16.71,10.93-36.3,9.16-54.93C482.16,289.49,475.15,265.89,467.15,243.54Z"/><path fill="none"  d="M185.94,325.87l0-.76a27.41,27.41,0,0,1-7.32-4.24,34.69,34.69,0,0,1-6.47-6.73,36.51,36.51,0,0,1-4.53-8.21,38.45,38.45,0,0,1-1.8-5.73,27.93,27.93,0,0,0-2.23,4.23,35.15,35.15,0,0,0-2.31,7.79,42.8,42.8,0,0,0-.62,5.07,17.5,17.5,0,0,0,5.9,2.45,20.39,20.39,0,0,1-9.3-4.37,34.78,34.78,0,0,1-7-7.71,54,54,0,0,1-4.87-9.21,72.69,72.69,0,0,1-2.74-8,23.48,23.48,0,0,0-1.83,5.05,26.15,26.15,0,0,0-.62,7.22,32.12,32.12,0,0,0,3.95,13.82l2.14,3.85-3.88-2.09a49.14,49.14,0,0,1-12.36-9.49,39.84,39.84,0,0,1-4.82-6.21c-.41-.65-.79-1.33-1.17-2-.07,1.69-.09,3.4-.06,5.09a72.69,72.69,0,0,0,.91,10.43,47.32,47.32,0,0,0,7.3,19.26l1.46,2.13-2.56,0a32.15,32.15,0,0,1-12.65-2.71,46.31,46.31,0,0,1-5.72-2.87c-.58-.35-1.15-.71-1.72-1.07.9,1.76,1.88,3.49,2.92,5.17a74.35,74.35,0,0,0,6,8.33,55.16,55.16,0,0,0,15.52,13.19,41.59,41.59,0,0,0,9.38,3.81c2.75-1.38,5.42-2.92,8-4.56a95.74,95.74,0,0,0,8.91-6.38,69.38,69.38,0,0,1-8.27,7.31,77.38,77.38,0,0,1-9.27,6.07q-2.43,1.37-5,2.51t-5.2,2.08c-1.31.46-2.65.85-4,1.2,3.37.65,6.75,1.23,10.14,1.64a80.63,80.63,0,0,0,17,.43,53.52,53.52,0,0,0,8.34-1.46A44.49,44.49,0,0,0,182,362c.54-1.44,1.05-2.89,1.49-4.37.13-.43.24-.87.36-1.3.55-1.93,1.06-3.87,1.47-5.84a57.16,57.16,0,0,1-.85,7.37,51.34,51.34,0,0,1-1.84,7.25,30.72,30.72,0,0,1-3.18,6.9c-.35.56-.74,1.11-1.15,1.64a83.57,83.57,0,0,0,9.67-3.46c1.1-.53,2.24-1,3.33-1.53a92.52,92.52,0,0,1-4.4-18.64A140.06,140.06,0,0,1,185.94,325.87Zm-5.19.29h.06l.09.21Z"/><path d="M180.75,326.16l.15.21-.09-.21Z"/><path d="M480.36,276.05c-6.48-25.08-15.82-49.33-26.42-72.92-5.39-12-11.13-23.86-17-35.62-5.06-10.07-10.07-20.09-16.63-29.28q-3-4.12-6.2-8.07a22.91,22.91,0,0,0,2.31-2.63c2.36-3.24,3.7-7,5.37-10.62a25.55,25.55,0,0,1,9.77-11.36c6.21-4.06,11.3-8.51,13.33-16,1.36-5,1.74-13.25-3.51-16.29a5.22,5.22,0,0,0-5.61.18c-1.78,1.07-3.18,2.82-4.91,4a30.41,30.41,0,0,1-7.15,3.44c-13.23,4.56-37.27,4.64-41,21.21q-3.08-1.94-6.25-3.69c-2.34-1.29-4.74-2.48-7.18-3.58a27.57,27.57,0,0,0-.48-5.2,30.21,30.21,0,0,0-3.38-9.22L364,78.09l.09,2.73a28.38,28.38,0,0,1-1.23,9.4,12.24,12.24,0,0,1-5.61-10.66c0-1.17.18-2.4.25-3.69a19.88,19.88,0,0,0-.19-4,21.1,21.1,0,0,0-2.81-7.4,27,27,0,0,0-5-6A36.37,36.37,0,0,0,343.12,54a76,76,0,0,0-14.07-5.68l-2.65-.83.77,2.66c1.06,3.68,2.15,7.36,1.49,10.71a10,10,0,0,1-2.19,4.52,25.16,25.16,0,0,1-4.09,3.66c-.77.59-1.55,1.18-2.32,1.82s-1.56,1.37-2.22,2l-2.15,2a10.92,10.92,0,0,0-2.11,2.48,6.92,6.92,0,0,0-.89,3.35,19.27,19.27,0,0,0,.25,3.1,16.06,16.06,0,0,1,.29,2.69,2.85,2.85,0,0,1-.32,1.34,35.4,35.4,0,0,0-7.4-2.42,33.9,33.9,0,0,0-8.52-.72l-1.14,0,.6.94a30,30,0,0,1,2,4.14L300,93.47a96.27,96.27,0,0,0-20.52,12.89c-3.76-9.62-11.93-17.65-22.55-18.89-12-1.4-18.91,8.34-28.13,14a25.62,25.62,0,0,1-8.15,3c-2,.45-3.58,1-4.52,3-1.84,3.85,1,8.29,3.91,10.68,3.83,3.17,9,4.33,13.83,4.3,2.69,0,5.41-.43,8.08,0,6.35,1,4.78,6.35,5.16,11a10.06,10.06,0,0,0,2.67,6.24,342.92,342.92,0,0,0-22.47,38.07,378.46,378.46,0,0,0-27.51,69.13q-5.15,17.8-8.5,36.06c-1.46,8-2.9,16.55-3.93,25.28a26.8,26.8,0,0,1-5.29-8.81L181,296.53l-1.58,2.62a26,26,0,0,0-2.9,6.74,22.68,22.68,0,0,0-.78,7.28c0,.64.11,1.28.2,1.9-.58-.78-1.13-1.57-1.64-2.39a36.89,36.89,0,0,1-2.15-3.82,38.8,38.8,0,0,1-1.78-4,51.15,51.15,0,0,1-2.4-8.44l-.59-3.27-2,2.63a30.91,30.91,0,0,0-4.2,7.71,35.07,35.07,0,0,0-1.94,8.46c-.14,1.42-.2,2.84-.2,4.25-.51-.38-1-.78-1.51-1.2A34,34,0,0,1,151,307.2a53,53,0,0,1-4.44-9.2,81.11,81.11,0,0,1-2.88-9.81l-.42-1.76-1,1.53a24.75,24.75,0,0,0-3.18,7.09,27.92,27.92,0,0,0-.94,7.72,33.88,33.88,0,0,0,1,7.7c.29,1.15.64,2.28,1,3.4a45.51,45.51,0,0,1-8.05-7,40.41,40.41,0,0,1-4.44-5.83,39.89,39.89,0,0,1-3.24-6.55l-2.05-5.3-.77,5.59a74.57,74.57,0,0,0-.61,10.93,70.85,70.85,0,0,0,1,10.87,56.73,56.73,0,0,0,2.8,10.6,42.34,42.34,0,0,0,3.67,7.5,31.91,31.91,0,0,1-9-2.25,53.84,53.84,0,0,1-5.48-2.61,46.66,46.66,0,0,1-5.11-3.25L105.39,324l1.77,3.94a70.25,70.25,0,0,0,5.1,9.26,77.33,77.33,0,0,0,6.3,8.43,56,56,0,0,0,16.27,13.25,42.29,42.29,0,0,0,8.56,3.29,68.32,68.32,0,0,1-10,3.94,51.08,51.08,0,0,1-10.48,2.09l-8.22.73,8,2a136.59,136.59,0,0,0,17.22,3.29,72.36,72.36,0,0,0,17.65.11,46.26,46.26,0,0,0,8.68-1.91,41.14,41.14,0,0,0,15.07-8.58l-.24.62a34.72,34.72,0,0,1-3.44,6.26,13.94,13.94,0,0,1-5,4.46l-8.82,4.33,9.69-1.87a78.05,78.05,0,0,0,15.66-4.74c1.08-.47,2.14-1,3.19-1.5A72.69,72.69,0,0,0,198.25,383a53.84,53.84,0,0,0,16.37,16.68,51.84,51.84,0,0,0,5.28,3c.46.23,2,1.13,3.25,1.71l-.31.13c-1.79.62-3.6,1.16-5.38,1.81-3.43,1.25-9.09,3.22-6.82,8,1.88,3.91,8,4.8,11.71,5.38a116,116,0,0,0,20,1c1.43,0,3.4.1,5.38.06a2.69,2.69,0,0,1-.2.38c-.72,1.09-2.44,1.88-4.19,2.6-.89.37-1.82.73-2.77,1.2a8.86,8.86,0,0,0-2.84,2,5,5,0,0,0-1,1.78,5.64,5.64,0,0,0-.21,2,6.67,6.67,0,0,0,1.35,3.45,12.82,12.82,0,0,0,5.35,3.8,24,24,0,0,0,6,1.61,48.83,48.83,0,0,0,12-.1,45.78,45.78,0,0,0,5.91-1.18,17.81,17.81,0,0,0,5.67-2.77,24.71,24.71,0,0,0,7.54-9.58c.22-.46.41-.93.61-1.39l.5-1.5c.25-1,.51-2,.69-2.92s.44-2.19.64-3.28c22.29,4.82,45.24,7.67,68.06,6.77a160.11,160.11,0,0,0,32.55-4.44c2.33-.58,4.65-1.23,6.94-1.95a24.78,24.78,0,0,0,1,2.89,30.31,30.31,0,0,0,2.83,5.22,20.79,20.79,0,0,0,9.18,7.7,31,31,0,0,0,5.77,1.48,51.6,51.6,0,0,0,5.81.64,49.31,49.31,0,0,0,5.83-.05c1-.07,1.92-.15,2.94-.29a22.64,22.64,0,0,0,3-.66,19.37,19.37,0,0,0,5.57-2.54,9.85,9.85,0,0,0,2.39-2.31,6.56,6.56,0,0,0,1.25-3.34,5.91,5.91,0,0,0-.15-1.9,5.42,5.42,0,0,0-.85-1.78,8,8,0,0,0-2.72-2.14c-1.87-.95-3.7-1.48-5.32-2.19a10.49,10.49,0,0,1-2.16-1.2,3.42,3.42,0,0,1-.74-.73l-.15-.19c0-.05-.06-.09-.09-.15a2,2,0,0,1-.14-.33l.85.08a142.39,142.39,0,0,0,20.86,0c5.57-.29,11.91-.21,17.3-1.84,3.77-1.13,2.9-4.86.85-7.64-3.27-4.44-9.45-5.46-14.45-6.64l-.43-.13c.93-.57,1.95-1.32,2.33-1.55A77.78,77.78,0,0,0,462.75,389c14-12.67,21.83-30.36,24.28-48.89C489.88,318.55,485.74,296.86,480.36,276.05ZM420.78,84.89a43.93,43.93,0,0,0,8.28-3c2.57-1.26,4.61-3.74,7.07-4.9.85-.4,4.31-.27,5.24.52.67.57.91,2.41,1.06,3.2a16.34,16.34,0,0,1,0,5.36A21.06,21.06,0,0,1,437,97.67c-4.13,4.46-10.21,6.42-14.06,11.21-4.33,5.39-5.39,12.66-9.83,18-.23.27-.57.64-1,1a133.6,133.6,0,0,0-26.81-24C387.82,88.94,408.94,88,420.78,84.89ZM249.37,123.8c-1.64-3.23-5-4.28-8.43-4.51-6.64-.45-13.21,1.24-18.88-3.44-2.4-2-3.77-3.55-2.33-6.45,1.27-2.55,1.94-1.88,4.39-2.56a24.52,24.52,0,0,0,6.2-2.79c4.56-2.79,8.3-6.7,12.72-9.69,13.66-9.23,29,0,34,14a122.73,122.73,0,0,0-9.6,9.21,191.35,191.35,0,0,0-15.79,19.44,8.54,8.54,0,0,1-1.56-5.17C250.07,129.09,250.69,126.41,249.37,123.8ZM177.93,313.15a23.91,23.91,0,0,1,1.19-6.5,26.84,26.84,0,0,1,1.38-3.33,26,26,0,0,0,1.4,2.6,28.66,28.66,0,0,0,3.76,4.79c.42.44.85.85,1.29,1.25-.44,4.28-.78,8.6-1,12.92a40.81,40.81,0,0,1-6.2-5.27c-.53-.55-1-1.11-1.54-1.68A24.11,24.11,0,0,1,177.93,313.15Zm10.07,57a83.57,83.57,0,0,1-9.67,3.46c.41-.53.8-1.08,1.15-1.64a30.72,30.72,0,0,0,3.18-6.9,51.34,51.34,0,0,0,1.84-7.25,57.16,57.16,0,0,0,.85-7.37c-.41,2-.92,3.91-1.47,5.84-.12.43-.23.87-.36,1.3-.44,1.48-1,2.93-1.49,4.37a44.49,44.49,0,0,1-16.44,8.27,53.52,53.52,0,0,1-8.34,1.46,80.63,80.63,0,0,1-17-.43c-3.39-.41-6.77-1-10.14-1.64,1.35-.35,2.69-.74,4-1.2q2.65-.93,5.2-2.08t5-2.51a77.38,77.38,0,0,0,9.27-6.07,69.38,69.38,0,0,0,8.27-7.31,95.74,95.74,0,0,1-8.91,6.38c-2.61,1.64-5.28,3.18-8,4.56a41.59,41.59,0,0,1-9.38-3.81A55.16,55.16,0,0,1,120,344.39a74.35,74.35,0,0,1-6-8.33c-1-1.68-2-3.41-2.92-5.17.57.36,1.14.72,1.72,1.07a46.31,46.31,0,0,0,5.72,2.87,32.15,32.15,0,0,0,12.65,2.71l2.56,0-1.46-2.13a47.32,47.32,0,0,1-7.3-19.26,72.69,72.69,0,0,1-.91-10.43c0-1.69,0-3.4.06-5.09.38.67.76,1.35,1.17,2a39.84,39.84,0,0,0,4.82,6.21,49.14,49.14,0,0,0,12.36,9.49l3.88,2.09-2.14-3.85a32.12,32.12,0,0,1-3.95-13.82,26.15,26.15,0,0,1,.62-7.22,23.48,23.48,0,0,1,1.83-5.05,72.69,72.69,0,0,0,2.74,8,54,54,0,0,0,4.87,9.21,34.78,34.78,0,0,0,7,7.71,20.39,20.39,0,0,0,9.3,4.37,17.5,17.5,0,0,1-5.9-2.45,42.8,42.8,0,0,1,.62-5.07,35.15,35.15,0,0,1,2.31-7.79,27.93,27.93,0,0,1,2.23-4.23,38.45,38.45,0,0,0,1.8,5.73,36.51,36.51,0,0,0,4.53,8.21,34.69,34.69,0,0,0,6.47,6.73,27.41,27.41,0,0,0,7.32,4.24l0,.76a140.06,140.06,0,0,0,1,24.11,92.52,92.52,0,0,0,4.4,18.64C190.24,369.16,189.1,369.62,188,370.15Zm287.24-2a69.68,69.68,0,0,1-18.8,22.2q-2.81,2.16-5.8,4c-1.64,1-4.25,1.9-5.6,3.25-.89.88-1.74,1.59-1,2.94,1.41,2.48,8.3,2.62,10.71,3.45,3,1,5.32,2.31,6.93,5,1.37,2.3-.22,1.93-2.58,2.3A157.31,157.31,0,0,1,440,412.8c-5.44.16-11.45.58-16.94-.34l-.39-2.54a66.6,66.6,0,0,1,.68-21.91c1.34-7.46,3.08-14.84,4.56-22.27.74-3.7,1.54-7.38,2.56-11a52.4,52.4,0,0,1,1.78-5.35,13,13,0,0,1,2.86-4.8,7.52,7.52,0,0,0-.64.62,15.48,15.48,0,0,0-2.63,4,53.6,53.6,0,0,0-2.13,5.29c-1.24,3.59-2.26,7.24-3.22,10.91-1.44,5.48-2.83,10.93-4.36,16.39a67,67,0,0,0-2.93,17,79.22,79.22,0,0,0,.91,11.47l.82,5.75a5.37,5.37,0,0,0,.29.92,3,3,0,0,0,.24.47l.26.39a6.55,6.55,0,0,0,1.25,1.27,12.39,12.39,0,0,0,2.75,1.61c1.83.8,3.65,1.35,5.14,2.13a5.2,5.2,0,0,1,1.72,1.32,2.34,2.34,0,0,1,.42,1.67,4.45,4.45,0,0,1-1.9,3.09,5.44,5.44,0,0,0-.22-3.16,6.48,6.48,0,0,0-2.78-3.36,8.4,8.4,0,0,0-2-.78,12.23,12.23,0,0,0-1.87-.39,13.23,13.23,0,0,0-3.88,0,13.42,13.42,0,0,0,3.14,2.28c1.11.61,2.2,1.06,3,1.5a9.26,9.26,0,0,1,2.27,1.93,12.58,12.58,0,0,1,1.91,3l-.46-.38a16.59,16.59,0,0,1-4.4,1.92,24.58,24.58,0,0,1-5.27.85h-.19a2.69,2.69,0,0,0,.42-.89,3.62,3.62,0,0,0-.15-2.18,7.13,7.13,0,0,0-2.48-3,9.79,9.79,0,0,0-3.23-1.61,7.37,7.37,0,0,0-3.65-.16,28.07,28.07,0,0,0,2.6,2.27c.84.66,1.66,1.29,2.49,1.9a22.09,22.09,0,0,1,2.22,1.76,3.27,3.27,0,0,1,.74,1,2.59,2.59,0,0,1,.2,1.56l-.59-.61c-1.29.05-2.58.06-3.87,0a47.43,47.43,0,0,1-5.46-.57,28.45,28.45,0,0,1-5.2-1.29,18.43,18.43,0,0,1-8-6.59,26.29,26.29,0,0,1-4.28-9.83c-.8-3.58-1.14-7.33-1.7-11.11-.14-.94-.31-1.89-.49-2.84l-.6-2.77c-.44-1.85-.85-3.69-1.38-5.55a19.6,19.6,0,0,0-1-2.74c-.4-.88-.84-1.72-1.25-2.57l-2.49-5.1h0l.81,2.73.92,2.69c.31.9.64,1.79.92,2.67a20.05,20.05,0,0,1,.62,2.68c.35,1.82.6,3.69.87,5.56l.42,2.8c.15.91.28,1.83.39,2.75.46,3.6.67,7.3,1.41,11-2.73.95-5.53,1.81-8.45,2.51-21.11,5-43.26,5-64.74,2.67a311.44,311.44,0,0,1-33.1-5.43c.63-3.69,1.26-7.37,2-11,1.56-7.58,3.49-15.19,7.25-22a49.61,49.61,0,0,0-5.2,10.5,116.37,116.37,0,0,0-3.48,11.22c-1,3.8-1.79,7.63-2.6,11.44-.42,1.9-.8,3.81-1.26,5.68-.21.94-.48,1.84-.73,2.75l-.47,1.26c-.2.42-.38.85-.6,1.27a23.12,23.12,0,0,1-7,8.46,14.79,14.79,0,0,1-4.83,2.25,43.19,43.19,0,0,1-5.56,1,49.21,49.21,0,0,1-7.48.28l-.56.58a2.59,2.59,0,0,1,.2-1.56,3.27,3.27,0,0,1,.74-1,20.77,20.77,0,0,1,2.22-1.75c.83-.62,1.65-1.24,2.49-1.91a28.07,28.07,0,0,0,2.6-2.27,7.37,7.37,0,0,0-3.65.16,10,10,0,0,0-3.23,1.61,7.19,7.19,0,0,0-2.48,3,3.54,3.54,0,0,0-.15,2.18,2.79,2.79,0,0,0,.44.92c-.82-.06-1.64-.12-2.46-.22a20.84,20.84,0,0,1-5.23-1.44,13.38,13.38,0,0,1-2.19-1.15l-.46.38a12.58,12.58,0,0,1,1.91-3,9.26,9.26,0,0,1,2.27-1.93c.84-.43,1.93-.89,3-1.5a13.14,13.14,0,0,0,3.14-2.28,13.21,13.21,0,0,0-3.88.05,10.23,10.23,0,0,0-1.87.39,8,8,0,0,0-2,.77,6.52,6.52,0,0,0-2.78,3.36,5.48,5.48,0,0,0-.24,3.12,7.32,7.32,0,0,1-1.07-1.09,3.66,3.66,0,0,1-.78-1.92,2,2,0,0,1,.5-1.61,5.88,5.88,0,0,1,1.9-1.33c.79-.4,1.68-.76,2.59-1.14a26.17,26.17,0,0,0,2.8-1.34,7.85,7.85,0,0,0,2.66-2.36,6.21,6.21,0,0,0,.77-1.71,11.55,11.55,0,0,0,.37-1.6,20.91,20.91,0,0,0,.26-3.1c.05-4-.08-7.81,0-11.74s0-7.82-.18-11.73a143.87,143.87,0,0,0-2.44-23.39,60.89,60.89,0,0,0-3.42-11.28c-1.56-3.59-3.65-7.11-6.81-9.47a18,18,0,0,1,3.63,4.52,32.45,32.45,0,0,1,2.45,5.24,61.08,61.08,0,0,1,2.71,11.25,160.15,160.15,0,0,1,1.55,23.18c0,3.88,0,7.76-.11,11.66s-.06,7.87-.17,11.66c0,.47,0,.94-.09,1.4-1,0-1.89,0-2.41,0a154.42,154.42,0,0,1-17.61-.25c-2.75-.22-14.44-.57-15.14-4.64-.62-3.64,11.46-4.83,13.86-6.68,4.66-3.59-6.25-6.18-8.38-7.39-13.63-7.72-21.33-20.18-25.43-34.31A98.74,98.74,0,0,1,190.21,349a152.79,152.79,0,0,1-.9-23.47c.1-3,.27-6,.49-8.91.14-1.9.3-3.78.48-5.61.88-9.14,2.27-18.22,3.91-27.25a377.44,377.44,0,0,1,52.43-133.53c12.28-19.28,26.78-38.3,46.79-50.08a80,80,0,0,1,7.76-4l.54-.28c-.26-.67-.53-1.33-.76-2l-1.53-4.48c-.41-1.14-.82-2.29-1.34-3.42a37,37,0,0,1,7,1A35,35,0,0,1,312.7,90l.56.29.54-.38A3.65,3.65,0,0,0,315,88.32a5.13,5.13,0,0,0,.38-1.77,17.71,17.71,0,0,0-.21-3.1c-.21-1.85-.31-3.69.5-4.87s2.47-2.46,3.89-3.78c.76-.68,1.4-1.26,2.14-1.85s1.5-1.14,2.29-1.71a27.93,27.93,0,0,0,4.61-4,12.61,12.61,0,0,0,2.87-5.79,17.14,17.14,0,0,0-.05-6.31c-.19-1.06-.43-2.09-.69-3.1a67.35,67.35,0,0,1,10.94,4.55,27.87,27.87,0,0,1,10.47,9.34,18.29,18.29,0,0,1,2.59,6.39,17.16,17.16,0,0,1,.23,3.45c0,1.19-.14,2.44-.13,3.76A14.3,14.3,0,0,0,363,92.47l1,.46.31-1a28.85,28.85,0,0,0,1.29-8.44A29,29,0,0,1,368,89.8a30.59,30.59,0,0,1,.89,8.16A.41.41,0,0,1,369,98h0a120.94,120.94,0,0,1,32.92,23.32c15.23,15,25,32.84,34.41,51.77,11.43,22.94,22.15,46.28,30.8,70.43,8,22.35,15,46,17.25,69.68C486.17,331.85,484.19,351.44,475.24,368.15Z"/>    </g>    <g id="eye">        <g id="eye-color1">            <path d="M72,439c.15,0,.14-1,0-1s-.14,1,0,1Z"/><g opacity="0" ><path fill="#9287C6"  d="M279.55,159.29c-.14.47-.21,1-.36,1.41a15.63,15.63,0,0,1-1.35,2.87c-.52.93-1,1.89-1.54,2.82-.24.42-.5.81-.77,1.2l-.43.62c-.09.11-.45.46-.45.6l-.6.74c-5.88,7-13.9,9.8-22.69,6.53-8.54-3.17-14.21-10.41-14.65-19.54a1.27,1.27,0,0,1,0-.28.9.9,0,0,1,0-.29,23.29,23.29,0,0,1,19-21.82,19,19,0,0,1,11.42,1.35c-15.29-7.7-34.35-2.93-39.29,15.33a20.58,20.58,0,0,0-.66,6.54A29.34,29.34,0,0,0,237.7,177.6c8.59,7.08,21.5,6.67,31,1.77,7.19-3.69,10-12.6,10.92-20.46C279.63,159,279.59,159.17,279.55,159.29Z"/></g><g opacity="0" ><path fill="#9287C6"  d="M403.3,153.23c-.24.62-.44,1.25-.69,1.86a25.92,25.92,0,0,1-2,3.67,31,31,0,0,1-2.54,3.43c-5.88,7-13.9,9.8-22.69,6.53-8.53-3.17-14.2-10.41-14.65-19.54a2.46,2.46,0,0,1,0-.28,2.64,2.64,0,0,1,0-.29,23.3,23.3,0,0,1,19.05-21.82,19,19,0,0,1,11.42,1.35c-15.3-7.7-34.36-2.93-39.3,15.34a20.77,20.77,0,0,0-.66,6.53,29.38,29.38,0,0,0,10.48,20.23c8.59,7.09,21.5,6.67,31,1.77,6.91-3.55,9.73-12,10.77-19.66C403.47,152.6,403.39,153,403.3,153.23Z"/></g>        </g>        <g id="eye-shape">            <path d="M72,439c.15,0,.14-1,0-1s-.14,1,0,1Z"/><path fill="#fcfcfc"  d="M302.56,136.75a50.32,50.32,0,0,0-13.36-13.86c-7.41-5.22-16.44-9.14-25.66-8-6.88.88-12,4.76-17.36,8.8-16,12.43-19.2,37-11.14,54.91,7.49,16.63,26.85,30.67,45.61,24.45,15-5,24.67-21.27,27.86-36a40,40,0,0,0-5.14-29.08,21.06,21.06,0,0,1,2.37,11.14c-.46,11-5.61,26-18.92,25.32-11.53-.6-21-11-22.27-22a1.87,1.87,0,0,1,0-.35,1.93,1.93,0,0,1,0-.34c-.14-13,9.58-20.6,21.91-21.78.27,0,.52,0,.79,0a9.84,9.84,0,0,1,4.89-1.44,6.09,6.09,0,0,1,6.36,4.14A15.26,15.26,0,0,1,302.56,136.75Z"/><path d="M297.13,125.51c-15.9-15-34.94-17.68-52.69-4.19-.06,0-.1.09-.15.13l-.16.1c-32.2,24.89-13.28,88.73,29.73,85.92,17.9-1.17,30.39-17.56,35.77-33.3C315.69,156.47,310.67,138.3,297.13,125.51Zm1.7,11.07c-.37,4.7-3.28,9.51-8.6,8.16-6.66-1.69-8.92-10.67-3.13-14.72-13.93-.19-27.77,8.58-26.34,24,1.35,14.55,17.51,25.42,31.5,20.72,13.7-4.61,18.18-24.79,11.11-36.67a40,40,0,0,1,5.14,29.08c-3.19,14.68-12.89,31-27.86,36-18.76,6.22-38.12-7.82-45.61-24.45-8.06-17.9-4.86-42.48,11.14-54.91,13.4-10.41,29.23-10.55,43-.84a49.54,49.54,0,0,1,13.22,13.66,13.15,13.15,0,0,0-3.88-3.77A11.87,11.87,0,0,1,298.83,136.58Z"/><path fill="#fcfcfc"  d="M413.88,121.89c-14.5-8.81-34.49-8.24-44.8,7.22a1.52,1.52,0,0,1-.8.62c-11.71,15.15-13,38.62-3.42,55.31,8.06,14,24.48,22,39.69,17.43s24.94-20.63,27.78-36.27C435.6,148.17,429.18,131.2,413.88,121.89Zm6.77,28.39c-.48,11.41-5.85,27.07-19.69,26.35-12-.62-16.83-11.46-18.18-22.92,0-.12-1,1.27-1,1.14a1.44,1.44,0,0,1,0-.36c-.14-13.51,6-21.44,18.8-22.67.56,0,1.1-1.56,1.64-1.58,1.23-1,2.93,2.5,5.09,2.86,2.75.46,5.23-1.77,6.66.61C418.49,137.22,421,143.12,420.65,150.28Z"/><path d="M417.26,121.57c-15.68-11.86-38.75-12.35-50.79,5.44a1.17,1.17,0,0,0-.67.49c-11.22,14.84-13.43,36.45-6.31,53.91,6.71,16.44,22.85,27.5,39.63,25.14,17-2.39,28.75-18.31,33.11-35.27C437.07,152.49,432.4,133,417.26,121.57Zm13.11,44.63c-2.77,15.64-12.3,31.73-27.13,36.27S372.36,199,364.49,185c-9.4-16.69-8.1-40.16,3.33-55.31a1.48,1.48,0,0,0,.78-.62c10.07-15.46,29.6-16,43.75-7.22C427.29,131.2,433.56,148.17,430.37,166.2Z"/><path fill="#fff"  d="M292.1,128.54a9.84,9.84,0,0,0-4.89,1.44,7.6,7.6,0,0,0-3.61,6.3,1.72,1.72,0,0,0,0,.46,1.63,1.63,0,0,0,.07.45c.65,3.88,3.71,7.38,7.81,7.76,4.8.45,7-4.28,7.42-8.37a9.06,9.06,0,0,0-.42-3.9A6.09,6.09,0,0,0,292.1,128.54Z"/><path d="M416.93,133.71a8.49,8.49,0,0,1,1.28,4.26c.09,3.49-2.14,7-5.74,7.59-4.79.76-8.18-3.4-9.34-7.56a1.33,1.33,0,0,1-.1-.34,1.73,1.73,0,0,1,0-.38c-.41-2.83.36-5.52,2.2-7-.54,0-1.08,0-1.64.08-12.83,1.23-22.94,9.16-22.8,22.67a1.44,1.44,0,0,0,0,.36,2.09,2.09,0,0,0,0,.36c1.35,11.46,9.13,23.78,23.18,24.42,13.85.64,23.62-8,24.28-23.74C428.59,146,421.49,137.22,416.93,133.71Z"/><path fill="#fff"  d="M403,137.28a1.73,1.73,0,0,0,0,.38,1.33,1.33,0,0,0,.1.34c1.16,4.16,4.55,8.32,9.34,7.56,3.6-.57,5.83-4.1,5.74-7.59a8.49,8.49,0,0,0-1.28-4.26,9.82,9.82,0,0,0-6.66-4.61,6.14,6.14,0,0,0-5.09,1.14C403.34,131.76,402.57,134.45,403,137.28Z"/>        </g>        <g id="eye-color2">            <path fill="#EFB54D"  d="M276.92,128.34c-16.92,0-30.63,13.48-30.63,30.1s13.71,30.09,30.63,30.09,30.64-13.47,30.64-30.09a29.62,29.62,0,0,0-.88-7.16c-.07,10-5.12,20.32-14.42,23.45-14,4.7-30.15-6.17-31.5-20.72-1.43-15.37,12.34-24.13,26.24-24l-.07,0A31.22,31.22,0,0,0,276.92,128.34Z"/><path fill="#EFB54D"  d="M368.91,160.53c0,16.62,13.72,30.1,30.64,30.1s30.63-13.48,30.63-30.1a29.55,29.55,0,0,0-3.54-14.05,18.67,18.67,0,0,1,1.6,7.91c-.66,15.72-10.43,24.38-24.28,23.74-14-.64-21.83-13-23.18-24.42a2.09,2.09,0,0,1,0-.36,1.44,1.44,0,0,1,0-.36c-.14-12.91,9.1-20.72,21.11-22.46-.76-.05-1.53-.09-2.3-.09h0C382.61,130.46,368.91,143.92,368.91,160.53Z"/><path d="M72,439c.15,0,.14-1,0-1s-.14,1,0,1Z"/>        </g>    </g>    <g id="nose-mouth">        <path fill="#2d2821"  d="M362.77,216.52c0-5.82-.49-10.62-5.89-13.7-4.66-2.66-10.48-3.18-15.73-3.24-9-.11-19.62,1-27.94,5.17a4.89,4.89,0,0,0-2.32.8c-8.75,4.56-6.11,11.74-4.73,17.55,1.82,7.65,3,18.55,11.42,21.84,8.82,3.46,19.11-.21,28-1.33,3-.38,6-.69,8.9-1.31s4.08-2.44,5.65-5.2C363.73,230.85,362.74,223.5,362.77,216.52Z"/><path d="M364.48,217.33c0-3.28.22-6.85-1.1-9.93-2-4.69-6.69-7.24-11.39-8.54-7.3-2-15.27-1.67-22.7-.66a81.47,81.47,0,0,0-10.06,1.91,57.26,57.26,0,0,0-9.48,3.73c-4.88,2.29-7.45,7.3-7.49,12.56s1.52,10.15,3.1,15c.26.8.53,1.6.79,2.41,2.1,6.55,6.34,12.34,13.41,13.55a45.13,45.13,0,0,0,18.34-.73c5.74-1.4,11.81-1.12,17.53-2.63,5.4-1.43,8.48-9.28,9-14.37C364.83,225.61,364.45,221.35,364.48,217.33Zm-11,24c-2.84.6-5.75.89-8.63,1.25-8.65,1.08-18.63,4.59-27.19,1.28-8.13-3.15-9.32-13.58-11.08-20.91-1.22-5.08-2-12.61,3.4-15.59a55.63,55.63,0,0,1,5.4-2.85,42.25,42.25,0,0,1,5.39-1.84,63.43,63.43,0,0,1,11.45-1.94c2.77-.23,5.54-.31,8.31-.28,5.09.06,10.73.56,15.26,3.11,5.23,2.94,5.73,7.53,5.71,13.11,0,6.67.93,13.7-2.53,19.69C357.43,239,356.44,240.71,353.47,241.32Z"/><path d="M322,228c-.45-.28-.91-.54-1.37-.78a6.36,6.36,0,0,0-3.45-.77c-1.69.17-4.14,1.83-2.79,3.77A28.6,28.6,0,0,0,330,241.46a1.51,1.51,0,0,0,1.69-2.2A28.1,28.1,0,0,0,322,228Z"/><path d="M351.65,224.66a37.25,37.25,0,0,0-5.23,11.25,3.73,3.73,0,0,0,.26,3,2.32,2.32,0,0,0,3.32.37A13.24,13.24,0,0,0,354.39,225,1.52,1.52,0,0,0,351.65,224.66Z"/><path fill="none"  d="M355.82,253.09c-.06.07,0,0,0,0s0,0,0,0l0-.05Z"/><path fill="#fffaf0"  d="M302.92,246.24l-.23-.25c.05.14.1.27.16.41.33.93.66,1.79,1,2.76a29.56,29.56,0,0,1,.75,2.87,52.82,52.82,0,0,1,.77,5.79l.44,5.77h0l8.26-4a88.09,88.09,0,0,0-7.21-9.1Q304.91,248.36,302.92,246.24Z"/><path d="M303.79,245.46c-1.29-1.45-2.46-3-3.69-4.5l-.65.58h0l-.64.59a10.72,10.72,0,0,1,1.2,2.3c.34.86.69,1.74,1,2.64.62,1.82,1.26,3.57,1.69,5.39s.85,3.7,1.3,5.58a34.15,34.15,0,0,0,1.78,5.55h0l-.44-5.77a52.82,52.82,0,0,0-.77-5.79,29.56,29.56,0,0,0-.75-2.87c-.31-1-.64-1.83-1-2.76-.06-.14-.11-.27-.16-.41l.23.25q2,2.12,3.91,4.29a88.09,88.09,0,0,1,7.21,9.1,70,70,0,0,0-6.55-9.65C306.3,248.44,305.05,247,303.79,245.46Z"/><path fill="#fffaf0"  d="M361.42,256.3c-.07-.08-.14-.06-.25-.25a1.13,1.13,0,0,1,0-.36l0-.27-.05-.52c-.09-.7-.13-1.44-.17-2.16a37.69,37.69,0,0,1-.07-4.39,36.76,36.76,0,0,1,.69-4.36v0a30.05,30.05,0,0,0-2.3,4.06c-.64,1.35-1.14,2.77-1.79,4.16-.16.34-.33.69-.5,1l-.12.25,0,.13,0,.09a.64.64,0,0,1-.07.12l0,0a.56.56,0,0,1-.16.1.05.05,0,0,1,0,0c-.19.34-.41.66-.63,1h0l6.21,1.86-.4-.37Z"/><path d="M362.53,239.34a43.58,43.58,0,0,0-2.76,3.78,28.69,28.69,0,0,0-2.17,4.19,35.68,35.68,0,0,0-1.55,4.38c-.1.37-.19.74-.27,1.13l-.06.3,0,.21a.47.47,0,0,0,0,.13.49.49,0,0,0,.11.33.74.74,0,0,0,.16.12c-.05.35-.1.7-.14,1.06h0c.22-.33.44-.65.63-1a.05.05,0,0,0,0,0,.56.56,0,0,0,.16-.1l0,0a.64.64,0,0,0,.07-.12l0-.09,0-.13.12-.25c.17-.33.34-.68.5-1,.65-1.39,1.15-2.81,1.79-4.16a30.05,30.05,0,0,1,2.3-4.06v0a36.76,36.76,0,0,0-.69,4.36,37.69,37.69,0,0,0,.07,4.39c0,.72.08,1.46.17,2.16l.05.52,0,.27a1.13,1.13,0,0,0,0,.36c.11.19.18.17.25.25l.2.16.4.37c-.07-.17-.14-.33-.23-.5l-.14-.25c0-.06-.14-.19-.1-.16s0-.1.07-.18l.07-.27a5.35,5.35,0,0,0,.11-.55c.12-.74.16-1.44.23-2.16.14-1.43.24-2.86.46-4.23s.59-2.71.91-4.13.64-2.83.87-4.27l.59-3.72Zm-6.75,13.8s0,0,0,0l0,0,0,.05S355.79,253.14,355.78,253.14Z"/><path d="M281.86,261.55a1.5,1.5,0,0,0,0-3,1.5,1.5,0,0,0,0,3Z"/><path d="M289,268a1.5,1.5,0,0,0,0-3,1.5,1.5,0,0,0,0,3Z"/><path d="M298.72,258.31a1.5,1.5,0,0,0,0-3,1.5,1.5,0,0,0,0,3Z"/><path d="M277.32,251.17a1.5,1.5,0,0,0,0-3,1.5,1.5,0,0,0,0,3Z"/><path d="M289,244.69a1.5,1.5,0,0,0,0-3,1.5,1.5,0,0,0,0,3Z"/><path d="M288.53,256.53a1.5,1.5,0,0,0,0-3,1.5,1.5,0,0,0,0,3Z"/><path d="M366.47,253.18a1.5,1.5,0,0,0,0-3,1.5,1.5,0,0,0,0,3Z"/><path d="M375.24,238.21a1.5,1.5,0,0,0,0-3,1.5,1.5,0,0,0,0,3Z"/><path d="M375.24,247.93a1.5,1.5,0,0,0,0-3,1.5,1.5,0,0,0,0,3Z"/><path d="M376.54,257.66a1.5,1.5,0,0,0,0-3,1.5,1.5,0,0,0,0,3Z"/><path d="M386.91,255.07a1.5,1.5,0,0,0,0-3,1.5,1.5,0,0,0,0,3Z"/><path d="M387.56,244a1.5,1.5,0,0,0,0-3,1.5,1.5,0,0,0,0,3Z"/><path d="M383.67,249.23a1.5,1.5,0,0,0,0-3,1.5,1.5,0,0,0,0,3Z"/><path d="M370.7,260.9a1.5,1.5,0,0,0,0-3,1.5,1.5,0,0,0,0,3Z"/><path d="M298.67,266.39a9.31,9.31,0,0,0,4.5-1.28c1.38-.75,2.77-1.58,4.15-2.38,2.78-1.6,5.5-3.24,8.05-5.05s4.89-3.94,7.53-5.92a22.08,22.08,0,0,1,9.22-4.3,24.22,24.22,0,0,1,10.12.58,54.42,54.42,0,0,1,9.2,3.44c5.83,2.74,11.55,5.6,17.19,8.72-6.12-2-12.14-4.24-18.1-6.56a65.31,65.31,0,0,0-8.95-2.84,30.34,30.34,0,0,0-4.5-.66,19.21,19.21,0,0,0-4.43.27,19.59,19.59,0,0,0-8.1,3.65c-2.58,1.73-5.05,3.86-7.89,5.56A68.07,68.07,0,0,1,308,264c-1.49.62-2.93,1.29-4.48,1.84A9,9,0,0,1,298.67,266.39Z"/>    </g></svg>