<!--  ~ Copyright (C) 2018 Baidu, Inc. All Rights Reserved.  --><svg viewBox="0 0 640 480" xmlns="http://www.w3.org/2000/svg">    <g id="back-ground-cl">        <rect fill="none" width="640" height="480" />        <ellipse opacity="0.1" cx="331.93" cy="418.82" rx="168.39" ry="32.01"/>    </g>    <g id="body">        <defs>            <clipPath id="outline">                <path fill="none"  d="M227.11,178c8.25-16,17.47-32,28.5-46.37,3.71-4.86,7.62-9.54,11.77-14q1.5-1.59,3.05-3.14a50.32,50.32,0,0,0-12.51-7.92c-18.23-8.17-39-6.85-58.53-7.16-16.42-.26-33.11-1.7-47.93-9.4-7-3.63-18.07-9.93-18.48,3.41-.25,8.2,2.47,16.31,6.43,23.39,7.64,13.68,19.64,25.59,30.77,36.5,11.73,11.5,25.38,21.52,41.07,26.83a94.94,94.94,0,0,0,13.09,3.35C225.26,181.63,226.16,179.79,227.11,178Z"/><path fill="none"  d="M180.83,358.14c-13.37-3.79-31.91-13.93-31.89-30.06,0-7.83,5.89-17.95,14.25-18.91a9.79,9.79,0,0,1,4.13.38c1.27.4,2.42,1.63,3.64,1.87,6.59,1.28,4.62-5.39,2.32-8-5.05-5.78-17.35-5.63-24-3.76-14.65,4.1-29.76,21.84-29.06,37.44.76,17.19,14.14,32.19,29.18,39.12,14.25,6.56,31.49,7.42,46.66,3.56a78.42,78.42,0,0,1-7.54-20A61.75,61.75,0,0,1,180.83,358.14Z"/><path fill="none"  d="M381.53,105c.21.22.4.44.6.66a101,101,0,0,0-30.2-13.57,77.3,77.3,0,0,0-58.72,8.25c-13.74,8.09-24.88,19.59-34.49,32.25-4.34,5.72-8.36,11.67-12.17,17.65a368.93,368.93,0,0,0-18.76,33.14,34.32,34.32,0,0,0,6.84-2.65,30.33,30.33,0,0,1-10.81,4.86,31.41,31.41,0,0,1-6,.8h-.64c1.12.64,2.24,1.31,3.32,2a68.47,68.47,0,0,1,7.41,5.48l-1.81,2.25a14.77,14.77,0,0,0-6.1-2.53,29.38,29.38,0,0,0-6.91-.36c-3,.18-6,.66-9.07,1,.69.38,1.38.79,2,1.22a31.12,31.12,0,0,1,6.09,5.17,29.76,29.76,0,0,1,7.24,13.82,33.37,33.37,0,0,0-3-6,382.13,382.13,0,0,0-22.29,75.37c-1.64,9-3,18.12-3.91,27.26-2.94,30.41-1.69,70.58,28.43,87.66,2,1.14,11.8,3.5,9,6.77a3.69,3.69,0,0,1-.79.8c-2.07,1.6-11.33,2.7-13.45,5.31a1.64,1.64,0,0,0-.28,1.19c.7,4.07,12.39,4.42,15.15,4.64a156.58,156.58,0,0,0,17.6.25c.52,0,1.44,0,2.41,0,.05-.46.08-.93.1-1.4.11-3.79.05-7.79.16-11.66s.13-7.78.12-11.66a161.59,161.59,0,0,0-1.56-23.18,60.28,60.28,0,0,0-2.71-11.25,31.63,31.63,0,0,0-2.45-5.24,18,18,0,0,0-3.63-4.52c3.16,2.36,5.25,5.88,6.82,9.47a61.63,61.63,0,0,1,3.41,11.28A143.77,143.77,0,0,1,251,392.89c.14,3.91.19,7.83.18,11.73s.08,7.72,0,11.73a22.36,22.36,0,0,1-.26,3.11,13.19,13.19,0,0,1-.37,1.6,6.87,6.87,0,0,1-.77,1.71,8,8,0,0,1-2.67,2.36,24.46,24.46,0,0,1-2.8,1.34c-.91.38-1.79.74-2.59,1.14a6.11,6.11,0,0,0-1.9,1.33,2,2,0,0,0-.49,1.61,3.62,3.62,0,0,0,.77,1.91,6.54,6.54,0,0,0,1.08,1.09,5.44,5.44,0,0,1,.23-3.11,6.52,6.52,0,0,1,2.78-3.36,8.58,8.58,0,0,1,2-.78,12.49,12.49,0,0,1,1.87-.39,13.23,13.23,0,0,1,3.88,0,13.58,13.58,0,0,1-3.13,2.28c-1.12.61-2.21,1.06-3,1.5a9.22,9.22,0,0,0-2.26,1.93,12.58,12.58,0,0,0-1.91,3l.45-.38a13.48,13.48,0,0,0,2.2,1.15,20.3,20.3,0,0,0,5.23,1.43c.81.1,1.63.17,2.45.23a2.79,2.79,0,0,1-.44-.92,3.62,3.62,0,0,1,.15-2.18,7.13,7.13,0,0,1,2.48-3,10.09,10.09,0,0,1,3.23-1.61,7.41,7.41,0,0,1,3.66-.16,28.12,28.12,0,0,1-2.61,2.27c-.84.66-1.66,1.29-2.49,1.9a23.29,23.29,0,0,0-2.22,1.76,3.27,3.27,0,0,0-.74,1,2.59,2.59,0,0,0-.2,1.56l.56-.58a47.91,47.91,0,0,0,7.48-.29,41.52,41.52,0,0,0,5.56-1,14.92,14.92,0,0,0,4.83-2.26,23.08,23.08,0,0,0,7-8.46c.21-.41.39-.84.59-1.26l.47-1.26c.26-.91.52-1.81.73-2.75.46-1.87.84-3.78,1.26-5.68.82-3.81,1.63-7.64,2.6-11.44a115.51,115.51,0,0,1,3.48-11.22,49,49,0,0,1,5.21-10.5c-3.77,6.86-5.7,14.46-7.25,22-.76,3.66-1.4,7.34-2,11a313.77,313.77,0,0,0,33.11,5.43c21.48,2.29,43.62,2.35,64.74-2.67a87.64,87.64,0,0,0,8.73-2.61c-.68-3.7-.88-7.38-1.29-11-.19-1.86-.5-3.7-.78-5.57s-.58-3.73-.95-5.56a28.82,28.82,0,0,0-1.73-5.33c-.67-1.77-1.29-3.55-1.89-5.34.74,1.74,1.5,3.46,2.31,5.17a29.14,29.14,0,0,1,2.08,5.31c.49,1.85.88,3.69,1.29,5.54s.82,3.69,1.12,5.58c.61,3.76,1,7.52,1.81,11.1a28.31,28.31,0,0,0,1.7,5.18,26.6,26.6,0,0,0,2.69,4.7,21.21,21.21,0,0,0,3.63,3.93,15.3,15.3,0,0,0,4.45,2.69,27.29,27.29,0,0,0,5.22,1.27,47.78,47.78,0,0,0,5.47.54c1.33.05,2.66,0,4,0l.55.57a2.57,2.57,0,0,0-.21-1.56,3.27,3.27,0,0,0-.74-1,22.42,22.42,0,0,0-2.22-1.75c-.83-.61-1.64-1.24-2.49-1.9a29.65,29.65,0,0,1-2.6-2.27,7.25,7.25,0,0,1,3.65.16,9.84,9.84,0,0,1,3.24,1.61,7.13,7.13,0,0,1,2.47,3,3.59,3.59,0,0,1,.16,2.17,2.82,2.82,0,0,1-.45.94h.14c.9-.07,1.84-.16,2.7-.28a21.53,21.53,0,0,0,2.57-.57,16.76,16.76,0,0,0,4.48-2l.45.38a12.87,12.87,0,0,0-1.91-3,9.24,9.24,0,0,0-2.27-1.92c-.84-.44-1.92-.89-3-1.5a13.19,13.19,0,0,1-3.14-2.29,13.57,13.57,0,0,1,3.88,0,12.35,12.35,0,0,1,1.88.39,8.51,8.51,0,0,1,2,.78,6.54,6.54,0,0,1,2.79,3.36,5.46,5.46,0,0,1,.22,3.14,4.45,4.45,0,0,0,1.85-3,2.3,2.3,0,0,0-.37-1.67,4.72,4.72,0,0,0-1.66-1.32c-1.47-.79-3.28-1.34-5.11-2.13A13.84,13.84,0,0,1,423,419.2a7.81,7.81,0,0,1-1.27-1.24,5,5,0,0,1-.89-1.76,11.55,11.55,0,0,1-.28-1.58l-.17-1.43c-.12-.95-.23-1.91-.28-2.87a84.75,84.75,0,0,1-.09-11.49,107.73,107.73,0,0,1,1.21-11.36c1.13-7.53,2.87-14.91,4.72-22.23l1.44-5.48a34,34,0,0,1,1.82-5.43,55.65,55.65,0,0,1,5.85-9.74,66.22,66.22,0,0,0-5.11,10,34.4,34.4,0,0,0-1.45,5.4l-1.11,5.55c-1.51,7.38-2.93,14.78-3.85,22.21a104.76,104.76,0,0,0-.61,22.3c.06.81.17,1.61.27,2.41,5.44.88,11.38.47,16.76.3a155,155,0,0,0,19.14-1.45c1.36-.21,2.46-.18,2.89-.55.14-.3,0-.77-.45-1.57-1.6-2.7-4-4-6.92-5-2.41-.82-9.31-1-10.72-3.44a1.67,1.67,0,0,1,.17-2.1,9.6,9.6,0,0,1,.94-1c1.35-1.36,4-2.21,5.61-3.25a71.12,71.12,0,0,0,18.6-16.93,69.06,69.06,0,0,0,5.85-9.13c6.3-11.75,9.14-24.94,9.66-38.21.06-.31.11-.62.16-.93a127,127,0,0,0-.51-16c-2.25-23.72-9.25-47.32-17.26-69.67-5.67-15.85-12.26-31.36-19.34-46.63a28.58,28.58,0,0,0-3,2.9,26.48,26.48,0,0,1,5.07-5.56c1-.85,7.64-1.62,8.8-2.32-1.7.07-8.89.14-10.58.19l-6.06.69-2.51.07-.27-2.53c.57-.13,1.14-.27,1.71-.43,5.23-1.39,10.74-2,15.66-4.42a40.78,40.78,0,0,0,6.13-3.95c1-.73,2-1.47,3-2.22.51-.39,1.72-1.74,2.34-1.81-3.94.48-7.91.67-11.86,1s-7.6,1.18-11.45,1a44.56,44.56,0,0,1-6.67-1.17l4.75-1.25a18.3,18.3,0,0,0,6.12-2.93c-1.65.3-3.3.54-5,.75a77.47,77.47,0,0,1-8.19.53l1.61-.27-1-2.12c-9.43-18.92-19.18-36.8-34.42-51.76A127.77,127.77,0,0,0,381.53,105Z"/><path fill="none"  d="M484.35,11.31c-2.52,1.81-4.1,4.78-5.67,7.38C465.2,41.08,438.41,54,416.27,66.2c-11.95,6.58-34.87,17.69-37.95,33.36,16.59,9.54,30.79,23.14,41.88,38.67a152.92,152.92,0,0,1,10,16.44c20.07-3.27,36.73-15,47.92-32.65,10.89-17.16,16.55-37.35,19.53-57.3a224,224,0,0,0,2.39-30.06c.09-6.57.66-14.31-3.2-20C494.17,10.73,488.57,8.29,484.35,11.31Z"/><path d="M488.51,6.89c-5.5,0-8.74,4.37-11.41,8.61a75.32,75.32,0,0,1-14.05,17c-13.16,11.67-28.92,20.27-44.18,28.85C405.48,68.86,379.78,80.56,375.54,98c-16.26-8.75-34.83-13.39-53.29-11-19.12,2.46-35.87,12.28-49.63,25.35C259.1,100.51,240.4,97.46,223,96.74c-19.8-.83-40.24,1.19-59.41-4.94-7.65-2.45-14.7-8.33-22.62-9.68-6.21-1.06-10.08,3-10.84,9-2.08,16.48,8.63,32.11,18.82,43.87,11.55,13.33,23.9,26.6,38.59,36.5a92.13,92.13,0,0,0,29.13,13,33.23,33.23,0,0,1-4.46-.62l-7.48-1.58,6.78,3.67a83.91,83.91,0,0,1,7.26,4.45,31.49,31.49,0,0,0-5.82-.08c-5,.34-8.28,1.49-13,1.57l-8.63.16,8.25,2.39a30.36,30.36,0,0,1,6.86,2.89c2.16,1.25,2.7,2.74,4.54,4.47a32.62,32.62,0,0,1,3.33,3.62,379.35,379.35,0,0,0-14.71,41.67q-5.13,17.8-8.5,36.06c-4.13,22.74-8.08,49.51-3.29,73.47a60.7,60.7,0,0,1-11.31-3.07c-8.62-3.25-17.72-8.74-22.26-17.06-4.28-7.83-1.8-21.94,8.4-24.19,4.48-1,12.6,7.2,15.42-.06,1.53-3.95-.71-9.61-3.9-12.09-10.76-8.4-28.09-4.73-38,2.92-11.07,8.57-20.66,22.88-18.65,37.35,2.16,15.63,13.44,29.31,27,36.69,16.16,8.78,35.1,9.71,53.06,5.37.15.24.29.5.44.74a53.84,53.84,0,0,0,16.37,16.68,51.84,51.84,0,0,0,5.28,3c.44.22,1.85,1.07,3.07,1.66-1.78.62-3.6,1.16-5.38,1.81-2.17.8-5.25,1.88-6.62,3.79a3.82,3.82,0,0,0-.33,4.36c1.88,3.91,8,4.8,11.71,5.38a115.9,115.9,0,0,0,20,1c1.45,0,3.44.1,5.43.06,0,.06-.07.14-.11.19-.72,1.1-2.44,1.89-4.19,2.61-.89.36-1.82.73-2.77,1.2a8.94,8.94,0,0,0-2.83,2,5.1,5.1,0,0,0-1,1.79,5.63,5.63,0,0,0-.2,2,6.57,6.57,0,0,0,1.34,3.45,13,13,0,0,0,5.35,3.8,23.66,23.66,0,0,0,6,1.6,48.34,48.34,0,0,0,12-.09,44.64,44.64,0,0,0,5.92-1.19,17.53,17.53,0,0,0,5.66-2.76,24.71,24.71,0,0,0,7.54-9.58c.23-.46.41-.93.61-1.4l.51-1.5c.25-1,.5-1.95.69-2.92s.41-2.05.6-3.07c22.26,4.81,45.17,7.65,68,6.74a159.4,159.4,0,0,0,32.55-4.43c2.47-.62,4.93-1.31,7.36-2.08a28.73,28.73,0,0,0,3.7,7.89,20.5,20.5,0,0,0,9,7.72,29.67,29.67,0,0,0,5.73,1.52,49.13,49.13,0,0,0,11.61.67c1-.07,1.92-.15,2.93-.29a22.07,22.07,0,0,0,2.95-.63,19.57,19.57,0,0,0,5.59-2.48,10.09,10.09,0,0,0,2.42-2.26,6.69,6.69,0,0,0,1.32-3.32,5.33,5.33,0,0,0-.91-3.71,7.63,7.63,0,0,0-2.7-2.21c-1.88-1-3.71-1.5-5.34-2.21a10.82,10.82,0,0,1-2.17-1.18,4.79,4.79,0,0,1-.76-.72,2.62,2.62,0,0,1-.3-.5l.56.05a142.39,142.39,0,0,0,20.86,0c5.57-.29,11.91-.21,17.3-1.84a3.69,3.69,0,0,0,2.07-1.38c1.35-1.65.48-4.32-1.09-6.45-3.26-4.43-9.44-5.46-14.45-6.64l-.32-.09c.86-.55,1.74-1.19,2.09-1.4a77.7,77.7,0,0,0,11.85-8.79,69.09,69.09,0,0,0,9.4-10.43c8.29-11.22,13.18-24.69,15-38.64,2.85-21.54-1.3-43.23-6.68-64-6.47-25.07-15.82-49.32-26.42-72.92q-1.81-4-3.68-8.05l.13-.1c1.75-1.17,3.93-1.52,5.94-2,4.77-1.08,8.92-2.16,13.15-4.67l-4.35.89c-2.33.47-4.94.42-7.32.75a80.77,80.77,0,0,1-9.19.91c3.2-.07,7.11-2,10-3.27,6-2.76,10.94-6.85,15.6-11.56.76-.77,2.43-3.23,3.46-3.47-5,1.18-10.15,1.92-15.23,2.85-4.91.89-9.87,2.49-14.91,2.13,4.19-2,8.15-3.58,11.08-5.94,1.23-1,2.49-2.6,4.11-2.89-6.28,1.83-12.49,3.87-18.88,5.28-1.11.25-2.23.47-3.35.68-1.18-2.39-2.37-4.79-3.57-7.18-1.69-3.37-3.39-6.73-5.13-10.06A70.6,70.6,0,0,0,476,130.3c13.72-17.92,20.66-40.45,24.2-62.47a227.41,227.41,0,0,0,2.86-33.17C503.21,24.57,502.64,6.88,488.51,6.89,211.25,180.12c-15.69-5.31-29.34-15.33-41.07-26.83-11.13-10.91-23.13-22.82-30.77-36.5-4-7.08-6.68-15.19-6.43-23.39.41-13.34,11.5-7,18.48-3.41,14.82,7.7,31.51,9.14,47.93,9.4,19.49.31,40.3-1,58.53,7.16a50.32,50.32,0,0,1,12.51,7.92q-1.55,1.55-3.05,3.14c-4.15,4.44-8.06,9.12-11.77,14C244.58,146,235.36,162,227.11,178c-1,1.83-1.85,3.67-2.77,5.51A94.94,94.94,0,0,1,211.25,180.12,149.37,376.19c-15-6.93-28.42-21.93-29.18-39.12-.7-15.6,14.41-33.34,29.06-37.44,6.68-1.87,19-2,24,3.76,2.3,2.64,4.27,9.31-2.32,8-1.22-.24-2.37-1.47-3.64-1.87a9.79,9.79,0,0,0-4.13-.38c-8.36,1-14.24,11.08-14.25,18.91,0,16.13,18.52,26.27,31.89,30.06a61.75,61.75,0,0,0,7.66,1.65,78.42,78.42,0,0,0,7.54,20C180.86,383.61,163.62,382.75,149.37,376.19,436.29,173.1l1,2.12-1.61.27a77.47,77.47,0,0,0,8.19-.53c1.66-.21,3.31-.45,5-.75a18.3,18.3,0,0,1-6.12,2.93L438,178.39l4.87,1c3.59.74,15.91-1.13,19.44-1.49,1.88-.19,3.78-.15,5.67-.37-.71.08-2.06,1.71-2.6,2.17a36.35,36.35,0,0,1-10.71,6.45c-4.49,1.64-9.19,2.56-13.8,3.78-.57.16-2.14.8-2.71.93l-.23,0,4,.93,6.06.31c1.69-.05,9.38-.62,11.08-.69-1.16.7-8.26,2-9.3,2.82a26.48,26.48,0,0,0-5.07,5.56,28.58,28.58,0,0,1,3-2.9c7.08,15.27,13.67,30.78,19.34,46.63,8,22.35,15,46,17.26,69.67a127,127,0,0,1,.51,16c-.05.31-.1.62-.16.93-.52,13.27-3.36,26.46-9.66,38.21a68.3,68.3,0,0,1-18.66,22,69.85,69.85,0,0,1-5.79,4.05c-1.64,1-4.26,1.89-5.61,3.25a9.6,9.6,0,0,0-.94,1,1.67,1.67,0,0,0-.17,2.1c1.41,2.48,8.31,2.62,10.72,3.44,2.94,1,5.32,2.32,6.92,5,.48.8.59,1.27.45,1.57-.43.37-1.53.34-2.89.55a155,155,0,0,1-19.14,1.45c-5.38.17-11.32.58-16.76-.3-.1-.8-.21-1.6-.27-2.41a104.76,104.76,0,0,1,.61-22.3c.92-7.43,2.34-14.83,3.85-22.21l1.11-5.55a34.4,34.4,0,0,1,1.45-5.4,66.22,66.22,0,0,1,5.11-10,55.65,55.65,0,0,0-5.85,9.74,34,34,0,0,0-1.82,5.43l-1.44,5.48c-1.85,7.32-3.59,14.7-4.72,22.23A107.73,107.73,0,0,0,420,398.83a84.75,84.75,0,0,0,.09,11.49c.05,1,.16,1.92.28,2.87l.17,1.43a11.55,11.55,0,0,0,.28,1.58,5,5,0,0,0,.89,1.76A7.81,7.81,0,0,0,423,419.2a13.84,13.84,0,0,0,2.77,1.56c1.83.79,3.64,1.34,5.11,2.13a4.72,4.72,0,0,1,1.66,1.32,2.3,2.3,0,0,1,.37,1.67,4.45,4.45,0,0,1-1.85,3,5.46,5.46,0,0,0-.22-3.14,6.54,6.54,0,0,0-2.79-3.36,8.51,8.51,0,0,0-2-.78,12.35,12.35,0,0,0-1.88-.39,13.57,13.57,0,0,0-3.88,0,13.19,13.19,0,0,0,3.14,2.29c1.12.61,2.2,1.06,3,1.5a9.24,9.24,0,0,1,2.27,1.92,12.87,12.87,0,0,1,1.91,3l-.45-.38a16.76,16.76,0,0,1-4.48,2,21.53,21.53,0,0,1-2.57.57c-.86.12-1.8.21-2.7.28h-.14a2.82,2.82,0,0,0,.45-.94,3.59,3.59,0,0,0-.16-2.17,7.13,7.13,0,0,0-2.47-3,9.84,9.84,0,0,0-3.24-1.61,7.25,7.25,0,0,0-3.65-.16,29.65,29.65,0,0,0,2.6,2.27c.85.66,1.66,1.29,2.49,1.9a22.42,22.42,0,0,1,2.22,1.75,3.27,3.27,0,0,1,.74,1,2.57,2.57,0,0,1,.21,1.56l-.55-.57c-1.33,0-2.66.06-4,0a47.78,47.78,0,0,1-5.47-.54,27.29,27.29,0,0,1-5.22-1.27,15.3,15.3,0,0,1-4.45-2.69,21.21,21.21,0,0,1-3.63-3.93,26.6,26.6,0,0,1-2.69-4.7,28.31,28.31,0,0,1-1.7-5.18c-.85-3.58-1.2-7.34-1.81-11.1-.3-1.89-.73-3.74-1.12-5.58s-.8-3.69-1.29-5.54a29.14,29.14,0,0,0-2.08-5.31c-.81-1.71-1.57-3.43-2.31-5.17.6,1.79,1.22,3.57,1.89,5.34a28.82,28.82,0,0,1,1.73,5.33c.37,1.83.65,3.69.95,5.56s.59,3.71.78,5.57c.41,3.61.61,7.29,1.29,11a87.64,87.64,0,0,1-8.73,2.61c-21.12,5-43.26,5-64.74,2.67A313.77,313.77,0,0,1,283.25,414c.63-3.69,1.27-7.37,2-11,1.55-7.59,3.48-15.19,7.25-22a49,49,0,0,0-5.21,10.5,115.51,115.51,0,0,0-3.48,11.22c-1,3.8-1.78,7.63-2.6,11.44-.42,1.9-.8,3.81-1.26,5.68-.21.94-.47,1.84-.73,2.75l-.47,1.26c-.2.42-.38.85-.59,1.26a23.08,23.08,0,0,1-7,8.46,14.92,14.92,0,0,1-4.83,2.26,41.52,41.52,0,0,1-5.56,1,47.91,47.91,0,0,1-7.48.29l-.56.58a2.59,2.59,0,0,1,.2-1.56,3.27,3.27,0,0,1,.74-1,23.29,23.29,0,0,1,2.22-1.76c.83-.61,1.65-1.24,2.49-1.9a28.12,28.12,0,0,0,2.61-2.27,7.41,7.41,0,0,0-3.66.16,10.09,10.09,0,0,0-3.23,1.61,7.13,7.13,0,0,0-2.48,3,3.62,3.62,0,0,0-.15,2.18,2.79,2.79,0,0,0,.44.92c-.82-.06-1.64-.13-2.45-.23a20.3,20.3,0,0,1-5.23-1.43,13.48,13.48,0,0,1-2.2-1.15l-.45.38a12.58,12.58,0,0,1,1.91-3,9.22,9.22,0,0,1,2.26-1.93c.84-.44,1.93-.89,3-1.5a13.58,13.58,0,0,0,3.13-2.28,13.23,13.23,0,0,0-3.88,0,12.49,12.49,0,0,0-1.87.39,8.58,8.58,0,0,0-2,.78,6.52,6.52,0,0,0-2.78,3.36,5.44,5.44,0,0,0-.23,3.11,6.54,6.54,0,0,1-1.08-1.09,3.62,3.62,0,0,1-.77-1.91,2,2,0,0,1,.49-1.61,6.11,6.11,0,0,1,1.9-1.33c.8-.4,1.68-.76,2.59-1.14a24.46,24.46,0,0,0,2.8-1.34,8,8,0,0,0,2.67-2.36,6.87,6.87,0,0,0,.77-1.71,13.19,13.19,0,0,0,.37-1.6,22.36,22.36,0,0,0,.26-3.11c0-4-.09-7.81,0-11.73s0-7.82-.18-11.73a143.77,143.77,0,0,0-2.45-23.39,61.63,61.63,0,0,0-3.41-11.28c-1.57-3.59-3.66-7.11-6.82-9.47a18,18,0,0,1,3.63,4.52,31.63,31.63,0,0,1,2.45,5.24,60.28,60.28,0,0,1,2.71,11.25,161.59,161.59,0,0,1,1.56,23.18c0,3.88,0,7.76-.12,11.66s-.05,7.87-.16,11.66c0,.47,0,.94-.1,1.4-1,0-1.89,0-2.41,0a156.58,156.58,0,0,1-17.6-.25c-2.76-.22-14.45-.57-15.15-4.64a1.64,1.64,0,0,1,.28-1.19c2.12-2.61,11.38-3.71,13.45-5.31a3.69,3.69,0,0,0,.79-.8c2.76-3.27-7-5.63-9-6.77-30.12-17.08-31.37-57.25-28.43-87.66.89-9.14,2.27-18.22,3.91-27.26a382.13,382.13,0,0,1,22.29-75.37,33.37,33.37,0,0,1,3,6,29.76,29.76,0,0,0-7.24-13.82c-1.8-2-2.33-3.72-4.59-5.17-.66-.43-1.35-.84-2-1.22,3.09-.31,4.61-.79,7.57-1a29.38,29.38,0,0,1,6.91.36c2.23.42,5.85.23,7.6,1.53l.31-.25c-2.33-2-4.83-4.8-7.41-6.48-1.08-.7-2.2-1.37-3.32-2h.64a31.41,31.41,0,0,0,6-.8,30.33,30.33,0,0,0,10.81-4.86,34.32,34.32,0,0,1-6.84,2.65,368.93,368.93,0,0,1,18.76-33.14c3.81-6,7.83-11.93,12.17-17.65,9.61-12.66,20.75-24.16,34.49-32.25a77.3,77.3,0,0,1,58.72-8.25,101,101,0,0,1,30.2,13.57c-.2-.22-.39-.44-.6-.66a127.77,127.77,0,0,1,20.34,16.34C417.11,136.3,426.86,154.18,436.29,173.1,500.07,34.66a224,224,0,0,1-2.39,30.06c-3,20-8.64,40.14-19.53,57.3C467,139.65,450.3,151.4,430.23,154.67a152.92,152.92,0,0,0-10-16.44c-11.09-15.53-25.29-29.13-41.88-38.67,3.08-15.67,26-26.78,37.95-33.36C438.41,54,465.2,41.08,478.68,18.69c1.57-2.6,3.15-5.57,5.67-7.38,4.22-3,9.82-.58,12.52,3.38C500.73,20.35,500.16,28.09,500.07,34.66Z"/>            </clipPath>        </defs>        <g clip-path="url(#outline)">            <rect fill="#EABC54" width="640" height="480" />        </g>    </g>    <g id="pattern">        <g clip-path="url(#outline)">            <path fill="#FFF0F0" opacity="0"  d="M215,219.54s-7.45,9.69-3.88,19.35C211.13,238.89,218.45,230.11,215,219.54Z"/><path fill="#FFF0F0" opacity="0"  d="M208.11,258.06S198,271,202.64,284C202.64,284,212.6,272.3,208.11,258.06Z"/><path fill="#FFF0F0" opacity="0"  d="M228.37,254.42s-8.34,9.82-5.08,20.19C223.29,274.61,231.46,265.73,228.37,254.42Z"/><path fill="#FFF0F0" opacity="0"  d="M261.15,201.79s-9.82,13.15-4.84,26.08C256.31,227.87,266,215.92,261.15,201.79Z"/><path fill="#FFF0F0" opacity="0"  d="M218.79,175.19s-6.65,7.75-4.11,16C214.68,191.16,221.19,184.16,218.79,175.19Z"/><path fill="#FFF0F0" opacity="0"  d="M272.75,265.94s-6.89,12.06-1.38,22.4C271.37,288.34,278.26,277.31,272.75,265.94Z"/><path fill="#FFF0F0" opacity="0"  d="M255.88,287.12s-8.15,14.25-1.63,26.47C254.25,313.59,262.39,300.56,255.88,287.12Z"/><path fill="#FFF0F0" opacity="0"  d="M313.3,306.26s-8.14,14.26-1.63,26.48C311.67,332.74,319.82,319.7,313.3,306.26Z"/><path fill="#FFF0F0" opacity="0"  d="M299.05,224s-8.15,14.26-1.63,26.47C297.42,250.46,305.56,237.43,299.05,224Z"/><path fill="#FFF0F0" opacity="0"  d="M353,252s-5.58,15.45,2.94,26.36C355.91,278.37,361.69,264.14,353,252Z"/><path fill="#FFF0F0" opacity="0"  d="M330,261.87s-8.14,14.25-1.63,26.47C328.37,288.34,336.52,275.31,330,261.87Z"/><path fill="#FFF0F0" opacity="0"  d="M367.51,204.23s-4.46,15.8,4.81,26.08C372.32,230.31,377.08,215.7,367.51,204.23Z"/><path fill="#FFF0F0" opacity="0"  d="M380.34,255.86s-5.2,15.57,3.59,26.28C383.93,282.14,389.36,267.76,380.34,255.86Z"/><path fill="#FFF0F0" opacity="0"  d="M350.71,311s-3.51,11.95,3.45,19.83C354.16,330.84,357.88,319.79,350.71,311Z"/><path fill="#FFF0F0" opacity="0"  d="M410.39,256.28s-5.09,15.61,3.77,26.25C414.16,282.53,419.49,268.12,410.39,256.28Z"/><path fill="#FFF0F0" opacity="0"  d="M447.22,257.28s-3.82,16,5.86,25.87C453.08,283.15,457.24,268.36,447.22,257.28Z"/><path fill="#FFF0F0" opacity="0"  d="M426.9,165.55s-4.38,15.83,5,26.06C431.86,191.61,436.53,177,426.9,165.55Z"/><path fill="#FFF0F0" opacity="0"  d="M402.79,206.68s-3.18,12.48,4.3,20.37C407.09,227.05,410.53,215.49,402.79,206.68Z"/><path fill="#FFF0F0" opacity="0"  d="M436.39,217.89s-2.63,9.65,3.08,15.87C439.47,233.76,442.29,224.83,436.39,217.89Z"/><path fill="#FFF0F0" opacity="0"  d="M460,234.58s-2.65,9.65,3,15.88C463.07,250.46,465.91,241.54,460,234.58Z"/><path fill="#FFF0F0" opacity="0"  d="M332.23,205.55s-6,10.43-1.2,19.36C331,224.91,337,215.38,332.23,205.55Z"/>            <g opacity="0" ><path fill="#FFFFEE"  d="M283.78,410.52c2.4-23.39,18.16-47,42.33-51.29,34.47-6.1,63.49,17.63,66,52.43.07,1,.26-.61-1.27.13a31.2,31.2,0,0,1-7.08,2.1,188.59,188.59,0,0,1-48.13,4c-17-1-34.65-2.65-50.3-6.84"/></g>        </g>    </g>    <g id="mask">        <g opacity="0.2" ><path d="M228.68,181.63c3.92-8.28,9-16.2,13.69-24,2.78-4.65,5.22-10.48,8.52-14.79a104.9,104.9,0,0,0-20.67-12.44c-12.6-5.5-25.66-5.73-39-8a202.1,202.1,0,0,1-23.92-5.63c-6.21-1.86-14.25-6.82-20.65-6.87a3.38,3.38,0,0,0-3.43,3.44c.37,10.87,17.79,27.36,23.87,33.25,18.24,17.69,37.16,26.58,61.57,35.11C228.69,181.61,228.67,181.64,228.68,181.63Z"/></g><g opacity="0.2" ><path d="M485.79,27.23C478.92,31.53,474,44.94,469,51.63c-12.39,17.88-29.45,26.28-47.14,37.82-10.18,6.65-19.94,15.66-24,26.8,7.59,6.19,13.58,13.89,20.22,21,5,5.39,5.44,8.93,9.82,14.85.07,0,.66,1.25.73,1.22,1.41-.67,6.28-2.13,7.41-3.11,1.81-1.57,4.28-2.67,6.27-4.05,20.16-14,34.59-34.79,42.79-57.74a132.62,132.62,0,0,0,7.76-39c.23-5.63-1.07-18.15-5.93-21.8C486.6,27.42,486.26,26.94,485.79,27.23Z"/></g><g opacity="0.1" ><path d="M484.68,335.39c.24,1.69-3.5,6.76-4.42,8.49-1.82,3.4-3.69,6.77-5.68,10.08a107.84,107.84,0,0,1-13.23,18.12,62.86,62.86,0,0,1-11.06,9.46,61.18,61.18,0,0,1-6.25,3.67,33.15,33.15,0,0,1-5.53,2.51c-4,1.15-6.15-2.22-7.32-5.52a39.5,39.5,0,0,1-2.34-17.54,119.47,119.47,0,0,1,2.54-14.42l-1.94,4.49c-3.06,11.13-4.58,22.56-6,34a4.59,4.59,0,0,0,.26,2.19,3.36,3.36,0,0,0-.88.73c-2.06,2.52-.69,11.1-.81,14.3a.63.63,0,0,0,.09.45c.16.19.45.15.69.08a107.5,107.5,0,0,0,24.46-9.43c9.48-5.3,17.5-11.61,23.89-20.24a58.69,58.69,0,0,0,8.11-14.44C482.34,353.67,486,344.54,484.68,335.39Z"/></g><g opacity="0.1" ><path d="M250.56,408.75a61.26,61.26,0,0,1-.11-9.18c-17.19-5.74-32.52-19.2-40-35.56-4-8.82-6.12-18.92-6.18-30.43-.12-27.61,4-61.45,8.43-88.38a243.71,243.71,0,0,1,6.84-29.92c-.14-.74-.28-1.49-.4-2.24a.43.43,0,0,1,0-.07c0,.17,0,.35.07.52a6.18,6.18,0,0,0-.12-.62,5.25,5.25,0,0,1-.33-1,6,6,0,0,1-.23-.72,5.17,5.17,0,0,1-.88-1.92h0c-.47-.78-1-1.59-1.36-2.44-3.37,7.33-6.48,14.6-9.19,21.65-10,26-15,53.61-17.25,81.34-1.57,19.12-2.15,44.18,6,63.65-20.67,3.82-43.37,2.87-57.28-13.41-24.5-28.68.85-55.77.85-55.77-6.66,4.45-9.83,6.24-16.75,19.86-6.35,12.53-.29,28.48,8.17,38.62,14.62,17.53,37.1,22.58,58.91,19.94a66.44,66.44,0,0,0,9.71-2,48.91,48.91,0,0,0,5.1,7.16c10,11.56,21.38,19,39.1,21.26,2.33.29,4.7.61,7.09.95A5.69,5.69,0,0,1,250.56,408.75Z"/></g><g opacity="0.1" ><path d="M246.83,149.18c-6.49,10.92-13.15,22.77-19.44,34.87a5,5,0,0,1,1.83-.39,4.6,4.6,0,0,1,1.86-.89,4.46,4.46,0,0,1,1.14-.46,260,260,0,0,1,67.41-86.68C276,108.75,262,123.69,246.83,149.18Z"/></g><g opacity="0.1" ><path d="M389.53,402.6c-5.29,1.25-9.82,4.44-15.12,5.67a159,159,0,0,1-19.41,3c-22,2.28-44.36.82-66.17-2.85-1.82-5.45-1.09-11.68-.06-17.2.53-2.84,2-6.43,2.63-8.77l-.23.33a5,5,0,0,1-.67,1.76c-2.9,4.83-4.4,10.08-5.82,15.49-.51,2-1.25,4-1.93,6.18a19,19,0,0,1-.94,9.28c1.64.36,3.24.72,4.8,1.1,14.9,5.54,32.72,6.73,47.93,6.86,15.65.12,34.68-1.09,45-4.91,2.86-1.06,9.12-1.62,10.48-3.05,1.2-1.27-.65-1.69-.78-3.3C388.51,402.85,389.52,402.6,389.53,402.6Z"/></g>        <g opacity="0.1" ><path fill="#fff"  d="M435.54,175.28c1.61.09,3.22,0,4.82,0a249.84,249.84,0,0,0-31.49-46.94c-16.21-18.84-29.22-25.14-29.44-25.34,6.05,5.3,10.42,13.69,14.49,20.51,4.46,7.47,8.87,15,13.36,22.42,5.63,9.39,11.27,18.86,16.76,28.42C427.9,174.42,431.69,175.06,435.54,175.28Z"/></g><g opacity="0.1" ><path fill="#fff"  d="M480.63,289.32c-5.44-29.5-15.48-57.88-26.94-85.53q-1.79-4.29-3.67-8.54L447.61,197c-.9.6-2.29,2.36-3.51,3.39-.7.59-1.45,1.13-2.15,1.72-.27.23-.54.45-.79.69s-1,1.22-.43.42a7.43,7.43,0,0,1-.65.81q2.13,4.24,4.16,8.55a328.76,328.76,0,0,1,23.41,68.9c2.75,12.34,4.9,24.8,6.59,37.33,1.4,10.34,4.08,22.69-2.47,31.88,4.28-6,9.86-10.61,11.35-14.66C488.39,321.61,483.3,303.81,480.63,289.32Z"/></g>    </g>    <g id="outline">        <path fill="none"  d="M227.11,178c8.25-16,17.47-32,28.5-46.37,3.71-4.86,7.62-9.54,11.77-14q1.5-1.59,3.05-3.14a50.32,50.32,0,0,0-12.51-7.92c-18.23-8.17-39-6.85-58.53-7.16-16.42-.26-33.11-1.7-47.93-9.4-7-3.63-18.07-9.93-18.48,3.41-.25,8.2,2.47,16.31,6.43,23.39,7.64,13.68,19.64,25.59,30.77,36.5,11.73,11.5,25.38,21.52,41.07,26.83a94.94,94.94,0,0,0,13.09,3.35C225.26,181.63,226.16,179.79,227.11,178Z"/><path fill="none"  d="M180.83,358.14c-13.37-3.79-31.91-13.93-31.89-30.06,0-7.83,5.89-17.95,14.25-18.91a9.79,9.79,0,0,1,4.13.38c1.27.4,2.42,1.63,3.64,1.87,6.59,1.28,4.62-5.39,2.32-8-5.05-5.78-17.35-5.63-24-3.76-14.65,4.1-29.76,21.84-29.06,37.44.76,17.19,14.14,32.19,29.18,39.12,14.25,6.56,31.49,7.42,46.66,3.56a78.42,78.42,0,0,1-7.54-20A61.75,61.75,0,0,1,180.83,358.14Z"/><path fill="none"  d="M381.53,105c.21.22.4.44.6.66a101,101,0,0,0-30.2-13.57,77.3,77.3,0,0,0-58.72,8.25c-13.74,8.09-24.88,19.59-34.49,32.25-4.34,5.72-8.36,11.67-12.17,17.65a368.93,368.93,0,0,0-18.76,33.14,34.32,34.32,0,0,0,6.84-2.65,30.33,30.33,0,0,1-10.81,4.86,31.41,31.41,0,0,1-6,.8h-.64c1.12.64,2.24,1.31,3.32,2a68.47,68.47,0,0,1,7.41,5.48l-1.81,2.25a14.77,14.77,0,0,0-6.1-2.53,29.38,29.38,0,0,0-6.91-.36c-3,.18-6,.66-9.07,1,.69.38,1.38.79,2,1.22a31.12,31.12,0,0,1,6.09,5.17,29.76,29.76,0,0,1,7.24,13.82,33.37,33.37,0,0,0-3-6,382.13,382.13,0,0,0-22.29,75.37c-1.64,9-3,18.12-3.91,27.26-2.94,30.41-1.69,70.58,28.43,87.66,2,1.14,11.8,3.5,9,6.77a3.69,3.69,0,0,1-.79.8c-2.07,1.6-11.33,2.7-13.45,5.31a1.64,1.64,0,0,0-.28,1.19c.7,4.07,12.39,4.42,15.15,4.64a156.58,156.58,0,0,0,17.6.25c.52,0,1.44,0,2.41,0,.05-.46.08-.93.1-1.4.11-3.79.05-7.79.16-11.66s.13-7.78.12-11.66a161.59,161.59,0,0,0-1.56-23.18,60.28,60.28,0,0,0-2.71-11.25,31.63,31.63,0,0,0-2.45-5.24,18,18,0,0,0-3.63-4.52c3.16,2.36,5.25,5.88,6.82,9.47a61.63,61.63,0,0,1,3.41,11.28A143.77,143.77,0,0,1,251,392.89c.14,3.91.19,7.83.18,11.73s.08,7.72,0,11.73a22.36,22.36,0,0,1-.26,3.11,13.19,13.19,0,0,1-.37,1.6,6.87,6.87,0,0,1-.77,1.71,8,8,0,0,1-2.67,2.36,24.46,24.46,0,0,1-2.8,1.34c-.91.38-1.79.74-2.59,1.14a6.11,6.11,0,0,0-1.9,1.33,2,2,0,0,0-.49,1.61,3.62,3.62,0,0,0,.77,1.91,6.54,6.54,0,0,0,1.08,1.09,5.44,5.44,0,0,1,.23-3.11,6.52,6.52,0,0,1,2.78-3.36,8.58,8.58,0,0,1,2-.78,12.49,12.49,0,0,1,1.87-.39,13.23,13.23,0,0,1,3.88,0,13.58,13.58,0,0,1-3.13,2.28c-1.12.61-2.21,1.06-3,1.5a9.22,9.22,0,0,0-2.26,1.93,12.58,12.58,0,0,0-1.91,3l.45-.38a13.48,13.48,0,0,0,2.2,1.15,20.3,20.3,0,0,0,5.23,1.43c.81.1,1.63.17,2.45.23a2.79,2.79,0,0,1-.44-.92,3.62,3.62,0,0,1,.15-2.18,7.13,7.13,0,0,1,2.48-3,10.09,10.09,0,0,1,3.23-1.61,7.41,7.41,0,0,1,3.66-.16,28.12,28.12,0,0,1-2.61,2.27c-.84.66-1.66,1.29-2.49,1.9a23.29,23.29,0,0,0-2.22,1.76,3.27,3.27,0,0,0-.74,1,2.59,2.59,0,0,0-.2,1.56l.56-.58a47.91,47.91,0,0,0,7.48-.29,41.52,41.52,0,0,0,5.56-1,14.92,14.92,0,0,0,4.83-2.26,23.08,23.08,0,0,0,7-8.46c.21-.41.39-.84.59-1.26l.47-1.26c.26-.91.52-1.81.73-2.75.46-1.87.84-3.78,1.26-5.68.82-3.81,1.63-7.64,2.6-11.44a115.51,115.51,0,0,1,3.48-11.22,49,49,0,0,1,5.21-10.5c-3.77,6.86-5.7,14.46-7.25,22-.76,3.66-1.4,7.34-2,11a313.77,313.77,0,0,0,33.11,5.43c21.48,2.29,43.62,2.35,64.74-2.67a87.64,87.64,0,0,0,8.73-2.61c-.68-3.7-.88-7.38-1.29-11-.19-1.86-.5-3.7-.78-5.57s-.58-3.73-.95-5.56a28.82,28.82,0,0,0-1.73-5.33c-.67-1.77-1.29-3.55-1.89-5.34.74,1.74,1.5,3.46,2.31,5.17a29.14,29.14,0,0,1,2.08,5.31c.49,1.85.88,3.69,1.29,5.54s.82,3.69,1.12,5.58c.61,3.76,1,7.52,1.81,11.1a28.31,28.31,0,0,0,1.7,5.18,26.6,26.6,0,0,0,2.69,4.7,21.21,21.21,0,0,0,3.63,3.93,15.3,15.3,0,0,0,4.45,2.69,27.29,27.29,0,0,0,5.22,1.27,47.78,47.78,0,0,0,5.47.54c1.33.05,2.66,0,4,0l.55.57a2.57,2.57,0,0,0-.21-1.56,3.27,3.27,0,0,0-.74-1,22.42,22.42,0,0,0-2.22-1.75c-.83-.61-1.64-1.24-2.49-1.9a29.65,29.65,0,0,1-2.6-2.27,7.25,7.25,0,0,1,3.65.16,9.84,9.84,0,0,1,3.24,1.61,7.13,7.13,0,0,1,2.47,3,3.59,3.59,0,0,1,.16,2.17,2.82,2.82,0,0,1-.45.94h.14c.9-.07,1.84-.16,2.7-.28a21.53,21.53,0,0,0,2.57-.57,16.76,16.76,0,0,0,4.48-2l.45.38a12.87,12.87,0,0,0-1.91-3,9.24,9.24,0,0,0-2.27-1.92c-.84-.44-1.92-.89-3-1.5a13.19,13.19,0,0,1-3.14-2.29,13.57,13.57,0,0,1,3.88,0,12.35,12.35,0,0,1,1.88.39,8.51,8.51,0,0,1,2,.78,6.54,6.54,0,0,1,2.79,3.36,5.46,5.46,0,0,1,.22,3.14,4.45,4.45,0,0,0,1.85-3,2.3,2.3,0,0,0-.37-1.67,4.72,4.72,0,0,0-1.66-1.32c-1.47-.79-3.28-1.34-5.11-2.13A13.84,13.84,0,0,1,423,419.2a7.81,7.81,0,0,1-1.27-1.24,5,5,0,0,1-.89-1.76,11.55,11.55,0,0,1-.28-1.58l-.17-1.43c-.12-.95-.23-1.91-.28-2.87a84.75,84.75,0,0,1-.09-11.49,107.73,107.73,0,0,1,1.21-11.36c1.13-7.53,2.87-14.91,4.72-22.23l1.44-5.48a34,34,0,0,1,1.82-5.43,55.65,55.65,0,0,1,5.85-9.74,66.22,66.22,0,0,0-5.11,10,34.4,34.4,0,0,0-1.45,5.4l-1.11,5.55c-1.51,7.38-2.93,14.78-3.85,22.21a104.76,104.76,0,0,0-.61,22.3c.06.81.17,1.61.27,2.41,5.44.88,11.38.47,16.76.3a155,155,0,0,0,19.14-1.45c1.36-.21,2.46-.18,2.89-.55.14-.3,0-.77-.45-1.57-1.6-2.7-4-4-6.92-5-2.41-.82-9.31-1-10.72-3.44a1.67,1.67,0,0,1,.17-2.1,9.6,9.6,0,0,1,.94-1c1.35-1.36,4-2.21,5.61-3.25a71.12,71.12,0,0,0,18.6-16.93,69.06,69.06,0,0,0,5.85-9.13c6.3-11.75,9.14-24.94,9.66-38.21.06-.31.11-.62.16-.93a127,127,0,0,0-.51-16c-2.25-23.72-9.25-47.32-17.26-69.67-5.67-15.85-12.26-31.36-19.34-46.63a28.58,28.58,0,0,0-3,2.9,26.48,26.48,0,0,1,5.07-5.56c1-.85,7.64-1.62,8.8-2.32-1.7.07-8.89.14-10.58.19l-6.06.69-2.51.07-.27-2.53c.57-.13,1.14-.27,1.71-.43,5.23-1.39,10.74-2,15.66-4.42a40.78,40.78,0,0,0,6.13-3.95c1-.73,2-1.47,3-2.22.51-.39,1.72-1.74,2.34-1.81-3.94.48-7.91.67-11.86,1s-7.6,1.18-11.45,1a44.56,44.56,0,0,1-6.67-1.17l4.75-1.25a18.3,18.3,0,0,0,6.12-2.93c-1.65.3-3.3.54-5,.75a77.47,77.47,0,0,1-8.19.53l1.61-.27-1-2.12c-9.43-18.92-19.18-36.8-34.42-51.76A127.77,127.77,0,0,0,381.53,105Z"/><path fill="none"  d="M484.35,11.31c-2.52,1.81-4.1,4.78-5.67,7.38C465.2,41.08,438.41,54,416.27,66.2c-11.95,6.58-34.87,17.69-37.95,33.36,16.59,9.54,30.79,23.14,41.88,38.67a152.92,152.92,0,0,1,10,16.44c20.07-3.27,36.73-15,47.92-32.65,10.89-17.16,16.55-37.35,19.53-57.3a224,224,0,0,0,2.39-30.06c.09-6.57.66-14.31-3.2-20C494.17,10.73,488.57,8.29,484.35,11.31Z"/><path d="M488.51,6.89c-5.5,0-8.74,4.37-11.41,8.61a75.32,75.32,0,0,1-14.05,17c-13.16,11.67-28.92,20.27-44.18,28.85C405.48,68.86,379.78,80.56,375.54,98c-16.26-8.75-34.83-13.39-53.29-11-19.12,2.46-35.87,12.28-49.63,25.35C259.1,100.51,240.4,97.46,223,96.74c-19.8-.83-40.24,1.19-59.41-4.94-7.65-2.45-14.7-8.33-22.62-9.68-6.21-1.06-10.08,3-10.84,9-2.08,16.48,8.63,32.11,18.82,43.87,11.55,13.33,23.9,26.6,38.59,36.5a92.13,92.13,0,0,0,29.13,13,33.23,33.23,0,0,1-4.46-.62l-7.48-1.58,6.78,3.67a83.91,83.91,0,0,1,7.26,4.45,31.49,31.49,0,0,0-5.82-.08c-5,.34-8.28,1.49-13,1.57l-8.63.16,8.25,2.39a30.36,30.36,0,0,1,6.86,2.89c2.16,1.25,2.7,2.74,4.54,4.47a32.62,32.62,0,0,1,3.33,3.62,379.35,379.35,0,0,0-14.71,41.67q-5.13,17.8-8.5,36.06c-4.13,22.74-8.08,49.51-3.29,73.47a60.7,60.7,0,0,1-11.31-3.07c-8.62-3.25-17.72-8.74-22.26-17.06-4.28-7.83-1.8-21.94,8.4-24.19,4.48-1,12.6,7.2,15.42-.06,1.53-3.95-.71-9.61-3.9-12.09-10.76-8.4-28.09-4.73-38,2.92-11.07,8.57-20.66,22.88-18.65,37.35,2.16,15.63,13.44,29.31,27,36.69,16.16,8.78,35.1,9.71,53.06,5.37.15.24.29.5.44.74a53.84,53.84,0,0,0,16.37,16.68,51.84,51.84,0,0,0,5.28,3c.44.22,1.85,1.07,3.07,1.66-1.78.62-3.6,1.16-5.38,1.81-2.17.8-5.25,1.88-6.62,3.79a3.82,3.82,0,0,0-.33,4.36c1.88,3.91,8,4.8,11.71,5.38a115.9,115.9,0,0,0,20,1c1.45,0,3.44.1,5.43.06,0,.06-.07.14-.11.19-.72,1.1-2.44,1.89-4.19,2.61-.89.36-1.82.73-2.77,1.2a8.94,8.94,0,0,0-2.83,2,5.1,5.1,0,0,0-1,1.79,5.63,5.63,0,0,0-.2,2,6.57,6.57,0,0,0,1.34,3.45,13,13,0,0,0,5.35,3.8,23.66,23.66,0,0,0,6,1.6,48.34,48.34,0,0,0,12-.09,44.64,44.64,0,0,0,5.92-1.19,17.53,17.53,0,0,0,5.66-2.76,24.71,24.71,0,0,0,7.54-9.58c.23-.46.41-.93.61-1.4l.51-1.5c.25-1,.5-1.95.69-2.92s.41-2.05.6-3.07c22.26,4.81,45.17,7.65,68,6.74a159.4,159.4,0,0,0,32.55-4.43c2.47-.62,4.93-1.31,7.36-2.08a28.73,28.73,0,0,0,3.7,7.89,20.5,20.5,0,0,0,9,7.72,29.67,29.67,0,0,0,5.73,1.52,49.13,49.13,0,0,0,11.61.67c1-.07,1.92-.15,2.93-.29a22.07,22.07,0,0,0,2.95-.63,19.57,19.57,0,0,0,5.59-2.48,10.09,10.09,0,0,0,2.42-2.26,6.69,6.69,0,0,0,1.32-3.32,5.33,5.33,0,0,0-.91-3.71,7.63,7.63,0,0,0-2.7-2.21c-1.88-1-3.71-1.5-5.34-2.21a10.82,10.82,0,0,1-2.17-1.18,4.79,4.79,0,0,1-.76-.72,2.62,2.62,0,0,1-.3-.5l.56.05a142.39,142.39,0,0,0,20.86,0c5.57-.29,11.91-.21,17.3-1.84a3.69,3.69,0,0,0,2.07-1.38c1.35-1.65.48-4.32-1.09-6.45-3.26-4.43-9.44-5.46-14.45-6.64l-.32-.09c.86-.55,1.74-1.19,2.09-1.4a77.7,77.7,0,0,0,11.85-8.79,69.09,69.09,0,0,0,9.4-10.43c8.29-11.22,13.18-24.69,15-38.64,2.85-21.54-1.3-43.23-6.68-64-6.47-25.07-15.82-49.32-26.42-72.92q-1.81-4-3.68-8.05l.13-.1c1.75-1.17,3.93-1.52,5.94-2,4.77-1.08,8.92-2.16,13.15-4.67l-4.35.89c-2.33.47-4.94.42-7.32.75a80.77,80.77,0,0,1-9.19.91c3.2-.07,7.11-2,10-3.27,6-2.76,10.94-6.85,15.6-11.56.76-.77,2.43-3.23,3.46-3.47-5,1.18-10.15,1.92-15.23,2.85-4.91.89-9.87,2.49-14.91,2.13,4.19-2,8.15-3.58,11.08-5.94,1.23-1,2.49-2.6,4.11-2.89-6.28,1.83-12.49,3.87-18.88,5.28-1.11.25-2.23.47-3.35.68-1.18-2.39-2.37-4.79-3.57-7.18-1.69-3.37-3.39-6.73-5.13-10.06A70.6,70.6,0,0,0,476,130.3c13.72-17.92,20.66-40.45,24.2-62.47a227.41,227.41,0,0,0,2.86-33.17C503.21,24.57,502.64,6.88,488.51,6.89ZM211.25,180.12c-15.69-5.31-29.34-15.33-41.07-26.83-11.13-10.91-23.13-22.82-30.77-36.5-4-7.08-6.68-15.19-6.43-23.39.41-13.34,11.5-7,18.48-3.41,14.82,7.7,31.51,9.14,47.93,9.4,19.49.31,40.3-1,58.53,7.16a50.32,50.32,0,0,1,12.51,7.92q-1.55,1.55-3.05,3.14c-4.15,4.44-8.06,9.12-11.77,14C244.58,146,235.36,162,227.11,178c-1,1.83-1.85,3.67-2.77,5.51A94.94,94.94,0,0,1,211.25,180.12ZM149.37,376.19c-15-6.93-28.42-21.93-29.18-39.12-.7-15.6,14.41-33.34,29.06-37.44,6.68-1.87,19-2,24,3.76,2.3,2.64,4.27,9.31-2.32,8-1.22-.24-2.37-1.47-3.64-1.87a9.79,9.79,0,0,0-4.13-.38c-8.36,1-14.24,11.08-14.25,18.91,0,16.13,18.52,26.27,31.89,30.06a61.75,61.75,0,0,0,7.66,1.65,78.42,78.42,0,0,0,7.54,20C180.86,383.61,163.62,382.75,149.37,376.19ZM436.29,173.1l1,2.12-1.61.27a77.47,77.47,0,0,0,8.19-.53c1.66-.21,3.31-.45,5-.75a18.3,18.3,0,0,1-6.12,2.93L438,178.39l4.87,1c3.59.74,15.91-1.13,19.44-1.49,1.88-.19,3.78-.15,5.67-.37-.71.08-2.06,1.71-2.6,2.17a36.35,36.35,0,0,1-10.71,6.45c-4.49,1.64-9.19,2.56-13.8,3.78-.57.16-2.14.8-2.71.93l-.23,0,4,.93,6.06.31c1.69-.05,9.38-.62,11.08-.69-1.16.7-8.26,2-9.3,2.82a26.48,26.48,0,0,0-5.07,5.56,28.58,28.58,0,0,1,3-2.9c7.08,15.27,13.67,30.78,19.34,46.63,8,22.35,15,46,17.26,69.67a127,127,0,0,1,.51,16c-.05.31-.1.62-.16.93-.52,13.27-3.36,26.46-9.66,38.21a68.3,68.3,0,0,1-18.66,22,69.85,69.85,0,0,1-5.79,4.05c-1.64,1-4.26,1.89-5.61,3.25a9.6,9.6,0,0,0-.94,1,1.67,1.67,0,0,0-.17,2.1c1.41,2.48,8.31,2.62,10.72,3.44,2.94,1,5.32,2.32,6.92,5,.48.8.59,1.27.45,1.57-.43.37-1.53.34-2.89.55a155,155,0,0,1-19.14,1.45c-5.38.17-11.32.58-16.76-.3-.1-.8-.21-1.6-.27-2.41a104.76,104.76,0,0,1,.61-22.3c.92-7.43,2.34-14.83,3.85-22.21l1.11-5.55a34.4,34.4,0,0,1,1.45-5.4,66.22,66.22,0,0,1,5.11-10,55.65,55.65,0,0,0-5.85,9.74,34,34,0,0,0-1.82,5.43l-1.44,5.48c-1.85,7.32-3.59,14.7-4.72,22.23A107.73,107.73,0,0,0,420,398.83a84.75,84.75,0,0,0,.09,11.49c.05,1,.16,1.92.28,2.87l.17,1.43a11.55,11.55,0,0,0,.28,1.58,5,5,0,0,0,.89,1.76A7.81,7.81,0,0,0,423,419.2a13.84,13.84,0,0,0,2.77,1.56c1.83.79,3.64,1.34,5.11,2.13a4.72,4.72,0,0,1,1.66,1.32,2.3,2.3,0,0,1,.37,1.67,4.45,4.45,0,0,1-1.85,3,5.46,5.46,0,0,0-.22-3.14,6.54,6.54,0,0,0-2.79-3.36,8.51,8.51,0,0,0-2-.78,12.35,12.35,0,0,0-1.88-.39,13.57,13.57,0,0,0-3.88,0,13.19,13.19,0,0,0,3.14,2.29c1.12.61,2.2,1.06,3,1.5a9.24,9.24,0,0,1,2.27,1.92,12.87,12.87,0,0,1,1.91,3l-.45-.38a16.76,16.76,0,0,1-4.48,2,21.53,21.53,0,0,1-2.57.57c-.86.12-1.8.21-2.7.28h-.14a2.82,2.82,0,0,0,.45-.94,3.59,3.59,0,0,0-.16-2.17,7.13,7.13,0,0,0-2.47-3,9.84,9.84,0,0,0-3.24-1.61,7.25,7.25,0,0,0-3.65-.16,29.65,29.65,0,0,0,2.6,2.27c.85.66,1.66,1.29,2.49,1.9a22.42,22.42,0,0,1,2.22,1.75,3.27,3.27,0,0,1,.74,1,2.57,2.57,0,0,1,.21,1.56l-.55-.57c-1.33,0-2.66.06-4,0a47.78,47.78,0,0,1-5.47-.54,27.29,27.29,0,0,1-5.22-1.27,15.3,15.3,0,0,1-4.45-2.69,21.21,21.21,0,0,1-3.63-3.93,26.6,26.6,0,0,1-2.69-4.7,28.31,28.31,0,0,1-1.7-5.18c-.85-3.58-1.2-7.34-1.81-11.1-.3-1.89-.73-3.74-1.12-5.58s-.8-3.69-1.29-5.54a29.14,29.14,0,0,0-2.08-5.31c-.81-1.71-1.57-3.43-2.31-5.17.6,1.79,1.22,3.57,1.89,5.34a28.82,28.82,0,0,1,1.73,5.33c.37,1.83.65,3.69.95,5.56s.59,3.71.78,5.57c.41,3.61.61,7.29,1.29,11a87.64,87.64,0,0,1-8.73,2.61c-21.12,5-43.26,5-64.74,2.67A313.77,313.77,0,0,1,283.25,414c.63-3.69,1.27-7.37,2-11,1.55-7.59,3.48-15.19,7.25-22a49,49,0,0,0-5.21,10.5,115.51,115.51,0,0,0-3.48,11.22c-1,3.8-1.78,7.63-2.6,11.44-.42,1.9-.8,3.81-1.26,5.68-.21.94-.47,1.84-.73,2.75l-.47,1.26c-.2.42-.38.85-.59,1.26a23.08,23.08,0,0,1-7,8.46,14.92,14.92,0,0,1-4.83,2.26,41.52,41.52,0,0,1-5.56,1,47.91,47.91,0,0,1-7.48.29l-.56.58a2.59,2.59,0,0,1,.2-1.56,3.27,3.27,0,0,1,.74-1,23.29,23.29,0,0,1,2.22-1.76c.83-.61,1.65-1.24,2.49-1.9a28.12,28.12,0,0,0,2.61-2.27,7.41,7.41,0,0,0-3.66.16,10.09,10.09,0,0,0-3.23,1.61,7.13,7.13,0,0,0-2.48,3,3.62,3.62,0,0,0-.15,2.18,2.79,2.79,0,0,0,.44.92c-.82-.06-1.64-.13-2.45-.23a20.3,20.3,0,0,1-5.23-1.43,13.48,13.48,0,0,1-2.2-1.15l-.45.38a12.58,12.58,0,0,1,1.91-3,9.22,9.22,0,0,1,2.26-1.93c.84-.44,1.93-.89,3-1.5a13.58,13.58,0,0,0,3.13-2.28,13.23,13.23,0,0,0-3.88,0,12.49,12.49,0,0,0-1.87.39,8.58,8.58,0,0,0-2,.78,6.52,6.52,0,0,0-2.78,3.36,5.44,5.44,0,0,0-.23,3.11,6.54,6.54,0,0,1-1.08-1.09,3.62,3.62,0,0,1-.77-1.91,2,2,0,0,1,.49-1.61,6.11,6.11,0,0,1,1.9-1.33c.8-.4,1.68-.76,2.59-1.14a24.46,24.46,0,0,0,2.8-1.34,8,8,0,0,0,2.67-2.36,6.87,6.87,0,0,0,.77-1.71,13.19,13.19,0,0,0,.37-1.6,22.36,22.36,0,0,0,.26-3.11c0-4-.09-7.81,0-11.73s0-7.82-.18-11.73a143.77,143.77,0,0,0-2.45-23.39,61.63,61.63,0,0,0-3.41-11.28c-1.57-3.59-3.66-7.11-6.82-9.47a18,18,0,0,1,3.63,4.52,31.63,31.63,0,0,1,2.45,5.24,60.28,60.28,0,0,1,2.71,11.25,161.59,161.59,0,0,1,1.56,23.18c0,3.88,0,7.76-.12,11.66s-.05,7.87-.16,11.66c0,.47,0,.94-.1,1.4-1,0-1.89,0-2.41,0a156.58,156.58,0,0,1-17.6-.25c-2.76-.22-14.45-.57-15.15-4.64a1.64,1.64,0,0,1,.28-1.19c2.12-2.61,11.38-3.71,13.45-5.31a3.69,3.69,0,0,0,.79-.8c2.76-3.27-7-5.63-9-6.77-30.12-17.08-31.37-57.25-28.43-87.66.89-9.14,2.27-18.22,3.91-27.26a382.13,382.13,0,0,1,22.29-75.37,33.37,33.37,0,0,1,3,6,29.76,29.76,0,0,0-7.24-13.82c-1.8-2-2.33-3.72-4.59-5.17-.66-.43-1.35-.84-2-1.22,3.09-.31,4.61-.79,7.57-1a29.38,29.38,0,0,1,6.91.36c2.23.42,5.85.23,7.6,1.53l.31-.25c-2.33-2-4.83-4.8-7.41-6.48-1.08-.7-2.2-1.37-3.32-2h.64a31.41,31.41,0,0,0,6-.8,30.33,30.33,0,0,0,10.81-4.86,34.32,34.32,0,0,1-6.84,2.65,368.93,368.93,0,0,1,18.76-33.14c3.81-6,7.83-11.93,12.17-17.65,9.61-12.66,20.75-24.16,34.49-32.25a77.3,77.3,0,0,1,58.72-8.25,101,101,0,0,1,30.2,13.57c-.2-.22-.39-.44-.6-.66a127.77,127.77,0,0,1,20.34,16.34C417.11,136.3,426.86,154.18,436.29,173.1ZM500.07,34.66a224,224,0,0,1-2.39,30.06c-3,20-8.64,40.14-19.53,57.3C467,139.65,450.3,151.4,430.23,154.67a152.92,152.92,0,0,0-10-16.44c-11.09-15.53-25.29-29.13-41.88-38.67,3.08-15.67,26-26.78,37.95-33.36C438.41,54,465.2,41.08,478.68,18.69c1.57-2.6,3.15-5.57,5.67-7.38,4.22-3,9.82-.58,12.52,3.38C500.73,20.35,500.16,28.09,500.07,34.66Z"/>    </g>    <g id="eye">        <g id="eye-color1">            <g opacity="0" ><path fill="#EABC54"  d="M234.82,140.34c-.14.46-.2.94-.35,1.4a16,16,0,0,1-1.35,2.87c-.53.93-1,1.89-1.54,2.82-.24.42-.5.81-.77,1.21l-.43.61c-.09.11-.46.47-.46.6-.19.25-.39.5-.59.74-5.88,7-13.9,9.8-22.69,6.53-8.54-3.17-14.21-10.4-14.65-19.54a.84.84,0,0,1,0-.28.93.93,0,0,1,0-.29,23.27,23.27,0,0,1,19-21.81,18.93,18.93,0,0,1,11.42,1.34c-15.29-7.7-34.35-2.92-39.29,15.34a20.81,20.81,0,0,0-.67,6.53A29.42,29.42,0,0,0,193,158.64c8.6,7.09,21.5,6.67,31.05,1.77,7.18-3.69,10-12.6,10.92-20.45C234.91,140.08,234.86,140.21,234.82,140.34Z"/></g><g opacity="0" ><path fill="#EABC54"  d="M358.58,134.27c-.24.62-.44,1.25-.7,1.86a24.39,24.39,0,0,1-2,3.67,31.67,31.67,0,0,1-2.54,3.43c-5.88,7-13.9,9.8-22.69,6.53-8.53-3.17-14.2-10.4-14.65-19.53a2.11,2.11,0,0,1,0-.58,23.29,23.29,0,0,1,19-21.81,18.89,18.89,0,0,1,11.43,1.35c-15.3-7.71-34.36-2.93-39.3,15.33a20.54,20.54,0,0,0-.66,6.53A29.34,29.34,0,0,0,317,151.28c8.59,7.09,21.5,6.67,31,1.77,6.9-3.55,9.72-12,10.77-19.65C358.75,133.65,358.67,134,358.58,134.27Z"/></g>        </g>        <g id="eye-shape">            <path fill="#fbfbfb"  d="M295.89,123.07c-21.73-17.81-51.73-12-72.06,4.87-11.71,10.13-20.83,23.9-22.36,39.62-1.27,13.08,2.6,26.27,9.61,37.28,12.38,19.45,36.51,33.94,59.91,27.09,20.91-6.11,35.23-26.44,41.18-46.49C318.73,163.33,314.39,138.24,295.89,123.07ZM312,167.47c3.12,13.13-4,29.28-15.05,36.62-11.44,7.58-25.45,6.3-36.15-1.92-11.83-9.09-12.9-22.85-8.48-36.32a1.57,1.57,0,0,1,.15-.32c5.3-13,19.95-19.08,33.33-17.47a40.23,40.23,0,0,1,4.79.88c7-1.95,15.58,1.56,16.61,9.37A21.23,21.23,0,0,1,312,167.47Z"/><path d="M221.71,125.82C211.07,135,202.58,147.11,199.5,161c-2.77,12.5-.75,25.57,4.53,37.14,10.21,22.39,34.35,41.15,59.93,38.25,23.13-2.63,40.23-22.12,48.49-42.66,9.19-22.89,7.78-50-9.89-68.54C280.11,101.65,245.06,106.47,221.71,125.82Zm90.46,59.62c-5.95,20.05-20.27,40.38-41.18,46.49-23.4,6.85-47.53-7.64-59.91-27.09-7-11-10.88-24.2-9.61-37.28,1.53-15.72,10.65-29.49,22.36-39.62,20.33-16.85,50.33-22.68,72.06-4.87C314.39,138.24,318.73,163.33,312.17,185.44Z"/><path d="M307.12,162.07c-1.18,7.61-8.53,14.08-16.4,11.78-7.26-2.13-10.49-10.21-8.63-17.13a1.6,1.6,0,0,1,.1-.39,1.34,1.34,0,0,1,.18-.38,12.35,12.35,0,0,1,8.2-7,40.23,40.23,0,0,0-4.79-.88c-13.38-1.61-28,4.46-33.33,17.47a1.57,1.57,0,0,0-.15.32c-4.42,13.47-3.35,27.23,8.48,36.32,10.7,8.22,24.71,9.5,36.15,1.92C308,196.75,315.1,180.6,312,167.47a21.23,21.23,0,0,0-4.8-9.16A12.9,12.9,0,0,1,307.12,162.07Z"/><path fill="#fff"  d="M290.57,148.94a12.35,12.35,0,0,0-8.2,7,1.34,1.34,0,0,0-.18.38,1.6,1.6,0,0,0-.1.39c-1.86,6.92,1.37,15,8.63,17.13,7.87,2.3,15.22-4.17,16.4-11.78a12.9,12.9,0,0,0,.06-3.76C306.15,150.5,297.61,147,290.57,148.94Z"/><path fill="#fbfbfb"  d="M437.65,124.5c-21.81-15.38-53-18.4-71.71,3.56-17.26,21.61-17.19,56.12-2.48,79a51.88,51.88,0,0,0,65.66,19.41A58,58,0,0,0,462.59,177C463.67,156.62,454.4,136.32,437.65,124.5Zm-65.73,81.87c-14.35-8.08-20.39-26.75-13.74-41.89a30.47,30.47,0,0,1,4.24-6.94,10.08,10.08,0,0,1,1.62-5.67c2.64-4.14,8-4.83,12.6-3.8a30.47,30.47,0,0,1,12.64-.95c14.23,1.89,27.34,11.65,30.73,26C426.49,200.61,394.74,217.86,371.92,206.37Z"/><path d="M445.1,126.64c-22.48-20.28-60.06-25.65-81.28-.7-16.45,20.59-17.87,51.29-7.19,74.85,10.79,23.79,36.25,38.16,62.16,32.38,23.25-5.18,41.58-24.61,45.83-47.94C468.51,163.94,461.25,141.21,445.1,126.64ZM462.59,177a58,58,0,0,1-33.47,49.54,51.88,51.88,0,0,1-65.66-19.41c-14.71-22.92-14.78-57.43,2.48-79,18.68-22,49.9-18.94,71.71-3.56C454.4,136.32,463.67,156.62,462.59,177Z"/><path d="M389.28,147.12a30.47,30.47,0,0,0-12.64.95,17.62,17.62,0,0,1,3.22,1.06c5.45,2.45,8.82,8.1,6.23,13.93-3,6.78-10.57,8.51-16.85,5.52a1.7,1.7,0,0,1-.39-.18,1.3,1.3,0,0,1-.34-.25,13.66,13.66,0,0,1-6.09-10.61,30.47,30.47,0,0,0-4.24,6.94c-6.65,15.14-.61,33.81,13.74,41.89,22.82,11.49,54.57-5.76,48.09-33.26C416.62,158.77,403.51,149,389.28,147.12Z"/><path fill="#fff"  d="M368.51,168.15a1.3,1.3,0,0,0,.34.25,1.7,1.7,0,0,0,.39.18c6.28,3,13.85,1.26,16.85-5.52,2.59-5.83-.78-11.48-6.23-13.93a17.62,17.62,0,0,0-3.22-1.06c-4.6-1-10-.34-12.6,3.8a10.08,10.08,0,0,0-1.62,5.67A13.66,13.66,0,0,0,368.51,168.15Z"/>        </g>        <g id="eye-color2">            <path fill="#CABBFF"  d="M296.93,204.09c-11.44,7.58-25.45,6.3-36.15-1.92-11.83-9.09-12.9-22.85-8.48-36.32a1.57,1.57,0,0,1,.15-.32c5.09-12.49,18.79-18.56,31.71-17.61-18.58-4.75-40.69,3.61-47,22.29a37.84,37.84,0,0,0,4.9,33.64c7.49,10.53,19.92,14.8,32.48,14.76,6.18,0,12.54-1,17.8-4.27,8.59-5.28,15.13-15.61,17.42-26.36A36.26,36.26,0,0,1,296.93,204.09Z"/><path fill="#CABBFF"  d="M413.7,150.66c-9.56-6.81-25.15-8-36.48-2.77a30.7,30.7,0,0,1,12.06-.77c14.23,1.89,27.34,11.65,30.73,26,6.48,27.5-25.27,44.75-48.09,33.26a32.32,32.32,0,0,1-14.31-17.05,17.33,17.33,0,0,0,.4,2.36,31.2,31.2,0,0,0,16.47,20.87c13.13,6.59,30.83,4.54,43.3-5.59a31.73,31.73,0,0,0,10.47-14.43C433.11,177.65,426.41,159.69,413.7,150.66Z"/>        </g>    </g>    <g id="nose-mouth">        <path fill="#2d2821"  d="M349.68,228.05c3-3.48,6.9-10.44,5.84-15.41-.94-4.37-8.86-3.19-12.12-3.27-5.53-.14-11-.11-16.57-.14-4.93,0-10.93-1.21-15.76-.23-6,3.54,7.41,20.47,9.69,22.26C329.5,238.16,342.48,236.45,349.68,228.05Z"/><path d="M361.94,250.65c-6.83-4-16.05-5.21-24.72-3.26a17.58,17.58,0,0,0-1.14-10.26,23,23,0,0,0,12.31-4.94,25.3,25.3,0,0,0,8.73-13.72c.84-3.51,1.83-8.51-2-10.42-1.79-.89-4-.77-6-.85q-6.94-.28-13.89-.32c-4.63,0-9.26,0-13.89-.09-3.29-.06-6.82-.69-10.06,0a1.4,1.4,0,0,0-.66.31c-7.41,4,2.2,18.65,5.48,22.32a23.78,23.78,0,0,0,17.37,7.81c-.24-.23-1-1.09,0,1.4a16.56,16.56,0,0,1,.87,7.91,35,35,0,0,0-10.13-1.66c-4.91-.29-10.64-.34-15.3,1.48-5.83,2.29-11.37,7.53-15.69,11.93a73.94,73.94,0,0,0-12.8,17.61c-3.2,6.15-6,13.07-6.78,20s2.51,11.76,8.15,15.6c5.17,3.52,11,6.92,17.25,3.92s8.94-9.46,10.34-15.79c2.29-10.39,4.38-20.16,8.55-30,1.85-4.39,3.39-9.88,6.84-13.34,3.05-3.07,8-3.79,11.93-5.44a1.42,1.42,0,0,0,.55-.24l.2-.12c8.08-1.92,16.7-3.36,23,.3C362.1,251.72,363.61,251.63,361.94,250.65ZM286.54,311c-4.45-2.6-9-5.6-9.88-11.05-1.28-8.36,4.09-18.89,8.21-25.88A71.33,71.33,0,0,1,300.4,255.7c5.67-4.76,10.42-7.54,17.8-7.88,4.43-.21,10.09-.36,14.59,1.29a37.1,37.1,0,0,0-7.64,3.07c-2.93,1.79-4.69,4.59-6.22,7.59a130.53,130.53,0,0,0-9.09,23.33c-2.33,8.28-2.06,19.76-8.06,26.49C297.28,314.63,292,314.15,286.54,311Zm25.68-101.33c4.62-.9,10.37.18,15.09.21,5.29,0,10.58,0,15.87.13,3.12.08,10.7-1,11.6,3,1,4.6-2.73,11.06-5.58,14.28-6.91,7.8-19.34,9.38-27.71,3C319.32,228.62,306.43,212.92,312.22,209.64Z"/><path fill="#e24444"  d="M318.93,259.77c1.53-3,3.29-5.8,6.22-7.59a37.1,37.1,0,0,1,7.64-3.07c-4.5-1.65-10.16-1.5-14.59-1.29-7.38.34-12.13,3.12-17.8,7.88A71.33,71.33,0,0,0,284.87,274c-4.12,7-9.49,17.52-8.21,25.88.84,5.45,5.43,8.45,9.88,11.05,5.43,3.18,10.74,3.66,15.24-1.38,6-6.73,5.73-18.21,8.06-26.49A130.53,130.53,0,0,1,318.93,259.77Zm-18.34,17.54c-1.85,3.68-3.52,7.46-5.24,11.31a53.2,53.2,0,0,1,3.1-12.25A64.57,64.57,0,0,1,304,265c1.14-1.8,2.32-3.54,3.62-5.25a33.3,33.3,0,0,1,4.4-4.73,19.62,19.62,0,0,1,5.49-3.51,12.07,12.07,0,0,1,6.33-.86c-4.2.64-7.5,3.12-10.2,6.05a44.17,44.17,0,0,0-3.74,4.73c-1.15,1.67-2.3,3.39-3.35,5.14C304.45,270.05,302.43,273.63,300.59,277.31Z"/><path d="M313.68,256.69c2.7-2.93,6-5.41,10.2-6.05a12.07,12.07,0,0,0-6.33.86,19.62,19.62,0,0,0-5.49,3.51,33.3,33.3,0,0,0-4.4,4.73c-1.3,1.71-2.48,3.45-3.62,5.25a64.57,64.57,0,0,0-5.59,11.38,53.2,53.2,0,0,0-3.1,12.25c1.72-3.85,3.39-7.63,5.24-11.31s3.86-7.26,6-10.75c1.05-1.75,2.2-3.47,3.35-5.14A44.17,44.17,0,0,1,313.68,256.69Z"/>    </g></svg>