<!--  ~ Copyright (C) 2018 Baidu, Inc. All Rights Reserved.  --><svg viewBox="0 0 640 480" xmlns="http://www.w3.org/2000/svg">    <g id="back-ground-cl">        <rect fill="none" width="640" height="480" />        <ellipse opacity="0.1" cx="331.93" cy="418.82" rx="168.39" ry="32.01"/>    </g>    <g id="body">        <defs>            <clipPath id="outline">                <path fill="none"  d="M179.78,319.61a40.81,40.81,0,0,0,6.2,5.27c.19-4.32.53-8.64,1-12.92-.44-.4-.87-.81-1.29-1.25a28.66,28.66,0,0,1-3.76-4.79,26,26,0,0,1-1.4-2.6,26.84,26.84,0,0,0-1.38,3.33,23.25,23.25,0,0,0-.88,11.28C178.74,318.5,179.25,319.06,179.78,319.61Z"/><path fill="none"  d="M412.16,127.89c.41-.41.75-.78,1-1,4.44-5.3,5.5-12.57,9.83-18,3.85-4.79,9.93-6.75,14.06-11.21a21.06,21.06,0,0,0,5.43-11.57,16.34,16.34,0,0,0,0-5.36c-.15-.79-.39-2.63-1.06-3.2-.93-.79-4.39-.92-5.24-.52-2.46,1.16-4.5,3.64-7.07,4.9a43.93,43.93,0,0,1-8.28,3c-11.84,3.11-33,4-35.43,19A133.6,133.6,0,0,1,412.16,127.89Z"/><path fill="none"  d="M250.1,131.88a8.54,8.54,0,0,0,1.56,5.17,191.35,191.35,0,0,1,15.79-19.44,122.73,122.73,0,0,1,9.6-9.21c-5-14.07-20.35-23.27-34-14-4.42,3-8.16,6.9-12.72,9.69a24.52,24.52,0,0,1-6.2,2.79c-2.45.68-3.12,0-4.39,2.56-1.44,2.9-.07,4.47,2.33,6.45,5.67,4.68,12.24,3,18.88,3.44,3.41.23,6.79,1.28,8.43,4.51C250.69,126.41,250.07,129.09,250.1,131.88Z"/><path fill="none"  d="M467.15,243.54c-8.65-24.15-19.37-47.49-30.8-70.43-9.42-18.93-19.18-36.8-34.41-51.77A120.94,120.94,0,0,0,369,98h0a.41.41,0,0,0-.11-.07A30.59,30.59,0,0,0,368,89.8a29,29,0,0,0-2.44-6.32,28.85,28.85,0,0,1-1.29,8.44l-.31,1-1-.46a14.3,14.3,0,0,1-8.12-12.94c0-1.32.1-2.57.13-3.76a17.16,17.16,0,0,0-.23-3.45,18.29,18.29,0,0,0-2.59-6.39,27.87,27.87,0,0,0-10.47-9.34A67.35,67.35,0,0,0,330.76,52c.26,1,.5,2,.69,3.1a17.14,17.14,0,0,1,.05,6.31,12.61,12.61,0,0,1-2.87,5.79,27.93,27.93,0,0,1-4.61,4c-.79.57-1.56,1.14-2.29,1.71s-1.38,1.17-2.14,1.85c-1.42,1.32-3.1,2.53-3.89,3.78s-.71,3-.5,4.87a17.71,17.71,0,0,1,.21,3.1,5.13,5.13,0,0,1-.38,1.77,3.65,3.65,0,0,1-1.23,1.58l-.54.38L312.7,90a35,35,0,0,0-7.58-2.94,37,37,0,0,0-7-1c.52,1.13.93,2.28,1.34,3.42L301,93.9c.23.67.5,1.33.76,2l-.54.28a80,80,0,0,0-7.76,4c-20,11.78-34.51,30.8-46.79,50.08a377.44,377.44,0,0,0-52.43,133.53c-1.64,9-3,18.11-3.91,27.25-.18,1.83-.34,3.71-.48,5.61-.22,2.91-.39,5.89-.49,8.91a152.79,152.79,0,0,0,.9,23.47,98.74,98.74,0,0,0,3.07,15.36c4.1,14.13,11.8,26.59,25.43,34.31,2.13,1.21,13,3.8,8.38,7.39-2.4,1.85-14.48,3-13.86,6.68.7,4.07,12.39,4.42,15.14,4.64a154.42,154.42,0,0,0,17.61.25c.52,0,1.44,0,2.41,0,0-.46.07-.93.09-1.4.11-3.79.06-7.79.17-11.66s.13-7.78.11-11.66a160.15,160.15,0,0,0-1.55-23.18,61.08,61.08,0,0,0-2.71-11.25,32.45,32.45,0,0,0-2.45-5.24,18,18,0,0,0-3.63-4.52c3.16,2.36,5.25,5.88,6.81,9.47a60.89,60.89,0,0,1,3.42,11.28,143.87,143.87,0,0,1,2.44,23.39c.15,3.91.19,7.83.18,11.73s.09,7.72,0,11.74a20.91,20.91,0,0,1-.26,3.1,11.55,11.55,0,0,1-.37,1.6,6.21,6.21,0,0,1-.77,1.71,7.85,7.85,0,0,1-2.66,2.36,26.17,26.17,0,0,1-2.8,1.34c-.91.38-1.8.74-2.59,1.14a5.88,5.88,0,0,0-1.9,1.33,2,2,0,0,0-.5,1.61,3.66,3.66,0,0,0,.78,1.92,7.32,7.32,0,0,0,1.07,1.09,5.48,5.48,0,0,1,.24-3.12,6.52,6.52,0,0,1,2.78-3.36,8,8,0,0,1,2-.77,10.23,10.23,0,0,1,1.87-.39,13.21,13.21,0,0,1,3.88-.05,13.14,13.14,0,0,1-3.14,2.28c-1.11.61-2.2,1.07-3,1.5a9.26,9.26,0,0,0-2.27,1.93,12.58,12.58,0,0,0-1.91,3l.46-.38a13.38,13.38,0,0,0,2.19,1.15,20.84,20.84,0,0,0,5.23,1.44c.82.1,1.64.16,2.46.22a2.79,2.79,0,0,1-.44-.92,3.54,3.54,0,0,1,.15-2.18,7.19,7.19,0,0,1,2.48-3,10,10,0,0,1,3.23-1.61,7.37,7.37,0,0,1,3.65-.16,28.07,28.07,0,0,1-2.6,2.27c-.84.67-1.66,1.29-2.49,1.91a20.77,20.77,0,0,0-2.22,1.75,3.27,3.27,0,0,0-.74,1,2.59,2.59,0,0,0-.2,1.56l.56-.58a49.21,49.21,0,0,0,7.48-.28,43.19,43.19,0,0,0,5.56-1,14.79,14.79,0,0,0,4.83-2.25,23.12,23.12,0,0,0,7-8.46c.22-.42.4-.85.6-1.27l.47-1.26c.25-.91.52-1.81.73-2.75.46-1.87.84-3.78,1.26-5.68.81-3.81,1.63-7.64,2.6-11.44a116.37,116.37,0,0,1,3.48-11.22,49.61,49.61,0,0,1,5.2-10.5c-3.76,6.86-5.69,14.47-7.25,22-.76,3.66-1.39,7.34-2,11a311.44,311.44,0,0,0,33.1,5.43c21.48,2.29,43.63,2.35,64.74-2.67,2.92-.7,5.72-1.56,8.45-2.51-.74-3.71-.95-7.41-1.41-11-.11-.92-.24-1.84-.39-2.75l-.42-2.8c-.27-1.87-.52-3.74-.87-5.56a20.05,20.05,0,0,0-.62-2.68c-.28-.88-.61-1.77-.92-2.67l-.92-2.69-.81-2.73h0l2.49,5.1c.41.85.85,1.69,1.25,2.57a19.6,19.6,0,0,1,1,2.74c.53,1.86.94,3.7,1.38,5.55l.6,2.77c.18.95.35,1.9.49,2.84.56,3.78.9,7.53,1.7,11.11a26.29,26.29,0,0,0,4.28,9.83,18.43,18.43,0,0,0,8,6.59,28.45,28.45,0,0,0,5.2,1.29,47.43,47.43,0,0,0,5.46.57c1.29.06,2.58.05,3.87,0l.59.61a2.59,2.59,0,0,0-.2-1.56,3.27,3.27,0,0,0-.74-1,22.09,22.09,0,0,0-2.22-1.76c-.83-.61-1.65-1.24-2.49-1.9a28.07,28.07,0,0,1-2.6-2.27,7.37,7.37,0,0,1,3.65.16,9.79,9.79,0,0,1,3.23,1.61,7.13,7.13,0,0,1,2.48,3,3.62,3.62,0,0,1,.15,2.18,2.69,2.69,0,0,1-.42.89h.19a24.58,24.58,0,0,0,5.27-.85,16.59,16.59,0,0,0,4.4-1.92l.46.38a12.58,12.58,0,0,0-1.91-3,9.26,9.26,0,0,0-2.27-1.93c-.84-.44-1.93-.89-3-1.5a13.42,13.42,0,0,1-3.14-2.28,13.23,13.23,0,0,1,3.88,0,12.23,12.23,0,0,1,1.87.39,8.4,8.4,0,0,1,2,.78,6.48,6.48,0,0,1,2.78,3.36,5.44,5.44,0,0,1,.22,3.16,4.45,4.45,0,0,0,1.9-3.09,2.34,2.34,0,0,0-.42-1.67,5.2,5.2,0,0,0-1.72-1.32c-1.49-.78-3.31-1.33-5.14-2.13a12.39,12.39,0,0,1-2.75-1.61,6.55,6.55,0,0,1-1.25-1.27l-.26-.39a3,3,0,0,1-.24-.47,5.37,5.37,0,0,1-.29-.92l-.82-5.75a79.22,79.22,0,0,1-.91-11.47,67,67,0,0,1,2.93-17c1.53-5.46,2.92-10.91,4.36-16.39,1-3.67,2-7.32,3.22-10.91a53.6,53.6,0,0,1,2.13-5.29,15.48,15.48,0,0,1,2.63-4,7.52,7.52,0,0,1,.64-.62,13,13,0,0,0-2.86,4.8,52.4,52.4,0,0,0-1.78,5.35c-1,3.62-1.82,7.3-2.56,11-1.48,7.43-3.22,14.81-4.56,22.27a66.6,66.6,0,0,0-.68,21.91l.39,2.54c5.49.92,11.5.5,16.94.34a157.31,157.31,0,0,0,19.15-1.46c2.36-.37,3.95,0,2.58-2.3-1.61-2.7-4-4-6.93-5-2.41-.83-9.3-1-10.71-3.45-.77-1.35.08-2.06,1-2.94,1.35-1.35,4-2.21,5.6-3.25q3-1.87,5.8-4a69.68,69.68,0,0,0,18.8-22.2c8.95-16.71,10.93-36.3,9.16-54.93C482.16,289.49,475.15,265.89,467.15,243.54Z"/><path fill="none"  d="M185.94,325.87l0-.76a27.41,27.41,0,0,1-7.32-4.24,34.69,34.69,0,0,1-6.47-6.73,36.51,36.51,0,0,1-4.53-8.21,38.45,38.45,0,0,1-1.8-5.73,27.93,27.93,0,0,0-2.23,4.23,35.15,35.15,0,0,0-2.31,7.79,42.8,42.8,0,0,0-.62,5.07,17.5,17.5,0,0,0,5.9,2.45,20.39,20.39,0,0,1-9.3-4.37,34.78,34.78,0,0,1-7-7.71,54,54,0,0,1-4.87-9.21,72.69,72.69,0,0,1-2.74-8,23.48,23.48,0,0,0-1.83,5.05,26.15,26.15,0,0,0-.62,7.22,32.12,32.12,0,0,0,3.95,13.82l2.14,3.85-3.88-2.09a49.14,49.14,0,0,1-12.36-9.49,39.84,39.84,0,0,1-4.82-6.21c-.41-.65-.79-1.33-1.17-2-.07,1.69-.09,3.4-.06,5.09a72.69,72.69,0,0,0,.91,10.43,47.32,47.32,0,0,0,7.3,19.26l1.46,2.13-2.56,0a32.15,32.15,0,0,1-12.65-2.71,46.31,46.31,0,0,1-5.72-2.87c-.58-.35-1.15-.71-1.72-1.07.9,1.76,1.88,3.49,2.92,5.17a74.35,74.35,0,0,0,6,8.33,55.16,55.16,0,0,0,15.52,13.19,41.59,41.59,0,0,0,9.38,3.81c2.75-1.38,5.42-2.92,8-4.56a95.74,95.74,0,0,0,8.91-6.38,69.38,69.38,0,0,1-8.27,7.31,77.38,77.38,0,0,1-9.27,6.07q-2.43,1.37-5,2.51t-5.2,2.08c-1.31.46-2.65.85-4,1.2,3.37.65,6.75,1.23,10.14,1.64a80.63,80.63,0,0,0,17,.43,53.52,53.52,0,0,0,8.34-1.46A44.49,44.49,0,0,0,182,362c.54-1.44,1.05-2.89,1.49-4.37.13-.43.24-.87.36-1.3.55-1.93,1.06-3.87,1.47-5.84a57.16,57.16,0,0,1-.85,7.37,51.34,51.34,0,0,1-1.84,7.25,30.72,30.72,0,0,1-3.18,6.9c-.35.56-.74,1.11-1.15,1.64a83.57,83.57,0,0,0,9.67-3.46c1.1-.53,2.24-1,3.33-1.53a92.52,92.52,0,0,1-4.4-18.64A140.06,140.06,0,0,1,185.94,325.87,-5.19.29h.06l.09.21Z"/><path d="M180.75,326.16l.15.21-.09-.21Z"/><path d="M480.36,276.05c-6.48-25.08-15.82-49.33-26.42-72.92-5.39-12-11.13-23.86-17-35.62-5.06-10.07-10.07-20.09-16.63-29.28q-3-4.12-6.2-8.07a22.91,22.91,0,0,0,2.31-2.63c2.36-3.24,3.7-7,5.37-10.62a25.55,25.55,0,0,1,9.77-11.36c6.21-4.06,11.3-8.51,13.33-16,1.36-5,1.74-13.25-3.51-16.29a5.22,5.22,0,0,0-5.61.18c-1.78,1.07-3.18,2.82-4.91,4a30.41,30.41,0,0,1-7.15,3.44c-13.23,4.56-37.27,4.64-41,21.21q-3.08-1.94-6.25-3.69c-2.34-1.29-4.74-2.48-7.18-3.58a27.57,27.57,0,0,0-.48-5.2,30.21,30.21,0,0,0-3.38-9.22L364,78.09l.09,2.73a28.38,28.38,0,0,1-1.23,9.4,12.24,12.24,0,0,1-5.61-10.66c0-1.17.18-2.4.25-3.69a19.88,19.88,0,0,0-.19-4,21.1,21.1,0,0,0-2.81-7.4,27,27,0,0,0-5-6A36.37,36.37,0,0,0,343.12,54a76,76,0,0,0-14.07-5.68l-2.65-.83.77,2.66c1.06,3.68,2.15,7.36,1.49,10.71a10,10,0,0,1-2.19,4.52,25.16,25.16,0,0,1-4.09,3.66c-.77.59-1.55,1.18-2.32,1.82s-1.56,1.37-2.22,2l-2.15,2a10.92,10.92,0,0,0-2.11,2.48,6.92,6.92,0,0,0-.89,3.35,19.27,19.27,0,0,0,.25,3.1,16.06,16.06,0,0,1,.29,2.69,2.85,2.85,0,0,1-.32,1.34,35.4,35.4,0,0,0-7.4-2.42,33.9,33.9,0,0,0-8.52-.72l-1.14,0,.6.94a30,30,0,0,1,2,4.14L300,93.47a96.27,96.27,0,0,0-20.52,12.89c-3.76-9.62-11.93-17.65-22.55-18.89-12-1.4-18.91,8.34-28.13,14a25.62,25.62,0,0,1-8.15,3c-2,.45-3.58,1-4.52,3-1.84,3.85,1,8.29,3.91,10.68,3.83,3.17,9,4.33,13.83,4.3,2.69,0,5.41-.43,8.08,0,6.35,1,4.78,6.35,5.16,11a10.06,10.06,0,0,0,2.67,6.24,342.92,342.92,0,0,0-22.47,38.07,378.46,378.46,0,0,0-27.51,69.13q-5.15,17.8-8.5,36.06c-1.46,8-2.9,16.55-3.93,25.28a26.8,26.8,0,0,1-5.29-8.81L181,296.53l-1.58,2.62a26,26,0,0,0-2.9,6.74,22.68,22.68,0,0,0-.78,7.28c0,.64.11,1.28.2,1.9-.58-.78-1.13-1.57-1.64-2.39a36.89,36.89,0,0,1-2.15-3.82,38.8,38.8,0,0,1-1.78-4,51.15,51.15,0,0,1-2.4-8.44l-.59-3.27-2,2.63a30.91,30.91,0,0,0-4.2,7.71,35.07,35.07,0,0,0-1.94,8.46c-.14,1.42-.2,2.84-.2,4.25-.51-.38-1-.78-1.51-1.2A34,34,0,0,1,151,307.2a53,53,0,0,1-4.44-9.2,81.11,81.11,0,0,1-2.88-9.81l-.42-1.76-1,1.53a24.75,24.75,0,0,0-3.18,7.09,27.92,27.92,0,0,0-.94,7.72,33.88,33.88,0,0,0,1,7.7c.29,1.15.64,2.28,1,3.4a45.51,45.51,0,0,1-8.05-7,40.41,40.41,0,0,1-4.44-5.83,39.89,39.89,0,0,1-3.24-6.55l-2.05-5.3-.77,5.59a74.57,74.57,0,0,0-.61,10.93,70.85,70.85,0,0,0,1,10.87,56.73,56.73,0,0,0,2.8,10.6,42.34,42.34,0,0,0,3.67,7.5,31.91,31.91,0,0,1-9-2.25,53.84,53.84,0,0,1-5.48-2.61,46.66,46.66,0,0,1-5.11-3.25L105.39,324l1.77,3.94a70.25,70.25,0,0,0,5.1,9.26,77.33,77.33,0,0,0,6.3,8.43,56,56,0,0,0,16.27,13.25,42.29,42.29,0,0,0,8.56,3.29,68.32,68.32,0,0,1-10,3.94,51.08,51.08,0,0,1-10.48,2.09l-8.22.73,8,2a136.59,136.59,0,0,0,17.22,3.29,72.36,72.36,0,0,0,17.65.11,46.26,46.26,0,0,0,8.68-1.91,41.14,41.14,0,0,0,15.07-8.58l-.24.62a34.72,34.72,0,0,1-3.44,6.26,13.94,13.94,0,0,1-5,4.46l-8.82,4.33,9.69-1.87a78.05,78.05,0,0,0,15.66-4.74c1.08-.47,2.14-1,3.19-1.5A72.69,72.69,0,0,0,198.25,383a53.84,53.84,0,0,0,16.37,16.68,51.84,51.84,0,0,0,5.28,3c.46.23,2,1.13,3.25,1.71l-.31.13c-1.79.62-3.6,1.16-5.38,1.81-3.43,1.25-9.09,3.22-6.82,8,1.88,3.91,8,4.8,11.71,5.38a116,116,0,0,0,20,1c1.43,0,3.4.1,5.38.06a2.69,2.69,0,0,1-.2.38c-.72,1.09-2.44,1.88-4.19,2.6-.89.37-1.82.73-2.77,1.2a8.86,8.86,0,0,0-2.84,2,5,5,0,0,0-1,1.78,5.64,5.64,0,0,0-.21,2,6.67,6.67,0,0,0,1.35,3.45,12.82,12.82,0,0,0,5.35,3.8,24,24,0,0,0,6,1.61,48.83,48.83,0,0,0,12-.1,45.78,45.78,0,0,0,5.91-1.18,17.81,17.81,0,0,0,5.67-2.77,24.71,24.71,0,0,0,7.54-9.58c.22-.46.41-.93.61-1.39l.5-1.5c.25-1,.51-2,.69-2.92s.44-2.19.64-3.28c22.29,4.82,45.24,7.67,68.06,6.77a160.11,160.11,0,0,0,32.55-4.44c2.33-.58,4.65-1.23,6.94-1.95a24.78,24.78,0,0,0,1,2.89,30.31,30.31,0,0,0,2.83,5.22,20.79,20.79,0,0,0,9.18,7.7,31,31,0,0,0,5.77,1.48,51.6,51.6,0,0,0,5.81.64,49.31,49.31,0,0,0,5.83-.05c1-.07,1.92-.15,2.94-.29a22.64,22.64,0,0,0,3-.66,19.37,19.37,0,0,0,5.57-2.54,9.85,9.85,0,0,0,2.39-2.31,6.56,6.56,0,0,0,1.25-3.34,5.91,5.91,0,0,0-.15-1.9,5.42,5.42,0,0,0-.85-1.78,8,8,0,0,0-2.72-2.14c-1.87-.95-3.7-1.48-5.32-2.19a10.49,10.49,0,0,1-2.16-1.2,3.42,3.42,0,0,1-.74-.73l-.15-.19c0-.05-.06-.09-.09-.15a2,2,0,0,1-.14-.33l.85.08a142.39,142.39,0,0,0,20.86,0c5.57-.29,11.91-.21,17.3-1.84,3.77-1.13,2.9-4.86.85-7.64-3.27-4.44-9.45-5.46-14.45-6.64l-.43-.13c.93-.57,1.95-1.32,2.33-1.55A77.78,77.78,0,0,0,462.75,389c14-12.67,21.83-30.36,24.28-48.89C489.88,318.55,485.74,296.86,480.36,276.05,420.78,84.89a43.93,43.93,0,0,0,8.28-3c2.57-1.26,4.61-3.74,7.07-4.9.85-.4,4.31-.27,5.24.52.67.57.91,2.41,1.06,3.2a16.34,16.34,0,0,1,0,5.36A21.06,21.06,0,0,1,437,97.67c-4.13,4.46-10.21,6.42-14.06,11.21-4.33,5.39-5.39,12.66-9.83,18-.23.27-.57.64-1,1a133.6,133.6,0,0,0-26.81-24C387.82,88.94,408.94,88,420.78,84.89,249.37,123.8c-1.64-3.23-5-4.28-8.43-4.51-6.64-.45-13.21,1.24-18.88-3.44-2.4-2-3.77-3.55-2.33-6.45,1.27-2.55,1.94-1.88,4.39-2.56a24.52,24.52,0,0,0,6.2-2.79c4.56-2.79,8.3-6.7,12.72-9.69,13.66-9.23,29,0,34,14a122.73,122.73,0,0,0-9.6,9.21,191.35,191.35,0,0,0-15.79,19.44,8.54,8.54,0,0,1-1.56-5.17C250.07,129.09,250.69,126.41,249.37,123.8,177.93,313.15a23.91,23.91,0,0,1,1.19-6.5,26.84,26.84,0,0,1,1.38-3.33,26,26,0,0,0,1.4,2.6,28.66,28.66,0,0,0,3.76,4.79c.42.44.85.85,1.29,1.25-.44,4.28-.78,8.6-1,12.92a40.81,40.81,0,0,1-6.2-5.27c-.53-.55-1-1.11-1.54-1.68A24.11,24.11,0,0,1,177.93,313.15,10.07,57a83.57,83.57,0,0,1-9.67,3.46c.41-.53.8-1.08,1.15-1.64a30.72,30.72,0,0,0,3.18-6.9,51.34,51.34,0,0,0,1.84-7.25,57.16,57.16,0,0,0,.85-7.37c-.41,2-.92,3.91-1.47,5.84-.12.43-.23.87-.36,1.3-.44,1.48-1,2.93-1.49,4.37a44.49,44.49,0,0,1-16.44,8.27,53.52,53.52,0,0,1-8.34,1.46,80.63,80.63,0,0,1-17-.43c-3.39-.41-6.77-1-10.14-1.64,1.35-.35,2.69-.74,4-1.2q2.65-.93,5.2-2.08t5-2.51a77.38,77.38,0,0,0,9.27-6.07,69.38,69.38,0,0,0,8.27-7.31,95.74,95.74,0,0,1-8.91,6.38c-2.61,1.64-5.28,3.18-8,4.56a41.59,41.59,0,0,1-9.38-3.81A55.16,55.16,0,0,1,120,344.39a74.35,74.35,0,0,1-6-8.33c-1-1.68-2-3.41-2.92-5.17.57.36,1.14.72,1.72,1.07a46.31,46.31,0,0,0,5.72,2.87,32.15,32.15,0,0,0,12.65,2.71l2.56,0-1.46-2.13a47.32,47.32,0,0,1-7.3-19.26,72.69,72.69,0,0,1-.91-10.43c0-1.69,0-3.4.06-5.09.38.67.76,1.35,1.17,2a39.84,39.84,0,0,0,4.82,6.21,49.14,49.14,0,0,0,12.36,9.49l3.88,2.09-2.14-3.85a32.12,32.12,0,0,1-3.95-13.82,26.15,26.15,0,0,1,.62-7.22,23.48,23.48,0,0,1,1.83-5.05,72.69,72.69,0,0,0,2.74,8,54,54,0,0,0,4.87,9.21,34.78,34.78,0,0,0,7,7.71,20.39,20.39,0,0,0,9.3,4.37,17.5,17.5,0,0,1-5.9-2.45,42.8,42.8,0,0,1,.62-5.07,35.15,35.15,0,0,1,2.31-7.79,27.93,27.93,0,0,1,2.23-4.23,38.45,38.45,0,0,0,1.8,5.73,36.51,36.51,0,0,0,4.53,8.21,34.69,34.69,0,0,0,6.47,6.73,27.41,27.41,0,0,0,7.32,4.24l0,.76a140.06,140.06,0,0,0,1,24.11,92.52,92.52,0,0,0,4.4,18.64C190.24,369.16,189.1,369.62,188,370.15,287.24-2a69.68,69.68,0,0,1-18.8,22.2q-2.81,2.16-5.8,4c-1.64,1-4.25,1.9-5.6,3.25-.89.88-1.74,1.59-1,2.94,1.41,2.48,8.3,2.62,10.71,3.45,3,1,5.32,2.31,6.93,5,1.37,2.3-.22,1.93-2.58,2.3A157.31,157.31,0,0,1,440,412.8c-5.44.16-11.45.58-16.94-.34l-.39-2.54a66.6,66.6,0,0,1,.68-21.91c1.34-7.46,3.08-14.84,4.56-22.27.74-3.7,1.54-7.38,2.56-11a52.4,52.4,0,0,1,1.78-5.35,13,13,0,0,1,2.86-4.8,7.52,7.52,0,0,0-.64.62,15.48,15.48,0,0,0-2.63,4,53.6,53.6,0,0,0-2.13,5.29c-1.24,3.59-2.26,7.24-3.22,10.91-1.44,5.48-2.83,10.93-4.36,16.39a67,67,0,0,0-2.93,17,79.22,79.22,0,0,0,.91,11.47l.82,5.75a5.37,5.37,0,0,0,.29.92,3,3,0,0,0,.24.47l.26.39a6.55,6.55,0,0,0,1.25,1.27,12.39,12.39,0,0,0,2.75,1.61c1.83.8,3.65,1.35,5.14,2.13a5.2,5.2,0,0,1,1.72,1.32,2.34,2.34,0,0,1,.42,1.67,4.45,4.45,0,0,1-1.9,3.09,5.44,5.44,0,0,0-.22-3.16,6.48,6.48,0,0,0-2.78-3.36,8.4,8.4,0,0,0-2-.78,12.23,12.23,0,0,0-1.87-.39,13.23,13.23,0,0,0-3.88,0,13.42,13.42,0,0,0,3.14,2.28c1.11.61,2.2,1.06,3,1.5a9.26,9.26,0,0,1,2.27,1.93,12.58,12.58,0,0,1,1.91,3l-.46-.38a16.59,16.59,0,0,1-4.4,1.92,24.58,24.58,0,0,1-5.27.85h-.19a2.69,2.69,0,0,0,.42-.89,3.62,3.62,0,0,0-.15-2.18,7.13,7.13,0,0,0-2.48-3,9.79,9.79,0,0,0-3.23-1.61,7.37,7.37,0,0,0-3.65-.16,28.07,28.07,0,0,0,2.6,2.27c.84.66,1.66,1.29,2.49,1.9a22.09,22.09,0,0,1,2.22,1.76,3.27,3.27,0,0,1,.74,1,2.59,2.59,0,0,1,.2,1.56l-.59-.61c-1.29.05-2.58.06-3.87,0a47.43,47.43,0,0,1-5.46-.57,28.45,28.45,0,0,1-5.2-1.29,18.43,18.43,0,0,1-8-6.59,26.29,26.29,0,0,1-4.28-9.83c-.8-3.58-1.14-7.33-1.7-11.11-.14-.94-.31-1.89-.49-2.84l-.6-2.77c-.44-1.85-.85-3.69-1.38-5.55a19.6,19.6,0,0,0-1-2.74c-.4-.88-.84-1.72-1.25-2.57l-2.49-5.1h0l.81,2.73.92,2.69c.31.9.64,1.79.92,2.67a20.05,20.05,0,0,1,.62,2.68c.35,1.82.6,3.69.87,5.56l.42,2.8c.15.91.28,1.83.39,2.75.46,3.6.67,7.3,1.41,11-2.73.95-5.53,1.81-8.45,2.51-21.11,5-43.26,5-64.74,2.67a311.44,311.44,0,0,1-33.1-5.43c.63-3.69,1.26-7.37,2-11,1.56-7.58,3.49-15.19,7.25-22a49.61,49.61,0,0,0-5.2,10.5,116.37,116.37,0,0,0-3.48,11.22c-1,3.8-1.79,7.63-2.6,11.44-.42,1.9-.8,3.81-1.26,5.68-.21.94-.48,1.84-.73,2.75l-.47,1.26c-.2.42-.38.85-.6,1.27a23.12,23.12,0,0,1-7,8.46,14.79,14.79,0,0,1-4.83,2.25,43.19,43.19,0,0,1-5.56,1,49.21,49.21,0,0,1-7.48.28l-.56.58a2.59,2.59,0,0,1,.2-1.56,3.27,3.27,0,0,1,.74-1,20.77,20.77,0,0,1,2.22-1.75c.83-.62,1.65-1.24,2.49-1.91a28.07,28.07,0,0,0,2.6-2.27,7.37,7.37,0,0,0-3.65.16,10,10,0,0,0-3.23,1.61,7.19,7.19,0,0,0-2.48,3,3.54,3.54,0,0,0-.15,2.18,2.79,2.79,0,0,0,.44.92c-.82-.06-1.64-.12-2.46-.22a20.84,20.84,0,0,1-5.23-1.44,13.38,13.38,0,0,1-2.19-1.15l-.46.38a12.58,12.58,0,0,1,1.91-3,9.26,9.26,0,0,1,2.27-1.93c.84-.43,1.93-.89,3-1.5a13.14,13.14,0,0,0,3.14-2.28,13.21,13.21,0,0,0-3.88.05,10.23,10.23,0,0,0-1.87.39,8,8,0,0,0-2,.77,6.52,6.52,0,0,0-2.78,3.36,5.48,5.48,0,0,0-.24,3.12,7.32,7.32,0,0,1-1.07-1.09,3.66,3.66,0,0,1-.78-1.92,2,2,0,0,1,.5-1.61,5.88,5.88,0,0,1,1.9-1.33c.79-.4,1.68-.76,2.59-1.14a26.17,26.17,0,0,0,2.8-1.34,7.85,7.85,0,0,0,2.66-2.36,6.21,6.21,0,0,0,.77-1.71,11.55,11.55,0,0,0,.37-1.6,20.91,20.91,0,0,0,.26-3.1c.05-4-.08-7.81,0-11.74s0-7.82-.18-11.73a143.87,143.87,0,0,0-2.44-23.39,60.89,60.89,0,0,0-3.42-11.28c-1.56-3.59-3.65-7.11-6.81-9.47a18,18,0,0,1,3.63,4.52,32.45,32.45,0,0,1,2.45,5.24,61.08,61.08,0,0,1,2.71,11.25,160.15,160.15,0,0,1,1.55,23.18c0,3.88,0,7.76-.11,11.66s-.06,7.87-.17,11.66c0,.47,0,.94-.09,1.4-1,0-1.89,0-2.41,0a154.42,154.42,0,0,1-17.61-.25c-2.75-.22-14.44-.57-15.14-4.64-.62-3.64,11.46-4.83,13.86-6.68,4.66-3.59-6.25-6.18-8.38-7.39-13.63-7.72-21.33-20.18-25.43-34.31A98.74,98.74,0,0,1,190.21,349a152.79,152.79,0,0,1-.9-23.47c.1-3,.27-6,.49-8.91.14-1.9.3-3.78.48-5.61.88-9.14,2.27-18.22,3.91-27.25a377.44,377.44,0,0,1,52.43-133.53c12.28-19.28,26.78-38.3,46.79-50.08a80,80,0,0,1,7.76-4l.54-.28c-.26-.67-.53-1.33-.76-2l-1.53-4.48c-.41-1.14-.82-2.29-1.34-3.42a37,37,0,0,1,7,1A35,35,0,0,1,312.7,90l.56.29.54-.38A3.65,3.65,0,0,0,315,88.32a5.13,5.13,0,0,0,.38-1.77,17.71,17.71,0,0,0-.21-3.1c-.21-1.85-.31-3.69.5-4.87s2.47-2.46,3.89-3.78c.76-.68,1.4-1.26,2.14-1.85s1.5-1.14,2.29-1.71a27.93,27.93,0,0,0,4.61-4,12.61,12.61,0,0,0,2.87-5.79,17.14,17.14,0,0,0-.05-6.31c-.19-1.06-.43-2.09-.69-3.1a67.35,67.35,0,0,1,10.94,4.55,27.87,27.87,0,0,1,10.47,9.34,18.29,18.29,0,0,1,2.59,6.39,17.16,17.16,0,0,1,.23,3.45c0,1.19-.14,2.44-.13,3.76A14.3,14.3,0,0,0,363,92.47l1,.46.31-1a28.85,28.85,0,0,0,1.29-8.44A29,29,0,0,1,368,89.8a30.59,30.59,0,0,1,.89,8.16A.41.41,0,0,1,369,98h0a120.94,120.94,0,0,1,32.92,23.32c15.23,15,25,32.84,34.41,51.77,11.43,22.94,22.15,46.28,30.8,70.43,8,22.35,15,46,17.25,69.68C486.17,331.85,484.19,351.44,475.24,368.15Z"/>            </clipPath>        </defs>        <g clip-path="url(#outline)">            <rect fill="#BA756C" width="640" height="480" />        </g>    </g>    <g id="pattern">        <g clip-path="url(#outline)">            <path fill="#513E2A"  d="M213.89,348.69c-.53,1.67-.95,3.36-1.63,5s-1.29,3.68-.61,5.6A10.12,10.12,0,0,0,214.5,363a35,35,0,0,0,3.59,2.9,3.46,3.46,0,0,0,2.28.82,2.62,2.62,0,0,0,1.24-.6,20.67,20.67,0,0,0,6-7.67,10,10,0,0,0,1.29-6.31c-.63-3.15-3.6-4.52-6.87-5.52a14.84,14.84,0,0,0-3.71-.76c-2-.09-4.42.84-4.37,2.76"/><path fill="#513E2A"  d="M190,328.09a38.75,38.75,0,0,1,9.5,3.45,7.68,7.68,0,0,1,2.95,2.29,8.54,8.54,0,0,1,1.08,4.33c.31,4.75.59,9.73-1.42,14S196,359.75,191.55,358c-1.59-.63-2.08-1.69-2.12-3.35-.2-8.28-1.39-16.55-1.58-24.83A2.07,2.07,0,0,1,190,328.09Z"/><path fill="#513E2A"  d="M189.82,298.42a19.21,19.21,0,0,0,1.88,1.21,5.34,5.34,0,0,0,2.38.53,3.92,3.92,0,0,0,3.33-3.36,7.64,7.64,0,0,0-1.11-4.9,1.64,1.64,0,0,0-1-.92,2.38,2.38,0,0,0-1.43.47,5.17,5.17,0,0,1-2.38.37Z"/><path fill="#513E2A"  d="M193.84,319.82a4,4,0,0,0,2.39,2.33,7,7,0,0,0,4.11.17,16,16,0,0,0,7.69-4c1.6-1.5,5.43-3.41,5.19-6a6.18,6.18,0,0,0-.59-1.87,20.12,20.12,0,0,0-2.11-4c-3.39-4.54-12.4-2.81-15,1.88C194.1,310.87,192.76,317,193.84,319.82Z"/><path fill="#513E2A"  d="M210.51,327.79c2.29,2.29,4.56,5.58,7.78,1.92,2.19-2.57,1.14-6.9-1.59-8.89a4.76,4.76,0,0,0-2.36-1c-1.89-.16-7.28,3.59-6.24,5.88a2.48,2.48,0,0,0,1,.88A10.33,10.33,0,0,1,210.51,327.79Z"/><path fill="#513E2A"  d="M239.31,340.06c1.52.27,2.92-.47,3-3a4,4,0,0,0-2.7-3.83,3.48,3.48,0,0,0-4.07,1.5C234.41,336.93,237,339.65,239.31,340.06Z"/><path fill="#513E2A"  d="M487.06,304.49a7.82,7.82,0,0,0-3.56-1.5l-1.31.3c-3.43,1.39-7.61,3.15-10.49,5.52s-2.64,4.2-1.39,7.77c1.85,5.28,10.41,8.66,14.81,11.53a2.53,2.53,0,0,0,1.3.51,2.26,2.26,0,0,0,1-.3l1.78-.89Z"/><path fill="#513E2A"  d="M476.15,354.32a4.53,4.53,0,0,0-.46-.56,7.18,7.18,0,0,1,4-12.06c1.63-.26,5.15-.16,5.93,1.65a2.31,2.31,0,0,1,.15,1.08,32.8,32.8,0,0,1-1.46,6.75c-.65,2.4-1.41,4.78-2.27,7.11a3.4,3.4,0,0,1-.85,1.46c-1,.84-2.63.25-3.33-.84C476.76,357.24,477.22,355.83,476.15,354.32Z"/><path fill="#513E2A"  d="M466.27,361.93c-7.26-2.1-15.92-2.66-20.13,4.41A19.91,19.91,0,0,0,444,377.1a7.54,7.54,0,0,0,2.07,4.85c1.95,1.86,4.93,2.09,7.26,3.44,1.64,1,3.1,2.75,5,3.07,2.35.39,4.31-1.34,5.88-2.84,3-2.81,5.95-5.66,8.05-9.16,1.47-2.46,2.87-5.61,2.83-8.53a3.94,3.94,0,0,0-1.06-2.81,6.15,6.15,0,0,0-1.91-1.1A57.68,57.68,0,0,0,466.27,361.93Z"/><path fill="#513E2A"  d="M198.8,368l.07,0a9.1,9.1,0,0,1,5.28-.22c4.22.93,7.26,3.47,10.53,5.69,4,2.71,7.95,5.44,11.92,8.15,1.38.95,2.88,2.13,2.69,3.86a6.1,6.1,0,0,1-.88,2.17c-2.06,3.51-3.83,6.7-7,9.51-1.15,1-2.6,2-4,1.91a4,4,0,0,1-2.25-1.26C207.83,391,201,387.48,197,374.56,196.19,372.11,195.79,369.23,198.8,368Z"/><path fill="#513E2A"  d="M445.88,322.47a2.26,2.26,0,0,0,.11,3,4,4,0,0,0,4,.3,2.41,2.41,0,0,0,.85-1c.4-.92-.36-3.08-1.12-3.74C448.5,320,446.61,321.47,445.88,322.47Z"/><path fill="#513E2A"  d="M440.23,349.41a6.56,6.56,0,0,1-.8,1.81,8.44,8.44,0,0,0-1.54,2.84c-.25,1.16-.29,2.86.65,3.76s3.57.5,4.56-.39a3.85,3.85,0,0,0,1-2.44c.3-2.16,2.1-4.58.07-6.41a6.17,6.17,0,0,0-2.48-1.24c-.33-.1-.73-.17-1,.08a1,1,0,0,0-.19.46C440.46,348.42,440.36,348.93,440.23,349.41Z"/><path fill="#513E2A"  d="M452,344.2c0,.3.08.56.09.72.07.95.08,1.89.1,2.84,0,1.37-.35,2.41,1.11,3.13,2.21,1.09,5,3.12,7.5,3.26a3.65,3.65,0,0,0,2.72-6.3,7.12,7.12,0,0,0-1.76-1.12l-8.62-4.42a1.06,1.06,0,0,0-.45-.16C451.76,342.09,451.85,343.31,452,344.2Z"/><path fill="#513E2A"  d="M463,326.14a19.2,19.2,0,0,0-2.81,4.5c-.64,1.36-1.2,3-.46,4.3,1.1,1.93,6.34,3.33,8.42,3.5a1.65,1.65,0,0,0,1.75-1,3.23,3.23,0,0,0,0-1.2,13.52,13.52,0,0,1,.58-4.06c.47-2.23-.76-5.89-2.68-7.18S464.35,324.66,463,326.14Z"/><path fill="#513E2A"  d="M158.11,362.28a4.55,4.55,0,0,0,.23,6c1.51,1.59,6.21,1.84,8,.61a4.91,4.91,0,0,0,1.7-2.05c.82-1.86-.72-6.23-2.26-7.55C163.4,357.25,159.59,360.27,158.11,362.28Z"/><path fill="#513E2A"  d="M128.85,357.35a8.64,8.64,0,0,1-.92,2.34c-2.1,3.92-5.09,6.81-3.87,11.62,1.07,4.25,4.72,5.79,8.37,3.2a11.33,11.33,0,0,0,3.82-5.54c.76-2.15,1.15-4.41,1.74-6.61a7.51,7.51,0,0,0-2.38-7.91c-1.12-.85-3.14-1.69-4.58-1.3C129,353.72,129.32,355.48,128.85,357.35Z"/><path fill="#513E2A"  d="M170.83,400.19c.61-.28,1.14-.54,1.47-.67,3.13-1.19,6.32-2.14,9.49-3.2a2.61,2.61,0,0,0,2.24-2.65L186,381.59a16.1,16.1,0,0,0,.16-6.48,8.08,8.08,0,0,0-15.08-1.65,15.81,15.81,0,0,0-1.23,4.45L166.08,399a2.71,2.71,0,0,0,0,1.06C166.5,402,169,401,170.83,400.19Z"/><path fill="#513E2A"  d="M146.88,354.16a5.64,5.64,0,0,0,4.63,3.24,13.82,13.82,0,0,0,7.15-1.36c3.7-1.64,9.71-5.82,11.5-9.65s-3.77-10.75-7.27-11.75c-4.15-1.18-11.88,1.56-14,5.5a21.29,21.29,0,0,0-1.52,5.6,28.75,28.75,0,0,0-1.06,5.7A6.3,6.3,0,0,0,146.88,354.16Z"/><path fill="#513E2A"  d="M119.2,320.49a39.86,39.86,0,0,0-3.75,11.8,7.76,7.76,0,0,0,1.13,5.37c1.91,2.53,5.94,1.63,8.22.07,2-1.37,3-3.79,3.58-6.14.71-2.83,2.64-6.75,1.84-9.69-.72-2.64-4.07-4.29-6.49-4.95C122.05,316.49,120.5,318.12,119.2,320.49Z"/><path fill="#513E2A"  d="M138.46,269.92a7.49,7.49,0,0,0-1.7,1c-3.89,3-7.69,6.27-10.15,10.51-6.76,11.7,4.5,42.15,21.12,37.76a9.27,9.27,0,0,0,3.67-2.42C163.74,305.37,150.79,264.92,138.46,269.92Z"/><path fill="#513E2A"  d="M473.22,290.25a1.89,1.89,0,0,0,.14,3c1,.78,4,.91,5.12.3a2.71,2.71,0,0,0,1.08-1c.52-.93-.46-3.09-1.44-3.74C476.59,287.76,474.16,289.25,473.22,290.25Z"/><path fill="#513E2A"  d="M406.06,400.73a19.4,19.4,0,0,0-2.81,4.5c-.64,1.36-1.2,3-.46,4.3,1.1,1.93,6.34,3.33,8.42,3.5a1.65,1.65,0,0,0,1.75-1,3.23,3.23,0,0,0,0-1.2,13.52,13.52,0,0,1,.58-4.06c.47-2.23-.76-5.88-2.68-7.18S407.4,399.25,406.06,400.73Z"/><path fill="#513E2A"  d="M415,384.81a11,11,0,0,0,.43,3,2.75,2.75,0,0,0,1.39,2.05c1.19.44,4-.87,5-1.57a1,1,0,0,0,.39-1.09,1.71,1.71,0,0,0-.45-.52,7.66,7.66,0,0,1-1.24-2,4.67,4.67,0,0,0-3.83-2.16C415.4,382.67,415,383.67,415,384.81Z"/><path fill="#513E2A"  d="M256.87,415.08a19.47,19.47,0,0,0-2.82,4.5c-.64,1.36-1.19,3-.45,4.3,1.1,1.93,6.33,3.34,8.42,3.5a1.65,1.65,0,0,0,1.75-1,3.18,3.18,0,0,0,0-1.19,13.54,13.54,0,0,1,.58-4.07c.47-2.23-.76-5.88-2.69-7.18C259.86,412.72,258.21,413.6,256.87,415.08Z"/><path fill="#513E2A"  d="M254.25,408.44a2.25,2.25,0,0,0,.11,3,4,4,0,0,0,4,.3,2.32,2.32,0,0,0,.84-1c.41-.92-.35-3.08-1.12-3.74C256.87,405.94,255,407.44,254.25,408.44Z"/><path fill="#513E2A"  d="M197.11,15.3c-5.36.41-10.48,1.87-14.63,5.22-3.85,3.12-6.35,7.09-8.8,11-4.75,7.6-13,15-6.45,23.5,5.67,7.38,11.05,15.27,18,21.54,5.77,5.2,12.85,9.26,20.57,10.12,12.71,1.42,33.8-8.21,38-21.32,3.36-10.49-7.1-30-13.82-37.87C221.59,17.62,209.74,14.33,197.11,15.3Z"/><path fill="#513E2A"  d="M406.49,53.79c3.07,9.76,11.58,15.24,21.63,13,6.44-1.44,16.43-9.47,7.31-15.23-2.17-1.37-4.81-1.74-7.37-2q-7.83-.93-15.71-1.49c-1.75-.12-3.71-.16-5,1S405.92,52,406.49,53.79Z"/><path fill="#513E2A"  d="M114.29,103c1.09.38,2.06.69,2.63.94,3.33,1.43,6.58,3,9.83,4.63,4.75,2.34,7.65,5.4,12.65,1.69,7.6-5.65,19.39-11.54,24.28-19.92A14,14,0,0,0,146.93,70a27.91,27.91,0,0,0-6.93,4L109.82,95.74A4.65,4.65,0,0,0,108.48,97C106.69,100,111,101.83,114.29,103Z"/><path fill="#513E2A"  d="M539.47,5.73C522.1.69,497.93,2.61,494.42,21c-3.41,17.82,6.36,43.7,23.27,51.39,7.34,3.34,15.59,4.29,23.65,4,5-.2,10.48-1.08,14-4.73C573.5,52.55,564.71,13,539.47,5.73Z"/>            <g opacity="0.6" ><path fill="#FFFFFF"  d="M285.42,418.84c2.41-25.61,23.86-48.92,47.26-49.49,24.85-.61,52.31,18.62,54.82,48.11.12,1.49,1.19.46-.06,1.63-1.4,1.32-6.65,1.94-9.64,2.8-14.1,4.06-27.59,4.48-43.77,4.36-16.48-.12-33.16-4.21-48.14-7.41"/></g>        </g>    </g>    <g id="mask">        <g opacity="0.1" ><path d="M484.87,334.92c.23,1.69-3.51,6.76-4.43,8.49-1.82,3.4-3.69,6.78-5.68,10.08a107.84,107.84,0,0,1-13.23,18.12,63.16,63.16,0,0,1-11,9.46,60.26,60.26,0,0,1-6.26,3.67,33.15,33.15,0,0,1-5.53,2.51c-4,1.15-6.15-2.22-7.32-5.52A39.64,39.64,0,0,1,429,364.19a117.62,117.62,0,0,1,2.55-14.42l-1.95,4.49c-1.34,3.1-1.84,6.94-2.61,10.23q-1.27,5.37-2.29,10.81T423,386c-.5,3.72-2.44,6.68-2.06,10.56.28,3,1.35,6,1.24,9a.63.63,0,0,0,.09.45c.16.19.46.15.69.08a107.58,107.58,0,0,0,24.47-9.43c9.47-5.3,17.38-11.48,23.77-20.11a59.55,59.55,0,0,0,8.22-14.57C482.52,353.2,486.14,344.07,484.87,334.92Z"/></g><g opacity="0.1" ><path d="M250.8,401a5.18,5.18,0,0,1,.29-1.73c-17.38-5.65-32.91-19.19-40.43-35.7-4-8.82-6.13-18.92-6.19-30.43-.12-27.61,3.21-61,10.78-87.24,10.89-37.75,30.59-71.48,52.33-104.45,10.77-16.34,17.62-34.19,32.59-46.79-23.63,13.12-38,28.59-53.16,54.08-14.43,24.28-29.76,53.17-39.76,79.22s-15,53.6-17.25,81.33c-2,24.3-2.4,58.2,14.72,78,10,11.56,21.38,19,39.1,21.26q3.44.43,7,.93Z"/></g><g opacity="0.1" ><path d="M389.4,411.67c-.71-9.29.31-9.53.31-9.54-5.29,1.25-9.82,4.44-15.12,5.67a158.69,158.69,0,0,1-19.41,2.95c-22,2.28-44.35.82-66.16-2.85-1.83-5.45-1.1-11.68-.07-17.2.53-2.84,2.35-6.23,3-8.57-4.69,6.41-6,16-7.94,23.12a.28.28,0,0,1,0,.09,66.59,66.59,0,0,1-2.5,9.52q2.72.6,5.3,1.21c14.89,5.54,32.71,6.73,47.92,6.86,15.66.12,34.69-1.09,45-4.91,2.86-1.06,9.11-1.62,10.47-3C391.37,413.7,389.52,413.28,389.4,411.67Z"/></g>        <path fill="none"  d="M12.49,139.53a2.46,2.46,0,0,1-.26-2.56A5.84,5.84,0,0,1,14,134.9a17.76,17.76,0,0,1,6.26-3.22"/><path fill="none"  d="M2,136.7a6.53,6.53,0,0,1,3.68-6,12,12,0,0,1,1.55-.58l4.51-1.47"/><g opacity="0.1" ><path fill="#fff"  d="M380.26,102.62c6.05,5.3,10.42,13.68,14.49,20.5,4.46,7.47,8.87,15,13.36,22.42,13,21.71,26.15,43.75,37,66.65a328.76,328.76,0,0,1,23.41,68.9c2.75,12.34,4.9,24.81,6.59,37.33,1.4,10.34,4.07,22.69-2.47,31.88,4.28-6,9.86-10.6,11.34-14.65,5.28-14.39.19-32.19-2.48-46.68-5.44-29.5-15.48-57.88-26.94-85.52C443.24,176.24,429,150.37,409.7,128,393.48,109.12,380.48,102.81,380.26,102.62Z"/></g>    </g>    <g id="outline">        <path fill="none"  d="M179.78,319.61a40.81,40.81,0,0,0,6.2,5.27c.19-4.32.53-8.64,1-12.92-.44-.4-.87-.81-1.29-1.25a28.66,28.66,0,0,1-3.76-4.79,26,26,0,0,1-1.4-2.6,26.84,26.84,0,0,0-1.38,3.33,23.25,23.25,0,0,0-.88,11.28C178.74,318.5,179.25,319.06,179.78,319.61Z"/><path fill="none"  d="M412.16,127.89c.41-.41.75-.78,1-1,4.44-5.3,5.5-12.57,9.83-18,3.85-4.79,9.93-6.75,14.06-11.21a21.06,21.06,0,0,0,5.43-11.57,16.34,16.34,0,0,0,0-5.36c-.15-.79-.39-2.63-1.06-3.2-.93-.79-4.39-.92-5.24-.52-2.46,1.16-4.5,3.64-7.07,4.9a43.93,43.93,0,0,1-8.28,3c-11.84,3.11-33,4-35.43,19A133.6,133.6,0,0,1,412.16,127.89Z"/><path fill="none"  d="M250.1,131.88a8.54,8.54,0,0,0,1.56,5.17,191.35,191.35,0,0,1,15.79-19.44,122.73,122.73,0,0,1,9.6-9.21c-5-14.07-20.35-23.27-34-14-4.42,3-8.16,6.9-12.72,9.69a24.52,24.52,0,0,1-6.2,2.79c-2.45.68-3.12,0-4.39,2.56-1.44,2.9-.07,4.47,2.33,6.45,5.67,4.68,12.24,3,18.88,3.44,3.41.23,6.79,1.28,8.43,4.51C250.69,126.41,250.07,129.09,250.1,131.88Z"/><path fill="none"  d="M467.15,243.54c-8.65-24.15-19.37-47.49-30.8-70.43-9.42-18.93-19.18-36.8-34.41-51.77A120.94,120.94,0,0,0,369,98h0a.41.41,0,0,0-.11-.07A30.59,30.59,0,0,0,368,89.8a29,29,0,0,0-2.44-6.32,28.85,28.85,0,0,1-1.29,8.44l-.31,1-1-.46a14.3,14.3,0,0,1-8.12-12.94c0-1.32.1-2.57.13-3.76a17.16,17.16,0,0,0-.23-3.45,18.29,18.29,0,0,0-2.59-6.39,27.87,27.87,0,0,0-10.47-9.34A67.35,67.35,0,0,0,330.76,52c.26,1,.5,2,.69,3.1a17.14,17.14,0,0,1,.05,6.31,12.61,12.61,0,0,1-2.87,5.79,27.93,27.93,0,0,1-4.61,4c-.79.57-1.56,1.14-2.29,1.71s-1.38,1.17-2.14,1.85c-1.42,1.32-3.1,2.53-3.89,3.78s-.71,3-.5,4.87a17.71,17.71,0,0,1,.21,3.1,5.13,5.13,0,0,1-.38,1.77,3.65,3.65,0,0,1-1.23,1.58l-.54.38L312.7,90a35,35,0,0,0-7.58-2.94,37,37,0,0,0-7-1c.52,1.13.93,2.28,1.34,3.42L301,93.9c.23.67.5,1.33.76,2l-.54.28a80,80,0,0,0-7.76,4c-20,11.78-34.51,30.8-46.79,50.08a377.44,377.44,0,0,0-52.43,133.53c-1.64,9-3,18.11-3.91,27.25-.18,1.83-.34,3.71-.48,5.61-.22,2.91-.39,5.89-.49,8.91a152.79,152.79,0,0,0,.9,23.47,98.74,98.74,0,0,0,3.07,15.36c4.1,14.13,11.8,26.59,25.43,34.31,2.13,1.21,13,3.8,8.38,7.39-2.4,1.85-14.48,3-13.86,6.68.7,4.07,12.39,4.42,15.14,4.64a154.42,154.42,0,0,0,17.61.25c.52,0,1.44,0,2.41,0,0-.46.07-.93.09-1.4.11-3.79.06-7.79.17-11.66s.13-7.78.11-11.66a160.15,160.15,0,0,0-1.55-23.18,61.08,61.08,0,0,0-2.71-11.25,32.45,32.45,0,0,0-2.45-5.24,18,18,0,0,0-3.63-4.52c3.16,2.36,5.25,5.88,6.81,9.47a60.89,60.89,0,0,1,3.42,11.28,143.87,143.87,0,0,1,2.44,23.39c.15,3.91.19,7.83.18,11.73s.09,7.72,0,11.74a20.91,20.91,0,0,1-.26,3.1,11.55,11.55,0,0,1-.37,1.6,6.21,6.21,0,0,1-.77,1.71,7.85,7.85,0,0,1-2.66,2.36,26.17,26.17,0,0,1-2.8,1.34c-.91.38-1.8.74-2.59,1.14a5.88,5.88,0,0,0-1.9,1.33,2,2,0,0,0-.5,1.61,3.66,3.66,0,0,0,.78,1.92,7.32,7.32,0,0,0,1.07,1.09,5.48,5.48,0,0,1,.24-3.12,6.52,6.52,0,0,1,2.78-3.36,8,8,0,0,1,2-.77,10.23,10.23,0,0,1,1.87-.39,13.21,13.21,0,0,1,3.88-.05,13.14,13.14,0,0,1-3.14,2.28c-1.11.61-2.2,1.07-3,1.5a9.26,9.26,0,0,0-2.27,1.93,12.58,12.58,0,0,0-1.91,3l.46-.38a13.38,13.38,0,0,0,2.19,1.15,20.84,20.84,0,0,0,5.23,1.44c.82.1,1.64.16,2.46.22a2.79,2.79,0,0,1-.44-.92,3.54,3.54,0,0,1,.15-2.18,7.19,7.19,0,0,1,2.48-3,10,10,0,0,1,3.23-1.61,7.37,7.37,0,0,1,3.65-.16,28.07,28.07,0,0,1-2.6,2.27c-.84.67-1.66,1.29-2.49,1.91a20.77,20.77,0,0,0-2.22,1.75,3.27,3.27,0,0,0-.74,1,2.59,2.59,0,0,0-.2,1.56l.56-.58a49.21,49.21,0,0,0,7.48-.28,43.19,43.19,0,0,0,5.56-1,14.79,14.79,0,0,0,4.83-2.25,23.12,23.12,0,0,0,7-8.46c.22-.42.4-.85.6-1.27l.47-1.26c.25-.91.52-1.81.73-2.75.46-1.87.84-3.78,1.26-5.68.81-3.81,1.63-7.64,2.6-11.44a116.37,116.37,0,0,1,3.48-11.22,49.61,49.61,0,0,1,5.2-10.5c-3.76,6.86-5.69,14.47-7.25,22-.76,3.66-1.39,7.34-2,11a311.44,311.44,0,0,0,33.1,5.43c21.48,2.29,43.63,2.35,64.74-2.67,2.92-.7,5.72-1.56,8.45-2.51-.74-3.71-.95-7.41-1.41-11-.11-.92-.24-1.84-.39-2.75l-.42-2.8c-.27-1.87-.52-3.74-.87-5.56a20.05,20.05,0,0,0-.62-2.68c-.28-.88-.61-1.77-.92-2.67l-.92-2.69-.81-2.73h0l2.49,5.1c.41.85.85,1.69,1.25,2.57a19.6,19.6,0,0,1,1,2.74c.53,1.86.94,3.7,1.38,5.55l.6,2.77c.18.95.35,1.9.49,2.84.56,3.78.9,7.53,1.7,11.11a26.29,26.29,0,0,0,4.28,9.83,18.43,18.43,0,0,0,8,6.59,28.45,28.45,0,0,0,5.2,1.29,47.43,47.43,0,0,0,5.46.57c1.29.06,2.58.05,3.87,0l.59.61a2.59,2.59,0,0,0-.2-1.56,3.27,3.27,0,0,0-.74-1,22.09,22.09,0,0,0-2.22-1.76c-.83-.61-1.65-1.24-2.49-1.9a28.07,28.07,0,0,1-2.6-2.27,7.37,7.37,0,0,1,3.65.16,9.79,9.79,0,0,1,3.23,1.61,7.13,7.13,0,0,1,2.48,3,3.62,3.62,0,0,1,.15,2.18,2.69,2.69,0,0,1-.42.89h.19a24.58,24.58,0,0,0,5.27-.85,16.59,16.59,0,0,0,4.4-1.92l.46.38a12.58,12.58,0,0,0-1.91-3,9.26,9.26,0,0,0-2.27-1.93c-.84-.44-1.93-.89-3-1.5a13.42,13.42,0,0,1-3.14-2.28,13.23,13.23,0,0,1,3.88,0,12.23,12.23,0,0,1,1.87.39,8.4,8.4,0,0,1,2,.78,6.48,6.48,0,0,1,2.78,3.36,5.44,5.44,0,0,1,.22,3.16,4.45,4.45,0,0,0,1.9-3.09,2.34,2.34,0,0,0-.42-1.67,5.2,5.2,0,0,0-1.72-1.32c-1.49-.78-3.31-1.33-5.14-2.13a12.39,12.39,0,0,1-2.75-1.61,6.55,6.55,0,0,1-1.25-1.27l-.26-.39a3,3,0,0,1-.24-.47,5.37,5.37,0,0,1-.29-.92l-.82-5.75a79.22,79.22,0,0,1-.91-11.47,67,67,0,0,1,2.93-17c1.53-5.46,2.92-10.91,4.36-16.39,1-3.67,2-7.32,3.22-10.91a53.6,53.6,0,0,1,2.13-5.29,15.48,15.48,0,0,1,2.63-4,7.52,7.52,0,0,1,.64-.62,13,13,0,0,0-2.86,4.8,52.4,52.4,0,0,0-1.78,5.35c-1,3.62-1.82,7.3-2.56,11-1.48,7.43-3.22,14.81-4.56,22.27a66.6,66.6,0,0,0-.68,21.91l.39,2.54c5.49.92,11.5.5,16.94.34a157.31,157.31,0,0,0,19.15-1.46c2.36-.37,3.95,0,2.58-2.3-1.61-2.7-4-4-6.93-5-2.41-.83-9.3-1-10.71-3.45-.77-1.35.08-2.06,1-2.94,1.35-1.35,4-2.21,5.6-3.25q3-1.87,5.8-4a69.68,69.68,0,0,0,18.8-22.2c8.95-16.71,10.93-36.3,9.16-54.93C482.16,289.49,475.15,265.89,467.15,243.54Z"/><path fill="none"  d="M185.94,325.87l0-.76a27.41,27.41,0,0,1-7.32-4.24,34.69,34.69,0,0,1-6.47-6.73,36.51,36.51,0,0,1-4.53-8.21,38.45,38.45,0,0,1-1.8-5.73,27.93,27.93,0,0,0-2.23,4.23,35.15,35.15,0,0,0-2.31,7.79,42.8,42.8,0,0,0-.62,5.07,17.5,17.5,0,0,0,5.9,2.45,20.39,20.39,0,0,1-9.3-4.37,34.78,34.78,0,0,1-7-7.71,54,54,0,0,1-4.87-9.21,72.69,72.69,0,0,1-2.74-8,23.48,23.48,0,0,0-1.83,5.05,26.15,26.15,0,0,0-.62,7.22,32.12,32.12,0,0,0,3.95,13.82l2.14,3.85-3.88-2.09a49.14,49.14,0,0,1-12.36-9.49,39.84,39.84,0,0,1-4.82-6.21c-.41-.65-.79-1.33-1.17-2-.07,1.69-.09,3.4-.06,5.09a72.69,72.69,0,0,0,.91,10.43,47.32,47.32,0,0,0,7.3,19.26l1.46,2.13-2.56,0a32.15,32.15,0,0,1-12.65-2.71,46.31,46.31,0,0,1-5.72-2.87c-.58-.35-1.15-.71-1.72-1.07.9,1.76,1.88,3.49,2.92,5.17a74.35,74.35,0,0,0,6,8.33,55.16,55.16,0,0,0,15.52,13.19,41.59,41.59,0,0,0,9.38,3.81c2.75-1.38,5.42-2.92,8-4.56a95.74,95.74,0,0,0,8.91-6.38,69.38,69.38,0,0,1-8.27,7.31,77.38,77.38,0,0,1-9.27,6.07q-2.43,1.37-5,2.51t-5.2,2.08c-1.31.46-2.65.85-4,1.2,3.37.65,6.75,1.23,10.14,1.64a80.63,80.63,0,0,0,17,.43,53.52,53.52,0,0,0,8.34-1.46A44.49,44.49,0,0,0,182,362c.54-1.44,1.05-2.89,1.49-4.37.13-.43.24-.87.36-1.3.55-1.93,1.06-3.87,1.47-5.84a57.16,57.16,0,0,1-.85,7.37,51.34,51.34,0,0,1-1.84,7.25,30.72,30.72,0,0,1-3.18,6.9c-.35.56-.74,1.11-1.15,1.64a83.57,83.57,0,0,0,9.67-3.46c1.1-.53,2.24-1,3.33-1.53a92.52,92.52,0,0,1-4.4-18.64A140.06,140.06,0,0,1,185.94,325.87Zm-5.19.29h.06l.09.21Z"/><path d="M180.75,326.16l.15.21-.09-.21Z"/><path d="M480.36,276.05c-6.48-25.08-15.82-49.33-26.42-72.92-5.39-12-11.13-23.86-17-35.62-5.06-10.07-10.07-20.09-16.63-29.28q-3-4.12-6.2-8.07a22.91,22.91,0,0,0,2.31-2.63c2.36-3.24,3.7-7,5.37-10.62a25.55,25.55,0,0,1,9.77-11.36c6.21-4.06,11.3-8.51,13.33-16,1.36-5,1.74-13.25-3.51-16.29a5.22,5.22,0,0,0-5.61.18c-1.78,1.07-3.18,2.82-4.91,4a30.41,30.41,0,0,1-7.15,3.44c-13.23,4.56-37.27,4.64-41,21.21q-3.08-1.94-6.25-3.69c-2.34-1.29-4.74-2.48-7.18-3.58a27.57,27.57,0,0,0-.48-5.2,30.21,30.21,0,0,0-3.38-9.22L364,78.09l.09,2.73a28.38,28.38,0,0,1-1.23,9.4,12.24,12.24,0,0,1-5.61-10.66c0-1.17.18-2.4.25-3.69a19.88,19.88,0,0,0-.19-4,21.1,21.1,0,0,0-2.81-7.4,27,27,0,0,0-5-6A36.37,36.37,0,0,0,343.12,54a76,76,0,0,0-14.07-5.68l-2.65-.83.77,2.66c1.06,3.68,2.15,7.36,1.49,10.71a10,10,0,0,1-2.19,4.52,25.16,25.16,0,0,1-4.09,3.66c-.77.59-1.55,1.18-2.32,1.82s-1.56,1.37-2.22,2l-2.15,2a10.92,10.92,0,0,0-2.11,2.48,6.92,6.92,0,0,0-.89,3.35,19.27,19.27,0,0,0,.25,3.1,16.06,16.06,0,0,1,.29,2.69,2.85,2.85,0,0,1-.32,1.34,35.4,35.4,0,0,0-7.4-2.42,33.9,33.9,0,0,0-8.52-.72l-1.14,0,.6.94a30,30,0,0,1,2,4.14L300,93.47a96.27,96.27,0,0,0-20.52,12.89c-3.76-9.62-11.93-17.65-22.55-18.89-12-1.4-18.91,8.34-28.13,14a25.62,25.62,0,0,1-8.15,3c-2,.45-3.58,1-4.52,3-1.84,3.85,1,8.29,3.91,10.68,3.83,3.17,9,4.33,13.83,4.3,2.69,0,5.41-.43,8.08,0,6.35,1,4.78,6.35,5.16,11a10.06,10.06,0,0,0,2.67,6.24,342.92,342.92,0,0,0-22.47,38.07,378.46,378.46,0,0,0-27.51,69.13q-5.15,17.8-8.5,36.06c-1.46,8-2.9,16.55-3.93,25.28a26.8,26.8,0,0,1-5.29-8.81L181,296.53l-1.58,2.62a26,26,0,0,0-2.9,6.74,22.68,22.68,0,0,0-.78,7.28c0,.64.11,1.28.2,1.9-.58-.78-1.13-1.57-1.64-2.39a36.89,36.89,0,0,1-2.15-3.82,38.8,38.8,0,0,1-1.78-4,51.15,51.15,0,0,1-2.4-8.44l-.59-3.27-2,2.63a30.91,30.91,0,0,0-4.2,7.71,35.07,35.07,0,0,0-1.94,8.46c-.14,1.42-.2,2.84-.2,4.25-.51-.38-1-.78-1.51-1.2A34,34,0,0,1,151,307.2a53,53,0,0,1-4.44-9.2,81.11,81.11,0,0,1-2.88-9.81l-.42-1.76-1,1.53a24.75,24.75,0,0,0-3.18,7.09,27.92,27.92,0,0,0-.94,7.72,33.88,33.88,0,0,0,1,7.7c.29,1.15.64,2.28,1,3.4a45.51,45.51,0,0,1-8.05-7,40.41,40.41,0,0,1-4.44-5.83,39.89,39.89,0,0,1-3.24-6.55l-2.05-5.3-.77,5.59a74.57,74.57,0,0,0-.61,10.93,70.85,70.85,0,0,0,1,10.87,56.73,56.73,0,0,0,2.8,10.6,42.34,42.34,0,0,0,3.67,7.5,31.91,31.91,0,0,1-9-2.25,53.84,53.84,0,0,1-5.48-2.61,46.66,46.66,0,0,1-5.11-3.25L105.39,324l1.77,3.94a70.25,70.25,0,0,0,5.1,9.26,77.33,77.33,0,0,0,6.3,8.43,56,56,0,0,0,16.27,13.25,42.29,42.29,0,0,0,8.56,3.29,68.32,68.32,0,0,1-10,3.94,51.08,51.08,0,0,1-10.48,2.09l-8.22.73,8,2a136.59,136.59,0,0,0,17.22,3.29,72.36,72.36,0,0,0,17.65.11,46.26,46.26,0,0,0,8.68-1.91,41.14,41.14,0,0,0,15.07-8.58l-.24.62a34.72,34.72,0,0,1-3.44,6.26,13.94,13.94,0,0,1-5,4.46l-8.82,4.33,9.69-1.87a78.05,78.05,0,0,0,15.66-4.74c1.08-.47,2.14-1,3.19-1.5A72.69,72.69,0,0,0,198.25,383a53.84,53.84,0,0,0,16.37,16.68,51.84,51.84,0,0,0,5.28,3c.46.23,2,1.13,3.25,1.71l-.31.13c-1.79.62-3.6,1.16-5.38,1.81-3.43,1.25-9.09,3.22-6.82,8,1.88,3.91,8,4.8,11.71,5.38a116,116,0,0,0,20,1c1.43,0,3.4.1,5.38.06a2.69,2.69,0,0,1-.2.38c-.72,1.09-2.44,1.88-4.19,2.6-.89.37-1.82.73-2.77,1.2a8.86,8.86,0,0,0-2.84,2,5,5,0,0,0-1,1.78,5.64,5.64,0,0,0-.21,2,6.67,6.67,0,0,0,1.35,3.45,12.82,12.82,0,0,0,5.35,3.8,24,24,0,0,0,6,1.61,48.83,48.83,0,0,0,12-.1,45.78,45.78,0,0,0,5.91-1.18,17.81,17.81,0,0,0,5.67-2.77,24.71,24.71,0,0,0,7.54-9.58c.22-.46.41-.93.61-1.39l.5-1.5c.25-1,.51-2,.69-2.92s.44-2.19.64-3.28c22.29,4.82,45.24,7.67,68.06,6.77a160.11,160.11,0,0,0,32.55-4.44c2.33-.58,4.65-1.23,6.94-1.95a24.78,24.78,0,0,0,1,2.89,30.31,30.31,0,0,0,2.83,5.22,20.79,20.79,0,0,0,9.18,7.7,31,31,0,0,0,5.77,1.48,51.6,51.6,0,0,0,5.81.64,49.31,49.31,0,0,0,5.83-.05c1-.07,1.92-.15,2.94-.29a22.64,22.64,0,0,0,3-.66,19.37,19.37,0,0,0,5.57-2.54,9.85,9.85,0,0,0,2.39-2.31,6.56,6.56,0,0,0,1.25-3.34,5.91,5.91,0,0,0-.15-1.9,5.42,5.42,0,0,0-.85-1.78,8,8,0,0,0-2.72-2.14c-1.87-.95-3.7-1.48-5.32-2.19a10.49,10.49,0,0,1-2.16-1.2,3.42,3.42,0,0,1-.74-.73l-.15-.19c0-.05-.06-.09-.09-.15a2,2,0,0,1-.14-.33l.85.08a142.39,142.39,0,0,0,20.86,0c5.57-.29,11.91-.21,17.3-1.84,3.77-1.13,2.9-4.86.85-7.64-3.27-4.44-9.45-5.46-14.45-6.64l-.43-.13c.93-.57,1.95-1.32,2.33-1.55A77.78,77.78,0,0,0,462.75,389c14-12.67,21.83-30.36,24.28-48.89C489.88,318.55,485.74,296.86,480.36,276.05ZM420.78,84.89a43.93,43.93,0,0,0,8.28-3c2.57-1.26,4.61-3.74,7.07-4.9.85-.4,4.31-.27,5.24.52.67.57.91,2.41,1.06,3.2a16.34,16.34,0,0,1,0,5.36A21.06,21.06,0,0,1,437,97.67c-4.13,4.46-10.21,6.42-14.06,11.21-4.33,5.39-5.39,12.66-9.83,18-.23.27-.57.64-1,1a133.6,133.6,0,0,0-26.81-24C387.82,88.94,408.94,88,420.78,84.89ZM249.37,123.8c-1.64-3.23-5-4.28-8.43-4.51-6.64-.45-13.21,1.24-18.88-3.44-2.4-2-3.77-3.55-2.33-6.45,1.27-2.55,1.94-1.88,4.39-2.56a24.52,24.52,0,0,0,6.2-2.79c4.56-2.79,8.3-6.7,12.72-9.69,13.66-9.23,29,0,34,14a122.73,122.73,0,0,0-9.6,9.21,191.35,191.35,0,0,0-15.79,19.44,8.54,8.54,0,0,1-1.56-5.17C250.07,129.09,250.69,126.41,249.37,123.8ZM177.93,313.15a23.91,23.91,0,0,1,1.19-6.5,26.84,26.84,0,0,1,1.38-3.33,26,26,0,0,0,1.4,2.6,28.66,28.66,0,0,0,3.76,4.79c.42.44.85.85,1.29,1.25-.44,4.28-.78,8.6-1,12.92a40.81,40.81,0,0,1-6.2-5.27c-.53-.55-1-1.11-1.54-1.68A24.11,24.11,0,0,1,177.93,313.15Zm10.07,57a83.57,83.57,0,0,1-9.67,3.46c.41-.53.8-1.08,1.15-1.64a30.72,30.72,0,0,0,3.18-6.9,51.34,51.34,0,0,0,1.84-7.25,57.16,57.16,0,0,0,.85-7.37c-.41,2-.92,3.91-1.47,5.84-.12.43-.23.87-.36,1.3-.44,1.48-1,2.93-1.49,4.37a44.49,44.49,0,0,1-16.44,8.27,53.52,53.52,0,0,1-8.34,1.46,80.63,80.63,0,0,1-17-.43c-3.39-.41-6.77-1-10.14-1.64,1.35-.35,2.69-.74,4-1.2q2.65-.93,5.2-2.08t5-2.51a77.38,77.38,0,0,0,9.27-6.07,69.38,69.38,0,0,0,8.27-7.31,95.74,95.74,0,0,1-8.91,6.38c-2.61,1.64-5.28,3.18-8,4.56a41.59,41.59,0,0,1-9.38-3.81A55.16,55.16,0,0,1,120,344.39a74.35,74.35,0,0,1-6-8.33c-1-1.68-2-3.41-2.92-5.17.57.36,1.14.72,1.72,1.07a46.31,46.31,0,0,0,5.72,2.87,32.15,32.15,0,0,0,12.65,2.71l2.56,0-1.46-2.13a47.32,47.32,0,0,1-7.3-19.26,72.69,72.69,0,0,1-.91-10.43c0-1.69,0-3.4.06-5.09.38.67.76,1.35,1.17,2a39.84,39.84,0,0,0,4.82,6.21,49.14,49.14,0,0,0,12.36,9.49l3.88,2.09-2.14-3.85a32.12,32.12,0,0,1-3.95-13.82,26.15,26.15,0,0,1,.62-7.22,23.48,23.48,0,0,1,1.83-5.05,72.69,72.69,0,0,0,2.74,8,54,54,0,0,0,4.87,9.21,34.78,34.78,0,0,0,7,7.71,20.39,20.39,0,0,0,9.3,4.37,17.5,17.5,0,0,1-5.9-2.45,42.8,42.8,0,0,1,.62-5.07,35.15,35.15,0,0,1,2.31-7.79,27.93,27.93,0,0,1,2.23-4.23,38.45,38.45,0,0,0,1.8,5.73,36.51,36.51,0,0,0,4.53,8.21,34.69,34.69,0,0,0,6.47,6.73,27.41,27.41,0,0,0,7.32,4.24l0,.76a140.06,140.06,0,0,0,1,24.11,92.52,92.52,0,0,0,4.4,18.64C190.24,369.16,189.1,369.62,188,370.15Zm287.24-2a69.68,69.68,0,0,1-18.8,22.2q-2.81,2.16-5.8,4c-1.64,1-4.25,1.9-5.6,3.25-.89.88-1.74,1.59-1,2.94,1.41,2.48,8.3,2.62,10.71,3.45,3,1,5.32,2.31,6.93,5,1.37,2.3-.22,1.93-2.58,2.3A157.31,157.31,0,0,1,440,412.8c-5.44.16-11.45.58-16.94-.34l-.39-2.54a66.6,66.6,0,0,1,.68-21.91c1.34-7.46,3.08-14.84,4.56-22.27.74-3.7,1.54-7.38,2.56-11a52.4,52.4,0,0,1,1.78-5.35,13,13,0,0,1,2.86-4.8,7.52,7.52,0,0,0-.64.62,15.48,15.48,0,0,0-2.63,4,53.6,53.6,0,0,0-2.13,5.29c-1.24,3.59-2.26,7.24-3.22,10.91-1.44,5.48-2.83,10.93-4.36,16.39a67,67,0,0,0-2.93,17,79.22,79.22,0,0,0,.91,11.47l.82,5.75a5.37,5.37,0,0,0,.29.92,3,3,0,0,0,.24.47l.26.39a6.55,6.55,0,0,0,1.25,1.27,12.39,12.39,0,0,0,2.75,1.61c1.83.8,3.65,1.35,5.14,2.13a5.2,5.2,0,0,1,1.72,1.32,2.34,2.34,0,0,1,.42,1.67,4.45,4.45,0,0,1-1.9,3.09,5.44,5.44,0,0,0-.22-3.16,6.48,6.48,0,0,0-2.78-3.36,8.4,8.4,0,0,0-2-.78,12.23,12.23,0,0,0-1.87-.39,13.23,13.23,0,0,0-3.88,0,13.42,13.42,0,0,0,3.14,2.28c1.11.61,2.2,1.06,3,1.5a9.26,9.26,0,0,1,2.27,1.93,12.58,12.58,0,0,1,1.91,3l-.46-.38a16.59,16.59,0,0,1-4.4,1.92,24.58,24.58,0,0,1-5.27.85h-.19a2.69,2.69,0,0,0,.42-.89,3.62,3.62,0,0,0-.15-2.18,7.13,7.13,0,0,0-2.48-3,9.79,9.79,0,0,0-3.23-1.61,7.37,7.37,0,0,0-3.65-.16,28.07,28.07,0,0,0,2.6,2.27c.84.66,1.66,1.29,2.49,1.9a22.09,22.09,0,0,1,2.22,1.76,3.27,3.27,0,0,1,.74,1,2.59,2.59,0,0,1,.2,1.56l-.59-.61c-1.29.05-2.58.06-3.87,0a47.43,47.43,0,0,1-5.46-.57,28.45,28.45,0,0,1-5.2-1.29,18.43,18.43,0,0,1-8-6.59,26.29,26.29,0,0,1-4.28-9.83c-.8-3.58-1.14-7.33-1.7-11.11-.14-.94-.31-1.89-.49-2.84l-.6-2.77c-.44-1.85-.85-3.69-1.38-5.55a19.6,19.6,0,0,0-1-2.74c-.4-.88-.84-1.72-1.25-2.57l-2.49-5.1h0l.81,2.73.92,2.69c.31.9.64,1.79.92,2.67a20.05,20.05,0,0,1,.62,2.68c.35,1.82.6,3.69.87,5.56l.42,2.8c.15.91.28,1.83.39,2.75.46,3.6.67,7.3,1.41,11-2.73.95-5.53,1.81-8.45,2.51-21.11,5-43.26,5-64.74,2.67a311.44,311.44,0,0,1-33.1-5.43c.63-3.69,1.26-7.37,2-11,1.56-7.58,3.49-15.19,7.25-22a49.61,49.61,0,0,0-5.2,10.5,116.37,116.37,0,0,0-3.48,11.22c-1,3.8-1.79,7.63-2.6,11.44-.42,1.9-.8,3.81-1.26,5.68-.21.94-.48,1.84-.73,2.75l-.47,1.26c-.2.42-.38.85-.6,1.27a23.12,23.12,0,0,1-7,8.46,14.79,14.79,0,0,1-4.83,2.25,43.19,43.19,0,0,1-5.56,1,49.21,49.21,0,0,1-7.48.28l-.56.58a2.59,2.59,0,0,1,.2-1.56,3.27,3.27,0,0,1,.74-1,20.77,20.77,0,0,1,2.22-1.75c.83-.62,1.65-1.24,2.49-1.91a28.07,28.07,0,0,0,2.6-2.27,7.37,7.37,0,0,0-3.65.16,10,10,0,0,0-3.23,1.61,7.19,7.19,0,0,0-2.48,3,3.54,3.54,0,0,0-.15,2.18,2.79,2.79,0,0,0,.44.92c-.82-.06-1.64-.12-2.46-.22a20.84,20.84,0,0,1-5.23-1.44,13.38,13.38,0,0,1-2.19-1.15l-.46.38a12.58,12.58,0,0,1,1.91-3,9.26,9.26,0,0,1,2.27-1.93c.84-.43,1.93-.89,3-1.5a13.14,13.14,0,0,0,3.14-2.28,13.21,13.21,0,0,0-3.88.05,10.23,10.23,0,0,0-1.87.39,8,8,0,0,0-2,.77,6.52,6.52,0,0,0-2.78,3.36,5.48,5.48,0,0,0-.24,3.12,7.32,7.32,0,0,1-1.07-1.09,3.66,3.66,0,0,1-.78-1.92,2,2,0,0,1,.5-1.61,5.88,5.88,0,0,1,1.9-1.33c.79-.4,1.68-.76,2.59-1.14a26.17,26.17,0,0,0,2.8-1.34,7.85,7.85,0,0,0,2.66-2.36,6.21,6.21,0,0,0,.77-1.71,11.55,11.55,0,0,0,.37-1.6,20.91,20.91,0,0,0,.26-3.1c.05-4-.08-7.81,0-11.74s0-7.82-.18-11.73a143.87,143.87,0,0,0-2.44-23.39,60.89,60.89,0,0,0-3.42-11.28c-1.56-3.59-3.65-7.11-6.81-9.47a18,18,0,0,1,3.63,4.52,32.45,32.45,0,0,1,2.45,5.24,61.08,61.08,0,0,1,2.71,11.25,160.15,160.15,0,0,1,1.55,23.18c0,3.88,0,7.76-.11,11.66s-.06,7.87-.17,11.66c0,.47,0,.94-.09,1.4-1,0-1.89,0-2.41,0a154.42,154.42,0,0,1-17.61-.25c-2.75-.22-14.44-.57-15.14-4.64-.62-3.64,11.46-4.83,13.86-6.68,4.66-3.59-6.25-6.18-8.38-7.39-13.63-7.72-21.33-20.18-25.43-34.31A98.74,98.74,0,0,1,190.21,349a152.79,152.79,0,0,1-.9-23.47c.1-3,.27-6,.49-8.91.14-1.9.3-3.78.48-5.61.88-9.14,2.27-18.22,3.91-27.25a377.44,377.44,0,0,1,52.43-133.53c12.28-19.28,26.78-38.3,46.79-50.08a80,80,0,0,1,7.76-4l.54-.28c-.26-.67-.53-1.33-.76-2l-1.53-4.48c-.41-1.14-.82-2.29-1.34-3.42a37,37,0,0,1,7,1A35,35,0,0,1,312.7,90l.56.29.54-.38A3.65,3.65,0,0,0,315,88.32a5.13,5.13,0,0,0,.38-1.77,17.71,17.71,0,0,0-.21-3.1c-.21-1.85-.31-3.69.5-4.87s2.47-2.46,3.89-3.78c.76-.68,1.4-1.26,2.14-1.85s1.5-1.14,2.29-1.71a27.93,27.93,0,0,0,4.61-4,12.61,12.61,0,0,0,2.87-5.79,17.14,17.14,0,0,0-.05-6.31c-.19-1.06-.43-2.09-.69-3.1a67.35,67.35,0,0,1,10.94,4.55,27.87,27.87,0,0,1,10.47,9.34,18.29,18.29,0,0,1,2.59,6.39,17.16,17.16,0,0,1,.23,3.45c0,1.19-.14,2.44-.13,3.76A14.3,14.3,0,0,0,363,92.47l1,.46.31-1a28.85,28.85,0,0,0,1.29-8.44A29,29,0,0,1,368,89.8a30.59,30.59,0,0,1,.89,8.16A.41.41,0,0,1,369,98h0a120.94,120.94,0,0,1,32.92,23.32c15.23,15,25,32.84,34.41,51.77,11.43,22.94,22.15,46.28,30.8,70.43,8,22.35,15,46,17.25,69.68C486.17,331.85,484.19,351.44,475.24,368.15Z"/>    </g>    <g id="eye">        <g id="eye-color1">            <g opacity="0" ><path fill="#BA756C"  d="M251.88,194.72c-.14.46-.2.94-.35,1.41a16.61,16.61,0,0,1-1.35,2.86c-.53.94-1,1.9-1.55,2.83-.23.41-.49.81-.76,1.2-.14.21-.29.41-.44.61s-.45.47-.45.6c-.19.25-.39.5-.59.74-5.88,7.05-13.91,9.8-22.69,6.54-8.54-3.17-14.21-10.41-14.65-19.54a1.27,1.27,0,0,1,0-.28,1.29,1.29,0,0,1,0-.29,23.29,23.29,0,0,1,19-21.82,19,19,0,0,1,11.42,1.35c-15.3-7.7-34.36-2.93-39.3,15.33a21.13,21.13,0,0,0-.66,6.53A29.44,29.44,0,0,0,210,213c8.59,7.08,21.5,6.67,31,1.77,7.19-3.7,10-12.6,10.93-20.46C252,194.47,251.92,194.59,251.88,194.72Z"/></g><g opacity="0" ><path fill="#BA756C"  d="M375.64,188.66c-.24.62-.44,1.25-.7,1.86a25.86,25.86,0,0,1-2,3.67,32.56,32.56,0,0,1-2.54,3.42c-5.88,7-13.9,9.8-22.69,6.54-8.54-3.17-14.21-10.41-14.65-19.54a1.27,1.27,0,0,1,0-.28.9.9,0,0,1,0-.29,23.29,23.29,0,0,1,19-21.82,19,19,0,0,1,11.42,1.35c-15.29-7.7-34.35-2.93-39.29,15.33a20.54,20.54,0,0,0-.66,6.53,29.36,29.36,0,0,0,10.48,20.24c8.59,7.08,21.5,6.67,31,1.77,6.9-3.55,9.72-12,10.77-19.66C375.81,188,375.73,188.41,375.64,188.66Z"/></g>        </g>        <g id="eye-shape">            <path fill="#fbfbfb"  d="M295.23,123.9c-21.73-17.81-51.73-12-72.06,4.87-11.71,10.13-20.83,23.9-22.35,39.61-1.28,13.09,2.59,26.27,9.6,37.28,12.38,19.45,36.52,33.94,59.91,27.1,20.91-6.12,35.23-26.45,41.18-46.49C318.07,164.16,313.73,139.06,295.23,123.9Zm16.09,44.39c3.12,13.14-4,29.29-15.05,36.62-11.44,7.59-25.45,6.31-36.15-1.92-11.83-9.09-12.9-22.85-8.48-36.31a1.66,1.66,0,0,1,.15-.33c5.3-13,20-19.08,33.33-17.46a40.23,40.23,0,0,1,4.79.88c7-2,15.58,1.56,16.61,9.36A21.23,21.23,0,0,1,311.32,168.29Z"/><path d="M221.05,126.64c-10.64,9.21-19.13,21.3-22.21,35.19-2.76,12.5-.75,25.57,4.53,37.13,10.21,22.39,34.35,41.16,59.93,38.25,23.13-2.63,40.23-22.11,48.49-42.65,9.19-22.89,7.78-50-9.89-68.55C279.45,102.48,244.4,107.3,221.05,126.64Zm90.46,59.63c-5.95,20-20.27,40.37-41.18,46.49-23.39,6.84-47.53-7.65-59.91-27.1-7-11-10.88-24.19-9.6-37.28,1.52-15.71,10.64-29.48,22.35-39.61,20.33-16.85,50.33-22.68,72.06-4.87C313.73,139.06,318.07,164.16,311.51,186.27Z"/><path d="M306.46,162.89c-1.18,7.61-8.53,14.09-16.4,11.78-7.26-2.13-10.49-10.21-8.63-17.12a1.6,1.6,0,0,1,.1-.39,1.55,1.55,0,0,1,.18-.39,12.36,12.36,0,0,1,8.2-7,40.23,40.23,0,0,0-4.79-.88c-13.38-1.62-28,4.45-33.33,17.46a1.66,1.66,0,0,0-.15.33c-4.42,13.46-3.35,27.22,8.48,36.31,10.7,8.23,24.71,9.51,36.15,1.92,11.05-7.33,18.17-23.48,15.05-36.62a21.23,21.23,0,0,0-4.8-9.16A12.89,12.89,0,0,1,306.46,162.89Z"/><path fill="#fff"  d="M289.91,149.77a12.36,12.36,0,0,0-8.2,7,1.55,1.55,0,0,0-.18.39,1.6,1.6,0,0,0-.1.39c-1.86,6.91,1.37,15,8.63,17.12,7.87,2.31,15.22-4.17,16.4-11.78a12.89,12.89,0,0,0,.06-3.76C305.49,151.33,297,147.81,289.91,149.77Z"/><path fill="#fbfbfb"  d="M437,125.33c-21.81-15.39-53-18.4-71.71,3.55-17.26,21.61-17.19,56.12-2.48,79a51.87,51.87,0,0,0,65.66,19.41,58,58,0,0,0,33.47-49.53C463,157.45,453.74,137.14,437,125.33ZM371.26,207.2c-14.35-8.09-20.39-26.75-13.74-41.9a30.4,30.4,0,0,1,4.24-6.93,10.14,10.14,0,0,1,1.62-5.68c2.63-4.13,8-4.82,12.6-3.79a30.44,30.44,0,0,1,12.63-1c14.24,1.89,27.35,11.64,30.73,26C425.83,201.43,394.08,218.68,371.26,207.2Z"/><path d="M444.44,127.47c-22.48-20.29-60.06-25.66-81.28-.71-16.45,20.6-17.87,51.3-7.19,74.86,10.79,23.79,36.25,38.16,62.16,32.38,23.25-5.19,41.58-24.61,45.83-47.95C467.84,164.77,460.58,142,444.44,127.47Zm17.49,50.33a58,58,0,0,1-33.47,49.53,51.87,51.87,0,0,1-65.66-19.41c-14.71-22.92-14.78-57.43,2.48-79,18.67-21.95,49.9-18.94,71.71-3.55C453.74,137.14,463,157.45,461.93,177.8Z"/><path d="M388.61,148a30.44,30.44,0,0,0-12.63,1A17.87,17.87,0,0,1,379.2,150c5.45,2.44,8.81,8.09,6.23,13.93-3,6.77-10.57,8.5-16.85,5.51a1.36,1.36,0,0,1-.39-.18,1.28,1.28,0,0,1-.34-.24,13.69,13.69,0,0,1-6.09-10.61,30.4,30.4,0,0,0-4.24,6.93c-6.65,15.15-.61,33.81,13.74,41.9,22.82,11.48,54.57-5.77,48.08-33.26C416,159.59,402.85,149.84,388.61,148Z"/><path fill="#fff"  d="M367.85,169a1.28,1.28,0,0,0,.34.24,1.36,1.36,0,0,0,.39.18c6.28,3,13.85,1.26,16.85-5.51,2.58-5.84-.78-11.49-6.23-13.93A17.87,17.87,0,0,0,376,148.9c-4.6-1-10-.34-12.6,3.79a10.14,10.14,0,0,0-1.62,5.68A13.69,13.69,0,0,0,367.85,169Z"/><path fill="#fcf9f7"  d="M312.47,111.88c-3.15-2.12-8.21-4.63-12.08-3.19-2.63,1-3.4,3.79-2.51,6.24a12.78,12.78,0,0,0,.68,1.53,18.3,18.3,0,0,0,6.7,7.31c3.21,1.86,8.4,2.89,11.18-.27,2.17-2.47,1.49-6-.39-8.45A14.85,14.85,0,0,0,312.47,111.88Z"/><path fill="#fcf9f7"  d="M354.8,126.17c4.59-.46,8.71-4.37,10.83-8.24a10.54,10.54,0,0,0,1.3-3.71,3.28,3.28,0,0,0-.12-1.59c-.45-1.17-1.81-1.7-3.05-1.91a13.76,13.76,0,0,0-7.42.87c-3.38,1.35-7,3.44-8.19,7.14a6.23,6.23,0,0,0-.15.62C347.21,123.36,351,126.56,354.8,126.17Z"/>        </g>        <g id="eye-color2">            <path fill="#DDFF94"  d="M296.27,204.91c-11.44,7.59-25.45,6.31-36.15-1.92-11.83-9.09-12.9-22.84-8.48-36.31a1.35,1.35,0,0,1,.15-.32c5.09-12.49,18.79-18.57,31.71-17.61-18.58-4.76-40.69,3.61-47,22.29a37.85,37.85,0,0,0,4.9,33.63c7.49,10.53,19.92,14.81,32.48,14.76,6.18,0,12.54-1,17.8-4.26,8.59-5.28,15.13-15.61,17.42-26.36A36.29,36.29,0,0,1,296.27,204.91Z"/><path fill="#DDFF94"  d="M413,151.48c-9.56-6.8-25.15-8-36.48-2.76a30.47,30.47,0,0,1,12.05-.77c14.24,1.89,27.35,11.64,30.73,26,6.49,27.5-25.26,44.74-48.08,33.26a32.32,32.32,0,0,1-14.31-17,15.56,15.56,0,0,0,.4,2.35,31.17,31.17,0,0,0,16.47,20.87c13.12,6.59,30.83,4.54,43.3-5.59a31.75,31.75,0,0,0,10.47-14.43C432.45,178.47,425.74,160.52,413,151.48Z"/>        </g>    </g>    <g id="nose-mouth">        <path fill="#d33d3d"  d="M337.25,252.72c2.78-6,10.95-8.6,18.39-3-2.85,14-9.36,40.17-18.39,40.17,12.34,0,20.88-48.35,20.88-48.35s-8.63-6.74-13-11.42a46.27,46.27,0,0,1-4.21-5.49c-.88-1.32-1.75-2.72-2.56-4.11a53.64,53.64,0,0,1-2.76-5.31,14.23,14.23,0,0,1-1.26-4c-.33,3.79-1.82,6.85-3.8,10.72-.22.43-.45.86-.68,1.28-.46.85-.94,1.69-1.43,2.51a153,153,0,0,1-11.16,15.77s.58,3.13,1.62,7.81C324.47,247.42,331.18,247.28,337.25,252.72Z"/><path fill="none"  d="M335.49,215.14a57.79,57.79,0,0,0,2.65,5.27A57.79,57.79,0,0,1,335.49,215.14Z"/><path fill="none"  d="M334.29,211.17h0a14.16,14.16,0,0,0,1.2,4A14.16,14.16,0,0,1,334.29,211.17Z"/><path fill="#f25757"  d="M355.64,249.68c-7.44-5.56-15.61-2.93-18.39,3-6.07-5.44-12.78-5.3-18.37-3.46,3.05,13.69,10.1,40.59,18.37,40.59C346.28,289.85,352.79,263.72,355.64,249.68Z"/><path d="M322.18,265.61a97.56,97.56,0,0,0,6.2,16.76c2.83,5.55,5.68,8.25,8.71,8.25,5.67,0,10.83-8.17,15.78-25a245.36,245.36,0,0,0,5.62-24.15l.13-.79-.62-.5c-.08-.07-8.26-6.69-12.34-11.2-4.37-4.81-9.77-15-10-17.95h-2.73c-1.07,12.77-15.89,29.08-16,29.24l-.45.5.12.67C316.57,241.58,318.74,253.67,322.18,265.61Zm6.42-39.05c.48-.81.94-1.65,1.38-2.49.22-.42.44-.84.65-1.27a33.65,33.65,0,0,0,3.66-11.63h0a14.16,14.16,0,0,0,1.2,4,57.79,57.79,0,0,0,2.65,5.27c.78,1.38,1.62,2.77,2.46,4.07a45.43,45.43,0,0,0,4,5.45c4.21,4.65,12.5,11.34,12.5,11.34s-8.2,48-20.05,48c-7.94,0-14.71-26.7-17.64-40.29-1-4.63-1.56-7.74-1.56-7.74A95.51,95.51,0,0,0,328.6,226.56Z"/><path d="M336.87,214.52a41.77,41.77,0,0,0,2.18,4.81q1.24,2.38,2.71,4.64a54.11,54.11,0,0,0,6.69,8.4A46.74,46.74,0,0,0,366.4,244a51.45,51.45,0,0,0,21.43,2.61,80.63,80.63,0,0,0,21.35-4.78,81.18,81.18,0,0,1-21.28,5.53,52.5,52.5,0,0,1-22-1.94A48.56,48.56,0,0,1,346.87,234a59.76,59.76,0,0,1-10.29-13.29,44.47,44.47,0,0,1-2.53-5.13Z"/><path d="M335.06,214.91a45.14,45.14,0,0,1-1.87,5.4,58.67,58.67,0,0,1-8.53,14.48,48.53,48.53,0,0,1-17.46,13.75,52.52,52.52,0,0,1-21.57,4.69,80.86,80.86,0,0,1-21.8-2.81,80.77,80.77,0,0,0,21.78,2.06,51.44,51.44,0,0,0,20.93-5.29,46.54,46.54,0,0,0,16.34-13.79,56.87,56.87,0,0,0,7.69-14.11,40,40,0,0,0,1.56-5Z"/><path fill="#2d2821"  d="M354,196.62c-.34-3.07-4.2-4.62-6.46-5.27-10.75-3.1-29.87.22-35.46,8a6.59,6.59,0,0,0-.87,7c3.15,7.1,16.47,12.76,21.15,13,5.47.24,11.67-2.84,16.19-8C352.52,206.69,354.51,201.35,354,196.62Z"/><path d="M355.2,197c-.27-2.31-1.91-5.41-8.11-7.1-10.81-2.94-29.77.24-35.68,8a8.4,8.4,0,0,0-1.12,9.12c3.53,7.52,17.16,12.75,22,12.94l.68,0c5.76,0,11.87-2.92,16.48-7.91C353.69,207.44,355.8,202,355.2,197Zm-22.81,20c-4.29-.18-16.5-5.08-19.39-11.22a5.43,5.43,0,0,1,.79-6c5.12-6.73,22.66-9.61,32.51-6.93,2.07.57,5.61,1.91,5.92,4.57.49,4.09-1.33,8.71-5,12.67C343.08,214.5,337.4,217.16,332.39,217Z"/><rect opacity="0.15"  x="350.14" y="217.37" width="2.98" height="2.98" rx="1.16" ry="1.16" transform="translate(121.28 -125.35) rotate(24.31)"/><rect opacity="0.15"  x="356.1" y="208.8" width="2.98" height="2.98" rx="1.16" ry="1.16" transform="translate(118.28 -128.56) rotate(24.31)"/><rect opacity="0.15"  x="357.63" y="214.43" width="2.98" height="2.98" rx="1.16" ry="1.16" transform="translate(120.73 -128.69) rotate(24.31)"/><rect opacity="0.15"  x="315.77" y="220.96" width="2.98" height="2.98" rx="1.16" ry="1.16" transform="translate(704.35 205.26) rotate(142.42)"/><rect opacity="0.15"  x="308" y="213.99" width="2.98" height="2.98" rx="1.16" ry="1.16" transform="matrix(-0.79, 0.61, -0.61, -0.79, 686.17, 197.5)"/><rect opacity="0.15"  x="307.81" y="219.82" width="2.98" height="2.98" rx="1.16" ry="1.16" transform="translate(689.39 208.06) rotate(142.42)"/><path d="M309,298.66a134.26,134.26,0,0,0,13.89,4.15c1.17.26,2.36.42,3.53.65s2.37.34,3.56.4l1.79.14c.59,0,1.19.05,1.78.07,1.2.07,2.39,0,3.58,0s2.39-.11,3.58-.21,2.37-.23,3.55-.44a64.75,64.75,0,0,0,7-1.45,69,69,0,0,0,13.44-5.32,45.75,45.75,0,0,1-13,6.81,52.06,52.06,0,0,1-14.54,2.61,49.75,49.75,0,0,1-14.68-1.74A67.31,67.31,0,0,1,309,298.66Z"/><g opacity="0.1" ><path d="M338.67,312.33c10.32-.58,20.87-7.3,26-15.69-.22.66-19.12,9.53-26.86,8.95-17.2-1.29-29.28-7-28.86-6.93C309,298.66,322,313.25,338.67,312.33Z"/></g>    </g></svg>