<!--  ~ Copyright (C) 2018 Baidu, Inc. All Rights Reserved.  --><svg viewBox="0 0 640 480" xmlns="http://www.w3.org/2000/svg">    <g id="back-ground-cl">        <rect fill="none" width="640" height="480" />        <ellipse opacity="0.1" cx="331.93" cy="418.82" rx="168.39" ry="32.01"/>    </g>    <g id="body">        <defs>            <clipPath id="outline">                <path fill="none"  d="M216.12,85.89a15.26,15.26,0,0,0,.54,2l1.19,0a15.65,15.65,0,0,1-1.48-1.66C216.28,86.14,216.21,86,216.12,85.89Z"/><path fill="none"  d="M222.89,87.76c1.06-.09,2.13-.21,3.18-.38a32.33,32.33,0,0,0,3.67-.78l-.61-.1a33.77,33.77,0,0,1-6.35-1.78,21.59,21.59,0,0,1-3.47-1.8l-.7-.28-.83-.39a10.69,10.69,0,0,0,1.16,2.09A13.64,13.64,0,0,0,222.89,87.76Z"/><path fill="none"  d="M222.56,111.78c.7-1,1.41-1.89,2.15-2.8.34-.42.68-.82,1-1.23-1.09-.65-2.16-1.34-3.2-2.09l-1,.08a35.21,35.21,0,0,1-3.56,0,16.59,16.59,0,0,0,3.23,4.64C221.61,110.88,222.08,111.34,222.56,111.78Z"/><path fill="none"  d="M222,102.85a40.17,40.17,0,0,0,6.69,4.89,55.47,55.47,0,0,0,15.52,6.2,65.1,65.1,0,0,0,16.69,1.74,84.46,84.46,0,0,0,16.61-2.17,120.31,120.31,0,0,0,16-4.72,68.22,68.22,0,0,0,14.75-7.55A47.28,47.28,0,0,0,320.1,89.8a35.3,35.3,0,0,0,6.44-15.23h0a.15.15,0,0,1,.17-.13.16.16,0,0,1,.13.15,27.44,27.44,0,0,1-1.62,8.4,33.33,33.33,0,0,1-1.49,3.68c18.28-2,36.6,2.8,52.61,11.59a119.83,119.83,0,0,1,11.59,7.28,48.86,48.86,0,0,0,10.15-8,28.51,28.51,0,0,0,6.76-11,19.73,19.73,0,0,0,.94-6.32,12.18,12.18,0,0,0-1.54-6,4.51,4.51,0,0,0-2-1.89,2.32,2.32,0,0,0-.59-.15c-.24,0-.48,0-.73,0a7,7,0,0,0-1.44.15,8.58,8.58,0,0,0-4.75,3.3A1,1,0,0,1,393,74.5a16.28,16.28,0,0,0,1.64-4.21,16.51,16.51,0,0,0,.39-4.49,18.38,18.38,0,0,0-.83-4.46c-.13-.41-.28-.82-.44-1.23a13.32,13.32,0,0,1-1,1.74,18.37,18.37,0,0,1-1.62,2.08,22.29,22.29,0,0,1-1.89,1.87,1.32,1.32,0,0,1-2.17-1.19v-.06a27.73,27.73,0,0,0,.22-7.81,13.29,13.29,0,0,0-2.74-6.8,8.1,8.1,0,0,0-2.69-2.11,5.65,5.65,0,0,0-1.53-.45,3,3,0,0,0-1.29.09c-.13.05-.14.08-.15.09a.51.51,0,0,0-.06.22,3.79,3.79,0,0,0,.23,1.37,14.53,14.53,0,0,0,1.66,3.26,1.56,1.56,0,0,1-2.42,2h0a44.41,44.41,0,0,0-4.26-3.73c-1.52-1.18-3.1-2.27-4.72-3.32a71.47,71.47,0,0,0-10.17-5.46,77.49,77.49,0,0,0-22.29-6,86.93,86.93,0,0,0-23.17.69,84.79,84.79,0,0,0-22.22,6.68,93.82,93.82,0,0,0-16,9.45l-.86-.3a.15.15,0,0,1-.06.09c-4.79,3-9.34,6.23-13.83,9.62S251.88,69,247.37,72.36a85.31,85.31,0,0,1-7.06,4.85,16.76,16.76,0,0,1-2,1,15.13,15.13,0,0,1-2.21.67,26.26,26.26,0,0,1-4.4.66,30.51,30.51,0,0,1-8.79-.74,36.52,36.52,0,0,1-4.22-1.26l-.6-.23a8,8,0,0,0,1.13,1.43,15,15,0,0,0,4.79,3,31.28,31.28,0,0,0,5.74,1.74,41.34,41.34,0,0,0,6,.81h.07a1.44,1.44,0,0,1,.59,2.71,28.58,28.58,0,0,1-9.94,3,45.63,45.63,0,0,1-5.09.34c-1,0-2,0-3-.08a11.19,11.19,0,0,0,1,1.24,23.81,23.81,0,0,0,2.93,2.52,42.28,42.28,0,0,0,6.8,4,62.56,62.56,0,0,0,15.15,5,76,76,0,0,0,15.93,1.42,101.89,101.89,0,0,0,15.89-1.62c5.25-1,10.44-2.16,15.53-3.61,1.28-.37,2.52-.8,3.79-1.17s2.5-.87,3.74-1.33,2.47-1,3.65-1.52l1.81-.81,1.77-.88a47.88,47.88,0,0,0,12.71-9.17,32.65,32.65,0,0,0,4.75-6.27,22.21,22.21,0,0,0,2.74-7.39v0a.14.14,0,0,1,.17-.12.15.15,0,0,1,.13.15,20.66,20.66,0,0,1-2.07,7.88,30.17,30.17,0,0,1-2,3.61,36.19,36.19,0,0,1-2.47,3.29,45.11,45.11,0,0,1-12.84,10.19c-9.64,5.27-20.39,8-31.11,9.28a101.19,101.19,0,0,1-16.22.7,104.79,104.79,0,0,1-16.1-1.69,78.83,78.83,0,0,1-15.57-4.54c-1.06-.45-2.11-.94-3.14-1.46-1.31.16-2.61.27-3.92.3-1.12,0-2.23,0-3.34-.08a11.42,11.42,0,0,0,1.11,1.72A22.73,22.73,0,0,0,222,102.85,372.42,63a15.64,15.64,0,0,1,1.7,7.26,17,17,0,0,1-.14,1.88c0,.31-.06.62-.11.93l-.23.91a18.29,18.29,0,0,1-.51,1.79c-.24.57-.48,1.14-.74,1.7a8.94,8.94,0,0,1-.89,1.6l-1,1.51A25.66,25.66,0,0,1,368,83.23c.33-1.18.8-2.24,1.18-3.32l.52-1.63c.08-.27.17-.53.27-.8s.12-.54.19-.81c.13-.54.26-1.07.41-1.6s.17-1.08.26-1.61l.14-.79c0-.27,0-.54.05-.81,0-.53.11-1.06.08-1.6a21.7,21.7,0,0,0-.88-6.36,29.85,29.85,0,0,0-2.63-6.29A13.44,13.44,0,0,1,372.42,63,-9.88,1.13a13.22,13.22,0,0,1,.79,2.55,15.84,15.84,0,0,1,.23,2.66,14.72,14.72,0,0,1-.94,5.19,11.39,11.39,0,0,1-2.82,4.38c.19-1.75.39-3.35.53-4.93s.23-3.12.23-4.64c0-.77,0-1.52-.06-2.29s-.09-1.53-.23-2.3c-.14-1.57-.55-3.09-.82-4.85A10.45,10.45,0,0,1,362.54,64.16,-42.89-14.6A25.35,25.35,0,0,0,312.1,52a20.31,20.31,0,0,1,7.18-3.86,30.33,30.33,0,0,1,8.16-1.45,25.33,25.33,0,0,1,16,4.75,23.27,23.27,0,0,1,8.93,14.07,31.36,31.36,0,0,1-.9,16.25,42,42,0,0,0-1.36-15.66c-.21-.61-.37-1.23-.62-1.82l-.73-1.77c-.26-.58-.6-1.11-.89-1.68-.15-.27-.29-.56-.46-.82l-.55-.77a18.47,18.47,0,0,0-1.11-1.52l-1.24-1.41A13.85,13.85,0,0,0,343.09,55a13.7,13.7,0,0,0-1.46-1.18,22.47,22.47,0,0,0-6.69-3.44A26.74,26.74,0,0,0,327.42,49,35.1,35.1,0,0,0,319.65,49.56Z"/><path fill="none"  d="M467.1,243.37c-8.65-24.15-19.37-47.49-30.8-70.44-2.92-5.86-5.91-11.69-9.11-17.41-.54-1-1.09-1.91-1.64-2.87-1.58-2.73-3.21-5.42-4.94-8.06-1.85-2.8-3.31-5.82-5.1-8.65-.08-.12-.22-.46-.35-.53,11.34,6.05,32.06,15.69,38.9,12.53a3.13,3.13,0,0,0,1.89-2.45c1.5-7.78-4.74-23.31-13.9-34.62-7.45-9.21-15.6-14.36-22.94-14.5h-.21c-11.52,0-24.29,17.74-24.43,17.93l-2.52-2c-11.76-9.45-25.23-16.87-39.87-20.61A78.28,78.28,0,0,0,321.93,90c-.15.25-.28.5-.44.74a45.39,45.39,0,0,1-11.86,12.46,64.14,64.14,0,0,1-15.19,8.1A88.77,88.77,0,0,1,244,114.84a67.87,67.87,0,0,1-15.55-5.6c-.45.53-.91,1.07-1.36,1.63-9.16,11.31-15.39,26.84-13.9,34.62a3.13,3.13,0,0,0,1.89,2.45c7.83,3.6,32.16-8.7,41.5-14.05a69.57,69.57,0,0,1-4.85,9c-1.68,2.41-3.53,4.74-5.11,7.23a377.39,377.39,0,0,0-52.43,133.52c-1.64,9-3,18.11-3.91,27.25-2.95,30.42-1.69,70.59,28.43,87.67,2.13,1.21,13,3.79,8.38,7.39-2.4,1.85-14.48,3-13.86,6.68.7,4.07,12.39,4.42,15.15,4.64a154.22,154.22,0,0,0,17.6.24c.5,0,1.38,0,2.32,0,0-.78,0-1.58,0-2.37,0-1.15-.07-2.29,0-3.44s.23-2.33.3-3.51.1-2.56.13-3.84c.06-2.74.12-5.48.14-8.23a158.51,158.51,0,0,0-1.23-23.57,56.88,56.88,0,0,0-2.72-11.44,23.74,23.74,0,0,0-6.26-9.85,23,23,0,0,1,6.91,9.6,57.37,57.37,0,0,1,3.33,11.48,105.25,105.25,0,0,1,1.55,11.85q.47,6,.56,11.92c0,1.25,0,2.49.05,3.73s0,2.76,0,4.14,0,1.6,0,3c0-.25,0,.57,0,.32,0,1.62-.21,3.24-.16,4.86l.1,3a19.5,19.5,0,0,1-.56,6.37,5.83,5.83,0,0,1-1,1.73,7.9,7.9,0,0,1-1.34,1.26,14.62,14.62,0,0,1-2.86,1.59,24.75,24.75,0,0,0-5,2.44,2.23,2.23,0,0,0-.94,1.53,3.1,3.1,0,0,0,.06,1,3.21,3.21,0,0,0,.38,1,5.71,5.71,0,0,0,1.44,1.61,5.41,5.41,0,0,1,.22-3.15,6.52,6.52,0,0,1,2.78-3.36,8.58,8.58,0,0,1,2-.78,12.49,12.49,0,0,1,1.87-.39,13.3,13.3,0,0,1,3.89,0,13.63,13.63,0,0,1-3.14,2.28c-1.12.61-2.21,1.06-3.05,1.5a9.22,9.22,0,0,0-2.26,1.93,12.58,12.58,0,0,0-1.91,3l.44-.37a13.16,13.16,0,0,0,1.61.88A20.5,20.5,0,0,0,249,436.6c1,.14,2,.24,3,.31a2.91,2.91,0,0,1-.42-.89,3.55,3.55,0,0,1,.16-2.18,7,7,0,0,1,2.47-3,10.09,10.09,0,0,1,3.23-1.61,7.41,7.41,0,0,1,3.66-.16,28.12,28.12,0,0,1-2.61,2.27c-.84.66-1.66,1.29-2.49,1.9a23.29,23.29,0,0,0-2.22,1.76,3.1,3.1,0,0,0-.73,1,2.51,2.51,0,0,0-.21,1.56l.59-.61a48.51,48.51,0,0,0,7-.25,43.15,43.15,0,0,0,5.65-1,14.5,14.5,0,0,0,4.9-2.22A22.32,22.32,0,0,0,278,425a24.89,24.89,0,0,0,1.19-2.5,18.81,18.81,0,0,0,.69-5.18c.11-1.75.2-3.52.4-5.25a76.92,76.92,0,0,1,1.76-9.77A50.17,50.17,0,0,1,286.3,391a84.17,84.17,0,0,1,6.22-10.16,115,115,0,0,0-5.31,10.59,57.66,57.66,0,0,0-3.42,11.2c-.47,2.52-.8,5.06-1,7.62-.1,1.12-.18,2.25-.25,3.38a312.8,312.8,0,0,0,33.86,5.59c21.48,2.29,43.63,2.35,64.74-2.68a86.22,86.22,0,0,0,8.66-2.58c0-.15-.06-.3-.08-.45-.62-3.71-.81-7.39-1.24-11-.2-1.8-.51-3.61-.79-5.43s-.56-3.63-.93-5.4a30.84,30.84,0,0,0-1.72-5.18q-1-2.59-1.83-5.21,1.08,2.54,2.25,5a31.76,31.76,0,0,1,2.07,5.16c.5,1.8.88,3.6,1.28,5.39s.8,3.59,1.12,5.43c.62,3.66,1,7.33,1.72,10.85a31,31,0,0,0,1.51,5.11,26.64,26.64,0,0,0,2.43,4.68,20.21,20.21,0,0,0,7.48,7,13.33,13.33,0,0,0,2.34.91c.8.25,1.71.44,2.57.62a44.53,44.53,0,0,0,5.29.71,51.54,51.54,0,0,0,5.7.11l.55.57a2.57,2.57,0,0,0-.21-1.56,3.42,3.42,0,0,0-.73-1,23.91,23.91,0,0,0-2.23-1.75c-.82-.61-1.64-1.24-2.48-1.9a27.06,27.06,0,0,1-2.61-2.28,7.49,7.49,0,0,1,3.65.16,10.06,10.06,0,0,1,3.24,1.62,7.05,7.05,0,0,1,2.47,3,3.59,3.59,0,0,1,.16,2.17,2.79,2.79,0,0,1-.44.92c1.2-.08,2.38-.2,3.53-.39a20.41,20.41,0,0,0,4.87-1.58,15.2,15.2,0,0,0,1.48-.83l.45.38a12.87,12.87,0,0,0-1.91-3,9.24,9.24,0,0,0-2.27-1.92c-.84-.44-1.92-.89-3-1.5a13.19,13.19,0,0,1-3.14-2.29,13.57,13.57,0,0,1,3.88.05,12.35,12.35,0,0,1,1.88.39,8.08,8.08,0,0,1,2,.78,6.54,6.54,0,0,1,2.79,3.36,5.56,5.56,0,0,1,.23,3.12,5.88,5.88,0,0,0,1.29-1.42,3.83,3.83,0,0,0,.58-1.85,2.25,2.25,0,0,0-.12-.84,1.91,1.91,0,0,0-.4-.72c-.79-.94-2.47-1.64-4.13-2.28a21.12,21.12,0,0,1-5.32-2.59,7.85,7.85,0,0,1-1.24-1.21,4.82,4.82,0,0,1-.87-1.72,9.16,9.16,0,0,1-.28-1.57c-.06-.51-.08-1-.1-1.48a111.51,111.51,0,0,1,.44-11.18c.29-3.68.68-7.35,1.13-11,.89-7.32,2-14.61,3.49-21.84.76-3.61,1.59-7.21,2.61-10.76a54.87,54.87,0,0,1,1.74-5.26,23,23,0,0,1,1.16-2.52,7.34,7.34,0,0,1,1.66-2.2,7.31,7.31,0,0,0-1.46,2.3,23.21,23.21,0,0,0-.94,2.57c-.55,1.74-1,3.52-1.4,5.31-.79,3.57-1.4,7.19-1.93,10.81-1.1,7.25-1.92,14.54-2.61,21.84q-.48,5.48-.83,10.95c-.19,3.41-.36,6.86-.24,10.19,5.42.86,11.33.44,16.68.28a155.32,155.32,0,0,0,19.15-1.45c2.36-.37,3.95,0,2.58-2.3-1.61-2.7-4-4-6.92-5-2.42-.82-9.31-1-10.72-3.45-.77-1.34.08-2,1-2.94,1.35-1.35,4-2.2,5.6-3.24q3-1.89,5.8-4.05A69.64,69.64,0,0,0,475.19,368c8.95-16.71,10.93-36.3,9.16-54.94C482.11,289.32,475.1,265.72,467.1,243.37Z"/><path fill="none"  d="M145.9,307.05c-14.61-18.27-22.84-35.2-28.29-46.41-2.72-5.61-6.1-12.56-7.49-12.56h0c-.73,1-.76,6.95,4.23,23,3.6,11.62,8.57,24.37,12.09,31a1.5,1.5,0,0,1-2.55,1.58c-3.88-5.38-10.33-13-13.66-14.58.77,5.54,13.45,29.08,27.18,39.38a1.5,1.5,0,0,1-1.77,2.42c-3.38-2.41-11.15-6.62-13.54-4.23-.31.86,2.08,5.18,11.54,12.95,7.82,6.42,16.84,12.21,23,14.74a1.5,1.5,0,0,1-.87,2.86c-5.44-1.08-10.83-.89-11.25.39.12.59,1.47,2.51,5.06,5.11,3.28,2.38,19.48,13,43.76,10.8-4.67-10.69-6.81-22.41-7.38-34.42C175.17,333,157.54,321.6,145.9,307.05Z"/><path d="M334.94,50.41a22.47,22.47,0,0,1,6.69,3.44A13.7,13.7,0,0,1,343.09,55a13.85,13.85,0,0,1,1.38,1.27l1.24,1.41a18.47,18.47,0,0,1,1.11,1.52l.55.77c.17.26.31.55.46.82.29.57.63,1.1.89,1.68l.73,1.77c.25.59.41,1.21.62,1.82a42,42,0,0,1,1.36,15.66,31.36,31.36,0,0,0,.9-16.25,23.27,23.27,0,0,0-8.93-14.07,25.33,25.33,0,0,0-16-4.75,30.33,30.33,0,0,0-8.16,1.45A20.31,20.31,0,0,0,312.1,52a25.35,25.35,0,0,1,7.55-2.43,35.1,35.1,0,0,1,7.77-.54A26.74,26.74,0,0,1,334.94,50.41Z"/><path d="M360.5,67.08c0,.77.09,1.52.06,2.29,0,1.52-.08,3.06-.23,4.64s-.34,3.18-.53,4.93a11.39,11.39,0,0,0,2.82-4.38,14.72,14.72,0,0,0,.94-5.19,15.84,15.84,0,0,0-.23-2.66,13.22,13.22,0,0,0-.79-2.55,10.45,10.45,0,0,0-3.09-4.23c.27,1.76.68,3.28.82,4.85C360.41,65.55,360.41,66.33,360.5,67.08Z"/><path d="M371.12,70.26c0,.54-.06,1.07-.08,1.6,0,.27,0,.54-.05.81l-.14.79c-.09.53-.15,1.08-.26,1.61s-.28,1.06-.41,1.6c-.07.27-.1.55-.19.81s-.19.53-.27.8l-.52,1.63c-.38,1.08-.85,2.14-1.18,3.32a25.66,25.66,0,0,0,2.48-2.62l1-1.51a8.94,8.94,0,0,0,.89-1.6c.26-.56.5-1.13.74-1.7a18.29,18.29,0,0,0,.51-1.79l.23-.91c.05-.31.07-.62.11-.93a17,17,0,0,0,.14-1.88,15.64,15.64,0,0,0-1.7-7.26,13.44,13.44,0,0,0-4.81-5.42,29.85,29.85,0,0,1,2.63,6.29A21.7,21.7,0,0,1,371.12,70.26Z"/><path d="M480.31,275.87c-6.48-25.07-15.82-49.32-26.42-72.92-5.39-12-11.13-23.86-17-35.62a264.23,264.23,0,0,0-13.36-24.4c1.45.68,3,1.37,4.5,2,9.91,4.35,17.51,6.54,22.69,6.54a11.17,11.17,0,0,0,4.63-.85,6.15,6.15,0,0,0,3.59-4.61c1.67-8.68-4.71-25-14.52-37.08-8-9.91-17-15.45-25.21-15.61h-.26c-9.77,0-20.19,10.83-25.06,16.63-1.84-1.47-3.72-2.9-5.63-4.26a47.5,47.5,0,0,0,10.46-7.6,29.61,29.61,0,0,0,7.4-11.21,20.53,20.53,0,0,0,1.2-6.74,13.82,13.82,0,0,0-1.6-6.81A6.15,6.15,0,0,0,403,70.73a4.09,4.09,0,0,0-1-.29c-.31,0-.61-.07-.93-.09a8.29,8.29,0,0,0-1.86.14,8.83,8.83,0,0,0-2.52.91c.06-.19.13-.39.18-.59a17.62,17.62,0,0,0,.56-5.11,21.08,21.08,0,0,0-.84-5.06,20.21,20.21,0,0,0-2.07-4.75,1.2,1.2,0,0,0-1-.59,1.22,1.22,0,0,0-1.24,1.21v.06a7.26,7.26,0,0,1-1.51,3.83c-.13.2-.29.4-.44.59a25.29,25.29,0,0,0-.09-4.6,16.17,16.17,0,0,0-3.24-8.33,10.53,10.53,0,0,0-3.72-3,8.27,8.27,0,0,0-2.4-.73,6.51,6.51,0,0,0-1.33,0,4.58,4.58,0,0,0-1.45.3,3.33,3.33,0,0,0-1.5,1.09,3.53,3.53,0,0,0-.65,1.69,5.52,5.52,0,0,0,0,.57c-1.52-1.19-3.09-2.32-4.71-3.36a74,74,0,0,0-10.64-5.71,77.45,77.45,0,0,0-23.25-6,88.86,88.86,0,0,0-23.94.95A83.29,83.29,0,0,0,290.48,41a91.2,91.2,0,0,0-10.42,5.9c-3.31,2.17-6.46,4.78-9.7,7.13S263.45,58.7,260,61c-4.67,3.15-9.26,6.44-13.89,9.6-2.32,1.56-4.63,3.16-7,4.47a14.54,14.54,0,0,1-1.75.83,12.66,12.66,0,0,1-1.84.46,25.16,25.16,0,0,1-4,.46,29.26,29.26,0,0,1-7.95-.92,34.26,34.26,0,0,1-3.84-1.22A27.31,27.31,0,0,1,216.18,73a1.66,1.66,0,0,0-.91-.21,1.61,1.61,0,0,0-1.49,1.73,9.76,9.76,0,0,0,.81,3.16,1.56,1.56,0,0,0-.8,1.52,14,14,0,0,0,.77,3.7c.11.31.24.62.38.92a.42.42,0,0,0-.06.25,17.9,17.9,0,0,0,.75,4,1.11,1.11,0,0,0-.38,1.19,6.19,6.19,0,0,0,1.14,2.15,15.23,15.23,0,0,0,1.49,1.6A21.66,21.66,0,0,0,220,94.75c.39.35.8.69,1.21,1a33.88,33.88,0,0,1-4.73,0h-.09a1.11,1.11,0,0,0-1.17,1.38,10.18,10.18,0,0,0,2.32,4.11,22.32,22.32,0,0,0,2.49,2.47,29.54,29.54,0,0,1-3.55-.23,1,1,0,0,0-.35,0,1.13,1.13,0,0,0-.89,1.3,12.42,12.42,0,0,0,1.62,4,21.41,21.41,0,0,0,2.48,3.32c.56.62,1.15,1.2,1.75,1.77-7.71,11.32-12.37,24.67-10.91,32.23a6.16,6.16,0,0,0,3.58,4.61,11,11,0,0,0,4.63.85c5.18,0,12.78-2.19,22.7-6.54,2.51-1.1,4.94-2.25,7.17-3.34a351.63,351.63,0,0,0-21,36,379.37,379.37,0,0,0-27.51,69.12q-5.15,17.82-8.5,36.07c-3,16.36-5.85,34.82-5.45,52.82-10.61-6.19-26.76-16.95-37.55-30.45-14.41-18-22.55-34.76-27.94-45.84-4.91-10.12-7.37-15.19-11.12-14.13a3,3,0,0,0-1.91,1.82c-2.47,5.79,5.19,29.93,11.64,45.82-3.12-3.41-6.57-6.53-9.07-6.94a2.11,2.11,0,0,0-2.42,1.29c-1.79,4.17,8.51,23.55,20.26,36.41-2.91-.84-5.83-.91-7.74,1a3.18,3.18,0,0,0-.79,3c1.16,5.82,16.67,18.71,29.11,25.91-3.23.12-6.22,1-6.74,3.58-.27,1.37.6,3,2.66,5.07,4.77,4.73,20.25,14.68,42.52,14.68a75.13,75.13,0,0,0,7.94-.42,72.87,72.87,0,0,0,3.55,6.41,53,53,0,0,0,21.65,19.67c.46.23,2,1.13,3.25,1.71-.13.05-.23.1-.31.12-1.79.63-3.6,1.17-5.38,1.82-3.43,1.25-9.09,3.22-6.81,8,1.87,3.92,8,4.81,11.7,5.39a118.06,118.06,0,0,0,20,1c1.45,0,3.45.1,5.46.05-.43,1.17-1.94,2-3.62,2.77a25.27,25.27,0,0,0-5.64,2.81,6,6,0,0,0-1.32,1.45,5.1,5.1,0,0,0-.7,2,6.35,6.35,0,0,0,.1,2,6.56,6.56,0,0,0,.68,1.79,11.21,11.21,0,0,0,5.18,4.33,22.83,22.83,0,0,0,6.06,1.85,48.77,48.77,0,0,0,12.25.07,44.71,44.71,0,0,0,6-1.12,17.23,17.23,0,0,0,5.82-2.68,24.88,24.88,0,0,0,7.82-9.69A20.45,20.45,0,0,0,282,422a25.34,25.34,0,0,0,.32-4.77l0-.51c22.41,4.87,45.49,7.76,68.45,6.85a160.1,160.1,0,0,0,32.55-4.43c2.4-.6,4.77-1.26,7.12-2a28.84,28.84,0,0,0,3.1,7.11,21.91,21.91,0,0,0,8.26,8.09,15.66,15.66,0,0,0,2.77,1.14c.95.31,1.84.51,2.78.72A48.1,48.1,0,0,0,413,435a45.77,45.77,0,0,0,11.38-.31,23.06,23.06,0,0,0,5.61-1.79,13.82,13.82,0,0,0,2.62-1.56,8.9,8.9,0,0,0,2.25-2.39,6.87,6.87,0,0,0,1-3.36,5.19,5.19,0,0,0-1.23-3.53,8.33,8.33,0,0,0-2.68-2,24.86,24.86,0,0,0-2.68-1.13,19.6,19.6,0,0,1-4.59-2.15,4.54,4.54,0,0,1-.74-.7,1.83,1.83,0,0,1-.37-.72l0-.12.83.08a142.39,142.39,0,0,0,20.86,0c5.57-.29,11.91-.22,17.3-1.84,3.77-1.13,2.9-4.86.85-7.65-3.27-4.43-9.45-5.46-14.45-6.64l-.43-.13c.93-.57,1.95-1.32,2.33-1.55a77.06,77.06,0,0,0,11.86-8.78c14-12.68,21.83-30.36,24.29-48.89C489.83,318.38,485.69,296.69,480.31,275.87,-263.65-188a15.26,15.26,0,0,1-.54-2c.09.12.16.25.25.36a15.65,15.65,0,0,0,1.48,1.66,1.12-5.62.83.39.7.28a21.59,21.59,0,0,0,3.47,1.8,33.77,33.77,0,0,0,6.35,1.78l.61.1a32.33,32.33,0,0,1-3.67.78c-1,.17-2.12.29-3.18.38a13.64,13.64,0,0,1-3.95-3.42A10.69,10.69,0,0,1,217.78,82.25,1.41,17.62a11.42,11.42,0,0,1-1.11-1.72c1.11.08,2.22.1,3.34.08,1.31,0,2.61-.14,3.92-.3,1,.52,2.08,1,3.14,1.46a78.83,78.83,0,0,0,15.57,4.54,104.79,104.79,0,0,0,16.1,1.69,101.19,101.19,0,0,0,16.22-.7c10.72-1.28,21.47-4,31.11-9.28a45.11,45.11,0,0,0,12.84-10.19,36.19,36.19,0,0,0,2.47-3.29,30.17,30.17,0,0,0,2-3.61,20.66,20.66,0,0,0,2.07-7.88.15.15,0,0,0-.13-.15.14.14,0,0,0-.17.14,22.21,22.21,0,0,1-2.74,7.39,32.65,32.65,0,0,1-4.75,6.27,47.88,47.88,0,0,1-12.71,9.17l-1.77.88-1.81.81c-1.18.57-2.43,1-3.65,1.52s-2.48.9-3.74,1.33-2.51.8-3.79,1.17c-5.09,1.45-10.28,2.63-15.53,3.61a101.89,101.89,0,0,1-15.89,1.62A76,76,0,0,1,244.23,103a62.56,62.56,0,0,1-15.15-5,42.28,42.28,0,0,1-6.8-4,23.81,23.81,0,0,1-2.93-2.52,11.19,11.19,0,0,1-1-1.24c1,.06,2,.08,3,.08a45.63,45.63,0,0,0,5.09-.34,28.58,28.58,0,0,0,9.94-3,1.44,1.44,0,0,0-.59-2.71h-.07a41.34,41.34,0,0,1-6-.81A31.28,31.28,0,0,1,224,81.78a15,15,0,0,1-4.79-3,8,8,0,0,1-1.13-1.43l.6.23a36.52,36.52,0,0,0,4.22,1.26,30.51,30.51,0,0,0,8.79.74,26.26,26.26,0,0,0,4.4-.66,15.13,15.13,0,0,0,2.21-.67,16.76,16.76,0,0,0,2-1,85.31,85.31,0,0,0,7.06-4.85c4.2-3.16,8.35-6.38,12.55-9.54a148,148,0,0,1,12.77-8.41l2.67-1.62c1.68-1,3.23-2.22,4.88-3.29a88.47,88.47,0,0,1,11.28-6.23,84.79,84.79,0,0,1,22.22-6.68,86.93,86.93,0,0,1,23.17-.69,77.49,77.49,0,0,1,22.29,6,71.47,71.47,0,0,1,10.17,5.46c1.62,1,3.2,2.14,4.72,3.32a44.45,44.45,0,0,1,4.27,3.74,1.56,1.56,0,0,0,2.42-2,14.53,14.53,0,0,1-1.66-3.26,3.79,3.79,0,0,1-.23-1.37.51.51,0,0,1,.06-.22s0,0,.15-.09a3,3,0,0,1,1.29-.09,5.65,5.65,0,0,1,1.53.45,8.1,8.1,0,0,1,2.69,2.11,13.29,13.29,0,0,1,2.74,6.8,27.73,27.73,0,0,1-.22,7.81v.06a1.32,1.32,0,0,0,2.17,1.19,22.29,22.29,0,0,0,1.89-1.87,18.37,18.37,0,0,0,1.62-2.08,13.32,13.32,0,0,0,1-1.74c.16.41.31.82.44,1.23a18.38,18.38,0,0,1,.83,4.46,16.51,16.51,0,0,1-.39,4.49A16.28,16.28,0,0,1,393,74.5a1,1,0,0,0,1.73,1.1,8.58,8.58,0,0,1,4.75-3.3,7,7,0,0,1,1.44-.15c.25,0,.49,0,.73,0a2.32,2.32,0,0,1,.59.15,4.51,4.51,0,0,1,2,1.89,12.18,12.18,0,0,1,1.54,6,19.73,19.73,0,0,1-.94,6.32,28.51,28.51,0,0,1-6.76,11,48.86,48.86,0,0,1-10.15,8,119.83,119.83,0,0,0-11.59-7.28c-16-8.79-34.33-13.58-52.61-11.59A33.33,33.33,0,0,0,325.22,83a27.44,27.44,0,0,0,1.62-8.4.16.16,0,0,0-.13-.15.15.15,0,0,0-.17.14A35.3,35.3,0,0,1,320.1,89.8a47.28,47.28,0,0,1-11.87,11.44,68.22,68.22,0,0,1-14.75,7.55,120.31,120.31,0,0,1-16,4.72,84.46,84.46,0,0,1-16.61,2.17,65.1,65.1,0,0,1-16.69-1.74,55.47,55.47,0,0,1-15.52-6.2,40.17,40.17,0,0,1-6.69-4.89A22.73,22.73,0,0,1,219.19,99.87,-1.25,5.89a35.21,35.21,0,0,0,3.56,0l1-.08c1,.75,2.11,1.44,3.2,2.09-.35.41-.69.81-1,1.23-.74.91-1.45,1.85-2.15,2.8-.48-.44-.95-.9-1.39-1.38A16.59,16.59,0,0,1,217.94,105.76,-68.39,257c-3.59-2.6-4.94-4.52-5.06-5.11.42-1.28,5.81-1.47,11.25-.39a1.5,1.5,0,0,0,.87-2.86c-6.16-2.53-15.18-8.32-23-14.74-9.46-7.77-11.85-12.09-11.54-12.95,2.39-2.39,10.16,1.82,13.54,4.23a1.5,1.5,0,0,0,1.77-2.42c-13.73-10.3-26.41-33.84-27.18-39.38,3.33,1.63,9.78,9.2,13.66,14.58a1.5,1.5,0,0,0,2.55-1.58c-3.52-6.65-8.49-19.4-12.09-31-5-16.1-5-22.07-4.23-23h0c1.39,0,4.77,6.95,7.49,12.56,5.45,11.21,13.68,28.14,28.29,46.41,11.64,14.55,29.27,26,40,32.1.57,12,2.71,23.73,7.38,34.42C169,375.75,152.83,365.15,149.55,362.77,475.19,368a69.64,69.64,0,0,1-18.8,22.19q-2.81,2.16-5.8,4.05c-1.64,1-4.25,1.89-5.6,3.24-.89.89-1.74,1.6-1,2.94,1.41,2.49,8.3,2.63,10.72,3.45,2.94,1,5.31,2.32,6.92,5,1.37,2.3-.22,1.93-2.58,2.3a155.32,155.32,0,0,1-19.15,1.45c-5.35.16-11.26.58-16.68-.28-.12-3.33.05-6.78.24-10.19q.35-5.47.83-10.95c.69-7.3,1.51-14.59,2.61-21.84.53-3.62,1.14-7.24,1.93-10.81.39-1.79.85-3.57,1.4-5.31a23.21,23.21,0,0,1,.94-2.57,7.31,7.31,0,0,1,1.46-2.3,7.34,7.34,0,0,0-1.66,2.2,23,23,0,0,0-1.16,2.52,54.87,54.87,0,0,0-1.74,5.26c-1,3.55-1.85,7.15-2.61,10.76-1.46,7.23-2.6,14.52-3.49,21.84-.45,3.66-.84,7.33-1.13,11a111.51,111.51,0,0,0-.44,11.18c0,.48,0,1,.1,1.48a9.16,9.16,0,0,0,.28,1.57,4.82,4.82,0,0,0,.87,1.72,7.85,7.85,0,0,0,1.24,1.21,21.12,21.12,0,0,0,5.32,2.59c1.66.64,3.34,1.34,4.13,2.28a1.91,1.91,0,0,1,.4.72,2.25,2.25,0,0,1,.12.84,3.83,3.83,0,0,1-.58,1.85,5.88,5.88,0,0,1-1.29,1.42,5.56,5.56,0,0,0-.23-3.12,6.54,6.54,0,0,0-2.79-3.36,8.08,8.08,0,0,0-2-.78,12.35,12.35,0,0,0-1.88-.39,13.57,13.57,0,0,0-3.88-.05,13.19,13.19,0,0,0,3.14,2.29c1.12.61,2.2,1.06,3,1.5a9.24,9.24,0,0,1,2.27,1.92,12.87,12.87,0,0,1,1.91,3l-.45-.38a15.2,15.2,0,0,1-1.48.83,20.41,20.41,0,0,1-4.87,1.58c-1.15.19-2.33.31-3.53.39a2.79,2.79,0,0,0,.44-.92,3.59,3.59,0,0,0-.16-2.17,7.05,7.05,0,0,0-2.47-3,10.06,10.06,0,0,0-3.24-1.62,7.49,7.49,0,0,0-3.65-.16,27.06,27.06,0,0,0,2.61,2.28c.84.66,1.66,1.29,2.48,1.9a23.91,23.91,0,0,1,2.23,1.75,3.42,3.42,0,0,1,.73,1,2.57,2.57,0,0,1,.21,1.56l-.55-.57a51.54,51.54,0,0,1-5.7-.11,44.53,44.53,0,0,1-5.29-.71c-.86-.18-1.77-.37-2.57-.62A13.33,13.33,0,0,1,403,430a20.21,20.21,0,0,1-7.48-7,26.64,26.64,0,0,1-2.43-4.68,31,31,0,0,1-1.51-5.11c-.76-3.52-1.1-7.19-1.72-10.85-.32-1.84-.74-3.63-1.12-5.43s-.78-3.59-1.28-5.39a31.76,31.76,0,0,0-2.07-5.16q-1.17-2.49-2.25-5,.87,2.61,1.83,5.21a30.84,30.84,0,0,1,1.72,5.18c.37,1.77.65,3.59.93,5.4s.59,3.63.79,5.43c.43,3.62.62,7.3,1.24,11,0,.15.06.3.08.45a86.22,86.22,0,0,1-8.66,2.58c-21.11,5-43.26,5-64.74,2.68a312.8,312.8,0,0,1-33.86-5.59c.07-1.13.15-2.26.25-3.38.23-2.56.56-5.1,1-7.62a57.66,57.66,0,0,1,3.42-11.2,115,115,0,0,1,5.31-10.59A84.17,84.17,0,0,0,286.3,391,50.17,50.17,0,0,0,282,402.27a76.92,76.92,0,0,0-1.76,9.77c-.2,1.73-.29,3.5-.4,5.25a18.81,18.81,0,0,1-.69,5.18A24.89,24.89,0,0,1,278,425a22.32,22.32,0,0,1-7.06,8.51,14.5,14.5,0,0,1-4.9,2.22,43.15,43.15,0,0,1-5.65,1,48.51,48.51,0,0,1-7,.25l-.59.61A2.51,2.51,0,0,1,253,436a3.1,3.1,0,0,1,.73-1,23.29,23.29,0,0,1,2.22-1.76c.83-.61,1.65-1.24,2.49-1.9a28.12,28.12,0,0,0,2.61-2.27,7.41,7.41,0,0,0-3.66.16,10.09,10.09,0,0,0-3.23,1.61,7,7,0,0,0-2.47,3,3.55,3.55,0,0,0-.16,2.18,2.91,2.91,0,0,0,.42.89c-1-.07-2-.17-3-.31a20.5,20.5,0,0,1-5.28-1.58,13.16,13.16,0,0,1-1.61-.88l-.44.37a12.58,12.58,0,0,1,1.91-3,9.22,9.22,0,0,1,2.26-1.93c.84-.44,1.93-.89,3.05-1.5a13.63,13.63,0,0,0,3.14-2.28,13.3,13.3,0,0,0-3.89,0,12.49,12.49,0,0,0-1.87.39,8.58,8.58,0,0,0-2,.78,6.52,6.52,0,0,0-2.78,3.36,5.41,5.41,0,0,0-.22,3.15,5.71,5.71,0,0,1-1.44-1.61,3.21,3.21,0,0,1-.38-1,3.1,3.1,0,0,1-.06-1,2.23,2.23,0,0,1,.94-1.53,24.75,24.75,0,0,1,5-2.44,14.62,14.62,0,0,0,2.86-1.59,7.9,7.9,0,0,0,1.34-1.26,5.83,5.83,0,0,0,1-1.73,19.5,19.5,0,0,0,.56-6.37l-.1-3c0-1.62.16-3.24.16-4.86,0,.25,0-.57,0-.32,0-1.36,0-1.61,0-3s0-2.76,0-4.14,0-2.48-.05-3.73q-.09-6-.56-11.92a105.25,105.25,0,0,0-1.55-11.85,57.37,57.37,0,0,0-3.33-11.48,23,23,0,0,0-6.91-9.6,23.74,23.74,0,0,1,6.26,9.85,56.88,56.88,0,0,1,2.72,11.44,158.51,158.51,0,0,1,1.23,23.57c0,2.75-.08,5.49-.14,8.23,0,1.28-.05,2.56-.13,3.84s-.21,2.34-.3,3.51,0,2.29,0,3.44c0,.79,0,1.59,0,2.37-.94,0-1.82,0-2.32,0a154.22,154.22,0,0,1-17.6-.24c-2.76-.22-14.45-.57-15.15-4.64-.62-3.64,11.46-4.83,13.86-6.68,4.66-3.6-6.25-6.18-8.38-7.39-30.12-17.08-31.38-57.25-28.43-87.67.88-9.14,2.27-18.22,3.91-27.25a377.39,377.39,0,0,1,52.43-133.52c1.58-2.49,3.43-4.82,5.11-7.23a69.57,69.57,0,0,0,4.85-9c-9.34,5.35-33.67,17.65-41.5,14.05a3.13,3.13,0,0,1-1.89-2.45c-1.49-7.78,4.74-23.31,13.9-34.62.45-.56.91-1.1,1.36-1.63a67.87,67.87,0,0,0,15.55,5.6,84.28,84.28,0,0,0,16.9,2.09,92.43,92.43,0,0,0,33.59-5.63,64.14,64.14,0,0,0,15.19-8.1,45.39,45.39,0,0,0,11.86-12.46c.16-.24.29-.49.44-.74a78.28,78.28,0,0,1,30.15,1.73c14.64,3.74,28.11,11.16,39.87,20.61l2.52,2c.14-.19,12.91-17.93,24.43-17.93h.21c7.34.14,15.49,5.29,22.94,14.5,9.16,11.31,15.4,26.84,13.9,34.62a3.13,3.13,0,0,1-1.89,2.45c-6.84,3.16-27.56-6.48-38.9-12.53.13.07.27.41.35.53,1.79,2.83,3.25,5.85,5.1,8.65,1.73,2.64,3.36,5.33,4.94,8.06.55,1,1.1,1.91,1.64,2.87,3.2,5.72,6.19,11.55,9.11,17.41,11.43,22.95,22.15,46.29,30.8,70.44,8,22.35,15,45.95,17.25,69.67C486.12,331.68,484.14,351.27,475.19,368Z"/>            </clipPath>        </defs>        <g clip-path="url(#outline)">            <rect fill="#FFF3B6" width="640" height="480" />        </g>    </g>    <g id="pattern">        <g clip-path="url(#outline)">            <path fill="#FF8431"  d="M452.2,315a10.59,10.59,0,0,0,4.79-3.93,9.23,9.23,0,0,0,1.6-5.73,41.53,41.53,0,0,1-3.94,3.62,16.43,16.43,0,0,1-4,2.36,30.14,30.14,0,0,1-4.62,1.5c-1.65.41-3.39.77-5.33,1.21a11,11,0,0,0,5.55,1.92A13,13,0,0,0,452.2,315Z"/><path fill="#FF8431"  d="M197.27,349.6a19,19,0,0,0,7.35,4.14,16.14,16.14,0,0,0,8.24.34,55.25,55.25,0,0,1-7-3.24,32.19,32.19,0,0,1-5.9-4.23,48.7,48.7,0,0,1-5.1-5.33c-1.62-1.95-3.16-4-4.78-6.21A18.77,18.77,0,0,0,192.2,343,22.58,22.58,0,0,0,197.27,349.6Z"/><path fill="#FF8431"  d="M224.91,397.06a23.36,23.36,0,0,0,2.64.15,28.34,28.34,0,0,0,5.22-.35,7.8,7.8,0,0,0,1.28-.23l1.26-.32c.84-.21,1.66-.45,2.48-.69a44.9,44.9,0,0,0,4.68-2.12c-1.74,0-3.39.1-5,.19-.83,0-1.65,0-2.46,0s-1.62.11-2.43,0c-1.6-.11-3.2,0-4.76-.29-.77-.12-1.57-.11-2.33-.28l-2.3-.43a35.06,35.06,0,0,1-8.7-3.22,33.37,33.37,0,0,1-7.82-5.77,17.75,17.75,0,0,0,6.07,8.37,24.09,24.09,0,0,0,9.59,4.52Z"/><path fill="#FF8431"  d="M251,301.11c-1.48-.12-2.88,0-4.28,0s-2.76,0-4.12,0-2.7,0-4-.2-2.63-.26-3.94-.41a46.36,46.36,0,0,1-7.65-1.86,39.27,39.27,0,0,1-7.48-3.43,15.66,15.66,0,0,0,6.14,6.26,23.48,23.48,0,0,0,8.39,3l2.22.23a20.78,20.78,0,0,0,2.23,0,25.62,25.62,0,0,0,4.38-.46A33.12,33.12,0,0,0,247,303,32.27,32.27,0,0,0,251,301.11Z"/><path fill="#FF8431"  d="M198.49,370.35a8.42,8.42,0,0,0,7.1,2.09,6.64,6.64,0,0,0,3.48-1.68,21.91,21.91,0,0,0-3.27-1.46c-1-.33-1.93-.68-2.87-.92s-1.87-.53-2.89-.76-2.1-.45-3.46-.67A5.88,5.88,0,0,0,198.49,370.35Z"/><path fill="#FF8431"  d="M210.13,304.93c-1.31-.16-2.58-.47-3.85-.74a43.64,43.64,0,0,1-7.38-2.5,37.13,37.13,0,0,1-7-4.11,15.36,15.36,0,0,0,5.44,6.8,22.62,22.62,0,0,0,8,3.7l2.18.42a20,20,0,0,0,2.19.21,25.6,25.6,0,0,0,4.38-.1,33.39,33.39,0,0,0,4.26-.82,31.83,31.83,0,0,0,4-1.59c-1.46-.24-2.85-.27-4.23-.37s-2.74-.2-4.08-.37S211.42,305.21,210.13,304.93Z"/><path fill="#FF8431"  d="M471.52,331.27a14.34,14.34,0,0,0,5.83-.49,16.14,16.14,0,0,0,5.14-2.58,20.19,20.19,0,0,0,2.11-1.92,15.24,15.24,0,0,0,1.66-2.37,17.24,17.24,0,0,0-2.73.72c-.89.22-1.7.54-2.53.8-1.64.52-3.2,1.07-4.77,1.52s-3.13.86-4.76,1.18a40.54,40.54,0,0,1-5.25.73A9,9,0,0,0,471.52,331.27Z"/><path fill="#FF8431"  d="M408.74,407.11c-.92,0-1.78.07-2.65.1-1.72.07-3.37.18-5,.2s-3.25,0-4.91-.12a41.48,41.48,0,0,1-5.25-.69,9,9,0,0,0,4.47,3.72,14.23,14.23,0,0,0,5.75,1.08,16.1,16.1,0,0,0,5.64-1.12,17.86,17.86,0,0,0,2.54-1.3,15.65,15.65,0,0,0,2.24-1.84A19.24,19.24,0,0,0,408.74,407.11Z"/><path fill="#FF8431"  d="M410.59,370.63c-1.67.41-3.26.86-4.86,1.2s-3.18.66-4.83.88a40.42,40.42,0,0,1-5.28.38,9.09,9.09,0,0,0,5.13,2.75,14.41,14.41,0,0,0,5.85-.1,16.05,16.05,0,0,0,5.29-2.25,18.32,18.32,0,0,0,2.23-1.78,14.76,14.76,0,0,0,1.82-2.26,19,19,0,0,0-2.78.55C412.27,370.16,411.43,370.42,410.59,370.63Z"/><path fill="#FF8431"  d="M241,384.12a39,39,0,0,1-5.82-1.48,37.4,37.4,0,0,1-5.52-2.36,63.23,63.23,0,0,1-5.58-3.27,12.89,12.89,0,0,0,3.75,5.82,16.62,16.62,0,0,0,6.06,3.59,16.79,16.79,0,0,0,7,.85,15.81,15.81,0,0,0,3.42-.67,16.51,16.51,0,0,0,3.14-1.44c-1.16-.29-2.25-.33-3.32-.51S242,384.38,241,384.12Z"/><path fill="#FF8431"  d="M207.65,319.48c.52,0,1,.08,1.55.1a8.81,8.81,0,0,0,1.54-.05c.52,0,1-.12,1.53-.19a14.71,14.71,0,0,0,2.95-.95,27.94,27.94,0,0,0-2.83-1l-1.35-.46-.67-.19-.65-.25c-.43-.15-.86-.3-1.29-.43l-1.26-.47a10.16,10.16,0,0,1-1.23-.49c-.41-.17-.83-.31-1.23-.49-1.6-.7-3.16-1.49-4.73-2.37s-3.14-1.87-4.85-3.06a10.67,10.67,0,0,0,2.87,5.49,15.51,15.51,0,0,0,5.12,3.61,16.76,16.76,0,0,0,3,.95C206.62,319.3,207.13,319.43,207.65,319.48Z"/><path fill="#FF8431"  d="M217.52,335.45a16.34,16.34,0,0,0,3.68-.81,17.09,17.09,0,0,0,3.35-1.65c-1.27-.21-2.44-.15-3.61-.29s-2.28-.17-3.39-.4a34.56,34.56,0,0,1-6.36-1.45,39.54,39.54,0,0,1-6.07-2.52c-2-1-4-2.17-6.09-3.48a14.9,14.9,0,0,0,4.32,6.06,18.54,18.54,0,0,0,6.6,3.74A17.73,17.73,0,0,0,217.52,335.45Z"/><path fill="#FF8431"  d="M274.84,395.63a54.9,54.9,0,0,1-5.85-1,55.64,55.64,0,0,1-5.73-1.59c-1.93-.63-3.85-1.35-6-2.17a13.41,13.41,0,0,0,4.55,5,18,18,0,0,0,6.26,2.69,17.8,17.8,0,0,0,6.82.22,15.48,15.48,0,0,0,3.27-.87,15.26,15.26,0,0,0,3-1.58c-1.15-.23-2.21-.22-3.27-.36S275.85,395.8,274.84,395.63Z"/><path fill="#FF8431"  d="M230.62,365.14c-1.45-.43-2.85-.73-4.18-1.14s-2.66-.77-4-1.28a23.59,23.59,0,0,1-4.11-2,6.88,6.88,0,0,0,2.38,4.64,11.34,11.34,0,0,0,4.59,2.52,13.39,13.39,0,0,0,5.06.43,16.94,16.94,0,0,0,2.47-.53,11.74,11.74,0,0,0,2.33-1.09,14.75,14.75,0,0,0-2.35-.87C232.09,365.53,231.34,365.32,230.62,365.14Z"/><path fill="#FF8431"  d="M270.52,408.65a15.58,15.58,0,0,0,2.31-2.21,27.74,27.74,0,0,0-3.08.4c-.49.06-1,.11-1.45.19-.24,0-.47.07-.71.12l-.7.05q-.7.06-1.38.15l-1.36.06c-.23,0-.45,0-.67,0l-.67,0c-.45,0-.89,0-1.33,0a27.19,27.19,0,0,1-5.3-.8,42.62,42.62,0,0,1-5.62-1.8A10.58,10.58,0,0,0,255,409.5a13.71,13.71,0,0,0,6.32,1.9,15.32,15.32,0,0,0,1.66,0l.83-.06c.28,0,.55-.08.82-.14.54-.12,1.08-.21,1.61-.37s1-.37,1.52-.57a7.88,7.88,0,0,0,1.45-.73C269.62,409.24,270.08,409,270.52,408.65Z"/><path fill="#FF8431"  d="M450.25,375.6a10.49,10.49,0,0,0,4.83,3.94,13.47,13.47,0,0,0,6.31,1.08,12.27,12.27,0,0,0,1.6-.2,10.53,10.53,0,0,0,1.57-.37c.5-.18,1-.34,1.51-.53s.95-.48,1.41-.74a7.12,7.12,0,0,0,1.32-.86c.41-.32.82-.65,1.21-1a10.66,10.66,0,0,0,1.05-1.16,11.55,11.55,0,0,0,.91-1.26c-1.07.17-2,.48-2.93.71-.47.11-.93.21-1.38.33l-.67.19c-.22,0-.45.07-.67.12-.45.09-.88.18-1.31.3s-.88.12-1.31.19a7.86,7.86,0,0,1-1.28.16,9.38,9.38,0,0,1-1.29.12,29.4,29.4,0,0,1-5.21-.11A53.17,53.17,0,0,1,450.25,375.6Z"/><path fill="#FF8431"  d="M478,348a31.85,31.85,0,0,1-9.34,3.85,42.7,42.7,0,0,1-10.22,1.1,79.6,79.6,0,0,1-10.73-.8,27.29,27.29,0,0,0,10.46,3.92,28.76,28.76,0,0,0,11.42-.33,24.11,24.11,0,0,0,10.28-5.22,22.55,22.55,0,0,0,6.4-9.23A48.67,48.67,0,0,1,478,348Z"/><path fill="#FF8431"  d="M478.37,297.44a10.62,10.62,0,0,0,2.19-5.91,52.63,52.63,0,0,1-4.42,3.69,23.88,23.88,0,0,1-4.5,2.6,42.75,42.75,0,0,1-5,1.86c-1.77.54-3.61,1-5.63,1.62a12.32,12.32,0,0,0,6.05,1.48,15.07,15.07,0,0,0,6.23-1.32A12.65,12.65,0,0,0,478.37,297.44Z"/><path fill="#FF8431"  d="M436.35,389.41a7.43,7.43,0,0,0,4,.11,7.77,7.77,0,0,0,3.43-1.86,7.4,7.4,0,0,0,1.23-1.5,6.91,6.91,0,0,0,.72-1.87,13.39,13.39,0,0,0-1.9.29c-.59.08-1.09.26-1.61.35-1,.27-1.93.46-2.82.71l-2.77.65c-1,.23-2,.45-3.39.72A5.23,5.23,0,0,0,436.35,389.41Z"/><path fill="#FF8431"  d="M471.72,315.62a24,24,0,0,1-3.27,1.84,22.93,22.93,0,0,1-3.5,1.34c-1.28.39-2.63.72-4.25,1.13a7.47,7.47,0,0,0,4.46,2,9.38,9.38,0,0,0,5-.84,9.14,9.14,0,0,0,3.83-3.28,8.91,8.91,0,0,0,1.09-2.21,8.72,8.72,0,0,0,.35-2.44,23,23,0,0,0-2,1.3C472.81,314.84,472.31,315.3,471.72,315.62Z"/><path fill="#FF8431"  d="M450.25,367.65A25.15,25.15,0,0,1,447,369.5a24.14,24.14,0,0,1-3.51,1.33c-1.27.39-2.63.72-4.25,1.13a7.44,7.44,0,0,0,4.47,2,9.35,9.35,0,0,0,9.89-6.33,9.12,9.12,0,0,0,.36-2.44,21.74,21.74,0,0,0-2,1.3C451.34,366.87,450.85,367.34,450.25,367.65Z"/><path fill="#FF8431"  d="M459.37,334.92c-.74.23-1.39.56-2.05.8a36.45,36.45,0,0,1-3.74,1.25,19.58,19.58,0,0,1-3.76.54,27,27,0,0,1-4.46-.17,6.89,6.89,0,0,0,3.9,3.26,9.42,9.42,0,0,0,5.29.26,10.46,10.46,0,0,0,4.51-2.52,11.33,11.33,0,0,0,1.59-1.94,10.63,10.63,0,0,0,1-2.32A14.71,14.71,0,0,0,459.37,334.92Z"/><path fill="#FF8431"  d="M409.35,386.39a43.93,43.93,0,0,1-6.19.05c-2.13-.1-4.3-.3-6.67-.46a15.62,15.62,0,0,0,6.08,3.54,18,18,0,0,0,7.13.85,14.18,14.18,0,0,0,6.95-2.46,11.07,11.07,0,0,0,4.28-5.73,29.56,29.56,0,0,1-5.77,3A23.19,23.19,0,0,1,409.35,386.39Z"/><path fill="#FF8431"  d="M265,377.31c-1.72,0-3.37,0-5-.08s-3.24-.18-4.89-.4a40.12,40.12,0,0,1-5.2-1,9,9,0,0,0,4.25,4,14.4,14.4,0,0,0,5.68,1.4,16,16,0,0,0,5.69-.81,18,18,0,0,0,2.62-1.15,14.83,14.83,0,0,0,2.33-1.71,18.64,18.64,0,0,0-2.82-.19C266.71,377.29,265.84,377.33,265,377.31Z"/>            <g opacity="0.6" ><path fill="#C6DBC6"  d="M287.16,418.67c1.87-23.1,18-47.8,35.46-47.47,6.9.13,9,7.55,15.12,7.54s10.44-5.62,14.93-7.33c9.31-3.54,20.26,5.37,26.22,16.84,4.62,8.9,6.72,20.51,7.47,30.79.12,1.64-.53,1.82-2,2.51-2.33,1.08-3.57.86-6.43,1.67-14.89,4.2-29,4.06-44.39,3.93a153.5,153.5,0,0,1-45.95-7.74"/></g>        </g>    </g>    <g id="mask">        <path fill="none"  d="M262.68,125.25c-.76.07-1.52.14-2.29.19l-.1.11-.4,0a19.53,19.53,0,0,1-.43,3.69Z"/><path opacity="0.1"  d="M339.31,405.32c-39.1-.61-54-9.37-54-9.37l-3.87,19.14c6.31,3.26,30.14,4.89,57.22,6.93S391,415.5,391,415.5l-2.86-18.74S378.41,405.93,339.31,405.32Z"/><path opacity="0.1"  d="M426.2,117.27c-4.18-1.39-7.73.64-10.07,4.09a25.3,25.3,0,0,0-2.76,5.74c-.23.65-.58,1.44-1,2.38,2.5,2.94,4.44,5.34,6.4,8.13,1.44.82,2.73,1.61,4.2,2.37q2.83,1.47,5.74,2.8c1.5.69,4.19,2.52,5.84,2.52,5.46,2.22,13.54,5.83,19.57,3.89a4.55,4.55,0,0,0,3.28-3.41C459.59,135.46,437.6,121.07,426.2,117.27Z"/><g opacity="0.1" ><path d="M484.62,335.15c.23,1.7-3.51,6.77-4.43,8.5-1.82,3.4-3.69,6.77-5.68,10.08a108.4,108.4,0,0,1-13.23,18.12,63.28,63.28,0,0,1-11.06,9.47A60.18,60.18,0,0,1,444,385a32.36,32.36,0,0,1-5.53,2.51c-4,1.16-6.15-2.21-7.32-5.52a39.64,39.64,0,0,1-2.34-17.54A117.62,117.62,0,0,1,431.32,350l-1.95,4.49c-3.06,11.13-4.58,22.56-6,34a4.63,4.63,0,0,0,.26,2.2,3,3,0,0,0-.88.73c-2.06,2.52-.69,11.1-.81,14.3a.63.63,0,0,0,.09.45c.16.19.45.14.69.08a107.14,107.14,0,0,0,24.47-9.44A67.59,67.59,0,0,0,470,377.06c3.19-4.31,7.4-9.86,9.2-14.91C482.27,353.44,485.88,344.31,484.62,335.15Z"/></g><path opacity="0.1"  d="M157.66,346.43A90.42,90.42,0,0,1,134,312c-4.34-10.86-24.44-58.65-24.44-65.3,0,0-4.34,4.48,4.08,28.1s11.4,28.1,11.4,28.1S114,287,109.6,287.37s10.32,30,26.88,42.36c0,0-13.3-9.09-15.47-4.07s21.72,24.57,35,30.14c0,0-12.21-2.85-13,1.63s21.18,20.23,52.13,17.24l-3.53-10.59S175.58,363,157.66,346.43Z"/><path opacity="0.1"  d="M269.41,115.57c-1.27.07-2.55.12-3.83.12-2.66,0-5,.86-7.65.54-9.24-1.1-16.66,1.48-24.94,5.14-11,6.82-21.48,17.09-21.32,24.41.24,11.34,30.52-2.64,41.47-8.07-6.95,10.46-22.72,36-34.48,62.1-1.18.41-12.91,34.19-12.91,34.19s-7.29,26.2-7.43,26.8c-14.66,64.62-10,89.33-4.07,110.78s32.52,32.47,32.52,32.47S213,407.69,212,411.42c-2.78,10.8,38.14,7.65,38.14,7.65l-.26-18.71s-34.21,7.88-47.51-47.79S223,236.63,246.93,175.27A191.39,191.39,0,0,1,267,136.87q3.63-5.34,7.64-10.4a71,71,0,0,0,5.07-6.77c.35-.56,3.44-6.21,1.69-5.85a86.51,86.51,0,0,1-9.24,1.4Z"/><path fill="#ffc80b"  d="M403,70.73a4.09,4.09,0,0,0-1-.29c-.31,0-.62-.07-.93-.09a7.74,7.74,0,0,0-1.86.14,8.83,8.83,0,0,0-2.52.91c.06-.19.13-.39.18-.59a17.65,17.65,0,0,0,.56-5.12,21.08,21.08,0,0,0-.84-5,20.21,20.21,0,0,0-2.07-4.75,1.2,1.2,0,0,0-1-.59,1.22,1.22,0,0,0-1.24,1.21v.06a7.26,7.26,0,0,1-1.51,3.83c-.13.2-.29.39-.44.59a25.29,25.29,0,0,0-.09-4.6,16.11,16.11,0,0,0-3.24-8.33,10.53,10.53,0,0,0-3.72-3,8.27,8.27,0,0,0-2.4-.73,6.51,6.51,0,0,0-1.33,0,4.84,4.84,0,0,0-1.45.29,3.43,3.43,0,0,0-1.5,1.1,3.53,3.53,0,0,0-.65,1.69,5.52,5.52,0,0,0,0,.57q-2.28-1.8-4.71-3.37a75.52,75.52,0,0,0-10.64-5.7,77.46,77.46,0,0,0-23.25-6l-1.48-.11s0-.08,0-.12a89.59,89.59,0,0,0-22.43,1.07,83.88,83.88,0,0,0-22.81,7.22,91.07,91.07,0,0,0-10.41,5.9A102.84,102.84,0,0,0,270.58,54l-1,.85c-3.25,1.9-6.42,3.95-9.55,6-4.67,3.16-9.26,6.44-13.89,9.6-2.32,1.56-4.64,3.17-7,4.47a16.14,16.14,0,0,1-1.75.83,12.94,12.94,0,0,1-1.84.47,24.13,24.13,0,0,1-4,.45,28.58,28.58,0,0,1-8-.92,32.11,32.11,0,0,1-3.83-1.21,28.16,28.16,0,0,1-3.58-1.67,1.45,1.45,0,0,0-.9-.21,1.57,1.57,0,0,0-1.32.89,1.54,1.54,0,0,0-.23.92v0a9.63,9.63,0,0,0,.79,3.11,1.5,1.5,0,0,0-.57.65,1.55,1.55,0,0,0-.22.93,14.45,14.45,0,0,0,.78,3.7c.11.31.24.62.38.92a.42.42,0,0,0-.06.25,17.65,17.65,0,0,0,.74,4,1.11,1.11,0,0,0-.31.46,1.12,1.12,0,0,0-.06.77,6.19,6.19,0,0,0,1.14,2.15,15.23,15.23,0,0,0,1.49,1.6A21.66,21.66,0,0,0,220,94.75c.35.31.71.61,1.08.89a32.66,32.66,0,0,1-4.54,0h-.1a1.1,1.1,0,0,0-.36,0,1.08,1.08,0,0,0-.71.59,1.06,1.06,0,0,0-.15.87,10.25,10.25,0,0,0,2.32,4.11,22.76,22.76,0,0,0,2.36,2.35,25.76,25.76,0,0,1-3.34-.23h0a1.38,1.38,0,0,0-.35,0,1.14,1.14,0,0,0-.76.57,1.11,1.11,0,0,0-.19.84,12.42,12.42,0,0,0,1.62,4c.71,1.21,3.18,2.73,4.08,3.76,1.83,2,5.44-6.27,7.68-4.76s11,5,13.64,6.15c2.34,1,5.19,1.2,7.64,1.85s1-.27,3.66,0a62.67,62.67,0,0,0,8,.43c1.28,0,2.56,0,3.83-.13l5.38-.33s-4.91.24-4.88.2c.77,0,1.53-.12,2.29-.19a82.06,82.06,0,0,0,9.24-1.4c2.05-.42,4.08-.92,6.1-1.45,8.19-2.17,11.44-2.12,18.76-6.43,2.26-1.36,5.31-3,7.41-4.63s3.95-1.8,5.79-3.69a45.85,45.85,0,0,0,5-6.14A27.62,27.62,0,0,0,324,85l-1.5,5,.17,0a5.62,5.62,0,0,1,.09-.57,19.59,19.59,0,0,1,.78-2.73c18.34-2.05,36.73,2.74,52.8,11.57a119.06,119.06,0,0,1,11.88,7.48,47.14,47.14,0,0,0,10.46-7.59,29.69,29.69,0,0,0,7.4-11.21,20.53,20.53,0,0,0,1.2-6.74,13.82,13.82,0,0,0-1.6-6.81A6.15,6.15,0,0,0,403,70.73Z"/>        <path fill="#fff" opacity="0.1"  d="M478.13,335.73c2.67-5.45,5.06-11,7.22-16.66-.16-4-.48-8.12-1-12.42C482,286.63,467.49,243,467.49,243l-6.67-17.49-15.54-36S439.78,175,436.55,168c-16.29-35-34.27-48.68-34.27-48.68l-17.15-12.24c6,6.78,32.31,49.68,42.63,70s42.63,96.66,49.69,140.92A75,75,0,0,1,478.13,335.73Z"/>    </g>    <g id="outline">        <path fill="none"  d="M216.12,85.89a15.26,15.26,0,0,0,.54,2l1.19,0a15.65,15.65,0,0,1-1.48-1.66C216.28,86.14,216.21,86,216.12,85.89Z"/><path fill="none"  d="M222.89,87.76c1.06-.09,2.13-.21,3.18-.38a32.33,32.33,0,0,0,3.67-.78l-.61-.1a33.77,33.77,0,0,1-6.35-1.78,21.59,21.59,0,0,1-3.47-1.8l-.7-.28-.83-.39a10.69,10.69,0,0,0,1.16,2.09A13.64,13.64,0,0,0,222.89,87.76Z"/><path fill="none"  d="M222.56,111.78c.7-1,1.41-1.89,2.15-2.8.34-.42.68-.82,1-1.23-1.09-.65-2.16-1.34-3.2-2.09l-1,.08a35.21,35.21,0,0,1-3.56,0,16.59,16.59,0,0,0,3.23,4.64C221.61,110.88,222.08,111.34,222.56,111.78Z"/><path fill="none"  d="M222,102.85a40.17,40.17,0,0,0,6.69,4.89,55.47,55.47,0,0,0,15.52,6.2,65.1,65.1,0,0,0,16.69,1.74,84.46,84.46,0,0,0,16.61-2.17,120.31,120.31,0,0,0,16-4.72,68.22,68.22,0,0,0,14.75-7.55A47.28,47.28,0,0,0,320.1,89.8a35.3,35.3,0,0,0,6.44-15.23h0a.15.15,0,0,1,.17-.13.16.16,0,0,1,.13.15,27.44,27.44,0,0,1-1.62,8.4,33.33,33.33,0,0,1-1.49,3.68c18.28-2,36.6,2.8,52.61,11.59a119.83,119.83,0,0,1,11.59,7.28,48.86,48.86,0,0,0,10.15-8,28.51,28.51,0,0,0,6.76-11,19.73,19.73,0,0,0,.94-6.32,12.18,12.18,0,0,0-1.54-6,4.51,4.51,0,0,0-2-1.89,2.32,2.32,0,0,0-.59-.15c-.24,0-.48,0-.73,0a7,7,0,0,0-1.44.15,8.58,8.58,0,0,0-4.75,3.3A1,1,0,0,1,393,74.5a16.28,16.28,0,0,0,1.64-4.21,16.51,16.51,0,0,0,.39-4.49,18.38,18.38,0,0,0-.83-4.46c-.13-.41-.28-.82-.44-1.23a13.32,13.32,0,0,1-1,1.74,18.37,18.37,0,0,1-1.62,2.08,22.29,22.29,0,0,1-1.89,1.87,1.32,1.32,0,0,1-2.17-1.19v-.06a27.73,27.73,0,0,0,.22-7.81,13.29,13.29,0,0,0-2.74-6.8,8.1,8.1,0,0,0-2.69-2.11,5.65,5.65,0,0,0-1.53-.45,3,3,0,0,0-1.29.09c-.13.05-.14.08-.15.09a.51.51,0,0,0-.06.22,3.79,3.79,0,0,0,.23,1.37,14.53,14.53,0,0,0,1.66,3.26,1.56,1.56,0,0,1-2.42,2h0a44.41,44.41,0,0,0-4.26-3.73c-1.52-1.18-3.1-2.27-4.72-3.32a71.47,71.47,0,0,0-10.17-5.46,77.49,77.49,0,0,0-22.29-6,86.93,86.93,0,0,0-23.17.69,84.79,84.79,0,0,0-22.22,6.68,93.82,93.82,0,0,0-16,9.45l-.86-.3a.15.15,0,0,1-.06.09c-4.79,3-9.34,6.23-13.83,9.62S251.88,69,247.37,72.36a85.31,85.31,0,0,1-7.06,4.85,16.76,16.76,0,0,1-2,1,15.13,15.13,0,0,1-2.21.67,26.26,26.26,0,0,1-4.4.66,30.51,30.51,0,0,1-8.79-.74,36.52,36.52,0,0,1-4.22-1.26l-.6-.23a8,8,0,0,0,1.13,1.43,15,15,0,0,0,4.79,3,31.28,31.28,0,0,0,5.74,1.74,41.34,41.34,0,0,0,6,.81h.07a1.44,1.44,0,0,1,.59,2.71,28.58,28.58,0,0,1-9.94,3,45.63,45.63,0,0,1-5.09.34c-1,0-2,0-3-.08a11.19,11.19,0,0,0,1,1.24,23.81,23.81,0,0,0,2.93,2.52,42.28,42.28,0,0,0,6.8,4,62.56,62.56,0,0,0,15.15,5,76,76,0,0,0,15.93,1.42,101.89,101.89,0,0,0,15.89-1.62c5.25-1,10.44-2.16,15.53-3.61,1.28-.37,2.52-.8,3.79-1.17s2.5-.87,3.74-1.33,2.47-1,3.65-1.52l1.81-.81,1.77-.88a47.88,47.88,0,0,0,12.71-9.17,32.65,32.65,0,0,0,4.75-6.27,22.21,22.21,0,0,0,2.74-7.39v0a.14.14,0,0,1,.17-.12.15.15,0,0,1,.13.15,20.66,20.66,0,0,1-2.07,7.88,30.17,30.17,0,0,1-2,3.61,36.19,36.19,0,0,1-2.47,3.29,45.11,45.11,0,0,1-12.84,10.19c-9.64,5.27-20.39,8-31.11,9.28a101.19,101.19,0,0,1-16.22.7,104.79,104.79,0,0,1-16.1-1.69,78.83,78.83,0,0,1-15.57-4.54c-1.06-.45-2.11-.94-3.14-1.46-1.31.16-2.61.27-3.92.3-1.12,0-2.23,0-3.34-.08a11.42,11.42,0,0,0,1.11,1.72A22.73,22.73,0,0,0,222,102.85ZM372.42,63a15.64,15.64,0,0,1,1.7,7.26,17,17,0,0,1-.14,1.88c0,.31-.06.62-.11.93l-.23.91a18.29,18.29,0,0,1-.51,1.79c-.24.57-.48,1.14-.74,1.7a8.94,8.94,0,0,1-.89,1.6l-1,1.51A25.66,25.66,0,0,1,368,83.23c.33-1.18.8-2.24,1.18-3.32l.52-1.63c.08-.27.17-.53.27-.8s.12-.54.19-.81c.13-.54.26-1.07.41-1.6s.17-1.08.26-1.61l.14-.79c0-.27,0-.54.05-.81,0-.53.11-1.06.08-1.6a21.7,21.7,0,0,0-.88-6.36,29.85,29.85,0,0,0-2.63-6.29A13.44,13.44,0,0,1,372.42,63Zm-9.88,1.13a13.22,13.22,0,0,1,.79,2.55,15.84,15.84,0,0,1,.23,2.66,14.72,14.72,0,0,1-.94,5.19,11.39,11.39,0,0,1-2.82,4.38c.19-1.75.39-3.35.53-4.93s.23-3.12.23-4.64c0-.77,0-1.52-.06-2.29s-.09-1.53-.23-2.3c-.14-1.57-.55-3.09-.82-4.85A10.45,10.45,0,0,1,362.54,64.16Zm-42.89-14.6A25.35,25.35,0,0,0,312.1,52a20.31,20.31,0,0,1,7.18-3.86,30.33,30.33,0,0,1,8.16-1.45,25.33,25.33,0,0,1,16,4.75,23.27,23.27,0,0,1,8.93,14.07,31.36,31.36,0,0,1-.9,16.25,42,42,0,0,0-1.36-15.66c-.21-.61-.37-1.23-.62-1.82l-.73-1.77c-.26-.58-.6-1.11-.89-1.68-.15-.27-.29-.56-.46-.82l-.55-.77a18.47,18.47,0,0,0-1.11-1.52l-1.24-1.41A13.85,13.85,0,0,0,343.09,55a13.7,13.7,0,0,0-1.46-1.18,22.47,22.47,0,0,0-6.69-3.44A26.74,26.74,0,0,0,327.42,49,35.1,35.1,0,0,0,319.65,49.56Z"/><path fill="none"  d="M467.1,243.37c-8.65-24.15-19.37-47.49-30.8-70.44-2.92-5.86-5.91-11.69-9.11-17.41-.54-1-1.09-1.91-1.64-2.87-1.58-2.73-3.21-5.42-4.94-8.06-1.85-2.8-3.31-5.82-5.1-8.65-.08-.12-.22-.46-.35-.53,11.34,6.05,32.06,15.69,38.9,12.53a3.13,3.13,0,0,0,1.89-2.45c1.5-7.78-4.74-23.31-13.9-34.62-7.45-9.21-15.6-14.36-22.94-14.5h-.21c-11.52,0-24.29,17.74-24.43,17.93l-2.52-2c-11.76-9.45-25.23-16.87-39.87-20.61A78.28,78.28,0,0,0,321.93,90c-.15.25-.28.5-.44.74a45.39,45.39,0,0,1-11.86,12.46,64.14,64.14,0,0,1-15.19,8.1A88.77,88.77,0,0,1,244,114.84a67.87,67.87,0,0,1-15.55-5.6c-.45.53-.91,1.07-1.36,1.63-9.16,11.31-15.39,26.84-13.9,34.62a3.13,3.13,0,0,0,1.89,2.45c7.83,3.6,32.16-8.7,41.5-14.05a69.57,69.57,0,0,1-4.85,9c-1.68,2.41-3.53,4.74-5.11,7.23a377.39,377.39,0,0,0-52.43,133.52c-1.64,9-3,18.11-3.91,27.25-2.95,30.42-1.69,70.59,28.43,87.67,2.13,1.21,13,3.79,8.38,7.39-2.4,1.85-14.48,3-13.86,6.68.7,4.07,12.39,4.42,15.15,4.64a154.22,154.22,0,0,0,17.6.24c.5,0,1.38,0,2.32,0,0-.78,0-1.58,0-2.37,0-1.15-.07-2.29,0-3.44s.23-2.33.3-3.51.1-2.56.13-3.84c.06-2.74.12-5.48.14-8.23a158.51,158.51,0,0,0-1.23-23.57,56.88,56.88,0,0,0-2.72-11.44,23.74,23.74,0,0,0-6.26-9.85,23,23,0,0,1,6.91,9.6,57.37,57.37,0,0,1,3.33,11.48,105.25,105.25,0,0,1,1.55,11.85q.47,6,.56,11.92c0,1.25,0,2.49.05,3.73s0,2.76,0,4.14,0,1.6,0,3c0-.25,0,.57,0,.32,0,1.62-.21,3.24-.16,4.86l.1,3a19.5,19.5,0,0,1-.56,6.37,5.83,5.83,0,0,1-1,1.73,7.9,7.9,0,0,1-1.34,1.26,14.62,14.62,0,0,1-2.86,1.59,24.75,24.75,0,0,0-5,2.44,2.23,2.23,0,0,0-.94,1.53,3.1,3.1,0,0,0,.06,1,3.21,3.21,0,0,0,.38,1,5.71,5.71,0,0,0,1.44,1.61,5.41,5.41,0,0,1,.22-3.15,6.52,6.52,0,0,1,2.78-3.36,8.58,8.58,0,0,1,2-.78,12.49,12.49,0,0,1,1.87-.39,13.3,13.3,0,0,1,3.89,0,13.63,13.63,0,0,1-3.14,2.28c-1.12.61-2.21,1.06-3.05,1.5a9.22,9.22,0,0,0-2.26,1.93,12.58,12.58,0,0,0-1.91,3l.44-.37a13.16,13.16,0,0,0,1.61.88A20.5,20.5,0,0,0,249,436.6c1,.14,2,.24,3,.31a2.91,2.91,0,0,1-.42-.89,3.55,3.55,0,0,1,.16-2.18,7,7,0,0,1,2.47-3,10.09,10.09,0,0,1,3.23-1.61,7.41,7.41,0,0,1,3.66-.16,28.12,28.12,0,0,1-2.61,2.27c-.84.66-1.66,1.29-2.49,1.9a23.29,23.29,0,0,0-2.22,1.76,3.1,3.1,0,0,0-.73,1,2.51,2.51,0,0,0-.21,1.56l.59-.61a48.51,48.51,0,0,0,7-.25,43.15,43.15,0,0,0,5.65-1,14.5,14.5,0,0,0,4.9-2.22A22.32,22.32,0,0,0,278,425a24.89,24.89,0,0,0,1.19-2.5,18.81,18.81,0,0,0,.69-5.18c.11-1.75.2-3.52.4-5.25a76.92,76.92,0,0,1,1.76-9.77A50.17,50.17,0,0,1,286.3,391a84.17,84.17,0,0,1,6.22-10.16,115,115,0,0,0-5.31,10.59,57.66,57.66,0,0,0-3.42,11.2c-.47,2.52-.8,5.06-1,7.62-.1,1.12-.18,2.25-.25,3.38a312.8,312.8,0,0,0,33.86,5.59c21.48,2.29,43.63,2.35,64.74-2.68a86.22,86.22,0,0,0,8.66-2.58c0-.15-.06-.3-.08-.45-.62-3.71-.81-7.39-1.24-11-.2-1.8-.51-3.61-.79-5.43s-.56-3.63-.93-5.4a30.84,30.84,0,0,0-1.72-5.18q-1-2.59-1.83-5.21,1.08,2.54,2.25,5a31.76,31.76,0,0,1,2.07,5.16c.5,1.8.88,3.6,1.28,5.39s.8,3.59,1.12,5.43c.62,3.66,1,7.33,1.72,10.85a31,31,0,0,0,1.51,5.11,26.64,26.64,0,0,0,2.43,4.68,20.21,20.21,0,0,0,7.48,7,13.33,13.33,0,0,0,2.34.91c.8.25,1.71.44,2.57.62a44.53,44.53,0,0,0,5.29.71,51.54,51.54,0,0,0,5.7.11l.55.57a2.57,2.57,0,0,0-.21-1.56,3.42,3.42,0,0,0-.73-1,23.91,23.91,0,0,0-2.23-1.75c-.82-.61-1.64-1.24-2.48-1.9a27.06,27.06,0,0,1-2.61-2.28,7.49,7.49,0,0,1,3.65.16,10.06,10.06,0,0,1,3.24,1.62,7.05,7.05,0,0,1,2.47,3,3.59,3.59,0,0,1,.16,2.17,2.79,2.79,0,0,1-.44.92c1.2-.08,2.38-.2,3.53-.39a20.41,20.41,0,0,0,4.87-1.58,15.2,15.2,0,0,0,1.48-.83l.45.38a12.87,12.87,0,0,0-1.91-3,9.24,9.24,0,0,0-2.27-1.92c-.84-.44-1.92-.89-3-1.5a13.19,13.19,0,0,1-3.14-2.29,13.57,13.57,0,0,1,3.88.05,12.35,12.35,0,0,1,1.88.39,8.08,8.08,0,0,1,2,.78,6.54,6.54,0,0,1,2.79,3.36,5.56,5.56,0,0,1,.23,3.12,5.88,5.88,0,0,0,1.29-1.42,3.83,3.83,0,0,0,.58-1.85,2.25,2.25,0,0,0-.12-.84,1.91,1.91,0,0,0-.4-.72c-.79-.94-2.47-1.64-4.13-2.28a21.12,21.12,0,0,1-5.32-2.59,7.85,7.85,0,0,1-1.24-1.21,4.82,4.82,0,0,1-.87-1.72,9.16,9.16,0,0,1-.28-1.57c-.06-.51-.08-1-.1-1.48a111.51,111.51,0,0,1,.44-11.18c.29-3.68.68-7.35,1.13-11,.89-7.32,2-14.61,3.49-21.84.76-3.61,1.59-7.21,2.61-10.76a54.87,54.87,0,0,1,1.74-5.26,23,23,0,0,1,1.16-2.52,7.34,7.34,0,0,1,1.66-2.2,7.31,7.31,0,0,0-1.46,2.3,23.21,23.21,0,0,0-.94,2.57c-.55,1.74-1,3.52-1.4,5.31-.79,3.57-1.4,7.19-1.93,10.81-1.1,7.25-1.92,14.54-2.61,21.84q-.48,5.48-.83,10.95c-.19,3.41-.36,6.86-.24,10.19,5.42.86,11.33.44,16.68.28a155.32,155.32,0,0,0,19.15-1.45c2.36-.37,3.95,0,2.58-2.3-1.61-2.7-4-4-6.92-5-2.42-.82-9.31-1-10.72-3.45-.77-1.34.08-2,1-2.94,1.35-1.35,4-2.2,5.6-3.24q3-1.89,5.8-4.05A69.64,69.64,0,0,0,475.19,368c8.95-16.71,10.93-36.3,9.16-54.94C482.11,289.32,475.1,265.72,467.1,243.37Z"/><path fill="none"  d="M145.9,307.05c-14.61-18.27-22.84-35.2-28.29-46.41-2.72-5.61-6.1-12.56-7.49-12.56h0c-.73,1-.76,6.95,4.23,23,3.6,11.62,8.57,24.37,12.09,31a1.5,1.5,0,0,1-2.55,1.58c-3.88-5.38-10.33-13-13.66-14.58.77,5.54,13.45,29.08,27.18,39.38a1.5,1.5,0,0,1-1.77,2.42c-3.38-2.41-11.15-6.62-13.54-4.23-.31.86,2.08,5.18,11.54,12.95,7.82,6.42,16.84,12.21,23,14.74a1.5,1.5,0,0,1-.87,2.86c-5.44-1.08-10.83-.89-11.25.39.12.59,1.47,2.51,5.06,5.11,3.28,2.38,19.48,13,43.76,10.8-4.67-10.69-6.81-22.41-7.38-34.42C175.17,333,157.54,321.6,145.9,307.05Z"/><path d="M334.94,50.41a22.47,22.47,0,0,1,6.69,3.44A13.7,13.7,0,0,1,343.09,55a13.85,13.85,0,0,1,1.38,1.27l1.24,1.41a18.47,18.47,0,0,1,1.11,1.52l.55.77c.17.26.31.55.46.82.29.57.63,1.1.89,1.68l.73,1.77c.25.59.41,1.21.62,1.82a42,42,0,0,1,1.36,15.66,31.36,31.36,0,0,0,.9-16.25,23.27,23.27,0,0,0-8.93-14.07,25.33,25.33,0,0,0-16-4.75,30.33,30.33,0,0,0-8.16,1.45A20.31,20.31,0,0,0,312.1,52a25.35,25.35,0,0,1,7.55-2.43,35.1,35.1,0,0,1,7.77-.54A26.74,26.74,0,0,1,334.94,50.41Z"/><path d="M360.5,67.08c0,.77.09,1.52.06,2.29,0,1.52-.08,3.06-.23,4.64s-.34,3.18-.53,4.93a11.39,11.39,0,0,0,2.82-4.38,14.72,14.72,0,0,0,.94-5.19,15.84,15.84,0,0,0-.23-2.66,13.22,13.22,0,0,0-.79-2.55,10.45,10.45,0,0,0-3.09-4.23c.27,1.76.68,3.28.82,4.85C360.41,65.55,360.41,66.33,360.5,67.08Z"/><path d="M371.12,70.26c0,.54-.06,1.07-.08,1.6,0,.27,0,.54-.05.81l-.14.79c-.09.53-.15,1.08-.26,1.61s-.28,1.06-.41,1.6c-.07.27-.1.55-.19.81s-.19.53-.27.8l-.52,1.63c-.38,1.08-.85,2.14-1.18,3.32a25.66,25.66,0,0,0,2.48-2.62l1-1.51a8.94,8.94,0,0,0,.89-1.6c.26-.56.5-1.13.74-1.7a18.29,18.29,0,0,0,.51-1.79l.23-.91c.05-.31.07-.62.11-.93a17,17,0,0,0,.14-1.88,15.64,15.64,0,0,0-1.7-7.26,13.44,13.44,0,0,0-4.81-5.42,29.85,29.85,0,0,1,2.63,6.29A21.7,21.7,0,0,1,371.12,70.26Z"/><path d="M480.31,275.87c-6.48-25.07-15.82-49.32-26.42-72.92-5.39-12-11.13-23.86-17-35.62a264.23,264.23,0,0,0-13.36-24.4c1.45.68,3,1.37,4.5,2,9.91,4.35,17.51,6.54,22.69,6.54a11.17,11.17,0,0,0,4.63-.85,6.15,6.15,0,0,0,3.59-4.61c1.67-8.68-4.71-25-14.52-37.08-8-9.91-17-15.45-25.21-15.61h-.26c-9.77,0-20.19,10.83-25.06,16.63-1.84-1.47-3.72-2.9-5.63-4.26a47.5,47.5,0,0,0,10.46-7.6,29.61,29.61,0,0,0,7.4-11.21,20.53,20.53,0,0,0,1.2-6.74,13.82,13.82,0,0,0-1.6-6.81A6.15,6.15,0,0,0,403,70.73a4.09,4.09,0,0,0-1-.29c-.31,0-.61-.07-.93-.09a8.29,8.29,0,0,0-1.86.14,8.83,8.83,0,0,0-2.52.91c.06-.19.13-.39.18-.59a17.62,17.62,0,0,0,.56-5.11,21.08,21.08,0,0,0-.84-5.06,20.21,20.21,0,0,0-2.07-4.75,1.2,1.2,0,0,0-1-.59,1.22,1.22,0,0,0-1.24,1.21v.06a7.26,7.26,0,0,1-1.51,3.83c-.13.2-.29.4-.44.59a25.29,25.29,0,0,0-.09-4.6,16.17,16.17,0,0,0-3.24-8.33,10.53,10.53,0,0,0-3.72-3,8.27,8.27,0,0,0-2.4-.73,6.51,6.51,0,0,0-1.33,0,4.58,4.58,0,0,0-1.45.3,3.33,3.33,0,0,0-1.5,1.09,3.53,3.53,0,0,0-.65,1.69,5.52,5.52,0,0,0,0,.57c-1.52-1.19-3.09-2.32-4.71-3.36a74,74,0,0,0-10.64-5.71,77.45,77.45,0,0,0-23.25-6,88.86,88.86,0,0,0-23.94.95A83.29,83.29,0,0,0,290.48,41a91.2,91.2,0,0,0-10.42,5.9c-3.31,2.17-6.46,4.78-9.7,7.13S263.45,58.7,260,61c-4.67,3.15-9.26,6.44-13.89,9.6-2.32,1.56-4.63,3.16-7,4.47a14.54,14.54,0,0,1-1.75.83,12.66,12.66,0,0,1-1.84.46,25.16,25.16,0,0,1-4,.46,29.26,29.26,0,0,1-7.95-.92,34.26,34.26,0,0,1-3.84-1.22A27.31,27.31,0,0,1,216.18,73a1.66,1.66,0,0,0-.91-.21,1.61,1.61,0,0,0-1.49,1.73,9.76,9.76,0,0,0,.81,3.16,1.56,1.56,0,0,0-.8,1.52,14,14,0,0,0,.77,3.7c.11.31.24.62.38.92a.42.42,0,0,0-.06.25,17.9,17.9,0,0,0,.75,4,1.11,1.11,0,0,0-.38,1.19,6.19,6.19,0,0,0,1.14,2.15,15.23,15.23,0,0,0,1.49,1.6A21.66,21.66,0,0,0,220,94.75c.39.35.8.69,1.21,1a33.88,33.88,0,0,1-4.73,0h-.09a1.11,1.11,0,0,0-1.17,1.38,10.18,10.18,0,0,0,2.32,4.11,22.32,22.32,0,0,0,2.49,2.47,29.54,29.54,0,0,1-3.55-.23,1,1,0,0,0-.35,0,1.13,1.13,0,0,0-.89,1.3,12.42,12.42,0,0,0,1.62,4,21.41,21.41,0,0,0,2.48,3.32c.56.62,1.15,1.2,1.75,1.77-7.71,11.32-12.37,24.67-10.91,32.23a6.16,6.16,0,0,0,3.58,4.61,11,11,0,0,0,4.63.85c5.18,0,12.78-2.19,22.7-6.54,2.51-1.1,4.94-2.25,7.17-3.34a351.63,351.63,0,0,0-21,36,379.37,379.37,0,0,0-27.51,69.12q-5.15,17.82-8.5,36.07c-3,16.36-5.85,34.82-5.45,52.82-10.61-6.19-26.76-16.95-37.55-30.45-14.41-18-22.55-34.76-27.94-45.84-4.91-10.12-7.37-15.19-11.12-14.13a3,3,0,0,0-1.91,1.82c-2.47,5.79,5.19,29.93,11.64,45.82-3.12-3.41-6.57-6.53-9.07-6.94a2.11,2.11,0,0,0-2.42,1.29c-1.79,4.17,8.51,23.55,20.26,36.41-2.91-.84-5.83-.91-7.74,1a3.18,3.18,0,0,0-.79,3c1.16,5.82,16.67,18.71,29.11,25.91-3.23.12-6.22,1-6.74,3.58-.27,1.37.6,3,2.66,5.07,4.77,4.73,20.25,14.68,42.52,14.68a75.13,75.13,0,0,0,7.94-.42,72.87,72.87,0,0,0,3.55,6.41,53,53,0,0,0,21.65,19.67c.46.23,2,1.13,3.25,1.71-.13.05-.23.1-.31.12-1.79.63-3.6,1.17-5.38,1.82-3.43,1.25-9.09,3.22-6.81,8,1.87,3.92,8,4.81,11.7,5.39a118.06,118.06,0,0,0,20,1c1.45,0,3.45.1,5.46.05-.43,1.17-1.94,2-3.62,2.77a25.27,25.27,0,0,0-5.64,2.81,6,6,0,0,0-1.32,1.45,5.1,5.1,0,0,0-.7,2,6.35,6.35,0,0,0,.1,2,6.56,6.56,0,0,0,.68,1.79,11.21,11.21,0,0,0,5.18,4.33,22.83,22.83,0,0,0,6.06,1.85,48.77,48.77,0,0,0,12.25.07,44.71,44.71,0,0,0,6-1.12,17.23,17.23,0,0,0,5.82-2.68,24.88,24.88,0,0,0,7.82-9.69A20.45,20.45,0,0,0,282,422a25.34,25.34,0,0,0,.32-4.77l0-.51c22.41,4.87,45.49,7.76,68.45,6.85a160.1,160.1,0,0,0,32.55-4.43c2.4-.6,4.77-1.26,7.12-2a28.84,28.84,0,0,0,3.1,7.11,21.91,21.91,0,0,0,8.26,8.09,15.66,15.66,0,0,0,2.77,1.14c.95.31,1.84.51,2.78.72A48.1,48.1,0,0,0,413,435a45.77,45.77,0,0,0,11.38-.31,23.06,23.06,0,0,0,5.61-1.79,13.82,13.82,0,0,0,2.62-1.56,8.9,8.9,0,0,0,2.25-2.39,6.87,6.87,0,0,0,1-3.36,5.19,5.19,0,0,0-1.23-3.53,8.33,8.33,0,0,0-2.68-2,24.86,24.86,0,0,0-2.68-1.13,19.6,19.6,0,0,1-4.59-2.15,4.54,4.54,0,0,1-.74-.7,1.83,1.83,0,0,1-.37-.72l0-.12.83.08a142.39,142.39,0,0,0,20.86,0c5.57-.29,11.91-.22,17.3-1.84,3.77-1.13,2.9-4.86.85-7.65-3.27-4.43-9.45-5.46-14.45-6.64l-.43-.13c.93-.57,1.95-1.32,2.33-1.55a77.06,77.06,0,0,0,11.86-8.78c14-12.68,21.83-30.36,24.29-48.89C489.83,318.38,485.69,296.69,480.31,275.87Zm-263.65-188a15.26,15.26,0,0,1-.54-2c.09.12.16.25.25.36a15.65,15.65,0,0,0,1.48,1.66Zm1.12-5.62.83.39.7.28a21.59,21.59,0,0,0,3.47,1.8,33.77,33.77,0,0,0,6.35,1.78l.61.1a32.33,32.33,0,0,1-3.67.78c-1,.17-2.12.29-3.18.38a13.64,13.64,0,0,1-3.95-3.42A10.69,10.69,0,0,1,217.78,82.25Zm1.41,17.62a11.42,11.42,0,0,1-1.11-1.72c1.11.08,2.22.1,3.34.08,1.31,0,2.61-.14,3.92-.3,1,.52,2.08,1,3.14,1.46a78.83,78.83,0,0,0,15.57,4.54,104.79,104.79,0,0,0,16.1,1.69,101.19,101.19,0,0,0,16.22-.7c10.72-1.28,21.47-4,31.11-9.28a45.11,45.11,0,0,0,12.84-10.19,36.19,36.19,0,0,0,2.47-3.29,30.17,30.17,0,0,0,2-3.61,20.66,20.66,0,0,0,2.07-7.88.15.15,0,0,0-.13-.15.14.14,0,0,0-.17.14,22.21,22.21,0,0,1-2.74,7.39,32.65,32.65,0,0,1-4.75,6.27,47.88,47.88,0,0,1-12.71,9.17l-1.77.88-1.81.81c-1.18.57-2.43,1-3.65,1.52s-2.48.9-3.74,1.33-2.51.8-3.79,1.17c-5.09,1.45-10.28,2.63-15.53,3.61a101.89,101.89,0,0,1-15.89,1.62A76,76,0,0,1,244.23,103a62.56,62.56,0,0,1-15.15-5,42.28,42.28,0,0,1-6.8-4,23.81,23.81,0,0,1-2.93-2.52,11.19,11.19,0,0,1-1-1.24c1,.06,2,.08,3,.08a45.63,45.63,0,0,0,5.09-.34,28.58,28.58,0,0,0,9.94-3,1.44,1.44,0,0,0-.59-2.71h-.07a41.34,41.34,0,0,1-6-.81A31.28,31.28,0,0,1,224,81.78a15,15,0,0,1-4.79-3,8,8,0,0,1-1.13-1.43l.6.23a36.52,36.52,0,0,0,4.22,1.26,30.51,30.51,0,0,0,8.79.74,26.26,26.26,0,0,0,4.4-.66,15.13,15.13,0,0,0,2.21-.67,16.76,16.76,0,0,0,2-1,85.31,85.31,0,0,0,7.06-4.85c4.2-3.16,8.35-6.38,12.55-9.54a148,148,0,0,1,12.77-8.41l2.67-1.62c1.68-1,3.23-2.22,4.88-3.29a88.47,88.47,0,0,1,11.28-6.23,84.79,84.79,0,0,1,22.22-6.68,86.93,86.93,0,0,1,23.17-.69,77.49,77.49,0,0,1,22.29,6,71.47,71.47,0,0,1,10.17,5.46c1.62,1,3.2,2.14,4.72,3.32a44.45,44.45,0,0,1,4.27,3.74,1.56,1.56,0,0,0,2.42-2,14.53,14.53,0,0,1-1.66-3.26,3.79,3.79,0,0,1-.23-1.37.51.51,0,0,1,.06-.22s0,0,.15-.09a3,3,0,0,1,1.29-.09,5.65,5.65,0,0,1,1.53.45,8.1,8.1,0,0,1,2.69,2.11,13.29,13.29,0,0,1,2.74,6.8,27.73,27.73,0,0,1-.22,7.81v.06a1.32,1.32,0,0,0,2.17,1.19,22.29,22.29,0,0,0,1.89-1.87,18.37,18.37,0,0,0,1.62-2.08,13.32,13.32,0,0,0,1-1.74c.16.41.31.82.44,1.23a18.38,18.38,0,0,1,.83,4.46,16.51,16.51,0,0,1-.39,4.49A16.28,16.28,0,0,1,393,74.5a1,1,0,0,0,1.73,1.1,8.58,8.58,0,0,1,4.75-3.3,7,7,0,0,1,1.44-.15c.25,0,.49,0,.73,0a2.32,2.32,0,0,1,.59.15,4.51,4.51,0,0,1,2,1.89,12.18,12.18,0,0,1,1.54,6,19.73,19.73,0,0,1-.94,6.32,28.51,28.51,0,0,1-6.76,11,48.86,48.86,0,0,1-10.15,8,119.83,119.83,0,0,0-11.59-7.28c-16-8.79-34.33-13.58-52.61-11.59A33.33,33.33,0,0,0,325.22,83a27.44,27.44,0,0,0,1.62-8.4.16.16,0,0,0-.13-.15.15.15,0,0,0-.17.14A35.3,35.3,0,0,1,320.1,89.8a47.28,47.28,0,0,1-11.87,11.44,68.22,68.22,0,0,1-14.75,7.55,120.31,120.31,0,0,1-16,4.72,84.46,84.46,0,0,1-16.61,2.17,65.1,65.1,0,0,1-16.69-1.74,55.47,55.47,0,0,1-15.52-6.2,40.17,40.17,0,0,1-6.69-4.89A22.73,22.73,0,0,1,219.19,99.87Zm-1.25,5.89a35.21,35.21,0,0,0,3.56,0l1-.08c1,.75,2.11,1.44,3.2,2.09-.35.41-.69.81-1,1.23-.74.91-1.45,1.85-2.15,2.8-.48-.44-.95-.9-1.39-1.38A16.59,16.59,0,0,1,217.94,105.76Zm-68.39,257c-3.59-2.6-4.94-4.52-5.06-5.11.42-1.28,5.81-1.47,11.25-.39a1.5,1.5,0,0,0,.87-2.86c-6.16-2.53-15.18-8.32-23-14.74-9.46-7.77-11.85-12.09-11.54-12.95,2.39-2.39,10.16,1.82,13.54,4.23a1.5,1.5,0,0,0,1.77-2.42c-13.73-10.3-26.41-33.84-27.18-39.38,3.33,1.63,9.78,9.2,13.66,14.58a1.5,1.5,0,0,0,2.55-1.58c-3.52-6.65-8.49-19.4-12.09-31-5-16.1-5-22.07-4.23-23h0c1.39,0,4.77,6.95,7.49,12.56,5.45,11.21,13.68,28.14,28.29,46.41,11.64,14.55,29.27,26,40,32.1.57,12,2.71,23.73,7.38,34.42C169,375.75,152.83,365.15,149.55,362.77ZM475.19,368a69.64,69.64,0,0,1-18.8,22.19q-2.81,2.16-5.8,4.05c-1.64,1-4.25,1.89-5.6,3.24-.89.89-1.74,1.6-1,2.94,1.41,2.49,8.3,2.63,10.72,3.45,2.94,1,5.31,2.32,6.92,5,1.37,2.3-.22,1.93-2.58,2.3a155.32,155.32,0,0,1-19.15,1.45c-5.35.16-11.26.58-16.68-.28-.12-3.33.05-6.78.24-10.19q.35-5.47.83-10.95c.69-7.3,1.51-14.59,2.61-21.84.53-3.62,1.14-7.24,1.93-10.81.39-1.79.85-3.57,1.4-5.31a23.21,23.21,0,0,1,.94-2.57,7.31,7.31,0,0,1,1.46-2.3,7.34,7.34,0,0,0-1.66,2.2,23,23,0,0,0-1.16,2.52,54.87,54.87,0,0,0-1.74,5.26c-1,3.55-1.85,7.15-2.61,10.76-1.46,7.23-2.6,14.52-3.49,21.84-.45,3.66-.84,7.33-1.13,11a111.51,111.51,0,0,0-.44,11.18c0,.48,0,1,.1,1.48a9.16,9.16,0,0,0,.28,1.57,4.82,4.82,0,0,0,.87,1.72,7.85,7.85,0,0,0,1.24,1.21,21.12,21.12,0,0,0,5.32,2.59c1.66.64,3.34,1.34,4.13,2.28a1.91,1.91,0,0,1,.4.72,2.25,2.25,0,0,1,.12.84,3.83,3.83,0,0,1-.58,1.85,5.88,5.88,0,0,1-1.29,1.42,5.56,5.56,0,0,0-.23-3.12,6.54,6.54,0,0,0-2.79-3.36,8.08,8.08,0,0,0-2-.78,12.35,12.35,0,0,0-1.88-.39,13.57,13.57,0,0,0-3.88-.05,13.19,13.19,0,0,0,3.14,2.29c1.12.61,2.2,1.06,3,1.5a9.24,9.24,0,0,1,2.27,1.92,12.87,12.87,0,0,1,1.91,3l-.45-.38a15.2,15.2,0,0,1-1.48.83,20.41,20.41,0,0,1-4.87,1.58c-1.15.19-2.33.31-3.53.39a2.79,2.79,0,0,0,.44-.92,3.59,3.59,0,0,0-.16-2.17,7.05,7.05,0,0,0-2.47-3,10.06,10.06,0,0,0-3.24-1.62,7.49,7.49,0,0,0-3.65-.16,27.06,27.06,0,0,0,2.61,2.28c.84.66,1.66,1.29,2.48,1.9a23.91,23.91,0,0,1,2.23,1.75,3.42,3.42,0,0,1,.73,1,2.57,2.57,0,0,1,.21,1.56l-.55-.57a51.54,51.54,0,0,1-5.7-.11,44.53,44.53,0,0,1-5.29-.71c-.86-.18-1.77-.37-2.57-.62A13.33,13.33,0,0,1,403,430a20.21,20.21,0,0,1-7.48-7,26.64,26.64,0,0,1-2.43-4.68,31,31,0,0,1-1.51-5.11c-.76-3.52-1.1-7.19-1.72-10.85-.32-1.84-.74-3.63-1.12-5.43s-.78-3.59-1.28-5.39a31.76,31.76,0,0,0-2.07-5.16q-1.17-2.49-2.25-5,.87,2.61,1.83,5.21a30.84,30.84,0,0,1,1.72,5.18c.37,1.77.65,3.59.93,5.4s.59,3.63.79,5.43c.43,3.62.62,7.3,1.24,11,0,.15.06.3.08.45a86.22,86.22,0,0,1-8.66,2.58c-21.11,5-43.26,5-64.74,2.68a312.8,312.8,0,0,1-33.86-5.59c.07-1.13.15-2.26.25-3.38.23-2.56.56-5.1,1-7.62a57.66,57.66,0,0,1,3.42-11.2,115,115,0,0,1,5.31-10.59A84.17,84.17,0,0,0,286.3,391,50.17,50.17,0,0,0,282,402.27a76.92,76.92,0,0,0-1.76,9.77c-.2,1.73-.29,3.5-.4,5.25a18.81,18.81,0,0,1-.69,5.18A24.89,24.89,0,0,1,278,425a22.32,22.32,0,0,1-7.06,8.51,14.5,14.5,0,0,1-4.9,2.22,43.15,43.15,0,0,1-5.65,1,48.51,48.51,0,0,1-7,.25l-.59.61A2.51,2.51,0,0,1,253,436a3.1,3.1,0,0,1,.73-1,23.29,23.29,0,0,1,2.22-1.76c.83-.61,1.65-1.24,2.49-1.9a28.12,28.12,0,0,0,2.61-2.27,7.41,7.41,0,0,0-3.66.16,10.09,10.09,0,0,0-3.23,1.61,7,7,0,0,0-2.47,3,3.55,3.55,0,0,0-.16,2.18,2.91,2.91,0,0,0,.42.89c-1-.07-2-.17-3-.31a20.5,20.5,0,0,1-5.28-1.58,13.16,13.16,0,0,1-1.61-.88l-.44.37a12.58,12.58,0,0,1,1.91-3,9.22,9.22,0,0,1,2.26-1.93c.84-.44,1.93-.89,3.05-1.5a13.63,13.63,0,0,0,3.14-2.28,13.3,13.3,0,0,0-3.89,0,12.49,12.49,0,0,0-1.87.39,8.58,8.58,0,0,0-2,.78,6.52,6.52,0,0,0-2.78,3.36,5.41,5.41,0,0,0-.22,3.15,5.71,5.71,0,0,1-1.44-1.61,3.21,3.21,0,0,1-.38-1,3.1,3.1,0,0,1-.06-1,2.23,2.23,0,0,1,.94-1.53,24.75,24.75,0,0,1,5-2.44,14.62,14.62,0,0,0,2.86-1.59,7.9,7.9,0,0,0,1.34-1.26,5.83,5.83,0,0,0,1-1.73,19.5,19.5,0,0,0,.56-6.37l-.1-3c0-1.62.16-3.24.16-4.86,0,.25,0-.57,0-.32,0-1.36,0-1.61,0-3s0-2.76,0-4.14,0-2.48-.05-3.73q-.09-6-.56-11.92a105.25,105.25,0,0,0-1.55-11.85,57.37,57.37,0,0,0-3.33-11.48,23,23,0,0,0-6.91-9.6,23.74,23.74,0,0,1,6.26,9.85,56.88,56.88,0,0,1,2.72,11.44,158.51,158.51,0,0,1,1.23,23.57c0,2.75-.08,5.49-.14,8.23,0,1.28-.05,2.56-.13,3.84s-.21,2.34-.3,3.51,0,2.29,0,3.44c0,.79,0,1.59,0,2.37-.94,0-1.82,0-2.32,0a154.22,154.22,0,0,1-17.6-.24c-2.76-.22-14.45-.57-15.15-4.64-.62-3.64,11.46-4.83,13.86-6.68,4.66-3.6-6.25-6.18-8.38-7.39-30.12-17.08-31.38-57.25-28.43-87.67.88-9.14,2.27-18.22,3.91-27.25a377.39,377.39,0,0,1,52.43-133.52c1.58-2.49,3.43-4.82,5.11-7.23a69.57,69.57,0,0,0,4.85-9c-9.34,5.35-33.67,17.65-41.5,14.05a3.13,3.13,0,0,1-1.89-2.45c-1.49-7.78,4.74-23.31,13.9-34.62.45-.56.91-1.1,1.36-1.63a67.87,67.87,0,0,0,15.55,5.6,84.28,84.28,0,0,0,16.9,2.09,92.43,92.43,0,0,0,33.59-5.63,64.14,64.14,0,0,0,15.19-8.1,45.39,45.39,0,0,0,11.86-12.46c.16-.24.29-.49.44-.74a78.28,78.28,0,0,1,30.15,1.73c14.64,3.74,28.11,11.16,39.87,20.61l2.52,2c.14-.19,12.91-17.93,24.43-17.93h.21c7.34.14,15.49,5.29,22.94,14.5,9.16,11.31,15.4,26.84,13.9,34.62a3.13,3.13,0,0,1-1.89,2.45c-6.84,3.16-27.56-6.48-38.9-12.53.13.07.27.41.35.53,1.79,2.83,3.25,5.85,5.1,8.65,1.73,2.64,3.36,5.33,4.94,8.06.55,1,1.1,1.91,1.64,2.87,3.2,5.72,6.19,11.55,9.11,17.41,11.43,22.95,22.15,46.29,30.8,70.44,8,22.35,15,45.95,17.25,69.67C486.12,331.68,484.14,351.27,475.19,368Z"/>    </g>    <g id="eye">        <g id="eye-color1">            <g opacity="0" ><path fill="#FFF3B6"  d="M249.45,149.37c-.14.46-.21.94-.36,1.4a15.33,15.33,0,0,1-1.35,2.87c-.52.93-1,1.89-1.54,2.82-.24.42-.5.81-.77,1.21l-.43.61c-.09.11-.46.47-.46.6-.19.25-.39.5-.59.74-5.88,7-13.9,9.8-22.69,6.53-8.54-3.17-14.21-10.4-14.65-19.54a.84.84,0,0,1,0-.28.93.93,0,0,1,0-.29,23.27,23.27,0,0,1,19-21.81,18.86,18.86,0,0,1,11.42,1.35c-15.29-7.71-34.35-2.93-39.29,15.33a20.84,20.84,0,0,0-.67,6.53,29.39,29.39,0,0,0,10.49,20.23c8.59,7.09,21.5,6.67,31,1.77,7.19-3.69,10-12.6,10.92-20.45C249.53,149.11,249.48,149.24,249.45,149.37Z"/></g><g opacity="0" ><path fill="#FFF3B6"  d="M373.2,143.3c-.24.62-.44,1.25-.7,1.87a24.77,24.77,0,0,1-2,3.66,29.23,29.23,0,0,1-2.54,3.43c-5.88,7-13.9,9.8-22.69,6.53-8.53-3.17-14.2-10.4-14.65-19.53a2.11,2.11,0,0,1,0-.58,23.29,23.29,0,0,1,19-21.81,18.87,18.87,0,0,1,11.42,1.35c-15.3-7.71-34.36-2.93-39.3,15.33a20.54,20.54,0,0,0-.66,6.53,29.38,29.38,0,0,0,10.48,20.23c8.59,7.09,21.5,6.67,31,1.77,6.91-3.54,9.72-12,10.77-19.65C373.37,142.68,373.29,143.06,373.2,143.3Z"/></g>        </g>        <g id="eye-shape">            <path fill="#fff"  d="M312.54,138.57c-1.24-.42-6.63-.89-14.56-1.27-.59,5.6-10.78,19.12-25.61,18.19-13-.81-19.14-14.78-20.67-18.9-18.22.28-28,1.27-30,2.33-.18,2.3,1.34,9.19,6.7,15.73s16.29,14.63,36.77,14.63c28.46,0,41.06-16.94,44.25-22.13C312.36,142.4,312.73,139.32,312.54,138.57Z"/><path d="M270.72,104.07a7.5,7.5,0,0,0-6.2,6.16c-1.15,5.07,1.08,11.4,3.68,13.26,2.28,1.63,17.06,7.22,29.36,10.74-25-1.29-69.58-1.26-76.93,1.91a2.83,2.83,0,0,0-1.8,1.86c-.63,3.13,1.25,11.2,7.28,18.55,5.88,7.18,17.44,15.73,39.09,15.73,33.65,0,47.64-22.4,49.89-30.25.81-2.8.5-4.37-.11-5.25,6.57-1.67,10-7.3,11-12.31.28-1.42-.29-2.87-1.69-4.31C316.18,111.88,278.06,102.78,270.72,104.07Zm-5.52,65.21c-20.48,0-31.3-8-36.77-14.63s-6.88-13.43-6.7-15.73c2-1.06,11.75-2,30-2.33,1.53,4.12,7.65,18.09,20.67,18.9,14.83.93,25-12.59,25.61-18.19,7.93.38,13.32.85,14.56,1.27.19.75-.18,3.83-3.09,8.58C306.26,152.34,293.66,169.28,265.2,169.28Z"/><path fill="#fff"  d="M438.64,134.75c1.32-3.1,1-4.44.81-4.67-1.69-1.24-12.7-1.24-26.14-.55-1.12,5.15-5.42,18.11-20.4,19.09-15.73,1-24.28-10.67-26.62-14.45-4.43.77-7.5,1.55-8.4,2.29-.28.72.11,3.95,2.83,8.36,3.25,5.29,13.17,17.53,35,17C419.7,161.15,435,143.29,438.64,134.75Z"/><path d="M441.67,128.06c-1.51-1.66-9.77-3.15-40.53-.84-7.15.53-43,3.42-45.73,7.53-1.5,2.25.15,7,2,10.38,2.59,4.68,12.77,19.67,36.83,19.67l1.55,0c23.21-.61,40.64-17.24,45.59-28.86C443,132.29,443,129.57,441.67,128.06Zm-80.95,16.76c-2.72-4.41-3.11-7.64-2.83-8.36.9-.74,4-1.52,8.4-2.29,2.34,3.78,10.89,15.47,26.62,14.45,15-1,19.28-13.94,20.4-19.09,13.44-.69,24.45-.69,26.14.55.21.23.51,1.57-.81,4.67-3.65,8.54-18.94,26.4-42.92,27C373.89,162.35,364,150.11,360.72,144.82Z"/><path d="M402.67,119.42c1.41-2.83-2-13.13-5.5-18.48-2.06-3.15-4.16-4.69-6.24-4.6-3.12.16-14.83,4.28-25.05,8.83-21.31,9.47-21.61,13.71-21.71,15.1h0c-.18,2.51-.08,7.14,2.64,10a7.7,7.7,0,0,0,5.79,2.26h.45c3.95-.16,16.37-2.75,26.6-5.24C401.4,121.94,402.29,120.18,402.67,119.42Z"/>        </g>        <g id="eye-color2">            <path fill="#ED58D0"  d="M258.5,152.44a40.76,40.76,0,0,0,11.9,2.81c-11.67-2-17.25-14.75-18.7-18.66-4.29.07-8.09.17-11.46.31A37.06,37.06,0,0,0,258.5,152.44Z"/><path fill="#ED58D0"  d="M307,137.86c-2.4-.2-5.44-.39-9-.56-.52,4.95-8.55,16.08-20.65,18C290.06,154.22,301,147.48,307,137.86Z"/><path fill="#ED58D0"  d="M377,147.23a40.63,40.63,0,0,0,7.47,1.74,42,42,0,0,0,5.66.38c15.36,0,28.59-8.3,34.59-20.24-3.45.07-7.31.21-11.4.42-1.12,5.15-5.42,18.11-20.4,19.09-15.73,1-24.28-10.67-26.62-14.45a53.22,53.22,0,0,0-6.5,1.44A38.07,38.07,0,0,0,377,147.23Z"/>        </g>    </g>    <g id="nose-mouth">        <path d="M354.67,215.41a40.33,40.33,0,0,0,6.77-9,61.4,61.4,0,0,1-11.77,10.35,14.61,14.61,0,0,1-1.65,1c-.57.3-1.1.65-1.68.93l-1.73.8c-.57.27-1.18.44-1.77.67a28.91,28.91,0,0,1-5.86,1.47l-.35-6.22-.52,0c7-1.39,16.38-11,14.26-16.95-4-11.35-32.41-5.28-35.28,1.42-3.55,8.28,11.16,15.16,18.54,15.67l.36,6.31a37,37,0,0,1-13.51-2.21c-1-.35-2-.74-3-1.15l-.2-.08-.14-.06a62.37,62.37,0,0,1-10.65-5.88,38.59,38.59,0,0,0,10.33,8l0,.22a14.87,14.87,0,0,0,2.82,10.44c2.79,3.71,7.36,6,13.55,6.8a27.59,27.59,0,0,0,3.3.21,19.25,19.25,0,0,0,16.7-9c3-4.74,3.66-10.3,1.6-13.5Zm-18.18-18c1.07-4.29,11.19-2.37,9.52,1.43S335.43,201.61,336.49,197.36Z"/><path fill="#c4223a"  d="M323.72,231.05h0s3.54,4.22,12.43,4.29c8,.06,11.84-4.4,12.56-5.32l.13-.18C337.8,225.8,325.41,230.38,323.72,231.05Z"/><path fill="#8e1725"  d="M335.7,226.3a36,36,0,0,1-15.9-2.91,11.15,11.15,0,0,0,3.92,7.66c1.69-.67,14.08-5.25,25.12-1.21l-.13.18a17,17,0,0,0,2-2.5,13.25,13.25,0,0,0,2.26-8.31A26.59,26.59,0,0,1,335.7,226.3Z"/><path fill="#fff"  d="M346,198.79c1.67-3.8-8.45-5.72-9.52-1.43S344.34,202.58,346,198.79Z"/>    </g></svg>