<!--  ~ Copyright (C) 2018 Baidu, Inc. All Rights Reserved.  --><svg viewBox="0 0 640 480" xmlns="http://www.w3.org/2000/svg">    <g id="back-ground-cl">        <rect fill="none" width="640" height="480" />        <ellipse opacity="0.1" cx="331.93" cy="418.82" rx="168.39" ry="32.01"/>    </g>    <g id="body">        <defs>            <clipPath id="outline">                <path fill="none"  d="M216.12,85.89a15.26,15.26,0,0,0,.54,2l1.19,0a15.65,15.65,0,0,1-1.48-1.66C216.28,86.14,216.21,86,216.12,85.89Z"/><path fill="none"  d="M222.89,87.76c1.06-.09,2.13-.21,3.18-.38a32.33,32.33,0,0,0,3.67-.78l-.61-.1a33.77,33.77,0,0,1-6.35-1.78,21.59,21.59,0,0,1-3.47-1.8l-.7-.28-.83-.39a10.69,10.69,0,0,0,1.16,2.09A13.64,13.64,0,0,0,222.89,87.76Z"/><path fill="none"  d="M222.56,111.78c.7-1,1.41-1.89,2.15-2.8.34-.42.68-.82,1-1.23-1.09-.65-2.16-1.34-3.2-2.09l-1,.08a35.21,35.21,0,0,1-3.56,0,16.59,16.59,0,0,0,3.23,4.64C221.61,110.88,222.08,111.34,222.56,111.78Z"/><path fill="none"  d="M222,102.85a40.17,40.17,0,0,0,6.69,4.89,55.47,55.47,0,0,0,15.52,6.2,65.1,65.1,0,0,0,16.69,1.74,84.46,84.46,0,0,0,16.61-2.17,120.31,120.31,0,0,0,16-4.72,68.22,68.22,0,0,0,14.75-7.55A47.28,47.28,0,0,0,320.1,89.8a35.3,35.3,0,0,0,6.44-15.23h0a.15.15,0,0,1,.17-.13.16.16,0,0,1,.13.15,27.44,27.44,0,0,1-1.62,8.4,33.33,33.33,0,0,1-1.49,3.68c18.28-2,36.6,2.8,52.61,11.59a119.83,119.83,0,0,1,11.59,7.28,48.86,48.86,0,0,0,10.15-8,28.51,28.51,0,0,0,6.76-11,19.73,19.73,0,0,0,.94-6.32,12.18,12.18,0,0,0-1.54-6,4.51,4.51,0,0,0-2-1.89,2.32,2.32,0,0,0-.59-.15c-.24,0-.48,0-.73,0a7,7,0,0,0-1.44.15,8.58,8.58,0,0,0-4.75,3.3A1,1,0,0,1,393,74.5a16.28,16.28,0,0,0,1.64-4.21,16.51,16.51,0,0,0,.39-4.49,18.38,18.38,0,0,0-.83-4.46c-.13-.41-.28-.82-.44-1.23a13.32,13.32,0,0,1-1,1.74,18.37,18.37,0,0,1-1.62,2.08,22.29,22.29,0,0,1-1.89,1.87,1.32,1.32,0,0,1-2.17-1.19v-.06a27.73,27.73,0,0,0,.22-7.81,13.29,13.29,0,0,0-2.74-6.8,8.1,8.1,0,0,0-2.69-2.11,5.65,5.65,0,0,0-1.53-.45,3,3,0,0,0-1.29.09c-.13.05-.14.08-.15.09a.51.51,0,0,0-.06.22,3.79,3.79,0,0,0,.23,1.37,14.53,14.53,0,0,0,1.66,3.26,1.56,1.56,0,0,1-2.42,2h0a44.41,44.41,0,0,0-4.26-3.73c-1.52-1.18-3.1-2.27-4.72-3.32a71.47,71.47,0,0,0-10.17-5.46,77.49,77.49,0,0,0-22.29-6,86.93,86.93,0,0,0-23.17.69,84.79,84.79,0,0,0-22.22,6.68,93.82,93.82,0,0,0-16,9.45l-.86-.3a.15.15,0,0,1-.06.09c-4.79,3-9.34,6.23-13.83,9.62S251.88,69,247.37,72.36a85.31,85.31,0,0,1-7.06,4.85,16.76,16.76,0,0,1-2,1,15.13,15.13,0,0,1-2.21.67,26.26,26.26,0,0,1-4.4.66,30.51,30.51,0,0,1-8.79-.74,36.52,36.52,0,0,1-4.22-1.26l-.6-.23a8,8,0,0,0,1.13,1.43,15,15,0,0,0,4.79,3,31.28,31.28,0,0,0,5.74,1.74,41.34,41.34,0,0,0,6,.81h.07a1.44,1.44,0,0,1,.59,2.71,28.58,28.58,0,0,1-9.94,3,45.63,45.63,0,0,1-5.09.34c-1,0-2,0-3-.08a11.19,11.19,0,0,0,1,1.24,23.81,23.81,0,0,0,2.93,2.52,42.28,42.28,0,0,0,6.8,4,62.56,62.56,0,0,0,15.15,5,76,76,0,0,0,15.93,1.42,101.89,101.89,0,0,0,15.89-1.62c5.25-1,10.44-2.16,15.53-3.61,1.28-.37,2.52-.8,3.79-1.17s2.5-.87,3.74-1.33,2.47-1,3.65-1.52l1.81-.81,1.77-.88a47.88,47.88,0,0,0,12.71-9.17,32.65,32.65,0,0,0,4.75-6.27,22.21,22.21,0,0,0,2.74-7.39v0a.14.14,0,0,1,.17-.12.15.15,0,0,1,.13.15,20.66,20.66,0,0,1-2.07,7.88,30.17,30.17,0,0,1-2,3.61,36.19,36.19,0,0,1-2.47,3.29,45.11,45.11,0,0,1-12.84,10.19c-9.64,5.27-20.39,8-31.11,9.28a101.19,101.19,0,0,1-16.22.7,104.79,104.79,0,0,1-16.1-1.69,78.83,78.83,0,0,1-15.57-4.54c-1.06-.45-2.11-.94-3.14-1.46-1.31.16-2.61.27-3.92.3-1.12,0-2.23,0-3.34-.08a11.42,11.42,0,0,0,1.11,1.72A22.73,22.73,0,0,0,222,102.85,372.42,63a15.64,15.64,0,0,1,1.7,7.26,17,17,0,0,1-.14,1.88c0,.31-.06.62-.11.93l-.23.91a18.29,18.29,0,0,1-.51,1.79c-.24.57-.48,1.14-.74,1.7a8.94,8.94,0,0,1-.89,1.6l-1,1.51A25.66,25.66,0,0,1,368,83.23c.33-1.18.8-2.24,1.18-3.32l.52-1.63c.08-.27.17-.53.27-.8s.12-.54.19-.81c.13-.54.26-1.07.41-1.6s.17-1.08.26-1.61l.14-.79c0-.27,0-.54.05-.81,0-.53.11-1.06.08-1.6a21.7,21.7,0,0,0-.88-6.36,29.85,29.85,0,0,0-2.63-6.29A13.44,13.44,0,0,1,372.42,63,-9.88,1.13a13.22,13.22,0,0,1,.79,2.55,15.84,15.84,0,0,1,.23,2.66,14.72,14.72,0,0,1-.94,5.19,11.39,11.39,0,0,1-2.82,4.38c.19-1.75.39-3.35.53-4.93s.23-3.12.23-4.64c0-.77,0-1.52-.06-2.29s-.09-1.53-.23-2.3c-.14-1.57-.55-3.09-.82-4.85A10.45,10.45,0,0,1,362.54,64.16,-42.89-14.6A25.35,25.35,0,0,0,312.1,52a20.31,20.31,0,0,1,7.18-3.86,30.33,30.33,0,0,1,8.16-1.45,25.33,25.33,0,0,1,16,4.75,23.27,23.27,0,0,1,8.93,14.07,31.36,31.36,0,0,1-.9,16.25,42,42,0,0,0-1.36-15.66c-.21-.61-.37-1.23-.62-1.82l-.73-1.77c-.26-.58-.6-1.11-.89-1.68-.15-.27-.29-.56-.46-.82l-.55-.77a18.47,18.47,0,0,0-1.11-1.52l-1.24-1.41A13.85,13.85,0,0,0,343.09,55a13.7,13.7,0,0,0-1.46-1.18,22.47,22.47,0,0,0-6.69-3.44A26.74,26.74,0,0,0,327.42,49,35.1,35.1,0,0,0,319.65,49.56Z"/><path fill="none"  d="M467.1,243.37c-8.65-24.15-19.37-47.49-30.8-70.44-2.92-5.86-5.91-11.69-9.11-17.41-.54-1-1.09-1.91-1.64-2.87-1.58-2.73-3.21-5.42-4.94-8.06-1.85-2.8-3.31-5.82-5.1-8.65-.08-.12-.22-.46-.35-.53,11.34,6.05,32.06,15.69,38.9,12.53a3.13,3.13,0,0,0,1.89-2.45c1.5-7.78-4.74-23.31-13.9-34.62-7.45-9.21-15.6-14.36-22.94-14.5h-.21c-11.52,0-24.29,17.74-24.43,17.93l-2.52-2c-11.76-9.45-25.23-16.87-39.87-20.61A78.28,78.28,0,0,0,321.93,90c-.15.25-.28.5-.44.74a45.39,45.39,0,0,1-11.86,12.46,64.14,64.14,0,0,1-15.19,8.1A88.77,88.77,0,0,1,244,114.84a67.87,67.87,0,0,1-15.55-5.6c-.45.53-.91,1.07-1.36,1.63-9.16,11.31-15.39,26.84-13.9,34.62a3.13,3.13,0,0,0,1.89,2.45c7.83,3.6,32.16-8.7,41.5-14.05a69.57,69.57,0,0,1-4.85,9c-1.68,2.41-3.53,4.74-5.11,7.23a377.39,377.39,0,0,0-52.43,133.52c-1.64,9-3,18.11-3.91,27.25-2.95,30.42-1.69,70.59,28.43,87.67,2.13,1.21,13,3.79,8.38,7.39-2.4,1.85-14.48,3-13.86,6.68.7,4.07,12.39,4.42,15.15,4.64a154.22,154.22,0,0,0,17.6.24c.5,0,1.38,0,2.32,0,0-.78,0-1.58,0-2.37,0-1.15-.07-2.29,0-3.44s.23-2.33.3-3.51.1-2.56.13-3.84c.06-2.74.12-5.48.14-8.23a158.51,158.51,0,0,0-1.23-23.57,56.88,56.88,0,0,0-2.72-11.44,23.74,23.74,0,0,0-6.26-9.85,23,23,0,0,1,6.91,9.6,57.37,57.37,0,0,1,3.33,11.48,105.25,105.25,0,0,1,1.55,11.85q.47,6,.56,11.92c0,1.25,0,2.49.05,3.73s0,2.76,0,4.14,0,1.6,0,3c0-.25,0,.57,0,.32,0,1.62-.21,3.24-.16,4.86l.1,3a19.5,19.5,0,0,1-.56,6.37,5.83,5.83,0,0,1-1,1.73,7.9,7.9,0,0,1-1.34,1.26,14.62,14.62,0,0,1-2.86,1.59,24.75,24.75,0,0,0-5,2.44,2.23,2.23,0,0,0-.94,1.53,3.1,3.1,0,0,0,.06,1,3.21,3.21,0,0,0,.38,1,5.71,5.71,0,0,0,1.44,1.61,5.41,5.41,0,0,1,.22-3.15,6.52,6.52,0,0,1,2.78-3.36,8.58,8.58,0,0,1,2-.78,12.49,12.49,0,0,1,1.87-.39,13.3,13.3,0,0,1,3.89,0,13.63,13.63,0,0,1-3.14,2.28c-1.12.61-2.21,1.06-3.05,1.5a9.22,9.22,0,0,0-2.26,1.93,12.58,12.58,0,0,0-1.91,3l.44-.37a13.16,13.16,0,0,0,1.61.88A20.5,20.5,0,0,0,249,436.6c1,.14,2,.24,3,.31a2.91,2.91,0,0,1-.42-.89,3.55,3.55,0,0,1,.16-2.18,7,7,0,0,1,2.47-3,10.09,10.09,0,0,1,3.23-1.61,7.41,7.41,0,0,1,3.66-.16,28.12,28.12,0,0,1-2.61,2.27c-.84.66-1.66,1.29-2.49,1.9a23.29,23.29,0,0,0-2.22,1.76,3.1,3.1,0,0,0-.73,1,2.51,2.51,0,0,0-.21,1.56l.59-.61a48.51,48.51,0,0,0,7-.25,43.15,43.15,0,0,0,5.65-1,14.5,14.5,0,0,0,4.9-2.22A22.32,22.32,0,0,0,278,425a24.89,24.89,0,0,0,1.19-2.5,18.81,18.81,0,0,0,.69-5.18c.11-1.75.2-3.52.4-5.25a76.92,76.92,0,0,1,1.76-9.77A50.17,50.17,0,0,1,286.3,391a84.17,84.17,0,0,1,6.22-10.16,115,115,0,0,0-5.31,10.59,57.66,57.66,0,0,0-3.42,11.2c-.47,2.52-.8,5.06-1,7.62-.1,1.12-.18,2.25-.25,3.38a312.8,312.8,0,0,0,33.86,5.59c21.48,2.29,43.63,2.35,64.74-2.68a86.22,86.22,0,0,0,8.66-2.58c0-.15-.06-.3-.08-.45-.62-3.71-.81-7.39-1.24-11-.2-1.8-.51-3.61-.79-5.43s-.56-3.63-.93-5.4a30.84,30.84,0,0,0-1.72-5.18q-1-2.59-1.83-5.21,1.08,2.54,2.25,5a31.76,31.76,0,0,1,2.07,5.16c.5,1.8.88,3.6,1.28,5.39s.8,3.59,1.12,5.43c.62,3.66,1,7.33,1.72,10.85a31,31,0,0,0,1.51,5.11,26.64,26.64,0,0,0,2.43,4.68,20.21,20.21,0,0,0,7.48,7,13.33,13.33,0,0,0,2.34.91c.8.25,1.71.44,2.57.62a44.53,44.53,0,0,0,5.29.71,51.54,51.54,0,0,0,5.7.11l.55.57a2.57,2.57,0,0,0-.21-1.56,3.42,3.42,0,0,0-.73-1,23.91,23.91,0,0,0-2.23-1.75c-.82-.61-1.64-1.24-2.48-1.9a27.06,27.06,0,0,1-2.61-2.28,7.49,7.49,0,0,1,3.65.16,10.06,10.06,0,0,1,3.24,1.62,7.05,7.05,0,0,1,2.47,3,3.59,3.59,0,0,1,.16,2.17,2.79,2.79,0,0,1-.44.92c1.2-.08,2.38-.2,3.53-.39a20.41,20.41,0,0,0,4.87-1.58,15.2,15.2,0,0,0,1.48-.83l.45.38a12.87,12.87,0,0,0-1.91-3,9.24,9.24,0,0,0-2.27-1.92c-.84-.44-1.92-.89-3-1.5a13.19,13.19,0,0,1-3.14-2.29,13.57,13.57,0,0,1,3.88.05,12.35,12.35,0,0,1,1.88.39,8.08,8.08,0,0,1,2,.78,6.54,6.54,0,0,1,2.79,3.36,5.56,5.56,0,0,1,.23,3.12,5.88,5.88,0,0,0,1.29-1.42,3.83,3.83,0,0,0,.58-1.85,2.25,2.25,0,0,0-.12-.84,1.91,1.91,0,0,0-.4-.72c-.79-.94-2.47-1.64-4.13-2.28a21.12,21.12,0,0,1-5.32-2.59,7.85,7.85,0,0,1-1.24-1.21,4.82,4.82,0,0,1-.87-1.72,9.16,9.16,0,0,1-.28-1.57c-.06-.51-.08-1-.1-1.48a111.51,111.51,0,0,1,.44-11.18c.29-3.68.68-7.35,1.13-11,.89-7.32,2-14.61,3.49-21.84.76-3.61,1.59-7.21,2.61-10.76a54.87,54.87,0,0,1,1.74-5.26,23,23,0,0,1,1.16-2.52,7.34,7.34,0,0,1,1.66-2.2,7.31,7.31,0,0,0-1.46,2.3,23.21,23.21,0,0,0-.94,2.57c-.55,1.74-1,3.52-1.4,5.31-.79,3.57-1.4,7.19-1.93,10.81-1.1,7.25-1.92,14.54-2.61,21.84q-.48,5.48-.83,10.95c-.19,3.41-.36,6.86-.24,10.19,5.42.86,11.33.44,16.68.28a155.32,155.32,0,0,0,19.15-1.45c2.36-.37,3.95,0,2.58-2.3-1.61-2.7-4-4-6.92-5-2.42-.82-9.31-1-10.72-3.45-.77-1.34.08-2,1-2.94,1.35-1.35,4-2.2,5.6-3.24q3-1.89,5.8-4.05A69.64,69.64,0,0,0,475.19,368c8.95-16.71,10.93-36.3,9.16-54.94C482.11,289.32,475.1,265.72,467.1,243.37Z"/><path fill="none"  d="M145.9,307.05c-14.61-18.27-22.84-35.2-28.29-46.41-2.72-5.61-6.1-12.56-7.49-12.56h0c-.73,1-.76,6.95,4.23,23,3.6,11.62,8.57,24.37,12.09,31a1.5,1.5,0,0,1-2.55,1.58c-3.88-5.38-10.33-13-13.66-14.58.77,5.54,13.45,29.08,27.18,39.38a1.5,1.5,0,0,1-1.77,2.42c-3.38-2.41-11.15-6.62-13.54-4.23-.31.86,2.08,5.18,11.54,12.95,7.82,6.42,16.84,12.21,23,14.74a1.5,1.5,0,0,1-.87,2.86c-5.44-1.08-10.83-.89-11.25.39.12.59,1.47,2.51,5.06,5.11,3.28,2.38,19.48,13,43.76,10.8-4.67-10.69-6.81-22.41-7.38-34.42C175.17,333,157.54,321.6,145.9,307.05Z"/><path d="M334.94,50.41a22.47,22.47,0,0,1,6.69,3.44A13.7,13.7,0,0,1,343.09,55a13.85,13.85,0,0,1,1.38,1.27l1.24,1.41a18.47,18.47,0,0,1,1.11,1.52l.55.77c.17.26.31.55.46.82.29.57.63,1.1.89,1.68l.73,1.77c.25.59.41,1.21.62,1.82a42,42,0,0,1,1.36,15.66,31.36,31.36,0,0,0,.9-16.25,23.27,23.27,0,0,0-8.93-14.07,25.33,25.33,0,0,0-16-4.75,30.33,30.33,0,0,0-8.16,1.45A20.31,20.31,0,0,0,312.1,52a25.35,25.35,0,0,1,7.55-2.43,35.1,35.1,0,0,1,7.77-.54A26.74,26.74,0,0,1,334.94,50.41Z"/><path d="M360.5,67.08c0,.77.09,1.52.06,2.29,0,1.52-.08,3.06-.23,4.64s-.34,3.18-.53,4.93a11.39,11.39,0,0,0,2.82-4.38,14.72,14.72,0,0,0,.94-5.19,15.84,15.84,0,0,0-.23-2.66,13.22,13.22,0,0,0-.79-2.55,10.45,10.45,0,0,0-3.09-4.23c.27,1.76.68,3.28.82,4.85C360.41,65.55,360.41,66.33,360.5,67.08Z"/><path d="M371.12,70.26c0,.54-.06,1.07-.08,1.6,0,.27,0,.54-.05.81l-.14.79c-.09.53-.15,1.08-.26,1.61s-.28,1.06-.41,1.6c-.07.27-.1.55-.19.81s-.19.53-.27.8l-.52,1.63c-.38,1.08-.85,2.14-1.18,3.32a25.66,25.66,0,0,0,2.48-2.62l1-1.51a8.94,8.94,0,0,0,.89-1.6c.26-.56.5-1.13.74-1.7a18.29,18.29,0,0,0,.51-1.79l.23-.91c.05-.31.07-.62.11-.93a17,17,0,0,0,.14-1.88,15.64,15.64,0,0,0-1.7-7.26,13.44,13.44,0,0,0-4.81-5.42,29.85,29.85,0,0,1,2.63,6.29A21.7,21.7,0,0,1,371.12,70.26Z"/><path d="M480.31,275.87c-6.48-25.07-15.82-49.32-26.42-72.92-5.39-12-11.13-23.86-17-35.62a264.23,264.23,0,0,0-13.36-24.4c1.45.68,3,1.37,4.5,2,9.91,4.35,17.51,6.54,22.69,6.54a11.17,11.17,0,0,0,4.63-.85,6.15,6.15,0,0,0,3.59-4.61c1.67-8.68-4.71-25-14.52-37.08-8-9.91-17-15.45-25.21-15.61h-.26c-9.77,0-20.19,10.83-25.06,16.63-1.84-1.47-3.72-2.9-5.63-4.26a47.5,47.5,0,0,0,10.46-7.6,29.61,29.61,0,0,0,7.4-11.21,20.53,20.53,0,0,0,1.2-6.74,13.82,13.82,0,0,0-1.6-6.81A6.15,6.15,0,0,0,403,70.73a4.09,4.09,0,0,0-1-.29c-.31,0-.61-.07-.93-.09a8.29,8.29,0,0,0-1.86.14,8.83,8.83,0,0,0-2.52.91c.06-.19.13-.39.18-.59a17.62,17.62,0,0,0,.56-5.11,21.08,21.08,0,0,0-.84-5.06,20.21,20.21,0,0,0-2.07-4.75,1.2,1.2,0,0,0-1-.59,1.22,1.22,0,0,0-1.24,1.21v.06a7.26,7.26,0,0,1-1.51,3.83c-.13.2-.29.4-.44.59a25.29,25.29,0,0,0-.09-4.6,16.17,16.17,0,0,0-3.24-8.33,10.53,10.53,0,0,0-3.72-3,8.27,8.27,0,0,0-2.4-.73,6.51,6.51,0,0,0-1.33,0,4.58,4.58,0,0,0-1.45.3,3.33,3.33,0,0,0-1.5,1.09,3.53,3.53,0,0,0-.65,1.69,5.52,5.52,0,0,0,0,.57c-1.52-1.19-3.09-2.32-4.71-3.36a74,74,0,0,0-10.64-5.71,77.45,77.45,0,0,0-23.25-6,88.86,88.86,0,0,0-23.94.95A83.29,83.29,0,0,0,290.48,41a91.2,91.2,0,0,0-10.42,5.9c-3.31,2.17-6.46,4.78-9.7,7.13S263.45,58.7,260,61c-4.67,3.15-9.26,6.44-13.89,9.6-2.32,1.56-4.63,3.16-7,4.47a14.54,14.54,0,0,1-1.75.83,12.66,12.66,0,0,1-1.84.46,25.16,25.16,0,0,1-4,.46,29.26,29.26,0,0,1-7.95-.92,34.26,34.26,0,0,1-3.84-1.22A27.31,27.31,0,0,1,216.18,73a1.66,1.66,0,0,0-.91-.21,1.61,1.61,0,0,0-1.49,1.73,9.76,9.76,0,0,0,.81,3.16,1.56,1.56,0,0,0-.8,1.52,14,14,0,0,0,.77,3.7c.11.31.24.62.38.92a.42.42,0,0,0-.06.25,17.9,17.9,0,0,0,.75,4,1.11,1.11,0,0,0-.38,1.19,6.19,6.19,0,0,0,1.14,2.15,15.23,15.23,0,0,0,1.49,1.6A21.66,21.66,0,0,0,220,94.75c.39.35.8.69,1.21,1a33.88,33.88,0,0,1-4.73,0h-.09a1.11,1.11,0,0,0-1.17,1.38,10.18,10.18,0,0,0,2.32,4.11,22.32,22.32,0,0,0,2.49,2.47,29.54,29.54,0,0,1-3.55-.23,1,1,0,0,0-.35,0,1.13,1.13,0,0,0-.89,1.3,12.42,12.42,0,0,0,1.62,4,21.41,21.41,0,0,0,2.48,3.32c.56.62,1.15,1.2,1.75,1.77-7.71,11.32-12.37,24.67-10.91,32.23a6.16,6.16,0,0,0,3.58,4.61,11,11,0,0,0,4.63.85c5.18,0,12.78-2.19,22.7-6.54,2.51-1.1,4.94-2.25,7.17-3.34a351.63,351.63,0,0,0-21,36,379.37,379.37,0,0,0-27.51,69.12q-5.15,17.82-8.5,36.07c-3,16.36-5.85,34.82-5.45,52.82-10.61-6.19-26.76-16.95-37.55-30.45-14.41-18-22.55-34.76-27.94-45.84-4.91-10.12-7.37-15.19-11.12-14.13a3,3,0,0,0-1.91,1.82c-2.47,5.79,5.19,29.93,11.64,45.82-3.12-3.41-6.57-6.53-9.07-6.94a2.11,2.11,0,0,0-2.42,1.29c-1.79,4.17,8.51,23.55,20.26,36.41-2.91-.84-5.83-.91-7.74,1a3.18,3.18,0,0,0-.79,3c1.16,5.82,16.67,18.71,29.11,25.91-3.23.12-6.22,1-6.74,3.58-.27,1.37.6,3,2.66,5.07,4.77,4.73,20.25,14.68,42.52,14.68a75.13,75.13,0,0,0,7.94-.42,72.87,72.87,0,0,0,3.55,6.41,53,53,0,0,0,21.65,19.67c.46.23,2,1.13,3.25,1.71-.13.05-.23.1-.31.12-1.79.63-3.6,1.17-5.38,1.82-3.43,1.25-9.09,3.22-6.81,8,1.87,3.92,8,4.81,11.7,5.39a118.06,118.06,0,0,0,20,1c1.45,0,3.45.1,5.46.05-.43,1.17-1.94,2-3.62,2.77a25.27,25.27,0,0,0-5.64,2.81,6,6,0,0,0-1.32,1.45,5.1,5.1,0,0,0-.7,2,6.35,6.35,0,0,0,.1,2,6.56,6.56,0,0,0,.68,1.79,11.21,11.21,0,0,0,5.18,4.33,22.83,22.83,0,0,0,6.06,1.85,48.77,48.77,0,0,0,12.25.07,44.71,44.71,0,0,0,6-1.12,17.23,17.23,0,0,0,5.82-2.68,24.88,24.88,0,0,0,7.82-9.69A20.45,20.45,0,0,0,282,422a25.34,25.34,0,0,0,.32-4.77l0-.51c22.41,4.87,45.49,7.76,68.45,6.85a160.1,160.1,0,0,0,32.55-4.43c2.4-.6,4.77-1.26,7.12-2a28.84,28.84,0,0,0,3.1,7.11,21.91,21.91,0,0,0,8.26,8.09,15.66,15.66,0,0,0,2.77,1.14c.95.31,1.84.51,2.78.72A48.1,48.1,0,0,0,413,435a45.77,45.77,0,0,0,11.38-.31,23.06,23.06,0,0,0,5.61-1.79,13.82,13.82,0,0,0,2.62-1.56,8.9,8.9,0,0,0,2.25-2.39,6.87,6.87,0,0,0,1-3.36,5.19,5.19,0,0,0-1.23-3.53,8.33,8.33,0,0,0-2.68-2,24.86,24.86,0,0,0-2.68-1.13,19.6,19.6,0,0,1-4.59-2.15,4.54,4.54,0,0,1-.74-.7,1.83,1.83,0,0,1-.37-.72l0-.12.83.08a142.39,142.39,0,0,0,20.86,0c5.57-.29,11.91-.22,17.3-1.84,3.77-1.13,2.9-4.86.85-7.65-3.27-4.43-9.45-5.46-14.45-6.64l-.43-.13c.93-.57,1.95-1.32,2.33-1.55a77.06,77.06,0,0,0,11.86-8.78c14-12.68,21.83-30.36,24.29-48.89C489.83,318.38,485.69,296.69,480.31,275.87,-263.65-188a15.26,15.26,0,0,1-.54-2c.09.12.16.25.25.36a15.65,15.65,0,0,0,1.48,1.66,1.12-5.62.83.39.7.28a21.59,21.59,0,0,0,3.47,1.8,33.77,33.77,0,0,0,6.35,1.78l.61.1a32.33,32.33,0,0,1-3.67.78c-1,.17-2.12.29-3.18.38a13.64,13.64,0,0,1-3.95-3.42A10.69,10.69,0,0,1,217.78,82.25,1.41,17.62a11.42,11.42,0,0,1-1.11-1.72c1.11.08,2.22.1,3.34.08,1.31,0,2.61-.14,3.92-.3,1,.52,2.08,1,3.14,1.46a78.83,78.83,0,0,0,15.57,4.54,104.79,104.79,0,0,0,16.1,1.69,101.19,101.19,0,0,0,16.22-.7c10.72-1.28,21.47-4,31.11-9.28a45.11,45.11,0,0,0,12.84-10.19,36.19,36.19,0,0,0,2.47-3.29,30.17,30.17,0,0,0,2-3.61,20.66,20.66,0,0,0,2.07-7.88.15.15,0,0,0-.13-.15.14.14,0,0,0-.17.14,22.21,22.21,0,0,1-2.74,7.39,32.65,32.65,0,0,1-4.75,6.27,47.88,47.88,0,0,1-12.71,9.17l-1.77.88-1.81.81c-1.18.57-2.43,1-3.65,1.52s-2.48.9-3.74,1.33-2.51.8-3.79,1.17c-5.09,1.45-10.28,2.63-15.53,3.61a101.89,101.89,0,0,1-15.89,1.62A76,76,0,0,1,244.23,103a62.56,62.56,0,0,1-15.15-5,42.28,42.28,0,0,1-6.8-4,23.81,23.81,0,0,1-2.93-2.52,11.19,11.19,0,0,1-1-1.24c1,.06,2,.08,3,.08a45.63,45.63,0,0,0,5.09-.34,28.58,28.58,0,0,0,9.94-3,1.44,1.44,0,0,0-.59-2.71h-.07a41.34,41.34,0,0,1-6-.81A31.28,31.28,0,0,1,224,81.78a15,15,0,0,1-4.79-3,8,8,0,0,1-1.13-1.43l.6.23a36.52,36.52,0,0,0,4.22,1.26,30.51,30.51,0,0,0,8.79.74,26.26,26.26,0,0,0,4.4-.66,15.13,15.13,0,0,0,2.21-.67,16.76,16.76,0,0,0,2-1,85.31,85.31,0,0,0,7.06-4.85c4.2-3.16,8.35-6.38,12.55-9.54a148,148,0,0,1,12.77-8.41l2.67-1.62c1.68-1,3.23-2.22,4.88-3.29a88.47,88.47,0,0,1,11.28-6.23,84.79,84.79,0,0,1,22.22-6.68,86.93,86.93,0,0,1,23.17-.69,77.49,77.49,0,0,1,22.29,6,71.47,71.47,0,0,1,10.17,5.46c1.62,1,3.2,2.14,4.72,3.32a44.45,44.45,0,0,1,4.27,3.74,1.56,1.56,0,0,0,2.42-2,14.53,14.53,0,0,1-1.66-3.26,3.79,3.79,0,0,1-.23-1.37.51.51,0,0,1,.06-.22s0,0,.15-.09a3,3,0,0,1,1.29-.09,5.65,5.65,0,0,1,1.53.45,8.1,8.1,0,0,1,2.69,2.11,13.29,13.29,0,0,1,2.74,6.8,27.73,27.73,0,0,1-.22,7.81v.06a1.32,1.32,0,0,0,2.17,1.19,22.29,22.29,0,0,0,1.89-1.87,18.37,18.37,0,0,0,1.62-2.08,13.32,13.32,0,0,0,1-1.74c.16.41.31.82.44,1.23a18.38,18.38,0,0,1,.83,4.46,16.51,16.51,0,0,1-.39,4.49A16.28,16.28,0,0,1,393,74.5a1,1,0,0,0,1.73,1.1,8.58,8.58,0,0,1,4.75-3.3,7,7,0,0,1,1.44-.15c.25,0,.49,0,.73,0a2.32,2.32,0,0,1,.59.15,4.51,4.51,0,0,1,2,1.89,12.18,12.18,0,0,1,1.54,6,19.73,19.73,0,0,1-.94,6.32,28.51,28.51,0,0,1-6.76,11,48.86,48.86,0,0,1-10.15,8,119.83,119.83,0,0,0-11.59-7.28c-16-8.79-34.33-13.58-52.61-11.59A33.33,33.33,0,0,0,325.22,83a27.44,27.44,0,0,0,1.62-8.4.16.16,0,0,0-.13-.15.15.15,0,0,0-.17.14A35.3,35.3,0,0,1,320.1,89.8a47.28,47.28,0,0,1-11.87,11.44,68.22,68.22,0,0,1-14.75,7.55,120.31,120.31,0,0,1-16,4.72,84.46,84.46,0,0,1-16.61,2.17,65.1,65.1,0,0,1-16.69-1.74,55.47,55.47,0,0,1-15.52-6.2,40.17,40.17,0,0,1-6.69-4.89A22.73,22.73,0,0,1,219.19,99.87,-1.25,5.89a35.21,35.21,0,0,0,3.56,0l1-.08c1,.75,2.11,1.44,3.2,2.09-.35.41-.69.81-1,1.23-.74.91-1.45,1.85-2.15,2.8-.48-.44-.95-.9-1.39-1.38A16.59,16.59,0,0,1,217.94,105.76,-68.39,257c-3.59-2.6-4.94-4.52-5.06-5.11.42-1.28,5.81-1.47,11.25-.39a1.5,1.5,0,0,0,.87-2.86c-6.16-2.53-15.18-8.32-23-14.74-9.46-7.77-11.85-12.09-11.54-12.95,2.39-2.39,10.16,1.82,13.54,4.23a1.5,1.5,0,0,0,1.77-2.42c-13.73-10.3-26.41-33.84-27.18-39.38,3.33,1.63,9.78,9.2,13.66,14.58a1.5,1.5,0,0,0,2.55-1.58c-3.52-6.65-8.49-19.4-12.09-31-5-16.1-5-22.07-4.23-23h0c1.39,0,4.77,6.95,7.49,12.56,5.45,11.21,13.68,28.14,28.29,46.41,11.64,14.55,29.27,26,40,32.1.57,12,2.71,23.73,7.38,34.42C169,375.75,152.83,365.15,149.55,362.77,475.19,368a69.64,69.64,0,0,1-18.8,22.19q-2.81,2.16-5.8,4.05c-1.64,1-4.25,1.89-5.6,3.24-.89.89-1.74,1.6-1,2.94,1.41,2.49,8.3,2.63,10.72,3.45,2.94,1,5.31,2.32,6.92,5,1.37,2.3-.22,1.93-2.58,2.3a155.32,155.32,0,0,1-19.15,1.45c-5.35.16-11.26.58-16.68-.28-.12-3.33.05-6.78.24-10.19q.35-5.47.83-10.95c.69-7.3,1.51-14.59,2.61-21.84.53-3.62,1.14-7.24,1.93-10.81.39-1.79.85-3.57,1.4-5.31a23.21,23.21,0,0,1,.94-2.57,7.31,7.31,0,0,1,1.46-2.3,7.34,7.34,0,0,0-1.66,2.2,23,23,0,0,0-1.16,2.52,54.87,54.87,0,0,0-1.74,5.26c-1,3.55-1.85,7.15-2.61,10.76-1.46,7.23-2.6,14.52-3.49,21.84-.45,3.66-.84,7.33-1.13,11a111.51,111.51,0,0,0-.44,11.18c0,.48,0,1,.1,1.48a9.16,9.16,0,0,0,.28,1.57,4.82,4.82,0,0,0,.87,1.72,7.85,7.85,0,0,0,1.24,1.21,21.12,21.12,0,0,0,5.32,2.59c1.66.64,3.34,1.34,4.13,2.28a1.91,1.91,0,0,1,.4.72,2.25,2.25,0,0,1,.12.84,3.83,3.83,0,0,1-.58,1.85,5.88,5.88,0,0,1-1.29,1.42,5.56,5.56,0,0,0-.23-3.12,6.54,6.54,0,0,0-2.79-3.36,8.08,8.08,0,0,0-2-.78,12.35,12.35,0,0,0-1.88-.39,13.57,13.57,0,0,0-3.88-.05,13.19,13.19,0,0,0,3.14,2.29c1.12.61,2.2,1.06,3,1.5a9.24,9.24,0,0,1,2.27,1.92,12.87,12.87,0,0,1,1.91,3l-.45-.38a15.2,15.2,0,0,1-1.48.83,20.41,20.41,0,0,1-4.87,1.58c-1.15.19-2.33.31-3.53.39a2.79,2.79,0,0,0,.44-.92,3.59,3.59,0,0,0-.16-2.17,7.05,7.05,0,0,0-2.47-3,10.06,10.06,0,0,0-3.24-1.62,7.49,7.49,0,0,0-3.65-.16,27.06,27.06,0,0,0,2.61,2.28c.84.66,1.66,1.29,2.48,1.9a23.91,23.91,0,0,1,2.23,1.75,3.42,3.42,0,0,1,.73,1,2.57,2.57,0,0,1,.21,1.56l-.55-.57a51.54,51.54,0,0,1-5.7-.11,44.53,44.53,0,0,1-5.29-.71c-.86-.18-1.77-.37-2.57-.62A13.33,13.33,0,0,1,403,430a20.21,20.21,0,0,1-7.48-7,26.64,26.64,0,0,1-2.43-4.68,31,31,0,0,1-1.51-5.11c-.76-3.52-1.1-7.19-1.72-10.85-.32-1.84-.74-3.63-1.12-5.43s-.78-3.59-1.28-5.39a31.76,31.76,0,0,0-2.07-5.16q-1.17-2.49-2.25-5,.87,2.61,1.83,5.21a30.84,30.84,0,0,1,1.72,5.18c.37,1.77.65,3.59.93,5.4s.59,3.63.79,5.43c.43,3.62.62,7.3,1.24,11,0,.15.06.3.08.45a86.22,86.22,0,0,1-8.66,2.58c-21.11,5-43.26,5-64.74,2.68a312.8,312.8,0,0,1-33.86-5.59c.07-1.13.15-2.26.25-3.38.23-2.56.56-5.1,1-7.62a57.66,57.66,0,0,1,3.42-11.2,115,115,0,0,1,5.31-10.59A84.17,84.17,0,0,0,286.3,391,50.17,50.17,0,0,0,282,402.27a76.92,76.92,0,0,0-1.76,9.77c-.2,1.73-.29,3.5-.4,5.25a18.81,18.81,0,0,1-.69,5.18A24.89,24.89,0,0,1,278,425a22.32,22.32,0,0,1-7.06,8.51,14.5,14.5,0,0,1-4.9,2.22,43.15,43.15,0,0,1-5.65,1,48.51,48.51,0,0,1-7,.25l-.59.61A2.51,2.51,0,0,1,253,436a3.1,3.1,0,0,1,.73-1,23.29,23.29,0,0,1,2.22-1.76c.83-.61,1.65-1.24,2.49-1.9a28.12,28.12,0,0,0,2.61-2.27,7.41,7.41,0,0,0-3.66.16,10.09,10.09,0,0,0-3.23,1.61,7,7,0,0,0-2.47,3,3.55,3.55,0,0,0-.16,2.18,2.91,2.91,0,0,0,.42.89c-1-.07-2-.17-3-.31a20.5,20.5,0,0,1-5.28-1.58,13.16,13.16,0,0,1-1.61-.88l-.44.37a12.58,12.58,0,0,1,1.91-3,9.22,9.22,0,0,1,2.26-1.93c.84-.44,1.93-.89,3.05-1.5a13.63,13.63,0,0,0,3.14-2.28,13.3,13.3,0,0,0-3.89,0,12.49,12.49,0,0,0-1.87.39,8.58,8.58,0,0,0-2,.78,6.52,6.52,0,0,0-2.78,3.36,5.41,5.41,0,0,0-.22,3.15,5.71,5.71,0,0,1-1.44-1.61,3.21,3.21,0,0,1-.38-1,3.1,3.1,0,0,1-.06-1,2.23,2.23,0,0,1,.94-1.53,24.75,24.75,0,0,1,5-2.44,14.62,14.62,0,0,0,2.86-1.59,7.9,7.9,0,0,0,1.34-1.26,5.83,5.83,0,0,0,1-1.73,19.5,19.5,0,0,0,.56-6.37l-.1-3c0-1.62.16-3.24.16-4.86,0,.25,0-.57,0-.32,0-1.36,0-1.61,0-3s0-2.76,0-4.14,0-2.48-.05-3.73q-.09-6-.56-11.92a105.25,105.25,0,0,0-1.55-11.85,57.37,57.37,0,0,0-3.33-11.48,23,23,0,0,0-6.91-9.6,23.74,23.74,0,0,1,6.26,9.85,56.88,56.88,0,0,1,2.72,11.44,158.51,158.51,0,0,1,1.23,23.57c0,2.75-.08,5.49-.14,8.23,0,1.28-.05,2.56-.13,3.84s-.21,2.34-.3,3.51,0,2.29,0,3.44c0,.79,0,1.59,0,2.37-.94,0-1.82,0-2.32,0a154.22,154.22,0,0,1-17.6-.24c-2.76-.22-14.45-.57-15.15-4.64-.62-3.64,11.46-4.83,13.86-6.68,4.66-3.6-6.25-6.18-8.38-7.39-30.12-17.08-31.38-57.25-28.43-87.67.88-9.14,2.27-18.22,3.91-27.25a377.39,377.39,0,0,1,52.43-133.52c1.58-2.49,3.43-4.82,5.11-7.23a69.57,69.57,0,0,0,4.85-9c-9.34,5.35-33.67,17.65-41.5,14.05a3.13,3.13,0,0,1-1.89-2.45c-1.49-7.78,4.74-23.31,13.9-34.62.45-.56.91-1.1,1.36-1.63a67.87,67.87,0,0,0,15.55,5.6,84.28,84.28,0,0,0,16.9,2.09,92.43,92.43,0,0,0,33.59-5.63,64.14,64.14,0,0,0,15.19-8.1,45.39,45.39,0,0,0,11.86-12.46c.16-.24.29-.49.44-.74a78.28,78.28,0,0,1,30.15,1.73c14.64,3.74,28.11,11.16,39.87,20.61l2.52,2c.14-.19,12.91-17.93,24.43-17.93h.21c7.34.14,15.49,5.29,22.94,14.5,9.16,11.31,15.4,26.84,13.9,34.62a3.13,3.13,0,0,1-1.89,2.45c-6.84,3.16-27.56-6.48-38.9-12.53.13.07.27.41.35.53,1.79,2.83,3.25,5.85,5.1,8.65,1.73,2.64,3.36,5.33,4.94,8.06.55,1,1.1,1.91,1.64,2.87,3.2,5.72,6.19,11.55,9.11,17.41,11.43,22.95,22.15,46.29,30.8,70.44,8,22.35,15,45.95,17.25,69.67C486.12,331.68,484.14,351.27,475.19,368Z"/>            </clipPath>        </defs>        <g clip-path="url(#outline)">            <rect fill="#3D3D3D" width="640" height="480" />        </g>    </g>    <g id="pattern">        <g clip-path="url(#outline)">            <g opacity="0.6" ><path fill="#D6BAA7"  d="M502.33,335.08a151.07,151.07,0,0,1-15.05,4.07c-13.31,2.79-28.61,6-42.28,4.92,25.63,2.13,53.69.69,82-4.21,10.57-1.83,45.11-15.55,45.11-15.55L565.4,309s-29.87,13.55-37.48,16.54C519.41,328.87,511,332.28,502.33,335.08Z"/><path fill="#D6BAA7"  d="M518.46,316.56c13.41-6.75,28.61-18.11,29.61-27.31l-5.9-7.56c-2.44,1.84-4.87,3.67-7.35,5.48-37.7,27.5-86,49.2-132.19,57.3,24-3,48.75-8.22,73.42-14.05C490.32,327.05,505.05,323.32,518.46,316.56Z"/><path fill="#D6BAA7"  d="M474.38,296.75c-10.24,10.35-26.95,18.09-42.91,25.34,28.69-4,58.29-15.41,79.89-30.87,13-9.3,30.41-21.92,21.25-28.87l-7-6.47c-6.75,7.51-15.47,17.11-26.73,22.46-10,4.73-19.62,9.28-30.21,12.88-19,6.46-35.32,16.19-55.24,19.48C435.25,312.11,452.78,304.77,474.38,296.75Z"/><path fill="#D6BAA7"  d="M142.42,284.22c34.3,4.54,68.6,18.58,102.9,23.11-30.86-14.11-63.15-25.08-102.57-34.78l-.31,1.87c-1.31,1.76-2.09,3.73-3.41,5.49-.71,1-2.52,2.44-1.22,3.42S139.61,283.85,142.42,284.22Z"/><path fill="#D6BAA7"  d="M188.84,311.91c8.17-.31,14.56-.48,22.95-.58,11.31-.13,41.44,2.69,50.88,3.22a699.71,699.71,0,0,0-73.41-9.46Z"/><path fill="#D6BAA7"  d="M188.55,324.1a209.78,209.78,0,0,0,47-4.5l3.24-1.81a187.59,187.59,0,0,1-50-.51Z"/><path fill="#D6BAA7"  d="M635.49,320.67c-4.73-3.26-13.08-3.72-21-4.05,8.36-2.43,14.49-8.37,15.79-13.59s-1.34-9.76-5-13.57l-4.51,2c-20.93,18.19-42.72,31.67-69.09,40.1a835.27,835.27,0,0,1-117.82,28.09c3.53-.57,7.3.11,10.83.32,6.93.43,14.12-.46,21.08-1,20.21-1.52,40.38-3.66,60.28-7.55A402.09,402.09,0,0,0,567.93,341c12.71-4,24.77-9.17,38.42-7.39,8,1,16.15,4.35,24.72.77C639,331,640.23,323.92,635.49,320.67Z"/><path fill="#D6BAA7"  d="M187.87,341l.84,12.5c18.26,3.26,35.21,4.72,51.71,1.6l-8.1-1C217.17,349.79,203,345.41,187.87,341Z"/><path fill="#D6BAA7"  d="M250.45,402.64c6.6-.2,14.43-.48,21-.68a117.86,117.86,0,0,1-21-4.22Z"/><path fill="#D6BAA7"  d="M250.46,415.08a8.88,8.88,0,0,0,2.54.2,45.63,45.63,0,0,0,12.71-2.34,52,52,0,0,1-15.08-2.76Z"/><path fill="#D6BAA7"  d="M422.77,399.58A88.1,88.1,0,0,1,409,400.64a10.5,10.5,0,0,0,.93.58c3.61,2.29,7,5.25,11.46,5.19,2,0,1.1-2.62,1.34-4.61Z"/><path fill="#D6BAA7"  d="M422,413.09a33.53,33.53,0,0,1-11-.73A63.4,63.4,0,0,0,418,416a8.36,8.36,0,0,0,4.13.62c.95-.3.38-1.62-.09-2.37Z"/><path fill="#D6BAA7"  d="M192.68,369.56a75.9,75.9,0,0,0,18-1.6L190.46,362Z"/></g>            <g opacity="0.6" ><path fill="#95C6C1"  d="M285,417.33c1-10.66,5.3-32.75,16.87-35.84,8.11-2.17,17.24-.57,25.51-.5s16.52-.1,24.76-.51c7.07-.36,16.84-1.51,21.65,1.37,10.43,6.23,13.81,25.56,14.56,36.62.07,1,.29-.59-1.2.13a30.14,30.14,0,0,1-6.76,2.1,172,172,0,0,1-45.93,4c-16.27-1-33.07-2.65-48-6.84"/></g>        </g>    </g>    <g id="mask">        <path fill="none"  d="M262.68,125.25c-.76.07-1.52.14-2.29.19l-.1.11-.4,0a19.53,19.53,0,0,1-.43,3.69Z"/><path opacity="0.1"  d="M339.31,405.32c-39.1-.61-54-9.37-54-9.37l-3.87,19.14c6.31,3.26,30.14,4.89,57.22,6.93S391,415.5,391,415.5l-2.86-18.74S378.41,405.93,339.31,405.32Z"/><path opacity="0.1"  d="M426.2,117.27c-4.18-1.39-7.73.64-10.07,4.09a25.3,25.3,0,0,0-2.76,5.74c-.23.65-.58,1.44-1,2.38,2.5,2.94,4.44,5.34,6.4,8.13,1.44.82,2.73,1.61,4.2,2.37q2.83,1.47,5.74,2.8c1.5.69,4.19,2.52,5.84,2.52,5.46,2.22,13.54,5.83,19.57,3.89a4.55,4.55,0,0,0,3.28-3.41C459.59,135.46,437.6,121.07,426.2,117.27Z"/><g opacity="0.1" ><path d="M484.62,335.15c.23,1.7-3.51,6.77-4.43,8.5-1.82,3.4-3.69,6.77-5.68,10.08a108.4,108.4,0,0,1-13.23,18.12,63.28,63.28,0,0,1-11.06,9.47A60.18,60.18,0,0,1,444,385a32.36,32.36,0,0,1-5.53,2.51c-4,1.16-6.15-2.21-7.32-5.52a39.64,39.64,0,0,1-2.34-17.54A117.62,117.62,0,0,1,431.32,350l-1.95,4.49c-3.06,11.13-4.58,22.56-6,34a4.63,4.63,0,0,0,.26,2.2,3,3,0,0,0-.88.73c-2.06,2.52-.69,11.1-.81,14.3a.63.63,0,0,0,.09.45c.16.19.45.14.69.08a107.14,107.14,0,0,0,24.47-9.44A67.59,67.59,0,0,0,470,377.06c3.19-4.31,7.4-9.86,9.2-14.91C482.27,353.44,485.88,344.31,484.62,335.15Z"/></g><path opacity="0.1"  d="M157.66,346.43A90.42,90.42,0,0,1,134,312c-4.34-10.86-24.44-58.65-24.44-65.3,0,0-4.34,4.48,4.08,28.1s11.4,28.1,11.4,28.1S114,287,109.6,287.37s10.32,30,26.88,42.36c0,0-13.3-9.09-15.47-4.07s21.72,24.57,35,30.14c0,0-12.21-2.85-13,1.63s21.18,20.23,52.13,17.24l-3.53-10.59S175.58,363,157.66,346.43Z"/><path opacity="0.1"  d="M269.41,115.57c-1.27.07-2.55.12-3.83.12-2.66,0-5,.86-7.65.54-9.24-1.1-16.66,1.48-24.94,5.14-11,6.82-21.48,17.09-21.32,24.41.24,11.34,30.52-2.64,41.47-8.07-6.95,10.46-22.72,36-34.48,62.1-1.18.41-12.91,34.19-12.91,34.19s-7.29,26.2-7.43,26.8c-14.66,64.62-10,89.33-4.07,110.78s32.52,32.47,32.52,32.47S213,407.69,212,411.42c-2.78,10.8,38.14,7.65,38.14,7.65l-.26-18.71s-34.21,7.88-47.51-47.79S223,236.63,246.93,175.27A191.39,191.39,0,0,1,267,136.87q3.63-5.34,7.64-10.4a71,71,0,0,0,5.07-6.77c.35-.56,3.44-6.21,1.69-5.85a86.51,86.51,0,0,1-9.24,1.4Z"/><path fill="#ffc80b"  d="M403,70.73a4.09,4.09,0,0,0-1-.29c-.31,0-.62-.07-.93-.09a7.74,7.74,0,0,0-1.86.14,8.83,8.83,0,0,0-2.52.91c.06-.19.13-.39.18-.59a17.65,17.65,0,0,0,.56-5.12,21.08,21.08,0,0,0-.84-5,20.21,20.21,0,0,0-2.07-4.75,1.2,1.2,0,0,0-1-.59,1.22,1.22,0,0,0-1.24,1.21v.06a7.26,7.26,0,0,1-1.51,3.83c-.13.2-.29.39-.44.59a25.29,25.29,0,0,0-.09-4.6,16.11,16.11,0,0,0-3.24-8.33,10.53,10.53,0,0,0-3.72-3,8.27,8.27,0,0,0-2.4-.73,6.51,6.51,0,0,0-1.33,0,4.84,4.84,0,0,0-1.45.29,3.43,3.43,0,0,0-1.5,1.1,3.53,3.53,0,0,0-.65,1.69,5.52,5.52,0,0,0,0,.57q-2.28-1.8-4.71-3.37a75.52,75.52,0,0,0-10.64-5.7,77.46,77.46,0,0,0-23.25-6l-1.48-.11s0-.08,0-.12a89.59,89.59,0,0,0-22.43,1.07,83.88,83.88,0,0,0-22.81,7.22,91.07,91.07,0,0,0-10.41,5.9A102.84,102.84,0,0,0,270.58,54l-1,.85c-3.25,1.9-6.42,3.95-9.55,6-4.67,3.16-9.26,6.44-13.89,9.6-2.32,1.56-4.64,3.17-7,4.47a16.14,16.14,0,0,1-1.75.83,12.94,12.94,0,0,1-1.84.47,24.13,24.13,0,0,1-4,.45,28.58,28.58,0,0,1-8-.92,32.11,32.11,0,0,1-3.83-1.21,28.16,28.16,0,0,1-3.58-1.67,1.45,1.45,0,0,0-.9-.21,1.57,1.57,0,0,0-1.32.89,1.54,1.54,0,0,0-.23.92v0a9.63,9.63,0,0,0,.79,3.11,1.5,1.5,0,0,0-.57.65,1.55,1.55,0,0,0-.22.93,14.45,14.45,0,0,0,.78,3.7c.11.31.24.62.38.92a.42.42,0,0,0-.06.25,17.65,17.65,0,0,0,.74,4,1.11,1.11,0,0,0-.31.46,1.12,1.12,0,0,0-.06.77,6.19,6.19,0,0,0,1.14,2.15,15.23,15.23,0,0,0,1.49,1.6A21.66,21.66,0,0,0,220,94.75c.35.31.71.61,1.08.89a32.66,32.66,0,0,1-4.54,0h-.1a1.1,1.1,0,0,0-.36,0,1.08,1.08,0,0,0-.71.59,1.06,1.06,0,0,0-.15.87,10.25,10.25,0,0,0,2.32,4.11,22.76,22.76,0,0,0,2.36,2.35,25.76,25.76,0,0,1-3.34-.23h0a1.38,1.38,0,0,0-.35,0,1.14,1.14,0,0,0-.76.57,1.11,1.11,0,0,0-.19.84,12.42,12.42,0,0,0,1.62,4c.71,1.21,3.18,2.73,4.08,3.76,1.83,2,5.44-6.27,7.68-4.76s11,5,13.64,6.15c2.34,1,5.19,1.2,7.64,1.85s1-.27,3.66,0a62.67,62.67,0,0,0,8,.43c1.28,0,2.56,0,3.83-.13l5.38-.33s-4.91.24-4.88.2c.77,0,1.53-.12,2.29-.19a82.06,82.06,0,0,0,9.24-1.4c2.05-.42,4.08-.92,6.1-1.45,8.19-2.17,11.44-2.12,18.76-6.43,2.26-1.36,5.31-3,7.41-4.63s3.95-1.8,5.79-3.69a45.85,45.85,0,0,0,5-6.14A27.62,27.62,0,0,0,324,85l-1.5,5,.17,0a5.62,5.62,0,0,1,.09-.57,19.59,19.59,0,0,1,.78-2.73c18.34-2.05,36.73,2.74,52.8,11.57a119.06,119.06,0,0,1,11.88,7.48,47.14,47.14,0,0,0,10.46-7.59,29.69,29.69,0,0,0,7.4-11.21,20.53,20.53,0,0,0,1.2-6.74,13.82,13.82,0,0,0-1.6-6.81A6.15,6.15,0,0,0,403,70.73Z"/>        <path fill="#fff" opacity="0.1"  d="M478.13,335.73c2.67-5.45,5.06-11,7.22-16.66-.16-4-.48-8.12-1-12.42C482,286.63,467.49,243,467.49,243l-6.67-17.49-15.54-36S439.78,175,436.55,168c-16.29-35-34.27-48.68-34.27-48.68l-17.15-12.24c6,6.78,32.31,49.68,42.63,70s42.63,96.66,49.69,140.92A75,75,0,0,1,478.13,335.73Z"/>    </g>    <g id="outline">        <path fill="none"  d="M216.12,85.89a15.26,15.26,0,0,0,.54,2l1.19,0a15.65,15.65,0,0,1-1.48-1.66C216.28,86.14,216.21,86,216.12,85.89Z"/><path fill="none"  d="M222.89,87.76c1.06-.09,2.13-.21,3.18-.38a32.33,32.33,0,0,0,3.67-.78l-.61-.1a33.77,33.77,0,0,1-6.35-1.78,21.59,21.59,0,0,1-3.47-1.8l-.7-.28-.83-.39a10.69,10.69,0,0,0,1.16,2.09A13.64,13.64,0,0,0,222.89,87.76Z"/><path fill="none"  d="M222.56,111.78c.7-1,1.41-1.89,2.15-2.8.34-.42.68-.82,1-1.23-1.09-.65-2.16-1.34-3.2-2.09l-1,.08a35.21,35.21,0,0,1-3.56,0,16.59,16.59,0,0,0,3.23,4.64C221.61,110.88,222.08,111.34,222.56,111.78Z"/><path fill="none"  d="M222,102.85a40.17,40.17,0,0,0,6.69,4.89,55.47,55.47,0,0,0,15.52,6.2,65.1,65.1,0,0,0,16.69,1.74,84.46,84.46,0,0,0,16.61-2.17,120.31,120.31,0,0,0,16-4.72,68.22,68.22,0,0,0,14.75-7.55A47.28,47.28,0,0,0,320.1,89.8a35.3,35.3,0,0,0,6.44-15.23h0a.15.15,0,0,1,.17-.13.16.16,0,0,1,.13.15,27.44,27.44,0,0,1-1.62,8.4,33.33,33.33,0,0,1-1.49,3.68c18.28-2,36.6,2.8,52.61,11.59a119.83,119.83,0,0,1,11.59,7.28,48.86,48.86,0,0,0,10.15-8,28.51,28.51,0,0,0,6.76-11,19.73,19.73,0,0,0,.94-6.32,12.18,12.18,0,0,0-1.54-6,4.51,4.51,0,0,0-2-1.89,2.32,2.32,0,0,0-.59-.15c-.24,0-.48,0-.73,0a7,7,0,0,0-1.44.15,8.58,8.58,0,0,0-4.75,3.3A1,1,0,0,1,393,74.5a16.28,16.28,0,0,0,1.64-4.21,16.51,16.51,0,0,0,.39-4.49,18.38,18.38,0,0,0-.83-4.46c-.13-.41-.28-.82-.44-1.23a13.32,13.32,0,0,1-1,1.74,18.37,18.37,0,0,1-1.62,2.08,22.29,22.29,0,0,1-1.89,1.87,1.32,1.32,0,0,1-2.17-1.19v-.06a27.73,27.73,0,0,0,.22-7.81,13.29,13.29,0,0,0-2.74-6.8,8.1,8.1,0,0,0-2.69-2.11,5.65,5.65,0,0,0-1.53-.45,3,3,0,0,0-1.29.09c-.13.05-.14.08-.15.09a.51.51,0,0,0-.06.22,3.79,3.79,0,0,0,.23,1.37,14.53,14.53,0,0,0,1.66,3.26,1.56,1.56,0,0,1-2.42,2h0a44.41,44.41,0,0,0-4.26-3.73c-1.52-1.18-3.1-2.27-4.72-3.32a71.47,71.47,0,0,0-10.17-5.46,77.49,77.49,0,0,0-22.29-6,86.93,86.93,0,0,0-23.17.69,84.79,84.79,0,0,0-22.22,6.68,93.82,93.82,0,0,0-16,9.45l-.86-.3a.15.15,0,0,1-.06.09c-4.79,3-9.34,6.23-13.83,9.62S251.88,69,247.37,72.36a85.31,85.31,0,0,1-7.06,4.85,16.76,16.76,0,0,1-2,1,15.13,15.13,0,0,1-2.21.67,26.26,26.26,0,0,1-4.4.66,30.51,30.51,0,0,1-8.79-.74,36.52,36.52,0,0,1-4.22-1.26l-.6-.23a8,8,0,0,0,1.13,1.43,15,15,0,0,0,4.79,3,31.28,31.28,0,0,0,5.74,1.74,41.34,41.34,0,0,0,6,.81h.07a1.44,1.44,0,0,1,.59,2.71,28.58,28.58,0,0,1-9.94,3,45.63,45.63,0,0,1-5.09.34c-1,0-2,0-3-.08a11.19,11.19,0,0,0,1,1.24,23.81,23.81,0,0,0,2.93,2.52,42.28,42.28,0,0,0,6.8,4,62.56,62.56,0,0,0,15.15,5,76,76,0,0,0,15.93,1.42,101.89,101.89,0,0,0,15.89-1.62c5.25-1,10.44-2.16,15.53-3.61,1.28-.37,2.52-.8,3.79-1.17s2.5-.87,3.74-1.33,2.47-1,3.65-1.52l1.81-.81,1.77-.88a47.88,47.88,0,0,0,12.71-9.17,32.65,32.65,0,0,0,4.75-6.27,22.21,22.21,0,0,0,2.74-7.39v0a.14.14,0,0,1,.17-.12.15.15,0,0,1,.13.15,20.66,20.66,0,0,1-2.07,7.88,30.17,30.17,0,0,1-2,3.61,36.19,36.19,0,0,1-2.47,3.29,45.11,45.11,0,0,1-12.84,10.19c-9.64,5.27-20.39,8-31.11,9.28a101.19,101.19,0,0,1-16.22.7,104.79,104.79,0,0,1-16.1-1.69,78.83,78.83,0,0,1-15.57-4.54c-1.06-.45-2.11-.94-3.14-1.46-1.31.16-2.61.27-3.92.3-1.12,0-2.23,0-3.34-.08a11.42,11.42,0,0,0,1.11,1.72A22.73,22.73,0,0,0,222,102.85ZM372.42,63a15.64,15.64,0,0,1,1.7,7.26,17,17,0,0,1-.14,1.88c0,.31-.06.62-.11.93l-.23.91a18.29,18.29,0,0,1-.51,1.79c-.24.57-.48,1.14-.74,1.7a8.94,8.94,0,0,1-.89,1.6l-1,1.51A25.66,25.66,0,0,1,368,83.23c.33-1.18.8-2.24,1.18-3.32l.52-1.63c.08-.27.17-.53.27-.8s.12-.54.19-.81c.13-.54.26-1.07.41-1.6s.17-1.08.26-1.61l.14-.79c0-.27,0-.54.05-.81,0-.53.11-1.06.08-1.6a21.7,21.7,0,0,0-.88-6.36,29.85,29.85,0,0,0-2.63-6.29A13.44,13.44,0,0,1,372.42,63Zm-9.88,1.13a13.22,13.22,0,0,1,.79,2.55,15.84,15.84,0,0,1,.23,2.66,14.72,14.72,0,0,1-.94,5.19,11.39,11.39,0,0,1-2.82,4.38c.19-1.75.39-3.35.53-4.93s.23-3.12.23-4.64c0-.77,0-1.52-.06-2.29s-.09-1.53-.23-2.3c-.14-1.57-.55-3.09-.82-4.85A10.45,10.45,0,0,1,362.54,64.16Zm-42.89-14.6A25.35,25.35,0,0,0,312.1,52a20.31,20.31,0,0,1,7.18-3.86,30.33,30.33,0,0,1,8.16-1.45,25.33,25.33,0,0,1,16,4.75,23.27,23.27,0,0,1,8.93,14.07,31.36,31.36,0,0,1-.9,16.25,42,42,0,0,0-1.36-15.66c-.21-.61-.37-1.23-.62-1.82l-.73-1.77c-.26-.58-.6-1.11-.89-1.68-.15-.27-.29-.56-.46-.82l-.55-.77a18.47,18.47,0,0,0-1.11-1.52l-1.24-1.41A13.85,13.85,0,0,0,343.09,55a13.7,13.7,0,0,0-1.46-1.18,22.47,22.47,0,0,0-6.69-3.44A26.74,26.74,0,0,0,327.42,49,35.1,35.1,0,0,0,319.65,49.56Z"/><path fill="none"  d="M467.1,243.37c-8.65-24.15-19.37-47.49-30.8-70.44-2.92-5.86-5.91-11.69-9.11-17.41-.54-1-1.09-1.91-1.64-2.87-1.58-2.73-3.21-5.42-4.94-8.06-1.85-2.8-3.31-5.82-5.1-8.65-.08-.12-.22-.46-.35-.53,11.34,6.05,32.06,15.69,38.9,12.53a3.13,3.13,0,0,0,1.89-2.45c1.5-7.78-4.74-23.31-13.9-34.62-7.45-9.21-15.6-14.36-22.94-14.5h-.21c-11.52,0-24.29,17.74-24.43,17.93l-2.52-2c-11.76-9.45-25.23-16.87-39.87-20.61A78.28,78.28,0,0,0,321.93,90c-.15.25-.28.5-.44.74a45.39,45.39,0,0,1-11.86,12.46,64.14,64.14,0,0,1-15.19,8.1A88.77,88.77,0,0,1,244,114.84a67.87,67.87,0,0,1-15.55-5.6c-.45.53-.91,1.07-1.36,1.63-9.16,11.31-15.39,26.84-13.9,34.62a3.13,3.13,0,0,0,1.89,2.45c7.83,3.6,32.16-8.7,41.5-14.05a69.57,69.57,0,0,1-4.85,9c-1.68,2.41-3.53,4.74-5.11,7.23a377.39,377.39,0,0,0-52.43,133.52c-1.64,9-3,18.11-3.91,27.25-2.95,30.42-1.69,70.59,28.43,87.67,2.13,1.21,13,3.79,8.38,7.39-2.4,1.85-14.48,3-13.86,6.68.7,4.07,12.39,4.42,15.15,4.64a154.22,154.22,0,0,0,17.6.24c.5,0,1.38,0,2.32,0,0-.78,0-1.58,0-2.37,0-1.15-.07-2.29,0-3.44s.23-2.33.3-3.51.1-2.56.13-3.84c.06-2.74.12-5.48.14-8.23a158.51,158.51,0,0,0-1.23-23.57,56.88,56.88,0,0,0-2.72-11.44,23.74,23.74,0,0,0-6.26-9.85,23,23,0,0,1,6.91,9.6,57.37,57.37,0,0,1,3.33,11.48,105.25,105.25,0,0,1,1.55,11.85q.47,6,.56,11.92c0,1.25,0,2.49.05,3.73s0,2.76,0,4.14,0,1.6,0,3c0-.25,0,.57,0,.32,0,1.62-.21,3.24-.16,4.86l.1,3a19.5,19.5,0,0,1-.56,6.37,5.83,5.83,0,0,1-1,1.73,7.9,7.9,0,0,1-1.34,1.26,14.62,14.62,0,0,1-2.86,1.59,24.75,24.75,0,0,0-5,2.44,2.23,2.23,0,0,0-.94,1.53,3.1,3.1,0,0,0,.06,1,3.21,3.21,0,0,0,.38,1,5.71,5.71,0,0,0,1.44,1.61,5.41,5.41,0,0,1,.22-3.15,6.52,6.52,0,0,1,2.78-3.36,8.58,8.58,0,0,1,2-.78,12.49,12.49,0,0,1,1.87-.39,13.3,13.3,0,0,1,3.89,0,13.63,13.63,0,0,1-3.14,2.28c-1.12.61-2.21,1.06-3.05,1.5a9.22,9.22,0,0,0-2.26,1.93,12.58,12.58,0,0,0-1.91,3l.44-.37a13.16,13.16,0,0,0,1.61.88A20.5,20.5,0,0,0,249,436.6c1,.14,2,.24,3,.31a2.91,2.91,0,0,1-.42-.89,3.55,3.55,0,0,1,.16-2.18,7,7,0,0,1,2.47-3,10.09,10.09,0,0,1,3.23-1.61,7.41,7.41,0,0,1,3.66-.16,28.12,28.12,0,0,1-2.61,2.27c-.84.66-1.66,1.29-2.49,1.9a23.29,23.29,0,0,0-2.22,1.76,3.1,3.1,0,0,0-.73,1,2.51,2.51,0,0,0-.21,1.56l.59-.61a48.51,48.51,0,0,0,7-.25,43.15,43.15,0,0,0,5.65-1,14.5,14.5,0,0,0,4.9-2.22A22.32,22.32,0,0,0,278,425a24.89,24.89,0,0,0,1.19-2.5,18.81,18.81,0,0,0,.69-5.18c.11-1.75.2-3.52.4-5.25a76.92,76.92,0,0,1,1.76-9.77A50.17,50.17,0,0,1,286.3,391a84.17,84.17,0,0,1,6.22-10.16,115,115,0,0,0-5.31,10.59,57.66,57.66,0,0,0-3.42,11.2c-.47,2.52-.8,5.06-1,7.62-.1,1.12-.18,2.25-.25,3.38a312.8,312.8,0,0,0,33.86,5.59c21.48,2.29,43.63,2.35,64.74-2.68a86.22,86.22,0,0,0,8.66-2.58c0-.15-.06-.3-.08-.45-.62-3.71-.81-7.39-1.24-11-.2-1.8-.51-3.61-.79-5.43s-.56-3.63-.93-5.4a30.84,30.84,0,0,0-1.72-5.18q-1-2.59-1.83-5.21,1.08,2.54,2.25,5a31.76,31.76,0,0,1,2.07,5.16c.5,1.8.88,3.6,1.28,5.39s.8,3.59,1.12,5.43c.62,3.66,1,7.33,1.72,10.85a31,31,0,0,0,1.51,5.11,26.64,26.64,0,0,0,2.43,4.68,20.21,20.21,0,0,0,7.48,7,13.33,13.33,0,0,0,2.34.91c.8.25,1.71.44,2.57.62a44.53,44.53,0,0,0,5.29.71,51.54,51.54,0,0,0,5.7.11l.55.57a2.57,2.57,0,0,0-.21-1.56,3.42,3.42,0,0,0-.73-1,23.91,23.91,0,0,0-2.23-1.75c-.82-.61-1.64-1.24-2.48-1.9a27.06,27.06,0,0,1-2.61-2.28,7.49,7.49,0,0,1,3.65.16,10.06,10.06,0,0,1,3.24,1.62,7.05,7.05,0,0,1,2.47,3,3.59,3.59,0,0,1,.16,2.17,2.79,2.79,0,0,1-.44.92c1.2-.08,2.38-.2,3.53-.39a20.41,20.41,0,0,0,4.87-1.58,15.2,15.2,0,0,0,1.48-.83l.45.38a12.87,12.87,0,0,0-1.91-3,9.24,9.24,0,0,0-2.27-1.92c-.84-.44-1.92-.89-3-1.5a13.19,13.19,0,0,1-3.14-2.29,13.57,13.57,0,0,1,3.88.05,12.35,12.35,0,0,1,1.88.39,8.08,8.08,0,0,1,2,.78,6.54,6.54,0,0,1,2.79,3.36,5.56,5.56,0,0,1,.23,3.12,5.88,5.88,0,0,0,1.29-1.42,3.83,3.83,0,0,0,.58-1.85,2.25,2.25,0,0,0-.12-.84,1.91,1.91,0,0,0-.4-.72c-.79-.94-2.47-1.64-4.13-2.28a21.12,21.12,0,0,1-5.32-2.59,7.85,7.85,0,0,1-1.24-1.21,4.82,4.82,0,0,1-.87-1.72,9.16,9.16,0,0,1-.28-1.57c-.06-.51-.08-1-.1-1.48a111.51,111.51,0,0,1,.44-11.18c.29-3.68.68-7.35,1.13-11,.89-7.32,2-14.61,3.49-21.84.76-3.61,1.59-7.21,2.61-10.76a54.87,54.87,0,0,1,1.74-5.26,23,23,0,0,1,1.16-2.52,7.34,7.34,0,0,1,1.66-2.2,7.31,7.31,0,0,0-1.46,2.3,23.21,23.21,0,0,0-.94,2.57c-.55,1.74-1,3.52-1.4,5.31-.79,3.57-1.4,7.19-1.93,10.81-1.1,7.25-1.92,14.54-2.61,21.84q-.48,5.48-.83,10.95c-.19,3.41-.36,6.86-.24,10.19,5.42.86,11.33.44,16.68.28a155.32,155.32,0,0,0,19.15-1.45c2.36-.37,3.95,0,2.58-2.3-1.61-2.7-4-4-6.92-5-2.42-.82-9.31-1-10.72-3.45-.77-1.34.08-2,1-2.94,1.35-1.35,4-2.2,5.6-3.24q3-1.89,5.8-4.05A69.64,69.64,0,0,0,475.19,368c8.95-16.71,10.93-36.3,9.16-54.94C482.11,289.32,475.1,265.72,467.1,243.37Z"/><path fill="none"  d="M145.9,307.05c-14.61-18.27-22.84-35.2-28.29-46.41-2.72-5.61-6.1-12.56-7.49-12.56h0c-.73,1-.76,6.95,4.23,23,3.6,11.62,8.57,24.37,12.09,31a1.5,1.5,0,0,1-2.55,1.58c-3.88-5.38-10.33-13-13.66-14.58.77,5.54,13.45,29.08,27.18,39.38a1.5,1.5,0,0,1-1.77,2.42c-3.38-2.41-11.15-6.62-13.54-4.23-.31.86,2.08,5.18,11.54,12.95,7.82,6.42,16.84,12.21,23,14.74a1.5,1.5,0,0,1-.87,2.86c-5.44-1.08-10.83-.89-11.25.39.12.59,1.47,2.51,5.06,5.11,3.28,2.38,19.48,13,43.76,10.8-4.67-10.69-6.81-22.41-7.38-34.42C175.17,333,157.54,321.6,145.9,307.05Z"/><path d="M334.94,50.41a22.47,22.47,0,0,1,6.69,3.44A13.7,13.7,0,0,1,343.09,55a13.85,13.85,0,0,1,1.38,1.27l1.24,1.41a18.47,18.47,0,0,1,1.11,1.52l.55.77c.17.26.31.55.46.82.29.57.63,1.1.89,1.68l.73,1.77c.25.59.41,1.21.62,1.82a42,42,0,0,1,1.36,15.66,31.36,31.36,0,0,0,.9-16.25,23.27,23.27,0,0,0-8.93-14.07,25.33,25.33,0,0,0-16-4.75,30.33,30.33,0,0,0-8.16,1.45A20.31,20.31,0,0,0,312.1,52a25.35,25.35,0,0,1,7.55-2.43,35.1,35.1,0,0,1,7.77-.54A26.74,26.74,0,0,1,334.94,50.41Z"/><path d="M360.5,67.08c0,.77.09,1.52.06,2.29,0,1.52-.08,3.06-.23,4.64s-.34,3.18-.53,4.93a11.39,11.39,0,0,0,2.82-4.38,14.72,14.72,0,0,0,.94-5.19,15.84,15.84,0,0,0-.23-2.66,13.22,13.22,0,0,0-.79-2.55,10.45,10.45,0,0,0-3.09-4.23c.27,1.76.68,3.28.82,4.85C360.41,65.55,360.41,66.33,360.5,67.08Z"/><path d="M371.12,70.26c0,.54-.06,1.07-.08,1.6,0,.27,0,.54-.05.81l-.14.79c-.09.53-.15,1.08-.26,1.61s-.28,1.06-.41,1.6c-.07.27-.1.55-.19.81s-.19.53-.27.8l-.52,1.63c-.38,1.08-.85,2.14-1.18,3.32a25.66,25.66,0,0,0,2.48-2.62l1-1.51a8.94,8.94,0,0,0,.89-1.6c.26-.56.5-1.13.74-1.7a18.29,18.29,0,0,0,.51-1.79l.23-.91c.05-.31.07-.62.11-.93a17,17,0,0,0,.14-1.88,15.64,15.64,0,0,0-1.7-7.26,13.44,13.44,0,0,0-4.81-5.42,29.85,29.85,0,0,1,2.63,6.29A21.7,21.7,0,0,1,371.12,70.26Z"/><path d="M480.31,275.87c-6.48-25.07-15.82-49.32-26.42-72.92-5.39-12-11.13-23.86-17-35.62a264.23,264.23,0,0,0-13.36-24.4c1.45.68,3,1.37,4.5,2,9.91,4.35,17.51,6.54,22.69,6.54a11.17,11.17,0,0,0,4.63-.85,6.15,6.15,0,0,0,3.59-4.61c1.67-8.68-4.71-25-14.52-37.08-8-9.91-17-15.45-25.21-15.61h-.26c-9.77,0-20.19,10.83-25.06,16.63-1.84-1.47-3.72-2.9-5.63-4.26a47.5,47.5,0,0,0,10.46-7.6,29.61,29.61,0,0,0,7.4-11.21,20.53,20.53,0,0,0,1.2-6.74,13.82,13.82,0,0,0-1.6-6.81A6.15,6.15,0,0,0,403,70.73a4.09,4.09,0,0,0-1-.29c-.31,0-.61-.07-.93-.09a8.29,8.29,0,0,0-1.86.14,8.83,8.83,0,0,0-2.52.91c.06-.19.13-.39.18-.59a17.62,17.62,0,0,0,.56-5.11,21.08,21.08,0,0,0-.84-5.06,20.21,20.21,0,0,0-2.07-4.75,1.2,1.2,0,0,0-1-.59,1.22,1.22,0,0,0-1.24,1.21v.06a7.26,7.26,0,0,1-1.51,3.83c-.13.2-.29.4-.44.59a25.29,25.29,0,0,0-.09-4.6,16.17,16.17,0,0,0-3.24-8.33,10.53,10.53,0,0,0-3.72-3,8.27,8.27,0,0,0-2.4-.73,6.51,6.51,0,0,0-1.33,0,4.58,4.58,0,0,0-1.45.3,3.33,3.33,0,0,0-1.5,1.09,3.53,3.53,0,0,0-.65,1.69,5.52,5.52,0,0,0,0,.57c-1.52-1.19-3.09-2.32-4.71-3.36a74,74,0,0,0-10.64-5.71,77.45,77.45,0,0,0-23.25-6,88.86,88.86,0,0,0-23.94.95A83.29,83.29,0,0,0,290.48,41a91.2,91.2,0,0,0-10.42,5.9c-3.31,2.17-6.46,4.78-9.7,7.13S263.45,58.7,260,61c-4.67,3.15-9.26,6.44-13.89,9.6-2.32,1.56-4.63,3.16-7,4.47a14.54,14.54,0,0,1-1.75.83,12.66,12.66,0,0,1-1.84.46,25.16,25.16,0,0,1-4,.46,29.26,29.26,0,0,1-7.95-.92,34.26,34.26,0,0,1-3.84-1.22A27.31,27.31,0,0,1,216.18,73a1.66,1.66,0,0,0-.91-.21,1.61,1.61,0,0,0-1.49,1.73,9.76,9.76,0,0,0,.81,3.16,1.56,1.56,0,0,0-.8,1.52,14,14,0,0,0,.77,3.7c.11.31.24.62.38.92a.42.42,0,0,0-.06.25,17.9,17.9,0,0,0,.75,4,1.11,1.11,0,0,0-.38,1.19,6.19,6.19,0,0,0,1.14,2.15,15.23,15.23,0,0,0,1.49,1.6A21.66,21.66,0,0,0,220,94.75c.39.35.8.69,1.21,1a33.88,33.88,0,0,1-4.73,0h-.09a1.11,1.11,0,0,0-1.17,1.38,10.18,10.18,0,0,0,2.32,4.11,22.32,22.32,0,0,0,2.49,2.47,29.54,29.54,0,0,1-3.55-.23,1,1,0,0,0-.35,0,1.13,1.13,0,0,0-.89,1.3,12.42,12.42,0,0,0,1.62,4,21.41,21.41,0,0,0,2.48,3.32c.56.62,1.15,1.2,1.75,1.77-7.71,11.32-12.37,24.67-10.91,32.23a6.16,6.16,0,0,0,3.58,4.61,11,11,0,0,0,4.63.85c5.18,0,12.78-2.19,22.7-6.54,2.51-1.1,4.94-2.25,7.17-3.34a351.63,351.63,0,0,0-21,36,379.37,379.37,0,0,0-27.51,69.12q-5.15,17.82-8.5,36.07c-3,16.36-5.85,34.82-5.45,52.82-10.61-6.19-26.76-16.95-37.55-30.45-14.41-18-22.55-34.76-27.94-45.84-4.91-10.12-7.37-15.19-11.12-14.13a3,3,0,0,0-1.91,1.82c-2.47,5.79,5.19,29.93,11.64,45.82-3.12-3.41-6.57-6.53-9.07-6.94a2.11,2.11,0,0,0-2.42,1.29c-1.79,4.17,8.51,23.55,20.26,36.41-2.91-.84-5.83-.91-7.74,1a3.18,3.18,0,0,0-.79,3c1.16,5.82,16.67,18.71,29.11,25.91-3.23.12-6.22,1-6.74,3.58-.27,1.37.6,3,2.66,5.07,4.77,4.73,20.25,14.68,42.52,14.68a75.13,75.13,0,0,0,7.94-.42,72.87,72.87,0,0,0,3.55,6.41,53,53,0,0,0,21.65,19.67c.46.23,2,1.13,3.25,1.71-.13.05-.23.1-.31.12-1.79.63-3.6,1.17-5.38,1.82-3.43,1.25-9.09,3.22-6.81,8,1.87,3.92,8,4.81,11.7,5.39a118.06,118.06,0,0,0,20,1c1.45,0,3.45.1,5.46.05-.43,1.17-1.94,2-3.62,2.77a25.27,25.27,0,0,0-5.64,2.81,6,6,0,0,0-1.32,1.45,5.1,5.1,0,0,0-.7,2,6.35,6.35,0,0,0,.1,2,6.56,6.56,0,0,0,.68,1.79,11.21,11.21,0,0,0,5.18,4.33,22.83,22.83,0,0,0,6.06,1.85,48.77,48.77,0,0,0,12.25.07,44.71,44.71,0,0,0,6-1.12,17.23,17.23,0,0,0,5.82-2.68,24.88,24.88,0,0,0,7.82-9.69A20.45,20.45,0,0,0,282,422a25.34,25.34,0,0,0,.32-4.77l0-.51c22.41,4.87,45.49,7.76,68.45,6.85a160.1,160.1,0,0,0,32.55-4.43c2.4-.6,4.77-1.26,7.12-2a28.84,28.84,0,0,0,3.1,7.11,21.91,21.91,0,0,0,8.26,8.09,15.66,15.66,0,0,0,2.77,1.14c.95.31,1.84.51,2.78.72A48.1,48.1,0,0,0,413,435a45.77,45.77,0,0,0,11.38-.31,23.06,23.06,0,0,0,5.61-1.79,13.82,13.82,0,0,0,2.62-1.56,8.9,8.9,0,0,0,2.25-2.39,6.87,6.87,0,0,0,1-3.36,5.19,5.19,0,0,0-1.23-3.53,8.33,8.33,0,0,0-2.68-2,24.86,24.86,0,0,0-2.68-1.13,19.6,19.6,0,0,1-4.59-2.15,4.54,4.54,0,0,1-.74-.7,1.83,1.83,0,0,1-.37-.72l0-.12.83.08a142.39,142.39,0,0,0,20.86,0c5.57-.29,11.91-.22,17.3-1.84,3.77-1.13,2.9-4.86.85-7.65-3.27-4.43-9.45-5.46-14.45-6.64l-.43-.13c.93-.57,1.95-1.32,2.33-1.55a77.06,77.06,0,0,0,11.86-8.78c14-12.68,21.83-30.36,24.29-48.89C489.83,318.38,485.69,296.69,480.31,275.87Zm-263.65-188a15.26,15.26,0,0,1-.54-2c.09.12.16.25.25.36a15.65,15.65,0,0,0,1.48,1.66Zm1.12-5.62.83.39.7.28a21.59,21.59,0,0,0,3.47,1.8,33.77,33.77,0,0,0,6.35,1.78l.61.1a32.33,32.33,0,0,1-3.67.78c-1,.17-2.12.29-3.18.38a13.64,13.64,0,0,1-3.95-3.42A10.69,10.69,0,0,1,217.78,82.25Zm1.41,17.62a11.42,11.42,0,0,1-1.11-1.72c1.11.08,2.22.1,3.34.08,1.31,0,2.61-.14,3.92-.3,1,.52,2.08,1,3.14,1.46a78.83,78.83,0,0,0,15.57,4.54,104.79,104.79,0,0,0,16.1,1.69,101.19,101.19,0,0,0,16.22-.7c10.72-1.28,21.47-4,31.11-9.28a45.11,45.11,0,0,0,12.84-10.19,36.19,36.19,0,0,0,2.47-3.29,30.17,30.17,0,0,0,2-3.61,20.66,20.66,0,0,0,2.07-7.88.15.15,0,0,0-.13-.15.14.14,0,0,0-.17.14,22.21,22.21,0,0,1-2.74,7.39,32.65,32.65,0,0,1-4.75,6.27,47.88,47.88,0,0,1-12.71,9.17l-1.77.88-1.81.81c-1.18.57-2.43,1-3.65,1.52s-2.48.9-3.74,1.33-2.51.8-3.79,1.17c-5.09,1.45-10.28,2.63-15.53,3.61a101.89,101.89,0,0,1-15.89,1.62A76,76,0,0,1,244.23,103a62.56,62.56,0,0,1-15.15-5,42.28,42.28,0,0,1-6.8-4,23.81,23.81,0,0,1-2.93-2.52,11.19,11.19,0,0,1-1-1.24c1,.06,2,.08,3,.08a45.63,45.63,0,0,0,5.09-.34,28.58,28.58,0,0,0,9.94-3,1.44,1.44,0,0,0-.59-2.71h-.07a41.34,41.34,0,0,1-6-.81A31.28,31.28,0,0,1,224,81.78a15,15,0,0,1-4.79-3,8,8,0,0,1-1.13-1.43l.6.23a36.52,36.52,0,0,0,4.22,1.26,30.51,30.51,0,0,0,8.79.74,26.26,26.26,0,0,0,4.4-.66,15.13,15.13,0,0,0,2.21-.67,16.76,16.76,0,0,0,2-1,85.31,85.31,0,0,0,7.06-4.85c4.2-3.16,8.35-6.38,12.55-9.54a148,148,0,0,1,12.77-8.41l2.67-1.62c1.68-1,3.23-2.22,4.88-3.29a88.47,88.47,0,0,1,11.28-6.23,84.79,84.79,0,0,1,22.22-6.68,86.93,86.93,0,0,1,23.17-.69,77.49,77.49,0,0,1,22.29,6,71.47,71.47,0,0,1,10.17,5.46c1.62,1,3.2,2.14,4.72,3.32a44.45,44.45,0,0,1,4.27,3.74,1.56,1.56,0,0,0,2.42-2,14.53,14.53,0,0,1-1.66-3.26,3.79,3.79,0,0,1-.23-1.37.51.51,0,0,1,.06-.22s0,0,.15-.09a3,3,0,0,1,1.29-.09,5.65,5.65,0,0,1,1.53.45,8.1,8.1,0,0,1,2.69,2.11,13.29,13.29,0,0,1,2.74,6.8,27.73,27.73,0,0,1-.22,7.81v.06a1.32,1.32,0,0,0,2.17,1.19,22.29,22.29,0,0,0,1.89-1.87,18.37,18.37,0,0,0,1.62-2.08,13.32,13.32,0,0,0,1-1.74c.16.41.31.82.44,1.23a18.38,18.38,0,0,1,.83,4.46,16.51,16.51,0,0,1-.39,4.49A16.28,16.28,0,0,1,393,74.5a1,1,0,0,0,1.73,1.1,8.58,8.58,0,0,1,4.75-3.3,7,7,0,0,1,1.44-.15c.25,0,.49,0,.73,0a2.32,2.32,0,0,1,.59.15,4.51,4.51,0,0,1,2,1.89,12.18,12.18,0,0,1,1.54,6,19.73,19.73,0,0,1-.94,6.32,28.51,28.51,0,0,1-6.76,11,48.86,48.86,0,0,1-10.15,8,119.83,119.83,0,0,0-11.59-7.28c-16-8.79-34.33-13.58-52.61-11.59A33.33,33.33,0,0,0,325.22,83a27.44,27.44,0,0,0,1.62-8.4.16.16,0,0,0-.13-.15.15.15,0,0,0-.17.14A35.3,35.3,0,0,1,320.1,89.8a47.28,47.28,0,0,1-11.87,11.44,68.22,68.22,0,0,1-14.75,7.55,120.31,120.31,0,0,1-16,4.72,84.46,84.46,0,0,1-16.61,2.17,65.1,65.1,0,0,1-16.69-1.74,55.47,55.47,0,0,1-15.52-6.2,40.17,40.17,0,0,1-6.69-4.89A22.73,22.73,0,0,1,219.19,99.87Zm-1.25,5.89a35.21,35.21,0,0,0,3.56,0l1-.08c1,.75,2.11,1.44,3.2,2.09-.35.41-.69.81-1,1.23-.74.91-1.45,1.85-2.15,2.8-.48-.44-.95-.9-1.39-1.38A16.59,16.59,0,0,1,217.94,105.76Zm-68.39,257c-3.59-2.6-4.94-4.52-5.06-5.11.42-1.28,5.81-1.47,11.25-.39a1.5,1.5,0,0,0,.87-2.86c-6.16-2.53-15.18-8.32-23-14.74-9.46-7.77-11.85-12.09-11.54-12.95,2.39-2.39,10.16,1.82,13.54,4.23a1.5,1.5,0,0,0,1.77-2.42c-13.73-10.3-26.41-33.84-27.18-39.38,3.33,1.63,9.78,9.2,13.66,14.58a1.5,1.5,0,0,0,2.55-1.58c-3.52-6.65-8.49-19.4-12.09-31-5-16.1-5-22.07-4.23-23h0c1.39,0,4.77,6.95,7.49,12.56,5.45,11.21,13.68,28.14,28.29,46.41,11.64,14.55,29.27,26,40,32.1.57,12,2.71,23.73,7.38,34.42C169,375.75,152.83,365.15,149.55,362.77ZM475.19,368a69.64,69.64,0,0,1-18.8,22.19q-2.81,2.16-5.8,4.05c-1.64,1-4.25,1.89-5.6,3.24-.89.89-1.74,1.6-1,2.94,1.41,2.49,8.3,2.63,10.72,3.45,2.94,1,5.31,2.32,6.92,5,1.37,2.3-.22,1.93-2.58,2.3a155.32,155.32,0,0,1-19.15,1.45c-5.35.16-11.26.58-16.68-.28-.12-3.33.05-6.78.24-10.19q.35-5.47.83-10.95c.69-7.3,1.51-14.59,2.61-21.84.53-3.62,1.14-7.24,1.93-10.81.39-1.79.85-3.57,1.4-5.31a23.21,23.21,0,0,1,.94-2.57,7.31,7.31,0,0,1,1.46-2.3,7.34,7.34,0,0,0-1.66,2.2,23,23,0,0,0-1.16,2.52,54.87,54.87,0,0,0-1.74,5.26c-1,3.55-1.85,7.15-2.61,10.76-1.46,7.23-2.6,14.52-3.49,21.84-.45,3.66-.84,7.33-1.13,11a111.51,111.51,0,0,0-.44,11.18c0,.48,0,1,.1,1.48a9.16,9.16,0,0,0,.28,1.57,4.82,4.82,0,0,0,.87,1.72,7.85,7.85,0,0,0,1.24,1.21,21.12,21.12,0,0,0,5.32,2.59c1.66.64,3.34,1.34,4.13,2.28a1.91,1.91,0,0,1,.4.72,2.25,2.25,0,0,1,.12.84,3.83,3.83,0,0,1-.58,1.85,5.88,5.88,0,0,1-1.29,1.42,5.56,5.56,0,0,0-.23-3.12,6.54,6.54,0,0,0-2.79-3.36,8.08,8.08,0,0,0-2-.78,12.35,12.35,0,0,0-1.88-.39,13.57,13.57,0,0,0-3.88-.05,13.19,13.19,0,0,0,3.14,2.29c1.12.61,2.2,1.06,3,1.5a9.24,9.24,0,0,1,2.27,1.92,12.87,12.87,0,0,1,1.91,3l-.45-.38a15.2,15.2,0,0,1-1.48.83,20.41,20.41,0,0,1-4.87,1.58c-1.15.19-2.33.31-3.53.39a2.79,2.79,0,0,0,.44-.92,3.59,3.59,0,0,0-.16-2.17,7.05,7.05,0,0,0-2.47-3,10.06,10.06,0,0,0-3.24-1.62,7.49,7.49,0,0,0-3.65-.16,27.06,27.06,0,0,0,2.61,2.28c.84.66,1.66,1.29,2.48,1.9a23.91,23.91,0,0,1,2.23,1.75,3.42,3.42,0,0,1,.73,1,2.57,2.57,0,0,1,.21,1.56l-.55-.57a51.54,51.54,0,0,1-5.7-.11,44.53,44.53,0,0,1-5.29-.71c-.86-.18-1.77-.37-2.57-.62A13.33,13.33,0,0,1,403,430a20.21,20.21,0,0,1-7.48-7,26.64,26.64,0,0,1-2.43-4.68,31,31,0,0,1-1.51-5.11c-.76-3.52-1.1-7.19-1.72-10.85-.32-1.84-.74-3.63-1.12-5.43s-.78-3.59-1.28-5.39a31.76,31.76,0,0,0-2.07-5.16q-1.17-2.49-2.25-5,.87,2.61,1.83,5.21a30.84,30.84,0,0,1,1.72,5.18c.37,1.77.65,3.59.93,5.4s.59,3.63.79,5.43c.43,3.62.62,7.3,1.24,11,0,.15.06.3.08.45a86.22,86.22,0,0,1-8.66,2.58c-21.11,5-43.26,5-64.74,2.68a312.8,312.8,0,0,1-33.86-5.59c.07-1.13.15-2.26.25-3.38.23-2.56.56-5.1,1-7.62a57.66,57.66,0,0,1,3.42-11.2,115,115,0,0,1,5.31-10.59A84.17,84.17,0,0,0,286.3,391,50.17,50.17,0,0,0,282,402.27a76.92,76.92,0,0,0-1.76,9.77c-.2,1.73-.29,3.5-.4,5.25a18.81,18.81,0,0,1-.69,5.18A24.89,24.89,0,0,1,278,425a22.32,22.32,0,0,1-7.06,8.51,14.5,14.5,0,0,1-4.9,2.22,43.15,43.15,0,0,1-5.65,1,48.51,48.51,0,0,1-7,.25l-.59.61A2.51,2.51,0,0,1,253,436a3.1,3.1,0,0,1,.73-1,23.29,23.29,0,0,1,2.22-1.76c.83-.61,1.65-1.24,2.49-1.9a28.12,28.12,0,0,0,2.61-2.27,7.41,7.41,0,0,0-3.66.16,10.09,10.09,0,0,0-3.23,1.61,7,7,0,0,0-2.47,3,3.55,3.55,0,0,0-.16,2.18,2.91,2.91,0,0,0,.42.89c-1-.07-2-.17-3-.31a20.5,20.5,0,0,1-5.28-1.58,13.16,13.16,0,0,1-1.61-.88l-.44.37a12.58,12.58,0,0,1,1.91-3,9.22,9.22,0,0,1,2.26-1.93c.84-.44,1.93-.89,3.05-1.5a13.63,13.63,0,0,0,3.14-2.28,13.3,13.3,0,0,0-3.89,0,12.49,12.49,0,0,0-1.87.39,8.58,8.58,0,0,0-2,.78,6.52,6.52,0,0,0-2.78,3.36,5.41,5.41,0,0,0-.22,3.15,5.71,5.71,0,0,1-1.44-1.61,3.21,3.21,0,0,1-.38-1,3.1,3.1,0,0,1-.06-1,2.23,2.23,0,0,1,.94-1.53,24.75,24.75,0,0,1,5-2.44,14.62,14.62,0,0,0,2.86-1.59,7.9,7.9,0,0,0,1.34-1.26,5.83,5.83,0,0,0,1-1.73,19.5,19.5,0,0,0,.56-6.37l-.1-3c0-1.62.16-3.24.16-4.86,0,.25,0-.57,0-.32,0-1.36,0-1.61,0-3s0-2.76,0-4.14,0-2.48-.05-3.73q-.09-6-.56-11.92a105.25,105.25,0,0,0-1.55-11.85,57.37,57.37,0,0,0-3.33-11.48,23,23,0,0,0-6.91-9.6,23.74,23.74,0,0,1,6.26,9.85,56.88,56.88,0,0,1,2.72,11.44,158.51,158.51,0,0,1,1.23,23.57c0,2.75-.08,5.49-.14,8.23,0,1.28-.05,2.56-.13,3.84s-.21,2.34-.3,3.51,0,2.29,0,3.44c0,.79,0,1.59,0,2.37-.94,0-1.82,0-2.32,0a154.22,154.22,0,0,1-17.6-.24c-2.76-.22-14.45-.57-15.15-4.64-.62-3.64,11.46-4.83,13.86-6.68,4.66-3.6-6.25-6.18-8.38-7.39-30.12-17.08-31.38-57.25-28.43-87.67.88-9.14,2.27-18.22,3.91-27.25a377.39,377.39,0,0,1,52.43-133.52c1.58-2.49,3.43-4.82,5.11-7.23a69.57,69.57,0,0,0,4.85-9c-9.34,5.35-33.67,17.65-41.5,14.05a3.13,3.13,0,0,1-1.89-2.45c-1.49-7.78,4.74-23.31,13.9-34.62.45-.56.91-1.1,1.36-1.63a67.87,67.87,0,0,0,15.55,5.6,84.28,84.28,0,0,0,16.9,2.09,92.43,92.43,0,0,0,33.59-5.63,64.14,64.14,0,0,0,15.19-8.1,45.39,45.39,0,0,0,11.86-12.46c.16-.24.29-.49.44-.74a78.28,78.28,0,0,1,30.15,1.73c14.64,3.74,28.11,11.16,39.87,20.61l2.52,2c.14-.19,12.91-17.93,24.43-17.93h.21c7.34.14,15.49,5.29,22.94,14.5,9.16,11.31,15.4,26.84,13.9,34.62a3.13,3.13,0,0,1-1.89,2.45c-6.84,3.16-27.56-6.48-38.9-12.53.13.07.27.41.35.53,1.79,2.83,3.25,5.85,5.1,8.65,1.73,2.64,3.36,5.33,4.94,8.06.55,1,1.1,1.91,1.64,2.87,3.2,5.72,6.19,11.55,9.11,17.41,11.43,22.95,22.15,46.29,30.8,70.44,8,22.35,15,45.95,17.25,69.67C486.12,331.68,484.14,351.27,475.19,368Z"/>    </g>    <g id="eye">        <g id="eye-color1">            <path fill="#3D3D3D"  d="M423,110c-10.92,0-24.13,2.06-36.44,9.45-13.21,7.93-17.16,15.15-21,22.12-2.76,5.05-5.42,9.91-11.48,14.25,10.32-3.39,24.69-9.79,36.24-21.3a79.58,79.58,0,0,1,47.61-23.27A91.28,91.28,0,0,0,423,110Z"/><path fill="#3D3D3D"  d="M291.57,138.89c-4.62-7.36-9.41-15-20.37-21.7-22.06-13.51-46-5.6-54.63-1.89,3,2,4.46,6,6.2,10.84,3.67,10.17,8.7,24.09,31.27,32.49,26.78,10,52,5,61.7,2.31C302,155.5,296.93,147.41,291.57,138.89Z"/>        </g>        <g id="eye-shape">            <path fill="none"  d="M368.14,174.13a32.24,32.24,0,0,0,14.41,8.44A33.17,33.17,0,0,1,368.14,174.13Z"/><path fill="none"  d="M410.49,123l-.14.09c.09-.06.2-.11.29-.16Z"/><path fill="none"  d="M291.57,138.88c-4.62-7.36-9.41-15-20.37-21.69-22.06-13.52-46-5.61-54.63-1.9,3,1.95,4.46,6,6.2,10.84,3.67,10.17,8.7,24.09,31.27,32.49,26.78,10,52,5,61.7,2.31C302,155.49,296.93,147.4,291.57,138.88Z"/><path fill="none"  d="M386.52,119.41c-13.21,7.93-17.16,15.15-21,22.12-2.76,5.05-5.42,9.91-11.48,14.25,10.32-3.39,24.69-9.79,36.24-21.3a79.58,79.58,0,0,1,47.61-23.27A91.28,91.28,0,0,0,423,110C412,110,398.83,112,386.52,119.41Z"/><path fill="#fff"  d="M393.72,184.24c16.32.47,31.69-6.39,41.08-18.42,7-9,9.52-19.49,6.88-28.79-6-21-19.34-18.87-19.91-18.76l-2.22.55a74.38,74.38,0,0,0-8.91,4.1c-.09,0-.2.1-.29.16a75.41,75.41,0,0,0-8.44,5.37,15.65,15.65,0,0,1,12,5.46c4.25,4.89,4.52,21.76-12.67,26.4-16,4.31-21.47-9.2-22.61-12.71-2.23,1.43-4.47,2.73-6.69,3.91a104.81,104.81,0,0,1-12.75,5.72,35.12,35.12,0,0,0,9,16.9,33.17,33.17,0,0,0,14.41,8.44A44.74,44.74,0,0,0,393.72,184.24Z"/><path fill="#fff"  d="M253,161.43c-20.13-7.48-27.21-19.53-31.12-29.18a40.24,40.24,0,0,0-3,8.34c-2.53,10.12,1.18,22.22,9.68,31.57a43.93,43.93,0,0,0,39.63,14.1c17.18-2.58,25.8-11.72,30.05-19.19-3.2.29-6.65.48-10.3.48A100,100,0,0,1,253,161.43Z"/><path d="M454.9,112.75l-7.13-2.36c-.34-.11-33.89-10.91-62.8,6.45a58.68,58.68,0,0,0-14.13,11.37,46.8,46.8,0,0,0-5.51-5.91c-1.6-1.44-3.29-2.77-5-4,.95-1.68,2-3.31,3.05-4.92,1.22-1.78,2.59-3.41,4.09-5.19a16,16,0,0,0-5.88,3.65,24.51,24.51,0,0,0-3.71,4.72,55.57,55.57,0,0,0-6.77-3.83,33.1,33.1,0,0,0-8.24-2.67l7.08,4.72,6.53,4.43a28.64,28.64,0,0,0-1.64,4.54,21.69,21.69,0,0,0-.79,6.81c1.07-2,2-4,3-6,.62-1.25,1.25-2.48,1.89-3.7,1.65,1.12,3.3,2.24,5,3.34,2.22,1.44,4.46,2.88,6.82,4.21a61.42,61.42,0,0,0-7.8,11.72c-4.09,7.48-7.63,13.93-22.64,19.2l.71,2.9a93.57,93.57,0,0,0,15.39-4c1.65,6.93,9,28.15,37.27,29l1.75,0c16.63,0,32.15-7.25,41.78-19.61,7.61-9.76,10.31-21.22,7.41-31.45-3.85-13.57-10.85-18.46-16.21-20.15a108.56,108.56,0,0,1,19.05-2.75Zm-86.76,61.38a35.12,35.12,0,0,1-9-16.9,104.81,104.81,0,0,0,12.75-5.72c2.22-1.18,4.46-2.48,6.69-3.91,1.14,3.51,6.65,17,22.61,12.71,17.19-4.64,16.92-21.51,12.67-26.4a15.65,15.65,0,0,0-12-5.46,75.41,75.41,0,0,1,8.44-5.37l.14-.09.15-.07a74.38,74.38,0,0,1,8.91-4.1l2.22-.55c.57-.11,13.94-2.27,19.91,18.76,2.64,9.3.13,19.79-6.88,28.79-9.39,12-24.76,18.89-41.08,18.42a44.74,44.74,0,0,1-11.17-1.67A32.24,32.24,0,0,1,368.14,174.13Zm22.15-39.65c-11.55,11.51-25.92,17.91-36.24,21.3,6.06-4.34,8.72-9.2,11.48-14.25,3.83-7,7.78-14.19,21-22.12C398.83,112,412,110,423,110a91.28,91.28,0,0,1,14.94,1.25A79.58,79.58,0,0,0,390.29,134.48Z"/><path d="M297.26,142.17a77,77,0,0,1,3.49-7c1.65-3,3.5-5.85,5.35-8.72l.75-1.12,6.71,5a10.29,10.29,0,0,0-2.11-4.49,17.33,17.33,0,0,0-3-3c1.11-1.65,2.23-3.3,3.34-5,1.95-2.85,3.89-5.71,5.76-8.69a55.54,55.54,0,0,0-7.6,7.26q-2,2.28-3.86,4.73a20.86,20.86,0,0,0-2.34-1.23,15.48,15.48,0,0,0-4.71-1.33,32.5,32.5,0,0,0,3.46,3.32c.64.54,1.29,1.06,1.93,1.57l-.88,1.29a53.93,53.93,0,0,0-5,9.35,34.11,34.11,0,0,0-2,7c-.83-1.27-1.65-2.58-2.49-3.91-4.81-7.65-9.78-15.56-21.35-22.65-28.9-17.72-60.71-.55-61-.38l-4.69,2.59,5.35.23c3.79.16,5.2,3.57,7.55,10.08.17.48.35,1,.53,1.46A39.93,39.93,0,0,0,216,139.86c-2.77,11.08,1.21,24.23,10.37,34.32a47.52,47.52,0,0,0,35.18,15.58,49,49,0,0,0,7.12-.53,51.43,51.43,0,0,0,14.16-4.17,57.05,57.05,0,0,0-1.6,9.64c-.06.52-.09,1-.12,1.55a23.81,23.81,0,0,0-3.4,3.7,17.8,17.8,0,0,0-2.63,4.83,49.61,49.61,0,0,0,4.33-3.21c.54-.44,1.06-.88,1.58-1.32v.43c0,2,.15,4,.28,6a55.6,55.6,0,0,0,1.2,7.36,14.87,14.87,0,0,0-2.2.2,10.18,10.18,0,0,0-3.43,1.25,14.84,14.84,0,0,0,3.41,1.1,26,26,0,0,0,3,.42c.14.48.27,1,.41,1.46a38.8,38.8,0,0,0,5.33,10.72,108.65,108.65,0,0,1-3.06-11.32c-.05-.25-.09-.5-.14-.75h1.1c1.11,0,2.21-.12,3.49-.25a7,7,0,0,0-3.08-2.07,11.19,11.19,0,0,0-2-.54c-.43-2.61-.77-5.22-1-7.85-.19-1.93-.36-3.86-.44-5.8-.07-.86-.11-1.73-.14-2.6,1.21-1,2.39-2.05,3.63-3s2.69-2.08,4.24-3.15a11.58,11.58,0,0,0-5.46,1.13,18.48,18.48,0,0,0-2.54,1.41c-.08-3.17-.11-6.36-.13-9.58a39.79,39.79,0,0,0,18.43-18.1A95.1,95.1,0,0,0,321,162.44l4.06-1.53L321,159.6C307.85,155.46,302.11,149.34,297.26,142.17Zm-29.07,44.09a43.93,43.93,0,0,1-39.63-14.1c-8.5-9.35-12.21-21.45-9.68-31.57a40.24,40.24,0,0,1,3-8.34c3.91,9.65,11,21.7,31.12,29.18a100,100,0,0,0,34.95,6.12c3.65,0,7.1-.19,10.3-.48C294,174.54,285.37,183.68,268.19,186.26ZM254,158.62c-22.57-8.4-27.6-22.32-31.27-32.49-1.74-4.81-3.21-8.89-6.2-10.84,8.67-3.71,32.57-11.62,54.63,1.9,11,6.72,15.75,14.33,20.37,21.69,5.36,8.52,10.44,16.61,24.17,22.05C306,163.6,280.82,168.59,254,158.62Z"/>        </g>        <g id="eye-color2">            <path fill="#6C29FF"  d="M406.08,168c22.15-6.31,22-25.85,18.49-33.79-2.91-6.49-7.81-10.65-14.08-11.26a77.4,77.4,0,0,0-8.58,5.46,15.65,15.65,0,0,1,12,5.46c4.25,4.9,4.52,21.76-12.67,26.41-16,4.3-21.47-9.21-22.61-12.72-2.23,1.43-4.47,2.74-6.69,3.91C373.7,156.45,382,174.88,406.08,168Z"/>        </g>    </g>    <g id="nose-mouth">        <path fill="#f25757"  d="M342.46,246.45c-.41.22-2.32-.19-2.89,0a1,1,0,0,0-.52,1,14.81,14.81,0,0,0,.4,4.35,12.51,12.51,0,0,0-2.61-3.47,3.5,3.5,0,0,0-2.79-1.15c-1.22.19-2.07,1.53-3.4,1.18a3.47,3.47,0,0,1-.36-.08,57.36,57.36,0,0,1,3.34,6,8,8,0,0,0,.83,1.91,6,6,0,0,0,1.35,1.49,5.81,5.81,0,0,0,3.73,1.3,5,5,0,0,0,3.57-1.48,5.6,5.6,0,0,0,1.51-3.64,14.85,14.85,0,0,0-.67-4.13,16,16,0,0,0-1.28-3.22Z"/><path fill="#d33d3d"  d="M334.05,247.25a3.5,3.5,0,0,1,2.79,1.15,12.51,12.51,0,0,1,2.61,3.47,14.81,14.81,0,0,1-.4-4.35,1,1,0,0,1,.52-1c.57-.23,2.48.18,2.89,0a14.9,14.9,0,0,1-4.63-3.24,8.23,8.23,0,0,1-.88-1.16,7.5,7.5,0,0,1-2,.18c-.12.23-.25.46-.39.68a13.31,13.31,0,0,1-4.54,4.35l-.26.13.49.91a.13.13,0,0,0,.07,0,3.47,3.47,0,0,0,.36.08C332,248.78,332.83,247.44,334.05,247.25Z"/><path d="M370.82,232.48a21.37,21.37,0,0,1-1.41,5.86,12.93,12.93,0,0,1-3.34,4.75c-2.9,2.59-6.88,3.57-10.8,3.78a39.61,39.61,0,0,1-6-.17,21,21,0,0,1-5.72-1.3,16.45,16.45,0,0,1-5.12-2.84,10.05,10.05,0,0,1-.73-.73c4.22-1.48,6.82-6.56,9.69-9.86,6.16-7.12,14.84-20.64,5.73-29.06-4.65-4.31-12.15-5-18.17-4.69a62.28,62.28,0,0,0-20.68,4.42c-5.23,2.66-9.45,6.53-8.45,13s7.23,11.46,11.66,15.53,10.35,10.1,16.49,11c-.06.09-.12.19-.19.28a13.25,13.25,0,0,1-4.5,3.64,22.8,22.8,0,0,1-5.53,1.92,33.16,33.16,0,0,1-5.88.72,42.27,42.27,0,0,1-6-.2,40.29,40.29,0,0,1-5.87-1,27,27,0,0,1-5.58-2,13.06,13.06,0,0,1-4.65-3.71,11.7,11.7,0,0,0,4.22,4.45,23.43,23.43,0,0,0,5.63,2.61A36.15,36.15,0,0,0,318,250.45a26.39,26.39,0,0,0,11.36-2.84c.48,1.11,1.08,2.15,1.65,3.19a36.69,36.69,0,0,1,1.93,3.8c.13.32.21.63.35,1a6.17,6.17,0,0,0,.51,1,7.1,7.1,0,0,0,1.52,1.71,6.68,6.68,0,0,0,4.25,1.54,5.77,5.77,0,0,0,4.16-1.8,6.4,6.4,0,0,0,1.68-4.18,13.74,13.74,0,0,0-.8-4.35,17.17,17.17,0,0,0-1.11-2.66,22.41,22.41,0,0,0,2.54.88,15.94,15.94,0,0,0,3.11.59,35.08,35.08,0,0,0,6.24.22,22.1,22.1,0,0,0,6.2-1.19,14.37,14.37,0,0,0,5.42-3.36,13,13,0,0,0,3.19-5.44A17.27,17.27,0,0,0,370.82,232.48Zm-26.2,21.42a5.6,5.6,0,0,1-1.51,3.64,5,5,0,0,1-3.57,1.48,5.81,5.81,0,0,1-3.73-1.3,6,6,0,0,1-1.35-1.49,8,8,0,0,1-.83-1.91,57.36,57.36,0,0,0-3.34-6,.13.13,0,0,1-.07,0l-.49-.91.26-.13a13.31,13.31,0,0,0,4.54-4.35c.14-.22.27-.45.39-.68a7.5,7.5,0,0,0,2-.18,8.23,8.23,0,0,0,.88,1.16,14.9,14.9,0,0,0,4.63,3.24l.21.1a16,16,0,0,1,1.28,3.22A14.85,14.85,0,0,1,344.62,253.9Zm-8.85-46.15a7.79,7.79,0,0,0-1.63-.54,1.32,1.32,0,0,1,0-2.53,15,15,0,0,1,8.91-.64c2,.49,4.91,1.55,4.09,4.15a5.68,5.68,0,0,1-5.3,3.6C339.45,211.52,337.81,208.83,335.77,207.75Z"/><rect fill="#563a33"  x="312.85" y="240.07" width="2.61" height="2.61" rx="1.02" ry="1.02" transform="translate(-35.24 428.13) rotate(-65.66)"/><rect fill="#563a33"  x="305.19" y="237.27" width="2.61" height="2.61" rx="1.02" ry="1.02" transform="translate(-37.12 419.64) rotate(-65.68)"/><rect fill="#563a33"  x="305.43" y="243.3" width="2.61" height="2.61" rx="1.02" ry="1.02" transform="translate(-42.42 423.51) rotate(-65.7)"/><rect fill="#563a33"  x="354.66" y="241.94" width="2.61" height="2.61" rx="1.02" ry="1.02" transform="translate(-12.2 467.59) rotate(-65.7)"/><rect fill="#563a33"  x="359.88" y="234.44" width="2.61" height="2.61" rx="1.02" ry="1.02" transform="translate(-2.37 467.82) rotate(-65.68)"/><rect fill="#563a33"  x="361.21" y="239.37" width="2.61" height="2.61" rx="1.02" ry="1.02" transform="translate(-6.17 471.78) rotate(-65.66)"/><path fill="#fff"  d="M347.14,208.19c.82-2.6-2.13-3.66-4.09-4.15a15,15,0,0,0-8.91.64,1.32,1.32,0,0,0,0,2.53,7.79,7.79,0,0,1,1.63.54c2,1.08,3.68,3.77,6.07,4A5.68,5.68,0,0,0,347.14,208.19Z"/><path d="M308.87,269.07a132,132,0,0,0,13.9,4.15c1.17.27,2.35.42,3.53.65s2.36.35,3.56.4l1.78.15,1.79.06c1.19.07,2.39,0,3.58,0s2.38-.11,3.57-.2,2.38-.24,3.56-.45a60.72,60.72,0,0,0,7-1.45,69,69,0,0,0,13.44-5.31,46,46,0,0,1-13,6.8,51.64,51.64,0,0,1-14.54,2.61,49.69,49.69,0,0,1-14.67-1.74A67.64,67.64,0,0,1,308.87,269.07Z"/><g opacity="0.1" ><path d="M338.59,282.74c10.32-.58,20.87-7.3,26-15.68-.22.65-19.13,9.52-26.87,8.94-17.2-1.29-29.27-7-28.86-6.93C308.87,269.07,321.89,283.67,338.59,282.74Z"/></g>    </g></svg>