<!--  ~ Copyright (C) 2018 Baidu, Inc. All Rights Reserved.  --><svg viewBox="0 0 640 480" xmlns="http://www.w3.org/2000/svg">    <g id="back-ground-cl">        <rect fill="none" width="640" height="480" />        <ellipse opacity="0.1" cx="331.93" cy="418.82" rx="168.39" ry="32.01"/>    </g>    <g id="body">        <defs>            <clipPath id="outline">                <path fill="none"  d="M160.05,333.15c-3.58-5.9-3.3-13-.58-19.25a13.76,13.76,0,0,1,6-6.84c2.6-1.38,4.51-.84,7.22-.85,2.4,0,5.77-.62,4.77-3.69a7.54,7.54,0,0,0-1.09-1.75,7.82,7.82,0,0,0-4.49-3.35c-4-1.16-8.86-.44-12.85.56-16.25,4.06-24.71,20.78-26.8,36.27C129.54,354,149.85,369.5,167,373.66a61.12,61.12,0,0,0,26.47.37,90.59,90.59,0,0,1-6.9-26.51C175.94,346.14,165.41,342,160.05,333.15Z"/><path fill="none"  d="M258.25,128q4.35-5.44,9.09-10.54a109.44,109.44,0,0,1,26.43-21c-11.2-9.39-22.06-19.2-33.66-28.1-5.07-3.88-10.25-8-16.07-10.68-8.33-3.89-15.54-2.62-22.11,3.8-16.17,15.79-25.3,35.47-33.63,56-2.85,7-6.35,14.31-12.63,18.91-2.66,1.94-5.92,2.67-6,6.52a8.34,8.34,0,0,0,4.11,7.15c4.63,3.09,10.49,3.83,15.93,3.59a54.82,54.82,0,0,0,28.91-10c7.45-5.2,14.53-11.57,23.54-13.92,5.08-1.32,10.34-1,15.51-1.64C257.88,128.1,258.06,128.06,258.25,128Z"/><path fill="none"  d="M376.27,98.3a120.48,120.48,0,0,1,13.07,8.34c12.85,5.91,23.72,16.66,32.35,27.83,7.08,9.18,13.26,19,20.46,28.11,4.72,6,11,10,17.61,3.92,3.42-3.14,5.67-7.4,7.62-11.55,5.46-11.58,11.08-23.16,15.88-35,1.35-3.35,3-6.57,2.76-10.22-.31-4.08-3.57-5.68-6.63-7.9-4.31-3.12-8.53-6.34-12.64-9.72A164.7,164.7,0,0,1,443,68.3c-2.69-3.35-4.83-6.44-9.61-6.48-3.43,0-7.26,1.1-10.62,1.67l-17.13,2.88c-19,3.21-42,5.42-55.86,20.29-.18.49-.36,1-.56,1.46A99.39,99.39,0,0,1,376.27,98.3Z"/><path fill="none"  d="M436.24,173c-9.43-18.92-19.18-36.8-34.42-51.77C388,107.62,371,96.63,352,91.79c-1.34-.34-2.69-.64-4-.91h0a4.74,4.74,0,0,0-.94-.18,37,37,0,0,0,2.45-7.64,35.23,35.23,0,0,1-9.73,9.85l-3.22,2.15,1.66-3.53a69.55,69.55,0,0,0,6.13-22.45c-1.63,2.48-3.29,5-5,7.38a107.76,107.76,0,0,1-9.05,11.24l-6,6.44,3.58-8.07A43.19,43.19,0,0,0,331,62.52c-1.28,4.22-2.56,8.44-3.87,12.65a86.84,86.84,0,0,1-3,8.92,21,21,0,0,1-2.42,4.23A13.38,13.38,0,0,1,318,91.67L315.85,93l.84-2.3a10,10,0,0,0-.78-8.24,31.83,31.83,0,0,1-2.15,8.68c-.09.24-.19.47-.3.71l-.76.14a77.44,77.44,0,0,0-19.41,8.11c-20,11.78-34.5,30.8-46.79,50.07a377.42,377.42,0,0,0-52.42,133.53c-1.65,9-3,18.11-3.92,27.25-2.94,30.42-1.68,70.59,28.43,87.67,2.13,1.21,13,3.79,8.39,7.39-2.4,1.85-14.49,3-13.86,6.68.69,4.07,12.39,4.42,15.14,4.63a154.25,154.25,0,0,0,17.6.25c.53,0,1.44,0,2.41,0,.15-1.73.14-3.58.16-5.42s0-3.86.06-5.79c.07-3.85.18-7.68.2-11.51A150.38,150.38,0,0,0,247.36,372a55.56,55.56,0,0,0-2.69-11.09,30.32,30.32,0,0,0-2.46-5.14,18.35,18.35,0,0,0-3.63-4.43h0a22.92,22.92,0,0,1,6.82,9.27,57.18,57.18,0,0,1,3.39,11.13,135,135,0,0,1,2.22,23.1c.11,3.87.11,7.73.1,11.57,0,1.92,0,3.83,0,5.75s.08,3.85-.07,5.9a14.63,14.63,0,0,1-.56,3.13l-.13.39c0,.14-.12.3-.18.45a6.36,6.36,0,0,1-.47.85,6.81,6.81,0,0,1-1.25,1.36A22,22,0,0,1,243,427c-1.7.71-3.31,1.6-3.6,2.6a1.92,1.92,0,0,0-.1.85,3.09,3.09,0,0,0,.06.5l.14.48a4.85,4.85,0,0,0,1.25,1.77c.12.11.27.21.4.32a5.43,5.43,0,0,1,.24-3.08,6.54,6.54,0,0,1,2.78-3.37,8.36,8.36,0,0,1,2-.77,12.23,12.23,0,0,1,1.87-.39,13.57,13.57,0,0,1,3.88-.05,13.47,13.47,0,0,1-3.14,2.29c-1.11.61-2.2,1.06-3,1.5a9.43,9.43,0,0,0-2.27,1.92,12.66,12.66,0,0,0-1.91,3l.47-.39a15.29,15.29,0,0,0,3.2,1.55,21.13,21.13,0,0,0,2.58.75,22.72,22.72,0,0,0,2.68.41l1.4.09a2.54,2.54,0,0,1-.43-.91,3.51,3.51,0,0,1,.15-2.17,7.13,7.13,0,0,1,2.47-3,10.06,10.06,0,0,1,3.24-1.62,7.37,7.37,0,0,1,3.65-.16,29.86,29.86,0,0,1-2.6,2.28c-.84.66-1.66,1.29-2.49,1.9a23.66,23.66,0,0,0-2.22,1.75,3.44,3.44,0,0,0-.74,1,2.5,2.5,0,0,0-.2,1.56l.54-.57a48.17,48.17,0,0,0,8.4-.42,36.26,36.26,0,0,0,5.41-1.12,15.05,15.05,0,0,0,4.66-2.47,20.69,20.69,0,0,0,3.79-3.86,25.49,25.49,0,0,0,2.85-4.7,12.1,12.1,0,0,0,.54-1.25c.15-.41.3-.82.42-1.28.27-.89.49-1.81.71-2.73l1.23-5.62c.81-3.76,1.61-7.53,2.58-11.28a113.26,113.26,0,0,1,3.46-11.06,48.77,48.77,0,0,1,5.15-10.35h0c-3.7,6.77-5.64,14.26-7.18,21.75-.78,3.71-1.42,7.45-2.06,11.2a311.41,311.41,0,0,0,33.1,5.42c21.48,2.29,43.63,2.36,64.74-2.67a86.22,86.22,0,0,0,8.66-2.58c0-.15-.06-.3-.08-.45-.63-3.71-.81-7.39-1.25-11-.2-1.8-.5-3.61-.78-5.43s-.56-3.63-.94-5.41a31.1,31.1,0,0,0-1.71-5.18c-.65-1.72-1.25-3.46-1.84-5.2.73,1.69,1.47,3.37,2.26,5a31.94,31.94,0,0,1,2.07,5.16c.49,1.79.87,3.59,1.27,5.39s.81,3.59,1.13,5.43c.62,3.66,1,7.32,1.72,10.85a32.65,32.65,0,0,0,1.5,5.11A27.37,27.37,0,0,0,395.5,423a20.1,20.1,0,0,0,7.48,7,12.63,12.63,0,0,0,2.34.92c.8.24,1.7.43,2.56.61a45,45,0,0,0,5.3.72,51.54,51.54,0,0,0,5.7.11l.54.56a2.54,2.54,0,0,0-.2-1.55,3.32,3.32,0,0,0-.74-1,22.12,22.12,0,0,0-2.22-1.75c-.83-.61-1.65-1.24-2.49-1.91a29.47,29.47,0,0,1-2.61-2.27,7.41,7.41,0,0,1,3.66.16,9.82,9.82,0,0,1,3.23,1.62,7.1,7.1,0,0,1,2.48,3,3.62,3.62,0,0,1,.15,2.18,2.79,2.79,0,0,1-.44.92c1.2-.09,2.39-.2,3.54-.4a20.31,20.31,0,0,0,4.86-1.57,13.17,13.17,0,0,0,1.48-.83l.46.38a12.77,12.77,0,0,0-1.91-3A9.43,9.43,0,0,0,426.4,425c-.84-.44-1.93-.89-3-1.5a13.63,13.63,0,0,1-3.13-2.29,13.57,13.57,0,0,1,3.88.05,12.23,12.23,0,0,1,1.87.39,8.36,8.36,0,0,1,2,.77,6.56,6.56,0,0,1,2.78,3.36,5.4,5.4,0,0,1,.23,3.12,5.91,5.91,0,0,0,1.3-1.41,3.82,3.82,0,0,0,.57-1.85,2.2,2.2,0,0,0-.11-.84,1.94,1.94,0,0,0-.41-.72c-.78-.95-2.46-1.64-4.13-2.28a21.47,21.47,0,0,1-5.32-2.59,7.46,7.46,0,0,1-1.23-1.22,5,5,0,0,1-.88-1.71,9.08,9.08,0,0,1-.27-1.57c-.06-.52-.09-1-.1-1.48a111.51,111.51,0,0,1,.44-11.18c.28-3.68.68-7.35,1.13-11,.89-7.33,2-14.61,3.48-21.85.76-3.61,1.6-7.2,2.61-10.75.51-1.78,1.06-3.54,1.74-5.26a21.32,21.32,0,0,1,1.17-2.52,8,8,0,0,1,1.29-1.85,4,4,0,0,1,.37-.35,7.2,7.2,0,0,0-1.46,2.3,20.74,20.74,0,0,0-.94,2.57c-.56,1.74-1,3.51-1.4,5.3-.79,3.58-1.4,7.19-1.94,10.82-1.1,7.25-1.92,14.54-2.6,21.83-.33,3.65-.61,7.31-.83,10.95-.2,3.41-.36,6.86-.25,10.19,5.42.86,11.33.45,16.69.29A155,155,0,0,0,459,411.22c2.36-.36,3.95,0,2.58-2.29-1.6-2.7-4-4-6.92-5-2.42-.82-9.31-1-10.72-3.45-.76-1.34.09-2,1-2.94,1.35-1.35,4-2.21,5.61-3.24q3-1.89,5.8-4A69.52,69.52,0,0,0,475.12,368c9-16.7,10.93-36.3,9.17-54.93C482,289.38,475,265.78,467,243.43,458.39,219.28,447.67,195.93,436.24,173Z"/><path d="M453.83,203c-5.4-12-11.14-23.86-17.05-35.62-5.06-10.06-10.07-20.08-16.63-29.27q-3.45-4.86-7.33-9.43a219.21,219.21,0,0,1,15.57,20c3.71,5.25,7.36,10.57,11.35,15.61,3,3.78,6.39,7.71,11.47,8.33,9.41,1.16,15.38-9,18.76-16.2,5.83-12.38,11.84-24.74,16.87-37.47,1.63-4.13,3.9-8.76,1.59-13.08-2.53-4.74-9-7.72-13.1-10.85a173.65,173.65,0,0,1-28.54-26.85c-3.15-3.8-6-8.57-11.3-9.31-6.08-.84-13.22,1.63-19.22,2.65-21.21,3.57-47.81,5-65,19.61.11-.61.21-1.21.3-1.82l.55-4-2,3.59a33.45,33.45,0,0,1-6.45,8.22L342.6,87a68.33,68.33,0,0,0,2.76-8.41,70.94,70.94,0,0,0,2.13-14.72l.19-5L344.91,63c-2.64,3.94-5.21,7.91-8,11.72Q335,77.39,333,79.93a45.09,45.09,0,0,0-.48-23.32l-1.33-4.54-1.29,4.53c-1.7,6-3.41,11.93-5.06,17.91a87,87,0,0,1-2.7,8.77,20.76,20.76,0,0,1-2.05,3.91h0l-1.26.2a11.2,11.2,0,0,0-2.95-7.22L314.79,79v1.58a30.72,30.72,0,0,1-1,7.86A81,81,0,0,0,296.56,95a1.62,1.62,0,0,0-.25-.28C285,85.23,274,75.35,262.37,66.34,253.49,59.5,241.31,49.1,229.16,53c-5.27,1.7-9.22,6-12.84,10a136.25,136.25,0,0,0-12.8,16.4,159.55,159.55,0,0,0-16.22,32.39,85.1,85.1,0,0,1-6.31,14,29.37,29.37,0,0,1-5.23,6.62c-2.15,2-5.18,2.79-7.14,4.83-6.34,6.62,1.61,15.05,7.81,17.47,10.12,3.95,22.32,1.59,32.15-2.15,10.51-4,18.17-12.59,28.12-17.56,6.16-3.09,12.44-3.09,19-3.72-11,14.4-20.23,30.38-28.47,46.32a380.09,380.09,0,0,0-27.51,69.12q-5.13,17.82-8.5,36.06c-3.45,19-6.77,40.77-5,61.39-13.52-2.25-28.79-9.5-25.39-24.85.72-3.22,2-6.56,4.64-8.66,4.41-3.49,8.54.65,12.92-1.44s2.51-7.49.27-10.52c-7.91-10.73-27.31-3-35,4.3-9.48,8.95-16.45,25.8-14.34,38.87,2.64,16.29,18,28.65,32.9,33.49a62.47,62.47,0,0,0,32.55,1.4,68.93,68.93,0,0,0,3.4,6.1,54.13,54.13,0,0,0,16.36,16.68,56.11,56.11,0,0,0,5.29,3c.46.22,2,1.13,3.24,1.71l-.31.12c-1.78.63-3.6,1.16-5.37,1.81-3.43,1.26-9.09,3.22-6.82,8,1.87,3.91,8,4.8,11.7,5.38a117.09,117.09,0,0,0,20,1c1.45,0,3.43.1,5.43.05a3.56,3.56,0,0,1-.29.54,3.81,3.81,0,0,1-.71.75,20.38,20.38,0,0,1-4.77,2.37,17.66,17.66,0,0,0-2.81,1.42,5.9,5.9,0,0,0-2.43,2.88,6.53,6.53,0,0,0,2.08,6.76,11.83,11.83,0,0,0,2.66,1.88,18.89,18.89,0,0,0,2.85,1.26,23.66,23.66,0,0,0,3,.83,25,25,0,0,0,3,.44,49,49,0,0,0,11.86-.34,38.78,38.78,0,0,0,5.85-1.33,17.68,17.68,0,0,0,5.43-3,25.22,25.22,0,0,0,7.16-9.66,18.6,18.6,0,0,0,1-2.89c.26-1,.46-1.93.66-2.88s.37-1.91.54-2.87c22.29,4.82,45.23,7.68,68.06,6.77a160.19,160.19,0,0,0,32.55-4.43c2.39-.6,4.77-1.27,7.12-2a28.63,28.63,0,0,0,3.1,7.11,21.81,21.81,0,0,0,8.26,8.08,15.91,15.91,0,0,0,2.76,1.15c1,.3,1.85.51,2.78.72a48.77,48.77,0,0,0,5.61.87,45.84,45.84,0,0,0,11.39-.31,23.43,23.43,0,0,0,5.6-1.79,14.28,14.28,0,0,0,2.63-1.57A9,9,0,0,0,434.8,429a6.86,6.86,0,0,0,1-3.36,5.1,5.1,0,0,0-1.23-3.53,8.34,8.34,0,0,0-2.67-2c-.91-.45-1.81-.8-2.68-1.13a19.28,19.28,0,0,1-4.6-2.14,4.11,4.11,0,0,1-.73-.71,1.76,1.76,0,0,1-.38-.71l0-.12.83.07a142.53,142.53,0,0,0,20.87,0c5.56-.3,11.91-.22,17.3-1.84,3.77-1.14,2.9-4.87.85-7.65-3.27-4.44-9.45-5.46-14.46-6.64l-.43-.13c.94-.57,1.95-1.32,2.34-1.55a76.39,76.39,0,0,0,11.85-8.79c14-12.67,21.84-30.36,24.29-48.89,2.85-21.53-1.3-43.23-6.67-64C473.77,250.85,464.43,226.61,453.83,203,405.65,66.37l17.13-2.88c3.36-.57,7.19-1.69,10.62-1.67,4.78,0,6.92,3.13,9.61,6.48a164.7,164.7,0,0,0,23.74,23.78c4.11,3.38,8.33,6.6,12.64,9.72,3.06,2.22,6.32,3.82,6.63,7.9.28,3.65-1.41,6.87-2.76,10.22-4.8,11.87-10.42,23.45-15.88,35-1.95,4.15-4.2,8.41-7.62,11.55-6.61,6.06-12.89,2-17.61-3.92-7.2-9.08-13.38-18.93-20.46-28.11-8.63-11.17-19.5-21.92-32.35-27.83a120.48,120.48,0,0,0-13.07-8.34,99.39,99.39,0,0,0-27-10.18c.2-.48.38-1,.56-1.46C363.64,71.79,386.63,69.58,405.65,66.37,242.17,129.76c-9,2.35-16.09,8.72-23.54,13.92a54.82,54.82,0,0,1-28.91,10c-5.44.24-11.3-.5-15.93-3.59a8.34,8.34,0,0,1-4.11-7.15c.07-3.85,3.33-4.58,6-6.52,6.28-4.6,9.78-11.89,12.63-18.91,8.33-20.57,17.46-40.25,33.63-56,6.57-6.42,13.78-7.69,22.11-3.8,5.82,2.72,11,6.8,16.07,10.68,11.6,8.9,22.46,18.71,33.66,28.1a109.44,109.44,0,0,0-26.43,21q-4.75,5.08-9.09,10.54c-.19,0-.37.07-.57.09C252.51,128.74,247.25,128.44,242.17,129.76,167,373.66c-17.1-4.16-37.41-19.67-34.73-39.41C134.31,318.76,142.77,302,159,298c4-1,8.82-1.72,12.85-.56a7.82,7.82,0,0,1,4.49,3.35,7.54,7.54,0,0,1,1.09,1.75c1,3.07-2.37,3.67-4.77,3.69-2.71,0-4.62-.53-7.22.85a13.76,13.76,0,0,0-6,6.84c-2.72,6.2-3,13.35.58,19.25,5.36,8.84,15.89,13,26.47,14.37a90.59,90.59,0,0,0,6.9,26.51A61.12,61.12,0,0,1,167,373.66,475.12,368a69.52,69.52,0,0,1-18.79,22.2q-2.81,2.16-5.8,4c-1.64,1-4.26,1.89-5.61,3.24-.88.89-1.73,1.6-1,2.94,1.41,2.48,8.3,2.63,10.72,3.45,2.94,1,5.32,2.32,6.92,5,1.37,2.3-.22,1.93-2.58,2.29a155,155,0,0,1-19.14,1.46c-5.36.16-11.27.57-16.69-.29-.11-3.33.05-6.78.25-10.19.22-3.64.5-7.3.83-10.95.68-7.29,1.5-14.58,2.6-21.83.54-3.63,1.15-7.24,1.94-10.82.39-1.79.84-3.56,1.4-5.3a20.74,20.74,0,0,1,.94-2.57,7.2,7.2,0,0,1,1.46-2.3,4,4,0,0,0-.37.35,8,8,0,0,0-1.29,1.85,21.32,21.32,0,0,0-1.17,2.52c-.68,1.72-1.23,3.48-1.74,5.26-1,3.55-1.85,7.14-2.61,10.75-1.45,7.24-2.59,14.52-3.48,21.85-.45,3.66-.85,7.33-1.13,11a111.51,111.51,0,0,0-.44,11.18c0,.47,0,1,.1,1.48a9.08,9.08,0,0,0,.27,1.57,5,5,0,0,0,.88,1.71,7.46,7.46,0,0,0,1.23,1.22,21.47,21.47,0,0,0,5.32,2.59c1.67.64,3.35,1.33,4.13,2.28a1.94,1.94,0,0,1,.41.72,2.2,2.2,0,0,1,.11.84,3.82,3.82,0,0,1-.57,1.85,5.91,5.91,0,0,1-1.3,1.41,5.4,5.4,0,0,0-.23-3.12,6.56,6.56,0,0,0-2.78-3.36,8.36,8.36,0,0,0-2-.77,12.23,12.23,0,0,0-1.87-.39,13.57,13.57,0,0,0-3.88-.05,13.63,13.63,0,0,0,3.13,2.29c1.12.61,2.21,1.06,3,1.5a9.43,9.43,0,0,1,2.27,1.92,12.77,12.77,0,0,1,1.91,3l-.46-.38a13.17,13.17,0,0,1-1.48.83,20.31,20.31,0,0,1-4.86,1.57c-1.15.2-2.34.31-3.54.4a2.79,2.79,0,0,0,.44-.92,3.62,3.62,0,0,0-.15-2.18,7.1,7.1,0,0,0-2.48-3,9.82,9.82,0,0,0-3.23-1.62,7.41,7.41,0,0,0-3.66-.16,29.47,29.47,0,0,0,2.61,2.27c.84.67,1.66,1.3,2.49,1.91a22.12,22.12,0,0,1,2.22,1.75,3.32,3.32,0,0,1,.74,1,2.54,2.54,0,0,1,.2,1.55l-.54-.56a51.54,51.54,0,0,1-5.7-.11,45,45,0,0,1-5.3-.72c-.86-.18-1.76-.37-2.56-.61A12.63,12.63,0,0,1,403,430a20.1,20.1,0,0,1-7.48-7,27.37,27.37,0,0,1-2.44-4.68,32.65,32.65,0,0,1-1.5-5.11c-.76-3.53-1.1-7.19-1.72-10.85-.32-1.84-.74-3.63-1.13-5.43s-.78-3.6-1.27-5.39a31.94,31.94,0,0,0-2.07-5.16c-.79-1.66-1.53-3.34-2.26-5,.59,1.74,1.19,3.48,1.84,5.2a31.1,31.1,0,0,1,1.71,5.18c.38,1.78.65,3.6.94,5.41s.58,3.63.78,5.43c.44,3.62.62,7.3,1.25,11,0,.15.05.3.08.45a86.22,86.22,0,0,1-8.66,2.58c-21.11,5-43.26,5-64.74,2.67a311.41,311.41,0,0,1-33.1-5.42c.64-3.75,1.28-7.49,2.06-11.2,1.54-7.49,3.48-15,7.18-21.75h0a48.77,48.77,0,0,0-5.15,10.35,113.26,113.26,0,0,0-3.46,11.06c-1,3.75-1.77,7.52-2.58,11.28L280,419.24c-.22.92-.44,1.84-.71,2.73-.12.46-.27.87-.42,1.28a12.1,12.1,0,0,1-.54,1.25,25.49,25.49,0,0,1-2.85,4.7,20.69,20.69,0,0,1-3.79,3.86,15.05,15.05,0,0,1-4.66,2.47,36.26,36.26,0,0,1-5.41,1.12,48.17,48.17,0,0,1-8.4.42l-.54.57a2.5,2.5,0,0,1,.2-1.56,3.44,3.44,0,0,1,.74-1,23.66,23.66,0,0,1,2.22-1.75c.83-.61,1.65-1.24,2.49-1.9a29.86,29.86,0,0,0,2.6-2.28,7.37,7.37,0,0,0-3.65.16,10.06,10.06,0,0,0-3.24,1.62,7.13,7.13,0,0,0-2.47,3,3.51,3.51,0,0,0-.15,2.17,2.54,2.54,0,0,0,.43.91l-1.4-.09a22.72,22.72,0,0,1-2.68-.41,21.13,21.13,0,0,1-2.58-.75,15.29,15.29,0,0,1-3.2-1.55l-.47.39a12.66,12.66,0,0,1,1.91-3,9.43,9.43,0,0,1,2.27-1.92c.84-.44,1.93-.89,3-1.5a13.47,13.47,0,0,0,3.14-2.29,13.57,13.57,0,0,0-3.88.05,12.23,12.23,0,0,0-1.87.39,8.36,8.36,0,0,0-2,.77,6.54,6.54,0,0,0-2.78,3.37,5.43,5.43,0,0,0-.24,3.08c-.13-.11-.28-.21-.4-.32a4.85,4.85,0,0,1-1.25-1.77l-.14-.48a3.09,3.09,0,0,1-.06-.5,1.92,1.92,0,0,1,.1-.85c.29-1,1.9-1.89,3.6-2.6a22,22,0,0,0,5.47-2.83,6.81,6.81,0,0,0,1.25-1.36,6.36,6.36,0,0,0,.47-.85c.06-.15.13-.31.18-.45l.13-.39a14.63,14.63,0,0,0,.56-3.13c.15-2.05.09-4,.07-5.9s0-3.83,0-5.75c0-3.84,0-7.7-.1-11.57a135,135,0,0,0-2.22-23.1,57.18,57.18,0,0,0-3.39-11.13,22.92,22.92,0,0,0-6.82-9.27h0a18.35,18.35,0,0,1,3.63,4.43,30.32,30.32,0,0,1,2.46,5.14A55.56,55.56,0,0,1,247.36,372a150.38,150.38,0,0,1,1.33,22.87c0,3.83-.13,7.66-.2,11.51,0,1.93-.06,3.87-.06,5.79s0,3.69-.16,5.42c-1,0-1.88,0-2.41,0a154.25,154.25,0,0,1-17.6-.25c-2.75-.21-14.45-.56-15.14-4.63-.63-3.64,11.46-4.83,13.86-6.68,4.66-3.6-6.26-6.18-8.39-7.39-30.11-17.08-31.37-57.25-28.43-87.67.89-9.14,2.27-18.22,3.92-27.25A377.42,377.42,0,0,1,246.5,150.12c12.29-19.27,26.78-38.29,46.79-50.07a77.44,77.44,0,0,1,19.41-8.11l.76-.14c.11-.24.21-.47.3-.71a31.83,31.83,0,0,0,2.15-8.68,10,10,0,0,1,.78,8.24l-.84,2.3L318,91.67a13.38,13.38,0,0,0,3.68-3.35,21,21,0,0,0,2.42-4.23,86.84,86.84,0,0,0,3-8.92c1.31-4.21,2.59-8.43,3.87-12.65a43.19,43.19,0,0,1-3.17,23.55l-3.58,8.07,6-6.44a107.76,107.76,0,0,0,9.05-11.24c1.73-2.43,3.39-4.9,5-7.38a69.55,69.55,0,0,1-6.13,22.45l-1.66,3.53,3.22-2.15a35.23,35.23,0,0,0,9.73-9.85,37,37,0,0,1-2.45,7.64,4.74,4.74,0,0,1,.94.18h0c1.34.27,2.69.57,4,.91,18.94,4.84,36,15.83,49.8,29.43,15.24,15,25,32.85,34.42,51.77,11.43,22.94,22.15,46.29,30.8,70.44,8,22.35,15,45.95,17.25,69.67C486.05,331.73,484.08,351.33,475.12,368Z"/>            </clipPath>        </defs>        <g clip-path="url(#outline)">            <rect fill="#B4D2F4" width="640" height="480" />        </g>    </g>    <g id="pattern">        <g clip-path="url(#outline)">            <path fill="#435055"  d="M213.89,348.69c-.53,1.67-.95,3.36-1.63,5s-1.29,3.68-.61,5.6A10.12,10.12,0,0,0,214.5,363a35,35,0,0,0,3.59,2.9,3.46,3.46,0,0,0,2.28.82,2.62,2.62,0,0,0,1.24-.6,20.67,20.67,0,0,0,6-7.67,10,10,0,0,0,1.29-6.31c-.63-3.15-3.6-4.52-6.87-5.52a14.84,14.84,0,0,0-3.71-.76c-2-.09-4.42.84-4.37,2.76"/><path fill="#435055"  d="M190,328.09a38.75,38.75,0,0,1,9.5,3.45,7.68,7.68,0,0,1,2.95,2.29,8.54,8.54,0,0,1,1.08,4.33c.31,4.75.59,9.73-1.42,14S196,359.75,191.55,358c-1.59-.63-2.08-1.69-2.12-3.35-.2-8.28-1.39-16.55-1.58-24.83A2.07,2.07,0,0,1,190,328.09Z"/><path fill="#435055"  d="M189.82,298.42a19.21,19.21,0,0,0,1.88,1.21,5.34,5.34,0,0,0,2.38.53,3.92,3.92,0,0,0,3.33-3.36,7.64,7.64,0,0,0-1.11-4.9,1.64,1.64,0,0,0-1-.92,2.38,2.38,0,0,0-1.43.47,5.17,5.17,0,0,1-2.38.37Z"/><path fill="#435055"  d="M193.84,319.82a4,4,0,0,0,2.39,2.33,7,7,0,0,0,4.11.17,16,16,0,0,0,7.69-4c1.6-1.5,5.43-3.41,5.19-6a6.18,6.18,0,0,0-.59-1.87,20.12,20.12,0,0,0-2.11-4c-3.39-4.54-12.4-2.81-15,1.88C194.1,310.87,192.76,317,193.84,319.82Z"/><path fill="#435055"  d="M210.51,327.79c2.29,2.29,4.56,5.58,7.78,1.92,2.19-2.57,1.14-6.9-1.59-8.89a4.76,4.76,0,0,0-2.36-1c-1.89-.16-7.28,3.59-6.24,5.88a2.48,2.48,0,0,0,1,.88A10.33,10.33,0,0,1,210.51,327.79Z"/><path fill="#435055"  d="M239.31,340.06c1.52.27,2.92-.47,3-3a4,4,0,0,0-2.7-3.83,3.48,3.48,0,0,0-4.07,1.5C234.41,336.93,237,339.65,239.31,340.06Z"/><path fill="#435055"  d="M487.06,304.49a7.82,7.82,0,0,0-3.56-1.5l-1.31.3c-3.43,1.39-7.61,3.15-10.49,5.52s-2.64,4.2-1.39,7.77c1.85,5.28,10.41,8.66,14.81,11.53a2.53,2.53,0,0,0,1.3.51,2.26,2.26,0,0,0,1-.3l1.78-.89Z"/><path fill="#435055"  d="M476.15,354.32a4.53,4.53,0,0,0-.46-.56,7.18,7.18,0,0,1,4-12.06c1.63-.26,5.15-.16,5.93,1.65a2.31,2.31,0,0,1,.15,1.08,32.8,32.8,0,0,1-1.46,6.75c-.65,2.4-1.41,4.78-2.27,7.11a3.4,3.4,0,0,1-.85,1.46c-1,.84-2.63.25-3.33-.84C476.76,357.24,477.22,355.83,476.15,354.32Z"/><path fill="#435055"  d="M466.27,361.93c-7.26-2.1-15.92-2.66-20.13,4.41A19.91,19.91,0,0,0,444,377.1a7.54,7.54,0,0,0,2.07,4.85c1.95,1.86,4.93,2.09,7.26,3.44,1.64,1,3.1,2.75,5,3.07,2.35.39,4.31-1.34,5.88-2.84,3-2.81,5.95-5.66,8.05-9.16,1.47-2.46,2.87-5.61,2.83-8.53a3.94,3.94,0,0,0-1.06-2.81,6.15,6.15,0,0,0-1.91-1.1A57.68,57.68,0,0,0,466.27,361.93Z"/><path fill="#435055"  d="M198.8,368l.07,0a9.1,9.1,0,0,1,5.28-.22c4.22.93,7.26,3.47,10.53,5.69,4,2.71,7.95,5.44,11.92,8.15,1.38.95,2.88,2.13,2.69,3.86a6.1,6.1,0,0,1-.88,2.17c-2.06,3.51-3.83,6.7-7,9.51-1.15,1-2.6,2-4,1.91a4,4,0,0,1-2.25-1.26C207.83,391,201,387.48,197,374.56,196.19,372.11,195.79,369.23,198.8,368Z"/><path fill="#435055"  d="M445.88,322.47a2.26,2.26,0,0,0,.11,3,4,4,0,0,0,4,.3,2.41,2.41,0,0,0,.85-1c.4-.92-.36-3.08-1.12-3.74C448.5,320,446.61,321.47,445.88,322.47Z"/><path fill="#435055"  d="M440.23,349.41a6.56,6.56,0,0,1-.8,1.81,8.44,8.44,0,0,0-1.54,2.84c-.25,1.16-.29,2.86.65,3.76s3.57.5,4.56-.39a3.85,3.85,0,0,0,1-2.44c.3-2.16,2.1-4.58.07-6.41a6.17,6.17,0,0,0-2.48-1.24c-.33-.1-.73-.17-1,.08a1,1,0,0,0-.19.46C440.46,348.42,440.36,348.93,440.23,349.41Z"/><path fill="#435055"  d="M452,344.2c0,.3.08.56.09.72.07.95.08,1.89.1,2.84,0,1.37-.35,2.41,1.11,3.13,2.21,1.09,5,3.12,7.5,3.26a3.65,3.65,0,0,0,2.72-6.3,7.12,7.12,0,0,0-1.76-1.12l-8.62-4.42a1.06,1.06,0,0,0-.45-.16C451.76,342.09,451.85,343.31,452,344.2Z"/><path fill="#435055"  d="M463,326.14a19.2,19.2,0,0,0-2.81,4.5c-.64,1.36-1.2,3-.46,4.3,1.1,1.93,6.34,3.33,8.42,3.5a1.65,1.65,0,0,0,1.75-1,3.23,3.23,0,0,0,0-1.2,13.52,13.52,0,0,1,.58-4.06c.47-2.23-.76-5.89-2.68-7.18S464.35,324.66,463,326.14Z"/><path fill="#435055"  d="M158.11,362.28a4.55,4.55,0,0,0,.23,6c1.51,1.59,6.21,1.84,8,.61a4.91,4.91,0,0,0,1.7-2.05c.82-1.86-.72-6.23-2.26-7.55C163.4,357.25,159.59,360.27,158.11,362.28Z"/><path fill="#435055"  d="M128.85,357.35a8.64,8.64,0,0,1-.92,2.34c-2.1,3.92-5.09,6.81-3.87,11.62,1.07,4.25,4.72,5.79,8.37,3.2a11.33,11.33,0,0,0,3.82-5.54c.76-2.15,1.15-4.41,1.74-6.61a7.51,7.51,0,0,0-2.38-7.91c-1.12-.85-3.14-1.69-4.58-1.3C129,353.72,129.32,355.48,128.85,357.35Z"/><path fill="#435055"  d="M170.83,400.19c.61-.28,1.14-.54,1.47-.67,3.13-1.19,6.32-2.14,9.49-3.2a2.61,2.61,0,0,0,2.24-2.65L186,381.59a16.1,16.1,0,0,0,.16-6.48,8.08,8.08,0,0,0-15.08-1.65,15.81,15.81,0,0,0-1.23,4.45L166.08,399a2.71,2.71,0,0,0,0,1.06C166.5,402,169,401,170.83,400.19Z"/><path fill="#435055"  d="M146.88,354.16a5.64,5.64,0,0,0,4.63,3.24,13.82,13.82,0,0,0,7.15-1.36c3.7-1.64,9.71-5.82,11.5-9.65s-3.77-10.75-7.27-11.75c-4.15-1.18-11.88,1.56-14,5.5a21.29,21.29,0,0,0-1.52,5.6,28.75,28.75,0,0,0-1.06,5.7A6.3,6.3,0,0,0,146.88,354.16Z"/><path fill="#435055"  d="M119.2,320.49a39.86,39.86,0,0,0-3.75,11.8,7.76,7.76,0,0,0,1.13,5.37c1.91,2.53,5.94,1.63,8.22.07,2-1.37,3-3.79,3.58-6.14.71-2.83,2.64-6.75,1.84-9.69-.72-2.64-4.07-4.29-6.49-4.95C122.05,316.49,120.5,318.12,119.2,320.49Z"/><path fill="#435055"  d="M138.46,269.92a7.49,7.49,0,0,0-1.7,1c-3.89,3-7.69,6.27-10.15,10.51-6.76,11.7,4.5,42.15,21.12,37.76a9.27,9.27,0,0,0,3.67-2.42C163.74,305.37,150.79,264.92,138.46,269.92Z"/><path fill="#435055"  d="M473.22,290.25a1.89,1.89,0,0,0,.14,3c1,.78,4,.91,5.12.3a2.71,2.71,0,0,0,1.08-1c.52-.93-.46-3.09-1.44-3.74C476.59,287.76,474.16,289.25,473.22,290.25Z"/><path fill="#435055"  d="M406.06,400.73a19.4,19.4,0,0,0-2.81,4.5c-.64,1.36-1.2,3-.46,4.3,1.1,1.93,6.34,3.33,8.42,3.5a1.65,1.65,0,0,0,1.75-1,3.23,3.23,0,0,0,0-1.2,13.52,13.52,0,0,1,.58-4.06c.47-2.23-.76-5.88-2.68-7.18S407.4,399.25,406.06,400.73Z"/><path fill="#435055"  d="M415,384.81a11,11,0,0,0,.43,3,2.75,2.75,0,0,0,1.39,2.05c1.19.44,4-.87,5-1.57a1,1,0,0,0,.39-1.09,1.71,1.71,0,0,0-.45-.52,7.66,7.66,0,0,1-1.24-2,4.67,4.67,0,0,0-3.83-2.16C415.4,382.67,415,383.67,415,384.81Z"/><path fill="#435055"  d="M256.87,415.08a19.47,19.47,0,0,0-2.82,4.5c-.64,1.36-1.19,3-.45,4.3,1.1,1.93,6.33,3.34,8.42,3.5a1.65,1.65,0,0,0,1.75-1,3.18,3.18,0,0,0,0-1.19,13.54,13.54,0,0,1,.58-4.07c.47-2.23-.76-5.88-2.69-7.18C259.86,412.72,258.21,413.6,256.87,415.08Z"/><path fill="#435055"  d="M254.25,408.44a2.25,2.25,0,0,0,.11,3,4,4,0,0,0,4,.3,2.32,2.32,0,0,0,.84-1c.41-.92-.35-3.08-1.12-3.74C256.87,405.94,255,407.44,254.25,408.44Z"/><path fill="#435055"  d="M197.11,15.3c-5.36.41-10.48,1.87-14.63,5.22-3.85,3.12-6.35,7.09-8.8,11-4.75,7.6-13,15-6.45,23.5,5.67,7.38,11.05,15.27,18,21.54,5.77,5.2,12.85,9.26,20.57,10.12,12.71,1.42,33.8-8.21,38-21.32,3.36-10.49-7.1-30-13.82-37.87C221.59,17.62,209.74,14.33,197.11,15.3Z"/><path fill="#435055"  d="M406.49,53.79c3.07,9.76,11.58,15.24,21.63,13,6.44-1.44,16.43-9.47,7.31-15.23-2.17-1.37-4.81-1.74-7.37-2q-7.83-.93-15.71-1.49c-1.75-.12-3.71-.16-5,1S405.92,52,406.49,53.79Z"/><path fill="#435055"  d="M114.29,103c1.09.38,2.06.69,2.63.94,3.33,1.43,6.58,3,9.83,4.63,4.75,2.34,7.65,5.4,12.65,1.69,7.6-5.65,19.39-11.54,24.28-19.92A14,14,0,0,0,146.93,70a27.91,27.91,0,0,0-6.93,4L109.82,95.74A4.65,4.65,0,0,0,108.48,97C106.69,100,111,101.83,114.29,103Z"/><path fill="#435055"  d="M539.47,5.73C522.1.69,497.93,2.61,494.42,21c-3.41,17.82,6.36,43.7,23.27,51.39,7.34,3.34,15.59,4.29,23.65,4,5-.2,10.48-1.08,14-4.73C573.5,52.55,564.71,13,539.47,5.73Z"/>            <g opacity="0.6" ><path fill="#DCFEFF"  d="M285.77,418.84c2.26-24.13,21.66-59.15,48.78-60.3,26.6-1.12,50.68,35,52.69,58.92.13,1.48.51,1.44-.05,1.63-1.81.61-6.61,1.94-9.58,2.8-14,4.06-27.43,4.48-43.52,4.36-16.38-.12-33-4.21-47.85-7.41"/></g>        </g>    </g>    <g id="mask">        <path fill="#2d2926"  d="M277.46,109.18c4.07-3.21,8.52-5.84,12.75-8.83,2.22-1.57,4.33-3.11,6.56-4.46a1.21,1.21,0,0,0-.46-1.2C285,85.23,274,75.35,262.37,66.34,253.49,59.5,241.31,49.1,229.16,53c-5.27,1.7-9.22,6-12.84,10a136.25,136.25,0,0,0-12.8,16.4,159.55,159.55,0,0,0-16.22,32.39,84.63,84.63,0,0,1-6.31,14,29.2,29.2,0,0,1-5.23,6.63c-2.15,2-5.18,2.79-7.14,4.83-6.34,6.62,1.61,15.05,7.81,17.47,10.12,3.95,22.32,1.59,32.15-2.15,10.51-4,18.17-12.59,28.12-17.56,7-3.51,14.18-3,21.68-4A79.65,79.65,0,0,1,277.46,109.18Z"/><path fill="#2d2926"  d="M348.54,90a7,7,0,0,1,2.68.66l.16.08A64.78,64.78,0,0,1,373,99.38a50.67,50.67,0,0,1,12.37,7.38c.91.47,1.8.95,2.67,1.46,2.52,1.48,5.26,2.47,7.57,4.3a28.36,28.36,0,0,1,3.51,3.42c11.63,8.7,21.12,21.29,29.24,32.79,3.71,5.25,7.36,10.56,11.35,15.61,3,3.78,6.39,7.71,11.47,8.33,9.41,1.16,15.38-9,18.76-16.2,5.83-12.38,11.84-24.74,16.87-37.47,1.63-4.13,3.9-8.76,1.59-13.08-2.53-4.74-9-7.72-13.1-10.85a174.07,174.07,0,0,1-28.54-26.85c-3.15-3.8-6-8.58-11.3-9.31-6.08-.84-13.22,1.63-19.22,2.64-21.65,3.65-48.92,5.06-66,20.55Z"/><g opacity="0.4" ><path d="M430,124a19,19,0,0,0-1.16-6.2,16.3,16.3,0,0,0-3.91-4.89,123.52,123.52,0,0,0-20.14-15.41c-3.16-1.93-6.52-3.76-10.2-4.14-7.14-.73-13.43,4-20.21,6.6a4.26,4.26,0,0,1,.86.49,15.48,15.48,0,0,1,2.85,1.5,11.9,11.9,0,0,1,2.41,1c7.12,3.89,9.93,4.33,15,8.66,15.49,13.24,27.5,29.7,39.87,45.9C431.13,147.51,430.84,134.81,430,124Z"/></g><g opacity="0.1" ><path d="M484.52,334.46c.24,1.7-3.5,6.77-4.43,8.49-1.82,3.4-3.69,6.78-5.67,10.09a107.91,107.91,0,0,1-13.23,18.11,63.28,63.28,0,0,1-11.06,9.47,60.18,60.18,0,0,1-6.26,3.66,32.27,32.27,0,0,1-5.52,2.51c-4,1.16-6.15-2.21-7.33-5.52a39.77,39.77,0,0,1-2.34-17.54,119.9,119.9,0,0,1,2.55-14.42l-1.94,4.49c-3.07,11.13-4.58,22.56-6,34a4.63,4.63,0,0,0,.26,2.2,3,3,0,0,0-.88.73c-2.06,2.51-.69,11.1-.82,14.3a.7.7,0,0,0,.1.45c.15.19.45.14.69.08a107.07,107.07,0,0,0,24.46-9.44c9.48-5.29,17.7-11,24.09-19.59a61.68,61.68,0,0,0,7.91-15.08C482.18,352.75,485.79,343.62,484.52,334.46Z"/></g><g opacity="0.1" ><path d="M267.23,141c10.78-16.33,17.62-34.19,32.6-46.78-23.63,13.11-38,28.58-53.16,54.08-14.44,24.28-29.77,53.16-39.76,79.21s-15,53.6-17.25,81.34c-1.44,17.39-2,39.71,4,58.26-12.16,2.89-24.55,2.42-35.58-4.39-32.1-19.81-16.24-53.36-16.24-53.36-5,6.28-7.46,8.94-9.87,24-2.23,13.87,8.42,27.2,19.58,34.28,13.92,8.82,29.75,10.19,45,6.81a51.74,51.74,0,0,0,7.84,12.38c10,11.56,21.38,19,39.1,21.26,2.22.28,4.49.59,6.78.91,0-3.47-.14-6.94-.17-10.41-17.11-5.77-32.35-19.19-39.78-35.5-4-8.82-6.13-18.92-6.18-30.42-.13-27.61,3.21-61,10.77-87.25C225.8,207.67,245.5,173.93,267.23,141Z"/></g><g opacity="0.1" ><path d="M389.36,401.68c-5.28,1.25-9.81,4.43-15.11,5.66a156.93,156.93,0,0,1-19.42,3c-22,2.28-44.35.82-66.16-2.85-1.82-5.45-1.09-11.68-.06-17.2a47.25,47.25,0,0,1,1.73-6c-1.08,2.57-1.94,5.23-2.79,7.87-.55,1.71-1,3.49-1.6,5.17-.31.79-1,1.73-1.36,2.66a5.25,5.25,0,0,1-.12,1c-.14.61-.26,1.23-.37,1.85a5.64,5.64,0,0,1-.4,1.26,4.84,4.84,0,0,1-.74,2.24,22.67,22.67,0,0,0-.51,5.15c0,.36,0,.73,0,1.1a4.94,4.94,0,0,1-.43,2l4.45,1c14.89,5.55,32.72,6.74,47.93,6.86,15.65.13,34.68-1.09,45-4.9,2.86-1.07,9.11-1.63,10.47-3.06,1.21-1.27-.65-1.69-.77-3.3C388.35,401.92,389.36,401.68,389.36,401.68Z"/></g><g opacity="0.4" ><path d="M265.75,120.76A47.08,47.08,0,0,0,243.3,107.6c-4.49-1.12-9.49-1.5-13.54.73-2.57,1.41-4.5,3.73-6.41,6a198.22,198.22,0,0,1-41,36,83.94,83.94,0,0,0,37.69-8.17c9.08-4.35,17.47-10.37,27.18-13a58.6,58.6,0,0,1,13.33-1.85A53,53,0,0,1,265.75,120.76Z"/></g>        <g opacity="0.1" ><path fill="#fff"  d="M379.38,102.63c6.06,5.3,10.42,13.68,14.49,20.5,4.46,7.47,8.88,15,13.37,22.42,13,21.71,26.15,43.75,37,66.65a328.76,328.76,0,0,1,23.41,68.9c2.75,12.34,4.9,24.81,6.59,37.33,1.4,10.34,4.07,22.69-2.47,31.88,4.28-6,9.86-10.61,11.34-14.66,5.27-14.38.19-32.18-2.49-46.67-5.44-29.5-15.47-57.88-26.93-85.52-11.28-27.21-25.53-53.08-44.83-75.5C392.61,109.13,379.6,102.82,379.38,102.63Z"/></g>    </g>    <g id="outline">        <path fill="none"  d="M160.05,333.15c-3.58-5.9-3.3-13-.58-19.25a13.76,13.76,0,0,1,6-6.84c2.6-1.38,4.51-.84,7.22-.85,2.4,0,5.77-.62,4.77-3.69a7.54,7.54,0,0,0-1.09-1.75,7.82,7.82,0,0,0-4.49-3.35c-4-1.16-8.86-.44-12.85.56-16.25,4.06-24.71,20.78-26.8,36.27C129.54,354,149.85,369.5,167,373.66a61.12,61.12,0,0,0,26.47.37,90.59,90.59,0,0,1-6.9-26.51C175.94,346.14,165.41,342,160.05,333.15Z"/><path fill="none"  d="M258.25,128q4.35-5.44,9.09-10.54a109.44,109.44,0,0,1,26.43-21c-11.2-9.39-22.06-19.2-33.66-28.1-5.07-3.88-10.25-8-16.07-10.68-8.33-3.89-15.54-2.62-22.11,3.8-16.17,15.79-25.3,35.47-33.63,56-2.85,7-6.35,14.31-12.63,18.91-2.66,1.94-5.92,2.67-6,6.52a8.34,8.34,0,0,0,4.11,7.15c4.63,3.09,10.49,3.83,15.93,3.59a54.82,54.82,0,0,0,28.91-10c7.45-5.2,14.53-11.57,23.54-13.92,5.08-1.32,10.34-1,15.51-1.64C257.88,128.1,258.06,128.06,258.25,128Z"/><path fill="none"  d="M376.27,98.3a120.48,120.48,0,0,1,13.07,8.34c12.85,5.91,23.72,16.66,32.35,27.83,7.08,9.18,13.26,19,20.46,28.11,4.72,6,11,10,17.61,3.92,3.42-3.14,5.67-7.4,7.62-11.55,5.46-11.58,11.08-23.16,15.88-35,1.35-3.35,3-6.57,2.76-10.22-.31-4.08-3.57-5.68-6.63-7.9-4.31-3.12-8.53-6.34-12.64-9.72A164.7,164.7,0,0,1,443,68.3c-2.69-3.35-4.83-6.44-9.61-6.48-3.43,0-7.26,1.1-10.62,1.67l-17.13,2.88c-19,3.21-42,5.42-55.86,20.29-.18.49-.36,1-.56,1.46A99.39,99.39,0,0,1,376.27,98.3Z"/><path fill="none"  d="M436.24,173c-9.43-18.92-19.18-36.8-34.42-51.77C388,107.62,371,96.63,352,91.79c-1.34-.34-2.69-.64-4-.91h0a4.74,4.74,0,0,0-.94-.18,37,37,0,0,0,2.45-7.64,35.23,35.23,0,0,1-9.73,9.85l-3.22,2.15,1.66-3.53a69.55,69.55,0,0,0,6.13-22.45c-1.63,2.48-3.29,5-5,7.38a107.76,107.76,0,0,1-9.05,11.24l-6,6.44,3.58-8.07A43.19,43.19,0,0,0,331,62.52c-1.28,4.22-2.56,8.44-3.87,12.65a86.84,86.84,0,0,1-3,8.92,21,21,0,0,1-2.42,4.23A13.38,13.38,0,0,1,318,91.67L315.85,93l.84-2.3a10,10,0,0,0-.78-8.24,31.83,31.83,0,0,1-2.15,8.68c-.09.24-.19.47-.3.71l-.76.14a77.44,77.44,0,0,0-19.41,8.11c-20,11.78-34.5,30.8-46.79,50.07a377.42,377.42,0,0,0-52.42,133.53c-1.65,9-3,18.11-3.92,27.25-2.94,30.42-1.68,70.59,28.43,87.67,2.13,1.21,13,3.79,8.39,7.39-2.4,1.85-14.49,3-13.86,6.68.69,4.07,12.39,4.42,15.14,4.63a154.25,154.25,0,0,0,17.6.25c.53,0,1.44,0,2.41,0,.15-1.73.14-3.58.16-5.42s0-3.86.06-5.79c.07-3.85.18-7.68.2-11.51A150.38,150.38,0,0,0,247.36,372a55.56,55.56,0,0,0-2.69-11.09,30.32,30.32,0,0,0-2.46-5.14,18.35,18.35,0,0,0-3.63-4.43h0a22.92,22.92,0,0,1,6.82,9.27,57.18,57.18,0,0,1,3.39,11.13,135,135,0,0,1,2.22,23.1c.11,3.87.11,7.73.1,11.57,0,1.92,0,3.83,0,5.75s.08,3.85-.07,5.9a14.63,14.63,0,0,1-.56,3.13l-.13.39c0,.14-.12.3-.18.45a6.36,6.36,0,0,1-.47.85,6.81,6.81,0,0,1-1.25,1.36A22,22,0,0,1,243,427c-1.7.71-3.31,1.6-3.6,2.6a1.92,1.92,0,0,0-.1.85,3.09,3.09,0,0,0,.06.5l.14.48a4.85,4.85,0,0,0,1.25,1.77c.12.11.27.21.4.32a5.43,5.43,0,0,1,.24-3.08,6.54,6.54,0,0,1,2.78-3.37,8.36,8.36,0,0,1,2-.77,12.23,12.23,0,0,1,1.87-.39,13.57,13.57,0,0,1,3.88-.05,13.47,13.47,0,0,1-3.14,2.29c-1.11.61-2.2,1.06-3,1.5a9.43,9.43,0,0,0-2.27,1.92,12.66,12.66,0,0,0-1.91,3l.47-.39a15.29,15.29,0,0,0,3.2,1.55,21.13,21.13,0,0,0,2.58.75,22.72,22.72,0,0,0,2.68.41l1.4.09a2.54,2.54,0,0,1-.43-.91,3.51,3.51,0,0,1,.15-2.17,7.13,7.13,0,0,1,2.47-3,10.06,10.06,0,0,1,3.24-1.62,7.37,7.37,0,0,1,3.65-.16,29.86,29.86,0,0,1-2.6,2.28c-.84.66-1.66,1.29-2.49,1.9a23.66,23.66,0,0,0-2.22,1.75,3.44,3.44,0,0,0-.74,1,2.5,2.5,0,0,0-.2,1.56l.54-.57a48.17,48.17,0,0,0,8.4-.42,36.26,36.26,0,0,0,5.41-1.12,15.05,15.05,0,0,0,4.66-2.47,20.69,20.69,0,0,0,3.79-3.86,25.49,25.49,0,0,0,2.85-4.7,12.1,12.1,0,0,0,.54-1.25c.15-.41.3-.82.42-1.28.27-.89.49-1.81.71-2.73l1.23-5.62c.81-3.76,1.61-7.53,2.58-11.28a113.26,113.26,0,0,1,3.46-11.06,48.77,48.77,0,0,1,5.15-10.35h0c-3.7,6.77-5.64,14.26-7.18,21.75-.78,3.71-1.42,7.45-2.06,11.2a311.41,311.41,0,0,0,33.1,5.42c21.48,2.29,43.63,2.36,64.74-2.67a86.22,86.22,0,0,0,8.66-2.58c0-.15-.06-.3-.08-.45-.63-3.71-.81-7.39-1.25-11-.2-1.8-.5-3.61-.78-5.43s-.56-3.63-.94-5.41a31.1,31.1,0,0,0-1.71-5.18c-.65-1.72-1.25-3.46-1.84-5.2.73,1.69,1.47,3.37,2.26,5a31.94,31.94,0,0,1,2.07,5.16c.49,1.79.87,3.59,1.27,5.39s.81,3.59,1.13,5.43c.62,3.66,1,7.32,1.72,10.85a32.65,32.65,0,0,0,1.5,5.11A27.37,27.37,0,0,0,395.5,423a20.1,20.1,0,0,0,7.48,7,12.63,12.63,0,0,0,2.34.92c.8.24,1.7.43,2.56.61a45,45,0,0,0,5.3.72,51.54,51.54,0,0,0,5.7.11l.54.56a2.54,2.54,0,0,0-.2-1.55,3.32,3.32,0,0,0-.74-1,22.12,22.12,0,0,0-2.22-1.75c-.83-.61-1.65-1.24-2.49-1.91a29.47,29.47,0,0,1-2.61-2.27,7.41,7.41,0,0,1,3.66.16,9.82,9.82,0,0,1,3.23,1.62,7.1,7.1,0,0,1,2.48,3,3.62,3.62,0,0,1,.15,2.18,2.79,2.79,0,0,1-.44.92c1.2-.09,2.39-.2,3.54-.4a20.31,20.31,0,0,0,4.86-1.57,13.17,13.17,0,0,0,1.48-.83l.46.38a12.77,12.77,0,0,0-1.91-3A9.43,9.43,0,0,0,426.4,425c-.84-.44-1.93-.89-3-1.5a13.63,13.63,0,0,1-3.13-2.29,13.57,13.57,0,0,1,3.88.05,12.23,12.23,0,0,1,1.87.39,8.36,8.36,0,0,1,2,.77,6.56,6.56,0,0,1,2.78,3.36,5.4,5.4,0,0,1,.23,3.12,5.91,5.91,0,0,0,1.3-1.41,3.82,3.82,0,0,0,.57-1.85,2.2,2.2,0,0,0-.11-.84,1.94,1.94,0,0,0-.41-.72c-.78-.95-2.46-1.64-4.13-2.28a21.47,21.47,0,0,1-5.32-2.59,7.46,7.46,0,0,1-1.23-1.22,5,5,0,0,1-.88-1.71,9.08,9.08,0,0,1-.27-1.57c-.06-.52-.09-1-.1-1.48a111.51,111.51,0,0,1,.44-11.18c.28-3.68.68-7.35,1.13-11,.89-7.33,2-14.61,3.48-21.85.76-3.61,1.6-7.2,2.61-10.75.51-1.78,1.06-3.54,1.74-5.26a21.32,21.32,0,0,1,1.17-2.52,8,8,0,0,1,1.29-1.85,4,4,0,0,1,.37-.35,7.2,7.2,0,0,0-1.46,2.3,20.74,20.74,0,0,0-.94,2.57c-.56,1.74-1,3.51-1.4,5.3-.79,3.58-1.4,7.19-1.94,10.82-1.1,7.25-1.92,14.54-2.6,21.83-.33,3.65-.61,7.31-.83,10.95-.2,3.41-.36,6.86-.25,10.19,5.42.86,11.33.45,16.69.29A155,155,0,0,0,459,411.22c2.36-.36,3.95,0,2.58-2.29-1.6-2.7-4-4-6.92-5-2.42-.82-9.31-1-10.72-3.45-.76-1.34.09-2,1-2.94,1.35-1.35,4-2.21,5.61-3.24q3-1.89,5.8-4A69.52,69.52,0,0,0,475.12,368c9-16.7,10.93-36.3,9.17-54.93C482,289.38,475,265.78,467,243.43,458.39,219.28,447.67,195.93,436.24,173Z"/><path d="M453.83,203c-5.4-12-11.14-23.86-17.05-35.62-5.06-10.06-10.07-20.08-16.63-29.27q-3.45-4.86-7.33-9.43a219.21,219.21,0,0,1,15.57,20c3.71,5.25,7.36,10.57,11.35,15.61,3,3.78,6.39,7.71,11.47,8.33,9.41,1.16,15.38-9,18.76-16.2,5.83-12.38,11.84-24.74,16.87-37.47,1.63-4.13,3.9-8.76,1.59-13.08-2.53-4.74-9-7.72-13.1-10.85a173.65,173.65,0,0,1-28.54-26.85c-3.15-3.8-6-8.57-11.3-9.31-6.08-.84-13.22,1.63-19.22,2.65-21.21,3.57-47.81,5-65,19.61.11-.61.21-1.21.3-1.82l.55-4-2,3.59a33.45,33.45,0,0,1-6.45,8.22L342.6,87a68.33,68.33,0,0,0,2.76-8.41,70.94,70.94,0,0,0,2.13-14.72l.19-5L344.91,63c-2.64,3.94-5.21,7.91-8,11.72Q335,77.39,333,79.93a45.09,45.09,0,0,0-.48-23.32l-1.33-4.54-1.29,4.53c-1.7,6-3.41,11.93-5.06,17.91a87,87,0,0,1-2.7,8.77,20.76,20.76,0,0,1-2.05,3.91h0l-1.26.2a11.2,11.2,0,0,0-2.95-7.22L314.79,79v1.58a30.72,30.72,0,0,1-1,7.86A81,81,0,0,0,296.56,95a1.62,1.62,0,0,0-.25-.28C285,85.23,274,75.35,262.37,66.34,253.49,59.5,241.31,49.1,229.16,53c-5.27,1.7-9.22,6-12.84,10a136.25,136.25,0,0,0-12.8,16.4,159.55,159.55,0,0,0-16.22,32.39,85.1,85.1,0,0,1-6.31,14,29.37,29.37,0,0,1-5.23,6.62c-2.15,2-5.18,2.79-7.14,4.83-6.34,6.62,1.61,15.05,7.81,17.47,10.12,3.95,22.32,1.59,32.15-2.15,10.51-4,18.17-12.59,28.12-17.56,6.16-3.09,12.44-3.09,19-3.72-11,14.4-20.23,30.38-28.47,46.32a380.09,380.09,0,0,0-27.51,69.12q-5.13,17.82-8.5,36.06c-3.45,19-6.77,40.77-5,61.39-13.52-2.25-28.79-9.5-25.39-24.85.72-3.22,2-6.56,4.64-8.66,4.41-3.49,8.54.65,12.92-1.44s2.51-7.49.27-10.52c-7.91-10.73-27.31-3-35,4.3-9.48,8.95-16.45,25.8-14.34,38.87,2.64,16.29,18,28.65,32.9,33.49a62.47,62.47,0,0,0,32.55,1.4,68.93,68.93,0,0,0,3.4,6.1,54.13,54.13,0,0,0,16.36,16.68,56.11,56.11,0,0,0,5.29,3c.46.22,2,1.13,3.24,1.71l-.31.12c-1.78.63-3.6,1.16-5.37,1.81-3.43,1.26-9.09,3.22-6.82,8,1.87,3.91,8,4.8,11.7,5.38a117.09,117.09,0,0,0,20,1c1.45,0,3.43.1,5.43.05a3.56,3.56,0,0,1-.29.54,3.81,3.81,0,0,1-.71.75,20.38,20.38,0,0,1-4.77,2.37,17.66,17.66,0,0,0-2.81,1.42,5.9,5.9,0,0,0-2.43,2.88,6.53,6.53,0,0,0,2.08,6.76,11.83,11.83,0,0,0,2.66,1.88,18.89,18.89,0,0,0,2.85,1.26,23.66,23.66,0,0,0,3,.83,25,25,0,0,0,3,.44,49,49,0,0,0,11.86-.34,38.78,38.78,0,0,0,5.85-1.33,17.68,17.68,0,0,0,5.43-3,25.22,25.22,0,0,0,7.16-9.66,18.6,18.6,0,0,0,1-2.89c.26-1,.46-1.93.66-2.88s.37-1.91.54-2.87c22.29,4.82,45.23,7.68,68.06,6.77a160.19,160.19,0,0,0,32.55-4.43c2.39-.6,4.77-1.27,7.12-2a28.63,28.63,0,0,0,3.1,7.11,21.81,21.81,0,0,0,8.26,8.08,15.91,15.91,0,0,0,2.76,1.15c1,.3,1.85.51,2.78.72a48.77,48.77,0,0,0,5.61.87,45.84,45.84,0,0,0,11.39-.31,23.43,23.43,0,0,0,5.6-1.79,14.28,14.28,0,0,0,2.63-1.57A9,9,0,0,0,434.8,429a6.86,6.86,0,0,0,1-3.36,5.1,5.1,0,0,0-1.23-3.53,8.34,8.34,0,0,0-2.67-2c-.91-.45-1.81-.8-2.68-1.13a19.28,19.28,0,0,1-4.6-2.14,4.11,4.11,0,0,1-.73-.71,1.76,1.76,0,0,1-.38-.71l0-.12.83.07a142.53,142.53,0,0,0,20.87,0c5.56-.3,11.91-.22,17.3-1.84,3.77-1.14,2.9-4.87.85-7.65-3.27-4.44-9.45-5.46-14.46-6.64l-.43-.13c.94-.57,1.95-1.32,2.34-1.55a76.39,76.39,0,0,0,11.85-8.79c14-12.67,21.84-30.36,24.29-48.89,2.85-21.53-1.3-43.23-6.67-64C473.77,250.85,464.43,226.61,453.83,203ZM405.65,66.37l17.13-2.88c3.36-.57,7.19-1.69,10.62-1.67,4.78,0,6.92,3.13,9.61,6.48a164.7,164.7,0,0,0,23.74,23.78c4.11,3.38,8.33,6.6,12.64,9.72,3.06,2.22,6.32,3.82,6.63,7.9.28,3.65-1.41,6.87-2.76,10.22-4.8,11.87-10.42,23.45-15.88,35-1.95,4.15-4.2,8.41-7.62,11.55-6.61,6.06-12.89,2-17.61-3.92-7.2-9.08-13.38-18.93-20.46-28.11-8.63-11.17-19.5-21.92-32.35-27.83a120.48,120.48,0,0,0-13.07-8.34,99.39,99.39,0,0,0-27-10.18c.2-.48.38-1,.56-1.46C363.64,71.79,386.63,69.58,405.65,66.37ZM242.17,129.76c-9,2.35-16.09,8.72-23.54,13.92a54.82,54.82,0,0,1-28.91,10c-5.44.24-11.3-.5-15.93-3.59a8.34,8.34,0,0,1-4.11-7.15c.07-3.85,3.33-4.58,6-6.52,6.28-4.6,9.78-11.89,12.63-18.91,8.33-20.57,17.46-40.25,33.63-56,6.57-6.42,13.78-7.69,22.11-3.8,5.82,2.72,11,6.8,16.07,10.68,11.6,8.9,22.46,18.71,33.66,28.1a109.44,109.44,0,0,0-26.43,21q-4.75,5.08-9.09,10.54c-.19,0-.37.07-.57.09C252.51,128.74,247.25,128.44,242.17,129.76ZM167,373.66c-17.1-4.16-37.41-19.67-34.73-39.41C134.31,318.76,142.77,302,159,298c4-1,8.82-1.72,12.85-.56a7.82,7.82,0,0,1,4.49,3.35,7.54,7.54,0,0,1,1.09,1.75c1,3.07-2.37,3.67-4.77,3.69-2.71,0-4.62-.53-7.22.85a13.76,13.76,0,0,0-6,6.84c-2.72,6.2-3,13.35.58,19.25,5.36,8.84,15.89,13,26.47,14.37a90.59,90.59,0,0,0,6.9,26.51A61.12,61.12,0,0,1,167,373.66ZM475.12,368a69.52,69.52,0,0,1-18.79,22.2q-2.81,2.16-5.8,4c-1.64,1-4.26,1.89-5.61,3.24-.88.89-1.73,1.6-1,2.94,1.41,2.48,8.3,2.63,10.72,3.45,2.94,1,5.32,2.32,6.92,5,1.37,2.3-.22,1.93-2.58,2.29a155,155,0,0,1-19.14,1.46c-5.36.16-11.27.57-16.69-.29-.11-3.33.05-6.78.25-10.19.22-3.64.5-7.3.83-10.95.68-7.29,1.5-14.58,2.6-21.83.54-3.63,1.15-7.24,1.94-10.82.39-1.79.84-3.56,1.4-5.3a20.74,20.74,0,0,1,.94-2.57,7.2,7.2,0,0,1,1.46-2.3,4,4,0,0,0-.37.35,8,8,0,0,0-1.29,1.85,21.32,21.32,0,0,0-1.17,2.52c-.68,1.72-1.23,3.48-1.74,5.26-1,3.55-1.85,7.14-2.61,10.75-1.45,7.24-2.59,14.52-3.48,21.85-.45,3.66-.85,7.33-1.13,11a111.51,111.51,0,0,0-.44,11.18c0,.47,0,1,.1,1.48a9.08,9.08,0,0,0,.27,1.57,5,5,0,0,0,.88,1.71,7.46,7.46,0,0,0,1.23,1.22,21.47,21.47,0,0,0,5.32,2.59c1.67.64,3.35,1.33,4.13,2.28a1.94,1.94,0,0,1,.41.72,2.2,2.2,0,0,1,.11.84,3.82,3.82,0,0,1-.57,1.85,5.91,5.91,0,0,1-1.3,1.41,5.4,5.4,0,0,0-.23-3.12,6.56,6.56,0,0,0-2.78-3.36,8.36,8.36,0,0,0-2-.77,12.23,12.23,0,0,0-1.87-.39,13.57,13.57,0,0,0-3.88-.05,13.63,13.63,0,0,0,3.13,2.29c1.12.61,2.21,1.06,3,1.5a9.43,9.43,0,0,1,2.27,1.92,12.77,12.77,0,0,1,1.91,3l-.46-.38a13.17,13.17,0,0,1-1.48.83,20.31,20.31,0,0,1-4.86,1.57c-1.15.2-2.34.31-3.54.4a2.79,2.79,0,0,0,.44-.92,3.62,3.62,0,0,0-.15-2.18,7.1,7.1,0,0,0-2.48-3,9.82,9.82,0,0,0-3.23-1.62,7.41,7.41,0,0,0-3.66-.16,29.47,29.47,0,0,0,2.61,2.27c.84.67,1.66,1.3,2.49,1.91a22.12,22.12,0,0,1,2.22,1.75,3.32,3.32,0,0,1,.74,1,2.54,2.54,0,0,1,.2,1.55l-.54-.56a51.54,51.54,0,0,1-5.7-.11,45,45,0,0,1-5.3-.72c-.86-.18-1.76-.37-2.56-.61A12.63,12.63,0,0,1,403,430a20.1,20.1,0,0,1-7.48-7,27.37,27.37,0,0,1-2.44-4.68,32.65,32.65,0,0,1-1.5-5.11c-.76-3.53-1.1-7.19-1.72-10.85-.32-1.84-.74-3.63-1.13-5.43s-.78-3.6-1.27-5.39a31.94,31.94,0,0,0-2.07-5.16c-.79-1.66-1.53-3.34-2.26-5,.59,1.74,1.19,3.48,1.84,5.2a31.1,31.1,0,0,1,1.71,5.18c.38,1.78.65,3.6.94,5.41s.58,3.63.78,5.43c.44,3.62.62,7.3,1.25,11,0,.15.05.3.08.45a86.22,86.22,0,0,1-8.66,2.58c-21.11,5-43.26,5-64.74,2.67a311.41,311.41,0,0,1-33.1-5.42c.64-3.75,1.28-7.49,2.06-11.2,1.54-7.49,3.48-15,7.18-21.75h0a48.77,48.77,0,0,0-5.15,10.35,113.26,113.26,0,0,0-3.46,11.06c-1,3.75-1.77,7.52-2.58,11.28L280,419.24c-.22.92-.44,1.84-.71,2.73-.12.46-.27.87-.42,1.28a12.1,12.1,0,0,1-.54,1.25,25.49,25.49,0,0,1-2.85,4.7,20.69,20.69,0,0,1-3.79,3.86,15.05,15.05,0,0,1-4.66,2.47,36.26,36.26,0,0,1-5.41,1.12,48.17,48.17,0,0,1-8.4.42l-.54.57a2.5,2.5,0,0,1,.2-1.56,3.44,3.44,0,0,1,.74-1,23.66,23.66,0,0,1,2.22-1.75c.83-.61,1.65-1.24,2.49-1.9a29.86,29.86,0,0,0,2.6-2.28,7.37,7.37,0,0,0-3.65.16,10.06,10.06,0,0,0-3.24,1.62,7.13,7.13,0,0,0-2.47,3,3.51,3.51,0,0,0-.15,2.17,2.54,2.54,0,0,0,.43.91l-1.4-.09a22.72,22.72,0,0,1-2.68-.41,21.13,21.13,0,0,1-2.58-.75,15.29,15.29,0,0,1-3.2-1.55l-.47.39a12.66,12.66,0,0,1,1.91-3,9.43,9.43,0,0,1,2.27-1.92c.84-.44,1.93-.89,3-1.5a13.47,13.47,0,0,0,3.14-2.29,13.57,13.57,0,0,0-3.88.05,12.23,12.23,0,0,0-1.87.39,8.36,8.36,0,0,0-2,.77,6.54,6.54,0,0,0-2.78,3.37,5.43,5.43,0,0,0-.24,3.08c-.13-.11-.28-.21-.4-.32a4.85,4.85,0,0,1-1.25-1.77l-.14-.48a3.09,3.09,0,0,1-.06-.5,1.92,1.92,0,0,1,.1-.85c.29-1,1.9-1.89,3.6-2.6a22,22,0,0,0,5.47-2.83,6.81,6.81,0,0,0,1.25-1.36,6.36,6.36,0,0,0,.47-.85c.06-.15.13-.31.18-.45l.13-.39a14.63,14.63,0,0,0,.56-3.13c.15-2.05.09-4,.07-5.9s0-3.83,0-5.75c0-3.84,0-7.7-.1-11.57a135,135,0,0,0-2.22-23.1,57.18,57.18,0,0,0-3.39-11.13,22.92,22.92,0,0,0-6.82-9.27h0a18.35,18.35,0,0,1,3.63,4.43,30.32,30.32,0,0,1,2.46,5.14A55.56,55.56,0,0,1,247.36,372a150.38,150.38,0,0,1,1.33,22.87c0,3.83-.13,7.66-.2,11.51,0,1.93-.06,3.87-.06,5.79s0,3.69-.16,5.42c-1,0-1.88,0-2.41,0a154.25,154.25,0,0,1-17.6-.25c-2.75-.21-14.45-.56-15.14-4.63-.63-3.64,11.46-4.83,13.86-6.68,4.66-3.6-6.26-6.18-8.39-7.39-30.11-17.08-31.37-57.25-28.43-87.67.89-9.14,2.27-18.22,3.92-27.25A377.42,377.42,0,0,1,246.5,150.12c12.29-19.27,26.78-38.29,46.79-50.07a77.44,77.44,0,0,1,19.41-8.11l.76-.14c.11-.24.21-.47.3-.71a31.83,31.83,0,0,0,2.15-8.68,10,10,0,0,1,.78,8.24l-.84,2.3L318,91.67a13.38,13.38,0,0,0,3.68-3.35,21,21,0,0,0,2.42-4.23,86.84,86.84,0,0,0,3-8.92c1.31-4.21,2.59-8.43,3.87-12.65a43.19,43.19,0,0,1-3.17,23.55l-3.58,8.07,6-6.44a107.76,107.76,0,0,0,9.05-11.24c1.73-2.43,3.39-4.9,5-7.38a69.55,69.55,0,0,1-6.13,22.45l-1.66,3.53,3.22-2.15a35.23,35.23,0,0,0,9.73-9.85,37,37,0,0,1-2.45,7.64,4.74,4.74,0,0,1,.94.18h0c1.34.27,2.69.57,4,.91,18.94,4.84,36,15.83,49.8,29.43,15.24,15,25,32.85,34.42,51.77,11.43,22.94,22.15,46.29,30.8,70.44,8,22.35,15,45.95,17.25,69.67C486.05,331.73,484.08,351.33,475.12,368Z"/>    </g>    <g id="eye">        <g id="eye-color1">            <path fill="#B4D2F4"  d="M265.06,168.79l-16.27.91-.49.09c-1.94.33-4,.22-6,.44-3.86.44-7.72.71-11.59.91-1.93.09-3.71.53-5.65.58h-.18c2.22,3.46,4.15,6.83,6.91,9.83a47.38,47.38,0,0,0,10.41,8.15,36.87,36.87,0,0,0,11.85,4.55c4.17.82,8.6,1.64,12.84,1.22a56.61,56.61,0,0,0,6.33-1c2.08-.43,3.95-1.78,5.93-2.53a39.67,39.67,0,0,0,10.89-6.31c3.3-2.64,7.92-5.59,10-9.26,1.77-3,4.44-6.82,5.24-10.42l-20.39,1.2Z"/><path fill="#B4D2F4"  d="M290,125.25A44.34,44.34,0,0,0,269,117.17a47.18,47.18,0,0,0-22.17,2.63,38.24,38.24,0,0,0-9.75,5.36,35.5,35.5,0,0,0-7.64,8,32,32,0,0,0-4.63,10,52.14,52.14,0,0,0-1.67,11.08,48.58,48.58,0,0,0,.66,11.14,15.29,15.29,0,0,0,.71,2.53,3.79,3.79,0,0,0,.47.93h0c1.9,0,3.82-.11,5.73-.2,3.83-.18,7.5-.14,11.3-.49,1.9-.19,3.94-.66,5.81-.95l.7-.11.61-.13c.42-.09.88-.25,1.31-.36.89-.28,1.78-.58,2.68-.91,3.56-1.31,7.12-2.75,10.61-4.3,1.75-.78,3.76-1.27,5.47-2.11a35.62,35.62,0,0,0,4.59-2.51h.6l7.34-3.57,7.17-3.63,15.33-6.66h0A46.21,46.21,0,0,0,290,125.25Z"/><path fill="#B4D2F4"  d="M404.65,168.79l16.27.91.5.09c1.94.33,3.87-.42,5.8-.21,3.86.44,7.73.72,11.59.91,1.94.1,3.87,1.18,5.81,1.23h.18a70.33,70.33,0,0,1-7.4,9.78,44.91,44.91,0,0,1-9.92,8.2,36.93,36.93,0,0,1-11.86,4.55,46,46,0,0,1-13,1.07,56.6,56.6,0,0,1-6.29-1.18,37.67,37.67,0,0,1-5.78-2.18,39.38,39.38,0,0,1-10.89-6.31c-3.31-2.64-7.93-5.59-10-9.26-1.77-3-4.45-6.82-5.25-10.42l20.52,1.33Z"/><path fill="#B4D2F4"  d="M379.77,125.25a44.3,44.3,0,0,1,20.93-8.08,47.2,47.2,0,0,1,22.17,2.63,38.24,38.24,0,0,1,9.75,5.36,35.5,35.5,0,0,1,7.64,8,32.44,32.44,0,0,1,4.63,10,52.13,52.13,0,0,1,1.66,11.08,47.48,47.48,0,0,1-.66,11.14,15.3,15.3,0,0,1-.7,2.53,4.15,4.15,0,0,1-.48.93h0c-1.91,0-3.83-.11-5.74-.2-3.82-.18-7.49-.14-11.29-.49-1.9-.19-4-.66-5.81-.95l-.7-.11-.62-.13c-.41-.09-.87-.25-1.31-.36-.88-.28-1.78-.36-2.67-.69-3.57-1.31-6.92-2.22-10.42-3.77-1.74-.78-3.68-1.93-5.39-2.77s-3.42-1.26-4.84-2.27l-.3-.15-.32-.18-7-3.35-7.53-3.85-15.34-6.66h0A46.33,46.33,0,0,1,379.77,125.25Z"/>        </g>        <g id="eye-shape">            <path fill="none"  d="M265.06,168.79c-11.41.64-22.76,2.13-34.16,2.7q-2.9.15-5.8.23h-.18a70.27,70.27,0,0,0,7.39,9.78,44.73,44.73,0,0,0,9.93,8.2,36.87,36.87,0,0,0,11.85,4.55,43.94,43.94,0,0,0,12.7.48,56.61,56.61,0,0,0,6.33-1,39.8,39.8,0,0,0,17-8.1,33.06,33.06,0,0,0,8.16-9.47,53.41,53.41,0,0,0,4.24-9.78l-17.57,1.2Z"/><path fill="none"  d="M290,125.25A44.3,44.3,0,0,0,269,117.17a47.06,47.06,0,0,0-22.17,2.63,38.24,38.24,0,0,0-9.75,5.36,35.5,35.5,0,0,0-7.64,8,32,32,0,0,0-4.63,10,52.78,52.78,0,0,0-1.67,11.08,48.58,48.58,0,0,0,.66,11.14,15.29,15.29,0,0,0,.71,2.53,3.79,3.79,0,0,0,.47.93c1.93,0,3.85-.1,5.76-.19,5.86-.28,12-.34,17.69-1.65a86.07,86.07,0,0,0,15.33-5.6q2.63-1.17,5.19-2.43c4.15-2.11,8.18-4.29,12.46-6.14l7.52-3.25,15.33-6.66A46.21,46.21,0,0,0,290,125.25Zm-13.14,19c-2,1.22-4.1,2.33-6.16,3.5l-6.23,3.35-6.32,3.2-3.19,1.56c-1,.54-2.13,1.06-3.23,1.55a32.47,32.47,0,0,1-6.86,2.34,16.05,16.05,0,0,1-7.2,0c3.58.92,8.76-2.25,11.81-3.75q6.63-3.26,13.15-6.73c2.35-1.26,4.7-2.52,7.06-3.76a157.23,157.23,0,0,1,19.16-8.82C284.92,139.41,280.89,141.88,276.81,144.26Z"/><path fill="none"  d="M270,160.8h0c-1.73.91-3.46,1.78-5.21,2.61,1.75-.83,3.48-1.7,5.21-2.61Z"/><path fill="#fcfcfc"  d="M302.12,144l-12.35,6.3-7.42,3.78c-4.22,2.11-8.22,4.55-12.4,6.75h0c-1.73.91-3.46,1.78-5.21,2.61-3.51,1.66-7,3.25-10.68,4.64l-.1,0,10-1,17.54-1.67a12.21,12.21,0,0,1-.31-1.33,1.5,1.5,0,0,1-.07-.44,1.39,1.39,0,0,1,0-.46c.2-5,4.16-8.15,9.13-8.35h.12a3.76,3.76,0,0,1,1-.55l.08,0,.19-.08a1.32,1.32,0,0,1,1.4.32l2.26,1.67c.57.42,1.16.81,1.18,1.61,0,0,0,.1,0,.14a9.06,9.06,0,0,1,1.08,5.56c0,.17,0,.35-.07.52l6.14-.54a38.31,38.31,0,0,0-1.11-18.4C302.37,144.69,302.23,144.33,302.12,144Z"/><path d="M298,130.13a46.21,46.21,0,0,0-13.76-10.58c-11.32-6-26.37-6.39-38.31-2.16a42.81,42.81,0,0,0-10.53,5.55,36.51,36.51,0,0,0-4.53,3.91,38.57,38.57,0,0,0-3.84,4.62,34.54,34.54,0,0,0-5.12,10.85,55.69,55.69,0,0,0-1.74,11.73,50.44,50.44,0,0,0,.74,11.86,18.19,18.19,0,0,0,.85,3,7.15,7.15,0,0,0,.87,1.61,3.21,3.21,0,0,0,1,.9,2.34,2.34,0,0,0,.53.2c3.55,9,11.05,16.54,20,21.26.37.19.74.39,1.11.57l1.15.55.57.26.43.18c19.35,8.17,42.45.74,53.57-16.94,4.05-6.44,6.71-13.95,6.31-21.63C306.87,146.7,304,137.26,298,130.13Zm.47,46.24a44.31,44.31,0,0,1-13.76,12.7,42.72,42.72,0,0,1-20.94,6,43.72,43.72,0,0,1-38.61-23.24c26.05-1.91,52.62-3.81,78.67-5.72a38.81,38.81,0,0,1-3.12,6.77C300.05,174.07,299.3,175.24,298.5,176.37Zm5.08-12.92-6.14.54c0-.17.05-.35.07-.52a9.06,9.06,0,0,0-1.08-5.56,4.84,4.84,0,0,1-1.13,2.8c-1.64,1.87-4.54.92-5.73-1a3.68,3.68,0,0,1,.8-4.92h-.12c-5,.2-8.93,3.32-9.13,8.35a1.39,1.39,0,0,0,0,.46,1.5,1.5,0,0,0,.07.44,12.21,12.21,0,0,0,.31,1.33l-17.54,1.67-10,1,.1,0c3.65-1.39,7.17-3,10.68-4.64,1.75-.83,3.48-1.7,5.21-2.61h0c4.18-2.2,8.18-4.64,12.4-6.75l7.42-3.78,12.35-6.3c.11.36.25.72.35,1.08A38.31,38.31,0,0,1,303.58,163.45ZM289,149.52c-8.3,4-16.73,8.08-25.17,11.82a86.07,86.07,0,0,1-15.33,5.6c-5.74,1.31-11.83,1.37-17.69,1.65-1.91.09-3.83.16-5.76.19a3.79,3.79,0,0,1-.47-.93,15.29,15.29,0,0,1-.71-2.53,48.58,48.58,0,0,1-.66-11.14,52.78,52.78,0,0,1,1.67-11.08,32,32,0,0,1,4.63-10,35.5,35.5,0,0,1,7.64-8,38.24,38.24,0,0,1,9.75-5.36A47.06,47.06,0,0,1,269,117.17,44.3,44.3,0,0,1,290,125.25c6.16,4.47,9.78,10.46,13.1,17.41Z"/><path fill="#fff"  d="M295.26,156.16,293,154.49a1.32,1.32,0,0,0-1.4-.32l-.19.08-.08,0a3.76,3.76,0,0,0-1,.55,3.68,3.68,0,0,0-.8,4.92c1.19,1.88,4.09,2.83,5.73,1a4.84,4.84,0,0,0,1.13-2.8s0-.09,0-.14C296.42,157,295.83,156.58,295.26,156.16Z"/><path d="M262.58,149.26q-6.52,3.48-13.15,6.73c-3.05,1.5-8.23,4.67-11.81,3.75a16.05,16.05,0,0,0,7.2,0,32.47,32.47,0,0,0,6.86-2.34c1.1-.49,2.18-1,3.23-1.55l3.19-1.56,6.32-3.2,6.23-3.35c2.06-1.17,4.14-2.28,6.16-3.5,4.08-2.38,8.11-4.85,12-7.58a157.23,157.23,0,0,0-19.16,8.82C267.28,146.74,264.93,148,262.58,149.26Z"/><path fill="none"  d="M404.45,168.79c11.41.64,22.76,2.13,34.16,2.7,1.94.1,3.87.18,5.81.23h.18a70.33,70.33,0,0,1-7.4,9.78,44.91,44.91,0,0,1-9.92,8.2,36.93,36.93,0,0,1-11.86,4.55,43.91,43.91,0,0,1-12.7.48,57,57,0,0,1-6.33-1,39.85,39.85,0,0,1-16.95-8.1,32.9,32.9,0,0,1-8.16-9.47A53.41,53.41,0,0,1,367,166.4l17.57,1.2Z"/><path fill="none"  d="M365.23,142.86l15.34,6.66,7.51,3.25c4.28,1.85,8.32,4,12.46,6.14q2.56,1.26,5.19,2.43a86.17,86.17,0,0,0,15.34,5.6c5.73,1.31,11.83,1.37,17.68,1.65,1.91.09,3.83.16,5.76.19a4.15,4.15,0,0,0,.48-.93,15.3,15.3,0,0,0,.7-2.53,47.48,47.48,0,0,0,.66-11.14,52.13,52.13,0,0,0-1.66-11.08,32.44,32.44,0,0,0-4.63-10,35.5,35.5,0,0,0-7.64-8,38.24,38.24,0,0,0-9.75-5.36,47.07,47.07,0,0,0-22.17-2.63,44.3,44.3,0,0,0-20.93,8.08A46.33,46.33,0,0,0,365.23,142.86Zm15.49-6.18a157.79,157.79,0,0,1,19.15,8.82c2.37,1.24,4.72,2.5,7.07,3.76,4.35,2.32,8.72,4.56,13.15,6.73,3.05,1.5,8.23,4.67,11.81,3.75a16.05,16.05,0,0,1-7.2,0,32.75,32.75,0,0,1-6.87-2.34c-1.09-.49-2.18-1-3.23-1.55l-3.18-1.56-6.32-3.2-6.24-3.35c-2.05-1.17-4.13-2.28-6.15-3.5C388.63,141.88,384.6,139.41,380.72,136.68Z"/><path d="M362.18,155.9c-.4,7.68,2.26,15.19,6.31,21.63,11.12,17.68,34.22,25.11,53.57,16.94l.42-.18.58-.26,1.15-.55c.37-.18.74-.38,1.11-.57,8.95-4.72,16.46-12.22,20-21.26a2.54,2.54,0,0,0,.53-.2,3.21,3.21,0,0,0,1-.9,7.08,7.08,0,0,0,.86-1.61,19.26,19.26,0,0,0,.86-3,51,51,0,0,0,.74-11.86,55.69,55.69,0,0,0-1.74-11.73,34.76,34.76,0,0,0-5.12-10.85,39.54,39.54,0,0,0-3.84-4.62,36.6,36.6,0,0,0-4.54-3.91,42.46,42.46,0,0,0-10.53-5.55c-11.94-4.23-27-3.88-38.3,2.16a46.26,46.26,0,0,0-13.77,10.58C365.51,137.26,362.65,146.7,362.18,155.9Zm6.6,17a39.6,39.6,0,0,1-3.13-6.77c26.05,1.91,52.62,3.81,78.67,5.72a43.7,43.7,0,0,1-38.6,23.24,42.79,42.79,0,0,1-21-6A44.53,44.53,0,0,1,371,176.37C370.22,175.24,369.47,174.07,368.78,172.87ZM367,145.05c.11-.36.24-.72.36-1.08l12.35,6.3,7.41,3.78c4.23,2.11,8.23,4.55,12.4,6.75h0q2.58,1.37,5.21,2.61c3.5,1.66,7,3.25,10.68,4.64l.09,0-10-1L388,165.41a10.21,10.21,0,0,0,.3-1.33,1.91,1.91,0,0,0,.08-.44,1.72,1.72,0,0,0,0-.46c-.2-5-4.16-8.15-9.14-8.35h-.11a3.69,3.69,0,0,1,.8,4.92c-1.2,1.88-4.09,2.83-5.73,1a4.77,4.77,0,0,1-1.13-2.8,9,9,0,0,0-1.08,5.56c0,.17,0,.35.06.52l-6.13-.54A38.3,38.3,0,0,1,367,145.05Zm-.57-2.39c3.32-6.95,6.94-12.94,13.1-17.41a44.3,44.3,0,0,1,20.93-8.08,47.07,47.07,0,0,1,22.17,2.63,38.24,38.24,0,0,1,9.75,5.36,35.5,35.5,0,0,1,7.64,8,32.44,32.44,0,0,1,4.63,10,52.13,52.13,0,0,1,1.66,11.08,47.48,47.48,0,0,1-.66,11.14,15.3,15.3,0,0,1-.7,2.53,4.15,4.15,0,0,1-.48.93c-1.93,0-3.85-.1-5.76-.19-5.85-.28-11.95-.34-17.68-1.65a86.17,86.17,0,0,1-15.34-5.6c-8.43-3.74-16.86-7.78-25.16-11.82Z"/><path d="M406.94,149.26c4.35,2.32,8.72,4.56,13.15,6.73,3.05,1.5,8.23,4.67,11.81,3.75a16.05,16.05,0,0,1-7.2,0,32.75,32.75,0,0,1-6.87-2.34c-1.09-.49-2.18-1-3.23-1.55l-3.18-1.56-6.32-3.2-6.24-3.35c-2.05-1.17-4.13-2.28-6.15-3.5-4.08-2.38-8.11-4.85-12-7.58a157.79,157.79,0,0,1,19.15,8.82C402.24,146.74,404.59,148,406.94,149.26Z"/><path fill="none"  d="M404.37,169.08c11.42.64,22.77,2.13,34.16,2.7,1.94.1,3.87.18,5.81.23h.18a70.33,70.33,0,0,1-7.4,9.78,44.91,44.91,0,0,1-9.92,8.2,37,37,0,0,1-11.85,4.55,43.59,43.59,0,0,1-12.7.48,56.26,56.26,0,0,1-6.33-1,39.8,39.8,0,0,1-17-8.1,32.9,32.9,0,0,1-8.16-9.47,53.41,53.41,0,0,1-4.24-9.78l17.57,1.2Z"/><path fill="none"  d="M365.15,143.15l15.34,6.66,7.51,3.25c4.29,1.86,8.32,4,12.46,6.14,1.71.84,3.45,1.65,5.19,2.43a86.17,86.17,0,0,0,15.34,5.6c5.73,1.31,11.83,1.37,17.68,1.65,1.92.09,3.83.16,5.76.19a4.15,4.15,0,0,0,.48-.93,15.3,15.3,0,0,0,.7-2.53,47.48,47.48,0,0,0,.66-11.14,52.13,52.13,0,0,0-1.66-11.08,32.44,32.44,0,0,0-4.63-10,35.71,35.71,0,0,0-7.64-8,37.91,37.91,0,0,0-9.75-5.35,47.08,47.08,0,0,0-22.17-2.64,44.3,44.3,0,0,0-20.93,8.08A46.4,46.4,0,0,0,365.15,143.15ZM380.64,137a157.79,157.79,0,0,1,19.15,8.82c2.37,1.24,4.72,2.5,7.07,3.76q6.52,3.48,13.15,6.73c3.05,1.5,8.23,4.67,11.81,3.75a16.05,16.05,0,0,1-7.2,0,32.75,32.75,0,0,1-6.87-2.34c-1.09-.49-2.18-1-3.23-1.55l-3.18-1.56L405,151.4l-6.24-3.35c-2-1.17-4.13-2.28-6.15-3.5C388.55,142.17,384.52,139.7,380.64,137Z"/><path fill="none"  d="M399.48,161.09h0q2.58,1.36,5.21,2.61-2.62-1.24-5.21-2.61Z"/><path fill="#fcfcfc"  d="M367.32,144.26l12.35,6.3,7.41,3.78c4.23,2.11,8.23,4.55,12.4,6.75h0q2.58,1.36,5.21,2.61c3.5,1.66,7,3.25,10.68,4.64l.09,0-10-1L388,165.7a12.6,12.6,0,0,0,.31-1.32,1.63,1.63,0,0,0,.07-.45,1.72,1.72,0,0,0,0-.46c-.2-5-4.16-8.15-9.14-8.35h-.11a4,4,0,0,0-1-.55l-.07,0-.19-.08a1.31,1.31,0,0,0-1.4.32l-2.27,1.67c-.57.42-1.16.81-1.17,1.61,0,.05,0,.1,0,.14a9,9,0,0,0-1.08,5.56c0,.17,0,.35.06.52l-6.13-.53a38.33,38.33,0,0,1,1.1-18.41C367.07,145,367.2,144.62,367.32,144.26Z"/><path fill="#fff"  d="M374.17,156.45l2.27-1.67a1.31,1.31,0,0,1,1.4-.32l.19.08.07,0a4,4,0,0,1,1,.55,3.69,3.69,0,0,1,.8,4.92c-1.2,1.88-4.09,2.83-5.73,1a4.84,4.84,0,0,1-1.13-2.8s0-.09,0-.14C373,157.26,373.6,156.87,374.17,156.45Z"/><path d="M406.86,149.55q6.52,3.48,13.15,6.73c3.05,1.5,8.23,4.67,11.81,3.75a16.05,16.05,0,0,1-7.2,0,32.75,32.75,0,0,1-6.87-2.34c-1.09-.49-2.18-1-3.23-1.55l-3.18-1.56L405,151.4l-6.24-3.35c-2-1.17-4.13-2.28-6.15-3.5-4.08-2.38-8.11-4.85-12-7.58a157.79,157.79,0,0,1,19.15,8.82C402.16,147,404.51,148.29,406.86,149.55Z"/>        </g>        <g id="eye-color2">            <g opacity="0" ><path fill="#FFF471"  d="M292.91,147.82c-.14.46-.21.94-.36,1.41a15.55,15.55,0,0,1-1.35,2.86c-.52.94-1,1.9-1.54,2.83-.24.41-.49.8-.77,1.2-.14.21-.28.41-.43.61s-.45.47-.45.6c-.2.25-.39.5-.6.74-5.88,7.05-13.9,9.8-22.69,6.54-8.53-3.18-14.2-10.41-14.65-19.54a1.27,1.27,0,0,1,0-.28,2.66,2.66,0,0,1,0-.3,23.29,23.29,0,0,1,19.05-21.81A19,19,0,0,1,280.54,124c-15.3-7.7-34.36-2.93-39.3,15.33a20.54,20.54,0,0,0-.66,6.53,29.4,29.4,0,0,0,10.48,20.24c8.59,7.08,21.5,6.67,31,1.77,7.19-3.7,10-12.61,10.92-20.46C293,147.57,293,147.69,292.91,147.82Z"/></g><g opacity="0" ><path fill="#FFF471"  d="M416.66,141.76c-.23.62-.44,1.25-.69,1.86a26.23,26.23,0,0,1-2,3.66,31.67,31.67,0,0,1-2.54,3.43c-5.88,7-13.91,9.8-22.69,6.54-8.54-3.18-14.21-10.41-14.66-19.54a2.46,2.46,0,0,1,0-.28,1.45,1.45,0,0,1,0-.3,23.28,23.28,0,0,1,19-21.81,19,19,0,0,1,11.42,1.35c-15.3-7.7-34.36-2.93-39.3,15.33a21.13,21.13,0,0,0-.66,6.53,29.44,29.44,0,0,0,10.48,20.24c8.59,7.08,21.5,6.67,31,1.77,6.91-3.55,9.73-12,10.78-19.66C416.83,141.13,416.76,141.51,416.66,141.76Z"/></g>        </g>    </g>    <g id="nose-mouth">        <path fill="#fff"  d="M349.07,205.17c2.6-4.83-8.69-9.07-11.13-3C336.45,205.91,346.47,210,349.07,205.17Z"/><path d="M306.4,233.29l-.22.51-.18.45c-.11.3-.21.6-.34.89a17.64,17.64,0,0,1-.81,1.7,12.54,12.54,0,0,1-4.8,5.22,9.5,9.5,0,0,1-3.24,1.1,11.84,11.84,0,0,1-3.51-.08,4.06,4.06,0,0,1-.83-.17c-.25-.08-.52-.13-.77-.22a5.82,5.82,0,0,1-1.37-.79,6.29,6.29,0,0,1-1.15-1.1,8,8,0,0,1-.78-1.41,7.54,7.54,0,0,1-.49-1.57,7.76,7.76,0,0,1-.06-1.67,6.43,6.43,0,0,1,1-3.12c.08-.12.14-.24.22-.35l.29-.31a5.48,5.48,0,0,1,.58-.6,6.6,6.6,0,0,1,1.45-.92,4.57,4.57,0,0,1,.81-.37l.87-.24c.14,0,.29-.09.44-.12l.43-.06.44-.05h.43a3.75,3.75,0,0,1,1.63.38,4.37,4.37,0,0,1,1.29,1.18,8.15,8.15,0,0,1,1.21,3.65,7.58,7.58,0,0,0-.48-4,4.46,4.46,0,0,0-3.48-2.62l-.56-.09h-1.11c-.18,0-.36.05-.54.07l-1.08.17a7.12,7.12,0,0,0-1.06.32,7.89,7.89,0,0,0-3.67,2.62,8.15,8.15,0,0,0-1.75,4.23,9.1,9.1,0,0,0,.52,4.56,9.5,9.5,0,0,0,1.1,2.09,9,9,0,0,0,1.68,1.69,8.68,8.68,0,0,0,2,1.22c.37.15.76.24,1.13.35a5,5,0,0,0,1.12.25,14.87,14.87,0,0,0,4.42,0,11.57,11.57,0,0,0,4.23-1.56,14.14,14.14,0,0,0,5.46-6.65c.28-.65.53-1.31.74-2,.12-.33.19-.67.29-1l.13-.49.13-.42a7.2,7.2,0,0,1,1.76-3.07,13,13,0,0,1,6.78-3.45A12,12,0,0,0,309,229.8,8.83,8.83,0,0,0,306.4,233.29Z"/><path d="M374.79,222.28a7.94,7.94,0,0,0-4.32-2,7.38,7.38,0,0,0-4.54,1,5.68,5.68,0,0,0-2.91,3.47,5.52,5.52,0,0,0,.9,4.19,5.48,5.48,0,0,1-.1-3.94,4.71,4.71,0,0,1,2.75-2.4,5.74,5.74,0,0,1,6.6,1.39,7.51,7.51,0,0,1,1.9,6.58A9.4,9.4,0,0,1,371,236.3a10.37,10.37,0,0,1-7,1.78,10.64,10.64,0,0,1-3.52-1,10.28,10.28,0,0,1-2.92-2.26,9.11,9.11,0,0,1-1.15-1.51c-.35-.53-.58-1.14-.9-1.7a12.65,12.65,0,0,0-2.46-3.77,8.5,8.5,0,0,0-8.12-2.23,8.44,8.44,0,0,1,7,3.2,11.3,11.3,0,0,1,1.71,3.46,13.29,13.29,0,0,0,2.09,4,11.25,11.25,0,0,0,3.47,3.07,12.52,12.52,0,0,0,13.41-.57,12.14,12.14,0,0,0,5.17-7.74A9.81,9.81,0,0,0,374.79,222.28Z"/><path d="M333.27,240l-.24.11-.64-13.83a.51.51,0,0,1,0-.13c11-2,28.67-17.65,22.64-26.52-6.31-9.28-44.18.65-46,8.91-1.42,6.37,10,17.47,20.4,17.83v0l.7,15.05c-.38.19-.76.37-1.14.58a21.54,21.54,0,0,0-4,2.85,21.5,21.5,0,0,0,4.87-.66c.54-.13,1.07-.29,1.6-.45l.21,0h.07a1.49,1.49,0,0,0,.94-.4c.58-.2,1.16-.4,1.73-.62a34.06,34.06,0,0,0,4.32-2,21.08,21.08,0,0,0,4-2.85,21.5,21.5,0,0,0-4.87.66A35.42,35.42,0,0,0,333.27,240Zm4.67-37.77c2.44-6.1,13.73-1.86,11.13,3S336.45,205.91,337.94,202.2Z"/>    </g></svg>