<!--  ~ Copyright (C) 2018 Baidu, Inc. All Rights Reserved.  --><svg viewBox="0 0 640 480" xmlns="http://www.w3.org/2000/svg">    <g id="back-ground-cl">        <rect fill="none" width="640" height="480" />        <ellipse opacity="0.1" cx="331.93" cy="418.82" rx="168.39" ry="32.01"/>    </g>    <g id="body">        <defs>            <clipPath id="outline">                <path fill="none"  d="M160.05,333.15c-3.58-5.9-3.3-13-.58-19.25a13.76,13.76,0,0,1,6-6.84c2.6-1.38,4.51-.84,7.22-.85,2.4,0,5.77-.62,4.77-3.69a7.54,7.54,0,0,0-1.09-1.75,7.82,7.82,0,0,0-4.49-3.35c-4-1.16-8.86-.44-12.85.56-16.25,4.06-24.71,20.78-26.8,36.27C129.54,354,149.85,369.5,167,373.66a61.12,61.12,0,0,0,26.47.37,90.59,90.59,0,0,1-6.9-26.51C175.94,346.14,165.41,342,160.05,333.15Z"/><path fill="none"  d="M258.25,128q4.35-5.44,9.09-10.54a109.44,109.44,0,0,1,26.43-21c-11.2-9.39-22.06-19.2-33.66-28.1-5.07-3.88-10.25-8-16.07-10.68-8.33-3.89-15.54-2.62-22.11,3.8-16.17,15.79-25.3,35.47-33.63,56-2.85,7-6.35,14.31-12.63,18.91-2.66,1.94-5.92,2.67-6,6.52a8.34,8.34,0,0,0,4.11,7.15c4.63,3.09,10.49,3.83,15.93,3.59a54.82,54.82,0,0,0,28.91-10c7.45-5.2,14.53-11.57,23.54-13.92,5.08-1.32,10.34-1,15.51-1.64C257.88,128.1,258.06,128.06,258.25,128Z"/><path fill="none"  d="M376.27,98.3a120.48,120.48,0,0,1,13.07,8.34c12.85,5.91,23.72,16.66,32.35,27.83,7.08,9.18,13.26,19,20.46,28.11,4.72,6,11,10,17.61,3.92,3.42-3.14,5.67-7.4,7.62-11.55,5.46-11.58,11.08-23.16,15.88-35,1.35-3.35,3-6.57,2.76-10.22-.31-4.08-3.57-5.68-6.63-7.9-4.31-3.12-8.53-6.34-12.64-9.72A164.7,164.7,0,0,1,443,68.3c-2.69-3.35-4.83-6.44-9.61-6.48-3.43,0-7.26,1.1-10.62,1.67l-17.13,2.88c-19,3.21-42,5.42-55.86,20.29-.18.49-.36,1-.56,1.46A99.39,99.39,0,0,1,376.27,98.3Z"/><path fill="none"  d="M436.24,173c-9.43-18.92-19.18-36.8-34.42-51.77C388,107.62,371,96.63,352,91.79c-1.34-.34-2.69-.64-4-.91h0a4.74,4.74,0,0,0-.94-.18,37,37,0,0,0,2.45-7.64,35.23,35.23,0,0,1-9.73,9.85l-3.22,2.15,1.66-3.53a69.55,69.55,0,0,0,6.13-22.45c-1.63,2.48-3.29,5-5,7.38a107.76,107.76,0,0,1-9.05,11.24l-6,6.44,3.58-8.07A43.19,43.19,0,0,0,331,62.52c-1.28,4.22-2.56,8.44-3.87,12.65a86.84,86.84,0,0,1-3,8.92,21,21,0,0,1-2.42,4.23A13.38,13.38,0,0,1,318,91.67L315.85,93l.84-2.3a10,10,0,0,0-.78-8.24,31.83,31.83,0,0,1-2.15,8.68c-.09.24-.19.47-.3.71l-.76.14a77.44,77.44,0,0,0-19.41,8.11c-20,11.78-34.5,30.8-46.79,50.07a377.42,377.42,0,0,0-52.42,133.53c-1.65,9-3,18.11-3.92,27.25-2.94,30.42-1.68,70.59,28.43,87.67,2.13,1.21,13,3.79,8.39,7.39-2.4,1.85-14.49,3-13.86,6.68.69,4.07,12.39,4.42,15.14,4.63a154.25,154.25,0,0,0,17.6.25c.53,0,1.44,0,2.41,0,.15-1.73.14-3.58.16-5.42s0-3.86.06-5.79c.07-3.85.18-7.68.2-11.51A150.38,150.38,0,0,0,247.36,372a55.56,55.56,0,0,0-2.69-11.09,30.32,30.32,0,0,0-2.46-5.14,18.35,18.35,0,0,0-3.63-4.43h0a22.92,22.92,0,0,1,6.82,9.27,57.18,57.18,0,0,1,3.39,11.13,135,135,0,0,1,2.22,23.1c.11,3.87.11,7.73.1,11.57,0,1.92,0,3.83,0,5.75s.08,3.85-.07,5.9a14.63,14.63,0,0,1-.56,3.13l-.13.39c0,.14-.12.3-.18.45a6.36,6.36,0,0,1-.47.85,6.81,6.81,0,0,1-1.25,1.36A22,22,0,0,1,243,427c-1.7.71-3.31,1.6-3.6,2.6a1.92,1.92,0,0,0-.1.85,3.09,3.09,0,0,0,.06.5l.14.48a4.85,4.85,0,0,0,1.25,1.77c.12.11.27.21.4.32a5.43,5.43,0,0,1,.24-3.08,6.54,6.54,0,0,1,2.78-3.37,8.36,8.36,0,0,1,2-.77,12.23,12.23,0,0,1,1.87-.39,13.57,13.57,0,0,1,3.88-.05,13.47,13.47,0,0,1-3.14,2.29c-1.11.61-2.2,1.06-3,1.5a9.43,9.43,0,0,0-2.27,1.92,12.66,12.66,0,0,0-1.91,3l.47-.39a15.29,15.29,0,0,0,3.2,1.55,21.13,21.13,0,0,0,2.58.75,22.72,22.72,0,0,0,2.68.41l1.4.09a2.54,2.54,0,0,1-.43-.91,3.51,3.51,0,0,1,.15-2.17,7.13,7.13,0,0,1,2.47-3,10.06,10.06,0,0,1,3.24-1.62,7.37,7.37,0,0,1,3.65-.16,29.86,29.86,0,0,1-2.6,2.28c-.84.66-1.66,1.29-2.49,1.9a23.66,23.66,0,0,0-2.22,1.75,3.44,3.44,0,0,0-.74,1,2.5,2.5,0,0,0-.2,1.56l.54-.57a48.17,48.17,0,0,0,8.4-.42,36.26,36.26,0,0,0,5.41-1.12,15.05,15.05,0,0,0,4.66-2.47,20.69,20.69,0,0,0,3.79-3.86,25.49,25.49,0,0,0,2.85-4.7,12.1,12.1,0,0,0,.54-1.25c.15-.41.3-.82.42-1.28.27-.89.49-1.81.71-2.73l1.23-5.62c.81-3.76,1.61-7.53,2.58-11.28a113.26,113.26,0,0,1,3.46-11.06,48.77,48.77,0,0,1,5.15-10.35h0c-3.7,6.77-5.64,14.26-7.18,21.75-.78,3.71-1.42,7.45-2.06,11.2a311.41,311.41,0,0,0,33.1,5.42c21.48,2.29,43.63,2.36,64.74-2.67a86.22,86.22,0,0,0,8.66-2.58c0-.15-.06-.3-.08-.45-.63-3.71-.81-7.39-1.25-11-.2-1.8-.5-3.61-.78-5.43s-.56-3.63-.94-5.41a31.1,31.1,0,0,0-1.71-5.18c-.65-1.72-1.25-3.46-1.84-5.2.73,1.69,1.47,3.37,2.26,5a31.94,31.94,0,0,1,2.07,5.16c.49,1.79.87,3.59,1.27,5.39s.81,3.59,1.13,5.43c.62,3.66,1,7.32,1.72,10.85a32.65,32.65,0,0,0,1.5,5.11A27.37,27.37,0,0,0,395.5,423a20.1,20.1,0,0,0,7.48,7,12.63,12.63,0,0,0,2.34.92c.8.24,1.7.43,2.56.61a45,45,0,0,0,5.3.72,51.54,51.54,0,0,0,5.7.11l.54.56a2.54,2.54,0,0,0-.2-1.55,3.32,3.32,0,0,0-.74-1,22.12,22.12,0,0,0-2.22-1.75c-.83-.61-1.65-1.24-2.49-1.91a29.47,29.47,0,0,1-2.61-2.27,7.41,7.41,0,0,1,3.66.16,9.82,9.82,0,0,1,3.23,1.62,7.1,7.1,0,0,1,2.48,3,3.62,3.62,0,0,1,.15,2.18,2.79,2.79,0,0,1-.44.92c1.2-.09,2.39-.2,3.54-.4a20.31,20.31,0,0,0,4.86-1.57,13.17,13.17,0,0,0,1.48-.83l.46.38a12.77,12.77,0,0,0-1.91-3A9.43,9.43,0,0,0,426.4,425c-.84-.44-1.93-.89-3-1.5a13.63,13.63,0,0,1-3.13-2.29,13.57,13.57,0,0,1,3.88.05,12.23,12.23,0,0,1,1.87.39,8.36,8.36,0,0,1,2,.77,6.56,6.56,0,0,1,2.78,3.36,5.4,5.4,0,0,1,.23,3.12,5.91,5.91,0,0,0,1.3-1.41,3.82,3.82,0,0,0,.57-1.85,2.2,2.2,0,0,0-.11-.84,1.94,1.94,0,0,0-.41-.72c-.78-.95-2.46-1.64-4.13-2.28a21.47,21.47,0,0,1-5.32-2.59,7.46,7.46,0,0,1-1.23-1.22,5,5,0,0,1-.88-1.71,9.08,9.08,0,0,1-.27-1.57c-.06-.52-.09-1-.1-1.48a111.51,111.51,0,0,1,.44-11.18c.28-3.68.68-7.35,1.13-11,.89-7.33,2-14.61,3.48-21.85.76-3.61,1.6-7.2,2.61-10.75.51-1.78,1.06-3.54,1.74-5.26a21.32,21.32,0,0,1,1.17-2.52,8,8,0,0,1,1.29-1.85,4,4,0,0,1,.37-.35,7.2,7.2,0,0,0-1.46,2.3,20.74,20.74,0,0,0-.94,2.57c-.56,1.74-1,3.51-1.4,5.3-.79,3.58-1.4,7.19-1.94,10.82-1.1,7.25-1.92,14.54-2.6,21.83-.33,3.65-.61,7.31-.83,10.95-.2,3.41-.36,6.86-.25,10.19,5.42.86,11.33.45,16.69.29A155,155,0,0,0,459,411.22c2.36-.36,3.95,0,2.58-2.29-1.6-2.7-4-4-6.92-5-2.42-.82-9.31-1-10.72-3.45-.76-1.34.09-2,1-2.94,1.35-1.35,4-2.21,5.61-3.24q3-1.89,5.8-4A69.52,69.52,0,0,0,475.12,368c9-16.7,10.93-36.3,9.17-54.93C482,289.38,475,265.78,467,243.43,458.39,219.28,447.67,195.93,436.24,173Z"/><path d="M453.83,203c-5.4-12-11.14-23.86-17.05-35.62-5.06-10.06-10.07-20.08-16.63-29.27q-3.45-4.86-7.33-9.43a219.21,219.21,0,0,1,15.57,20c3.71,5.25,7.36,10.57,11.35,15.61,3,3.78,6.39,7.71,11.47,8.33,9.41,1.16,15.38-9,18.76-16.2,5.83-12.38,11.84-24.74,16.87-37.47,1.63-4.13,3.9-8.76,1.59-13.08-2.53-4.74-9-7.72-13.1-10.85a173.65,173.65,0,0,1-28.54-26.85c-3.15-3.8-6-8.57-11.3-9.31-6.08-.84-13.22,1.63-19.22,2.65-21.21,3.57-47.81,5-65,19.61.11-.61.21-1.21.3-1.82l.55-4-2,3.59a33.45,33.45,0,0,1-6.45,8.22L342.6,87a68.33,68.33,0,0,0,2.76-8.41,70.94,70.94,0,0,0,2.13-14.72l.19-5L344.91,63c-2.64,3.94-5.21,7.91-8,11.72Q335,77.39,333,79.93a45.09,45.09,0,0,0-.48-23.32l-1.33-4.54-1.29,4.53c-1.7,6-3.41,11.93-5.06,17.91a87,87,0,0,1-2.7,8.77,20.76,20.76,0,0,1-2.05,3.91h0l-1.26.2a11.2,11.2,0,0,0-2.95-7.22L314.79,79v1.58a30.72,30.72,0,0,1-1,7.86A81,81,0,0,0,296.56,95a1.62,1.62,0,0,0-.25-.28C285,85.23,274,75.35,262.37,66.34,253.49,59.5,241.31,49.1,229.16,53c-5.27,1.7-9.22,6-12.84,10a136.25,136.25,0,0,0-12.8,16.4,159.55,159.55,0,0,0-16.22,32.39,85.1,85.1,0,0,1-6.31,14,29.37,29.37,0,0,1-5.23,6.62c-2.15,2-5.18,2.79-7.14,4.83-6.34,6.62,1.61,15.05,7.81,17.47,10.12,3.95,22.32,1.59,32.15-2.15,10.51-4,18.17-12.59,28.12-17.56,6.16-3.09,12.44-3.09,19-3.72-11,14.4-20.23,30.38-28.47,46.32a380.09,380.09,0,0,0-27.51,69.12q-5.13,17.82-8.5,36.06c-3.45,19-6.77,40.77-5,61.39-13.52-2.25-28.79-9.5-25.39-24.85.72-3.22,2-6.56,4.64-8.66,4.41-3.49,8.54.65,12.92-1.44s2.51-7.49.27-10.52c-7.91-10.73-27.31-3-35,4.3-9.48,8.95-16.45,25.8-14.34,38.87,2.64,16.29,18,28.65,32.9,33.49a62.47,62.47,0,0,0,32.55,1.4,68.93,68.93,0,0,0,3.4,6.1,54.13,54.13,0,0,0,16.36,16.68,56.11,56.11,0,0,0,5.29,3c.46.22,2,1.13,3.24,1.71l-.31.12c-1.78.63-3.6,1.16-5.37,1.81-3.43,1.26-9.09,3.22-6.82,8,1.87,3.91,8,4.8,11.7,5.38a117.09,117.09,0,0,0,20,1c1.45,0,3.43.1,5.43.05a3.56,3.56,0,0,1-.29.54,3.81,3.81,0,0,1-.71.75,20.38,20.38,0,0,1-4.77,2.37,17.66,17.66,0,0,0-2.81,1.42,5.9,5.9,0,0,0-2.43,2.88,6.53,6.53,0,0,0,2.08,6.76,11.83,11.83,0,0,0,2.66,1.88,18.89,18.89,0,0,0,2.85,1.26,23.66,23.66,0,0,0,3,.83,25,25,0,0,0,3,.44,49,49,0,0,0,11.86-.34,38.78,38.78,0,0,0,5.85-1.33,17.68,17.68,0,0,0,5.43-3,25.22,25.22,0,0,0,7.16-9.66,18.6,18.6,0,0,0,1-2.89c.26-1,.46-1.93.66-2.88s.37-1.91.54-2.87c22.29,4.82,45.23,7.68,68.06,6.77a160.19,160.19,0,0,0,32.55-4.43c2.39-.6,4.77-1.27,7.12-2a28.63,28.63,0,0,0,3.1,7.11,21.81,21.81,0,0,0,8.26,8.08,15.91,15.91,0,0,0,2.76,1.15c1,.3,1.85.51,2.78.72a48.77,48.77,0,0,0,5.61.87,45.84,45.84,0,0,0,11.39-.31,23.43,23.43,0,0,0,5.6-1.79,14.28,14.28,0,0,0,2.63-1.57A9,9,0,0,0,434.8,429a6.86,6.86,0,0,0,1-3.36,5.1,5.1,0,0,0-1.23-3.53,8.34,8.34,0,0,0-2.67-2c-.91-.45-1.81-.8-2.68-1.13a19.28,19.28,0,0,1-4.6-2.14,4.11,4.11,0,0,1-.73-.71,1.76,1.76,0,0,1-.38-.71l0-.12.83.07a142.53,142.53,0,0,0,20.87,0c5.56-.3,11.91-.22,17.3-1.84,3.77-1.14,2.9-4.87.85-7.65-3.27-4.44-9.45-5.46-14.46-6.64l-.43-.13c.94-.57,1.95-1.32,2.34-1.55a76.39,76.39,0,0,0,11.85-8.79c14-12.67,21.84-30.36,24.29-48.89,2.85-21.53-1.3-43.23-6.67-64C473.77,250.85,464.43,226.61,453.83,203,405.65,66.37l17.13-2.88c3.36-.57,7.19-1.69,10.62-1.67,4.78,0,6.92,3.13,9.61,6.48a164.7,164.7,0,0,0,23.74,23.78c4.11,3.38,8.33,6.6,12.64,9.72,3.06,2.22,6.32,3.82,6.63,7.9.28,3.65-1.41,6.87-2.76,10.22-4.8,11.87-10.42,23.45-15.88,35-1.95,4.15-4.2,8.41-7.62,11.55-6.61,6.06-12.89,2-17.61-3.92-7.2-9.08-13.38-18.93-20.46-28.11-8.63-11.17-19.5-21.92-32.35-27.83a120.48,120.48,0,0,0-13.07-8.34,99.39,99.39,0,0,0-27-10.18c.2-.48.38-1,.56-1.46C363.64,71.79,386.63,69.58,405.65,66.37,242.17,129.76c-9,2.35-16.09,8.72-23.54,13.92a54.82,54.82,0,0,1-28.91,10c-5.44.24-11.3-.5-15.93-3.59a8.34,8.34,0,0,1-4.11-7.15c.07-3.85,3.33-4.58,6-6.52,6.28-4.6,9.78-11.89,12.63-18.91,8.33-20.57,17.46-40.25,33.63-56,6.57-6.42,13.78-7.69,22.11-3.8,5.82,2.72,11,6.8,16.07,10.68,11.6,8.9,22.46,18.71,33.66,28.1a109.44,109.44,0,0,0-26.43,21q-4.75,5.08-9.09,10.54c-.19,0-.37.07-.57.09C252.51,128.74,247.25,128.44,242.17,129.76,167,373.66c-17.1-4.16-37.41-19.67-34.73-39.41C134.31,318.76,142.77,302,159,298c4-1,8.82-1.72,12.85-.56a7.82,7.82,0,0,1,4.49,3.35,7.54,7.54,0,0,1,1.09,1.75c1,3.07-2.37,3.67-4.77,3.69-2.71,0-4.62-.53-7.22.85a13.76,13.76,0,0,0-6,6.84c-2.72,6.2-3,13.35.58,19.25,5.36,8.84,15.89,13,26.47,14.37a90.59,90.59,0,0,0,6.9,26.51A61.12,61.12,0,0,1,167,373.66,475.12,368a69.52,69.52,0,0,1-18.79,22.2q-2.81,2.16-5.8,4c-1.64,1-4.26,1.89-5.61,3.24-.88.89-1.73,1.6-1,2.94,1.41,2.48,8.3,2.63,10.72,3.45,2.94,1,5.32,2.32,6.92,5,1.37,2.3-.22,1.93-2.58,2.29a155,155,0,0,1-19.14,1.46c-5.36.16-11.27.57-16.69-.29-.11-3.33.05-6.78.25-10.19.22-3.64.5-7.3.83-10.95.68-7.29,1.5-14.58,2.6-21.83.54-3.63,1.15-7.24,1.94-10.82.39-1.79.84-3.56,1.4-5.3a20.74,20.74,0,0,1,.94-2.57,7.2,7.2,0,0,1,1.46-2.3,4,4,0,0,0-.37.35,8,8,0,0,0-1.29,1.85,21.32,21.32,0,0,0-1.17,2.52c-.68,1.72-1.23,3.48-1.74,5.26-1,3.55-1.85,7.14-2.61,10.75-1.45,7.24-2.59,14.52-3.48,21.85-.45,3.66-.85,7.33-1.13,11a111.51,111.51,0,0,0-.44,11.18c0,.47,0,1,.1,1.48a9.08,9.08,0,0,0,.27,1.57,5,5,0,0,0,.88,1.71,7.46,7.46,0,0,0,1.23,1.22,21.47,21.47,0,0,0,5.32,2.59c1.67.64,3.35,1.33,4.13,2.28a1.94,1.94,0,0,1,.41.72,2.2,2.2,0,0,1,.11.84,3.82,3.82,0,0,1-.57,1.85,5.91,5.91,0,0,1-1.3,1.41,5.4,5.4,0,0,0-.23-3.12,6.56,6.56,0,0,0-2.78-3.36,8.36,8.36,0,0,0-2-.77,12.23,12.23,0,0,0-1.87-.39,13.57,13.57,0,0,0-3.88-.05,13.63,13.63,0,0,0,3.13,2.29c1.12.61,2.21,1.06,3,1.5a9.43,9.43,0,0,1,2.27,1.92,12.77,12.77,0,0,1,1.91,3l-.46-.38a13.17,13.17,0,0,1-1.48.83,20.31,20.31,0,0,1-4.86,1.57c-1.15.2-2.34.31-3.54.4a2.79,2.79,0,0,0,.44-.92,3.62,3.62,0,0,0-.15-2.18,7.1,7.1,0,0,0-2.48-3,9.82,9.82,0,0,0-3.23-1.62,7.41,7.41,0,0,0-3.66-.16,29.47,29.47,0,0,0,2.61,2.27c.84.67,1.66,1.3,2.49,1.91a22.12,22.12,0,0,1,2.22,1.75,3.32,3.32,0,0,1,.74,1,2.54,2.54,0,0,1,.2,1.55l-.54-.56a51.54,51.54,0,0,1-5.7-.11,45,45,0,0,1-5.3-.72c-.86-.18-1.76-.37-2.56-.61A12.63,12.63,0,0,1,403,430a20.1,20.1,0,0,1-7.48-7,27.37,27.37,0,0,1-2.44-4.68,32.65,32.65,0,0,1-1.5-5.11c-.76-3.53-1.1-7.19-1.72-10.85-.32-1.84-.74-3.63-1.13-5.43s-.78-3.6-1.27-5.39a31.94,31.94,0,0,0-2.07-5.16c-.79-1.66-1.53-3.34-2.26-5,.59,1.74,1.19,3.48,1.84,5.2a31.1,31.1,0,0,1,1.71,5.18c.38,1.78.65,3.6.94,5.41s.58,3.63.78,5.43c.44,3.62.62,7.3,1.25,11,0,.15.05.3.08.45a86.22,86.22,0,0,1-8.66,2.58c-21.11,5-43.26,5-64.74,2.67a311.41,311.41,0,0,1-33.1-5.42c.64-3.75,1.28-7.49,2.06-11.2,1.54-7.49,3.48-15,7.18-21.75h0a48.77,48.77,0,0,0-5.15,10.35,113.26,113.26,0,0,0-3.46,11.06c-1,3.75-1.77,7.52-2.58,11.28L280,419.24c-.22.92-.44,1.84-.71,2.73-.12.46-.27.87-.42,1.28a12.1,12.1,0,0,1-.54,1.25,25.49,25.49,0,0,1-2.85,4.7,20.69,20.69,0,0,1-3.79,3.86,15.05,15.05,0,0,1-4.66,2.47,36.26,36.26,0,0,1-5.41,1.12,48.17,48.17,0,0,1-8.4.42l-.54.57a2.5,2.5,0,0,1,.2-1.56,3.44,3.44,0,0,1,.74-1,23.66,23.66,0,0,1,2.22-1.75c.83-.61,1.65-1.24,2.49-1.9a29.86,29.86,0,0,0,2.6-2.28,7.37,7.37,0,0,0-3.65.16,10.06,10.06,0,0,0-3.24,1.62,7.13,7.13,0,0,0-2.47,3,3.51,3.51,0,0,0-.15,2.17,2.54,2.54,0,0,0,.43.91l-1.4-.09a22.72,22.72,0,0,1-2.68-.41,21.13,21.13,0,0,1-2.58-.75,15.29,15.29,0,0,1-3.2-1.55l-.47.39a12.66,12.66,0,0,1,1.91-3,9.43,9.43,0,0,1,2.27-1.92c.84-.44,1.93-.89,3-1.5a13.47,13.47,0,0,0,3.14-2.29,13.57,13.57,0,0,0-3.88.05,12.23,12.23,0,0,0-1.87.39,8.36,8.36,0,0,0-2,.77,6.54,6.54,0,0,0-2.78,3.37,5.43,5.43,0,0,0-.24,3.08c-.13-.11-.28-.21-.4-.32a4.85,4.85,0,0,1-1.25-1.77l-.14-.48a3.09,3.09,0,0,1-.06-.5,1.92,1.92,0,0,1,.1-.85c.29-1,1.9-1.89,3.6-2.6a22,22,0,0,0,5.47-2.83,6.81,6.81,0,0,0,1.25-1.36,6.36,6.36,0,0,0,.47-.85c.06-.15.13-.31.18-.45l.13-.39a14.63,14.63,0,0,0,.56-3.13c.15-2.05.09-4,.07-5.9s0-3.83,0-5.75c0-3.84,0-7.7-.1-11.57a135,135,0,0,0-2.22-23.1,57.18,57.18,0,0,0-3.39-11.13,22.92,22.92,0,0,0-6.82-9.27h0a18.35,18.35,0,0,1,3.63,4.43,30.32,30.32,0,0,1,2.46,5.14A55.56,55.56,0,0,1,247.36,372a150.38,150.38,0,0,1,1.33,22.87c0,3.83-.13,7.66-.2,11.51,0,1.93-.06,3.87-.06,5.79s0,3.69-.16,5.42c-1,0-1.88,0-2.41,0a154.25,154.25,0,0,1-17.6-.25c-2.75-.21-14.45-.56-15.14-4.63-.63-3.64,11.46-4.83,13.86-6.68,4.66-3.6-6.26-6.18-8.39-7.39-30.11-17.08-31.37-57.25-28.43-87.67.89-9.14,2.27-18.22,3.92-27.25A377.42,377.42,0,0,1,246.5,150.12c12.29-19.27,26.78-38.29,46.79-50.07a77.44,77.44,0,0,1,19.41-8.11l.76-.14c.11-.24.21-.47.3-.71a31.83,31.83,0,0,0,2.15-8.68,10,10,0,0,1,.78,8.24l-.84,2.3L318,91.67a13.38,13.38,0,0,0,3.68-3.35,21,21,0,0,0,2.42-4.23,86.84,86.84,0,0,0,3-8.92c1.31-4.21,2.59-8.43,3.87-12.65a43.19,43.19,0,0,1-3.17,23.55l-3.58,8.07,6-6.44a107.76,107.76,0,0,0,9.05-11.24c1.73-2.43,3.39-4.9,5-7.38a69.55,69.55,0,0,1-6.13,22.45l-1.66,3.53,3.22-2.15a35.23,35.23,0,0,0,9.73-9.85,37,37,0,0,1-2.45,7.64,4.74,4.74,0,0,1,.94.18h0c1.34.27,2.69.57,4,.91,18.94,4.84,36,15.83,49.8,29.43,15.24,15,25,32.85,34.42,51.77,11.43,22.94,22.15,46.29,30.8,70.44,8,22.35,15,45.95,17.25,69.67C486.05,331.73,484.08,351.33,475.12,368Z"/>            </clipPath>        </defs>        <g clip-path="url(#outline)">            <rect fill="#AED4D2" width="640" height="480" />        </g>    </g>    <g id="pattern">        <g clip-path="url(#outline)">            <path fill="#FFFFD2"  d="M452.2,315a10.59,10.59,0,0,0,4.79-3.93,9.23,9.23,0,0,0,1.6-5.73,41.53,41.53,0,0,1-3.94,3.62,16.43,16.43,0,0,1-4,2.36,30.14,30.14,0,0,1-4.62,1.5c-1.65.41-3.39.77-5.33,1.21a11,11,0,0,0,5.55,1.92A13,13,0,0,0,452.2,315Z"/><path fill="#FFFFD2"  d="M197.27,349.6a19,19,0,0,0,7.35,4.14,16.14,16.14,0,0,0,8.24.34,55.25,55.25,0,0,1-7-3.24,32.19,32.19,0,0,1-5.9-4.23,48.7,48.7,0,0,1-5.1-5.33c-1.62-1.95-3.16-4-4.78-6.21A18.77,18.77,0,0,0,192.2,343,22.58,22.58,0,0,0,197.27,349.6Z"/><path fill="#FFFFD2"  d="M224.91,397.06a23.36,23.36,0,0,0,2.64.15,28.34,28.34,0,0,0,5.22-.35,7.8,7.8,0,0,0,1.28-.23l1.26-.32c.84-.21,1.66-.45,2.48-.69a44.9,44.9,0,0,0,4.68-2.12c-1.74,0-3.39.1-5,.19-.83,0-1.65,0-2.46,0s-1.62.11-2.43,0c-1.6-.11-3.2,0-4.76-.29-.77-.12-1.57-.11-2.33-.28l-2.3-.43a35.06,35.06,0,0,1-8.7-3.22,33.37,33.37,0,0,1-7.82-5.77,17.75,17.75,0,0,0,6.07,8.37,24.09,24.09,0,0,0,9.59,4.52Z"/><path fill="#FFFFD2"  d="M251,301.11c-1.48-.12-2.88,0-4.28,0s-2.76,0-4.12,0-2.7,0-4-.2-2.63-.26-3.94-.41a46.36,46.36,0,0,1-7.65-1.86,39.27,39.27,0,0,1-7.48-3.43,15.66,15.66,0,0,0,6.14,6.26,23.48,23.48,0,0,0,8.39,3l2.22.23a20.78,20.78,0,0,0,2.23,0,25.62,25.62,0,0,0,4.38-.46A33.12,33.12,0,0,0,247,303,32.27,32.27,0,0,0,251,301.11Z"/><path fill="#FFFFD2"  d="M198.49,370.35a8.42,8.42,0,0,0,7.1,2.09,6.64,6.64,0,0,0,3.48-1.68,21.91,21.91,0,0,0-3.27-1.46c-1-.33-1.93-.68-2.87-.92s-1.87-.53-2.89-.76-2.1-.45-3.46-.67A5.88,5.88,0,0,0,198.49,370.35Z"/><path fill="#FFFFD2"  d="M210.13,304.93c-1.31-.16-2.58-.47-3.85-.74a43.64,43.64,0,0,1-7.38-2.5,37.13,37.13,0,0,1-7-4.11,15.36,15.36,0,0,0,5.44,6.8,22.62,22.62,0,0,0,8,3.7l2.18.42a20,20,0,0,0,2.19.21,25.6,25.6,0,0,0,4.38-.1,33.39,33.39,0,0,0,4.26-.82,31.83,31.83,0,0,0,4-1.59c-1.46-.24-2.85-.27-4.23-.37s-2.74-.2-4.08-.37S211.42,305.21,210.13,304.93Z"/><path fill="#FFFFD2"  d="M471.52,331.27a14.34,14.34,0,0,0,5.83-.49,16.14,16.14,0,0,0,5.14-2.58,20.19,20.19,0,0,0,2.11-1.92,15.24,15.24,0,0,0,1.66-2.37,17.24,17.24,0,0,0-2.73.72c-.89.22-1.7.54-2.53.8-1.64.52-3.2,1.07-4.77,1.52s-3.13.86-4.76,1.18a40.54,40.54,0,0,1-5.25.73A9,9,0,0,0,471.52,331.27Z"/><path fill="#FFFFD2"  d="M408.74,407.11c-.92,0-1.78.07-2.65.1-1.72.07-3.37.18-5,.2s-3.25,0-4.91-.12a41.48,41.48,0,0,1-5.25-.69,9,9,0,0,0,4.47,3.72,14.23,14.23,0,0,0,5.75,1.08,16.1,16.1,0,0,0,5.64-1.12,17.86,17.86,0,0,0,2.54-1.3,15.65,15.65,0,0,0,2.24-1.84A19.24,19.24,0,0,0,408.74,407.11Z"/><path fill="#FFFFD2"  d="M410.59,370.63c-1.67.41-3.26.86-4.86,1.2s-3.18.66-4.83.88a40.42,40.42,0,0,1-5.28.38,9.09,9.09,0,0,0,5.13,2.75,14.41,14.41,0,0,0,5.85-.1,16.05,16.05,0,0,0,5.29-2.25,18.32,18.32,0,0,0,2.23-1.78,14.76,14.76,0,0,0,1.82-2.26,19,19,0,0,0-2.78.55C412.27,370.16,411.43,370.42,410.59,370.63Z"/><path fill="#FFFFD2"  d="M241,384.12a39,39,0,0,1-5.82-1.48,37.4,37.4,0,0,1-5.52-2.36,63.23,63.23,0,0,1-5.58-3.27,12.89,12.89,0,0,0,3.75,5.82,16.62,16.62,0,0,0,6.06,3.59,16.79,16.79,0,0,0,7,.85,15.81,15.81,0,0,0,3.42-.67,16.51,16.51,0,0,0,3.14-1.44c-1.16-.29-2.25-.33-3.32-.51S242,384.38,241,384.12Z"/><path fill="#FFFFD2"  d="M207.65,319.48c.52,0,1,.08,1.55.1a8.81,8.81,0,0,0,1.54-.05c.52,0,1-.12,1.53-.19a14.71,14.71,0,0,0,2.95-.95,27.94,27.94,0,0,0-2.83-1l-1.35-.46-.67-.19-.65-.25c-.43-.15-.86-.3-1.29-.43l-1.26-.47a10.16,10.16,0,0,1-1.23-.49c-.41-.17-.83-.31-1.23-.49-1.6-.7-3.16-1.49-4.73-2.37s-3.14-1.87-4.85-3.06a10.67,10.67,0,0,0,2.87,5.49,15.51,15.51,0,0,0,5.12,3.61,16.76,16.76,0,0,0,3,.95C206.62,319.3,207.13,319.43,207.65,319.48Z"/><path fill="#FFFFD2"  d="M217.52,335.45a16.34,16.34,0,0,0,3.68-.81,17.09,17.09,0,0,0,3.35-1.65c-1.27-.21-2.44-.15-3.61-.29s-2.28-.17-3.39-.4a34.56,34.56,0,0,1-6.36-1.45,39.54,39.54,0,0,1-6.07-2.52c-2-1-4-2.17-6.09-3.48a14.9,14.9,0,0,0,4.32,6.06,18.54,18.54,0,0,0,6.6,3.74A17.73,17.73,0,0,0,217.52,335.45Z"/><path fill="#FFFFD2"  d="M274.84,395.63a54.9,54.9,0,0,1-5.85-1,55.64,55.64,0,0,1-5.73-1.59c-1.93-.63-3.85-1.35-6-2.17a13.41,13.41,0,0,0,4.55,5,18,18,0,0,0,6.26,2.69,17.8,17.8,0,0,0,6.82.22,15.48,15.48,0,0,0,3.27-.87,15.26,15.26,0,0,0,3-1.58c-1.15-.23-2.21-.22-3.27-.36S275.85,395.8,274.84,395.63Z"/><path fill="#FFFFD2"  d="M230.62,365.14c-1.45-.43-2.85-.73-4.18-1.14s-2.66-.77-4-1.28a23.59,23.59,0,0,1-4.11-2,6.88,6.88,0,0,0,2.38,4.64,11.34,11.34,0,0,0,4.59,2.52,13.39,13.39,0,0,0,5.06.43,16.94,16.94,0,0,0,2.47-.53,11.74,11.74,0,0,0,2.33-1.09,14.75,14.75,0,0,0-2.35-.87C232.09,365.53,231.34,365.32,230.62,365.14Z"/><path fill="#FFFFD2"  d="M270.52,408.65a15.58,15.58,0,0,0,2.31-2.21,27.74,27.74,0,0,0-3.08.4c-.49.06-1,.11-1.45.19-.24,0-.47.07-.71.12l-.7.05q-.7.06-1.38.15l-1.36.06c-.23,0-.45,0-.67,0l-.67,0c-.45,0-.89,0-1.33,0a27.19,27.19,0,0,1-5.3-.8,42.62,42.62,0,0,1-5.62-1.8A10.58,10.58,0,0,0,255,409.5a13.71,13.71,0,0,0,6.32,1.9,15.32,15.32,0,0,0,1.66,0l.83-.06c.28,0,.55-.08.82-.14.54-.12,1.08-.21,1.61-.37s1-.37,1.52-.57a7.88,7.88,0,0,0,1.45-.73C269.62,409.24,270.08,409,270.52,408.65Z"/><path fill="#FFFFD2"  d="M450.25,375.6a10.49,10.49,0,0,0,4.83,3.94,13.47,13.47,0,0,0,6.31,1.08,12.27,12.27,0,0,0,1.6-.2,10.53,10.53,0,0,0,1.57-.37c.5-.18,1-.34,1.51-.53s.95-.48,1.41-.74a7.12,7.12,0,0,0,1.32-.86c.41-.32.82-.65,1.21-1a10.66,10.66,0,0,0,1.05-1.16,11.55,11.55,0,0,0,.91-1.26c-1.07.17-2,.48-2.93.71-.47.11-.93.21-1.38.33l-.67.19c-.22,0-.45.07-.67.12-.45.09-.88.18-1.31.3s-.88.12-1.31.19a7.86,7.86,0,0,1-1.28.16,9.38,9.38,0,0,1-1.29.12,29.4,29.4,0,0,1-5.21-.11A53.17,53.17,0,0,1,450.25,375.6Z"/><path fill="#FFFFD2"  d="M478,348a31.85,31.85,0,0,1-9.34,3.85,42.7,42.7,0,0,1-10.22,1.1,79.6,79.6,0,0,1-10.73-.8,27.29,27.29,0,0,0,10.46,3.92,28.76,28.76,0,0,0,11.42-.33,24.11,24.11,0,0,0,10.28-5.22,22.55,22.55,0,0,0,6.4-9.23A48.67,48.67,0,0,1,478,348Z"/><path fill="#FFFFD2"  d="M478.37,297.44a10.62,10.62,0,0,0,2.19-5.91,52.63,52.63,0,0,1-4.42,3.69,23.88,23.88,0,0,1-4.5,2.6,42.75,42.75,0,0,1-5,1.86c-1.77.54-3.61,1-5.63,1.62a12.32,12.32,0,0,0,6.05,1.48,15.07,15.07,0,0,0,6.23-1.32A12.65,12.65,0,0,0,478.37,297.44Z"/><path fill="#FFFFD2"  d="M436.35,389.41a7.43,7.43,0,0,0,4,.11,7.77,7.77,0,0,0,3.43-1.86,7.4,7.4,0,0,0,1.23-1.5,6.91,6.91,0,0,0,.72-1.87,13.39,13.39,0,0,0-1.9.29c-.59.08-1.09.26-1.61.35-1,.27-1.93.46-2.82.71l-2.77.65c-1,.23-2,.45-3.39.72A5.23,5.23,0,0,0,436.35,389.41Z"/><path fill="#FFFFD2"  d="M471.72,315.62a24,24,0,0,1-3.27,1.84,22.93,22.93,0,0,1-3.5,1.34c-1.28.39-2.63.72-4.25,1.13a7.47,7.47,0,0,0,4.46,2,9.38,9.38,0,0,0,5-.84,9.14,9.14,0,0,0,3.83-3.28,8.91,8.91,0,0,0,1.09-2.21,8.72,8.72,0,0,0,.35-2.44,23,23,0,0,0-2,1.3C472.81,314.84,472.31,315.3,471.72,315.62Z"/><path fill="#FFFFD2"  d="M450.25,367.65A25.15,25.15,0,0,1,447,369.5a24.14,24.14,0,0,1-3.51,1.33c-1.27.39-2.63.72-4.25,1.13a7.44,7.44,0,0,0,4.47,2,9.35,9.35,0,0,0,9.89-6.33,9.12,9.12,0,0,0,.36-2.44,21.74,21.74,0,0,0-2,1.3C451.34,366.87,450.85,367.34,450.25,367.65Z"/><path fill="#FFFFD2"  d="M459.37,334.92c-.74.23-1.39.56-2.05.8a36.45,36.45,0,0,1-3.74,1.25,19.58,19.58,0,0,1-3.76.54,27,27,0,0,1-4.46-.17,6.89,6.89,0,0,0,3.9,3.26,9.42,9.42,0,0,0,5.29.26,10.46,10.46,0,0,0,4.51-2.52,11.33,11.33,0,0,0,1.59-1.94,10.63,10.63,0,0,0,1-2.32A14.71,14.71,0,0,0,459.37,334.92Z"/><path fill="#FFFFD2"  d="M409.35,386.39a43.93,43.93,0,0,1-6.19.05c-2.13-.1-4.3-.3-6.67-.46a15.62,15.62,0,0,0,6.08,3.54,18,18,0,0,0,7.13.85,14.18,14.18,0,0,0,6.95-2.46,11.07,11.07,0,0,0,4.28-5.73,29.56,29.56,0,0,1-5.77,3A23.19,23.19,0,0,1,409.35,386.39Z"/><path fill="#FFFFD2"  d="M265,377.31c-1.72,0-3.37,0-5-.08s-3.24-.18-4.89-.4a40.12,40.12,0,0,1-5.2-1,9,9,0,0,0,4.25,4,14.4,14.4,0,0,0,5.68,1.4,16,16,0,0,0,5.69-.81,18,18,0,0,0,2.62-1.15,14.83,14.83,0,0,0,2.33-1.71,18.64,18.64,0,0,0-2.82-.19C266.71,377.29,265.84,377.33,265,377.31Z"/>            <g opacity="0.6" ><path fill="#FF8431"  d="M285,418.84c2.41-25.61,27.2-49.28,50.64-49.63s49.12,18.76,51.63,48.25c.13,1.49,1.2.46-.05,1.63-1.41,1.32-6.67,1.94-9.66,2.8-14.13,4.06-27.65,4.48-43.86,4.36-16.51-.12-33.22-4.21-48.23-7.41"/></g>        </g>    </g>    <g id="mask">        <path fill="#2d2926"  d="M277.46,109.18c4.07-3.21,8.52-5.84,12.75-8.83,2.22-1.57,4.33-3.11,6.56-4.46a1.21,1.21,0,0,0-.46-1.2C285,85.23,274,75.35,262.37,66.34,253.49,59.5,241.31,49.1,229.16,53c-5.27,1.7-9.22,6-12.84,10a136.25,136.25,0,0,0-12.8,16.4,159.55,159.55,0,0,0-16.22,32.39,84.63,84.63,0,0,1-6.31,14,29.2,29.2,0,0,1-5.23,6.63c-2.15,2-5.18,2.79-7.14,4.83-6.34,6.62,1.61,15.05,7.81,17.47,10.12,3.95,22.32,1.59,32.15-2.15,10.51-4,18.17-12.59,28.12-17.56,7-3.51,14.18-3,21.68-4A79.65,79.65,0,0,1,277.46,109.18Z"/><path fill="#2d2926"  d="M348.54,90a7,7,0,0,1,2.68.66l.16.08A64.78,64.78,0,0,1,373,99.38a50.67,50.67,0,0,1,12.37,7.38c.91.47,1.8.95,2.67,1.46,2.52,1.48,5.26,2.47,7.57,4.3a28.36,28.36,0,0,1,3.51,3.42c11.63,8.7,21.12,21.29,29.24,32.79,3.71,5.25,7.36,10.56,11.35,15.61,3,3.78,6.39,7.71,11.47,8.33,9.41,1.16,15.38-9,18.76-16.2,5.83-12.38,11.84-24.74,16.87-37.47,1.63-4.13,3.9-8.76,1.59-13.08-2.53-4.74-9-7.72-13.1-10.85a174.07,174.07,0,0,1-28.54-26.85c-3.15-3.8-6-8.58-11.3-9.31-6.08-.84-13.22,1.63-19.22,2.64-21.65,3.65-48.92,5.06-66,20.55Z"/><g opacity="0.4" ><path d="M430,124a19,19,0,0,0-1.16-6.2,16.3,16.3,0,0,0-3.91-4.89,123.52,123.52,0,0,0-20.14-15.41c-3.16-1.93-6.52-3.76-10.2-4.14-7.14-.73-13.43,4-20.21,6.6a4.26,4.26,0,0,1,.86.49,15.48,15.48,0,0,1,2.85,1.5,11.9,11.9,0,0,1,2.41,1c7.12,3.89,9.93,4.33,15,8.66,15.49,13.24,27.5,29.7,39.87,45.9C431.13,147.51,430.84,134.81,430,124Z"/></g><g opacity="0.1" ><path d="M484.52,334.46c.24,1.7-3.5,6.77-4.43,8.49-1.82,3.4-3.69,6.78-5.67,10.09a107.91,107.91,0,0,1-13.23,18.11,63.28,63.28,0,0,1-11.06,9.47,60.18,60.18,0,0,1-6.26,3.66,32.27,32.27,0,0,1-5.52,2.51c-4,1.16-6.15-2.21-7.33-5.52a39.77,39.77,0,0,1-2.34-17.54,119.9,119.9,0,0,1,2.55-14.42l-1.94,4.49c-3.07,11.13-4.58,22.56-6,34a4.63,4.63,0,0,0,.26,2.2,3,3,0,0,0-.88.73c-2.06,2.51-.69,11.1-.82,14.3a.7.7,0,0,0,.1.45c.15.19.45.14.69.08a107.07,107.07,0,0,0,24.46-9.44c9.48-5.29,17.7-11,24.09-19.59a61.68,61.68,0,0,0,7.91-15.08C482.18,352.75,485.79,343.62,484.52,334.46Z"/></g><g opacity="0.1" ><path d="M267.23,141c10.78-16.33,17.62-34.19,32.6-46.78-23.63,13.11-38,28.58-53.16,54.08-14.44,24.28-29.77,53.16-39.76,79.21s-15,53.6-17.25,81.34c-1.44,17.39-2,39.71,4,58.26-12.16,2.89-24.55,2.42-35.58-4.39-32.1-19.81-16.24-53.36-16.24-53.36-5,6.28-7.46,8.94-9.87,24-2.23,13.87,8.42,27.2,19.58,34.28,13.92,8.82,29.75,10.19,45,6.81a51.74,51.74,0,0,0,7.84,12.38c10,11.56,21.38,19,39.1,21.26,2.22.28,4.49.59,6.78.91,0-3.47-.14-6.94-.17-10.41-17.11-5.77-32.35-19.19-39.78-35.5-4-8.82-6.13-18.92-6.18-30.42-.13-27.61,3.21-61,10.77-87.25C225.8,207.67,245.5,173.93,267.23,141Z"/></g><g opacity="0.1" ><path d="M389.36,401.68c-5.28,1.25-9.81,4.43-15.11,5.66a156.93,156.93,0,0,1-19.42,3c-22,2.28-44.35.82-66.16-2.85-1.82-5.45-1.09-11.68-.06-17.2a47.25,47.25,0,0,1,1.73-6c-1.08,2.57-1.94,5.23-2.79,7.87-.55,1.71-1,3.49-1.6,5.17-.31.79-1,1.73-1.36,2.66a5.25,5.25,0,0,1-.12,1c-.14.61-.26,1.23-.37,1.85a5.64,5.64,0,0,1-.4,1.26,4.84,4.84,0,0,1-.74,2.24,22.67,22.67,0,0,0-.51,5.15c0,.36,0,.73,0,1.1a4.94,4.94,0,0,1-.43,2l4.45,1c14.89,5.55,32.72,6.74,47.93,6.86,15.65.13,34.68-1.09,45-4.9,2.86-1.07,9.11-1.63,10.47-3.06,1.21-1.27-.65-1.69-.77-3.3C388.35,401.92,389.36,401.68,389.36,401.68Z"/></g><g opacity="0.4" ><path d="M265.75,120.76A47.08,47.08,0,0,0,243.3,107.6c-4.49-1.12-9.49-1.5-13.54.73-2.57,1.41-4.5,3.73-6.41,6a198.22,198.22,0,0,1-41,36,83.94,83.94,0,0,0,37.69-8.17c9.08-4.35,17.47-10.37,27.18-13a58.6,58.6,0,0,1,13.33-1.85A53,53,0,0,1,265.75,120.76Z"/></g>        <g opacity="0.1" ><path fill="#fff"  d="M379.38,102.63c6.06,5.3,10.42,13.68,14.49,20.5,4.46,7.47,8.88,15,13.37,22.42,13,21.71,26.15,43.75,37,66.65a328.76,328.76,0,0,1,23.41,68.9c2.75,12.34,4.9,24.81,6.59,37.33,1.4,10.34,4.07,22.69-2.47,31.88,4.28-6,9.86-10.61,11.34-14.66,5.27-14.38.19-32.18-2.49-46.67-5.44-29.5-15.47-57.88-26.93-85.52-11.28-27.21-25.53-53.08-44.83-75.5C392.61,109.13,379.6,102.82,379.38,102.63Z"/></g>    </g>    <g id="outline">        <path fill="none"  d="M160.05,333.15c-3.58-5.9-3.3-13-.58-19.25a13.76,13.76,0,0,1,6-6.84c2.6-1.38,4.51-.84,7.22-.85,2.4,0,5.77-.62,4.77-3.69a7.54,7.54,0,0,0-1.09-1.75,7.82,7.82,0,0,0-4.49-3.35c-4-1.16-8.86-.44-12.85.56-16.25,4.06-24.71,20.78-26.8,36.27C129.54,354,149.85,369.5,167,373.66a61.12,61.12,0,0,0,26.47.37,90.59,90.59,0,0,1-6.9-26.51C175.94,346.14,165.41,342,160.05,333.15Z"/><path fill="none"  d="M258.25,128q4.35-5.44,9.09-10.54a109.44,109.44,0,0,1,26.43-21c-11.2-9.39-22.06-19.2-33.66-28.1-5.07-3.88-10.25-8-16.07-10.68-8.33-3.89-15.54-2.62-22.11,3.8-16.17,15.79-25.3,35.47-33.63,56-2.85,7-6.35,14.31-12.63,18.91-2.66,1.94-5.92,2.67-6,6.52a8.34,8.34,0,0,0,4.11,7.15c4.63,3.09,10.49,3.83,15.93,3.59a54.82,54.82,0,0,0,28.91-10c7.45-5.2,14.53-11.57,23.54-13.92,5.08-1.32,10.34-1,15.51-1.64C257.88,128.1,258.06,128.06,258.25,128Z"/><path fill="none"  d="M376.27,98.3a120.48,120.48,0,0,1,13.07,8.34c12.85,5.91,23.72,16.66,32.35,27.83,7.08,9.18,13.26,19,20.46,28.11,4.72,6,11,10,17.61,3.92,3.42-3.14,5.67-7.4,7.62-11.55,5.46-11.58,11.08-23.16,15.88-35,1.35-3.35,3-6.57,2.76-10.22-.31-4.08-3.57-5.68-6.63-7.9-4.31-3.12-8.53-6.34-12.64-9.72A164.7,164.7,0,0,1,443,68.3c-2.69-3.35-4.83-6.44-9.61-6.48-3.43,0-7.26,1.1-10.62,1.67l-17.13,2.88c-19,3.21-42,5.42-55.86,20.29-.18.49-.36,1-.56,1.46A99.39,99.39,0,0,1,376.27,98.3Z"/><path fill="none"  d="M436.24,173c-9.43-18.92-19.18-36.8-34.42-51.77C388,107.62,371,96.63,352,91.79c-1.34-.34-2.69-.64-4-.91h0a4.74,4.74,0,0,0-.94-.18,37,37,0,0,0,2.45-7.64,35.23,35.23,0,0,1-9.73,9.85l-3.22,2.15,1.66-3.53a69.55,69.55,0,0,0,6.13-22.45c-1.63,2.48-3.29,5-5,7.38a107.76,107.76,0,0,1-9.05,11.24l-6,6.44,3.58-8.07A43.19,43.19,0,0,0,331,62.52c-1.28,4.22-2.56,8.44-3.87,12.65a86.84,86.84,0,0,1-3,8.92,21,21,0,0,1-2.42,4.23A13.38,13.38,0,0,1,318,91.67L315.85,93l.84-2.3a10,10,0,0,0-.78-8.24,31.83,31.83,0,0,1-2.15,8.68c-.09.24-.19.47-.3.71l-.76.14a77.44,77.44,0,0,0-19.41,8.11c-20,11.78-34.5,30.8-46.79,50.07a377.42,377.42,0,0,0-52.42,133.53c-1.65,9-3,18.11-3.92,27.25-2.94,30.42-1.68,70.59,28.43,87.67,2.13,1.21,13,3.79,8.39,7.39-2.4,1.85-14.49,3-13.86,6.68.69,4.07,12.39,4.42,15.14,4.63a154.25,154.25,0,0,0,17.6.25c.53,0,1.44,0,2.41,0,.15-1.73.14-3.58.16-5.42s0-3.86.06-5.79c.07-3.85.18-7.68.2-11.51A150.38,150.38,0,0,0,247.36,372a55.56,55.56,0,0,0-2.69-11.09,30.32,30.32,0,0,0-2.46-5.14,18.35,18.35,0,0,0-3.63-4.43h0a22.92,22.92,0,0,1,6.82,9.27,57.18,57.18,0,0,1,3.39,11.13,135,135,0,0,1,2.22,23.1c.11,3.87.11,7.73.1,11.57,0,1.92,0,3.83,0,5.75s.08,3.85-.07,5.9a14.63,14.63,0,0,1-.56,3.13l-.13.39c0,.14-.12.3-.18.45a6.36,6.36,0,0,1-.47.85,6.81,6.81,0,0,1-1.25,1.36A22,22,0,0,1,243,427c-1.7.71-3.31,1.6-3.6,2.6a1.92,1.92,0,0,0-.1.85,3.09,3.09,0,0,0,.06.5l.14.48a4.85,4.85,0,0,0,1.25,1.77c.12.11.27.21.4.32a5.43,5.43,0,0,1,.24-3.08,6.54,6.54,0,0,1,2.78-3.37,8.36,8.36,0,0,1,2-.77,12.23,12.23,0,0,1,1.87-.39,13.57,13.57,0,0,1,3.88-.05,13.47,13.47,0,0,1-3.14,2.29c-1.11.61-2.2,1.06-3,1.5a9.43,9.43,0,0,0-2.27,1.92,12.66,12.66,0,0,0-1.91,3l.47-.39a15.29,15.29,0,0,0,3.2,1.55,21.13,21.13,0,0,0,2.58.75,22.72,22.72,0,0,0,2.68.41l1.4.09a2.54,2.54,0,0,1-.43-.91,3.51,3.51,0,0,1,.15-2.17,7.13,7.13,0,0,1,2.47-3,10.06,10.06,0,0,1,3.24-1.62,7.37,7.37,0,0,1,3.65-.16,29.86,29.86,0,0,1-2.6,2.28c-.84.66-1.66,1.29-2.49,1.9a23.66,23.66,0,0,0-2.22,1.75,3.44,3.44,0,0,0-.74,1,2.5,2.5,0,0,0-.2,1.56l.54-.57a48.17,48.17,0,0,0,8.4-.42,36.26,36.26,0,0,0,5.41-1.12,15.05,15.05,0,0,0,4.66-2.47,20.69,20.69,0,0,0,3.79-3.86,25.49,25.49,0,0,0,2.85-4.7,12.1,12.1,0,0,0,.54-1.25c.15-.41.3-.82.42-1.28.27-.89.49-1.81.71-2.73l1.23-5.62c.81-3.76,1.61-7.53,2.58-11.28a113.26,113.26,0,0,1,3.46-11.06,48.77,48.77,0,0,1,5.15-10.35h0c-3.7,6.77-5.64,14.26-7.18,21.75-.78,3.71-1.42,7.45-2.06,11.2a311.41,311.41,0,0,0,33.1,5.42c21.48,2.29,43.63,2.36,64.74-2.67a86.22,86.22,0,0,0,8.66-2.58c0-.15-.06-.3-.08-.45-.63-3.71-.81-7.39-1.25-11-.2-1.8-.5-3.61-.78-5.43s-.56-3.63-.94-5.41a31.1,31.1,0,0,0-1.71-5.18c-.65-1.72-1.25-3.46-1.84-5.2.73,1.69,1.47,3.37,2.26,5a31.94,31.94,0,0,1,2.07,5.16c.49,1.79.87,3.59,1.27,5.39s.81,3.59,1.13,5.43c.62,3.66,1,7.32,1.72,10.85a32.65,32.65,0,0,0,1.5,5.11A27.37,27.37,0,0,0,395.5,423a20.1,20.1,0,0,0,7.48,7,12.63,12.63,0,0,0,2.34.92c.8.24,1.7.43,2.56.61a45,45,0,0,0,5.3.72,51.54,51.54,0,0,0,5.7.11l.54.56a2.54,2.54,0,0,0-.2-1.55,3.32,3.32,0,0,0-.74-1,22.12,22.12,0,0,0-2.22-1.75c-.83-.61-1.65-1.24-2.49-1.91a29.47,29.47,0,0,1-2.61-2.27,7.41,7.41,0,0,1,3.66.16,9.82,9.82,0,0,1,3.23,1.62,7.1,7.1,0,0,1,2.48,3,3.62,3.62,0,0,1,.15,2.18,2.79,2.79,0,0,1-.44.92c1.2-.09,2.39-.2,3.54-.4a20.31,20.31,0,0,0,4.86-1.57,13.17,13.17,0,0,0,1.48-.83l.46.38a12.77,12.77,0,0,0-1.91-3A9.43,9.43,0,0,0,426.4,425c-.84-.44-1.93-.89-3-1.5a13.63,13.63,0,0,1-3.13-2.29,13.57,13.57,0,0,1,3.88.05,12.23,12.23,0,0,1,1.87.39,8.36,8.36,0,0,1,2,.77,6.56,6.56,0,0,1,2.78,3.36,5.4,5.4,0,0,1,.23,3.12,5.91,5.91,0,0,0,1.3-1.41,3.82,3.82,0,0,0,.57-1.85,2.2,2.2,0,0,0-.11-.84,1.94,1.94,0,0,0-.41-.72c-.78-.95-2.46-1.64-4.13-2.28a21.47,21.47,0,0,1-5.32-2.59,7.46,7.46,0,0,1-1.23-1.22,5,5,0,0,1-.88-1.71,9.08,9.08,0,0,1-.27-1.57c-.06-.52-.09-1-.1-1.48a111.51,111.51,0,0,1,.44-11.18c.28-3.68.68-7.35,1.13-11,.89-7.33,2-14.61,3.48-21.85.76-3.61,1.6-7.2,2.61-10.75.51-1.78,1.06-3.54,1.74-5.26a21.32,21.32,0,0,1,1.17-2.52,8,8,0,0,1,1.29-1.85,4,4,0,0,1,.37-.35,7.2,7.2,0,0,0-1.46,2.3,20.74,20.74,0,0,0-.94,2.57c-.56,1.74-1,3.51-1.4,5.3-.79,3.58-1.4,7.19-1.94,10.82-1.1,7.25-1.92,14.54-2.6,21.83-.33,3.65-.61,7.31-.83,10.95-.2,3.41-.36,6.86-.25,10.19,5.42.86,11.33.45,16.69.29A155,155,0,0,0,459,411.22c2.36-.36,3.95,0,2.58-2.29-1.6-2.7-4-4-6.92-5-2.42-.82-9.31-1-10.72-3.45-.76-1.34.09-2,1-2.94,1.35-1.35,4-2.21,5.61-3.24q3-1.89,5.8-4A69.52,69.52,0,0,0,475.12,368c9-16.7,10.93-36.3,9.17-54.93C482,289.38,475,265.78,467,243.43,458.39,219.28,447.67,195.93,436.24,173Z"/><path d="M453.83,203c-5.4-12-11.14-23.86-17.05-35.62-5.06-10.06-10.07-20.08-16.63-29.27q-3.45-4.86-7.33-9.43a219.21,219.21,0,0,1,15.57,20c3.71,5.25,7.36,10.57,11.35,15.61,3,3.78,6.39,7.71,11.47,8.33,9.41,1.16,15.38-9,18.76-16.2,5.83-12.38,11.84-24.74,16.87-37.47,1.63-4.13,3.9-8.76,1.59-13.08-2.53-4.74-9-7.72-13.1-10.85a173.65,173.65,0,0,1-28.54-26.85c-3.15-3.8-6-8.57-11.3-9.31-6.08-.84-13.22,1.63-19.22,2.65-21.21,3.57-47.81,5-65,19.61.11-.61.21-1.21.3-1.82l.55-4-2,3.59a33.45,33.45,0,0,1-6.45,8.22L342.6,87a68.33,68.33,0,0,0,2.76-8.41,70.94,70.94,0,0,0,2.13-14.72l.19-5L344.91,63c-2.64,3.94-5.21,7.91-8,11.72Q335,77.39,333,79.93a45.09,45.09,0,0,0-.48-23.32l-1.33-4.54-1.29,4.53c-1.7,6-3.41,11.93-5.06,17.91a87,87,0,0,1-2.7,8.77,20.76,20.76,0,0,1-2.05,3.91h0l-1.26.2a11.2,11.2,0,0,0-2.95-7.22L314.79,79v1.58a30.72,30.72,0,0,1-1,7.86A81,81,0,0,0,296.56,95a1.62,1.62,0,0,0-.25-.28C285,85.23,274,75.35,262.37,66.34,253.49,59.5,241.31,49.1,229.16,53c-5.27,1.7-9.22,6-12.84,10a136.25,136.25,0,0,0-12.8,16.4,159.55,159.55,0,0,0-16.22,32.39,85.1,85.1,0,0,1-6.31,14,29.37,29.37,0,0,1-5.23,6.62c-2.15,2-5.18,2.79-7.14,4.83-6.34,6.62,1.61,15.05,7.81,17.47,10.12,3.95,22.32,1.59,32.15-2.15,10.51-4,18.17-12.59,28.12-17.56,6.16-3.09,12.44-3.09,19-3.72-11,14.4-20.23,30.38-28.47,46.32a380.09,380.09,0,0,0-27.51,69.12q-5.13,17.82-8.5,36.06c-3.45,19-6.77,40.77-5,61.39-13.52-2.25-28.79-9.5-25.39-24.85.72-3.22,2-6.56,4.64-8.66,4.41-3.49,8.54.65,12.92-1.44s2.51-7.49.27-10.52c-7.91-10.73-27.31-3-35,4.3-9.48,8.95-16.45,25.8-14.34,38.87,2.64,16.29,18,28.65,32.9,33.49a62.47,62.47,0,0,0,32.55,1.4,68.93,68.93,0,0,0,3.4,6.1,54.13,54.13,0,0,0,16.36,16.68,56.11,56.11,0,0,0,5.29,3c.46.22,2,1.13,3.24,1.71l-.31.12c-1.78.63-3.6,1.16-5.37,1.81-3.43,1.26-9.09,3.22-6.82,8,1.87,3.91,8,4.8,11.7,5.38a117.09,117.09,0,0,0,20,1c1.45,0,3.43.1,5.43.05a3.56,3.56,0,0,1-.29.54,3.81,3.81,0,0,1-.71.75,20.38,20.38,0,0,1-4.77,2.37,17.66,17.66,0,0,0-2.81,1.42,5.9,5.9,0,0,0-2.43,2.88,6.53,6.53,0,0,0,2.08,6.76,11.83,11.83,0,0,0,2.66,1.88,18.89,18.89,0,0,0,2.85,1.26,23.66,23.66,0,0,0,3,.83,25,25,0,0,0,3,.44,49,49,0,0,0,11.86-.34,38.78,38.78,0,0,0,5.85-1.33,17.68,17.68,0,0,0,5.43-3,25.22,25.22,0,0,0,7.16-9.66,18.6,18.6,0,0,0,1-2.89c.26-1,.46-1.93.66-2.88s.37-1.91.54-2.87c22.29,4.82,45.23,7.68,68.06,6.77a160.19,160.19,0,0,0,32.55-4.43c2.39-.6,4.77-1.27,7.12-2a28.63,28.63,0,0,0,3.1,7.11,21.81,21.81,0,0,0,8.26,8.08,15.91,15.91,0,0,0,2.76,1.15c1,.3,1.85.51,2.78.72a48.77,48.77,0,0,0,5.61.87,45.84,45.84,0,0,0,11.39-.31,23.43,23.43,0,0,0,5.6-1.79,14.28,14.28,0,0,0,2.63-1.57A9,9,0,0,0,434.8,429a6.86,6.86,0,0,0,1-3.36,5.1,5.1,0,0,0-1.23-3.53,8.34,8.34,0,0,0-2.67-2c-.91-.45-1.81-.8-2.68-1.13a19.28,19.28,0,0,1-4.6-2.14,4.11,4.11,0,0,1-.73-.71,1.76,1.76,0,0,1-.38-.71l0-.12.83.07a142.53,142.53,0,0,0,20.87,0c5.56-.3,11.91-.22,17.3-1.84,3.77-1.14,2.9-4.87.85-7.65-3.27-4.44-9.45-5.46-14.46-6.64l-.43-.13c.94-.57,1.95-1.32,2.34-1.55a76.39,76.39,0,0,0,11.85-8.79c14-12.67,21.84-30.36,24.29-48.89,2.85-21.53-1.3-43.23-6.67-64C473.77,250.85,464.43,226.61,453.83,203ZM405.65,66.37l17.13-2.88c3.36-.57,7.19-1.69,10.62-1.67,4.78,0,6.92,3.13,9.61,6.48a164.7,164.7,0,0,0,23.74,23.78c4.11,3.38,8.33,6.6,12.64,9.72,3.06,2.22,6.32,3.82,6.63,7.9.28,3.65-1.41,6.87-2.76,10.22-4.8,11.87-10.42,23.45-15.88,35-1.95,4.15-4.2,8.41-7.62,11.55-6.61,6.06-12.89,2-17.61-3.92-7.2-9.08-13.38-18.93-20.46-28.11-8.63-11.17-19.5-21.92-32.35-27.83a120.48,120.48,0,0,0-13.07-8.34,99.39,99.39,0,0,0-27-10.18c.2-.48.38-1,.56-1.46C363.64,71.79,386.63,69.58,405.65,66.37ZM242.17,129.76c-9,2.35-16.09,8.72-23.54,13.92a54.82,54.82,0,0,1-28.91,10c-5.44.24-11.3-.5-15.93-3.59a8.34,8.34,0,0,1-4.11-7.15c.07-3.85,3.33-4.58,6-6.52,6.28-4.6,9.78-11.89,12.63-18.91,8.33-20.57,17.46-40.25,33.63-56,6.57-6.42,13.78-7.69,22.11-3.8,5.82,2.72,11,6.8,16.07,10.68,11.6,8.9,22.46,18.71,33.66,28.1a109.44,109.44,0,0,0-26.43,21q-4.75,5.08-9.09,10.54c-.19,0-.37.07-.57.09C252.51,128.74,247.25,128.44,242.17,129.76ZM167,373.66c-17.1-4.16-37.41-19.67-34.73-39.41C134.31,318.76,142.77,302,159,298c4-1,8.82-1.72,12.85-.56a7.82,7.82,0,0,1,4.49,3.35,7.54,7.54,0,0,1,1.09,1.75c1,3.07-2.37,3.67-4.77,3.69-2.71,0-4.62-.53-7.22.85a13.76,13.76,0,0,0-6,6.84c-2.72,6.2-3,13.35.58,19.25,5.36,8.84,15.89,13,26.47,14.37a90.59,90.59,0,0,0,6.9,26.51A61.12,61.12,0,0,1,167,373.66ZM475.12,368a69.52,69.52,0,0,1-18.79,22.2q-2.81,2.16-5.8,4c-1.64,1-4.26,1.89-5.61,3.24-.88.89-1.73,1.6-1,2.94,1.41,2.48,8.3,2.63,10.72,3.45,2.94,1,5.32,2.32,6.92,5,1.37,2.3-.22,1.93-2.58,2.29a155,155,0,0,1-19.14,1.46c-5.36.16-11.27.57-16.69-.29-.11-3.33.05-6.78.25-10.19.22-3.64.5-7.3.83-10.95.68-7.29,1.5-14.58,2.6-21.83.54-3.63,1.15-7.24,1.94-10.82.39-1.79.84-3.56,1.4-5.3a20.74,20.74,0,0,1,.94-2.57,7.2,7.2,0,0,1,1.46-2.3,4,4,0,0,0-.37.35,8,8,0,0,0-1.29,1.85,21.32,21.32,0,0,0-1.17,2.52c-.68,1.72-1.23,3.48-1.74,5.26-1,3.55-1.85,7.14-2.61,10.75-1.45,7.24-2.59,14.52-3.48,21.85-.45,3.66-.85,7.33-1.13,11a111.51,111.51,0,0,0-.44,11.18c0,.47,0,1,.1,1.48a9.08,9.08,0,0,0,.27,1.57,5,5,0,0,0,.88,1.71,7.46,7.46,0,0,0,1.23,1.22,21.47,21.47,0,0,0,5.32,2.59c1.67.64,3.35,1.33,4.13,2.28a1.94,1.94,0,0,1,.41.72,2.2,2.2,0,0,1,.11.84,3.82,3.82,0,0,1-.57,1.85,5.91,5.91,0,0,1-1.3,1.41,5.4,5.4,0,0,0-.23-3.12,6.56,6.56,0,0,0-2.78-3.36,8.36,8.36,0,0,0-2-.77,12.23,12.23,0,0,0-1.87-.39,13.57,13.57,0,0,0-3.88-.05,13.63,13.63,0,0,0,3.13,2.29c1.12.61,2.21,1.06,3,1.5a9.43,9.43,0,0,1,2.27,1.92,12.77,12.77,0,0,1,1.91,3l-.46-.38a13.17,13.17,0,0,1-1.48.83,20.31,20.31,0,0,1-4.86,1.57c-1.15.2-2.34.31-3.54.4a2.79,2.79,0,0,0,.44-.92,3.62,3.62,0,0,0-.15-2.18,7.1,7.1,0,0,0-2.48-3,9.82,9.82,0,0,0-3.23-1.62,7.41,7.41,0,0,0-3.66-.16,29.47,29.47,0,0,0,2.61,2.27c.84.67,1.66,1.3,2.49,1.91a22.12,22.12,0,0,1,2.22,1.75,3.32,3.32,0,0,1,.74,1,2.54,2.54,0,0,1,.2,1.55l-.54-.56a51.54,51.54,0,0,1-5.7-.11,45,45,0,0,1-5.3-.72c-.86-.18-1.76-.37-2.56-.61A12.63,12.63,0,0,1,403,430a20.1,20.1,0,0,1-7.48-7,27.37,27.37,0,0,1-2.44-4.68,32.65,32.65,0,0,1-1.5-5.11c-.76-3.53-1.1-7.19-1.72-10.85-.32-1.84-.74-3.63-1.13-5.43s-.78-3.6-1.27-5.39a31.94,31.94,0,0,0-2.07-5.16c-.79-1.66-1.53-3.34-2.26-5,.59,1.74,1.19,3.48,1.84,5.2a31.1,31.1,0,0,1,1.71,5.18c.38,1.78.65,3.6.94,5.41s.58,3.63.78,5.43c.44,3.62.62,7.3,1.25,11,0,.15.05.3.08.45a86.22,86.22,0,0,1-8.66,2.58c-21.11,5-43.26,5-64.74,2.67a311.41,311.41,0,0,1-33.1-5.42c.64-3.75,1.28-7.49,2.06-11.2,1.54-7.49,3.48-15,7.18-21.75h0a48.77,48.77,0,0,0-5.15,10.35,113.26,113.26,0,0,0-3.46,11.06c-1,3.75-1.77,7.52-2.58,11.28L280,419.24c-.22.92-.44,1.84-.71,2.73-.12.46-.27.87-.42,1.28a12.1,12.1,0,0,1-.54,1.25,25.49,25.49,0,0,1-2.85,4.7,20.69,20.69,0,0,1-3.79,3.86,15.05,15.05,0,0,1-4.66,2.47,36.26,36.26,0,0,1-5.41,1.12,48.17,48.17,0,0,1-8.4.42l-.54.57a2.5,2.5,0,0,1,.2-1.56,3.44,3.44,0,0,1,.74-1,23.66,23.66,0,0,1,2.22-1.75c.83-.61,1.65-1.24,2.49-1.9a29.86,29.86,0,0,0,2.6-2.28,7.37,7.37,0,0,0-3.65.16,10.06,10.06,0,0,0-3.24,1.62,7.13,7.13,0,0,0-2.47,3,3.51,3.51,0,0,0-.15,2.17,2.54,2.54,0,0,0,.43.91l-1.4-.09a22.72,22.72,0,0,1-2.68-.41,21.13,21.13,0,0,1-2.58-.75,15.29,15.29,0,0,1-3.2-1.55l-.47.39a12.66,12.66,0,0,1,1.91-3,9.43,9.43,0,0,1,2.27-1.92c.84-.44,1.93-.89,3-1.5a13.47,13.47,0,0,0,3.14-2.29,13.57,13.57,0,0,0-3.88.05,12.23,12.23,0,0,0-1.87.39,8.36,8.36,0,0,0-2,.77,6.54,6.54,0,0,0-2.78,3.37,5.43,5.43,0,0,0-.24,3.08c-.13-.11-.28-.21-.4-.32a4.85,4.85,0,0,1-1.25-1.77l-.14-.48a3.09,3.09,0,0,1-.06-.5,1.92,1.92,0,0,1,.1-.85c.29-1,1.9-1.89,3.6-2.6a22,22,0,0,0,5.47-2.83,6.81,6.81,0,0,0,1.25-1.36,6.36,6.36,0,0,0,.47-.85c.06-.15.13-.31.18-.45l.13-.39a14.63,14.63,0,0,0,.56-3.13c.15-2.05.09-4,.07-5.9s0-3.83,0-5.75c0-3.84,0-7.7-.1-11.57a135,135,0,0,0-2.22-23.1,57.18,57.18,0,0,0-3.39-11.13,22.92,22.92,0,0,0-6.82-9.27h0a18.35,18.35,0,0,1,3.63,4.43,30.32,30.32,0,0,1,2.46,5.14A55.56,55.56,0,0,1,247.36,372a150.38,150.38,0,0,1,1.33,22.87c0,3.83-.13,7.66-.2,11.51,0,1.93-.06,3.87-.06,5.79s0,3.69-.16,5.42c-1,0-1.88,0-2.41,0a154.25,154.25,0,0,1-17.6-.25c-2.75-.21-14.45-.56-15.14-4.63-.63-3.64,11.46-4.83,13.86-6.68,4.66-3.6-6.26-6.18-8.39-7.39-30.11-17.08-31.37-57.25-28.43-87.67.89-9.14,2.27-18.22,3.92-27.25A377.42,377.42,0,0,1,246.5,150.12c12.29-19.27,26.78-38.29,46.79-50.07a77.44,77.44,0,0,1,19.41-8.11l.76-.14c.11-.24.21-.47.3-.71a31.83,31.83,0,0,0,2.15-8.68,10,10,0,0,1,.78,8.24l-.84,2.3L318,91.67a13.38,13.38,0,0,0,3.68-3.35,21,21,0,0,0,2.42-4.23,86.84,86.84,0,0,0,3-8.92c1.31-4.21,2.59-8.43,3.87-12.65a43.19,43.19,0,0,1-3.17,23.55l-3.58,8.07,6-6.44a107.76,107.76,0,0,0,9.05-11.24c1.73-2.43,3.39-4.9,5-7.38a69.55,69.55,0,0,1-6.13,22.45l-1.66,3.53,3.22-2.15a35.23,35.23,0,0,0,9.73-9.85,37,37,0,0,1-2.45,7.64,4.74,4.74,0,0,1,.94.18h0c1.34.27,2.69.57,4,.91,18.94,4.84,36,15.83,49.8,29.43,15.24,15,25,32.85,34.42,51.77,11.43,22.94,22.15,46.29,30.8,70.44,8,22.35,15,45.95,17.25,69.67C486.05,331.73,484.08,351.33,475.12,368Z"/>    </g>    <g id="eye">        <g id="eye-color1">            <g opacity="0" ><path fill="#AED4D2"  d="M288.19,128.43c-.14.46-.2.94-.35,1.4a16.7,16.7,0,0,1-1.35,2.87c-.53.93-1,1.89-1.55,2.82-.24.42-.49.81-.76,1.21l-.44.61c-.08.12-.45.47-.45.6-.19.25-.39.5-.59.74-5.88,7-13.91,9.8-22.7,6.53-8.53-3.17-14.2-10.4-14.65-19.53a2.11,2.11,0,0,1,0-.58,23.29,23.29,0,0,1,19-21.81,18.87,18.87,0,0,1,11.42,1.35c-15.3-7.71-34.36-2.93-39.3,15.33a20.83,20.83,0,0,0-.66,6.53,29.42,29.42,0,0,0,10.48,20.23c8.59,7.09,21.5,6.67,31,1.77,7.19-3.69,10-12.6,10.93-20.45Z"/></g><g opacity="0" ><path fill="#AED4D2"  d="M411.94,122.36c-.23.62-.44,1.25-.69,1.87a25.75,25.75,0,0,1-2,3.66,31.67,31.67,0,0,1-2.54,3.43c-5.88,7-13.9,9.8-22.69,6.53-8.54-3.17-14.21-10.4-14.65-19.53a2.11,2.11,0,0,1,0-.58,23.28,23.28,0,0,1,19-21.81,18.86,18.86,0,0,1,11.42,1.35c-15.29-7.71-34.35-2.93-39.29,15.33a20.84,20.84,0,0,0-.67,6.53,29.42,29.42,0,0,0,10.48,20.23c8.6,7.09,21.51,6.67,31.05,1.77,6.9-3.54,9.72-12,10.77-19.65C412.12,121.74,412,122.12,411.94,122.36Z"/></g>        </g>        <g id="eye-shape">            <path fill="#fcfcfc"  d="M286.68,173.37a22.62,22.62,0,0,1-22.27-21.15,1.54,1.54,0,0,1,0-.38,1.32,1.32,0,0,1,0-.35c.61-12.1,10.62-22.28,23-22.42h.39a8.41,8.41,0,0,1,3.5-.67,7.13,7.13,0,0,1,6.07,3.48,22.15,22.15,0,0,1,2.49,1.73,48.14,48.14,0,0,0-4.57-5.28c-6.07-6-13.83-11-22.19-13-10.19-2.46-20.16,1-28,7.64-14.72,13.6-19,37.21-10.83,55.4,7.13,15.82,25,29.46,43.07,25.17,15-3.55,25-18.37,29.24-32.32A41.4,41.4,0,0,0,308,152.57C306.39,163,297.86,173.55,286.68,173.37Z"/><path d="M273,112.22c-11-2.4-21.66,1.45-30.06,8.61-14,12.93-19.22,34.74-13.65,52.85,5.64,18.37,23,34.45,43.07,33.53,17.07-.79,29.35-15.39,35.3-30.2,6.85-17,4.06-35-8.35-48.74C292.51,120.69,283.1,114.41,273,112.22Zm33.54,59c-4.28,14-14.23,28.77-29.24,32.32-18.11,4.29-35.94-9.35-43.07-25.17-8.19-18.19-3.89-41.8,10.83-55.4,7.82-6.66,17.79-10.1,28-7.64,8.36,2,16.12,7,22.19,13a48.14,48.14,0,0,1,4.57,5.28,22.15,22.15,0,0,0-2.49-1.73,7.42,7.42,0,0,1,1,4.13c-.19,4.07-2.6,8.64-7.18,8.7-4.34.06-7.59-3.78-8.17-7.81a1.65,1.65,0,0,1-.06-.46,1.37,1.37,0,0,1,0-.46,8.09,8.09,0,0,1,4.81-6.91h-.39c-12.37.14-22.38,10.32-23,22.42a1.32,1.32,0,0,0,0,.35,1.54,1.54,0,0,0,0,.38,22.62,22.62,0,0,0,22.27,21.15c11.18.18,19.71-10.39,21.27-20.8A41.4,41.4,0,0,1,306.58,171.2Z"/><path fill="#fcfcfc"  d="M432.43,164.36c1-5.46,2.44-13.2.13-18.85,0,.1-4.61,4.27-4.62,4.37-1.29,11.65-5.42,22.66-17.38,22.44-12.37-.21-20-10.31-20.73-23.11,0-.13,4.08-1,4.09-1.15s-4.12.47-4.1.35c.64-13.22,8.58-24.36,21.49-24.51h.4c1.1-.5-17.24,14.22.29,19,20.13,5.52,8.44-18.21,9.69-16,1.88,3.37,5.75,5.09,7.23,6.71-3.35-5.26-10.19-12.37-16-15.88-15.32-9.25-36.46-8.65-47.36,7.58a1.56,1.56,0,0,1-.84.65c-12.38,15.92-13.78,40.58-3.61,58.11,8.52,14.68,25.87,23.08,41.95,18.3S429.43,180.78,432.43,164.36Z"/><path d="M418.09,117.84c-8.18-6.19-18.66-9.66-28.95-8.62-32,3.23-41.2,45.75-31,70.76,7,17.07,23.72,28.55,41.12,26.1,17.6-2.47,29.84-19,34.36-36.62C438.64,149.94,433.81,129.73,418.09,117.84Zm-54.63,65.83c-8.47-15-7.89-34.95-.89-50.35,3-6.69,7.75-12.74,14-16.55,8.1-4.91,18.39-5.69,27.41-2.81a42.81,42.81,0,0,1,22,17.09l-4.31-3.65c.9,4.23.91,9.38-2.5,12s-9.45.85-11.31-3.27,0-9.3,3.57-12A24.28,24.28,0,0,0,396.2,166c5,4.74,12.32,7.21,19,5.47a21.11,21.11,0,0,0,11.77-8.76,34.91,34.91,0,0,0,5.19-13.93,56.12,56.12,0,0,1-10.07,38.69c-4.1,5.71-9.43,10.72-15.93,13.41-12.38,5.13-27.49.66-36.7-9.07A40.47,40.47,0,0,1,363.46,183.67Z"/><path fill="#fff"  d="M291.28,128.4a8.41,8.41,0,0,0-3.5.67A8.09,8.09,0,0,0,283,136a1.37,1.37,0,0,0,0,.46,1.65,1.65,0,0,0,.06.46c.58,4,3.83,7.87,8.17,7.81,4.58-.06,7-4.63,7.18-8.7a7.42,7.42,0,0,0-1-4.13A7.13,7.13,0,0,0,291.28,128.4Z"/>        </g>        <g id="eye-color2">            <path fill="#85C2FF"  d="M307,156.43a15.63,15.63,0,0,1-1.35,2.87c-.52.93-1,1.89-1.54,2.82-.24.41-.5.81-.77,1.2l-.43.62c-.09.11-.45.46-.45.6l-.6.74c-5.88,7-13.9,9.8-22.69,6.53-8.54-3.17-14.21-10.41-14.65-19.54a.86.86,0,0,1,0-.28.9.9,0,0,1,0-.29,23.29,23.29,0,0,1,19-21.82A19,19,0,0,1,295,131.23c-15.29-7.7-34.35-2.93-39.29,15.33a20.58,20.58,0,0,0-.66,6.54,29.34,29.34,0,0,0,10.48,20.23c8.59,7.08,21.5,6.67,31,1.77,7.19-3.69,10-12.6,10.92-20.46,0,.13-.08.26-.11.38C307.26,155.49,307.19,156,307,156.43Z"/><path fill="#85C2FF"  d="M431.65,151.46c-.24.62-.44,1.25-.7,1.86a24.88,24.88,0,0,1-2,3.67,31,31,0,0,1-2.54,3.43c-5.88,7-13.9,9.8-22.69,6.53-8.53-3.17-14.2-10.41-14.65-19.54a2.46,2.46,0,0,1,0-.28,2.64,2.64,0,0,1,0-.29A23.3,23.3,0,0,1,408.16,125a19,19,0,0,1,11.42,1.35c-15.3-7.7-34.36-2.93-39.3,15.34a20.48,20.48,0,0,0-.66,6.53,29.38,29.38,0,0,0,10.48,20.23c8.59,7.09,21.5,6.67,31,1.77,6.91-3.55,9.73-12,10.77-19.66C431.82,150.83,431.74,151.21,431.65,151.46Z"/>        </g>    </g>    <g id="nose-mouth">        <path d="M72,439c.15,0,.14-1,0-1s-.14,1,0,1Z"/><path d="M286.46,293.18c.09,0,.09-.59,0-.59s-.08.59,0,.59Z"/><rect opacity="0.3"  x="319.65" y="233.1" width="2.42" height="2.42" rx="1.16" ry="1.16" transform="translate(124.91 -111.31) rotate(24.31)"/><rect opacity="0.3"  x="312.53" y="228.87" width="2.42" height="2.42" rx="1.16" ry="1.16" transform="translate(122.54 -108.76) rotate(24.31)"/><rect opacity="0.3"  x="312.76" y="234.47" width="2.42" height="2.42" rx="1.16" ry="1.16" transform="translate(124.86 -108.35) rotate(24.31)"/><rect opacity="0.3"  x="349.64" y="231.33" width="2.42" height="2.42" rx="1.16" ry="1.16" transform="translate(126.84 -123.82) rotate(24.31)"/><rect opacity="0.3"  x="354.48" y="225.87" width="2.42" height="2.42" rx="1.16" ry="1.16" transform="translate(125.02 -126.29) rotate(24.31)"/><rect opacity="0.3"  x="355.72" y="230.94" width="2.42" height="2.42" rx="1.16" ry="1.16" transform="translate(127.22 -126.35) rotate(24.31)"/><path fill="#f25757"  d="M338.94,243.1a13.37,13.37,0,0,0,.38,4,11.83,11.83,0,0,0-2.43-3.22,3.19,3.19,0,0,0-2.58-1.06c-.91.13-1.45.81-2.28,1.1a3.79,3.79,0,0,1-.89,0c-.09,0-.08-.16-.14-.22a2.29,2.29,0,0,1-.17-.23c.84,1.87,1.79,3.7,2.75,5.51a12.12,12.12,0,0,0,2.26,3.22,5.07,5.07,0,0,0,3.35,1.55,4.65,4.65,0,0,0,3.41-1.26,5.18,5.18,0,0,0,1.51-3.39,13.4,13.4,0,0,0-.6-3.88,14,14,0,0,0-1.48-3.51l-.27-.06a22.61,22.61,0,0,0-2.33.47A.92.92,0,0,0,338.94,243.1Z"/><path fill="#d33d3d"  d="M335.59,238.26a7.06,7.06,0,0,1-.85,1.25,9.57,9.57,0,0,1-4.49,2.9,5.08,5.08,0,0,0,.58,1.08,2.29,2.29,0,0,0,.17.23c.06.06.05.19.14.22a3.79,3.79,0,0,0,.89,0c.83-.29,1.37-1,2.28-1.1a3.19,3.19,0,0,1,2.58,1.06,11.83,11.83,0,0,1,2.43,3.22,13.37,13.37,0,0,1-.38-4,.92.92,0,0,1,.49-1,22.61,22.61,0,0,1,2.33-.47,9,9,0,0,1-2.85-1.14,7.1,7.1,0,0,1-2.35-2.34C336.23,238.23,335.91,238.25,335.59,238.26Z"/><path d="M342.17,234.25c2.25-2.89,4.68-5.62,7-8.46a25.9,25.9,0,0,0,6.16-13.74c1-8.43-4.75-13.16-12.65-14.22a42.34,42.34,0,0,0-22.53,2.8c-6.28,2.79-14.58,9-10.55,16.79,2.76,5.36,8.56,10,13.15,13.73,3.06,2.51,7.2,6.37,11.54,7-.15.17-.3.33-.46.48a10.33,10.33,0,0,1-5.18,2.51,11.81,11.81,0,0,1-5.81-.31,10.41,10.41,0,0,1-4.94-3.39,8.42,8.42,0,0,0,4.49,4.58,11.12,11.12,0,0,0,6.57.71c.32-.06.64-.14,1-.23a66.93,66.93,0,0,0,3,6.81,13,13,0,0,0,2.36,3.43,5.83,5.83,0,0,0,3.85,1.81,5.34,5.34,0,0,0,4-1.52,5.89,5.89,0,0,0,1.69-3.89,12.55,12.55,0,0,0-.72-4.11,15.11,15.11,0,0,0-1.46-3.23,11.67,11.67,0,0,0,2.77,0,11.1,11.1,0,0,0,6-2.71,8.42,8.42,0,0,0,2.86-5.73,10.58,10.58,0,0,1-3.66,4.75,11.94,11.94,0,0,1-5.43,2.08,10.38,10.38,0,0,1-5.7-.79,7.75,7.75,0,0,1-2-1.43C339.52,237.42,340.9,235.89,342.17,234.25Zm-3.26,6.28a9,9,0,0,0,2.85,1.14l.27.06a14,14,0,0,1,1.48,3.51,13.4,13.4,0,0,1,.6,3.88,5.18,5.18,0,0,1-1.51,3.39,4.65,4.65,0,0,1-3.41,1.26,5.07,5.07,0,0,1-3.35-1.55,12.12,12.12,0,0,1-2.26-3.22c-1-1.81-1.91-3.64-2.75-5.51a5.08,5.08,0,0,1-.58-1.08,9.57,9.57,0,0,0,4.49-2.9,7.06,7.06,0,0,0,.85-1.25c.32,0,.64,0,1-.07A7.1,7.1,0,0,0,338.91,240.53Z"/><path fill="#fff"  d="M339.31,209.86a4,4,0,0,0,2.73.72c1.9-.25,4.48-2.33,4.53-4.39.05-2.34-2.76-3.1-4.58-3.5a14.94,14.94,0,0,0-8.57.68C330.58,204.45,338.3,209.19,339.31,209.86Z"/>    </g></svg>