<!--  ~ Copyright (C) 2018 Baidu, Inc. All Rights Reserved.  --><svg viewBox="0 0 640 480" xmlns="http://www.w3.org/2000/svg">    <g id="back-ground-cl">        <rect fill="none" width="640" height="480" />        <ellipse opacity="0.1" cx="331.93" cy="418.82" rx="168.39" ry="32.01"/>    </g>    <g id="body">        <defs>            <clipPath id="outline">                <path d="M452.79,396.45a74.64,74.64,0,0,0,11.24-8.8c13.41-12.74,20.76-30.16,23-48.33,2.74-21.85-1.67-43.92-7.23-65-.26-1-.53-2-.8-2.95C484.77,254.69,475,232,466,218.91c-2.06-3-4.26-5.89-6.55-8.72,5.27-2,9.82-5.7,11.79-12.19,7.21-23.69-25.32-71.16-56-92-12-8.11-30-17.2-48.08-14.51-1.38.21-2.68.47-3.89.77-13.05-5-27.1-7.16-41.07-5.33a76.35,76.35,0,0,0-18.43,4.89c-.61-.12-1.23-.23-1.87-.33-18.07-2.69-36.12,6.4-48.09,14.51-30.69,20.8-63.22,68.27-56,92,2.29,7.56,8.08,11.31,14.44,13.06-.09.21-.19.43-.27.64-.58.58-1.17,1.14-1.74,1.72a71.11,71.11,0,0,0-18.36,34c-1.89,8.09-2.48,18.7,1.32,26.7q-.93,4.44-1.77,8.91c-3.19,17.56-5.52,35.46-5,53.34a124.13,124.13,0,0,0,2.93,24.35,21.68,21.68,0,0,1-12.22-1.83,23.68,23.68,0,0,1-10.27-10.33,36.35,36.35,0,0,1-4-14.28A30.84,30.84,0,0,1,165,319.67l1.67-3.79-2.92,2.93a30.86,30.86,0,0,0-5.92,8.75,43.78,43.78,0,0,0-3.3,10,36.18,36.18,0,0,0,1.62,20.78,28.54,28.54,0,0,0,5.8,8.83,32.61,32.61,0,0,0,8.47,6.25,34.12,34.12,0,0,0,20.45,3.69,38.08,38.08,0,0,0,3.86-.73,63.27,63.27,0,0,0,3.75,6.85,52.62,52.62,0,0,0,21.1,19.2c.91.46,1.84.89,2.78,1.31a11.42,11.42,0,0,0,1.25.53l.49.2c-.49.15-1,.36-1.45.52-1.7.58-3.42,1.11-5.11,1.72-3.3,1.19-9.11,3.11-6.74,7.74,2.06,4,8.64,4.75,12.49,5.28a123.81,123.81,0,0,0,19.35.87c1.4,0,3.42.1,5.44,0a3.91,3.91,0,0,1-.43.94,4.48,4.48,0,0,1-.77.81,20.81,20.81,0,0,1-4.84,2.41,16.84,16.84,0,0,0-2.77,1.41,5.55,5.55,0,0,0-2.33,2.74,6.28,6.28,0,0,0,2,6.48,11.73,11.73,0,0,0,2.6,1.84,19.49,19.49,0,0,0,2.82,1.24,21.22,21.22,0,0,0,2.93.82,26.7,26.7,0,0,0,3,.45,49.12,49.12,0,0,0,11.81-.34,39.28,39.28,0,0,0,5.82-1.31,17.34,17.34,0,0,0,5.36-3,25.06,25.06,0,0,0,7.12-9.57,12.5,12.5,0,0,0,.55-1.41,12,12,0,0,0,.44-1.45c.27-1,.47-1.91.67-2.87s.4-2,.59-3.07l.32.07c22.75,4.9,46.19,7.78,69.48,6.66A158.18,158.18,0,0,0,384.12,419c2.24-.58,4.46-1.23,6.67-1.93a28.42,28.42,0,0,0,3.17,7.31,21.75,21.75,0,0,0,8.19,8c.44.21.88.45,1.34.62l.69.28.7.23c.94.3,1.84.5,2.77.71a50.13,50.13,0,0,0,5.58.86,46.31,46.31,0,0,0,11.33-.32A23.23,23.23,0,0,0,430.1,433a14.18,14.18,0,0,0,2.58-1.54,8.69,8.69,0,0,0,2.19-2.32,6.54,6.54,0,0,0,1-3.22,4.84,4.84,0,0,0-1.16-3.36,8,8,0,0,0-2.59-1.91,28.21,28.21,0,0,0-2.66-1.13,19.06,19.06,0,0,1-4.67-2.19,4.64,4.64,0,0,1-.78-.75,2,2,0,0,1-.42-.81,4.13,4.13,0,0,1-.1-.44l.86.08a141.4,141.4,0,0,0,21.19.06c5.56-.3,11.61-.37,17-1.79,4.09-1.08,2.59-5.49.27-8-3.66-4-9.54-4.72-14.51-6l-.47-.14c.33-.21.63-.44.78-.52Q450.74,397.77,452.79,396.45,7.4,15.15a139.56,139.56,0,0,1-19.05,1.56c-5.87.2-12.06.51-17.92-.35-.13-3.43,0-7,.26-10.46.23-3.66.52-7.31.86-11,.7-7.31,1.55-14.61,2.69-21.86.55-3.63,1.18-7.25,2-10.83.4-1.79.86-3.57,1.43-5.31a24.1,24.1,0,0,1,1-2.57,9.33,9.33,0,0,1,.64-1.21,5.14,5.14,0,0,1,.84-1.08q-.19.18-.39.39a3.28,3.28,0,0,0-.53.64,7.92,7.92,0,0,0-.72,1.18,24,24,0,0,0-1.15,2.53c-.66,1.72-1.21,3.49-1.71,5.27-1,3.56-1.81,7.16-2.55,10.78-1.42,7.24-2.53,14.54-3.4,21.87-.45,3.66-.83,7.33-1.11,11a108.58,108.58,0,0,0-.42,11.16c0,.48,0,1,.1,1.47a9.51,9.51,0,0,0,.27,1.53,4.59,4.59,0,0,0,.33.86,5.89,5.89,0,0,0,.5.76,6.57,6.57,0,0,0,1.19,1.17,21.14,21.14,0,0,0,5.26,2.55c1.67.65,3.38,1.34,4.25,2.37a2.16,2.16,0,0,1,.46.8,2.38,2.38,0,0,1,.12.94,4,4,0,0,1-.61,2,6.77,6.77,0,0,1-1.73,1.78,5.45,5.45,0,0,0-.23-3.53,6.6,6.6,0,0,0-2.73-3.23,9,9,0,0,0-1.92-.77,13.34,13.34,0,0,0-1.86-.42,15.43,15.43,0,0,0-3.81-.26,16,16,0,0,0,3.21,2.08c.54.29,1.16.53,1.64.78a16,16,0,0,1,1.48.69,8.65,8.65,0,0,1,2.32,2.06,11.21,11.21,0,0,1,1.72,3.09l-.23-.2a13,13,0,0,1-1.59.89,20.13,20.13,0,0,1-4.94,1.61,38.82,38.82,0,0,1-3.92.41,2.62,2.62,0,0,0,.64-1.21,3.6,3.6,0,0,0-.21-2.07,7.25,7.25,0,0,0-2.46-2.88A10.77,10.77,0,0,0,415,425a8.21,8.21,0,0,0-3.56-.36c.94.81,1.84,1.44,2.71,2.08l2.56,1.88a15.93,15.93,0,0,1,2.25,1.87,3.27,3.27,0,0,1,.68,1.14,2.54,2.54,0,0,1,.07,1.56h0l-.3-.31a51.85,51.85,0,0,1-6-.1,45.54,45.54,0,0,1-5.33-.74c-.86-.18-1.77-.37-2.59-.62l-.61-.18-.6-.23c-.4-.15-.78-.35-1.17-.53a20.35,20.35,0,0,1-7.56-7.11,26.78,26.78,0,0,1-2.44-4.73,30.8,30.8,0,0,1-1.5-5.15c-.75-3.54-1.07-7.22-1.68-10.88-.31-1.83-.72-3.63-1.09-5.43s-.76-3.61-1.25-5.4a31.41,31.41,0,0,0-2-5.17c-.77-1.67-1.5-3.36-2.22-5.06h0c.6,1.74,1.22,3.48,1.88,5.2a31.91,31.91,0,0,1,1.75,5.18c.39,1.78.67,3.6,1,5.42s.6,3.63.81,5.44c.46,3.62.66,7.31,1.29,11,.05.31.12.62.17.92q-3.93,1.26-7.94,2.24c-21.55,5.31-44.22,5.26-66.17,2.9a315.35,315.35,0,0,1-33-5.44,1.7,1.7,0,0,1,0-.22c.66-3.79,1.32-7.58,2.13-11.33a112.43,112.43,0,0,1,2.85-11.15c.56-1.83,1.24-3.63,2-5.41.39-.87.76-1.76,1.17-2.63l1.34-2.56a49.29,49.29,0,0,0-5.08,10.39,113.52,113.52,0,0,0-3.41,11.09c-.95,3.75-1.74,7.53-2.54,11.3-.4,1.88-.78,3.77-1.21,5.63-.22.92-.44,1.85-.7,2.74-.12.46-.28.88-.43,1.3a11.51,11.51,0,0,1-.54,1.27,25.12,25.12,0,0,1-2.87,4.75,20.33,20.33,0,0,1-3.83,3.92,15,15,0,0,1-4.73,2.53,37.08,37.08,0,0,1-5.47,1.14,48.54,48.54,0,0,1-8.69.42l-.3.31a2.61,2.61,0,0,1,.07-1.56,3.35,3.35,0,0,1,.69-1.14,15.38,15.38,0,0,1,2.25-1.87l2.56-1.88c.87-.64,1.77-1.28,2.7-2.08a8.07,8.07,0,0,0-3.56.36,10.86,10.86,0,0,0-3.17,1.64,7.25,7.25,0,0,0-2.45,2.89,3.44,3.44,0,0,0-.21,2.07,2.44,2.44,0,0,0,.63,1.2c-.58,0-1.17-.06-1.76-.11a21.28,21.28,0,0,1-2.71-.42,20.19,20.19,0,0,1-2.63-.75,15.57,15.57,0,0,1-2.46-1.09q-.45-.25-.87-.54l-.24.21a11.07,11.07,0,0,1,1.72-3.09,8.47,8.47,0,0,1,2.31-2.06c.4-.26,1-.44,1.48-.69s1.11-.49,1.65-.78a16,16,0,0,0,3.21-2.08,15.52,15.52,0,0,0-3.82.25,14.88,14.88,0,0,0-1.85.43,8.76,8.76,0,0,0-1.92.77,6.62,6.62,0,0,0-2.74,3.23,5.52,5.52,0,0,0-.23,3.51,8.54,8.54,0,0,1-.79-.65,5,5,0,0,1-1.32-1.88l-.15-.51a3.6,3.6,0,0,1-.07-.55,2.44,2.44,0,0,1,.12-.95c.37-1.16,2-2.05,3.75-2.76.87-.37,1.77-.73,2.69-1.16a11.85,11.85,0,0,0,2.73-1.64,6.24,6.24,0,0,0,1.2-1.3,4.92,4.92,0,0,0,.45-.81,3.83,3.83,0,0,0,.17-.43l.13-.38a14,14,0,0,0,.55-3.08c.15-2,.1-3.95.08-5.88s0-3.84,0-5.76c0-3.85,0-7.72-.07-11.58a136.93,136.93,0,0,0-2.14-23.11,56.9,56.9,0,0,0-3.33-11.14,29.71,29.71,0,0,0-2.8-5.1,18.48,18.48,0,0,0-4-4.21,18.46,18.46,0,0,1,3.67,4.41,30.51,30.51,0,0,1,2.5,5.14,56.43,56.43,0,0,1,2.76,11.11A149.87,149.87,0,0,1,249,395c0,3.84-.11,7.68-.17,11.53,0,1.93-.05,3.87-.06,5.8s0,3.85-.16,5.66v0c-1.1.05-2.22,0-3.24.06a152.3,152.3,0,0,1-17.49-.3c-3.1-.25-14-.56-15-4.78-.92-3.7,11.24-5.38,13.71-6.89,1.07-.65,1.92-1.43,1.08-2.69-.51-.77-2.13-1-2.87-1.31a53.66,53.66,0,0,1-7-3.46c-29.69-17.42-30.85-57.46-27.9-87.79.89-9.12,2.27-18.19,3.91-27.2.4-2.13.84-4.25,1.27-6.38.24.34.47.68.73,1,8.93,11,22.83,13,36.08,10.45,15.68-3.06,28.91-12.2,35.48-27.08.17-.38-.09-2.1-.26-1.73-5.34,11.83-15.6,20-27.91,23.72-11.64,3.51-25.2,5-35.89-1.79-4.29-2.73-8.23-6.37-10.12-11.17-3.28-8.31-2.17-17.46.46-25.77A72,72,0,0,1,211.73,215c8.9-9,19.15-16.63,26.84-26.74.27-.34-.07-1.79-.14-1.72-6.78,7.6-14.65,14.05-22.1,21a371.61,371.61,0,0,1,30.89-59.11c12.3-19.09,26.91-37.83,46.94-49.29A77.49,77.49,0,0,1,352,91.27c18.78,4.74,35.69,15.5,49.51,28.88,15.58,15.07,25.54,33.13,35.11,52.34q6.32,12.64,12.27,25.49c-4.46-4.91-9-9.74-13.36-14.69,0,0-.33,1.37-.06,1.73,7.17,9.45,15.54,17.92,23.06,27.09,7.94,9.7,14.4,20.1,18.42,32,4.38,13,4.57,28.19-7.4,37-10.07,7.37-22.18,6.93-33.9,4.18-13.94-3.26-25.83-11.49-31.82-24.77-.16-.35-.35,1.34-.18,1.74a46.06,46.06,0,0,0,28.79,25.41c12.81,3.87,26.82,4.45,37.83-4a25.79,25.79,0,0,0,7.37-8.87,234,234,0,0,1,7.21,37.79c1.84,18.56,0,38.06-8.63,54.83a70.25,70.25,0,0,1-17.73,22c-4,3.29-8.6,5.43-12.75,8.42-1,.7-2,1.43-1.29,2.75.54,1,2.24,1.25,3.21,1.49,2.43.62,4.9,1,7.28,1.84,2.62.88,5.65,2.17,7,4.74C463.39,411.29,463,411.1,460.19,411.6,180.61,375.44a32.84,32.84,0,0,1-9.51-3.34,31.2,31.2,0,0,1-8.08-6,27.16,27.16,0,0,1-5.45-8.38,34.52,34.52,0,0,1-1.45-19.87,42.71,42.71,0,0,1,3.13-9.63,34.81,34.81,0,0,1,2.94-5.1,35.37,35.37,0,0,0-.87,11.22,37.54,37.54,0,0,0,4.27,14.84,24.63,24.63,0,0,0,11,10.85,23,23,0,0,0,13.07,1.77,78.22,78.22,0,0,0,4.51,13.32c-1.13.25-2.28.46-3.44.6A33.74,33.74,0,0,1,180.61,375.44,33-223.37c11.17-17.51,26.69-34,41.51-44,17-11.52,30.56-14.56,40.15-14.56a40.82,40.82,0,0,1,4.13.2c-12,5.59-22.63,14-31.76,23.72-16.54,17.64-29.32,39.12-40.36,60.51q-7.8,15.1-14.19,30.86c-6.86-1.78-11.23-5.62-13-11.51C197,187,201.9,170.49,213.64,152.07,200.19-44c14.82,10,30.33,26.49,41.51,44,11.74,18.42,16.68,34.9,13.54,45.22-1.61,5.31-5.32,9-11.06,10.93q-1.74-2.1-3.52-4.14L453,201.17c-5.38-11.89-11.09-23.63-17-35.28-5-9.83-9.94-19.56-16.41-28.51-11.53-15.93-26.35-29.79-43.68-39.22q-4.2-2.28-8.6-4.18l.32,0C384.89,91.43,402.28,100.24,413.83,108.07Z"/><path d="M338.67,328.5c-23.56,2.27-47.86-6.38-63.87-23.94,0,0-.17.61,0,.77,16,17.76,40.23,26.78,63.93,24.71,24.15-2.11,46.52-15.4,61.49-34.21.22-.28-.08-1.36-.11-1.32C384.71,313,362.86,326.17,338.67,328.5Z"/><path d="M383.49,318.68C360.41,342.39,318,348.86,292,326.47c-.05,0-.23.82,0,1,25.9,22.51,69,17.29,91.63-7.56C383.8,319.67,383.54,318.62,383.49,318.68Z"/><path d="M364.32,339.39c-14.65,11.7-38.81,13.35-54.78,3.49-.1-.07-.27,1,0,1.14,16.06,9.91,40.28,8.73,54.92-3.37C364.66,340.45,364.41,339.31,364.32,339.39Z"/>            </clipPath>        </defs>        <g clip-path="url(#outline)">            <rect fill="#FCD4D4" width="640" height="480" />        </g>    </g>    <g id="pattern">        <g clip-path="url(#outline)">            <path fill="#FFFFD2"  d="M1,442.46c1.37,2.94,19.68,6,22.77,7s6.15-.27,9-1.43a323.08,323.08,0,0,1,142.75-22.27c2.15.15,4.45.29,6.3-.81s2.7-2.9,3.59-4.69q4.77-9.58,9.53-19.16c1.63-3.27,6-5.8,5.77-9.45a20.34,20.34,0,0,0-2-8.57c-11.34-23.45-10.71-37.68-12.14-56.56-.88-11.62,1.34-25.07,3.9-35.71,2.42-10-30.86-23.15-37-26-20.63-9.66-42.69-16.83-65.49-19.13-13.29-1.35-26.29-3.87-38.81-8.64-12.31-4.7-34-10.42-45.71-1.08-2.73,2.19-2.28,8.74-1.85,32.39"/><path fill="#FFFFD2"  d="M445.06,398.18c-7.45,2.67-17.16,4.17-25,4.7a7.81,7.81,0,0,1,.26,7.57c-.24.4-.42,1.59-.05,1.87.14.11.71.66.53.66,7,.22,13.87,1,20.85.84,3.7-.11,7.4-.37,11.08-.79q4-.45,8-1c1.13-.16,2.49-.54,2.25-1.94a8.34,8.34,0,0,0-1.3-2.86c-1.17-1.9-3.93-3.7-6.26-4.58-2.75-1-5.65-1.37-8.47-2.06a3.07,3.07,0,0,1-1.29-.53c-.42-.34-.77-.11-.73-.59A5.76,5.76,0,0,1,445.06,398.18Z"/><path fill="#FFFFD2"  d="M227.73,404.08a83.56,83.56,0,0,0,22.85,4.36c-.27,2.33-.23,5.47-.4,7.5,0,.46-.08,1.59-.45,1.87-.14.11-.68.14-.51.14s-18.76.61-29.52-1.14a25.64,25.64,0,0,1-4.68-1.46,3.71,3.71,0,0,1-2.54-3.42c0-1.29,1.71-3,2.85-3.37,1.87-.56,3.73-1.12,5.6-1.7l2.83-.9a5.3,5.3,0,0,0,2.24-1A16.69,16.69,0,0,1,227.73,404.08Z"/><path fill="#FFFFD2"  d="M250.5,401.61c-.08,5.55-.41,12.5-.49,13.65-.11,1.58.42,3.07,0,4.59-.79,2.77-4.89,4.49-7.48,5.75-1.89.92-4.12,2.32-3.93,4.41.07.77.73,1.35,1,2.09,1.61,5.25,8.87,5.47,13.89,5.47,6.22,0,11.92.36,17.37-2.64,2.25-1.25,2.58-2.68,5.79-5.61,4.87-4.45,5.47-19.87,6.78-26.37.23-1.19-2.6,7.7-2.65,6.51l-.54-13.9c-1.61,2.3-2.81,5.22-4.42,7.52-.66-3.2-3.17-6.89-3.83-10.09-1.06,4.47-2.36,9.21-3.34,13.84-2.14-2.88-3.09-6.19-4-9.2-.61,4.05-3.14,8.18-3.75,12.23l-2.55-8.67-1.62,6.75c-1.47-2.74-3.5-6.86-5-9.6C251.2,400.14,251.06,401.16,250.5,401.61Z"/><path fill="#FFFFD2"  d="M421.47,397.35c-.24,3.31.26,11.85.34,13a43.37,43.37,0,0,0,1.31,6.37c.8,2.77,3.26,2.85,5.85,4.12,1.89.92,6.76,2.58,6.58,4.67-.6,6.6-11.8,7.44-17,7.44-6.22,0-11.12-.08-16.57-3.09a24.69,24.69,0,0,1-6.91-6.33c-3.13-4.58-4-11.27-4.78-17.76-.59-4.6.81-10.34,1-15,1.61,2.29,2.81,5.22,4.42,7.52a48.53,48.53,0,0,0,3.83-10.1c1.06,4.48,2.36,9.21,3.34,13.84,2.15-2.88,3.1-6.18,4-9.2.62,4.05,3.14,8.19,3.76,12.24l2.54-8.68,1.62,6.75c1.48-2.74,3.51-6.85,5-9.59C420.5,395.32,420.79,395.77,421.47,397.35Z"/>            <g opacity="0.6" ><path fill="#DCFEFF"  d="M285.77,418.84c2.26-24.13,21.66-59.15,48.78-60.3,26.6-1.12,50.68,35,52.69,58.92.13,1.48.51,1.44-.05,1.63-1.81.61-6.61,1.94-9.58,2.8-14,4.06-27.43,4.48-43.52,4.36-16.38-.12-33-4.21-47.85-7.41"/></g>        </g>    </g>    <g id="mask">        <path fill="#2d2926"  d="M213.56,210.2a355,355,0,0,1,14.69-32.5c11-21.26,23.72-42.6,40.14-60.17,10.31-11,21.63-19.6,35.51-25.11-11-2.19-26.86-1.57-49.24,13.6-30.73,20.82-63.28,68.38-56,92.15C200.9,205.71,207.25,208.4,213.56,210.2Z"/><g opacity="0.1" ><path d="M485.51,334.54c.23,1.7-3.52,6.77-4.44,8.49-1.83,3.4-3.71,6.78-5.7,10.08a108.63,108.63,0,0,1-13.27,18.12A63,63,0,0,1,451,380.69a59.81,59.81,0,0,1-6.28,3.67,33.35,33.35,0,0,1-5.55,2.51c-4,1.16-6.17-2.21-7.35-5.52a39.48,39.48,0,0,1-2.34-17.54A119.55,119.55,0,0,1,432,349.39l-1.94,4.49c-3.08,11.13-4.6,22.56-6.05,34a4.58,4.58,0,0,0,.26,2.19,3.53,3.53,0,0,0-.88.73c-2.06,2.52-.69,11.1-.81,14.31a.64.64,0,0,0,.09.45c.16.19.46.14.69.07,8.49-2.29,16.42-3.94,24.1-8.21,9.5-5.3,18.46-12.14,24.87-20.77a61.25,61.25,0,0,0,7.68-15.13C483.16,352.82,486.78,343.7,485.51,334.54Z"/></g><g opacity="0.1" ><path d="M246.88,148.34a612.54,612.54,0,0,0-33.1,62.91c8.38-5.8,13.8-13.69,21.7-20.06a7.16,7.16,0,0,1,2.93-3.51c8.64-16.15,18.87-31.16,29.1-46.64,10.81-16.34,17.68-34.19,32.7-46.78C276.51,107.37,262.08,122.84,246.88,148.34Z"/></g><g opacity="0.1" ><path d="M250.25,399.07c0-.15,0-.29,0-.43-17.15-5.78-32.41-19.19-39.86-35.48-4-8.82-6.15-18.92-6.21-30.42a373.79,373.79,0,0,1,2.94-47.53c-5.46-2.15-10.27-5.44-12.89-10.91a.27.27,0,0,1-.08-.07c-2.08,11.46-3.53,23-4.49,34.65-2,24.3-2.64,58.64,14.54,78.45,10,11.56,21.68,18.57,39.46,20.83,2.16.27,4.37.57,6.6.88C249.76,405.73,250.31,402.49,250.25,399.07Z"/></g><g opacity="0.1" ><path d="M390.18,411.22c-.7-9.29-.91-9.28-.9-9.28-5.31,1.25-9.09,4.25-14.4,5.48a160.1,160.1,0,0,1-19.48,2.95c-22.09,2.28-44.5.82-66.38-2.85a29.78,29.78,0,0,1-1.73-13.09,100.57,100.57,0,0,0-4,15.41,33,33,0,0,1-.63,4.66c0,.15-.08.3-.12.44,1.1.25,3.19.5,4.25.75,14.95,5.54,32.83,6.73,48.08,6.86,15.71.13,34.8-1.09,45.13-4.91,2.87-1.06,9.14-1.62,10.5-3.05C391.71,413.32,390.3,412.83,390.18,411.22Z"/></g><g opacity="0.1" ><path fill="#fff"  d="M480.63,289.33q-1.54-8.4-3.58-16.68a19.76,19.76,0,0,1-8.87,11.21c2.5,11.55,4.49,23.21,6.07,34.92,1.4,10.34,4.07,22.69-2.47,31.88,4.28-6,9.86-10.61,11.34-14.66C488.39,321.62,483.31,303.82,480.63,289.33Z"/></g><path fill="#2d2926"  d="M376.41,99.41C393.86,109,408.2,123,419.73,139.13c6.56,9.19,10.9,18.71,15.95,28.77,5.92,11.76,11.19,22.71,16.58,34.72,1.24,2.76,4.58,4.42,5.79,7.19,6.09-1.85,10-4.78,12.24-12.11,7.23-23.77-25.09-70.54-55.82-91.36-23.6-16-40.32-15.9-51.21-13.22A107.1,107.1,0,0,1,376.41,99.41Z"/>        <g opacity="0.1" ><path fill="#fff"  d="M453.7,203.8c-11.28-27.21-25.53-53.08-44.83-75.49-16.21-18.84-29.22-25.15-29.44-25.34,6.06,5.3,10.42,13.69,14.49,20.5,13.25,22.2,26.95,45.74,44.62,65,4.78,5.2,10.2,9.29,14.09,15.33.63,1,1.23,2,1.81,3C453.38,204.15,454.78,206.41,453.7,203.8Z"/></g><g opacity="0.1" ><path fill="#fff"  d="M481.6,289.23c-1-5.6-3.2-11.06-4.55-16.58a19.71,19.71,0,0,1-8.87,11.2c2.5,11.56,4.49,23.21,6.07,34.93,1.4,10.33,4.07,22.69-2.47,31.88,4.28-6,9.86-10.61,11.34-14.66C488.39,321.61,484.27,303.72,481.6,289.23Z"/></g>    </g>    <g id="outline">        <path d="M452.79,396.45a74.64,74.64,0,0,0,11.24-8.8c13.41-12.74,20.76-30.16,23-48.33,2.74-21.85-1.67-43.92-7.23-65-.26-1-.53-2-.8-2.95C484.77,254.69,475,232,466,218.91c-2.06-3-4.26-5.89-6.55-8.72,5.27-2,9.82-5.7,11.79-12.19,7.21-23.69-25.32-71.16-56-92-12-8.11-30-17.2-48.08-14.51-1.38.21-2.68.47-3.89.77-13.05-5-27.1-7.16-41.07-5.33a76.35,76.35,0,0,0-18.43,4.89c-.61-.12-1.23-.23-1.87-.33-18.07-2.69-36.12,6.4-48.09,14.51-30.69,20.8-63.22,68.27-56,92,2.29,7.56,8.08,11.31,14.44,13.06-.09.21-.19.43-.27.64-.58.58-1.17,1.14-1.74,1.72a71.11,71.11,0,0,0-18.36,34c-1.89,8.09-2.48,18.7,1.32,26.7q-.93,4.44-1.77,8.91c-3.19,17.56-5.52,35.46-5,53.34a124.13,124.13,0,0,0,2.93,24.35,21.68,21.68,0,0,1-12.22-1.83,23.68,23.68,0,0,1-10.27-10.33,36.35,36.35,0,0,1-4-14.28A30.84,30.84,0,0,1,165,319.67l1.67-3.79-2.92,2.93a30.86,30.86,0,0,0-5.92,8.75,43.78,43.78,0,0,0-3.3,10,36.18,36.18,0,0,0,1.62,20.78,28.54,28.54,0,0,0,5.8,8.83,32.61,32.61,0,0,0,8.47,6.25,34.12,34.12,0,0,0,20.45,3.69,38.08,38.08,0,0,0,3.86-.73,63.27,63.27,0,0,0,3.75,6.85,52.62,52.62,0,0,0,21.1,19.2c.91.46,1.84.89,2.78,1.31a11.42,11.42,0,0,0,1.25.53l.49.2c-.49.15-1,.36-1.45.52-1.7.58-3.42,1.11-5.11,1.72-3.3,1.19-9.11,3.11-6.74,7.74,2.06,4,8.64,4.75,12.49,5.28a123.81,123.81,0,0,0,19.35.87c1.4,0,3.42.1,5.44,0a3.91,3.91,0,0,1-.43.94,4.48,4.48,0,0,1-.77.81,20.81,20.81,0,0,1-4.84,2.41,16.84,16.84,0,0,0-2.77,1.41,5.55,5.55,0,0,0-2.33,2.74,6.28,6.28,0,0,0,2,6.48,11.73,11.73,0,0,0,2.6,1.84,19.49,19.49,0,0,0,2.82,1.24,21.22,21.22,0,0,0,2.93.82,26.7,26.7,0,0,0,3,.45,49.12,49.12,0,0,0,11.81-.34,39.28,39.28,0,0,0,5.82-1.31,17.34,17.34,0,0,0,5.36-3,25.06,25.06,0,0,0,7.12-9.57,12.5,12.5,0,0,0,.55-1.41,12,12,0,0,0,.44-1.45c.27-1,.47-1.91.67-2.87s.4-2,.59-3.07l.32.07c22.75,4.9,46.19,7.78,69.48,6.66A158.18,158.18,0,0,0,384.12,419c2.24-.58,4.46-1.23,6.67-1.93a28.42,28.42,0,0,0,3.17,7.31,21.75,21.75,0,0,0,8.19,8c.44.21.88.45,1.34.62l.69.28.7.23c.94.3,1.84.5,2.77.71a50.13,50.13,0,0,0,5.58.86,46.31,46.31,0,0,0,11.33-.32A23.23,23.23,0,0,0,430.1,433a14.18,14.18,0,0,0,2.58-1.54,8.69,8.69,0,0,0,2.19-2.32,6.54,6.54,0,0,0,1-3.22,4.84,4.84,0,0,0-1.16-3.36,8,8,0,0,0-2.59-1.91,28.21,28.21,0,0,0-2.66-1.13,19.06,19.06,0,0,1-4.67-2.19,4.64,4.64,0,0,1-.78-.75,2,2,0,0,1-.42-.81,4.13,4.13,0,0,1-.1-.44l.86.08a141.4,141.4,0,0,0,21.19.06c5.56-.3,11.61-.37,17-1.79,4.09-1.08,2.59-5.49.27-8-3.66-4-9.54-4.72-14.51-6l-.47-.14c.33-.21.63-.44.78-.52Q450.74,397.77,452.79,396.45Zm7.4,15.15a139.56,139.56,0,0,1-19.05,1.56c-5.87.2-12.06.51-17.92-.35-.13-3.43,0-7,.26-10.46.23-3.66.52-7.31.86-11,.7-7.31,1.55-14.61,2.69-21.86.55-3.63,1.18-7.25,2-10.83.4-1.79.86-3.57,1.43-5.31a24.1,24.1,0,0,1,1-2.57,9.33,9.33,0,0,1,.64-1.21,5.14,5.14,0,0,1,.84-1.08q-.19.18-.39.39a3.28,3.28,0,0,0-.53.64,7.92,7.92,0,0,0-.72,1.18,24,24,0,0,0-1.15,2.53c-.66,1.72-1.21,3.49-1.71,5.27-1,3.56-1.81,7.16-2.55,10.78-1.42,7.24-2.53,14.54-3.4,21.87-.45,3.66-.83,7.33-1.11,11a108.58,108.58,0,0,0-.42,11.16c0,.48,0,1,.1,1.47a9.51,9.51,0,0,0,.27,1.53,4.59,4.59,0,0,0,.33.86,5.89,5.89,0,0,0,.5.76,6.57,6.57,0,0,0,1.19,1.17,21.14,21.14,0,0,0,5.26,2.55c1.67.65,3.38,1.34,4.25,2.37a2.16,2.16,0,0,1,.46.8,2.38,2.38,0,0,1,.12.94,4,4,0,0,1-.61,2,6.77,6.77,0,0,1-1.73,1.78,5.45,5.45,0,0,0-.23-3.53,6.6,6.6,0,0,0-2.73-3.23,9,9,0,0,0-1.92-.77,13.34,13.34,0,0,0-1.86-.42,15.43,15.43,0,0,0-3.81-.26,16,16,0,0,0,3.21,2.08c.54.29,1.16.53,1.64.78a16,16,0,0,1,1.48.69,8.65,8.65,0,0,1,2.32,2.06,11.21,11.21,0,0,1,1.72,3.09l-.23-.2a13,13,0,0,1-1.59.89,20.13,20.13,0,0,1-4.94,1.61,38.82,38.82,0,0,1-3.92.41,2.62,2.62,0,0,0,.64-1.21,3.6,3.6,0,0,0-.21-2.07,7.25,7.25,0,0,0-2.46-2.88A10.77,10.77,0,0,0,415,425a8.21,8.21,0,0,0-3.56-.36c.94.81,1.84,1.44,2.71,2.08l2.56,1.88a15.93,15.93,0,0,1,2.25,1.87,3.27,3.27,0,0,1,.68,1.14,2.54,2.54,0,0,1,.07,1.56h0l-.3-.31a51.85,51.85,0,0,1-6-.1,45.54,45.54,0,0,1-5.33-.74c-.86-.18-1.77-.37-2.59-.62l-.61-.18-.6-.23c-.4-.15-.78-.35-1.17-.53a20.35,20.35,0,0,1-7.56-7.11,26.78,26.78,0,0,1-2.44-4.73,30.8,30.8,0,0,1-1.5-5.15c-.75-3.54-1.07-7.22-1.68-10.88-.31-1.83-.72-3.63-1.09-5.43s-.76-3.61-1.25-5.4a31.41,31.41,0,0,0-2-5.17c-.77-1.67-1.5-3.36-2.22-5.06h0c.6,1.74,1.22,3.48,1.88,5.2a31.91,31.91,0,0,1,1.75,5.18c.39,1.78.67,3.6,1,5.42s.6,3.63.81,5.44c.46,3.62.66,7.31,1.29,11,.05.31.12.62.17.92q-3.93,1.26-7.94,2.24c-21.55,5.31-44.22,5.26-66.17,2.9a315.35,315.35,0,0,1-33-5.44,1.7,1.7,0,0,1,0-.22c.66-3.79,1.32-7.58,2.13-11.33a112.43,112.43,0,0,1,2.85-11.15c.56-1.83,1.24-3.63,2-5.41.39-.87.76-1.76,1.17-2.63l1.34-2.56a49.29,49.29,0,0,0-5.08,10.39,113.52,113.52,0,0,0-3.41,11.09c-.95,3.75-1.74,7.53-2.54,11.3-.4,1.88-.78,3.77-1.21,5.63-.22.92-.44,1.85-.7,2.74-.12.46-.28.88-.43,1.3a11.51,11.51,0,0,1-.54,1.27,25.12,25.12,0,0,1-2.87,4.75,20.33,20.33,0,0,1-3.83,3.92,15,15,0,0,1-4.73,2.53,37.08,37.08,0,0,1-5.47,1.14,48.54,48.54,0,0,1-8.69.42l-.3.31a2.61,2.61,0,0,1,.07-1.56,3.35,3.35,0,0,1,.69-1.14,15.38,15.38,0,0,1,2.25-1.87l2.56-1.88c.87-.64,1.77-1.28,2.7-2.08a8.07,8.07,0,0,0-3.56.36,10.86,10.86,0,0,0-3.17,1.64,7.25,7.25,0,0,0-2.45,2.89,3.44,3.44,0,0,0-.21,2.07,2.44,2.44,0,0,0,.63,1.2c-.58,0-1.17-.06-1.76-.11a21.28,21.28,0,0,1-2.71-.42,20.19,20.19,0,0,1-2.63-.75,15.57,15.57,0,0,1-2.46-1.09q-.45-.25-.87-.54l-.24.21a11.07,11.07,0,0,1,1.72-3.09,8.47,8.47,0,0,1,2.31-2.06c.4-.26,1-.44,1.48-.69s1.11-.49,1.65-.78a16,16,0,0,0,3.21-2.08,15.52,15.52,0,0,0-3.82.25,14.88,14.88,0,0,0-1.85.43,8.76,8.76,0,0,0-1.92.77,6.62,6.62,0,0,0-2.74,3.23,5.52,5.52,0,0,0-.23,3.51,8.54,8.54,0,0,1-.79-.65,5,5,0,0,1-1.32-1.88l-.15-.51a3.6,3.6,0,0,1-.07-.55,2.44,2.44,0,0,1,.12-.95c.37-1.16,2-2.05,3.75-2.76.87-.37,1.77-.73,2.69-1.16a11.85,11.85,0,0,0,2.73-1.64,6.24,6.24,0,0,0,1.2-1.3,4.92,4.92,0,0,0,.45-.81,3.83,3.83,0,0,0,.17-.43l.13-.38a14,14,0,0,0,.55-3.08c.15-2,.1-3.95.08-5.88s0-3.84,0-5.76c0-3.85,0-7.72-.07-11.58a136.93,136.93,0,0,0-2.14-23.11,56.9,56.9,0,0,0-3.33-11.14,29.71,29.71,0,0,0-2.8-5.1,18.48,18.48,0,0,0-4-4.21,18.46,18.46,0,0,1,3.67,4.41,30.51,30.51,0,0,1,2.5,5.14,56.43,56.43,0,0,1,2.76,11.11A149.87,149.87,0,0,1,249,395c0,3.84-.11,7.68-.17,11.53,0,1.93-.05,3.87-.06,5.8s0,3.85-.16,5.66v0c-1.1.05-2.22,0-3.24.06a152.3,152.3,0,0,1-17.49-.3c-3.1-.25-14-.56-15-4.78-.92-3.7,11.24-5.38,13.71-6.89,1.07-.65,1.92-1.43,1.08-2.69-.51-.77-2.13-1-2.87-1.31a53.66,53.66,0,0,1-7-3.46c-29.69-17.42-30.85-57.46-27.9-87.79.89-9.12,2.27-18.19,3.91-27.2.4-2.13.84-4.25,1.27-6.38.24.34.47.68.73,1,8.93,11,22.83,13,36.08,10.45,15.68-3.06,28.91-12.2,35.48-27.08.17-.38-.09-2.1-.26-1.73-5.34,11.83-15.6,20-27.91,23.72-11.64,3.51-25.2,5-35.89-1.79-4.29-2.73-8.23-6.37-10.12-11.17-3.28-8.31-2.17-17.46.46-25.77A72,72,0,0,1,211.73,215c8.9-9,19.15-16.63,26.84-26.74.27-.34-.07-1.79-.14-1.72-6.78,7.6-14.65,14.05-22.1,21a371.61,371.61,0,0,1,30.89-59.11c12.3-19.09,26.91-37.83,46.94-49.29A77.49,77.49,0,0,1,352,91.27c18.78,4.74,35.69,15.5,49.51,28.88,15.58,15.07,25.54,33.13,35.11,52.34q6.32,12.64,12.27,25.49c-4.46-4.91-9-9.74-13.36-14.69,0,0-.33,1.37-.06,1.73,7.17,9.45,15.54,17.92,23.06,27.09,7.94,9.7,14.4,20.1,18.42,32,4.38,13,4.57,28.19-7.4,37-10.07,7.37-22.18,6.93-33.9,4.18-13.94-3.26-25.83-11.49-31.82-24.77-.16-.35-.35,1.34-.18,1.74a46.06,46.06,0,0,0,28.79,25.41c12.81,3.87,26.82,4.45,37.83-4a25.79,25.79,0,0,0,7.37-8.87,234,234,0,0,1,7.21,37.79c1.84,18.56,0,38.06-8.63,54.83a70.25,70.25,0,0,1-17.73,22c-4,3.29-8.6,5.43-12.75,8.42-1,.7-2,1.43-1.29,2.75.54,1,2.24,1.25,3.21,1.49,2.43.62,4.9,1,7.28,1.84,2.62.88,5.65,2.17,7,4.74C463.39,411.29,463,411.1,460.19,411.6ZM180.61,375.44a32.84,32.84,0,0,1-9.51-3.34,31.2,31.2,0,0,1-8.08-6,27.16,27.16,0,0,1-5.45-8.38,34.52,34.52,0,0,1-1.45-19.87,42.71,42.71,0,0,1,3.13-9.63,34.81,34.81,0,0,1,2.94-5.1,35.37,35.37,0,0,0-.87,11.22,37.54,37.54,0,0,0,4.27,14.84,24.63,24.63,0,0,0,11,10.85,23,23,0,0,0,13.07,1.77,78.22,78.22,0,0,0,4.51,13.32c-1.13.25-2.28.46-3.44.6A33.74,33.74,0,0,1,180.61,375.44Zm33-223.37c11.17-17.51,26.69-34,41.51-44,17-11.52,30.56-14.56,40.15-14.56a40.82,40.82,0,0,1,4.13.2c-12,5.59-22.63,14-31.76,23.72-16.54,17.64-29.32,39.12-40.36,60.51q-7.8,15.1-14.19,30.86c-6.86-1.78-11.23-5.62-13-11.51C197,187,201.9,170.49,213.64,152.07Zm200.19-44c14.82,10,30.33,26.49,41.51,44,11.74,18.42,16.68,34.9,13.54,45.22-1.61,5.31-5.32,9-11.06,10.93q-1.74-2.1-3.52-4.14L453,201.17c-5.38-11.89-11.09-23.63-17-35.28-5-9.83-9.94-19.56-16.41-28.51-11.53-15.93-26.35-29.79-43.68-39.22q-4.2-2.28-8.6-4.18l.32,0C384.89,91.43,402.28,100.24,413.83,108.07Z"/><path d="M338.67,328.5c-23.56,2.27-47.86-6.38-63.87-23.94,0,0-.17.61,0,.77,16,17.76,40.23,26.78,63.93,24.71,24.15-2.11,46.52-15.4,61.49-34.21.22-.28-.08-1.36-.11-1.32C384.71,313,362.86,326.17,338.67,328.5Z"/><path d="M383.49,318.68C360.41,342.39,318,348.86,292,326.47c-.05,0-.23.82,0,1,25.9,22.51,69,17.29,91.63-7.56C383.8,319.67,383.54,318.62,383.49,318.68Z"/><path d="M364.32,339.39c-14.65,11.7-38.81,13.35-54.78,3.49-.1-.07-.27,1,0,1.14,16.06,9.91,40.28,8.73,54.92-3.37C364.66,340.45,364.41,339.31,364.32,339.39Z"/>    </g>    <g id="eye">        <g id="eye-color1">            <g opacity="0" ><path fill="#FCD4D4"  d="M284,132c-.14.46-.21.94-.36,1.4a15.33,15.33,0,0,1-1.35,2.87c-.52.94-1,1.89-1.54,2.83-.24.41-.5.8-.77,1.2-.14.2-.28.41-.43.61s-.45.47-.45.6l-.6.74c-5.88,7-13.9,9.8-22.69,6.54-8.54-3.18-14.21-10.41-14.65-19.54a1.27,1.27,0,0,1,0-.28,1,1,0,0,1,0-.3,23.29,23.29,0,0,1,19-21.81,18.93,18.93,0,0,1,11.42,1.35c-15.29-7.7-34.35-2.93-39.29,15.33a20.54,20.54,0,0,0-.66,6.53,29.36,29.36,0,0,0,10.48,20.24c8.59,7.08,21.5,6.67,31,1.76,7.19-3.69,10-12.6,10.92-20.45C284.09,131.73,284.05,131.85,284,132Z"/></g><g opacity="0" ><path fill="#FCD4D4"  d="M407.76,125.92c-.24.62-.44,1.25-.69,1.86a25.27,25.27,0,0,1-2,3.66,30.31,30.31,0,0,1-2.53,3.43c-5.89,7-13.91,9.8-22.7,6.54-8.53-3.18-14.2-10.41-14.65-19.54a2.46,2.46,0,0,1,0-.28,2.66,2.66,0,0,1,0-.3,23.3,23.3,0,0,1,19-21.81,19,19,0,0,1,11.42,1.35c-15.3-7.7-34.36-2.93-39.3,15.33a20.83,20.83,0,0,0-.66,6.53,29.4,29.4,0,0,0,10.48,20.24c8.59,7.08,21.5,6.67,31,1.77,6.91-3.55,9.73-12,10.77-19.66C407.93,125.29,407.86,125.67,407.76,125.92Z"/></g>        </g>        <g id="eye-shape">            <path d="M220.75,186a1.18,1.18,0,0,0,1.6.57,1.45,1.45,0,0,0,.22-.09l.13-.05c5-2.07,10.08-4.56,15.26-6.22,3.31-1.06,3.64.38,5.91,2.67a44.14,44.14,0,0,0,4.66,4.09,36.62,36.62,0,0,0,21.08,7.5A40.09,40.09,0,0,0,302.52,178a47.31,47.31,0,0,0,8.57-21.65c.17-1.32-.41-5.8,0-6.7.49-1.08,5.79-2.53,7-3.07q6.13-2.68,12.24-5.42c14.58-6.53,28.85-13.74,43.36-20.39-12.56,12.13-13.22,31.28-7.45,47,5.88,16,19.05,32.15,37.53,32.1,19.25,0,36.3-15.42,41.63-33.35a41.26,41.26,0,0,0-.64-25.69c-4.67-12.92-14.66-21.38-27.25-26.38a56,56,0,0,0-15.7-3.82,35.23,35.23,0,0,0-11.07.8,6.64,6.64,0,0,0,1.47-2.13c.82-1.43-2.23-5.33-4.37-6.75-1.28-.85-2.49-1.72-3.74-2.59-1.45-1-3.4-2.08-5.13-1l-.48.29c-.63.34,1.27-.77.66-.38l-.42.26-.07.06-.41.25c-1.09.66-1.19.81-2.29,1.45q-6.74,3.94-13.64,7.6t-13.91,7.07q-7,3.43-14.12,6.66T320,128.51l-7.17,3.08-3.6,1.53-1.8.76-.68.29a47.33,47.33,0,0,0-23.92-20c-10.67-4-21.54-2.34-32,1.64-8.55,3.27-16.29,8.76-19.73,17.55-4.18,10.7-2.3,22.95,2,33.34-2.1.79-5.22,1.8-6.39,3.05-.86.91-1,2.44-1.5,3.6-1.53,3.81-3.67,7.41-4.75,11.39A1.37,1.37,0,0,0,220.75,186Zm177.69,10.38a27.23,27.23,0,0,1-3-.76c-15.37-4.81-25.15-21.23-28.48-36.16-3.52-15.83.68-32.76,15.31-41.4,7.82-4.63,16.25-5.48,25.07-3.61a57.25,57.25,0,0,1,13.79,4.85c2.73,1.38,5.12,3.33,7.81,4.73,15.12,11.6,19.3,31.46,10.93,48.47A46.83,46.83,0,0,1,420,192.85C413.3,196.3,405.84,197.86,398.44,196.39Z"/><path fill="none"  d="M420,192.85c-6.65,3.45-14.11,5-21.51,3.54A34.2,34.2,0,0,0,420,192.85Z"/><path fill="#fff"  d="M420,192.85a46.83,46.83,0,0,0,19.9-20.34c8.37-17,4.19-36.87-10.93-48.47-2.69-1.4-5.08-3.35-7.81-4.73a57.25,57.25,0,0,0-13.79-4.85c-8.82-1.87-17.25-1-25.07,3.61-14.63,8.64-18.83,25.57-15.31,41.4,3.33,14.93,13.11,31.35,28.48,36.16a27.23,27.23,0,0,0,3,.76A34.2,34.2,0,0,0,420,192.85Zm-26.34-15.24c-11.38.59-16.79-10.33-18.41-20.36a44.34,44.34,0,0,1-.51-5c-.3-7.3,2.38-13.24,7.29-16.52a9,9,0,0,0-.43,3.91c.41,4.09,2.62,8.82,7.42,8.37,4.1-.38,7.16-3.89,7.81-7.77a1.5,1.5,0,0,0,.07-.44,1.39,1.39,0,0,0,0-.46,7.59,7.59,0,0,0-3.6-6.3c.26,0,.52,0,.78,0,12.33,1.17,22.05,8.79,21.92,21.78a1.93,1.93,0,0,1,0,.34,1.74,1.74,0,0,1-.05.34C414.59,166.59,405.14,177,393.61,177.61Z"/><path fill="#212121"  d="M229.91,170.54c1.58-1.22,4.13-1.9,6-2.73.8-.37.84-.37.54-1.06-4.54-10.3-6.81-23.53-1.64-34.07,3.81-7.77,11.52-12.22,19.46-14.87,9.27-3.09,18.49-4.27,27.86-.75a44.26,44.26,0,0,1,22.77,19.75,1.52,1.52,0,0,0,1.69.69c26.57-11.17,51.35-21.56,76-36.52a8.79,8.79,0,0,1-.83.5c.41.33.86.74,1.38,1.23,2.39,2.25,6.5,5.47,6.5,5.47-1.56,2.89-5.24,4.51-8.1,5.84-7.2,3.33-14.36,6.75-21.52,10.17q-25.26,12.06-51,23.12a1.43,1.43,0,0,0-.74,1.29c1,17-8.77,35.27-24.92,41.48-15.64,6-31.17-.05-41.29-12.78a1.45,1.45,0,0,0-1.46-.39c-5.4,2.21-11.8,4.41-17.2,6.61,1-2.47,2.25-5.85,3.28-8.3A12.85,12.85,0,0,1,229.91,170.54Z"/><path d="M375.2,157.25a44.34,44.34,0,0,1-.51-5c-.3-7.3,2.38-13.24,7.29-16.52a9,9,0,0,0-.43,3.91c.41,4.09,2.62,8.82,7.42,8.37,4.1-.38,7.16-3.89,7.81-7.77a1.5,1.5,0,0,0,.07-.44,1.39,1.39,0,0,0,0-.46,7.59,7.59,0,0,0-3.6-6.3c.26,0,.52,0,.78,0,12.33,1.17,22.05,8.79,21.92,21.78a1.93,1.93,0,0,1,0,.34,1.74,1.74,0,0,1-.05.34c-1.29,11-10.74,21.44-22.27,22S376.82,167.28,375.2,157.25Z"/>        </g>        <g id="eye-color2">            <path fill="#D6FF73"  d="M393.5,177.61c11.53-.6,21-11,22.27-22a1.22,1.22,0,0,0,0-.34,1,1,0,0,0,0-.34c.14-13-9.58-20.61-21.91-21.78-.27,0-.52,0-.79,0L393,133c1.07.65,5.12-.1,6.52,0a40.67,40.67,0,0,1,7.18,1.22,32,32,0,0,1,12.74,6.42c17.28,14.9,1.45,40.58-18,42.56-9.1.92-17.64-3-21.82-11.29a44.28,44.28,0,0,1-4.49-14.67C376.71,167.28,382.12,178.2,393.5,177.61Z"/>        </g>    </g>    <g id="nose-mouth">        <path fill="none"  d="M409,275.37h0Z"/><path fill="none"  d="M394.78,308.82l0,.08s0,0,0-.07Z"/><path fill="#e8d3b3"  d="M361.93,304.22a40.62,40.62,0,0,1,3.69,9.25,32.5,32.5,0,0,1,1.09,10,28.16,28.16,0,0,1-1.22,7c.94-.4,1.88-.84,2.78-1.31a33.14,33.14,0,0,0,5.12-3.27,32.58,32.58,0,0,0,8-9.07,36.91,36.91,0,0,0,4.43-11.47,60.07,60.07,0,0,0,1.23-12.54,44.83,44.83,0,0,1,.64,8.36,21.71,21.71,0,0,1,4.89,4.1,12.15,12.15,0,0,1,1.77,2.62l.08-.11a25.11,25.11,0,0,0,2.45-5.9,40.39,40.39,0,0,0,1.32-6.67c-.26-.49-.54-1-.85-1.46a15.93,15.93,0,0,1,2.55,2.93,25.91,25.91,0,0,1,1.88,3.43,35.8,35.8,0,0,1,1.36,3.67c0,.12.07.25.11.38l.71-1.45c.57-1.54,1.32-3,1.84-4.55a49.08,49.08,0,0,0,2.38-9.42,37.41,37.41,0,0,0,.06-9.69,29,29,0,0,0-2.85-9.46,19.44,19.44,0,0,1,3.58,5.76h0a21.12,21.12,0,0,1,3.61.54,34.7,34.7,0,0,1,4.56,1.49,45.09,45.09,0,0,1,4.33,2.05c.53.28,1,.59,1.55.89a48.63,48.63,0,0,0-1-5.12,32.4,32.4,0,0,0-2.83-7.41,28.07,28.07,0,0,0-2.14-3.33,24.78,24.78,0,0,0-2.68-2.94,21.28,21.28,0,0,0-6.89-4.32,16.48,16.48,0,0,1,8,3c.41.28.8.6,1.19.91.73-.13,1.46-.27,2.19-.35a29.66,29.66,0,0,1,3-.23,32,32,0,0,1,6,.33,31.13,31.13,0,0,1,5.9,1.43,27.11,27.11,0,0,1,2.8,1.1,49.94,49.94,0,0,0-8.27-13.81,45.43,45.43,0,0,0-6.88-6.56c-1.23-1-2.56-1.88-3.88-2.77s-2.73-1.64-4.16-2.35a68.43,68.43,0,0,0-18.19-6.23,94.94,94.94,0,0,0-14-1.74c-.27,1.15-.58,2.32-1,3.5-6.48,19.83-28.21,40.19-43.87,41.1-.52,0-1,.05-1.58.05-15.46,0-37.36-12.51-48.72-28.07a44.82,44.82,0,0,1-5.42-9.56,117.07,117.07,0,0,0-12.57,4.44,72.2,72.2,0,0,0-17.07,9.82,37.91,37.91,0,0,0-6.84,6.85,30.84,30.84,0,0,0-4.65,8.32,29.93,29.93,0,0,0-1.58,9.35l.05,2.4.28,2.39c.05.39.09.8.15,1.19l0,.23c.21-.28.42-.54.64-.81a21.72,21.72,0,0,1,3.33-3.24,16.6,16.6,0,0,1,4.09-2.35,14.57,14.57,0,0,1,4.65-1l1.45-.1-.17,1.45a37.19,37.19,0,0,0-.17,5.5,39,39,0,0,0,.61,5.51,25.27,25.27,0,0,0,1.6,5.25,18.45,18.45,0,0,0,2.08,3.43,17.92,17.92,0,0,1,.25-1.79,16.23,16.23,0,0,1,.95-3.21,11.64,11.64,0,0,1,1.72-2.85,8.87,8.87,0,0,1,2.61-2,2.83,2.83,0,0,0-.28.2,6.31,6.31,0,0,1,.63-.34,36.56,36.56,0,0,1,2.68-11.74,33.12,33.12,0,0,0-1.37,5.87,40.24,40.24,0,0,0-.49,6A39.29,39.29,0,0,0,265,297.51a36.32,36.32,0,0,0,2.11,5.54,39,39,0,0,0,2.9,5.16,47.12,47.12,0,0,0,5.71,7c.05-.86.13-1.72.25-2.58a34.78,34.78,0,0,1,1.1-5.31,26.28,26.28,0,0,1,2.05-5.1,19.57,19.57,0,0,1,3.31-4.53l2.47-2.52-.06,3.61a49,49,0,0,0,1.27,11.65,39.22,39.22,0,0,0,4.19,10.88,27.7,27.7,0,0,0,7.58,8.6,28.51,28.51,0,0,0,8.75,4.28c0-1.59,0-3.16.09-4.74.11-2.21.3-4.41.61-6.61a43.94,43.94,0,0,1,1.4-6.55,19,19,0,0,1,3.05-6.21l.76-.94.82.83a34.91,34.91,0,0,1,5.28,6.85,22.78,22.78,0,0,1,1.84,4,13.07,13.07,0,0,1,.71,3.59,7.92,7.92,0,0,0,1.57-.42,9.2,9.2,0,0,0,2.13-1.21,11.72,11.72,0,0,0,3.17-3.86,20.71,20.71,0,0,0,1.78-4.83,31.93,31.93,0,0,0,.77-4.26c-.2-.21-.39-.44-.6-.65a44,44,0,0,0-5.45-4.79,28.47,28.47,0,0,1,6.37,3.76,29.39,29.39,0,0,1,5.32,5.31,23.53,23.53,0,0,1,3.69,6.7l.61,1.84c.15.64.26,1.28.38,1.91.06.32.13.64.17,1l0,.46a47.6,47.6,0,0,0,10.8-8.76l1.32-1.55c.42-.53.79-1.09,1.19-1.64a13.37,13.37,0,0,0,1.12-1.69,16.56,16.56,0,0,0,1-1.78l.89-1.85c.29-.62.46-1.29.71-1.93l.36-1c.1-.33.16-.67.24-1l.05-.21a25.18,25.18,0,0,0,.43-2.53,53.33,53.33,0,0,0-2.91-5.28A41.71,41.71,0,0,1,361.93,304.22Z"/><path d="M439.85,265.47a51.39,51.39,0,0,0-3.7-9.35,50,50,0,0,0-2.51-4.38c-.45-.72-1-1.38-1.47-2.07l-.75-1-.82-1a44,44,0,0,0-7.28-7,49.11,49.11,0,0,0-8.58-5.33,62.39,62.39,0,0,0-9.38-3.61,71,71,0,0,0-9.78-2,72.93,72.93,0,0,0-14.16-.5c2.2-10.25-.35-18.92-7.37-24.72-14.57-12-41.79-12-62.29-6.63C295.08,202.2,283.21,209.76,280,218c-2.18,5.64-2,11.82.43,18.22a95.82,95.82,0,0,0-12.92,3.55,67.55,67.55,0,0,0-18.06,9.34,36.16,36.16,0,0,0-12.67,16.21A30.68,30.68,0,0,0,235,275.7l.07,2.62.33,2.59c.06.43.1.86.18,1.29l.29,1.27.57,2.53.88,3.81,1.82-3.57a21.91,21.91,0,0,1,2.19-3.36,19.35,19.35,0,0,1,2.82-2.9,13.82,13.82,0,0,1,3.38-2.05,10.7,10.7,0,0,1,2.46-.73,41.58,41.58,0,0,0,.13,4.33,34.67,34.67,0,0,0,.92,5.8,27.07,27.07,0,0,0,2,5.53,18,18,0,0,0,3.62,4.7l1.12,1-.11-1.5a18.53,18.53,0,0,1,.08-3.15,15.76,15.76,0,0,1,.64-3.11,11.83,11.83,0,0,1,1.37-2.87,8.74,8.74,0,0,1,2.05-2,2.83,2.83,0,0,1,.28-.2,8.87,8.87,0,0,0-2.61,2,11.64,11.64,0,0,0-1.72,2.85,16.23,16.23,0,0,0-.95,3.21,17.92,17.92,0,0,0-.25,1.79,18.45,18.45,0,0,1-2.08-3.43,25.27,25.27,0,0,1-1.6-5.25,39,39,0,0,1-.61-5.51,37.19,37.19,0,0,1,.17-5.5l.17-1.45-1.45.1a14.57,14.57,0,0,0-4.65,1,16.6,16.6,0,0,0-4.09,2.35,21.72,21.72,0,0,0-3.33,3.24c-.22.27-.43.53-.64.81l0-.23c-.06-.39-.1-.8-.15-1.19l-.28-2.39-.05-2.4a29.93,29.93,0,0,1,1.58-9.35,30.84,30.84,0,0,1,4.65-8.32,37.91,37.91,0,0,1,6.84-6.85,72.2,72.2,0,0,1,17.07-9.82,117.07,117.07,0,0,1,12.57-4.44,44.82,44.82,0,0,0,5.42,9.56c11.36,15.56,33.26,28.07,48.72,28.07.54,0,1.06,0,1.58-.05,15.66-.91,37.39-21.27,43.87-41.1.39-1.18.7-2.35,1-3.5a94.94,94.94,0,0,1,14,1.74,68.43,68.43,0,0,1,18.19,6.23c1.43.71,2.79,1.54,4.16,2.35s2.65,1.77,3.88,2.77a45.43,45.43,0,0,1,6.88,6.56,49.94,49.94,0,0,1,8.27,13.81,27.11,27.11,0,0,0-2.8-1.1,31.13,31.13,0,0,0-5.9-1.43,32,32,0,0,0-6-.33,29.66,29.66,0,0,0-3,.23c-.73.08-1.46.22-2.19.35-.39-.31-.78-.63-1.19-.91a16.48,16.48,0,0,0-8-3,21.28,21.28,0,0,1,6.89,4.32,24.78,24.78,0,0,1,2.68,2.94,28.07,28.07,0,0,1,2.14,3.33,32.4,32.4,0,0,1,2.83,7.41,48.63,48.63,0,0,1,1,5.12c-.51-.3-1-.61-1.55-.89a45.09,45.09,0,0,0-4.33-2.05,34.7,34.7,0,0,0-4.56-1.49,21.12,21.12,0,0,0-3.61-.54h0a19.44,19.44,0,0,0-3.58-5.76,29,29,0,0,1,2.85,9.46,37.41,37.41,0,0,1-.06,9.69,49.08,49.08,0,0,1-2.38,9.42c-.52,1.55-1.27,3-1.84,4.55l-.71,1.45c0-.13-.07-.26-.11-.38a35.8,35.8,0,0,0-1.36-3.67,25.91,25.91,0,0,0-1.88-3.43,15.93,15.93,0,0,0-2.55-2.93c.31.48.59,1,.85,1.46a40.39,40.39,0,0,1-1.32,6.67,25.11,25.11,0,0,1-2.45,5.9l-.08.11a12.15,12.15,0,0,0-1.77-2.62,21.71,21.71,0,0,0-4.89-4.1,44.83,44.83,0,0,0-.64-8.36,60.07,60.07,0,0,1-1.23,12.54,36.91,36.91,0,0,1-4.43,11.47,32.58,32.58,0,0,1-8,9.07,33.14,33.14,0,0,1-5.12,3.27c-.9.47-1.84.91-2.78,1.31a28.16,28.16,0,0,0,1.22-7,32.5,32.5,0,0,0-1.09-10,40.62,40.62,0,0,0-3.69-9.25,41.71,41.71,0,0,0-5.61-8.09,53.33,53.33,0,0,1,2.91,5.28c.54,1.11,1.06,2.23,1.53,3.37a47.55,47.55,0,0,1,2.77,9.16,32.62,32.62,0,0,1,.58,4.7,31.78,31.78,0,0,1-.06,4.68,28.83,28.83,0,0,1-2.32,9L360.55,335l2.86-.75a30.71,30.71,0,0,0,6.25-2.47,36.09,36.09,0,0,0,5.53-3.63,32.83,32.83,0,0,0,8.43-10.11,35.34,35.34,0,0,0,3.81-12.45c.15-1.28.24-2.56.28-3.84,1.07,1.64,2.15,3.21,3.06,4.81a12.47,12.47,0,0,1,1.27,2.81l.15.49a2.51,2.51,0,0,0,.46.83,2,2,0,0,0,1.33.69,2.26,2.26,0,0,0,1.2-.25,3.82,3.82,0,0,0,1.11-.87,9.36,9.36,0,0,0,.66-.85,16,16,0,0,0,2.33-7.12,14.43,14.43,0,0,0-.93-6.9c.28.56.54,1.12.79,1.68a35,35,0,0,1,1.19,3.54c.33,1.2.59,2.41.81,3.63a33.45,33.45,0,0,1,.5,3.64l.3,3.86,2-3.38q1.31-2.2,2.58-4.46c.37-.78.73-1.57,1.08-2.36a24,24,0,0,0,1-2.39,35.78,35.78,0,0,0,1.52-5c.17-.85.42-1.69.54-2.55s.23-1.73.32-2.6a30.71,30.71,0,0,0-.84-10.38,26.83,26.83,0,0,0-1-2.91c1.06.37,2.1.77,3.11,1.22,1.4.67,2.76,1.37,4.09,2.14s2.63,1.57,3.89,2.44,2.56,1.73,3.71,2.64l2.35,1.86-.1-3.06a37,37,0,0,0-1.22-8.53,32.33,32.33,0,0,0-1.39-4.13,26.09,26.09,0,0,0-2-3.88,21.65,21.65,0,0,0-4.68-5.28,42,42,0,0,1,5,.1,36.08,36.08,0,0,1,5.77.9,34.94,34.94,0,0,1,5.49,1.81,27.07,27.07,0,0,1,5,2.71l2.72,2Zm-45,43.43,0-.08h0C394.86,308.92,394.84,308.94,394.82,308.9ZM288.53,244.72c-4.65-6.38-9.43-16-5.72-25.6,2.81-7.28,14.19-14.32,29.71-18.38a101.33,101.33,0,0,1,25.6-3.44c15.39,0,27.43,4,34,9.48,8.91,7.36,7.79,18,5.29,25.7-6.16,18.85-26.56,38.18-41.19,39S299.76,260.1,288.53,244.72Z"/><path fill="#724331"  d="M377.43,232.48c2.5-7.66,3.62-18.34-5.29-25.7-6.59-5.43-18.63-9.48-34-9.48a101.33,101.33,0,0,0-25.6,3.44c-15.52,4.06-26.9,11.1-29.71,18.38-3.71,9.6,1.07,19.22,5.72,25.6,11.23,15.38,33.1,27.67,47.71,26.8S371.27,251.33,377.43,232.48Z"/><path d="M358.51,305.16l-.36,1c-.25.64-.42,1.31-.71,1.93l-.89,1.85a16.56,16.56,0,0,1-1,1.78,13.37,13.37,0,0,1-1.12,1.69c-.4.55-.77,1.11-1.19,1.64l-1.32,1.55a47.6,47.6,0,0,1-10.8,8.76l0-.46c0-.32-.11-.64-.17-1-.12-.63-.23-1.27-.38-1.91l-.61-1.84a23.53,23.53,0,0,0-3.69-6.7,29.39,29.39,0,0,0-5.32-5.31,28.47,28.47,0,0,0-6.37-3.76,44,44,0,0,1,5.45,4.79c.21.21.4.44.6.65a31.93,31.93,0,0,1-.77,4.26,20.71,20.71,0,0,1-1.78,4.83,11.72,11.72,0,0,1-3.17,3.86,9.2,9.2,0,0,1-2.13,1.21,7.92,7.92,0,0,1-1.57.42,13.07,13.07,0,0,0-.71-3.59,22.78,22.78,0,0,0-1.84-4,34.91,34.91,0,0,0-5.28-6.85l-.82-.83-.76.94a19,19,0,0,0-3.05,6.21,43.94,43.94,0,0,0-1.4,6.55c-.31,2.2-.5,4.4-.61,6.61-.07,1.58-.1,3.15-.09,4.74a28.51,28.51,0,0,1-8.75-4.28,27.7,27.7,0,0,1-7.58-8.6,39.22,39.22,0,0,1-4.19-10.88,49,49,0,0,1-1.27-11.65l.06-3.61-2.47,2.52a19.57,19.57,0,0,0-3.31,4.53,26.28,26.28,0,0,0-2.05,5.1,34.78,34.78,0,0,0-1.1,5.31c-.12.86-.2,1.72-.25,2.58a47.12,47.12,0,0,1-5.71-7,39,39,0,0,1-2.9-5.16,36.32,36.32,0,0,1-2.11-5.54,39.29,39.29,0,0,1-1.66-11.78,40.24,40.24,0,0,1,.49-6,33.12,33.12,0,0,1,1.37-5.87,36.56,36.56,0,0,0-2.68,11.74.28.28,0,0,0,0,.09,40.29,40.29,0,0,0,1,12.22,38.11,38.11,0,0,0,1.95,5.87,41.51,41.51,0,0,0,2.81,5.52,50,50,0,0,0,7.77,9.63l2,2V318a34,34,0,0,1,.4-5,33.34,33.34,0,0,1,1.11-4.89A22.64,22.64,0,0,1,282,302.7c0,.75.11,1.5.18,2.26a54,54,0,0,0,1,6.17,41.14,41.14,0,0,0,4.47,11.72,30,30,0,0,0,20,14.56l1.79.4L309.4,336c-.1-2.09-.1-4.26,0-6.4s.22-4.27.47-6.38A44.41,44.41,0,0,1,311,317a19.25,19.25,0,0,1,1.8-4.49c.64.66,1.27,1.35,1.86,2.05a29.81,29.81,0,0,1,2.42,3.28,15,15,0,0,1,2.68,7.39l0,.79.7-.06a9,9,0,0,0,5.12-2.27,13,13,0,0,0,3.17-4.39,24.45,24.45,0,0,0,1.92-9.36,36.43,36.43,0,0,1,3.73,4.83,25.56,25.56,0,0,1,2.92,6.28l.45,1.66.28,1.69c.05.28.11.56.14.84l0,.85.08,1.71.12,2.33,2-1a30,30,0,0,0,3.8-2.22,41.77,41.77,0,0,0,3.49-2.57,38.7,38.7,0,0,0,6.07-6.2,28.91,28.91,0,0,0,4.18-7.6,22.83,22.83,0,0,0,1.29-8.43l-.46,1.84-.05.21C358.67,304.49,358.61,304.83,358.51,305.16Z"/><path fill="#44241b"  d="M334.67,209.16c-2.9-9.63-30.7,1.33-28,8.71C310,227.07,337.57,218.79,334.67,209.16Z"/><path fill="#44241b"  d="M348.91,232.14a5.66,5.66,0,1,0-5.57-5.74A5.65,5.65,0,0,0,348.91,232.14Z"/><path fill="#44241b"  d="M311.74,231.56c-4.68-.07-8.54,3.94-8.62,9s3.66,9.15,8.34,9.22,8.55-3.94,8.63-9S316.43,231.64,311.74,231.56Z"/><path fill="#44241b"  d="M340.2,246.15a2.86,2.86,0,1,0,2.38,2.86A2.64,2.64,0,0,0,340.2,246.15Z"/>    </g></svg>