<!--  ~ Copyright (C) 2018 Baidu, Inc. All Rights Reserved.  --><svg viewBox="0 0 640 480" xmlns="http://www.w3.org/2000/svg">    <g id="back-ground-cl">        <rect fill="none" width="640" height="480" />        <ellipse opacity="0.1" cx="331.93" cy="418.82" rx="168.39" ry="32.01"/>    </g>    <g id="body">        <defs>            <clipPath id="outline">                <path fill="none"  d="M191,368c-11.84.35-48.23-1.43-56.94-35.55-3.59-14.05-1-26.83,7.4-36a43.12,43.12,0,0,1,11-8.54,23.34,23.34,0,0,1,4.22-1.61c2.44-.76,5-1.54,6-3.12a2.72,2.72,0,0,0,.26-3.11,3.39,3.39,0,0,0-3.53-1.12c-3.45.69-18.15,6.23-27.13,20.69-7,11.26-8.43,24.78-4.3,40.18,11.41,42.5,51,44.33,70.56,43.84-.14-.22-.29-.43-.43-.64A72.87,72.87,0,0,1,191,368Z"/><path fill="none"  d="M436.24,173.1c-9.43-18.92-19.18-36.8-34.42-51.77a132.89,132.89,0,0,0-14.69-12.47,12.73,12.73,0,0,1-3.58.26h.08c.42-.09.82-.2,1.22-.32a23.46,23.46,0,0,0,2.46-.93,30,30,0,0,0,3.45-1.85c1.11-.68,2.15-1.46,3.18-2.24l.29-.23-1.3-.09c-.8-.09-1.6-.18-2.39-.33s-1.57-.28-2.35-.46a42.55,42.55,0,0,1-9-3.17A45.47,45.47,0,0,1,375,97.17c-.67-.43-1.35-.83-2-1.28s-1.28-.93-1.9-1.41a45.65,45.65,0,0,1-3.6-3c-1.14-1.08-2.19-2.25-3.23-3.41,1.34.83,2.61,1.71,3.91,2.54l2,1.2c.65.42,1.3.81,2,1.17s1.34.73,2,1.11,1.36.68,2,1c1.35.69,2.74,1.28,4.12,1.9q2.38.94,4.81,1.72c.8,0,1.61,0,2.4-.14a26.31,26.31,0,0,0,4-.68,22.67,22.67,0,0,0,3.79-1.23,20.42,20.42,0,0,0,6.38-4.43,19.19,19.19,0,0,0,2.4-3c.18-.28.36-.58.53-.89l-.22,0c-1.07.19-2.16.31-3.23.47S399,89,397.88,89s-2.19,0-3.29-.19A18.24,18.24,0,0,1,388.25,87c-.48-.24-.93-.54-1.39-.81l0,0-.6-.44-.48.13h0c.16,0,.31-.1.47-.15a5.3,5.3,0,0,1-.67-.57,7.88,7.88,0,0,1-2-2.55,8.91,8.91,0,0,0,2.41,2c.42.29.92.46,1.36.71l.08,0a32.06,32.06,0,0,0,7-3.42,23,23,0,0,0,3.7-3,20.9,20.9,0,0,0,3-3.64,23.07,23.07,0,0,0,3.41-8.69,27.82,27.82,0,0,0,.27-7.67l-2.46,2.65c-1.26,1.25-2.6,2.43-3.9,3.65-.69.57-1.41,1.11-2.12,1.66a22.31,22.31,0,0,1-2.16,1.6l-2.29,1.45a9.15,9.15,0,0,1-1.19.65l-1.23.6a27.62,27.62,0,0,1-10.53,2.79,48.12,48.12,0,0,1-10.77-.82,101.77,101.77,0,0,0-10.31-1.45,31.46,31.46,0,0,0-10.05.83,36.28,36.28,0,0,0-9.35,3.84,38.31,38.31,0,0,0-4.23,2.81,31.83,31.83,0,0,0-3.75,3.32l-1.52,1.59L328,82a25.25,25.25,0,0,0-3.23-5.15c-.31-.41-.64-.81-1-1.19s-.68-.78-1-1.15a30,30,0,0,0-2.28-2.09,30.6,30.6,0,0,0-10.83-5.86,36,36,0,0,0-12.37-1.52,27.86,27.86,0,0,0-12,2.74,37.68,37.68,0,0,0-10,7.49c-3,3-5.8,6.34-8.93,9.45a36.24,36.24,0,0,1-10.75,7.9,26.3,26.3,0,0,1-6.49,1.91,29.81,29.81,0,0,1-5.5.24A15.87,15.87,0,0,0,245.4,99a16.9,16.9,0,0,0,3.81,4.36A21.47,21.47,0,0,0,260,107.74a41.79,41.79,0,0,0,12-.26c1-.16,2.07-.34,3.1-.55,2.33-.55,4.23-1.14,5.47-1.56l.7-.25c.8-.9,1.6-1.8,2.44-2.69a39.73,39.73,0,0,1,5-4.49,23.23,23.23,0,0,1,6-3.22,36.16,36.16,0,0,1,6.49-1.66,49.49,49.49,0,0,1,13.14-.31,72.33,72.33,0,0,0-12.79,2,41.62,41.62,0,0,0-6,2.07,22.93,22.93,0,0,0-5.27,3.21c-3.3,2.61-5.82,6-8.84,9.28a21.74,21.74,0,0,1-5.33,4.43c-.33.18-.66.33-1,.5.74,0,1.5,0,2.25,0a40.19,40.19,0,0,0,8-1,63.37,63.37,0,0,0,7.86-2.19l3.86-1.45c1.26-.56,2.54-1.08,3.82-1.61-1.17.73-2.34,1.49-3.53,2.21l-1.07.57c-.87.47-1.74.94-2.62,1.38a52.27,52.27,0,0,1-7.83,3,39.8,39.8,0,0,1-8.36,1.56,29.82,29.82,0,0,1-4.33,0l-.89-.09c-10,10-18.33,21.74-25.87,33.56a377.49,377.49,0,0,0-52.42,133.53c-1.65,9-3,18.11-3.92,27.25-2.94,30.42-1.68,70.59,28.43,87.67,2.13,1.21,13,3.79,8.39,7.39-2.4,1.85-14.49,3-13.86,6.68.69,4.07,12.39,4.42,15.14,4.63a154.25,154.25,0,0,0,17.6.25c.53,0,1.45,0,2.42,0,0-.45.07-.92.09-1.4.11-3.78.06-7.78.17-11.66s.13-7.77.11-11.66a160.11,160.11,0,0,0-1.56-23.17,59.61,59.61,0,0,0-2.71-11.26,32,32,0,0,0-2.44-5.24,18,18,0,0,0-3.64-4.51c3.16,2.36,5.26,5.88,6.82,9.46a61.73,61.73,0,0,1,3.41,11.29A143.66,143.66,0,0,1,251,392.89c.14,3.91.19,7.82.18,11.73s.08,7.72,0,11.73a22.49,22.49,0,0,1-.26,3.11,13,13,0,0,1-.37,1.59,6.14,6.14,0,0,1-.77,1.72,8.05,8.05,0,0,1-2.66,2.36,25.27,25.27,0,0,1-2.81,1.33c-.91.39-1.79.74-2.58,1.14a6.21,6.21,0,0,0-1.9,1.33,2,2,0,0,0-.5,1.62,3.58,3.58,0,0,0,.78,1.91,6.46,6.46,0,0,0,1.07,1.09,5.57,5.57,0,0,1,.23-3.12,6.62,6.62,0,0,1,2.79-3.36,8.46,8.46,0,0,1,2-.77,12.35,12.35,0,0,1,1.88-.39,13.57,13.57,0,0,1,3.88-.05,13.47,13.47,0,0,1-3.14,2.29c-1.12.61-2.2,1.06-3,1.5a9.24,9.24,0,0,0-2.27,1.92,12.46,12.46,0,0,0-1.91,3l.46-.38a14.2,14.2,0,0,0,2.19,1.15,20.7,20.7,0,0,0,5.23,1.43c.81.1,1.63.17,2.45.22a2.79,2.79,0,0,1-.44-.92,3.59,3.59,0,0,1,.16-2.17,7.13,7.13,0,0,1,2.47-3,10.06,10.06,0,0,1,3.24-1.62,7.37,7.37,0,0,1,3.65-.16,29.86,29.86,0,0,1-2.6,2.28c-.85.66-1.67,1.29-2.49,1.9a23.91,23.91,0,0,0-2.23,1.75,3.42,3.42,0,0,0-.73,1,2.56,2.56,0,0,0-.21,1.56l.56-.58a49.16,49.16,0,0,0,7.48-.29,42,42,0,0,0,5.57-1,15.12,15.12,0,0,0,4.83-2.26,23.24,23.24,0,0,0,7-8.46c.22-.41.4-.85.6-1.27l.46-1.26c.26-.9.52-1.8.74-2.75.45-1.86.84-3.77,1.25-5.68.82-3.81,1.64-7.64,2.61-11.43a116.56,116.56,0,0,1,3.48-11.23,48.6,48.6,0,0,1,5.2-10.49c-3.76,6.86-5.7,14.46-7.25,22-.76,3.65-1.4,7.33-2,11a314.62,314.62,0,0,0,33.11,5.43c21.48,2.28,43.63,2.35,64.74-2.68a86,86,0,0,0,8.74-2.61c-.67-3.65-.88-7.29-1.29-10.87-.18-1.87-.49-3.72-.78-5.6s-.57-3.75-1-5.59a28.28,28.28,0,0,0-1.73-5.35c-.67-1.78-1.29-3.58-1.9-5.37.75,1.74,1.51,3.48,2.32,5.19a28.16,28.16,0,0,1,2.09,5.35c.49,1.85.88,3.7,1.29,5.56s.82,3.72,1.12,5.61c.61,3.78,1,7.55,1.83,11.15a27,27,0,0,0,4.48,9.9,18.52,18.52,0,0,0,8.2,6.54c.4.16.83.25,1.24.39l1.33.32c.9.2,1.8.36,2.71.5a48.25,48.25,0,0,0,5.5.51c1.22,0,2.43,0,3.65,0l.55.56a2.47,2.47,0,0,0-.21-1.55,3.25,3.25,0,0,0-.73-1,23.32,23.32,0,0,0-2.22-1.75c-.83-.61-1.65-1.24-2.49-1.91a28.12,28.12,0,0,1-2.61-2.27,7.41,7.41,0,0,1,3.66.16,9.91,9.91,0,0,1,3.23,1.62,7.1,7.1,0,0,1,2.48,3,3.62,3.62,0,0,1,.15,2.18,2.68,2.68,0,0,1-.45.93l.5,0a23,23,0,0,0,5.28-.93,16.53,16.53,0,0,0,4.11-1.87l.45.39a12.46,12.46,0,0,0-1.91-3,9.39,9.39,0,0,0-2.26-1.92c-.84-.44-1.93-.89-3.05-1.5a13.63,13.63,0,0,1-3.13-2.29,13.58,13.58,0,0,1,3.88,0,12.49,12.49,0,0,1,1.87.39,8.53,8.53,0,0,1,2,.77,6.6,6.6,0,0,1,2.78,3.36,5.49,5.49,0,0,1,.23,3.15,6.09,6.09,0,0,0,1.29-1.42,3.53,3.53,0,0,0,.57-1.91,2.15,2.15,0,0,0-.57-1.58,6.25,6.25,0,0,0-1.87-1.28c-1.54-.76-3.37-1.31-5.22-2.17a11.09,11.09,0,0,1-2.77-1.74,6.72,6.72,0,0,1-1.18-1.43,5.35,5.35,0,0,1-.63-1.82c-.3-2-.52-3.82-.72-5.75a116,116,0,0,1,0-23,111.34,111.34,0,0,1,1.7-11.35c.39-1.87.82-3.73,1.25-5.57s.85-3.71,1.34-5.55A60.19,60.19,0,0,1,428,353.53a23.63,23.63,0,0,1,7-8.94,25,25,0,0,0-6.29,9.26,59.33,59.33,0,0,0-3.13,10.82c-.75,3.68-1.46,7.45-2.09,11.14s-1,7.45-1.3,11.2a122.24,122.24,0,0,0,.54,22.47c.12,1,.25,2,.39,3,5.44.88,11.39.46,16.78.3A157.3,157.3,0,0,0,459,411.34c2.35-.37,3.94,0,2.57-2.3-1.6-2.7-4-4-6.92-5-2.42-.82-9.31-1-10.72-3.45-.76-1.34.09-2.05,1-2.94,1.35-1.35,4-2.21,5.61-3.24q3-1.89,5.8-4.05a69.52,69.52,0,0,0,18.79-22.2c9-16.7,10.94-36.3,9.17-54.93C482,289.49,475,265.89,467,243.54,458.39,219.39,447.67,196,436.24,173.1,-123.14-93c-.94-.49-1.93-.89-2.88-1.34s-2-.79-3-1.07a16.64,16.64,0,0,0-6.15-.83,8.49,8.49,0,0,0-5.36,2.61,62.22,62.22,0,0,0-4.31,4.68,47.94,47.94,0,0,1-4.51,4.62A16.8,16.8,0,0,1,281.36,92a17.8,17.8,0,0,0,5.22-3.61,46.9,46.9,0,0,0,4.25-4.75,47.71,47.71,0,0,1,4.29-4.85,13.12,13.12,0,0,1,2.65-2,10.4,10.4,0,0,1,1.57-.66,7.66,7.66,0,0,1,1.68-.28,17.12,17.12,0,0,1,6.49,1,30.53,30.53,0,0,1,5.94,2.59,54.79,54.79,0,0,1,10.46,7.5c-1.71-1.29-3.46-2.51-5.27-3.65A55.34,55.34,0,0,0,313.1,80.11,318.23,96c-2.64.91-5.29,1.74-8,2.57l-4,1.21a22.16,22.16,0,0,0-3.81,1.45A27.57,27.57,0,0,0,299,103.4a10.31,10.31,0,0,1-3.82,1.72,12.34,12.34,0,0,0,1.87-.89,15.06,15.06,0,0,0,1.66-1.22,26.58,26.58,0,0,1,3.4-2.5A18.56,18.56,0,0,1,306,98.82l4-1.25c2.66-.81,5.32-1.62,8-2.36s5.37-1.47,8.09-2.09C323.49,94.13,320.86,95.05,318.23,96,33.31,3a15.19,15.19,0,0,0-2-1.52,12.48,12.48,0,0,0-4.51-1.9,15.31,15.31,0,0,0-4.92-.26,22,22,0,0,0-4.94,1.1A14,14,0,0,1,340,94.52a13.26,13.26,0,0,1,5.25,0,13.08,13.08,0,0,1,2.52.84A12.07,12.07,0,0,1,350,96.82a11.51,11.51,0,0,1,1.88,1.81,7.76,7.76,0,0,1,.77,1c.25.36.48.72.71,1.08C352.72,100.17,352.2,99.5,351.54,99,349,81.81a26.52,26.52,0,0,0-5.24,2.09A31,31,0,0,0,339,87.05a34.42,34.42,0,0,0-4.22,3.88,29.89,29.89,0,0,1,8.59-7.7,21,21,0,0,1,11.21-3c2,.08,3.85.37,5.77.59s3.82.5,5.71.8c3.76.56,7.66,1,11.27-.5a13.43,13.43,0,0,1-5.57,1.53,38.47,38.47,0,0,1-5.79-.27c-3.82-.39-7.64-1-11.43-1.15A18.08,18.08,0,0,0,349,81.81Z"/><path fill="none"  d="M199.68,246.9a379.41,379.41,0,0,1,27.52-69.12c11-21.27,23.71-42.61,40.14-60.17.52-.57,1.06-1.11,1.6-1.66l-.14,0-4.73-1.8,5-.94a19.08,19.08,0,0,0,3.77-1.12q3.25-3.08,6.72-5.86a68.07,68.07,0,0,1-7.44,1.88,43,43,0,0,1-12.25.75,27.74,27.74,0,0,1-3.7-.62q-5.34,1.86-10.58,4C205,129,181.13,172.4,166.75,203.63c-8.61,18.69-7.78,57.57,11,73,3.91,3.2,9.9.63,15.38-3.34Q195.93,260,199.68,246.9Z"/><path fill="none"  d="M495.35,201c-1.69-2.39-3.28-4.64-4.76-6.94-5-7.8-10.39-15.59-15.56-23.13-5.54-8.05-11.26-16.38-16.62-24.77-11.64-18.21-22.74-33.93-40.69-41.87a126.75,126.75,0,0,0-19-6.46A25.38,25.38,0,0,1,396.21,99a24.93,24.93,0,0,1-5.81,1.1l.65.13c.74.15,1.47.25,2.21.35a27.44,27.44,0,0,0,4.36.33l3.89-.08-2.93,2.35a39.54,39.54,0,0,1-3.38,2.38,26.61,26.61,0,0,1-3.67,1.91c-.26.12-.54.2-.81.31a139.54,139.54,0,0,1,29.43,30.44c6.56,9.19,11.57,19.21,16.63,29.27,5.92,11.76,11.65,23.61,17.05,35.62a486.45,486.45,0,0,1,23.1,61c5.16,4.75,11.15,9.13,15.65,9.32a5,5,0,0,0,4.07-1.58c8.62-9,13.47-37.37,10.25-49.76C505,214.61,500.07,207.71,495.35,201Z"/><path d="M509.8,221.33c-2.08-8-7.12-15.14-12-22-1.67-2.35-3.24-4.58-4.69-6.82-5.06-7.84-10.42-15.65-15.61-23.21-5.52-8-11.23-16.34-16.56-24.68-11.47-18-23.31-34.74-42-43a132.21,132.21,0,0,0-16.81-5.85,17.45,17.45,0,0,0,1.64-1.46,22.19,22.19,0,0,0,2.85-3.48,19.72,19.72,0,0,0,2-4.16l.82-2.48-2.6.66c-1,.25-2,.48-3,.75s-2,.4-3,.61-2,.25-3,.39a28.07,28.07,0,0,1-3,.1,19.2,19.2,0,0,1-6-.87c-.42-.12-.81-.29-1.21-.44a31.9,31.9,0,0,0,7.14-3.06,23.29,23.29,0,0,0,3.9-2.89,22,22,0,0,0,3.25-3.64,24.36,24.36,0,0,0,3.92-9,27.76,27.76,0,0,0,.4-9.84l-.23-1.54-1.14,1.17-3.65,3.73c-1.26,1.2-2.59,2.31-3.88,3.47-.68.53-1.38,1-2.07,1.55a22.17,22.17,0,0,1-2.11,1.48l-2.21,1.32a6.69,6.69,0,0,1-1.13.58l-1.16.53a25.21,25.21,0,0,1-9.78,2.35,48.1,48.1,0,0,1-10.21-1C365.14,70,361.64,69.26,358,69a34.54,34.54,0,0,0-10.9.78A37.45,37.45,0,0,0,337,73.82a42.26,42.26,0,0,0-4.56,3c-.92.7-1.8,1.43-2.66,2.21a29.83,29.83,0,0,0-2.67-4A15,15,0,0,0,326,73.74c-.38-.42-.74-.86-1.14-1.27-.83-.77-1.59-1.62-2.49-2.31a33.21,33.21,0,0,0-11.9-6.4,39.18,39.18,0,0,0-13.33-1.59l-1.68,0-1.69.18a16.21,16.21,0,0,0-1.68.25c-.56.11-1.12.19-1.67.33A30.34,30.34,0,0,0,284,65.3a40.34,40.34,0,0,0-10.65,8.14c-3.08,3.16-5.85,6.52-8.79,9.61a33.85,33.85,0,0,1-9.9,7.67,24,24,0,0,1-5.92,1.89,30.4,30.4,0,0,1-6.26.33l-1.16,0,.19,1.08a15.14,15.14,0,0,0,1,3.12A17.61,17.61,0,0,0,244,99.91a18.53,18.53,0,0,0,4.29,4.67,19,19,0,0,0,3.42,2.06c-2.42.88-4.82,1.8-7.2,2.78-41.65,17.16-65.87,61.27-80.47,93-4.72,10.26-6.62,25.55-5,39.91,1.89,16.29,7.85,29.31,16.78,36.64a9.31,9.31,0,0,0,6.09,2.15c3.35,0,6.94-1.51,10.32-3.61-.37,1.83-.72,3.66-1.07,5.49-4.63,25.51-9,56.07-1.13,82.07-12,.23-45.09-2-53.07-33.32-3.33-13-.95-24.84,6.7-33.22A40.42,40.42,0,0,1,154,290.56a20.06,20.06,0,0,1,3.65-1.37c2.82-.88,6-1.87,7.62-4.36a5.68,5.68,0,0,0,.23-6.43,6.37,6.37,0,0,0-6.6-2.37c-5.74,1.15-20.4,8.05-29.09,22.05-7.44,12-9,26.3-4.65,42.53,11.19,41.66,47.75,46.13,69.07,46.13,2.36,0,4.51-.06,6.43-.12a53.5,53.5,0,0,0,13.9,13.1,54.72,54.72,0,0,0,5.28,3c.46.22,2,1.13,3.24,1.71l-.3.12c-1.79.63-3.6,1.17-5.38,1.81-3.43,1.26-9.09,3.22-6.82,8,1.88,3.91,8,4.8,11.71,5.38a116.92,116.92,0,0,0,20,1c1.44,0,3.41.1,5.39,0a1.91,1.91,0,0,1-.21.38c-.72,1.09-2.44,1.89-4.19,2.6-.88.37-1.81.74-2.77,1.21a8.74,8.74,0,0,0-2.83,2,5.08,5.08,0,0,0-1,1.79,5.4,5.4,0,0,0-.21,2,6.65,6.65,0,0,0,1.35,3.46,12.82,12.82,0,0,0,5.35,3.79,23.61,23.61,0,0,0,6,1.61,48.91,48.91,0,0,0,12-.09,44.5,44.5,0,0,0,5.91-1.19,17.56,17.56,0,0,0,5.66-2.77,24.55,24.55,0,0,0,7.55-9.57c.22-.46.4-.94.61-1.4l.5-1.5c.25-1,.5-1.95.69-2.92s.44-2.19.63-3.28c22.3,4.82,45.24,7.68,68.07,6.77a160.19,160.19,0,0,0,32.55-4.43q3.63-.9,7.19-2a28.92,28.92,0,0,0,3.87,8.22,20.33,20.33,0,0,0,9.19,7.64c.47.2,1,.33,1.46.49s.95.26,1.43.37c.95.24,1.91.42,2.87.59a48.21,48.21,0,0,0,11.67.59c1-.09,1.93-.16,3-.33a23,23,0,0,0,2.95-.69,18.44,18.44,0,0,0,5.57-2.64,9.37,9.37,0,0,0,2.34-2.43,6.56,6.56,0,0,0,1-3.47,5.25,5.25,0,0,0-1.36-3.62A8.89,8.89,0,0,0,431.7,420c-1.87-.9-3.7-1.42-5.29-2.16a8.6,8.6,0,0,1-2.05-1.25,4.22,4.22,0,0,1-.64-.74,2,2,0,0,1-.16-.42l.76.08a143.8,143.8,0,0,0,20.86,0c5.56-.29,11.91-.22,17.3-1.84,3.77-1.14,2.9-4.87.85-7.65-3.27-4.44-9.45-5.46-14.46-6.64l-.43-.13c.94-.57,2-1.32,2.34-1.55A76.39,76.39,0,0,0,462.63,389c14-12.67,21.84-30.36,24.29-48.89,2.85-21.53-1.3-43.22-6.67-64-.57-2.21-1.18-4.42-1.79-6.62,4.58,3.73,9.65,6.83,14,7h.42a7.94,7.94,0,0,0,5.95-2.51C508.43,263.85,513.31,234.84,509.8,221.33,177.74,276.62c-18.77-15.42-19.6-54.3-11-73C181.13,172.4,205,129,245.63,112.19q5.24-2.14,10.58-4a27.74,27.74,0,0,0,3.7.62,43,43,0,0,0,12.25-.75,68.07,68.07,0,0,0,7.44-1.88q-3.47,2.79-6.72,5.86a19.08,19.08,0,0,1-3.77,1.12l-5,.94,4.73,1.8.14,0c-.54.55-1.08,1.09-1.6,1.66-16.43,17.56-29.15,38.9-40.14,60.17a379.41,379.41,0,0,0-27.52,69.12q-3.77,13.07-6.56,26.38C187.64,277.25,181.65,279.82,177.74,276.62,128,339.84c-4.13-15.4-2.69-28.92,4.3-40.18,9-14.46,23.68-20,27.13-20.69a3.39,3.39,0,0,1,3.53,1.12,2.72,2.72,0,0,1-.26,3.11c-1,1.58-3.56,2.36-6,3.12a23.34,23.34,0,0,0-4.22,1.61,43.12,43.12,0,0,0-11,8.54c-8.36,9.15-11,21.93-7.4,36,8.71,34.12,45.1,35.9,56.94,35.55a72.87,72.87,0,0,0,7.13,15c.14.21.29.42.43.64C179,384.17,139.42,382.34,128,339.84,386.22,85.71l.6.44,0,0c.46.27.91.57,1.39.81a18.24,18.24,0,0,0,6.34,1.81c1.1.17,2.19.13,3.29.19s2.19-.1,3.28-.19,2.16-.28,3.23-.47l.22,0c-.17.31-.35.61-.53.89a19.19,19.19,0,0,1-2.4,3,20.42,20.42,0,0,1-6.38,4.43,22.67,22.67,0,0,1-3.79,1.23,26.31,26.31,0,0,1-4,.68c-.79.09-1.6.12-2.4.14q-2.43-.78-4.81-1.72c-1.38-.62-2.77-1.21-4.12-1.9-.68-.35-1.38-.66-2-1s-1.33-.75-2-1.11-1.33-.75-2-1.17l-2-1.2c-1.3-.83-2.57-1.71-3.91-2.54,1,1.16,2.09,2.33,3.23,3.41a45.65,45.65,0,0,0,3.6,3c.62.48,1.26,1,1.9,1.41s1.33.85,2,1.28a45.47,45.47,0,0,0,4.16,2.31,42.55,42.55,0,0,0,9,3.17c.78.18,1.56.34,2.35.46s1.59.24,2.39.33l1.3.09-.29.23c-1,.78-2.07,1.56-3.18,2.24a30,30,0,0,1-3.45,1.85,23.46,23.46,0,0,1-2.46.93c-.4.12-.8.23-1.22.32h-.08a12.73,12.73,0,0,0,3.58-.26,132.89,132.89,0,0,1,14.69,12.47c15.24,15,25,32.85,34.42,51.77,11.43,22.94,22.15,46.29,30.8,70.44,8,22.35,15,46,17.25,69.67,1.77,18.63-.21,38.23-9.17,54.93a69.52,69.52,0,0,1-18.79,22.2q-2.81,2.16-5.8,4.05c-1.64,1-4.26,1.89-5.61,3.24-.88.89-1.73,1.6-1,2.94,1.41,2.48,8.3,2.63,10.72,3.45,2.94,1,5.32,2.32,6.92,5,1.37,2.3-.22,1.93-2.57,2.3a157.3,157.3,0,0,1-19.15,1.45c-5.39.16-11.34.58-16.78-.3-.14-1-.27-2-.39-3a122.24,122.24,0,0,1-.54-22.47c.25-3.75.71-7.48,1.3-11.2s1.34-7.46,2.09-11.14a59.33,59.33,0,0,1,3.13-10.82,25,25,0,0,1,6.29-9.26,23.63,23.63,0,0,0-7,8.94,60.19,60.19,0,0,0-3.84,10.81c-.49,1.84-.91,3.7-1.34,5.55s-.86,3.7-1.25,5.57a111.34,111.34,0,0,0-1.7,11.35,116,116,0,0,0,0,23c.2,1.93.42,3.77.72,5.75a5.35,5.35,0,0,0,.63,1.82,6.72,6.72,0,0,0,1.18,1.43,11.09,11.09,0,0,0,2.77,1.74c1.85.86,3.68,1.41,5.22,2.17a6.25,6.25,0,0,1,1.87,1.28,2.15,2.15,0,0,1,.57,1.58,3.53,3.53,0,0,1-.57,1.91,6.09,6.09,0,0,1-1.29,1.42,5.49,5.49,0,0,0-.23-3.15,6.6,6.6,0,0,0-2.78-3.36,8.53,8.53,0,0,0-2-.77,12.49,12.49,0,0,0-1.87-.39,13.58,13.58,0,0,0-3.88,0,13.63,13.63,0,0,0,3.13,2.29c1.12.61,2.21,1.06,3.05,1.5a9.39,9.39,0,0,1,2.26,1.92,12.46,12.46,0,0,1,1.91,3l-.45-.39a16.53,16.53,0,0,1-4.11,1.87,23,23,0,0,1-5.28.93l-.5,0a2.68,2.68,0,0,0,.45-.93,3.62,3.62,0,0,0-.15-2.18,7.1,7.1,0,0,0-2.48-3,9.91,9.91,0,0,0-3.23-1.62,7.41,7.41,0,0,0-3.66-.16,28.12,28.12,0,0,0,2.61,2.27c.84.67,1.66,1.3,2.49,1.91a23.32,23.32,0,0,1,2.22,1.75,3.25,3.25,0,0,1,.73,1,2.47,2.47,0,0,1,.21,1.55l-.55-.56c-1.22,0-2.43,0-3.65,0a48.25,48.25,0,0,1-5.5-.51c-.91-.14-1.81-.3-2.71-.5l-1.33-.32c-.41-.14-.84-.23-1.24-.39a18.52,18.52,0,0,1-8.2-6.54,27,27,0,0,1-4.48-9.9c-.87-3.6-1.22-7.37-1.83-11.15-.3-1.89-.72-3.76-1.12-5.61s-.8-3.71-1.29-5.56a28.16,28.16,0,0,0-2.09-5.35c-.81-1.71-1.57-3.45-2.32-5.19.61,1.79,1.23,3.59,1.9,5.37a28.28,28.28,0,0,1,1.73,5.35c.38,1.84.66,3.72,1,5.59s.6,3.73.78,5.6c.41,3.58.62,7.22,1.29,10.87a86,86,0,0,1-8.74,2.61c-21.11,5-43.26,5-64.74,2.68A314.62,314.62,0,0,1,283.2,414c.63-3.7,1.27-7.38,2-11,1.55-7.59,3.49-15.19,7.25-22a48.6,48.6,0,0,0-5.2,10.49,116.56,116.56,0,0,0-3.48,11.23c-1,3.79-1.79,7.62-2.61,11.43-.41,1.91-.8,3.82-1.25,5.68-.22.95-.48,1.85-.74,2.75l-.46,1.26c-.2.42-.38.86-.6,1.27a23.24,23.24,0,0,1-7,8.46,15.12,15.12,0,0,1-4.83,2.26,42,42,0,0,1-5.57,1,49.16,49.16,0,0,1-7.48.29l-.56.58a2.56,2.56,0,0,1,.21-1.56,3.42,3.42,0,0,1,.73-1,23.91,23.91,0,0,1,2.23-1.75c.82-.61,1.64-1.24,2.49-1.9a29.86,29.86,0,0,0,2.6-2.28,7.37,7.37,0,0,0-3.65.16,10.06,10.06,0,0,0-3.24,1.62,7.13,7.13,0,0,0-2.47,3,3.59,3.59,0,0,0-.16,2.17,2.79,2.79,0,0,0,.44.92c-.82-.05-1.64-.12-2.45-.22a20.7,20.7,0,0,1-5.23-1.43,14.2,14.2,0,0,1-2.19-1.15l-.46.38a12.46,12.46,0,0,1,1.91-3,9.24,9.24,0,0,1,2.27-1.92c.84-.44,1.92-.89,3-1.5a13.47,13.47,0,0,0,3.14-2.29,13.57,13.57,0,0,0-3.88.05,12.35,12.35,0,0,0-1.88.39,8.46,8.46,0,0,0-2,.77,6.62,6.62,0,0,0-2.79,3.36,5.57,5.57,0,0,0-.23,3.12,6.46,6.46,0,0,1-1.07-1.09,3.58,3.58,0,0,1-.78-1.91,2,2,0,0,1,.5-1.62,6.21,6.21,0,0,1,1.9-1.33c.79-.4,1.67-.75,2.58-1.14a25.27,25.27,0,0,0,2.81-1.33,8.05,8.05,0,0,0,2.66-2.36,6.14,6.14,0,0,0,.77-1.72,13,13,0,0,0,.37-1.59,22.49,22.49,0,0,0,.26-3.11c0-4-.08-7.81,0-11.73s0-7.82-.18-11.73a143.66,143.66,0,0,0-2.45-23.39,61.73,61.73,0,0,0-3.41-11.29c-1.56-3.58-3.66-7.1-6.82-9.46a18,18,0,0,1,3.64,4.51,32,32,0,0,1,2.44,5.24,59.61,59.61,0,0,1,2.71,11.26,160.11,160.11,0,0,1,1.56,23.17c0,3.89-.05,7.77-.11,11.66s-.06,7.88-.17,11.66c0,.48-.05.95-.09,1.4-1,0-1.89,0-2.42,0a154.25,154.25,0,0,1-17.6-.25c-2.75-.21-14.45-.56-15.14-4.63-.63-3.64,11.46-4.83,13.86-6.68,4.66-3.6-6.26-6.18-8.39-7.39-30.11-17.08-31.37-57.25-28.43-87.67.89-9.14,2.27-18.22,3.92-27.25A377.49,377.49,0,0,1,246.5,150.23c7.54-11.82,15.91-23.54,25.87-33.56l.89.09a29.82,29.82,0,0,0,4.33,0,39.8,39.8,0,0,0,8.36-1.56,52.27,52.27,0,0,0,7.83-3c.88-.44,1.75-.91,2.62-1.38l1.07-.57c1.19-.72,2.36-1.48,3.53-2.21-1.28.53-2.56,1-3.82,1.61l-3.86,1.45a63.37,63.37,0,0,1-7.86,2.19,40.19,40.19,0,0,1-8,1c-.75,0-1.51,0-2.25,0,.33-.17.66-.32,1-.5a21.74,21.74,0,0,0,5.33-4.43c3-3.31,5.54-6.67,8.84-9.28a22.93,22.93,0,0,1,5.27-3.21,41.62,41.62,0,0,1,6-2.07,72.33,72.33,0,0,1,12.79-2,49.49,49.49,0,0,0-13.14.31,36.16,36.16,0,0,0-6.49,1.66,23.23,23.23,0,0,0-6,3.22,39.73,39.73,0,0,0-5,4.49c-.84.89-1.64,1.79-2.44,2.69l-.7.25-.58.45c-1.62.41-3.25.79-4.89,1.11-1,.21-2.07.39-3.1.55a41.79,41.79,0,0,1-12,.26,21.47,21.47,0,0,1-10.83-4.36A16.9,16.9,0,0,1,245.4,99a15.87,15.87,0,0,1-1.81-4.22,29.81,29.81,0,0,0,5.5-.24,26.3,26.3,0,0,0,6.49-1.91,36.24,36.24,0,0,0,10.75-7.9c3.13-3.11,5.9-6.44,8.93-9.45a37.68,37.68,0,0,1,10-7.49,27.86,27.86,0,0,1,12-2.74,36,36,0,0,1,12.37,1.52,30.6,30.6,0,0,1,10.83,5.86,30,30,0,0,1,2.28,2.09c.36.37.69.77,1,1.15s.68.78,1,1.19A25.25,25.25,0,0,1,328,82l.93,2,1.52-1.59a31.83,31.83,0,0,1,3.75-3.32,38.31,38.31,0,0,1,4.23-2.81,36.28,36.28,0,0,1,9.35-3.84,31.46,31.46,0,0,1,10.05-.83,101.77,101.77,0,0,1,10.31,1.45,48.12,48.12,0,0,0,10.77.82,27.62,27.62,0,0,0,10.53-2.79l1.23-.6a9.15,9.15,0,0,0,1.19-.65l2.29-1.45a22.31,22.31,0,0,0,2.16-1.6c.71-.55,1.43-1.09,2.12-1.66,1.3-1.22,2.64-2.4,3.9-3.65l2.46-2.65a27.82,27.82,0,0,1-.27,7.67,23.07,23.07,0,0,1-3.41,8.69,20.9,20.9,0,0,1-3,3.64,23,23,0,0,1-3.7,3,32.06,32.06,0,0,1-7,3.42l-.08,0c-.44-.25-.94-.42-1.36-.71a8.91,8.91,0,0,1-2.41-2,7.88,7.88,0,0,0,2,2.55,5.3,5.3,0,0,0,.67.57,496.65,271.85a5,5,0,0,1-4.07,1.58c-4.5-.19-10.49-4.57-15.65-9.32a486.45,486.45,0,0,0-23.1-61c-5.4-12-11.13-23.86-17.05-35.62-5.06-10.06-10.07-20.08-16.63-29.27a139.54,139.54,0,0,0-29.43-30.44c.27-.11.55-.19.81-.31a26.61,26.61,0,0,0,3.67-1.91,39.54,39.54,0,0,0,3.38-2.38l2.93-2.35-3.89.08a27.44,27.44,0,0,1-4.36-.33c-.74-.1-1.47-.2-2.21-.35l-.65-.13a24.93,24.93,0,0,0,5.81-1.1,25.38,25.38,0,0,0,2.56-1.15,126.75,126.75,0,0,1,19,6.46c17.95,7.94,29,23.66,40.69,41.87,5.36,8.39,11.08,16.72,16.62,24.77,5.17,7.54,10.53,15.33,15.56,23.13,1.48,2.3,3.07,4.55,4.76,6.94,4.72,6.68,9.6,13.58,11.55,21.06C510.12,234.48,505.27,262.82,496.65,271.85Z"/><path d="M280.05,105.82l.58-.45c-1.24.42-3.14,1-5.47,1.56C276.8,106.61,278.43,106.23,280.05,105.82Z"/><path d="M383.63,109.1c.42-.09.82-.2,1.22-.32"/><path d="M323.91,86.93a54.79,54.79,0,0,0-10.46-7.5,30.53,30.53,0,0,0-5.94-2.59,17.12,17.12,0,0,0-6.49-1,7.66,7.66,0,0,0-1.68.28,10.4,10.4,0,0,0-1.57.66,13.12,13.12,0,0,0-2.65,2,47.71,47.71,0,0,0-4.29,4.85,46.9,46.9,0,0,1-4.25,4.75A17.8,17.8,0,0,1,281.36,92a16.8,16.8,0,0,0,5.55-3.24,47.94,47.94,0,0,0,4.51-4.62,62.22,62.22,0,0,1,4.31-4.68,8.49,8.49,0,0,1,5.36-2.61,16.64,16.64,0,0,1,6.15.83c1,.28,2,.7,3,1.07s1.94.85,2.88,1.34a55.34,55.34,0,0,1,5.54,3.17C320.45,84.42,322.2,85.64,323.91,86.93Z"/><path d="M371.8,82.64a13.43,13.43,0,0,0,5.57-1.53c-3.61,1.54-7.51,1.06-11.27.5-1.89-.3-3.8-.55-5.71-.8s-3.8-.51-5.77-.59a21,21,0,0,0-11.21,3,29.89,29.89,0,0,0-8.59,7.7A34.42,34.42,0,0,1,339,87.05a31,31,0,0,1,4.74-3.15A26.52,26.52,0,0,1,349,81.81a18.08,18.08,0,0,1,5.56-.59c3.79.17,7.61.76,11.43,1.15A38.47,38.47,0,0,0,371.8,82.64Z"/><path d="M351.89,98.63A11.51,11.51,0,0,0,350,96.82a12.07,12.07,0,0,0-2.24-1.41,13.08,13.08,0,0,0-2.52-.84,13.26,13.26,0,0,0-5.25,0,14,14,0,0,0-4.82,1.87,22,22,0,0,1,4.94-1.1,15.31,15.31,0,0,1,4.92.26,12.48,12.48,0,0,1,4.51,1.9,15.19,15.19,0,0,1,2,1.52c.66.53,1.18,1.2,1.83,1.78-.23-.36-.46-.72-.71-1.08A7.76,7.76,0,0,0,351.89,98.63Z"/><path d="M310,97.57l-4,1.25a18.56,18.56,0,0,0-3.91,1.69,26.58,26.58,0,0,0-3.4,2.5,15.06,15.06,0,0,1-1.66,1.22,12.34,12.34,0,0,1-1.87.89A10.31,10.31,0,0,0,299,103.4a27.57,27.57,0,0,1,3.48-2.22,22.16,22.16,0,0,1,3.81-1.45l4-1.21c2.66-.83,5.31-1.66,8-2.57s5.26-1.82,7.86-2.83c-2.72.62-5.41,1.35-8.09,2.09S312.66,96.76,310,97.57Z"/>            </clipPath>        </defs>        <g clip-path="url(#outline)">            <rect fill="#B59070" width="640" height="480" />        </g>    </g>    <g id="pattern">        <g clip-path="url(#outline)">            <path fill="#FFFFD2"  d="M1,442.46c1.37,2.94,19.68,6,22.77,7s6.15-.27,9-1.43a323.08,323.08,0,0,1,142.75-22.27c2.15.15,4.45.29,6.3-.81s2.7-2.9,3.59-4.69q4.77-9.58,9.53-19.16c1.63-3.27,6-5.8,5.77-9.45a20.34,20.34,0,0,0-2-8.57c-11.34-23.45-10.71-37.68-12.14-56.56-.88-11.62,1.34-25.07,3.9-35.71,2.42-10-30.86-23.15-37-26-20.63-9.66-42.69-16.83-65.49-19.13-13.29-1.35-26.29-3.87-38.81-8.64-12.31-4.7-34-10.42-45.71-1.08-2.73,2.19-2.28,8.74-1.85,32.39"/><path fill="#FFFFD2"  d="M445.06,398.18c-7.45,2.67-17.16,4.17-25,4.7a7.81,7.81,0,0,1,.26,7.57c-.24.4-.42,1.59-.05,1.87.14.11.71.66.53.66,7,.22,13.87,1,20.85.84,3.7-.11,7.4-.37,11.08-.79q4-.45,8-1c1.13-.16,2.49-.54,2.25-1.94a8.34,8.34,0,0,0-1.3-2.86c-1.17-1.9-3.93-3.7-6.26-4.58-2.75-1-5.65-1.37-8.47-2.06a3.07,3.07,0,0,1-1.29-.53c-.42-.34-.77-.11-.73-.59A5.76,5.76,0,0,1,445.06,398.18Z"/><path fill="#FFFFD2"  d="M227.73,404.08a83.56,83.56,0,0,0,22.85,4.36c-.27,2.33-.23,5.47-.4,7.5,0,.46-.08,1.59-.45,1.87-.14.11-.68.14-.51.14s-18.76.61-29.52-1.14a25.64,25.64,0,0,1-4.68-1.46,3.71,3.71,0,0,1-2.54-3.42c0-1.29,1.71-3,2.85-3.37,1.87-.56,3.73-1.12,5.6-1.7l2.83-.9a5.3,5.3,0,0,0,2.24-1A16.69,16.69,0,0,1,227.73,404.08Z"/><path fill="#FFFFD2"  d="M250.5,401.61c-.08,5.55-.41,12.5-.49,13.65-.11,1.58.42,3.07,0,4.59-.79,2.77-4.89,4.49-7.48,5.75-1.89.92-4.12,2.32-3.93,4.41.07.77.73,1.35,1,2.09,1.61,5.25,8.87,5.47,13.89,5.47,6.22,0,11.92.36,17.37-2.64,2.25-1.25,2.58-2.68,5.79-5.61,4.87-4.45,5.47-19.87,6.78-26.37.23-1.19-2.6,7.7-2.65,6.51l-.54-13.9c-1.61,2.3-2.81,5.22-4.42,7.52-.66-3.2-3.17-6.89-3.83-10.09-1.06,4.47-2.36,9.21-3.34,13.84-2.14-2.88-3.09-6.19-4-9.2-.61,4.05-3.14,8.18-3.75,12.23l-2.55-8.67-1.62,6.75c-1.47-2.74-3.5-6.86-5-9.6C251.2,400.14,251.06,401.16,250.5,401.61Z"/><path fill="#FFFFD2"  d="M421.47,397.35c-.24,3.31.26,11.85.34,13a43.37,43.37,0,0,0,1.31,6.37c.8,2.77,3.26,2.85,5.85,4.12,1.89.92,6.76,2.58,6.58,4.67-.6,6.6-11.8,7.44-17,7.44-6.22,0-11.12-.08-16.57-3.09a24.69,24.69,0,0,1-6.91-6.33c-3.13-4.58-4-11.27-4.78-17.76-.59-4.6.81-10.34,1-15,1.61,2.29,2.81,5.22,4.42,7.52a48.53,48.53,0,0,0,3.83-10.1c1.06,4.48,2.36,9.21,3.34,13.84,2.15-2.88,3.1-6.18,4-9.2.62,4.05,3.14,8.19,3.76,12.24l2.54-8.68,1.62,6.75c1.48-2.74,3.51-6.85,5-9.59C420.5,395.32,420.79,395.77,421.47,397.35Z"/>            <g opacity="0.6" ><path fill="#FFECDC"  d="M286.16,418.84c1.15-12.45,7.46-23.49,13.94-33.84a121,121,0,0,1,10.79-14.8c3.27-3.78,6.53-8.66,11.38-10.24,5.45-1.77,11.19-1.83,16.84-1.6,4.46.18,9.85,0,13.47,3.11,7.95,6.94,14.63,17,20.34,25.87s11.91,19.27,12.8,30.12c.13,1.48.5,1.44-.05,1.63-1.78.61-6.49,1.94-9.4,2.8-13.75,4.06-26.91,4.48-42.7,4.36-16.07-.12-32.34-4.21-46.95-7.41"/></g>        </g>    </g>    <g id="mask">        <path fill="none"  d="M274.73,111.13a21.75,21.75,0,0,0,4.67-3.87c.43-.46.86-.94,1.29-1.42l-.77.24q-3.42,2.76-6.67,5.81A14.72,14.72,0,0,0,274.73,111.13Z"/><path fill="none"  d="M281.33,105.12l-.4.14-.61.49c.2,0,.39-.09.58-.15Z"/><path fill="none"  d="M386.82,86.14l-.6-.44-.48.14h0s.41.14,1.13.33Z"/><path opacity="0.1"  d="M339,405.18c-39.1-.61-54-9.36-54-9.36L281.12,415c6.32,3.26,30.14,4.89,57.23,6.92s52.33-6.51,52.33-6.51l-2.85-18.74S378.06,405.8,339,405.18Z"/><path opacity="0.1"  d="M275.16,106.93c1.73-.34,3.45-.74,5.16-1.18l.61-.49C279.72,105.68,277.68,106.33,275.16,106.93Z"/><path opacity="0.1"  d="M264.07,114.1l5-.95a18.41,18.41,0,0,0,4.14-1.26q3.25-3,6.67-5.81a68.92,68.92,0,0,1-7.76,2,46,46,0,0,1-9.53.9,18.72,18.72,0,0,0-1.94,1.83c-8.14,9-37.2,45.34-47.24,63.81s-31,70.05-32,80.37,1.9,23.35,1.9,23.35a21.93,21.93,0,0,0,9.5-4.89s11.13-44.53,22.27-69.51c9.1-20.43,26.75-60.28,54-87.94l-.24-.08Z"/><path opacity="0.1"  d="M167.83,377.15c-37.24-15.83-41.27-49.69-35.84-70s31-26.88,31-26.88c-1.09-4.62-10.32,1.08-14.67,3.53s-13.3,9.77-17.1,17.1-13.85,24.17,2.17,56.21,65.44,26.61,65.44,26.61l-3.26-5.7S178.69,381.77,167.83,377.15Z"/><path opacity="0.1"  d="M474.72,264.69s9.51,9.78,17.38,9.51c0,0-3.53-39.92-20.37-73-13.68-26.94-51.92-78.73-73.14-98h0a35.51,35.51,0,0,1-3.38,2.38,26.67,26.67,0,0,1-3.67,1.92,22.05,22.05,0,0,1-3.52,1.18c8.28,6.74,21.63,18.68,30.78,32.22,14.12,20.91,30.68,56.2,43.17,87.7S474.72,264.69,474.72,264.69Z"/><path opacity="0.1"  d="M391.05,100.23c.74.16,1.47.26,2.21.36s1.79.22,2.67.28c-.57-.48-1.13-.93-1.67-1.34a25.5,25.5,0,0,1-3.86.57C390.62,100.15,390.83,100.2,391.05,100.23Z"/><path opacity="0.1"  d="M273.26,116.76c-.5,0-1-.1-1.51-.17-6.43,6.75-11.6,13.77-16.67,20C242.32,152.37,213.27,196.36,198.6,261s-10,89.33-4.07,110.78,32.52,32.47,32.52,32.47-13.78,3.64-14.74,7.36c-2.78,10.81,38.14,7.66,38.14,7.66l-.26-18.71s-34.21,7.87-47.51-47.79,14.82-114.58,38.71-175.94c8.74-22.44,22.38-44.51,34.44-60A24.52,24.52,0,0,1,273.26,116.76Z"/><path fill="#2d2926"  d="M395.2,105.56a37,37,0,0,0,3.39-2.38l2.92-2.34-3.89.08c-.54,0-1.11,0-1.69,0-.88-.06-1.79-.15-2.67-.28s-1.47-.2-2.21-.36c-.22,0-.43-.08-.65-.13a25.5,25.5,0,0,0,3.86-.57c.65-.15,1.31-.32,1.95-.53a20.63,20.63,0,0,0,7.55-4.74,22.27,22.27,0,0,0,2.85-3.49,19.41,19.41,0,0,0,2-4.15l.82-2.48-2.6.66c-1,.25-2,.47-3,.74s-2,.41-3,.61-2,.26-3,.39a28.08,28.08,0,0,1-3,.11,19.5,19.5,0,0,1-6-.87c-.42-.12-.81-.29-1.21-.44a31.9,31.9,0,0,0,7.14-3.06,23.86,23.86,0,0,0,3.9-2.89,21.71,21.71,0,0,0,3.25-3.65,24.31,24.31,0,0,0,3.92-8.94,27.76,27.76,0,0,0,.4-9.84l-.23-1.54-1.14,1.16-3.65,3.74c-1.26,1.19-2.59,2.31-3.88,3.47-.68.53-1.38,1-2.07,1.55a22.17,22.17,0,0,1-2.11,1.48l-2.21,1.31a6.07,6.07,0,0,1-1.13.59l-1.16.53a25.21,25.21,0,0,1-9.78,2.35,48.1,48.1,0,0,1-10.21-1C365.14,70,361.64,69.26,358,69a34.52,34.52,0,0,0-10.9.78A37.45,37.45,0,0,0,337,73.82a42.26,42.26,0,0,0-4.56,3c-.92.7-1.8,1.43-2.66,2.21a29.21,29.21,0,0,0-2.67-4A15,15,0,0,0,326,73.74c-.38-.42-.74-.86-1.14-1.27-.83-.77-1.59-1.62-2.49-2.31a33.21,33.21,0,0,0-11.9-6.4,38.94,38.94,0,0,0-13.33-1.59l-1.68,0-1.69.18a16.21,16.21,0,0,0-1.68.25c-.56.11-1.12.19-1.67.33A30.34,30.34,0,0,0,284,65.3a40.34,40.34,0,0,0-10.65,8.14c-3.08,3.16-5.85,6.51-8.79,9.61a33.85,33.85,0,0,1-9.9,7.67,24,24,0,0,1-5.92,1.89,30.4,30.4,0,0,1-6.26.33l-1.16,0,.19,1.08a14.86,14.86,0,0,0,1,3.11A17.3,17.3,0,0,0,244,99.91a18.53,18.53,0,0,0,4.29,4.67,22.46,22.46,0,0,0,11.64,4.22c.91.09,1.82.14,2.72.16a46,46,0,0,0,9.53-.9,68.92,68.92,0,0,0,7.76-2l.77-.24c-.43.48-.86,1-1.29,1.42a21.75,21.75,0,0,1-4.67,3.87,14.72,14.72,0,0,1-1.48.76,18.41,18.41,0,0,1-4.14,1.26l-5,.95,4.73,1.8.24.08a14.82,14.82,0,0,0,2,.51l.67.1c.51.07,1,.14,1.51.17a24.52,24.52,0,0,0,2.57.09c.58,0,1.17,0,1.76,0a39.8,39.8,0,0,0,8.36-1.56,52.7,52.7,0,0,0,7.83-3c.88-.44,2.53-2.08,3.4-2.55,13.5-5.57,25.47-10.91,30.32-12.16a12.75,12.75,0,0,1,9.2,1c1.82,1,3.21,2.53,5,3.59,6.11,3.68,13.79,5.9,20.75,7.22a50.88,50.88,0,0,0,21.14-.12,13.67,13.67,0,0,0,4.07-.35l.39-.11a22.05,22.05,0,0,0,3.52-1.18A26.67,26.67,0,0,0,395.2,105.56Z"/><g opacity="0.1" ><path d="M479.38,348.82c-1.82,3.4-3.92,6.59-5.91,9.89-3.85,6.42-8.49,10.76-13.6,16.25a63.23,63.23,0,0,1-11.06,9.46,60.26,60.26,0,0,1-6.26,3.67A32.79,32.79,0,0,1,437,390.6c-4,1.15-6.14-2.22-7.32-5.52a39.81,39.81,0,0,1-2.34-17.55c.54-4.88.17-9.24,1.36-14.38l-1.94,4.49c-3.07,11.13-4.21,22.52-5.65,34a4.59,4.59,0,0,0,.26,2.19c-.35.21.17.45-.06.73-2.06,2.52-.69,11.1-.82,14.3a.69.69,0,0,0,.1.45c.15.19.45.14.69.08a107.68,107.68,0,0,0,24.46-9.43c9.47-5.3,16.41-12.77,22.8-21.4,3.19-4.31,7.4-8.23,9.2-13.28,3.1-8.71,8-17.87,6.71-27C484.7,339.93,480.31,347.09,479.38,348.82Z"/></g>        <path fill="#fff" opacity="0.1"  d="M476.94,340.82c2.49-4,5-8,7.86-11.7a154,154,0,0,0-1.05-22.6c-5.3-45.38-31.36-100.16-52-142.52s-47.24-57-47.24-57c6,6.79,32.31,49.69,42.63,70.06S469.76,273.7,476.82,318A75.28,75.28,0,0,1,476.94,340.82Z"/>    </g>    <g id="outline">        <path fill="none"  d="M191,368c-11.84.35-48.23-1.43-56.94-35.55-3.59-14.05-1-26.83,7.4-36a43.12,43.12,0,0,1,11-8.54,23.34,23.34,0,0,1,4.22-1.61c2.44-.76,5-1.54,6-3.12a2.72,2.72,0,0,0,.26-3.11,3.39,3.39,0,0,0-3.53-1.12c-3.45.69-18.15,6.23-27.13,20.69-7,11.26-8.43,24.78-4.3,40.18,11.41,42.5,51,44.33,70.56,43.84-.14-.22-.29-.43-.43-.64A72.87,72.87,0,0,1,191,368Z"/><path fill="none"  d="M436.24,173.1c-9.43-18.92-19.18-36.8-34.42-51.77a132.89,132.89,0,0,0-14.69-12.47,12.73,12.73,0,0,1-3.58.26h.08c.42-.09.82-.2,1.22-.32a23.46,23.46,0,0,0,2.46-.93,30,30,0,0,0,3.45-1.85c1.11-.68,2.15-1.46,3.18-2.24l.29-.23-1.3-.09c-.8-.09-1.6-.18-2.39-.33s-1.57-.28-2.35-.46a42.55,42.55,0,0,1-9-3.17A45.47,45.47,0,0,1,375,97.17c-.67-.43-1.35-.83-2-1.28s-1.28-.93-1.9-1.41a45.65,45.65,0,0,1-3.6-3c-1.14-1.08-2.19-2.25-3.23-3.41,1.34.83,2.61,1.71,3.91,2.54l2,1.2c.65.42,1.3.81,2,1.17s1.34.73,2,1.11,1.36.68,2,1c1.35.69,2.74,1.28,4.12,1.9q2.38.94,4.81,1.72c.8,0,1.61,0,2.4-.14a26.31,26.31,0,0,0,4-.68,22.67,22.67,0,0,0,3.79-1.23,20.42,20.42,0,0,0,6.38-4.43,19.19,19.19,0,0,0,2.4-3c.18-.28.36-.58.53-.89l-.22,0c-1.07.19-2.16.31-3.23.47S399,89,397.88,89s-2.19,0-3.29-.19A18.24,18.24,0,0,1,388.25,87c-.48-.24-.93-.54-1.39-.81l0,0-.6-.44-.48.13h0c.16,0,.31-.1.47-.15a5.3,5.3,0,0,1-.67-.57,7.88,7.88,0,0,1-2-2.55,8.91,8.91,0,0,0,2.41,2c.42.29.92.46,1.36.71l.08,0a32.06,32.06,0,0,0,7-3.42,23,23,0,0,0,3.7-3,20.9,20.9,0,0,0,3-3.64,23.07,23.07,0,0,0,3.41-8.69,27.82,27.82,0,0,0,.27-7.67l-2.46,2.65c-1.26,1.25-2.6,2.43-3.9,3.65-.69.57-1.41,1.11-2.12,1.66a22.31,22.31,0,0,1-2.16,1.6l-2.29,1.45a9.15,9.15,0,0,1-1.19.65l-1.23.6a27.62,27.62,0,0,1-10.53,2.79,48.12,48.12,0,0,1-10.77-.82,101.77,101.77,0,0,0-10.31-1.45,31.46,31.46,0,0,0-10.05.83,36.28,36.28,0,0,0-9.35,3.84,38.31,38.31,0,0,0-4.23,2.81,31.83,31.83,0,0,0-3.75,3.32l-1.52,1.59L328,82a25.25,25.25,0,0,0-3.23-5.15c-.31-.41-.64-.81-1-1.19s-.68-.78-1-1.15a30,30,0,0,0-2.28-2.09,30.6,30.6,0,0,0-10.83-5.86,36,36,0,0,0-12.37-1.52,27.86,27.86,0,0,0-12,2.74,37.68,37.68,0,0,0-10,7.49c-3,3-5.8,6.34-8.93,9.45a36.24,36.24,0,0,1-10.75,7.9,26.3,26.3,0,0,1-6.49,1.91,29.81,29.81,0,0,1-5.5.24A15.87,15.87,0,0,0,245.4,99a16.9,16.9,0,0,0,3.81,4.36A21.47,21.47,0,0,0,260,107.74a41.79,41.79,0,0,0,12-.26c1-.16,2.07-.34,3.1-.55,2.33-.55,4.23-1.14,5.47-1.56l.7-.25c.8-.9,1.6-1.8,2.44-2.69a39.73,39.73,0,0,1,5-4.49,23.23,23.23,0,0,1,6-3.22,36.16,36.16,0,0,1,6.49-1.66,49.49,49.49,0,0,1,13.14-.31,72.33,72.33,0,0,0-12.79,2,41.62,41.62,0,0,0-6,2.07,22.93,22.93,0,0,0-5.27,3.21c-3.3,2.61-5.82,6-8.84,9.28a21.74,21.74,0,0,1-5.33,4.43c-.33.18-.66.33-1,.5.74,0,1.5,0,2.25,0a40.19,40.19,0,0,0,8-1,63.37,63.37,0,0,0,7.86-2.19l3.86-1.45c1.26-.56,2.54-1.08,3.82-1.61-1.17.73-2.34,1.49-3.53,2.21l-1.07.57c-.87.47-1.74.94-2.62,1.38a52.27,52.27,0,0,1-7.83,3,39.8,39.8,0,0,1-8.36,1.56,29.82,29.82,0,0,1-4.33,0l-.89-.09c-10,10-18.33,21.74-25.87,33.56a377.49,377.49,0,0,0-52.42,133.53c-1.65,9-3,18.11-3.92,27.25-2.94,30.42-1.68,70.59,28.43,87.67,2.13,1.21,13,3.79,8.39,7.39-2.4,1.85-14.49,3-13.86,6.68.69,4.07,12.39,4.42,15.14,4.63a154.25,154.25,0,0,0,17.6.25c.53,0,1.45,0,2.42,0,0-.45.07-.92.09-1.4.11-3.78.06-7.78.17-11.66s.13-7.77.11-11.66a160.11,160.11,0,0,0-1.56-23.17,59.61,59.61,0,0,0-2.71-11.26,32,32,0,0,0-2.44-5.24,18,18,0,0,0-3.64-4.51c3.16,2.36,5.26,5.88,6.82,9.46a61.73,61.73,0,0,1,3.41,11.29A143.66,143.66,0,0,1,251,392.89c.14,3.91.19,7.82.18,11.73s.08,7.72,0,11.73a22.49,22.49,0,0,1-.26,3.11,13,13,0,0,1-.37,1.59,6.14,6.14,0,0,1-.77,1.72,8.05,8.05,0,0,1-2.66,2.36,25.27,25.27,0,0,1-2.81,1.33c-.91.39-1.79.74-2.58,1.14a6.21,6.21,0,0,0-1.9,1.33,2,2,0,0,0-.5,1.62,3.58,3.58,0,0,0,.78,1.91,6.46,6.46,0,0,0,1.07,1.09,5.57,5.57,0,0,1,.23-3.12,6.62,6.62,0,0,1,2.79-3.36,8.46,8.46,0,0,1,2-.77,12.35,12.35,0,0,1,1.88-.39,13.57,13.57,0,0,1,3.88-.05,13.47,13.47,0,0,1-3.14,2.29c-1.12.61-2.2,1.06-3,1.5a9.24,9.24,0,0,0-2.27,1.92,12.46,12.46,0,0,0-1.91,3l.46-.38a14.2,14.2,0,0,0,2.19,1.15,20.7,20.7,0,0,0,5.23,1.43c.81.1,1.63.17,2.45.22a2.79,2.79,0,0,1-.44-.92,3.59,3.59,0,0,1,.16-2.17,7.13,7.13,0,0,1,2.47-3,10.06,10.06,0,0,1,3.24-1.62,7.37,7.37,0,0,1,3.65-.16,29.86,29.86,0,0,1-2.6,2.28c-.85.66-1.67,1.29-2.49,1.9a23.91,23.91,0,0,0-2.23,1.75,3.42,3.42,0,0,0-.73,1,2.56,2.56,0,0,0-.21,1.56l.56-.58a49.16,49.16,0,0,0,7.48-.29,42,42,0,0,0,5.57-1,15.12,15.12,0,0,0,4.83-2.26,23.24,23.24,0,0,0,7-8.46c.22-.41.4-.85.6-1.27l.46-1.26c.26-.9.52-1.8.74-2.75.45-1.86.84-3.77,1.25-5.68.82-3.81,1.64-7.64,2.61-11.43a116.56,116.56,0,0,1,3.48-11.23,48.6,48.6,0,0,1,5.2-10.49c-3.76,6.86-5.7,14.46-7.25,22-.76,3.65-1.4,7.33-2,11a314.62,314.62,0,0,0,33.11,5.43c21.48,2.28,43.63,2.35,64.74-2.68a86,86,0,0,0,8.74-2.61c-.67-3.65-.88-7.29-1.29-10.87-.18-1.87-.49-3.72-.78-5.6s-.57-3.75-1-5.59a28.28,28.28,0,0,0-1.73-5.35c-.67-1.78-1.29-3.58-1.9-5.37.75,1.74,1.51,3.48,2.32,5.19a28.16,28.16,0,0,1,2.09,5.35c.49,1.85.88,3.7,1.29,5.56s.82,3.72,1.12,5.61c.61,3.78,1,7.55,1.83,11.15a27,27,0,0,0,4.48,9.9,18.52,18.52,0,0,0,8.2,6.54c.4.16.83.25,1.24.39l1.33.32c.9.2,1.8.36,2.71.5a48.25,48.25,0,0,0,5.5.51c1.22,0,2.43,0,3.65,0l.55.56a2.47,2.47,0,0,0-.21-1.55,3.25,3.25,0,0,0-.73-1,23.32,23.32,0,0,0-2.22-1.75c-.83-.61-1.65-1.24-2.49-1.91a28.12,28.12,0,0,1-2.61-2.27,7.41,7.41,0,0,1,3.66.16,9.91,9.91,0,0,1,3.23,1.62,7.1,7.1,0,0,1,2.48,3,3.62,3.62,0,0,1,.15,2.18,2.68,2.68,0,0,1-.45.93l.5,0a23,23,0,0,0,5.28-.93,16.53,16.53,0,0,0,4.11-1.87l.45.39a12.46,12.46,0,0,0-1.91-3,9.39,9.39,0,0,0-2.26-1.92c-.84-.44-1.93-.89-3.05-1.5a13.63,13.63,0,0,1-3.13-2.29,13.58,13.58,0,0,1,3.88,0,12.49,12.49,0,0,1,1.87.39,8.53,8.53,0,0,1,2,.77,6.6,6.6,0,0,1,2.78,3.36,5.49,5.49,0,0,1,.23,3.15,6.09,6.09,0,0,0,1.29-1.42,3.53,3.53,0,0,0,.57-1.91,2.15,2.15,0,0,0-.57-1.58,6.25,6.25,0,0,0-1.87-1.28c-1.54-.76-3.37-1.31-5.22-2.17a11.09,11.09,0,0,1-2.77-1.74,6.72,6.72,0,0,1-1.18-1.43,5.35,5.35,0,0,1-.63-1.82c-.3-2-.52-3.82-.72-5.75a116,116,0,0,1,0-23,111.34,111.34,0,0,1,1.7-11.35c.39-1.87.82-3.73,1.25-5.57s.85-3.71,1.34-5.55A60.19,60.19,0,0,1,428,353.53a23.63,23.63,0,0,1,7-8.94,25,25,0,0,0-6.29,9.26,59.33,59.33,0,0,0-3.13,10.82c-.75,3.68-1.46,7.45-2.09,11.14s-1,7.45-1.3,11.2a122.24,122.24,0,0,0,.54,22.47c.12,1,.25,2,.39,3,5.44.88,11.39.46,16.78.3A157.3,157.3,0,0,0,459,411.34c2.35-.37,3.94,0,2.57-2.3-1.6-2.7-4-4-6.92-5-2.42-.82-9.31-1-10.72-3.45-.76-1.34.09-2.05,1-2.94,1.35-1.35,4-2.21,5.61-3.24q3-1.89,5.8-4.05a69.52,69.52,0,0,0,18.79-22.2c9-16.7,10.94-36.3,9.17-54.93C482,289.49,475,265.89,467,243.54,458.39,219.39,447.67,196,436.24,173.1Zm-123.14-93c-.94-.49-1.93-.89-2.88-1.34s-2-.79-3-1.07a16.64,16.64,0,0,0-6.15-.83,8.49,8.49,0,0,0-5.36,2.61,62.22,62.22,0,0,0-4.31,4.68,47.94,47.94,0,0,1-4.51,4.62A16.8,16.8,0,0,1,281.36,92a17.8,17.8,0,0,0,5.22-3.61,46.9,46.9,0,0,0,4.25-4.75,47.71,47.71,0,0,1,4.29-4.85,13.12,13.12,0,0,1,2.65-2,10.4,10.4,0,0,1,1.57-.66,7.66,7.66,0,0,1,1.68-.28,17.12,17.12,0,0,1,6.49,1,30.53,30.53,0,0,1,5.94,2.59,54.79,54.79,0,0,1,10.46,7.5c-1.71-1.29-3.46-2.51-5.27-3.65A55.34,55.34,0,0,0,313.1,80.11ZM318.23,96c-2.64.91-5.29,1.74-8,2.57l-4,1.21a22.16,22.16,0,0,0-3.81,1.45A27.57,27.57,0,0,0,299,103.4a10.31,10.31,0,0,1-3.82,1.72,12.34,12.34,0,0,0,1.87-.89,15.06,15.06,0,0,0,1.66-1.22,26.58,26.58,0,0,1,3.4-2.5A18.56,18.56,0,0,1,306,98.82l4-1.25c2.66-.81,5.32-1.62,8-2.36s5.37-1.47,8.09-2.09C323.49,94.13,320.86,95.05,318.23,96Zm33.31,3a15.19,15.19,0,0,0-2-1.52,12.48,12.48,0,0,0-4.51-1.9,15.31,15.31,0,0,0-4.92-.26,22,22,0,0,0-4.94,1.1A14,14,0,0,1,340,94.52a13.26,13.26,0,0,1,5.25,0,13.08,13.08,0,0,1,2.52.84A12.07,12.07,0,0,1,350,96.82a11.51,11.51,0,0,1,1.88,1.81,7.76,7.76,0,0,1,.77,1c.25.36.48.72.71,1.08C352.72,100.17,352.2,99.5,351.54,99ZM349,81.81a26.52,26.52,0,0,0-5.24,2.09A31,31,0,0,0,339,87.05a34.42,34.42,0,0,0-4.22,3.88,29.89,29.89,0,0,1,8.59-7.7,21,21,0,0,1,11.21-3c2,.08,3.85.37,5.77.59s3.82.5,5.71.8c3.76.56,7.66,1,11.27-.5a13.43,13.43,0,0,1-5.57,1.53,38.47,38.47,0,0,1-5.79-.27c-3.82-.39-7.64-1-11.43-1.15A18.08,18.08,0,0,0,349,81.81Z"/><path fill="none"  d="M199.68,246.9a379.41,379.41,0,0,1,27.52-69.12c11-21.27,23.71-42.61,40.14-60.17.52-.57,1.06-1.11,1.6-1.66l-.14,0-4.73-1.8,5-.94a19.08,19.08,0,0,0,3.77-1.12q3.25-3.08,6.72-5.86a68.07,68.07,0,0,1-7.44,1.88,43,43,0,0,1-12.25.75,27.74,27.74,0,0,1-3.7-.62q-5.34,1.86-10.58,4C205,129,181.13,172.4,166.75,203.63c-8.61,18.69-7.78,57.57,11,73,3.91,3.2,9.9.63,15.38-3.34Q195.93,260,199.68,246.9Z"/><path fill="none"  d="M495.35,201c-1.69-2.39-3.28-4.64-4.76-6.94-5-7.8-10.39-15.59-15.56-23.13-5.54-8.05-11.26-16.38-16.62-24.77-11.64-18.21-22.74-33.93-40.69-41.87a126.75,126.75,0,0,0-19-6.46A25.38,25.38,0,0,1,396.21,99a24.93,24.93,0,0,1-5.81,1.1l.65.13c.74.15,1.47.25,2.21.35a27.44,27.44,0,0,0,4.36.33l3.89-.08-2.93,2.35a39.54,39.54,0,0,1-3.38,2.38,26.61,26.61,0,0,1-3.67,1.91c-.26.12-.54.2-.81.31a139.54,139.54,0,0,1,29.43,30.44c6.56,9.19,11.57,19.21,16.63,29.27,5.92,11.76,11.65,23.61,17.05,35.62a486.45,486.45,0,0,1,23.1,61c5.16,4.75,11.15,9.13,15.65,9.32a5,5,0,0,0,4.07-1.58c8.62-9,13.47-37.37,10.25-49.76C505,214.61,500.07,207.71,495.35,201Z"/><path d="M509.8,221.33c-2.08-8-7.12-15.14-12-22-1.67-2.35-3.24-4.58-4.69-6.82-5.06-7.84-10.42-15.65-15.61-23.21-5.52-8-11.23-16.34-16.56-24.68-11.47-18-23.31-34.74-42-43a132.21,132.21,0,0,0-16.81-5.85,17.45,17.45,0,0,0,1.64-1.46,22.19,22.19,0,0,0,2.85-3.48,19.72,19.72,0,0,0,2-4.16l.82-2.48-2.6.66c-1,.25-2,.48-3,.75s-2,.4-3,.61-2,.25-3,.39a28.07,28.07,0,0,1-3,.1,19.2,19.2,0,0,1-6-.87c-.42-.12-.81-.29-1.21-.44a31.9,31.9,0,0,0,7.14-3.06,23.29,23.29,0,0,0,3.9-2.89,22,22,0,0,0,3.25-3.64,24.36,24.36,0,0,0,3.92-9,27.76,27.76,0,0,0,.4-9.84l-.23-1.54-1.14,1.17-3.65,3.73c-1.26,1.2-2.59,2.31-3.88,3.47-.68.53-1.38,1-2.07,1.55a22.17,22.17,0,0,1-2.11,1.48l-2.21,1.32a6.69,6.69,0,0,1-1.13.58l-1.16.53a25.21,25.21,0,0,1-9.78,2.35,48.1,48.1,0,0,1-10.21-1C365.14,70,361.64,69.26,358,69a34.54,34.54,0,0,0-10.9.78A37.45,37.45,0,0,0,337,73.82a42.26,42.26,0,0,0-4.56,3c-.92.7-1.8,1.43-2.66,2.21a29.83,29.83,0,0,0-2.67-4A15,15,0,0,0,326,73.74c-.38-.42-.74-.86-1.14-1.27-.83-.77-1.59-1.62-2.49-2.31a33.21,33.21,0,0,0-11.9-6.4,39.18,39.18,0,0,0-13.33-1.59l-1.68,0-1.69.18a16.21,16.21,0,0,0-1.68.25c-.56.11-1.12.19-1.67.33A30.34,30.34,0,0,0,284,65.3a40.34,40.34,0,0,0-10.65,8.14c-3.08,3.16-5.85,6.52-8.79,9.61a33.85,33.85,0,0,1-9.9,7.67,24,24,0,0,1-5.92,1.89,30.4,30.4,0,0,1-6.26.33l-1.16,0,.19,1.08a15.14,15.14,0,0,0,1,3.12A17.61,17.61,0,0,0,244,99.91a18.53,18.53,0,0,0,4.29,4.67,19,19,0,0,0,3.42,2.06c-2.42.88-4.82,1.8-7.2,2.78-41.65,17.16-65.87,61.27-80.47,93-4.72,10.26-6.62,25.55-5,39.91,1.89,16.29,7.85,29.31,16.78,36.64a9.31,9.31,0,0,0,6.09,2.15c3.35,0,6.94-1.51,10.32-3.61-.37,1.83-.72,3.66-1.07,5.49-4.63,25.51-9,56.07-1.13,82.07-12,.23-45.09-2-53.07-33.32-3.33-13-.95-24.84,6.7-33.22A40.42,40.42,0,0,1,154,290.56a20.06,20.06,0,0,1,3.65-1.37c2.82-.88,6-1.87,7.62-4.36a5.68,5.68,0,0,0,.23-6.43,6.37,6.37,0,0,0-6.6-2.37c-5.74,1.15-20.4,8.05-29.09,22.05-7.44,12-9,26.3-4.65,42.53,11.19,41.66,47.75,46.13,69.07,46.13,2.36,0,4.51-.06,6.43-.12a53.5,53.5,0,0,0,13.9,13.1,54.72,54.72,0,0,0,5.28,3c.46.22,2,1.13,3.24,1.71l-.3.12c-1.79.63-3.6,1.17-5.38,1.81-3.43,1.26-9.09,3.22-6.82,8,1.88,3.91,8,4.8,11.71,5.38a116.92,116.92,0,0,0,20,1c1.44,0,3.41.1,5.39,0a1.91,1.91,0,0,1-.21.38c-.72,1.09-2.44,1.89-4.19,2.6-.88.37-1.81.74-2.77,1.21a8.74,8.74,0,0,0-2.83,2,5.08,5.08,0,0,0-1,1.79,5.4,5.4,0,0,0-.21,2,6.65,6.65,0,0,0,1.35,3.46,12.82,12.82,0,0,0,5.35,3.79,23.61,23.61,0,0,0,6,1.61,48.91,48.91,0,0,0,12-.09,44.5,44.5,0,0,0,5.91-1.19,17.56,17.56,0,0,0,5.66-2.77,24.55,24.55,0,0,0,7.55-9.57c.22-.46.4-.94.61-1.4l.5-1.5c.25-1,.5-1.95.69-2.92s.44-2.19.63-3.28c22.3,4.82,45.24,7.68,68.07,6.77a160.19,160.19,0,0,0,32.55-4.43q3.63-.9,7.19-2a28.92,28.92,0,0,0,3.87,8.22,20.33,20.33,0,0,0,9.19,7.64c.47.2,1,.33,1.46.49s.95.26,1.43.37c.95.24,1.91.42,2.87.59a48.21,48.21,0,0,0,11.67.59c1-.09,1.93-.16,3-.33a23,23,0,0,0,2.95-.69,18.44,18.44,0,0,0,5.57-2.64,9.37,9.37,0,0,0,2.34-2.43,6.56,6.56,0,0,0,1-3.47,5.25,5.25,0,0,0-1.36-3.62A8.89,8.89,0,0,0,431.7,420c-1.87-.9-3.7-1.42-5.29-2.16a8.6,8.6,0,0,1-2.05-1.25,4.22,4.22,0,0,1-.64-.74,2,2,0,0,1-.16-.42l.76.08a143.8,143.8,0,0,0,20.86,0c5.56-.29,11.91-.22,17.3-1.84,3.77-1.14,2.9-4.87.85-7.65-3.27-4.44-9.45-5.46-14.46-6.64l-.43-.13c.94-.57,2-1.32,2.34-1.55A76.39,76.39,0,0,0,462.63,389c14-12.67,21.84-30.36,24.29-48.89,2.85-21.53-1.3-43.22-6.67-64-.57-2.21-1.18-4.42-1.79-6.62,4.58,3.73,9.65,6.83,14,7h.42a7.94,7.94,0,0,0,5.95-2.51C508.43,263.85,513.31,234.84,509.8,221.33ZM177.74,276.62c-18.77-15.42-19.6-54.3-11-73C181.13,172.4,205,129,245.63,112.19q5.24-2.14,10.58-4a27.74,27.74,0,0,0,3.7.62,43,43,0,0,0,12.25-.75,68.07,68.07,0,0,0,7.44-1.88q-3.47,2.79-6.72,5.86a19.08,19.08,0,0,1-3.77,1.12l-5,.94,4.73,1.8.14,0c-.54.55-1.08,1.09-1.6,1.66-16.43,17.56-29.15,38.9-40.14,60.17a379.41,379.41,0,0,0-27.52,69.12q-3.77,13.07-6.56,26.38C187.64,277.25,181.65,279.82,177.74,276.62ZM128,339.84c-4.13-15.4-2.69-28.92,4.3-40.18,9-14.46,23.68-20,27.13-20.69a3.39,3.39,0,0,1,3.53,1.12,2.72,2.72,0,0,1-.26,3.11c-1,1.58-3.56,2.36-6,3.12a23.34,23.34,0,0,0-4.22,1.61,43.12,43.12,0,0,0-11,8.54c-8.36,9.15-11,21.93-7.4,36,8.71,34.12,45.1,35.9,56.94,35.55a72.87,72.87,0,0,0,7.13,15c.14.21.29.42.43.64C179,384.17,139.42,382.34,128,339.84ZM386.22,85.71l.6.44,0,0c.46.27.91.57,1.39.81a18.24,18.24,0,0,0,6.34,1.81c1.1.17,2.19.13,3.29.19s2.19-.1,3.28-.19,2.16-.28,3.23-.47l.22,0c-.17.31-.35.61-.53.89a19.19,19.19,0,0,1-2.4,3,20.42,20.42,0,0,1-6.38,4.43,22.67,22.67,0,0,1-3.79,1.23,26.31,26.31,0,0,1-4,.68c-.79.09-1.6.12-2.4.14q-2.43-.78-4.81-1.72c-1.38-.62-2.77-1.21-4.12-1.9-.68-.35-1.38-.66-2-1s-1.33-.75-2-1.11-1.33-.75-2-1.17l-2-1.2c-1.3-.83-2.57-1.71-3.91-2.54,1,1.16,2.09,2.33,3.23,3.41a45.65,45.65,0,0,0,3.6,3c.62.48,1.26,1,1.9,1.41s1.33.85,2,1.28a45.47,45.47,0,0,0,4.16,2.31,42.55,42.55,0,0,0,9,3.17c.78.18,1.56.34,2.35.46s1.59.24,2.39.33l1.3.09-.29.23c-1,.78-2.07,1.56-3.18,2.24a30,30,0,0,1-3.45,1.85,23.46,23.46,0,0,1-2.46.93c-.4.12-.8.23-1.22.32h-.08a12.73,12.73,0,0,0,3.58-.26,132.89,132.89,0,0,1,14.69,12.47c15.24,15,25,32.85,34.42,51.77,11.43,22.94,22.15,46.29,30.8,70.44,8,22.35,15,46,17.25,69.67,1.77,18.63-.21,38.23-9.17,54.93a69.52,69.52,0,0,1-18.79,22.2q-2.81,2.16-5.8,4.05c-1.64,1-4.26,1.89-5.61,3.24-.88.89-1.73,1.6-1,2.94,1.41,2.48,8.3,2.63,10.72,3.45,2.94,1,5.32,2.32,6.92,5,1.37,2.3-.22,1.93-2.57,2.3a157.3,157.3,0,0,1-19.15,1.45c-5.39.16-11.34.58-16.78-.3-.14-1-.27-2-.39-3a122.24,122.24,0,0,1-.54-22.47c.25-3.75.71-7.48,1.3-11.2s1.34-7.46,2.09-11.14a59.33,59.33,0,0,1,3.13-10.82,25,25,0,0,1,6.29-9.26,23.63,23.63,0,0,0-7,8.94,60.19,60.19,0,0,0-3.84,10.81c-.49,1.84-.91,3.7-1.34,5.55s-.86,3.7-1.25,5.57a111.34,111.34,0,0,0-1.7,11.35,116,116,0,0,0,0,23c.2,1.93.42,3.77.72,5.75a5.35,5.35,0,0,0,.63,1.82,6.72,6.72,0,0,0,1.18,1.43,11.09,11.09,0,0,0,2.77,1.74c1.85.86,3.68,1.41,5.22,2.17a6.25,6.25,0,0,1,1.87,1.28,2.15,2.15,0,0,1,.57,1.58,3.53,3.53,0,0,1-.57,1.91,6.09,6.09,0,0,1-1.29,1.42,5.49,5.49,0,0,0-.23-3.15,6.6,6.6,0,0,0-2.78-3.36,8.53,8.53,0,0,0-2-.77,12.49,12.49,0,0,0-1.87-.39,13.58,13.58,0,0,0-3.88,0,13.63,13.63,0,0,0,3.13,2.29c1.12.61,2.21,1.06,3.05,1.5a9.39,9.39,0,0,1,2.26,1.92,12.46,12.46,0,0,1,1.91,3l-.45-.39a16.53,16.53,0,0,1-4.11,1.87,23,23,0,0,1-5.28.93l-.5,0a2.68,2.68,0,0,0,.45-.93,3.62,3.62,0,0,0-.15-2.18,7.1,7.1,0,0,0-2.48-3,9.91,9.91,0,0,0-3.23-1.62,7.41,7.41,0,0,0-3.66-.16,28.12,28.12,0,0,0,2.61,2.27c.84.67,1.66,1.3,2.49,1.91a23.32,23.32,0,0,1,2.22,1.75,3.25,3.25,0,0,1,.73,1,2.47,2.47,0,0,1,.21,1.55l-.55-.56c-1.22,0-2.43,0-3.65,0a48.25,48.25,0,0,1-5.5-.51c-.91-.14-1.81-.3-2.71-.5l-1.33-.32c-.41-.14-.84-.23-1.24-.39a18.52,18.52,0,0,1-8.2-6.54,27,27,0,0,1-4.48-9.9c-.87-3.6-1.22-7.37-1.83-11.15-.3-1.89-.72-3.76-1.12-5.61s-.8-3.71-1.29-5.56a28.16,28.16,0,0,0-2.09-5.35c-.81-1.71-1.57-3.45-2.32-5.19.61,1.79,1.23,3.59,1.9,5.37a28.28,28.28,0,0,1,1.73,5.35c.38,1.84.66,3.72,1,5.59s.6,3.73.78,5.6c.41,3.58.62,7.22,1.29,10.87a86,86,0,0,1-8.74,2.61c-21.11,5-43.26,5-64.74,2.68A314.62,314.62,0,0,1,283.2,414c.63-3.7,1.27-7.38,2-11,1.55-7.59,3.49-15.19,7.25-22a48.6,48.6,0,0,0-5.2,10.49,116.56,116.56,0,0,0-3.48,11.23c-1,3.79-1.79,7.62-2.61,11.43-.41,1.91-.8,3.82-1.25,5.68-.22.95-.48,1.85-.74,2.75l-.46,1.26c-.2.42-.38.86-.6,1.27a23.24,23.24,0,0,1-7,8.46,15.12,15.12,0,0,1-4.83,2.26,42,42,0,0,1-5.57,1,49.16,49.16,0,0,1-7.48.29l-.56.58a2.56,2.56,0,0,1,.21-1.56,3.42,3.42,0,0,1,.73-1,23.91,23.91,0,0,1,2.23-1.75c.82-.61,1.64-1.24,2.49-1.9a29.86,29.86,0,0,0,2.6-2.28,7.37,7.37,0,0,0-3.65.16,10.06,10.06,0,0,0-3.24,1.62,7.13,7.13,0,0,0-2.47,3,3.59,3.59,0,0,0-.16,2.17,2.79,2.79,0,0,0,.44.92c-.82-.05-1.64-.12-2.45-.22a20.7,20.7,0,0,1-5.23-1.43,14.2,14.2,0,0,1-2.19-1.15l-.46.38a12.46,12.46,0,0,1,1.91-3,9.24,9.24,0,0,1,2.27-1.92c.84-.44,1.92-.89,3-1.5a13.47,13.47,0,0,0,3.14-2.29,13.57,13.57,0,0,0-3.88.05,12.35,12.35,0,0,0-1.88.39,8.46,8.46,0,0,0-2,.77,6.62,6.62,0,0,0-2.79,3.36,5.57,5.57,0,0,0-.23,3.12,6.46,6.46,0,0,1-1.07-1.09,3.58,3.58,0,0,1-.78-1.91,2,2,0,0,1,.5-1.62,6.21,6.21,0,0,1,1.9-1.33c.79-.4,1.67-.75,2.58-1.14a25.27,25.27,0,0,0,2.81-1.33,8.05,8.05,0,0,0,2.66-2.36,6.14,6.14,0,0,0,.77-1.72,13,13,0,0,0,.37-1.59,22.49,22.49,0,0,0,.26-3.11c0-4-.08-7.81,0-11.73s0-7.82-.18-11.73a143.66,143.66,0,0,0-2.45-23.39,61.73,61.73,0,0,0-3.41-11.29c-1.56-3.58-3.66-7.1-6.82-9.46a18,18,0,0,1,3.64,4.51,32,32,0,0,1,2.44,5.24,59.61,59.61,0,0,1,2.71,11.26,160.11,160.11,0,0,1,1.56,23.17c0,3.89-.05,7.77-.11,11.66s-.06,7.88-.17,11.66c0,.48-.05.95-.09,1.4-1,0-1.89,0-2.42,0a154.25,154.25,0,0,1-17.6-.25c-2.75-.21-14.45-.56-15.14-4.63-.63-3.64,11.46-4.83,13.86-6.68,4.66-3.6-6.26-6.18-8.39-7.39-30.11-17.08-31.37-57.25-28.43-87.67.89-9.14,2.27-18.22,3.92-27.25A377.49,377.49,0,0,1,246.5,150.23c7.54-11.82,15.91-23.54,25.87-33.56l.89.09a29.82,29.82,0,0,0,4.33,0,39.8,39.8,0,0,0,8.36-1.56,52.27,52.27,0,0,0,7.83-3c.88-.44,1.75-.91,2.62-1.38l1.07-.57c1.19-.72,2.36-1.48,3.53-2.21-1.28.53-2.56,1-3.82,1.61l-3.86,1.45a63.37,63.37,0,0,1-7.86,2.19,40.19,40.19,0,0,1-8,1c-.75,0-1.51,0-2.25,0,.33-.17.66-.32,1-.5a21.74,21.74,0,0,0,5.33-4.43c3-3.31,5.54-6.67,8.84-9.28a22.93,22.93,0,0,1,5.27-3.21,41.62,41.62,0,0,1,6-2.07,72.33,72.33,0,0,1,12.79-2,49.49,49.49,0,0,0-13.14.31,36.16,36.16,0,0,0-6.49,1.66,23.23,23.23,0,0,0-6,3.22,39.73,39.73,0,0,0-5,4.49c-.84.89-1.64,1.79-2.44,2.69l-.7.25-.58.45c-1.62.41-3.25.79-4.89,1.11-1,.21-2.07.39-3.1.55a41.79,41.79,0,0,1-12,.26,21.47,21.47,0,0,1-10.83-4.36A16.9,16.9,0,0,1,245.4,99a15.87,15.87,0,0,1-1.81-4.22,29.81,29.81,0,0,0,5.5-.24,26.3,26.3,0,0,0,6.49-1.91,36.24,36.24,0,0,0,10.75-7.9c3.13-3.11,5.9-6.44,8.93-9.45a37.68,37.68,0,0,1,10-7.49,27.86,27.86,0,0,1,12-2.74,36,36,0,0,1,12.37,1.52,30.6,30.6,0,0,1,10.83,5.86,30,30,0,0,1,2.28,2.09c.36.37.69.77,1,1.15s.68.78,1,1.19A25.25,25.25,0,0,1,328,82l.93,2,1.52-1.59a31.83,31.83,0,0,1,3.75-3.32,38.31,38.31,0,0,1,4.23-2.81,36.28,36.28,0,0,1,9.35-3.84,31.46,31.46,0,0,1,10.05-.83,101.77,101.77,0,0,1,10.31,1.45,48.12,48.12,0,0,0,10.77.82,27.62,27.62,0,0,0,10.53-2.79l1.23-.6a9.15,9.15,0,0,0,1.19-.65l2.29-1.45a22.31,22.31,0,0,0,2.16-1.6c.71-.55,1.43-1.09,2.12-1.66,1.3-1.22,2.64-2.4,3.9-3.65l2.46-2.65a27.82,27.82,0,0,1-.27,7.67,23.07,23.07,0,0,1-3.41,8.69,20.9,20.9,0,0,1-3,3.64,23,23,0,0,1-3.7,3,32.06,32.06,0,0,1-7,3.42l-.08,0c-.44-.25-.94-.42-1.36-.71a8.91,8.91,0,0,1-2.41-2,7.88,7.88,0,0,0,2,2.55,5.3,5.3,0,0,0,.67.57ZM496.65,271.85a5,5,0,0,1-4.07,1.58c-4.5-.19-10.49-4.57-15.65-9.32a486.45,486.45,0,0,0-23.1-61c-5.4-12-11.13-23.86-17.05-35.62-5.06-10.06-10.07-20.08-16.63-29.27a139.54,139.54,0,0,0-29.43-30.44c.27-.11.55-.19.81-.31a26.61,26.61,0,0,0,3.67-1.91,39.54,39.54,0,0,0,3.38-2.38l2.93-2.35-3.89.08a27.44,27.44,0,0,1-4.36-.33c-.74-.1-1.47-.2-2.21-.35l-.65-.13a24.93,24.93,0,0,0,5.81-1.1,25.38,25.38,0,0,0,2.56-1.15,126.75,126.75,0,0,1,19,6.46c17.95,7.94,29,23.66,40.69,41.87,5.36,8.39,11.08,16.72,16.62,24.77,5.17,7.54,10.53,15.33,15.56,23.13,1.48,2.3,3.07,4.55,4.76,6.94,4.72,6.68,9.6,13.58,11.55,21.06C510.12,234.48,505.27,262.82,496.65,271.85Z"/><path d="M280.05,105.82l.58-.45c-1.24.42-3.14,1-5.47,1.56C276.8,106.61,278.43,106.23,280.05,105.82Z"/><path d="M383.63,109.1c.42-.09.82-.2,1.22-.32"/><path d="M323.91,86.93a54.79,54.79,0,0,0-10.46-7.5,30.53,30.53,0,0,0-5.94-2.59,17.12,17.12,0,0,0-6.49-1,7.66,7.66,0,0,0-1.68.28,10.4,10.4,0,0,0-1.57.66,13.12,13.12,0,0,0-2.65,2,47.71,47.71,0,0,0-4.29,4.85,46.9,46.9,0,0,1-4.25,4.75A17.8,17.8,0,0,1,281.36,92a16.8,16.8,0,0,0,5.55-3.24,47.94,47.94,0,0,0,4.51-4.62,62.22,62.22,0,0,1,4.31-4.68,8.49,8.49,0,0,1,5.36-2.61,16.64,16.64,0,0,1,6.15.83c1,.28,2,.7,3,1.07s1.94.85,2.88,1.34a55.34,55.34,0,0,1,5.54,3.17C320.45,84.42,322.2,85.64,323.91,86.93Z"/><path d="M371.8,82.64a13.43,13.43,0,0,0,5.57-1.53c-3.61,1.54-7.51,1.06-11.27.5-1.89-.3-3.8-.55-5.71-.8s-3.8-.51-5.77-.59a21,21,0,0,0-11.21,3,29.89,29.89,0,0,0-8.59,7.7A34.42,34.42,0,0,1,339,87.05a31,31,0,0,1,4.74-3.15A26.52,26.52,0,0,1,349,81.81a18.08,18.08,0,0,1,5.56-.59c3.79.17,7.61.76,11.43,1.15A38.47,38.47,0,0,0,371.8,82.64Z"/><path d="M351.89,98.63A11.51,11.51,0,0,0,350,96.82a12.07,12.07,0,0,0-2.24-1.41,13.08,13.08,0,0,0-2.52-.84,13.26,13.26,0,0,0-5.25,0,14,14,0,0,0-4.82,1.87,22,22,0,0,1,4.94-1.1,15.31,15.31,0,0,1,4.92.26,12.48,12.48,0,0,1,4.51,1.9,15.19,15.19,0,0,1,2,1.52c.66.53,1.18,1.2,1.83,1.78-.23-.36-.46-.72-.71-1.08A7.76,7.76,0,0,0,351.89,98.63Z"/><path d="M310,97.57l-4,1.25a18.56,18.56,0,0,0-3.91,1.69,26.58,26.58,0,0,0-3.4,2.5,15.06,15.06,0,0,1-1.66,1.22,12.34,12.34,0,0,1-1.87.89A10.31,10.31,0,0,0,299,103.4a27.57,27.57,0,0,1,3.48-2.22,22.16,22.16,0,0,1,3.81-1.45l4-1.21c2.66-.83,5.31-1.66,8-2.57s5.26-1.82,7.86-2.83c-2.72.62-5.41,1.35-8.09,2.09S312.66,96.76,310,97.57Z"/>    </g>    <g id="eye">        <g id="eye-color1">            <g opacity="0" ><path fill="#B59070"  d="M251.88,194.72c-.14.46-.2.94-.35,1.41a16.61,16.61,0,0,1-1.35,2.86c-.53.94-1,1.9-1.55,2.83-.23.41-.49.81-.76,1.2-.14.21-.29.41-.44.61s-.45.47-.45.6c-.19.25-.39.5-.59.74-5.88,7.05-13.91,9.8-22.69,6.54-8.54-3.17-14.21-10.41-14.65-19.54a1.27,1.27,0,0,1,0-.28,1.29,1.29,0,0,1,0-.29,23.29,23.29,0,0,1,19-21.82,19,19,0,0,1,11.42,1.35c-15.3-7.7-34.36-2.93-39.3,15.33a21.13,21.13,0,0,0-.66,6.53A29.44,29.44,0,0,0,210,213c8.59,7.08,21.5,6.67,31,1.77,7.19-3.7,10-12.6,10.93-20.46C252,194.47,251.92,194.59,251.88,194.72Z"/></g><g opacity="0" ><path fill="#B59070"  d="M375.64,188.66c-.24.62-.44,1.25-.7,1.86a25.86,25.86,0,0,1-2,3.67,32.56,32.56,0,0,1-2.54,3.42c-5.88,7-13.9,9.8-22.69,6.54-8.54-3.17-14.21-10.41-14.65-19.54a1.27,1.27,0,0,1,0-.28.9.9,0,0,1,0-.29,23.29,23.29,0,0,1,19-21.82,19,19,0,0,1,11.42,1.35c-15.29-7.7-34.35-2.93-39.29,15.33a20.54,20.54,0,0,0-.66,6.53,29.36,29.36,0,0,0,10.48,20.24c8.59,7.08,21.5,6.67,31,1.77,6.9-3.55,9.72-12,10.77-19.66C375.81,188,375.73,188.41,375.64,188.66Z"/></g>        </g>        <g id="eye-shape">            <path fill="#fbfbfb"  d="M295.23,123.9c-21.73-17.81-51.73-12-72.06,4.87-11.71,10.13-20.83,23.9-22.35,39.61-1.28,13.09,2.59,26.27,9.6,37.28,12.38,19.45,36.52,33.94,59.91,27.1,20.91-6.12,35.23-26.45,41.18-46.49C318.07,164.16,313.73,139.06,295.23,123.9Zm16.09,44.39c3.12,13.14-4,29.29-15.05,36.62-11.44,7.59-25.45,6.31-36.15-1.92-11.83-9.09-12.9-22.85-8.48-36.31a1.66,1.66,0,0,1,.15-.33c5.3-13,20-19.08,33.33-17.46a40.23,40.23,0,0,1,4.79.88c7-2,15.58,1.56,16.61,9.36A21.23,21.23,0,0,1,311.32,168.29Z"/><path d="M221.05,126.64c-10.64,9.21-19.13,21.3-22.21,35.19-2.76,12.5-.75,25.57,4.53,37.13,10.21,22.39,34.35,41.16,59.93,38.25,23.13-2.63,40.23-22.11,48.49-42.65,9.19-22.89,7.78-50-9.89-68.55C279.45,102.48,244.4,107.3,221.05,126.64Zm90.46,59.63c-5.95,20-20.27,40.37-41.18,46.49-23.39,6.84-47.53-7.65-59.91-27.1-7-11-10.88-24.19-9.6-37.28,1.52-15.71,10.64-29.48,22.35-39.61,20.33-16.85,50.33-22.68,72.06-4.87C313.73,139.06,318.07,164.16,311.51,186.27Z"/><path d="M306.46,162.89c-1.18,7.61-8.53,14.09-16.4,11.78-7.26-2.13-10.49-10.21-8.63-17.12a1.6,1.6,0,0,1,.1-.39,1.55,1.55,0,0,1,.18-.39,12.36,12.36,0,0,1,8.2-7,40.23,40.23,0,0,0-4.79-.88c-13.38-1.62-28,4.45-33.33,17.46a1.66,1.66,0,0,0-.15.33c-4.42,13.46-3.35,27.22,8.48,36.31,10.7,8.23,24.71,9.51,36.15,1.92,11.05-7.33,18.17-23.48,15.05-36.62a21.23,21.23,0,0,0-4.8-9.16A12.89,12.89,0,0,1,306.46,162.89Z"/><path fill="#fff"  d="M289.91,149.77a12.36,12.36,0,0,0-8.2,7,1.55,1.55,0,0,0-.18.39,1.6,1.6,0,0,0-.1.39c-1.86,6.91,1.37,15,8.63,17.12,7.87,2.31,15.22-4.17,16.4-11.78a12.89,12.89,0,0,0,.06-3.76C305.49,151.33,297,147.81,289.91,149.77Z"/><path fill="#fbfbfb"  d="M437,125.33c-21.81-15.39-53-18.4-71.71,3.55-17.26,21.61-17.19,56.12-2.48,79a51.87,51.87,0,0,0,65.66,19.41,58,58,0,0,0,33.47-49.53C463,157.45,453.74,137.14,437,125.33ZM371.26,207.2c-14.35-8.09-20.39-26.75-13.74-41.9a30.4,30.4,0,0,1,4.24-6.93,10.14,10.14,0,0,1,1.62-5.68c2.63-4.13,8-4.82,12.6-3.79a30.44,30.44,0,0,1,12.63-1c14.24,1.89,27.35,11.64,30.73,26C425.83,201.43,394.08,218.68,371.26,207.2Z"/><path d="M444.44,127.47c-22.48-20.29-60.06-25.66-81.28-.71-16.45,20.6-17.87,51.3-7.19,74.86,10.79,23.79,36.25,38.16,62.16,32.38,23.25-5.19,41.58-24.61,45.83-47.95C467.84,164.77,460.58,142,444.44,127.47Zm17.49,50.33a58,58,0,0,1-33.47,49.53,51.87,51.87,0,0,1-65.66-19.41c-14.71-22.92-14.78-57.43,2.48-79,18.67-21.95,49.9-18.94,71.71-3.55C453.74,137.14,463,157.45,461.93,177.8Z"/><path d="M388.61,148a30.44,30.44,0,0,0-12.63,1A17.87,17.87,0,0,1,379.2,150c5.45,2.44,8.81,8.09,6.23,13.93-3,6.77-10.57,8.5-16.85,5.51a1.36,1.36,0,0,1-.39-.18,1.28,1.28,0,0,1-.34-.24,13.69,13.69,0,0,1-6.09-10.61,30.4,30.4,0,0,0-4.24,6.93c-6.65,15.15-.61,33.81,13.74,41.9,22.82,11.48,54.57-5.77,48.08-33.26C416,159.59,402.85,149.84,388.61,148Z"/><path fill="#fff"  d="M367.85,169a1.28,1.28,0,0,0,.34.24,1.36,1.36,0,0,0,.39.18c6.28,3,13.85,1.26,16.85-5.51,2.58-5.84-.78-11.49-6.23-13.93A17.87,17.87,0,0,0,376,148.9c-4.6-1-10-.34-12.6,3.79a10.14,10.14,0,0,0-1.62,5.68A13.69,13.69,0,0,0,367.85,169Z"/><path fill="#fcf9f7"  d="M312.47,111.88c-3.15-2.12-8.21-4.63-12.08-3.19-2.63,1-3.4,3.79-2.51,6.24a12.78,12.78,0,0,0,.68,1.53,18.3,18.3,0,0,0,6.7,7.31c3.21,1.86,8.4,2.89,11.18-.27,2.17-2.47,1.49-6-.39-8.45A14.85,14.85,0,0,0,312.47,111.88Z"/><path fill="#fcf9f7"  d="M354.8,126.17c4.59-.46,8.71-4.37,10.83-8.24a10.54,10.54,0,0,0,1.3-3.71,3.28,3.28,0,0,0-.12-1.59c-.45-1.17-1.81-1.7-3.05-1.91a13.76,13.76,0,0,0-7.42.87c-3.38,1.35-7,3.44-8.19,7.14a6.23,6.23,0,0,0-.15.62C347.21,123.36,351,126.56,354.8,126.17Z"/>        </g>        <g id="eye-color2">            <path fill="#FF8A8A"  d="M296.27,204.91c-11.44,7.59-25.45,6.31-36.15-1.92-11.83-9.09-12.9-22.84-8.48-36.31a1.35,1.35,0,0,1,.15-.32c5.09-12.49,18.79-18.57,31.71-17.61-18.58-4.76-40.69,3.61-47,22.29a37.85,37.85,0,0,0,4.9,33.63c7.49,10.53,19.92,14.81,32.48,14.76,6.18,0,12.54-1,17.8-4.26,8.59-5.28,15.13-15.61,17.42-26.36A36.29,36.29,0,0,1,296.27,204.91Z"/><path fill="#FF8A8A"  d="M413,151.48c-9.56-6.8-25.15-8-36.48-2.76a30.47,30.47,0,0,1,12.05-.77c14.24,1.89,27.35,11.64,30.73,26,6.49,27.5-25.26,44.74-48.08,33.26a32.32,32.32,0,0,1-14.31-17,15.56,15.56,0,0,0,.4,2.35,31.17,31.17,0,0,0,16.47,20.87c13.12,6.59,30.83,4.54,43.3-5.59a31.75,31.75,0,0,0,10.47-14.43C432.45,178.47,425.74,160.52,413,151.48Z"/>        </g>    </g>    <g id="nose-mouth">        <path fill="#fff"  d="M349.07,205.17c2.6-4.83-8.69-9.07-11.13-3C336.45,205.91,346.47,210,349.07,205.17Z"/><path d="M306.4,233.29l-.22.51-.18.45c-.11.3-.21.6-.34.89a17.64,17.64,0,0,1-.81,1.7,12.54,12.54,0,0,1-4.8,5.22,9.5,9.5,0,0,1-3.24,1.1,11.84,11.84,0,0,1-3.51-.08,4.06,4.06,0,0,1-.83-.17c-.25-.08-.52-.13-.77-.22a5.82,5.82,0,0,1-1.37-.79,6.29,6.29,0,0,1-1.15-1.1,8,8,0,0,1-.78-1.41,7.54,7.54,0,0,1-.49-1.57,7.76,7.76,0,0,1-.06-1.67,6.43,6.43,0,0,1,1-3.12c.08-.12.14-.24.22-.35l.29-.31a5.48,5.48,0,0,1,.58-.6,6.6,6.6,0,0,1,1.45-.92,4.57,4.57,0,0,1,.81-.37l.87-.24c.14,0,.29-.09.44-.12l.43-.06.44-.05h.43a3.75,3.75,0,0,1,1.63.38,4.37,4.37,0,0,1,1.29,1.18,8.15,8.15,0,0,1,1.21,3.65,7.58,7.58,0,0,0-.48-4,4.46,4.46,0,0,0-3.48-2.62l-.56-.09h-1.11c-.18,0-.36.05-.54.07l-1.08.17a7.12,7.12,0,0,0-1.06.32,7.89,7.89,0,0,0-3.67,2.62,8.15,8.15,0,0,0-1.75,4.23,9.1,9.1,0,0,0,.52,4.56,9.5,9.5,0,0,0,1.1,2.09,9,9,0,0,0,1.68,1.69,8.68,8.68,0,0,0,2,1.22c.37.15.76.24,1.13.35a5,5,0,0,0,1.12.25,14.87,14.87,0,0,0,4.42,0,11.57,11.57,0,0,0,4.23-1.56,14.14,14.14,0,0,0,5.46-6.65c.28-.65.53-1.31.74-2,.12-.33.19-.67.29-1l.13-.49.13-.42a7.2,7.2,0,0,1,1.76-3.07,13,13,0,0,1,6.78-3.45A12,12,0,0,0,309,229.8,8.83,8.83,0,0,0,306.4,233.29Z"/><path d="M374.79,222.28a7.94,7.94,0,0,0-4.32-2,7.38,7.38,0,0,0-4.54,1,5.68,5.68,0,0,0-2.91,3.47,5.52,5.52,0,0,0,.9,4.19,5.48,5.48,0,0,1-.1-3.94,4.71,4.71,0,0,1,2.75-2.4,5.74,5.74,0,0,1,6.6,1.39,7.51,7.51,0,0,1,1.9,6.58A9.4,9.4,0,0,1,371,236.3a10.37,10.37,0,0,1-7,1.78,10.64,10.64,0,0,1-3.52-1,10.28,10.28,0,0,1-2.92-2.26,9.11,9.11,0,0,1-1.15-1.51c-.35-.53-.58-1.14-.9-1.7a12.65,12.65,0,0,0-2.46-3.77,8.5,8.5,0,0,0-8.12-2.23,8.44,8.44,0,0,1,7,3.2,11.3,11.3,0,0,1,1.71,3.46,13.29,13.29,0,0,0,2.09,4,11.25,11.25,0,0,0,3.47,3.07,12.52,12.52,0,0,0,13.41-.57,12.14,12.14,0,0,0,5.17-7.74A9.81,9.81,0,0,0,374.79,222.28Z"/><path d="M333.27,240l-.24.11-.64-13.83a.51.51,0,0,1,0-.13c11-2,28.67-17.65,22.64-26.52-6.31-9.28-44.18.65-46,8.91-1.42,6.37,10,17.47,20.4,17.83v0l.7,15.05c-.38.19-.76.37-1.14.58a21.54,21.54,0,0,0-4,2.85,21.5,21.5,0,0,0,4.87-.66c.54-.13,1.07-.29,1.6-.45l.21,0h.07a1.49,1.49,0,0,0,.94-.4c.58-.2,1.16-.4,1.73-.62a34.06,34.06,0,0,0,4.32-2,21.08,21.08,0,0,0,4-2.85,21.5,21.5,0,0,0-4.87.66A35.42,35.42,0,0,0,333.27,240Zm4.67-37.77c2.44-6.1,13.73-1.86,11.13,3S336.45,205.91,337.94,202.2Z"/>    </g></svg>