<!--  ~ Copyright (C) 2018 Baidu, Inc. All Rights Reserved.  --><svg viewBox="0 0 640 480" xmlns="http://www.w3.org/2000/svg">    <g id="back-ground-cl">        <rect fill="none" width="640" height="480" />        <ellipse opacity="0.1" cx="331.93" cy="418.82" rx="168.39" ry="32.01"/>    </g>    <g id="body">        <defs>            <clipPath id="outline">                <path fill="none"  d="M257.87,128.21l.35-.12c2.92-3.66,6-7.21,9.15-10.61a118.21,118.21,0,0,1,14.79-13.43c-.08-.39-.17-.75-.25-1-1.46-5.37-6.24-8.59-11.15-10.57-7.17-2.9-15-3.63-22.21-6.5a28.11,28.11,0,0,1-7.83-4.49c-.95-.81-1.74-1.73-2.62-2.6a13.89,13.89,0,0,0-2.26-2.07,7.21,7.21,0,0,0-5.45,6c-2.73,8.82,1.08,20.06,4.85,28.19,3.54,7.63,9,12.45,16.83,15.43C253.53,126.91,256.36,128.5,257.87,128.21Z"/><path fill="none"  d="M413,128.8c14.57-10,20.21-32.54,21.46-49.56.2-2.76.82-8.24-1.57-10.18-3.22-2.61-6.26,3.45-7.76,5.36A28.9,28.9,0,0,1,409.27,84.8c-6.5,1.53-12.78,1.84-18.48,5.66-3.77,2.52-7.87,6-10.39,10.2A132,132,0,0,1,413,128.8Z"/><path fill="none"  d="M467.07,243.41c-8.65-24.15-19.37-47.49-30.8-70.44-9.43-18.92-19.18-36.8-34.42-51.76C388,107.6,371,96.62,352.05,91.77A77.35,77.35,0,0,0,293.33,100c-20,11.78-34.51,30.8-46.8,50.08a377.56,377.56,0,0,0-52.42,133.52c-1.64,9-3,18.11-3.91,27.25-2.95,30.42-1.69,70.59,28.42,87.67,2.13,1.21,13,3.79,8.39,7.39-2.4,1.85-14.49,3-13.86,6.68.69,4.07,12.39,4.42,15.14,4.64a154.25,154.25,0,0,0,17.6.24c.53,0,1.45,0,2.41,0,.15-1.74.14-3.58.16-5.43s0-3.86.07-5.79c.06-3.85.17-7.68.19-11.51a150.53,150.53,0,0,0-1.33-22.87,56.23,56.23,0,0,0-2.68-11.09,30.74,30.74,0,0,0-2.47-5.14,18.3,18.3,0,0,0-3.62-4.42,22.73,22.73,0,0,1,6.82,9.26,57.07,57.07,0,0,1,3.39,11.14,134.87,134.87,0,0,1,2.22,23.1c.11,3.86.11,7.72.1,11.56,0,1.92,0,3.83,0,5.75s.08,3.86-.07,5.9a13.94,13.94,0,0,1-.56,3.13l-.13.39c0,.14-.12.3-.18.45a4.64,4.64,0,0,1-.47.85,6.81,6.81,0,0,1-1.25,1.36,22.42,22.42,0,0,1-5.47,2.84c-1.7.7-3.31,1.6-3.6,2.59a1.94,1.94,0,0,0-.1.85,4.53,4.53,0,0,0,.06.5l.14.48a4.69,4.69,0,0,0,1.25,1.77c.12.11.27.22.4.33a5.55,5.55,0,0,1,.24-3.09,6.48,6.48,0,0,1,2.78-3.36,8.4,8.4,0,0,1,2-.78,12.23,12.23,0,0,1,1.87-.39,13.23,13.23,0,0,1,3.88,0,13.58,13.58,0,0,1-3.13,2.28c-1.12.61-2.21,1.06-3.05,1.5a9.26,9.26,0,0,0-2.27,1.93,12.91,12.91,0,0,0-1.91,3h0l.47-.39a14.81,14.81,0,0,0,3.2,1.55,19.2,19.2,0,0,0,2.59.75,22.1,22.1,0,0,0,2.68.41c.46,0,.92.06,1.39.09a2.77,2.77,0,0,1-.43-.9,3.62,3.62,0,0,1,.15-2.18,7.13,7.13,0,0,1,2.48-3,9.79,9.79,0,0,1,3.23-1.61,7.41,7.41,0,0,1,3.66-.16,29.47,29.47,0,0,1-2.61,2.27c-.84.66-1.66,1.29-2.49,1.9a22.09,22.09,0,0,0-2.22,1.76,3.27,3.27,0,0,0-.74,1,2.59,2.59,0,0,0-.2,1.56l.54-.57a48.17,48.17,0,0,0,8.4-.42,36,36,0,0,0,5.41-1.12,14.64,14.64,0,0,0,4.66-2.47,20.39,20.39,0,0,0,3.79-3.86,26.1,26.1,0,0,0,2.86-4.7c.19-.42.39-.84.53-1.25a11.29,11.29,0,0,0,.42-1.28c.27-.88.49-1.81.71-2.73l1.23-5.61c.81-3.76,1.61-7.54,2.58-11.28a115.35,115.35,0,0,1,3.46-11.07,49.24,49.24,0,0,1,5.15-10.35c-3.7,6.77-5.63,14.26-7.18,21.75-.78,3.71-1.42,7.45-2.06,11.2a314,314,0,0,0,33.1,5.43c21.48,2.28,43.63,2.35,64.74-2.68a86.22,86.22,0,0,0,8.66-2.58c0-.15-.06-.3-.08-.45-.62-3.71-.81-7.39-1.25-11-.2-1.8-.5-3.61-.78-5.43s-.56-3.63-.93-5.4a31.77,31.77,0,0,0-1.72-5.18c-.65-1.73-1.25-3.47-1.84-5.21.73,1.69,1.47,3.37,2.26,5a32.69,32.69,0,0,1,2.07,5.16c.49,1.8.88,3.6,1.28,5.39s.8,3.59,1.12,5.43c.62,3.66,1,7.33,1.72,10.85a32,32,0,0,0,1.5,5.11,27.37,27.37,0,0,0,2.44,4.68,20.21,20.21,0,0,0,7.48,7,13.33,13.33,0,0,0,2.34.91c.8.25,1.7.44,2.56.62a45,45,0,0,0,5.3.71,51.54,51.54,0,0,0,5.7.11l.54.57a2.5,2.5,0,0,0-.2-1.56,3.44,3.44,0,0,0-.74-1,23.66,23.66,0,0,0-2.22-1.75c-.83-.61-1.65-1.24-2.49-1.9a28.26,28.26,0,0,1-2.6-2.28,7.37,7.37,0,0,1,3.65.16,10.06,10.06,0,0,1,3.24,1.62,7.13,7.13,0,0,1,2.47,3,3.51,3.51,0,0,1,.15,2.17,3,3,0,0,1-.43.92c1.19-.08,2.38-.2,3.53-.39a20.19,20.19,0,0,0,4.86-1.58,13.17,13.17,0,0,0,1.48-.83l.46.38a12.87,12.87,0,0,0-1.91-3,9.43,9.43,0,0,0-2.27-1.92c-.84-.44-1.93-.89-3-1.5a13.47,13.47,0,0,1-3.14-2.29,13.57,13.57,0,0,1,3.88,0,12.23,12.23,0,0,1,1.87.39,8.36,8.36,0,0,1,2,.77,6.54,6.54,0,0,1,2.78,3.37,5.39,5.39,0,0,1,.23,3.12,6.14,6.14,0,0,0,1.3-1.42,3.72,3.72,0,0,0,.57-1.85,2,2,0,0,0-.11-.84,1.94,1.94,0,0,0-.41-.72c-.78-.94-2.46-1.64-4.13-2.28a21.07,21.07,0,0,1-5.31-2.59,7.85,7.85,0,0,1-1.24-1.21,5,5,0,0,1-.88-1.72,10.15,10.15,0,0,1-.27-1.57c-.06-.51-.09-1-.1-1.48a111.51,111.51,0,0,1,.44-11.18c.28-3.68.68-7.35,1.13-11,.89-7.32,2-14.61,3.48-21.84.76-3.61,1.6-7.21,2.61-10.76.51-1.78,1.07-3.54,1.74-5.26a23,23,0,0,1,1.17-2.52,7.34,7.34,0,0,1,1.66-2.2,7.31,7.31,0,0,0-1.46,2.3,21.35,21.35,0,0,0-.94,2.57c-.56,1.74-1,3.52-1.4,5.31-.79,3.57-1.4,7.19-1.94,10.81-1.1,7.25-1.92,14.54-2.6,21.84q-.5,5.47-.83,10.95c-.19,3.41-.36,6.86-.25,10.19,5.42.86,11.33.44,16.69.28a155.32,155.32,0,0,0,19.15-1.45c2.36-.37,3.94,0,2.57-2.3-1.6-2.7-4-4-6.92-5-2.41-.82-9.31-1-10.72-3.45-.76-1.34.09-2.05,1-2.94,1.36-1.35,4-2.2,5.61-3.24q3-1.89,5.8-4.05A69.49,69.49,0,0,0,475.15,368c9-16.71,10.94-36.3,9.17-54.94C482.07,289.36,475.07,265.76,467.07,243.41Z"/><path fill="none"  d="M160.08,333.14c-3.58-5.91-3.3-13.06-.58-19.25a13.75,13.75,0,0,1,6-6.85c2.59-1.37,4.5-.84,7.21-.85,2.4,0,5.77-.62,4.77-3.68a7.15,7.15,0,0,0-1.09-1.75,7.74,7.74,0,0,0-4.48-3.35c-4-1.17-8.87-.45-12.86.55-16.25,4.07-24.7,20.78-26.8,36.27C129.57,354,149.88,369.48,167,373.64a61.07,61.07,0,0,0,26.46.37,90.51,90.51,0,0,1-6.9-26.51C176,346.13,165.44,342,160.08,333.14Z"/><path d="M480.28,275.91c-6.48-25.07-15.82-49.32-26.42-72.92-5.4-12-11.13-23.86-17.05-35.62-5.05-10.06-10.06-20.08-16.62-29.27q-2.58-3.61-5.39-7.07C426.91,122.46,433.32,105.88,436,91c1-5.53,2.22-11.83,1.51-17.44-.4-3.24-1.72-7.74-5.52-8-6.32-.37-8.65,7-12.66,10.48C412.63,81.8,405.9,82,397.78,84a34.07,34.07,0,0,0-20,15.15c-.5-.28-1-.58-1.49-.85-16.44-9-35.32-13.85-54.08-11.43C308.51,88.62,296,94.19,285,102c-.14-.48-.29-.93-.45-1.34-2.43-6.41-8.71-9.92-14.9-12C261.88,86,253.18,85.39,246,81.26c-4-2.33-9-11-14.34-6.88-5.86,4.54-6,14.46-4.72,21,1.47,7.52,4,15.73,8.28,22.17A29.85,29.85,0,0,0,250.1,129a34.52,34.52,0,0,0,5.82,2.06c-11.12,14.47-20.4,30.56-28.69,46.61a379.41,379.41,0,0,0-27.52,69.12q-5.13,17.82-8.5,36.07c-3.45,19-6.77,40.76-5,61.39-13.53-2.26-28.79-9.5-25.4-24.86.72-3.21,2-6.56,4.64-8.65,4.41-3.5,8.54.65,12.92-1.45s2.51-7.49.27-10.52c-7.91-10.73-27.31-3-35,4.3-9.48,8.95-16.45,25.8-14.33,38.88,2.63,16.28,18,28.64,32.89,33.48a62.47,62.47,0,0,0,32.55,1.4c1,2.08,2.16,4.12,3.4,6.1a53,53,0,0,0,21.65,19.67c.46.23,2,1.13,3.24,1.71l-.3.12c-1.79.63-3.6,1.17-5.38,1.82-3.43,1.25-9.09,3.22-6.82,8,1.88,3.92,8,4.81,11.71,5.39a117.94,117.94,0,0,0,20,1c1.45,0,3.44.1,5.43,0a3.14,3.14,0,0,1-.29.54,3.81,3.81,0,0,1-.71.75,20.38,20.38,0,0,1-4.77,2.37,16.94,16.94,0,0,0-2.81,1.43,5.83,5.83,0,0,0-2.43,2.87,6.55,6.55,0,0,0,2.08,6.77,12.16,12.16,0,0,0,2.66,1.88,18.83,18.83,0,0,0,2.85,1.25,23.66,23.66,0,0,0,3,.83,27.57,27.57,0,0,0,3,.45,49,49,0,0,0,11.86-.35,37.6,37.6,0,0,0,5.85-1.33,17.47,17.47,0,0,0,5.43-3,25.15,25.15,0,0,0,7.16-9.66,18.24,18.24,0,0,0,1-2.89c.26-1,.46-1.92.66-2.88s.37-1.91.54-2.86c22.3,4.82,45.24,7.67,68.06,6.76a160.1,160.1,0,0,0,32.55-4.43c2.39-.6,4.77-1.27,7.12-2a28.47,28.47,0,0,0,3.1,7.11,21.81,21.81,0,0,0,8.26,8.08,15.17,15.17,0,0,0,2.76,1.15c1,.31,1.85.51,2.78.72a48.77,48.77,0,0,0,5.61.87,45.84,45.84,0,0,0,11.39-.31A22.85,22.85,0,0,0,430,433a14.79,14.79,0,0,0,2.63-1.56,9.05,9.05,0,0,0,2.25-2.39,6.76,6.76,0,0,0,1-3.36,5.14,5.14,0,0,0-1.23-3.53,8.16,8.16,0,0,0-2.67-2,27.2,27.2,0,0,0-2.68-1.14,19.28,19.28,0,0,1-4.6-2.14,4.89,4.89,0,0,1-.73-.7,1.86,1.86,0,0,1-.38-.72l0-.12.84.08a142.39,142.39,0,0,0,20.86,0c5.56-.29,11.91-.22,17.3-1.84,3.77-1.13,2.9-4.87.85-7.65-3.27-4.43-9.45-5.46-14.46-6.64a4,4,0,0,1-.42-.13c.93-.57,1.95-1.32,2.33-1.55a77,77,0,0,0,11.85-8.78c14-12.68,21.84-30.36,24.29-48.89C489.8,318.42,485.65,296.73,480.28,275.91,390.79,90.46c5.7-3.82,12-4.13,18.48-5.66a28.9,28.9,0,0,0,15.82-10.38c1.5-1.91,4.54-8,7.76-5.36,2.39,1.94,1.77,7.42,1.57,10.18-1.25,17-6.89,39.6-21.46,49.56a132,132,0,0,0-32.56-28.14C382.92,96.49,387,93,390.79,90.46,-138.72,35.9c-7.85-3-13.29-7.8-16.83-15.43-3.77-8.13-7.58-19.37-4.85-28.19a7.21,7.21,0,0,1,5.45-6,13.89,13.89,0,0,1,2.26,2.07c.88.87,1.67,1.79,2.62,2.6a28.11,28.11,0,0,0,7.83,4.49c7.18,2.87,15,3.6,22.21,6.5,4.91,2,9.69,5.2,11.15,10.57.08.3.17.66.25,1a118.21,118.21,0,0,0-14.79,13.43c-3.19,3.4-6.23,7-9.15,10.61l-.35.12C256.36,128.5,253.53,126.91,252.07,126.36,167,373.64c-17.11-4.16-37.42-19.67-34.74-39.41,2.1-15.49,10.55-32.2,26.8-36.27,4-1,8.83-1.72,12.86-.55a7.74,7.74,0,0,1,4.48,3.35,7.15,7.15,0,0,1,1.09,1.75c1,3.06-2.37,3.67-4.77,3.68-2.71,0-4.62-.52-7.21.85a13.75,13.75,0,0,0-6,6.85c-2.72,6.19-3,13.34.58,19.25,5.36,8.84,15.89,13,26.47,14.36a90.51,90.51,0,0,0,6.9,26.51A61.07,61.07,0,0,1,167,373.64,475.15,368a69.49,69.49,0,0,1-18.79,22.19q-2.81,2.16-5.8,4.05c-1.64,1-4.25,1.89-5.61,3.24-.88.89-1.73,1.6-1,2.94,1.41,2.49,8.31,2.63,10.72,3.45,2.94,1,5.32,2.32,6.92,5,1.37,2.3-.21,1.93-2.57,2.3a155.32,155.32,0,0,1-19.15,1.45c-5.36.16-11.27.58-16.69-.28-.11-3.33.06-6.78.25-10.19q.33-5.47.83-10.95c.68-7.3,1.5-14.59,2.6-21.84.54-3.62,1.15-7.24,1.94-10.81.39-1.79.84-3.57,1.4-5.31a21.35,21.35,0,0,1,.94-2.57,7.31,7.31,0,0,1,1.46-2.3,7.34,7.34,0,0,0-1.66,2.2,23,23,0,0,0-1.17,2.52c-.67,1.72-1.23,3.48-1.74,5.26-1,3.55-1.85,7.15-2.61,10.76C424,376.38,422.86,383.67,422,391c-.45,3.66-.85,7.33-1.13,11a111.51,111.51,0,0,0-.44,11.18c0,.48,0,1,.1,1.48a10.15,10.15,0,0,0,.27,1.57,5,5,0,0,0,.88,1.72,7.85,7.85,0,0,0,1.24,1.21,21.07,21.07,0,0,0,5.31,2.59c1.67.64,3.35,1.34,4.13,2.28a1.94,1.94,0,0,1,.41.72,2,2,0,0,1,.11.84,3.72,3.72,0,0,1-.57,1.85,6.14,6.14,0,0,1-1.3,1.42,5.39,5.39,0,0,0-.23-3.12,6.54,6.54,0,0,0-2.78-3.37,8.36,8.36,0,0,0-2-.77,12.23,12.23,0,0,0-1.87-.39,13.57,13.57,0,0,0-3.88,0,13.47,13.47,0,0,0,3.14,2.29c1.11.61,2.2,1.06,3,1.5a9.43,9.43,0,0,1,2.27,1.92,12.87,12.87,0,0,1,1.91,3l-.46-.38a13.17,13.17,0,0,1-1.48.83,20.19,20.19,0,0,1-4.86,1.58c-1.15.19-2.34.31-3.53.39a3,3,0,0,0,.43-.92,3.51,3.51,0,0,0-.15-2.17,7.13,7.13,0,0,0-2.47-3,10.06,10.06,0,0,0-3.24-1.62,7.37,7.37,0,0,0-3.65-.16,28.26,28.26,0,0,0,2.6,2.28c.84.66,1.66,1.29,2.49,1.9a23.66,23.66,0,0,1,2.22,1.75,3.44,3.44,0,0,1,.74,1,2.5,2.5,0,0,1,.2,1.56l-.54-.57a51.54,51.54,0,0,1-5.7-.11,45,45,0,0,1-5.3-.71c-.86-.18-1.76-.37-2.56-.62A13.33,13.33,0,0,1,403,430a20.21,20.21,0,0,1-7.48-7,27.37,27.37,0,0,1-2.44-4.68,32,32,0,0,1-1.5-5.11c-.76-3.52-1.1-7.19-1.72-10.85-.32-1.84-.74-3.63-1.12-5.43s-.79-3.59-1.28-5.39a32.69,32.69,0,0,0-2.07-5.16c-.79-1.66-1.53-3.34-2.26-5,.59,1.74,1.19,3.48,1.84,5.21a31.77,31.77,0,0,1,1.72,5.18c.37,1.77.64,3.59.93,5.4s.58,3.63.78,5.43c.44,3.62.63,7.3,1.25,11,0,.15,0,.3.08.45a86.22,86.22,0,0,1-8.66,2.58c-21.11,5-43.26,5-64.74,2.68a314,314,0,0,1-33.1-5.43c.64-3.75,1.28-7.49,2.06-11.2,1.55-7.49,3.48-15,7.18-21.75a49.24,49.24,0,0,0-5.15,10.35,115.35,115.35,0,0,0-3.46,11.07c-1,3.74-1.77,7.52-2.58,11.28l-1.23,5.61c-.22.92-.44,1.85-.71,2.73a11.29,11.29,0,0,1-.42,1.28c-.14.41-.34.83-.53,1.25a26.1,26.1,0,0,1-2.86,4.7,20.39,20.39,0,0,1-3.79,3.86,14.64,14.64,0,0,1-4.66,2.47,36,36,0,0,1-5.41,1.12,48.17,48.17,0,0,1-8.4.42l-.54.57a2.59,2.59,0,0,1,.2-1.56,3.27,3.27,0,0,1,.74-1,22.09,22.09,0,0,1,2.22-1.76c.83-.61,1.65-1.24,2.49-1.9a29.47,29.47,0,0,0,2.61-2.27,7.41,7.41,0,0,0-3.66.16,9.79,9.79,0,0,0-3.23,1.61,7.13,7.13,0,0,0-2.48,3,3.62,3.62,0,0,0-.15,2.18,2.77,2.77,0,0,0,.43.9c-.47,0-.93,0-1.39-.09a22.1,22.1,0,0,1-2.68-.41,19.2,19.2,0,0,1-2.59-.75,14.81,14.81,0,0,1-3.2-1.55l-.47.39h0a12.91,12.91,0,0,1,1.91-3,9.26,9.26,0,0,1,2.27-1.93c.84-.44,1.93-.89,3.05-1.5a13.58,13.58,0,0,0,3.13-2.28,13.23,13.23,0,0,0-3.88,0,12.23,12.23,0,0,0-1.87.39,8.4,8.4,0,0,0-2,.78,6.48,6.48,0,0,0-2.78,3.36,5.55,5.55,0,0,0-.24,3.09c-.13-.11-.28-.22-.4-.33a4.69,4.69,0,0,1-1.25-1.77l-.14-.48a4.53,4.53,0,0,1-.06-.5,1.94,1.94,0,0,1,.1-.85c.29-1,1.9-1.89,3.6-2.59a22.42,22.42,0,0,0,5.47-2.84,6.81,6.81,0,0,0,1.25-1.36,4.64,4.64,0,0,0,.47-.85c.06-.15.13-.31.18-.45l.13-.39a13.94,13.94,0,0,0,.56-3.13c.15-2,.09-4,.07-5.9s0-3.83,0-5.75c0-3.84,0-7.7-.1-11.56a134.87,134.87,0,0,0-2.22-23.1,57.07,57.07,0,0,0-3.39-11.14,22.73,22.73,0,0,0-6.82-9.26,18.3,18.3,0,0,1,3.62,4.42,30.74,30.74,0,0,1,2.47,5.14,56.23,56.23,0,0,1,2.68,11.09,150.53,150.53,0,0,1,1.33,22.87c0,3.83-.13,7.66-.19,11.51-.05,1.93-.06,3.87-.07,5.79s0,3.69-.16,5.43c-1,0-1.88,0-2.41,0a154.25,154.25,0,0,1-17.6-.24c-2.75-.22-14.45-.57-15.14-4.64-.63-3.64,11.46-4.83,13.86-6.68,4.66-3.6-6.26-6.18-8.39-7.39-30.11-17.08-31.37-57.25-28.42-87.67.88-9.14,2.27-18.22,3.91-27.25a377.56,377.56,0,0,1,52.42-133.52c12.29-19.28,26.79-38.3,46.8-50.08a77.35,77.35,0,0,1,58.72-8.26C371,96.62,388,107.6,401.85,121.21c15.24,15,25,32.84,34.42,51.76,11.43,22.95,22.15,46.29,30.8,70.44,8,22.35,15,46,17.25,69.67C486.09,331.72,484.11,351.31,475.15,368Z"/>            </clipPath>        </defs>        <g clip-path="url(#outline)">            <rect fill="#B4D2F4" width="640" height="480" />        </g>    </g>    <g id="pattern">        <g clip-path="url(#outline)">            <path fill="#DDDDDD" opacity="0"  d="M215,219.54s-7.45,9.69-3.88,19.35C211.13,238.89,218.45,230.11,215,219.54Z"/><path fill="#DDDDDD" opacity="0"  d="M208.11,258.06S198,271,202.64,284C202.64,284,212.6,272.3,208.11,258.06Z"/><path fill="#DDDDDD" opacity="0"  d="M228.37,254.42s-8.34,9.82-5.08,20.19C223.29,274.61,231.46,265.73,228.37,254.42Z"/><path fill="#DDDDDD" opacity="0"  d="M261.15,201.79s-9.82,13.15-4.84,26.08C256.31,227.87,266,215.92,261.15,201.79Z"/><path fill="#DDDDDD" opacity="0"  d="M218.79,175.19s-6.65,7.75-4.11,16C214.68,191.16,221.19,184.16,218.79,175.19Z"/><path fill="#DDDDDD" opacity="0"  d="M272.75,265.94s-6.89,12.06-1.38,22.4C271.37,288.34,278.26,277.31,272.75,265.94Z"/><path fill="#DDDDDD" opacity="0"  d="M255.88,287.12s-8.15,14.25-1.63,26.47C254.25,313.59,262.39,300.56,255.88,287.12Z"/><path fill="#DDDDDD" opacity="0"  d="M313.3,306.26s-8.14,14.26-1.63,26.48C311.67,332.74,319.82,319.7,313.3,306.26Z"/><path fill="#DDDDDD" opacity="0"  d="M299.05,224s-8.15,14.26-1.63,26.47C297.42,250.46,305.56,237.43,299.05,224Z"/><path fill="#DDDDDD" opacity="0"  d="M353,252s-5.58,15.45,2.94,26.36C355.91,278.37,361.69,264.14,353,252Z"/><path fill="#DDDDDD" opacity="0"  d="M330,261.87s-8.14,14.25-1.63,26.47C328.37,288.34,336.52,275.31,330,261.87Z"/><path fill="#DDDDDD" opacity="0"  d="M367.51,204.23s-4.46,15.8,4.81,26.08C372.32,230.31,377.08,215.7,367.51,204.23Z"/><path fill="#DDDDDD" opacity="0"  d="M380.34,255.86s-5.2,15.57,3.59,26.28C383.93,282.14,389.36,267.76,380.34,255.86Z"/><path fill="#DDDDDD" opacity="0"  d="M350.71,311s-3.51,11.95,3.45,19.83C354.16,330.84,357.88,319.79,350.71,311Z"/><path fill="#DDDDDD" opacity="0"  d="M410.39,256.28s-5.09,15.61,3.77,26.25C414.16,282.53,419.49,268.12,410.39,256.28Z"/><path fill="#DDDDDD" opacity="0"  d="M447.22,257.28s-3.82,16,5.86,25.87C453.08,283.15,457.24,268.36,447.22,257.28Z"/><path fill="#DDDDDD" opacity="0"  d="M426.9,165.55s-4.38,15.83,5,26.06C431.86,191.61,436.53,177,426.9,165.55Z"/><path fill="#DDDDDD" opacity="0"  d="M402.79,206.68s-3.18,12.48,4.3,20.37C407.09,227.05,410.53,215.49,402.79,206.68Z"/><path fill="#DDDDDD" opacity="0"  d="M436.39,217.89s-2.63,9.65,3.08,15.87C439.47,233.76,442.29,224.83,436.39,217.89Z"/><path fill="#DDDDDD" opacity="0"  d="M460,234.58s-2.65,9.65,3,15.88C463.07,250.46,465.91,241.54,460,234.58Z"/><path fill="#DDDDDD" opacity="0"  d="M332.23,205.55s-6,10.43-1.2,19.36C331,224.91,337,215.38,332.23,205.55Z"/>            <g opacity="0.6" ><path fill="#DDDDDD"  d="M285.16,418.84c2.41-25.61,23.87-48.92,47.26-49.49,24.86-.61,52.32,18.62,54.82,48.11.13,1.49,1.2.46-.05,1.63-1.4,1.32-6.65,1.94-9.64,2.8-14.1,4.06-27.6,4.48-43.78,4.36-16.48-.12-33.16-4.21-48.13-7.41"/></g>        </g>    </g>    <g id="mask">        <g opacity="0.2" ><path d="M428.87,75.85c-5.08,5.13-8.25,12.05-13.52,17-5.08,4.73-11.69,7.21-17.65,10.67a34.49,34.49,0,0,0-8.12,6.36,52.37,52.37,0,0,0,4.34,3.32,5.37,5.37,0,0,1,.45.35l1,.54a22.89,22.89,0,0,1,5.15,4.15,23.92,23.92,0,0,1,2.74,3.78,84.93,84.93,0,0,1,6.21,6.09,51.57,51.57,0,0,0,17.82-25.23C429.83,94.91,434.35,83.42,428.87,75.85Z"/></g><g opacity="0.2" ><path d="M262.45,125.8c2.7-3,5-6.39,7.7-9.43,1.83-2,4.1-3.57,5.89-5.54-2-4.16-4.39-8.56-6.59-10.59-3.65-3.37-16.41-7.59-21-9.72a60,60,0,0,1-7.92-4.46c-2-1.32-4-4-6.43-4.66a1.93,1.93,0,0,0-2,1.08c-2.08,4.44,1.15,12.7,2.25,15.64,3.47,9.27,9.39,14.74,17.5,20.74a.26.26,0,0,1-.05.09,4.58,4.58,0,0,1,.82.94,4.07,4.07,0,0,1,1,.86c.7.28,5.28,3.87,8.2,6A5.9,5.9,0,0,1,262.45,125.8Z"/></g><g opacity="0.1" ><path d="M484.43,334.75c.23,1.7-3.51,6.76-4.43,8.49-1.82,3.4-3.69,6.78-5.68,10.08a107.84,107.84,0,0,1-13.23,18.12A62.44,62.44,0,0,1,450,380.9a60.12,60.12,0,0,1-6.25,3.67,33.15,33.15,0,0,1-5.53,2.51c-4,1.15-6.15-2.21-7.32-5.52A39.5,39.5,0,0,1,428.59,364a119.47,119.47,0,0,1,2.54-14.42l-1.94,4.49c-3.06,11.13-4.58,22.56-6,34a4.58,4.58,0,0,0,.26,2.19,3.36,3.36,0,0,0-.88.73c-2.06,2.52-.69,11.1-.81,14.3a.63.63,0,0,0,.09.45c.16.19.45.15.69.08A107.32,107.32,0,0,0,447,396.42c9.48-5.3,17.16-11.14,23.54-19.77,3.19-4.31,6.66-9.86,8.46-14.91C482.08,353,485.69,343.9,484.43,334.75Z"/></g><g opacity="0.1" ><path d="M267.14,141.25c10.77-16.34,17.61-34.19,32.59-46.79-23.63,13.12-38,28.59-53.16,54.08-14.44,24.28-29.76,53.17-39.76,79.22s-15,53.6-17.25,81.33c-1.43,17.32-2,39.51,3.93,58-12.1,2.84-24.41,2.34-35.38-4.43-32.09-19.82-16.24-53.36-16.24-53.36-5,6.27-7.45,8.94-9.87,24-2.23,13.87,8.42,27.21,19.58,34.28,13.85,8.78,29.58,10.18,44.75,6.87a52,52,0,0,0,7.95,12.63c10,11.56,21.38,19,39.1,21.26,2.29.29,4.62.6,7,.93-.18-3.14-.62-6.26-.51-9.43a5.58,5.58,0,0,1,.13-1c-17.1-5.77-32.33-19.18-39.76-35.48-4-8.82-6.12-18.92-6.18-30.43-.12-27.61,3.21-61,10.78-87.24C225.7,208,245.4,174.22,267.14,141.25Z"/></g><g opacity="0.1" ><path d="M389.27,402c-5.29,1.24-9.82,4.43-15.12,5.66a159,159,0,0,1-19.41,2.95c-22,2.28-44.35.82-66.16-2.85-1.83-5.45-1.1-11.68-.07-17.2a37.94,37.94,0,0,1,1.27-4.59A39.81,39.81,0,0,0,288,390c-.76,2.25-1.08,4.63-2.41,6.66l-.1.14c-.31,5-1.31,10.55-3.93,14.6a17.9,17.9,0,0,0,.17,2.75,5.94,5.94,0,0,1,.05.72c1.54.34,3.06.69,4.53,1,14.9,5.54,32.72,6.73,47.93,6.86,15.65.12,34.69-1.09,45-4.91,2.87-1.06,9.12-1.62,10.48-3.05,1.2-1.27-.65-1.69-.77-3.3C388.25,402.21,389.26,402,389.27,402Z"/></g>        <g opacity="0.1" ><path fill="#fff"  d="M379.83,103.26c6.05,5.3,10.42,13.69,14.49,20.51,4.46,7.47,8.87,15,13.36,22.41,13,21.71,26.15,43.75,37,66.66a328.92,328.92,0,0,1,23.4,68.9c2.75,12.34,4.9,24.8,6.6,37.33,1.39,10.34,4.07,22.69-2.48,31.88,4.28-6,9.86-10.61,11.35-14.66,5.27-14.38.18-32.18-2.49-46.67-5.44-29.5-15.48-57.89-26.94-85.53-11.28-27.21-25.53-53.07-44.82-75.49C393.06,109.76,380.05,103.45,379.83,103.26Z"/></g>    </g>    <g id="outline">        <path fill="none"  d="M257.87,128.21l.35-.12c2.92-3.66,6-7.21,9.15-10.61a118.21,118.21,0,0,1,14.79-13.43c-.08-.39-.17-.75-.25-1-1.46-5.37-6.24-8.59-11.15-10.57-7.17-2.9-15-3.63-22.21-6.5a28.11,28.11,0,0,1-7.83-4.49c-.95-.81-1.74-1.73-2.62-2.6a13.89,13.89,0,0,0-2.26-2.07,7.21,7.21,0,0,0-5.45,6c-2.73,8.82,1.08,20.06,4.85,28.19,3.54,7.63,9,12.45,16.83,15.43C253.53,126.91,256.36,128.5,257.87,128.21Z"/><path fill="none"  d="M413,128.8c14.57-10,20.21-32.54,21.46-49.56.2-2.76.82-8.24-1.57-10.18-3.22-2.61-6.26,3.45-7.76,5.36A28.9,28.9,0,0,1,409.27,84.8c-6.5,1.53-12.78,1.84-18.48,5.66-3.77,2.52-7.87,6-10.39,10.2A132,132,0,0,1,413,128.8Z"/><path fill="none"  d="M467.07,243.41c-8.65-24.15-19.37-47.49-30.8-70.44-9.43-18.92-19.18-36.8-34.42-51.76C388,107.6,371,96.62,352.05,91.77A77.35,77.35,0,0,0,293.33,100c-20,11.78-34.51,30.8-46.8,50.08a377.56,377.56,0,0,0-52.42,133.52c-1.64,9-3,18.11-3.91,27.25-2.95,30.42-1.69,70.59,28.42,87.67,2.13,1.21,13,3.79,8.39,7.39-2.4,1.85-14.49,3-13.86,6.68.69,4.07,12.39,4.42,15.14,4.64a154.25,154.25,0,0,0,17.6.24c.53,0,1.45,0,2.41,0,.15-1.74.14-3.58.16-5.43s0-3.86.07-5.79c.06-3.85.17-7.68.19-11.51a150.53,150.53,0,0,0-1.33-22.87,56.23,56.23,0,0,0-2.68-11.09,30.74,30.74,0,0,0-2.47-5.14,18.3,18.3,0,0,0-3.62-4.42,22.73,22.73,0,0,1,6.82,9.26,57.07,57.07,0,0,1,3.39,11.14,134.87,134.87,0,0,1,2.22,23.1c.11,3.86.11,7.72.1,11.56,0,1.92,0,3.83,0,5.75s.08,3.86-.07,5.9a13.94,13.94,0,0,1-.56,3.13l-.13.39c0,.14-.12.3-.18.45a4.64,4.64,0,0,1-.47.85,6.81,6.81,0,0,1-1.25,1.36,22.42,22.42,0,0,1-5.47,2.84c-1.7.7-3.31,1.6-3.6,2.59a1.94,1.94,0,0,0-.1.85,4.53,4.53,0,0,0,.06.5l.14.48a4.69,4.69,0,0,0,1.25,1.77c.12.11.27.22.4.33a5.55,5.55,0,0,1,.24-3.09,6.48,6.48,0,0,1,2.78-3.36,8.4,8.4,0,0,1,2-.78,12.23,12.23,0,0,1,1.87-.39,13.23,13.23,0,0,1,3.88,0,13.58,13.58,0,0,1-3.13,2.28c-1.12.61-2.21,1.06-3.05,1.5a9.26,9.26,0,0,0-2.27,1.93,12.91,12.91,0,0,0-1.91,3h0l.47-.39a14.81,14.81,0,0,0,3.2,1.55,19.2,19.2,0,0,0,2.59.75,22.1,22.1,0,0,0,2.68.41c.46,0,.92.06,1.39.09a2.77,2.77,0,0,1-.43-.9,3.62,3.62,0,0,1,.15-2.18,7.13,7.13,0,0,1,2.48-3,9.79,9.79,0,0,1,3.23-1.61,7.41,7.41,0,0,1,3.66-.16,29.47,29.47,0,0,1-2.61,2.27c-.84.66-1.66,1.29-2.49,1.9a22.09,22.09,0,0,0-2.22,1.76,3.27,3.27,0,0,0-.74,1,2.59,2.59,0,0,0-.2,1.56l.54-.57a48.17,48.17,0,0,0,8.4-.42,36,36,0,0,0,5.41-1.12,14.64,14.64,0,0,0,4.66-2.47,20.39,20.39,0,0,0,3.79-3.86,26.1,26.1,0,0,0,2.86-4.7c.19-.42.39-.84.53-1.25a11.29,11.29,0,0,0,.42-1.28c.27-.88.49-1.81.71-2.73l1.23-5.61c.81-3.76,1.61-7.54,2.58-11.28a115.35,115.35,0,0,1,3.46-11.07,49.24,49.24,0,0,1,5.15-10.35c-3.7,6.77-5.63,14.26-7.18,21.75-.78,3.71-1.42,7.45-2.06,11.2a314,314,0,0,0,33.1,5.43c21.48,2.28,43.63,2.35,64.74-2.68a86.22,86.22,0,0,0,8.66-2.58c0-.15-.06-.3-.08-.45-.62-3.71-.81-7.39-1.25-11-.2-1.8-.5-3.61-.78-5.43s-.56-3.63-.93-5.4a31.77,31.77,0,0,0-1.72-5.18c-.65-1.73-1.25-3.47-1.84-5.21.73,1.69,1.47,3.37,2.26,5a32.69,32.69,0,0,1,2.07,5.16c.49,1.8.88,3.6,1.28,5.39s.8,3.59,1.12,5.43c.62,3.66,1,7.33,1.72,10.85a32,32,0,0,0,1.5,5.11,27.37,27.37,0,0,0,2.44,4.68,20.21,20.21,0,0,0,7.48,7,13.33,13.33,0,0,0,2.34.91c.8.25,1.7.44,2.56.62a45,45,0,0,0,5.3.71,51.54,51.54,0,0,0,5.7.11l.54.57a2.5,2.5,0,0,0-.2-1.56,3.44,3.44,0,0,0-.74-1,23.66,23.66,0,0,0-2.22-1.75c-.83-.61-1.65-1.24-2.49-1.9a28.26,28.26,0,0,1-2.6-2.28,7.37,7.37,0,0,1,3.65.16,10.06,10.06,0,0,1,3.24,1.62,7.13,7.13,0,0,1,2.47,3,3.51,3.51,0,0,1,.15,2.17,3,3,0,0,1-.43.92c1.19-.08,2.38-.2,3.53-.39a20.19,20.19,0,0,0,4.86-1.58,13.17,13.17,0,0,0,1.48-.83l.46.38a12.87,12.87,0,0,0-1.91-3,9.43,9.43,0,0,0-2.27-1.92c-.84-.44-1.93-.89-3-1.5a13.47,13.47,0,0,1-3.14-2.29,13.57,13.57,0,0,1,3.88,0,12.23,12.23,0,0,1,1.87.39,8.36,8.36,0,0,1,2,.77,6.54,6.54,0,0,1,2.78,3.37,5.39,5.39,0,0,1,.23,3.12,6.14,6.14,0,0,0,1.3-1.42,3.72,3.72,0,0,0,.57-1.85,2,2,0,0,0-.11-.84,1.94,1.94,0,0,0-.41-.72c-.78-.94-2.46-1.64-4.13-2.28a21.07,21.07,0,0,1-5.31-2.59,7.85,7.85,0,0,1-1.24-1.21,5,5,0,0,1-.88-1.72,10.15,10.15,0,0,1-.27-1.57c-.06-.51-.09-1-.1-1.48a111.51,111.51,0,0,1,.44-11.18c.28-3.68.68-7.35,1.13-11,.89-7.32,2-14.61,3.48-21.84.76-3.61,1.6-7.21,2.61-10.76.51-1.78,1.07-3.54,1.74-5.26a23,23,0,0,1,1.17-2.52,7.34,7.34,0,0,1,1.66-2.2,7.31,7.31,0,0,0-1.46,2.3,21.35,21.35,0,0,0-.94,2.57c-.56,1.74-1,3.52-1.4,5.31-.79,3.57-1.4,7.19-1.94,10.81-1.1,7.25-1.92,14.54-2.6,21.84q-.5,5.47-.83,10.95c-.19,3.41-.36,6.86-.25,10.19,5.42.86,11.33.44,16.69.28a155.32,155.32,0,0,0,19.15-1.45c2.36-.37,3.94,0,2.57-2.3-1.6-2.7-4-4-6.92-5-2.41-.82-9.31-1-10.72-3.45-.76-1.34.09-2.05,1-2.94,1.36-1.35,4-2.2,5.61-3.24q3-1.89,5.8-4.05A69.49,69.49,0,0,0,475.15,368c9-16.71,10.94-36.3,9.17-54.94C482.07,289.36,475.07,265.76,467.07,243.41Z"/><path fill="none"  d="M160.08,333.14c-3.58-5.91-3.3-13.06-.58-19.25a13.75,13.75,0,0,1,6-6.85c2.59-1.37,4.5-.84,7.21-.85,2.4,0,5.77-.62,4.77-3.68a7.15,7.15,0,0,0-1.09-1.75,7.74,7.74,0,0,0-4.48-3.35c-4-1.17-8.87-.45-12.86.55-16.25,4.07-24.7,20.78-26.8,36.27C129.57,354,149.88,369.48,167,373.64a61.07,61.07,0,0,0,26.46.37,90.51,90.51,0,0,1-6.9-26.51C176,346.13,165.44,342,160.08,333.14Z"/><path d="M480.28,275.91c-6.48-25.07-15.82-49.32-26.42-72.92-5.4-12-11.13-23.86-17.05-35.62-5.05-10.06-10.06-20.08-16.62-29.27q-2.58-3.61-5.39-7.07C426.91,122.46,433.32,105.88,436,91c1-5.53,2.22-11.83,1.51-17.44-.4-3.24-1.72-7.74-5.52-8-6.32-.37-8.65,7-12.66,10.48C412.63,81.8,405.9,82,397.78,84a34.07,34.07,0,0,0-20,15.15c-.5-.28-1-.58-1.49-.85-16.44-9-35.32-13.85-54.08-11.43C308.51,88.62,296,94.19,285,102c-.14-.48-.29-.93-.45-1.34-2.43-6.41-8.71-9.92-14.9-12C261.88,86,253.18,85.39,246,81.26c-4-2.33-9-11-14.34-6.88-5.86,4.54-6,14.46-4.72,21,1.47,7.52,4,15.73,8.28,22.17A29.85,29.85,0,0,0,250.1,129a34.52,34.52,0,0,0,5.82,2.06c-11.12,14.47-20.4,30.56-28.69,46.61a379.41,379.41,0,0,0-27.52,69.12q-5.13,17.82-8.5,36.07c-3.45,19-6.77,40.76-5,61.39-13.53-2.26-28.79-9.5-25.4-24.86.72-3.21,2-6.56,4.64-8.65,4.41-3.5,8.54.65,12.92-1.45s2.51-7.49.27-10.52c-7.91-10.73-27.31-3-35,4.3-9.48,8.95-16.45,25.8-14.33,38.88,2.63,16.28,18,28.64,32.89,33.48a62.47,62.47,0,0,0,32.55,1.4c1,2.08,2.16,4.12,3.4,6.1a53,53,0,0,0,21.65,19.67c.46.23,2,1.13,3.24,1.71l-.3.12c-1.79.63-3.6,1.17-5.38,1.82-3.43,1.25-9.09,3.22-6.82,8,1.88,3.92,8,4.81,11.71,5.39a117.94,117.94,0,0,0,20,1c1.45,0,3.44.1,5.43,0a3.14,3.14,0,0,1-.29.54,3.81,3.81,0,0,1-.71.75,20.38,20.38,0,0,1-4.77,2.37,16.94,16.94,0,0,0-2.81,1.43,5.83,5.83,0,0,0-2.43,2.87,6.55,6.55,0,0,0,2.08,6.77,12.16,12.16,0,0,0,2.66,1.88,18.83,18.83,0,0,0,2.85,1.25,23.66,23.66,0,0,0,3,.83,27.57,27.57,0,0,0,3,.45,49,49,0,0,0,11.86-.35,37.6,37.6,0,0,0,5.85-1.33,17.47,17.47,0,0,0,5.43-3,25.15,25.15,0,0,0,7.16-9.66,18.24,18.24,0,0,0,1-2.89c.26-1,.46-1.92.66-2.88s.37-1.91.54-2.86c22.3,4.82,45.24,7.67,68.06,6.76a160.1,160.1,0,0,0,32.55-4.43c2.39-.6,4.77-1.27,7.12-2a28.47,28.47,0,0,0,3.1,7.11,21.81,21.81,0,0,0,8.26,8.08,15.17,15.17,0,0,0,2.76,1.15c1,.31,1.85.51,2.78.72a48.77,48.77,0,0,0,5.61.87,45.84,45.84,0,0,0,11.39-.31A22.85,22.85,0,0,0,430,433a14.79,14.79,0,0,0,2.63-1.56,9.05,9.05,0,0,0,2.25-2.39,6.76,6.76,0,0,0,1-3.36,5.14,5.14,0,0,0-1.23-3.53,8.16,8.16,0,0,0-2.67-2,27.2,27.2,0,0,0-2.68-1.14,19.28,19.28,0,0,1-4.6-2.14,4.89,4.89,0,0,1-.73-.7,1.86,1.86,0,0,1-.38-.72l0-.12.84.08a142.39,142.39,0,0,0,20.86,0c5.56-.29,11.91-.22,17.3-1.84,3.77-1.13,2.9-4.87.85-7.65-3.27-4.43-9.45-5.46-14.46-6.64a4,4,0,0,1-.42-.13c.93-.57,1.95-1.32,2.33-1.55a77,77,0,0,0,11.85-8.78c14-12.68,21.84-30.36,24.29-48.89C489.8,318.42,485.65,296.73,480.28,275.91ZM390.79,90.46c5.7-3.82,12-4.13,18.48-5.66a28.9,28.9,0,0,0,15.82-10.38c1.5-1.91,4.54-8,7.76-5.36,2.39,1.94,1.77,7.42,1.57,10.18-1.25,17-6.89,39.6-21.46,49.56a132,132,0,0,0-32.56-28.14C382.92,96.49,387,93,390.79,90.46Zm-138.72,35.9c-7.85-3-13.29-7.8-16.83-15.43-3.77-8.13-7.58-19.37-4.85-28.19a7.21,7.21,0,0,1,5.45-6,13.89,13.89,0,0,1,2.26,2.07c.88.87,1.67,1.79,2.62,2.6a28.11,28.11,0,0,0,7.83,4.49c7.18,2.87,15,3.6,22.21,6.5,4.91,2,9.69,5.2,11.15,10.57.08.3.17.66.25,1a118.21,118.21,0,0,0-14.79,13.43c-3.19,3.4-6.23,7-9.15,10.61l-.35.12C256.36,128.5,253.53,126.91,252.07,126.36ZM167,373.64c-17.11-4.16-37.42-19.67-34.74-39.41,2.1-15.49,10.55-32.2,26.8-36.27,4-1,8.83-1.72,12.86-.55a7.74,7.74,0,0,1,4.48,3.35,7.15,7.15,0,0,1,1.09,1.75c1,3.06-2.37,3.67-4.77,3.68-2.71,0-4.62-.52-7.21.85a13.75,13.75,0,0,0-6,6.85c-2.72,6.19-3,13.34.58,19.25,5.36,8.84,15.89,13,26.47,14.36a90.51,90.51,0,0,0,6.9,26.51A61.07,61.07,0,0,1,167,373.64ZM475.15,368a69.49,69.49,0,0,1-18.79,22.19q-2.81,2.16-5.8,4.05c-1.64,1-4.25,1.89-5.61,3.24-.88.89-1.73,1.6-1,2.94,1.41,2.49,8.31,2.63,10.72,3.45,2.94,1,5.32,2.32,6.92,5,1.37,2.3-.21,1.93-2.57,2.3a155.32,155.32,0,0,1-19.15,1.45c-5.36.16-11.27.58-16.69-.28-.11-3.33.06-6.78.25-10.19q.33-5.47.83-10.95c.68-7.3,1.5-14.59,2.6-21.84.54-3.62,1.15-7.24,1.94-10.81.39-1.79.84-3.57,1.4-5.31a21.35,21.35,0,0,1,.94-2.57,7.31,7.31,0,0,1,1.46-2.3,7.34,7.34,0,0,0-1.66,2.2,23,23,0,0,0-1.17,2.52c-.67,1.72-1.23,3.48-1.74,5.26-1,3.55-1.85,7.15-2.61,10.76C424,376.38,422.86,383.67,422,391c-.45,3.66-.85,7.33-1.13,11a111.51,111.51,0,0,0-.44,11.18c0,.48,0,1,.1,1.48a10.15,10.15,0,0,0,.27,1.57,5,5,0,0,0,.88,1.72,7.85,7.85,0,0,0,1.24,1.21,21.07,21.07,0,0,0,5.31,2.59c1.67.64,3.35,1.34,4.13,2.28a1.94,1.94,0,0,1,.41.72,2,2,0,0,1,.11.84,3.72,3.72,0,0,1-.57,1.85,6.14,6.14,0,0,1-1.3,1.42,5.39,5.39,0,0,0-.23-3.12,6.54,6.54,0,0,0-2.78-3.37,8.36,8.36,0,0,0-2-.77,12.23,12.23,0,0,0-1.87-.39,13.57,13.57,0,0,0-3.88,0,13.47,13.47,0,0,0,3.14,2.29c1.11.61,2.2,1.06,3,1.5a9.43,9.43,0,0,1,2.27,1.92,12.87,12.87,0,0,1,1.91,3l-.46-.38a13.17,13.17,0,0,1-1.48.83,20.19,20.19,0,0,1-4.86,1.58c-1.15.19-2.34.31-3.53.39a3,3,0,0,0,.43-.92,3.51,3.51,0,0,0-.15-2.17,7.13,7.13,0,0,0-2.47-3,10.06,10.06,0,0,0-3.24-1.62,7.37,7.37,0,0,0-3.65-.16,28.26,28.26,0,0,0,2.6,2.28c.84.66,1.66,1.29,2.49,1.9a23.66,23.66,0,0,1,2.22,1.75,3.44,3.44,0,0,1,.74,1,2.5,2.5,0,0,1,.2,1.56l-.54-.57a51.54,51.54,0,0,1-5.7-.11,45,45,0,0,1-5.3-.71c-.86-.18-1.76-.37-2.56-.62A13.33,13.33,0,0,1,403,430a20.21,20.21,0,0,1-7.48-7,27.37,27.37,0,0,1-2.44-4.68,32,32,0,0,1-1.5-5.11c-.76-3.52-1.1-7.19-1.72-10.85-.32-1.84-.74-3.63-1.12-5.43s-.79-3.59-1.28-5.39a32.69,32.69,0,0,0-2.07-5.16c-.79-1.66-1.53-3.34-2.26-5,.59,1.74,1.19,3.48,1.84,5.21a31.77,31.77,0,0,1,1.72,5.18c.37,1.77.64,3.59.93,5.4s.58,3.63.78,5.43c.44,3.62.63,7.3,1.25,11,0,.15,0,.3.08.45a86.22,86.22,0,0,1-8.66,2.58c-21.11,5-43.26,5-64.74,2.68a314,314,0,0,1-33.1-5.43c.64-3.75,1.28-7.49,2.06-11.2,1.55-7.49,3.48-15,7.18-21.75a49.24,49.24,0,0,0-5.15,10.35,115.35,115.35,0,0,0-3.46,11.07c-1,3.74-1.77,7.52-2.58,11.28l-1.23,5.61c-.22.92-.44,1.85-.71,2.73a11.29,11.29,0,0,1-.42,1.28c-.14.41-.34.83-.53,1.25a26.1,26.1,0,0,1-2.86,4.7,20.39,20.39,0,0,1-3.79,3.86,14.64,14.64,0,0,1-4.66,2.47,36,36,0,0,1-5.41,1.12,48.17,48.17,0,0,1-8.4.42l-.54.57a2.59,2.59,0,0,1,.2-1.56,3.27,3.27,0,0,1,.74-1,22.09,22.09,0,0,1,2.22-1.76c.83-.61,1.65-1.24,2.49-1.9a29.47,29.47,0,0,0,2.61-2.27,7.41,7.41,0,0,0-3.66.16,9.79,9.79,0,0,0-3.23,1.61,7.13,7.13,0,0,0-2.48,3,3.62,3.62,0,0,0-.15,2.18,2.77,2.77,0,0,0,.43.9c-.47,0-.93,0-1.39-.09a22.1,22.1,0,0,1-2.68-.41,19.2,19.2,0,0,1-2.59-.75,14.81,14.81,0,0,1-3.2-1.55l-.47.39h0a12.91,12.91,0,0,1,1.91-3,9.26,9.26,0,0,1,2.27-1.93c.84-.44,1.93-.89,3.05-1.5a13.58,13.58,0,0,0,3.13-2.28,13.23,13.23,0,0,0-3.88,0,12.23,12.23,0,0,0-1.87.39,8.4,8.4,0,0,0-2,.78,6.48,6.48,0,0,0-2.78,3.36,5.55,5.55,0,0,0-.24,3.09c-.13-.11-.28-.22-.4-.33a4.69,4.69,0,0,1-1.25-1.77l-.14-.48a4.53,4.53,0,0,1-.06-.5,1.94,1.94,0,0,1,.1-.85c.29-1,1.9-1.89,3.6-2.59a22.42,22.42,0,0,0,5.47-2.84,6.81,6.81,0,0,0,1.25-1.36,4.64,4.64,0,0,0,.47-.85c.06-.15.13-.31.18-.45l.13-.39a13.94,13.94,0,0,0,.56-3.13c.15-2,.09-4,.07-5.9s0-3.83,0-5.75c0-3.84,0-7.7-.1-11.56a134.87,134.87,0,0,0-2.22-23.1,57.07,57.07,0,0,0-3.39-11.14,22.73,22.73,0,0,0-6.82-9.26,18.3,18.3,0,0,1,3.62,4.42,30.74,30.74,0,0,1,2.47,5.14,56.23,56.23,0,0,1,2.68,11.09,150.53,150.53,0,0,1,1.33,22.87c0,3.83-.13,7.66-.19,11.51-.05,1.93-.06,3.87-.07,5.79s0,3.69-.16,5.43c-1,0-1.88,0-2.41,0a154.25,154.25,0,0,1-17.6-.24c-2.75-.22-14.45-.57-15.14-4.64-.63-3.64,11.46-4.83,13.86-6.68,4.66-3.6-6.26-6.18-8.39-7.39-30.11-17.08-31.37-57.25-28.42-87.67.88-9.14,2.27-18.22,3.91-27.25a377.56,377.56,0,0,1,52.42-133.52c12.29-19.28,26.79-38.3,46.8-50.08a77.35,77.35,0,0,1,58.72-8.26C371,96.62,388,107.6,401.85,121.21c15.24,15,25,32.84,34.42,51.76,11.43,22.95,22.15,46.29,30.8,70.44,8,22.35,15,46,17.25,69.67C486.09,331.72,484.11,351.31,475.15,368Z"/>    </g>    <g id="eye">        <g id="eye-color1">            <g opacity="0" ><path fill="#B4D2F4"  d="M297.39,169.09c-.14.46-.21.94-.36,1.41a15.55,15.55,0,0,1-1.35,2.86c-.52.94-1,1.9-1.54,2.83-.24.41-.5.8-.77,1.2-.14.21-.28.41-.43.61s-.45.47-.45.6c-.2.25-.39.5-.6.74-5.88,7-13.9,9.8-22.69,6.54-8.54-3.18-14.2-10.41-14.65-19.54a1.27,1.27,0,0,1,0-.28,1.42,1.42,0,0,1,0-.3,23.29,23.29,0,0,1,19-21.81A19,19,0,0,1,285,145.3c-15.3-7.7-34.36-2.93-39.3,15.33a20.54,20.54,0,0,0-.66,6.53,29.4,29.4,0,0,0,10.48,20.24c8.59,7.08,21.5,6.67,31,1.77,7.19-3.7,10-12.61,10.92-20.46C297.47,168.84,297.43,169,297.39,169.09Z"/></g><g opacity="0" ><path fill="#B4D2F4"  d="M421.14,163c-.24.62-.44,1.25-.69,1.86a25.27,25.27,0,0,1-2,3.66A30.31,30.31,0,0,1,416,172c-5.88,7.05-13.91,9.8-22.7,6.54-8.53-3.18-14.2-10.41-14.65-19.54a2.46,2.46,0,0,1,0-.28,1.39,1.39,0,0,1,0-.3,23.28,23.28,0,0,1,19-21.81,19,19,0,0,1,11.42,1.35c-15.3-7.7-34.36-2.93-39.3,15.33a20.83,20.83,0,0,0-.66,6.53A29.44,29.44,0,0,0,379.59,180c8.59,7.08,21.5,6.67,31,1.77,6.91-3.55,9.73-12,10.78-19.66C421.31,162.4,421.24,162.78,421.14,163Z"/></g>        </g>        <g id="eye-shape">            <path fill="#fcfcfc"  d="M289.33,118.08c-7.82-4.63-16.25-5.49-25.07-3.61a56.83,56.83,0,0,0-13.79,4.85c-2.74,1.38-5.12,3.33-7.81,4.73-15.12,11.6-19.3,31.46-10.94,48.47,7.69,15.62,26.58,28.71,44.44,23.12,15.37-4.81,25.15-21.23,28.47-36.16C308.16,143.65,304,126.72,289.33,118.08ZM262.26,189c-9.47,1.85-17-6.57-18.21-15.24a1.62,1.62,0,0,1-.05-.4,1.39,1.39,0,0,1,0-.46,16.55,16.55,0,0,1,17.43-15.77,5.68,5.68,0,0,1,1.57-.87,1.14,1.14,0,0,1,1.27-.13,1.34,1.34,0,0,1,.49.32l4.7,3.45c.7.52,1.52.95,1.59,1.92,0,.11,0,.23,0,.35a15.9,15.9,0,0,1,3,10C273.89,179.25,269.86,187.48,262.26,189Z"/><path d="M296.83,119.83a35.84,35.84,0,0,0-27.08-9.2,55.33,55.33,0,0,0-15.7,3.82c-4.55,1.8-8.27,4.54-12.51,6.79a1.54,1.54,0,0,0-.39.22,1.45,1.45,0,0,0-.46.36c-13.64,10.74-19.54,27.85-14.53,44.69,5.33,17.94,22.38,33.32,41.63,33.36,18.48,0,31.65-16.1,37.53-32.11S310.39,131.88,296.83,119.83Zm7.8,39.65c-3.32,14.93-13.1,31.35-28.47,36.16-17.86,5.59-36.75-7.5-44.44-23.12-8.36-17-4.18-36.87,10.94-48.47,2.69-1.4,5.07-3.35,7.81-4.73a56.83,56.83,0,0,1,13.79-4.85c8.82-1.88,17.25-1,25.07,3.61C304,126.72,308.16,143.65,304.63,159.48Z"/><path fill="#fcfcfc"  d="M441.91,138.38c-3.23-17.34-18-24.17-34-26.81-18.86-3.14-36.89,8.23-45.55,24.74-9.27,19.81,1.24,45.06,20.38,54.74a38.17,38.17,0,0,0,44.44-6.79C438.81,172.7,444.93,154.58,441.91,138.38Zm-29.1,9.34c-9.24-.07-17.75-7-18.6-16.33a2,2,0,0,1-.06-.56,1.67,1.67,0,0,1,.08-.61,16.8,16.8,0,0,1,4-8.81,1.85,1.85,0,0,1,.25-.32l.65-.67c.24-.25.47-.5.72-.74l3.63-3.75a1.62,1.62,0,0,1,2.08-.17,17.38,17.38,0,0,1,9.3-1.72c9.06,1.06,14.51,10.2,13.34,18.68C427.09,140.6,421.2,147.78,412.81,147.72Z"/><path d="M437.61,121.53c-5.76-6.42-14.07-9.84-22.29-11.83-10.75-2.6-21.1-2.91-31.36,1.75a52.5,52.5,0,0,0-24.42,23.2c-8.76,18.74-1.73,42,14.38,54.65,13.82,10.8,33.62,12.77,48.56,3,15.16-9.89,23.85-29.06,23.44-46.89C445.72,136.84,443.47,128.05,437.61,121.53Zm-54.84,69.52c-19.14-9.68-29.65-34.93-20.38-54.74,8.66-16.51,26.69-27.88,45.55-24.74,15.93,2.64,30.74,9.47,34,26.81,3,16.2-3.1,34.32-14.7,45.88A38.17,38.17,0,0,1,382.77,191.05Z"/><path d="M269.26,166.54c-2.57,3-7.13,1.29-9-1.6a5.8,5.8,0,0,1,1.2-7.85A16.55,16.55,0,0,0,244,172.86a1.39,1.39,0,0,0,0,.46,1.62,1.62,0,0,0,.05.4c1.16,8.67,8.74,17.09,18.21,15.24,7.6-1.48,11.63-9.71,11.81-16.85a15.9,15.9,0,0,0-3-10A8,8,0,0,1,269.26,166.54Z"/><path fill="#fff"  d="M260.25,164.94c1.88,2.89,6.44,4.64,9,1.6a8,8,0,0,0,1.81-4.41c0-.12,0-.24,0-.35-.07-1-.89-1.4-1.59-1.92l-4.7-3.45a1.34,1.34,0,0,0-.49-.32,1.14,1.14,0,0,0-1.27.13,5.68,5.68,0,0,0-1.57.87A5.8,5.8,0,0,0,260.25,164.94Z"/><path d="M399.1,120.42l.72-.74C399.57,119.92,399.34,120.17,399.1,120.42Z"/><path d="M414.83,114a17.38,17.38,0,0,0-9.3,1.72l.25.17c2.9,2.29,3.92,7,1.11,9.86s-8,.49-8.86-3.1a1.6,1.6,0,0,1,0-.53,1.52,1.52,0,0,1,.21-.75,16.8,16.8,0,0,0-4,8.81,1.67,1.67,0,0,0-.08.61,2,2,0,0,0,.06.56c.85,9.31,9.36,16.26,18.6,16.33,8.39.06,14.28-7.12,15.36-15C429.34,124.24,423.89,115.1,414.83,114Z"/><path fill="#fff"  d="M398,122.69c.86,3.59,6,5.95,8.86,3.1s1.79-7.57-1.11-9.86l-.25-.17a1.62,1.62,0,0,0-2.08.17l-3.63,3.75-.72.74-.65.67a1.85,1.85,0,0,0-.25.32,1.52,1.52,0,0,0-.21.75A1.6,1.6,0,0,0,398,122.69Z"/>        </g>        <g id="eye-color2">            <path fill="#FF8A8A"  d="M276.58,177a21.4,21.4,0,0,0-4.23-12.82,16.52,16.52,0,0,1,1.72,7.92c-.18,7.14-4.21,15.37-11.81,16.85-9.47,1.85-17.06-6.57-18.21-15.24a1.62,1.62,0,0,1-.05-.4,1.39,1.39,0,0,1,0-.46,16.55,16.55,0,0,1,17.42-15.77l.34-.22a19,19,0,0,0-5.14-.73c-11,0-19.93,9.35-19.93,20.87a22.56,22.56,0,0,0,.34,3.8c6.57,8.15,16.11,14.45,26.28,15.85A20.84,20.84,0,0,0,276.58,177Z"/><path fill="#FF8A8A"  d="M414.89,114.05c9,1.1,14.44,10.21,13.28,18.67-1.08,7.88-7,15.06-15.36,15-8.9-.07-17.11-6.52-18.45-15.33a19.13,19.13,0,0,0-.16,2.41,20.94,20.94,0,1,0,26-20.1,21.21,21.21,0,0,0-5.13-.66Z"/>        </g>    </g>    <g id="nose-mouth">        <path fill="#2d2821"  d="M349.68,228.05c3-3.48,6.9-10.44,5.84-15.41-.94-4.37-8.86-3.19-12.12-3.27-5.53-.14-11-.11-16.57-.14-4.93,0-10.93-1.21-15.76-.23-6,3.54,7.41,20.47,9.69,22.26C329.5,238.16,342.48,236.45,349.68,228.05Z"/><path d="M361.94,250.65c-6.83-4-16.05-5.21-24.72-3.26a17.58,17.58,0,0,0-1.14-10.26,23,23,0,0,0,12.31-4.94,25.3,25.3,0,0,0,8.73-13.72c.84-3.51,1.83-8.51-2-10.42-1.79-.89-4-.77-6-.85q-6.94-.28-13.89-.32c-4.63,0-9.26,0-13.89-.09-3.29-.06-6.82-.69-10.06,0a1.4,1.4,0,0,0-.66.31c-7.41,4,2.2,18.65,5.48,22.32a23.78,23.78,0,0,0,17.37,7.81c-.24-.23-1-1.09,0,1.4a16.56,16.56,0,0,1,.87,7.91,35,35,0,0,0-10.13-1.66c-4.91-.29-10.64-.34-15.3,1.48-5.83,2.29-11.37,7.53-15.69,11.93a73.94,73.94,0,0,0-12.8,17.61c-3.2,6.15-6,13.07-6.78,20s2.51,11.76,8.15,15.6c5.17,3.52,11,6.92,17.25,3.92s8.94-9.46,10.34-15.79c2.29-10.39,4.38-20.16,8.55-30,1.85-4.39,3.39-9.88,6.84-13.34,3.05-3.07,8-3.79,11.93-5.44a1.42,1.42,0,0,0,.55-.24l.2-.12c8.08-1.92,16.7-3.36,23,.3C362.1,251.72,363.61,251.63,361.94,250.65ZM286.54,311c-4.45-2.6-9-5.6-9.88-11.05-1.28-8.36,4.09-18.89,8.21-25.88A71.33,71.33,0,0,1,300.4,255.7c5.67-4.76,10.42-7.54,17.8-7.88,4.43-.21,10.09-.36,14.59,1.29a37.1,37.1,0,0,0-7.64,3.07c-2.93,1.79-4.69,4.59-6.22,7.59a130.53,130.53,0,0,0-9.09,23.33c-2.33,8.28-2.06,19.76-8.06,26.49C297.28,314.63,292,314.15,286.54,311Zm25.68-101.33c4.62-.9,10.37.18,15.09.21,5.29,0,10.58,0,15.87.13,3.12.08,10.7-1,11.6,3,1,4.6-2.73,11.06-5.58,14.28-6.91,7.8-19.34,9.38-27.71,3C319.32,228.62,306.43,212.92,312.22,209.64Z"/><path fill="#e24444"  d="M318.93,259.77c1.53-3,3.29-5.8,6.22-7.59a37.1,37.1,0,0,1,7.64-3.07c-4.5-1.65-10.16-1.5-14.59-1.29-7.38.34-12.13,3.12-17.8,7.88A71.33,71.33,0,0,0,284.87,274c-4.12,7-9.49,17.52-8.21,25.88.84,5.45,5.43,8.45,9.88,11.05,5.43,3.18,10.74,3.66,15.24-1.38,6-6.73,5.73-18.21,8.06-26.49A130.53,130.53,0,0,1,318.93,259.77Zm-18.34,17.54c-1.85,3.68-3.52,7.46-5.24,11.31a53.2,53.2,0,0,1,3.1-12.25A64.57,64.57,0,0,1,304,265c1.14-1.8,2.32-3.54,3.62-5.25a33.3,33.3,0,0,1,4.4-4.73,19.62,19.62,0,0,1,5.49-3.51,12.07,12.07,0,0,1,6.33-.86c-4.2.64-7.5,3.12-10.2,6.05a44.17,44.17,0,0,0-3.74,4.73c-1.15,1.67-2.3,3.39-3.35,5.14C304.45,270.05,302.43,273.63,300.59,277.31Z"/><path d="M313.68,256.69c2.7-2.93,6-5.41,10.2-6.05a12.07,12.07,0,0,0-6.33.86,19.62,19.62,0,0,0-5.49,3.51,33.3,33.3,0,0,0-4.4,4.73c-1.3,1.71-2.48,3.45-3.62,5.25a64.57,64.57,0,0,0-5.59,11.38,53.2,53.2,0,0,0-3.1,12.25c1.72-3.85,3.39-7.63,5.24-11.31s3.86-7.26,6-10.75c1.05-1.75,2.2-3.47,3.35-5.14A44.17,44.17,0,0,1,313.68,256.69Z"/>    </g></svg>