<!--  ~ Copyright (C) 2018 Baidu, Inc. All Rights Reserved.  --><svg viewBox="0 0 640 480" xmlns="http://www.w3.org/2000/svg">    <g id="back-ground-cl">        <rect fill="none" width="640" height="480" />        <ellipse opacity="0.1" cx="331.93" cy="418.82" rx="168.39" ry="32.01"/>    </g>    <g id="body">        <defs>            <clipPath id="outline">                <path fill="none"  d="M295.17,95.68c-8-20.46-24.84-58.25-36.27-60.84-6.79-1.54-21.21,5-36.75,16.7S195.29,76.25,194.89,83c-.55,9.35,8.57,21.9,17.43,29,5.25,4.19,10.21,6.29,13,5.49,7.48-2.17,31.78-28.83,40.51-38.92l1.08-1.24,21.51,22.39C290.59,98.25,292.85,96.92,295.17,95.68Z"/><path fill="none"  d="M406.11,70.18l.87.66c18.6,14.17,40.36,29.07,44.08,28.89,5.39-.32,31.52-19.11,33-37.42.64-8.16-12.41-22.21-30.35-32.69-23.54-13.75-39.78-13.38-47.13-8.44C389.55,32.6,366.4,72.29,356.63,90a99.64,99.64,0,0,1,13.52,5.18Z"/><path fill="none"  d="M167,345.32c-16.78-1.85-27-9.3-29.61-21.54-3.42-16.17,3.88-28.61,11.05-36.48-9.9,6.95-21.66,19.33-19.49,38.17a38.8,38.8,0,0,0,19.84,30c11.65,6.62,26.69,8.09,39.86,4.2a106.25,106.25,0,0,1-2.33-14.44A89.86,89.86,0,0,1,167,345.32Z"/><path fill="none"  d="M470.21,252.4a21.19,21.19,0,0,1-2.19.14c-.09,0-.16-.51-.21-.51h.05c2.07.05,6.47-3.05,7-5.07.43-1.59-4.27-5.62-7.34-6.76l.31.12c1.33.26,6.23-.88,8.31-2.36a3.37,3.37,0,0,0,1.4-2.41c.53-3.78-7.86-8.93-13.28-10.66l-.1-.36c1.56.48,7.11-.12,9.53-1.71a3.92,3.92,0,0,0,1.68-3.1c.54-5-19.81-25.44-34.78-36.92l.7.43q-2.51-5.14-5.05-10.27c-9.42-18.92-19.18-36.8-34.41-51.76C388,107.59,371,96.61,352.06,91.76A77.38,77.38,0,0,0,293.33,100c-20,11.78-34.51,30.8-46.79,50.08a365.55,365.55,0,0,0-18.3,32.22c1.5-1.19,2.73-2.14,3.53-2.76l.33.38c-15,11.49-34.32,31.92-33.79,36.93A4,4,0,0,0,200,220c2.41,1.59,8,1.19,9.52.71l-.1.36c-5.41,1.73-13.81,7.88-13.27,11.66a3.37,3.37,0,0,0,1.4,2.41,14.26,14.26,0,0,0,7.8,1.86l.32-.12c-3.08,1.14-7.28,5.67-6.84,7.26.55,2,5,5.11,7,5.07l.06,1s-.12-.5-.21-.5a18.72,18.72,0,0,1-3.54-.34q-4.8,16.93-8,34.28c-1.64,9-3,18.12-3.91,27.25-2.94,30.42-1.69,70.59,28.43,87.67,2.13,1.21,13,3.79,8.39,7.39-2.4,1.85-14.49,3-13.87,6.68.7,4.07,12.39,4.42,15.15,4.64a154.25,154.25,0,0,0,17.6.24c.52,0,1.44,0,2.41,0,.15-1.74.14-3.58.15-5.43s0-3.86.07-5.78c.07-3.85.18-7.69.2-11.52a151.82,151.82,0,0,0-1.33-22.87,55.56,55.56,0,0,0-2.69-11.09,30,30,0,0,0-2.47-5.14,18.3,18.3,0,0,0-3.62-4.42,22.64,22.64,0,0,1,6.82,9.26,56.42,56.42,0,0,1,3.4,11.14,135.88,135.88,0,0,1,2.22,23.1c.1,3.86.11,7.72.09,11.56,0,1.92,0,3.83,0,5.75s.07,3.86-.08,5.9a13.4,13.4,0,0,1-.56,3.13l-.12.39c-.05.15-.12.31-.18.45a4.67,4.67,0,0,1-.48.85,6.77,6.77,0,0,1-1.24,1.36,22.47,22.47,0,0,1-5.48,2.84c-1.69.7-3.31,1.6-3.59,2.59a2.12,2.12,0,0,0-.11.85,4.26,4.26,0,0,0,.06.5l.15.48a4.77,4.77,0,0,0,1.24,1.77l.41.33a5.45,5.45,0,0,1,.23-3.09,6.54,6.54,0,0,1,2.79-3.36,8.51,8.51,0,0,1,2-.78,12.35,12.35,0,0,1,1.88-.39,13.23,13.23,0,0,1,3.88,0,13.42,13.42,0,0,1-3.14,2.28c-1.12.61-2.2,1.06-3,1.5a9.08,9.08,0,0,0-2.27,1.93,12.58,12.58,0,0,0-1.91,3l.47-.39a15,15,0,0,0,3.19,1.55,19.2,19.2,0,0,0,2.59.75,22.72,22.72,0,0,0,2.68.41c.46,0,.93.06,1.39.09a2.88,2.88,0,0,1-.43-.9,3.62,3.62,0,0,1,.16-2.18,7.11,7.11,0,0,1,2.47-3,10,10,0,0,1,3.24-1.61,7.37,7.37,0,0,1,3.65-.16,26.88,26.88,0,0,1-2.61,2.27c-.84.66-1.66,1.29-2.48,1.9a22.31,22.31,0,0,0-2.23,1.76,3.25,3.25,0,0,0-.73,1,2.58,2.58,0,0,0-.21,1.56h0l.55-.56a49,49,0,0,0,8.39-.43,36.13,36.13,0,0,0,5.42-1.12,14.6,14.6,0,0,0,4.65-2.47,20.1,20.1,0,0,0,3.79-3.86,25,25,0,0,0,2.86-4.7,10.16,10.16,0,0,0,.53-1.25,11.29,11.29,0,0,0,.43-1.28c.27-.88.49-1.81.71-2.73l1.22-5.61c.81-3.76,1.62-7.54,2.58-11.28a115.41,115.41,0,0,1,3.47-11.07,48.3,48.3,0,0,1,5.15-10.35c-3.71,6.77-5.64,14.26-7.18,21.75-.78,3.71-1.42,7.45-2.07,11.2a314.19,314.19,0,0,0,33.11,5.43c21.48,2.29,43.62,2.35,64.74-2.68a84.24,84.24,0,0,0,8.65-2.58c0-.15-.05-.3-.08-.45-.62-3.71-.81-7.39-1.24-11-.2-1.8-.51-3.61-.78-5.43s-.56-3.63-.94-5.4a31.73,31.73,0,0,0-1.71-5.18q-1-2.6-1.84-5.21c.73,1.69,1.47,3.37,2.25,5a30.89,30.89,0,0,1,2.07,5.16c.5,1.8.88,3.6,1.28,5.4s.8,3.58,1.12,5.42c.62,3.66,1,7.33,1.72,10.85a31,31,0,0,0,1.51,5.11,26.68,26.68,0,0,0,2.44,4.68,20.18,20.18,0,0,0,7.47,7,14.57,14.57,0,0,0,2.34.92c.8.24,1.71.43,2.57.61a44.53,44.53,0,0,0,5.29.71,51.54,51.54,0,0,0,5.7.11l.55.57a2.5,2.5,0,0,0-.21-1.56,3.25,3.25,0,0,0-.73-1,25,25,0,0,0-2.22-1.75c-.83-.61-1.65-1.24-2.49-1.9a28.31,28.31,0,0,1-2.61-2.28,7.41,7.41,0,0,1,3.66.17,9.89,9.89,0,0,1,3.23,1.61,7,7,0,0,1,2.47,3,3.52,3.52,0,0,1,.16,2.17,2.79,2.79,0,0,1-.44.92c1.2-.08,2.38-.2,3.53-.39a20.26,20.26,0,0,0,4.87-1.58,15.2,15.2,0,0,0,1.48-.83l.45.38a12.87,12.87,0,0,0-1.91-3,9.39,9.39,0,0,0-2.26-1.92c-.84-.44-1.93-.89-3.05-1.5a13.39,13.39,0,0,1-3.14-2.29,13.64,13.64,0,0,1,3.89.05,12.49,12.49,0,0,1,1.87.39,8.58,8.58,0,0,1,2,.78,6.52,6.52,0,0,1,2.78,3.36,5.47,5.47,0,0,1,.23,3.12,6.14,6.14,0,0,0,1.3-1.42,3.93,3.93,0,0,0,.57-1.85,2.25,2.25,0,0,0-.11-.84,1.9,1.9,0,0,0-.41-.71c-.78-.95-2.47-1.65-4.13-2.29a21.12,21.12,0,0,1-5.32-2.59,7.85,7.85,0,0,1-1.24-1.21,4.82,4.82,0,0,1-.87-1.72,8.21,8.21,0,0,1-.27-1.57c-.06-.51-.09-1-.11-1.48a108.6,108.6,0,0,1,.45-11.18c.28-3.68.67-7.35,1.13-11,.89-7.32,2-14.61,3.48-21.84.76-3.61,1.59-7.21,2.61-10.76a54.87,54.87,0,0,1,1.74-5.26A23,23,0,0,1,431,350.6a7.51,7.51,0,0,1,1.66-2.2,7.49,7.49,0,0,0-1.46,2.3,25.42,25.42,0,0,0-.94,2.57c-.55,1.74-1,3.52-1.4,5.31-.79,3.57-1.4,7.19-1.93,10.81-1.1,7.25-1.92,14.54-2.6,21.84q-.49,5.47-.84,10.95c-.19,3.41-.36,6.86-.24,10.19,5.42.86,11.33.44,16.69.28a155.16,155.16,0,0,0,19.14-1.45c2.36-.37,3.95,0,2.58-2.3-1.61-2.7-4-4-6.92-5-2.42-.82-9.31-1-10.72-3.45-.76-1.34.09-2.05,1-2.94,1.35-1.35,4-2.2,5.61-3.24,2-1.26,3.93-2.61,5.79-4.05A69.52,69.52,0,0,0,475.16,368c9-16.71,10.93-36.3,9.17-54.94C482.38,292.51,476.86,272.05,470.21,252.4Z"/><path d="M480.28,275.9c-2.09-8.12-4.5-16.15-7.14-24.1,2.05-.64,4-1.83,4.64-4.05.66-2.42-1-4.47-3.15-6a8.77,8.77,0,0,0,3.27-1.35,6.33,6.33,0,0,0,2.64-4.44c.57-4.05-3.48-7.35-7.58-9.61a8,8,0,0,0,2.4-1,6.85,6.85,0,0,0,3-5.29c.79-7.38-22.46-26.63-32.74-34.75q-4.32-9-8.82-17.93c-5.06-10.06-10.07-20.08-16.63-29.27-11.53-16.15-26.43-30.23-43.88-39.81-1-.56-2-1.1-3.07-1.62L406,73.89c8.12,6.16,38.47,28.84,45.06,28.84h.15c7.13-.42,34.26-20.91,35.77-40.17.87-11.12-15.89-26.21-31.83-35.52-16.22-9.48-38-16.64-50.32-8.34-17.94,12.06-41.58,52.86-51.21,70.43a81.66,81.66,0,0,0-31.41-2.27,77.88,77.88,0,0,0-24.39,7.47c-6.51-16.66-24.41-59.26-38.28-62.41-9.24-2.09-26.32,7.53-39.22,17.23S192.46,73.33,191.9,82.82c-.62,10.47,8.86,23.77,18.55,31.49,3.14,2.51,8.71,6.33,13.51,6.33a7.77,7.77,0,0,0,2.16-.29c4.21-1.23,12.57-8.34,24.85-21.13,7.09-7.39,13.53-14.65,16-17.48l18.87,19.64a115.31,115.31,0,0,0-18.48,16.09C251,135,238.22,156.37,227.23,177.64c-1.57,3-3.08,6.09-4.57,9.16-11.34,9.3-28,24.12-27.33,30.39a6.85,6.85,0,0,0,3,5.29,8.11,8.11,0,0,0,2.4,1c-4.1,2.26-8.14,5.56-7.57,9.61a6.29,6.29,0,0,0,2.64,4.44,8.7,8.7,0,0,0,3.27,1.35c-2.1,1.52-3.82,3.57-3.16,6a5.61,5.61,0,0,0,3.32,3.54q-4.81,17-8,34.39c-3.34,18.35-6.55,39.34-5.14,59.35-11.6,1.26-41.24,2.32-45.75-19-5.68-26.83,20.74-42.77,21-42.93l-1.28-2.7c-.38.14-38,14.38-34.1,48.28A41.72,41.72,0,0,0,147.31,358a53.68,53.68,0,0,0,26.43,6.72,56.15,56.15,0,0,0,15.65-2.22,75.23,75.23,0,0,0,8.79,20.37,53.92,53.92,0,0,0,16.36,16.68,52.83,52.83,0,0,0,5.29,3c.45.23,2,1.13,3.24,1.71a2.69,2.69,0,0,1-.31.12c-1.78.63-3.6,1.17-5.38,1.82-3.42,1.25-9.09,3.22-6.81,8,1.87,3.92,8,4.81,11.7,5.39a118.11,118.11,0,0,0,20,1c1.44,0,3.43.1,5.42.05a3.08,3.08,0,0,1-.28.54,3.55,3.55,0,0,1-.71.75,20.47,20.47,0,0,1-4.78,2.37,16.87,16.87,0,0,0-2.8,1.43,5.8,5.8,0,0,0-2.44,2.87,6.55,6.55,0,0,0,2.08,6.77,12.21,12.21,0,0,0,2.67,1.88,18.4,18.4,0,0,0,2.85,1.25,23.19,23.19,0,0,0,3,.83,27.21,27.21,0,0,0,3,.45,49,49,0,0,0,11.85-.35,37.34,37.34,0,0,0,5.85-1.33,17.41,17.41,0,0,0,5.44-3,25.12,25.12,0,0,0,7.15-9.66,17.94,17.94,0,0,0,1-2.89c.26-1,.45-1.92.65-2.88s.37-1.91.55-2.86c22.29,4.82,45.23,7.67,68.06,6.76a159.59,159.59,0,0,0,32.55-4.43c2.39-.6,4.76-1.26,7.12-2a28.47,28.47,0,0,0,3.1,7.11,21.88,21.88,0,0,0,8.25,8.09,16,16,0,0,0,2.77,1.14c.95.31,1.84.51,2.78.72a48.43,48.43,0,0,0,5.61.87,45.76,45.76,0,0,0,11.38-.31A23.06,23.06,0,0,0,430,433a13.82,13.82,0,0,0,2.62-1.56,8.74,8.74,0,0,0,2.25-2.39,6.77,6.77,0,0,0,1-3.36,5.14,5.14,0,0,0-1.23-3.53,8.09,8.09,0,0,0-2.68-2,25.61,25.61,0,0,0-2.67-1.13,19.49,19.49,0,0,1-4.6-2.15,5,5,0,0,1-.74-.7,2,2,0,0,1-.37-.72l0-.12.83.08a142.53,142.53,0,0,0,20.87,0c5.56-.29,11.9-.22,17.29-1.84,3.77-1.13,2.9-4.86.85-7.65-3.26-4.43-9.45-5.46-14.45-6.64l-.43-.12c.93-.58,1.95-1.33,2.33-1.56a76.58,76.58,0,0,0,11.86-8.78c14-12.68,21.84-30.36,24.29-48.89C489.81,318.41,485.66,296.72,480.28,275.9,406.54,21.18c7.35-4.94,23.59-5.31,47.13,8.44,17.94,10.48,31,24.53,30.35,32.69-1.44,18.31-27.57,37.1-33,37.42C447.34,99.91,425.58,85,407,70.84l-.87-.66-36,25A99.64,99.64,0,0,0,356.63,90C366.4,72.29,389.55,32.6,406.54,21.18,266.87,77.3l-1.08,1.24c-8.73,10.09-33,36.75-40.51,38.92-2.75.8-7.71-1.3-13-5.49-8.86-7.07-18-19.62-17.43-29,.4-6.75,11.61-19.69,27.26-31.46s30-18.24,36.75-16.7c11.43,2.59,28.3,40.38,36.27,60.84-2.32,1.24-4.58,2.57-6.79,4,148.79,355.43a38.8,38.8,0,0,1-19.84-30c-2.17-18.84,9.59-31.22,19.49-38.17-7.17,7.87-14.47,20.31-11.05,36.48C140,336,150.22,343.47,167,345.32a89.86,89.86,0,0,0,19.32-.13,106.25,106.25,0,0,0,2.33,14.44C175.48,363.52,160.44,362.05,148.79,355.43,475.16,368a69.52,69.52,0,0,1-18.8,22.19c-1.86,1.44-3.8,2.79-5.79,4.05-1.65,1-4.26,1.89-5.61,3.24-.88.89-1.73,1.6-1,2.94,1.41,2.49,8.3,2.63,10.72,3.45,2.94,1,5.31,2.32,6.92,5,1.37,2.3-.22,1.93-2.58,2.3a155.16,155.16,0,0,1-19.14,1.45c-5.36.16-11.27.58-16.69-.28-.12-3.33,0-6.78.24-10.19q.35-5.48.84-10.95c.68-7.3,1.5-14.59,2.6-21.84.53-3.62,1.14-7.24,1.93-10.81.4-1.79.85-3.57,1.4-5.31a25.42,25.42,0,0,1,.94-2.57,7.49,7.49,0,0,1,1.46-2.3,7.51,7.51,0,0,0-1.66,2.2,23,23,0,0,0-1.16,2.52,54.87,54.87,0,0,0-1.74,5.26c-1,3.55-1.85,7.15-2.61,10.76C424,376.37,422.87,383.66,422,391c-.46,3.66-.85,7.33-1.13,11a108.6,108.6,0,0,0-.45,11.18c0,.48.05,1,.11,1.48a8.21,8.21,0,0,0,.27,1.57,4.82,4.82,0,0,0,.87,1.72,7.85,7.85,0,0,0,1.24,1.21,21.12,21.12,0,0,0,5.32,2.59c1.66.64,3.35,1.34,4.13,2.29a1.9,1.9,0,0,1,.41.71,2.25,2.25,0,0,1,.11.84,3.93,3.93,0,0,1-.57,1.85,6.14,6.14,0,0,1-1.3,1.42,5.47,5.47,0,0,0-.23-3.12,6.52,6.52,0,0,0-2.78-3.36,8.58,8.58,0,0,0-2-.78,12.49,12.49,0,0,0-1.87-.39,13.64,13.64,0,0,0-3.89-.05,13.39,13.39,0,0,0,3.14,2.29c1.12.61,2.21,1.06,3.05,1.5a9.39,9.39,0,0,1,2.26,1.92,12.87,12.87,0,0,1,1.91,3l-.45-.38a15.2,15.2,0,0,1-1.48.83,20.26,20.26,0,0,1-4.87,1.58c-1.15.19-2.33.31-3.53.39a2.79,2.79,0,0,0,.44-.92,3.52,3.52,0,0,0-.16-2.17,7,7,0,0,0-2.47-3,9.89,9.89,0,0,0-3.23-1.61,7.41,7.41,0,0,0-3.66-.17,28.31,28.31,0,0,0,2.61,2.28c.84.66,1.66,1.29,2.49,1.9a25,25,0,0,1,2.22,1.75,3.25,3.25,0,0,1,.73,1,2.5,2.5,0,0,1,.21,1.56l-.55-.57a51.54,51.54,0,0,1-5.7-.11,44.53,44.53,0,0,1-5.29-.71c-.86-.18-1.77-.37-2.57-.61A14.57,14.57,0,0,1,403,430a20.18,20.18,0,0,1-7.47-7,26.68,26.68,0,0,1-2.44-4.68,31,31,0,0,1-1.51-5.11c-.75-3.52-1.1-7.19-1.72-10.85-.32-1.84-.73-3.63-1.12-5.42s-.78-3.6-1.28-5.4a30.89,30.89,0,0,0-2.07-5.16c-.78-1.66-1.52-3.34-2.25-5Q384,384,385,386.55a31.73,31.73,0,0,1,1.71,5.18c.38,1.77.65,3.59.94,5.4s.58,3.63.78,5.43c.43,3.62.62,7.3,1.24,11,0,.15.06.3.08.45a84.24,84.24,0,0,1-8.65,2.58c-21.12,5-43.26,5-64.74,2.68a314.19,314.19,0,0,1-33.11-5.43c.65-3.75,1.29-7.49,2.07-11.2,1.54-7.49,3.47-15,7.18-21.75a48.3,48.3,0,0,0-5.15,10.35,115.41,115.41,0,0,0-3.47,11.07c-1,3.74-1.77,7.52-2.58,11.28l-1.22,5.61c-.22.92-.44,1.85-.71,2.73a11.29,11.29,0,0,1-.43,1.28,10.16,10.16,0,0,1-.53,1.25,25,25,0,0,1-2.86,4.7,20.1,20.1,0,0,1-3.79,3.86,14.6,14.6,0,0,1-4.65,2.47,36.13,36.13,0,0,1-5.42,1.12,49,49,0,0,1-8.39.43l-.55.56h0a2.58,2.58,0,0,1,.21-1.56,3.25,3.25,0,0,1,.73-1,22.31,22.31,0,0,1,2.23-1.76c.82-.61,1.64-1.24,2.48-1.9A26.88,26.88,0,0,0,261,429.1a7.37,7.37,0,0,0-3.65.16,10,10,0,0,0-3.24,1.61,7.11,7.11,0,0,0-2.47,3,3.62,3.62,0,0,0-.16,2.18,2.88,2.88,0,0,0,.43.9c-.46,0-.93-.05-1.39-.09a22.72,22.72,0,0,1-2.68-.41,19.2,19.2,0,0,1-2.59-.75,15,15,0,0,1-3.19-1.55l-.47.39a12.58,12.58,0,0,1,1.91-3,9.08,9.08,0,0,1,2.27-1.93c.84-.44,1.92-.89,3-1.5a13.42,13.42,0,0,0,3.14-2.28,13.23,13.23,0,0,0-3.88,0,12.35,12.35,0,0,0-1.88.39,8.51,8.51,0,0,0-2,.78,6.54,6.54,0,0,0-2.79,3.36,5.45,5.45,0,0,0-.23,3.09l-.41-.33a4.77,4.77,0,0,1-1.24-1.77l-.15-.48a4.26,4.26,0,0,1-.06-.5,2.12,2.12,0,0,1,.11-.85c.28-1,1.9-1.89,3.59-2.59a22.47,22.47,0,0,0,5.48-2.84,6.77,6.77,0,0,0,1.24-1.36,4.67,4.67,0,0,0,.48-.85c.06-.14.13-.3.18-.45l.12-.39a13.4,13.4,0,0,0,.56-3.13c.15-2,.09-4,.08-5.9s0-3.83,0-5.75c0-3.84,0-7.7-.09-11.56a135.88,135.88,0,0,0-2.22-23.1,56.42,56.42,0,0,0-3.4-11.14,22.64,22.64,0,0,0-6.82-9.26,18.3,18.3,0,0,1,3.62,4.42,30,30,0,0,1,2.47,5.14,55.56,55.56,0,0,1,2.69,11.09,151.82,151.82,0,0,1,1.33,22.87c0,3.83-.13,7.67-.2,11.52,0,1.92-.06,3.86-.07,5.78s0,3.69-.15,5.43c-1,0-1.89,0-2.41,0a154.25,154.25,0,0,1-17.6-.24c-2.76-.22-14.45-.57-15.15-4.64-.62-3.64,11.47-4.83,13.87-6.68,4.65-3.6-6.26-6.18-8.39-7.39-30.12-17.08-31.37-57.25-28.43-87.67.88-9.13,2.27-18.21,3.91-27.25q3.24-17.33,8-34.28a18.72,18.72,0,0,0,3.54.34c.09,0,.16.5.21.5l-.06-1c-2,0-6.47-3.05-7-5.07-.44-1.59,3.76-6.12,6.84-7.26l-.32.12a14.26,14.26,0,0,1-7.8-1.86,3.37,3.37,0,0,1-1.4-2.41c-.54-3.78,7.86-9.93,13.27-11.66l.1-.36c-1.55.48-7.11.88-9.52-.71a4,4,0,0,1-1.69-3.1c-.53-5,18.81-25.44,33.79-36.93l-.33-.38c-.8.62-2,1.57-3.53,2.76a365.55,365.55,0,0,1,18.3-32.22c12.28-19.28,26.78-38.3,46.79-50.08a77.38,77.38,0,0,1,58.73-8.26C371,96.61,388,107.59,401.86,121.2c15.23,15,25,32.84,34.41,51.76q2.55,5.13,5.05,10.27l-.7-.43c15,11.48,35.32,31.91,34.78,36.92a3.92,3.92,0,0,1-1.68,3.1c-2.42,1.59-8,2.19-9.53,1.71l.1.36c5.42,1.73,13.81,6.88,13.28,10.66a3.37,3.37,0,0,1-1.4,2.41c-2.08,1.48-7,2.62-8.31,2.36l-.31-.12c3.07,1.14,7.77,5.17,7.34,6.76-.56,2-5,5.12-7,5.07h-.05c.05,0,.12.51.21.51a21.19,21.19,0,0,0,2.19-.14c6.65,19.65,12.17,40.11,14.12,60.67C486.09,331.71,484.12,351.3,475.16,368Z"/>            </clipPath>        </defs>        <g clip-path="url(#outline)">            <rect fill="#F1EBDD" width="640" height="480" />        </g>    </g>    <g id="pattern">        <g clip-path="url(#outline)">            <g opacity="0.6" ><path fill="#FF8431"  d="M225.5,310.37c-3-1.41-6.42-1.34-9.66-.8-10.47,1.76-22.5,9.07-27.73,18.3-3.21,5.67-1.18,7.54-.89,14,.21,4.72.8,5.52,1.06,11.07.16,3.27-.9,5.65,1.78,7.54,4.85-3,8.16-8.94,10.59-14.09A41.13,41.13,0,0,1,220.05,327c4.25-2,9.54-4.12,10.24-8.77C230.77,315,228.47,311.77,225.5,310.37Z"/></g><g opacity="0.6" ><path fill="#FF8431"  d="M218.7,286.36c-2.53-.86-5.31-.45-7.89.26a176.71,176.71,0,0,0-20.06,7.09A64.3,64.3,0,0,0,188.57,317a198.32,198.32,0,0,0,30.28-19c1.92-1.48,4-3.25,4.22-5.66C223.37,289.7,221.23,287.23,218.7,286.36Z"/></g><g opacity="0.6" ><path fill="#FF8431"  d="M508.47,313.36c4.47-1,6.36-4.61,3.39-8.15-4.36-5.19-13.38-7.28-19.68-9-6.61-1.86-13.34-3-20.07-4.27l-1.47-.29c-5.56-1.09-11.44-2.31-17.11-.83-3.15.82-6.7,3.65-5.38,6.62a6,6,0,0,0,2.82,2.54C468.36,309.49,488.29,317.81,508.47,313.36Z"/></g><g opacity="0.6" ><path fill="#FF8431"  d="M509.87,332.52q-10.59-4.89-21.55-8.91c-1.55-.57-3.14-1.19-4.74-1.8-5.31-2-10.85-4.06-16.36-4.44-3.68-.26-9.41-1.2-12.36,1.62-5.89,5.62,8.21,14.63,11.89,17.64,6.78,5.55,14.53,12.09,22.69,15.34,8.77,3.5,18.24,5,27.62,5.49,5,.28,13.84,1,15.54-5.49C535.24,341.88,516.36,335.52,509.87,332.52Z"/></g><g opacity="0.6" ><path fill="#FF8431"  d="M162.06,354.12c-.25-2.17-1.26-4.28-2.69-4.69a3.48,3.48,0,0,0-2.88.88c-8.65,6.07-10.39,18.35-10,29.61.35,9.38-.45,29.6,8.28,35.71,5.77,4,7.12-3.89,7-8.33-.19-9.4-1.43-18.74-1.7-28.1C159.88,370.84,163,362.57,162.06,354.12Z"/></g><g opacity="0.6" ><path fill="#FF8431"  d="M132.43,335.13a10.4,10.4,0,0,0-5,2.52,26.44,26.44,0,0,0-7.28,10.61c-1.43,3.43-2.49,7.06-3.65,10.48-3,8.89-5.66,17.89-8.31,26.89-2.44,8.29-4.83,16.66-6.51,25.15-.56,2.78-3.14,11.13-.49,13.55,9.77,8.92,19.2-27.4,20.53-32.77,3.55-14.31,6-29.43,12.42-42.61C136.26,344.6,142.08,333.78,132.43,335.13Z"/></g>            <g opacity="0.6" ><path fill="#EFC5C5"  d="M285.16,418.84c2.41-25.61,23.87-48.92,47.26-49.49,24.86-.61,52.32,18.62,54.82,48.11.13,1.49,1.2.46-.05,1.63-1.4,1.32-6.65,1.94-9.64,2.8-14.1,4.06-27.6,4.48-43.78,4.36-16.48-.12-33.16-4.21-48.13-7.41"/></g>        </g>    </g>    <g id="mask">        <path opacity="0.1"  d="M292.13,98S271,61.72,264.23,62.33s-41.34,22.61-47.65,30.14-12.83,11.61-11.4,14,13.35,14.79,20.52,12.38,36.79-32.36,41.22-39.38l20.94,22.11Z"/><path opacity="0.1"  d="M360.35,92.67S389.07,56,404.54,50.11s54.78,8.76,73.52,28.72c0,0-17.77,22.39-26.91,22.4S406.07,72,406.07,72L370.13,97Z"/><path opacity="0.1"  d="M153.05,282.06s-27.09,17.72-19.76,44,35.64,29.12,55.6,26.47l1,7.94s-44,13.64-58.85-22.2S153.05,282.06,153.05,282.06Z"/><path opacity="0.1"  d="M314,91.72s-42.9,22.54-66.79,83.9-57.84,121.64-44.53,177.31,47.51,47.78,47.51,47.78l.26,18.71s-40.92,3.15-38.14-7.65c1-3.72,14.74-7.37,14.74-7.37s-26.55-11-32.52-32.47-10.59-46.16,4.07-110.78c1-4.58,2.6-13.16,2.6-13.16s-4.57-1.42-3.34-4.62,5.9-5.5,5.9-5.5-9-.41-8.35-6.52c.56-5.55,11-8.35,11.81-9.36,0,0-13,4.27-9.57-7.54,2.23-7.59,25.05-23.62,26.92-27.78a226.1,226.1,0,0,1,30.51-49.87C267.83,121.05,281.14,100.41,314,91.72Z"/><path opacity="0.1"  d="M285.62,396.3s14.86,8.76,54,9.37,48.87-8.55,48.87-8.55l2.86,18.73s-25.26,8.55-52.34,6.52-50.91-3.67-57.22-6.93Z"/><g opacity="0.1" ><path d="M484.17,337.26c.23,1.7-3.5,6.77-4.43,8.5-1.82,3.4-3.69,6.77-5.68,10.08A108.34,108.34,0,0,1,460.84,374a63.59,63.59,0,0,1-11.06,9.46,60.26,60.26,0,0,1-6.26,3.67A33.15,33.15,0,0,1,438,389.6c-4,1.15-6.14-2.22-7.32-5.52a39.81,39.81,0,0,1-2.34-17.55,119.74,119.74,0,0,1,2.55-14.41l-1.94,4.49c-3.07,11.12-4.59,22.55-6,34a4.72,4.72,0,0,0,.26,2.19,3.48,3.48,0,0,0-.87.73c-2.06,2.52-.7,11.1-.82,14.3a.63.63,0,0,0,.09.45c.16.19.46.15.7.08a107.68,107.68,0,0,0,24.46-9.43c9.47-5.3,16.41-12.77,22.8-21.4,3.19-4.31,7.4-8.23,9.2-13.28C481.83,355.55,485.44,346.42,484.17,337.26Z"/></g>        <path fill="#fff" opacity="0.1"  d="M343.59,89.82s28.56,2.3,57.39,29.93c10.72,10.28,20.44,24.84,30.24,43,3.3,6.12,7.4,13.2,10.38,20.37l-1.42,1.63s39,29.07,35.13,36.35c-2.45,4.58-10.29,2.24-10.29,2.24l-.61,2.44s15.35,4.64,13.14,10.59c-1.63,4.38-9.06,2.65-9.06,2.65l-.62,2.44s7.54,2.85,7.23,5.5-7.33,2.75-7.33,2.75l.1,2.54s1.53,0,2.35-.1a304,304,0,0,1,9.57,32.58c3.26,15.07,6.72,34.42,4.78,51.32,0,0-18.26-70.25-45.95-130S373.45,105,343.59,89.82Z"/>    </g>    <g id="outline">        <path fill="none"  d="M295.17,95.68c-8-20.46-24.84-58.25-36.27-60.84-6.79-1.54-21.21,5-36.75,16.7S195.29,76.25,194.89,83c-.55,9.35,8.57,21.9,17.43,29,5.25,4.19,10.21,6.29,13,5.49,7.48-2.17,31.78-28.83,40.51-38.92l1.08-1.24,21.51,22.39C290.59,98.25,292.85,96.92,295.17,95.68Z"/><path fill="none"  d="M406.11,70.18l.87.66c18.6,14.17,40.36,29.07,44.08,28.89,5.39-.32,31.52-19.11,33-37.42.64-8.16-12.41-22.21-30.35-32.69-23.54-13.75-39.78-13.38-47.13-8.44C389.55,32.6,366.4,72.29,356.63,90a99.64,99.64,0,0,1,13.52,5.18Z"/><path fill="none"  d="M167,345.32c-16.78-1.85-27-9.3-29.61-21.54-3.42-16.17,3.88-28.61,11.05-36.48-9.9,6.95-21.66,19.33-19.49,38.17a38.8,38.8,0,0,0,19.84,30c11.65,6.62,26.69,8.09,39.86,4.2a106.25,106.25,0,0,1-2.33-14.44A89.86,89.86,0,0,1,167,345.32Z"/><path fill="none"  d="M470.21,252.4a21.19,21.19,0,0,1-2.19.14c-.09,0-.16-.51-.21-.51h.05c2.07.05,6.47-3.05,7-5.07.43-1.59-4.27-5.62-7.34-6.76l.31.12c1.33.26,6.23-.88,8.31-2.36a3.37,3.37,0,0,0,1.4-2.41c.53-3.78-7.86-8.93-13.28-10.66l-.1-.36c1.56.48,7.11-.12,9.53-1.71a3.92,3.92,0,0,0,1.68-3.1c.54-5-19.81-25.44-34.78-36.92l.7.43q-2.51-5.14-5.05-10.27c-9.42-18.92-19.18-36.8-34.41-51.76C388,107.59,371,96.61,352.06,91.76A77.38,77.38,0,0,0,293.33,100c-20,11.78-34.51,30.8-46.79,50.08a365.55,365.55,0,0,0-18.3,32.22c1.5-1.19,2.73-2.14,3.53-2.76l.33.38c-15,11.49-34.32,31.92-33.79,36.93A4,4,0,0,0,200,220c2.41,1.59,8,1.19,9.52.71l-.1.36c-5.41,1.73-13.81,7.88-13.27,11.66a3.37,3.37,0,0,0,1.4,2.41,14.26,14.26,0,0,0,7.8,1.86l.32-.12c-3.08,1.14-7.28,5.67-6.84,7.26.55,2,5,5.11,7,5.07l.06,1s-.12-.5-.21-.5a18.72,18.72,0,0,1-3.54-.34q-4.8,16.93-8,34.28c-1.64,9-3,18.12-3.91,27.25-2.94,30.42-1.69,70.59,28.43,87.67,2.13,1.21,13,3.79,8.39,7.39-2.4,1.85-14.49,3-13.87,6.68.7,4.07,12.39,4.42,15.15,4.64a154.25,154.25,0,0,0,17.6.24c.52,0,1.44,0,2.41,0,.15-1.74.14-3.58.15-5.43s0-3.86.07-5.78c.07-3.85.18-7.69.2-11.52a151.82,151.82,0,0,0-1.33-22.87,55.56,55.56,0,0,0-2.69-11.09,30,30,0,0,0-2.47-5.14,18.3,18.3,0,0,0-3.62-4.42,22.64,22.64,0,0,1,6.82,9.26,56.42,56.42,0,0,1,3.4,11.14,135.88,135.88,0,0,1,2.22,23.1c.1,3.86.11,7.72.09,11.56,0,1.92,0,3.83,0,5.75s.07,3.86-.08,5.9a13.4,13.4,0,0,1-.56,3.13l-.12.39c-.05.15-.12.31-.18.45a4.67,4.67,0,0,1-.48.85,6.77,6.77,0,0,1-1.24,1.36,22.47,22.47,0,0,1-5.48,2.84c-1.69.7-3.31,1.6-3.59,2.59a2.12,2.12,0,0,0-.11.85,4.26,4.26,0,0,0,.06.5l.15.48a4.77,4.77,0,0,0,1.24,1.77l.41.33a5.45,5.45,0,0,1,.23-3.09,6.54,6.54,0,0,1,2.79-3.36,8.51,8.51,0,0,1,2-.78,12.35,12.35,0,0,1,1.88-.39,13.23,13.23,0,0,1,3.88,0,13.42,13.42,0,0,1-3.14,2.28c-1.12.61-2.2,1.06-3,1.5a9.08,9.08,0,0,0-2.27,1.93,12.58,12.58,0,0,0-1.91,3l.47-.39a15,15,0,0,0,3.19,1.55,19.2,19.2,0,0,0,2.59.75,22.72,22.72,0,0,0,2.68.41c.46,0,.93.06,1.39.09a2.88,2.88,0,0,1-.43-.9,3.62,3.62,0,0,1,.16-2.18,7.11,7.11,0,0,1,2.47-3,10,10,0,0,1,3.24-1.61,7.37,7.37,0,0,1,3.65-.16,26.88,26.88,0,0,1-2.61,2.27c-.84.66-1.66,1.29-2.48,1.9a22.31,22.31,0,0,0-2.23,1.76,3.25,3.25,0,0,0-.73,1,2.58,2.58,0,0,0-.21,1.56h0l.55-.56a49,49,0,0,0,8.39-.43,36.13,36.13,0,0,0,5.42-1.12,14.6,14.6,0,0,0,4.65-2.47,20.1,20.1,0,0,0,3.79-3.86,25,25,0,0,0,2.86-4.7,10.16,10.16,0,0,0,.53-1.25,11.29,11.29,0,0,0,.43-1.28c.27-.88.49-1.81.71-2.73l1.22-5.61c.81-3.76,1.62-7.54,2.58-11.28a115.41,115.41,0,0,1,3.47-11.07,48.3,48.3,0,0,1,5.15-10.35c-3.71,6.77-5.64,14.26-7.18,21.75-.78,3.71-1.42,7.45-2.07,11.2a314.19,314.19,0,0,0,33.11,5.43c21.48,2.29,43.62,2.35,64.74-2.68a84.24,84.24,0,0,0,8.65-2.58c0-.15-.05-.3-.08-.45-.62-3.71-.81-7.39-1.24-11-.2-1.8-.51-3.61-.78-5.43s-.56-3.63-.94-5.4a31.73,31.73,0,0,0-1.71-5.18q-1-2.6-1.84-5.21c.73,1.69,1.47,3.37,2.25,5a30.89,30.89,0,0,1,2.07,5.16c.5,1.8.88,3.6,1.28,5.4s.8,3.58,1.12,5.42c.62,3.66,1,7.33,1.72,10.85a31,31,0,0,0,1.51,5.11,26.68,26.68,0,0,0,2.44,4.68,20.18,20.18,0,0,0,7.47,7,14.57,14.57,0,0,0,2.34.92c.8.24,1.71.43,2.57.61a44.53,44.53,0,0,0,5.29.71,51.54,51.54,0,0,0,5.7.11l.55.57a2.5,2.5,0,0,0-.21-1.56,3.25,3.25,0,0,0-.73-1,25,25,0,0,0-2.22-1.75c-.83-.61-1.65-1.24-2.49-1.9a28.31,28.31,0,0,1-2.61-2.28,7.41,7.41,0,0,1,3.66.17,9.89,9.89,0,0,1,3.23,1.61,7,7,0,0,1,2.47,3,3.52,3.52,0,0,1,.16,2.17,2.79,2.79,0,0,1-.44.92c1.2-.08,2.38-.2,3.53-.39a20.26,20.26,0,0,0,4.87-1.58,15.2,15.2,0,0,0,1.48-.83l.45.38a12.87,12.87,0,0,0-1.91-3,9.39,9.39,0,0,0-2.26-1.92c-.84-.44-1.93-.89-3.05-1.5a13.39,13.39,0,0,1-3.14-2.29,13.64,13.64,0,0,1,3.89.05,12.49,12.49,0,0,1,1.87.39,8.58,8.58,0,0,1,2,.78,6.52,6.52,0,0,1,2.78,3.36,5.47,5.47,0,0,1,.23,3.12,6.14,6.14,0,0,0,1.3-1.42,3.93,3.93,0,0,0,.57-1.85,2.25,2.25,0,0,0-.11-.84,1.9,1.9,0,0,0-.41-.71c-.78-.95-2.47-1.65-4.13-2.29a21.12,21.12,0,0,1-5.32-2.59,7.85,7.85,0,0,1-1.24-1.21,4.82,4.82,0,0,1-.87-1.72,8.21,8.21,0,0,1-.27-1.57c-.06-.51-.09-1-.11-1.48a108.6,108.6,0,0,1,.45-11.18c.28-3.68.67-7.35,1.13-11,.89-7.32,2-14.61,3.48-21.84.76-3.61,1.59-7.21,2.61-10.76a54.87,54.87,0,0,1,1.74-5.26A23,23,0,0,1,431,350.6a7.51,7.51,0,0,1,1.66-2.2,7.49,7.49,0,0,0-1.46,2.3,25.42,25.42,0,0,0-.94,2.57c-.55,1.74-1,3.52-1.4,5.31-.79,3.57-1.4,7.19-1.93,10.81-1.1,7.25-1.92,14.54-2.6,21.84q-.49,5.47-.84,10.95c-.19,3.41-.36,6.86-.24,10.19,5.42.86,11.33.44,16.69.28a155.16,155.16,0,0,0,19.14-1.45c2.36-.37,3.95,0,2.58-2.3-1.61-2.7-4-4-6.92-5-2.42-.82-9.31-1-10.72-3.45-.76-1.34.09-2.05,1-2.94,1.35-1.35,4-2.2,5.61-3.24,2-1.26,3.93-2.61,5.79-4.05A69.52,69.52,0,0,0,475.16,368c9-16.71,10.93-36.3,9.17-54.94C482.38,292.51,476.86,272.05,470.21,252.4Z"/><path d="M480.28,275.9c-2.09-8.12-4.5-16.15-7.14-24.1,2.05-.64,4-1.83,4.64-4.05.66-2.42-1-4.47-3.15-6a8.77,8.77,0,0,0,3.27-1.35,6.33,6.33,0,0,0,2.64-4.44c.57-4.05-3.48-7.35-7.58-9.61a8,8,0,0,0,2.4-1,6.85,6.85,0,0,0,3-5.29c.79-7.38-22.46-26.63-32.74-34.75q-4.32-9-8.82-17.93c-5.06-10.06-10.07-20.08-16.63-29.27-11.53-16.15-26.43-30.23-43.88-39.81-1-.56-2-1.1-3.07-1.62L406,73.89c8.12,6.16,38.47,28.84,45.06,28.84h.15c7.13-.42,34.26-20.91,35.77-40.17.87-11.12-15.89-26.21-31.83-35.52-16.22-9.48-38-16.64-50.32-8.34-17.94,12.06-41.58,52.86-51.21,70.43a81.66,81.66,0,0,0-31.41-2.27,77.88,77.88,0,0,0-24.39,7.47c-6.51-16.66-24.41-59.26-38.28-62.41-9.24-2.09-26.32,7.53-39.22,17.23S192.46,73.33,191.9,82.82c-.62,10.47,8.86,23.77,18.55,31.49,3.14,2.51,8.71,6.33,13.51,6.33a7.77,7.77,0,0,0,2.16-.29c4.21-1.23,12.57-8.34,24.85-21.13,7.09-7.39,13.53-14.65,16-17.48l18.87,19.64a115.31,115.31,0,0,0-18.48,16.09C251,135,238.22,156.37,227.23,177.64c-1.57,3-3.08,6.09-4.57,9.16-11.34,9.3-28,24.12-27.33,30.39a6.85,6.85,0,0,0,3,5.29,8.11,8.11,0,0,0,2.4,1c-4.1,2.26-8.14,5.56-7.57,9.61a6.29,6.29,0,0,0,2.64,4.44,8.7,8.7,0,0,0,3.27,1.35c-2.1,1.52-3.82,3.57-3.16,6a5.61,5.61,0,0,0,3.32,3.54q-4.81,17-8,34.39c-3.34,18.35-6.55,39.34-5.14,59.35-11.6,1.26-41.24,2.32-45.75-19-5.68-26.83,20.74-42.77,21-42.93l-1.28-2.7c-.38.14-38,14.38-34.1,48.28A41.72,41.72,0,0,0,147.31,358a53.68,53.68,0,0,0,26.43,6.72,56.15,56.15,0,0,0,15.65-2.22,75.23,75.23,0,0,0,8.79,20.37,53.92,53.92,0,0,0,16.36,16.68,52.83,52.83,0,0,0,5.29,3c.45.23,2,1.13,3.24,1.71a2.69,2.69,0,0,1-.31.12c-1.78.63-3.6,1.17-5.38,1.82-3.42,1.25-9.09,3.22-6.81,8,1.87,3.92,8,4.81,11.7,5.39a118.11,118.11,0,0,0,20,1c1.44,0,3.43.1,5.42.05a3.08,3.08,0,0,1-.28.54,3.55,3.55,0,0,1-.71.75,20.47,20.47,0,0,1-4.78,2.37,16.87,16.87,0,0,0-2.8,1.43,5.8,5.8,0,0,0-2.44,2.87,6.55,6.55,0,0,0,2.08,6.77,12.21,12.21,0,0,0,2.67,1.88,18.4,18.4,0,0,0,2.85,1.25,23.19,23.19,0,0,0,3,.83,27.21,27.21,0,0,0,3,.45,49,49,0,0,0,11.85-.35,37.34,37.34,0,0,0,5.85-1.33,17.41,17.41,0,0,0,5.44-3,25.12,25.12,0,0,0,7.15-9.66,17.94,17.94,0,0,0,1-2.89c.26-1,.45-1.92.65-2.88s.37-1.91.55-2.86c22.29,4.82,45.23,7.67,68.06,6.76a159.59,159.59,0,0,0,32.55-4.43c2.39-.6,4.76-1.26,7.12-2a28.47,28.47,0,0,0,3.1,7.11,21.88,21.88,0,0,0,8.25,8.09,16,16,0,0,0,2.77,1.14c.95.31,1.84.51,2.78.72a48.43,48.43,0,0,0,5.61.87,45.76,45.76,0,0,0,11.38-.31A23.06,23.06,0,0,0,430,433a13.82,13.82,0,0,0,2.62-1.56,8.74,8.74,0,0,0,2.25-2.39,6.77,6.77,0,0,0,1-3.36,5.14,5.14,0,0,0-1.23-3.53,8.09,8.09,0,0,0-2.68-2,25.61,25.61,0,0,0-2.67-1.13,19.49,19.49,0,0,1-4.6-2.15,5,5,0,0,1-.74-.7,2,2,0,0,1-.37-.72l0-.12.83.08a142.53,142.53,0,0,0,20.87,0c5.56-.29,11.9-.22,17.29-1.84,3.77-1.13,2.9-4.86.85-7.65-3.26-4.43-9.45-5.46-14.45-6.64l-.43-.12c.93-.58,1.95-1.33,2.33-1.56a76.58,76.58,0,0,0,11.86-8.78c14-12.68,21.84-30.36,24.29-48.89C489.81,318.41,485.66,296.72,480.28,275.9ZM406.54,21.18c7.35-4.94,23.59-5.31,47.13,8.44,17.94,10.48,31,24.53,30.35,32.69-1.44,18.31-27.57,37.1-33,37.42C447.34,99.91,425.58,85,407,70.84l-.87-.66-36,25A99.64,99.64,0,0,0,356.63,90C366.4,72.29,389.55,32.6,406.54,21.18ZM266.87,77.3l-1.08,1.24c-8.73,10.09-33,36.75-40.51,38.92-2.75.8-7.71-1.3-13-5.49-8.86-7.07-18-19.62-17.43-29,.4-6.75,11.61-19.69,27.26-31.46s30-18.24,36.75-16.7c11.43,2.59,28.3,40.38,36.27,60.84-2.32,1.24-4.58,2.57-6.79,4ZM148.79,355.43a38.8,38.8,0,0,1-19.84-30c-2.17-18.84,9.59-31.22,19.49-38.17-7.17,7.87-14.47,20.31-11.05,36.48C140,336,150.22,343.47,167,345.32a89.86,89.86,0,0,0,19.32-.13,106.25,106.25,0,0,0,2.33,14.44C175.48,363.52,160.44,362.05,148.79,355.43ZM475.16,368a69.52,69.52,0,0,1-18.8,22.19c-1.86,1.44-3.8,2.79-5.79,4.05-1.65,1-4.26,1.89-5.61,3.24-.88.89-1.73,1.6-1,2.94,1.41,2.49,8.3,2.63,10.72,3.45,2.94,1,5.31,2.32,6.92,5,1.37,2.3-.22,1.93-2.58,2.3a155.16,155.16,0,0,1-19.14,1.45c-5.36.16-11.27.58-16.69-.28-.12-3.33,0-6.78.24-10.19q.35-5.48.84-10.95c.68-7.3,1.5-14.59,2.6-21.84.53-3.62,1.14-7.24,1.93-10.81.4-1.79.85-3.57,1.4-5.31a25.42,25.42,0,0,1,.94-2.57,7.49,7.49,0,0,1,1.46-2.3,7.51,7.51,0,0,0-1.66,2.2,23,23,0,0,0-1.16,2.52,54.87,54.87,0,0,0-1.74,5.26c-1,3.55-1.85,7.15-2.61,10.76C424,376.37,422.87,383.66,422,391c-.46,3.66-.85,7.33-1.13,11a108.6,108.6,0,0,0-.45,11.18c0,.48.05,1,.11,1.48a8.21,8.21,0,0,0,.27,1.57,4.82,4.82,0,0,0,.87,1.72,7.85,7.85,0,0,0,1.24,1.21,21.12,21.12,0,0,0,5.32,2.59c1.66.64,3.35,1.34,4.13,2.29a1.9,1.9,0,0,1,.41.71,2.25,2.25,0,0,1,.11.84,3.93,3.93,0,0,1-.57,1.85,6.14,6.14,0,0,1-1.3,1.42,5.47,5.47,0,0,0-.23-3.12,6.52,6.52,0,0,0-2.78-3.36,8.58,8.58,0,0,0-2-.78,12.49,12.49,0,0,0-1.87-.39,13.64,13.64,0,0,0-3.89-.05,13.39,13.39,0,0,0,3.14,2.29c1.12.61,2.21,1.06,3.05,1.5a9.39,9.39,0,0,1,2.26,1.92,12.87,12.87,0,0,1,1.91,3l-.45-.38a15.2,15.2,0,0,1-1.48.83,20.26,20.26,0,0,1-4.87,1.58c-1.15.19-2.33.31-3.53.39a2.79,2.79,0,0,0,.44-.92,3.52,3.52,0,0,0-.16-2.17,7,7,0,0,0-2.47-3,9.89,9.89,0,0,0-3.23-1.61,7.41,7.41,0,0,0-3.66-.17,28.31,28.31,0,0,0,2.61,2.28c.84.66,1.66,1.29,2.49,1.9a25,25,0,0,1,2.22,1.75,3.25,3.25,0,0,1,.73,1,2.5,2.5,0,0,1,.21,1.56l-.55-.57a51.54,51.54,0,0,1-5.7-.11,44.53,44.53,0,0,1-5.29-.71c-.86-.18-1.77-.37-2.57-.61A14.57,14.57,0,0,1,403,430a20.18,20.18,0,0,1-7.47-7,26.68,26.68,0,0,1-2.44-4.68,31,31,0,0,1-1.51-5.11c-.75-3.52-1.1-7.19-1.72-10.85-.32-1.84-.73-3.63-1.12-5.42s-.78-3.6-1.28-5.4a30.89,30.89,0,0,0-2.07-5.16c-.78-1.66-1.52-3.34-2.25-5Q384,384,385,386.55a31.73,31.73,0,0,1,1.71,5.18c.38,1.77.65,3.59.94,5.4s.58,3.63.78,5.43c.43,3.62.62,7.3,1.24,11,0,.15.06.3.08.45a84.24,84.24,0,0,1-8.65,2.58c-21.12,5-43.26,5-64.74,2.68a314.19,314.19,0,0,1-33.11-5.43c.65-3.75,1.29-7.49,2.07-11.2,1.54-7.49,3.47-15,7.18-21.75a48.3,48.3,0,0,0-5.15,10.35,115.41,115.41,0,0,0-3.47,11.07c-1,3.74-1.77,7.52-2.58,11.28l-1.22,5.61c-.22.92-.44,1.85-.71,2.73a11.29,11.29,0,0,1-.43,1.28,10.16,10.16,0,0,1-.53,1.25,25,25,0,0,1-2.86,4.7,20.1,20.1,0,0,1-3.79,3.86,14.6,14.6,0,0,1-4.65,2.47,36.13,36.13,0,0,1-5.42,1.12,49,49,0,0,1-8.39.43l-.55.56h0a2.58,2.58,0,0,1,.21-1.56,3.25,3.25,0,0,1,.73-1,22.31,22.31,0,0,1,2.23-1.76c.82-.61,1.64-1.24,2.48-1.9A26.88,26.88,0,0,0,261,429.1a7.37,7.37,0,0,0-3.65.16,10,10,0,0,0-3.24,1.61,7.11,7.11,0,0,0-2.47,3,3.62,3.62,0,0,0-.16,2.18,2.88,2.88,0,0,0,.43.9c-.46,0-.93-.05-1.39-.09a22.72,22.72,0,0,1-2.68-.41,19.2,19.2,0,0,1-2.59-.75,15,15,0,0,1-3.19-1.55l-.47.39a12.58,12.58,0,0,1,1.91-3,9.08,9.08,0,0,1,2.27-1.93c.84-.44,1.92-.89,3-1.5a13.42,13.42,0,0,0,3.14-2.28,13.23,13.23,0,0,0-3.88,0,12.35,12.35,0,0,0-1.88.39,8.51,8.51,0,0,0-2,.78,6.54,6.54,0,0,0-2.79,3.36,5.45,5.45,0,0,0-.23,3.09l-.41-.33a4.77,4.77,0,0,1-1.24-1.77l-.15-.48a4.26,4.26,0,0,1-.06-.5,2.12,2.12,0,0,1,.11-.85c.28-1,1.9-1.89,3.59-2.59a22.47,22.47,0,0,0,5.48-2.84,6.77,6.77,0,0,0,1.24-1.36,4.67,4.67,0,0,0,.48-.85c.06-.14.13-.3.18-.45l.12-.39a13.4,13.4,0,0,0,.56-3.13c.15-2,.09-4,.08-5.9s0-3.83,0-5.75c0-3.84,0-7.7-.09-11.56a135.88,135.88,0,0,0-2.22-23.1,56.42,56.42,0,0,0-3.4-11.14,22.64,22.64,0,0,0-6.82-9.26,18.3,18.3,0,0,1,3.62,4.42,30,30,0,0,1,2.47,5.14,55.56,55.56,0,0,1,2.69,11.09,151.82,151.82,0,0,1,1.33,22.87c0,3.83-.13,7.67-.2,11.52,0,1.92-.06,3.86-.07,5.78s0,3.69-.15,5.43c-1,0-1.89,0-2.41,0a154.25,154.25,0,0,1-17.6-.24c-2.76-.22-14.45-.57-15.15-4.64-.62-3.64,11.47-4.83,13.87-6.68,4.65-3.6-6.26-6.18-8.39-7.39-30.12-17.08-31.37-57.25-28.43-87.67.88-9.13,2.27-18.21,3.91-27.25q3.24-17.33,8-34.28a18.72,18.72,0,0,0,3.54.34c.09,0,.16.5.21.5l-.06-1c-2,0-6.47-3.05-7-5.07-.44-1.59,3.76-6.12,6.84-7.26l-.32.12a14.26,14.26,0,0,1-7.8-1.86,3.37,3.37,0,0,1-1.4-2.41c-.54-3.78,7.86-9.93,13.27-11.66l.1-.36c-1.55.48-7.11.88-9.52-.71a4,4,0,0,1-1.69-3.1c-.53-5,18.81-25.44,33.79-36.93l-.33-.38c-.8.62-2,1.57-3.53,2.76a365.55,365.55,0,0,1,18.3-32.22c12.28-19.28,26.78-38.3,46.79-50.08a77.38,77.38,0,0,1,58.73-8.26C371,96.61,388,107.59,401.86,121.2c15.23,15,25,32.84,34.41,51.76q2.55,5.13,5.05,10.27l-.7-.43c15,11.48,35.32,31.91,34.78,36.92a3.92,3.92,0,0,1-1.68,3.1c-2.42,1.59-8,2.19-9.53,1.71l.1.36c5.42,1.73,13.81,6.88,13.28,10.66a3.37,3.37,0,0,1-1.4,2.41c-2.08,1.48-7,2.62-8.31,2.36l-.31-.12c3.07,1.14,7.77,5.17,7.34,6.76-.56,2-5,5.12-7,5.07h-.05c.05,0,.12.51.21.51a21.19,21.19,0,0,0,2.19-.14c6.65,19.65,12.17,40.11,14.12,60.67C486.09,331.71,484.12,351.3,475.16,368Z"/>    </g>    <g id="eye">        <g id="eye-color1">            <g opacity="0" ><path fill="#F1EBDD"  d="M288.19,128.43c-.14.46-.2.94-.35,1.4a16.7,16.7,0,0,1-1.35,2.87c-.53.93-1,1.89-1.55,2.82-.24.42-.49.81-.76,1.21l-.44.61c-.08.12-.45.47-.45.6-.19.25-.39.5-.59.74-5.88,7-13.91,9.8-22.7,6.53-8.53-3.17-14.2-10.4-14.65-19.53a2.11,2.11,0,0,1,0-.58,23.29,23.29,0,0,1,19-21.81,18.87,18.87,0,0,1,11.42,1.35c-15.3-7.71-34.36-2.93-39.3,15.33a20.83,20.83,0,0,0-.66,6.53,29.42,29.42,0,0,0,10.48,20.23c8.59,7.09,21.5,6.67,31,1.77,7.19-3.69,10-12.6,10.93-20.45Z"/></g><g opacity="0" ><path fill="#F1EBDD"  d="M411.94,122.36c-.23.62-.44,1.25-.69,1.87a25.75,25.75,0,0,1-2,3.66,31.67,31.67,0,0,1-2.54,3.43c-5.88,7-13.9,9.8-22.69,6.53-8.54-3.17-14.21-10.4-14.65-19.53a2.11,2.11,0,0,1,0-.58,23.28,23.28,0,0,1,19-21.81,18.86,18.86,0,0,1,11.42,1.35c-15.29-7.71-34.35-2.93-39.29,15.33a20.84,20.84,0,0,0-.67,6.53,29.42,29.42,0,0,0,10.48,20.23c8.6,7.09,21.51,6.67,31.05,1.77,6.9-3.54,9.72-12,10.77-19.65C412.12,121.74,412,122.12,411.94,122.36Z"/></g>        </g>        <g id="eye-shape">            <path fill="#fcfcfc"  d="M286.68,173.37a22.62,22.62,0,0,1-22.27-21.15,1.54,1.54,0,0,1,0-.38,1.32,1.32,0,0,1,0-.35c.61-12.1,10.62-22.28,23-22.42h.39a8.41,8.41,0,0,1,3.5-.67,7.13,7.13,0,0,1,6.07,3.48,22.15,22.15,0,0,1,2.49,1.73,48.14,48.14,0,0,0-4.57-5.28c-6.07-6-13.83-11-22.19-13-10.19-2.46-20.16,1-28,7.64-14.72,13.6-19,37.21-10.83,55.4,7.13,15.82,25,29.46,43.07,25.17,15-3.55,25-18.37,29.24-32.32A41.4,41.4,0,0,0,308,152.57C306.39,163,297.86,173.55,286.68,173.37Z"/><path d="M273,112.22c-11-2.4-21.66,1.45-30.06,8.61-14,12.93-19.22,34.74-13.65,52.85,5.64,18.37,23,34.45,43.07,33.53,17.07-.79,29.35-15.39,35.3-30.2,6.85-17,4.06-35-8.35-48.74C292.51,120.69,283.1,114.41,273,112.22Zm33.54,59c-4.28,14-14.23,28.77-29.24,32.32-18.11,4.29-35.94-9.35-43.07-25.17-8.19-18.19-3.89-41.8,10.83-55.4,7.82-6.66,17.79-10.1,28-7.64,8.36,2,16.12,7,22.19,13a48.14,48.14,0,0,1,4.57,5.28,22.15,22.15,0,0,0-2.49-1.73,7.42,7.42,0,0,1,1,4.13c-.19,4.07-2.6,8.64-7.18,8.7-4.34.06-7.59-3.78-8.17-7.81a1.65,1.65,0,0,1-.06-.46,1.37,1.37,0,0,1,0-.46,8.09,8.09,0,0,1,4.81-6.91h-.39c-12.37.14-22.38,10.32-23,22.42a1.32,1.32,0,0,0,0,.35,1.54,1.54,0,0,0,0,.38,22.62,22.62,0,0,0,22.27,21.15c11.18.18,19.71-10.39,21.27-20.8A41.4,41.4,0,0,1,306.58,171.2Z"/><path fill="#fcfcfc"  d="M432.43,164.36c1-5.46,2.44-13.2.13-18.85,0,.1-4.61,4.27-4.62,4.37-1.29,11.65-5.42,22.66-17.38,22.44-12.37-.21-20-10.31-20.73-23.11,0-.13,4.08-1,4.09-1.15s-4.12.47-4.1.35c.64-13.22,8.58-24.36,21.49-24.51h.4c1.1-.5-17.24,14.22.29,19,20.13,5.52,8.44-18.21,9.69-16,1.88,3.37,5.75,5.09,7.23,6.71-3.35-5.26-10.19-12.37-16-15.88-15.32-9.25-36.46-8.65-47.36,7.58a1.56,1.56,0,0,1-.84.65c-12.38,15.92-13.78,40.58-3.61,58.11,8.52,14.68,25.87,23.08,41.95,18.3S429.43,180.78,432.43,164.36Z"/><path d="M418.09,117.84c-8.18-6.19-18.66-9.66-28.95-8.62-32,3.23-41.2,45.75-31,70.76,7,17.07,23.72,28.55,41.12,26.1,17.6-2.47,29.84-19,34.36-36.62C438.64,149.94,433.81,129.73,418.09,117.84Zm-54.63,65.83c-8.47-15-7.89-34.95-.89-50.35,3-6.69,7.75-12.74,14-16.55,8.1-4.91,18.39-5.69,27.41-2.81a42.81,42.81,0,0,1,22,17.09l-4.31-3.65c.9,4.23.91,9.38-2.5,12s-9.45.85-11.31-3.27,0-9.3,3.57-12A24.28,24.28,0,0,0,396.2,166c5,4.74,12.32,7.21,19,5.47a21.11,21.11,0,0,0,11.77-8.76,34.91,34.91,0,0,0,5.19-13.93,56.12,56.12,0,0,1-10.07,38.69c-4.1,5.71-9.43,10.72-15.93,13.41-12.38,5.13-27.49.66-36.7-9.07A40.47,40.47,0,0,1,363.46,183.67Z"/><path fill="#fff"  d="M291.28,128.4a8.41,8.41,0,0,0-3.5.67A8.09,8.09,0,0,0,283,136a1.37,1.37,0,0,0,0,.46,1.65,1.65,0,0,0,.06.46c.58,4,3.83,7.87,8.17,7.81,4.58-.06,7-4.63,7.18-8.7a7.42,7.42,0,0,0-1-4.13A7.13,7.13,0,0,0,291.28,128.4Z"/>        </g>        <g id="eye-color2">            <path fill="#ED58D0"  d="M307,156.43a15.63,15.63,0,0,1-1.35,2.87c-.52.93-1,1.89-1.54,2.82-.24.41-.5.81-.77,1.2l-.43.62c-.09.11-.45.46-.45.6l-.6.74c-5.88,7-13.9,9.8-22.69,6.53-8.54-3.17-14.21-10.41-14.65-19.54a.86.86,0,0,1,0-.28.9.9,0,0,1,0-.29,23.29,23.29,0,0,1,19-21.82A19,19,0,0,1,295,131.23c-15.29-7.7-34.35-2.93-39.29,15.33a20.58,20.58,0,0,0-.66,6.54,29.34,29.34,0,0,0,10.48,20.23c8.59,7.08,21.5,6.67,31,1.77,7.19-3.69,10-12.6,10.92-20.46,0,.13-.08.26-.11.38C307.26,155.49,307.19,156,307,156.43Z"/><path fill="#ED58D0"  d="M431.65,151.46c-.24.62-.44,1.25-.7,1.86a24.88,24.88,0,0,1-2,3.67,31,31,0,0,1-2.54,3.43c-5.88,7-13.9,9.8-22.69,6.53-8.53-3.17-14.2-10.41-14.65-19.54a2.46,2.46,0,0,1,0-.28,2.64,2.64,0,0,1,0-.29A23.3,23.3,0,0,1,408.16,125a19,19,0,0,1,11.42,1.35c-15.3-7.7-34.36-2.93-39.3,15.34a20.48,20.48,0,0,0-.66,6.53,29.38,29.38,0,0,0,10.48,20.23c8.59,7.09,21.5,6.67,31,1.77,6.91-3.55,9.73-12,10.77-19.66C431.82,150.83,431.74,151.21,431.65,151.46Z"/>        </g>    </g>    <g id="nose-mouth">        <path d="M350.45,187.37c-9.76-12.84-25.58-11-35.51.59a.9.9,0,0,0-.14.2l-.1.1c-2.7,3.59-5.6,7.08-7.68,11.08-2.83,5.46-5.75,13.38-3.75,19.51,4,12.27,20,14.4,30.74,12l.7-.14a2.26,2.26,0,0,0,0,.26v-.26l.15,0c1.36,11.85,2.28,25.13,2.7,36.94.4,11.12,1.82,28.34-9.46,34.93-1.36.79-.89,1,.52.3a19,19,0,0,0,9.87-11.24c4.4,3,9.87,6.71,12.59,11.09.82,1.33.7.13-.13-1.21a41.5,41.5,0,0,0-11.75-12.33c1.17-4.87,1.08-10.2,1-15.15-.29-14.11-1.29-29.74-2.93-43.81,3.67-.69,7.35-1.19,11.1-1.72,2.2-.31,5.1-.4,7.11-1.46,2.39-1.27,3.88-4.44,5.09-6.75C366.82,208.37,357.54,196.69,350.45,187.37Z"/><path fill="#2d2821"  d="M356.12,201.53c-2.73-4.53-5.58-9.51-9-13.56-8.86-10.47-21.9-7.39-30,2.09a99.56,99.56,0,0,0-6.35,8.83c-3.13,5.22-6.84,14-4.22,19.93,4.81,10.84,19.11,11,28.82,8.52,3.7-.93,7.6-1.12,11.37-1.63,2.06-.28,4.7-.28,6.62-1.14,2.51-1.11,4.31-4.81,5.35-7.31C361.18,211.22,359.25,206.71,356.12,201.53Z"/><path d="M320.31,211.64a5.89,5.89,0,0,0-3.46-1.35c-1,0-3.23.17-3.92,1a2.14,2.14,0,0,0-.19,2.51,28.62,28.62,0,0,0,15.63,11.25,1.52,1.52,0,0,0,1.69-2.21A28.59,28.59,0,0,0,320.31,211.64Z"/><path d="M350,208.25a37,37,0,0,0-5.23,11.25,2.88,2.88,0,0,0,.29,2.66,2.19,2.19,0,0,0,.59.42c.8.43,1.88,1,2.7.31a13.23,13.23,0,0,0,4.39-14.28A1.52,1.52,0,0,0,350,208.25Z"/>    </g></svg>