<!--  ~ Copyright (C) 2018 Baidu, Inc. All Rights Reserved.  --><svg viewBox="0 0 640 480" xmlns="http://www.w3.org/2000/svg">    <g id="back-ground-cl">        <rect fill="none" width="640" height="480" />        <ellipse opacity="0.1" cx="331.93" cy="418.82" rx="168.39" ry="32.01"/>    </g>    <g id="body">        <defs>            <clipPath id="outline">                <path fill="none"  d="M232.67,166.75c9.68-17.65,20.79-34.89,34.47-49.52a121.14,121.14,0,0,1,12.24-11.42,45.83,45.83,0,0,0-10.11-5.51c-16.12-6.38-33.92-5.2-50.91-5.52-14.21-.27-28.56-1.69-41.38-8.32-2.58-1.34-5.08-3-7.87-3.86-5.89-1.82-8.35,2.62-8.21,8.18.19,7.5,2.86,14.61,6.71,21,7.09,11.74,17.58,22.28,27.46,31.72,10.63,10.17,23.06,18.88,37.26,23.17Z"/><path fill="none"  d="M190.91,282.76q3.41-18.24,8.5-36.1c2.09-7.25,4.43-14.43,7-21.54A107.42,107.42,0,0,0,181,212.2c-14.66-5.28-30.51-9.16-43.52-18.08-1.27-.87-2.45-1.82-3.67-2.74-4.61-3.46-8.13,0-8.49,5s2.59,10.17,5.9,13.88c5.47,6.13,12.69,10.25,17.7,16.87.91,1.2.64,1.86-.55,1-4.47-3-10.73-4.54-15.85-6.29-3.06-1.05-7-2.29-7.39,2.08-.17,2.07,1.31,5,2.2,6.76,4.21,8.31,11.82,15.55,19.28,20.71,1.57,1.08.68,2.06-1,1.09l-12.45-7.16C133,261,145.82,269.89,158,278c9.67,6.39,19.94,12.82,30.65,17.76C189.39,291.3,190.14,287,190.91,282.76Z"/><path fill="none"  d="M179,365.86c-12,1.32-28.59-.84-36-11.74-3.32-4.87-3.56-10.88-1.51-16.31,1.5-4,4.53-7.8,9.07-8.18,2.32-.19,2.86.62,5.19-.77s2.13-1.51.52-3.5A7.7,7.7,0,0,0,155,323.9c-3.14-2.43-8.44-1.61-12-.87-14.21,2.92-21.46,16.71-23.75,30-3.09,17.82,15.17,31.74,30.75,35s31.62-1.22,45.17-9.94a77.57,77.57,0,0,1-5.72-14.46A50,50,0,0,1,179,365.86Z"/><path fill="none"  d="M420.12,137.87c1.29,1.81,2.5,3.65,3.68,5.51,17.78-2.92,32.49-13.34,42.37-29,9.41-14.89,14.36-32.33,17-49.61a197.31,197.31,0,0,0,2.23-26.7c.1-5.9.77-13.27-2.8-18.33-2.77-3.93-7.95-5.71-11.77-2.16-1.76,1.64-3,3.95-4.2,6-11.84,19.64-35.58,31.05-55,41.75-11.6,6.39-34.89,17.53-33.89,33.59C394.56,108.48,408.93,122.19,420.12,137.87Z"/><path fill="none"  d="M539.17,207.63a16.23,16.23,0,0,0-3.93,1.26c-4.84,1.73-10.83,3.65-15.07,6.52-1.2.8-1.47.65-.56-.56,4.71-6.21,11.25-11.27,16.66-16.77,3.3-3.35,6.08-7.55,6.76-12.28.36-2.47.21-6.69-2-8.37-3.32-2.54-5.3,0-7.52,1.67-18.41,13.63-45.31,14.58-61.14,31.85-3.41,3.72-6.83,7.54-10.15,11.44a418.08,418.08,0,0,1,18,53.44q.72,2.78,1.4,5.58a269,269,0,0,0,31.92-18.74c11.28-7.69,22-16.22,21.81-30.58-4.15,2.39-8.8,4.28-13,6.66-1.69,1-2.08,1-.51-.09,7.46-5.15,15.07-12.9,19.27-21.2.74-1.46,3-6.11,2.39-8S540.6,207.55,539.17,207.63Z"/><path fill="none"  d="M436.22,172.78c-9.43-18.94-19.2-36.84-34.45-51.82-11.16-11-24.38-20.22-39-25.95l-.23-.12a27.81,27.81,0,0,0-.84-7.34,26.63,26.63,0,0,0-2.11-5.49,26.86,26.86,0,0,1-1.16,7.44l-.31,1-1-.46a13.07,13.07,0,0,1-7.45-11.83c0-1.21.09-2.35.11-3.42a15.11,15.11,0,0,0-.21-3.1,16.26,16.26,0,0,0-2.34-5.77,25.43,25.43,0,0,0-9.46-8.43,60.88,60.88,0,0,0-9.68-4c.21.84.4,1.69.56,2.57a15.58,15.58,0,0,1,0,5.78,11.64,11.64,0,0,1-2.63,5.33,25.69,25.69,0,0,1-4.22,3.64c-.71.52-1.41,1-2.07,1.55s-1.25,1-1.94,1.68a23.06,23.06,0,0,0-3.52,3.39c-.71,1-.63,2.68-.45,4.36a15.62,15.62,0,0,1,.19,2.83,5.09,5.09,0,0,1-.35,1.64,3.44,3.44,0,0,1-1.15,1.47l-.55.39-.55-.29a31.5,31.5,0,0,0-6.87-2.68,32.31,32.31,0,0,0-6.28-1c.46,1,.81,2,1.17,3l1.37,4.07c.46,1.31.94,2.61,1.49,3.89l-.37.16a77.77,77.77,0,0,0-8.84,4.45c-20,11.79-34.54,30.83-46.84,50.13A378,378,0,0,0,193.8,283.56c-1.64,9-3,18.13-3.92,27.28-2.94,30.45-1.69,70.66,28.46,87.76,2.14,1.21,13.06,3.8,8.4,7.4-2.4,1.85-14.51,3-13.88,6.69.7,4.07,12.4,4.42,15.16,4.64a157,157,0,0,0,17.62.25c.53,0,1.45,0,2.42,0,.14-1.74.13-3.59.15-5.43s0-3.87.07-5.8c.07-3.85.18-7.69.2-11.52a152.15,152.15,0,0,0-1.34-22.9,55.65,55.65,0,0,0-2.69-11.1A30.07,30.07,0,0,0,242,355.7a18.55,18.55,0,0,0-3.62-4.43,22.82,22.82,0,0,1,6.83,9.28,57.16,57.16,0,0,1,3.39,11.15,136.23,136.23,0,0,1,2.23,23.12c.1,3.87.11,7.73.09,11.58,0,1.92,0,3.83,0,5.76s.07,3.86-.08,5.9a14.12,14.12,0,0,1-.56,3.14l-.12.39c-.05.14-.12.3-.19.45a5.41,5.41,0,0,1-.47.85,6.49,6.49,0,0,1-1.25,1.35,21.79,21.79,0,0,1-5.48,2.84c-1.7.71-3.31,1.61-3.6,2.61a2.07,2.07,0,0,0-.1.85,4.84,4.84,0,0,0,.06.5l.14.48a5.1,5.1,0,0,0,1.25,1.77c.12.11.27.21.41.33a5.49,5.49,0,0,1,.23-3.1,6.58,6.58,0,0,1,2.79-3.36,8.4,8.4,0,0,1,2-.78,12.49,12.49,0,0,1,1.87-.39,13.64,13.64,0,0,1,3.89-.05,13.39,13.39,0,0,1-3.14,2.29c-1.12.61-2.21,1.06-3.05,1.5a9.26,9.26,0,0,0-2.27,1.93,12.66,12.66,0,0,0-1.91,3l.47-.39a14.81,14.81,0,0,0,3.2,1.55,19.2,19.2,0,0,0,2.59.75,22.4,22.4,0,0,0,2.68.41c.46.05.93.06,1.4.09a2.7,2.7,0,0,1-.44-.9,3.62,3.62,0,0,1,.16-2.18,7.07,7.07,0,0,1,2.48-3,9.91,9.91,0,0,1,3.23-1.62,7.41,7.41,0,0,1,3.66-.16,28.12,28.12,0,0,1-2.61,2.27c-.84.67-1.66,1.3-2.49,1.91a23.66,23.66,0,0,0-2.22,1.75,3.27,3.27,0,0,0-.74,1,2.58,2.58,0,0,0-.21,1.56l.55-.56a49.13,49.13,0,0,0,8.4-.43,36.53,36.53,0,0,0,5.43-1.12,14.8,14.8,0,0,0,4.65-2.47,20.2,20.2,0,0,0,3.8-3.87,25.54,25.54,0,0,0,2.86-4.7,10.16,10.16,0,0,0,.53-1.25,11.47,11.47,0,0,0,.43-1.29c.27-.88.49-1.8.71-2.73l1.23-5.62c.81-3.76,1.61-7.54,2.58-11.29a113.69,113.69,0,0,1,3.47-11.08,48.6,48.6,0,0,1,5.15-10.36c-3.71,6.78-5.64,14.28-7.19,21.77-.78,3.72-1.42,7.46-2.06,11.22a311.75,311.75,0,0,0,33.14,5.43c21.5,2.29,43.67,2.36,64.81-2.68a87,87,0,0,0,8.66-2.58c0-.15-.06-.3-.08-.46-.62-3.71-.81-7.39-1.24-11-.21-1.8-.51-3.62-.79-5.44s-.56-3.63-.93-5.41a32.2,32.2,0,0,0-1.72-5.19c-.65-1.72-1.25-3.46-1.84-5.21.73,1.69,1.47,3.37,2.26,5a32.69,32.69,0,0,1,2.07,5.16c.49,1.8.88,3.6,1.28,5.4s.8,3.6,1.12,5.44c.62,3.66,1,7.33,1.72,10.85a31.16,31.16,0,0,0,1.51,5.12,26.77,26.77,0,0,0,2.44,4.69,20.16,20.16,0,0,0,7.49,7,12.37,12.37,0,0,0,2.34.92c.8.24,1.7.43,2.56.61a44.88,44.88,0,0,0,5.31.72,51.54,51.54,0,0,0,5.7.11l.55.56a2.47,2.47,0,0,0-.21-1.55,3,3,0,0,0-.73-1,22.31,22.31,0,0,0-2.23-1.76c-.83-.61-1.65-1.24-2.49-1.9a29.91,29.91,0,0,1-2.61-2.28,7.41,7.41,0,0,1,3.66.16,10.06,10.06,0,0,1,3.24,1.62,7.13,7.13,0,0,1,2.47,3,3.62,3.62,0,0,1,.16,2.18,2.79,2.79,0,0,1-.44.92,33.9,33.9,0,0,0,3.54-.4,20,20,0,0,0,4.87-1.58,11.92,11.92,0,0,0,1.48-.83l.45.38a12.87,12.87,0,0,0-1.91-3,9.24,9.24,0,0,0-2.27-1.92c-.84-.44-1.93-.89-3.05-1.51a13.55,13.55,0,0,1-3.14-2.28,13.28,13.28,0,0,1,3.89.05,12.23,12.23,0,0,1,1.87.39,8,8,0,0,1,2,.77,6.61,6.61,0,0,1,2.79,3.37,5.47,5.47,0,0,1,.23,3.12,6,6,0,0,0,1.3-1.42,3.72,3.72,0,0,0,.57-1.85,2,2,0,0,0-.11-.84,1.94,1.94,0,0,0-.41-.72c-.78-.95-2.47-1.65-4.13-2.29a21.18,21.18,0,0,1-5.33-2.59,7.8,7.8,0,0,1-1.23-1.21,4.68,4.68,0,0,1-.88-1.72,9.08,9.08,0,0,1-.27-1.57c-.06-.52-.09-1-.1-1.48a106,106,0,0,1,.44-11.19c.28-3.69.68-7.36,1.13-11,.89-7.33,2-14.62,3.49-21.86.76-3.62,1.59-7.22,2.61-10.77a54.15,54.15,0,0,1,1.74-5.27,23,23,0,0,1,1.16-2.52,7.54,7.54,0,0,1,1.67-2.21,7.18,7.18,0,0,0-1.46,2.31,23.26,23.26,0,0,0-.95,2.57c-.55,1.74-1,3.52-1.4,5.31-.79,3.58-1.4,7.2-1.93,10.83-1.11,7.26-1.93,14.56-2.61,21.86-.33,3.65-.61,7.31-.84,11-.19,3.41-.35,6.87-.24,10.2,5.43.86,11.34.45,16.71.29A155.5,155.5,0,0,0,459,411.27c2.36-.36,4,0,2.58-2.3-1.6-2.7-4-4-6.93-5-2.41-.83-9.31-1-10.72-3.45-.77-1.35.08-2.06,1-2.95,1.35-1.35,4-2.21,5.61-3.24q3-1.89,5.8-4.06A69.65,69.65,0,0,0,475.15,368c9-16.73,10.94-36.34,9.18-55-2.25-23.75-9.26-47.37-17.28-69.75C458.4,219.12,447.66,195.75,436.22,172.78Z"/><path d="M529.73,207.84c8.85-7.68,19.57-15.8,15.94-28-1.7-5.72-6.62-8.35-11.7-4.89a103.25,103.25,0,0,1-16.68,9.74c-12.8,5.63-26.71,9.41-38.53,17.08-5.91,3.84-10.17,9-14.73,14.27-1,1.15-2,2.31-3,3.47q-3.48-8.4-7.21-16.69c-5.4-12-11.15-23.88-17.06-35.65-3.59-7.14-7.17-14.26-11.28-21.07a62.67,62.67,0,0,0,38.87-23.89c12.35-16,18.53-36.31,21.64-56.07A201.82,201.82,0,0,0,488.44,37c.11-8.93-.49-24.09-12.77-24.4-4.85-.13-7.8,3.44-10.23,7.2a72,72,0,0,1-13.68,16.33c-11.52,9.95-25.13,17.4-38.35,24.81-12.89,7.22-38.13,18.71-38.69,36.3a104.85,104.85,0,0,0-11.88-5.38,24.77,24.77,0,0,0-.43-4.46,27.09,27.09,0,0,0-3.05-8.4L358,76.67l.08,2.73a25.56,25.56,0,0,1-1.1,8.39,11,11,0,0,1-4.94-9.54c0-1.06.17-2.17.24-3.35a17.85,17.85,0,0,0-.18-3.64,19.27,19.27,0,0,0-2.56-6.78A24.77,24.77,0,0,0,345,59a32,32,0,0,0-5.8-4.05,68.35,68.35,0,0,0-12.8-5.17l-2.65-.84.77,2.66c1,3.35,1.94,6.67,1.35,9.67a9,9,0,0,1-2,4.05,23,23,0,0,1-3.7,3.3c-.69.54-1.4,1.08-2.11,1.66s-1.42,1.25-2,1.82l-1.95,1.78a9.89,9.89,0,0,0-1.94,2.28,6.34,6.34,0,0,0-.82,3.1,18.32,18.32,0,0,0,.23,2.83,15,15,0,0,1,.27,2.42,2.42,2.42,0,0,1-.24,1.1A32,32,0,0,0,305,83.45a31.08,31.08,0,0,0-7.75-.64l-1.15,0,.6.94a25.68,25.68,0,0,1,1.86,3.75l1.65,4c.16.38.33.76.5,1.14a93.67,93.67,0,0,0-18.82,11.21c-11.3-8.45-26.06-11-39.92-11.68-18.14-.92-36.86,1.16-54.42-4.54-7.55-2.45-26.62-16.9-29.39-1.22-2.57,14.48,7.21,28.88,16.08,39.23,10.17,11.88,21.18,23.69,34.15,32.56a81.83,81.83,0,0,0,23,11q-2.24,4.14-4.37,8.28A381.09,381.09,0,0,0,207.45,222a86.7,86.7,0,0,0-9.87-6c-13.07-6.82-27.58-10.27-41.24-15.66a84.08,84.08,0,0,1-20.41-11.08c-4.05-3.09-8.47-4.25-11.71.75-4,6.15-1.2,14.22,2.69,19.62,3.27,4.54,7.74,7.89,12,11.48-8.26-4-18.2-6.88-16.75,3.22,1,6.72,4.66,12.26,9.39,17a1.61,1.61,0,0,0-1.27,1.47c-1.54,16.27,9.34,26.13,21.64,34.63,11.33,7.82,23.53,15.64,36.32,21.39-3,20.23-4.54,42.17.38,61.87a50,50,0,0,1-16.69,2.49c-12.78-.26-33.64-7-27.82-23.84a11.41,11.41,0,0,1,2.1-3.95c2.55-2.9,4.87-2.42,8.42-2.14,2,.16,3.94.23,5.31-1.43,2.56-3.08-.38-7.88-2.83-10-4-3.56-10.88-2.62-15.66-1.49a28.53,28.53,0,0,0-14.78,8.82c-7.53,8.42-13.09,23.06-10,34.28,3.73,13.59,17,23.44,30.14,26.94,17.12,4.57,34.83-.1,49.75-9.64.43.75.87,1.51,1.34,2.25a54,54,0,0,0,16.38,16.7,55.16,55.16,0,0,0,5.29,3c.46.23,2,1.14,3.25,1.72l-.31.12c-1.79.63-3.6,1.17-5.38,1.82-3.43,1.25-9.1,3.22-6.82,8,1.87,3.92,8,4.81,11.71,5.39a118.29,118.29,0,0,0,20,1c1.44,0,3.44.1,5.43.05a3.08,3.08,0,0,1-.28.54,3.87,3.87,0,0,1-.71.76,20.67,20.67,0,0,1-4.78,2.37,17,17,0,0,0-2.82,1.43,5.88,5.88,0,0,0-2.43,2.87,6.54,6.54,0,0,0,2.08,6.77,12.26,12.26,0,0,0,2.67,1.89A18.4,18.4,0,0,0,244,438.6a23.66,23.66,0,0,0,3,.83,25.21,25.21,0,0,0,3,.45,49.12,49.12,0,0,0,11.87-.35,37.6,37.6,0,0,0,5.85-1.33,17.61,17.61,0,0,0,5.44-3,25.18,25.18,0,0,0,7.16-9.67,18.39,18.39,0,0,0,1-2.9c.26-1,.46-1.92.65-2.88s.38-1.91.55-2.87c22.32,4.83,45.28,7.68,68.13,6.78a160.59,160.59,0,0,0,32.59-4.44q3.58-.9,7.13-2a28.54,28.54,0,0,0,3.1,7.12,21.83,21.83,0,0,0,8.26,8.09,16,16,0,0,0,2.77,1.15c1,.3,1.85.5,2.79.72a48.43,48.43,0,0,0,5.61.87,45.93,45.93,0,0,0,11.4-.31,23.5,23.5,0,0,0,5.61-1.79,14.43,14.43,0,0,0,2.62-1.57,8.93,8.93,0,0,0,2.26-2.39,6.76,6.76,0,0,0,1-3.36,5.15,5.15,0,0,0-1.23-3.54,8.45,8.45,0,0,0-2.67-2c-.92-.45-1.82-.8-2.69-1.13a19.29,19.29,0,0,1-4.6-2.15,4.45,4.45,0,0,1-.73-.7,1.86,1.86,0,0,1-.38-.72l0-.13.84.08a142.66,142.66,0,0,0,20.88,0c5.57-.3,11.92-.22,17.32-1.85,3.77-1.13,2.9-4.86.85-7.65-3.27-4.44-9.46-5.46-14.47-6.64l-.43-.13c.93-.58,1.95-1.33,2.33-1.56a76.79,76.79,0,0,0,11.87-8.8c14-12.68,21.86-30.39,24.32-48.94s-.3-37.32-4.56-55.49a252.38,252.38,0,0,0,36.52-21.84c11.52-8.13,20.78-18,19.35-33a1.61,1.61,0,0,0-1.26-1.47c4.72-4.74,8.42-10.28,9.38-17C547.84,201,538,203.83,529.73,207.84,411.66,65.33c19.42-10.7,43.16-22.11,55-41.75,1.23-2,2.44-4.35,4.2-6,3.82-3.55,9-1.77,11.77,2.16,3.57,5.06,2.9,12.43,2.8,18.33a197.31,197.31,0,0,1-2.23,26.7c-2.67,17.28-7.62,34.72-17,49.61-9.88,15.65-24.59,26.07-42.37,29-1.18-1.86-2.39-3.7-3.68-5.51-11.19-15.68-25.56-29.39-42.35-38.95C376.77,82.86,400.06,71.72,411.66,65.33,195.07,143.48c-9.88-9.44-20.37-20-27.46-31.72-3.85-6.37-6.52-13.48-6.71-21-.14-5.56,2.32-10,8.21-8.18,2.79.87,5.29,2.52,7.87,3.86,12.82,6.63,27.17,8.05,41.38,8.32,17,.32,34.79-.86,50.91,5.52a45.83,45.83,0,0,1,10.11,5.51,121.14,121.14,0,0,0-12.24,11.42c-13.68,14.63-24.79,31.87-34.47,49.52l-.34-.1C218.13,162.36,205.7,153.65,195.07,143.48,158,278c-12.22-8.08-25.06-16.93-24.9-32.65l12.45,7.16c1.7,1,2.59,0,1-1.09-7.46-5.16-15.07-12.4-19.28-20.71-.89-1.75-2.37-4.69-2.2-6.76.37-4.37,4.33-3.13,7.39-2.08,5.12,1.75,11.38,3.27,15.85,6.29,1.19.81,1.46.15.55-1-5-6.62-12.23-10.74-17.7-16.87-3.31-3.71-6.26-8.73-5.9-13.88s3.88-8.41,8.49-5c1.22.92,2.4,1.87,3.67,2.74,13,8.92,28.86,12.8,43.52,18.08a107.42,107.42,0,0,1,25.36,12.92c-2.52,7.11-4.86,14.29-7,21.54q-5.13,17.84-8.5,36.1c-.77,4.2-1.52,8.54-2.22,13C178,290.79,167.71,284.36,158,278,-8.11,110c-15.58-3.29-33.84-17.21-30.75-35,2.29-13.24,9.54-27,23.75-30,3.6-.74,8.9-1.56,12,.87a7.7,7.7,0,0,1,1.27,1.46c1.61,2,1.87,2.08-.52,3.5s-2.87.58-5.19.77c-4.54.38-7.57,4.21-9.07,8.18-2.05,5.43-1.81,11.44,1.51,16.31,7.44,10.9,24,13.06,36,11.74a50,50,0,0,0,10.38-2.25,77.57,77.57,0,0,0,5.72,14.46C181.55,386.79,165.6,391.31,149.93,388,334.4-75c1.76,18.66-.22,38.27-9.18,55a69.65,69.65,0,0,1-18.82,22.21q-2.81,2.17-5.8,4.06c-1.64,1-4.26,1.89-5.61,3.24-.89.89-1.74,1.6-1,2.95,1.41,2.48,8.31,2.62,10.72,3.45,2.95,1,5.33,2.32,6.93,5,1.37,2.3-.22,1.94-2.58,2.3a155.5,155.5,0,0,1-19.16,1.46c-5.37.16-11.28.57-16.71-.29-.11-3.33.05-6.79.24-10.2.23-3.65.51-7.31.84-11,.68-7.3,1.5-14.6,2.61-21.86.53-3.63,1.14-7.25,1.93-10.83.4-1.79.85-3.57,1.4-5.31a23.26,23.26,0,0,1,.95-2.57,7.18,7.18,0,0,1,1.46-2.31,7.54,7.54,0,0,0-1.67,2.21,23,23,0,0,0-1.16,2.52A54.15,54.15,0,0,0,428,358.4c-1,3.55-1.85,7.15-2.61,10.77-1.46,7.24-2.6,14.53-3.49,21.86-.45,3.67-.85,7.34-1.13,11a106,106,0,0,0-.44,11.19c0,.47,0,1,.1,1.48a9.08,9.08,0,0,0,.27,1.57,4.68,4.68,0,0,0,.88,1.72,7.8,7.8,0,0,0,1.23,1.21,21.18,21.18,0,0,0,5.33,2.59c1.66.64,3.35,1.34,4.13,2.29a1.94,1.94,0,0,1,.41.72,2,2,0,0,1,.11.84,3.72,3.72,0,0,1-.57,1.85,6,6,0,0,1-1.3,1.42,5.47,5.47,0,0,0-.23-3.12,6.61,6.61,0,0,0-2.79-3.37,8,8,0,0,0-2-.77,12.23,12.23,0,0,0-1.87-.39,13.28,13.28,0,0,0-3.89-.05,13.55,13.55,0,0,0,3.14,2.28c1.12.62,2.21,1.07,3.05,1.51a9.24,9.24,0,0,1,2.27,1.92,12.87,12.87,0,0,1,1.91,3l-.45-.38a11.92,11.92,0,0,1-1.48.83,20,20,0,0,1-4.87,1.58,33.9,33.9,0,0,1-3.54.4,2.79,2.79,0,0,0,.44-.92,3.62,3.62,0,0,0-.16-2.18,7.13,7.13,0,0,0-2.47-3,10.06,10.06,0,0,0-3.24-1.62,7.41,7.41,0,0,0-3.66-.16,29.91,29.91,0,0,0,2.61,2.28c.84.66,1.66,1.29,2.49,1.9a22.31,22.31,0,0,1,2.23,1.76,3,3,0,0,1,.73,1,2.47,2.47,0,0,1,.21,1.55l-.55-.56a51.54,51.54,0,0,1-5.7-.11,44.88,44.88,0,0,1-5.31-.72c-.86-.18-1.76-.37-2.56-.61a12.37,12.37,0,0,1-2.34-.92,20.16,20.16,0,0,1-7.49-7,26.77,26.77,0,0,1-2.44-4.69,31.16,31.16,0,0,1-1.51-5.12c-.76-3.52-1.1-7.19-1.72-10.85-.32-1.84-.74-3.64-1.12-5.44s-.79-3.6-1.28-5.4a32.69,32.69,0,0,0-2.07-5.16c-.79-1.67-1.53-3.35-2.26-5,.59,1.75,1.19,3.49,1.84,5.21a32.2,32.2,0,0,1,1.72,5.19c.37,1.78.65,3.6.93,5.41s.58,3.64.79,5.44c.43,3.62.62,7.3,1.24,11,0,.16.06.31.08.46a87,87,0,0,1-8.66,2.58c-21.14,5-43.31,5-64.81,2.68A311.75,311.75,0,0,1,283,413.93c.64-3.76,1.28-7.5,2.06-11.22,1.55-7.49,3.48-15,7.19-21.77a48.6,48.6,0,0,0-5.15,10.36,113.69,113.69,0,0,0-3.47,11.08c-1,3.75-1.77,7.53-2.58,11.29l-1.23,5.62c-.22.93-.44,1.85-.71,2.73a11.47,11.47,0,0,1-.43,1.29,10.16,10.16,0,0,1-.53,1.25,25.54,25.54,0,0,1-2.86,4.7,20.2,20.2,0,0,1-3.8,3.87,14.8,14.8,0,0,1-4.65,2.47,36.53,36.53,0,0,1-5.43,1.12,49.13,49.13,0,0,1-8.4.43l-.55.56a2.58,2.58,0,0,1,.21-1.56,3.27,3.27,0,0,1,.74-1,23.66,23.66,0,0,1,2.22-1.75c.83-.61,1.65-1.24,2.49-1.91a28.12,28.12,0,0,0,2.61-2.27,7.41,7.41,0,0,0-3.66.16,9.91,9.91,0,0,0-3.23,1.62,7.07,7.07,0,0,0-2.48,3,3.62,3.62,0,0,0-.16,2.18,2.7,2.7,0,0,0,.44.9c-.47,0-.94,0-1.4-.09a22.4,22.4,0,0,1-2.68-.41,19.2,19.2,0,0,1-2.59-.75,14.81,14.81,0,0,1-3.2-1.55l-.47.39a12.66,12.66,0,0,1,1.91-3,9.26,9.26,0,0,1,2.27-1.93c.84-.44,1.93-.89,3.05-1.5a13.39,13.39,0,0,0,3.14-2.29,13.64,13.64,0,0,0-3.89.05,12.49,12.49,0,0,0-1.87.39,8.4,8.4,0,0,0-2,.78,6.58,6.58,0,0,0-2.79,3.36,5.49,5.49,0,0,0-.23,3.1c-.14-.12-.29-.22-.41-.33a5.1,5.1,0,0,1-1.25-1.77l-.14-.48a4.84,4.84,0,0,1-.06-.5,2.07,2.07,0,0,1,.1-.85c.29-1,1.9-1.9,3.6-2.61a21.79,21.79,0,0,0,5.48-2.84,6.49,6.49,0,0,0,1.25-1.35A5.41,5.41,0,0,0,250,422c.07-.15.14-.31.19-.45l.12-.39a14.12,14.12,0,0,0,.56-3.14c.15-2,.09-4,.08-5.9s-.05-3.84,0-5.76c0-3.85,0-7.71-.09-11.58a136.23,136.23,0,0,0-2.23-23.12,57.16,57.16,0,0,0-3.39-11.15,22.82,22.82,0,0,0-6.83-9.28A18.55,18.55,0,0,1,242,355.7a30.07,30.07,0,0,1,2.47,5.15,55.65,55.65,0,0,1,2.69,11.1,152.15,152.15,0,0,1,1.34,22.9c0,3.83-.13,7.67-.2,11.52,0,1.93-.06,3.87-.07,5.8s0,3.69-.15,5.43c-1,0-1.89,0-2.42,0a157,157,0,0,1-17.62-.25c-2.76-.22-14.46-.57-15.16-4.64-.63-3.65,11.48-4.84,13.88-6.69,4.66-3.6-6.26-6.19-8.4-7.4-30.15-17.1-31.4-57.31-28.46-87.76.89-9.15,2.28-18.24,3.92-27.28a378,378,0,0,1,52.48-133.67c12.3-19.3,26.81-38.34,46.84-50.13A77.77,77.77,0,0,1,302,95.31l.37-.16c-.55-1.28-1-2.58-1.49-3.89l-1.37-4.07c-.36-1-.71-2-1.17-3a32.31,32.31,0,0,1,6.28,1,31.5,31.5,0,0,1,6.87,2.68l.55.29.55-.39a3.44,3.44,0,0,0,1.15-1.47,5.09,5.09,0,0,0,.35-1.64,15.62,15.62,0,0,0-.19-2.83c-.18-1.68-.26-3.33.45-4.36A23.06,23.06,0,0,1,317.83,74c.69-.63,1.27-1.15,1.94-1.68s1.36-1,2.07-1.55a25.69,25.69,0,0,0,4.22-3.64,11.64,11.64,0,0,0,2.63-5.33,15.58,15.58,0,0,0,0-5.78c-.16-.88-.35-1.73-.56-2.57a60.88,60.88,0,0,1,9.68,4,25.43,25.43,0,0,1,9.46,8.43,16.26,16.26,0,0,1,2.34,5.77,15.11,15.11,0,0,1,.21,3.1c0,1.07-.12,2.21-.11,3.42a13.07,13.07,0,0,0,7.45,11.83l1,.46.31-1a26.86,26.86,0,0,0,1.16-7.44,26.63,26.63,0,0,1,2.11,5.49,27.81,27.81,0,0,1,.84,7.34l.23.12c14.62,5.73,27.84,15,39,25.95,15.25,15,25,32.88,34.45,51.82,11.44,23,22.18,46.34,30.83,70.51C475.07,265.67,482.08,289.29,484.33,313,56.87-95.58c-4.2,8.3-11.81,16-19.27,21.2-1.57,1.09-1.18,1.07.51.09,4.16-2.38,8.81-4.27,13-6.66.15,14.36-10.53,22.89-21.81,30.58a269,269,0,0,1-31.92,18.74q-.68-2.81-1.4-5.58a418.08,418.08,0,0,0-18-53.44c3.32-3.9,6.74-7.72,10.15-11.44,15.83-17.27,42.73-18.22,61.14-31.85,2.22-1.65,4.2-4.21,7.52-1.67,2.2,1.68,2.35,5.9,2,8.37-.68,4.73-3.46,8.93-6.76,12.28-5.41,5.5-11.95,10.56-16.66,16.77-.91,1.21-.64,1.36.56.56,4.24-2.87,10.23-4.79,15.07-6.52a16.23,16.23,0,0,1,3.93-1.26c1.43-.08,3.79-.17,4.42,1.84S541.94,216,541.2,217.46Z"/>            </clipPath>        </defs>        <g clip-path="url(#outline)">            <rect fill="#C5EDC5" width="640" height="480" />        </g>    </g>    <g id="pattern">        <g clip-path="url(#outline)">            <rect fill="#FFF0F0" opacity="0"  x="-0.83" y="-0.29" width="640" height="480"/>            <g opacity="0.6" ><path fill="#DDDDDD"  d="M286.24,418.84c2.35-25.61,9-59.28,49.93-60,40.34-.72,47.32,29.13,49.77,58.62.12,1.49,1.16.46-.05,1.63-1.38,1.32-6.5,1.94-9.42,2.8-13.77,4.06-27,4.48-42.76,4.36-16.09-.12-32.38-4.21-47-7.41"/></g>        </g>    </g>    <g id="mask">        <g opacity="0.2" ><path d="M190.92,136.34c13.84,13.42,28.43,21.15,45.92,27.84.25-3.65,2.94-7.2,4.83-10.07,2.57-3.9,4.15-8.24,6.76-12.13,3-4.45,6.5-9.89,11.08-12.95a86,86,0,0,0-12.73-7c-11.15-4.87-22.71-5.08-34.5-7.1a178.72,178.72,0,0,1-21.17-5c-5.49-1.65-12.61-6-18.28-6.08a3,3,0,0,0-3,3C170.12,116.53,185.54,131.13,190.92,136.34Z"/></g><g opacity="0.2" ><path d="M423.51,143.16a6.74,6.74,0,0,0,2.78-.48c1.35-.64,1.7-2.59,3-3.37a95.19,95.19,0,0,0,44-58.43c3.93-15.12,11.13-37.14-.43-50.57C463.77,40.52,458.56,53.83,449,63.66c-9.19,9.48-21.62,15-32.68,22.17-9.88,6.45-19.29,15.42-22.08,26.63,4.89,5.14,10.38,9.64,15.41,14.63s8.42,10.87,13,16.06C423,143.16,423.22,143.17,423.51,143.16Z"/></g><path fill="#fff"  d="M529.72,207.84c8.86-7.68,19.58-15.8,15.95-28-1.7-5.72-6.62-8.35-11.7-4.89a103.25,103.25,0,0,1-16.68,9.74c-12.8,5.63-26.71,9.41-38.53,17.08-5.91,3.83-10.17,9-14.73,14.27q-1.71,2-3.4,4a4.88,4.88,0,0,1,.67,2.57c0,.34,0,.67,0,1,2.72,3,3.63,7.24,4.62,11.11.87,3.38,1.83,6.71,2.8,10a5.11,5.11,0,0,1,1,1.82c2.1,6.8,6,12.84,6.27,20.09a16.46,16.46,0,0,1,2.62,5.88,5.79,5.79,0,0,1-.78,4.07c1,2.86,1.91,5.74,2.8,8.68a248,248,0,0,0,38.28-22.68c11.52-8.13,20.78-18,19.35-33A1.63,1.63,0,0,0,537,228.1c4.72-4.73,8.42-10.27,9.38-17C547.84,201,538,203.83,529.72,207.84Zm1.68,42.72c-2.49,2.24-5.57,3.69-8.48,5.37-7.66,4.43-14.21,10.51-21.34,15.75s-9.12,9.51-17.95,10.11a4.49,4.49,0,0,1-2.13-.24c-2.38-1.11,4.25.57,6.52-.75,23.26-13.52,44.43-22.52,48.52-44.71C535.5,241.27,535.57,246.83,531.4,250.56Z"/><path fill="#fff"  d="M190.87,291.09c0,.15-.07.3-.11.46C190.8,291.39,190.83,291.24,190.87,291.09Z"/><path fill="#fff"  d="M190.13,294.7c0,.17,0,.35-.07.52C190.08,295.05,190.1,294.87,190.13,294.7Z"/><path fill="#fff"  d="M189.58,296.83c-8.83-.6-13.74-4.59-20.87-9.84S155,275.67,147.36,271.24c-2.9-1.68-6-3.13-8.48-5.37-.85-.76-1.86-1.64-2.81-2.6,4.05,5.45,9.77,10,15.83,14.16,11.8,8.15,24.56,16.3,37.93,22.1a19.92,19.92,0,0,1,.09-3.16c0,.1,0,.2,0,.3A.29.29,0,0,1,189.58,296.83Z"/><path fill="#fff"  d="M207.23,227.7c.26-1,.51-2,.78-3a5.16,5.16,0,0,1,.77-1.69,87.13,87.13,0,0,0-11.2-7c-13.07-6.83-27.58-10.27-41.24-15.66a84.08,84.08,0,0,1-20.41-11.08c-4.05-3.09-8.47-4.25-11.71.75-4,6.15-1.21,14.22,2.69,19.62,3.27,4.54,7.74,7.89,12,11.48-8.26-4-18.2-6.88-16.75,3.22,1,6.72,4.66,12.26,9.39,17a1.61,1.61,0,0,0-1.27,1.47,28.2,28.2,0,0,0,2.64,15.28,4.35,4.35,0,0,1,0-1l1.5,3.92c10.62,11.52,38.18,32.28,55.5,35.69.41.09,1.14-7.32,1.34-6.94a1,1,0,0,0,0,.17c.51-1.91,1-3.6,1.42-4.79a.05.05,0,0,1,0,0,267.81,267.81,0,0,1,14.48-57Z"/><path fill="#fff"  d="M190.47,292.85c0,.18-.07.35-.11.53C190.4,293.2,190.43,293,190.47,292.85Z"/><g opacity="0.1" ><path d="M480.33,343.55c-1.82,3.4-3.69,6.77-5.68,10.08a107.84,107.84,0,0,1-13.23,18.12,62.92,62.92,0,0,1-11.06,9.47,61.09,61.09,0,0,1-6.25,3.66,33.52,33.52,0,0,1-5.53,2.51c-4,1.16-6.15-2.21-7.33-5.52a39.79,39.79,0,0,1-2.34-17.54,119.55,119.55,0,0,1,2.55-14.42l-1.94,4.49c-3.07,11.13-4.58,22.56-6,34a4.76,4.76,0,0,0,.26,2.2,3.1,3.1,0,0,0-.87.73c-2.06,2.51-.7,11.1-.82,14.3a.68.68,0,0,0,.09.45c.16.19.46.14.7.08a107.25,107.25,0,0,0,24.46-9.44,72.78,72.78,0,0,0,23.62-20.58c3.19-4.31,6.59-9,8.39-14.1,3.1-8.71,6.71-17.84,5.44-27C485,336.75,481.26,341.82,480.33,343.55Z"/></g><g opacity="0.1" ><path d="M389.58,402.28c-5.28,1.25-9.81,4.43-15.11,5.67a159.14,159.14,0,0,1-19.42,2.95c-22,2.28-44.36.82-66.17-2.85-1.83-5.46-1.1-11.69-.07-17.21.53-2.84,2-6.43,2.63-8.76-.35.47-.68,1-1,1.49a6.69,6.69,0,0,1-.66,2.49,12.9,12.9,0,0,1-1.36,2.33c-1.72,4.17-2.05,8.66-3,13-1.06,4.62-2.89,9-3.85,13.65q2.63.57,5.13,1.17c14.89,5.54,32.72,6.73,47.93,6.86,15.66.12,34.69-1.09,45-4.91,2.86-1.06,9.11-1.62,10.47-3.06,1.21-1.26-.64-1.68-.77-3.29C388.57,402.52,389.58,402.28,389.58,402.28Z"/></g><g opacity="0.1" ><path d="M267.44,141.52c10.77-16.34,18.69-32.74,33.67-45.33-23.63,13.11-39.09,27.13-54.25,52.63-14.37,24.18-29.63,52.92-39.63,78.88l-.13.34a267.81,267.81,0,0,0-14.48,57q-1.78,12.1-2.77,24.32c-1.55,18.79-2.14,43.32,5.59,62.64-16.67,9.88-37.46,17-54.49,6.48-27.5-17-13.92-45.72-13.92-45.72-4.27,5.38-6.39,7.66-8.46,20.59-1.9,11.88,7.22,23.3,16.78,29.36,16.52,10.47,36.17,8.7,53.27.83a60.94,60.94,0,0,0,9.53-5.66,50.22,50.22,0,0,0,6.42,9.51c10,11.56,21.38,19,39.1,21.26l5.4.72a82.94,82.94,0,0,0,.22-9.46,5.37,5.37,0,0,1,.11-1.09c-16.75-5.93-31.59-19.15-38.9-35.17-4-8.82-6.13-18.92-6.18-30.43-.13-27.62,3.21-61,10.78-87.26C226,208.23,245.69,174.5,267.44,141.52Z"/></g><g opacity="0.1" ><path d="M190.54,288.66c-15-19.17-43.77-18.1-58.8-37.26l1.14,5.66a4.35,4.35,0,0,0,0,1c.24,1.84,1.62,3.62,3.17,5.19,1,1,2,1.84,2.81,2.6,2.5,2.24,5.58,3.69,8.48,5.37,7.66,4.43,14.22,10.51,21.35,15.75s12,9.24,20.87,9.84a.29.29,0,0,0,.3-.16c0-.1,0-.2,0-.3,0-.38.08-.77.14-1.15,0-.17,0-.35.07-.52.07-.44.15-.88.23-1.32,0-.18.07-.35.11-.53.09-.44.19-.88.29-1.3,0-.16.07-.31.11-.46.1-.41.2-.8.31-1.19a1,1,0,0,1,0-.17A7.78,7.78,0,0,0,190.54,288.66Z"/></g><g opacity="0.1" ><path d="M479.7,272.94c-1.62,2.07-.58,7.5,1.8,8.61a4.49,4.49,0,0,0,2.13.24c8.83-.6,10.82-4.87,17.95-10.11s13.68-11.32,21.34-15.75c2.91-1.68,6-3.13,8.48-5.37,4.17-3.73,4.1-9.29,5.14-14.47C521.52,255.25,494.71,253.77,479.7,272.94Z"/></g>        <g opacity="0.1" ><path fill="#fff"  d="M379.9,103.06c6.06,5.3,10.42,13.69,14.49,20.51,4.46,7.47,8.88,15,13.37,22.42,13,21.7,26.15,43.75,37,66.65a328.37,328.37,0,0,1,23.41,68.9c2.75,12.34,4.9,24.8,6.59,37.33,1.4,10.34,4.07,22.69-2.47,31.88,4.28-6,9.86-10.61,11.34-14.66,5.27-14.38.19-32.18-2.49-46.67-5.44-29.5-15.47-57.88-26.93-85.53-11.28-27.21-25.53-53.07-44.83-75.49C393.13,109.56,380.12,103.25,379.9,103.06Z"/></g>    </g>    <g id="outline">        <path fill="none"  d="M232.67,166.75c9.68-17.65,20.79-34.89,34.47-49.52a121.14,121.14,0,0,1,12.24-11.42,45.83,45.83,0,0,0-10.11-5.51c-16.12-6.38-33.92-5.2-50.91-5.52-14.21-.27-28.56-1.69-41.38-8.32-2.58-1.34-5.08-3-7.87-3.86-5.89-1.82-8.35,2.62-8.21,8.18.19,7.5,2.86,14.61,6.71,21,7.09,11.74,17.58,22.28,27.46,31.72,10.63,10.17,23.06,18.88,37.26,23.17Z"/><path fill="none"  d="M190.91,282.76q3.41-18.24,8.5-36.1c2.09-7.25,4.43-14.43,7-21.54A107.42,107.42,0,0,0,181,212.2c-14.66-5.28-30.51-9.16-43.52-18.08-1.27-.87-2.45-1.82-3.67-2.74-4.61-3.46-8.13,0-8.49,5s2.59,10.17,5.9,13.88c5.47,6.13,12.69,10.25,17.7,16.87.91,1.2.64,1.86-.55,1-4.47-3-10.73-4.54-15.85-6.29-3.06-1.05-7-2.29-7.39,2.08-.17,2.07,1.31,5,2.2,6.76,4.21,8.31,11.82,15.55,19.28,20.71,1.57,1.08.68,2.06-1,1.09l-12.45-7.16C133,261,145.82,269.89,158,278c9.67,6.39,19.94,12.82,30.65,17.76C189.39,291.3,190.14,287,190.91,282.76Z"/><path fill="none"  d="M179,365.86c-12,1.32-28.59-.84-36-11.74-3.32-4.87-3.56-10.88-1.51-16.31,1.5-4,4.53-7.8,9.07-8.18,2.32-.19,2.86.62,5.19-.77s2.13-1.51.52-3.5A7.7,7.7,0,0,0,155,323.9c-3.14-2.43-8.44-1.61-12-.87-14.21,2.92-21.46,16.71-23.75,30-3.09,17.82,15.17,31.74,30.75,35s31.62-1.22,45.17-9.94a77.57,77.57,0,0,1-5.72-14.46A50,50,0,0,1,179,365.86Z"/><path fill="none"  d="M420.12,137.87c1.29,1.81,2.5,3.65,3.68,5.51,17.78-2.92,32.49-13.34,42.37-29,9.41-14.89,14.36-32.33,17-49.61a197.31,197.31,0,0,0,2.23-26.7c.1-5.9.77-13.27-2.8-18.33-2.77-3.93-7.95-5.71-11.77-2.16-1.76,1.64-3,3.95-4.2,6-11.84,19.64-35.58,31.05-55,41.75-11.6,6.39-34.89,17.53-33.89,33.59C394.56,108.48,408.93,122.19,420.12,137.87Z"/><path fill="none"  d="M539.17,207.63a16.23,16.23,0,0,0-3.93,1.26c-4.84,1.73-10.83,3.65-15.07,6.52-1.2.8-1.47.65-.56-.56,4.71-6.21,11.25-11.27,16.66-16.77,3.3-3.35,6.08-7.55,6.76-12.28.36-2.47.21-6.69-2-8.37-3.32-2.54-5.3,0-7.52,1.67-18.41,13.63-45.31,14.58-61.14,31.85-3.41,3.72-6.83,7.54-10.15,11.44a418.08,418.08,0,0,1,18,53.44q.72,2.78,1.4,5.58a269,269,0,0,0,31.92-18.74c11.28-7.69,22-16.22,21.81-30.58-4.15,2.39-8.8,4.28-13,6.66-1.69,1-2.08,1-.51-.09,7.46-5.15,15.07-12.9,19.27-21.2.74-1.46,3-6.11,2.39-8S540.6,207.55,539.17,207.63Z"/><path fill="none"  d="M436.22,172.78c-9.43-18.94-19.2-36.84-34.45-51.82-11.16-11-24.38-20.22-39-25.95l-.23-.12a27.81,27.81,0,0,0-.84-7.34,26.63,26.63,0,0,0-2.11-5.49,26.86,26.86,0,0,1-1.16,7.44l-.31,1-1-.46a13.07,13.07,0,0,1-7.45-11.83c0-1.21.09-2.35.11-3.42a15.11,15.11,0,0,0-.21-3.1,16.26,16.26,0,0,0-2.34-5.77,25.43,25.43,0,0,0-9.46-8.43,60.88,60.88,0,0,0-9.68-4c.21.84.4,1.69.56,2.57a15.58,15.58,0,0,1,0,5.78,11.64,11.64,0,0,1-2.63,5.33,25.69,25.69,0,0,1-4.22,3.64c-.71.52-1.41,1-2.07,1.55s-1.25,1-1.94,1.68a23.06,23.06,0,0,0-3.52,3.39c-.71,1-.63,2.68-.45,4.36a15.62,15.62,0,0,1,.19,2.83,5.09,5.09,0,0,1-.35,1.64,3.44,3.44,0,0,1-1.15,1.47l-.55.39-.55-.29a31.5,31.5,0,0,0-6.87-2.68,32.31,32.31,0,0,0-6.28-1c.46,1,.81,2,1.17,3l1.37,4.07c.46,1.31.94,2.61,1.49,3.89l-.37.16a77.77,77.77,0,0,0-8.84,4.45c-20,11.79-34.54,30.83-46.84,50.13A378,378,0,0,0,193.8,283.56c-1.64,9-3,18.13-3.92,27.28-2.94,30.45-1.69,70.66,28.46,87.76,2.14,1.21,13.06,3.8,8.4,7.4-2.4,1.85-14.51,3-13.88,6.69.7,4.07,12.4,4.42,15.16,4.64a157,157,0,0,0,17.62.25c.53,0,1.45,0,2.42,0,.14-1.74.13-3.59.15-5.43s0-3.87.07-5.8c.07-3.85.18-7.69.2-11.52a152.15,152.15,0,0,0-1.34-22.9,55.65,55.65,0,0,0-2.69-11.1A30.07,30.07,0,0,0,242,355.7a18.55,18.55,0,0,0-3.62-4.43,22.82,22.82,0,0,1,6.83,9.28,57.16,57.16,0,0,1,3.39,11.15,136.23,136.23,0,0,1,2.23,23.12c.1,3.87.11,7.73.09,11.58,0,1.92,0,3.83,0,5.76s.07,3.86-.08,5.9a14.12,14.12,0,0,1-.56,3.14l-.12.39c-.05.14-.12.3-.19.45a5.41,5.41,0,0,1-.47.85,6.49,6.49,0,0,1-1.25,1.35,21.79,21.79,0,0,1-5.48,2.84c-1.7.71-3.31,1.61-3.6,2.61a2.07,2.07,0,0,0-.1.85,4.84,4.84,0,0,0,.06.5l.14.48a5.1,5.1,0,0,0,1.25,1.77c.12.11.27.21.41.33a5.49,5.49,0,0,1,.23-3.1,6.58,6.58,0,0,1,2.79-3.36,8.4,8.4,0,0,1,2-.78,12.49,12.49,0,0,1,1.87-.39,13.64,13.64,0,0,1,3.89-.05,13.39,13.39,0,0,1-3.14,2.29c-1.12.61-2.21,1.06-3.05,1.5a9.26,9.26,0,0,0-2.27,1.93,12.66,12.66,0,0,0-1.91,3l.47-.39a14.81,14.81,0,0,0,3.2,1.55,19.2,19.2,0,0,0,2.59.75,22.4,22.4,0,0,0,2.68.41c.46.05.93.06,1.4.09a2.7,2.7,0,0,1-.44-.9,3.62,3.62,0,0,1,.16-2.18,7.07,7.07,0,0,1,2.48-3,9.91,9.91,0,0,1,3.23-1.62,7.41,7.41,0,0,1,3.66-.16,28.12,28.12,0,0,1-2.61,2.27c-.84.67-1.66,1.3-2.49,1.91a23.66,23.66,0,0,0-2.22,1.75,3.27,3.27,0,0,0-.74,1,2.58,2.58,0,0,0-.21,1.56l.55-.56a49.13,49.13,0,0,0,8.4-.43,36.53,36.53,0,0,0,5.43-1.12,14.8,14.8,0,0,0,4.65-2.47,20.2,20.2,0,0,0,3.8-3.87,25.54,25.54,0,0,0,2.86-4.7,10.16,10.16,0,0,0,.53-1.25,11.47,11.47,0,0,0,.43-1.29c.27-.88.49-1.8.71-2.73l1.23-5.62c.81-3.76,1.61-7.54,2.58-11.29a113.69,113.69,0,0,1,3.47-11.08,48.6,48.6,0,0,1,5.15-10.36c-3.71,6.78-5.64,14.28-7.19,21.77-.78,3.72-1.42,7.46-2.06,11.22a311.75,311.75,0,0,0,33.14,5.43c21.5,2.29,43.67,2.36,64.81-2.68a87,87,0,0,0,8.66-2.58c0-.15-.06-.3-.08-.46-.62-3.71-.81-7.39-1.24-11-.21-1.8-.51-3.62-.79-5.44s-.56-3.63-.93-5.41a32.2,32.2,0,0,0-1.72-5.19c-.65-1.72-1.25-3.46-1.84-5.21.73,1.69,1.47,3.37,2.26,5a32.69,32.69,0,0,1,2.07,5.16c.49,1.8.88,3.6,1.28,5.4s.8,3.6,1.12,5.44c.62,3.66,1,7.33,1.72,10.85a31.16,31.16,0,0,0,1.51,5.12,26.77,26.77,0,0,0,2.44,4.69,20.16,20.16,0,0,0,7.49,7,12.37,12.37,0,0,0,2.34.92c.8.24,1.7.43,2.56.61a44.88,44.88,0,0,0,5.31.72,51.54,51.54,0,0,0,5.7.11l.55.56a2.47,2.47,0,0,0-.21-1.55,3,3,0,0,0-.73-1,22.31,22.31,0,0,0-2.23-1.76c-.83-.61-1.65-1.24-2.49-1.9a29.91,29.91,0,0,1-2.61-2.28,7.41,7.41,0,0,1,3.66.16,10.06,10.06,0,0,1,3.24,1.62,7.13,7.13,0,0,1,2.47,3,3.62,3.62,0,0,1,.16,2.18,2.79,2.79,0,0,1-.44.92,33.9,33.9,0,0,0,3.54-.4,20,20,0,0,0,4.87-1.58,11.92,11.92,0,0,0,1.48-.83l.45.38a12.87,12.87,0,0,0-1.91-3,9.24,9.24,0,0,0-2.27-1.92c-.84-.44-1.93-.89-3.05-1.51a13.55,13.55,0,0,1-3.14-2.28,13.28,13.28,0,0,1,3.89.05,12.23,12.23,0,0,1,1.87.39,8,8,0,0,1,2,.77,6.61,6.61,0,0,1,2.79,3.37,5.47,5.47,0,0,1,.23,3.12,6,6,0,0,0,1.3-1.42,3.72,3.72,0,0,0,.57-1.85,2,2,0,0,0-.11-.84,1.94,1.94,0,0,0-.41-.72c-.78-.95-2.47-1.65-4.13-2.29a21.18,21.18,0,0,1-5.33-2.59,7.8,7.8,0,0,1-1.23-1.21,4.68,4.68,0,0,1-.88-1.72,9.08,9.08,0,0,1-.27-1.57c-.06-.52-.09-1-.1-1.48a106,106,0,0,1,.44-11.19c.28-3.69.68-7.36,1.13-11,.89-7.33,2-14.62,3.49-21.86.76-3.62,1.59-7.22,2.61-10.77a54.15,54.15,0,0,1,1.74-5.27,23,23,0,0,1,1.16-2.52,7.54,7.54,0,0,1,1.67-2.21,7.18,7.18,0,0,0-1.46,2.31,23.26,23.26,0,0,0-.95,2.57c-.55,1.74-1,3.52-1.4,5.31-.79,3.58-1.4,7.2-1.93,10.83-1.11,7.26-1.93,14.56-2.61,21.86-.33,3.65-.61,7.31-.84,11-.19,3.41-.35,6.87-.24,10.2,5.43.86,11.34.45,16.71.29A155.5,155.5,0,0,0,459,411.27c2.36-.36,4,0,2.58-2.3-1.6-2.7-4-4-6.93-5-2.41-.83-9.31-1-10.72-3.45-.77-1.35.08-2.06,1-2.95,1.35-1.35,4-2.21,5.61-3.24q3-1.89,5.8-4.06A69.65,69.65,0,0,0,475.15,368c9-16.73,10.94-36.34,9.18-55-2.25-23.75-9.26-47.37-17.28-69.75C458.4,219.12,447.66,195.75,436.22,172.78Z"/><path d="M529.73,207.84c8.85-7.68,19.57-15.8,15.94-28-1.7-5.72-6.62-8.35-11.7-4.89a103.25,103.25,0,0,1-16.68,9.74c-12.8,5.63-26.71,9.41-38.53,17.08-5.91,3.84-10.17,9-14.73,14.27-1,1.15-2,2.31-3,3.47q-3.48-8.4-7.21-16.69c-5.4-12-11.15-23.88-17.06-35.65-3.59-7.14-7.17-14.26-11.28-21.07a62.67,62.67,0,0,0,38.87-23.89c12.35-16,18.53-36.31,21.64-56.07A201.82,201.82,0,0,0,488.44,37c.11-8.93-.49-24.09-12.77-24.4-4.85-.13-7.8,3.44-10.23,7.2a72,72,0,0,1-13.68,16.33c-11.52,9.95-25.13,17.4-38.35,24.81-12.89,7.22-38.13,18.71-38.69,36.3a104.85,104.85,0,0,0-11.88-5.38,24.77,24.77,0,0,0-.43-4.46,27.09,27.09,0,0,0-3.05-8.4L358,76.67l.08,2.73a25.56,25.56,0,0,1-1.1,8.39,11,11,0,0,1-4.94-9.54c0-1.06.17-2.17.24-3.35a17.85,17.85,0,0,0-.18-3.64,19.27,19.27,0,0,0-2.56-6.78A24.77,24.77,0,0,0,345,59a32,32,0,0,0-5.8-4.05,68.35,68.35,0,0,0-12.8-5.17l-2.65-.84.77,2.66c1,3.35,1.94,6.67,1.35,9.67a9,9,0,0,1-2,4.05,23,23,0,0,1-3.7,3.3c-.69.54-1.4,1.08-2.11,1.66s-1.42,1.25-2,1.82l-1.95,1.78a9.89,9.89,0,0,0-1.94,2.28,6.34,6.34,0,0,0-.82,3.1,18.32,18.32,0,0,0,.23,2.83,15,15,0,0,1,.27,2.42,2.42,2.42,0,0,1-.24,1.1A32,32,0,0,0,305,83.45a31.08,31.08,0,0,0-7.75-.64l-1.15,0,.6.94a25.68,25.68,0,0,1,1.86,3.75l1.65,4c.16.38.33.76.5,1.14a93.67,93.67,0,0,0-18.82,11.21c-11.3-8.45-26.06-11-39.92-11.68-18.14-.92-36.86,1.16-54.42-4.54-7.55-2.45-26.62-16.9-29.39-1.22-2.57,14.48,7.21,28.88,16.08,39.23,10.17,11.88,21.18,23.69,34.15,32.56a81.83,81.83,0,0,0,23,11q-2.24,4.14-4.37,8.28A381.09,381.09,0,0,0,207.45,222a86.7,86.7,0,0,0-9.87-6c-13.07-6.82-27.58-10.27-41.24-15.66a84.08,84.08,0,0,1-20.41-11.08c-4.05-3.09-8.47-4.25-11.71.75-4,6.15-1.2,14.22,2.69,19.62,3.27,4.54,7.74,7.89,12,11.48-8.26-4-18.2-6.88-16.75,3.22,1,6.72,4.66,12.26,9.39,17a1.61,1.61,0,0,0-1.27,1.47c-1.54,16.27,9.34,26.13,21.64,34.63,11.33,7.82,23.53,15.64,36.32,21.39-3,20.23-4.54,42.17.38,61.87a50,50,0,0,1-16.69,2.49c-12.78-.26-33.64-7-27.82-23.84a11.41,11.41,0,0,1,2.1-3.95c2.55-2.9,4.87-2.42,8.42-2.14,2,.16,3.94.23,5.31-1.43,2.56-3.08-.38-7.88-2.83-10-4-3.56-10.88-2.62-15.66-1.49a28.53,28.53,0,0,0-14.78,8.82c-7.53,8.42-13.09,23.06-10,34.28,3.73,13.59,17,23.44,30.14,26.94,17.12,4.57,34.83-.1,49.75-9.64.43.75.87,1.51,1.34,2.25a54,54,0,0,0,16.38,16.7,55.16,55.16,0,0,0,5.29,3c.46.23,2,1.14,3.25,1.72l-.31.12c-1.79.63-3.6,1.17-5.38,1.82-3.43,1.25-9.1,3.22-6.82,8,1.87,3.92,8,4.81,11.71,5.39a118.29,118.29,0,0,0,20,1c1.44,0,3.44.1,5.43.05a3.08,3.08,0,0,1-.28.54,3.87,3.87,0,0,1-.71.76,20.67,20.67,0,0,1-4.78,2.37,17,17,0,0,0-2.82,1.43,5.88,5.88,0,0,0-2.43,2.87,6.54,6.54,0,0,0,2.08,6.77,12.26,12.26,0,0,0,2.67,1.89A18.4,18.4,0,0,0,244,438.6a23.66,23.66,0,0,0,3,.83,25.21,25.21,0,0,0,3,.45,49.12,49.12,0,0,0,11.87-.35,37.6,37.6,0,0,0,5.85-1.33,17.61,17.61,0,0,0,5.44-3,25.18,25.18,0,0,0,7.16-9.67,18.39,18.39,0,0,0,1-2.9c.26-1,.46-1.92.65-2.88s.38-1.91.55-2.87c22.32,4.83,45.28,7.68,68.13,6.78a160.59,160.59,0,0,0,32.59-4.44q3.58-.9,7.13-2a28.54,28.54,0,0,0,3.1,7.12,21.83,21.83,0,0,0,8.26,8.09,16,16,0,0,0,2.77,1.15c1,.3,1.85.5,2.79.72a48.43,48.43,0,0,0,5.61.87,45.93,45.93,0,0,0,11.4-.31,23.5,23.5,0,0,0,5.61-1.79,14.43,14.43,0,0,0,2.62-1.57,8.93,8.93,0,0,0,2.26-2.39,6.76,6.76,0,0,0,1-3.36,5.15,5.15,0,0,0-1.23-3.54,8.45,8.45,0,0,0-2.67-2c-.92-.45-1.82-.8-2.69-1.13a19.29,19.29,0,0,1-4.6-2.15,4.45,4.45,0,0,1-.73-.7,1.86,1.86,0,0,1-.38-.72l0-.13.84.08a142.66,142.66,0,0,0,20.88,0c5.57-.3,11.92-.22,17.32-1.85,3.77-1.13,2.9-4.86.85-7.65-3.27-4.44-9.46-5.46-14.47-6.64l-.43-.13c.93-.58,1.95-1.33,2.33-1.56a76.79,76.79,0,0,0,11.87-8.8c14-12.68,21.86-30.39,24.32-48.94s-.3-37.32-4.56-55.49a252.38,252.38,0,0,0,36.52-21.84c11.52-8.13,20.78-18,19.35-33a1.61,1.61,0,0,0-1.26-1.47c4.72-4.74,8.42-10.28,9.38-17C547.84,201,538,203.83,529.73,207.84ZM411.66,65.33c19.42-10.7,43.16-22.11,55-41.75,1.23-2,2.44-4.35,4.2-6,3.82-3.55,9-1.77,11.77,2.16,3.57,5.06,2.9,12.43,2.8,18.33a197.31,197.31,0,0,1-2.23,26.7c-2.67,17.28-7.62,34.72-17,49.61-9.88,15.65-24.59,26.07-42.37,29-1.18-1.86-2.39-3.7-3.68-5.51-11.19-15.68-25.56-29.39-42.35-38.95C376.77,82.86,400.06,71.72,411.66,65.33ZM195.07,143.48c-9.88-9.44-20.37-20-27.46-31.72-3.85-6.37-6.52-13.48-6.71-21-.14-5.56,2.32-10,8.21-8.18,2.79.87,5.29,2.52,7.87,3.86,12.82,6.63,27.17,8.05,41.38,8.32,17,.32,34.79-.86,50.91,5.52a45.83,45.83,0,0,1,10.11,5.51,121.14,121.14,0,0,0-12.24,11.42c-13.68,14.63-24.79,31.87-34.47,49.52l-.34-.1C218.13,162.36,205.7,153.65,195.07,143.48ZM158,278c-12.22-8.08-25.06-16.93-24.9-32.65l12.45,7.16c1.7,1,2.59,0,1-1.09-7.46-5.16-15.07-12.4-19.28-20.71-.89-1.75-2.37-4.69-2.2-6.76.37-4.37,4.33-3.13,7.39-2.08,5.12,1.75,11.38,3.27,15.85,6.29,1.19.81,1.46.15.55-1-5-6.62-12.23-10.74-17.7-16.87-3.31-3.71-6.26-8.73-5.9-13.88s3.88-8.41,8.49-5c1.22.92,2.4,1.87,3.67,2.74,13,8.92,28.86,12.8,43.52,18.08a107.42,107.42,0,0,1,25.36,12.92c-2.52,7.11-4.86,14.29-7,21.54q-5.13,17.84-8.5,36.1c-.77,4.2-1.52,8.54-2.22,13C178,290.79,167.71,284.36,158,278Zm-8.11,110c-15.58-3.29-33.84-17.21-30.75-35,2.29-13.24,9.54-27,23.75-30,3.6-.74,8.9-1.56,12,.87a7.7,7.7,0,0,1,1.27,1.46c1.61,2,1.87,2.08-.52,3.5s-2.87.58-5.19.77c-4.54.38-7.57,4.21-9.07,8.18-2.05,5.43-1.81,11.44,1.51,16.31,7.44,10.9,24,13.06,36,11.74a50,50,0,0,0,10.38-2.25,77.57,77.57,0,0,0,5.72,14.46C181.55,386.79,165.6,391.31,149.93,388Zm334.4-75c1.76,18.66-.22,38.27-9.18,55a69.65,69.65,0,0,1-18.82,22.21q-2.81,2.17-5.8,4.06c-1.64,1-4.26,1.89-5.61,3.24-.89.89-1.74,1.6-1,2.95,1.41,2.48,8.31,2.62,10.72,3.45,2.95,1,5.33,2.32,6.93,5,1.37,2.3-.22,1.94-2.58,2.3a155.5,155.5,0,0,1-19.16,1.46c-5.37.16-11.28.57-16.71-.29-.11-3.33.05-6.79.24-10.2.23-3.65.51-7.31.84-11,.68-7.3,1.5-14.6,2.61-21.86.53-3.63,1.14-7.25,1.93-10.83.4-1.79.85-3.57,1.4-5.31a23.26,23.26,0,0,1,.95-2.57,7.18,7.18,0,0,1,1.46-2.31,7.54,7.54,0,0,0-1.67,2.21,23,23,0,0,0-1.16,2.52A54.15,54.15,0,0,0,428,358.4c-1,3.55-1.85,7.15-2.61,10.77-1.46,7.24-2.6,14.53-3.49,21.86-.45,3.67-.85,7.34-1.13,11a106,106,0,0,0-.44,11.19c0,.47,0,1,.1,1.48a9.08,9.08,0,0,0,.27,1.57,4.68,4.68,0,0,0,.88,1.72,7.8,7.8,0,0,0,1.23,1.21,21.18,21.18,0,0,0,5.33,2.59c1.66.64,3.35,1.34,4.13,2.29a1.94,1.94,0,0,1,.41.72,2,2,0,0,1,.11.84,3.72,3.72,0,0,1-.57,1.85,6,6,0,0,1-1.3,1.42,5.47,5.47,0,0,0-.23-3.12,6.61,6.61,0,0,0-2.79-3.37,8,8,0,0,0-2-.77,12.23,12.23,0,0,0-1.87-.39,13.28,13.28,0,0,0-3.89-.05,13.55,13.55,0,0,0,3.14,2.28c1.12.62,2.21,1.07,3.05,1.51a9.24,9.24,0,0,1,2.27,1.92,12.87,12.87,0,0,1,1.91,3l-.45-.38a11.92,11.92,0,0,1-1.48.83,20,20,0,0,1-4.87,1.58,33.9,33.9,0,0,1-3.54.4,2.79,2.79,0,0,0,.44-.92,3.62,3.62,0,0,0-.16-2.18,7.13,7.13,0,0,0-2.47-3,10.06,10.06,0,0,0-3.24-1.62,7.41,7.41,0,0,0-3.66-.16,29.91,29.91,0,0,0,2.61,2.28c.84.66,1.66,1.29,2.49,1.9a22.31,22.31,0,0,1,2.23,1.76,3,3,0,0,1,.73,1,2.47,2.47,0,0,1,.21,1.55l-.55-.56a51.54,51.54,0,0,1-5.7-.11,44.88,44.88,0,0,1-5.31-.72c-.86-.18-1.76-.37-2.56-.61a12.37,12.37,0,0,1-2.34-.92,20.16,20.16,0,0,1-7.49-7,26.77,26.77,0,0,1-2.44-4.69,31.16,31.16,0,0,1-1.51-5.12c-.76-3.52-1.1-7.19-1.72-10.85-.32-1.84-.74-3.64-1.12-5.44s-.79-3.6-1.28-5.4a32.69,32.69,0,0,0-2.07-5.16c-.79-1.67-1.53-3.35-2.26-5,.59,1.75,1.19,3.49,1.84,5.21a32.2,32.2,0,0,1,1.72,5.19c.37,1.78.65,3.6.93,5.41s.58,3.64.79,5.44c.43,3.62.62,7.3,1.24,11,0,.16.06.31.08.46a87,87,0,0,1-8.66,2.58c-21.14,5-43.31,5-64.81,2.68A311.75,311.75,0,0,1,283,413.93c.64-3.76,1.28-7.5,2.06-11.22,1.55-7.49,3.48-15,7.19-21.77a48.6,48.6,0,0,0-5.15,10.36,113.69,113.69,0,0,0-3.47,11.08c-1,3.75-1.77,7.53-2.58,11.29l-1.23,5.62c-.22.93-.44,1.85-.71,2.73a11.47,11.47,0,0,1-.43,1.29,10.16,10.16,0,0,1-.53,1.25,25.54,25.54,0,0,1-2.86,4.7,20.2,20.2,0,0,1-3.8,3.87,14.8,14.8,0,0,1-4.65,2.47,36.53,36.53,0,0,1-5.43,1.12,49.13,49.13,0,0,1-8.4.43l-.55.56a2.58,2.58,0,0,1,.21-1.56,3.27,3.27,0,0,1,.74-1,23.66,23.66,0,0,1,2.22-1.75c.83-.61,1.65-1.24,2.49-1.91a28.12,28.12,0,0,0,2.61-2.27,7.41,7.41,0,0,0-3.66.16,9.91,9.91,0,0,0-3.23,1.62,7.07,7.07,0,0,0-2.48,3,3.62,3.62,0,0,0-.16,2.18,2.7,2.7,0,0,0,.44.9c-.47,0-.94,0-1.4-.09a22.4,22.4,0,0,1-2.68-.41,19.2,19.2,0,0,1-2.59-.75,14.81,14.81,0,0,1-3.2-1.55l-.47.39a12.66,12.66,0,0,1,1.91-3,9.26,9.26,0,0,1,2.27-1.93c.84-.44,1.93-.89,3.05-1.5a13.39,13.39,0,0,0,3.14-2.29,13.64,13.64,0,0,0-3.89.05,12.49,12.49,0,0,0-1.87.39,8.4,8.4,0,0,0-2,.78,6.58,6.58,0,0,0-2.79,3.36,5.49,5.49,0,0,0-.23,3.1c-.14-.12-.29-.22-.41-.33a5.1,5.1,0,0,1-1.25-1.77l-.14-.48a4.84,4.84,0,0,1-.06-.5,2.07,2.07,0,0,1,.1-.85c.29-1,1.9-1.9,3.6-2.61a21.79,21.79,0,0,0,5.48-2.84,6.49,6.49,0,0,0,1.25-1.35A5.41,5.41,0,0,0,250,422c.07-.15.14-.31.19-.45l.12-.39a14.12,14.12,0,0,0,.56-3.14c.15-2,.09-4,.08-5.9s-.05-3.84,0-5.76c0-3.85,0-7.71-.09-11.58a136.23,136.23,0,0,0-2.23-23.12,57.16,57.16,0,0,0-3.39-11.15,22.82,22.82,0,0,0-6.83-9.28A18.55,18.55,0,0,1,242,355.7a30.07,30.07,0,0,1,2.47,5.15,55.65,55.65,0,0,1,2.69,11.1,152.15,152.15,0,0,1,1.34,22.9c0,3.83-.13,7.67-.2,11.52,0,1.93-.06,3.87-.07,5.8s0,3.69-.15,5.43c-1,0-1.89,0-2.42,0a157,157,0,0,1-17.62-.25c-2.76-.22-14.46-.57-15.16-4.64-.63-3.65,11.48-4.84,13.88-6.69,4.66-3.6-6.26-6.19-8.4-7.4-30.15-17.1-31.4-57.31-28.46-87.76.89-9.15,2.28-18.24,3.92-27.28a378,378,0,0,1,52.48-133.67c12.3-19.3,26.81-38.34,46.84-50.13A77.77,77.77,0,0,1,302,95.31l.37-.16c-.55-1.28-1-2.58-1.49-3.89l-1.37-4.07c-.36-1-.71-2-1.17-3a32.31,32.31,0,0,1,6.28,1,31.5,31.5,0,0,1,6.87,2.68l.55.29.55-.39a3.44,3.44,0,0,0,1.15-1.47,5.09,5.09,0,0,0,.35-1.64,15.62,15.62,0,0,0-.19-2.83c-.18-1.68-.26-3.33.45-4.36A23.06,23.06,0,0,1,317.83,74c.69-.63,1.27-1.15,1.94-1.68s1.36-1,2.07-1.55a25.69,25.69,0,0,0,4.22-3.64,11.64,11.64,0,0,0,2.63-5.33,15.58,15.58,0,0,0,0-5.78c-.16-.88-.35-1.73-.56-2.57a60.88,60.88,0,0,1,9.68,4,25.43,25.43,0,0,1,9.46,8.43,16.26,16.26,0,0,1,2.34,5.77,15.11,15.11,0,0,1,.21,3.1c0,1.07-.12,2.21-.11,3.42a13.07,13.07,0,0,0,7.45,11.83l1,.46.31-1a26.86,26.86,0,0,0,1.16-7.44,26.63,26.63,0,0,1,2.11,5.49,27.81,27.81,0,0,1,.84,7.34l.23.12c14.62,5.73,27.84,15,39,25.95,15.25,15,25,32.88,34.45,51.82,11.44,23,22.18,46.34,30.83,70.51C475.07,265.67,482.08,289.29,484.33,313Zm56.87-95.58c-4.2,8.3-11.81,16-19.27,21.2-1.57,1.09-1.18,1.07.51.09,4.16-2.38,8.81-4.27,13-6.66.15,14.36-10.53,22.89-21.81,30.58a269,269,0,0,1-31.92,18.74q-.68-2.81-1.4-5.58a418.08,418.08,0,0,0-18-53.44c3.32-3.9,6.74-7.72,10.15-11.44,15.83-17.27,42.73-18.22,61.14-31.85,2.22-1.65,4.2-4.21,7.52-1.67,2.2,1.68,2.35,5.9,2,8.37-.68,4.73-3.46,8.93-6.76,12.28-5.41,5.5-11.95,10.56-16.66,16.77-.91,1.21-.64,1.36.56.56,4.24-2.87,10.23-4.79,15.07-6.52a16.23,16.23,0,0,1,3.93-1.26c1.43-.08,3.79-.17,4.42,1.84S541.94,216,541.2,217.46Z"/>    </g>    <g id="eye">        <g id="eye-color1">            <path fill="#C5EDC5"  d="M265.06,168.79l-16.27.91-.49.09c-1.94.33-4,.22-6,.44-3.86.44-7.72.71-11.59.91-1.93.09-3.71.53-5.65.58h-.18c2.22,3.46,4.15,6.83,6.91,9.83a47.38,47.38,0,0,0,10.41,8.15,36.87,36.87,0,0,0,11.85,4.55c4.17.82,8.6,1.64,12.84,1.22a56.61,56.61,0,0,0,6.33-1c2.08-.43,3.95-1.78,5.93-2.53a39.67,39.67,0,0,0,10.89-6.31c3.3-2.64,7.92-5.59,10-9.26,1.77-3,4.44-6.82,5.24-10.42l-20.39,1.2Z"/><path fill="#C5EDC5"  d="M290,125.25A44.34,44.34,0,0,0,269,117.17a47.18,47.18,0,0,0-22.17,2.63,38.24,38.24,0,0,0-9.75,5.36,35.5,35.5,0,0,0-7.64,8,32,32,0,0,0-4.63,10,52.14,52.14,0,0,0-1.67,11.08,48.58,48.58,0,0,0,.66,11.14,15.29,15.29,0,0,0,.71,2.53,3.79,3.79,0,0,0,.47.93h0c1.9,0,3.82-.11,5.73-.2,3.83-.18,7.5-.14,11.3-.49,1.9-.19,3.94-.66,5.81-.95l.7-.11.61-.13c.42-.09.88-.25,1.31-.36.89-.28,1.78-.58,2.68-.91,3.56-1.31,7.12-2.75,10.61-4.3,1.75-.78,3.76-1.27,5.47-2.11a35.62,35.62,0,0,0,4.59-2.51h.6l7.34-3.57,7.17-3.63,15.33-6.66h0A46.21,46.21,0,0,0,290,125.25Z"/><path fill="#C5EDC5"  d="M404.65,168.79l16.27.91.5.09c1.94.33,3.87-.42,5.8-.21,3.86.44,7.73.72,11.59.91,1.94.1,3.87,1.18,5.81,1.23h.18a70.33,70.33,0,0,1-7.4,9.78,44.91,44.91,0,0,1-9.92,8.2,36.93,36.93,0,0,1-11.86,4.55,46,46,0,0,1-13,1.07,56.6,56.6,0,0,1-6.29-1.18,37.67,37.67,0,0,1-5.78-2.18,39.38,39.38,0,0,1-10.89-6.31c-3.31-2.64-7.93-5.59-10-9.26-1.77-3-4.45-6.82-5.25-10.42l20.52,1.33Z"/><path fill="#C5EDC5"  d="M379.77,125.25a44.3,44.3,0,0,1,20.93-8.08,47.2,47.2,0,0,1,22.17,2.63,38.24,38.24,0,0,1,9.75,5.36,35.5,35.5,0,0,1,7.64,8,32.44,32.44,0,0,1,4.63,10,52.13,52.13,0,0,1,1.66,11.08,47.48,47.48,0,0,1-.66,11.14,15.3,15.3,0,0,1-.7,2.53,4.15,4.15,0,0,1-.48.93h0c-1.91,0-3.83-.11-5.74-.2-3.82-.18-7.49-.14-11.29-.49-1.9-.19-4-.66-5.81-.95l-.7-.11-.62-.13c-.41-.09-.87-.25-1.31-.36-.88-.28-1.78-.36-2.67-.69-3.57-1.31-6.92-2.22-10.42-3.77-1.74-.78-3.68-1.93-5.39-2.77s-3.42-1.26-4.84-2.27l-.3-.15-.32-.18-7-3.35-7.53-3.85-15.34-6.66h0A46.33,46.33,0,0,1,379.77,125.25Z"/>        </g>        <g id="eye-shape">            <path fill="none"  d="M265.06,168.79c-11.41.64-22.76,2.13-34.16,2.7q-2.9.15-5.8.23h-.18a70.27,70.27,0,0,0,7.39,9.78,44.73,44.73,0,0,0,9.93,8.2,36.87,36.87,0,0,0,11.85,4.55,43.94,43.94,0,0,0,12.7.48,56.61,56.61,0,0,0,6.33-1,39.8,39.8,0,0,0,17-8.1,33.06,33.06,0,0,0,8.16-9.47,53.41,53.41,0,0,0,4.24-9.78l-17.57,1.2Z"/><path fill="none"  d="M290,125.25A44.3,44.3,0,0,0,269,117.17a47.06,47.06,0,0,0-22.17,2.63,38.24,38.24,0,0,0-9.75,5.36,35.5,35.5,0,0,0-7.64,8,32,32,0,0,0-4.63,10,52.78,52.78,0,0,0-1.67,11.08,48.58,48.58,0,0,0,.66,11.14,15.29,15.29,0,0,0,.71,2.53,3.79,3.79,0,0,0,.47.93c1.93,0,3.85-.1,5.76-.19,5.86-.28,12-.34,17.69-1.65a86.07,86.07,0,0,0,15.33-5.6q2.63-1.17,5.19-2.43c4.15-2.11,8.18-4.29,12.46-6.14l7.52-3.25,15.33-6.66A46.21,46.21,0,0,0,290,125.25Zm-13.14,19c-2,1.22-4.1,2.33-6.16,3.5l-6.23,3.35-6.32,3.2-3.19,1.56c-1,.54-2.13,1.06-3.23,1.55a32.47,32.47,0,0,1-6.86,2.34,16.05,16.05,0,0,1-7.2,0c3.58.92,8.76-2.25,11.81-3.75q6.63-3.26,13.15-6.73c2.35-1.26,4.7-2.52,7.06-3.76a157.23,157.23,0,0,1,19.16-8.82C284.92,139.41,280.89,141.88,276.81,144.26Z"/><path fill="none"  d="M270,160.8h0c-1.73.91-3.46,1.78-5.21,2.61,1.75-.83,3.48-1.7,5.21-2.61Z"/><path fill="#fcfcfc"  d="M302.12,144l-12.35,6.3-7.42,3.78c-4.22,2.11-8.22,4.55-12.4,6.75h0c-1.73.91-3.46,1.78-5.21,2.61-3.51,1.66-7,3.25-10.68,4.64l-.1,0,10-1,17.54-1.67a12.21,12.21,0,0,1-.31-1.33,1.5,1.5,0,0,1-.07-.44,1.39,1.39,0,0,1,0-.46c.2-5,4.16-8.15,9.13-8.35h.12a3.76,3.76,0,0,1,1-.55l.08,0,.19-.08a1.32,1.32,0,0,1,1.4.32l2.26,1.67c.57.42,1.16.81,1.18,1.61,0,0,0,.1,0,.14a9.06,9.06,0,0,1,1.08,5.56c0,.17,0,.35-.07.52l6.14-.54a38.31,38.31,0,0,0-1.11-18.4C302.37,144.69,302.23,144.33,302.12,144Z"/><path d="M298,130.13a46.21,46.21,0,0,0-13.76-10.58c-11.32-6-26.37-6.39-38.31-2.16a42.81,42.81,0,0,0-10.53,5.55,36.51,36.51,0,0,0-4.53,3.91,38.57,38.57,0,0,0-3.84,4.62,34.54,34.54,0,0,0-5.12,10.85,55.69,55.69,0,0,0-1.74,11.73,50.44,50.44,0,0,0,.74,11.86,18.19,18.19,0,0,0,.85,3,7.15,7.15,0,0,0,.87,1.61,3.21,3.21,0,0,0,1,.9,2.34,2.34,0,0,0,.53.2c3.55,9,11.05,16.54,20,21.26.37.19.74.39,1.11.57l1.15.55.57.26.43.18c19.35,8.17,42.45.74,53.57-16.94,4.05-6.44,6.71-13.95,6.31-21.63C306.87,146.7,304,137.26,298,130.13Zm.47,46.24a44.31,44.31,0,0,1-13.76,12.7,42.72,42.72,0,0,1-20.94,6,43.72,43.72,0,0,1-38.61-23.24c26.05-1.91,52.62-3.81,78.67-5.72a38.81,38.81,0,0,1-3.12,6.77C300.05,174.07,299.3,175.24,298.5,176.37Zm5.08-12.92-6.14.54c0-.17.05-.35.07-.52a9.06,9.06,0,0,0-1.08-5.56,4.84,4.84,0,0,1-1.13,2.8c-1.64,1.87-4.54.92-5.73-1a3.68,3.68,0,0,1,.8-4.92h-.12c-5,.2-8.93,3.32-9.13,8.35a1.39,1.39,0,0,0,0,.46,1.5,1.5,0,0,0,.07.44,12.21,12.21,0,0,0,.31,1.33l-17.54,1.67-10,1,.1,0c3.65-1.39,7.17-3,10.68-4.64,1.75-.83,3.48-1.7,5.21-2.61h0c4.18-2.2,8.18-4.64,12.4-6.75l7.42-3.78,12.35-6.3c.11.36.25.72.35,1.08A38.31,38.31,0,0,1,303.58,163.45ZM289,149.52c-8.3,4-16.73,8.08-25.17,11.82a86.07,86.07,0,0,1-15.33,5.6c-5.74,1.31-11.83,1.37-17.69,1.65-1.91.09-3.83.16-5.76.19a3.79,3.79,0,0,1-.47-.93,15.29,15.29,0,0,1-.71-2.53,48.58,48.58,0,0,1-.66-11.14,52.78,52.78,0,0,1,1.67-11.08,32,32,0,0,1,4.63-10,35.5,35.5,0,0,1,7.64-8,38.24,38.24,0,0,1,9.75-5.36A47.06,47.06,0,0,1,269,117.17,44.3,44.3,0,0,1,290,125.25c6.16,4.47,9.78,10.46,13.1,17.41Z"/><path fill="#fff"  d="M295.26,156.16,293,154.49a1.32,1.32,0,0,0-1.4-.32l-.19.08-.08,0a3.76,3.76,0,0,0-1,.55,3.68,3.68,0,0,0-.8,4.92c1.19,1.88,4.09,2.83,5.73,1a4.84,4.84,0,0,0,1.13-2.8s0-.09,0-.14C296.42,157,295.83,156.58,295.26,156.16Z"/><path d="M262.58,149.26q-6.52,3.48-13.15,6.73c-3.05,1.5-8.23,4.67-11.81,3.75a16.05,16.05,0,0,0,7.2,0,32.47,32.47,0,0,0,6.86-2.34c1.1-.49,2.18-1,3.23-1.55l3.19-1.56,6.32-3.2,6.23-3.35c2.06-1.17,4.14-2.28,6.16-3.5,4.08-2.38,8.11-4.85,12-7.58a157.23,157.23,0,0,0-19.16,8.82C267.28,146.74,264.93,148,262.58,149.26Z"/><path fill="none"  d="M404.45,168.79c11.41.64,22.76,2.13,34.16,2.7,1.94.1,3.87.18,5.81.23h.18a70.33,70.33,0,0,1-7.4,9.78,44.91,44.91,0,0,1-9.92,8.2,36.93,36.93,0,0,1-11.86,4.55,43.91,43.91,0,0,1-12.7.48,57,57,0,0,1-6.33-1,39.85,39.85,0,0,1-16.95-8.1,32.9,32.9,0,0,1-8.16-9.47A53.41,53.41,0,0,1,367,166.4l17.57,1.2Z"/><path fill="none"  d="M365.23,142.86l15.34,6.66,7.51,3.25c4.28,1.85,8.32,4,12.46,6.14q2.56,1.26,5.19,2.43a86.17,86.17,0,0,0,15.34,5.6c5.73,1.31,11.83,1.37,17.68,1.65,1.91.09,3.83.16,5.76.19a4.15,4.15,0,0,0,.48-.93,15.3,15.3,0,0,0,.7-2.53,47.48,47.48,0,0,0,.66-11.14,52.13,52.13,0,0,0-1.66-11.08,32.44,32.44,0,0,0-4.63-10,35.5,35.5,0,0,0-7.64-8,38.24,38.24,0,0,0-9.75-5.36,47.07,47.07,0,0,0-22.17-2.63,44.3,44.3,0,0,0-20.93,8.08A46.33,46.33,0,0,0,365.23,142.86Zm15.49-6.18a157.79,157.79,0,0,1,19.15,8.82c2.37,1.24,4.72,2.5,7.07,3.76,4.35,2.32,8.72,4.56,13.15,6.73,3.05,1.5,8.23,4.67,11.81,3.75a16.05,16.05,0,0,1-7.2,0,32.75,32.75,0,0,1-6.87-2.34c-1.09-.49-2.18-1-3.23-1.55l-3.18-1.56-6.32-3.2-6.24-3.35c-2.05-1.17-4.13-2.28-6.15-3.5C388.63,141.88,384.6,139.41,380.72,136.68Z"/><path d="M362.18,155.9c-.4,7.68,2.26,15.19,6.31,21.63,11.12,17.68,34.22,25.11,53.57,16.94l.42-.18.58-.26,1.15-.55c.37-.18.74-.38,1.11-.57,8.95-4.72,16.46-12.22,20-21.26a2.54,2.54,0,0,0,.53-.2,3.21,3.21,0,0,0,1-.9,7.08,7.08,0,0,0,.86-1.61,19.26,19.26,0,0,0,.86-3,51,51,0,0,0,.74-11.86,55.69,55.69,0,0,0-1.74-11.73,34.76,34.76,0,0,0-5.12-10.85,39.54,39.54,0,0,0-3.84-4.62,36.6,36.6,0,0,0-4.54-3.91,42.46,42.46,0,0,0-10.53-5.55c-11.94-4.23-27-3.88-38.3,2.16a46.26,46.26,0,0,0-13.77,10.58C365.51,137.26,362.65,146.7,362.18,155.9Zm6.6,17a39.6,39.6,0,0,1-3.13-6.77c26.05,1.91,52.62,3.81,78.67,5.72a43.7,43.7,0,0,1-38.6,23.24,42.79,42.79,0,0,1-21-6A44.53,44.53,0,0,1,371,176.37C370.22,175.24,369.47,174.07,368.78,172.87ZM367,145.05c.11-.36.24-.72.36-1.08l12.35,6.3,7.41,3.78c4.23,2.11,8.23,4.55,12.4,6.75h0q2.58,1.37,5.21,2.61c3.5,1.66,7,3.25,10.68,4.64l.09,0-10-1L388,165.41a10.21,10.21,0,0,0,.3-1.33,1.91,1.91,0,0,0,.08-.44,1.72,1.72,0,0,0,0-.46c-.2-5-4.16-8.15-9.14-8.35h-.11a3.69,3.69,0,0,1,.8,4.92c-1.2,1.88-4.09,2.83-5.73,1a4.77,4.77,0,0,1-1.13-2.8,9,9,0,0,0-1.08,5.56c0,.17,0,.35.06.52l-6.13-.54A38.3,38.3,0,0,1,367,145.05Zm-.57-2.39c3.32-6.95,6.94-12.94,13.1-17.41a44.3,44.3,0,0,1,20.93-8.08,47.07,47.07,0,0,1,22.17,2.63,38.24,38.24,0,0,1,9.75,5.36,35.5,35.5,0,0,1,7.64,8,32.44,32.44,0,0,1,4.63,10,52.13,52.13,0,0,1,1.66,11.08,47.48,47.48,0,0,1-.66,11.14,15.3,15.3,0,0,1-.7,2.53,4.15,4.15,0,0,1-.48.93c-1.93,0-3.85-.1-5.76-.19-5.85-.28-11.95-.34-17.68-1.65a86.17,86.17,0,0,1-15.34-5.6c-8.43-3.74-16.86-7.78-25.16-11.82Z"/><path d="M406.94,149.26c4.35,2.32,8.72,4.56,13.15,6.73,3.05,1.5,8.23,4.67,11.81,3.75a16.05,16.05,0,0,1-7.2,0,32.75,32.75,0,0,1-6.87-2.34c-1.09-.49-2.18-1-3.23-1.55l-3.18-1.56-6.32-3.2-6.24-3.35c-2.05-1.17-4.13-2.28-6.15-3.5-4.08-2.38-8.11-4.85-12-7.58a157.79,157.79,0,0,1,19.15,8.82C402.24,146.74,404.59,148,406.94,149.26Z"/><path fill="none"  d="M404.37,169.08c11.42.64,22.77,2.13,34.16,2.7,1.94.1,3.87.18,5.81.23h.18a70.33,70.33,0,0,1-7.4,9.78,44.91,44.91,0,0,1-9.92,8.2,37,37,0,0,1-11.85,4.55,43.59,43.59,0,0,1-12.7.48,56.26,56.26,0,0,1-6.33-1,39.8,39.8,0,0,1-17-8.1,32.9,32.9,0,0,1-8.16-9.47,53.41,53.41,0,0,1-4.24-9.78l17.57,1.2Z"/><path fill="none"  d="M365.15,143.15l15.34,6.66,7.51,3.25c4.29,1.86,8.32,4,12.46,6.14,1.71.84,3.45,1.65,5.19,2.43a86.17,86.17,0,0,0,15.34,5.6c5.73,1.31,11.83,1.37,17.68,1.65,1.92.09,3.83.16,5.76.19a4.15,4.15,0,0,0,.48-.93,15.3,15.3,0,0,0,.7-2.53,47.48,47.48,0,0,0,.66-11.14,52.13,52.13,0,0,0-1.66-11.08,32.44,32.44,0,0,0-4.63-10,35.71,35.71,0,0,0-7.64-8,37.91,37.91,0,0,0-9.75-5.35,47.08,47.08,0,0,0-22.17-2.64,44.3,44.3,0,0,0-20.93,8.08A46.4,46.4,0,0,0,365.15,143.15ZM380.64,137a157.79,157.79,0,0,1,19.15,8.82c2.37,1.24,4.72,2.5,7.07,3.76q6.52,3.48,13.15,6.73c3.05,1.5,8.23,4.67,11.81,3.75a16.05,16.05,0,0,1-7.2,0,32.75,32.75,0,0,1-6.87-2.34c-1.09-.49-2.18-1-3.23-1.55l-3.18-1.56L405,151.4l-6.24-3.35c-2-1.17-4.13-2.28-6.15-3.5C388.55,142.17,384.52,139.7,380.64,137Z"/><path fill="none"  d="M399.48,161.09h0q2.58,1.36,5.21,2.61-2.62-1.24-5.21-2.61Z"/><path fill="#fcfcfc"  d="M367.32,144.26l12.35,6.3,7.41,3.78c4.23,2.11,8.23,4.55,12.4,6.75h0q2.58,1.36,5.21,2.61c3.5,1.66,7,3.25,10.68,4.64l.09,0-10-1L388,165.7a12.6,12.6,0,0,0,.31-1.32,1.63,1.63,0,0,0,.07-.45,1.72,1.72,0,0,0,0-.46c-.2-5-4.16-8.15-9.14-8.35h-.11a4,4,0,0,0-1-.55l-.07,0-.19-.08a1.31,1.31,0,0,0-1.4.32l-2.27,1.67c-.57.42-1.16.81-1.17,1.61,0,.05,0,.1,0,.14a9,9,0,0,0-1.08,5.56c0,.17,0,.35.06.52l-6.13-.53a38.33,38.33,0,0,1,1.1-18.41C367.07,145,367.2,144.62,367.32,144.26Z"/><path fill="#fff"  d="M374.17,156.45l2.27-1.67a1.31,1.31,0,0,1,1.4-.32l.19.08.07,0a4,4,0,0,1,1,.55,3.69,3.69,0,0,1,.8,4.92c-1.2,1.88-4.09,2.83-5.73,1a4.84,4.84,0,0,1-1.13-2.8s0-.09,0-.14C373,157.26,373.6,156.87,374.17,156.45Z"/><path d="M406.86,149.55q6.52,3.48,13.15,6.73c3.05,1.5,8.23,4.67,11.81,3.75a16.05,16.05,0,0,1-7.2,0,32.75,32.75,0,0,1-6.87-2.34c-1.09-.49-2.18-1-3.23-1.55l-3.18-1.56L405,151.4l-6.24-3.35c-2-1.17-4.13-2.28-6.15-3.5-4.08-2.38-8.11-4.85-12-7.58a157.79,157.79,0,0,1,19.15,8.82C402.16,147,404.51,148.29,406.86,149.55Z"/>        </g>        <g id="eye-color2">            <g opacity="0" ><path fill="#EFA16C"  d="M292.91,147.82c-.14.46-.21.94-.36,1.41a15.55,15.55,0,0,1-1.35,2.86c-.52.94-1,1.9-1.54,2.83-.24.41-.49.8-.77,1.2-.14.21-.28.41-.43.61s-.45.47-.45.6c-.2.25-.39.5-.6.74-5.88,7.05-13.9,9.8-22.69,6.54-8.53-3.18-14.2-10.41-14.65-19.54a1.27,1.27,0,0,1,0-.28,2.66,2.66,0,0,1,0-.3,23.29,23.29,0,0,1,19.05-21.81A19,19,0,0,1,280.54,124c-15.3-7.7-34.36-2.93-39.3,15.33a20.54,20.54,0,0,0-.66,6.53,29.4,29.4,0,0,0,10.48,20.24c8.59,7.08,21.5,6.67,31,1.77,7.19-3.7,10-12.61,10.92-20.46C293,147.57,293,147.69,292.91,147.82Z"/></g><g opacity="0" ><path fill="#EFA16C"  d="M416.66,141.76c-.23.62-.44,1.25-.69,1.86a26.23,26.23,0,0,1-2,3.66,31.67,31.67,0,0,1-2.54,3.43c-5.88,7-13.91,9.8-22.69,6.54-8.54-3.18-14.21-10.41-14.66-19.54a2.46,2.46,0,0,1,0-.28,1.45,1.45,0,0,1,0-.3,23.28,23.28,0,0,1,19-21.81,19,19,0,0,1,11.42,1.35c-15.3-7.7-34.36-2.93-39.3,15.33a21.13,21.13,0,0,0-.66,6.53,29.44,29.44,0,0,0,10.48,20.24c8.59,7.08,21.5,6.67,31,1.77,6.91-3.55,9.73-12,10.78-19.66C416.83,141.13,416.76,141.51,416.66,141.76Z"/></g>        </g>    </g>    <g id="nose-mouth">        <path d="M354.67,215.41a40.33,40.33,0,0,0,6.77-9,61.4,61.4,0,0,1-11.77,10.35,14.61,14.61,0,0,1-1.65,1c-.57.3-1.1.65-1.68.93l-1.73.8c-.57.27-1.18.44-1.77.67a28.91,28.91,0,0,1-5.86,1.47l-.35-6.22-.52,0c7-1.39,16.38-11,14.26-16.95-4-11.35-32.41-5.28-35.28,1.42-3.55,8.28,11.16,15.16,18.54,15.67l.36,6.31a37,37,0,0,1-13.51-2.21c-1-.35-2-.74-3-1.15l-.2-.08-.14-.06a62.37,62.37,0,0,1-10.65-5.88,38.59,38.59,0,0,0,10.33,8l0,.22a14.87,14.87,0,0,0,2.82,10.44c2.79,3.71,7.36,6,13.55,6.8a27.59,27.59,0,0,0,3.3.21,19.25,19.25,0,0,0,16.7-9c3-4.74,3.66-10.3,1.6-13.5Zm-18.18-18c1.07-4.29,11.19-2.37,9.52,1.43S335.43,201.61,336.49,197.36Z"/><path fill="#c4223a"  d="M323.72,231.05h0s3.54,4.22,12.43,4.29c8,.06,11.84-4.4,12.56-5.32l.13-.18C337.8,225.8,325.41,230.38,323.72,231.05Z"/><path fill="#8e1725"  d="M335.7,226.3a36,36,0,0,1-15.9-2.91,11.15,11.15,0,0,0,3.92,7.66c1.69-.67,14.08-5.25,25.12-1.21l-.13.18a17,17,0,0,0,2-2.5,13.25,13.25,0,0,0,2.26-8.31A26.59,26.59,0,0,1,335.7,226.3Z"/><path fill="#fff"  d="M346,198.79c1.67-3.8-8.45-5.72-9.52-1.43S344.34,202.58,346,198.79Z"/>    </g></svg>