<!--  ~ Copyright (C) 2018 Baidu, Inc. All Rights Reserved.  --><svg viewBox="0 0 640 480" xmlns="http://www.w3.org/2000/svg">    <g id="back-ground-cl">        <rect fill="none" width="640" height="480" />        <ellipse opacity="0.1" cx="331.93" cy="418.82" rx="168.39" ry="32.01"/>    </g>    <g id="body">        <defs>            <clipPath id="outline">                <path fill="none"  d="M295.17,95.68c-8-20.46-24.84-58.25-36.27-60.84-6.79-1.54-21.21,5-36.75,16.7S195.29,76.25,194.89,83c-.55,9.35,8.57,21.9,17.43,29,5.25,4.19,10.21,6.29,13,5.49,7.48-2.17,31.78-28.83,40.51-38.92l1.08-1.24,21.51,22.39C290.59,98.25,292.85,96.92,295.17,95.68Z"/><path fill="none"  d="M406.11,70.18l.87.66c18.6,14.17,40.36,29.07,44.08,28.89,5.39-.32,31.52-19.11,33-37.42.64-8.16-12.41-22.21-30.35-32.69-23.54-13.75-39.78-13.38-47.13-8.44C389.55,32.6,366.4,72.29,356.63,90a99.64,99.64,0,0,1,13.52,5.18Z"/><path fill="none"  d="M167,345.32c-16.78-1.85-27-9.3-29.61-21.54-3.42-16.17,3.88-28.61,11.05-36.48-9.9,6.95-21.66,19.33-19.49,38.17a38.8,38.8,0,0,0,19.84,30c11.65,6.62,26.69,8.09,39.86,4.2a106.25,106.25,0,0,1-2.33-14.44A89.86,89.86,0,0,1,167,345.32Z"/><path fill="none"  d="M470.21,252.4a21.19,21.19,0,0,1-2.19.14c-.09,0-.16-.51-.21-.51h.05c2.07.05,6.47-3.05,7-5.07.43-1.59-4.27-5.62-7.34-6.76l.31.12c1.33.26,6.23-.88,8.31-2.36a3.37,3.37,0,0,0,1.4-2.41c.53-3.78-7.86-8.93-13.28-10.66l-.1-.36c1.56.48,7.11-.12,9.53-1.71a3.92,3.92,0,0,0,1.68-3.1c.54-5-19.81-25.44-34.78-36.92l.7.43q-2.51-5.14-5.05-10.27c-9.42-18.92-19.18-36.8-34.41-51.76C388,107.59,371,96.61,352.06,91.76A77.38,77.38,0,0,0,293.33,100c-20,11.78-34.51,30.8-46.79,50.08a365.55,365.55,0,0,0-18.3,32.22c1.5-1.19,2.73-2.14,3.53-2.76l.33.38c-15,11.49-34.32,31.92-33.79,36.93A4,4,0,0,0,200,220c2.41,1.59,8,1.19,9.52.71l-.1.36c-5.41,1.73-13.81,7.88-13.27,11.66a3.37,3.37,0,0,0,1.4,2.41,14.26,14.26,0,0,0,7.8,1.86l.32-.12c-3.08,1.14-7.28,5.67-6.84,7.26.55,2,5,5.11,7,5.07l.06,1s-.12-.5-.21-.5a18.72,18.72,0,0,1-3.54-.34q-4.8,16.93-8,34.28c-1.64,9-3,18.12-3.91,27.25-2.94,30.42-1.69,70.59,28.43,87.67,2.13,1.21,13,3.79,8.39,7.39-2.4,1.85-14.49,3-13.87,6.68.7,4.07,12.39,4.42,15.15,4.64a154.25,154.25,0,0,0,17.6.24c.52,0,1.44,0,2.41,0,.15-1.74.14-3.58.15-5.43s0-3.86.07-5.78c.07-3.85.18-7.69.2-11.52a151.82,151.82,0,0,0-1.33-22.87,55.56,55.56,0,0,0-2.69-11.09,30,30,0,0,0-2.47-5.14,18.3,18.3,0,0,0-3.62-4.42,22.64,22.64,0,0,1,6.82,9.26,56.42,56.42,0,0,1,3.4,11.14,135.88,135.88,0,0,1,2.22,23.1c.1,3.86.11,7.72.09,11.56,0,1.92,0,3.83,0,5.75s.07,3.86-.08,5.9a13.4,13.4,0,0,1-.56,3.13l-.12.39c-.05.15-.12.31-.18.45a4.67,4.67,0,0,1-.48.85,6.77,6.77,0,0,1-1.24,1.36,22.47,22.47,0,0,1-5.48,2.84c-1.69.7-3.31,1.6-3.59,2.59a2.12,2.12,0,0,0-.11.85,4.26,4.26,0,0,0,.06.5l.15.48a4.77,4.77,0,0,0,1.24,1.77l.41.33a5.45,5.45,0,0,1,.23-3.09,6.54,6.54,0,0,1,2.79-3.36,8.51,8.51,0,0,1,2-.78,12.35,12.35,0,0,1,1.88-.39,13.23,13.23,0,0,1,3.88,0,13.42,13.42,0,0,1-3.14,2.28c-1.12.61-2.2,1.06-3,1.5a9.08,9.08,0,0,0-2.27,1.93,12.58,12.58,0,0,0-1.91,3l.47-.39a15,15,0,0,0,3.19,1.55,19.2,19.2,0,0,0,2.59.75,22.72,22.72,0,0,0,2.68.41c.46,0,.93.06,1.39.09a2.88,2.88,0,0,1-.43-.9,3.62,3.62,0,0,1,.16-2.18,7.11,7.11,0,0,1,2.47-3,10,10,0,0,1,3.24-1.61,7.37,7.37,0,0,1,3.65-.16,26.88,26.88,0,0,1-2.61,2.27c-.84.66-1.66,1.29-2.48,1.9a22.31,22.31,0,0,0-2.23,1.76,3.25,3.25,0,0,0-.73,1,2.58,2.58,0,0,0-.21,1.56h0l.55-.56a49,49,0,0,0,8.39-.43,36.13,36.13,0,0,0,5.42-1.12,14.6,14.6,0,0,0,4.65-2.47,20.1,20.1,0,0,0,3.79-3.86,25,25,0,0,0,2.86-4.7,10.16,10.16,0,0,0,.53-1.25,11.29,11.29,0,0,0,.43-1.28c.27-.88.49-1.81.71-2.73l1.22-5.61c.81-3.76,1.62-7.54,2.58-11.28a115.41,115.41,0,0,1,3.47-11.07,48.3,48.3,0,0,1,5.15-10.35c-3.71,6.77-5.64,14.26-7.18,21.75-.78,3.71-1.42,7.45-2.07,11.2a314.19,314.19,0,0,0,33.11,5.43c21.48,2.29,43.62,2.35,64.74-2.68a84.24,84.24,0,0,0,8.65-2.58c0-.15-.05-.3-.08-.45-.62-3.71-.81-7.39-1.24-11-.2-1.8-.51-3.61-.78-5.43s-.56-3.63-.94-5.4a31.73,31.73,0,0,0-1.71-5.18q-1-2.6-1.84-5.21c.73,1.69,1.47,3.37,2.25,5a30.89,30.89,0,0,1,2.07,5.16c.5,1.8.88,3.6,1.28,5.4s.8,3.58,1.12,5.42c.62,3.66,1,7.33,1.72,10.85a31,31,0,0,0,1.51,5.11,26.68,26.68,0,0,0,2.44,4.68,20.18,20.18,0,0,0,7.47,7,14.57,14.57,0,0,0,2.34.92c.8.24,1.71.43,2.57.61a44.53,44.53,0,0,0,5.29.71,51.54,51.54,0,0,0,5.7.11l.55.57a2.5,2.5,0,0,0-.21-1.56,3.25,3.25,0,0,0-.73-1,25,25,0,0,0-2.22-1.75c-.83-.61-1.65-1.24-2.49-1.9a28.31,28.31,0,0,1-2.61-2.28,7.41,7.41,0,0,1,3.66.17,9.89,9.89,0,0,1,3.23,1.61,7,7,0,0,1,2.47,3,3.52,3.52,0,0,1,.16,2.17,2.79,2.79,0,0,1-.44.92c1.2-.08,2.38-.2,3.53-.39a20.26,20.26,0,0,0,4.87-1.58,15.2,15.2,0,0,0,1.48-.83l.45.38a12.87,12.87,0,0,0-1.91-3,9.39,9.39,0,0,0-2.26-1.92c-.84-.44-1.93-.89-3.05-1.5a13.39,13.39,0,0,1-3.14-2.29,13.64,13.64,0,0,1,3.89.05,12.49,12.49,0,0,1,1.87.39,8.58,8.58,0,0,1,2,.78,6.52,6.52,0,0,1,2.78,3.36,5.47,5.47,0,0,1,.23,3.12,6.14,6.14,0,0,0,1.3-1.42,3.93,3.93,0,0,0,.57-1.85,2.25,2.25,0,0,0-.11-.84,1.9,1.9,0,0,0-.41-.71c-.78-.95-2.47-1.65-4.13-2.29a21.12,21.12,0,0,1-5.32-2.59,7.85,7.85,0,0,1-1.24-1.21,4.82,4.82,0,0,1-.87-1.72,8.21,8.21,0,0,1-.27-1.57c-.06-.51-.09-1-.11-1.48a108.6,108.6,0,0,1,.45-11.18c.28-3.68.67-7.35,1.13-11,.89-7.32,2-14.61,3.48-21.84.76-3.61,1.59-7.21,2.61-10.76a54.87,54.87,0,0,1,1.74-5.26A23,23,0,0,1,431,350.6a7.51,7.51,0,0,1,1.66-2.2,7.49,7.49,0,0,0-1.46,2.3,25.42,25.42,0,0,0-.94,2.57c-.55,1.74-1,3.52-1.4,5.31-.79,3.57-1.4,7.19-1.93,10.81-1.1,7.25-1.92,14.54-2.6,21.84q-.49,5.47-.84,10.95c-.19,3.41-.36,6.86-.24,10.19,5.42.86,11.33.44,16.69.28a155.16,155.16,0,0,0,19.14-1.45c2.36-.37,3.95,0,2.58-2.3-1.61-2.7-4-4-6.92-5-2.42-.82-9.31-1-10.72-3.45-.76-1.34.09-2.05,1-2.94,1.35-1.35,4-2.2,5.61-3.24,2-1.26,3.93-2.61,5.79-4.05A69.52,69.52,0,0,0,475.16,368c9-16.71,10.93-36.3,9.17-54.94C482.38,292.51,476.86,272.05,470.21,252.4Z"/><path d="M480.28,275.9c-2.09-8.12-4.5-16.15-7.14-24.1,2.05-.64,4-1.83,4.64-4.05.66-2.42-1-4.47-3.15-6a8.77,8.77,0,0,0,3.27-1.35,6.33,6.33,0,0,0,2.64-4.44c.57-4.05-3.48-7.35-7.58-9.61a8,8,0,0,0,2.4-1,6.85,6.85,0,0,0,3-5.29c.79-7.38-22.46-26.63-32.74-34.75q-4.32-9-8.82-17.93c-5.06-10.06-10.07-20.08-16.63-29.27-11.53-16.15-26.43-30.23-43.88-39.81-1-.56-2-1.1-3.07-1.62L406,73.89c8.12,6.16,38.47,28.84,45.06,28.84h.15c7.13-.42,34.26-20.91,35.77-40.17.87-11.12-15.89-26.21-31.83-35.52-16.22-9.48-38-16.64-50.32-8.34-17.94,12.06-41.58,52.86-51.21,70.43a81.66,81.66,0,0,0-31.41-2.27,77.88,77.88,0,0,0-24.39,7.47c-6.51-16.66-24.41-59.26-38.28-62.41-9.24-2.09-26.32,7.53-39.22,17.23S192.46,73.33,191.9,82.82c-.62,10.47,8.86,23.77,18.55,31.49,3.14,2.51,8.71,6.33,13.51,6.33a7.77,7.77,0,0,0,2.16-.29c4.21-1.23,12.57-8.34,24.85-21.13,7.09-7.39,13.53-14.65,16-17.48l18.87,19.64a115.31,115.31,0,0,0-18.48,16.09C251,135,238.22,156.37,227.23,177.64c-1.57,3-3.08,6.09-4.57,9.16-11.34,9.3-28,24.12-27.33,30.39a6.85,6.85,0,0,0,3,5.29,8.11,8.11,0,0,0,2.4,1c-4.1,2.26-8.14,5.56-7.57,9.61a6.29,6.29,0,0,0,2.64,4.44,8.7,8.7,0,0,0,3.27,1.35c-2.1,1.52-3.82,3.57-3.16,6a5.61,5.61,0,0,0,3.32,3.54q-4.81,17-8,34.39c-3.34,18.35-6.55,39.34-5.14,59.35-11.6,1.26-41.24,2.32-45.75-19-5.68-26.83,20.74-42.77,21-42.93l-1.28-2.7c-.38.14-38,14.38-34.1,48.28A41.72,41.72,0,0,0,147.31,358a53.68,53.68,0,0,0,26.43,6.72,56.15,56.15,0,0,0,15.65-2.22,75.23,75.23,0,0,0,8.79,20.37,53.92,53.92,0,0,0,16.36,16.68,52.83,52.83,0,0,0,5.29,3c.45.23,2,1.13,3.24,1.71a2.69,2.69,0,0,1-.31.12c-1.78.63-3.6,1.17-5.38,1.82-3.42,1.25-9.09,3.22-6.81,8,1.87,3.92,8,4.81,11.7,5.39a118.11,118.11,0,0,0,20,1c1.44,0,3.43.1,5.42.05a3.08,3.08,0,0,1-.28.54,3.55,3.55,0,0,1-.71.75,20.47,20.47,0,0,1-4.78,2.37,16.87,16.87,0,0,0-2.8,1.43,5.8,5.8,0,0,0-2.44,2.87,6.55,6.55,0,0,0,2.08,6.77,12.21,12.21,0,0,0,2.67,1.88,18.4,18.4,0,0,0,2.85,1.25,23.19,23.19,0,0,0,3,.83,27.21,27.21,0,0,0,3,.45,49,49,0,0,0,11.85-.35,37.34,37.34,0,0,0,5.85-1.33,17.41,17.41,0,0,0,5.44-3,25.12,25.12,0,0,0,7.15-9.66,17.94,17.94,0,0,0,1-2.89c.26-1,.45-1.92.65-2.88s.37-1.91.55-2.86c22.29,4.82,45.23,7.67,68.06,6.76a159.59,159.59,0,0,0,32.55-4.43c2.39-.6,4.76-1.26,7.12-2a28.47,28.47,0,0,0,3.1,7.11,21.88,21.88,0,0,0,8.25,8.09,16,16,0,0,0,2.77,1.14c.95.31,1.84.51,2.78.72a48.43,48.43,0,0,0,5.61.87,45.76,45.76,0,0,0,11.38-.31A23.06,23.06,0,0,0,430,433a13.82,13.82,0,0,0,2.62-1.56,8.74,8.74,0,0,0,2.25-2.39,6.77,6.77,0,0,0,1-3.36,5.14,5.14,0,0,0-1.23-3.53,8.09,8.09,0,0,0-2.68-2,25.61,25.61,0,0,0-2.67-1.13,19.49,19.49,0,0,1-4.6-2.15,5,5,0,0,1-.74-.7,2,2,0,0,1-.37-.72l0-.12.83.08a142.53,142.53,0,0,0,20.87,0c5.56-.29,11.9-.22,17.29-1.84,3.77-1.13,2.9-4.86.85-7.65-3.26-4.43-9.45-5.46-14.45-6.64l-.43-.12c.93-.58,1.95-1.33,2.33-1.56a76.58,76.58,0,0,0,11.86-8.78c14-12.68,21.84-30.36,24.29-48.89C489.81,318.41,485.66,296.72,480.28,275.9,406.54,21.18c7.35-4.94,23.59-5.31,47.13,8.44,17.94,10.48,31,24.53,30.35,32.69-1.44,18.31-27.57,37.1-33,37.42C447.34,99.91,425.58,85,407,70.84l-.87-.66-36,25A99.64,99.64,0,0,0,356.63,90C366.4,72.29,389.55,32.6,406.54,21.18,266.87,77.3l-1.08,1.24c-8.73,10.09-33,36.75-40.51,38.92-2.75.8-7.71-1.3-13-5.49-8.86-7.07-18-19.62-17.43-29,.4-6.75,11.61-19.69,27.26-31.46s30-18.24,36.75-16.7c11.43,2.59,28.3,40.38,36.27,60.84-2.32,1.24-4.58,2.57-6.79,4,148.79,355.43a38.8,38.8,0,0,1-19.84-30c-2.17-18.84,9.59-31.22,19.49-38.17-7.17,7.87-14.47,20.31-11.05,36.48C140,336,150.22,343.47,167,345.32a89.86,89.86,0,0,0,19.32-.13,106.25,106.25,0,0,0,2.33,14.44C175.48,363.52,160.44,362.05,148.79,355.43,475.16,368a69.52,69.52,0,0,1-18.8,22.19c-1.86,1.44-3.8,2.79-5.79,4.05-1.65,1-4.26,1.89-5.61,3.24-.88.89-1.73,1.6-1,2.94,1.41,2.49,8.3,2.63,10.72,3.45,2.94,1,5.31,2.32,6.92,5,1.37,2.3-.22,1.93-2.58,2.3a155.16,155.16,0,0,1-19.14,1.45c-5.36.16-11.27.58-16.69-.28-.12-3.33,0-6.78.24-10.19q.35-5.48.84-10.95c.68-7.3,1.5-14.59,2.6-21.84.53-3.62,1.14-7.24,1.93-10.81.4-1.79.85-3.57,1.4-5.31a25.42,25.42,0,0,1,.94-2.57,7.49,7.49,0,0,1,1.46-2.3,7.51,7.51,0,0,0-1.66,2.2,23,23,0,0,0-1.16,2.52,54.87,54.87,0,0,0-1.74,5.26c-1,3.55-1.85,7.15-2.61,10.76C424,376.37,422.87,383.66,422,391c-.46,3.66-.85,7.33-1.13,11a108.6,108.6,0,0,0-.45,11.18c0,.48.05,1,.11,1.48a8.21,8.21,0,0,0,.27,1.57,4.82,4.82,0,0,0,.87,1.72,7.85,7.85,0,0,0,1.24,1.21,21.12,21.12,0,0,0,5.32,2.59c1.66.64,3.35,1.34,4.13,2.29a1.9,1.9,0,0,1,.41.71,2.25,2.25,0,0,1,.11.84,3.93,3.93,0,0,1-.57,1.85,6.14,6.14,0,0,1-1.3,1.42,5.47,5.47,0,0,0-.23-3.12,6.52,6.52,0,0,0-2.78-3.36,8.58,8.58,0,0,0-2-.78,12.49,12.49,0,0,0-1.87-.39,13.64,13.64,0,0,0-3.89-.05,13.39,13.39,0,0,0,3.14,2.29c1.12.61,2.21,1.06,3.05,1.5a9.39,9.39,0,0,1,2.26,1.92,12.87,12.87,0,0,1,1.91,3l-.45-.38a15.2,15.2,0,0,1-1.48.83,20.26,20.26,0,0,1-4.87,1.58c-1.15.19-2.33.31-3.53.39a2.79,2.79,0,0,0,.44-.92,3.52,3.52,0,0,0-.16-2.17,7,7,0,0,0-2.47-3,9.89,9.89,0,0,0-3.23-1.61,7.41,7.41,0,0,0-3.66-.17,28.31,28.31,0,0,0,2.61,2.28c.84.66,1.66,1.29,2.49,1.9a25,25,0,0,1,2.22,1.75,3.25,3.25,0,0,1,.73,1,2.5,2.5,0,0,1,.21,1.56l-.55-.57a51.54,51.54,0,0,1-5.7-.11,44.53,44.53,0,0,1-5.29-.71c-.86-.18-1.77-.37-2.57-.61A14.57,14.57,0,0,1,403,430a20.18,20.18,0,0,1-7.47-7,26.68,26.68,0,0,1-2.44-4.68,31,31,0,0,1-1.51-5.11c-.75-3.52-1.1-7.19-1.72-10.85-.32-1.84-.73-3.63-1.12-5.42s-.78-3.6-1.28-5.4a30.89,30.89,0,0,0-2.07-5.16c-.78-1.66-1.52-3.34-2.25-5Q384,384,385,386.55a31.73,31.73,0,0,1,1.71,5.18c.38,1.77.65,3.59.94,5.4s.58,3.63.78,5.43c.43,3.62.62,7.3,1.24,11,0,.15.06.3.08.45a84.24,84.24,0,0,1-8.65,2.58c-21.12,5-43.26,5-64.74,2.68a314.19,314.19,0,0,1-33.11-5.43c.65-3.75,1.29-7.49,2.07-11.2,1.54-7.49,3.47-15,7.18-21.75a48.3,48.3,0,0,0-5.15,10.35,115.41,115.41,0,0,0-3.47,11.07c-1,3.74-1.77,7.52-2.58,11.28l-1.22,5.61c-.22.92-.44,1.85-.71,2.73a11.29,11.29,0,0,1-.43,1.28,10.16,10.16,0,0,1-.53,1.25,25,25,0,0,1-2.86,4.7,20.1,20.1,0,0,1-3.79,3.86,14.6,14.6,0,0,1-4.65,2.47,36.13,36.13,0,0,1-5.42,1.12,49,49,0,0,1-8.39.43l-.55.56h0a2.58,2.58,0,0,1,.21-1.56,3.25,3.25,0,0,1,.73-1,22.31,22.31,0,0,1,2.23-1.76c.82-.61,1.64-1.24,2.48-1.9A26.88,26.88,0,0,0,261,429.1a7.37,7.37,0,0,0-3.65.16,10,10,0,0,0-3.24,1.61,7.11,7.11,0,0,0-2.47,3,3.62,3.62,0,0,0-.16,2.18,2.88,2.88,0,0,0,.43.9c-.46,0-.93-.05-1.39-.09a22.72,22.72,0,0,1-2.68-.41,19.2,19.2,0,0,1-2.59-.75,15,15,0,0,1-3.19-1.55l-.47.39a12.58,12.58,0,0,1,1.91-3,9.08,9.08,0,0,1,2.27-1.93c.84-.44,1.92-.89,3-1.5a13.42,13.42,0,0,0,3.14-2.28,13.23,13.23,0,0,0-3.88,0,12.35,12.35,0,0,0-1.88.39,8.51,8.51,0,0,0-2,.78,6.54,6.54,0,0,0-2.79,3.36,5.45,5.45,0,0,0-.23,3.09l-.41-.33a4.77,4.77,0,0,1-1.24-1.77l-.15-.48a4.26,4.26,0,0,1-.06-.5,2.12,2.12,0,0,1,.11-.85c.28-1,1.9-1.89,3.59-2.59a22.47,22.47,0,0,0,5.48-2.84,6.77,6.77,0,0,0,1.24-1.36,4.67,4.67,0,0,0,.48-.85c.06-.14.13-.3.18-.45l.12-.39a13.4,13.4,0,0,0,.56-3.13c.15-2,.09-4,.08-5.9s0-3.83,0-5.75c0-3.84,0-7.7-.09-11.56a135.88,135.88,0,0,0-2.22-23.1,56.42,56.42,0,0,0-3.4-11.14,22.64,22.64,0,0,0-6.82-9.26,18.3,18.3,0,0,1,3.62,4.42,30,30,0,0,1,2.47,5.14,55.56,55.56,0,0,1,2.69,11.09,151.82,151.82,0,0,1,1.33,22.87c0,3.83-.13,7.67-.2,11.52,0,1.92-.06,3.86-.07,5.78s0,3.69-.15,5.43c-1,0-1.89,0-2.41,0a154.25,154.25,0,0,1-17.6-.24c-2.76-.22-14.45-.57-15.15-4.64-.62-3.64,11.47-4.83,13.87-6.68,4.65-3.6-6.26-6.18-8.39-7.39-30.12-17.08-31.37-57.25-28.43-87.67.88-9.13,2.27-18.21,3.91-27.25q3.24-17.33,8-34.28a18.72,18.72,0,0,0,3.54.34c.09,0,.16.5.21.5l-.06-1c-2,0-6.47-3.05-7-5.07-.44-1.59,3.76-6.12,6.84-7.26l-.32.12a14.26,14.26,0,0,1-7.8-1.86,3.37,3.37,0,0,1-1.4-2.41c-.54-3.78,7.86-9.93,13.27-11.66l.1-.36c-1.55.48-7.11.88-9.52-.71a4,4,0,0,1-1.69-3.1c-.53-5,18.81-25.44,33.79-36.93l-.33-.38c-.8.62-2,1.57-3.53,2.76a365.55,365.55,0,0,1,18.3-32.22c12.28-19.28,26.78-38.3,46.79-50.08a77.38,77.38,0,0,1,58.73-8.26C371,96.61,388,107.59,401.86,121.2c15.23,15,25,32.84,34.41,51.76q2.55,5.13,5.05,10.27l-.7-.43c15,11.48,35.32,31.91,34.78,36.92a3.92,3.92,0,0,1-1.68,3.1c-2.42,1.59-8,2.19-9.53,1.71l.1.36c5.42,1.73,13.81,6.88,13.28,10.66a3.37,3.37,0,0,1-1.4,2.41c-2.08,1.48-7,2.62-8.31,2.36l-.31-.12c3.07,1.14,7.77,5.17,7.34,6.76-.56,2-5,5.12-7,5.07h-.05c.05,0,.12.51.21.51a21.19,21.19,0,0,0,2.19-.14c6.65,19.65,12.17,40.11,14.12,60.67C486.09,331.71,484.12,351.3,475.16,368Z"/>            </clipPath>        </defs>        <g clip-path="url(#outline)">            <rect fill="#898989" width="640" height="480" />        </g>    </g>    <g id="pattern">        <g clip-path="url(#outline)">            <path fill="#D6BAA7"  d="M1,442.46c1.37,2.94,19.68,6,22.77,7s6.15-.27,9-1.43a323.08,323.08,0,0,1,142.75-22.27c2.15.15,4.45.29,6.3-.81s2.7-2.9,3.59-4.69q4.77-9.58,9.53-19.16c1.63-3.27,6-5.8,5.77-9.45a20.34,20.34,0,0,0-2-8.57c-11.34-23.45-10.71-37.68-12.14-56.56-.88-11.62,1.34-25.07,3.9-35.71,2.42-10-30.86-23.15-37-26-20.63-9.66-42.69-16.83-65.49-19.13-13.29-1.35-26.29-3.87-38.81-8.64-12.31-4.7-34-10.42-45.71-1.08-2.73,2.19-2.28,8.74-1.85,32.39"/><path fill="#D6BAA7"  d="M445.06,398.18c-7.45,2.67-17.16,4.17-25,4.7a7.81,7.81,0,0,1,.26,7.57c-.24.4-.42,1.59-.05,1.87.14.11.71.66.53.66,7,.22,13.87,1,20.85.84,3.7-.11,7.4-.37,11.08-.79q4-.45,8-1c1.13-.16,2.49-.54,2.25-1.94a8.34,8.34,0,0,0-1.3-2.86c-1.17-1.9-3.93-3.7-6.26-4.58-2.75-1-5.65-1.37-8.47-2.06a3.07,3.07,0,0,1-1.29-.53c-.42-.34-.77-.11-.73-.59A5.76,5.76,0,0,1,445.06,398.18Z"/><path fill="#D6BAA7"  d="M227.73,404.08a83.56,83.56,0,0,0,22.85,4.36c-.27,2.33-.23,5.47-.4,7.5,0,.46-.08,1.59-.45,1.87-.14.11-.68.14-.51.14s-18.76.61-29.52-1.14a25.64,25.64,0,0,1-4.68-1.46,3.71,3.71,0,0,1-2.54-3.42c0-1.29,1.71-3,2.85-3.37,1.87-.56,3.73-1.12,5.6-1.7l2.83-.9a5.3,5.3,0,0,0,2.24-1A16.69,16.69,0,0,1,227.73,404.08Z"/><path fill="#D6BAA7"  d="M250.5,401.61c-.08,5.55-.41,12.5-.49,13.65-.11,1.58.42,3.07,0,4.59-.79,2.77-4.89,4.49-7.48,5.75-1.89.92-4.12,2.32-3.93,4.41.07.77.73,1.35,1,2.09,1.61,5.25,8.87,5.47,13.89,5.47,6.22,0,11.92.36,17.37-2.64,2.25-1.25,2.58-2.68,5.79-5.61,4.87-4.45,5.47-19.87,6.78-26.37.23-1.19-2.6,7.7-2.65,6.51l-.54-13.9c-1.61,2.3-2.81,5.22-4.42,7.52-.66-3.2-3.17-6.89-3.83-10.09-1.06,4.47-2.36,9.21-3.34,13.84-2.14-2.88-3.09-6.19-4-9.2-.61,4.05-3.14,8.18-3.75,12.23l-2.55-8.67-1.62,6.75c-1.47-2.74-3.5-6.86-5-9.6C251.2,400.14,251.06,401.16,250.5,401.61Z"/><path fill="#D6BAA7"  d="M421.47,397.35c-.24,3.31.26,11.85.34,13a43.37,43.37,0,0,0,1.31,6.37c.8,2.77,3.26,2.85,5.85,4.12,1.89.92,6.76,2.58,6.58,4.67-.6,6.6-11.8,7.44-17,7.44-6.22,0-11.12-.08-16.57-3.09a24.69,24.69,0,0,1-6.91-6.33c-3.13-4.58-4-11.27-4.78-17.76-.59-4.6.81-10.34,1-15,1.61,2.29,2.81,5.22,4.42,7.52a48.53,48.53,0,0,0,3.83-10.1c1.06,4.48,2.36,9.21,3.34,13.84,2.15-2.88,3.1-6.18,4-9.2.62,4.05,3.14,8.19,3.76,12.24l2.54-8.68,1.62,6.75c1.48-2.74,3.51-6.85,5-9.59C420.5,395.32,420.79,395.77,421.47,397.35Z"/>            <g opacity="0" ><path fill="#FFFFEE"  d="M283.78,410.52c2.4-23.39,18.16-47,42.33-51.29,34.47-6.1,63.49,17.63,66,52.43.07,1,.26-.61-1.27.13a31.2,31.2,0,0,1-7.08,2.1,188.59,188.59,0,0,1-48.13,4c-17-1-34.65-2.65-50.3-6.84"/></g>        </g>    </g>    <g id="mask">        <path opacity="0.1"  d="M292.13,98S271,61.72,264.23,62.33s-41.34,22.61-47.65,30.14-12.83,11.61-11.4,14,13.35,14.79,20.52,12.38,36.79-32.36,41.22-39.38l20.94,22.11Z"/><path opacity="0.1"  d="M360.35,92.67S389.07,56,404.54,50.11s54.78,8.76,73.52,28.72c0,0-17.77,22.39-26.91,22.4S406.07,72,406.07,72L370.13,97Z"/><path opacity="0.1"  d="M153.05,282.06s-27.09,17.72-19.76,44,35.64,29.12,55.6,26.47l1,7.94s-44,13.64-58.85-22.2S153.05,282.06,153.05,282.06Z"/><path opacity="0.1"  d="M314,91.72s-42.9,22.54-66.79,83.9-57.84,121.64-44.53,177.31,47.51,47.78,47.51,47.78l.26,18.71s-40.92,3.15-38.14-7.65c1-3.72,14.74-7.37,14.74-7.37s-26.55-11-32.52-32.47-10.59-46.16,4.07-110.78c1-4.58,2.6-13.16,2.6-13.16s-4.57-1.42-3.34-4.62,5.9-5.5,5.9-5.5-9-.41-8.35-6.52c.56-5.55,11-8.35,11.81-9.36,0,0-13,4.27-9.57-7.54,2.23-7.59,25.05-23.62,26.92-27.78a226.1,226.1,0,0,1,30.51-49.87C267.83,121.05,281.14,100.41,314,91.72Z"/><path opacity="0.1"  d="M285.62,396.3s14.86,8.76,54,9.37,48.87-8.55,48.87-8.55l2.86,18.73s-25.26,8.55-52.34,6.52-50.91-3.67-57.22-6.93Z"/><g opacity="0.1" ><path d="M484.17,337.26c.23,1.7-3.5,6.77-4.43,8.5-1.82,3.4-3.69,6.77-5.68,10.08A108.34,108.34,0,0,1,460.84,374a63.59,63.59,0,0,1-11.06,9.46,60.26,60.26,0,0,1-6.26,3.67A33.15,33.15,0,0,1,438,389.6c-4,1.15-6.14-2.22-7.32-5.52a39.81,39.81,0,0,1-2.34-17.55,119.74,119.74,0,0,1,2.55-14.41l-1.94,4.49c-3.07,11.12-4.59,22.55-6,34a4.72,4.72,0,0,0,.26,2.19,3.48,3.48,0,0,0-.87.73c-2.06,2.52-.7,11.1-.82,14.3a.63.63,0,0,0,.09.45c.16.19.46.15.7.08a107.68,107.68,0,0,0,24.46-9.43c9.47-5.3,16.41-12.77,22.8-21.4,3.19-4.31,7.4-8.23,9.2-13.28C481.83,355.55,485.44,346.42,484.17,337.26Z"/></g>        <path fill="#fff" opacity="0.1"  d="M343.59,89.82s28.56,2.3,57.39,29.93c10.72,10.28,20.44,24.84,30.24,43,3.3,6.12,7.4,13.2,10.38,20.37l-1.42,1.63s39,29.07,35.13,36.35c-2.45,4.58-10.29,2.24-10.29,2.24l-.61,2.44s15.35,4.64,13.14,10.59c-1.63,4.38-9.06,2.65-9.06,2.65l-.62,2.44s7.54,2.85,7.23,5.5-7.33,2.75-7.33,2.75l.1,2.54s1.53,0,2.35-.1a304,304,0,0,1,9.57,32.58c3.26,15.07,6.72,34.42,4.78,51.32,0,0-18.26-70.25-45.95-130S373.45,105,343.59,89.82Z"/>    </g>    <g id="outline">        <path fill="none"  d="M295.17,95.68c-8-20.46-24.84-58.25-36.27-60.84-6.79-1.54-21.21,5-36.75,16.7S195.29,76.25,194.89,83c-.55,9.35,8.57,21.9,17.43,29,5.25,4.19,10.21,6.29,13,5.49,7.48-2.17,31.78-28.83,40.51-38.92l1.08-1.24,21.51,22.39C290.59,98.25,292.85,96.92,295.17,95.68Z"/><path fill="none"  d="M406.11,70.18l.87.66c18.6,14.17,40.36,29.07,44.08,28.89,5.39-.32,31.52-19.11,33-37.42.64-8.16-12.41-22.21-30.35-32.69-23.54-13.75-39.78-13.38-47.13-8.44C389.55,32.6,366.4,72.29,356.63,90a99.64,99.64,0,0,1,13.52,5.18Z"/><path fill="none"  d="M167,345.32c-16.78-1.85-27-9.3-29.61-21.54-3.42-16.17,3.88-28.61,11.05-36.48-9.9,6.95-21.66,19.33-19.49,38.17a38.8,38.8,0,0,0,19.84,30c11.65,6.62,26.69,8.09,39.86,4.2a106.25,106.25,0,0,1-2.33-14.44A89.86,89.86,0,0,1,167,345.32Z"/><path fill="none"  d="M470.21,252.4a21.19,21.19,0,0,1-2.19.14c-.09,0-.16-.51-.21-.51h.05c2.07.05,6.47-3.05,7-5.07.43-1.59-4.27-5.62-7.34-6.76l.31.12c1.33.26,6.23-.88,8.31-2.36a3.37,3.37,0,0,0,1.4-2.41c.53-3.78-7.86-8.93-13.28-10.66l-.1-.36c1.56.48,7.11-.12,9.53-1.71a3.92,3.92,0,0,0,1.68-3.1c.54-5-19.81-25.44-34.78-36.92l.7.43q-2.51-5.14-5.05-10.27c-9.42-18.92-19.18-36.8-34.41-51.76C388,107.59,371,96.61,352.06,91.76A77.38,77.38,0,0,0,293.33,100c-20,11.78-34.51,30.8-46.79,50.08a365.55,365.55,0,0,0-18.3,32.22c1.5-1.19,2.73-2.14,3.53-2.76l.33.38c-15,11.49-34.32,31.92-33.79,36.93A4,4,0,0,0,200,220c2.41,1.59,8,1.19,9.52.71l-.1.36c-5.41,1.73-13.81,7.88-13.27,11.66a3.37,3.37,0,0,0,1.4,2.41,14.26,14.26,0,0,0,7.8,1.86l.32-.12c-3.08,1.14-7.28,5.67-6.84,7.26.55,2,5,5.11,7,5.07l.06,1s-.12-.5-.21-.5a18.72,18.72,0,0,1-3.54-.34q-4.8,16.93-8,34.28c-1.64,9-3,18.12-3.91,27.25-2.94,30.42-1.69,70.59,28.43,87.67,2.13,1.21,13,3.79,8.39,7.39-2.4,1.85-14.49,3-13.87,6.68.7,4.07,12.39,4.42,15.15,4.64a154.25,154.25,0,0,0,17.6.24c.52,0,1.44,0,2.41,0,.15-1.74.14-3.58.15-5.43s0-3.86.07-5.78c.07-3.85.18-7.69.2-11.52a151.82,151.82,0,0,0-1.33-22.87,55.56,55.56,0,0,0-2.69-11.09,30,30,0,0,0-2.47-5.14,18.3,18.3,0,0,0-3.62-4.42,22.64,22.64,0,0,1,6.82,9.26,56.42,56.42,0,0,1,3.4,11.14,135.88,135.88,0,0,1,2.22,23.1c.1,3.86.11,7.72.09,11.56,0,1.92,0,3.83,0,5.75s.07,3.86-.08,5.9a13.4,13.4,0,0,1-.56,3.13l-.12.39c-.05.15-.12.31-.18.45a4.67,4.67,0,0,1-.48.85,6.77,6.77,0,0,1-1.24,1.36,22.47,22.47,0,0,1-5.48,2.84c-1.69.7-3.31,1.6-3.59,2.59a2.12,2.12,0,0,0-.11.85,4.26,4.26,0,0,0,.06.5l.15.48a4.77,4.77,0,0,0,1.24,1.77l.41.33a5.45,5.45,0,0,1,.23-3.09,6.54,6.54,0,0,1,2.79-3.36,8.51,8.51,0,0,1,2-.78,12.35,12.35,0,0,1,1.88-.39,13.23,13.23,0,0,1,3.88,0,13.42,13.42,0,0,1-3.14,2.28c-1.12.61-2.2,1.06-3,1.5a9.08,9.08,0,0,0-2.27,1.93,12.58,12.58,0,0,0-1.91,3l.47-.39a15,15,0,0,0,3.19,1.55,19.2,19.2,0,0,0,2.59.75,22.72,22.72,0,0,0,2.68.41c.46,0,.93.06,1.39.09a2.88,2.88,0,0,1-.43-.9,3.62,3.62,0,0,1,.16-2.18,7.11,7.11,0,0,1,2.47-3,10,10,0,0,1,3.24-1.61,7.37,7.37,0,0,1,3.65-.16,26.88,26.88,0,0,1-2.61,2.27c-.84.66-1.66,1.29-2.48,1.9a22.31,22.31,0,0,0-2.23,1.76,3.25,3.25,0,0,0-.73,1,2.58,2.58,0,0,0-.21,1.56h0l.55-.56a49,49,0,0,0,8.39-.43,36.13,36.13,0,0,0,5.42-1.12,14.6,14.6,0,0,0,4.65-2.47,20.1,20.1,0,0,0,3.79-3.86,25,25,0,0,0,2.86-4.7,10.16,10.16,0,0,0,.53-1.25,11.29,11.29,0,0,0,.43-1.28c.27-.88.49-1.81.71-2.73l1.22-5.61c.81-3.76,1.62-7.54,2.58-11.28a115.41,115.41,0,0,1,3.47-11.07,48.3,48.3,0,0,1,5.15-10.35c-3.71,6.77-5.64,14.26-7.18,21.75-.78,3.71-1.42,7.45-2.07,11.2a314.19,314.19,0,0,0,33.11,5.43c21.48,2.29,43.62,2.35,64.74-2.68a84.24,84.24,0,0,0,8.65-2.58c0-.15-.05-.3-.08-.45-.62-3.71-.81-7.39-1.24-11-.2-1.8-.51-3.61-.78-5.43s-.56-3.63-.94-5.4a31.73,31.73,0,0,0-1.71-5.18q-1-2.6-1.84-5.21c.73,1.69,1.47,3.37,2.25,5a30.89,30.89,0,0,1,2.07,5.16c.5,1.8.88,3.6,1.28,5.4s.8,3.58,1.12,5.42c.62,3.66,1,7.33,1.72,10.85a31,31,0,0,0,1.51,5.11,26.68,26.68,0,0,0,2.44,4.68,20.18,20.18,0,0,0,7.47,7,14.57,14.57,0,0,0,2.34.92c.8.24,1.71.43,2.57.61a44.53,44.53,0,0,0,5.29.71,51.54,51.54,0,0,0,5.7.11l.55.57a2.5,2.5,0,0,0-.21-1.56,3.25,3.25,0,0,0-.73-1,25,25,0,0,0-2.22-1.75c-.83-.61-1.65-1.24-2.49-1.9a28.31,28.31,0,0,1-2.61-2.28,7.41,7.41,0,0,1,3.66.17,9.89,9.89,0,0,1,3.23,1.61,7,7,0,0,1,2.47,3,3.52,3.52,0,0,1,.16,2.17,2.79,2.79,0,0,1-.44.92c1.2-.08,2.38-.2,3.53-.39a20.26,20.26,0,0,0,4.87-1.58,15.2,15.2,0,0,0,1.48-.83l.45.38a12.87,12.87,0,0,0-1.91-3,9.39,9.39,0,0,0-2.26-1.92c-.84-.44-1.93-.89-3.05-1.5a13.39,13.39,0,0,1-3.14-2.29,13.64,13.64,0,0,1,3.89.05,12.49,12.49,0,0,1,1.87.39,8.58,8.58,0,0,1,2,.78,6.52,6.52,0,0,1,2.78,3.36,5.47,5.47,0,0,1,.23,3.12,6.14,6.14,0,0,0,1.3-1.42,3.93,3.93,0,0,0,.57-1.85,2.25,2.25,0,0,0-.11-.84,1.9,1.9,0,0,0-.41-.71c-.78-.95-2.47-1.65-4.13-2.29a21.12,21.12,0,0,1-5.32-2.59,7.85,7.85,0,0,1-1.24-1.21,4.82,4.82,0,0,1-.87-1.72,8.21,8.21,0,0,1-.27-1.57c-.06-.51-.09-1-.11-1.48a108.6,108.6,0,0,1,.45-11.18c.28-3.68.67-7.35,1.13-11,.89-7.32,2-14.61,3.48-21.84.76-3.61,1.59-7.21,2.61-10.76a54.87,54.87,0,0,1,1.74-5.26A23,23,0,0,1,431,350.6a7.51,7.51,0,0,1,1.66-2.2,7.49,7.49,0,0,0-1.46,2.3,25.42,25.42,0,0,0-.94,2.57c-.55,1.74-1,3.52-1.4,5.31-.79,3.57-1.4,7.19-1.93,10.81-1.1,7.25-1.92,14.54-2.6,21.84q-.49,5.47-.84,10.95c-.19,3.41-.36,6.86-.24,10.19,5.42.86,11.33.44,16.69.28a155.16,155.16,0,0,0,19.14-1.45c2.36-.37,3.95,0,2.58-2.3-1.61-2.7-4-4-6.92-5-2.42-.82-9.31-1-10.72-3.45-.76-1.34.09-2.05,1-2.94,1.35-1.35,4-2.2,5.61-3.24,2-1.26,3.93-2.61,5.79-4.05A69.52,69.52,0,0,0,475.16,368c9-16.71,10.93-36.3,9.17-54.94C482.38,292.51,476.86,272.05,470.21,252.4Z"/><path d="M480.28,275.9c-2.09-8.12-4.5-16.15-7.14-24.1,2.05-.64,4-1.83,4.64-4.05.66-2.42-1-4.47-3.15-6a8.77,8.77,0,0,0,3.27-1.35,6.33,6.33,0,0,0,2.64-4.44c.57-4.05-3.48-7.35-7.58-9.61a8,8,0,0,0,2.4-1,6.85,6.85,0,0,0,3-5.29c.79-7.38-22.46-26.63-32.74-34.75q-4.32-9-8.82-17.93c-5.06-10.06-10.07-20.08-16.63-29.27-11.53-16.15-26.43-30.23-43.88-39.81-1-.56-2-1.1-3.07-1.62L406,73.89c8.12,6.16,38.47,28.84,45.06,28.84h.15c7.13-.42,34.26-20.91,35.77-40.17.87-11.12-15.89-26.21-31.83-35.52-16.22-9.48-38-16.64-50.32-8.34-17.94,12.06-41.58,52.86-51.21,70.43a81.66,81.66,0,0,0-31.41-2.27,77.88,77.88,0,0,0-24.39,7.47c-6.51-16.66-24.41-59.26-38.28-62.41-9.24-2.09-26.32,7.53-39.22,17.23S192.46,73.33,191.9,82.82c-.62,10.47,8.86,23.77,18.55,31.49,3.14,2.51,8.71,6.33,13.51,6.33a7.77,7.77,0,0,0,2.16-.29c4.21-1.23,12.57-8.34,24.85-21.13,7.09-7.39,13.53-14.65,16-17.48l18.87,19.64a115.31,115.31,0,0,0-18.48,16.09C251,135,238.22,156.37,227.23,177.64c-1.57,3-3.08,6.09-4.57,9.16-11.34,9.3-28,24.12-27.33,30.39a6.85,6.85,0,0,0,3,5.29,8.11,8.11,0,0,0,2.4,1c-4.1,2.26-8.14,5.56-7.57,9.61a6.29,6.29,0,0,0,2.64,4.44,8.7,8.7,0,0,0,3.27,1.35c-2.1,1.52-3.82,3.57-3.16,6a5.61,5.61,0,0,0,3.32,3.54q-4.81,17-8,34.39c-3.34,18.35-6.55,39.34-5.14,59.35-11.6,1.26-41.24,2.32-45.75-19-5.68-26.83,20.74-42.77,21-42.93l-1.28-2.7c-.38.14-38,14.38-34.1,48.28A41.72,41.72,0,0,0,147.31,358a53.68,53.68,0,0,0,26.43,6.72,56.15,56.15,0,0,0,15.65-2.22,75.23,75.23,0,0,0,8.79,20.37,53.92,53.92,0,0,0,16.36,16.68,52.83,52.83,0,0,0,5.29,3c.45.23,2,1.13,3.24,1.71a2.69,2.69,0,0,1-.31.12c-1.78.63-3.6,1.17-5.38,1.82-3.42,1.25-9.09,3.22-6.81,8,1.87,3.92,8,4.81,11.7,5.39a118.11,118.11,0,0,0,20,1c1.44,0,3.43.1,5.42.05a3.08,3.08,0,0,1-.28.54,3.55,3.55,0,0,1-.71.75,20.47,20.47,0,0,1-4.78,2.37,16.87,16.87,0,0,0-2.8,1.43,5.8,5.8,0,0,0-2.44,2.87,6.55,6.55,0,0,0,2.08,6.77,12.21,12.21,0,0,0,2.67,1.88,18.4,18.4,0,0,0,2.85,1.25,23.19,23.19,0,0,0,3,.83,27.21,27.21,0,0,0,3,.45,49,49,0,0,0,11.85-.35,37.34,37.34,0,0,0,5.85-1.33,17.41,17.41,0,0,0,5.44-3,25.12,25.12,0,0,0,7.15-9.66,17.94,17.94,0,0,0,1-2.89c.26-1,.45-1.92.65-2.88s.37-1.91.55-2.86c22.29,4.82,45.23,7.67,68.06,6.76a159.59,159.59,0,0,0,32.55-4.43c2.39-.6,4.76-1.26,7.12-2a28.47,28.47,0,0,0,3.1,7.11,21.88,21.88,0,0,0,8.25,8.09,16,16,0,0,0,2.77,1.14c.95.31,1.84.51,2.78.72a48.43,48.43,0,0,0,5.61.87,45.76,45.76,0,0,0,11.38-.31A23.06,23.06,0,0,0,430,433a13.82,13.82,0,0,0,2.62-1.56,8.74,8.74,0,0,0,2.25-2.39,6.77,6.77,0,0,0,1-3.36,5.14,5.14,0,0,0-1.23-3.53,8.09,8.09,0,0,0-2.68-2,25.61,25.61,0,0,0-2.67-1.13,19.49,19.49,0,0,1-4.6-2.15,5,5,0,0,1-.74-.7,2,2,0,0,1-.37-.72l0-.12.83.08a142.53,142.53,0,0,0,20.87,0c5.56-.29,11.9-.22,17.29-1.84,3.77-1.13,2.9-4.86.85-7.65-3.26-4.43-9.45-5.46-14.45-6.64l-.43-.12c.93-.58,1.95-1.33,2.33-1.56a76.58,76.58,0,0,0,11.86-8.78c14-12.68,21.84-30.36,24.29-48.89C489.81,318.41,485.66,296.72,480.28,275.9ZM406.54,21.18c7.35-4.94,23.59-5.31,47.13,8.44,17.94,10.48,31,24.53,30.35,32.69-1.44,18.31-27.57,37.1-33,37.42C447.34,99.91,425.58,85,407,70.84l-.87-.66-36,25A99.64,99.64,0,0,0,356.63,90C366.4,72.29,389.55,32.6,406.54,21.18ZM266.87,77.3l-1.08,1.24c-8.73,10.09-33,36.75-40.51,38.92-2.75.8-7.71-1.3-13-5.49-8.86-7.07-18-19.62-17.43-29,.4-6.75,11.61-19.69,27.26-31.46s30-18.24,36.75-16.7c11.43,2.59,28.3,40.38,36.27,60.84-2.32,1.24-4.58,2.57-6.79,4ZM148.79,355.43a38.8,38.8,0,0,1-19.84-30c-2.17-18.84,9.59-31.22,19.49-38.17-7.17,7.87-14.47,20.31-11.05,36.48C140,336,150.22,343.47,167,345.32a89.86,89.86,0,0,0,19.32-.13,106.25,106.25,0,0,0,2.33,14.44C175.48,363.52,160.44,362.05,148.79,355.43ZM475.16,368a69.52,69.52,0,0,1-18.8,22.19c-1.86,1.44-3.8,2.79-5.79,4.05-1.65,1-4.26,1.89-5.61,3.24-.88.89-1.73,1.6-1,2.94,1.41,2.49,8.3,2.63,10.72,3.45,2.94,1,5.31,2.32,6.92,5,1.37,2.3-.22,1.93-2.58,2.3a155.16,155.16,0,0,1-19.14,1.45c-5.36.16-11.27.58-16.69-.28-.12-3.33,0-6.78.24-10.19q.35-5.48.84-10.95c.68-7.3,1.5-14.59,2.6-21.84.53-3.62,1.14-7.24,1.93-10.81.4-1.79.85-3.57,1.4-5.31a25.42,25.42,0,0,1,.94-2.57,7.49,7.49,0,0,1,1.46-2.3,7.51,7.51,0,0,0-1.66,2.2,23,23,0,0,0-1.16,2.52,54.87,54.87,0,0,0-1.74,5.26c-1,3.55-1.85,7.15-2.61,10.76C424,376.37,422.87,383.66,422,391c-.46,3.66-.85,7.33-1.13,11a108.6,108.6,0,0,0-.45,11.18c0,.48.05,1,.11,1.48a8.21,8.21,0,0,0,.27,1.57,4.82,4.82,0,0,0,.87,1.72,7.85,7.85,0,0,0,1.24,1.21,21.12,21.12,0,0,0,5.32,2.59c1.66.64,3.35,1.34,4.13,2.29a1.9,1.9,0,0,1,.41.71,2.25,2.25,0,0,1,.11.84,3.93,3.93,0,0,1-.57,1.85,6.14,6.14,0,0,1-1.3,1.42,5.47,5.47,0,0,0-.23-3.12,6.52,6.52,0,0,0-2.78-3.36,8.58,8.58,0,0,0-2-.78,12.49,12.49,0,0,0-1.87-.39,13.64,13.64,0,0,0-3.89-.05,13.39,13.39,0,0,0,3.14,2.29c1.12.61,2.21,1.06,3.05,1.5a9.39,9.39,0,0,1,2.26,1.92,12.87,12.87,0,0,1,1.91,3l-.45-.38a15.2,15.2,0,0,1-1.48.83,20.26,20.26,0,0,1-4.87,1.58c-1.15.19-2.33.31-3.53.39a2.79,2.79,0,0,0,.44-.92,3.52,3.52,0,0,0-.16-2.17,7,7,0,0,0-2.47-3,9.89,9.89,0,0,0-3.23-1.61,7.41,7.41,0,0,0-3.66-.17,28.31,28.31,0,0,0,2.61,2.28c.84.66,1.66,1.29,2.49,1.9a25,25,0,0,1,2.22,1.75,3.25,3.25,0,0,1,.73,1,2.5,2.5,0,0,1,.21,1.56l-.55-.57a51.54,51.54,0,0,1-5.7-.11,44.53,44.53,0,0,1-5.29-.71c-.86-.18-1.77-.37-2.57-.61A14.57,14.57,0,0,1,403,430a20.18,20.18,0,0,1-7.47-7,26.68,26.68,0,0,1-2.44-4.68,31,31,0,0,1-1.51-5.11c-.75-3.52-1.1-7.19-1.72-10.85-.32-1.84-.73-3.63-1.12-5.42s-.78-3.6-1.28-5.4a30.89,30.89,0,0,0-2.07-5.16c-.78-1.66-1.52-3.34-2.25-5Q384,384,385,386.55a31.73,31.73,0,0,1,1.71,5.18c.38,1.77.65,3.59.94,5.4s.58,3.63.78,5.43c.43,3.62.62,7.3,1.24,11,0,.15.06.3.08.45a84.24,84.24,0,0,1-8.65,2.58c-21.12,5-43.26,5-64.74,2.68a314.19,314.19,0,0,1-33.11-5.43c.65-3.75,1.29-7.49,2.07-11.2,1.54-7.49,3.47-15,7.18-21.75a48.3,48.3,0,0,0-5.15,10.35,115.41,115.41,0,0,0-3.47,11.07c-1,3.74-1.77,7.52-2.58,11.28l-1.22,5.61c-.22.92-.44,1.85-.71,2.73a11.29,11.29,0,0,1-.43,1.28,10.16,10.16,0,0,1-.53,1.25,25,25,0,0,1-2.86,4.7,20.1,20.1,0,0,1-3.79,3.86,14.6,14.6,0,0,1-4.65,2.47,36.13,36.13,0,0,1-5.42,1.12,49,49,0,0,1-8.39.43l-.55.56h0a2.58,2.58,0,0,1,.21-1.56,3.25,3.25,0,0,1,.73-1,22.31,22.31,0,0,1,2.23-1.76c.82-.61,1.64-1.24,2.48-1.9A26.88,26.88,0,0,0,261,429.1a7.37,7.37,0,0,0-3.65.16,10,10,0,0,0-3.24,1.61,7.11,7.11,0,0,0-2.47,3,3.62,3.62,0,0,0-.16,2.18,2.88,2.88,0,0,0,.43.9c-.46,0-.93-.05-1.39-.09a22.72,22.72,0,0,1-2.68-.41,19.2,19.2,0,0,1-2.59-.75,15,15,0,0,1-3.19-1.55l-.47.39a12.58,12.58,0,0,1,1.91-3,9.08,9.08,0,0,1,2.27-1.93c.84-.44,1.92-.89,3-1.5a13.42,13.42,0,0,0,3.14-2.28,13.23,13.23,0,0,0-3.88,0,12.35,12.35,0,0,0-1.88.39,8.51,8.51,0,0,0-2,.78,6.54,6.54,0,0,0-2.79,3.36,5.45,5.45,0,0,0-.23,3.09l-.41-.33a4.77,4.77,0,0,1-1.24-1.77l-.15-.48a4.26,4.26,0,0,1-.06-.5,2.12,2.12,0,0,1,.11-.85c.28-1,1.9-1.89,3.59-2.59a22.47,22.47,0,0,0,5.48-2.84,6.77,6.77,0,0,0,1.24-1.36,4.67,4.67,0,0,0,.48-.85c.06-.14.13-.3.18-.45l.12-.39a13.4,13.4,0,0,0,.56-3.13c.15-2,.09-4,.08-5.9s0-3.83,0-5.75c0-3.84,0-7.7-.09-11.56a135.88,135.88,0,0,0-2.22-23.1,56.42,56.42,0,0,0-3.4-11.14,22.64,22.64,0,0,0-6.82-9.26,18.3,18.3,0,0,1,3.62,4.42,30,30,0,0,1,2.47,5.14,55.56,55.56,0,0,1,2.69,11.09,151.82,151.82,0,0,1,1.33,22.87c0,3.83-.13,7.67-.2,11.52,0,1.92-.06,3.86-.07,5.78s0,3.69-.15,5.43c-1,0-1.89,0-2.41,0a154.25,154.25,0,0,1-17.6-.24c-2.76-.22-14.45-.57-15.15-4.64-.62-3.64,11.47-4.83,13.87-6.68,4.65-3.6-6.26-6.18-8.39-7.39-30.12-17.08-31.37-57.25-28.43-87.67.88-9.13,2.27-18.21,3.91-27.25q3.24-17.33,8-34.28a18.72,18.72,0,0,0,3.54.34c.09,0,.16.5.21.5l-.06-1c-2,0-6.47-3.05-7-5.07-.44-1.59,3.76-6.12,6.84-7.26l-.32.12a14.26,14.26,0,0,1-7.8-1.86,3.37,3.37,0,0,1-1.4-2.41c-.54-3.78,7.86-9.93,13.27-11.66l.1-.36c-1.55.48-7.11.88-9.52-.71a4,4,0,0,1-1.69-3.1c-.53-5,18.81-25.44,33.79-36.93l-.33-.38c-.8.62-2,1.57-3.53,2.76a365.55,365.55,0,0,1,18.3-32.22c12.28-19.28,26.78-38.3,46.79-50.08a77.38,77.38,0,0,1,58.73-8.26C371,96.61,388,107.59,401.86,121.2c15.23,15,25,32.84,34.41,51.76q2.55,5.13,5.05,10.27l-.7-.43c15,11.48,35.32,31.91,34.78,36.92a3.92,3.92,0,0,1-1.68,3.1c-2.42,1.59-8,2.19-9.53,1.71l.1.36c5.42,1.73,13.81,6.88,13.28,10.66a3.37,3.37,0,0,1-1.4,2.41c-2.08,1.48-7,2.62-8.31,2.36l-.31-.12c3.07,1.14,7.77,5.17,7.34,6.76-.56,2-5,5.12-7,5.07h-.05c.05,0,.12.51.21.51a21.19,21.19,0,0,0,2.19-.14c6.65,19.65,12.17,40.11,14.12,60.67C486.09,331.71,484.12,351.3,475.16,368Z"/>    </g>    <g id="eye">        <g id="eye-color1">            <g opacity="0" ><path fill="#898989"  d="M234.82,140.34c-.14.46-.2.94-.35,1.4a16,16,0,0,1-1.35,2.87c-.53.93-1,1.89-1.54,2.82-.24.42-.5.81-.77,1.21l-.43.61c-.09.11-.46.47-.46.6-.19.25-.39.5-.59.74-5.88,7-13.9,9.8-22.69,6.53-8.54-3.17-14.21-10.4-14.65-19.54a.84.84,0,0,1,0-.28.93.93,0,0,1,0-.29,23.27,23.27,0,0,1,19-21.81,18.93,18.93,0,0,1,11.42,1.34c-15.29-7.7-34.35-2.92-39.29,15.34a20.81,20.81,0,0,0-.67,6.53A29.42,29.42,0,0,0,193,158.64c8.6,7.09,21.5,6.67,31.05,1.77,7.18-3.69,10-12.6,10.92-20.45C234.91,140.08,234.86,140.21,234.82,140.34Z"/></g><g opacity="0" ><path fill="#898989"  d="M358.58,134.27c-.24.62-.44,1.25-.7,1.86a24.39,24.39,0,0,1-2,3.67,31.67,31.67,0,0,1-2.54,3.43c-5.88,7-13.9,9.8-22.69,6.53-8.53-3.17-14.2-10.4-14.65-19.53a2.11,2.11,0,0,1,0-.58,23.29,23.29,0,0,1,19-21.81,18.89,18.89,0,0,1,11.43,1.35c-15.3-7.71-34.36-2.93-39.3,15.33a20.54,20.54,0,0,0-.66,6.53A29.34,29.34,0,0,0,317,151.28c8.59,7.09,21.5,6.67,31,1.77,6.9-3.55,9.72-12,10.77-19.65C358.75,133.65,358.67,134,358.58,134.27Z"/></g>        </g>        <g id="eye-shape">            <path fill="#fbfbfb"  d="M295.89,123.07c-21.73-17.81-51.73-12-72.06,4.87-11.71,10.13-20.83,23.9-22.36,39.62-1.27,13.08,2.6,26.27,9.61,37.28,12.38,19.45,36.51,33.94,59.91,27.09,20.91-6.11,35.23-26.44,41.18-46.49C318.73,163.33,314.39,138.24,295.89,123.07ZM312,167.47c3.12,13.13-4,29.28-15.05,36.62-11.44,7.58-25.45,6.3-36.15-1.92-11.83-9.09-12.9-22.85-8.48-36.32a1.57,1.57,0,0,1,.15-.32c5.3-13,19.95-19.08,33.33-17.47a40.23,40.23,0,0,1,4.79.88c7-1.95,15.58,1.56,16.61,9.37A21.23,21.23,0,0,1,312,167.47Z"/><path d="M221.71,125.82C211.07,135,202.58,147.11,199.5,161c-2.77,12.5-.75,25.57,4.53,37.14,10.21,22.39,34.35,41.15,59.93,38.25,23.13-2.63,40.23-22.12,48.49-42.66,9.19-22.89,7.78-50-9.89-68.54C280.11,101.65,245.06,106.47,221.71,125.82Zm90.46,59.62c-5.95,20.05-20.27,40.38-41.18,46.49-23.4,6.85-47.53-7.64-59.91-27.09-7-11-10.88-24.2-9.61-37.28,1.53-15.72,10.65-29.49,22.36-39.62,20.33-16.85,50.33-22.68,72.06-4.87C314.39,138.24,318.73,163.33,312.17,185.44Z"/><path d="M307.12,162.07c-1.18,7.61-8.53,14.08-16.4,11.78-7.26-2.13-10.49-10.21-8.63-17.13a1.6,1.6,0,0,1,.1-.39,1.34,1.34,0,0,1,.18-.38,12.35,12.35,0,0,1,8.2-7,40.23,40.23,0,0,0-4.79-.88c-13.38-1.61-28,4.46-33.33,17.47a1.57,1.57,0,0,0-.15.32c-4.42,13.47-3.35,27.23,8.48,36.32,10.7,8.22,24.71,9.5,36.15,1.92C308,196.75,315.1,180.6,312,167.47a21.23,21.23,0,0,0-4.8-9.16A12.9,12.9,0,0,1,307.12,162.07Z"/><path fill="#fff"  d="M290.57,148.94a12.35,12.35,0,0,0-8.2,7,1.34,1.34,0,0,0-.18.38,1.6,1.6,0,0,0-.1.39c-1.86,6.92,1.37,15,8.63,17.13,7.87,2.3,15.22-4.17,16.4-11.78a12.9,12.9,0,0,0,.06-3.76C306.15,150.5,297.61,147,290.57,148.94Z"/><path fill="#fbfbfb"  d="M437.65,124.5c-21.81-15.38-53-18.4-71.71,3.56-17.26,21.61-17.19,56.12-2.48,79a51.88,51.88,0,0,0,65.66,19.41A58,58,0,0,0,462.59,177C463.67,156.62,454.4,136.32,437.65,124.5Zm-65.73,81.87c-14.35-8.08-20.39-26.75-13.74-41.89a30.47,30.47,0,0,1,4.24-6.94,10.08,10.08,0,0,1,1.62-5.67c2.64-4.14,8-4.83,12.6-3.8a30.47,30.47,0,0,1,12.64-.95c14.23,1.89,27.34,11.65,30.73,26C426.49,200.61,394.74,217.86,371.92,206.37Z"/><path d="M445.1,126.64c-22.48-20.28-60.06-25.65-81.28-.7-16.45,20.59-17.87,51.29-7.19,74.85,10.79,23.79,36.25,38.16,62.16,32.38,23.25-5.18,41.58-24.61,45.83-47.94C468.51,163.94,461.25,141.21,445.1,126.64ZM462.59,177a58,58,0,0,1-33.47,49.54,51.88,51.88,0,0,1-65.66-19.41c-14.71-22.92-14.78-57.43,2.48-79,18.68-22,49.9-18.94,71.71-3.56C454.4,136.32,463.67,156.62,462.59,177Z"/><path d="M389.28,147.12a30.47,30.47,0,0,0-12.64.95,17.62,17.62,0,0,1,3.22,1.06c5.45,2.45,8.82,8.1,6.23,13.93-3,6.78-10.57,8.51-16.85,5.52a1.7,1.7,0,0,1-.39-.18,1.3,1.3,0,0,1-.34-.25,13.66,13.66,0,0,1-6.09-10.61,30.47,30.47,0,0,0-4.24,6.94c-6.65,15.14-.61,33.81,13.74,41.89,22.82,11.49,54.57-5.76,48.09-33.26C416.62,158.77,403.51,149,389.28,147.12Z"/><path fill="#fff"  d="M368.51,168.15a1.3,1.3,0,0,0,.34.25,1.7,1.7,0,0,0,.39.18c6.28,3,13.85,1.26,16.85-5.52,2.59-5.83-.78-11.48-6.23-13.93a17.62,17.62,0,0,0-3.22-1.06c-4.6-1-10-.34-12.6,3.8a10.08,10.08,0,0,0-1.62,5.67A13.66,13.66,0,0,0,368.51,168.15Z"/>        </g>        <g id="eye-color2">            <path fill="#CABBFF"  d="M296.93,204.09c-11.44,7.58-25.45,6.3-36.15-1.92-11.83-9.09-12.9-22.85-8.48-36.32a1.57,1.57,0,0,1,.15-.32c5.09-12.49,18.79-18.56,31.71-17.61-18.58-4.75-40.69,3.61-47,22.29a37.84,37.84,0,0,0,4.9,33.64c7.49,10.53,19.92,14.8,32.48,14.76,6.18,0,12.54-1,17.8-4.27,8.59-5.28,15.13-15.61,17.42-26.36A36.26,36.26,0,0,1,296.93,204.09Z"/><path fill="#CABBFF"  d="M413.7,150.66c-9.56-6.81-25.15-8-36.48-2.77a30.7,30.7,0,0,1,12.06-.77c14.23,1.89,27.34,11.65,30.73,26,6.48,27.5-25.27,44.75-48.09,33.26a32.32,32.32,0,0,1-14.31-17.05,17.33,17.33,0,0,0,.4,2.36,31.2,31.2,0,0,0,16.47,20.87c13.13,6.59,30.83,4.54,43.3-5.59a31.73,31.73,0,0,0,10.47-14.43C433.11,177.65,426.41,159.69,413.7,150.66Z"/>        </g>    </g>    <g id="nose-mouth">        <path fill="#fff"  d="M349.07,205.17c2.6-4.83-8.69-9.07-11.13-3C336.45,205.91,346.47,210,349.07,205.17Z"/><path d="M306.4,233.29l-.22.51-.18.45c-.11.3-.21.6-.34.89a17.64,17.64,0,0,1-.81,1.7,12.54,12.54,0,0,1-4.8,5.22,9.5,9.5,0,0,1-3.24,1.1,11.84,11.84,0,0,1-3.51-.08,4.06,4.06,0,0,1-.83-.17c-.25-.08-.52-.13-.77-.22a5.82,5.82,0,0,1-1.37-.79,6.29,6.29,0,0,1-1.15-1.1,8,8,0,0,1-.78-1.41,7.54,7.54,0,0,1-.49-1.57,7.76,7.76,0,0,1-.06-1.67,6.43,6.43,0,0,1,1-3.12c.08-.12.14-.24.22-.35l.29-.31a5.48,5.48,0,0,1,.58-.6,6.6,6.6,0,0,1,1.45-.92,4.57,4.57,0,0,1,.81-.37l.87-.24c.14,0,.29-.09.44-.12l.43-.06.44-.05h.43a3.75,3.75,0,0,1,1.63.38,4.37,4.37,0,0,1,1.29,1.18,8.15,8.15,0,0,1,1.21,3.65,7.58,7.58,0,0,0-.48-4,4.46,4.46,0,0,0-3.48-2.62l-.56-.09h-1.11c-.18,0-.36.05-.54.07l-1.08.17a7.12,7.12,0,0,0-1.06.32,7.89,7.89,0,0,0-3.67,2.62,8.15,8.15,0,0,0-1.75,4.23,9.1,9.1,0,0,0,.52,4.56,9.5,9.5,0,0,0,1.1,2.09,9,9,0,0,0,1.68,1.69,8.68,8.68,0,0,0,2,1.22c.37.15.76.24,1.13.35a5,5,0,0,0,1.12.25,14.87,14.87,0,0,0,4.42,0,11.57,11.57,0,0,0,4.23-1.56,14.14,14.14,0,0,0,5.46-6.65c.28-.65.53-1.31.74-2,.12-.33.19-.67.29-1l.13-.49.13-.42a7.2,7.2,0,0,1,1.76-3.07,13,13,0,0,1,6.78-3.45A12,12,0,0,0,309,229.8,8.83,8.83,0,0,0,306.4,233.29Z"/><path d="M374.79,222.28a7.94,7.94,0,0,0-4.32-2,7.38,7.38,0,0,0-4.54,1,5.68,5.68,0,0,0-2.91,3.47,5.52,5.52,0,0,0,.9,4.19,5.48,5.48,0,0,1-.1-3.94,4.71,4.71,0,0,1,2.75-2.4,5.74,5.74,0,0,1,6.6,1.39,7.51,7.51,0,0,1,1.9,6.58A9.4,9.4,0,0,1,371,236.3a10.37,10.37,0,0,1-7,1.78,10.64,10.64,0,0,1-3.52-1,10.28,10.28,0,0,1-2.92-2.26,9.11,9.11,0,0,1-1.15-1.51c-.35-.53-.58-1.14-.9-1.7a12.65,12.65,0,0,0-2.46-3.77,8.5,8.5,0,0,0-8.12-2.23,8.44,8.44,0,0,1,7,3.2,11.3,11.3,0,0,1,1.71,3.46,13.29,13.29,0,0,0,2.09,4,11.25,11.25,0,0,0,3.47,3.07,12.52,12.52,0,0,0,13.41-.57,12.14,12.14,0,0,0,5.17-7.74A9.81,9.81,0,0,0,374.79,222.28Z"/><path d="M333.27,240l-.24.11-.64-13.83a.51.51,0,0,1,0-.13c11-2,28.67-17.65,22.64-26.52-6.31-9.28-44.18.65-46,8.91-1.42,6.37,10,17.47,20.4,17.83v0l.7,15.05c-.38.19-.76.37-1.14.58a21.54,21.54,0,0,0-4,2.85,21.5,21.5,0,0,0,4.87-.66c.54-.13,1.07-.29,1.6-.45l.21,0h.07a1.49,1.49,0,0,0,.94-.4c.58-.2,1.16-.4,1.73-.62a34.06,34.06,0,0,0,4.32-2,21.08,21.08,0,0,0,4-2.85,21.5,21.5,0,0,0-4.87.66A35.42,35.42,0,0,0,333.27,240Zm4.67-37.77c2.44-6.1,13.73-1.86,11.13,3S336.45,205.91,337.94,202.2Z"/>    </g></svg>